<svg width="140" height="118" viewBox="0 0 140 118" xmlns="http://www.w3.org/2000/svg" xmlns:sketch="http://www.bohemiancoding.com/sketch/ns"><title>Imported Layers</title><desc>Created with Sketch.</desc><g sketch:type="MSArtboardGroup" fill="none"><path opacity=".87" sketch:type="MSShapeGroup" d="M-707-679h1024v1024h-1024z"/><g sketch:type="MSLayerGroup" fill="#000"><g sketch:type="MSShapeGroup"><path d="M72.267 79.524c.233-.024.477.005.677-.076 1.588-.646 3.176-1.292 4.744-1.983.467-.205.886-.53 1.298-.838.726-.545 1.52-1.039 2.117-1.705.57-.637 1.005-1.432 1.349-2.222.292-.672.337-1.447.548-2.16.265-.897.298-1.861.829-2.691.182-.286.16-.701.258-1.191l.475-.284-.201-.514c.13-.479.18-.823.317-1.131.288-.653.538-1.353.974-1.896.178-.222.862-.225 1.207-.077.362.155.88.376.793 1.019-.028.214.193.461.278.646-.254.488-.643.998-.791 1.569-.332 1.286-.541 2.604-.81 3.906l-.183.323c-.762 2.085-1.238 4.225-1.079 6.458.038.531.111 1.206.444 1.529.34.33 1.074.513 1.543.394.805-.203 1.547-.673 2.295-1.069.511-.27 1.031-.554 1.47-.921.539-.451 1.101-.93 1.466-1.514.589-.94 1.003-1.987 1.529-2.968.95-1.768 1.824-3.588 3.217-5.075.549-.586 1.12-1.152 1.674-1.735.386-.407.763-.826 1.142-1.241l.098-.143c.942.086 1.224-1.062 2.086-1.109.609-.033 1.237-.128 1.821-.015.187.036.359.655.354 1.004-.004.286-.223.638-.454.837-.473.41-1.186.53-1.386 1.277-.04.147-.489.145-.638.311-.709.788-1.376 1.613-2.063 2.42-.408.479-.868.918-1.225 1.43-.341.49-.621 1.035-.855 1.587-.532 1.253-1.092 2.509-1.061 3.912.006.306.06.639.196.908.295.579.568 1.217 1.017 1.66.461.453 1.09.792 1.706 1.017.747.271 1.553.385 2.34.532.19.035.407-.071.7-.131.241.407.646.487 1.276.208.521-.231 1.16-.183 1.724-.339.732-.205 1.438-.498 2.161-.737 1.084-.359 2.182-.677 3.255-1.068.587-.213 1.148-.512 1.686-.831.153-.09.268-.391.255-.586-.027-.406-.074-.842-.252-1.196-.254-.509-.094-.937-.005-1.43.128-.713.044-1.462.146-2.181.123-.866.333-1.721.531-2.575.281-1.216.682-2.406 1.432-3.406.63-.839 1.479-1.436 2.599-1.534.519-.046 1.035-.158 1.546-.269.555-.121 1.002.08 1.424.4.531.404 1.164.731 1.559 1.241.273.352.32.966.282 1.448-.04.524-.152.984.114 1.514.314.624-.362 1.01-.59 1.502-.277.597-.608 1.168-.913 1.754-.25.481-.465.983-.748 1.444-.318.516-.652 1.031-1.053 1.484-.679.771-1.415 1.494-2.128 2.236l-.191.171c-.554.502-.555.602-.036 1.104.52.503 1.023 1.026 1.563 1.504.167.149.439.18.74.296.097.082.248.269.443.367 1.195.606 2.439 1.012 3.809.902 1.207-.096 2.425-.111 3.621-.277 1.204-.167 2.391-.461 3.578-.726 1.12-.249 2.321-.355 3.321-.856.855-.426 1.85-.475 2.613-1.096.42-.342.905-.601 1.343-.919.47-.342 1.069-.309 1.692.102.495.327.518.921.319 1.248-.256.423-.775.813-1.256.944-.767.212-1.365.511-1.537 1.012-.563.19-1.061.347-1.55.525-.234.086-.45.217-.678.316-.477.203-.947.435-1.442.587-.517.158-1.058.246-1.592.348-1.293.248-2.583.512-3.882.717-.838.133-1.736.037-2.526.293-.975.316-1.941.256-2.893.187-.847-.061-1.674-.404-2.508-.627-.2-.054-.395-.124-.59-.193-1.143-.398-2.2-.942-3.089-1.781-.671-.632-1.318-1.303-2.061-1.834-.222-.16-.753.051-1.119.168-.641.203-1.264.466-1.895.702-.542.202-1.076.433-1.63.594-.408.121-.734.407-1.087.546-1.019.4-2.105.636-3.172.909-.486.124-1.002.138-1.482.281-.923.273-1.797.154-2.691-.136-.398-.13-.873-.036-1.261-.184-1.146-.438-2.308-.867-3.376-1.46-.502-.279-.862-.889-1.173-1.416-.409-.692-.707-1.449-1.096-2.269l-.655.688c-.186.192-.367.387-.564.564-.763.681-1.723 1.09-2.513 1.697-.835.642-1.799.89-2.684 1.354-.106.056-.183.166-.153.138-.568-.057-1.046-.158-1.519-.14-1.032.041-1.758-.482-2.437-1.159-.126-.125-.367-.135-.553-.197l-.464-1.933c-.08-.335-.267-.404-.558-.217-.702.45-1.403.9-2.111 1.342-.279.173-.573.322-.858.485-.176.1-.348.206-.491.316-.238.162-.471.332-.716.483-.147.091-.308.168-.471.226l-1.382.472c-.468.172-.915.409-1.394.541-1.042.287-2.089.579-3.152.768-1.141.201-2.298.345-3.454.407-1.574.085-3.143.049-4.718-.203-.614-.099-1.178-.125-1.696-.505-.242-.178-.577-.223-.849-.368-.363-.193-.696-.022-.634.276.145.693-.368 1.226-.318 1.867.025.311.191.822.077.892-.427.261-.277.626-.326.962-.067.453-.128.907-.223 1.354-.121.57-.314 1.125-.406 1.699-.237 1.485-.376 2.989-.666 4.463-.246 1.248-.358 2.519-.612 3.75-.24 1.169-.402 2.374-.812 3.522-.251.703-.229 1.501-.376 2.246-.062.317-.277.601-.366.915-.265.94-.518 1.884-.743 2.834l-.044.895c-.208.956-.424 1.912-.692 2.853-.259.91-.62 1.791-.865 2.704-.138.513-.001 1.08-.446 1.538-.117.121.115.526.062.775-.145.693-.278 1.406-.561 2.046-.274.618-1.002.584-1.557.647-.29.033-.84.032-.893-.575-.012-.137-.273-.253-.387-.351.163-.8.237-1.557.482-2.255.249-.708.369-1.394.416-2.146.04-.642.467-1.255.689-1.893.324-.928.679-1.853.902-2.809.142-.605-.119-1.358.147-1.863.219-.417.252-.823.391-1.227.202-.593.701-1.117.403-1.82.454-.2.321-.622.394-.98l.665-3.034c.045-.222-.03-.466-.043-.621.173-.291.433-.556.49-.859.177-.95.271-1.913.409-2.87.194-1.353.365-2.711.607-4.056.171-.94.475-1.857.65-2.797.046-.249-.166-.547-.274-.863l.33-.064c.285-1.577.568-3.105.839-4.635.274-1.542.544-3.086.791-4.633.023-.138-.143-.306-.212-.445-.678.59-1.284 1.095-1.865 1.629-.472.434-.843 1.027-1.384 1.322-.85.464-1.718.925-2.726 1.079-.699.107-1.366.446-2.034.714-.589.237-1.15.373-1.817.273-.759-.115-1.55.006-2.323-.04-.549-.033-1.091-.173-1.716-.278l.374-1.63c1.43-.27 2.729-.519 4.029-.757.873-.16 1.766-.243 2.621-.469.966-.255 1.967-.469 2.647-1.349.312-.404.797-.67 1.15-1.048.759-.813 1.494-1.648 2.217-2.493.575-.67.872-1.468 1.079-2.325.107-.441.481-.815.605-1.255.225-.801.351-1.63.529-2.443l.33-1.384c.04-.183.12-.437.036-.554-.241-.337-.091-.603.033-.904.113-.273.119-.735.297-.807.56-.227 1.177-.32 1.777-.443.217-.045.447-.028.677-.04l.251.737c.997-.877 2.063-1.404 3.313-1.743 1.062-.289 2.125-.281 3.179-.444 1.091-.171 1.989.42 2.854.972.523.333.982.764 1.46 1.163.342.285.695.563.995.889.487.529 1.017 1.044 1.377 1.654.5.848 1.159 1.654 1.076 2.758-.025.334.12.698.247 1.026.394 1.012.453 2.084.199 3.085-.205.809-.676 1.604-1.203 2.267-.54.678-1.287 1.194-1.951 1.77-.636.552-1.283 1.092-1.982 1.685zm2.637-7.283c-.116-.638-.27-1.272-.338-1.914-.095-.909-.613-1.62-1.091-2.321-.444-.649-1.012-1.238-1.614-1.748-.59-.501-1.282-.887-1.95-1.291-.736-.446-1.498-.485-2.331-.192-.525.185-1.098.208-1.652.382-1.371.43-2.109 1.39-2.646 2.612-.284.646-.607 1.274-.883 1.924-.106.249-.137.533-.191.803l-.299 1.549c-.22 1.034-.969 1.914-.8 3.08.07.488-.251 1.021-.238 1.53.015.614-.391 1.248.196 1.866.474.499 1.031.639 1.619.658.65.02 1.317-.001 1.967-.034 1.486-.077 2.968-.138 4.353-.649.882-.324 1.666-.934 2.46-1.466.771-.517 1.6-1.005 2.219-1.676.777-.842 1.276-1.89 1.219-3.114zm40.049 2.784c.72-.636 1.358-1.15 1.936-1.726.337-.335.617-.746.85-1.164.325-.584.484-1.284.89-1.795.77-.967 1.446-1.913 1.127-3.236-.078-.321-.104-.672-.259-.953-.129-.232-.411-.38-.613-.556-.838.217-1.743.302-2.225 1.166-.325.581-.709 1.145-.936 1.765-.248.678-.368 1.406-.501 2.12-.091.495-.115 1.001-.162 1.503-.047.504-.105 1.009-.123 1.514-.018.469.01.941.017 1.361z"/><path d="M32.435 14.966c1.258-1.029 2.305-2.079 2.41-3.764.027-.433.143-.866.266-1.285.464-1.572.159-3.059-.417-4.539-.256-.657-.611-1.198-1.188-1.619-.871-.636-1.882-.843-2.9-.86-1.28-.021-2.569.08-3.755.681-.715.362-1.421.814-2.185.989-1.48.342-2.414 1.471-3.497 2.319-1.748 1.369-2.696 3.283-2.686 5.576v1.308c-.603.479-.435 3.275.384 3.83-.548.214-.465.581-.29 1.003.413.996.779 2.011 1.212 2.997.143.327.468.569.647.884.565 1 1.014 2.076 1.666 3.014 1.212 1.742 2.145 3.68 3.68 5.205.777.771 1.418 1.675 2.161 2.48.445.482.984.876 1.45 1.342l.495.726c.486.497 1.01.958 1.514 1.437.041.039.086.115.074.16-.116.453.282.556.494.817.626.772 1.158 1.618 1.741 2.425.512.706 1.031 1.407 1.569 2.093l2.957 3.723c.696.888 1.388 1.781 2.045 2.698.513.716 1.035 1.439 1.434 2.221.445.874.749 1.82 1.128 2.729.271.649.608 1.274.841 1.936.559 1.596 1.2 3.161 1.472 4.855.242 1.514.37 3.009.273 4.544-.104 1.634-.656 3.122-1.222 4.62-.251.663-.424 1.367-.763 1.982-.616 1.117-1.065 2.34-2.07 3.227-.534.473-.951 1.079-1.427 1.62-.156.176-.308.374-.502.495-1.282.801-2.599 1.548-3.86 2.379-1.825 1.203-3.957 1.404-5.996 1.892-1.608.384-3.245.682-4.885.891-1.025.131-2.081.001-3.121.034-1.254.041-2.507.149-3.761.186-.467.015-.949-.035-1.402-.146-1.398-.336-2.809-.65-4.167-1.111-.547-.187-1.122-.33-1.65-.752-1.4-1.118-2.968-2.024-4.43-3.068-.953-.68-1.969-1.342-2.719-2.214-.912-1.063-1.73-2.225-2.267-3.577-.354-.892-.854-1.739-.916-2.706-.085-1.316-.099-2.639-.068-3.957.025-1.012.111-2.029.273-3.027.124-.772.352-1.541.644-2.267.178-.44.578-.788.855-1.193.443-.649.976-1.268 1.254-1.983.151-.389.427-.485.653-.647 1.151-.82 2.303-1.651 3.528-2.35.712-.407 1.471-.759 2.382-.774 1.454-.022 2.907-.347 4.356-.324 1.258.02 2.66.059 3.719.617.981.516 2.044.533 2.974 1.023.099.052.173.149.26.223.232.195.437.454.703.57.587.255 1.101.5.954 1.293-.039.214.171.558.073.662-.266.285-.613.603-.969.665-.428.075-.926-.031-1.347-.187-.486-.18-.952-.457-1.371-.766-1.414-1.038-2.998-1.505-4.738-1.572-1.817-.067-3.586.122-5.298.76-.541.202-1.126.302-1.64.552-.355.172-.596.566-.936.787-1.703 1.105-2.776 2.615-3.406 4.562-.528 1.633-.558 3.289-.565 4.937-.005 1.094.072 2.242.624 3.295.503.959.809 2.022 1.298 2.989.19.376.632.633.974.924 1.096.932 2.131 1.954 3.317 2.755 1.376.929 2.887 1.659 4.336 2.482 1.712.972 3.627 1.131 5.517 1.248 1.47.092 2.955-.046 4.434-.105 2.238-.088 4.443-.405 6.6-1.024 1.044-.3 2.14-.485 3.121-.924 1.244-.558 2.408-1.301 3.582-2.003.57-.34 1.126-.726 1.612-1.174.536-.493.993-1.074 1.469-1.63l.608-.818c1.048-1.23 1.484-2.772 2.074-4.219.33-.807.297-1.761.442-2.648.018-.11.124-.207.186-.312.065-.112.183-.23.179-.343-.018-.468-.135-.938-.104-1.401.097-1.436-.288-2.805-.609-4.166-.269-1.138-.789-2.219-1.191-3.326-.078-.215-.104-.452-.199-.657-.407-.884-.814-1.77-1.253-2.639-.31-.615-.647-1.22-1.015-1.802-.322-.509-.534-1.111-1.12-1.425-.086-.046-.122-.207-.158-.321-.25-.804-.747-1.416-1.399-1.943-.266-.215-.392-.6-.602-.891-.615-.852-1.114-1.844-1.888-2.513-1.552-1.337-2.398-3.174-3.598-4.749-.598-.784-1.288-1.449-1.924-2.175-.921-1.05-1.906-2.044-2.82-3.099-1.065-1.227-2.121-2.466-3.108-3.755-.536-.699-.917-1.517-1.38-2.275-.214-.349-.477-.668-.683-1.021-.587-1.009-1.174-2.016-1.725-3.043-.511-.949-.928-1.948-1.473-2.875-.641-1.09-.84-2.307-1.032-3.5-.148-.925.019-1.905.072-2.859.033-.607.07-1.221.179-1.817.224-1.216.451-2.435.763-3.63.422-1.607 1.649-2.664 2.837-3.682.909-.778 1.954-1.407 2.98-2.037.969-.594 1.941-1.26 3.005-1.61 1.503-.495 3.056-.949 4.686-.839.573.039 1.167.002 1.712.147 1.151.304 2.289.631 3.325 1.293.952.608 1.341 1.499 1.68 2.469.061.177.082.374.17.534.56 1.028.524 2.165.681 3.277.139.98-.412 1.759-.511 2.655-.042.373-.122.742-.18 1.114-.237 1.518-1.35 2.569-2.064 3.83-.352.62-1.502.971-2.081.567-.255-.18-.306-.672-.413-1.033-.06-.2-.044-.423-.058-.582"/><path d="M87.3 58.417c-.312-.236-.707-.457-.999-.772-.552-.595-.442-.974.126-1.508.416-.392.689-.933 1.045-1.393.229-.297 1.44-.375 1.791-.082.399.333.534.733.256 1.269-.341.657-.575 1.371-.876 2.049-.048.11-.189.222-.307.249-.391.091-.79.145-1.037.187"/></g><g sketch:type="MSShapeGroup"><path d="M99.613 14.959l-.33-.895c-.034-.096-.128-.231-.095-.284.702-1.091-.054-2.177-.088-3.249-.043-1.279-.574-2.546-.929-3.808-.19-.671-.423-1.334-.698-1.975-.133-.312-.504-.534-.6-.848-.348-1.128.19-1.86 1.367-2.019.249-.034.474-.235.717-.342.749-.329 1.408-.854 2.308-.837.525.01 1.073-.14 1.576-.318 1.34-.475 2.563.033 3.807.375 1.34.367 2.424 1.152 3.555 1.941 1.253.876 2.212 1.929 2.976 3.187.683 1.127.965 2.415 1.028 3.713.103 2.073-.187 4.03-1.742 5.636-1.139 1.176-2.476 2.109-3.983 2.533-1.297.365-2.752.205-4.139.202-.673-.001-1.345-.231-2.021-.25-.78-.022-1.348-.416-1.895-.876-.095-.08-.103-.303-.096-.457.047-1.006.052-1.006-.719-1.428zm.414-10.887c1.065 2.454 1.483 4.972 1.76 7.502.124 1.122 1.044 1.911 1.044 3.041 0 .073.207.143.315.22.879.627 1.873.427 2.848.404 2.535-.06 4.114-.873 5.206-3.485 1.022-2.446-.427-4.946-1.843-6.288-.818-.774-1.885-1.352-2.935-1.797-1.27-.539-2.609-1.052-4.049-.46-.757.312-1.536.568-2.347.865z"/><path d="M125.048 28.639c-.881.065-1.829.069-2.756.211-1.959.305-3.909.671-5.859 1.035-.467.086-.5.49-.344.824.444.951.94 1.879 1.377 2.739 1.117 0 2.26-.021 3.401.005 1.887.044 3.709-.301 5.455-.965.97-.368 1.573.069 2.155.678-.317 1.874-1.948 2.023-3.325 2.401-2.233.611-4.516.958-6.848.85-.228-.011-.46.041-.753.07.173.778.295 1.458.491 2.117.052.178.304.386.496.423 1.028.199 2.062.378 3.103.508.999.126 2.012.29 3.009.244 1.103-.051 2.194-.334 3.294-.482.238-.033.567-.012.728.128.741.645.466 1.942-.434 2.253-2.23.767-4.556.977-6.876.955-1.557-.015-3.111-.401-4.659-.655-.136-.022-.213-.321-.344-.469-.137-.155-.305-.284-.463-.423-.458-.401-.698-.793-.727-1.51-.078-1.963-.361-3.921-.633-5.871-.078-.561-.382-1.094-.595-1.635-.433-1.102-.283-1.417.848-1.789.11-.036.19-.165.312-.276-.367-.276-.743-.464-.98-.762-.24-.302-.342-.712-.46-.979.276-.302.484-.667.798-.843.543-.303 1.135-.575 1.74-.706.877-.189 1.781-.255 2.675-.349.705-.074 1.413-.117 2.119-.165.922-.06 1.845-.141 2.769-.161 1.362-.026 1.855.677 1.435 1.968-.065.199-.096.408-.146.629"/><path d="M84.652 18.319l-.356-1.135c-.231.198-.464.302-.528.469-.327.869-1.072.664-1.716.692-.125.004-.293-.13-.381-.247-.286-.378-.543-.774-.83-1.192l.356-.056c-.132-1.391-.207-2.733-.396-4.062-.249-1.767-.587-3.521-.884-5.282-.026-.152-.043-.307-.047-.463-.029-.975-.054-1.948-.084-3.064.245-.28.742-.718 1.07-1.26.591-.976 1.477-1.268 2.52-1.326.895-.051 1.789-.166 2.681-.144.786.021 1.503.216 2.236.678 1.167.739 2.094 1.782 3.314 2.427l.507.25c.011.191-.063.478.048.608.835.984 1.352 2.147 1.669 3.354.613 2.324.6 4.676-.739 6.755-.715 1.108-1.805 1.879-3.089 2.47-1.16.535-2.289.748-3.504.747-.589 0-1.179-.135-1.849-.218zm1.392-3.36c.478.255.973.754 1.433.723 1.832-.122 3.272-1.436 3.685-3.166.261-1.089.58-2.191.011-3.271-.438-.832-.911-1.649-1.422-2.438-.218-.338-.532-.651-.871-.866-.642-.406-1.435-.622-1.983-1.117-1.253-1.134-2.556-.38-3.838-.244-.136.014-.324.416-.327.641-.014.91-.029 1.83.077 2.73.229 1.955.497 3.907.822 5.848.153.902.473 1.776.768 2.846.209-1.138.673-1.824 1.645-1.686z"/><path d="M105.805 32.866c-.168.307-.298.769-.598 1.052-.874.826-2.034 1.437-2.67 2.404-.644.979-1.521 1.097-2.389 1.208-1.396.178-2.187-.87-2.884-1.877-.598-.865-1.101-1.797-1.701-2.792-1.996 2.939-3.718 5.863-4.816 9.232l-.941 1.618c-.166-.015-.368-.095-.522-.038-.951.345-1.424-.198-1.892-.899-.488-.726-.381-1.362.258-1.975.43-.413.745-.975 1.022-1.515.596-1.156 1.08-2.372 1.711-3.507.716-1.285 1.564-2.497 2.311-3.767.348-.59.624-1.229.86-1.871.054-.144-.188-.397-.245-.502.539-.313 1.134-.599 1.656-.982.492-.36 1.37-.14 1.69.375.419.677.48 1.558 1.226 2.065.183.125.168.534.249.811.291.992.918 1.764 1.737 2.338.256.178.867.196 1.09.014 1.143-.94 2.332-1.874 3.252-3.012.42-.519.69-1.041 1.369-1.282.956-.342 1.804-.049 2.34.832.448.736 1.057 1.382 1.433 2.148.371.754.683 1.594.758 2.42.096 1.045-.175 2.122-.093 3.172.065.829-.135 1.662.293 2.531.262.533.555 1.518-.365 2.084-.18.11-.24.41-.394.692-.912-.309-1.767-.733-2.367-1.544-.115-.156-.165-.408-.148-.608.146-1.75.262-3.505.492-5.245.181-1.363-.148-2.46-1.719-3.577"/><path d="M70.519 36.699c.019-.408-.058-.704.056-.869.991-1.432 1.933-2.901 3.545-3.78l2.076-1.494c.996-.542 1.965-.049 2.905.335.216.089.43.221.654.243 1.219.114 2.299.501 3.162 1.413.172.183.441.275.665.409.103.062.279.107.298.189.238.992.578 1.982.639 2.988.077 1.271-.044 2.56-.144 3.837-.139 1.771-1.054 3.194-2.366 4.275-1.807 1.489-3.92 1.92-6.285 1.616-1.161-.15-2.08-.618-3.055-1.126-1.359-.707-2.384-1.789-3.131-3.049-.491-.828-.992-1.85-.328-2.907.096-.154.128-.351.166-.534.157-.73.202-1.539 1.143-1.546zm6.851-3.507c-1.085.77-2.089 1.473-3.078 2.195-.137.102-.199.307-.298.463-.475.745-.875 1.561-1.459 2.207-.309.343-.574.575-.526 1.062.041.417-.157.984.052 1.237.808.977 1.752 1.815 2.96 2.33 1.276.544 2.567.353 3.835.128 1.325-.235 2.356-.997 2.721-2.342.349-1.29.642-2.612.778-3.938.158-1.543-.734-2.302-2.341-2.334-.941-.018-2.036.275-2.642-1.008z"/><path d="M70.861 12.834h-5.322c-.4.942-.822 1.905-1.215 2.881-.128.317-.216.662-.256 1.002-.128 1.084-1.653 1.675-2.558 1.278-.337-.148-.69-.619-.731-.977-.048-.408.206-.873.398-1.281.503-1.058 1.043-2.099 1.568-3.148l.243-.494c.381-.863.811-1.712 1.128-2.6.644-1.807 1.336-3.609 1.79-5.466.238-.973 1.047-1.55 1.301-2.486.069-.255.82-.372 1.275-.463.504-.1.996-.058 1.037.653.005.091.096.214.18.259 1.293.686 1.403 2.019 1.771 3.209.227.739.423 1.485.658 2.22.491 1.536.958 3.08 1.517 4.59.275.743.732 1.417 1.106 2.122.286.539.57 1.08.851 1.624.047.092.032.251.099.294.922.577.081 1.285.147 1.922.005.054-.084.136-.148.176-.514.329-2.433-.023-2.708-.566-.484-.951-.882-1.947-1.316-2.923l-.816-1.828zm-4.143-3.225c.823.078 1.402.144 1.981.185.374.026.75.014 1.125.021-.111-.35-.229-.699-.333-1.05-.311-1.075-.614-2.151-.922-3.226-.475.143-1.228 2.324-1.138 3.142l-.715.928z"/><path d="M56.268 35.264c-.191-.442-.324-.649-.37-.876-.096-.476-.257-.977-.19-1.439.135-.92.35-1.794 1.162-2.475.973-.817 1.865-1.62 3.245-1.683.545-.025 1.075-.435 1.609-.671.196-.088.383-.22.589-.261 1.788-.351 2.791.279 3.458 2.306-.731.162-1.444.415-2.172.461-1.04.067-1.944.491-2.875.861-.497.198-1.112.346-1.424.723-1.256 1.518-.151 2.781 1.114 3.883 1.106.964 2.149 2.01 3.126 3.105.355.398.436 1.043.555 1.355.059.721.015 1.267.164 1.754.283.929.496 1.824-.025 2.729-.089.154-.18.335-.32.424-.91.571-1.774 1.341-2.77 1.612-.914.248-1.929.677-2.957.235-.463-.199-.963-.309-1.436-.486-.776-.294-1.459-.692-1.737-1.561-.047-.152-.269-.248-.518-.464.426-.655.772-1.44 1.341-2 .778-.766 1.355.328 2.061.437.139.921.287 1.046 1.579 1.072.452.01.94-.036 1.355-.2.647-.257 1.04-.747.93-1.521-.151-1.067-.469-2.081-1.176-2.892-.499-.571-1.085-1.13-1.746-1.481-1.08-.572-1.522-1.617-2.187-2.504-.159-.213-.35-.401-.387-.443"/></g></g></g></svg>