<?xml version="1.0" encoding="UTF-8" standalone="no"?>
<svg width="140px" height="118px" viewBox="0 0 140 118" version="1.1" xmlns="http://www.w3.org/2000/svg" xmlns:xlink="http://www.w3.org/1999/xlink" xmlns:sketch="http://www.bohemiancoding.com/sketch/ns">
    <!-- Generator: Sketch 3.1.1 (8761) - http://www.bohemiancoding.com/sketch -->
    <title>Imported Layers</title>
    <desc>Created with Sketch.</desc>
    <defs></defs>
    <g id="Page-1" stroke="none" stroke-width="1" fill="none" fill-rule="evenodd" sketch:type="MSPage">
        <g id="Desktop-2" sketch:type="MSArtboardGroup" transform="translate(-707.000000, -679.000000)">
            <rect id="Rectangle-1" opacity="0.869927705" sketch:type="MSShapeGroup" x="0" y="0" width="1024" height="1024"></rect>
            <g id="Imported-Layers" sketch:type="MSLayerGroup" transform="translate(707.500000, 679.500000)" fill="#000000">
                <g id="Fill-1-+-Fill-2" sketch:type="MSShapeGroup">
                    <path d="M71.7669912,79.0239556 C71.9998302,79.0003996 72.2444721,79.0293093 72.4440484,78.947934 C74.0320748,78.3022855 75.6201012,77.6555662 77.1877408,76.9649471 C77.6544918,76.7604382 78.0740312,76.4349371 78.4860597,76.1265676 C79.2124745,75.5815675 80.0064877,75.0879622 80.6030706,74.4219698 C81.1728287,73.7848871 81.608463,72.9904075 81.9518201,72.2002107 C82.2436736,71.527794 82.2887392,70.7536582 82.5001184,70.0405538 C82.7651471,69.1432844 82.7984098,68.1796298 83.3295403,67.3498162 C83.5119487,67.063932 83.4894159,66.6484898 83.5870581,66.1591675 C83.6385616,66.1281164 83.8317,66.0124778 84.062393,65.8754247 C83.9711888,65.6430769 83.8821305,65.415012 83.8617437,65.3614756 C83.9915756,64.8828605 84.0420062,64.5380864 84.178276,64.2307876 C84.4658376,63.577644 84.7158444,62.8773884 85.1525517,62.3345296 C85.3306682,62.1128891 86.0141633,62.1096769 86.3596664,62.2574373 C86.7212643,62.4126927 87.2395188,62.6332625 87.1526066,63.2767696 C87.1247088,63.4909151 87.3457449,63.7382531 87.4305112,63.9224182 C87.1762124,64.4106698 86.7877897,64.920336 86.639717,65.4910336 C86.3081628,66.7769771 86.0989296,68.0950424 85.8296089,69.3970467 C85.8049301,69.5126853 85.6879741,69.6047678 85.6461275,69.7204064 C84.884304,71.8051124 84.407896,73.9454962 84.5666987,76.1779625 C84.6042534,76.7090433 84.6772167,77.3836015 85.0109169,77.7069611 C85.351055,78.0367451 86.0849807,78.2198395 86.5538777,78.1009887 C87.3586208,77.8975505 88.1011305,77.4275013 88.8490051,77.0324029 C89.3597487,76.7625796 89.8801492,76.4788369 90.3190025,76.1115775 C90.8576439,75.6608013 91.4198911,75.1811155 91.784708,74.5975691 C92.3737799,73.6574705 92.7879544,72.6102993 93.3137199,71.6295131 C94.2633168,69.8617424 95.1378043,68.041506 96.5305464,66.5542658 C97.0799177,65.968578 97.6507488,65.4021633 98.204412,64.8196876 C98.5906887,64.4128113 98.9673085,63.9941569 99.3460743,63.5787147 C99.3857749,63.5348149 99.4158187,63.4320251 99.4437164,63.4352373 C100.385802,63.5208955 100.667999,62.3730758 101.529611,62.3259638 C102.139069,62.2927713 102.766769,62.1974765 103.350476,62.3109736 C103.537176,62.3473784 103.709928,62.9662587 103.704563,63.3153158 C103.700271,63.6012 103.481381,63.9534693 103.250688,64.1526245 C102.777499,64.5627131 102.065033,64.6826345 101.864384,65.4300022 C101.824683,65.5766918 101.3751,65.5745504 101.225954,65.7405131 C100.516707,66.5285684 99.85038,67.3530284 99.1625928,68.1603567 C98.7548563,68.6389718 98.2945433,69.07797 97.9372373,69.5908484 C97.5960262,70.0812415 97.3159756,70.6262416 97.0820636,71.1776662 C96.5498602,72.4304171 95.989759,73.6863802 96.0208757,75.0901036 C96.0273137,75.3963316 96.0809632,75.7293278 96.217233,75.9980804 C96.5123055,76.5773438 96.7848452,77.2154973 97.2344283,77.6577076 C97.6958144,78.1106253 98.324587,78.4500458 98.9404837,78.6748985 C99.6872854,78.9457925 100.493101,79.0603604 101.280677,79.20705 C101.470596,79.242384 101.68734,79.136382 101.980267,79.0764213 C102.22169,79.4832976 102.626207,79.5636022 103.256053,79.2841424 C103.777526,79.0528653 104.415956,79.101048 104.980349,78.9447218 C105.712129,78.7402129 106.418157,78.4468336 107.141353,78.2080615 C108.225073,77.8493678 109.323816,77.5313618 110.396807,77.1405464 C110.983733,76.9274716 111.544907,76.6287387 112.082475,76.309662 C112.235913,76.2197209 112.350723,75.9188465 112.337847,75.7239742 C112.311022,75.3181685 112.263811,74.8823825 112.085694,74.5279718 C111.831395,74.0193764 111.991271,73.5910855 112.080329,73.0974802 C112.208015,72.3843758 112.124322,71.6359375 112.226256,70.9164087 C112.34965,70.0501904 112.558883,69.19575 112.757387,68.3413096 C113.03851,67.1249635 113.439809,65.9353855 114.189829,64.9353262 C114.819675,64.095876 115.668411,63.4994809 116.788613,63.400974 C117.307941,63.3549327 117.824049,63.2425064 118.334793,63.1322215 C118.889529,63.0112293 119.336966,63.212526 119.758652,63.5326735 C120.289782,63.9363376 120.922847,64.2639802 121.317707,64.7736464 C121.590247,65.1259156 121.637459,65.7394424 121.599904,66.2212696 C121.560203,66.7448553 121.447539,67.205268 121.713641,67.735278 C122.028027,68.359512 121.352043,68.7449738 121.123496,69.2375084 C120.846664,69.8349742 120.51511,70.4056718 120.210381,70.9913596 C119.960374,71.4721162 119.745776,71.9742873 119.462506,72.4357707 C119.144901,72.9518613 118.810128,73.4668811 118.409902,73.9197987 C117.730699,74.6907224 116.994627,75.4134633 116.282161,76.1554773 C116.223147,76.2165087 116.154476,76.2689744 116.091169,76.3267936 C115.537506,76.8289647 115.536433,76.9285424 116.054687,77.4307135 C116.575088,77.9339553 117.077248,78.4564702 117.618035,78.9350853 C117.785422,79.0839164 118.056888,79.1149675 118.358399,79.230606 C118.454968,79.313052 118.60626,79.4993585 118.801544,79.5978655 C119.996856,80.2038971 121.240452,80.6097027 122.610661,80.4994178 C123.817776,80.4030524 125.035621,80.3880622 126.232005,80.2220995 C127.435901,80.055066 128.622629,79.760616 129.81043,79.4961464 C130.930632,79.2466669 132.131309,79.1406649 133.131336,78.6406353 C133.98651,78.2144858 134.981172,78.1652324 135.744069,77.5442105 C136.163608,77.2026485 136.6486,76.9435325 137.087453,76.6255265 C137.557423,76.2839645 138.156152,76.3160864 138.77956,76.7272456 C139.274209,77.0538175 139.297815,77.6480711 139.098238,77.9757136 C138.841793,78.3986509 138.323539,78.7883956 137.841766,78.9200951 C137.074578,79.1320991 136.476922,79.430832 136.305243,79.9319324 C135.741923,80.1214511 135.244055,80.278848 134.754771,80.4565887 C134.520859,80.5422469 134.305188,80.6739464 134.076641,80.7724533 C133.59916,80.9758915 133.12919,81.2071685 132.634542,81.3592118 C132.11736,81.5176795 131.576573,81.6054791 131.042223,81.7071982 C129.749269,81.9556069 128.459534,82.2190058 127.160142,82.4245855 C126.322137,82.5573556 125.424043,82.4620609 124.634322,82.7179647 C123.658973,83.0338293 122.693282,82.9738685 121.741539,82.905342 C120.894949,82.8443105 120.067673,82.5016778 119.233959,82.2778958 C119.034383,82.2243595 118.839099,82.1536915 118.643814,82.0851649 C117.501079,81.6868544 116.444183,81.1429249 115.554674,80.3045455 C114.884054,79.6728164 114.237041,79.0014704 113.493458,78.4703896 C113.271349,78.3108513 112.740219,78.5217845 112.374329,78.6384938 C111.733753,78.841932 111.110346,79.1042602 110.479427,79.3408909 C109.937567,79.5432584 109.403217,79.7734647 108.849554,79.9351445 C108.441817,80.0561367 108.115628,80.3420209 107.762614,80.4812155 C106.743273,80.8816675 105.657406,81.1172275 104.590853,81.3902629 C104.104789,81.5144673 103.58868,81.5283867 103.109053,81.6707935 C102.186281,81.9438289 101.311793,81.8249782 100.417992,81.5348111 C100.019913,81.4052531 99.5445776,81.4984064 99.1572279,81.350646 C98.0112737,80.9127185 96.8492246,80.4833569 95.7815988,79.890174 C95.2794391,79.6107142 94.9199871,79.0014704 94.6088198,78.4746725 C94.2000103,77.7829827 93.9017188,77.0259785 93.5132962,76.2058015 C93.299771,76.4317249 93.0808809,76.6651435 92.8587718,76.8942791 C92.6731444,77.0859393 92.4918089,77.2808116 92.2943786,77.4585524 C91.5314821,78.1395349 90.5711553,78.5485527 89.7814341,79.1556551 C88.9466472,79.7980915 87.9820285,80.0454295 87.097884,80.5101251 C86.9916579,80.5658029 86.9144026,80.6760878 86.9444464,80.6482489 C86.3768342,80.5915004 85.8982803,80.4897813 85.4250913,80.5079836 C84.3928742,80.5486713 83.6675324,80.0261564 82.9883292,79.3494567 C82.8627893,79.2241816 82.6213663,79.2145451 82.4357389,79.1524429 C82.2844472,78.5207138 82.1299365,77.8697116 81.9722069,77.2197802 C81.8917326,76.8846425 81.7050322,76.816116 81.4142517,77.0024225 C80.7125157,77.452128 80.0107797,77.9029042 79.3036787,78.3440438 C79.0247011,78.5175016 78.7307016,78.6663327 78.445286,78.8290833 C78.2693156,78.9286609 78.097637,79.0346629 77.9538562,79.1449478 C77.7156523,79.3066276 77.4828133,79.4768733 77.2381714,79.6278458 C77.0911716,79.7188576 76.930223,79.79595 76.7671284,79.8537693 C76.3089613,80.0175905 75.8422103,80.1589265 75.3851162,80.32596 C74.9172922,80.4983471 74.469855,80.7349778 73.9913011,80.8666773 C72.9494271,81.1536322 71.902188,81.4459407 70.8388541,81.6343887 C69.6982649,81.8356855 68.5405078,81.9791629 67.3848966,82.0412651 C65.8108191,82.1258525 64.2421065,82.0905185 62.666956,81.8378269 C62.0532052,81.73932 61.4888121,81.7125518 60.9705575,81.3324436 C60.7280616,81.1547029 60.3932884,81.1097324 60.1218218,80.9641135 C59.7591509,80.7713825 59.4254507,80.9416282 59.4876842,81.2403611 C59.632538,81.9331216 59.1196483,82.4663438 59.1700789,83.1077095 C59.1947577,83.4182204 59.3610713,83.930028 59.2473342,83.9996253 C58.8202839,84.2608827 58.9705026,84.6260007 58.921145,84.9611384 C58.8546196,85.414056 58.7934591,85.8680444 58.6979629,86.3156084 C58.576715,86.8852353 58.3835766,87.4409427 58.2923724,88.0148525 C58.0552414,89.4999513 57.9168256,91.0043231 57.6260451,92.4776438 C57.3803302,93.7261118 57.2676662,94.9970651 57.0144403,96.2273307 C56.7740904,97.3965649 56.6120688,98.6011331 56.2021863,99.7489527 C55.9511064,100.452421 55.9736392,101.250112 55.8266395,101.995339 C55.764406,102.312274 55.5498079,102.596017 55.4607496,102.91081 C55.1957209,103.850909 54.9424951,104.79529 54.71824,105.745025 C54.6506416,106.03091 54.7375538,106.352128 54.6742474,106.640153 C54.4660871,107.596313 54.250416,108.552472 53.9821683,109.493642 C53.7235775,110.40376 53.3619796,111.284968 53.1173377,112.197228 C52.9789219,112.710106 53.1162647,113.277592 52.6709735,113.734792 C52.5540175,113.855785 52.7857835,114.260519 52.733207,114.509999 C52.5883532,115.202759 52.4553023,115.915864 52.1720328,116.556159 C51.8984201,117.173968 51.1698593,117.139705 50.6151231,117.202878 C50.3254156,117.236071 49.7749713,117.235 49.7223947,116.627897 C49.7105918,116.490844 49.449855,116.375206 49.335045,116.276699 C49.4981396,115.476866 49.572176,114.719861 49.8168179,114.021747 C50.0657518,113.313997 50.1859268,112.62766 50.2331383,111.87601 C50.272839,111.233573 50.6998894,110.621117 50.9219985,109.982964 C51.2460417,109.054643 51.6012016,108.129535 51.8243837,107.174446 C51.9660185,106.569485 51.7052818,105.816764 51.9713835,105.311381 C52.1902736,104.894868 52.2235363,104.487992 52.3619521,104.084327 C52.5636744,103.491145 53.0626151,102.967559 52.7653967,102.264091 C53.2192718,102.063865 53.0862209,101.641999 53.1591843,101.284376 C53.3651986,100.269326 53.6184244,99.2639133 53.8244386,98.2499345 C53.8695042,98.028294 53.7943949,97.7841682 53.781519,97.6289127 C53.9542705,97.3376749 54.2150073,97.0732053 54.2718758,96.7701895 C54.4489193,95.8204544 54.5433425,94.8567998 54.6806853,93.9006404 C54.8748966,92.5472411 55.0455022,91.1895589 55.2879981,89.8447255 C55.4586037,88.9046269 55.763333,87.9880844 55.9382306,87.0479858 C55.9843692,86.7985064 55.771917,86.5008442 55.6646179,86.1849796 C55.7568951,86.1667773 55.9103328,86.1367969 55.9950991,86.120736 C56.2805146,84.5435547 56.5627112,83.0156269 56.8341779,81.4855576 C57.1077905,79.9437104 57.3781842,78.3997216 57.6249721,76.8525207 C57.6475049,76.7143969 57.4822643,76.5462927 57.4125199,76.4070982 C56.7343897,76.9970689 56.1281499,77.5024522 55.5476619,78.0356744 C55.0755459,78.4693189 54.7042911,79.0625018 54.1635037,79.3580225 C53.313695,79.8216475 52.4456454,80.2831309 51.4370341,80.4373156 C50.738517,80.5443884 50.0711167,80.8838089 49.4026435,81.1514907 C48.8135715,81.3881215 48.2523973,81.5241038 47.58607,81.4245262 C46.8274655,81.3099584 46.0355983,81.4309505 45.2630449,81.3849093 C44.7136736,81.3517167 44.1718132,81.2114515 43.5473325,81.1065202 C43.6889673,80.4897813 43.8187992,79.9244373 43.9218063,79.4768733 C45.3521031,79.20705 46.650422,78.9575705 47.9508869,78.7198691 C48.8243014,78.5603307 49.7170298,78.476814 50.5722034,78.2508905 C51.5378952,77.9960575 52.5389956,77.781912 53.2192718,76.9017742 C53.5315121,76.49811 54.016504,76.2314989 54.369518,75.8535322 C55.1281225,75.0408502 55.8631212,74.2056829 56.586317,73.3608791 C57.1614401,72.6906038 57.4586585,71.892912 57.6657458,71.0363302 C57.7730449,70.5951905 58.1464457,70.2215067 58.2709126,69.7814378 C58.4962407,68.9805338 58.6217806,68.1517909 58.7998971,67.3380382 C58.9007582,66.8744133 59.0295171,66.4172127 59.1303782,65.9535878 C59.1700789,65.7704935 59.2505532,65.5167311 59.1668599,65.4000218 C58.925437,65.0627427 59.0756557,64.7972024 59.2001227,64.496328 C59.3127867,64.2232925 59.3192246,63.7618091 59.4973411,63.6889996 C60.0574423,63.4620055 60.674412,63.3688522 61.2742139,63.2457185 C61.4909581,63.200748 61.7216511,63.2178796 61.9512711,63.2061016 C62.0253075,63.4234593 62.1100738,63.671868 62.202351,63.942762 C63.1991594,63.0658364 64.2657123,62.5390385 65.5157466,62.199618 C66.5780075,61.9105216 67.6402685,61.9190875 68.6950184,61.7552662 C69.7862501,61.5839498 70.6843434,62.1749913 71.549174,62.7274865 C72.0717206,63.0604827 72.5309606,63.4919858 73.0095145,63.8902964 C73.3517986,64.1751098 73.7048126,64.4534989 74.004177,64.779 C74.4913149,65.3079393 75.0213723,65.8229591 75.3808243,66.4332736 C75.880838,67.2812896 76.5396543,68.0875473 76.4570341,69.1914671 C76.4323553,69.525534 76.577209,69.8895813 76.7038219,70.2172238 C77.0976096,71.2290611 77.1566241,72.3008591 76.9023252,73.3019891 C76.697384,74.1114589 76.226341,74.9059385 75.6995025,75.5687187 C75.1597881,76.2464891 74.4129865,76.7625796 73.7488052,77.3386309 C73.1125217,77.8911262 72.4655082,78.4307727 71.7669912,79.0239556 L71.7669912,79.0239556 Z M74.4044026,71.7408687 C74.2885196,71.1027153 74.1340089,70.4688447 74.0664105,69.8264084 C73.9709143,68.9173609 73.4537327,68.206398 72.9751788,67.5050716 C72.5309606,66.8562109 71.9633485,66.2673109 71.3614006,65.756574 C70.7712557,65.2554736 70.0791766,64.8700118 69.4117763,64.4652769 C68.6757046,64.0187836 67.9138811,63.9802375 67.0812402,64.2736167 C66.5565477,64.4588525 65.9835706,64.4813378 65.4288344,64.6558664 C64.0575521,65.0862987 63.3193344,66.0456704 62.782839,67.2673702 C62.4984964,67.9130187 62.1755262,68.5415356 61.8997676,69.1914671 C61.7935415,69.4409465 61.7624247,69.7246893 61.7087752,69.9945125 C61.6046951,70.5095324 61.5177828,71.0288351 61.4094108,71.5438549 C61.1894476,72.5781775 60.4405,73.4583153 60.6089596,74.6243373 C60.678704,75.1125889 60.3578797,75.6458111 60.3707556,76.1544065 C60.3857775,76.7679333 59.980187,77.4028745 60.567113,78.0206842 C61.0413749,78.5196431 61.5982571,78.6599084 62.1862561,78.6791815 C62.8364885,78.6995253 63.5028159,78.6781107 64.1530483,78.6449182 C65.6391406,78.5678258 67.1209409,78.5067944 68.5061721,77.9960575 C69.3881705,77.6716271 70.1725268,77.0623833 70.96654,76.5302318 C71.7380204,76.0130705 72.5663693,75.5248189 73.185485,74.8545436 C73.9623304,74.012952 74.4612711,72.96471 74.4044026,71.7408687 L74.4044026,71.7408687 Z M114.453785,74.5247596 C115.173762,73.8887476 115.812191,73.3747985 116.389461,72.7987473 C116.72638,72.4636096 117.00643,72.0524504 117.239269,71.6348667 C117.564385,71.0513204 117.723188,70.3510647 118.128779,69.8403278 C118.899186,68.8734611 119.57517,67.9269382 119.255419,66.60459 C119.177091,66.2833718 119.151339,65.9321733 118.996828,65.6516427 C118.868069,65.4192949 118.585873,65.2715345 118.38415,65.0959353 C117.546145,65.3132929 116.641613,65.3978804 116.158767,66.2619573 C115.833651,66.8433622 115.449521,67.4065647 115.223119,68.0265158 C114.975259,68.7042862 114.855084,69.4323807 114.722033,70.1465558 C114.630829,70.6412318 114.607223,71.1476858 114.560011,71.6498569 C114.5128,72.1541695 114.454858,72.658482 114.436617,73.1638653 C114.418376,73.6328438 114.446274,74.1050345 114.453785,74.5247596 L114.453785,74.5247596 Z" id="Fill-1"></path>
                    <path d="M31.9354259,14.4655255 C33.1929711,13.4365565 34.2402101,12.3861731 34.3453632,10.7019191 C34.372188,10.2693453 34.488071,9.83570073 34.611465,9.41704636 C35.074997,7.84521873 34.7702676,6.35797855 34.1940715,4.87823345 C33.9376267,4.22080691 33.5835398,3.68008964 33.0062707,3.25929382 C32.1350021,2.62328182 31.1242448,2.41663145 30.1059765,2.39949982 C28.8258984,2.37808527 27.5372365,2.47980436 26.3505086,3.08048236 C25.6358967,3.44238818 24.9298688,3.89423509 24.1658993,4.06983436 C22.686245,4.41139636 21.75167,5.54101364 20.6690222,6.38902964 C18.9211202,7.75848982 17.9725963,9.67187945 17.9833262,11.9653773 C17.9843992,12.3711829 17.9833262,12.7769885 17.9833262,13.273806 C17.3803053,13.7524211 17.5487649,16.5491607 18.3674569,17.1037975 C17.8191586,17.3179429 17.9028519,17.6852024 18.0777494,18.1070689 C18.4908508,19.1028453 18.8567407,20.1178947 19.290229,21.1040345 C19.4329368,21.4306064 19.758053,21.6725907 19.9372425,21.9884553 C20.5027086,22.9885145 20.9512188,24.0645955 21.6035972,25.0025525 C22.8160769,26.7446258 23.7485059,28.6826422 25.2839557,30.2073578 C26.0608011,30.9782815 26.7024496,31.8819753 27.4449593,32.6871622 C27.8902505,33.1689895 28.4288918,33.5630171 28.8945699,34.0287835 C29.0973651,34.2322216 29.1874964,34.5480862 29.3892186,34.7547365 C29.8752835,35.251554 30.398903,35.7130375 30.9032087,36.1916525 C30.9439823,36.2301987 30.9890479,36.3062204 30.977245,36.3511909 C30.861362,36.8041085 31.2594416,36.9068984 31.4708208,37.1681558 C32.0963745,37.9401502 32.6285779,38.7860247 33.2122849,39.5933531 C33.7241016,40.2989624 34.2434291,41.0002887 34.7809975,41.6866249 C35.7595651,42.9340222 36.7606656,44.1621464 37.7381602,45.4095436 C38.4345313,46.2971765 39.1266103,47.1901631 39.7832807,48.1077764 C40.2961703,48.8240929 40.8187169,49.5468338 41.2167965,50.3284647 C41.6620877,51.2021782 41.9657441,52.1487011 42.3445098,53.0577485 C42.6159765,53.7066093 42.9528956,54.331914 43.1857346,54.9936235 C43.7447628,56.5900778 44.3853384,58.1544104 44.657878,59.8483009 C44.900374,61.3623093 45.0280599,62.8570445 44.9304177,64.3924675 C44.8263376,66.0263973 44.2748203,67.5147082 43.7082812,69.0126556 C43.4572013,69.6754358 43.2844498,70.3799744 42.9453847,70.9945718 C42.3294879,72.1113404 41.8799048,73.3341109 40.8755854,74.2217438 C40.341236,74.6950053 39.9249155,75.3010369 39.4485076,75.8417542 C39.2929239,76.0173535 39.1405592,76.215438 38.9463479,76.3364302 C37.6641239,77.1373342 36.3475641,77.8847018 35.0867999,78.7155862 C33.2616425,79.9190836 31.1296097,80.1193096 29.0909272,80.6075613 C27.4825139,80.9919524 25.8462029,81.2896145 24.2056,81.4984064 C23.1808937,81.6290351 22.1250708,81.4994771 21.0842697,81.5326696 C19.8299434,81.5733573 18.5777631,81.6815007 17.3234368,81.7189762 C16.8566858,81.7339664 16.3749129,81.6836422 15.9210378,81.5733573 C14.5229308,81.2371489 13.1119479,80.9234258 11.7535415,80.4619424 C11.2063162,80.2745651 10.6311931,80.1321584 10.1032816,79.7102918 C8.70302856,78.5924525 7.13538897,77.6866173 5.67290248,76.6426582 C4.72008663,75.9627464 3.70396432,75.3010369 2.95394373,74.4283942 C2.04190154,73.365162 1.22428253,72.2034229 0.686714126,70.8510944 C0.332627155,69.9591785 -0.167386568,69.1122333 -0.229620036,68.1453665 C-0.314386311,66.8294427 -0.328335192,65.5060238 -0.297218458,64.1879585 C-0.272539669,63.1761213 -0.186700403,62.1589304 -0.0246787889,61.1610125 C0.0997881465,60.3890182 0.327262201,59.620236 0.619115705,58.8942829 C0.797232181,58.454214 1.19745776,58.1062276 1.47428939,57.7014927 C1.9174346,57.052632 2.45071104,56.4337516 2.72861566,55.7185058 C2.87990737,55.3298318 3.15566601,55.2334664 3.38206707,55.0717865 C4.53338623,54.2516095 5.68470538,53.4207251 6.9100609,52.7215402 C7.6225268,52.3146638 8.38113131,51.9623945 9.29210052,51.9474044 C10.7460031,51.9249191 12.1988327,51.6004887 13.6484433,51.622974 C14.9059885,51.6433178 16.3083875,51.681864 17.3674295,52.2397129 C18.3481431,52.7558035 19.411477,52.7729351 20.34176,53.2622575 C20.4404752,53.3147231 20.5145115,53.4110885 20.6014238,53.4849687 C20.8331898,53.6798411 21.0381311,53.9389571 21.3042328,54.0545956 C21.8911588,54.3094287 22.4051214,54.5546253 22.2581216,55.3480342 C22.219494,55.5621796 22.4287272,55.9058831 22.331085,56.0097436 C22.0649833,56.2945571 21.7184072,56.6125631 21.3621743,56.6746653 C20.9340509,56.7496162 20.4361832,56.6436142 20.0155708,56.487288 C19.529506,56.3074058 19.0638279,56.0300875 18.6442885,55.721718 C17.2300866,54.6841833 15.6463522,54.2162755 13.9059611,54.1498904 C12.0893876,54.0824345 10.3200257,54.2719533 8.60753238,54.9101067 C8.066745,55.1124742 7.48196501,55.2120518 6.9680024,55.462602 C6.61284244,55.6349891 6.3724925,56.0290167 6.0323544,56.2495865 C4.32951797,57.3545771 3.25652715,58.8643025 2.62668153,60.8119555 C2.09877005,62.4448145 2.06872631,64.1012296 2.06121537,65.7490789 C2.05585042,66.8433622 2.13310576,67.9911818 2.68569603,69.0437067 C3.18892872,70.0030784 3.49473111,71.0652398 3.98401492,72.0331773 C4.1739343,72.4090025 4.61600652,72.6659771 4.95829059,72.9572149 C6.05381422,73.8887476 7.08925036,74.9112922 8.27490522,75.7121962 C9.65047946,76.6415875 11.1623235,77.3707527 12.6108611,78.194142 C14.3233545,79.1663624 16.2375701,79.32483 18.1281799,79.44261 C19.5981774,79.5346925 21.0831967,79.3965687 22.561778,79.3376787 C24.8000369,79.2498791 27.005033,78.9329438 29.1617446,78.3140635 C30.2057646,78.0142598 31.3012883,77.829024 32.2830749,77.3900258 C33.5266712,76.8321769 34.6908663,76.0890922 35.8647182,75.3866951 C36.4344764,75.0462038 36.9902856,74.660742 37.4763505,74.213178 C38.0128459,73.7206435 38.468867,73.1392385 38.9452749,72.5835311 C39.165238,72.3254858 39.3336976,72.0235407 39.5536607,71.7654955 C40.6019727,70.5352298 41.037607,68.9933825 41.627752,67.54683 C41.9582331,66.7395016 41.9249704,65.7854836 42.0698242,64.8989215 C42.088065,64.7886365 42.1942911,64.6922711 42.2554516,64.5873398 C42.320904,64.4749135 42.438933,64.3571335 42.434641,64.2447071 C42.4164002,63.7767993 42.2994442,63.30675 42.3305609,62.8441958 C42.4271301,61.4083505 42.0429994,60.0388904 41.7211022,58.677996 C41.4517815,57.5398129 40.9324539,56.4594491 40.5300823,55.3523171 C40.451754,55.1371009 40.4260022,54.9004702 40.331579,54.6948905 C39.9249155,53.8104698 39.517179,52.9249784 39.0783258,52.0555478 C38.7682314,51.4409504 38.4313123,50.8359895 38.0632764,50.2535138 C37.7413792,49.7449184 37.528927,49.1420989 36.943074,48.8283758 C36.8572348,48.7823345 36.8207531,48.6217255 36.7853444,48.5071576 C36.5353375,47.7030415 36.0385428,47.0916562 35.3861643,46.5637876 C35.1200626,46.3485715 34.9945227,45.9641804 34.7842165,45.6729425 C34.1693927,44.8206436 33.670452,43.8291502 32.8957526,43.1599456 C31.3442079,41.8226073 30.4976181,39.98631 29.2980144,38.4112702 C28.7003585,37.6274978 28.0104254,36.9625762 27.3741419,36.2366231 C26.4535157,35.1862396 25.4685102,34.1926047 24.554322,33.1379384 C23.4888421,31.9108849 22.4330191,30.6720535 21.4458676,29.3828978 C20.9093722,28.6837129 20.5284604,27.8656773 20.0660014,27.1076024 C19.8524762,26.7585453 19.5885205,26.4394685 19.3825062,26.0861285 C18.7955802,25.0775035 18.2086543,24.0699491 17.657137,23.0431216 C17.1463933,22.0944573 16.7289999,21.0954687 16.1839206,20.1682189 C15.5433451,19.0782185 15.3437688,17.8608016 15.1517034,16.6680115 C15.0036307,15.7429031 15.1710172,14.7631876 15.2235938,13.8091696 C15.2568565,13.2020673 15.2933382,12.5885405 15.4027833,11.9921455 C15.6270383,10.7757993 15.8534394,9.55731164 16.1656797,8.36238 C16.5873651,6.75521836 17.8148666,5.69841055 19.0026675,4.68014891 C19.9114907,3.90173018 20.9565838,3.27321327 21.982363,2.64362564 C22.9512737,2.049372 23.9234034,1.38337964 24.9878103,1.03325182 C26.4910704,0.538575818 28.0436881,0.0845874545 29.6735612,0.193801636 C30.2465383,0.232347818 30.8409752,0.195943091 31.3860546,0.340491273 C32.5373737,0.644577818 33.674744,0.971149636 34.7112531,1.63392982 C35.662996,2.24210291 36.0524916,3.132948 36.3915567,4.10302691 C36.4527172,4.27969691 36.473104,4.47671073 36.5610893,4.63731982 C37.1211905,5.665218 37.0847088,6.80233036 37.2424385,7.914816 C37.3819273,8.89453145 36.83041,9.67402091 36.7316948,10.5702196 C36.6898482,10.9428327 36.6093739,11.3122336 36.5514324,11.683776 C36.3143014,13.2020673 35.2016099,14.2524507 34.486998,15.5137675 C34.135057,16.1337185 32.9848109,16.4849171 32.4064688,16.0812529 C32.151097,15.9013707 32.1006664,15.4088362 31.9933674,15.0480011 C31.9332799,14.8477751 31.9493747,14.6250638 31.9354259,14.4655255" id="Fill-2"></path>
                    <path d="M86.7995926,57.9167089 C86.4873523,57.6811489 86.0924916,57.4595084 85.8006381,57.1447145 C85.2491209,56.5493902 85.3585659,56.1703527 85.9261781,55.6371305 C86.3424985,55.2452444 86.6150382,54.7045271 86.9712711,54.2441144 C87.1998182,53.9475229 88.4112248,53.8693598 88.7620928,54.1616684 C89.1612454,54.4946645 89.2964422,54.8951165 89.0185376,55.4304802 C88.6773265,56.0879067 88.4434145,56.8010111 88.1429771,57.4798522 C88.0946925,57.5901371 87.9541307,57.7014927 87.8361017,57.7293316 C87.4455331,57.8203435 87.0463805,57.8738798 86.7995926,57.9167089" id="Fill-10"></path>
                </g>
                <g id="Group" transform="translate(54.000000, 0.000000)" sketch:type="MSShapeGroup">
                    <path d="M45.1127335,14.4586513 C44.9588404,14.0399695 44.8709014,13.801115 44.7829625,13.5636332 C44.7486114,13.4675422 44.6551762,13.333015 44.6881533,13.2794786 C45.3902907,12.1881604 44.6345656,11.1023332 44.6002144,10.0302332 C44.557619,8.75085134 44.0258633,7.48382407 43.6713594,6.2222877 C43.4817411,5.55102407 43.2481533,4.88799679 42.9733442,4.24693316 C42.8400617,3.93532407 42.4690694,3.71294225 42.3728862,3.3985877 C42.0252526,2.27020589 42.5625045,1.53854225 43.7400617,1.37930589 C43.988764,1.3449877 44.2141075,1.14456952 44.4573136,1.03749679 C45.2061686,0.708042249 45.8657106,0.183660431 46.7657106,0.200133158 C47.2905961,0.209742249 47.8388404,0.060114976 48.3417411,-0.118339569 C49.6814358,-0.593303206 50.9043365,-0.0853941149 52.149222,0.256414976 C53.4889167,0.622933158 54.5730388,1.40813316 55.7038785,2.19745134 C56.9570083,3.07325134 57.9160923,4.12613316 58.6800617,5.38492407 C59.3629625,6.51193316 59.6446419,7.79955134 59.707848,9.09815134 C59.8109014,11.1709695 59.5209778,13.1284786 57.9655579,14.7345695 C56.826474,15.9109968 55.4895274,16.8430786 53.9821991,17.2672513 C52.6850999,17.6323968 51.2299854,17.4717877 49.8435732,17.4690422 C49.1702907,17.4676695 48.4983824,17.2384241 47.8223518,17.2192059 C47.0418938,17.1972422 46.4744129,16.8032695 45.9275427,16.3434059 C45.8327335,16.2637877 45.8244892,16.0400332 45.8313594,15.8862877 C45.878077,14.8800786 45.8835732,14.8800786 45.1127335,14.4586513 L45.1127335,14.4586513 Z M45.5263213,3.57155134 C46.5912068,6.0259877 47.0089167,8.54356952 47.286474,11.0735059 C47.4101381,12.1950241 48.3307488,12.9843422 48.3307488,14.1140968 C48.3307488,14.1868513 48.5382297,14.2568604 48.6454053,14.3337332 C49.5247946,14.9610695 50.5182297,14.7606513 51.4938022,14.737315 C54.0289167,14.676915 55.6076953,13.8642604 56.7000617,11.2519604 C57.7223518,8.80576043 56.2727335,6.30602407 54.8574663,4.96349679 C54.0399091,4.18927861 52.9722755,3.61136043 51.9225045,3.16659679 C50.6528862,2.62711498 49.3131915,2.1150877 47.8731915,2.70673316 C47.1160923,3.01834225 46.3370083,3.27504225 45.5263213,3.57155134 L45.5263213,3.57155134 Z" id="Fill-3"></path>
                    <path d="M70.5476336,28.1394422 C69.6668702,28.2039604 68.7187786,28.2080786 67.7912977,28.3508422 C65.8319084,28.6555877 63.8821374,29.0221059 61.9323664,29.3858786 C61.4651908,29.4723604 61.4322137,29.8759422 61.588855,30.209515 C62.0326718,31.160815 62.5287023,32.0887786 62.9656489,32.9481059 C64.0827481,32.9481059 65.2259542,32.927515 66.3664122,32.9535968 C68.2529771,32.9975241 70.0749618,32.6529695 71.821374,31.9885695 C72.7914504,31.6206786 73.3946565,32.0572059 73.9758779,32.6666968 C73.6584733,34.5404695 72.0274809,34.6900968 70.650687,35.0675968 C68.4178626,35.6784604 66.1341985,36.0257604 63.8024427,35.917315 C63.5743511,35.9063332 63.3421374,35.9584968 63.0494656,35.9873241 C63.2225954,36.7656604 63.3448855,37.4451604 63.54,38.1040695 C63.5922137,38.2825241 63.8436641,38.4898059 64.0360305,38.5268695 C65.0638168,38.725915 66.0984733,38.9043695 67.138626,39.0347786 C68.1375573,39.1610695 69.150229,39.3244241 70.1477863,39.2791241 C71.251145,39.2283332 72.3421374,38.9455513 73.441374,38.7972968 C73.679084,38.7643513 74.008855,38.7849422 74.1696183,38.9249604 C74.910229,39.5701422 74.6354198,40.8673695 73.7354198,41.1776059 C71.5053435,41.9449604 69.179084,42.1549877 66.8596947,42.1330241 C65.3029008,42.1179241 63.748855,41.7321877 62.2003053,41.4782332 C62.0642748,41.4562695 61.9873282,41.157015 61.8567939,41.0087604 C61.7193893,40.8536422 61.5517557,40.7246059 61.3937405,40.5859604 C60.9361832,40.1851241 60.6957252,39.7925241 60.6668702,39.0759604 C60.5885496,37.1129604 60.3054962,35.1554513 60.0334351,33.2048059 C59.9551145,32.6433604 59.6514504,32.1107422 59.4384733,31.5698877 C59.0056489,30.4675877 59.1554198,30.1532332 60.2862595,29.7812241 C60.3961832,29.7455332 60.4758779,29.6164968 60.5981679,29.5053059 C60.2312977,29.2293877 59.8548092,29.0413241 59.6184733,28.7434422 C59.3780153,28.4414422 59.2763359,28.0309968 59.1581679,27.7646877 C59.4343511,27.4626877 59.6418321,27.0975422 59.9564885,26.9218332 C60.4992366,26.6184604 61.0914504,26.3466604 61.6960305,26.2162513 C62.5726718,26.026815 63.4767939,25.9609241 64.3712977,25.8675786 C65.0761832,25.7934513 65.7838168,25.7508968 66.4900763,25.7028513 C67.4120611,25.6424513 68.3354198,25.5614604 69.2587786,25.5422422 C70.620458,25.5161604 71.1137405,26.2189968 70.6932824,27.5107332 C70.6287023,27.7097786 70.5970992,27.9184332 70.5476336,28.1394422" id="Fill-4"></path>
                    <path d="M30.1521228,17.8190877 C30.0586877,17.5225786 29.9418938,17.1478241 29.7962449,16.6838422 C29.5654053,16.881515 29.3318175,16.9858422 29.2686114,17.153315 C28.9415885,18.0222513 28.1968556,17.817715 27.5524282,17.8451695 C27.42739,17.8492877 27.2597564,17.7147604 27.1718175,17.5980786 C26.8860159,17.2205786 26.6290694,16.8238604 26.3418938,16.4065513 C26.4009778,16.3969422 26.587848,16.3667422 26.6977717,16.3502695 C26.5658633,14.9596968 26.4902907,13.6171695 26.3020465,12.2883695 C26.0533442,10.5216695 25.7153289,8.76732407 25.418535,7.00611498 C25.3924282,6.85374225 25.3759396,6.69862407 25.3718175,6.54350589 C25.3429625,5.56886952 25.3182297,4.59560589 25.2880007,3.47957861 C25.5325808,3.19954225 26.0299854,2.76164225 26.3583824,2.21941498 C26.949222,1.24340589 27.8354816,0.951014976 28.8783824,0.893360431 C29.7728862,0.842569521 30.66739,0.727260431 31.5591457,0.749224067 C32.3450999,0.769814976 33.0623518,0.964742249 33.7947182,1.42735134 C34.9612831,2.16587861 35.888764,3.20915134 37.1089167,3.85433316 C37.2724282,3.94081498 37.4400617,4.0176877 37.6159396,4.10416952 C37.626932,4.29497861 37.5527335,4.58187861 37.6640312,4.7122877 C38.4994511,5.69653316 39.0160923,6.85923316 39.3334969,8.06586043 C39.9463213,10.3898877 39.9339549,12.7413695 38.5942602,14.8210513 C37.8797564,15.9288422 36.788764,16.700315 35.5054053,17.2905877 C34.3457106,17.8259513 33.2162449,18.0387241 32.0015885,18.0373513 C31.4121228,18.0373513 30.8226572,17.9028241 30.1521228,17.8190877 L30.1521228,17.8190877 Z M31.5440312,14.4586513 C32.0221991,14.7139786 32.5168556,15.2122786 32.977161,15.1820786 C34.808764,15.0599059 36.248764,13.7462059 36.6623518,12.0165695 C36.9234205,10.9279968 37.2421991,9.82569679 36.6733442,8.74536043 C36.2350236,7.9134877 35.7623518,7.09671498 35.2512068,6.30739679 C35.0327335,5.96970589 34.7194511,5.65672407 34.3800617,5.44120589 C33.7383824,5.03487861 32.9455579,4.81936043 32.3973136,4.32380589 C31.1441839,3.18993316 29.8415885,3.94356043 28.5596037,4.07946043 C28.4235732,4.0931877 28.2353289,4.49539679 28.2325808,4.72052407 C28.2188404,5.63064225 28.2037259,6.55036952 28.3095274,7.45087861 C28.538993,9.40564225 28.806932,11.3576604 29.1312068,13.2986968 C29.2837259,14.2005786 29.6038785,15.0750059 29.8992984,16.1443604 C30.1081533,15.0063695 30.5725808,14.3200059 31.5440312,14.4586513 L31.5440312,14.4586513 Z" id="Fill-5"></path>
                    <path d="M51.3054962,32.3660695 C51.1378626,32.6735604 51.0073282,33.1347968 50.7077863,33.4175786 C49.8338931,34.2439604 48.6741985,34.8548241 48.0380153,35.8212241 C47.3935878,36.7999786 46.5169466,36.9180332 45.6485496,37.0292241 C44.2525191,37.2076786 43.4610687,36.158915 42.7644275,35.1527059 C42.1667176,34.2878877 41.6638168,33.3558059 41.0633588,32.3605786 C39.0668702,35.2995877 37.3451908,38.2234968 36.2473282,41.5921695 C35.9752672,42.0602695 35.6441221,42.6285786 35.3061069,43.210615 C35.1398473,43.195515 34.9378626,43.1158968 34.7839695,43.1721786 C33.8331298,43.5167332 33.360458,42.9745059 32.8919084,42.2730422 C32.4041221,41.5468695 32.5112977,40.9112968 33.150229,40.2976877 C33.5803053,39.8844968 33.8949618,39.3230513 34.1725191,38.7821968 C34.768855,37.6263604 35.2525191,36.4101241 35.8832061,35.2748786 C36.599084,33.9900059 37.4468702,32.7778877 38.1943511,31.508115 C38.5419847,30.9178422 38.8181679,30.2795241 39.0545038,29.6370877 C39.1080916,29.4929513 38.8662595,29.2403695 38.8099237,29.1346695 C39.3485496,28.8216877 39.9435115,28.5361604 40.4656489,28.1531695 C40.9575573,27.793515 41.8355725,28.0131513 42.1557252,28.5279241 C42.5748092,29.2046786 42.6352672,30.0859695 43.381374,30.5925059 C43.5641221,30.7174241 43.5490076,31.1264968 43.6300763,31.4037877 C43.921374,32.3962695 44.5479389,33.1677422 45.3668702,33.7415422 C45.6224427,33.9199968 46.2338931,33.9378422 46.4564885,33.7552695 C47.5996947,32.8149513 48.7882443,31.8814968 49.708855,30.7435059 C50.129313,30.224615 50.398626,29.7029786 51.0774046,29.4613786 C52.0337405,29.1195695 52.8815267,29.4119604 53.4174046,30.2932513 C53.8653435,31.0290332 54.4740458,31.6755877 54.8505344,32.4415695 C55.2215267,33.1951968 55.5334351,34.0353059 55.6090076,34.8616877 C55.7051908,35.9063332 55.4345038,36.9839241 55.5155725,38.0340604 C55.5801527,38.8631877 55.380916,39.6964332 55.8082443,40.5653695 C56.070687,41.0979877 56.3633588,42.0836059 55.4427481,42.6491695 C55.2627481,42.7589877 55.2022901,43.059615 55.0483969,43.3410241 C54.1360305,43.0321604 53.281374,42.6079877 52.680916,41.7967059 C52.5654962,41.640215 52.5160305,41.3890059 52.5325191,41.1885877 C52.6781679,39.4383604 52.7949618,37.684015 53.0244275,35.9433968 C53.2058015,34.5802786 52.8760305,33.4834695 51.3054962,32.3660695" id="Fill-6"></path>
                    <path d="M16.018626,36.1987241 C16.0378626,35.7910241 15.960916,35.494515 16.0749618,35.3297877 C17.0656489,33.8980332 18.0082443,32.429215 19.62,31.5492968 C20.3619847,31.1443422 20.9528244,30.4607241 21.6961832,30.0557695 C22.6923664,29.5135422 23.6610687,30.0063513 24.600916,30.390715 C24.8166412,30.4799422 25.0309924,30.6117241 25.2549618,30.6336877 C26.4737405,30.7476241 27.5537405,31.1347332 28.4166412,32.0462241 C28.5883969,32.2287968 28.8577099,32.3207695 29.0816794,32.4552968 C29.1847328,32.5170695 29.3606107,32.5623695 29.3798473,32.6447332 C29.6175573,33.637215 29.9583206,34.6269513 30.0187786,35.6331604 C30.0957252,36.9043059 29.9748092,38.1932968 29.8745038,39.4699332 C29.7357252,41.2407513 28.8206107,42.6642695 27.5083969,43.7446059 C25.7015267,45.234015 23.5882443,45.6650513 21.2235115,45.3603059 C20.0624427,45.2106786 19.1432061,44.7425786 18.1690076,44.2346695 C16.8100763,43.527715 15.7850382,42.4460059 15.0375573,41.1858422 C14.5470229,40.3580877 14.0454962,39.3354059 14.7091603,38.2784059 C14.8053435,38.1246604 14.8369466,37.9269877 14.8754198,37.744415 C15.0320611,37.0141241 15.0774046,36.2055877 16.018626,36.1987241 L16.018626,36.1987241 Z M22.8696183,32.6914059 C21.7841221,33.4615059 20.7810687,34.1643422 19.7917557,34.8863968 C19.6543511,34.9879786 19.5925191,35.1938877 19.4935878,35.3490059 C19.0181679,36.0943968 18.6183206,36.9097968 18.0343511,37.5563513 C17.7251908,37.8995332 17.46,38.1315241 17.5080916,38.6188422 C17.549313,39.0361513 17.3514504,39.6030877 17.5603053,39.8556695 C18.3682443,40.8330513 19.3122137,41.670415 20.52,42.1851877 C21.7964885,42.7287877 23.0867176,42.5379786 24.3549618,42.3128513 C25.679542,42.078115 26.7114504,41.3162513 27.0755725,39.9709786 C27.4245802,38.680615 27.7172519,37.3586786 27.8532824,36.0326241 C28.0112977,34.4896786 27.119542,33.7305604 25.5119084,33.6989877 C24.570687,33.6811422 23.4755725,33.9735332 22.8696183,32.6914059 L22.8696183,32.6914059 Z" id="Fill-7"></path>
                    <path d="M16.3608251,12.3336695 L11.0391457,12.3336695 C10.6392984,13.2753604 10.2174663,14.239015 9.82448922,15.2150241 C9.69670296,15.5321241 9.60876403,15.8766786 9.5689167,16.217115 C9.44113044,17.3015695 7.9159396,17.8918422 7.01044342,17.4951241 C6.6738022,17.3468695 6.32067243,16.8760241 6.27945105,16.5177422 C6.23135945,16.1100422 6.48555792,15.6446877 6.67792433,15.2369877 C7.1808251,14.178615 7.7208251,13.1380877 8.24571059,12.0893241 C8.32815334,11.9259695 8.41471823,11.762615 8.4889167,11.5951422 C8.86952739,10.7316968 9.29960372,9.88335134 9.6170083,8.99519679 C10.2614358,7.1886877 10.9525808,5.38629679 11.40739,3.52899679 C11.6450999,2.55573316 12.4544129,1.9791877 12.7086114,1.0429877 C12.7773136,0.787660431 13.5289167,0.670978612 13.9837259,0.580378612 C14.4880007,0.480169521 14.9799091,0.522724067 15.0211304,1.23379679 C15.0266266,1.32439679 15.1173136,1.44794225 15.2011304,1.49324225 C16.4941075,2.17960589 16.6040312,3.51252407 16.9722755,4.70267861 C17.198993,5.44120589 17.3954816,6.18796952 17.6304434,6.92237861 C18.1209778,8.45846043 18.5881533,10.0027786 19.14739,11.5127786 C19.4221991,12.2554241 19.8797564,12.9294332 20.2534969,13.635015 C20.5392984,14.1744968 20.8237259,14.7153513 21.1040312,15.2589513 C21.1507488,15.3509241 21.1356343,15.5101604 21.2029625,15.552715 C22.1249472,16.1292604 21.2840312,16.8375877 21.3499854,17.4745332 C21.3554816,17.5280695 21.2661686,17.6104332 21.2015885,17.6502422 C20.6876953,17.9796968 18.7681533,17.6269059 18.4933442,17.0846786 C18.0096801,16.1333786 17.6112068,15.1381513 17.1770083,14.1621422 C16.8747182,13.4826422 16.5710541,12.8031422 16.3608251,12.3336695 L16.3608251,12.3336695 Z M12.218077,9.10913316 C13.0411304,9.18737861 13.6196037,9.25326952 14.1994511,9.29445134 C14.5731915,9.32053316 14.9496801,9.30817861 15.3247946,9.31504225 C15.2134969,8.96499679 15.0953289,8.61632407 14.9922755,8.26490589 C14.6817411,7.19006043 14.378077,6.11384225 14.0702907,5.03899679 C13.5948709,5.18176043 12.8418938,7.36302407 12.9325808,8.18116952 C12.6770083,8.51336952 12.4695274,8.78242407 12.218077,9.10913316 L12.218077,9.10913316 Z" id="Fill-8"></path>
                    <path d="M1.76839695,34.7642241 C1.57740458,34.3222059 1.44412214,34.1149241 1.39877863,33.8884241 C1.30259542,33.4120877 1.14183206,32.9110422 1.20916031,32.4498059 C1.34381679,31.5300786 1.55954198,30.6556513 2.37160305,29.9747786 C3.34442748,29.1580059 4.23618321,28.3549604 5.61709924,28.291815 C6.16259542,28.2671059 6.69160305,27.8566604 7.22610687,27.6205513 C7.42259542,27.5326968 7.60946565,27.400915 7.81557252,27.3597332 C9.60320611,27.008315 10.6062595,27.6383968 11.2740458,29.665915 C10.5430534,29.8278968 9.82992366,30.0804786 9.10167939,30.1271513 C8.06152672,30.194415 7.15740458,30.6185877 6.22717557,30.9878513 C5.72977099,31.1855241 5.11557252,31.3337786 4.80366412,31.7112786 C3.54778626,33.229515 4.65251908,34.4924241 5.91801527,35.5947241 C7.02412214,36.5583786 8.0670229,37.6043968 9.04396947,38.6998332 C9.39847328,39.0979241 9.47954198,39.7431059 9.59908397,40.054715 C9.65816794,40.7753968 9.61419847,41.3217422 9.76259542,41.8090604 C10.0456489,42.7383968 10.258626,43.633415 9.7378626,44.5380422 C9.64854962,44.6917877 9.5578626,44.8729877 9.41770992,44.962215 C8.5080916,45.5332695 7.64381679,46.3033695 6.64763359,46.5737968 C5.73389313,46.8222604 4.71847328,47.2505513 3.69068702,46.8085332 C3.22763359,46.6094877 2.72748092,46.4996695 2.25480916,46.3225877 C1.47847328,46.0288241 0.795572519,45.6307332 0.518015267,44.7617968 C0.47129771,44.6094241 0.24870229,44.5133332 0,44.297815 C0.425954198,43.6430241 0.77221374,42.8578241 1.3410687,42.2977513 C2.11877863,41.5317695 2.69587786,42.6258332 3.4021374,42.7342786 C3.54091603,43.6553786 3.68931298,43.7802968 4.98091603,43.8063786 C5.4329771,43.8159877 5.92076336,43.7706877 6.33572519,43.6059604 C6.98290076,43.3492604 7.37587786,42.8591968 7.2659542,42.0849786 C7.11480916,41.0183695 6.79740458,40.0039241 6.08977099,39.1926422 C5.59099237,38.6215877 5.00427481,38.0628877 4.34335878,37.7114695 C3.26335878,37.1390422 2.82091603,36.0943968 2.15587786,35.207615 C1.99648855,34.9948422 1.80549618,34.8067786 1.76839695,34.7642241" id="Fill-9"></path>
                </g>
            </g>
        </g>
    </g>
</svg>