<svg width="189" height="113" viewBox="0 0 189 113" xmlns="http://www.w3.org/2000/svg" xmlns:sketch="http://www.bohemiancoding.com/sketch/ns"><title>all-i-want</title><desc>Created with Sketch.</desc><g sketch:type="MSArtboardGroup" fill="none"><path opacity=".87" sketch:type="MSShapeGroup" d="M-766-503h1024v1024h-1024z"/><g sketch:type="MSShapeGroup"><path d="M.629 17.905c3.69-3.61 8.108-5.426 13.053-6.029 1.824-.224 3.713-.41 5.522-.192 7.262.872 14.377-.215 21.497-1.372 12.747-2.071 25.56-3.515 38.475-3.88 16.254-.458 32.47-1.611 48.692-2.637 6.693-.424 13.38-.901 20.068-1.393 2.002-.146 3.99-.515 5.992-.623 3.514-.188 7.031-.342 10.547-.346 4.855-.002 9.724.511 14.537-.534 1.736-.378 3.318-.065 4.806.899 1.171.76 1.92 1.674 2.233 3.156.808 3.825 1.085 7.676.94 11.558-.258 6.908.201 13.811.086 20.708-.105 6.228-.625 12.46-1.28 18.658-.495 4.712-.762 9.323-.05 14.073.795 5.32 1.253 10.748 1.224 16.125-.029 5.772.848 11.425 1.324 17.127.239 2.882-.369 3.823-3.025 3.863-1.843.027-3.698.002-5.533-.169-9.701-.912-19.417-.937-29.141-.623-8.704.283-17.408.505-26.11.855-2.84.116-5.665.619-8.505.825-5.684.412-11.372.777-17.062 1.096-6.53.363-13.061.707-19.597.963-8.366.323-16.737.526-25.105.832-2.512.091-5.016.363-7.527.528-7.522.494-15.049.95-22.569 1.476-2.359.163-4.66.207-6.979-.477-1.259-.372-2.664-.215-3.988-.407-1.318-.19-2.672-.367-3.917-.817-4.632-1.67-5.952-3.621-6.148-8.649-.046-1.172-.21-2.339-.332-3.507-.235-2.265-1.026-4.427-.01-6.823.535-1.262-.021-2.985-.069-4.501-.294-9.439-.6-18.875-.867-28.314-.214-7.583-.739-15.181-.443-22.745.243-6.262-.246-12.439-.741-18.702zm181.84-12.724c-2.168-.863-4.322-.749-6.507-.705-4.353.089-8.71-.03-13.066.046-3.346.059-6.712.082-10.026.481-5.487.661-10.946 1.444-16.489 1.604-4.343.125-8.668.726-13.009.973-6.861.393-13.729.673-20.594.988-7.692.348-15.387.633-23.077 1.037-7.703.405-15.463.467-23.082 1.528-7.302 1.015-14.638 1.771-21.931 2.852-6.966 1.03-13.977 1.761-20.96 2.673-3.171.414-6.171 1.395-9.036 3.072-.082.688-.237 1.345-.22 1.995.306 12.985.684 25.971.938 38.956.206 10.454.145 20.911 1.045 31.344.319 3.69.195 7.416.416 11.119.185 3.07 1.507 4.628 4.393 5.409.957.26 1.983.277 2.978.382 1.998.211 3.996.429 5.999.602 1.66.144 3.335.403 4.989.31 5.684-.319 11.363-.752 17.041-1.174 5.833-.435 11.62-1.607 17.52-.982 1.146.12 2.334-.205 3.505-.27 3.182-.175 6.364-.359 9.548-.469 3.688-.125 7.384-.084 11.068-.27 17.744-.897 35.488-1.845 53.23-2.776.84-.044 1.675-.131 2.512-.169 3.686-.163 7.373-.46 11.057-.439 9.218.051 18.435.266 27.651.374 1.952.023 4.038.566 6.013-1.33-.12-1.598-.258-3.416-.392-5.236-.185-2.512-.703-5.054-.481-7.528.47-5.265-.153-10.473-.823-15.612-.84-6.435-.684-12.755-.023-19.158.762-7.372 1.904-14.757 1.06-22.2-.777-6.861.029-13.724-.115-20.59-.05-2.421-.336-4.587-1.131-6.838z" fill="#000"/><path d="M182.469 5.182c.795 2.25 1.081 4.416 1.131 6.838.145 6.865-.661 13.729.115 20.59.844 7.444-.298 14.828-1.06 22.2-.661 6.403-.816 12.724.023 19.158.67 5.138 1.293 10.347.823 15.612-.222 2.474.296 5.016.481 7.528.134 1.82.273 3.637.392 5.236-1.975 1.896-4.061 1.353-6.013 1.33-9.216-.108-18.433-.323-27.651-.374-3.684-.021-7.371.277-11.057.439-.837.038-1.673.125-2.512.169-17.742.931-35.486 1.879-53.23 2.776-3.684.186-7.38.146-11.068.27-3.184.11-6.366.293-9.548.469-1.171.065-2.359.391-3.505.27-5.9-.625-11.687.547-17.52.982-5.678.422-11.357.855-17.041 1.174-1.654.093-3.329-.167-4.989-.31-2.002-.173-4.001-.391-5.999-.602-.995-.106-2.021-.122-2.978-.382-2.886-.781-4.208-2.339-4.393-5.409-.22-3.703-.097-7.429-.416-11.119-.9-10.433-.84-20.889-1.045-31.344-.254-12.985-.632-25.971-.938-38.956-.017-.65.139-1.307.22-1.995 2.865-1.676 5.864-2.658 9.036-3.072 6.983-.912 13.993-1.642 20.96-2.673 7.294-1.081 14.629-1.837 21.931-2.852 7.619-1.062 15.379-1.123 23.082-1.528 7.69-.403 15.385-.688 23.077-1.037 6.866-.315 13.733-.595 20.594-.988 4.341-.247 8.666-.849 13.009-.973 5.543-.16 11.002-.944 16.489-1.604 3.314-.399 6.681-.422 10.026-.481 4.355-.076 8.713.042 13.066-.046 2.185-.044 4.338-.158 6.507.705zm-73.529 29.401c-2.191-3.323-1.983-7.467-3.862-10.617-1.723-.061-2.391.699-2.514 2.096-.197 2.223-.059 4.543-1.839 7.003-.779-2.939-1.389-5.352-2.063-7.75-.361-1.284-.762-2.565-1.291-3.785-.139-.321-.846-.604-1.234-.543-.413.065-.963.498-1.085.887-.185.589-.195 1.322-.031 1.923 1.24 4.528 2.527 9.046 3.847 13.551.128.441.579.787.915 1.222 3.53-.127 2.781-4.296 5.01-5.47.913 1.68 1.673 3.355 2.684 4.858 1.033 1.533 2.684 1.271 3.528-.448.292-.595.552-1.235.674-1.883.854-4.613 1.669-9.234 2.487-13.853.029-.156.015-.38-.078-.49-.319-.369-.634-.901-1.037-.994-.388-.089-1.049.167-1.291.494-.374.511-.623 1.195-.697 1.835-.25 2.164-.38 4.34-.59 6.509-.176 1.818-.239 3.675-1.534 5.455zm-14.955 22.846c-.712-2.236-1.123-3.853-1.774-5.366-.193-.445-1.047-.743-1.637-.821-.376-.051-.861.382-1.219.688-.239.205-.392.551-.497.863-1.003 3.021-2.038 6.031-2.964 9.076-.583 1.917-1.02 3.882-1.463 5.837-.05.23.277.547.458.872 2.17.27 2.88-1.224 3.318-2.924.46-1.784.73-3.618 1.234-5.388.191-.663.804-1.203 1.524-2.223.21 1.585.22 2.605.495 3.549.527 1.82 2.053 2.128 3.421.815.659-.629.667-2.044 1.994-1.809.586 1.78 1.106 3.54 1.774 5.242.122.31.867.551 1.293.511.418-.042.949-.395 1.165-.766.628-1.085.453-2.208.042-3.384-.604-1.723-1.049-3.502-1.543-5.263-.344-1.229.556-3.059-.93-3.633-1.87-.72-2.351 1.336-3.266 2.413l-1.425 1.712zm60.385-36.246c-.938-.057-1.769-.315-2.416-.072-.405.154-.73 1.053-.743 1.628-.025 1.165.252 2.333.283 3.502.08 2.844-.594 5.434-1.889 7.52-1.927-.559-2.277-2.331-2.668-3.87-.741-2.922-1.188-5.92-1.891-8.852-.157-.654-.863-1.176-1.559-2.071-.73 1.275-1.337 2.071-1.673 2.97-1.74 4.653-.892 9.62-1.576 14.41-.057.403.745 1.235 1.247 1.326.453.082 1.406-.496 1.503-.925.43-1.942.636-3.935.97-6.24.873 1.678 1.486 3.173 2.378 4.473.907 1.328 2.315 1.841 3.956 1.524 1.471-.283 2.361-1.191 2.752-2.597.269-.965.569-1.944.653-2.934.267-3.146.441-6.297.674-9.793zm-87.339 62.343c.178 3.971 1.314 7.836 2.132 11.708.575 2.711 2.592 3.694 5.415 3.27 1.965-.298 3.91-.861 5.795-1.509.579-.201.928-1.072 1.65-1.97-2.88 0-5.209.078-7.527-.046-.716-.038-1.555-.479-2.049-1.009-.351-.378-.214-1.212-.273-1.674 2.002-1.919 5.136-1.191 6.889-3.918-1.056-.467-1.874-1.115-2.708-1.132-1.473-.032-2.955.437-4.433.443-.437 0-1.031-.783-1.253-1.332-.128-.31.231-1.026.575-1.288.657-.498 1.427-.887 2.208-1.161.774-.27 1.702-.184 2.401-.559.443-.239.903-1.121.783-1.558-.13-.481-.882-.844-1.427-1.136-.248-.131-.659-.002-.98.072-2.435.562-4.878 1.11-7.199 2.799zm37.023 12.538c2.454 0 4.269.135 6.057-.03 3.904-.357 6.06-2.852 5.585-6.718-.281-2.288-.945-4.571-1.738-6.745-.768-2.111-2.552-3.029-4.788-2.763-1.641.196-3.297.437-4.878.901-.682.201-1.446.91-1.711 1.575-.348.876-.399 1.949-.3 2.909.288 2.82.691 5.628 1.102 8.434.115.787.42 1.547.67 2.436zm-54.059-32.539c1.528-3.298 1.274-6.669-.525-10.237-.997.342-1.996.488-2.747.999-.653.445-.961 1.372-1.543 1.965-.676.684-1.484 1.237-2.147 1.775.187 4.081.359 7.946.556 11.81.017.323.115.714.321.939.304.336.735.752 1.119.762.401.008 1.077-.346 1.173-.678.42-1.423.672-2.896 1.073-4.756l7.101 5.692c1.876-1.991 2.007-2.742.43-3.692-1.897-1.146-3.591-2.415-4.811-4.579zm8.847 17.282c-1.589.517-1.969 1.539-1.757 2.835.296 1.807.678 3.599.959 5.409.04.255-.277.566-.525 1.032l-3.751-.699c-.424-1.642-.701-3.129-1.232-4.518-.17-.448-1.062-.939-1.53-.857-.432.076-1.125.98-1.037 1.364.867 3.815.642 7.665.594 11.514-.002.169-.057.393.027.496.397.488.879 1.36 1.249 1.319.72-.078 1.469-.581 2.034-1.098.248-.228.139-.935.065-1.406-.122-.785-.686-1.579.306-2.407 1.499-.222 3.119-.568 4.634.374.663 3.099.663 3.099 2.995 3.773.168-.456.535-.948.474-1.379-.661-4.64-1.343-9.28-2.151-13.897-.122-.699-.917-1.279-1.356-1.856zm65.246 8.075c1.536 1.058 2.773 1.879 3.973 2.747.814.589 1.547 1.294 2.378 1.858.947.642 2.013.08 2.248-1.075.267-1.311-.101-2.238-1.312-2.934-1.568-.904-3.048-1.961-4.821-3.12 1.597-1.771 2.684-3.382 2.271-5.594-.527-2.839-3.299-4.296-5.659-2.706-.915.614-1.555 1.704-2.172 2.673-.193.302-.05 1.051.212 1.343.235.258.951.361 1.28.19.865-.45 1.593-1.172 2.468-1.594.267-.127.892.302 1.234.612.176.16.241.785.103.908-.98.863-1.96 1.759-3.069 2.428-.869.521-1.461-.498-2.191-.752-.63-.22-1.436.068-2.208.135.51 2.464.905 4.598 1.417 6.703.191.79.604 1.539 1.003 2.259.292.526 1.515.486 1.732-.093.397-1.068.628-2.2 1.112-3.986zm-5.82-21.622c-.986-4.549-1.918-8.592-2.724-12.66-.386-1.951-.542-3.944-2.433-5.16-2.72 2.977-7.126 11.225-8.501 15.812 1.778 1.353 2.405 1.387 3.083.046.521-1.028.903-2.128 1.438-3.416l4.67-.272c1.379 2.227.166 5.117 2.756 6.663l1.711-1.013zm-43.523-41.787c1.658-.418 3.27-.724 4.79-1.279.386-.141.623-1.072.651-1.655.013-.249-.661-.701-1.068-.76-.64-.095-1.341-.032-1.977.127-3.241.817-6.481 1.638-9.686 2.582-.483.144-1.062.942-1.062 1.438 0 .418.73 1.119 1.217 1.197 1.11.182 2.271.059 3.78.059.791 3.566 1.104 6.986.73 10.45-.766.317-1.436.473-1.948.847-.353.258-.766.927-.655 1.218.206.538.747 1.29 1.203 1.33 3.346.298 6.693.268 9.89-.98.716-.279 1.48-.718.856-2.101-1.207 0-2.554.15-3.845-.057-.707-.114-1.809-.747-1.895-1.281-.571-3.593-1.688-7.167-.98-11.134zm-49.146 16.237c1.885-.638 2.592-1.421 2.07-2.823-.756-2.018-1.492-4.017-2.025-6.133-.604-2.396-1.91-4.613-2.926-6.899-.348-.787-.829-1.526-1.813-1.4-1.115.146-1.683.923-1.918 2.003-.388 1.792-.718 3.606-1.249 5.356-.779 2.557-1.774 5.046-2.556 7.6-.411 1.338.271 2.122 1.761 2.55l2.489-4.67 3.835-.927c.793 1.818 1.511 3.458 2.334 5.341zm109.418 37.662c-.521 2.381-.972 4.309-1.347 6.251-.126.648-.103 1.338-.061 2.003.258 4.096 3.545 6.348 7.325 4.94 1.068-.399 2.149-1.005 2.97-1.786 1.975-1.879 3.216-4.269 3.851-6.912.533-2.223-.632-3.851-2.97-4.385-3.117-.714-6.232-.192-9.768-.112zm-106.62-14.854c.353 1.978.472 4.216 1.175 6.253 1.115 3.224 4.042 4.003 6.889 2.107.416-.277.823-.589 1.165-.952 2.836-3.013 3.104-8.25.615-11.639-1.104-1.503-5.042-3.07-6.641-2.491-1.824.657-2.151 2.453-2.647 4.047-.248.794-.346 1.636-.556 2.675zm124.811 23.818c1.96-.933 3.663-1.63 5.254-2.527 2.025-1.142 3.295-2.915 3.186-5.326-.113-2.508-1.908-3.825-3.938-4.78-1.276-.602-2.601-.616-3.696.534-1.272 1.336-2.649 2.59-3.791 4.032-.573.724-1.028 1.784-1.022 2.69.025 3.192.615 6.327 1.832 9.285.162.393 1.186.714 1.7.593.506-.118 1.224-.838 1.226-1.298.006-.935-.409-1.873-.751-3.203zm-2.5-32.475c.359 1.923.72 3.72 1.02 5.527.237 1.433-.004 2.62-1.532 3.338-.319.148-.506 1.273-.288 1.708.235.464 1.083.98 1.562.895 2.955-.517 5.929-1.049 8.547-2.662.22-.133.26-.562.346-.764-1.052-2.358-3.53-.355-5.149-1.953-.783-2.261-1.387-4.815-1.11-7.298 1.547-1.638 3.377-.948 4.945-1.383.369-.101.793-.688.84-1.094.046-.391-.346-.844-.583-1.248-.076-.129-.262-.253-.409-.268-4.101-.429-7.865.973-11.632 2.269-.279.097-.518.878-.449 1.281.073.41.489.95.869 1.072.919.296 1.904.38 3.025.578zm-78.293 5.58c-.413.937-.917 2.149-1.476 3.336-.642 1.364-1.387 2.679-1.954 4.07-.132.327.166 1.142.46 1.267.537.224 1.327.315 1.811.065.523-.27.886-.952 1.201-1.52.772-1.395 1.473-2.827 2.384-4.592 1.497 1.721 2.651 3.122 3.891 4.44.598.635 1.471.99 2.231.369.453-.369.625-1.083.957-1.704-2.135-2.13-4.089-4.172-5.421-6.608.691-1.697 1.402-3.211 1.904-4.792.254-.798.029-1.879-.942-1.987-.68-.076-1.673.357-2.099.901-.539.688-.649 1.718-1.028 2.861-1.444-.83-2.504-1.636-3.698-2.052-.646-.226-1.807-.049-2.225.414-.586.652-.122 1.602.604 2.136 1.201.882 2.647 1.476 3.4 3.395zm-54.108 1.699c-.174-.638-.397-1.104-.416-1.577-.055-1.474-.709-3.114.453-4.347 1.413-1.497 3.022-.659 4.597-.08.285.103.863-.334 1.169-.652.162-.169.16-.73.002-.929-.502-.623-1.022-1.482-1.694-1.668-2.836-.783-5.591-.836-7.632 1.972.267 6.019.533 12.025.804 18.031.006.165.006.405.107.479.357.264.735.566 1.148.661.204.049.697-.296.73-.511.348-2.282.63-4.575.968-7.157 1.881-.31 3.656-.553 5.403-.935.348-.076.795-.663.814-1.037.021-.374-.376-1.037-.699-1.115-1.763-.431-3.56-.72-5.755-1.136zm106.708-42.488c-.842 1.022-1.883 1.702-1.975 2.493-.476 4.072-2.252 7.708-3.526 11.51-.267.792-.667 1.59-.691 2.394-.015.528.432 1.362.869 1.524.418.156 1.387-.228 1.595-.64.663-1.326 1.087-2.772 1.648-4.29l3.52-.374c.483 1.119.772 2.096 1.31 2.907.3.456 1.047.939 1.53.882.945-.116 1.316-1.007 1.205-1.896-.162-1.311-.115-2.858-.802-3.855-1.694-2.453-1.931-5.333-2.903-7.984-.317-.863-1.033-1.579-1.78-2.673zm6.773 31.046c-.724-.477-1.278-1.157-1.763-1.11-2.615.249-4.762 1.45-6.085 3.804-1.014 1.805-.411 3.825 1.471 4.647 1.675.728 3.516 1.072 5.209 1.765 1.205.494 2.355 1.201 3.379 2.006.267.211.201 1.455-.109 1.683-.766.566-1.755 1.11-2.666 1.129-1.272.03-2.55-.547-3.839-.619-.506-.027-1.259.494-1.526.975-.441.79-.168 1.649.661 2.143.418.249.915.429 1.396.494 2.577.35 5.004-.247 7.218-1.524 2.538-1.463 2.71-5.035.273-6.732-1.347-.937-2.93-1.577-4.471-2.183-1.526-.6-3.226-.832-4.15-2.371.489-2.588 3.348-1.974 5-4.106zm35.196-29.872c1.327 0 2.456.076 3.57-.023 1.016-.091 1.868-1.296 1.608-2.149-.269-.88-.861-1.408-1.83-1.393l-.495.051c-2.657.289-5.314.555-7.965.88-.982.12-2.013.234-2.89.638-.449.205-.779 1.022-.846 1.6-.038.344.472.988.85 1.098.94.274 1.948.323 2.896.456 1.455 2.381 2.137 4.9 2.009 7.672-.044.973.145 2.001.437 2.939.43 1.383 1.622 2.006 2.687 1.543 1.201-.524 1.142-1.573.827-2.546-1.106-3.435-.863-6.939-.856-10.765zm-128.956 66.171c1.415 2.808 1.01 5.309.886 7.801-.057 1.14.029 2.303.222 3.426.059.334.693.76 1.085.785.399.027 1.091-.302 1.196-.625.348-1.077.651-2.217.682-3.34.08-2.814-.183-5.641.109-8.622 1.01-.224 1.845-.289 2.569-.612.5-.222.934-.749 1.194-1.248.076-.141-.504-.857-.884-.975-3.828-1.197-7.548.125-11.29.659-.327.046-.785 1.119-.697 1.632.086.515.739 1.262 1.211 1.317 1.117.127 2.271-.095 3.715-.198zm18.693-50.618l-7.508-.553c-.145-2.139-.254-3.956-.392-5.772-.115-1.501-.166-3.017-.439-4.488-.143-.773-.565-1.613-1.123-2.143-.357-.34-1.236-.321-1.792-.16-.294.084-.68.952-.546 1.243 1.679 3.667 1.054 7.554 1.171 11.368.031.99.004 1.984.004 3.055.739.315 1.339.796 1.931.787 2.653-.036 5.319-.078 7.946-.397 1.182-.144 1.347-1.298.747-2.941zm112.36 24.746c-.449.076-1.073.15-1.679.291-.798.188-1.671.283-2.347.695-.464.285-.947 1.083-.871 1.564.08.496.751 1.051 1.291 1.29 1.555.684 2.945-.211 4.292-.781 2.191-.927 3.163-3.065 2.441-5.36-.344-1.091-.938-2.143-1.599-3.08-.571-.809-1.478-1.368-2.086-2.155-.378-.486-.741-1.25-.623-1.78.107-.483.921-.775 1.324-1.237.283-.323.6-.832.535-1.191-.076-.405-.495-.929-.879-1.062-1.572-.538-3.325.317-4.609 2.189-.774 1.132-.518 2.297.292 3.249 1.182 1.389 2.493 2.668 3.751 3.992.831.878 1.536 1.79.768 3.376zm-132.516-25.226c0-2.147.097-3.958-.027-5.755-.128-1.822-.424-3.642-.781-5.434-.059-.298-.884-.714-1.222-.616-.546.16-1.039.652-1.444 1.102-.181.201-.187.665-.115.971.816 3.5.686 6.996.044 10.499-.061.323.008.671.042 1.005.101.99 1.062 2.094 1.956 1.913 2.103-.426 4.204-.956 6.213-1.699.388-.146.573-1.493.43-2.198-.076-.372-1.096-.828-1.633-.766-1.085.127-2.132.581-3.463.98z" fill="none"/><path d="M108.941 34.583c1.295-1.78 1.358-3.637 1.534-5.455.21-2.168.34-4.345.59-6.509.073-.64.323-1.324.697-1.835.241-.327.903-.583 1.291-.494.403.093.718.625 1.037.994.092.11.107.334.078.49-.819 4.619-1.633 9.24-2.487 13.853-.122.648-.382 1.288-.674 1.883-.844 1.718-2.496 1.98-3.528.448-1.012-1.503-1.771-3.177-2.684-4.858-2.229 1.174-1.48 5.343-5.01 5.47-.336-.435-.787-.781-.915-1.222-1.32-4.505-2.607-9.023-3.847-13.551-.164-.602-.153-1.334.031-1.923.122-.388.672-.821 1.085-.887.388-.061 1.096.222 1.234.543.529 1.22.93 2.502 1.291 3.785.674 2.398 1.285 4.811 2.063 7.75 1.78-2.459 1.641-4.78 1.839-7.003.124-1.398.791-2.158 2.514-2.096 1.879 3.15 1.671 7.294 3.862 10.617" fill="#000"/><path d="M93.986 57.43l1.425-1.712c.915-1.077 1.396-3.133 3.266-2.413 1.486.574.586 2.405.93 3.633.493 1.761.938 3.54 1.543 5.263.411 1.176.586 2.299-.042 3.384-.216.372-.747.724-1.165.766-.426.04-1.171-.201-1.293-.511-.667-1.702-1.188-3.462-1.774-5.242-1.327-.234-1.335 1.18-1.994 1.809-1.368 1.313-2.894 1.005-3.421-.815-.275-.944-.285-1.963-.495-3.549-.72 1.02-1.333 1.56-1.524 2.223-.504 1.769-.774 3.604-1.234 5.388-.439 1.699-1.148 3.194-3.318 2.924-.181-.325-.508-.642-.458-.872.443-1.955.879-3.92 1.463-5.837.926-3.044 1.96-6.055 2.964-9.076.105-.312.258-.659.497-.863.359-.306.844-.739 1.219-.688.59.078 1.444.376 1.637.821.651 1.514 1.062 3.131 1.774 5.366" fill="#000"/><path d="M154.371 21.184c-.233 3.496-.407 6.648-.674 9.793-.084.99-.384 1.97-.653 2.934-.39 1.406-1.28 2.314-2.752 2.597-1.641.317-3.05-.196-3.956-1.524-.892-1.3-1.505-2.795-2.378-4.473-.334 2.305-.539 4.298-.97 6.24-.097.429-1.049 1.007-1.503.925-.502-.091-1.303-.923-1.247-1.326.684-4.79-.164-9.758 1.576-14.41.336-.899.942-1.695 1.673-2.97.697.895 1.402 1.417 1.559 2.071.703 2.932 1.15 5.93 1.891 8.852.39 1.539.741 3.31 2.668 3.87 1.295-2.086 1.969-4.676 1.889-7.52-.031-1.17-.309-2.337-.283-3.502.013-.574.338-1.474.743-1.628.646-.243 1.478.015 2.416.072" fill="#000"/><path d="M67.032 83.527c2.321-1.689 4.765-2.238 7.199-2.799.321-.074.733-.203.98-.072.546.291 1.297.654 1.427 1.136.12.437-.34 1.319-.783 1.558-.699.376-1.627.289-2.401.559-.781.274-1.551.663-2.208 1.161-.344.262-.703.977-.575 1.288.222.549.816 1.332 1.253 1.332 1.478-.006 2.959-.475 4.433-.443.833.017 1.652.665 2.708 1.132-1.753 2.728-4.886 1.999-6.889 3.918.059.462-.078 1.296.273 1.674.493.53 1.333.971 2.049 1.009 2.317.125 4.647.046 7.527.046-.722.897-1.07 1.769-1.65 1.97-1.885.648-3.83 1.212-5.795 1.509-2.823.424-4.84-.559-5.415-3.27-.819-3.872-1.954-7.737-2.132-11.708" fill="#000"/><path d="M104.054 96.065c-.25-.889-.554-1.649-.67-2.436-.411-2.806-.814-5.613-1.102-8.434-.099-.961-.048-2.033.3-2.909.264-.665 1.028-1.374 1.711-1.575 1.58-.464 3.237-.705 4.878-.901 2.235-.266 4.019.652 4.788 2.763.793 2.174 1.457 4.457 1.738 6.745.474 3.865-1.681 6.361-5.585 6.718-1.788.165-3.604.03-6.057.03zm3.755-3.298c5.147.049 5.938-.872 4.878-5.388l-.107-.488c-1.1-4.222-2.206-4.767-6.351-3.093-.262.108-.424.469-.686.773-.17 2.839.355 5.548 2.267 8.195z" fill="#000"/><path d="M49.995 63.527c1.219 2.164 2.913 3.433 4.811 4.579 1.576.95 1.446 1.702-.43 3.692l-7.101-5.692c-.401 1.86-.653 3.333-1.073 4.756-.097.331-.772.686-1.173.678-.384-.011-.814-.426-1.119-.762-.206-.226-.304-.616-.321-.939-.197-3.863-.369-7.729-.556-11.81.663-.538 1.471-1.091 2.147-1.775.581-.593.89-1.52 1.543-1.965.751-.511 1.75-.657 2.747-.999 1.799 3.568 2.053 6.939.525 10.237zm-2.187-4.748l-.443-.017-.132 2.02.575.023v-2.027z" fill="#000"/><path d="M58.842 80.808c.439.576 1.234 1.157 1.356 1.856.808 4.617 1.49 9.257 2.151 13.897.061.431-.306.923-.474 1.379-2.332-.673-2.332-.673-2.995-3.773-1.515-.942-3.136-.595-4.634-.374-.993.828-.428 1.621-.306 2.407.073.471.183 1.178-.065 1.406-.565.517-1.314 1.02-2.034 1.098-.369.04-.852-.832-1.249-1.319-.084-.103-.029-.327-.027-.496.048-3.849.273-7.699-.594-11.514-.088-.384.604-1.288 1.037-1.364.468-.082 1.36.41 1.53.857.531 1.389.808 2.875 1.232 4.518l3.751.699c.248-.467.565-.777.525-1.032-.281-1.809-.663-3.602-.959-5.409-.212-1.296.168-2.318 1.757-2.835" fill="#000"/><path d="M124.088 88.883c-.485 1.786-.716 2.918-1.112 3.986-.216.578-1.44.619-1.732.093-.399-.72-.812-1.469-1.003-2.259-.512-2.105-.907-4.239-1.417-6.703.772-.068 1.578-.355 2.208-.135.73.253 1.322 1.273 2.191.752 1.108-.669 2.088-1.564 3.069-2.428.139-.122.073-.747-.103-.908-.342-.31-.968-.739-1.234-.612-.875.422-1.604 1.144-2.468 1.594-.33.171-1.045.068-1.28-.19-.262-.291-.405-1.041-.212-1.343.617-.969 1.257-2.058 2.172-2.673 2.359-1.59 5.132-.133 5.659 2.706.413 2.212-.674 3.823-2.271 5.594 1.774 1.159 3.253 2.217 4.821 3.12 1.211.697 1.578 1.623 1.312 2.934-.235 1.155-1.301 1.716-2.248 1.075-.831-.564-1.564-1.269-2.378-1.858-1.201-.868-2.437-1.689-3.973-2.747" fill="#000"/><path d="M118.268 67.261l-1.711 1.013c-2.59-1.545-1.377-4.435-2.756-6.663-1.461.087-3.062.179-4.67.272-.535 1.288-.917 2.388-1.438 3.416-.678 1.341-1.306 1.307-3.083-.046 1.375-4.587 5.78-12.836 8.501-15.812 1.891 1.216 2.046 3.209 2.433 5.16.806 4.068 1.738 8.111 2.724 12.66zm-5.808-12.401c-.766 1.193-1.001 1.45-1.112 1.754-.153.416-.214.868-.409 1.708.869-.203 1.897-.266 1.931-.481.105-.699-.157-1.45-.409-2.981z" fill="#000"/><path d="M74.745 25.474c-.707 3.967.409 7.541.98 11.134.086.534 1.188 1.167 1.895 1.281 1.291.207 2.638.057 3.845.057.623 1.383-.141 1.822-.856 2.101-3.197 1.248-6.544 1.277-9.89.98-.455-.04-.997-.792-1.203-1.33-.111-.291.302-.961.655-1.218.512-.374 1.182-.53 1.948-.847.374-3.464.061-6.884-.73-10.45-1.509 0-2.67.122-3.78-.059-.487-.078-1.217-.779-1.217-1.197 0-.496.579-1.294 1.062-1.438 3.205-.944 6.446-1.765 9.686-2.582.636-.158 1.337-.222 1.977-.127.407.059 1.081.511 1.068.76-.027.583-.264 1.514-.651 1.655-1.52.555-3.132.861-4.79 1.279" fill="#000"/><path d="M25.6 41.71c-.823-1.883-1.541-3.523-2.334-5.341l-3.835.927-2.489 4.67c-1.49-.429-2.172-1.212-1.761-2.55.783-2.554 1.778-5.043 2.556-7.6.531-1.75.861-3.564 1.249-5.356.235-1.081.804-1.858 1.918-2.003.984-.127 1.465.612 1.813 1.4 1.016 2.286 2.321 4.503 2.926 6.899.533 2.115 1.27 4.115 2.025 6.133.523 1.402-.185 2.185-2.07 2.823zm-3.799-9.639l-.571-.469c-.115.27-.319.543-.313.811.002.141.378.27.586.405l.298-.747z" fill="#000"/><path d="M135.017 79.373c3.537-.08 6.651-.602 9.768.112 2.338.534 3.503 2.162 2.97 4.385-.636 2.643-1.876 5.033-3.851 6.912-.821.781-1.902 1.387-2.97 1.786-3.78 1.408-7.067-.844-7.325-4.94-.042-.665-.065-1.355.061-2.003.376-1.942.827-3.87 1.347-6.251zm10.266 3.431c-5.004-2.491-8.331-.83-8.593 4.024-.118 2.149 1.463 3.585 3.455 2.928 1.045-.342 2.07-1.024 2.865-1.801 1.322-1.296 2.187-2.913 2.273-5.151z" fill="#000"/><path d="M28.397 64.519c.21-1.039.309-1.881.556-2.675.495-1.594.823-3.39 2.647-4.047 1.599-.578 5.537.988 6.641 2.491 2.489 3.388 2.221 8.626-.615 11.639-.342.363-.749.676-1.165.952-2.846 1.896-5.774 1.117-6.889-2.107-.703-2.037-.823-4.275-1.175-6.253zm4.301-3.445c-1.478 2.844-1.1 5.198-.688 7.52.181 1.026.762 1.908 1.969 1.944 1.146.032 1.889-.659 2.254-1.676.338-.942.632-1.925.756-2.915.17-1.338.315-2.875-.894-3.745-.863-.619-2.095-.722-3.396-1.127z" fill="#000"/><path d="M153.209 88.336c.342 1.33.758 2.267.751 3.203-.002.46-.72 1.18-1.226 1.298-.514.12-1.538-.201-1.7-.593-1.217-2.958-1.807-6.093-1.832-9.285-.006-.906.449-1.965 1.022-2.69 1.142-1.442 2.519-2.696 3.791-4.032 1.096-1.151 2.42-1.136 3.696-.534 2.03.954 3.824 2.272 3.938 4.78.109 2.411-1.161 4.184-3.186 5.326-1.591.897-3.293 1.594-5.254 2.527zm-.84-4.051c1.291.581 2.605.83 3.801-.042.913-.665 1.826-1.425 2.477-2.333.594-.828.583-1.892-.168-2.77-.739-.863-2.147-1.001-3.157-.26-1.813 1.332-3.041 3.004-2.953 5.404z" fill="#000"/><path d="M150.709 55.861c-1.121-.198-2.105-.283-3.025-.578-.38-.122-.795-.663-.869-1.072-.069-.403.17-1.184.449-1.281 3.768-1.296 7.531-2.698 11.632-2.269.147.015.334.139.409.268.237.403.63.857.583 1.248-.046.405-.47.992-.84 1.094-1.568.435-3.398-.255-4.945 1.383-.277 2.483.327 5.037 1.11 7.298 1.618 1.598 4.097-.405 5.149 1.953-.086.203-.126.631-.346.764-2.617 1.613-5.591 2.145-8.547 2.662-.479.084-1.327-.431-1.562-.895-.218-.435-.031-1.56.288-1.708 1.528-.718 1.769-1.904 1.532-3.338-.3-1.807-.661-3.604-1.02-5.527" fill="#000"/><path d="M72.416 61.441c-.754-1.919-2.2-2.512-3.4-3.395-.726-.534-1.19-1.484-.604-2.136.418-.462 1.578-.64 2.225-.414 1.194.416 2.254 1.222 3.698 2.052.38-1.142.489-2.172 1.028-2.861.426-.545 1.419-.977 2.099-.901.972.108 1.196 1.189.942 1.987-.502 1.581-1.213 3.095-1.904 4.792 1.333 2.436 3.287 4.478 5.421 6.608-.332.621-.504 1.334-.957 1.704-.76.621-1.633.266-2.231-.369-1.24-1.317-2.395-2.719-3.891-4.44-.911 1.765-1.612 3.196-2.384 4.592-.315.568-.678 1.25-1.201 1.52-.485.249-1.274.158-1.811-.065-.294-.125-.592-.939-.46-1.267.567-1.391 1.312-2.706 1.954-4.07.558-1.186 1.062-2.398 1.476-3.336" fill="#000"/><path d="M18.308 63.14c2.195.416 3.992.705 5.755 1.136.323.078.72.741.699 1.115-.019.374-.466.961-.814 1.037-1.746.382-3.522.625-5.403.935-.338 2.582-.619 4.875-.968 7.157-.034.215-.527.559-.73.511-.413-.095-.791-.397-1.148-.661-.101-.074-.101-.315-.107-.479-.271-6.006-.537-12.012-.804-18.031 2.04-2.808 4.796-2.755 7.632-1.972.672.186 1.192 1.045 1.694 1.668.157.198.16.76-.002.929-.306.319-.884.756-1.169.652-1.574-.578-3.184-1.417-4.597.08-1.163 1.233-.508 2.873-.453 4.347.019.473.241.939.416 1.577" fill="#000"/><path d="M125.016 20.652c.747 1.094 1.463 1.809 1.78 2.673.972 2.652 1.209 5.531 2.903 7.984.686.996.64 2.544.802 3.855.111.889-.26 1.78-1.205 1.896-.483.057-1.23-.426-1.53-.882-.537-.811-.827-1.788-1.31-2.907l-3.52.374c-.56 1.518-.984 2.964-1.648 4.29-.208.412-1.177.796-1.595.64-.437-.163-.884-.996-.869-1.524.023-.804.424-1.602.691-2.394 1.274-3.802 3.05-7.437 3.526-11.51.092-.792 1.133-1.471 1.975-2.493zm.088 7.769c-.157.258-.426.509-.437.773-.01.232.264.479.413.72.157-.236.441-.475.437-.709-.002-.262-.262-.521-.413-.783z" fill="#000"/><path d="M131.789 51.698c-1.652 2.132-4.511 1.518-5 4.106.924 1.539 2.624 1.771 4.15 2.371 1.541.606 3.123 1.246 4.471 2.183 2.437 1.697 2.265 5.269-.273 6.732-2.214 1.277-4.641 1.875-7.218 1.524-.481-.065-.978-.245-1.396-.494-.829-.494-1.102-1.353-.661-2.143.267-.481 1.02-1.003 1.526-.975 1.289.072 2.567.648 3.839.619.911-.019 1.9-.564 2.666-1.129.311-.228.376-1.471.109-1.683-1.024-.804-2.174-1.512-3.379-2.006-1.694-.692-3.535-1.037-5.209-1.765-1.883-.821-2.485-2.842-1.471-4.647 1.322-2.354 3.469-3.555 6.085-3.804.485-.046 1.039.633 1.763 1.11" fill="#000"/><path d="M166.986 21.826c-.006 3.825-.25 7.33.856 10.765.315.973.374 2.022-.827 2.546-1.064.462-2.256-.16-2.687-1.543-.292-.937-.481-1.965-.437-2.939.128-2.772-.554-5.29-2.009-7.672-.949-.133-1.956-.182-2.896-.456-.378-.11-.888-.754-.85-1.098.067-.578.397-1.395.846-1.6.877-.403 1.908-.517 2.89-.638 2.651-.325 5.308-.591 7.965-.88l.495-.051c.97-.015 1.562.513 1.83 1.393.26.853-.592 2.058-1.608 2.149-1.115.099-2.244.023-3.57.023" fill="#000"/><path d="M38.029 87.996c-1.444.103-2.598.325-3.715.198-.472-.055-1.125-.802-1.211-1.317-.088-.513.369-1.585.697-1.632 3.742-.534 7.462-1.856 11.29-.659.38.118.959.834.884.975-.26.498-.695 1.026-1.194 1.248-.724.323-1.559.388-2.569.612-.292 2.981-.029 5.808-.109 8.622-.031 1.123-.334 2.263-.682 3.34-.105.323-.798.652-1.196.625-.392-.025-1.026-.452-1.085-.785-.193-1.123-.279-2.286-.222-3.426.124-2.491.529-4.993-.886-7.801" fill="#000"/><path d="M56.722 37.378c.6 1.642.434 2.797-.747 2.941-2.628.319-5.293.361-7.946.397-.592.008-1.192-.473-1.931-.787 0-1.07.027-2.065-.004-3.055-.118-3.815.508-7.701-1.171-11.368-.134-.291.252-1.159.546-1.243.556-.16 1.436-.179 1.792.16.558.53.98 1.37 1.123 2.143.273 1.471.323 2.987.439 4.488.139 1.816.248 3.633.392 5.772l7.508.553" fill="#000"/><path d="M169.083 62.125c.768-1.585.063-2.497-.768-3.376-1.257-1.324-2.569-2.603-3.751-3.992-.81-.952-1.066-2.117-.292-3.249 1.285-1.873 3.037-2.728 4.609-2.189.384.133.804.657.879 1.062.065.359-.252.868-.535 1.191-.403.462-1.217.754-1.324 1.237-.118.53.246 1.294.623 1.78.609.787 1.515 1.347 2.086 2.155.661.937 1.255 1.989 1.599 3.08.722 2.295-.25 4.433-2.441 5.36-1.347.57-2.737 1.465-4.292.781-.539-.239-1.211-.794-1.291-1.29-.076-.481.407-1.279.871-1.564.676-.412 1.549-.507 2.347-.695.607-.141 1.23-.215 1.679-.291" fill="#000"/><path d="M36.566 36.899c1.331-.399 2.378-.853 3.463-.98.537-.061 1.557.395 1.633.766.143.705-.042 2.052-.43 2.198-2.009.743-4.11 1.273-6.213 1.699-.894.182-1.855-.923-1.956-1.913-.034-.334-.103-.682-.042-1.005.642-3.502.772-6.998-.044-10.499-.071-.306-.065-.771.115-.971.405-.45.898-.942 1.444-1.102.338-.097 1.163.319 1.222.616.357 1.792.653 3.612.781 5.434.124 1.797.027 3.608.027 5.755" fill="#000"/><path d="M47.808 58.779v2.027l-.575-.023.132-2.02.443.017" fill="#fff"/><path d="M21.803 32.073l-.3.745c-.208-.135-.583-.264-.586-.405-.006-.268.197-.54.313-.811l.573.471" fill="#fff"/><path d="M125.106 28.421c.149.262.409.521.411.783.004.234-.279.473-.437.709-.149-.241-.424-.488-.413-.72.01-.264.279-.515.439-.773" fill="#fff"/></g></g></svg>