<?xml version="1.0" encoding="UTF-8" standalone="no"?>
<svg width="189px" height="113px" viewBox="0 0 189 113" version="1.1" xmlns="http://www.w3.org/2000/svg" xmlns:xlink="http://www.w3.org/1999/xlink" xmlns:sketch="http://www.bohemiancoding.com/sketch/ns">
    <!-- Generator: Sketch 3.1.1 (8761) - http://www.bohemiancoding.com/sketch -->
    <title>all-i-want-hover</title>
    <desc>Created with Sketch.</desc>
    <defs></defs>
    <g id="Page-1" stroke="none" stroke-width="1" fill="none" fill-rule="evenodd" sketch:type="MSPage">
        <g id="Desktop-2" sketch:type="MSArtboardGroup" transform="translate(-766.000000, -503.000000)">
            <rect id="Rectangle-1" opacity="0.869927705" sketch:type="MSShapeGroup" x="0" y="0" width="1024" height="1024"></rect>
            <g id="Group" sketch:type="MSLayerGroup" transform="translate(67.500000, 501.500000)">
                <g id="Imported-Layers" transform="translate(699.000000, 2.000000)" sketch:type="MSShapeGroup">
                    <path d="M0.128956044,17.4054444 C3.81882418,13.7954444 8.23701099,11.9798889 13.182022,11.3761111 C15.005967,11.1523333 16.894978,10.9665556 18.7042308,11.184 C25.9664286,12.0558889 33.0817033,10.9686667 40.2011758,9.81177778 C52.9478022,7.74077778 65.7615934,6.29677778 78.6761319,5.93155556 C94.930022,5.47344444 111.146132,4.32077778 127.368538,3.29477778 C134.061934,2.87044444 140.749033,2.39333333 147.436132,1.90144444 C149.438484,1.75577778 151.426143,1.38633333 153.428495,1.27866667 C156.942055,1.09077778 160.459813,0.936666667 163.975473,0.932444444 C168.830231,0.930333333 173.699681,1.44333333 178.512462,0.398333333 C180.248253,0.0204444444 181.830824,0.332888889 183.318945,1.29766667 C184.490132,2.05766667 185.23944,2.97177778 185.552176,4.45377778 C186.360253,8.27911111 186.637308,12.1297778 186.492484,16.0121111 C186.234319,22.9196667 186.693978,29.823 186.578538,36.72 C186.473593,42.9477778 185.953066,49.1797778 185.298209,55.378 C184.802868,60.09 184.536308,64.7006667 185.247835,69.4506667 C186.043319,74.7706667 186.500879,80.1983333 186.471495,85.5753333 C186.44211,91.3471111 187.319451,97.0006667 187.795901,102.702778 C188.035176,105.584444 187.426495,106.526 184.771385,106.566111 C182.928549,106.593556 181.073121,106.568222 179.238681,106.397222 C169.53756,105.485222 159.821747,105.459889 150.097538,105.774444 C141.393396,106.057333 132.689253,106.279 123.987209,106.629444 C121.147396,106.745556 118.322275,107.248 115.482462,107.454889 C109.798637,107.866556 104.110615,108.231778 98.4204945,108.550556 C91.8908132,108.913667 85.359033,109.257778 78.8230549,109.513222 C70.4568352,109.836222 62.0864176,110.038889 53.7180989,110.345 C51.2057143,110.435778 48.7017253,110.708111 46.1914396,110.872778 C38.668978,111.366778 31.1423187,111.822778 23.621956,112.348444 C21.2627912,112.511 18.9623956,112.555333 16.6431099,111.871333 C15.3837692,111.499778 13.9796044,111.656 12.6551978,111.463889 C11.3370879,111.273889 9.9832967,111.096556 8.73864835,110.646889 C4.10637363,108.977 2.78616484,107.026333 2.59096703,101.997667 C2.54479121,100.826 2.38107692,99.6585556 2.25934066,98.4911111 C2.02426374,96.2258889 1.23297802,94.0641111 2.24884615,91.668 C2.78406593,90.4055556 2.22785714,88.6828889 2.17958242,87.1671111 C1.88573626,77.7283333 1.5792967,68.2916667 1.31273626,58.8528889 C1.09864835,51.2697778 0.573923077,43.6718889 0.869868132,36.1077778 C1.11334066,29.8462222 0.624296703,23.6691111 0.128956044,17.4054444 L0.128956044,17.4054444 Z M181.969352,4.68177778 C179.801187,3.81833333 177.647714,3.93233333 175.462758,3.97666667 C171.109637,4.06533333 166.752319,3.94711111 162.397099,4.02311111 C159.051451,4.08222222 155.684813,4.10544444 152.370648,4.50444444 C146.884121,5.16522222 141.424879,5.94844444 135.881681,6.10888889 C131.539055,6.23344444 127.21322,6.83511111 122.872692,7.08211111 C116.011385,7.47477778 109.14378,7.75555556 102.278275,8.07011111 C94.5858022,8.41844444 86.8912308,8.70344444 79.2008571,9.10666667 C71.4978901,9.512 63.7382527,9.57322222 56.1192418,10.6351111 C48.8171648,11.6505556 41.4815055,12.4063333 34.1878242,13.4872222 C27.2215714,14.5174444 20.2112418,15.2478889 13.2281978,16.1598889 C10.0567582,16.5736667 7.05742857,17.5553333 4.19242857,19.2315556 C4.11057143,19.9197778 3.95525275,20.5763333 3.97204396,21.2265556 C4.27848352,34.212 4.65628571,47.1974444 4.91025275,60.1828889 C5.11594505,70.6371111 5.05507692,81.0934444 5.95550549,91.5265556 C6.27453846,95.2167778 6.1507033,98.9428889 6.37108791,102.645778 C6.55579121,105.715333 7.8780989,107.273333 10.7640879,108.054444 C11.7211868,108.314111 12.7475495,108.331 13.7424286,108.436556 C15.7405824,108.647667 17.7387363,108.865111 19.7410879,109.038222 C21.4013187,109.181778 23.0762418,109.441444 24.7301758,109.348556 C30.414,109.029778 36.0936264,108.597 41.7711538,108.174778 C47.604,107.739889 53.3906703,106.568222 59.2906813,107.193111 C60.4366813,107.313444 61.6246593,106.988333 62.7958462,106.922889 C65.9777802,106.747667 69.1597143,106.564 72.3437473,106.454222 C76.0315165,106.329667 79.7276813,106.369778 83.4112527,106.184 C101.155363,105.286778 118.899473,104.338889 136.641484,103.407889 C137.481044,103.363556 138.316407,103.277 139.153868,103.239 C142.839538,103.076444 146.527308,102.778778 150.210879,102.799889 C159.429253,102.850556 168.645527,103.065889 177.861802,103.173556 C179.81378,103.196778 181.900088,103.739333 183.875154,101.843556 C183.755516,100.245444 183.616989,98.4277778 183.482659,96.608 C183.297956,94.0957778 182.779527,91.554 183.002011,89.0797778 C183.472165,83.8146667 182.848791,78.6065556 182.179242,73.4681111 C181.339681,67.0334444 181.495,60.7127778 182.156154,54.3097778 C182.918055,46.9377778 184.059857,39.5531111 183.216099,32.1093333 C182.439505,25.2482222 183.245484,18.385 183.100659,11.5196667 C183.050286,9.09822222 182.764835,6.93222222 181.969352,4.68177778 L181.969352,4.68177778 Z" id="Fill-1" fill="#000000"></path>
                    <path d="M181.969352,4.68177778 C182.764835,6.93222222 183.050286,9.09822222 183.100659,11.5196667 C183.245484,18.385 182.439505,25.2482222 183.216099,32.1093333 C184.059857,39.5531111 182.918055,46.9377778 182.156154,54.3097778 C181.495,60.7127778 181.339681,67.0334444 182.179242,73.4681111 C182.848791,78.6065556 183.472165,83.8146667 183.002011,89.0797778 C182.779527,91.554 183.297956,94.0957778 183.482659,96.608 C183.616989,98.4277778 183.755516,100.245444 183.875154,101.843556 C181.900088,103.739333 179.81378,103.196778 177.861802,103.173556 C168.645527,103.065889 159.429253,102.850556 150.210879,102.799889 C146.527308,102.778778 142.839538,103.076444 139.153868,103.239 C138.316407,103.277 137.481044,103.363556 136.641484,103.407889 C118.899473,104.338889 101.155363,105.286778 83.4112527,106.184 C79.7276813,106.369778 76.0315165,106.329667 72.3437473,106.454222 C69.1597143,106.564 65.9777802,106.747667 62.7958462,106.922889 C61.6246593,106.988333 60.4366813,107.313444 59.2906813,107.193111 C53.3906703,106.568222 47.604,107.739889 41.7711538,108.174778 C36.0936264,108.597 30.414,109.029778 24.7301758,109.348556 C23.0762418,109.441444 21.4013187,109.181778 19.7410879,109.038222 C17.7387363,108.865111 15.7405824,108.647667 13.7424286,108.436556 C12.7475495,108.331 11.7211868,108.314111 10.7640879,108.054444 C7.8780989,107.273333 6.55579121,105.715333 6.37108791,102.645778 C6.1507033,98.9428889 6.27453846,95.2167778 5.95550549,91.5265556 C5.05507692,81.0934444 5.11594505,70.6371111 4.91025275,60.1828889 C4.65628571,47.1974444 4.27848352,34.212 3.97204396,21.2265556 C3.95525275,20.5763333 4.11057143,19.9197778 4.19242857,19.2315556 C7.05742857,17.5553333 10.0567582,16.5736667 13.2281978,16.1598889 C20.2112418,15.2478889 27.2215714,14.5174444 34.1878242,13.4872222 C41.4815055,12.4063333 48.8171648,11.6505556 56.1192418,10.6351111 C63.7382527,9.57322222 71.4978901,9.512 79.2008571,9.10666667 C86.8912308,8.70344444 94.5858022,8.41844444 102.278275,8.07011111 C109.14378,7.75555556 116.011385,7.47477778 122.872692,7.08211111 C127.21322,6.83511111 131.539055,6.23344444 135.881681,6.10888889 C141.424879,5.94844444 146.884121,5.16522222 152.370648,4.50444444 C155.684813,4.10544444 159.051451,4.08222222 162.397099,4.02311111 C166.752319,3.94711111 171.109637,4.06533333 175.462758,3.97666667 C177.647714,3.93233333 179.801187,3.81833333 181.969352,4.68177778 L181.969352,4.68177778 Z M108.440648,34.0832222 C106.249396,30.7603333 106.457187,26.6162222 104.57867,23.4664444 C102.855473,23.4052222 102.188022,24.1652222 102.064187,25.5627778 C101.86689,27.7857778 102.005418,30.1058889 100.225549,32.5653333 C99.4468571,29.6266667 98.8360769,27.2136667 98.1623297,24.8154444 C97.8013187,23.5318889 97.4004286,22.2504444 96.8715055,21.0302222 C96.732978,20.7093333 96.0256484,20.4264444 95.6373516,20.4876667 C95.2238681,20.5531111 94.673956,20.9858889 94.5522198,21.3743333 C94.3675165,21.9633333 94.357022,22.6958889 94.5207363,23.2975556 C95.7611868,27.8258889 97.0478132,32.3436667 98.368022,36.8487778 C98.4960549,37.29 98.9473187,37.6362222 99.2831429,38.0711111 C102.813495,37.9444444 102.064187,33.775 104.29322,32.6012222 C105.206242,34.2816667 105.966044,35.9557778 106.977714,37.4588889 C108.010374,38.9915556 109.662209,38.7297778 110.505967,37.0113333 C110.797714,36.416 111.057978,35.7763333 111.179714,35.1282222 C112.033967,30.5154444 112.848341,25.8942222 113.666912,21.2751111 C113.696297,21.1188889 113.681604,20.8951111 113.589253,20.7853333 C113.27022,20.4158889 112.955385,19.8838889 112.552396,19.791 C112.164099,19.7023333 111.502945,19.9577778 111.261571,20.285 C110.887967,20.7958889 110.638198,21.4798889 110.564736,22.1195556 C110.314967,24.2834444 110.184835,26.46 109.974945,28.6281111 C109.798637,30.4457778 109.73567,32.3035556 108.440648,34.0832222 L108.440648,34.0832222 Z M93.485978,56.9296667 C92.7744505,54.694 92.3630659,53.0768889 91.7124066,51.5632222 C91.5193077,51.1177778 90.6650549,50.8201111 90.0752637,50.742 C89.6995604,50.6913333 89.2147143,51.1241111 88.8558022,51.4302222 C88.6165275,51.635 88.4633077,51.9812222 88.3583626,52.2936667 C87.3550879,55.3146667 86.3203297,58.3251111 85.3947143,61.3693333 C84.8112198,63.2862222 84.3746484,65.2516667 83.9317802,67.2065556 C83.8814066,67.4366667 84.2088352,67.7533333 84.3893407,68.0784444 C86.5596044,68.3486667 87.269033,66.854 87.7077033,65.1545556 C88.1673626,63.3706667 88.4381209,61.5361111 88.9418571,59.767 C89.1328571,59.1041111 89.7457363,58.5636667 90.4656593,57.544 C90.6755495,59.1294444 90.686044,60.1491111 90.961,61.0927778 C91.4878242,62.9125556 93.0137253,63.2207778 94.3822088,61.9076667 C95.0412637,61.2785556 95.0496593,59.8641111 96.3761648,60.0984444 C96.9617582,61.8781111 97.4822857,63.6387778 98.1497363,65.3403333 C98.2714725,65.6506667 99.0165824,65.8913333 99.4426593,65.8512222 C99.8603407,65.809 100.391363,65.4564444 100.607549,65.0848889 C101.235121,63.9997778 101.060912,62.8766667 100.649527,61.7007778 C100.045044,59.9781111 99.6000769,58.1984444 99.1068352,56.4377778 C98.7626154,55.2091111 99.663044,53.3787778 98.177022,52.8045556 C96.3069011,52.0846667 95.8262527,54.1408889 94.9111319,55.2175556 C94.5920989,55.5933333 94.2814615,55.9754444 93.485978,56.9296667 L93.485978,56.9296667 Z M153.871363,20.684 C152.933154,20.627 152.101989,20.3694444 151.455527,20.6122222 C151.05044,20.7663333 150.72511,21.6656667 150.712516,22.2398889 C150.68733,23.4052222 150.964385,24.5726667 150.995868,25.7422222 C151.075626,28.5858889 150.401879,31.1762222 149.106857,33.262 C147.180066,32.7025556 146.829549,30.9313333 146.439154,29.3923333 C145.698242,26.4705556 145.251176,23.4727778 144.548044,20.5404444 C144.390626,19.886 143.685396,19.3645556 142.98856,18.4694444 C142.258143,19.7445556 141.65156,20.5404444 141.315736,21.4397778 C139.575747,26.0926667 140.423703,31.0601111 139.739462,35.8502222 C139.682791,36.2534444 140.484571,37.0852222 140.986209,37.176 C141.439571,37.2583333 142.392473,36.6798889 142.489022,36.2513333 C142.919297,34.3091111 143.124989,32.3162222 143.458714,30.0108889 C144.331857,31.6892222 144.944736,33.1838889 145.836769,34.4843333 C146.743495,35.8122222 148.151857,36.3252222 149.793198,36.0085556 C151.264527,35.7256667 152.154462,34.8178889 152.544857,33.4118889 C152.813516,32.4471111 153.113659,31.4675556 153.197615,30.4774444 C153.464176,27.3318889 153.638385,24.18 153.871363,20.684 L153.871363,20.684 Z M66.5318901,83.0272222 C66.7102967,86.9982222 67.8458022,90.8636667 68.6643736,94.7354444 C69.2394725,97.4461111 71.2565165,98.4298889 74.0795385,98.0055556 C76.0441099,97.7078889 77.9897912,97.1442222 79.8746044,96.4961111 C80.4539011,96.2955556 80.8023187,95.4236667 81.5243407,94.5264444 C78.6446484,94.5264444 76.3148681,94.6045556 73.9976813,94.48 C73.281956,94.442 72.4423956,94.0007778 71.9491538,93.4708889 C71.5986374,93.093 71.7350659,92.2591111 71.6762967,91.7967778 C73.6786484,89.8777778 76.8123077,90.6061111 78.5648901,87.8785556 C77.5091429,87.412 76.6905714,86.7638889 75.8573077,86.747 C74.3838791,86.7153333 72.9020549,87.184 71.4244286,87.1903333 C70.9878571,87.1903333 70.3938681,86.4071111 70.1713846,85.8582222 C70.0433516,85.5478889 70.4022637,84.8322222 70.7464835,84.5704444 C71.4034396,84.0722222 72.1737363,83.6837778 72.9545275,83.4093333 C73.729022,83.1391111 74.6567363,83.2256667 75.3556703,82.8498889 C75.7985385,82.6113333 76.2581978,81.7288889 76.1385604,81.2918889 C76.0084286,80.8105556 75.257022,80.4474444 74.7113077,80.1561111 C74.4636374,80.0252222 74.0522527,80.154 73.7311209,80.2278889 C71.2963956,80.7894444 68.8532747,81.3383333 66.5318901,83.0272222 L66.5318901,83.0272222 Z M103.554407,95.5651111 C106.008022,95.5651111 107.823571,95.7002222 109.611835,95.5355556 C113.515791,95.1787778 115.671363,92.6834444 115.197011,88.818 C114.915758,86.5295556 114.252505,84.2474444 113.459121,82.073 C112.690923,79.9618889 110.906857,79.0435556 108.671527,79.3095556 C107.030187,79.5058889 105.374154,79.7465556 103.793681,80.211 C103.111538,80.4115556 102.347538,81.1208889 102.083077,81.7858889 C101.734659,82.662 101.684286,83.7344444 101.782934,84.695 C102.070484,87.5154444 102.473473,90.3232222 102.884857,93.1288889 C103.000297,93.9163333 103.304637,94.6763333 103.554407,95.5651111 L103.554407,95.5651111 Z M49.4951099,63.0265556 C51.0231099,59.729 50.7691429,56.3575556 48.9703846,52.7897778 C47.9734066,53.1317778 46.9743297,53.2774444 46.2229231,53.7883333 C45.5701648,54.2337778 45.2616264,55.1605556 44.6802308,55.7537778 C44.0043846,56.4377778 43.1963077,56.9908889 42.5330549,57.5292222 C42.7198571,61.61 42.891967,65.4754444 43.0892637,69.3387778 C43.1060549,69.6617778 43.2047033,70.0523333 43.4103956,70.2782222 C43.7147363,70.6138889 44.145011,71.0297778 44.5291099,71.0403333 C44.93,71.0487778 45.6058462,70.6941111 45.7023956,70.3626667 C46.1221758,68.9397778 46.374044,67.4662222 46.7749341,65.6063333 C49.3104066,67.6393333 51.6066044,69.4781111 53.8755165,71.2978889 C55.7519341,69.3071111 55.8820659,68.5555556 54.3057912,67.6055556 C52.4083846,66.4592222 50.7145714,65.1904444 49.4951099,63.0265556 L49.4951099,63.0265556 Z M58.341978,80.3081111 C56.7531099,80.8253333 56.3732088,81.8471111 56.5851978,83.1433333 C56.8811429,84.9504444 57.2631429,86.7427778 57.5443956,88.552 C57.5842747,88.8074444 57.2673407,89.1177778 57.0196703,89.5843333 C55.8149011,89.3605556 54.5492637,89.1241111 53.2689341,88.8855556 C52.844956,87.2431111 52.5679011,85.7568889 52.0368791,84.3677778 C51.8668681,83.9202222 50.9748352,83.4283333 50.5067802,83.5106667 C50.0744066,83.5866667 49.3817692,84.4902222 49.4699231,84.8744444 C50.3367692,88.6892222 50.1121868,92.5398889 50.0639121,96.3884444 C50.0618132,96.5573333 50.0072418,96.7811111 50.0911978,96.8845556 C50.4878901,97.3722222 50.9706374,98.2441111 51.340044,98.204 C52.059967,98.1258889 52.8092747,97.6234444 53.3738791,97.1062222 C53.6215495,96.8782222 53.5124066,96.171 53.4389451,95.7002222 C53.3172088,94.9148889 52.7526044,94.1211111 53.7453846,93.2935556 C55.244,93.0718889 56.8643516,92.7256667 58.3797582,93.6672222 C59.043011,96.7663333 59.043011,96.7663333 61.3748901,97.4397778 C61.5428022,96.9837778 61.9101099,96.4918889 61.8492418,96.0612222 C61.1880879,91.421 60.5059451,86.7807778 59.6978681,82.1637778 C59.5761319,81.465 58.7806484,80.8844444 58.341978,80.3081111 L58.341978,80.3081111 Z M123.588418,88.3831111 C125.124813,89.4407778 126.361066,90.262 127.561637,91.1296667 C128.376011,91.7186667 129.108527,92.4237778 129.939692,92.9874444 C130.886297,93.6292222 131.952538,93.0676667 132.187615,91.9128889 C132.454176,90.6018889 132.086868,89.6751111 130.875802,88.9784444 C129.307923,88.0748889 127.828198,87.0172222 126.054626,85.8582222 C127.65189,84.087 128.739121,82.4762222 128.325637,80.2637778 C127.798813,77.4243333 125.026165,75.9676667 122.667,77.5573333 C121.751879,78.1716667 121.111714,79.261 120.494637,80.23 C120.301538,80.5318889 120.444264,81.2813333 120.706626,81.5726667 C120.941703,81.8302222 121.657429,81.9336667 121.986956,81.7626667 C122.851703,81.313 123.580022,80.591 124.455264,80.1687778 C124.721824,80.0421111 125.347297,80.4706667 125.689418,80.781 C125.865725,80.9414444 125.930791,81.5663333 125.792264,81.6887778 C124.812077,82.5522222 123.83189,83.4473333 122.72367,84.1165556 C121.854725,84.638 121.262835,83.6183333 120.532418,83.365 C119.902747,83.1454444 119.096769,83.4325556 118.324374,83.5001111 C118.834407,85.9637778 119.229,88.0981111 119.741132,90.2028889 C119.932132,90.9924444 120.345615,91.7418889 120.744407,92.4617778 C121.036154,92.9874444 122.259813,92.9473333 122.476,92.3688889 C122.872692,91.3006667 123.103571,90.1691111 123.588418,88.3831111 L123.588418,88.3831111 Z M117.768165,66.7611111 C116.781681,62.2116667 115.849769,58.1688889 115.043791,54.1007778 C114.657593,52.1501111 114.502275,50.1572222 112.611165,48.9412222 C109.890989,51.9178889 105.485396,60.166 104.110615,64.7534444 C105.888385,66.1066667 106.515956,66.1404444 107.193901,64.7998889 C107.714429,63.7717778 108.096429,62.6718889 108.631648,61.3841111 C110.239407,61.2912222 111.840868,61.1983333 113.301703,61.1117778 C114.680681,63.339 113.467516,66.2291111 116.05756,67.7744444 C116.580187,67.4662222 117.121703,67.1432222 117.768165,66.7611111 L117.768165,66.7611111 Z M74.2453516,24.9737778 C75.9034835,24.5557778 77.5154396,24.2496667 79.035044,23.6944444 C79.4212418,23.553 79.6584176,22.622 79.6857033,22.0393333 C79.6982967,21.7902222 79.0245495,21.3384444 78.6173626,21.2793333 C77.9771978,21.1843333 77.2761648,21.2476667 76.6401978,21.406 C73.3994945,22.223 70.1587912,23.0442222 66.9537692,23.9878889 C66.471022,24.1314444 65.8917253,24.9294444 65.8917253,25.4255556 C65.8917253,25.8435556 66.6221429,26.5444444 67.1090879,26.6225556 C68.2194066,26.8041111 69.3800989,26.6816667 70.8892088,26.6816667 C71.6804945,30.2473333 71.9932308,33.6673333 71.6196264,37.1316667 C70.8535275,37.4483333 70.183978,37.6045556 69.6718462,37.9782222 C69.3192308,38.2357778 68.9057473,38.905 69.016989,39.1963333 C69.2226813,39.7346667 69.7641978,40.4862222 70.2196593,40.5263333 C73.5653077,40.824 76.9130549,40.7944444 80.1096813,39.5467778 C80.8254066,39.2681111 81.5894066,38.829 80.966033,37.4462222 C79.7591648,37.4462222 78.4116703,37.5961111 77.1208462,37.3892222 C76.4135165,37.2752222 75.3115934,36.6418889 75.2255385,36.1077778 C74.6546374,32.5146667 73.538022,28.9405556 74.2453516,24.9737778 L74.2453516,24.9737778 Z M25.0995824,41.2103333 C26.9843956,40.5727778 27.6917253,39.7895556 27.1690989,38.3877778 C26.4134945,36.3695556 25.6767802,34.3703333 25.1436593,32.255 C24.5391758,29.8588889 23.2336593,27.6422222 22.2177912,25.3558889 C21.8693736,24.5684444 21.3887253,23.8295556 20.4043407,23.9562222 C19.2898242,24.1018889 18.721022,24.8787778 18.4859451,25.9596667 C18.0976484,27.752 17.7681209,29.5654444 17.2370989,31.3155556 C16.4584066,33.8721111 15.4635275,36.3611111 14.6806374,38.9155556 C14.2692527,40.254 14.9513956,41.0372222 16.4416154,41.4657778 C17.3105604,39.836 18.0787582,38.3962222 18.9309121,36.796 C20.0958022,36.5131111 21.3446484,36.2133333 22.7656044,35.8692222 C23.558989,37.6868889 24.2768132,39.3272222 25.0995824,41.2103333 L25.0995824,41.2103333 Z M134.517396,78.8725556 C133.996868,81.2538889 133.545604,83.1813333 133.169901,85.1235556 C133.043967,85.7716667 133.067055,86.462 133.109033,87.127 C133.367198,91.2225556 136.654077,93.4751111 140.434198,92.067 C141.502538,91.668 142.583473,91.0621111 143.404143,90.281 C145.379209,88.4021111 146.619659,86.0123333 147.255626,83.3692222 C147.788747,81.1462222 146.623857,79.5185556 144.285681,78.9844444 C141.168813,78.2708889 138.054044,78.7923333 134.517396,78.8725556 L134.517396,78.8725556 Z M27.8974176,64.0187778 C28.250033,65.9968889 28.3696703,68.2346667 29.0728022,70.2718889 C30.1873187,73.4955556 33.1152857,74.2745556 35.9613956,72.3787778 C36.376978,72.1022222 36.7841648,71.7897778 37.1262857,71.4266667 C39.9619011,68.4141111 40.2305604,63.1764444 37.7412637,59.7881111 C36.6372418,58.285 32.6997033,56.7185556 31.1003407,57.297 C29.2763956,57.9535556 28.948967,59.7501111 28.4536264,61.344 C28.205956,62.1377778 28.1073077,62.9801111 27.8974176,64.0187778 L27.8974176,64.0187778 Z M152.708571,87.8363333 C154.668945,86.9032222 156.371154,86.2065556 157.962121,85.3093333 C159.98756,84.1672222 161.257396,82.3938889 161.148253,79.983 C161.034912,77.475 159.240352,76.1576667 157.210714,75.2034444 C155.934582,74.6017778 154.610176,74.587 153.514549,75.7375556 C152.242615,77.0738889 150.865736,78.3278889 149.723934,79.7697778 C149.150934,80.4938889 148.695473,81.5536667 148.701769,82.4593333 C148.726956,85.6513333 149.316747,88.7863333 150.53411,91.744 C150.695725,92.1366667 151.719989,92.4575556 152.23422,92.3372222 C152.740055,92.219 153.457879,91.4991111 153.459978,91.0388889 C153.466275,90.1036667 153.050692,89.1663333 152.708571,87.8363333 L152.708571,87.8363333 Z M150.20878,55.3611111 C150.567692,57.2843333 150.928703,59.0808889 151.228846,60.888 C151.466022,62.3214444 151.224648,63.5078889 149.696648,64.2256667 C149.377615,64.3734444 149.190813,65.4986667 149.409099,65.9335556 C149.644176,66.398 150.492132,66.9131111 150.970681,66.8286667 C153.925934,66.3114444 156.900077,65.7794444 159.517407,64.1665556 C159.737791,64.0335556 159.77767,63.605 159.863725,63.4023333 C158.812176,61.0442222 156.333374,63.0476667 154.715121,61.4495556 C153.932231,59.1885556 153.327747,56.6341111 153.604802,54.1514444 C155.151692,52.5132222 156.981934,53.2035556 158.549813,52.7686667 C158.91922,52.6673333 159.343198,52.0804444 159.389374,51.6751111 C159.435549,51.2845556 159.043055,50.8306667 158.805879,50.4274444 C158.730319,50.2986667 158.543516,50.1741111 158.396593,50.1593333 C154.295341,49.7307778 150.532011,51.1325556 146.764484,52.4287778 C146.48533,52.5258889 146.246055,53.307 146.315319,53.7102222 C146.38878,54.1197778 146.804363,54.6602222 147.184264,54.7826667 C148.103582,55.0782222 149.087967,55.1626667 150.20878,55.3611111 L150.20878,55.3611111 Z M71.9155714,60.9407778 C71.5020879,61.8781111 70.9983516,63.0898889 70.440044,64.2763333 C69.7977802,65.6401111 69.0526703,66.9553333 68.485967,68.3465556 C68.3537363,68.6737778 68.6517802,69.4886667 68.9456264,69.6132222 C69.4829451,69.837 70.2721319,69.9277778 70.756978,69.6786667 C71.2796044,69.4084444 71.6427143,68.7265556 71.9575495,68.1586667 C72.7299451,66.7632222 73.430978,65.3318889 74.3419011,63.567 C75.8384176,65.2875556 76.9928132,66.6893333 78.2332637,68.0066667 C78.8314505,68.6421111 79.7045934,68.9967778 80.4643956,68.3761111 C80.9177582,68.0066667 81.0898681,67.2931111 81.4214945,66.6724444 C79.2869121,64.5423333 77.3328352,62.5008889 76.000033,60.0646667 C76.6905714,58.3673333 77.4020989,56.8536667 77.9037363,55.2724444 C78.1577033,54.4744444 77.9331209,53.3935556 76.9613297,53.2858889 C76.2812857,53.2098889 75.2885055,53.6426667 74.8624286,54.1873333 C74.323011,54.8755556 74.2138681,55.9057778 73.833967,57.0478889 C72.3899231,56.2182222 71.329978,55.4117778 70.1357033,54.9958889 C69.4892418,54.77 68.3285495,54.9473333 67.9108681,55.4096667 C67.3252747,56.062 67.7891319,57.012 68.5153516,57.5461111 C69.7159231,58.4285556 71.1620659,59.0217778 71.9155714,60.9407778 L71.9155714,60.9407778 Z M17.808,62.6402222 C17.6337912,62.0026667 17.4113077,61.5361111 17.3924176,61.0632222 C17.3378462,59.5896667 16.682989,57.9493333 17.8457802,56.7164444 C19.2583407,55.2196667 20.8681978,56.0577778 22.4423736,56.6362222 C22.7278242,56.7396667 23.305022,56.3026667 23.6114615,55.9838889 C23.7730769,55.815 23.770978,55.2534444 23.6135604,55.055 C23.1119231,54.4322222 22.5913956,53.573 21.9197473,53.3872222 C19.0841319,52.604 16.3282747,52.5512222 14.2881429,55.359 C14.5547033,61.3777778 14.8212637,67.3838889 15.092022,73.39 C15.0983187,73.5546667 15.0983187,73.7953333 15.1990659,73.8692222 C15.5558791,74.1331111 15.9336813,74.435 16.3471648,74.53 C16.5507582,74.5785556 17.044,74.2344444 17.0775824,74.0191111 C17.426,71.737 17.7072527,69.4443333 18.0451758,66.8624444 C19.9257912,66.5521111 21.7014615,66.3093333 23.4477473,65.9272222 C23.7961648,65.8512222 24.2432308,65.2643333 24.2621209,64.8906667 C24.2831099,64.517 23.8864176,63.8541111 23.5631868,63.776 C21.8001099,63.3453333 20.0034505,63.0561111 17.808,62.6402222 L17.808,62.6402222 Z M124.516132,20.152 C123.674473,21.1737778 122.633418,21.8535556 122.541066,22.6452222 C122.064615,26.7175556 120.288945,30.3528889 119.014912,34.155 C118.748352,34.9466667 118.347462,35.7446667 118.324374,36.549 C118.309681,37.0767778 118.756747,37.9106667 119.193319,38.0732222 C119.611,38.2294444 120.580692,37.8452222 120.788484,37.4335556 C121.451736,36.1077778 121.875714,34.6616667 122.436121,33.1437778 C123.65978,33.015 124.778495,32.8946667 125.955978,32.7701111 C126.438725,33.889 126.728374,34.8664444 127.265692,35.6771111 C127.565835,36.1331111 128.313044,36.6165556 128.795791,36.5595556 C129.740297,36.4434444 130.111802,35.5525556 130.00056,34.6637778 C129.838945,33.3527778 129.885121,31.8053333 129.19878,30.8088889 C127.504967,28.3557778 127.267791,25.4762222 126.296,22.8246667 C125.979066,21.9612222 125.263341,21.2455556 124.516132,20.152 L124.516132,20.152 Z M131.289286,51.198 C130.565165,50.7208889 130.011055,50.0411111 129.526209,50.0875556 C126.910978,50.3366667 124.763802,51.5378889 123.441495,53.8917778 C122.427725,55.6967778 123.03011,57.7171111 124.912824,58.5383333 C126.587747,59.2666667 128.428484,59.6107778 130.122297,60.3032222 C131.327066,60.7972222 132.477264,61.5044444 133.501527,62.3087778 C133.768088,62.5198889 133.703022,63.7633333 133.392385,63.9913333 C132.626286,64.5571111 131.637703,65.1017778 130.72678,65.1207778 C129.454846,65.1503333 128.176615,64.574 126.88789,64.5022222 C126.382055,64.4747778 125.628549,64.9962222 125.361989,65.4775556 C124.92122,66.2671111 125.194077,67.1263333 126.023143,67.6203333 C126.440824,67.8694444 126.938264,68.0488889 127.418912,68.1143333 C129.996363,68.4647778 132.422692,67.8673333 134.637033,66.5901111 C137.174604,65.1271111 137.346714,61.5551111 134.90989,59.8577778 C133.562396,58.9204444 131.979824,58.2807778 130.439231,57.6748889 C128.91333,57.0753333 127.21322,56.8431111 126.289703,55.3041111 C126.778747,52.7158889 129.637451,53.3302222 131.289286,51.198 L131.289286,51.198 Z M166.485758,21.3257778 C167.812264,21.3257778 168.941473,21.4017778 170.055989,21.3025556 C171.071857,21.2117778 171.924011,20.0063333 171.663747,19.1534444 C171.395088,18.2731111 170.803198,17.7453333 169.833505,17.7601111 C169.667692,17.7643333 169.501879,17.7938889 169.338165,17.8107778 C166.680956,18.1 164.023747,18.366 161.372835,18.6911111 C160.390549,18.8114444 159.359989,18.9254444 158.482648,19.3286667 C158.033484,19.5334444 157.703956,20.3504444 157.636791,20.9288889 C157.599011,21.273 158.109044,21.9168889 158.486846,22.0266667 C159.427154,22.3011111 160.434626,22.3496667 161.38333,22.4826667 C162.837868,24.864 163.520011,27.3825556 163.391978,30.1544444 C163.347901,31.1276667 163.536802,32.1557778 163.828549,33.0931111 C164.258824,34.4758889 165.451,35.0986667 166.515143,34.6363333 C167.715714,34.1127778 167.656945,33.0635556 167.34211,32.0903333 C166.235989,28.6555556 166.479462,25.1511111 166.485758,21.3257778 L166.485758,21.3257778 Z M37.5292747,87.4964444 C38.9439341,90.3042222 38.5388462,92.8058889 38.415011,95.297 C38.3583407,96.437 38.4443956,97.6002222 38.6374945,98.7233333 C38.6962637,99.0568889 39.3301319,99.4833333 39.7226264,99.5086667 C40.1214176,99.5361111 40.8140549,99.2067778 40.919,98.8837778 C41.2674176,97.8071111 41.5696593,96.6671111 41.6011429,95.544 C41.6809011,92.7298889 41.4185385,89.9031111 41.7102857,86.9222222 C42.7198571,86.6984444 43.5552198,86.633 44.2793407,86.31 C44.7788791,86.0883333 45.2133516,85.5605556 45.4736154,85.0623333 C45.5491758,84.9208889 44.9698791,84.2052222 44.589978,84.087 C40.7615824,82.89 37.0423297,84.2115556 33.299989,84.7456667 C32.9725604,84.7921111 32.515,85.8645556 32.6031538,86.3775556 C32.6892088,86.8926667 33.341967,87.64 33.8142198,87.6948889 C34.9308352,87.8215556 36.0852308,87.5998889 37.5292747,87.4964444 L37.5292747,87.4964444 Z M56.2220879,36.8783333 C53.7285934,36.6946667 51.2980659,36.5152222 48.7143187,36.3252222 C48.5694945,34.1866667 48.4603516,32.369 48.3218242,30.5534444 C48.2063846,29.0524444 48.156011,27.5366667 47.8831538,26.0652222 C47.7404286,25.2925556 47.3185495,24.4523333 46.7602418,23.9224444 C46.4034286,23.5825556 45.523989,23.6015556 44.9677802,23.762 C44.6739341,23.8464444 44.2877363,24.7141111 44.4220659,25.0054444 C46.1011868,28.6724444 45.4757143,32.559 45.5932527,36.3737778 C45.6247363,37.3638889 45.5974505,38.3582222 45.5974505,39.4285556 C46.3362637,39.7431111 46.9365495,40.2244444 47.5284396,40.216 C50.1814505,40.1801111 52.8470549,40.1378889 55.4748791,39.8191111 C56.6565604,39.6755556 56.8223736,38.5207778 56.2220879,36.8783333 L56.2220879,36.8783333 Z M168.58256,61.6247778 C168.133396,61.7007778 167.510022,61.7746667 166.90344,61.9161111 C166.105857,62.104 165.232714,62.199 164.556868,62.6106667 C164.093011,62.8956667 163.610264,63.6936667 163.685824,64.175 C163.765582,64.6711111 164.437231,65.2263333 164.976648,65.4648889 C166.531934,66.1488889 167.921407,65.2537778 169.268901,64.6837778 C171.460154,63.757 172.431945,61.6184444 171.709923,59.3236667 C171.365703,58.2322222 170.771714,57.1808889 170.11056,56.2435556 C169.539659,55.435 168.632934,54.8755556 168.024253,54.0881111 C167.646451,53.6025556 167.283341,52.8383333 167.400879,52.3084444 C167.507923,51.825 168.322297,51.5336667 168.725286,51.0713333 C169.008637,50.7483333 169.325571,50.2395556 169.260505,49.8806667 C169.184945,49.4753333 168.765165,48.9517778 168.381066,48.8187778 C166.808989,48.2804444 165.056407,49.1354444 163.771879,51.008 C162.997385,52.1395556 163.253451,53.3048889 164.063626,54.257 C165.245308,55.6461111 166.557121,56.9254444 167.814363,58.2491111 C168.645527,59.1273333 169.350758,60.0393333 168.58256,61.6247778 L168.58256,61.6247778 Z M36.0663407,36.3991111 C36.0663407,34.2521111 36.1628901,32.4407778 36.0390549,30.6442222 C35.911022,28.8223333 35.6150769,27.0025556 35.2582637,25.2102222 C35.1994945,24.9125556 34.3746264,24.4966667 34.0367033,24.5937778 C33.490989,24.7542222 32.9977473,25.2461111 32.5926593,25.6957778 C32.4121538,25.8963333 32.4058571,26.3607778 32.4772198,26.6668889 C33.2936923,30.1671111 33.1635604,33.6631111 32.5212967,37.1654444 C32.4604286,37.4884444 32.5296923,37.8367778 32.5632747,38.1703333 C32.664022,39.1604444 33.6253187,40.2645556 34.5194505,40.083 C36.6225495,39.6565556 38.7235495,39.1266667 40.7321978,38.3835556 C41.1204945,38.2378889 41.3051978,36.891 41.1624725,36.1858889 C41.0869121,35.8143333 40.0668462,35.3583333 39.5295275,35.4195556 C38.4443956,35.5462222 37.397044,36.0001111 36.0663407,36.3991111 L36.0663407,36.3991111 Z" id="Fill-2" fill="#FFFFFF"></path>
                    <rect id="Rectangle-8" fill="#FFFFFF" x="24.5" y="51.5" width="141" height="43"></rect>
                    <path d="M108.440648,34.0832222 C109.73567,32.3035556 109.798637,30.4457778 109.974945,28.6281111 C110.184835,26.46 110.314967,24.2834444 110.564736,22.1195556 C110.638198,21.4798889 110.887967,20.7958889 111.261571,20.285 C111.502945,19.9577778 112.164099,19.7023333 112.552396,19.791 C112.955385,19.8838889 113.27022,20.4158889 113.589253,20.7853333 C113.681604,20.8951111 113.696297,21.1188889 113.666912,21.2751111 C112.848341,25.8942222 112.033967,30.5154444 111.179714,35.1282222 C111.057978,35.7763333 110.797714,36.416 110.505967,37.0113333 C109.662209,38.7297778 108.010374,38.9915556 106.977714,37.4588889 C105.966044,35.9557778 105.206242,34.2816667 104.29322,32.6012222 C102.064187,33.775 102.813495,37.9444444 99.2831429,38.0711111 C98.9473187,37.6362222 98.4960549,37.29 98.368022,36.8487778 C97.0478132,32.3436667 95.7611868,27.8258889 94.5207363,23.2975556 C94.357022,22.6958889 94.3675165,21.9633333 94.5522198,21.3743333 C94.673956,20.9858889 95.2238681,20.5531111 95.6373516,20.4876667 C96.0256484,20.4264444 96.732978,20.7093333 96.8715055,21.0302222 C97.4004286,22.2504444 97.8013187,23.5318889 98.1623297,24.8154444 C98.8360769,27.2136667 99.4468571,29.6266667 100.225549,32.5653333 C102.005418,30.1058889 101.86689,27.7857778 102.064187,25.5627778 C102.188022,24.1652222 102.855473,23.4052222 104.57867,23.4664444 C106.457187,26.6162222 106.249396,30.7603333 108.440648,34.0832222" id="Fill-3" fill="#000000"></path>
                    <path d="M93.485978,56.9296667 C94.2814615,55.9754444 94.5920989,55.5933333 94.9111319,55.2175556 C95.8262527,54.1408889 96.3069011,52.0846667 98.177022,52.8045556 C99.663044,53.3787778 98.7626154,55.2091111 99.1068352,56.4377778 C99.6000769,58.1984444 100.045044,59.9781111 100.649527,61.7007778 C101.060912,62.8766667 101.235121,63.9997778 100.607549,65.0848889 C100.391363,65.4564444 99.8603407,65.809 99.4426593,65.8512222 C99.0165824,65.8913333 98.2714725,65.6506667 98.1497363,65.3403333 C97.4822857,63.6387778 96.9617582,61.8781111 96.3761648,60.0984444 C95.0496593,59.8641111 95.0412637,61.2785556 94.3822088,61.9076667 C93.0137253,63.2207778 91.4878242,62.9125556 90.961,61.0927778 C90.686044,60.1491111 90.6755495,59.1294444 90.4656593,57.544 C89.7457363,58.5636667 89.1328571,59.1041111 88.9418571,59.767 C88.4381209,61.5361111 88.1673626,63.3706667 87.7077033,65.1545556 C87.269033,66.854 86.5596044,68.3486667 84.3893407,68.0784444 C84.2088352,67.7533333 83.8814066,67.4366667 83.9317802,67.2065556 C84.3746484,65.2516667 84.8112198,63.2862222 85.3947143,61.3693333 C86.3203297,58.3251111 87.3550879,55.3146667 88.3583626,52.2936667 C88.4633077,51.9812222 88.6165275,51.635 88.8558022,51.4302222 C89.2147143,51.1241111 89.6995604,50.6913333 90.0752637,50.742 C90.6650549,50.8201111 91.5193077,51.1177778 91.7124066,51.5632222 C92.3630659,53.0768889 92.7744505,54.694 93.485978,56.9296667" id="Fill-4" fill="#000000"></path>
                    <path d="M153.871363,20.684 C153.638385,24.18 153.464176,27.3318889 153.197615,30.4774444 C153.113659,31.4675556 152.813516,32.4471111 152.544857,33.4118889 C152.154462,34.8178889 151.264527,35.7256667 149.793198,36.0085556 C148.151857,36.3252222 146.743495,35.8122222 145.836769,34.4843333 C144.944736,33.1838889 144.331857,31.6892222 143.458714,30.0108889 C143.124989,32.3162222 142.919297,34.3091111 142.489022,36.2513333 C142.392473,36.6798889 141.439571,37.2583333 140.986209,37.176 C140.484571,37.0852222 139.682791,36.2534444 139.739462,35.8502222 C140.423703,31.0601111 139.575747,26.0926667 141.315736,21.4397778 C141.65156,20.5404444 142.258143,19.7445556 142.98856,18.4694444 C143.685396,19.3645556 144.390626,19.886 144.548044,20.5404444 C145.251176,23.4727778 145.698242,26.4705556 146.439154,29.3923333 C146.829549,30.9313333 147.180066,32.7025556 149.106857,33.262 C150.401879,31.1762222 151.075626,28.5858889 150.995868,25.7422222 C150.964385,24.5726667 150.68733,23.4052222 150.712516,22.2398889 C150.72511,21.6656667 151.05044,20.7663333 151.455527,20.6122222 C152.101989,20.3694444 152.933154,20.627 153.871363,20.684" id="Fill-5" fill="#000000"></path>
                    <path d="M66.5318901,83.0272222 C68.8532747,81.3383333 71.2963956,80.7894444 73.7311209,80.2278889 C74.0522527,80.154 74.4636374,80.0252222 74.7113077,80.1561111 C75.257022,80.4474444 76.0084286,80.8105556 76.1385604,81.2918889 C76.2581978,81.7288889 75.7985385,82.6113333 75.3556703,82.8498889 C74.6567363,83.2256667 73.729022,83.1391111 72.9545275,83.4093333 C72.1737363,83.6837778 71.4034396,84.0722222 70.7464835,84.5704444 C70.4022637,84.8322222 70.0433516,85.5478889 70.1713846,85.8582222 C70.3938681,86.4071111 70.9878571,87.1903333 71.4244286,87.1903333 C72.9020549,87.184 74.3838791,86.7153333 75.8573077,86.747 C76.6905714,86.7638889 77.5091429,87.412 78.5648901,87.8785556 C76.8123077,90.6061111 73.6786484,89.8777778 71.6762967,91.7967778 C71.7350659,92.2591111 71.5986374,93.093 71.9491538,93.4708889 C72.4423956,94.0007778 73.281956,94.442 73.9976813,94.48 C76.3148681,94.6045556 78.6446484,94.5264444 81.5243407,94.5264444 C80.8023187,95.4236667 80.4539011,96.2955556 79.8746044,96.4961111 C77.9897912,97.1442222 76.0441099,97.7078889 74.0795385,98.0055556 C71.2565165,98.4298889 69.2394725,97.4461111 68.6643736,94.7354444 C67.8458022,90.8636667 66.7102967,86.9982222 66.5318901,83.0272222" id="Fill-6" fill="#000000"></path>
                    <path d="M103.554407,95.5651111 C103.304637,94.6763333 103.000297,93.9163333 102.884857,93.1288889 C102.473473,90.3232222 102.070484,87.5154444 101.782934,84.695 C101.684286,83.7344444 101.734659,82.662 102.083077,81.7858889 C102.347538,81.1208889 103.111538,80.4115556 103.793681,80.211 C105.374154,79.7465556 107.030187,79.5058889 108.671527,79.3095556 C110.906857,79.0435556 112.690923,79.9618889 113.459121,82.073 C114.252505,84.2474444 114.915758,86.5295556 115.197011,88.818 C115.671363,92.6834444 113.515791,95.1787778 109.611835,95.5355556 C107.823571,95.7002222 106.008022,95.5651111 103.554407,95.5651111 L103.554407,95.5651111 Z M107.309341,92.2675556 C112.455846,92.3161111 113.247132,91.3956667 112.187187,86.88 C112.149407,86.7174444 112.122121,86.5527778 112.080143,86.3923333 C110.980319,82.1701111 109.874198,81.6254444 105.728868,83.2995556 C105.466505,83.4072222 105.30489,83.7682222 105.042527,84.0722222 C104.872516,86.9116667 105.397242,89.6202222 107.309341,92.2675556 L107.309341,92.2675556 Z" id="Fill-7" fill="#000000"></path>
                    <path d="M49.4951099,63.0265556 C50.7145714,65.1904444 52.4083846,66.4592222 54.3057912,67.6055556 C55.8820659,68.5555556 55.7519341,69.3071111 53.8755165,71.2978889 C51.6066044,69.4781111 49.3104066,67.6393333 46.7749341,65.6063333 C46.374044,67.4662222 46.1221758,68.9397778 45.7023956,70.3626667 C45.6058462,70.6941111 44.93,71.0487778 44.5291099,71.0403333 C44.145011,71.0297778 43.7147363,70.6138889 43.4103956,70.2782222 C43.2047033,70.0523333 43.1060549,69.6617778 43.0892637,69.3387778 C42.891967,65.4754444 42.7198571,61.61 42.5330549,57.5292222 C43.1963077,56.9908889 44.0043846,56.4377778 44.6802308,55.7537778 C45.2616264,55.1605556 45.5701648,54.2337778 46.2229231,53.7883333 C46.9743297,53.2774444 47.9734066,53.1317778 48.9703846,52.7897778 C50.7691429,56.3575556 51.0231099,59.729 49.4951099,63.0265556 L49.4951099,63.0265556 Z M47.3080549,58.2786667 C47.1611319,58.2723333 47.0121099,58.266 46.8651868,58.2617778 C46.8211099,58.9352222 46.777033,59.6086667 46.732956,60.2821111 C46.923956,60.2884444 47.1170549,60.2968889 47.3080549,60.3053333 L47.3080549,58.2786667 L47.3080549,58.2786667 Z" id="Fill-8" fill="#000000"></path>
                    <path d="M58.341978,80.3081111 C58.7806484,80.8844444 59.5761319,81.465 59.6978681,82.1637778 C60.5059451,86.7807778 61.1880879,91.421 61.8492418,96.0612222 C61.9101099,96.4918889 61.5428022,96.9837778 61.3748901,97.4397778 C59.043011,96.7663333 59.043011,96.7663333 58.3797582,93.6672222 C56.8643516,92.7256667 55.244,93.0718889 53.7453846,93.2935556 C52.7526044,94.1211111 53.3172088,94.9148889 53.4389451,95.7002222 C53.5124066,96.171 53.6215495,96.8782222 53.3738791,97.1062222 C52.8092747,97.6234444 52.059967,98.1258889 51.340044,98.204 C50.9706374,98.2441111 50.4878901,97.3722222 50.0911978,96.8845556 C50.0072418,96.7811111 50.0618132,96.5573333 50.0639121,96.3884444 C50.1121868,92.5398889 50.3367692,88.6892222 49.4699231,84.8744444 C49.3817692,84.4902222 50.0744066,83.5866667 50.5067802,83.5106667 C50.9748352,83.4283333 51.8668681,83.9202222 52.0368791,84.3677778 C52.5679011,85.7568889 52.844956,87.2431111 53.2689341,88.8855556 C54.5492637,89.1241111 55.8149011,89.3605556 57.0196703,89.5843333 C57.2673407,89.1177778 57.5842747,88.8074444 57.5443956,88.552 C57.2631429,86.7427778 56.8811429,84.9504444 56.5851978,83.1433333 C56.3732088,81.8471111 56.7531099,80.8253333 58.341978,80.3081111" id="Fill-9" fill="#000000"></path>
                    <path d="M123.588418,88.3831111 C123.103571,90.1691111 122.872692,91.3006667 122.476,92.3688889 C122.259813,92.9473333 121.036154,92.9874444 120.744407,92.4617778 C120.345615,91.7418889 119.932132,90.9924444 119.741132,90.2028889 C119.229,88.0981111 118.834407,85.9637778 118.324374,83.5001111 C119.096769,83.4325556 119.902747,83.1454444 120.532418,83.365 C121.262835,83.6183333 121.854725,84.638 122.72367,84.1165556 C123.83189,83.4473333 124.812077,82.5522222 125.792264,81.6887778 C125.930791,81.5663333 125.865725,80.9414444 125.689418,80.781 C125.347297,80.4706667 124.721824,80.0421111 124.455264,80.1687778 C123.580022,80.591 122.851703,81.313 121.986956,81.7626667 C121.657429,81.9336667 120.941703,81.8302222 120.706626,81.5726667 C120.444264,81.2813333 120.301538,80.5318889 120.494637,80.23 C121.111714,79.261 121.751879,78.1716667 122.667,77.5573333 C125.026165,75.9676667 127.798813,77.4243333 128.325637,80.2637778 C128.739121,82.4762222 127.65189,84.087 126.054626,85.8582222 C127.828198,87.0172222 129.307923,88.0748889 130.875802,88.9784444 C132.086868,89.6751111 132.454176,90.6018889 132.187615,91.9128889 C131.952538,93.0676667 130.886297,93.6292222 129.939692,92.9874444 C129.108527,92.4237778 128.376011,91.7186667 127.561637,91.1296667 C126.361066,90.262 125.124813,89.4407778 123.588418,88.3831111" id="Fill-10" fill="#000000"></path>
                    <path d="M117.768165,66.7611111 C117.121703,67.1432222 116.580187,67.4662222 116.05756,67.7744444 C113.467516,66.2291111 114.680681,63.339 113.301703,61.1117778 C111.840868,61.1983333 110.239407,61.2912222 108.631648,61.3841111 C108.096429,62.6718889 107.714429,63.7717778 107.193901,64.7998889 C106.515956,66.1404444 105.888385,66.1066667 104.110615,64.7534444 C105.485396,60.166 109.890989,51.9178889 112.611165,48.9412222 C114.502275,50.1572222 114.657593,52.1501111 115.043791,54.1007778 C115.849769,58.1688889 116.781681,62.2116667 117.768165,66.7611111 L117.768165,66.7611111 Z M111.960505,54.3604444 C111.194407,55.5532222 110.95933,55.8107778 110.848088,56.1147778 C110.694868,56.5306667 110.634,56.9824444 110.438802,57.8226667 C111.307747,57.62 112.336209,57.5566667 112.369791,57.3413333 C112.474736,56.6425556 112.212374,55.891 111.960505,54.3604444 L111.960505,54.3604444 Z" id="Fill-11" fill="#000000"></path>
                    <path d="M74.2453516,24.9737778 C73.538022,28.9405556 74.6546374,32.5146667 75.2255385,36.1077778 C75.3115934,36.6418889 76.4135165,37.2752222 77.1208462,37.3892222 C78.4116703,37.5961111 79.7591648,37.4462222 80.966033,37.4462222 C81.5894066,38.829 80.8254066,39.2681111 80.1096813,39.5467778 C76.9130549,40.7944444 73.5653077,40.824 70.2196593,40.5263333 C69.7641978,40.4862222 69.2226813,39.7346667 69.016989,39.1963333 C68.9057473,38.905 69.3192308,38.2357778 69.6718462,37.9782222 C70.183978,37.6045556 70.8535275,37.4483333 71.6196264,37.1316667 C71.9932308,33.6673333 71.6804945,30.2473333 70.8892088,26.6816667 C69.3800989,26.6816667 68.2194066,26.8041111 67.1090879,26.6225556 C66.6221429,26.5444444 65.8917253,25.8435556 65.8917253,25.4255556 C65.8917253,24.9294444 66.471022,24.1314444 66.9537692,23.9878889 C70.1587912,23.0442222 73.3994945,22.223 76.6401978,21.406 C77.2761648,21.2476667 77.9771978,21.1843333 78.6173626,21.2793333 C79.0245495,21.3384444 79.6982967,21.7902222 79.6857033,22.0393333 C79.6584176,22.622 79.4212418,23.553 79.035044,23.6944444 C77.5154396,24.2496667 75.9034835,24.5557778 74.2453516,24.9737778" id="Fill-12" fill="#000000"></path>
                    <path d="M25.0995824,41.2103333 C24.2768132,39.3272222 23.558989,37.6868889 22.7656044,35.8692222 C21.3446484,36.2133333 20.0958022,36.5131111 18.9309121,36.796 C18.0787582,38.3962222 17.3105604,39.836 16.4416154,41.4657778 C14.9513956,41.0372222 14.2692527,40.254 14.6806374,38.9155556 C15.4635275,36.3611111 16.4584066,33.8721111 17.2370989,31.3155556 C17.7681209,29.5654444 18.0976484,27.752 18.4859451,25.9596667 C18.721022,24.8787778 19.2898242,24.1018889 20.4043407,23.9562222 C21.3887253,23.8295556 21.8693736,24.5684444 22.2177912,25.3558889 C23.2336593,27.6422222 24.5391758,29.8588889 25.1436593,32.255 C25.6767802,34.3703333 26.4134945,36.3695556 27.1690989,38.3877778 C27.6917253,39.7895556 26.9843956,40.5727778 25.0995824,41.2103333 L25.0995824,41.2103333 Z M21.3005714,31.571 C21.1116703,31.4147778 20.9206703,31.2585556 20.7296703,31.1023333 C20.6142308,31.3725556 20.4106374,31.6448889 20.4169341,31.913 C20.419033,32.0544444 20.7947363,32.1832222 21.0025275,32.3183333 C21.1011758,32.0692222 21.2019231,31.8222222 21.3005714,31.571 L21.3005714,31.571 Z" id="Fill-13" fill="#000000"></path>
                    <path d="M134.517396,78.8725556 C138.054044,78.7923333 141.168813,78.2708889 144.285681,78.9844444 C146.623857,79.5185556 147.788747,81.1462222 147.255626,83.3692222 C146.619659,86.0123333 145.379209,88.4021111 143.404143,90.281 C142.583473,91.0621111 141.502538,91.668 140.434198,92.067 C136.654077,93.4751111 133.367198,91.2225556 133.109033,87.127 C133.067055,86.462 133.043967,85.7716667 133.169901,85.1235556 C133.545604,83.1813333 133.996868,81.2538889 134.517396,78.8725556 L134.517396,78.8725556 Z M144.783121,82.3031111 C139.779341,79.812 136.452582,81.4734444 136.19022,86.3268889 C136.072681,88.476 137.653154,89.9115556 139.645011,89.255 C140.690264,88.913 141.714527,88.2311111 142.510011,87.4542222 C143.832319,86.158 144.697066,84.5408889 144.783121,82.3031111 L144.783121,82.3031111 Z" id="Fill-14" fill="#000000"></path>
                    <path d="M27.8974176,64.0187778 C28.1073077,62.9801111 28.205956,62.1377778 28.4536264,61.344 C28.948967,59.7501111 29.2763956,57.9535556 31.1003407,57.297 C32.6997033,56.7185556 36.6372418,58.285 37.7412637,59.7881111 C40.2305604,63.1764444 39.9619011,68.4141111 37.1262857,71.4266667 C36.7841648,71.7897778 36.376978,72.1022222 35.9613956,72.3787778 C33.1152857,74.2745556 30.1873187,73.4955556 29.0728022,70.2718889 C28.3696703,68.2346667 28.250033,65.9968889 27.8974176,64.0187778 L27.8974176,64.0187778 Z M32.1980659,60.5734444 C30.7204396,63.4171111 31.0982418,65.771 31.5096264,68.0932222 C31.6901319,69.1192222 32.2715275,70.0016667 33.4783956,70.0375556 C34.6243956,70.0692222 35.3674066,69.3788889 35.7326154,68.3613333 C36.0705385,67.4197778 36.3643846,66.436 36.4882198,65.4458889 C36.6582308,64.1074444 36.8030549,62.5705556 35.5940879,61.7007778 C34.7314396,61.0822222 33.4993846,60.9787778 32.1980659,60.5734444 L32.1980659,60.5734444 Z" id="Fill-15" fill="#000000"></path>
                    <path d="M152.708571,87.8363333 C153.050692,89.1663333 153.466275,90.1036667 153.459978,91.0388889 C153.457879,91.4991111 152.740055,92.219 152.23422,92.3372222 C151.719989,92.4575556 150.695725,92.1366667 150.53411,91.744 C149.316747,88.7863333 148.726956,85.6513333 148.701769,82.4593333 C148.695473,81.5536667 149.150934,80.4938889 149.723934,79.7697778 C150.865736,78.3278889 152.242615,77.0738889 153.514549,75.7375556 C154.610176,74.587 155.934582,74.6017778 157.210714,75.2034444 C159.240352,76.1576667 161.034912,77.475 161.148253,79.983 C161.257396,82.3938889 159.98756,84.1672222 157.962121,85.3093333 C156.371154,86.2065556 154.668945,86.9032222 152.708571,87.8363333 L152.708571,87.8363333 Z M151.869011,83.7851111 C153.159835,84.3656667 154.473747,84.6147778 155.670121,83.7428889 C156.583143,83.0778889 157.496165,82.3178889 158.146824,81.4101111 C158.740813,80.5825556 158.730319,79.5185556 157.978912,78.6403333 C157.240099,77.7768889 155.831736,77.6396667 154.822165,78.3806667 C153.008714,79.7127778 151.780857,81.3847778 151.869011,83.7851111 L151.869011,83.7851111 Z" id="Fill-16" fill="#000000"></path>
                    <path d="M150.20878,55.3611111 C149.087967,55.1626667 148.103582,55.0782222 147.184264,54.7826667 C146.804363,54.6602222 146.38878,54.1197778 146.315319,53.7102222 C146.246055,53.307 146.48533,52.5258889 146.764484,52.4287778 C150.532011,51.1325556 154.295341,49.7307778 158.396593,50.1593333 C158.543516,50.1741111 158.730319,50.2986667 158.805879,50.4274444 C159.043055,50.8306667 159.435549,51.2845556 159.389374,51.6751111 C159.343198,52.0804444 158.91922,52.6673333 158.549813,52.7686667 C156.981934,53.2035556 155.151692,52.5132222 153.604802,54.1514444 C153.327747,56.6341111 153.932231,59.1885556 154.715121,61.4495556 C156.333374,63.0476667 158.812176,61.0442222 159.863725,63.4023333 C159.77767,63.605 159.737791,64.0335556 159.517407,64.1665556 C156.900077,65.7794444 153.925934,66.3114444 150.970681,66.8286667 C150.492132,66.9131111 149.644176,66.398 149.409099,65.9335556 C149.190813,65.4986667 149.377615,64.3734444 149.696648,64.2256667 C151.224648,63.5078889 151.466022,62.3214444 151.228846,60.888 C150.928703,59.0808889 150.567692,57.2843333 150.20878,55.3611111" id="Fill-17" fill="#000000"></path>
                    <path d="M71.9155714,60.9407778 C71.1620659,59.0217778 69.7159231,58.4285556 68.5153516,57.5461111 C67.7891319,57.012 67.3252747,56.062 67.9108681,55.4096667 C68.3285495,54.9473333 69.4892418,54.77 70.1357033,54.9958889 C71.329978,55.4117778 72.3899231,56.2182222 73.833967,57.0478889 C74.2138681,55.9057778 74.323011,54.8755556 74.8624286,54.1873333 C75.2885055,53.6426667 76.2812857,53.2098889 76.9613297,53.2858889 C77.9331209,53.3935556 78.1577033,54.4744444 77.9037363,55.2724444 C77.4020989,56.8536667 76.6905714,58.3673333 76.000033,60.0646667 C77.3328352,62.5008889 79.2869121,64.5423333 81.4214945,66.6724444 C81.0898681,67.2931111 80.9177582,68.0066667 80.4643956,68.3761111 C79.7045934,68.9967778 78.8314505,68.6421111 78.2332637,68.0066667 C76.9928132,66.6893333 75.8384176,65.2875556 74.3419011,63.567 C73.430978,65.3318889 72.7299451,66.7632222 71.9575495,68.1586667 C71.6427143,68.7265556 71.2796044,69.4084444 70.756978,69.6786667 C70.2721319,69.9277778 69.4829451,69.837 68.9456264,69.6132222 C68.6517802,69.4886667 68.3537363,68.6737778 68.485967,68.3465556 C69.0526703,66.9553333 69.7977802,65.6401111 70.440044,64.2763333 C70.9983516,63.0898889 71.5020879,61.8781111 71.9155714,60.9407778" id="Fill-18" fill="#000000"></path>
                    <path d="M17.808,62.6402222 C20.0034505,63.0561111 21.8001099,63.3453333 23.5631868,63.776 C23.8864176,63.8541111 24.2831099,64.517 24.2621209,64.8906667 C24.2432308,65.2643333 23.7961648,65.8512222 23.4477473,65.9272222 C21.7014615,66.3093333 19.9257912,66.5521111 18.0451758,66.8624444 C17.7072527,69.4443333 17.426,71.737 17.0775824,74.0191111 C17.044,74.2344444 16.5507582,74.5785556 16.3471648,74.53 C15.9336813,74.435 15.5558791,74.1331111 15.1990659,73.8692222 C15.0983187,73.7953333 15.0983187,73.5546667 15.092022,73.39 C14.8212637,67.3838889 14.5547033,61.3777778 14.2881429,55.359 C16.3282747,52.5512222 19.0841319,52.604 21.9197473,53.3872222 C22.5913956,53.573 23.1119231,54.4322222 23.6135604,55.055 C23.770978,55.2534444 23.7730769,55.815 23.6114615,55.9838889 C23.305022,56.3026667 22.7278242,56.7396667 22.4423736,56.6362222 C20.8681978,56.0577778 19.2583407,55.2196667 17.8457802,56.7164444 C16.682989,57.9493333 17.3378462,59.5896667 17.3924176,61.0632222 C17.4113077,61.5361111 17.6337912,62.0026667 17.808,62.6402222" id="Fill-19" fill="#000000"></path>
                    <path d="M124.516132,20.152 C125.263341,21.2455556 125.979066,21.9612222 126.296,22.8246667 C127.267791,25.4762222 127.504967,28.3557778 129.19878,30.8088889 C129.885121,31.8053333 129.838945,33.3527778 130.00056,34.6637778 C130.111802,35.5525556 129.740297,36.4434444 128.795791,36.5595556 C128.313044,36.6165556 127.565835,36.1331111 127.265692,35.6771111 C126.728374,34.8664444 126.438725,33.889 125.955978,32.7701111 C124.778495,32.8946667 123.65978,33.015 122.436121,33.1437778 C121.875714,34.6616667 121.451736,36.1077778 120.788484,37.4335556 C120.580692,37.8452222 119.611,38.2294444 119.193319,38.0732222 C118.756747,37.9106667 118.309681,37.0767778 118.324374,36.549 C118.347462,35.7446667 118.748352,34.9466667 119.014912,34.155 C120.288945,30.3528889 122.064615,26.7175556 122.541066,22.6452222 C122.633418,21.8535556 123.674473,21.1737778 124.516132,20.152 L124.516132,20.152 Z M124.604286,27.9208889 C124.446868,28.1784444 124.178209,28.4296667 124.167714,28.6935556 C124.15722,28.9257778 124.432176,29.1727778 124.581198,29.4134444 C124.738615,29.177 125.021967,28.9384444 125.017769,28.7041111 C125.01567,28.4423333 124.755407,28.1826667 124.604286,27.9208889 L124.604286,27.9208889 Z" id="Fill-20" fill="#000000"></path>
                    <path d="M131.289286,51.198 C129.637451,53.3302222 126.778747,52.7158889 126.289703,55.3041111 C127.21322,56.8431111 128.91333,57.0753333 130.439231,57.6748889 C131.979824,58.2807778 133.562396,58.9204444 134.90989,59.8577778 C137.346714,61.5551111 137.174604,65.1271111 134.637033,66.5901111 C132.422692,67.8673333 129.996363,68.4647778 127.418912,68.1143333 C126.938264,68.0488889 126.440824,67.8694444 126.023143,67.6203333 C125.194077,67.1263333 124.92122,66.2671111 125.361989,65.4775556 C125.628549,64.9962222 126.382055,64.4747778 126.88789,64.5022222 C128.176615,64.574 129.454846,65.1503333 130.72678,65.1207778 C131.637703,65.1017778 132.626286,64.5571111 133.392385,63.9913333 C133.703022,63.7633333 133.768088,62.5198889 133.501527,62.3087778 C132.477264,61.5044444 131.327066,60.7972222 130.122297,60.3032222 C128.428484,59.6107778 126.587747,59.2666667 124.912824,58.5383333 C123.03011,57.7171111 122.427725,55.6967778 123.441495,53.8917778 C124.763802,51.5378889 126.910978,50.3366667 129.526209,50.0875556 C130.011055,50.0411111 130.565165,50.7208889 131.289286,51.198" id="Fill-21" fill="#000000"></path>
                    <path d="M166.485758,21.3257778 C166.479462,25.1511111 166.235989,28.6555556 167.34211,32.0903333 C167.656945,33.0635556 167.715714,34.1127778 166.515143,34.6363333 C165.451,35.0986667 164.258824,34.4758889 163.828549,33.0931111 C163.536802,32.1557778 163.347901,31.1276667 163.391978,30.1544444 C163.520011,27.3825556 162.837868,24.864 161.38333,22.4826667 C160.434626,22.3496667 159.427154,22.3011111 158.486846,22.0266667 C158.109044,21.9168889 157.599011,21.273 157.636791,20.9288889 C157.703956,20.3504444 158.033484,19.5334444 158.482648,19.3286667 C159.359989,18.9254444 160.390549,18.8114444 161.372835,18.6911111 C164.023747,18.366 166.680956,18.1 169.338165,17.8107778 C169.501879,17.7938889 169.667692,17.7643333 169.833505,17.7601111 C170.803198,17.7453333 171.395088,18.2731111 171.663747,19.1534444 C171.924011,20.0063333 171.071857,21.2117778 170.055989,21.3025556 C168.941473,21.4017778 167.812264,21.3257778 166.485758,21.3257778" id="Fill-22" fill="#000000"></path>
                    <path d="M37.5292747,87.4964444 C36.0852308,87.5998889 34.9308352,87.8215556 33.8142198,87.6948889 C33.341967,87.64 32.6892088,86.8926667 32.6031538,86.3775556 C32.515,85.8645556 32.9725604,84.7921111 33.299989,84.7456667 C37.0423297,84.2115556 40.7615824,82.89 44.589978,84.087 C44.9698791,84.2052222 45.5491758,84.9208889 45.4736154,85.0623333 C45.2133516,85.5605556 44.7788791,86.0883333 44.2793407,86.31 C43.5552198,86.633 42.7198571,86.6984444 41.7102857,86.9222222 C41.4185385,89.9031111 41.6809011,92.7298889 41.6011429,95.544 C41.5696593,96.6671111 41.2674176,97.8071111 40.919,98.8837778 C40.8140549,99.2067778 40.1214176,99.5361111 39.7226264,99.5086667 C39.3301319,99.4833333 38.6962637,99.0568889 38.6374945,98.7233333 C38.4443956,97.6002222 38.3583407,96.437 38.415011,95.297 C38.5388462,92.8058889 38.9439341,90.3042222 37.5292747,87.4964444" id="Fill-23" fill="#000000"></path>
                    <path d="M56.2220879,36.8783333 C56.8223736,38.5207778 56.6565604,39.6755556 55.4748791,39.8191111 C52.8470549,40.1378889 50.1814505,40.1801111 47.5284396,40.216 C46.9365495,40.2244444 46.3362637,39.7431111 45.5974505,39.4285556 C45.5974505,38.3582222 45.6247363,37.3638889 45.5932527,36.3737778 C45.4757143,32.559 46.1011868,28.6724444 44.4220659,25.0054444 C44.2877363,24.7141111 44.6739341,23.8464444 44.9677802,23.762 C45.523989,23.6015556 46.4034286,23.5825556 46.7602418,23.9224444 C47.3185495,24.4523333 47.7404286,25.2925556 47.8831538,26.0652222 C48.156011,27.5366667 48.2063846,29.0524444 48.3218242,30.5534444 C48.4603516,32.369 48.5694945,34.1866667 48.7143187,36.3252222 C51.2980659,36.5152222 53.7285934,36.6946667 56.2220879,36.8783333" id="Fill-24" fill="#000000"></path>
                    <path d="M168.58256,61.6247778 C169.350758,60.0393333 168.645527,59.1273333 167.814363,58.2491111 C166.557121,56.9254444 165.245308,55.6461111 164.063626,54.257 C163.253451,53.3048889 162.997385,52.1395556 163.771879,51.008 C165.056407,49.1354444 166.808989,48.2804444 168.381066,48.8187778 C168.765165,48.9517778 169.184945,49.4753333 169.260505,49.8806667 C169.325571,50.2395556 169.008637,50.7483333 168.725286,51.0713333 C168.322297,51.5336667 167.507923,51.825 167.400879,52.3084444 C167.283341,52.8383333 167.646451,53.6025556 168.024253,54.0881111 C168.632934,54.8755556 169.539659,55.435 170.11056,56.2435556 C170.771714,57.1808889 171.365703,58.2322222 171.709923,59.3236667 C172.431945,61.6184444 171.460154,63.757 169.268901,64.6837778 C167.921407,65.2537778 166.531934,66.1488889 164.976648,65.4648889 C164.437231,65.2263333 163.765582,64.6711111 163.685824,64.175 C163.610264,63.6936667 164.093011,62.8956667 164.556868,62.6106667 C165.232714,62.199 166.105857,62.104 166.90344,61.9161111 C167.510022,61.7746667 168.133396,61.7007778 168.58256,61.6247778" id="Fill-25" fill="#000000"></path>
                    <path d="M36.0663407,36.3991111 C37.397044,36.0001111 38.4443956,35.5462222 39.5295275,35.4195556 C40.0668462,35.3583333 41.0869121,35.8143333 41.1624725,36.1858889 C41.3051978,36.891 41.1204945,38.2378889 40.7321978,38.3835556 C38.7235495,39.1266667 36.6225495,39.6565556 34.5194505,40.083 C33.6253187,40.2645556 32.664022,39.1604444 32.5632747,38.1703333 C32.5296923,37.8367778 32.4604286,37.4884444 32.5212967,37.1654444 C33.1635604,33.6631111 33.2936923,30.1671111 32.4772198,26.6668889 C32.4058571,26.3607778 32.4121538,25.8963333 32.5926593,25.6957778 C32.9977473,25.2461111 33.490989,24.7542222 34.0367033,24.5937778 C34.3746264,24.4966667 35.1994945,24.9125556 35.2582637,25.2102222 C35.6150769,27.0025556 35.911022,28.8223333 36.0390549,30.6442222 C36.1628901,32.4407778 36.0663407,34.2521111 36.0663407,36.3991111" id="Fill-26" fill="#000000"></path>
                    <path d="M47.3080549,58.2786667 L47.3080549,60.3053333 C47.1170549,60.2968889 46.923956,60.2884444 46.732956,60.2821111 C46.777033,59.6086667 46.8211099,58.9352222 46.8651868,58.2617778 C47.0121099,58.266 47.1611319,58.2723333 47.3080549,58.2786667" id="Fill-28" fill="#FFFFFF"></path>
                    <path d="M21.3026703,31.5731111 C21.2019231,31.8222222 21.1011758,32.0692222 21.0025275,32.3183333 C20.7947363,32.1832222 20.419033,32.0544444 20.4169341,31.913 C20.4106374,31.6448889 20.6142308,31.3725556 20.7296703,31.1023333 C20.9206703,31.2585556 21.1116703,31.4147778 21.3026703,31.5731111" id="Fill-30" fill="#FFFFFF"></path>
                    <path d="M124.606385,27.9208889 C124.755407,28.1826667 125.01567,28.4423333 125.017769,28.7041111 C125.021967,28.9384444 124.738615,29.177 124.581198,29.4134444 C124.432176,29.1727778 124.15722,28.9257778 124.167714,28.6935556 C124.178209,28.4296667 124.446868,28.1784444 124.606385,27.9208889" id="Fill-34" fill="#FFFFFF"></path>
                </g>
            </g>
        </g>
    </g>
</svg>