<svg width="197" height="102" viewBox="0 0 197 102" xmlns="http://www.w3.org/2000/svg" xmlns:sketch="http://www.bohemiancoding.com/sketch/ns"><title>bah-humbug-hover</title><desc>Created with Sketch.</desc><g sketch:type="MSLayerGroup" fill="none"><path d="M196.567 87.594c-1.403 1.314-2.824 2.184-3.553 3.457-.739 1.289-1.933 1.818-2.973 2.22-1.384.536-3.053.467-4.594.43-3.367-.077-6.73-.3-10.093-.461-.33-.014-.675.048-.988-.031-3.796-.943-7.534-.087-11.254.47-2.985.447-5.921 1.231-8.877 1.862-.161.035-.355.118-.485.064-2.333-.954-4.689.006-7.033-.066-5.422-.172-10.864-.441-16.267-.139-5.306.296-10.569 1.287-15.861 1.893-2.936.337-5.886.598-8.836.745-5.673.283-11.351.451-17.025.695-.815.035-1.65.141-2.428.379-4.77 1.45-9.752 1.086-14.611 1.773-1.038-1.146-2.715.269-3.92-1.105-.495-.565-2.183-.072-3.33-.066-3.276.014-6.552.037-9.829.037-2.8.002-5.597-.037-8.395-.012-.353.004-.714.271-1.048.457-.345.188-.65.587-.992.616-3.348.273-6.699.507-10.051.697-.553.031-1.31-.014-1.642-.35-1.149-1.165-2.546-.889-3.914-.96-4.029-.205-8.089-.194-12.071-.747-3.208-.447-6.462-1.165-9.102-3.415-.722-.616-1.714-.983-2.643-1.27-1.083-.335-1.492-.995-1.312-2.029.487-2.803-.363-4.969-2.746-6.617-.505-.352-.584-1.326-1.017-2.41l3.305.42c.105-.122.305-.246.301-.362-.113-3.701-.182-7.401-.398-11.096-.159-2.685-.522-5.36-.78-8.038-.031-.325-.076-.699.05-.976 1.159-2.559-.076-5.184.538-7.749l-.47-.126-.833 1.92c-1.382-.738-1.448-1.814-1.399-2.999.146-3.438.312-6.878.351-10.318.027-2.22-.233-4.443-.221-6.665.019-3.359.136-6.721.258-10.078.165-4.594.47-9.186.526-13.781.033-2.675-.309-5.353-.503-8.355.968-1.045 2.69-.476 4.103-.527 4.776-.172 9.459-1.04 14.192-1.483 4.57-.428 9.175-.474 13.765-.689 2.864-.132 5.725-.356 8.589-.37 2.628-.014 5.257.279 7.885.279 2.68 0 5.36-.304 8.038-.271 2.791.035 5.579.331 8.368.48 2.457.13 4.914.256 7.373.304 2.639.052 5.288.141 7.918-.019 4.508-.273 9.001-.747 13.505-1.098 2.131-.165 4.271-.362 6.404-.339 5.682.058 11.361.246 17.041.352 5.081.093 10.163.277 15.24.172 4.015-.083 8.019-.654 12.034-.798 2.694-.097 5.403.201 8.106.275 2.713.077 5.43.068 8.145.149 2.216.066 4.429.265 6.647.298 1.471.021 2.946-.192 4.421-.213 1.306-.017 2.622.01 3.918.155 1.863.205 3.592.004 5.129-1.165.258-.197.58-.517.829-.482 2.925.405 5.824-1.5 8.752-.091.149.07.305.194.454.188.782-.033 1.63-.488 2.228.449.662 1.038.774 2.17.765 3.378-.006.892.427 1.8.353 2.675-.091 1.049-.528 2.066-.784 3.105-.116.474-.268.976-.217 1.446.675 6.015-.421 12.008-.188 18.013.089 2.292.318 4.582.588 6.859.883 7.438 2.55 14.778 2.674 22.309.064 4.027.342 8.055.272 12.076-.035 2.033-.541 4.075-.999 6.075-.4 1.748-.518 3.341.695 4.847.819 1.018 1.108 2.087.324 3.405-.425.712-.314 1.744-.402 2.346zm-191.762-79.304c-.126.807-.237 1.2-.241 1.595-.05 3.713-.099 7.426-.111 11.141-.008 2.476.027 4.954.07 7.43.031 1.704.144 3.411.155 5.118.01 1.483-.099 2.968-.103 4.454-.008 3.016-.029 6.032.047 9.046.047 1.878-.089 3.881.52 5.589.435 1.216.784 2.457.833 3.639.204 4.917 1.077 9.819.442 14.761-.07.563-.192 1.421.107 1.68 1.898 1.644.716 3.469.462 5.242-.173 1.218-.65 2.493-.446 3.645.58 3.256 1.981 6.276 3.761 9.019 2.141 3.301 5.566 4.673 9.313 5.457 5.554 1.163 11.139.283 16.705.374 3.016.052 6.041-.476 9.063-.743 4.332-.381 8.663-.817 13.002-1.119 2.193-.153 4.403-.06 6.604-.077.33-.002.66.027.988.008 4.677-.261 9.352-.515 14.027-.801 1.312-.081 2.614-.298 3.924-.36.796-.037 1.607.046 2.395.174 1.108.182 2.189.583 3.297.662 1.97.143 3.951.124 5.929.151.968.012 1.95-.126 2.901-.012 1.11.134 2.197.689 3.289.678 2.872-.029 5.742-.252 8.611-.426 1.308-.081 2.661-.05 3.91-.383 5.872-1.564 11.848-1.756 17.864-1.64 2.635.052 5.284.242 7.904.05 5.492-.405 10.976-.976 16.451-1.576 2.684-.294 5.393-.608 8.005-1.262 4.673-1.167 9.267-2.642 13.918-3.907 3.802-1.032 7.611-2.114 11.64-1.622.417.05.881-.275 1.188-.379.136-7.302.27-14.424.404-21.54-2.47-.103-2.624-.314-2.455-2.368.103-1.233.012-2.48.07-3.717.192-4.197.142-8.427.689-12.577.609-4.625.528-9.193.101-13.793-.021-.223-.19-.432-.338-.749l-1.269.65c-1.56-2.656-2.049-4.671-1.62-6.779.949-4.658 1.902-9.302.576-14.074-.155-.559.32-1.827.685-1.903 1.589-.337 1.058-1.599 1.549-2.66-1.991.122-3.775.331-5.556.308-1.56-.021-2.915.18-3.452 1.357-2.257-.244-4.196-.59-6.142-.643-8.056-.223-16.117-.356-24.173-.534-1.626-.035-3.253-.234-4.871-.165-3.369.143-6.732.418-10.099.629-3.359.209-6.717.457-10.08.594-3.2.132-6.406.168-9.608.203-1.958.023-3.918-.06-5.876-.05-2.713.014-5.426.114-8.139.083-.966-.01-1.923-.348-2.895-.432-1.799-.153-3.602-.279-5.405-.323-1.306-.031-2.62.039-3.924.147-2.773.23-5.537.583-8.312.755-3.113.19-6.239.356-9.354.312-4.013-.056-8.025-.294-12.034-.523-3.767-.217-7.534-.798-11.293-.732-4.836.083-9.663.631-14.491 1.028-.697.056-1.632.165-2.007.623-1.001 1.22-2.045 1.353-3.472.943-1.007-.288-2.127-.281-3.192-.246-4.77.159-9.538.399-14.307.563-1.966.066-3.934.01-6.134.01zm165.453 81.335l.124.575c1.261-.213 2.519-.424 3.78-.635l-.107-.678c-1.285.101-2.589.066-3.796.738zm18.904 1.251l.072-.716-3.363.569.064.441 3.227-.294z" fill="#000" sketch:type="MSShapeGroup"/><path d="M4.805 8.29c2.199 0 4.167.056 6.134-.01 4.77-.163 9.538-.403 14.307-.563 1.065-.035 2.185-.041 3.192.246 1.428.41 2.472.277 3.472-.943.375-.457 1.31-.567 2.007-.623 4.828-.397 9.655-.945 14.491-1.028 3.759-.066 7.526.515 11.293.732 4.009.23 8.021.467 12.034.523 3.115.043 6.241-.122 9.354-.312 2.775-.172 5.539-.525 8.312-.755 1.304-.108 2.618-.178 3.924-.147 1.803.043 3.606.17 5.405.323.972.085 1.929.422 2.895.432 2.713.031 5.426-.068 8.139-.083 1.958-.01 3.918.072 5.876.05 3.202-.035 6.408-.07 9.608-.203 3.363-.137 6.722-.385 10.08-.594 3.367-.211 6.73-.486 10.099-.629 1.617-.068 3.245.13 4.871.165 8.056.178 16.117.31 24.173.534 1.945.054 3.885.399 6.142.643.536-1.177 1.892-1.378 3.452-1.357 1.78.023 3.565-.186 5.556-.308-.491 1.061.039 2.323-1.549 2.66-.365.077-.84 1.345-.685 1.903 1.327 4.772.373 9.416-.576 14.074-.429 2.108.06 4.123 1.62 6.779l1.269-.65c.149.316.318.525.338.749.427 4.6.508 9.168-.101 13.793-.547 4.15-.497 8.38-.689 12.577-.058 1.237.033 2.484-.07 3.717-.169 2.054-.014 2.265 2.455 2.368-.134 7.116-.268 14.238-.404 21.54-.307.103-.772.428-1.188.379-4.029-.492-7.838.59-11.64 1.622-4.65 1.266-9.245 2.741-13.918 3.907-2.612.654-5.321.968-8.005 1.262-5.475.6-10.959 1.171-16.451 1.576-2.62.192-5.269.002-7.904-.05-6.016-.116-11.993.077-17.864 1.64-1.248.333-2.602.302-3.91.383-2.87.174-5.74.397-8.611.426-1.091.01-2.179-.544-3.289-.678-.951-.114-1.933.025-2.901.012-1.978-.027-3.959-.008-5.929-.151-1.108-.079-2.189-.48-3.297-.662-.788-.128-1.599-.211-2.395-.174-1.31.062-2.612.279-3.924.36-4.675.285-9.35.54-14.027.801-.328.019-.658-.01-.988-.008-2.201.017-4.411-.077-6.604.077-4.339.302-8.669.738-13.002 1.119-3.022.267-6.047.794-9.063.743-5.566-.091-11.151.788-16.705-.374-3.747-.784-7.171-2.155-9.313-5.457-1.78-2.743-3.181-5.763-3.761-9.019-.204-1.152.272-2.426.446-3.645.254-1.773 1.436-3.597-.462-5.242-.299-.259-.177-1.117-.107-1.68.635-4.942-.237-9.844-.442-14.761-.05-1.181-.398-2.422-.833-3.639-.609-1.709-.472-3.711-.52-5.589-.076-3.014-.056-6.03-.047-9.046.004-1.485.113-2.97.103-4.454-.01-1.707-.124-3.413-.155-5.118-.043-2.476-.078-4.954-.07-7.43.012-3.715.062-7.428.111-11.141.004-.395.116-.788.241-1.595zm20.72 35.701c.516-.761 1.003-1.316 1.304-1.957.553-1.173 1.155-2.362 1.438-3.614.281-1.239-.685-2.472-1.811-2.445-2.684.068-5.166.79-7.136 2.757-.65.65-.982 3.128-.404 3.868 1.508 1.93 1.766 4.166 1.834 6.485.033 1.15.144 2.296.202 3.446.159 3.25.243 6.506.505 9.747.066.813.495 1.806 1.095 2.315.722.614 1.477-.079 2.115-.668.838-.774 1.663-1.644 2.655-2.145 3.016-1.516 4.652-3.967 5.393-7.176.827-3.583-.165-7.141-3.227-8.448-1.261-.538-2.418-1.311-3.963-2.166zm98.935-5.569c.043 4.338-2.566 7.393-4.337 10.866-.297-2.06-.404-4.069-.268-6.061.167-2.476.194-4.865-1.382-6.925-1.436.134-1.871.825-1.789 2.172.07 1.125-.095 2.311-.398 3.403-1.318 4.737-2.74 9.447-4.087 14.178-.231.815-.281 1.682-.396 2.404 1.547.817 2.319.323 2.783-.877.206-.538.448-1.074.557-1.634.623-3.134 1.207-6.276 1.818-9.412.052-.261.212-.503.421-.974 1.11 2.563-1.085 6.061 2.517 7.397 2.798-1.959 3.031-5.312 5.086-8.078.631 5.672.229 11.036 1.877 16.184 1.648-.143 2.21-1.049 2.498-1.686-.6-1.721-1.314-2.975-1.442-4.288-.328-3.349-.716-6.748-.46-10.08.186-2.431-.07-4.615-.994-7.006l-2.003.418zm6.653 1.477c.021.207-.012.47.078.678 1.285 2.896 1.19 5.891.623 8.911-.559 2.962.741 6.156-1.122 8.953.161 3.289 3.101 5.742 6.29 4.586 2.208-.801 3.305-2.586 4.25-4.555 1.199-2.495 1.221-5.095.691-7.722-.456-2.259-.922-4.563-3.52-5.471-.099-.035-.128-.281-.196-.445.712-.883 1.531-1.709 2.117-2.675.673-1.113 1.325-2.304 1.648-3.55.468-1.781-.468-2.66-2.342-2.633-3.408.05-6.142 1.525-8.518 3.922zm45.142 11.212c-.541-1.305.433-3.134-1.529-3.924-2.418 1.868-2.418 1.868-7.429 1.905-.788 1.218-2.414 2.002-2.111 3.771.982 1.76 2.255.021 3.32.339.671 4.054-1.549 6.741-5.979 7.29-1.131-1.417-1.574-2.975-1.157-4.814.27-1.198.33-2.445.485-3.67.574-4.559 2.826-8.33 5.531-11.892l-.675-2.348h-2.352c-.462 1.415-.706 2.821-1.351 4.011-1.7 3.132-3.214 6.286-3.53 9.91-.27 3.103-1.058 6.191 0 9.294.745 2.186 2.278 3.03 4.355 2.071 1.556-.718 3.055-1.649 4.398-2.712 1.745-1.382 2.744-3.258 2.692-5.581-.019-.811-.004-1.62-.004-2.553 1.834-.376 3.489-.718 5.335-1.098zm-90.452-.873c0-1.061.091-1.955-.017-2.826-.293-2.36-.664-4.71-1.015-7.062-.128-.863-.557-1.365-1.508-1.158-1.009.219-1.3.912-1.149 1.841l.365.91c.51 2.65 1.062 5.291 1.457 7.958.163 1.1-.047 2.253-.056 3.38-.014 1.634.085 3.272-.025 4.898-.083 1.191-.004 2.244.897 3.306 1.5-1.374 3.289-2.34 2.833-4.727-.043-.232-.029-.536.087-.728.887-1.479.085-2.054-1.277-2.66 1.799-.335 3.598-.668 5.51-1.022.423 3.442.51 6.69 2.071 10.057.877-1.065 1.523-1.696 1.978-2.443.662-1.086.633-2.584-.217-3.204-1.597-1.163-1.087-2.712-1.584-4.183.737-.182 1.337-.223 1.82-.482.427-.23.726-.701 1.081-1.067-.375-.352-.697-.834-1.143-1.026-.493-.209-1.1-.153-1.813-.23-.146-1.299-.192-2.528-.442-3.713-.404-1.915-.887-3.819-1.452-5.691-.279-.923-1.236-.935-1.844-.548-.388.25-.547 1.065-.563 1.634-.014.447.363.898.541 1.359.891 2.292 1.421 4.631 1.118 6.996l-5.653.43zm-24.295-1.853c.019-4.058.045-8.208-.427-12.322-2.298.159-2.203.153-2.086 1.93.233 3.508.351 7.025.522 10.634l-6.771.916c.194-3.564.559-6.847-.959-9.908-2.335.153-2.344.296-1.723 2.199.398 1.214.47 2.565.522 3.862.159 4.021.196 8.049.392 12.068.035.724.569 2 .918 2.017.782.035 1.818-.366 2.325-.958.522-.604.815-1.694.679-2.478-.095-.53-1.108-.896-1.78-1.386l-.177-2.596 6.375-.987c.159 2.329.578 4.315.342 6.222-.204 1.671.485 2.395 1.626 3.183 1.269-.807 1.62-1.624 1.223-3.128-.51-1.932-1.124-3.963-.495-5.997 1.118-.796 2.684.745 3.635-.803-.673-1.876-2.736-1.231-4.141-2.47zm41.489-10.678c-2.162-.211-3.229.546-3.161 1.99.134 2.793.365 5.593.237 8.378-.155 3.343.448 6.551 1.145 9.766.627 2.888 2.903 3.819 5.403 2.236.619-.391 1.32-.832 1.675-1.431 1.584-2.685 3.047-5.418 2.954-8.713-.066-2.304-.25-4.677.208-6.899.408-1.99.708-3.682-.503-5.49-.439-.654-.359-1.702-1.535-1.415-1.106.269-.895 1.216-.883 2.029.004.246-.014.503.041.741.869 3.647.99 7.345.38 11.017-.361 2.162-1.067 4.286-1.824 6.35-.235.641-1.137 1.417-1.749 1.431-.609.012-1.304-.79-1.834-1.357-.312-.331-.431-.883-.543-1.359-.557-2.377-.772-4.782-.611-7.228.219-3.281.392-6.563.598-10.047zm-54.864 11.555c-1.818-.556-2.016-2.021-2.014-3.659.002-.894-.386-1.795-.342-2.681.12-2.507-1.368-4.116-2.95-5.697-1.112-1.113-1.985-.904-2.424.664-.26.929-.116 1.988-.437 2.886-1.869 5.213-2.127 10.998-5.521 15.684-.243.335-.182 1.307.089 1.508.429.319 1.372.521 1.712.263.8-.608 1.554-1.429 1.995-2.327.598-1.22.889-2.594 1.316-3.912.875-.054 1.694-.091 2.511-.159.848-.07 1.692-.172 2.707-.277l.675 7.066c2.09-.592 2.09-.592 2.82-2.207-1.723-3.084-1.743-3.763-.136-7.151zm97.567-11.451c-.097.815-.052 1.591-.291 2.265-1.613 4.536-1.306 9.251-1.393 13.932-.033 1.911.699 3.618 1.813 5.01 1.762 2.203 3.359 2.915 5.436-.037 1.32-1.872 2.548-3.86 3.478-5.949 1.029-2.308 1.809-4.758 2.447-7.209.53-2.04.045-4.104-.91-5.953-.571-1.107-1.434-1.212-2.193-.585-.821.676-1.087 1.99-.268 2.532 1.609 1.065 1.322 2.559 1.168 3.99-.468 4.315-2.996 7.767-5.001 11.42-.514.937-1.638.867-2.201-.062-.499-.825-.93-1.752-1.129-2.689-.897-4.269-.753-8.471.805-12.618.444-1.185.411-2.557.549-3.847.019-.18-.227-.387-.396-.65l-1.915.451zm-77.958 27.992c2.296-.401 3.52-1.27 3.959-2.635.12-.37.258-1.003.078-1.16-1.166-1.018-.384-2.044-.153-3.088.388-1.756.708-3.519-.46-5.252-.916.414-1.459.743-1.504 1.944-.095 2.522-.378 5.045-1.617 7.374-.375.705-.202 1.704-.303 2.817z" fill="#fff" sketch:type="MSShapeGroup"/><path d="M170.258 89.625c1.207-.672 2.511-.637 3.796-.738l.107.678c-1.261.211-2.519.422-3.78.635l-.124-.575" fill="#fff" sketch:type="MSShapeGroup"/><path d="M189.162 90.876l-3.227.294-.064-.441 3.363-.569-.072.716" fill="#fff" sketch:type="MSShapeGroup"/><path d="M25.525 43.991c1.545.854 2.703 1.628 3.963 2.166 3.062 1.307 4.054 4.865 3.227 8.448-.741 3.208-2.377 5.66-5.393 7.176-.992.501-1.818 1.371-2.655 2.145-.637.59-1.393 1.282-2.115.668-.6-.509-1.029-1.502-1.095-2.315-.262-3.241-.347-6.497-.505-9.747-.058-1.15-.169-2.296-.202-3.446-.068-2.319-.326-4.555-1.834-6.485-.578-.741-.246-3.219.404-3.868 1.97-1.967 4.452-2.689 7.136-2.757 1.126-.027 2.092 1.206 1.811 2.445-.283 1.251-.885 2.441-1.438 3.614-.301.641-.788 1.196-1.304 1.957zm-.334 15.69c1.446-.772 3-1.138 3.771-2.12 1.19-1.512 1.943-3.411 1.778-5.496-.111-1.38-.555-2.474-1.811-3.285-1.78-1.148-3.786-1.498-5.591-2.189l1.853 13.09zm.285-20.437c-3.196 1.185-3.561 1.831-2.49 4.236.966-1.282 2.451-2.155 2.49-4.236z" fill="#000" sketch:type="MSShapeGroup"/><path d="M124.46 38.422l2.003-.418c.924 2.391 1.18 4.576.994 7.006-.256 3.332.132 6.731.46 10.08.128 1.314.842 2.567 1.442 4.288-.289.637-.85 1.543-2.498 1.686-1.648-5.149-1.246-10.512-1.877-16.184-2.055 2.766-2.288 6.119-5.086 8.078-3.602-1.336-1.407-4.834-2.517-7.397-.208.472-.369.714-.421.974-.611 3.136-1.195 6.278-1.818 9.412-.109.561-.351 1.096-.557 1.634-.464 1.2-1.236 1.694-2.783.877.116-.722.165-1.589.396-2.404 1.347-4.731 2.769-9.441 4.087-14.178.303-1.092.468-2.277.398-3.403-.083-1.347.353-2.038 1.789-2.172 1.576 2.06 1.549 4.449 1.382 6.925-.136 1.992-.029 4.001.268 6.061 1.77-3.473 4.38-6.528 4.337-10.866" fill="#000" sketch:type="MSShapeGroup"/><path d="M131.113 39.899c2.377-2.397 5.11-3.872 8.518-3.922 1.873-.027 2.81.852 2.342 2.633-.324 1.245-.976 2.437-1.648 3.55-.586.966-1.405 1.791-2.117 2.675.068.163.097.41.196.445 2.597.908 3.064 3.212 3.52 5.471.53 2.627.508 5.227-.691 7.722-.945 1.969-2.042 3.754-4.25 4.555-3.19 1.156-6.129-1.297-6.29-4.586 1.863-2.797.563-5.991 1.122-8.953.567-3.02.662-6.015-.623-8.911-.091-.209-.058-.472-.078-.678zm3.072 7.093c-.161 2.095-.312 4.036-.458 5.976-.122 1.607.027 3.09 2.23 3.707l-2.93 2.964c1.269 1.307 3.206 1.773 4.372.738 2.577-2.284 3.07-5.242 2.678-8.551-.332-2.811-2.071-3.903-4.522-4.402-.39-.079-.763-.238-1.37-.432zm5.636-8.566c-2.426.035-4.231.724-5.616 2.321l.295 3.872c2.519-1.622 4.627-3.13 5.321-6.193z" fill="#000" sketch:type="MSShapeGroup"/><path d="M176.256 51.111c-1.846.381-3.501.722-5.335 1.098 0 .933-.014 1.742.004 2.553.052 2.323-.947 4.199-2.692 5.581-1.343 1.063-2.843 1.994-4.398 2.712-2.078.96-3.61.116-4.355-2.071-1.058-3.103-.27-6.191 0-9.294.316-3.624 1.83-6.779 3.53-9.91.646-1.189.889-2.596 1.351-4.011h2.352l.673 2.348c-2.703 3.562-4.956 7.333-5.529 11.892-.155 1.225-.215 2.472-.485 3.67-.417 1.839.027 3.397 1.157 4.814 4.429-.548 6.649-3.235 5.979-7.29-1.065-.319-2.337 1.421-3.32-.339-.303-1.769 1.322-2.553 2.111-3.771 5.011-.037 5.011-.037 7.429-1.905 1.962.79.988 2.619 1.529 3.924" fill="#000" sketch:type="MSShapeGroup"/><path d="M85.804 50.238l5.653-.43c.303-2.364-.227-4.704-1.118-6.996-.177-.461-.555-.912-.541-1.359.017-.569.175-1.384.563-1.634.609-.387 1.566-.374 1.844.548.565 1.872 1.048 3.775 1.452 5.691.25 1.185.295 2.414.442 3.713.714.077 1.32.021 1.813.23.446.192.767.674 1.143 1.026-.355.366-.654.838-1.081 1.067-.483.259-1.083.3-1.82.482.497 1.471-.012 3.02 1.584 4.183.85.621.879 2.118.217 3.204-.456.747-1.102 1.378-1.978 2.443-1.562-3.368-1.648-6.615-2.071-10.057-1.912.354-3.711.687-5.51 1.022 1.362.606 2.164 1.181 1.277 2.66-.116.192-.13.496-.087.728.456 2.387-1.333 3.353-2.833 4.727-.902-1.061-.98-2.114-.897-3.306.109-1.626.01-3.264.025-4.898.008-1.127.219-2.28.056-3.38-.394-2.666-.947-5.308-1.457-7.958l-.365-.91c-.151-.929.14-1.622 1.149-1.841.951-.207 1.38.296 1.508 1.158.351 2.352.722 4.702 1.015 7.062.107.871.017 1.764.017 2.826" fill="#000" sketch:type="MSShapeGroup"/><path d="M61.509 48.384c1.405 1.239 3.468.594 4.141 2.47-.951 1.547-2.517.006-3.635.803-.629 2.033-.014 4.065.495 5.997.396 1.504.045 2.321-1.223 3.128-1.141-.788-1.83-1.512-1.626-3.183.235-1.907-.184-3.893-.342-6.222l-6.375.987.177 2.596c.673.49 1.686.856 1.78 1.386.136.784-.157 1.874-.679 2.478-.508.592-1.543.993-2.325.958-.349-.017-.883-1.293-.918-2.017-.196-4.019-.233-8.047-.392-12.068-.052-1.297-.124-2.648-.522-3.862-.621-1.903-.613-2.046 1.723-2.199 1.518 3.061 1.153 6.344.959 9.908l6.771-.916c-.171-3.61-.289-7.126-.522-10.634-.118-1.777-.212-1.771 2.086-1.93.472 4.114.446 8.264.427 12.322" fill="#000" sketch:type="MSShapeGroup"/><path d="M102.998 37.706c-.206 3.483-.38 6.766-.598 10.047-.161 2.445.054 4.851.611 7.228.111.476.231 1.028.543 1.359.53.567 1.225 1.369 1.834 1.357.613-.014 1.514-.79 1.749-1.431.757-2.064 1.463-4.189 1.824-6.35.611-3.672.489-7.37-.38-11.017-.056-.238-.037-.494-.041-.741-.012-.813-.223-1.76.883-2.029 1.176-.288 1.095.761 1.535 1.415 1.211 1.808.912 3.5.503 5.49-.458 2.222-.274 4.594-.208 6.899.093 3.295-1.37 6.028-2.954 8.713-.355.6-1.056 1.04-1.675 1.431-2.5 1.582-4.776.652-5.403-2.236-.697-3.215-1.3-6.423-1.145-9.766.128-2.784-.103-5.585-.237-8.378-.068-1.444.999-2.201 3.161-1.99" fill="#000" sketch:type="MSShapeGroup"/><path d="M48.134 49.261c-1.607 3.388-1.587 4.067.136 7.151-.73 1.616-.73 1.616-2.82 2.207l-.675-7.066c-1.015.105-1.859.207-2.707.277-.817.068-1.636.105-2.511.159-.427 1.318-.718 2.691-1.316 3.912-.441.898-1.195 1.719-1.995 2.327-.34.259-1.283.056-1.712-.263-.27-.201-.332-1.173-.089-1.508 3.394-4.685 3.652-10.471 5.521-15.684.322-.898.177-1.957.437-2.886.439-1.568 1.312-1.777 2.424-.664 1.582 1.58 3.07 3.19 2.95 5.697-.043.885.345 1.787.342 2.681-.002 1.638.196 3.103 2.014 3.659zm-3.817-.49c.004-3.831-.928-6.727-2.643-8.028l-1.537 8.028h4.18z" fill="#000" sketch:type="MSShapeGroup"/><path d="M145.702 37.81l1.915-.451c.169.263.415.47.396.65-.138 1.291-.105 2.662-.549 3.847-1.558 4.147-1.702 8.349-.805 12.618.198.937.629 1.864 1.129 2.689.563.929 1.688.999 2.201.062 2.005-3.653 4.533-7.105 5.001-11.42.155-1.431.442-2.925-1.168-3.99-.819-.542-.553-1.855.268-2.532.759-.627 1.622-.521 2.193.585.955 1.849 1.44 3.914.91 5.953-.637 2.451-1.417 4.9-2.447 7.209-.93 2.089-2.158 4.077-3.478 5.949-2.078 2.952-3.674 2.24-5.436.037-1.114-1.392-1.846-3.099-1.813-5.01.087-4.681-.221-9.395 1.393-13.932.239-.674.194-1.45.291-2.265" fill="#000" sketch:type="MSShapeGroup"/><path d="M67.744 65.801c.101-1.113-.072-2.112.303-2.817 1.24-2.329 1.523-4.853 1.617-7.374.045-1.202.588-1.531 1.504-1.944 1.168 1.733.848 3.496.46 5.252-.231 1.045-1.013 2.071.153 3.088.179.157.041.79-.078 1.16-.439 1.365-1.663 2.234-3.959 2.635" fill="#000" sketch:type="MSShapeGroup"/><path d="M25.191 59.681l-1.853-13.09c1.805.691 3.811 1.04 5.591 2.189 1.256.811 1.7 1.905 1.811 3.285.165 2.085-.588 3.984-1.778 5.496-.772.983-2.325 1.349-3.771 2.12" fill="#fff" sketch:type="MSShapeGroup"/><path d="M25.475 39.243c-.039 2.081-1.525 2.954-2.49 4.236-1.071-2.406-.706-3.051 2.49-4.236" fill="#fff" sketch:type="MSShapeGroup"/><path d="M134.185 46.992c.607.194.98.354 1.37.432 2.451.499 4.19 1.591 4.522 4.402.392 3.31-.101 6.268-2.678 8.551-1.166 1.034-3.103.569-4.372-.738l2.93-2.964c-2.203-.616-2.352-2.1-2.23-3.707.146-1.94.297-3.881.458-5.976" fill="#fff" sketch:type="MSShapeGroup"/><path d="M139.822 38.426c-.693 3.064-2.802 4.571-5.321 6.193l-.295-3.872c1.384-1.597 3.19-2.286 5.616-2.321" fill="#fff" sketch:type="MSShapeGroup"/><path d="M44.317 48.771h-4.18l1.537-8.028c1.714 1.301 2.647 4.197 2.643 8.028" fill="#fff" sketch:type="MSShapeGroup"/></g></svg>