<?xml version="1.0" encoding="UTF-8" standalone="no"?>
<svg width="197px" height="102px" viewBox="0 0 197 102" version="1.1" xmlns="http://www.w3.org/2000/svg" xmlns:xlink="http://www.w3.org/1999/xlink" xmlns:sketch="http://www.bohemiancoding.com/sketch/ns">
    <!-- Generator: Sketch 3.1.1 (8761) - http://www.bohemiancoding.com/sketch -->
    <title>bah-humbug</title>
    <desc>Created with Sketch.</desc>
    <defs></defs>
    <g id="Page-1" stroke="none" stroke-width="1" fill="none" fill-rule="evenodd" sketch:type="MSPage">
        <g id="Group" sketch:type="MSLayerGroup">
            <path d="M196.566846,87.5936 C195.163949,88.9071269 193.742484,89.7779849 193.014215,91.0501408 C192.275631,92.3388452 191.081105,92.8683931 190.041311,93.269691 C188.656981,93.8054445 186.987946,93.7371825 185.446822,93.6999487 C182.079869,93.6234125 178.717042,93.4000095 175.354215,93.2386629 C175.024121,93.224183 174.679586,93.2862394 174.365998,93.2076347 C170.569923,92.2643775 166.831614,93.1207557 163.111874,93.6771947 C160.126591,94.1240007 157.190822,94.9079797 154.234423,95.5388864 C154.073502,95.5740516 153.879572,95.6567935 153.749598,95.6030113 C151.41625,94.6494114 149.060208,95.6092169 146.716544,95.5368178 C141.294759,95.3651285 135.852343,95.0962174 130.449126,95.3982252 C125.142874,95.6940273 119.879946,96.684861 114.588136,97.2909451 C111.652367,97.6281181 108.702157,97.888755 105.751946,98.0356218 C100.078465,98.3190126 94.4008575,98.4865649 88.7273762,98.7306533 C87.9124579,98.7658186 87.0769089,98.8713145 86.2991262,99.1091973 C81.5292757,100.559248 76.5469276,100.195184 71.6883645,100.881942 C70.6506332,99.7359668 68.9733458,101.150853 67.7685047,99.7773378 C67.2733645,99.2126246 65.5857617,99.7049386 64.4386869,99.7111443 C61.1625093,99.7256241 57.8863318,99.7483781 54.6101542,99.7483781 C51.8105491,99.7504467 49.013007,99.7111443 46.215465,99.7359668 C45.8626776,99.7401039 45.5016379,100.006946 45.1674182,100.193116 C44.8228832,100.381353 44.5175467,100.780583 44.1750748,100.809542 C40.8266893,101.08259 37.4762407,101.316336 34.123729,101.506642 C33.5708224,101.537671 32.8136706,101.492163 32.481514,101.157058 C31.3323762,99.9924666 29.9356682,100.267583 28.5678435,100.197253 C24.5386402,99.9924666 20.4784907,100.002809 16.4967383,99.4505075 C13.2886425,99.0037014 10.0351589,98.2859159 7.39441121,96.0353375 C6.67233178,95.4189107 5.67998832,95.052778 4.75160047,94.76525 C3.66848131,94.4301455 3.25999065,93.7702793 3.43947897,92.7360061 C3.92636682,89.9331258 3.07637617,87.7673578 0.693514019,86.1187264 C0.188058411,85.7670736 0.109661215,84.7927882 -0.323586449,83.70887 C1.11644626,83.8929706 2.04896028,84.0108777 2.9814743,84.1287849 C3.08669159,84.0067406 3.28681075,83.8826279 3.28268458,83.7667893 C3.16921495,80.0661599 3.10113318,76.3655305 2.88450935,72.6711068 C2.72565187,69.9861337 2.36254907,67.3115033 2.10466355,64.6327358 C2.07371729,64.307974 2.02832944,63.9335672 2.15417757,63.6563819 C3.31363084,61.0975901 2.07784346,58.4726049 2.69264252,55.9076074 C2.53584813,55.864168 2.37905374,55.822797 2.22225935,55.7814261 C1.96437383,56.3771674 1.70648832,56.9708402 1.38877336,57.7010371 C0.00650700935,56.9625661 -0.0595116822,55.886922 -0.00999766355,54.7016449 C0.136481308,51.2637209 0.301528037,47.8237284 0.340726636,44.3837359 C0.367546729,42.1641857 0.107598131,39.9404984 0.119976636,37.7188797 C0.138544393,34.3595604 0.256140187,30.9981727 0.37786215,27.640922 C0.542908879,23.0466806 0.848245327,18.4545078 0.903948598,13.8602664 C0.936957944,11.185636 0.594485981,8.50686854 0.400556075,5.50540783 C1.36814252,4.46079194 3.09081776,5.02964217 4.50403037,4.97792851 C9.28007009,4.80623917 13.963271,3.93744972 18.695986,3.4947808 C23.2657173,3.06659172 27.870521,3.0210837 32.4608832,2.80595488 C35.3244439,2.67356792 38.1859416,2.45016491 41.0495023,2.43568509 C43.6778715,2.42120526 46.3062407,2.71493884 48.9346098,2.71493884 C51.6145561,2.71493884 54.2945023,2.41086253 56.9723855,2.44395927 C59.7637383,2.47912456 62.550965,2.77492669 65.3402547,2.92386202 C67.7973879,3.05418044 70.254521,3.18036176 72.7137173,3.22793833 C75.3524019,3.27965199 78.0014019,3.36859948 80.6318341,3.20932141 C85.1396729,2.9362733 89.6330701,2.46257619 94.1367827,2.11092332 C96.2679486,1.94543961 98.4073668,1.74892771 100.540596,1.77168172 C106.222329,1.82960102 111.902,2.01783873 117.581671,2.12333459 C122.663047,2.21641918 127.744423,2.4005198 132.821673,2.29502394 C136.836435,2.21228209 140.840881,1.6413633 144.855643,1.49656506 C147.55003,1.39934338 150.25886,1.69721405 152.9615,1.77168172 C155.674456,1.84821793 158.391537,1.83994375 161.106556,1.92061706 C163.322308,1.98681054 165.535998,2.18539098 167.753813,2.21848773 C169.224792,2.23917319 170.699897,2.02611292 172.175002,2.00542745 C173.480935,1.98887908 174.797182,2.01577019 176.092799,2.16056843 C177.955764,2.36535451 179.684629,2.16470552 181.221626,0.995976851 C181.479512,0.799464951 181.801353,0.478840271 182.050986,0.514005559 C184.976439,0.919440637 187.875072,-0.985690523 190.802589,0.422989521 C190.951131,0.493320095 191.107925,0.617432875 191.256467,0.611227236 C192.038376,0.578130494 192.886304,0.123050304 193.484598,1.06010179 C194.146848,2.09851204 194.258255,3.23000688 194.250002,4.43803793 C194.243813,5.32958139 194.677061,6.23767322 194.60279,7.11266832 C194.512014,8.1614213 194.07464,9.17914609 193.818818,10.2175563 C193.703285,10.6912534 193.550617,11.1939102 193.602194,11.6634702 C194.276822,17.6788029 193.181325,23.6713816 193.414453,29.6763716 C193.503166,31.9683209 193.732168,34.2582017 194.002432,36.5356712 C194.885432,43.9741637 196.552404,51.3133661 196.676189,58.8449432 C196.740145,62.8724029 197.018661,66.8998626 196.948516,70.9211166 C196.913444,72.9544977 196.407988,74.9961529 195.949984,76.9964372 C195.549745,78.7443588 195.43215,80.3371395 196.645243,81.8430412 C197.464287,82.860766 197.753119,83.9302044 196.969147,85.2478684 C196.544152,85.9594484 196.655558,86.991653 196.566846,87.5936 L196.566846,87.5936 Z M4.80524065,8.28967117 C4.67939252,9.09640424 4.56798598,9.48942804 4.56385981,9.88452038 C4.51434579,13.597561 4.46483178,17.3106017 4.45245327,21.0257109 C4.44420093,23.5017608 4.47927336,25.9798793 4.52259813,28.4559292 C4.55354439,30.1604114 4.66701402,31.8669621 4.67732944,33.5735128 C4.68764486,35.0566605 4.5783014,36.5418768 4.57417523,38.0270931 C4.5659229,41.0430336 4.54529206,44.0589741 4.62162617,47.0728461 C4.6690771,48.9510862 4.53291355,50.953439 5.14152336,52.6620583 C5.57683411,53.8783635 5.92549533,55.1194913 5.97500935,56.3006312 C6.17925467,61.2175658 7.05193925,66.1200206 6.41650935,71.0617778 C6.34636449,71.6244224 6.22464252,72.4828691 6.52378972,72.7414374 C8.4218271,74.3859317 7.23967991,76.2103896 6.98592056,77.9831338 C6.8126215,79.2015075 6.33604907,80.4757321 6.54029439,81.6279124 C7.12002103,84.8838043 8.52085514,87.9038819 10.3012967,90.6467743 C12.442778,93.9481742 15.8674977,95.3196205 19.6140584,96.1035995 C25.1678808,97.2661225 30.7526495,96.3869904 36.3188505,96.4780064 C39.3350794,96.52972 42.3595607,96.0022407 45.381979,95.7353983 C49.7144556,95.3547857 54.0448692,94.9183225 58.383535,94.6163147 C60.5765935,94.4632423 62.7861565,94.5563269 64.9874673,94.5397785 C65.3175607,94.5377099 65.6476542,94.5666696 65.9756846,94.5480527 C70.6526963,94.2874158 75.3276449,94.0329846 80.0025935,93.7475252 C81.314715,93.6668519 82.616521,93.4496546 83.9265794,93.3875982 C84.7229299,93.3503644 85.533722,93.4331062 86.3218201,93.5613561 C87.4296963,93.7433882 88.5107523,94.1446861 89.6186285,94.2232909 C91.5888738,94.3660206 93.5694346,94.3474037 95.5479322,94.3742948 C96.5155187,94.3867061 97.4975467,94.2481135 98.4486285,94.3618835 C99.5585678,94.496339 100.645813,95.0507094 101.737185,95.0403667 C104.608998,95.0114071 107.478748,94.788004 110.348498,94.6142462 C111.656493,94.5335729 113.009876,94.564601 114.258042,94.2315651 C120.129579,92.6677441 126.106334,92.4753693 132.122287,92.5912079 C134.756846,92.6429215 137.405846,92.8332278 140.025963,92.640853 C145.517893,92.2354179 151.00157,91.6644991 156.476995,91.0646207 C159.161068,90.7708871 161.869897,90.4564681 164.481762,89.8028074 C169.154647,88.6361473 173.749136,87.1612738 178.399327,85.8953234 C182.201591,84.8631188 186.010044,83.7812691 190.039248,84.2735831 C190.455991,84.3232282 190.920185,83.9984664 191.227584,83.8950391 C191.363748,76.5930706 191.497848,69.4710656 191.631949,62.3552663 C189.162437,62.251839 189.007706,62.0408473 189.176879,59.9867808 C189.280033,58.7539272 189.189257,57.5065937 189.247023,56.269603 C189.43889,52.0725226 189.389376,47.8423453 189.936093,43.6928414 C190.544703,39.0675719 190.464243,34.5002216 190.037185,29.8997746 C190.016554,29.6763716 189.847381,29.4674484 189.698839,29.1509608 C189.247023,29.382638 188.838533,29.5915612 188.430042,29.8004843 C186.87035,27.1444709 186.3814,25.1297068 186.810521,23.0218581 C187.75954,18.3634917 188.712685,13.7196053 187.386121,8.9474689 C187.23139,8.3889614 187.7059,7.1209425 188.071065,7.04440629 C189.65964,6.70723324 189.129428,5.44541998 189.620442,4.38425572 C187.629565,4.50629995 185.844998,4.71522313 184.064556,4.69246912 C182.504864,4.67178366 181.149418,4.87243265 180.613016,6.04943551 C178.356002,5.80534704 176.416703,5.45989981 174.471215,5.4061176 C166.414871,5.1827146 158.354402,5.05032764 150.298058,4.87243265 C148.672348,4.83726737 147.044575,4.63868692 145.427117,4.70694895 C142.0581,4.84967864 138.695273,5.1247953 135.32832,5.33578703 C131.969619,5.54471021 128.610918,5.79293576 125.248091,5.92945982 C122.048248,6.06184679 118.842215,6.09701207 115.640308,6.13217736 C113.682442,6.15493137 111.722512,6.07218952 109.764645,6.08253225 C107.051689,6.09701207 104.338734,6.1963023 101.625778,6.1652741 C100.660255,6.15493137 99.7029836,5.81775832 98.731271,5.73294792 C96.9322617,5.57987549 95.1291262,5.45369417 93.3259907,5.4102547 C92.0200584,5.3792265 90.7058738,5.44955708 89.4020047,5.55712148 C86.6292196,5.78673013 83.8646869,6.14045155 81.0898388,6.31214089 C77.9766449,6.50244715 74.8510724,6.66793086 71.7358154,6.62449138 C67.7231168,6.56864063 63.7104182,6.33075781 59.7018458,6.10114917 C55.9346542,5.8839518 52.1674626,5.30269029 48.4085234,5.36888377 C43.5726542,5.45162562 38.7450374,5.9997904 33.9174206,6.39695129 C33.2200981,6.45280204 32.285521,6.562435 31.9100397,7.01958373 C30.9094439,8.24002606 29.8655234,8.37241302 28.4378692,7.96284085 C27.4310841,7.67531291 26.3108294,7.68151855 25.246278,7.71668384 C20.4764276,7.87596191 15.7086402,8.11591328 10.9387897,8.27932844 C8.97267056,8.34552192 7.00448832,8.28967117 4.80524065,8.28967117 L4.80524065,8.28967117 Z M170.258397,89.6249124 C170.299659,89.8172872 170.340921,90.0075935 170.382182,90.1999683 C171.642727,89.986908 172.901208,89.7759163 174.161752,89.5649246 C174.12668,89.339453 174.091607,89.1119129 174.054472,88.8864414 C172.769171,88.9878002 171.465301,88.9526349 170.258397,89.6249124 L170.258397,89.6249124 Z M189.162437,90.876383 C189.185131,90.6385001 189.209888,90.3985488 189.234645,90.1606659 C188.11439,90.3509722 186.994136,90.5392099 185.871818,90.7295162 C185.894512,90.876383 185.915143,91.0232497 185.935773,91.1701165 C187.01064,91.0728949 188.08757,90.9736046 189.162437,90.876383 L189.162437,90.876383 Z" id="Fill-5" fill="#000000" sketch:type="MSShapeGroup"></path>
            <path d="M4.80524065,8.28967117 C7.00448832,8.28967117 8.97267056,8.34552192 10.9387897,8.27932844 C15.7086402,8.11591328 20.4764276,7.87596191 25.246278,7.71668384 C26.3108294,7.68151855 27.4310841,7.67531291 28.4378692,7.96284085 C29.8655234,8.37241302 30.9094439,8.24002606 31.9100397,7.01958373 C32.285521,6.562435 33.2200981,6.45280204 33.9174206,6.39695129 C38.7450374,5.9997904 43.5726542,5.45162562 48.4085234,5.36888377 C52.1674626,5.30269029 55.9346542,5.8839518 59.7018458,6.10114917 C63.7104182,6.33075781 67.7231168,6.56864063 71.7358154,6.62449138 C74.8510724,6.66793086 77.9766449,6.50244715 81.0898388,6.31214089 C83.8646869,6.14045155 86.6292196,5.78673013 89.4020047,5.55712148 C90.7058738,5.44955708 92.0200584,5.3792265 93.3259907,5.4102547 C95.1291262,5.45369417 96.9322617,5.57987549 98.731271,5.73294792 C99.7029836,5.81775832 100.660255,6.15493137 101.625778,6.1652741 C104.338734,6.1963023 107.051689,6.09701207 109.764645,6.08253225 C111.722512,6.07218952 113.682442,6.15493137 115.640308,6.13217736 C118.842215,6.09701207 122.048248,6.06184679 125.248091,5.92945982 C128.610918,5.79293576 131.969619,5.54471021 135.32832,5.33578703 C138.695273,5.1247953 142.0581,4.84967864 145.427117,4.70694895 C147.044575,4.63868692 148.672348,4.83726737 150.298058,4.87243265 C158.354402,5.05032764 166.414871,5.1827146 174.471215,5.4061176 C176.416703,5.45989981 178.356002,5.80534704 180.613016,6.04943551 C181.149418,4.87243265 182.504864,4.67178366 184.064556,4.69246912 C185.844998,4.71522313 187.629565,4.50629995 189.620442,4.38425572 C189.129428,5.44541998 189.65964,6.70723324 188.071065,7.04440629 C187.7059,7.1209425 187.23139,8.3889614 187.386121,8.9474689 C188.712685,13.7196053 187.75954,18.3634917 186.810521,23.0218581 C186.3814,25.1297068 186.87035,27.1444709 188.430042,29.8004843 C188.838533,29.5915612 189.247023,29.382638 189.698839,29.1509608 C189.847381,29.4674484 190.016554,29.6763716 190.037185,29.8997746 C190.464243,34.5002216 190.544703,39.0675719 189.936093,43.6928414 C189.389376,47.8423453 189.43889,52.0725226 189.247023,56.269603 C189.189257,57.5065937 189.280033,58.7539272 189.176879,59.9867808 C189.007706,62.0408473 189.162437,62.251839 191.631949,62.3552663 C191.497848,69.4710656 191.363748,76.5930706 191.227584,83.8950391 C190.920185,83.9984664 190.455991,84.3232282 190.039248,84.2735831 C186.010044,83.7812691 182.201591,84.8631188 178.399327,85.8953234 C173.749136,87.1612738 169.154647,88.6361473 164.481762,89.8028074 C161.869897,90.4564681 159.161068,90.7708871 156.476995,91.0646207 C151.00157,91.6644991 145.517893,92.2354179 140.025963,92.640853 C137.405846,92.8332278 134.756846,92.6429215 132.122287,92.5912079 C126.106334,92.4753693 120.129579,92.6677441 114.258042,94.2315651 C113.009876,94.564601 111.656493,94.5335729 110.348498,94.6142462 C107.478748,94.788004 104.608998,95.0114071 101.737185,95.0403667 C100.645813,95.0507094 99.5585678,94.496339 98.4486285,94.3618835 C97.4975467,94.2481135 96.5155187,94.3867061 95.5479322,94.3742948 C93.5694346,94.3474037 91.5888738,94.3660206 89.6186285,94.2232909 C88.5107523,94.1446861 87.4296963,93.7433882 86.3218201,93.5613561 C85.533722,93.4331062 84.7229299,93.3503644 83.9265794,93.3875982 C82.616521,93.4496546 81.314715,93.6668519 80.0025935,93.7475252 C75.3276449,94.0329846 70.6526963,94.2874158 65.9756846,94.5480527 C65.6476542,94.5666696 65.3175607,94.5377099 64.9874673,94.5397785 C62.7861565,94.5563269 60.5765935,94.4632423 58.383535,94.6163147 C54.0448692,94.9183225 49.7144556,95.3547857 45.381979,95.7353983 C42.3595607,96.0022407 39.3350794,96.52972 36.3188505,96.4780064 C30.7526495,96.3869904 25.1678808,97.2661225 19.6140584,96.1035995 C15.8674977,95.3196205 12.442778,93.9481742 10.3012967,90.6467743 C8.52085514,87.9038819 7.12002103,84.8838043 6.54029439,81.6279124 C6.33604907,80.4757321 6.8126215,79.2015075 6.98592056,77.9831338 C7.23967991,76.2103896 8.4218271,74.3859317 6.52378972,72.7414374 C6.22464252,72.4828691 6.34636449,71.6244224 6.41650935,71.0617778 C7.05193925,66.1200206 6.17925467,61.2175658 5.97500935,56.3006312 C5.92549533,55.1194913 5.57683411,53.8783635 5.14152336,52.6620583 C4.53291355,50.953439 4.6690771,48.9510862 4.62162617,47.0728461 C4.54529206,44.0589741 4.5659229,41.0430336 4.57417523,38.0270931 C4.5783014,36.5418768 4.68764486,35.0566605 4.67732944,33.5735128 C4.66701402,31.8669621 4.55354439,30.1604114 4.52259813,28.4559292 C4.47927336,25.9798793 4.44420093,23.5017608 4.45245327,21.0257109 C4.46483178,17.3106017 4.51434579,13.597561 4.56385981,9.88452038 C4.56798598,9.48942804 4.67939252,9.09640424 4.80524065,8.28967117 L4.80524065,8.28967117 Z M25.5247944,43.9907121 C26.0405654,43.229487 26.5274533,42.6751166 26.8286636,42.0338673 C27.3815701,40.8610015 27.9839907,39.6715874 28.2666332,38.4201169 C28.5472126,37.1810576 27.5816893,35.948204 26.4552453,35.9750951 C23.7711729,36.0433571 21.2892827,36.7652798 19.3190374,38.7324673 C18.6691659,39.3819909 18.3370093,41.8601094 18.9146729,42.600649 C20.4227874,44.5306027 20.6806729,46.7667013 20.7487547,49.0855417 C20.781764,50.2356534 20.8931706,51.3816281 20.9509369,52.5317398 C21.1097944,55.7814261 21.1943808,59.037318 21.4563925,62.2787301 C21.5224112,63.0916688 21.9515327,64.084571 22.5518902,64.5934334 C23.2739696,65.2077917 24.0290584,64.5148287 24.6665514,63.925293 C25.5041636,63.1516566 26.3293972,62.2807986 27.3217407,61.7802104 C30.3379696,60.263966 31.9739953,57.8127386 32.7146425,54.6044233 C33.5419393,51.021701 32.5495958,47.4638014 29.487979,46.1564801 C28.2274346,45.618658 27.0700444,44.8450217 25.5247944,43.9907121 L25.5247944,43.9907121 Z M124.459993,38.4221854 C124.503318,42.759927 121.893516,45.8151699 120.12339,49.2882592 C119.826306,47.2279871 119.719026,45.2194286 119.855189,43.2274185 C120.022299,40.7513686 120.049119,38.3621976 118.472923,36.3019254 C117.037016,36.4363809 116.601706,37.1272754 116.684229,38.4738991 C116.754374,39.5991883 116.589327,40.7844653 116.286054,41.8766578 C114.967743,46.6136288 113.546278,51.3237088 112.199084,56.0544742 C111.968019,56.8694815 111.918505,57.7362024 111.802972,58.458125 C113.350285,59.2752008 114.121879,58.7808183 114.586072,57.5810614 C114.792381,57.0432394 115.033762,56.5074859 115.143105,55.9469098 C115.766157,52.8130621 116.350009,49.6709403 116.960682,46.5350241 C117.012259,46.2743872 117.17318,46.0323673 117.381551,45.5607387 C118.491491,48.1236676 116.296369,51.6215795 119.898514,52.9578604 C122.696056,50.998947 122.929185,47.6458334 124.984016,44.880187 C125.61532,50.552141 125.213019,55.9158816 126.861423,61.0644934 C128.509827,60.9217637 129.070986,60.0157404 129.359818,59.3786282 C128.75946,57.6575976 128.045633,56.4040586 127.917722,55.0905316 C127.589692,51.7415551 127.201832,48.3429335 127.457654,45.0105054 C127.643332,42.5799635 127.387509,40.3955786 126.463248,38.004339 C125.819565,38.1387946 125.144937,38.2794557 124.459993,38.4221854 L124.459993,38.4221854 Z M131.113439,39.8991275 C131.13407,40.1059821 131.101061,40.3686875 131.191836,40.5776107 C132.477138,43.4735755 132.382236,46.4688306 131.814888,49.4889082 C131.255792,52.4510665 132.555535,55.6449021 130.69257,58.4415767 C130.853491,61.7305653 133.793386,64.1838613 136.982914,63.0275439 C139.190414,62.2270164 140.287974,60.441861 141.232867,58.4726049 C142.431519,55.977938 142.454213,53.3777753 141.924,50.7507215 C141.468058,48.4918689 141.001801,46.1875083 138.404379,45.2794164 C138.30535,45.2442512 138.276467,44.9980941 138.208386,44.834679 C138.92015,43.9514097 139.739194,43.1260597 140.32511,42.1600486 C140.997675,41.0471707 141.64961,39.855688 141.973514,38.6104231 C142.441834,36.8294047 141.505194,35.9502725 139.631914,35.9771637 C136.223699,36.0268088 133.490112,37.5016823 131.113439,39.8991275 L131.113439,39.8991275 Z M176.255783,51.1106485 C175.715255,49.8053958 176.68903,47.9768008 174.727037,47.1866162 C172.309103,49.0545135 172.309103,49.0545135 167.297871,49.0917473 C166.509773,50.3101211 164.884063,51.0941002 165.187336,52.8627073 C166.169364,54.6230402 167.442287,52.8833927 168.506839,53.2019489 C169.177341,57.2562996 166.957463,59.9433413 162.528021,60.4915061 C161.397451,59.0745518 160.953888,57.5169365 161.370631,55.6779988 C161.640895,54.4803105 161.700724,53.232977 161.855456,52.0083976 C162.428993,47.4493215 164.681881,43.6783616 167.386584,40.1163248 C167.16996,39.363374 166.953336,38.6104231 166.711956,37.7685248 L164.36004,37.7685248 C163.897909,39.1834104 163.654465,40.5900219 163.00872,41.7794361 C161.308738,44.9112152 159.794435,48.0657483 159.478783,51.6898415 C159.208519,54.792661 158.420421,57.8810006 159.478783,60.9838201 C160.223556,63.1702736 161.756428,64.0142405 163.833953,63.054435 C165.389519,62.3366494 166.889381,61.4058036 168.232449,60.3425707 C169.977818,58.9607818 170.97635,57.0846103 170.924773,54.7616328 C170.906206,53.9507626 170.920647,53.141961 170.920647,52.2090466 C172.754729,51.8325712 174.409322,51.491261 176.255783,51.1106485 L176.255783,51.1106485 Z M85.803986,50.237722 C85.803986,49.1765577 85.8947617,48.2829457 85.7874813,47.4120877 C85.4945234,45.0518764 85.1231682,42.7020077 84.7724439,40.3500706 C84.6445327,39.4874868 84.2154112,38.98483 83.2643294,39.1916846 C82.2554813,39.4109505 81.9645864,40.1039136 82.1151916,41.0326909 C82.1667687,41.3471099 82.420528,41.6263636 82.4803575,41.9428512 C82.9899393,44.5926591 83.5428458,47.2341927 83.9368949,49.9005489 C84.0998785,51.0010156 83.8894439,52.1531959 83.8811916,53.2805536 C83.86675,54.9147052 83.965778,56.5529939 83.8564346,58.1788713 C83.7739112,59.370354 83.8523084,60.423244 84.7538762,61.4844083 C86.2537383,60.1108936 88.0424322,59.1448824 87.5864907,56.75778 C87.5431659,56.5261028 87.5576075,56.2220265 87.6731402,56.0296517 C88.5602664,54.5506411 87.7577266,53.9755852 86.3960911,53.3695011 C88.1951005,53.0343966 89.9941098,52.7013606 91.9065888,52.3476392 C92.329521,55.7897003 92.4161706,59.037318 93.9779252,62.4049114 C94.854736,61.3396101 95.5004813,60.7087034 95.9564229,59.9619582 C96.6186729,58.8759714 96.5897897,57.3783439 95.7397991,56.75778 C94.142972,55.5952569 94.6525537,54.0459157 94.1553505,52.5751793 C94.8918715,52.3931472 95.492229,52.3517763 95.9749907,52.093208 C96.4020491,51.8635994 96.7011963,51.3919708 97.0560467,51.0258381 C96.6805654,50.6741852 96.3587243,50.192214 95.9130981,49.9998391 C95.420021,49.790916 94.8134743,49.8467667 94.0996472,49.7702305 C93.9531682,48.4711834 93.9077804,47.2424669 93.6581472,46.0571899 C93.2537827,44.141716 92.771021,42.2386534 92.205736,40.3666189 C91.9272196,39.4440473 90.9699486,39.431636 90.3613388,39.8184542 C89.973479,40.0687483 89.8146215,40.8837555 89.7981168,41.4526058 C89.7836752,41.8994118 90.1612196,42.3503549 90.3386449,42.8116407 C91.2298972,45.10359 91.7601098,47.4431159 91.4568364,49.8074643 C89.5546729,49.9522626 87.9330888,50.0743068 85.803986,50.237722 L85.803986,50.237722 Z M61.5091075,48.3843045 C61.5276752,44.3258166 61.5544953,40.1763127 61.0820491,36.0619741 C58.7837734,36.2212521 58.8786752,36.2150465 58.996271,37.9919278 C59.2293995,41.5001823 59.3469953,45.0167111 59.5182313,48.6263244 C57.0487196,48.9593603 54.923743,49.2489568 52.7471893,49.5426904 C52.9411192,45.9785851 53.306285,42.6958021 51.7878551,39.6343535 C49.4524439,39.787426 49.4441916,39.9301557 50.0651799,41.8332183 C50.4633551,43.047455 50.5355631,44.3982157 50.5871402,45.6951943 C50.7459977,49.7164483 50.7831332,53.743908 50.9791262,57.7630935 C51.0141986,58.4870847 51.5485374,59.7633778 51.8971986,59.7799261 C52.6791075,59.8150914 53.7147757,59.4137934 54.2222944,58.8221892 C54.7442547,58.2181737 55.0372126,57.1280498 54.9010491,56.3440707 C54.8061472,55.8145229 53.7931729,55.4483902 53.1206075,54.9581447 C53.0649042,54.1493431 53.0030117,53.2557311 52.9431822,52.362119 C55.0784743,52.0311516 57.0982336,51.7188011 59.3181121,51.3754225 C59.4769696,53.7046056 59.8957757,55.6904101 59.6605841,57.5976098 C59.4563388,59.2689952 60.1454089,59.9929864 61.2862944,60.7811026 C62.5550911,59.9743695 62.9058154,59.1572937 62.5097033,57.6534605 C62.0001215,55.7214383 61.3853224,53.6901258 62.0145631,51.6567447 C63.1327547,50.8603544 64.6986355,52.4014214 65.6497173,50.8541488 C64.9771519,48.9779773 62.9140678,49.6233637 61.5091075,48.3843045 L61.5091075,48.3843045 Z M102.997729,37.7064684 C100.835617,37.4954766 99.7690023,38.2525646 99.8370841,39.6964099 C99.9711846,42.4889475 100.20225,45.2897592 100.074339,48.0740225 C99.9196075,51.4167934 100.522028,54.6251087 101.21935,57.8396297 C101.846528,60.7273204 104.12211,61.6581662 106.622568,60.0757283 C107.241493,59.684773 107.942942,59.2441726 108.297792,58.6442942 C109.882241,55.9593211 111.344967,53.2267714 111.252129,49.9315771 C111.18611,47.6272165 111.002495,45.2545939 111.4605,43.0329751 C111.868991,41.0430336 112.168138,39.3509627 110.957107,37.5430532 C110.517671,36.8893926 110.598131,35.8406396 109.422173,36.1281675 C108.31636,36.3970786 108.526794,37.3444728 108.539173,38.1574115 C108.543299,38.4035685 108.524731,38.6600682 108.580435,38.8979511 C109.448993,42.5447982 109.570715,46.243359 108.960042,49.9150287 C108.599002,52.0766597 107.893428,54.2010567 107.136276,56.2654659 C106.901084,56.9067153 105.999516,57.6824202 105.38678,57.6969 C104.778171,57.7093113 104.082911,56.9067153 103.552699,56.3399336 C103.241173,56.0089662 103.121514,55.4566643 103.010107,54.9808987 C102.453075,52.604139 102.238514,50.1984196 102.399435,47.7533978 C102.618121,44.4726834 102.791421,41.1899004 102.997729,37.7064684 L102.997729,37.7064684 Z M48.1341332,49.2613681 C46.3165561,48.7049292 46.1185,47.2403984 46.1205631,45.6021097 C46.1226262,44.7084977 45.7347664,43.8066115 45.7780911,42.9212736 C45.89775,40.4141955 44.4102664,38.8048665 42.8278808,37.2244971 C41.7158785,36.1116192 40.8431939,36.3205423 40.403757,37.8885005 C40.1438084,38.8172777 40.2882243,39.8763735 39.9663832,40.7741226 C38.097229,45.9868593 37.8393435,51.7725833 34.4455701,56.4578408 C34.2021262,56.7929453 34.2640187,57.765162 34.5342827,57.965811 C34.9634042,58.2843672 35.9062336,58.4870847 36.2466425,58.2285164 C37.0471192,57.6203638 37.8001449,56.7991509 38.2416449,55.9014018 C38.8399393,54.6809595 39.1308341,53.3074447 39.5578925,51.9897807 C40.4326402,51.9359985 41.2516846,51.8987647 42.0686659,51.8305026 C42.9165935,51.7601721 43.7603949,51.6588133 44.7754322,51.5533174 C45.0188762,54.1121092 45.2334369,56.3420022 45.4500607,58.6194717 C47.539965,58.0278674 47.539965,58.0278674 48.2702967,56.4123327 C46.5476215,53.3281302 46.5269907,52.649647 48.1341332,49.2613681 L48.1341332,49.2613681 Z M145.701507,37.8098957 C145.604542,38.6249029 145.64993,39.4006078 145.410612,40.0749539 C143.79728,44.611276 144.10468,49.325493 144.01803,54.0066134 C143.985021,55.9179502 144.717416,57.6245009 145.831481,59.0166326 C147.593355,61.2196344 149.190182,61.9312143 151.267708,58.9793987 C152.588082,57.1073643 153.815617,55.1194913 154.746068,53.0302595 C155.775547,50.7217618 156.555393,48.272603 157.192886,45.8213756 C157.723098,43.7817889 157.238273,41.7173797 156.283065,39.8680993 C155.711591,38.761427 154.849222,38.6559311 154.090007,39.2827007 C153.2689,39.9591153 153.002762,41.2726422 153.821806,41.8146014 C155.431012,42.8799027 155.144243,44.3733932 154.989512,45.8048272 C154.521192,50.1198148 151.993914,53.5722186 149.988596,57.2252714 C149.474888,58.1623229 148.350507,58.0919923 147.787285,57.1632151 C147.288019,56.3378651 146.856834,55.4111563 146.658778,54.4741048 C145.761336,50.2046252 145.905752,46.0034077 147.463381,41.8559723 C147.906944,40.6706952 147.873935,39.299249 148.012161,38.0084761 C148.030729,37.8285126 147.785222,37.621658 147.616049,37.3589526 C146.976493,37.5099565 146.367883,37.6526862 145.701507,37.8098957 L145.701507,37.8098957 Z M67.7437477,65.8014645 C70.0399603,65.4001665 71.2633692,64.531377 71.7028061,63.1661365 C71.822465,62.7958667 71.9606916,62.1628915 71.7812033,62.005682 C70.6155607,60.9879572 71.3974696,59.9619582 71.628535,58.9173423 C72.0163949,57.1611465 72.3361729,55.398745 71.1684673,53.6653032 C70.2524579,54.0790125 69.7098668,54.4079114 69.664479,55.6097368 C69.5695771,58.1312947 69.2869346,60.6549212 68.047021,62.9841044 C67.6715397,63.6894787 67.8448388,64.6885866 67.7437477,65.8014645 L67.7437477,65.8014645 Z" id="Fill-42" sketch:type="MSShapeGroup"></path>
            <path d="M170.258397,89.6249124 C171.465301,88.9526349 172.769171,88.9878002 174.054472,88.8864414 C174.091607,89.1119129 174.12668,89.339453 174.161752,89.5649246 C172.901208,89.7759163 171.642727,89.986908 170.382182,90.1999683 C170.340921,90.0075935 170.299659,89.8172872 170.258397,89.6249124" id="Fill-43" sketch:type="MSShapeGroup"></path>
            <path d="M189.162437,90.876383 C188.08757,90.9736046 187.01064,91.0728949 185.935773,91.1701165 C185.915143,91.0232497 185.894512,90.876383 185.871818,90.7295162 C186.994136,90.5392099 188.11439,90.3509722 189.234645,90.1606659 C189.209888,90.3985488 189.185131,90.6385001 189.162437,90.876383" id="Fill-44" sketch:type="MSShapeGroup"></path>
            <path d="M25.5247944,43.9907121 C27.0700444,44.8450217 28.2274346,45.618658 29.487979,46.1564801 C32.5495958,47.4638014 33.5419393,51.021701 32.7146425,54.6044233 C31.9739953,57.8127386 30.3379696,60.263966 27.3217407,61.7802104 C26.3293972,62.2807986 25.5041636,63.1516566 24.6665514,63.925293 C24.0290584,64.5148287 23.2739696,65.2077917 22.5518902,64.5934334 C21.9515327,64.084571 21.5224112,63.0916688 21.4563925,62.2787301 C21.1943808,59.037318 21.1097944,55.7814261 20.9509369,52.5317398 C20.8931706,51.3816281 20.781764,50.2356534 20.7487547,49.0855417 C20.6806729,46.7667013 20.4227874,44.5306027 18.9146729,42.600649 C18.3370093,41.8601094 18.6691659,39.3819909 19.3190374,38.7324673 C21.2892827,36.7652798 23.7711729,36.0433571 26.4552453,35.9750951 C27.5816893,35.948204 28.5472126,37.1810576 28.2666332,38.4201169 C27.9839907,39.6715874 27.3815701,40.8610015 26.8286636,42.0338673 C26.5274533,42.6751166 26.0405654,43.229487 25.5247944,43.9907121 L25.5247944,43.9907121 Z M25.1905748,59.6806359 C26.6367967,58.9090681 28.1902991,58.5429354 28.9618925,57.5603759 C30.1522921,56.0482686 30.9053178,54.1493431 30.740271,52.0642484 C30.6288645,50.684528 30.1853014,49.590267 28.9288832,48.7793968 C27.1484416,47.6313536 25.1431238,47.2817693 23.3379252,46.5908748 C23.9485981,50.9120681 24.5386402,55.0698462 25.1905748,59.6806359 L25.1905748,59.6806359 Z M25.4752804,39.2433983 C22.2795631,40.4286753 21.9143972,41.0740618 22.9851379,43.4797812 C23.9506612,42.1972824 25.4360818,41.3243559 25.4752804,39.2433983 L25.4752804,39.2433983 Z" id="Fill-139" fill="#000000" sketch:type="MSShapeGroup"></path>
            <path d="M124.459993,38.4221854 C125.144937,38.2794557 125.819565,38.1387946 126.463248,38.004339 C127.387509,40.3955786 127.643332,42.5799635 127.457654,45.0105054 C127.201832,48.3429335 127.589692,51.7415551 127.917722,55.0905316 C128.045633,56.4040586 128.75946,57.6575976 129.359818,59.3786282 C129.070986,60.0157404 128.509827,60.9217637 126.861423,61.0644934 C125.213019,55.9158816 125.61532,50.552141 124.984016,44.880187 C122.929185,47.6458334 122.696056,50.998947 119.898514,52.9578604 C116.296369,51.6215795 118.491491,48.1236676 117.381551,45.5607387 C117.17318,46.0323673 117.012259,46.2743872 116.960682,46.5350241 C116.350009,49.6709403 115.766157,52.8130621 115.143105,55.9469098 C115.033762,56.5074859 114.792381,57.0432394 114.586072,57.5810614 C114.121879,58.7808183 113.350285,59.2752008 111.802972,58.458125 C111.918505,57.7362024 111.968019,56.8694815 112.199084,56.0544742 C113.546278,51.3237088 114.967743,46.6136288 116.286054,41.8766578 C116.589327,40.7844653 116.754374,39.5991883 116.684229,38.4738991 C116.601706,37.1272754 117.037016,36.4363809 118.472923,36.3019254 C120.049119,38.3621976 120.022299,40.7513686 119.855189,43.2274185 C119.719026,45.2194286 119.826306,47.2279871 120.12339,49.2882592 C121.893516,45.8151699 124.503318,42.759927 124.459993,38.4221854" id="Fill-140" fill="#000000" sketch:type="MSShapeGroup"></path>
            <path d="M131.113439,39.8991275 C133.490112,37.5016823 136.223699,36.0268088 139.631914,35.9771637 C141.505194,35.9502725 142.441834,36.8294047 141.973514,38.6104231 C141.64961,39.855688 140.997675,41.0471707 140.32511,42.1600486 C139.739194,43.1260597 138.92015,43.9514097 138.208386,44.834679 C138.276467,44.9980941 138.30535,45.2442512 138.404379,45.2794164 C141.001801,46.1875083 141.468058,48.4918689 141.924,50.7507215 C142.454213,53.3777753 142.431519,55.977938 141.232867,58.4726049 C140.287974,60.441861 139.190414,62.2270164 136.982914,63.0275439 C133.793386,64.1838613 130.853491,61.7305653 130.69257,58.4415767 C132.555535,55.6449021 131.255792,52.4510665 131.814888,49.4889082 C132.382236,46.4688306 132.477138,43.4735755 131.191836,40.5776107 C131.101061,40.3686875 131.13407,40.1059821 131.113439,39.8991275 L131.113439,39.8991275 Z M134.185371,46.9921728 C134.024451,49.0876102 133.873846,51.0279067 133.727367,52.9682031 C133.605645,54.5754636 133.754187,56.0586113 135.957561,56.6750381 C134.800171,57.8458353 133.913044,58.7435844 133.027981,59.639265 C134.296778,60.9465863 136.234014,61.4120092 137.399657,60.377736 C139.976449,58.0940609 140.469526,55.1360397 140.07754,51.8263655 C139.745383,49.0152111 138.006203,47.9230186 135.555259,47.424499 C135.165336,47.3458942 134.791918,47.1866162 134.185371,46.9921728 L134.185371,46.9921728 Z M139.821717,38.4263225 C137.39553,38.4614878 135.590332,39.1503137 134.206002,40.7472315 C134.300904,42.0007705 134.389617,43.1653621 134.501023,44.6195502 C137.020049,42.9978099 139.128521,41.4898396 139.821717,38.4263225 L139.821717,38.4263225 Z" id="Fill-141" fill="#000000" sketch:type="MSShapeGroup"></path>
            <path d="M176.255783,51.1106485 C174.409322,51.491261 172.754729,51.8325712 170.920647,52.2090466 C170.920647,53.141961 170.906206,53.9507626 170.924773,54.7616328 C170.97635,57.0846103 169.977818,58.9607818 168.232449,60.3425707 C166.889381,61.4058036 165.389519,62.3366494 163.833953,63.054435 C161.756428,64.0142405 160.223556,63.1702736 159.478783,60.9838201 C158.420421,57.8810006 159.208519,54.792661 159.478783,51.6898415 C159.794435,48.0657483 161.308738,44.9112152 163.00872,41.7794361 C163.654465,40.5900219 163.897909,39.1834104 164.36004,37.7685248 L166.711956,37.7685248 C166.953336,38.6104231 167.16996,39.363374 167.384521,40.1163248 C164.681881,43.6783616 162.428993,47.4493215 161.855456,52.0083976 C161.700724,53.232977 161.640895,54.4803105 161.370631,55.6779988 C160.953888,57.5169365 161.397451,59.0745518 162.528021,60.4915061 C166.957463,59.9433413 169.177341,57.2562996 168.506839,53.2019489 C167.442287,52.8833927 166.169364,54.6230402 165.187336,52.8627073 C164.884063,51.0941002 166.509773,50.3101211 167.297871,49.0917473 C172.309103,49.0545135 172.309103,49.0545135 174.727037,47.1866162 C176.68903,47.9768008 175.715255,49.8053958 176.255783,51.1106485" id="Fill-142" fill="#000000" sketch:type="MSShapeGroup"></path>
            <path d="M85.803986,50.237722 C87.9330888,50.0743068 89.5546729,49.9522626 91.4568364,49.8074643 C91.7601098,47.4431159 91.2298972,45.10359 90.3386449,42.8116407 C90.1612196,42.3503549 89.7836752,41.8994118 89.7981168,41.4526058 C89.8146215,40.8837555 89.973479,40.0687483 90.3613388,39.8184542 C90.9699486,39.431636 91.9272196,39.4440473 92.205736,40.3666189 C92.771021,42.2386534 93.2537827,44.141716 93.6581472,46.0571899 C93.9077804,47.2424669 93.9531682,48.4711834 94.0996472,49.7702305 C94.8134743,49.8467667 95.420021,49.790916 95.9130981,49.9998391 C96.3587243,50.192214 96.6805654,50.6741852 97.0560467,51.0258381 C96.7011963,51.3919708 96.4020491,51.8635994 95.9749907,52.093208 C95.492229,52.3517763 94.8918715,52.3931472 94.1553505,52.5751793 C94.6525537,54.0459157 94.142972,55.5952569 95.7397991,56.75778 C96.5897897,57.3783439 96.6186729,58.8759714 95.9564229,59.9619582 C95.5004813,60.7087034 94.854736,61.3396101 93.9779252,62.4049114 C92.4161706,59.037318 92.329521,55.7897003 91.9065888,52.3476392 C89.9941098,52.7013606 88.1951005,53.0343966 86.3960911,53.3695011 C87.7577266,53.9755852 88.5602664,54.5506411 87.6731402,56.0296517 C87.5576075,56.2220265 87.5431659,56.5261028 87.5864907,56.75778 C88.0424322,59.1448824 86.2537383,60.1108936 84.7538762,61.4844083 C83.8523084,60.423244 83.7739112,59.370354 83.8564346,58.1788713 C83.965778,56.5529939 83.86675,54.9147052 83.8811916,53.2805536 C83.8894439,52.1531959 84.0998785,51.0010156 83.9368949,49.9005489 C83.5428458,47.2341927 82.9899393,44.5926591 82.4803575,41.9428512 C82.420528,41.6263636 82.1667687,41.3471099 82.1151916,41.0326909 C81.9645864,40.1039136 82.2554813,39.4109505 83.2643294,39.1916846 C84.2154112,38.98483 84.6445327,39.4874868 84.7724439,40.3500706 C85.1231682,42.7020077 85.4945234,45.0518764 85.7874813,47.4120877 C85.8947617,48.2829457 85.803986,49.1765577 85.803986,50.237722" id="Fill-143" fill="#000000" sketch:type="MSShapeGroup"></path>
            <path d="M61.5091075,48.3843045 C62.9140678,49.6233637 64.9771519,48.9779773 65.6497173,50.8541488 C64.6986355,52.4014214 63.1327547,50.8603544 62.0145631,51.6567447 C61.3853224,53.6901258 62.0001215,55.7214383 62.5097033,57.6534605 C62.9058154,59.1572937 62.5550911,59.9743695 61.2862944,60.7811026 C60.1454089,59.9929864 59.4563388,59.2689952 59.6605841,57.5976098 C59.8957757,55.6904101 59.4769696,53.7046056 59.3181121,51.3754225 C57.0982336,51.7188011 55.0784743,52.0311516 52.9431822,52.362119 C53.0030117,53.2557311 53.0649042,54.1493431 53.1206075,54.9581447 C53.7931729,55.4483902 54.8061472,55.8145229 54.9010491,56.3440707 C55.0372126,57.1280498 54.7442547,58.2181737 54.2222944,58.8221892 C53.7147757,59.4137934 52.6791075,59.8150914 51.8971986,59.7799261 C51.5485374,59.7633778 51.0141986,58.4870847 50.9791262,57.7630935 C50.7831332,53.743908 50.7459977,49.7164483 50.5871402,45.6951943 C50.5355631,44.3982157 50.4633551,43.047455 50.0651799,41.8332183 C49.4441916,39.9301557 49.4524439,39.787426 51.7878551,39.6343535 C53.306285,42.6958021 52.9411192,45.9785851 52.7471893,49.5426904 C54.923743,49.2489568 57.0487196,48.9593603 59.5182313,48.6263244 C59.3469953,45.0167111 59.2293995,41.5001823 58.996271,37.9919278 C58.8786752,36.2150465 58.7837734,36.2212521 61.0820491,36.0619741 C61.5544953,40.1763127 61.5276752,44.3258166 61.5091075,48.3843045" id="Fill-144" fill="#000000" sketch:type="MSShapeGroup"></path>
            <path d="M102.997729,37.7064684 C102.791421,41.1899004 102.618121,44.4726834 102.399435,47.7533978 C102.238514,50.1984196 102.453075,52.604139 103.010107,54.9808987 C103.121514,55.4566643 103.241173,56.0089662 103.552699,56.3399336 C104.082911,56.9067153 104.778171,57.7093113 105.38678,57.6969 C105.999516,57.6824202 106.901084,56.9067153 107.136276,56.2654659 C107.893428,54.2010567 108.599002,52.0766597 108.960042,49.9150287 C109.570715,46.243359 109.448993,42.5447982 108.580435,38.8979511 C108.524731,38.6600682 108.543299,38.4035685 108.539173,38.1574115 C108.526794,37.3444728 108.31636,36.3970786 109.422173,36.1281675 C110.598131,35.8406396 110.517671,36.8893926 110.957107,37.5430532 C112.168138,39.3509627 111.868991,41.0430336 111.4605,43.0329751 C111.002495,45.2545939 111.18611,47.6272165 111.252129,49.9315771 C111.344967,53.2267714 109.882241,55.9593211 108.297792,58.6442942 C107.942942,59.2441726 107.241493,59.684773 106.622568,60.0757283 C104.12211,61.6581662 101.846528,60.7273204 101.21935,57.8396297 C100.522028,54.6251087 99.9196075,51.4167934 100.074339,48.0740225 C100.20225,45.2897592 99.9711846,42.4889475 99.8370841,39.6964099 C99.7690023,38.2525646 100.835617,37.4954766 102.997729,37.7064684" id="Fill-145" fill="#000000" sketch:type="MSShapeGroup"></path>
            <path d="M48.1341332,49.2613681 C46.5269907,52.649647 46.5476215,53.3281302 48.2702967,56.4123327 C47.539965,58.0278674 47.539965,58.0278674 45.4500607,58.6194717 C45.2334369,56.3420022 45.0188762,54.1121092 44.7754322,51.5533174 C43.7603949,51.6588133 42.9165935,51.7601721 42.0686659,51.8305026 C41.2516846,51.8987647 40.4326402,51.9359985 39.5578925,51.9897807 C39.1308341,53.3074447 38.8399393,54.6809595 38.2416449,55.9014018 C37.8001449,56.7991509 37.0471192,57.6203638 36.2466425,58.2285164 C35.9062336,58.4870847 34.9634042,58.2843672 34.5342827,57.965811 C34.2640187,57.765162 34.2021262,56.7929453 34.4455701,56.4578408 C37.8393435,51.7725833 38.097229,45.9868593 39.9663832,40.7741226 C40.2882243,39.8763735 40.1438084,38.8172777 40.403757,37.8885005 C40.8431939,36.3205423 41.7158785,36.1116192 42.8278808,37.2244971 C44.4102664,38.8048665 45.89775,40.4141955 45.7780911,42.9212736 C45.7347664,43.8066115 46.1226262,44.7084977 46.1205631,45.6021097 C46.1185,47.2403984 46.3165561,48.7049292 48.1341332,49.2613681 L48.1341332,49.2613681 Z M44.3174276,48.7711226 C44.3215537,44.9401749 43.3890397,42.04421 41.6746168,40.7430944 C41.1526565,43.471507 40.6472009,46.106835 40.1376192,48.7711226 L44.3174276,48.7711226 L44.3174276,48.7711226 Z" id="Fill-146" fill="#000000" sketch:type="MSShapeGroup"></path>
            <path d="M145.701507,37.8098957 C146.367883,37.6526862 146.976493,37.5099565 147.616049,37.3589526 C147.785222,37.621658 148.030729,37.8285126 148.012161,38.0084761 C147.873935,39.299249 147.906944,40.6706952 147.463381,41.8559723 C145.905752,46.0034077 145.761336,50.2046252 146.658778,54.4741048 C146.856834,55.4111563 147.288019,56.3378651 147.787285,57.1632151 C148.350507,58.0919923 149.474888,58.1623229 149.988596,57.2252714 C151.993914,53.5722186 154.521192,50.1198148 154.989512,45.8048272 C155.144243,44.3733932 155.431012,42.8799027 153.821806,41.8146014 C153.002762,41.2726422 153.2689,39.9591153 154.090007,39.2827007 C154.849222,38.6559311 155.711591,38.761427 156.283065,39.8680993 C157.238273,41.7173797 157.723098,43.7817889 157.192886,45.8213756 C156.555393,48.272603 155.775547,50.7217618 154.746068,53.0302595 C153.815617,55.1194913 152.588082,57.1073643 151.267708,58.9793987 C149.190182,61.9312143 147.593355,61.2196344 145.831481,59.0166326 C144.717416,57.6245009 143.985021,55.9179502 144.01803,54.0066134 C144.10468,49.325493 143.79728,44.611276 145.410612,40.0749539 C145.64993,39.4006078 145.604542,38.6249029 145.701507,37.8098957" id="Fill-147" fill="#000000" sketch:type="MSShapeGroup"></path>
            <path d="M67.7437477,65.8014645 C67.8448388,64.6885866 67.6715397,63.6894787 68.047021,62.9841044 C69.2869346,60.6549212 69.5695771,58.1312947 69.664479,55.6097368 C69.7098668,54.4079114 70.2524579,54.0790125 71.1684673,53.6653032 C72.3361729,55.398745 72.0163949,57.1611465 71.628535,58.9173423 C71.3974696,59.9619582 70.6155607,60.9879572 71.7812033,62.005682 C71.9606916,62.1628915 71.822465,62.7958667 71.7028061,63.1661365 C71.2633692,64.531377 70.0399603,65.4001665 67.7437477,65.8014645" id="Fill-148" fill="#000000" sketch:type="MSShapeGroup"></path>
            <path d="M25.1905748,59.6806359 C24.5386402,55.0698462 23.9485981,50.9120681 23.3379252,46.5908748 C25.1431238,47.2817693 27.1484416,47.6313536 28.9288832,48.7793968 C30.1853014,49.590267 30.6288645,50.684528 30.740271,52.0642484 C30.9053178,54.1493431 30.1522921,56.0482686 28.9618925,57.5603759 C28.1902991,58.5429354 26.6367967,58.9090681 25.1905748,59.6806359" id="Fill-240" sketch:type="MSShapeGroup"></path>
            <path d="M25.4752804,39.2433983 C25.4360818,41.3243559 23.9506612,42.1972824 22.9851379,43.4797812 C21.9143972,41.0740618 22.2795631,40.4286753 25.4752804,39.2433983" id="Fill-241" sketch:type="MSShapeGroup"></path>
            <path d="M134.185371,46.9921728 C134.791918,47.1866162 135.165336,47.3458942 135.555259,47.424499 C138.006203,47.9230186 139.745383,49.0152111 140.07754,51.8263655 C140.469526,55.1360397 139.976449,58.0940609 137.399657,60.377736 C136.234014,61.4120092 134.296778,60.9465863 133.027981,59.639265 C133.913044,58.7435844 134.800171,57.8458353 135.957561,56.6750381 C133.754187,56.0586113 133.605645,54.5754636 133.727367,52.9682031 C133.873846,51.0279067 134.024451,49.0876102 134.185371,46.9921728" id="Fill-242" sketch:type="MSShapeGroup"></path>
            <path d="M139.821717,38.4263225 C139.128521,41.4898396 137.020049,42.9978099 134.501023,44.6195502 C134.389617,43.1653621 134.300904,42.0007705 134.206002,40.7472315 C135.590332,39.1503137 137.39553,38.4614878 139.821717,38.4263225" id="Fill-243" sketch:type="MSShapeGroup"></path>
            <path d="M44.3174276,48.7711226 L40.1376192,48.7711226 C40.6472009,46.106835 41.1526565,43.471507 41.6746168,40.7430944 C43.3890397,42.04421 44.3215537,44.9401749 44.3174276,48.7711226" id="Fill-244" sketch:type="MSShapeGroup"></path>
        </g>
    </g>
</svg>