<?xml version="1.0" encoding="UTF-8" standalone="no"?>
<svg width="120px" height="88px" viewBox="0 0 120 88" version="1.1" xmlns="http://www.w3.org/2000/svg" xmlns:xlink="http://www.w3.org/1999/xlink" xmlns:sketch="http://www.bohemiancoding.com/sketch/ns">
    <!-- Generator: Sketch 3.1.1 (8761) - http://www.bohemiancoding.com/sketch -->
    <title>check-it-twice</title>
    <desc>Created with Sketch.</desc>
    <defs></defs>
    <g id="Page-1" stroke="none" stroke-width="1" fill="none" fill-rule="evenodd" sketch:type="MSPage">
        <g id="Desktop-2" sketch:type="MSArtboardGroup" transform="translate(-615.000000, -816.000000)">
            <rect id="Rectangle-1" opacity="0.869927705" sketch:type="MSShapeGroup" x="0" y="0" width="1024" height="1024"></rect>
            <g id="Imported-Layers" sketch:type="MSLayerGroup" transform="translate(615.000000, 816.000000)">
                <path d="M-0.340395062,36.1234407 C-0.186765432,35.7297288 0.0271111111,35.4159661 0.046691358,35.0901356 C0.129530864,33.6193729 0.0888641975,32.1395593 0.219901235,30.676339 C0.39762963,28.6957119 0.89617284,26.7256441 0.887135802,24.7525593 C0.87508642,22.2620678 1.87217284,20.0612034 2.46560494,17.7517288 C2.78039506,16.5313729 3.53498765,15.428678 4.06516049,14.2611186 C4.33024691,13.677339 4.46730864,13.025678 4.78209877,12.4735763 C5.52464198,11.1702542 6.32441975,9.89861017 7.14076543,8.64054237 C7.25824691,8.45952542 7.6197284,8.455 7.83209877,8.31622034 C9.27350617,7.36738983 10.6561728,6.31749153 12.1533086,5.47123729 C13.7724444,4.55408475 15.3132593,3.27338983 17.3993086,3.68822034 C18.3271111,3.87376271 19.3392593,3.89940678 20.1556049,4.31122034 C20.9162222,4.69437288 21.5021235,5.46218644 22.1000741,6.11837288 C22.7417037,6.82283051 23.3080247,7.59667797 23.9074815,8.34035593 C23.9421235,8.38259322 24.0234568,8.43991525 24.0144198,8.45650847 C23.4887654,9.50489831 24.2915556,10.3436102 24.4768148,11.2728305 C24.6138765,11.9591864 25.0295802,12.5987797 25.1109136,13.2851356 C25.2058025,14.0846271 25.0295802,14.9127797 25.0491605,15.7273559 C25.0762716,16.9069831 25.2329136,18.0866102 25.2253827,19.2647288 C25.219358,20.1728305 25.122963,21.0990339 24.9256543,21.9860169 C24.5686914,23.5955593 24.1349136,25.1900169 23.6755309,26.7739153 C23.4405679,27.5839661 23.2221728,28.4649153 22.7311605,29.1105424 C22.326,29.6430339 21.5653827,30.053339 20.8981481,30.1785424 C20.4734074,30.2569831 19.8844938,29.7727627 19.467284,29.4227966 C19.2835309,29.2704407 19.345284,28.8254407 19.4251111,28.5946441 C19.9251605,27.3561864 20.4598519,26.1313051 20.9101975,24.8747458 C21.2249877,23.998322 21.5367654,23.0947458 21.6497284,22.1775932 C21.8199259,20.797339 21.9042716,19.3929492 21.8636049,18.0036441 C21.8108889,16.2673898 21.6964198,14.5205763 21.4102469,12.8114746 C21.2159506,11.6514576 21.1195556,10.3948983 20.1149383,9.47925424 C19.7534568,9.15040678 19.7022469,8.50327119 19.3995062,8.08089831 C18.2201728,6.44118644 16.8616049,6.50755932 15.2740988,7.33722034 C13.5811605,8.22269492 11.8746667,9.14588136 10.3684938,10.3058983 C9.35483951,11.0857797 8.48879012,12.1266271 8.12279012,13.5234746 C7.82306173,14.6638814 7.18896296,15.721322 6.66632099,16.7968644 C6.10753086,17.946322 5.31679012,18.9826441 5.35896296,20.381 C5.37402469,20.8893559 4.94175309,21.3946949 4.83933333,21.9241695 C4.57876543,23.286322 4.32723457,24.6545085 4.18264198,26.0302373 C3.98834568,27.8781186 3.82567901,29.7350508 3.77748148,31.5919831 C3.70367901,34.3962373 3.73530864,37.2035085 3.73380247,40.0092712 C3.7322963,41.2839322 3.58920988,42.5872542 3.80911111,43.8257119 C4.20523457,46.0657966 4.26096296,48.4069492 5.34691358,50.4795932 C5.79274074,51.3303729 6.26567901,52.2248983 6.94044444,52.8810847 C7.51580247,53.4407288 8.37130864,53.7514746 9.15,54.054678 C10.482963,54.5751017 11.8490617,55.0065254 13.2061235,55.4620847 C13.3733086,55.5178983 13.5841728,55.5525932 13.742321,55.4997966 C15.2816296,55.0050169 16.9399259,54.9612712 18.3768148,54.0395932 C19.5184938,53.3079831 20.7324691,52.7000678 21.6542469,51.6727966 C21.9539753,51.3379153 22.2326173,50.9819153 22.5127654,50.6289322 C23.1046914,49.8837458 23.7056543,49.1445932 24.278,48.3828136 C24.6455062,47.8955763 25.0521728,47.4098475 25.2961728,46.8607627 C26.2525926,44.7081695 27.206,42.5510508 28.0479506,40.3516949 C28.4666667,39.2565424 28.6428889,38.0693729 28.923037,36.9214237 C29.2995802,35.3737288 29.689679,33.8275424 30.0345926,32.2723051 C30.2484691,31.3174407 30.4051111,30.3474915 30.5587407,29.3805593 C30.8057531,27.8404068 31.0618025,26.3017627 31.2515802,24.7540678 C31.4940741,22.784 31.7154815,20.8109153 31.8660988,18.8333051 C31.9926173,17.1875593 31.9715309,15.5297458 32.0724444,13.8809831 C32.2290864,11.3180847 32.4700741,8.75971186 32.6026173,6.19681356 C32.6658765,4.97947458 32.5875556,3.75459322 32.5273086,2.53574576 C32.4670617,1.30332203 33.3858272,0.282084746 34.6284198,0.223254237 C34.970321,0.206661017 35.3061975,0.0678813559 35.6465926,-0.0150847458 C36.1933333,0.794966102 36.7686914,1.62613559 36.669284,2.68659322 C36.5759012,3.66861017 36.3936543,4.64459322 36.3002716,5.62661017 C36.2596049,6.06255932 36.365037,6.51057627 36.3620247,6.95255932 C36.356,8.06128814 36.3168395,9.16850847 36.3078025,10.2772373 C36.3017778,10.9997966 36.3846173,11.7268814 36.3228642,12.4434068 C36.1165185,14.8222712 35.8936049,17.1996271 35.6164691,19.5709492 C35.4959753,20.5997288 35.2263704,21.6104068 35.0215309,22.6271186 C34.4973827,25.2458305 34.4416543,27.8735932 34.700716,30.5300169 C34.7925926,31.4637627 34.5877531,32.4261695 34.5139506,33.4368475 C34.6615556,33.4187458 34.857358,33.4564576 34.9236296,33.3810339 C36.7671852,31.2646441 39.2342963,31.1846949 41.7541235,31.2510678 C43.0253333,31.2857627 44.0359753,31.8393729 44.8673827,32.7640678 C44.9999259,32.9134068 45.1279506,33.0898983 45.1881975,33.2769492 C45.8268148,35.2771864 46.4699506,37.2472542 46.7711852,39.3681695 C47.0935062,41.623339 46.9971111,43.8513559 47.1191111,46.0899322 C47.1929136,47.4354915 47.4203457,48.7780339 47.6628395,50.1054915 C47.7050123,50.3347797 48.1869877,50.6651356 48.434,50.641 C49.5696543,50.5248475 50.6947654,50.3000847 52.0232099,50.0813559 C51.8274074,49.5217119 51.6180494,49.0555932 51.4975556,48.5683559 C50.9252099,46.2287119 51.0818519,43.8543729 51.4960494,41.5388644 C51.7867407,39.9097119 52.4389136,38.330339 53.0624691,36.7826441 C53.3260494,36.1309831 53.9571358,35.6331864 54.3788642,35.0358305 C54.7614321,34.4897627 55.213284,34.1805254 55.9000988,34.0628644 C56.3082716,33.9934746 56.6215556,33.4368475 57.0372593,33.3282373 C58.028321,33.0717966 59.0751111,32.7338983 60.058642,32.8364746 C61.0677778,32.9420678 62.1145679,33.3629322 62.7938519,34.2981864 C63.1749136,34.8231356 63.727679,35.2696441 63.9641481,35.8488983 C64.7624198,37.8008644 64.6479506,39.7980847 63.9957778,41.7802203 C63.7653333,42.4786441 63.6463457,43.2389153 63.2954074,43.8694576 C62.786321,44.7790678 62.1552346,45.6313559 61.4955309,46.4444237 C60.5376049,47.6270678 59.5164198,48.7599322 58.5012593,49.8943051 C58.3099753,50.107 58.0207901,50.2306949 57.7014815,50.4448983 C57.8159506,50.5354068 57.9018025,50.6606102 58.0057284,50.6756949 C60.4186173,51.0452712 62.9233827,51.6969322 65.1299259,50.2125932 C66.3198025,49.4115932 67.4825679,48.2817458 68.1317284,47.0282034 C69.1017037,45.154678 69.8231605,43.1137119 70.7886173,41.2401864 C71.7058765,39.4616949 73.2421728,38.0150678 74.367284,36.3301017 C75.4758272,34.6692712 77.2320247,33.9271017 78.7909136,32.9134068 C79.8708395,32.2119661 81.5698025,33.2513051 81.6481235,34.5244576 C81.6978272,35.3088644 81.1661481,35.8006271 80.6389877,36.0585763 C79.2246914,36.7524746 78.0559012,37.7465593 77.0301975,38.8824407 C76.3795309,39.6019831 75.9728642,40.5432712 75.4472099,41.3774576 C75.0601235,41.9898983 74.4757284,42.542 74.2964938,43.2057288 C73.8416296,44.884661 73.4364691,46.5982881 73.2587407,48.3224746 C73.1186667,49.6891525 74.3627654,50.0738136 75.3975062,50.405678 C77.0919506,50.9502373 78.6960247,50.3574068 80.276,49.84 C81.9358025,49.2969492 83.1814074,48.1505085 84.4465926,46.9784237 C85.6620741,45.8546102 87.064321,44.9178475 88.4484938,43.9961695 C89.469679,43.3158475 89.5359506,42.2795254 89.6639753,41.2748814 C89.923037,39.2278814 90.0570864,37.1657966 90.3221728,35.1203051 C90.5827407,33.1170508 90.9818765,31.1334068 91.2514815,29.1331695 C91.6204938,26.4058475 91.8509383,23.6589153 92.2771852,20.943661 C92.632642,18.6839661 92.772716,16.4318136 92.8148889,14.1494915 C92.8389877,12.8657797 93.3149383,11.5881017 93.6041235,10.3119322 C93.7532346,9.65423729 93.9339753,9.00257627 94.1101975,8.35091525 C94.6780247,6.24659322 96.0682222,4.85879661 97.931358,3.82398305 C99.586642,2.90381356 100.890988,3.42423729 101.689259,5.15445763 C102.710444,7.36889831 102.63363,9.75379661 103.055358,12.0602542 C103.60963,15.0922881 103.431901,18.1394068 103.077951,21.1638983 C102.891185,22.7704237 102.354988,24.3347119 102.029654,25.927661 C101.85042,26.8025763 101.760049,27.6971017 101.66516,28.5871017 C101.430198,30.7909831 100.761457,32.8440169 99.5565185,34.71 C99.1031605,35.4114407 99.2974568,35.8262712 100.056568,36.0947797 C100.818691,36.3663051 101.669679,36.6438644 102.214914,37.1869153 C102.602,37.5730847 102.75563,38.4449831 102.642667,39.0287627 C102.400173,40.2792881 101.97242,41.5041695 101.520568,42.7018983 C100.856346,44.468322 100.782543,46.3222373 100.601802,48.1595593 C100.42558,49.9516271 101.112395,50.6636271 102.87763,50.5670847 C103.571975,50.5293729 104.353679,50.523339 104.930543,50.2035424 C105.798099,49.719322 106.617457,49.4417627 107.593457,49.6725593 C107.671778,49.6921695 107.786247,49.5473559 107.888667,49.484 C108.736642,48.9515085 110.093704,49.0163729 110.533506,49.8430169 C110.813654,50.3709831 110.839259,51.4782034 110.489827,51.8176102 C109.263802,53.0062881 108.046815,54.3156441 105.969802,53.9852881 C104.99079,53.8299153 103.933457,54.2598305 102.907753,54.2960339 C101.080765,54.3608983 99.3019753,53.9143898 98.053358,52.5839153 C97.2475556,51.7255932 96.5291111,50.609322 96.8017284,49.1702373 C96.9794568,48.2334746 96.7776296,47.2288305 96.902642,46.2754746 C97.181284,44.1530508 97.6768148,42.0743729 98.4780988,40.078661 C98.5940741,39.7875254 98.6648642,39.4767797 98.7567407,39.1750847 C98.6814321,39.0936271 98.6046173,39.013678 98.5278025,38.9322203 C97.9810617,39.3138644 97.2837037,39.5884068 96.9177037,40.0997797 C96.1947407,41.1119661 95.5199753,42.2025932 95.0711358,43.3565763 C94.2306914,45.5182203 93.5604444,47.7477458 92.8344691,49.9531356 C92.7154815,50.3151695 92.6341481,50.6953051 92.5904691,51.0724237 C92.4579259,52.2339492 91.7394815,52.8041525 90.6309383,52.6336949 C90.1685432,52.5627966 89.6971111,52.5597797 89.2678519,52.5281017 C88.1517778,51.1825424 88.8220247,49.6001525 88.7873827,48.0856441 C88.7858765,48.0087119 88.703037,47.9347966 88.5915802,47.7522712 C87.7857778,48.5019831 87.0793827,49.3301356 86.2148395,49.929 C84.6634815,51.0030339 83.1226667,52.2248983 81.3860494,52.8644915 C78.9505679,53.7620339 76.3012099,54.1859153 73.7151111,53.5071017 C72.6848889,53.2355763 71.300716,53.1797627 70.9000741,51.6682712 C70.7825926,51.2217627 70.2057284,50.8959322 69.9572099,50.6379831 C68.9420494,51.4676441 67.9494815,52.5145254 66.7475556,53.1873051 C65.7158272,53.7635424 64.4611852,53.9883051 63.2758272,54.2251356 C62.2666914,54.4272712 61.2183951,54.4438644 60.1836543,54.5026949 C59.9065185,54.5192881 59.6173333,54.407661 59.3401975,54.3292203 C57.5282716,53.813322 55.7299012,53.2461356 53.9014074,52.7966102 C53.3501481,52.6623559 52.6678519,52.7151525 52.1331605,52.9157797 C50.1630864,53.6534237 48.1282469,53.8751695 46.1054568,53.4769322 C44.9818519,53.2551864 44.2784691,52.2686441 44.0465185,51.0784576 C43.9456049,50.5595424 43.8175802,50.0421356 43.7859506,49.5186949 C43.6910617,47.9619492 43.6488889,46.4021864 43.563037,44.8454407 C43.4651358,43.044322 43.4786914,41.2220847 43.1925185,39.4481186 C42.9364691,37.856678 42.386716,36.3044576 41.855037,34.7733559 C41.7450864,34.4550678 41.1320741,34.0945424 40.7781235,34.1201864 C39.4677531,34.2182373 38.3140247,34.7401695 37.2762716,35.6060339 C35.7972099,36.8384576 35.4206667,38.5641525 35.0350864,40.2807966 C34.638963,42.0351525 34.4582222,43.8045932 34.5982963,45.6298475 C34.7549383,47.672322 34.7112593,49.7344068 34.6961975,51.7874407 C34.6946914,52.0906441 34.4491852,52.51 34.1901235,52.6744237 C32.495679,53.7439322 30.7319506,52.6729153 30.6385679,50.8431356 C30.543679,48.9741356 30.5406667,47.0991017 30.4849383,45.2285932 C30.4774074,44.9827119 30.3930617,44.7398475 30.1324938,44.4637966 C29.9969383,44.8997458 29.8869877,45.3477627 29.7167901,45.7701356 C29.5345432,46.2256949 29.2769877,46.6510847 29.0872099,47.1036271 C28.2814074,49.0254237 27.2014815,50.8491695 25.8383951,52.3440678 C23.8954321,54.4770508 21.681358,56.3701864 18.8889136,57.4819322 C15.6913086,58.7550847 12.4259259,59.1397458 9.16054321,58.1894068 C7.54441975,57.7187627 6.07891358,56.6492542 4.62545679,55.7230508 C2.67195062,54.4800678 2.15382716,52.3063559 1.23204938,50.3498644 C0.540716049,48.8866441 0.715432099,47.3555424 0.287679012,45.8893051 C-0.0617530864,44.6945932 0.176222222,43.3279153 0.165679012,42.0381695 C0.16417284,41.9310678 0.295209877,41.8209492 0.289185185,41.7153559 C0.182246914,40.0092712 0.0722962963,38.3031864 -0.0677777778,36.6001186 C-0.084345679,36.401 -0.284666667,36.2169661 -0.340395062,36.1234407 L-0.340395062,36.1234407 Z M98.9570617,7.298 C98.8320494,7.28744068 98.7085432,7.27688136 98.5835309,7.26632203 C98.2898272,7.6600339 97.8319506,8.0160339 97.7280247,8.455 C97.2008642,10.6965932 96.6827407,12.9472373 96.3287901,15.2220169 C96.1164198,16.5871864 96.310716,18.0111864 96.1480494,19.3884237 C95.9401975,21.1518305 95.5003951,22.8880847 95.2594074,24.6484746 C94.8934074,27.3184746 94.6479012,30.0035593 94.2803951,32.6735593 C94.0650123,34.2453898 93.7005185,35.7961017 93.4339259,37.3618983 C93.3872346,37.6273898 93.495679,37.9185254 93.5559259,38.3740847 C94.6569383,36.3889322 95.5711852,34.5425593 96.6706914,32.8153559 C97.5743951,31.3928644 97.8455062,29.815 98.1783704,28.241661 C98.5820247,26.3304237 98.776321,24.3663898 99.2914321,22.488339 C99.9631852,20.0461186 99.8954074,17.5722203 99.8517284,15.1073729 C99.8200988,13.321339 99.4510864,11.5398305 99.2357037,9.75681356 C99.1378025,8.93771186 99.0489383,8.11710169 98.9570617,7.298 L98.9570617,7.298 Z M55.2268395,48.4129831 C55.7223704,47.8955763 56.1275309,47.4701864 56.5357037,47.0478136 C57.2767407,46.2784915 58.1699012,45.6072203 58.7241728,44.7232542 C59.4938272,43.4953559 60.1188889,42.1482881 60.6068889,40.7801017 C61.2891852,38.8718814 61.5843951,37.615322 59.5390123,36.0525424 C59.326642,35.8896271 58.8657531,35.8564407 58.6187407,35.9725932 C56.9815309,36.7509661 55.9241975,38.0738983 55.3669136,39.7769661 C54.6243704,42.0472203 54.4360988,44.3913898 54.6816049,46.7596949 C54.7388395,47.316322 55.0340494,47.8473051 55.2268395,48.4129831 L55.2268395,48.4129831 Z" id="Fill-1" fill="#000000" sketch:type="MSShapeGroup"></path>
                <path d="M68.8893333,79.2326271 C69.1935802,78.0726102 69.4782469,77.0393051 69.7342963,75.9984576 C70.0355309,74.7645254 70.2945926,73.5215424 70.6078765,72.2921356 C70.7750617,71.6374576 71.9483704,71.1034576 72.7059753,71.3221864 C73.1502963,71.4488983 73.5735309,71.6465085 73.9350123,71.7852881 C73.8506667,72.1020678 73.6322716,72.4822034 73.7346914,72.6179661 C74.2317284,73.2741525 73.7060741,73.9062034 73.4711111,74.2350508 C73.0614321,74.8082712 72.9183457,75.3664068 72.7873086,76.0150508 C72.389679,77.9730508 72.0417531,79.9566949 71.4347654,81.8528475 C71.073284,82.9857119 70.9904444,84.4142373 69.5640988,84.9753898 C68.2868642,85.4792203 67.3289383,85.1081356 66.7791852,83.8244237 C66.5803704,83.3628305 66.3966173,82.8891695 66.2685926,82.4034407 C66.1526173,81.9554237 66.1209877,81.4832712 66.0155556,80.7863559 C65.8287901,81.2026949 65.679679,81.3957797 65.6600988,81.6024407 C65.5426173,82.8786102 64.5997531,83.6841356 63.8963704,84.5922373 C63.4957284,85.1111525 62.8104198,85.4279322 62.210963,85.7582881 C62.0332346,85.8578475 61.697358,85.7326441 61.4593827,85.6421356 C61.1099506,85.5078814 60.7846173,85.3102712 60.4231358,85.1277458 C60.3177037,84.4142373 60.2258272,83.6449153 60.0857531,82.8831356 C59.858321,81.6476949 59.6610123,80.4032034 59.3386914,79.1918983 C58.9877531,77.8734915 59.0118519,76.4691017 58.1397778,75.2577966 C57.4665185,74.3180169 58.0162716,73.0705085 59.17,72.3449322 C59.4456296,72.1729661 59.7287901,72.0130678 60.0315309,71.8320508 C61.5964444,72.2876102 61.7515802,73.6754068 62.0166667,74.9907966 C62.2350617,76.0708644 62.4670123,77.1464068 62.6582963,78.231 C62.7682469,78.8600339 62.8089136,79.5026441 62.8932593,80.2508475 C63.605679,79.445322 63.7864198,77.814661 63.4565679,77.0981356 C63.9927654,76.629 64.4792593,76.2186949 64.9461728,75.7887797 C65.5079753,75.2683559 66.5562716,75.4342881 67.134642,75.9215254 C68.1302222,76.7632542 68.2778272,77.9941695 68.8893333,79.2326271" id="Fill-2" fill="#000000" sketch:type="MSShapeGroup"></path>
                <path d="M107.661235,74.1807458 C110.092198,73.3601356 112.488519,72.655678 114.924,73.9665424 C114.907432,74.0857119 114.908938,74.137 114.893877,74.1822542 C114.094099,76.4872034 111.874,76.1719322 110.143407,76.7315763 C109.568049,76.9186271 108.92642,76.8914746 108.320938,76.9940508 C108.170321,77.0196949 107.935358,77.1705424 107.929333,77.2731186 C107.920296,77.4541356 108.025728,77.7799661 108.138691,77.8056102 C108.584519,77.9096949 108.729111,78.2068644 108.989679,78.5342034 C109.227654,78.8328814 109.995802,78.7589661 110.532,78.7604746 C111.809235,78.7665085 113.089481,78.7348305 114.366716,78.6880678 C115.350247,78.6518644 116.330765,78.5311864 117.31279,78.5221356 C117.915259,78.5161017 118.632198,78.4753729 119.087062,78.7725424 C119.510296,79.0501017 119.891358,79.7681356 119.858222,80.2644237 C119.826593,80.7667458 119.770864,81.5783051 118.912346,81.7065254 C117.839951,81.8664237 116.778099,82.1334237 115.701185,82.2194068 C113.758222,82.3762881 111.806222,82.4577458 109.857235,82.5226102 C108.982148,82.5527797 108.132667,82.2118644 107.219926,82.738322 C106.956346,82.8921864 105.853827,82.2329831 105.647481,81.733678 C104.796494,79.6746102 104.69558,77.4511186 104.581111,75.2457288 C104.563037,74.9078305 104.34916,74.5729492 104.362716,74.2425932 C104.388321,73.5622712 104.507309,72.8864746 104.60521,72.0643559 C104.017802,71.584661 104.29042,70.1878136 105.088691,69.5919661 C106.513531,68.53 108.239605,68.8875085 109.762346,68.3685932 C110.652494,68.0668983 111.506494,67.608322 112.417728,67.4423898 C112.949407,67.344339 113.600074,67.608322 114.112173,67.875322 C114.250741,67.9492373 114.161877,68.6536949 114.032346,69.0157288 C113.13316,71.5122542 110.786543,71.6057797 108.736642,72.0145763 C106.975926,72.3645424 107.03316,72.3720847 107.661235,74.1807458" id="Fill-3" fill="#000000" sketch:type="MSShapeGroup"></path>
                <path d="M9.90158025,83.2783559 C10.7585926,83.4292034 11.6020494,83.6509492 12.4560494,83.6977119 C12.8913333,83.7218475 13.341679,83.4337288 13.9787901,83.2210339 C14.0902469,83.2647797 14.4411852,83.5076441 14.7981481,83.5166949 C15.6611852,83.5363051 15.9368148,84.0295763 15.9925432,84.7672203 C16.0573086,85.6225254 15.7003457,86.2379831 14.8538765,86.4310678 C14.3312346,86.5502373 13.7739506,86.5170508 13.2317284,86.5487288 C11.4905926,86.6497966 9.74945679,86.7267288 8.01133333,86.8564576 C6.45093827,86.9741186 4.89355556,87.2365932 3.33466667,87.2456441 C2.83160494,87.248661 2.0905679,86.7599153 1.87217284,86.2998305 C1.48207407,85.4777119 2.0017037,84.699339 2.7502716,84.4459153 C3.07409877,84.3373051 3.31809877,83.9375593 3.63439506,83.8832542 C4.12992593,83.8002881 4.65708642,83.9285085 5.16767901,83.9134237 C5.77918519,83.8938136 6.38918519,83.8153729 6.9705679,83.7655932 C6.96906173,80.1512881 6.96604938,76.7240339 6.96303704,73.1595085 C6.68288889,73.1881695 6.35153086,73.2032542 6.0277037,73.2605763 C4.87397531,73.4642203 3.72928395,73.7372542 2.56802469,73.8760339 C1.79837037,73.9680508 1.27723457,73.6618305 1.00461728,72.4097966 C1.51219753,71.7234407 1.97609877,71.0944068 2.3842716,70.5407966 C3.02439506,70.5875593 3.71120988,70.7580169 4.36037037,70.6644915 C6.39069136,70.367322 8.40745679,69.9736102 10.4302469,69.6145932 C11.0357284,69.5059831 11.6381975,69.3898305 12.2421728,69.2766949 C13.3205926,69.0760678 13.8688395,69.3566441 14.3719012,70.341678 C14.4351605,70.4638644 14.6204198,70.5287288 14.6731358,70.6524237 C14.8071852,70.9737288 15.0798025,71.4126949 14.9653333,71.6223729 C14.752963,72.0130678 14.3312346,72.4987966 13.9486667,72.5440508 C12.9485679,72.6586949 11.9183457,72.6134407 10.9092099,72.5259492 C10.1154568,72.4580678 9.91814815,72.7341186 9.96935802,73.4883559 C10.0958765,75.383 10.2013086,77.2821695 10.2223951,79.1798305 C10.2314321,80.0472034 9.99948148,80.9145763 9.91814815,81.7849661 C9.86995062,82.296339 9.90459259,82.8137458 9.90158025,83.2783559" id="Fill-4" fill="#000000" sketch:type="MSShapeGroup"></path>
                <path d="M20.0742716,72.9920678 C19.4386667,72.3026949 18.822642,71.6329322 18.1915556,70.9480847 C18.5620741,69.3355254 19.7941235,68.8437627 21.315358,68.9297458 C23.7282469,69.0670169 26.1471605,69.0564576 28.5630617,69.1122712 C28.8176049,69.1183051 29.0721481,69.1484746 29.3779012,69.1695932 C29.4441728,68.9538814 29.5104444,68.736661 29.5947901,68.4606102 C30.368963,68.8196271 31.1220494,69.1680847 31.8992346,69.5286102 C31.9790617,69.9208136 32.0724444,70.3959831 32.1703457,70.8696441 C32.2682469,71.3387797 31.2997778,72.2740339 30.6641728,72.3660508 C29.7378765,72.4987966 28.826642,72.6058983 27.9139012,72.2498983 C27.8144938,72.210678 27.415358,72.5515932 27.415358,72.7175254 C27.415358,73.5396441 27.5238025,74.3617627 27.5509136,75.1853898 C27.5689877,75.7163729 27.4816296,76.2518814 27.4997037,76.7828644 C27.5689877,78.8057288 27.4906667,80.8557458 27.816,82.8378814 C27.9771605,83.8274407 27.894321,84.6133559 27.5494074,85.471678 C27.2210617,86.2892712 26.1878272,86.4853729 25.3880494,86.1640678 C24.2358272,85.6994576 24.5144691,84.9180678 24.5325432,84.0295763 C24.5626667,82.563339 24.4,81.0940847 24.3201728,79.6248305 C24.2960741,79.1828475 24.2855309,78.7423729 24.2614321,78.3018983 C24.1680494,76.6305085 23.9255556,74.9515763 24.0234568,73.2937627 C24.1002716,72.0070339 23.5655802,72.1714576 22.7191111,72.3026949 C21.7958272,72.4475085 20.7113827,71.8923898 20.0742716,72.9920678" id="Fill-5" fill="#000000" sketch:type="MSShapeGroup"></path>
                <path d="M77.3555309,84.3991525 C77.3600494,84.4127288 77.2832346,84.1985254 77.2591358,84.1306441 C76.8148148,83.9390678 76.2695802,83.869678 76.1731852,83.6237966 C76.0240741,83.2496949 76.0707654,82.7006102 76.2424691,82.3189661 C76.5361728,81.6627797 77.0437531,81.1861017 77.8781728,81.2690678 C78.4716049,81.3278983 78.4655802,80.8663051 78.4655802,80.4756102 C78.4655802,78.5688983 78.4520247,76.6621864 78.4429877,74.7615085 C77.5588642,74.7373729 76.6220247,74.7509492 75.6942222,74.6634576 C75.4035309,74.6363051 75.0089136,74.3994746 74.8914321,74.1505763 C74.7091852,73.7583729 74.8191358,73.3782373 75.0616296,72.8985424 C75.918642,71.1984915 77.4639753,71.7747288 78.7743457,71.5318644 C79.8768642,71.3282203 80.9658272,71.0521695 82.0608148,70.8062881 C82.1737778,70.7806441 82.2942716,70.7067288 82.3981975,70.726339 C83.4495062,70.9345085 84.4993086,71.1562542 85.600321,71.3855424 C85.2418519,72.5078475 85.0731605,73.6226102 83.8305679,74.0057627 C83.4193827,74.1339831 83.003679,74.2531525 82.5834568,74.3421525 C82.1195556,74.4386949 81.8469383,74.5065763 81.8680247,75.1718136 C81.8996543,76.2021017 81.5999259,77.2399322 81.5592593,78.2792712 C81.5321481,78.9912712 81.705358,79.7093051 81.8062716,80.5706441 C82.8801728,80.3202373 83.9073827,80.1241356 84.9059753,79.8299831 C85.4240988,79.6776271 85.6394815,79.7168475 86.0581975,80.1693898 C86.6787407,80.8376441 87.2013827,81.3324237 86.6907901,82.2948305 C86.2148395,83.1908644 85.3578272,83.4654068 84.5068395,83.5483729 C83.0488642,83.688661 81.670716,83.9420847 80.3874568,84.7098983 C80.0395309,84.9180678 79.4701975,84.817 79.0138272,84.7672203 C78.5137778,84.7129153 78.0257778,84.5530169 77.3555309,84.3991525" id="Fill-6" fill="#000000" sketch:type="MSShapeGroup"></path>
                <path d="M46.0075556,85.1926102 C45.8268148,84.7234746 45.6460741,84.3916102 45.5767901,84.0371186 C45.4984691,83.6403898 45.4487654,83.2119831 45.5165432,82.8197797 C45.7108395,81.6944576 46.0452099,80.5902542 46.1837778,79.4619153 C46.3705432,77.9474068 46.4262716,76.4163051 46.5422469,74.820339 C45.3960494,74.7946949 44.4140247,74.791678 43.4335062,74.7464237 C42.6487901,74.7087119 41.8188889,74.7539661 41.1019506,74.5005424 C40.7088395,74.3632712 40.3202469,73.7025593 40.2675309,73.2394576 C40.2042716,72.6903729 40.2118025,71.8637288 41.0552593,71.7717119 C42.1668148,71.6525424 43.2919259,71.6646102 44.4110123,71.6238814 C45.8689877,71.5695763 47.326963,71.5197966 48.7849383,71.4685085 C49.7654568,71.4338136 50.8017037,71.5906949 51.7129383,71.3236949 C53.0925926,70.9179153 54.4300741,71.2196102 55.7841235,71.2030169 C56.1124691,71.1984915 56.7059012,71.2935254 56.7254815,71.4142034 C56.8098272,71.9482034 56.9333333,72.655678 56.6652346,73.0282712 C56.1787407,73.7055763 55.4949383,74.3270678 54.7569136,74.7056949 C54.2749383,74.9545932 53.5534815,74.731339 52.9404691,74.7253051 C52.0096543,74.7147458 51.0788395,74.6740169 50.1525432,74.7253051 C49.9251111,74.7373729 49.566642,75.0254915 49.5244691,75.236678 C49.4024691,75.8611864 49.3994568,76.511339 49.366321,77.1509322 C49.3151111,78.1208814 49.3452346,79.0998814 49.2141975,80.0577627 C49.096716,80.9145763 48.9265185,81.7095424 49.3301728,82.563339 C49.810642,83.5770339 49.2699259,84.7053729 48.4475556,85.3042373 C47.6357284,85.8970678 46.9986173,85.7567797 46.2771605,85.2725593 C46.1551605,85.1895932 45.9819506,85.1850678 46.0075556,85.1926102" id="Fill-7" fill="#000000" sketch:type="MSShapeGroup"></path>
                <path d="M94.9762469,70.2753051 C95.5982963,70.6313051 96.2203457,70.9888136 96.833358,71.3402881 C96.7505185,72.2770508 96.8393827,73.4174576 95.7398765,73.8111695 C94.5891605,74.2214746 93.9354815,75.0481186 93.6116543,76.066339 C93.3119259,77.0091356 93.0272593,78.1616102 93.3119259,79.032 C93.6312346,80.0064746 94.7623704,80.4997458 95.8904938,80.4710847 C96.6571358,80.4514746 97.4282963,80.3473898 98.1843951,80.2040847 C98.4735802,80.1497797 98.7251111,79.8842881 98.9841728,79.7198644 C99.4269877,79.712322 99.9134815,79.7455085 100.389432,79.686678 C101.448272,79.5554407 102.395654,80.5208644 102.112494,81.4817627 C101.720889,82.8092203 100.389432,83.7188305 98.985679,83.7474915 C97.8108642,83.7716271 96.6345432,84.0295763 95.4642469,83.9963898 C93.3043951,83.9330339 91.5512099,82.9359322 90.1444444,81.3128136 C90.0646173,81.2223051 89.9335802,81.1348136 89.9215309,81.0352542 C89.7618765,79.7771864 89.5645679,78.5704068 89.9591852,77.2565254 C90.3040988,76.1100847 90.5646667,74.9425254 91.2770864,73.987661 C91.9277531,73.1157627 92.6928889,72.3087288 93.5107407,71.5922034 C94.0032593,71.1592712 94.6945926,70.9541186 95.2955556,70.6463898 C95.1901235,70.5226949 95.0831852,70.399 94.9762469,70.2753051" id="Fill-8" fill="#000000" sketch:type="MSShapeGroup"></path>
                <path d="M98.9570617,7.298 C99.0489383,8.11710169 99.1378025,8.93771186 99.2357037,9.75681356 C99.4510864,11.5398305 99.8200988,13.321339 99.8517284,15.1073729 C99.8954074,17.5722203 99.9631852,20.0461186 99.2914321,22.488339 C98.776321,24.3663898 98.5820247,26.3304237 98.1783704,28.241661 C97.8455062,29.815 97.5743951,31.3928644 96.6706914,32.8153559 C95.5711852,34.5425593 94.6569383,36.3889322 93.5559259,38.3740847 C93.495679,37.9185254 93.3872346,37.6273898 93.4339259,37.3618983 C93.7005185,35.7961017 94.0650123,34.2453898 94.2803951,32.6735593 C94.6479012,30.0035593 94.8934074,27.3184746 95.2594074,24.6484746 C95.5003951,22.8880847 95.9401975,21.1518305 96.1480494,19.3884237 C96.310716,18.0111864 96.1164198,16.5871864 96.3287901,15.2220169 C96.6827407,12.9472373 97.2008642,10.6965932 97.7280247,8.455 C97.8319506,8.0160339 98.2898272,7.6600339 98.5835309,7.26632203 C98.7085432,7.27688136 98.8320494,7.28744068 98.9570617,7.298" id="Fill-9" fill="#FFFFFF" sketch:type="MSShapeGroup"></path>
                <path d="M55.2268395,48.4129831 C55.0340494,47.8473051 54.7388395,47.316322 54.6816049,46.7596949 C54.4360988,44.3913898 54.6243704,42.0472203 55.3669136,39.7769661 C55.9241975,38.0738983 56.9815309,36.7509661 58.6187407,35.9725932 C58.8657531,35.8564407 59.326642,35.8896271 59.5390123,36.0525424 C61.5843951,37.615322 61.2891852,38.8718814 60.6068889,40.7801017 C60.1188889,42.1482881 59.4938272,43.4953559 58.7241728,44.7232542 C58.1699012,45.6072203 57.2767407,46.2784915 56.5357037,47.0478136 C56.1275309,47.4701864 55.7223704,47.8955763 55.2268395,48.4129831" id="Fill-10" fill="#FFFFFF" sketch:type="MSShapeGroup"></path>
            </g>
        </g>
    </g>
</svg>