<svg width="120" height="88" viewBox="0 0 120 88" xmlns="http://www.w3.org/2000/svg" xmlns:sketch="http://www.bohemiancoding.com/sketch/ns"><title>check-it-twice</title><desc>Created with Sketch.</desc><g sketch:type="MSArtboardGroup" fill="none"><path opacity=".87" sketch:type="MSShapeGroup" d="M-615-816h1024v1024h-1024z"/><g sketch:type="MSLayerGroup"><path d="M-.34 36.123c.154-.394.368-.707.387-1.033.083-1.471.042-2.951.173-4.414.178-1.981.676-3.951.667-5.924-.012-2.49.985-4.691 1.578-7.001.315-1.22 1.069-2.323 1.6-3.491.265-.584.402-1.235.717-1.788.743-1.303 1.542-2.575 2.359-3.833.117-.181.479-.186.691-.324 1.441-.949 2.824-1.999 4.321-2.845 1.619-.917 3.16-2.198 5.246-1.783.928.186 1.94.211 2.756.623.761.383 1.347 1.151 1.944 1.807.642.704 1.208 1.478 1.807 2.222l.107.116c-.526 1.048.277 1.887.462 2.816.137.686.553 1.326.634 2.012.095.799-.081 1.628-.062 2.442.027 1.18.184 2.359.176 3.537-.006.908-.102 1.834-.3 2.721-.357 1.61-.791 3.204-1.25 4.788-.235.81-.453 1.691-.944 2.337-.405.532-1.166.943-1.833 1.068-.425.078-1.014-.406-1.431-.756-.184-.152-.122-.597-.042-.828.5-1.238 1.035-2.463 1.485-3.72.315-.876.627-1.78.74-2.697.17-1.38.255-2.785.214-4.174-.053-1.736-.167-3.483-.453-5.192-.194-1.16-.291-2.417-1.295-3.332-.361-.329-.413-.976-.715-1.398-1.179-1.64-2.538-1.573-4.125-.744-1.693.885-3.399 1.809-4.906 2.969-1.014.78-1.88 1.821-2.246 3.218-.3 1.14-.934 2.198-1.456 3.273-.559 1.149-1.35 2.186-1.307 3.584.015.508-.417 1.014-.52 1.543-.261 1.362-.512 2.73-.657 4.106-.194 1.848-.357 3.705-.405 5.562-.074 2.804-.042 5.612-.044 8.417-.002 1.275-.145 2.578.075 3.816.396 2.24.452 4.581 1.538 6.654.446.851.919 1.745 1.594 2.401.575.56 1.431.87 2.21 1.174 1.333.52 2.699.952 4.056 1.407.167.056.378.091.536.038 1.539-.495 3.198-.539 4.634-1.46 1.142-.732 2.356-1.34 3.277-2.367.3-.335.578-.691.859-1.044.592-.745 1.193-1.484 1.765-2.246.368-.487.774-.973 1.018-1.522.956-2.153 1.91-4.31 2.752-6.509.419-1.095.595-2.282.875-3.43.377-1.548.767-3.094 1.112-4.649.214-.955.371-1.925.524-2.892.247-1.54.503-3.079.693-4.626.242-1.97.464-3.943.615-5.921.127-1.646.105-3.304.206-4.952.157-2.563.398-5.121.53-7.684.063-1.217-.015-2.442-.075-3.661-.06-1.232.859-2.254 2.101-2.312.342-.017.678-.155 1.018-.238.547.81 1.122 1.641 1.023 2.702l-.369 2.94c-.041.436.065.884.062 1.326-.006 1.109-.045 2.216-.054 3.325-.006.723.077 1.45.015 2.166-.206 2.379-.429 4.756-.706 7.128-.12 1.029-.39 2.039-.595 3.056-.524 2.619-.58 5.246-.321 7.903.092.934-.113 1.896-.187 2.907.148-.018.343.02.41-.056 1.844-2.116 4.311-2.196 6.83-2.13 1.271.035 2.282.588 3.113 1.513.133.149.261.326.321.513.639 2 1.282 3.97 1.583 6.091.322 2.255.226 4.483.348 6.722.074 1.346.301 2.688.544 4.016.042.229.524.56.771.536 1.136-.116 2.261-.341 3.589-.56-.196-.56-.405-1.026-.526-1.513-.572-2.34-.416-4.714-.002-7.029.291-1.629.943-3.209 1.566-4.756.264-.652.895-1.149 1.316-1.747.383-.546.834-.855 1.521-.973.408-.069.721-.626 1.137-.735.991-.256 2.038-.594 3.021-.492 1.009.106 2.056.526 2.735 1.462.381.525.934.971 1.17 1.551.798 1.952.684 3.949.032 5.931-.23.698-.349 1.459-.7 2.089-.509.91-1.14 1.762-1.8 2.575-.958 1.183-1.979 2.316-2.994 3.45-.191.213-.48.336-.8.551.114.091.2.216.304.231 2.413.37 4.918 1.021 7.124-.463 1.19-.801 2.353-1.931 3.002-3.184.97-1.874 1.691-3.914 2.657-5.788.917-1.778 2.454-3.225 3.579-4.91 1.109-1.661 2.865-2.403 4.424-3.417 1.08-.701 2.779.338 2.857 1.611.05.784-.482 1.276-1.009 1.534-1.414.694-2.583 1.688-3.609 2.824-.651.72-1.057 1.661-1.583 2.495-.387.612-.971 1.165-1.151 1.828-.455 1.679-.86 3.393-1.038 5.117-.14 1.367 1.104 1.751 2.139 2.083 1.694.545 3.299-.048 4.878-.566 1.66-.543 2.905-1.689 4.171-2.862 1.215-1.124 2.618-2.061 4.002-2.982 1.021-.68 1.087-1.717 1.215-2.721.259-2.047.393-4.109.658-6.155.261-2.003.66-3.987.929-5.987.369-2.727.599-5.474 1.026-8.19.355-2.26.496-4.512.538-6.794.024-1.284.5-2.561.789-3.838.149-.658.33-1.309.506-1.961.568-2.104 1.958-3.492 3.821-4.527 1.655-.92 2.96-.4 3.758 1.33 1.021 2.214.944 4.599 1.366 6.906.554 3.032.377 6.079.023 9.104-.187 1.607-.723 3.171-1.048 4.764-.179.875-.27 1.769-.364 2.659-.235 2.204-.904 4.257-2.109 6.123-.453.701-.259 1.116.5 1.385.762.272 1.613.549 2.158 1.092.387.386.541 1.258.428 1.842-.242 1.251-.67 2.475-1.122 3.673-.664 1.766-.738 3.62-.919 5.458-.176 1.792.511 2.504 2.276 2.408.694-.038 1.476-.044 2.053-.364.868-.484 1.687-.762 2.663-.531.078.02.193-.125.295-.189.848-.532 2.205-.468 2.645.359.28.528.306 1.635-.044 1.975-1.226 1.189-2.443 2.498-4.52 2.168-.979-.155-2.036.275-3.062.311-1.827.065-3.606-.382-4.854-1.712-.806-.858-1.524-1.975-1.252-3.414.178-.937-.024-1.941.101-2.895.279-2.122.774-4.201 1.575-6.197.116-.291.187-.602.279-.904l-.229-.243c-.547.382-1.244.656-1.61 1.168-.723 1.012-1.398 2.103-1.847 3.257-.84 2.162-1.511 4.391-2.237 6.597-.119.362-.2.742-.244 1.119-.133 1.162-.851 1.732-1.96 1.561-.462-.071-.934-.074-1.363-.106-1.116-1.346-.446-2.928-.48-4.442-.002-.077-.084-.151-.196-.333-.806.75-1.512 1.578-2.377 2.177-1.551 1.074-3.092 2.296-4.829 2.935-2.435.898-5.085 1.321-7.671.643-1.03-.272-2.414-.327-2.815-1.839-.117-.447-.694-.772-.943-1.03-1.015.83-2.008 1.877-3.21 2.549-1.032.576-2.286.801-3.472 1.038-1.009.202-2.057.219-3.092.278-.277.017-.566-.095-.843-.173-1.812-.516-3.61-1.083-5.439-1.533-.551-.134-1.234-.081-1.768.119-1.97.738-4.005.959-6.028.561-1.124-.222-1.827-1.208-2.059-2.398-.101-.519-.229-1.036-.261-1.56-.095-1.557-.137-3.117-.223-4.673-.098-1.801-.084-3.623-.371-5.397-.256-1.591-.806-3.144-1.337-4.675-.11-.318-.723-.679-1.077-.653-1.31.098-2.464.62-3.502 1.486-1.479 1.232-1.856 2.958-2.241 4.675-.396 1.754-.577 3.524-.437 5.349.157 2.042.113 4.105.098 6.158-.002.303-.247.723-.506.887-1.694 1.07-3.458-.002-3.552-1.831-.095-1.869-.098-3.744-.154-5.615-.008-.246-.092-.489-.352-.765-.136.436-.246.884-.416 1.306-.182.456-.44.881-.63 1.333-.806 1.922-1.886 3.746-3.249 5.24-1.943 2.133-4.157 4.026-6.949 5.138-3.198 1.273-6.463 1.658-9.728.707-1.616-.471-3.082-1.54-4.535-2.466-1.954-1.243-2.472-3.417-3.393-5.373-.691-1.463-.517-2.994-.944-4.461-.349-1.195-.111-2.561-.122-3.851l.124-.323c-.107-1.706-.217-3.412-.357-5.115-.017-.199-.217-.383-.273-.477zm99.297-28.825l-.374-.032c-.294.394-.752.75-.856 1.189-.527 2.242-1.045 4.492-1.399 6.767-.212 1.365-.018 2.789-.181 4.166-.208 1.763-.648 3.5-.889 5.26-.366 2.67-.612 5.355-.979 8.025-.215 1.572-.58 3.123-.846 4.688-.047.265.062.557.122 1.012 1.101-1.985 2.015-3.832 3.115-5.559.904-1.422 1.175-3 1.508-4.574.404-1.911.598-3.875 1.113-5.753.672-2.442.604-4.916.56-7.381-.032-1.786-.401-3.568-.616-5.351-.098-.819-.187-1.64-.279-2.459zm-43.73 41.115l1.309-1.365c.741-.769 1.634-1.441 2.188-2.325.77-1.228 1.395-2.575 1.883-3.943.682-1.908.978-3.165-1.068-4.728-.212-.163-.673-.196-.92-.08-1.637.778-2.695 2.101-3.252 3.804-.743 2.27-.931 4.614-.685 6.983.057.557.352 1.088.545 1.653z" fill="#000" sketch:type="MSShapeGroup"/><path d="M68.889 79.233c.304-1.16.589-2.193.845-3.234.301-1.234.56-2.477.874-3.706.167-.655 1.34-1.189 2.098-.97.444.127.868.324 1.229.463-.084.317-.303.697-.2.833.497.656-.029 1.288-.264 1.617-.41.573-.553 1.131-.684 1.78-.398 1.958-.746 3.942-1.353 5.838-.361 1.133-.444 2.561-1.871 3.123-1.277.504-2.235.133-2.785-1.151-.199-.462-.383-.935-.511-1.421-.116-.448-.148-.92-.253-1.617-.187.416-.336.609-.355.816-.117 1.276-1.06 2.082-1.764 2.99-.401.519-1.086.836-1.685 1.166-.178.1-.514-.026-.752-.116-.349-.134-.675-.332-1.036-.514-.105-.714-.197-1.483-.337-2.245-.227-1.235-.425-2.48-.747-3.691-.351-1.318-.327-2.723-1.199-3.934-.673-.94-.124-2.187 1.03-2.913l.862-.513c1.565.456 1.72 1.843 1.985 3.159.218 1.08.45 2.156.642 3.24.11.629.151 1.272.235 2.02.712-.806.893-2.436.563-3.153.536-.469 1.023-.879 1.49-1.309.562-.52 1.61-.354 2.188.133.996.842 1.143 2.073 1.755 3.311" fill="#000" sketch:type="MSShapeGroup"/><path d="M107.661 74.181c2.431-.821 4.827-1.525 7.263-.214l-.03.216c-.8 2.305-3.02 1.99-4.75 2.549-.575.187-1.217.16-1.822.262-.151.026-.386.176-.392.279-.009.181.096.507.209.532.446.104.59.401.851.729.238.299 1.006.225 1.542.226 1.277.006 2.557-.026 3.835-.072.984-.036 1.964-.157 2.946-.166.602-.006 1.319-.047 1.774.25.423.278.804.996.771 1.492-.032.502-.087 1.314-.946 1.442-1.072.16-2.134.427-3.211.513-1.943.157-3.895.238-5.844.303-.875.03-1.725-.311-2.637.216-.264.154-1.366-.505-1.572-1.005-.851-2.059-.952-4.283-1.066-6.488-.018-.338-.232-.673-.218-1.003.026-.68.145-1.356.242-2.178-.587-.48-.315-1.877.483-2.472 1.425-1.062 3.151-.704 4.674-1.223.89-.302 1.744-.76 2.655-.926.532-.098 1.182.166 1.694.433.139.074.05.778-.08 1.14-.899 2.497-3.246 2.59-5.296 2.999-1.761.35-1.703.358-1.075 2.166" fill="#000" sketch:type="MSShapeGroup"/><path d="M9.902 83.278c.857.151 1.7.373 2.554.419.435.024.886-.264 1.523-.477.111.044.462.287.819.296.863.02 1.139.513 1.194 1.251.065.855-.292 1.471-1.139 1.664-.523.119-1.08.086-1.622.118-1.741.101-3.482.178-5.22.308-1.56.118-3.118.38-4.677.389-.503.003-1.244-.486-1.462-.946-.39-.822.13-1.6.878-1.854.324-.109.568-.508.884-.563.496-.083 1.023.045 1.533.03.612-.02 1.222-.098 1.803-.148-.002-3.614-.005-7.042-.008-10.606-.28.029-.612.044-.935.101-1.154.204-2.298.477-3.46.615-.77.092-1.291-.214-1.563-1.466l1.38-1.869c.64.047 1.327.217 1.976.124 2.03-.297 4.047-.691 6.07-1.05.605-.109 1.208-.225 1.812-.338 1.078-.201 1.627.08 2.13 1.065l.301.311c.134.321.407.76.292.97-.212.391-.634.876-1.017.922-1 .115-2.03.069-3.039-.018-.794-.068-.991.208-.94.962.127 1.895.232 3.794.253 5.691.009.867-.223 1.735-.304 2.605-.048.511-.014 1.029-.017 1.493" fill="#000" sketch:type="MSShapeGroup"/><path d="M20.074 72.992l-1.883-2.044c.371-1.613 1.603-2.104 3.124-2.018 2.413.137 4.832.127 7.248.183.255.006.509.036.815.057l.217-.709 2.304 1.068.271 1.341c.098.469-.871 1.404-1.506 1.496-.926.133-1.838.24-2.75-.116-.099-.039-.499.302-.499.468 0 .822.108 1.644.136 2.468l-.051 1.597c.069 2.023-.009 4.073.316 6.055.161.99.078 1.775-.267 2.634-.328.818-1.362 1.014-2.161.692-1.152-.465-.874-1.246-.856-2.134.03-1.466-.133-2.935-.212-4.405l-.059-1.323c-.093-1.671-.336-3.35-.238-5.008.077-1.287-.458-1.122-1.304-.991-.923.145-2.008-.41-2.645.689" fill="#000" sketch:type="MSShapeGroup"/><path d="M77.356 84.399l-.096-.269c-.444-.192-.99-.261-1.086-.507-.149-.374-.102-.923.069-1.305.294-.656.801-1.133 1.636-1.05.593.059.587-.403.587-.793 0-1.907-.014-3.813-.023-5.714-.884-.024-1.821-.011-2.749-.098-.291-.027-.685-.264-.803-.513-.182-.392-.072-.772.17-1.252.857-1.7 2.402-1.124 3.713-1.367 1.103-.204 2.191-.48 3.286-.726.113-.026.233-.1.337-.08 1.051.208 2.101.43 3.202.659-.358 1.122-.527 2.237-1.77 2.62-.411.128-.827.247-1.247.336-.464.097-.737.164-.715.83.032 1.03-.268 2.068-.309 3.107-.027.712.146 1.43.247 2.291 1.074-.25 2.101-.447 3.1-.741.518-.152.734-.113 1.152.339.621.668 1.143 1.163.633 2.125-.476.896-1.333 1.171-2.184 1.254-1.458.14-2.836.394-4.119 1.162-.348.208-.917.107-1.374.057-.5-.054-.988-.214-1.658-.368" fill="#000" sketch:type="MSShapeGroup"/><path d="M46.008 85.193c-.181-.469-.361-.801-.431-1.155-.078-.397-.128-.825-.06-1.217.194-1.125.529-2.23.667-3.358.187-1.515.242-3.046.358-4.642-1.146-.026-2.128-.029-3.109-.074-.785-.038-1.615.008-2.332-.246-.393-.137-.782-.798-.834-1.261-.063-.549-.056-1.376.788-1.468 1.112-.119 2.237-.107 3.356-.148 1.458-.054 2.916-.104 4.374-.155.981-.035 2.017.122 2.928-.145 1.38-.406 2.717-.104 4.071-.121.328-.005.922.091.941.211.084.534.208 1.241-.06 1.614-.486.677-1.17 1.299-1.908 1.677-.482.249-1.203.026-1.816.02-.931-.011-1.862-.051-2.788 0-.227.012-.586.3-.628.511-.122.625-.125 1.275-.158 1.914-.051.97-.021 1.949-.152 2.907-.117.857-.288 1.652.116 2.506.48 1.014-.06 2.142-.883 2.741-.812.593-1.449.453-2.17-.032-.122-.083-.295-.087-.27-.08" fill="#000" sketch:type="MSShapeGroup"/><path d="M94.976 70.275l1.857 1.065c-.083.937.006 2.077-1.093 2.471-1.151.41-1.804 1.237-2.128 2.255-.3.943-.584 2.095-.3 2.966.319.974 1.45 1.468 2.579 1.439.767-.02 1.538-.124 2.294-.267.289-.054.541-.32.8-.484.443-.008.929.026 1.405-.033 1.059-.131 2.006.834 1.723 1.795-.392 1.327-1.723 2.237-3.127 2.266-1.175.024-2.351.282-3.521.249-2.16-.063-3.913-1.06-5.32-2.684-.08-.091-.211-.178-.223-.278-.16-1.258-.357-2.465.038-3.779.345-1.146.605-2.314 1.318-3.269.651-.872 1.416-1.679 2.234-2.395.493-.433 1.184-.638 1.785-.946l-.319-.371" fill="#000" sketch:type="MSShapeGroup"/><path d="M98.957 7.298c.092.819.181 1.64.279 2.459.215 1.783.584 3.565.616 5.351.044 2.465.111 4.939-.56 7.381-.515 1.878-.709 3.842-1.113 5.753-.333 1.573-.604 3.151-1.508 4.574-1.1 1.727-2.014 3.574-3.115 5.559-.06-.456-.169-.747-.122-1.012.267-1.566.631-3.117.846-4.688.368-2.67.613-5.355.979-8.025.241-1.76.681-3.497.889-5.26.163-1.377-.032-2.801.181-4.166.354-2.275.872-4.525 1.399-6.767.104-.439.562-.795.856-1.189l.374.032" fill="#fff" sketch:type="MSShapeGroup"/><path d="M55.227 48.413c-.193-.566-.488-1.097-.545-1.653-.246-2.368-.057-4.712.685-6.983.557-1.703 1.615-3.026 3.252-3.804.247-.116.708-.083.92.08 2.045 1.563 1.75 2.819 1.068 4.728-.488 1.368-1.113 2.715-1.883 3.943-.554.884-1.447 1.555-2.188 2.325l-1.309 1.365" fill="#fff" sketch:type="MSShapeGroup"/></g></g></svg>