<?xml version="1.0" encoding="UTF-8" standalone="no"?>
<svg width="212px" height="96px" viewBox="0 0 212 96" version="1.1" xmlns="http://www.w3.org/2000/svg" xmlns:xlink="http://www.w3.org/1999/xlink" xmlns:sketch="http://www.bohemiancoding.com/sketch/ns">
    <!-- Generator: Sketch 3.1.1 (8761) - http://www.bohemiancoding.com/sketch -->
    <title>chimes</title>
    <desc>Created with Sketch.</desc>
    <defs></defs>
    <g id="Page-1" stroke="none" stroke-width="1" fill="none" fill-rule="evenodd" sketch:type="MSPage">
        <g id="Imported-Layers" sketch:type="MSLayerGroup" transform="translate(106.626311, 49.405253) rotate(3.000000) translate(-106.626311, -49.405253) translate(-0.373689, -1.094747)" fill="#000000">
            <path d="M144.394911,88.891937 C143.100855,88.9991148 141.800727,89.0769237 140.514008,89.2214802 C139.25107,89.3635576 138.066054,89.5546469 136.73582,89.2170939 C135.883994,89.0010219 134.790308,89.2832696 133.815528,89.394643 C130.735093,89.7461176 127.66503,90.1509904 124.5808,90.4812964 C121.115057,90.8522233 117.641219,91.1808129 114.165356,91.4926203 C113.063321,91.591407 111.942059,91.5597495 110.832182,91.6165804 C106.227973,91.8524861 101.621993,92.0729444 97.0230977,92.3567177 C95.3601787,92.4593185 93.722306,92.7875268 92.05964,92.898328 C89.9985109,93.0356377 87.9156246,92.9917749 85.8562665,93.1384293 C82.781397,93.3571712 79.719177,93.6737463 76.6516443,93.9489377 C75.4696638,94.0549713 74.2755397,94.1148536 73.1117747,94.2897327 C72.6009831,94.366588 72.1511626,94.676679 71.6760429,94.8841691 C70.5866576,95.3599853 69.9809939,96.1882296 69.1294215,96.8253846 C68.6742881,97.1659888 67.647898,97.1122092 66.8707054,97.1623654 C62.9488173,97.415244 59.0211104,97.6193015 55.1017523,97.8927766 C53.545849,98.00148 52.0129681,98.3010821 50.4568119,98.4027294 C49.7206041,98.4505971 48.9464473,98.1290636 48.2029027,98.1593862 C43.2465287,98.3619179 38.2868659,98.5541515 33.3421295,98.8728243 C30.3282312,99.0669649 27.3264764,99.4268307 24.3439491,99.8185447 C22.783239,100.023365 21.2938728,100.527215 19.7367046,100.760069 C18.9395256,100.879453 17.8508994,100.929037 17.2591501,100.616848 C14.1071179,98.9540659 11.5367152,96.8825969 10.3332304,94.0404775 C10.1837119,93.6874772 10.3985024,93.2517097 10.4098871,92.8538931 C10.4232957,92.3878031 10.5080481,91.9013073 10.3661194,91.4594371 C10.1356433,90.740087 9.56995235,90.0647904 9.46015365,89.343724 C9.22512372,87.8007066 9.24612209,86.2363299 9.05764276,84.6881634 C8.90483535,83.4348312 8.5939077,82.1929415 8.36241966,80.9449492 C8.1615437,79.8615378 8.00392944,78.7733586 7.77269439,77.6937614 C7.39143486,75.9138848 6.90543647,74.1458321 6.57275147,72.3613785 C5.97973731,69.1817061 5.45857298,65.9944054 4.92678297,62.8084397 C4.65026228,61.151379 4.40789557,59.4912669 4.16426389,57.8311549 C3.90292275,56.0526133 3.5988259,54.2759787 3.42046626,52.4924787 C3.18189443,50.1048161 3.15027038,47.7032318 2.82846406,45.3230068 C2.62404621,43.8110748 2.23317296,42.2829326 1.60701679,40.8407997 C0.57733775,38.4699194 0.192536321,36.0332449 0.0827376223,33.5845558 C-0.0581791405,30.438448 -0.00555672279,27.2829955 0.138901933,24.1361249 C0.235039043,22.0391011 0.555580404,19.9413145 0.944429712,17.8618358 C1.08382852,17.1155959 1.74945151,16.4307639 2.10718275,15.6992085 C2.23696785,15.4335525 2.24430463,15.1034371 2.17953857,14.8192824 C1.92376326,13.6981108 2.72625513,13.183581 4.21258544,13.1626031 C5.73762359,13.1412438 7.25279503,12.8027373 8.7768212,12.6259511 C9.30456333,12.5649246 9.85861667,12.5059959 10.379275,12.5613012 C11.9619954,12.7296962 13.3693921,12.4968419 14.5986821,11.7038786 C14.7466827,11.6083339 14.9566664,11.5417769 15.1507115,11.5164127 C16.7562013,11.3062527 18.3680158,11.1222196 19.9697106,10.897375 C20.3211171,10.8481723 20.6343217,10.6574645 20.9745964,10.5493331 C22.1687205,10.1692523 23.1877739,9.72242377 23.2575998,8.55662653 C23.2692374,8.3596253 24.1046183,8.05487412 24.579991,8.03084492 C28.6663241,7.82411759 32.7680898,7.75756054 36.8422793,7.46654032 C39.0739252,7.30691783 41.2478888,6.73250572 43.4721979,6.45883992 C45.8543743,6.16591262 48.260838,5.97177201 50.6650247,5.79765572 C53.9402642,5.56041512 57.2251174,5.39945768 60.5023809,5.17613876 C64.5277428,4.90151942 68.54678,4.57369258 72.5734069,4.31165997 C75.7762906,4.10321626 78.9852461,3.94607297 82.1934426,3.79026464 C84.8589705,3.66077399 87.5336061,3.61843684 90.1933151,3.44412985 C94.4048795,3.16836626 98.6037942,2.78218282 102.815865,2.51004268 C104.392007,2.40820468 105.899589,2.43585732 107.470672,3.06900746 C108.495544,3.48189001 110.089649,3.19239545 111.406727,3.07625436 C116.615588,2.61626697 121.807244,2.03975706 127.021671,1.6215347 C132.736769,1.16307297 138.46477,0.780322264 144.196565,0.463175069 C147.996511,0.252824284 151.811889,0.162238044 155.622461,0.113226121 C161.785608,0.0340823529 167.950527,0.0205420938 174.11494,0.00452263241 C177.386131,-0.00405922191 180.659853,-0.0101618739 183.927503,0.0821407371 C185.549184,0.127910627 187.163275,0.381742807 188.774837,0.570925018 C191.046709,0.837916042 193.305931,1.31830918 195.583368,1.36655827 C198.249402,1.42281709 200.114715,2.44482059 201.798126,3.7288567 C204.68654,5.93191406 206.330485,8.59610306 206.597645,11.7321033 C206.830651,14.4653286 207.110714,17.1987445 207.50437,19.9209087 C207.715112,21.3788704 208.311668,22.8042211 208.54518,24.26142 C208.767308,25.6480569 208.789065,27.0564346 208.815882,28.4562303 C208.845988,30.0354823 208.707601,31.6177855 208.778692,33.1951303 C208.886214,35.5829836 209.15388,37.9664506 209.276075,40.3541132 C209.41851,43.1367318 209.574606,45.922211 209.5445,48.7054017 C209.515406,51.4256588 209.159952,54.1440088 209.140218,56.8638845 C209.128328,58.4839479 209.474168,60.1062998 209.683646,61.7259818 C209.956878,63.8361644 210.17774,65.9526404 210.564819,68.0513806 C210.879035,69.7561182 211.345806,71.4488413 211.853056,73.1282149 C212.40382,74.952145 212.940923,76.7909503 213.754547,78.5523282 C214.227643,79.5766202 214.296456,80.3457451 213.248562,81.1327965 C212.812656,81.4602419 212.495151,81.8874275 212.18397,82.2955424 C211.936796,82.6197458 211.519865,83.0444522 211.632194,83.3188808 C212.039511,84.314948 211.31064,85.1487229 211.153532,86.0563016 C211.019952,86.8271429 210.435034,87.108437 209.390428,87.0380658 C208.415142,86.9722716 207.499816,87.0045012 206.696312,86.3972873 C206.392468,86.1674843 205.557846,86.2332786 205.003793,86.3143294 C203.342392,86.5576726 201.715398,86.947861 200.046913,87.1479135 C196.933842,87.5213195 193.705406,87.8029951 190.702386,87.0973759 C186.974037,86.2214547 183.306912,86.8311477 179.616006,86.7815637 C178.257437,86.7634464 176.895579,86.8454508 175.536757,86.9009468 C175.174978,86.9156313 174.820788,87.0191857 174.458503,87.0481733 C174.053463,87.0807843 173.64235,87.0680069 173.234779,87.086887 C172.441648,87.1235029 171.64877,87.1654586 170.856398,87.2110378 C169.347804,87.2976192 167.862486,87.9433561 166.326316,87.3388121 C164.938653,86.7928155 163.685328,86.8567026 162.535478,87.7131717 C162.359901,87.8438065 162.027469,87.8838552 161.758285,87.9088379 C160.335962,88.0402357 158.914398,88.1987139 157.486003,88.2605033 C155.872923,88.3303023 154.2477,88.2524935 152.63715,88.3379307 C150.387795,88.4575045 148.147294,88.6695716 145.902746,88.8404459 C145.403086,88.8783968 144.902667,88.9100543 144.402501,88.9447631 C144.399971,88.927218 144.397441,88.9096729 144.394911,88.891937 L144.394911,88.891937 Z M200.408439,11.3199836 C200.490915,11.3032013 200.573643,11.286419 200.656119,11.2698275 C200.294339,10.3759797 199.861216,9.49433715 199.592539,8.58504201 C199.353967,7.7783477 198.813828,7.90516844 198.015637,8.05945111 C196.042802,8.44067615 194.056812,8.81865915 192.04527,9.03701967 C190.939693,9.15716563 189.756953,8.83467861 188.635185,8.91592017 C185.830258,9.11902405 182.955759,8.85908922 180.222176,9.60971541 C179.876082,9.70468793 179.402481,9.55746146 178.994657,9.49738847 C178.071994,9.36160447 177.161221,9.1396205 176.231474,9.08317097 C175.116284,9.01566039 173.98642,9.07783115 172.863386,9.09423203 C170.38735,9.13027582 167.903217,9.09137141 165.438313,9.23726293 C163.204896,9.36942349 161.00032,9.83932769 158.768674,9.91351306 C156.716147,9.98159577 154.641609,9.74149455 152.582757,9.59083533 C152.04869,9.55174022 151.363334,9.45466991 151.047093,9.18481827 C150.089264,8.36725361 149.039599,8.42580093 147.754397,8.59095395 C145.403845,8.89322593 142.955385,8.88254629 140.795842,8.11037011 C139.055254,7.48809031 137.348061,7.39178284 135.544225,7.46768457 C133.497264,7.55369382 131.455109,7.70263667 129.408654,7.79474858 C127.361439,7.88686048 125.312201,7.9770653 123.26271,7.99251264 C122.670708,7.99708963 121.999266,7.82964812 121.496823,7.58573275 C120.454747,7.07997546 119.55966,6.46150983 118.139867,6.58356287 C116.020549,6.76568889 113.884282,6.85589371 111.752062,6.9283627 C102.828767,7.23196964 94.0658696,8.45040225 85.2814678,9.54220483 C82.381669,9.90264271 79.5180481,10.4503557 76.6071176,10.7305056 C72.1926534,11.1554027 67.7539018,11.4447066 63.3202101,11.7467878 C60.3111186,11.9517988 57.2916544,12.0719448 54.278515,12.2452982 C51.5259578,12.4033951 48.7610039,12.4991304 46.0279271,12.7720334 C42.4255684,13.1318991 38.8447141,13.6201113 35.2620888,14.0865828 C32.2648879,14.4769618 29.2724939,14.8930864 26.2899666,15.3423941 C24.8699203,15.5563683 23.483522,15.8956376 22.0685355,16.1324968 C21.5961987,16.2116406 21.0077384,16.0276075 20.5994087,16.1704477 C17.729969,17.1745246 14.7616092,16.9100128 11.7472049,16.7831921 C10.079985,16.7130116 8.36267265,17.0623884 6.70177759,17.3389148 C6.2825692,17.4087139 5.86260183,17.8852929 5.67361651,18.2440144 C5.32119811,18.9124455 5.09299897,19.6245487 4.89642388,20.3316935 C4.68011538,21.1097816 3.97654354,21.9956197 5.53042282,22.5069075 C5.65565405,22.5479097 5.64376341,22.8002162 5.72623893,22.9443914 C6.70304256,24.6510361 6.36656267,26.5134892 6.84573027,28.2792534 C7.06001482,29.0689747 7.31781407,29.860031 7.40484345,30.6598598 C7.68111115,33.1945582 7.81722105,35.7386012 8.14181029,38.269104 C8.37684023,40.1021881 8.86941642,41.9156293 9.16465854,43.7452806 C9.4087962,45.2572126 9.59929947,46.7781079 9.6848109,48.2990032 C9.73920426,49.2668457 10.0035813,50.473073 9.37717215,51.1590492 C8.4709534,52.1513023 8.54153827,53.0951155 8.55418789,54.1054859 C8.58176407,56.2854676 9.36275158,58.4120511 9.25953069,60.6177783 C9.16061066,62.7258632 9.37514821,64.8444369 9.52264277,66.9555731 C9.56084463,67.5042397 9.78018903,68.0693071 10.0683474,68.5777343 C10.3653604,69.1017995 11.1051102,69.538902 11.2025123,70.0614415 C11.5498708,71.9240854 11.6973654,73.8075163 11.9379611,75.6817933 C12.1274525,77.1559652 12.2364922,78.6421516 12.5772729,80.0968713 C12.8859236,81.4148534 13.6223845,82.6798187 13.8794248,84.0002801 C14.2973682,86.1478414 14.4458747,88.3243904 14.7856435,90.4816779 C14.8536985,90.9140126 15.1410978,91.5618473 15.5479096,91.6802768 C16.4247812,91.9356347 16.2504695,92.3401261 16.2147975,92.8037369 C16.1449716,93.7073108 15.9828035,94.6188945 16.0769167,95.5142679 C16.1561033,96.2706154 17.0220963,96.413837 17.8068787,95.9792137 C18.2569521,95.7299586 18.8643869,95.5937931 19.427042,95.5188449 C20.6601269,95.3548362 21.9344496,95.3403424 23.1467891,95.1223633 C25.1337914,94.7651674 27.0808208,94.2842022 29.0554264,93.8850506 C29.3192975,93.8316524 29.7172545,93.8787572 29.9297682,94.0011917 C31.7282911,95.0371168 33.7150403,95.2386951 35.8927989,94.9251713 C38.9393332,94.4865432 41.9969993,94.0883452 45.0584602,93.7128414 C47.5820594,93.4035132 50.1137542,93.1233633 52.650509,92.8832621 C55.3471549,92.6279043 58.0503786,92.3998177 60.7581562,92.22532 C63.2111704,92.0674138 65.7044104,92.1429342 68.1263066,91.8568723 C72.2300962,91.3720929 76.2908771,90.6811583 80.3716444,90.0832891 C80.9446722,89.9991869 81.5280726,89.956087 82.1051483,89.8860972 C85.6607034,89.454716 89.2020909,88.9319857 92.7756084,88.6142664 C96.0255487,88.3253439 99.307619,88.2153055 102.580076,88.1058392 C105.464695,88.009341 108.355892,88.0345144 111.243294,87.9828326 C112.7825,87.9551799 114.327018,87.9313415 115.856357,87.8119583 C118.588422,87.5985562 121.315174,87.3380493 124.035854,87.0521782 C126.356554,86.8082628 128.657267,86.4506855 130.981508,86.23366 C134.612707,85.8943907 138.252509,85.5974585 141.896864,85.3544967 C143.215208,85.2665803 144.564669,85.4622466 145.887819,85.3943546 C149.294868,85.2192848 152.695592,84.9707924 156.098339,84.7491899 C160.742774,84.4463458 165.381895,84.0851451 170.032907,83.8587748 C172.720699,83.7281399 175.44568,83.6573873 178.121327,83.8362713 C182.897318,84.1555163 187.653575,84.2651733 192.425264,83.9016841 C193.708947,83.8040417 195.081684,83.8902416 196.251774,83.5631776 C197.345966,83.2572822 198.182612,82.9874305 199.095915,83.7119298 C199.277563,83.8557235 199.645414,84.0178252 199.846796,83.9716739 C201.384737,83.619055 202.90851,83.2294388 204.423681,82.8232311 C204.9241,82.6891634 205.443747,82.528206 205.853341,82.2833371 C206.733502,81.7567926 206.348953,81.0755841 206.200194,80.3936127 C205.880664,78.9270692 205.659043,77.4481296 205.417435,75.9724321 C205.138132,74.2671223 204.668578,72.559524 204.670855,70.8532606 C204.673132,68.9959567 204.796592,67.1253031 203.671282,65.4560371 C202.795422,64.1567444 203.090917,63.2323833 204.336905,62.2662572 C204.648845,62.0246303 204.819614,61.5823788 204.82518,61.230332 C204.84795,59.7815243 204.841625,58.3296653 204.737645,56.8833368 C204.430765,52.6179644 203.940213,48.3575505 203.773238,44.089699 C203.622707,40.2496053 202.773918,36.488846 202.104247,32.7011969 C201.713374,30.4899391 201.581312,28.2500751 201.416108,26.0197466 C201.245591,23.7219074 201.210931,21.418347 201.05357,19.1199357 C200.87521,16.5184896 200.626518,13.9197134 200.408439,11.3199836 L200.408439,11.3199836 Z M147.137349,4.07079592 C148.983181,4.78614116 151.352202,4.63338415 151.610001,3.88981415 C150.086987,3.95141279 148.612294,4.01110436 147.137349,4.07079592 L147.137349,4.07079592 Z" id="Fill-1" sketch:type="MSShapeGroup"></path>
            <g id="Group" transform="translate(50.000000, 34.000000)" sketch:type="MSShapeGroup">
                <path d="M74.4096281,10.4136474 C74.1428424,10.9783335 73.9486086,11.4224921 73.7273345,11.8525384 C72.7359808,13.7788786 71.7615749,15.7149449 70.7127127,17.6094369 C70.5638002,17.878335 70.0108053,18.1098544 69.6950803,18.0570283 C69.155796,17.9668235 68.4038068,17.7751621 68.1901497,17.381541 C67.6740973,16.4308623 67.4094062,15.3415389 67.0592142,14.3027531 C66.895639,13.8175923 66.7691966,13.3200354 66.6259968,12.8281998 C66.5157406,12.8388795 66.4056748,12.8495591 66.2956091,12.8602388 C66.2350538,13.1745253 66.1834486,13.490719 66.11242,13.8027171 C65.3297723,17.2360309 64.6328159,20.6956625 63.1082715,23.9075645 C62.6240202,24.9280423 61.2381054,25.3746802 60.3090207,24.8187667 C59.8558086,24.5475801 59.5635059,22.924084 59.889133,22.4309134 C61.2803798,20.3247357 61.798146,17.9342125 62.1970868,15.492961 C62.4088397,14.1969102 62.7794072,12.9269865 62.9964919,11.6313172 C63.2884138,9.88805654 63.5066411,8.13220915 63.7461961,6.38036662 C63.8874916,5.34844631 64.5311289,4.76812225 65.5658996,4.69584397 C65.954367,4.66876345 66.3346462,4.5222998 66.7118786,4.43190427 C67.7853056,6.90824601 69.6010102,9.14029097 69.7047919,12.0872997 C69.8087641,12.0893975 69.9125459,12.0914953 70.016518,12.0937838 C70.2833038,11.6498159 70.5797959,11.2209139 70.811353,10.7594008 C71.6825484,9.02434058 72.4983301,7.26029275 73.4180839,5.55193161 C73.6140315,5.18806099 74.1953997,4.7572519 74.5354992,4.80588241 C75.1570471,4.89456157 75.9067513,4.69126698 76.3317804,5.64156431 C77.7049367,8.71138896 78.4731121,11.9412175 79.2336705,15.1903076 C79.5652008,16.6066949 80.0643053,17.9954297 80.6129204,19.3456414 C81.1642015,20.702528 80.6426267,21.3816387 79.5541561,22.0353853 C78.8888104,22.4349183 77.705508,22.0229893 77.4490052,21.3108861 C77.1127143,20.3769896 76.8375498,19.4169662 76.5978044,18.4527472 C75.9987267,16.043916 75.4394478,13.625168 74.8477966,11.2144298 C74.7923828,10.988441 74.6206193,10.791249 74.4096281,10.4136474" id="Fill-4"></path>
                <path d="M32.3650703,18.1516194 C31.7134351,15.7515608 31.0814138,13.433888 30.4558669,11.1144989 C30.2439236,10.3280196 29.8446019,9.65424869 30.2572534,8.69136463 C30.5550784,7.99680656 31.1193084,7.56275544 31.4750227,7.64132708 C32.0638175,7.77158056 32.8451323,8.27371439 33.0250841,8.79816104 C33.810969,11.090279 34.3763415,13.4569637 35.0929117,15.7746365 C35.3749314,16.6873644 35.8570881,17.5365865 36.216611,18.4275737 C36.3274384,18.7018116 36.3830426,19.0183867 36.3807575,19.3151282 C36.3683799,20.9687561 36.7732239,22.5022382 37.5695822,23.951618 C37.7912372,24.3549652 37.8660743,24.840126 38.0033709,25.289243 C38.1806568,25.8688043 38.3682256,26.446077 38.523803,27.0315502 C38.7511708,27.8876378 38.4573446,28.5553061 37.6489895,28.888282 C37.0070661,29.1526031 36.5688976,28.8694019 36.1059739,28.2970876 C34.7928015,26.6743543 33.8402945,24.9309029 33.4383069,22.8540942 C33.0757372,20.9813429 33.0382234,21.431032 31.3923782,21.7069863 C30.4054042,21.8725208 29.4338547,22.2463082 28.4484041,22.273198 C27.5073226,22.2989436 27.5195098,22.7488234 27.7171712,23.3445948 C28.0052846,24.2130785 28.3356724,25.0743153 28.7308047,25.8989361 C29.4191919,27.3357292 28.9280853,29.4472468 27.721551,30.0054488 C26.820078,30.4227176 25.5684129,29.730448 25.3642771,28.760317 C24.6635122,25.4267434 23.8997166,22.1061379 23.2299911,18.7666523 C22.9161703,17.2028478 22.7872524,15.602618 22.5275124,14.0266081 C22.3787903,13.1241785 22.1775109,12.2253722 21.923674,11.3469718 C21.6525085,10.4090705 22.0169824,9.22744447 22.7364089,8.97456583 C23.6201724,8.66409341 25.2454517,9.31402584 25.3947451,10.1924263 C25.7533158,12.2995576 25.9648783,14.4316716 26.2497544,16.5515804 C26.3624861,17.3910764 26.4765509,18.2341959 26.6717367,19.0561469 C26.7185813,19.2527667 27.1329466,19.5422612 27.3085187,19.4997334 C28.8989502,19.1152663 30.4737669,18.66634 32.3650703,18.1516194" id="Fill-5"></path>
                <path d="M46.5332787,8.71424958 C47.2429935,10.4990846 47.9692753,11.9862246 48.4253437,13.5521269 C49.1118267,15.9108019 49.5993153,18.3272614 50.1942037,20.7132076 C50.3484481,21.3311011 50.4529916,22.0416786 50.8346038,22.4948006 C51.0996757,22.8094685 51.806915,22.8735464 52.3041153,22.843796 C53.4262911,22.7768575 54.5370415,22.5312258 55.6592174,22.4539891 C56.7812028,22.3767524 57.2033756,22.9635605 56.9175473,24.0303804 C56.8453762,24.3000413 56.8213826,24.5826704 56.7444508,25.0451369 C54.9340781,25.4318925 53.0844779,25.8457286 51.2266893,26.2185625 C49.3839444,26.5883451 47.5432941,27.0136236 45.6801736,27.2085271 C45.0692895,27.2722235 44.1777186,26.8517126 43.8061989,26.3573978 C43.4630527,25.9010339 43.4095432,24.9330007 43.6685215,24.4076005 C43.8810361,23.9767914 44.7227156,23.808015 45.317604,23.6312288 C45.7578671,23.5005939 46.275062,23.6209305 46.7082794,23.4784718 C46.9371706,23.4033329 47.253086,22.9545972 47.2020521,22.7606473 C46.5005255,20.0897836 45.770816,17.4252131 44.9858832,14.7776157 C44.5538084,13.3202262 43.9690125,11.9086065 43.5253217,10.4540775 C43.3200433,9.78087872 43.1092426,9.49252841 42.3382108,9.75723094 C41.4776792,10.0526374 40.5657328,10.2191254 39.6638789,10.3667333 C38.2800588,10.593485 37.5705343,9.81806675 37.4513282,8.60154122 C37.363923,7.70902837 38.1618047,7.12813219 39.3323486,6.95382519 C40.6980783,6.7505306 42.0432422,6.40725643 43.3962134,6.11871541 C46.1903228,5.5225626 48.9886216,4.94433633 51.7745427,4.31194902 C52.7308582,4.09492345 53.6454706,3.7907444 54.6010244,4.30775344 C55.3650104,4.72101741 55.7035865,5.57119311 55.3632966,6.36510999 C54.8733325,7.50821298 53.149032,8.14613082 51.9708711,7.74202084 C51.4864293,7.57572357 50.8776399,7.62568903 50.3593024,7.73610889 C49.1169682,8.00062071 47.8948191,8.35934222 46.5332787,8.71424958" id="Fill-6"></path>
                <path d="M9.27867704,28.4799765 C10.8510182,28.1830443 12.4328806,27.9269236 13.9913206,27.568965 C14.6237228,27.4238363 15.2212772,27.087809 15.8058827,26.7834392 C16.6075729,26.3659797 17.554748,26.8814631 17.7446019,27.7568122 C18.0862248,29.3324407 16.0254429,30.7926909 14.6917046,31.0572027 C13.1166976,31.3693915 11.5114129,31.5362609 9.91526859,31.7323085 C7.55894679,32.0216124 5.37800663,31.4550193 3.4101523,30.1746066 C0.526543035,28.2984226 -0.413395901,25.4456235 -0.49051812,22.1616339 C-0.54040953,20.0367668 0.440661256,18.2164601 1.11819423,16.3112884 C1.60492111,14.9423873 2.14420537,13.5668114 2.86515529,12.3127165 C4.07835443,10.2023431 5.55091273,8.28077058 7.96474295,7.39436038 C8.27780203,7.27936353 8.67483864,7.24045913 8.99399132,7.32131927 C10.5404346,7.71379607 12.1034449,8.07633174 13.5999968,8.61775139 C14.4511976,8.9255539 14.6871344,9.96662819 14.2506798,10.5707907 C13.6658839,11.3803457 12.5073368,11.7100796 11.8623666,11.1406259 C10.9905999,10.3707382 9.93716749,10.3709289 8.91325102,10.3268754 C8.54382608,10.3110466 8.08299702,10.6297195 7.78993259,10.9222653 C5.98222588,12.726934 5.00705828,15.0133307 4.16785429,17.3718149 C3.92525254,18.0535956 3.65789552,18.7266037 3.41529378,19.4083843 C2.61131846,21.6671284 2.48430483,23.8739999 3.972478,25.9338356 C5.01505614,27.3771128 6.44267409,28.1515775 8.20829682,28.2995668 C8.55258564,28.3285544 8.90144466,28.3037624 9.24801858,28.3037624 C9.25830154,28.3625004 9.26839408,28.4212384 9.27867704,28.4799765" id="Fill-7"></path>
                <path d="M110.340394,3.6164374 C109.763786,3.6164374 109.100535,3.72666655 108.48927,3.59507812 C106.879986,3.24856191 105.754383,4.06784294 104.734084,5.07516193 C104.109109,5.69229261 104.643251,7.04326719 105.72201,7.51755767 C107.700148,8.38718557 109.512996,9.46678285 111.111806,10.9510622 C112.918751,12.6287194 114.162228,14.6258123 114.211167,17.0697337 C114.235542,18.2854964 113.552486,19.5420705 112.494865,20.3966325 C110.352962,22.1269251 107.89381,23.0093304 105.147688,23.0289733 C104.257831,23.0352667 103.327794,23.0217264 102.491446,22.7680849 C102.012337,22.6229562 101.35575,21.9594835 101.376697,21.5609041 C101.399929,21.117699 102.035759,20.4715807 102.523247,20.3340803 C103.813378,19.9696376 105.190914,19.9206257 106.489424,19.578305 C107.69653,19.2602043 108.882498,18.800789 110.011339,18.2639464 C111.033351,17.7780227 111.160365,16.5403286 110.394284,15.3869274 C109.128147,13.4804208 107.570849,11.8841959 105.485883,10.8581875 C104.596407,10.4207036 103.707311,9.97540075 102.854968,9.47097842 C100.669458,8.1772162 100.601095,5.12512739 102.063751,3.21328095 C103.600673,1.20436421 105.713822,0.394809284 108.185732,0.484823401 C108.812231,0.507517638 109.441015,0.686020208 110.05228,0.853271013 C110.902719,1.08593462 110.972034,1.68532947 110.703534,2.41669416 C110.583947,2.7422325 110.500732,3.0811204 110.340394,3.6164374" id="Fill-8"></path>
                <path d="M89.0224794,16.9185023 C89.0076263,17.1038704 88.9459285,17.3559862 88.9750635,17.5970409 C89.1578718,19.1093544 89.4456043,19.5382564 90.8617967,19.255818 C92.6091386,18.9075854 94.4307464,18.9079669 96.2234095,18.839312 C96.5372303,18.8272974 97.1344038,19.217295 97.1345942,19.4221153 C97.1351655,19.9049876 96.9959647,20.6144209 96.6592929,20.8257252 C95.8730271,21.3190865 94.9620328,21.668654 94.0567512,21.904369 C92.1418351,22.4032608 90.1989265,22.7957376 88.26592,23.2246396 C87.4413787,23.4077191 86.40299,22.6155186 86.2533157,21.6505368 C85.8096249,18.7880116 85.3825012,15.9228165 84.9631848,13.0566679 C84.8319818,12.1597687 84.7024927,11.2584833 84.656981,10.3549094 C84.6326066,9.86860434 84.7992287,9.37448024 84.8576892,8.88130968 C84.88492,8.65036244 84.9271944,8.38699487 84.848168,8.18293744 C84.4174261,7.07244549 84.4638898,6.69541602 85.4855212,6.23638217 C87.3827278,5.38391798 89.3128779,4.59953649 91.2573099,3.86073419 C92.1808723,3.50964099 93.2205941,3.87293949 93.6048722,4.51162016 C94.1982372,5.49815199 93.4799532,6.68931337 92.3438763,7.00455349 C90.9065467,7.40332365 89.5311052,8.03056185 88.1421436,8.59143371 C88.0002768,8.64864607 87.852126,8.93528 87.8677408,9.10005161 C87.9878992,10.3549094 88.0764469,11.6202562 88.321905,12.8528012 C88.4727218,13.6097207 89.0752272,13.4638292 89.6744954,13.2475665 C90.9314924,12.7938724 92.1936308,12.3193912 93.4929021,12.0300874 C94.658495,11.7707247 95.1406516,12.4439235 94.7586586,13.5816866 C94.5486196,14.2073992 94.2462243,14.6397339 93.5287021,14.9050086 C92.0026343,15.4693132 90.5464525,16.2239442 89.0224794,16.9185023" id="Fill-9"></path>
            </g>
        </g>
    </g>
</svg>