<?xml version="1.0" encoding="UTF-8" standalone="no"?>
<svg width="265px" height="60px" viewBox="0 0 265 60" version="1.1" xmlns="http://www.w3.org/2000/svg" xmlns:xlink="http://www.w3.org/1999/xlink" xmlns:sketch="http://www.bohemiancoding.com/sketch/ns">
    <!-- Generator: Sketch 3.1.1 (8761) - http://www.bohemiancoding.com/sketch -->
    <title>choose-a-lead</title>
    <desc>Created with Sketch.</desc>
    <defs></defs>
    <g id="Page-1" stroke="none" stroke-width="1" fill="none" fill-rule="evenodd" sketch:type="MSPage">
        <g id="Imported-Layers" sketch:type="MSLayerGroup" fill="#000000">
            <path d="M244.695333,7.983375 C245.750161,7.87815 246.780529,7.300175 247.418011,8.477475 C247.667195,8.93955 247.878161,9.4611 247.934724,9.975025 C248.034092,10.862575 247.979057,11.765375 248.02492,12.659025 C248.148747,15.016675 248.33831,17.3728 248.414747,19.731975 C248.498828,22.327525 248.457552,24.926125 248.523287,27.521675 C248.582908,29.873225 248.757184,32.221725 248.793874,34.57175 C248.812218,35.7155 248.563034,36.8623 248.555391,38.007575 C248.540103,39.8269 248.45908,41.670625 248.715908,43.457925 C248.994138,45.400775 250.524402,46.639075 252.079126,47.5922 C254.332483,48.975375 256.810563,49.4771 259.388011,48.4157 C259.93377,48.191525 260.459655,47.874325 260.922862,47.508325 C261.725448,46.876975 262.471471,46.17395 263.238897,45.50295 C265.087138,47.458 264.995414,48.7817 262.923977,50.30975 C258.258276,53.751675 253.185931,53.166075 248.633356,49.743975 C247.817011,49.127875 247.121437,48.35165 246.366241,47.6471 C243.044299,54.29305 234.044632,54.91525 229.536391,51.018875 C228.027529,51.7341 226.584402,52.482875 225.090828,53.114225 C222.303943,54.291525 219.070667,52.48745 218.03877,49.972725 C217.557218,48.79695 217.127644,47.599825 216.638448,46.3173 C216.499333,46.446925 216.257793,46.562825 216.218046,46.72905 C215.857264,48.22965 214.724471,49.194975 213.796529,50.30975 C211.092195,53.558 206.146736,53.407025 203.454632,50.99905 C200.154092,53.089825 196.330724,53.4299 192.579207,53.95145 C191.824011,54.05515 190.877724,53.66475 190.195908,53.2286 C188.748195,52.3014 187.198057,52.241925 185.63569,52.4844 C183.310483,52.8443 181.191655,52.266325 179.097287,51.38945 C177.541034,50.738275 175.978667,50.09625 174.413241,49.448125 C174.275655,50.622375 174.135011,51.85 173.989782,53.07915 C173.794103,54.724625 172.679655,55.9004 171.837322,57.213425 C171.748655,57.3522 171.556034,57.451325 171.389402,57.5108 C169.383701,58.222975 167.416218,59.107475 165.353954,59.580225 C162.842241,60.156675 160.197529,58.470025 158.965368,55.7967 C157.606322,52.851925 158.012966,50.05965 159.697632,47.340575 C161.298218,44.7618 163.620368,43.503675 166.584586,43.2917 C166.945368,43.265775 167.350483,43.22155 167.66846,43.348125 C168.672839,43.75225 169.571736,43.4869 170.721345,42.98975 C170.120552,39.956525 169.515172,36.90195 168.908264,33.8489 C167.972678,29.14885 167.012632,24.4549 166.112207,19.74875 C165.81869,18.219175 165.678046,16.6591 165.454851,15.019725 C164.692011,15.019725 163.962805,14.922125 163.268759,15.0365 C159.786299,15.614475 156.294667,16.0613 152.758701,16.151275 C151.979046,16.1711 151.205506,16.437975 150.425851,16.45475 C148.279506,16.5005 147.683299,15.921 147.455517,13.6274 C148.57608,13.000625 149.595747,12.54465 151.130598,12.680375 C153.391598,12.881675 155.718333,12.3525 158.014494,12.116125 C159.887195,11.923975 161.761425,11.7303 163.628011,11.487825 C164.283839,11.402425 164.921322,11.17215 165.482368,11.030325 C165.840092,9.523625 166.049529,8.07945 166.541782,6.73745 C167.058494,5.326825 167.735724,3.94365 168.55054,2.684 C169.207897,1.6653 170.186287,0.8906 171.523931,0.7442 C172.765264,0.60695 173.995897,0.272975 175.235701,0.245525 C175.952678,0.22875 176.824057,0.4636 177.374402,0.901275 C178.913839,2.1228 179.772989,3.74845 179.471828,5.795 C179.346471,6.635275 179.213471,7.492325 178.92454,8.2838 C178.727333,8.825175 178.357379,9.438225 177.885,9.721875 C176.026057,10.8397 174.115138,11.875175 172.185874,12.86795 C171.227356,13.36205 170.187816,13.7006 168.935782,14.20995 C169.441793,17.2569 169.903471,20.36485 170.48592,23.45145 C171.046966,26.41605 171.733368,29.357775 172.364736,32.310175 C172.467161,32.785975 172.52831,33.273975 172.672011,33.73605 C173.670276,36.9477 173.998954,40.26305 174.226736,43.59365 C174.284828,44.4507 174.214506,45.3901 175.504759,45.348925 C176.678828,46.9883 178.701345,47.1591 180.298874,48.060375 C181.919333,48.97385 183.770632,49.097375 185.585241,49.0867 C185.493517,47.44275 185.475172,45.843025 185.285609,44.26465 C185.181655,43.390825 185.600529,42.756425 185.990356,42.14795 C186.510126,41.338175 187.187356,40.6138 187.875287,39.932125 C189.822897,38.003 193.549954,37.601925 195.763563,39.004925 C196.931517,39.746075 197.487977,40.93405 197.442115,42.143375 C197.371793,43.982525 197.243379,45.88115 195.774264,47.3665 C195.200989,47.944475 194.919701,48.807625 194.351011,49.814125 C197.255609,49.85835 199.885034,49.6052 201.846402,47.544925 C203.173345,46.151075 204.124218,44.408 205.313575,42.875375 C207.29023,40.331675 209.366253,37.89625 212.394678,36.482575 C213.723149,35.863425 214.897218,35.40745 216.161483,36.6671 C216.465701,36.970575 217.27746,36.766225 218.032655,36.80435 C218.320057,37.507375 218.705299,38.263775 218.936138,39.0644 C219.241885,40.1258 219.533874,41.2116 219.637828,42.305025 C219.818218,44.177725 220.023069,46.00315 221.475368,47.404625 C221.111529,48.1778 221.539575,48.6719 222.00431,49.24835 C222.629563,50.02 223.302207,50.26705 224.233207,49.93155 C225.096943,49.621975 226.275598,49.73635 226.21292,48.2876 C226.205276,48.10155 226.524782,47.907875 226.679184,47.709625 C227.648402,46.456075 228.73992,45.323 229.489,43.866625 C230.134126,42.613075 231.091115,41.396125 232.199448,40.53755 C233.673149,39.395325 235.405207,38.571825 237.074586,37.702575 C237.820609,37.3137 238.957989,37.88405 239.334057,38.666375 C239.73,39.4914 239.575598,40.078525 238.695046,40.687 C237.394092,41.582175 236.041161,42.40415 234.744793,43.305425 C233.46677,44.196025 232.506724,45.303175 232.202506,46.9273 C232.00377,47.999375 232.387483,48.69325 233.252747,49.1721 C236.155816,50.777925 240.838333,50.27925 242.721736,46.61315 C243.221632,45.638675 243.600759,44.604725 244.086897,43.622625 C244.822218,42.137275 244.762598,40.621425 244.60208,39.0095 C244.423218,37.21 244.588322,35.37695 244.621954,33.55915 C244.667816,31.1222 244.874195,28.67915 244.756483,26.252875 C244.589851,22.8628 244.154161,19.487975 243.900391,16.102475 C243.764333,14.287725 243.649678,12.454675 243.75669,10.642975 C243.811724,9.721875 244.380414,8.831275 244.695333,7.983375 L244.695333,7.983375 Z M170.779437,47.38785 C169.538103,47.200275 168.451172,46.867825 167.384115,46.9212 C166.138195,46.983725 164.70577,47.069125 163.716678,47.70505 C161.724736,48.98605 161.203437,52.4722 162.180299,54.70785 C162.73523,55.975125 163.571448,56.435675 164.870874,56.3701 C166.709943,56.2786 168.229506,55.371225 169.749069,54.483675 C170.002839,54.33575 170.091506,53.885875 170.226034,53.56105 C171.043908,51.59685 170.67854,49.530475 170.779437,47.38785 L170.779437,47.38785 Z M215.42769,39.224525 C211.781655,40.0404 210.262092,42.927225 208.149379,45.0607 C207.170989,46.0489 206.819379,47.456475 206.804092,48.88235 C209.179747,49.603675 209.496195,49.5015 211.217552,48.0863 C212.012494,47.435125 212.231103,46.47895 212.769218,45.73475 C214.155782,43.8163 214.377448,41.518125 215.42769,39.224525 L215.42769,39.224525 Z M189.49269,48.389775 C192.806989,47.325325 194.198138,44.88685 193.604989,41.2421 C193.331345,41.33055 192.939989,41.573025 192.81769,41.47695 C192.169506,40.963025 191.577885,41.0591 191.000023,41.51965 C190.443563,41.963425 189.799966,42.359925 189.835126,43.22765 C189.841241,43.396925 189.691425,43.720225 189.610402,43.720225 C188.671759,43.732425 188.691632,44.60625 188.702333,45.03935 C188.729851,46.1465 188.757368,47.31465 189.49269,48.389775 L189.49269,48.389775 Z M169.223184,9.68375 C169.327138,9.80575 169.431092,9.926225 169.533517,10.048225 C171.037793,9.358925 172.629207,8.8084 174.017299,7.9361 C175.066011,7.2773 175.925161,6.250975 175.787575,4.79155 C175.694322,3.8125 175.238759,3.332125 174.258839,3.4404 C172.97623,3.582225 171.711966,3.875025 171.11423,5.23075 C170.464517,6.70695 169.851494,8.199925 169.223184,9.68375 L169.223184,9.68375 Z" id="Fill-1" sketch:type="MSShapeGroup"></path>
            <path d="M31.7867931,35.6727883 C31.3358161,32.2735633 31.3572184,28.9231383 31.7287011,25.5925383 C34.082954,25.1533383 34.8656667,25.6382883 34.725023,27.8525883 C34.5583908,30.4755883 34.7112644,33.0635133 34.9069425,35.6666883 C35.0873333,38.0639883 35.1423678,40.4689133 35.2707816,42.8692633 C35.3288736,43.9382883 34.7418391,44.9524133 33.9423103,45.0911883 C33.0969195,45.2391133 32.0482069,44.2783633 31.954954,43.1803633 C31.8295977,41.7377133 31.776092,40.2904883 31.6828391,38.6709383 C29.2643793,38.6983883 26.9621034,38.9805133 24.669,39.9000883 C24.107954,41.3046133 25.2652069,42.5246133 25.178069,44.0724883 C24.8509195,44.4339133 24.4091149,44.9219133 23.981069,45.3931383 C22.3758966,45.2055633 21.5534368,44.4811883 21.4922874,42.8280883 C21.3852759,39.9443133 20.4389885,37.1169633 20.8425747,34.1904883 C20.9587586,33.3502133 21.0978736,32.5129883 21.2018276,31.6711883 C21.2538046,31.2563883 21.425023,30.7211133 21.240046,30.4344133 C20.4191149,29.1549383 21.4785287,28.2246883 21.8072069,27.2059883 C22.060977,26.4175633 23.2488046,26.1888133 23.9887126,26.5609133 C25.3064828,27.2227633 25.5327356,27.7702383 25.2774368,28.9094133 C24.7760115,31.1450633 24.3647816,33.4020633 23.9382644,35.6529633 C23.8740575,35.9884633 23.929092,36.3453133 23.929092,36.6869133 C26.634954,36.3376883 29.1864138,36.0082883 31.7867931,35.6727883" id="Fill-2" sketch:type="MSShapeGroup"></path>
            <path d="M88.5472184,33.6735133 C88.6282414,34.1279633 88.6725747,34.4253383 88.7367816,34.7196633 C88.8942414,35.4287883 89.0624023,36.1348633 89.2794828,37.0742633 C90.0912414,37.0742633 90.9626207,37.2328633 91.7499195,37.0452883 C94.1118161,36.4795133 95.8729195,37.4097633 97.4872644,39.0338883 C96.7595862,39.9504133 95.9707586,40.0053133 94.8501954,39.8650133 C93.3734368,39.6820133 91.834,40.0144633 90.3495977,40.1227383 C89.7747931,40.8959133 89.9001494,41.6599383 90.134046,42.4315883 C90.3083218,43.0110883 90.5865517,43.5753383 90.6584023,44.1670383 C90.7669425,45.0469633 91.2622529,45.2589383 92.0357931,45.2513133 C93.5614713,45.2391133 95.0902069,45.1903133 96.6097701,45.2879133 C98.0804138,45.3809383 99.570931,45.5837633 100.187011,47.3390383 C99.6244368,48.5056633 98.5527931,48.6047883 97.4261149,48.5392133 C95.4280575,48.4233133 93.4315287,48.1716883 91.4365287,48.1823633 C88.9783218,48.1960883 87.9464253,46.7381883 87.4251264,44.4888133 C86.5812644,40.8379633 85.9774138,37.1322133 85.2757241,33.4493383 C85.206931,33.0909633 85.1289655,32.7310633 85.1014483,32.3681133 C85.0494713,31.6955883 85.2772529,31.2579133 85.9927011,30.9910383 C88.8422644,29.9235383 91.7040575,28.9612633 94.7737586,28.7264133 C95.7964828,28.6486383 96.7978046,28.2124883 97.8174713,28.1774133 C98.4671839,28.1545383 99.282,28.4107383 99.739092,28.8423133 C100.037195,29.1244383 100.029552,30.0577383 99.7834253,30.4877883 C99.5556437,30.8888633 98.8554828,31.1176133 98.3234828,31.2335133 C95.4800345,31.8480883 92.6228276,32.3894633 89.7793793,32.9964133 C89.3864943,33.0802883 89.0440575,33.3929133 88.5472184,33.6735133" id="Fill-3" sketch:type="MSShapeGroup"></path>
            <path d="M127.448954,40.0876633 C126.097552,41.3473133 125.926333,42.9958383 126.866506,44.5772633 C127.053011,44.8898883 127.322069,45.1582883 127.471885,45.4831133 C127.867828,46.3523633 127.257862,47.5083133 126.296287,47.7797633 C125.206299,48.0878133 124.389954,47.6577633 124.157586,46.6055133 C123.835023,45.1506633 123.550678,43.6866633 123.228115,42.1220133 C121.560264,41.7026383 119.903115,42.2668883 118.241379,42.4010883 C117.911172,42.4270133 117.536632,42.8570633 117.322609,43.1910383 C116.767678,44.0511383 116.20969,44.9264883 115.799989,45.8613133 C115.113586,47.4259633 115.162506,47.4473133 113.383057,48.1198383 C112.065287,47.1529883 111.813046,46.6299133 112.502506,45.2802883 C113.29592,43.7217383 114.329345,42.2867133 115.194609,40.7617133 C116.056816,39.2428133 116.949598,37.7254383 117.628356,36.1241883 C118.401897,34.3048633 118.904851,32.3711633 119.64323,30.5350633 C119.796103,30.1538133 120.436644,29.8991383 120.902908,29.7252883 C121.65046,29.4462133 122.24208,29.8564383 122.596747,30.4603383 C123.238816,31.5491883 123.900759,32.6487133 124.351736,33.8229633 C124.934184,35.3433883 125.472299,36.9141383 125.733713,38.5123383 C125.904931,39.5645883 126.777839,39.5249383 127.448954,40.0876633 L127.448954,40.0876633 Z M121.509816,34.7044133 C121.043552,35.7536133 120.746977,36.4063133 120.462632,37.0651133 C119.669218,38.8981633 119.829736,39.1253883 121.901172,39.1040383 C122.179402,39.1009883 122.456103,39.0598133 122.905552,39.0216883 C122.446931,37.6049633 122.035701,36.3315883 121.509816,34.7044133 L121.509816,34.7044133 Z" id="Fill-4" sketch:type="MSShapeGroup"></path>
            <path d="M44.4462529,43.4136883 C44.1512069,43.4136883 43.8454598,43.4258883 43.5427701,43.4121633 C41.634908,43.3267633 40.1856667,42.5291883 39.3647356,40.7418883 C38.6156552,39.1101383 38.3007356,37.4295883 38.6829195,35.6438133 C38.922931,34.5259883 39.1965747,33.4035883 39.3020575,32.2689883 C39.4151839,31.0459383 40.0327931,30.2925883 41.079977,29.7771383 C42.6698621,28.9948133 44.2123563,28.1545383 46.0346092,29.3043883 C46.4886437,29.5926133 47.3615517,29.2311883 47.8018276,29.5255133 C49.9282989,30.9407133 51.8957816,32.5450133 52.5791264,35.1847883 C52.6662644,35.5233383 52.7488161,35.9305133 52.6433333,36.2400883 C51.8927241,38.4315133 51.1482299,40.6412383 48.7848046,41.7163633 C48.3460575,41.9161383 47.8599195,42.1403133 47.5602874,42.4925883 C46.7057241,43.4945133 45.6661839,43.7003883 44.4462529,43.4136883 L44.4462529,43.4136883 Z M44.0533678,40.0129383 C45.9077241,40.0403883 48.5035172,38.0365383 49.3382069,36.0235383 C49.6699425,35.2198633 49.5094253,34.6632383 48.9116897,34.0745883 C47.5128966,32.6959883 45.631023,32.5724633 43.8852069,32.1469883 C43.5473563,32.0631133 42.89,32.5770383 42.6515172,32.9765883 C42.3595287,33.4691633 42.3014368,34.1249133 42.2326437,34.7211883 C42.121046,35.6804133 42.1164598,36.6518383 42.0063908,37.6110633 C41.8504598,38.9698383 42.698908,39.9915883 44.0533678,40.0129383 L44.0533678,40.0129383 Z" id="Fill-5" sketch:type="MSShapeGroup"></path>
            <path d="M11.6671034,28.9292383 C11.073954,30.1751633 10.0756897,30.7866883 8.96888506,30.3886633 C7.61595402,29.9037133 6.60393103,30.4359383 5.61483908,31.1938633 C5.41304598,31.3478883 5.28768966,31.6330633 5.1867931,31.8801133 C5.09812644,32.0951383 5.17762069,32.4657133 5.04156322,32.5572133 C2.15378161,34.4695633 2.54208046,36.9766633 3.58773563,39.4319133 C4.29095402,41.0865383 5.62095402,42.2485883 7.83609195,42.5154633 C9.97785057,42.7747133 11.7068506,42.2409633 13.5367471,41.4708383 C14.1222529,41.2237883 14.804069,41.2100633 15.4721264,41.0850133 C15.9338046,41.6599383 16.348092,42.1753883 16.770023,42.6984633 C16.6064483,43.9123633 15.7151954,44.4506883 14.7184598,44.7526383 C13.5734368,45.0972883 12.4773333,45.5563133 11.2497586,45.7560883 C10.1857586,45.9284133 9.18902299,46.1037883 8.09291954,46.0443133 C5.68974713,45.9146883 3.64277011,45.2314883 2.25926437,43.1147883 C1.56521839,42.0503383 0.582241379,41.1216133 0.11291954,39.9763383 C-0.903689655,37.5043133 -0.507747126,34.9545133 0.516505747,32.5816133 C1.82816092,29.5468633 4.13349425,27.6619633 7.51658621,27.1785383 C9.62624138,26.8765883 9.83109195,26.8979383 11.6671034,28.9292383" id="Fill-6" sketch:type="MSShapeGroup"></path>
            <path d="M59.8161609,30.3429133 C63.8550805,29.7695133 67.3864598,32.4458883 67.9903103,36.3376883 C68.2364368,37.9191133 68.5620575,39.4791883 67.3574138,40.8150883 C65.0551379,43.3679383 61.1828506,45.2314883 57.4084023,43.8681383 C56.4437701,43.5204383 55.3767126,43.4594383 54.7193563,42.5307133 C53.8204598,41.2588633 53.2578851,39.8314633 53.2395402,38.2881633 C53.2227241,36.9004133 53.3404368,35.4913133 53.588092,34.1249133 C53.8754943,32.5297633 55.0174598,31.4454883 56.3535747,30.6723133 C57.7844713,29.8442383 59.0991839,30.9086883 59.0273333,32.7341133 C56.5782989,33.9175133 55.4011724,37.3441883 56.8106667,39.6408383 C57.2004943,40.2782883 58.0978621,40.7281633 58.8576437,40.9919883 C60.9214368,41.7087383 63.8841264,40.3957133 64.7631494,38.4970883 C65.9005287,36.0387883 64.1042644,33.5240633 61.3831149,33.7695883 C60.4842184,33.8504133 59.9063563,33.3944383 59.8268621,32.4504633 C59.7702989,31.7870883 59.8161609,31.1160883 59.8161609,30.3429133" id="Fill-7" sketch:type="MSShapeGroup"></path>
            <path d="M72.3288621,42.3888883 C72.756908,42.2058883 73.1864828,42.0228883 73.6313448,41.8322633 C76.4274023,44.4827133 77.9714253,44.2036383 79.117977,42.7259133 C78.6241954,39.8085883 76.3891839,38.3201883 74.1908621,36.7860383 C73.0076207,35.9594883 71.8228506,35.1283633 70.7221609,34.2011633 C70.2864713,33.8351633 69.9272184,33.2388883 69.7957471,32.6837883 C69.5465632,31.6391633 69.2408161,30.3688383 70.3950115,29.7222383 C71.7051379,28.9887133 73.2048276,28.2765383 74.6953448,29.2418633 C75.1631379,29.5438133 75.5468506,30.3368133 75.5453218,30.9041133 C75.5437931,31.5613883 74.9919195,32.0676883 74.1495862,32.0219383 C73.8453678,32.0051633 73.5289195,32.2110383 73.0657126,32.3665883 C73.3577011,32.6746383 73.4830575,32.8957633 73.6726207,32.9918383 C76.2821724,34.3216383 78.4911954,36.1119883 80.3363793,38.3994883 C81.6128736,39.9839633 82.1097126,41.7880383 82.0684368,43.7263133 C82.0409195,44.9844383 80.9784483,45.7408383 80.0153448,46.3355883 C78.9115977,47.0172633 77.6091149,47.3131133 76.3433218,46.8464633 C75.3022529,46.4621633 74.1388851,46.7412383 73.1589655,45.7484633 C72.0949655,44.6718133 71.7250115,43.7308883 72.3288621,42.3888883" id="Fill-8" sketch:type="MSShapeGroup"></path>
        </g>
    </g>
</svg>