<svg width="267" height="62" viewBox="0 0 267 62" xmlns="http://www.w3.org/2000/svg" xmlns:sketch="http://www.bohemiancoding.com/sketch/ns"><title>choose-a-beat</title><desc>Created with Sketch.</desc><g sketch:type="MSLayerGroup" fill="#000"><path d="M166.268 53.825c-.45 1.802-.765 3.359-1.233 4.871-.951 3.067-3.74 4.051-6.828 2.892-1.696-.636-2.431-1.945-3.045-3.318-.541-1.212-.824-2.581-.085-3.896.959-1.709 2.397-2.936 4.142-3.831.891-.458 1.852-.681 2.889-.559.439.052.897-.041 1.528-.079 0-.562.021-1.046-.004-1.527-.139-2.859-.253-5.72-.448-8.575-.126-1.823-.389-3.635-.571-5.454-.355-3.546-1.012-7.058-.968-10.646.021-1.623-.367-3.248-.49-4.877-.092-1.227-.067-2.462-.078-3.694-.008-.684-.083-1.39.063-2.046.087-.386.485-.844.861-1 .466-.193 1.057-.314 1.52.252.427.519.75.992.753 1.716.008 1.969.118 3.938.183 5.907.022.645.023 1.289.049 1.934.114 2.966.339 5.918.904 8.847.269 1.394.273 2.835.422 4.527 1.088-.794 1.927-1.49 2.848-2.058 1.668-1.03 3.392-1.974 5.078-2.975.6-.355 1.142-.807 1.747-1.153 1.089-.623 2.191-1.231 3.316-1.792 1.818-.908 3.134-2.346 4.423-3.823 1.024-1.171 1.924-2.369 2.524-3.85.794-1.959.563-3.907.516-5.885-.003-.097-.013-.211-.064-.288-1.384-2.063-2.319-4.391-4.077-6.241-2.269-2.388-5.221-3.415-8.34-4.041-1.584-.319-3.247-.332-4.876-.358-.79-.012-1.58.302-2.381.396-.954.115-1.936.067-2.876.241-3.348.612-6.21 2.138-7.966 5.008-.806 1.315-.963 3.01-1.38 4.542-.13.475-.167.976-.215 1.469-.058.58.01 1.107.776 1.145-.071.369-.109.661-.183.945-.286 1.105-.824 1.538-1.779 1.45-1.045-.096-1.683-.693-1.633-1.788.068-1.477.277-2.95.453-4.421.051-.438.277-.864.281-1.297.015-1.623.949-2.907 1.635-4.273.473-.944 1.275-1.631 2.233-2.167 1.265-.707 2.574-1.393 3.683-2.296.799-.652 1.729-.598 2.551-.754 2.725-.52 5.449-1.152 8.272-1.056 3.226.11 6.224.977 9.109 2.331 1.435.672 2.728 1.526 3.965 2.492 1.225.956 2.004 2.229 2.809 3.492.268.42.449.91.781 1.273 1.737 1.893 2.27 4.229 2.261 6.613-.005 1.433-.682 2.858-1.016 4.295-.508 2.189-2.188 3.629-3.497 5.319-1.358 1.752-3.235 2.83-5.073 3.976-.248.155-.48.333-.803.56.577.496 1.147.274 1.639.188 2.618-.458 5.284-.451 7.743.379 2.547.861 4.946 2.107 6.815 4.229 1.057 1.199 2.133 2.363 2.828 3.766 1.239 2.501 1.638 5.112 1.107 7.914-.325 1.717-1.071 3.141-1.901 4.638-.876 1.58-1.961 2.942-3.182 4.239-1.051 1.115-2.25 2.013-3.787 2.42-.394.103-.782.247-1.147.424-3.467 1.673-7.023 1.495-10.607.466-1.492-.429-3.004-.842-4.422-1.452-2.214-.955-4.354-2.072-6.527-3.118-.395-.19-.795-.369-1.228-.569zm-.031-15.117l.39 12.002c1.362.82 2.604 1.774 4.007 2.369 2.785 1.182 5.631 2.247 8.51 3.192 1.28.421 2.696.536 4.06.613 2.821.161 5.281-.976 7.662-2.27.475-.258.936-.628 1.256-1.052.861-1.151 1.637-2.361 2.458-3.541 1.77-2.547 1.951-5.332 1.319-8.241-.146-.669-.14-1.445-.502-1.98-.807-1.189-1.693-2.369-2.749-3.344-1.194-1.102-2.501-2.07-4.142-2.643-2.133-.744-4.319-.535-6.478-.762-.396-.041-.811.057-1.215.113-3.035.431-5.992 1.127-8.767 2.451-.537.256-1.175.33-1.688.617-1.315.737-2.586 1.547-4.12 2.475zm-3.003 15.309c-.027-1.41-.367-1.719-1.317-1.437-1.256.373-2.368.986-3.411 1.815-1.41 1.118-1.312 3.021-.296 4.241.957 1.148 3.081 1.258 3.819-.312.682-1.456.89-3.122 1.206-4.307z" sketch:type="MSShapeGroup"/><path d="M251.977 47.58c-.64 2.435-1.585 4.65-3.09 6.621-1.053 1.379-2.518 2.326-4.033 3.118-2.069 1.082-4.284 1.004-6.46.244-1.733-.605-2.44-2.005-2.782-3.638l-.005-.448c-.017-.145-.063-.286-.131-.583-.198.274-.412.439-.434.625-.244 2.004-1.635 2.931-3.433 3.414-.775.208-1.607.282-2.415.29-.962.01-2.015.348-2.746-.719-.554-.808-1.443-1.414-1.429-2.805-.5.406-.844.648-1.142.936-1.013.981-2.051 1.875-3.336 2.576-1.815.992-3.62.823-5.473.474-.84-.157-1.641-.512-2.458-.782-.29-.096-.659-.123-.853-.315-1.113-1.107-2.118-.667-3.379-.118-2.355 1.024-4.718 2.161-7.373 2.29-.449.022-1.076-.105-1.342-.399-.825-.915-.45-1.693.856-2.035 1.47-.383 2.97-.693 4.391-1.203 1.453-.521 2.828-1.247 4.133-1.836-.466-2.906-.277-5.518 1.6-7.604 1.194-1.327 2.853-2.173 4.864-1.602.734.208 1.494.33 2.224.547.26.077.514.283.691.494.799.95 1.128 1.951.893 3.26-.43 2.405-1.689 3.961-4.074 4.715-.717.227-1.379.617-2.286 1.034.504.286.799.545 1.139.628 1.074.263 2.155.581 3.248.651 1.077.069 2.068-.281 2.859-1.153 1.112-1.226 2.29-2.406 3.535-3.505 2.105-1.855 3.743-4.216 6.357-5.529 2.215-1.113 4.474-1.72 7.146-.773.082 1.194.096 2.477.273 3.739.269 1.914.554 3.835 1.027 5.706.214.852.947 1.429 2.016 1.576 1.777.246 3.235-.355 4.528-1.39 1.647-1.318 2.846-3.026 3.342-5.022.679-2.738 1.149-5.529 1.596-8.315.171-1.071.006-2.188.033-3.284.05-1.974.258-3.953.16-5.92-.096-1.949-.487-3.885-.744-5.781-1.793 0-3.418.03-5.041-.009-1.528-.036-3.054-.132-4.579-.229-.35-.022-.709-.115-1.035-.244-.984-.393-1.035-.559-.558-1.909 1.805 0 3.692-.041 5.575.012 1.842.052 3.672.092 5.531-.416.444-1.472.074-2.959-.024-4.42-.153-2.268-.33-4.553-.777-6.777-.403-2-.071-4.067-.776-6.028-.304-.844.375-1.653 1.334-1.81 1.088-.177 2.178.401 2.156 1.272-.105 4.094 1.026 8.069 1.192 12.136.068 1.681.196 3.359.304 5.137 1.788.204 3.613.041 5.443-.081 1.067-.071 2.147-.076 3.211.006.526.041 1.03.35 1.521.53-.23 1.305-1.152 2.051-2.324 2.043-2.5-.015-5-.005-7.671-.005.096 1.396.126 2.666.282 3.921.276 2.202.709 4.387.926 6.594.177 1.807.164 3.633.185 5.452.033 3.006.663 5.926 1.548 8.771.512 1.647 1.465 3.154 3.064 4.147 1.648 1.021 4.368.995 5.936-.112.949-.671 1.429-.678 1.927-.034.486.627.309 1.921-.325 2.396-1.782 1.335-3.742 1.728-5.908 1.076-.967-.29-1.993-.454-2.902-.865-2.047-.929-3.262-2.667-4.186-4.581-.495-1.026-.803-2.137-1.193-3.21l-.331-.941zm-18.234-.636c-.99.092-1.837.288-2.513.996-.573.601-1.308 1.078-1.787 1.737-.811 1.12-1.623 2.284-1.544 3.765.051.99.572 1.436 1.571 1.341.553-.054 1.111-.111 1.652-.227.275-.059.657-.191.753-.394.46-.975.862-1.977 1.235-2.988.171-.46.126-1.012.354-1.433.485-.898.394-1.795.278-2.798zm-22.226 4.557l.339.236c.712-.368 1.385-.916 2.142-1.063 1.542-.298 1.898-1.522 2.435-2.604.139-.281.073-.86-.14-1.065-1.061-1.019-3.444-.485-3.938.925-.403 1.149-.567 2.379-.838 3.572z" sketch:type="MSShapeGroup"/><path d="M24.504 33.84c.437 2.147.039 4.418 1.708 6.013.137 1.927-1.578 1.825-2.57 2.401-.562.327-2.359-1.207-2.705-2.142-.083-.223-.035-.501-.015-.752.024-.263.137-.526.122-.784-.16-2.916-.295-5.835-.525-8.747-.164-2.054-.484-4.096-.692-6.148-.118-1.179.685-2.276 1.666-2.389 1.404-.162 2.263.599 2.361 2.094.132 1.997.262 3.993.398 6.081l6.792.282c-.143-1.924-.309-3.971-.442-6.022-.052-.786-.051-1.577-.051-2.366-.002-.992.608-1.776 1.39-1.823.694-.042 1.829.744 1.952 1.464.203 1.189.376 2.391.449 3.593.28 4.617.837 9.185 2.059 13.662.24.88.248 1.825.386 2.926l-3.358.427c-.761-1.428-1.232-2.83-1.262-4.413-.02-.973-.4-1.938-.618-2.907-.154-.69-.591-.988-1.291-1.034-1.875-.118-3.75-.304-5.754.583" sketch:type="MSShapeGroup"/><path d="M116.816 45.981c-.422-1.083-.27-2.034.516-2.959 2.14-2.513 2.95-5.605 3.885-8.686.435-1.437.631-2.951 1.178-4.3.557-1.376 1.64-2.578 2.653-3.715.469-.528 1.288-.744 1.809.231.213.4.695.661.883 1.064 1.23 2.656 2.376 5.351 3.637 7.991.361.755.992 1.388 1.524 2.057.51.641 1.124 1.212.186 2.024-.224.194-.334.754-.23 1.051.577 1.637 1.136 3.293 1.897 4.846.736 1.499.84 1.449-.103 3.121h-2.373c-1.895-2.612-2.341-5.804-3.463-8.779-1.693-.543-4.084 1.332-5.225-1.474-.147.248-.415.499-.435.769-.143 1.944-1.414 3.406-2.19 5.064-.93 1.988-1.752 2.211-4.148 1.695zm7.855-10.298l3.375.72-2.209-3.691-1.166 2.971z" sketch:type="MSShapeGroup"/><path d="M105.501 43.47c-2.212 1.057-4.386 1.685-6.684 1.356-2.054-.295-4.069-.858-6.1-1.31-1.046-.234-1.583-.917-1.738-1.961-.186-1.263-.334-2.538-.628-3.777-.366-1.546-.82-3.077-1.333-4.582-.128-.376-.631-.624-.962-.933-1.468-1.373-1.036-2.727.802-3.636 3.696-1.825 7.828-1.777 11.657-2.985 1.002-.317 1.504.331 1.792 1.15.331.943-.257 1.33-1.045 1.602-2.876.99-5.744 2-8.924 3.111.383.327.643.74.94.771 1.205.12 2.425.064 3.63.18 1.409.135 2.783.435 3.834 1.779-1.747 2.467-4.556 1.059-6.819 1.924-.025 1.005-.23 2.003 1.115 2.587.388.167.481 1.013.78 1.713 2.138 1.037 4.652.981 7.103 1.099 1.568.076 1.703-.017 2.58 1.911" sketch:type="MSShapeGroup"/><path d="M61.649 27.739c.027-.191.047-.595.145-.98.29-1.157.812-1.651 1.978-1.585 2.459.14 4.789.676 6.547 2.617.403.447.835.872 1.289 1.265 1.389 1.202 1.927 2.931 1.365 4.632-.945 2.863-2.756 4.853-5.756 5.641-.904.236-1.772.644-2.686.801-3.427.585-7.238-1.927-8.225-5.266-.521-1.766.3-3.148 1.124-4.518.442-.735 1.029-1.484 1.738-1.931.667-.42 1.578-.45 2.481-.676zm1.392 1.85c-.739.892-1.304 1.69-1.986 2.371-.96.958-1.087 1.641-.432 2.848.722 1.334 1.802 2.034 3.299 1.669 1.352-.329 2.676-.806 3.961-1.342.518-.216.962-.712 1.328-1.169.926-1.158.847-1.949-.208-3.115-1.941-2.147-2.567-2.297-5.189-1.327-.326.12-.717.061-.773.064z" sketch:type="MSShapeGroup"/><path d="M47.744 40.426c-3.5-.057-7.15-2.669-7.833-5.472-.238-.975-.062-2.182.3-3.142.611-1.614 1.583-3.088 2.287-4.671.518-1.169 1.529-1.636 2.553-1.568 1.63.106 3.304.393 4.835.948 1.747.632 2.33 2.411 3.024 3.98.186.423.182.954.435 1.319 1.925 2.774.118 6.475-3.053 7.799-.979.408-2.03.646-2.548.808zm-1.33-11.409c-1.514 1.389-2.184 2.474-2.425 3.872-.378 2.175 1.227 3.882 3.372 3.452.965-.192 1.882-.681 2.786-1.106.27-.126.513-.464.623-.757.381-1.024-.758-3.693-1.858-3.878-1.134-.191-1.829-.82-2.498-1.582z" sketch:type="MSShapeGroup"/><path d="M8.323 22.37l3.122 1.642c.26.794.594 1.663-.152 2.524-.864.995-1.816.445-2.793.042-1.244 1.037-2.492 1.99-3.633 3.059-.937.877-.729 3.868.3 5.114.947 1.147 2.18 1.755 3.694 1.678.938-.049 1.883-.086 2.81-.226 1.244-.189 2.366-.034 3.407.988.388 1.116.241 2.199-1.038 2.904-.256.142-.579.226-.869.224-2.001-.013-4.008.025-6.001-.115-2.739-.192-4.349-2.03-5.675-4.195-1.456-2.378-1.487-4.747-.189-7.234.729-1.398 1.21-2.813 2.923-3.467 1.009-.386 1.782-1.378 2.686-2.059.466-.351.989-.622 1.407-.88" sketch:type="MSShapeGroup"/><path d="M80.138 23.424c.874.87 2.098 1.02 2.121 2.45.024 1.363-.007 1.546-1.416 1.735-.262.035-.526.078-.78.153-.12.035-.211.159-.515.401 1.33 1.078 2.688 2.052 3.891 3.19 1.448 1.371 2.943 2.744 3.416 4.84.405 1.803.093 3.583-.8 5.045-.727 1.194-2.332 1.673-3.731 1.506-1.423-.17-2.786-.818-4.065-1.223-.265-3.406.216-4.066 2.886-4.15l.92 1.649c1.105-.209 1.159-1.13 1.09-1.725-.138-1.194-.592-2.356-1.605-3.142-1.053-.816-2.199-1.518-3.21-2.379-.91-.774-1.752-1.647-2.514-2.567-.672-.809-.226-2.899.91-3.779 1.031-.798 2.256-1.346 3.402-2.007" sketch:type="MSShapeGroup"/></g></svg>