<svg width="265" height="60" viewBox="0 0 265 60" xmlns="http://www.w3.org/2000/svg" xmlns:sketch="http://www.bohemiancoding.com/sketch/ns"><title>choose-a-lead</title><desc>Created with Sketch.</desc><g sketch:type="MSLayerGroup" fill="#000"><path d="M244.695 7.983c1.055-.105 2.085-.683 2.723.494.249.462.46.984.517 1.498.099.888.044 1.79.09 2.684.124 2.358.313 4.714.39 7.073.084 2.596.043 5.194.109 7.79.06 2.352.234 4.7.271 7.05.018 1.144-.231 2.291-.238 3.436-.015 1.819-.096 3.663.161 5.45.278 1.943 1.808 3.181 3.363 4.134 2.253 1.383 4.731 1.885 7.309.824.546-.224 1.072-.541 1.535-.907.803-.631 1.549-1.334 2.316-2.005 1.848 1.955 1.757 3.279-.315 4.807-4.666 3.442-9.738 2.856-14.291-.566-.816-.616-1.512-1.392-2.267-2.097-3.322 6.646-12.322 7.268-16.83 3.372-1.509.715-2.952 1.464-4.446 2.095-2.787 1.177-6.02-.627-7.052-3.142-.482-1.176-.911-2.373-1.4-3.655-.139.13-.381.246-.42.412-.361 1.501-1.494 2.466-2.422 3.581-2.704 3.248-7.65 3.097-10.342.689-3.301 2.091-7.124 2.431-10.875 2.952-.755.104-1.701-.287-2.383-.723-1.448-.927-2.998-.987-4.56-.744-2.325.36-4.444-.218-6.538-1.095-1.556-.651-3.119-1.293-4.684-1.941l-.423 3.631c-.196 1.645-1.31 2.821-2.152 4.134-.089.139-.281.238-.448.297-2.006.712-3.973 1.597-6.035 2.069-2.512.576-5.156-1.11-6.389-3.784-1.359-2.945-.952-5.737.732-8.456 1.601-2.579 3.923-3.837 6.887-4.049.361-.026.766-.07 1.084.056 1.004.404 1.903.139 3.053-.358-.601-3.033-1.206-6.088-1.813-9.141-.936-4.7-1.896-9.394-2.796-14.1-.294-1.53-.434-3.09-.657-4.729-.763 0-1.492-.098-2.186.017-3.482.578-6.974 1.025-10.51 1.115-.78.02-1.553.287-2.333.303-2.146.046-2.743-.534-2.97-2.827 1.121-.627 2.14-1.083 3.675-.947 2.261.201 4.588-.328 6.884-.564 1.873-.192 3.747-.386 5.614-.628.656-.085 1.293-.316 1.854-.458.358-1.507.567-2.951 1.059-4.293.517-1.411 1.194-2.794 2.009-4.053.657-1.019 1.636-1.793 2.973-1.94 1.241-.137 2.472-.471 3.712-.499.717-.017 1.588.218 2.139.656 1.539 1.222 2.399 2.847 2.097 4.894-.125.84-.258 1.697-.547 2.489-.197.541-.567 1.154-1.04 1.438-1.859 1.118-3.77 2.153-5.699 3.146-.959.494-1.998.833-3.25 1.342.506 3.047.968 6.155 1.55 9.242.561 2.965 1.247 5.906 1.879 8.859.102.476.164.964.307 1.426.998 3.212 1.327 6.527 1.555 9.858.058.857-.012 1.796 1.278 1.755 1.174 1.639 3.197 1.81 4.794 2.711 1.62.913 3.472 1.037 5.286 1.026-.092-1.644-.11-3.244-.3-4.822-.104-.874.315-1.508.705-2.117.52-.81 1.197-1.534 1.885-2.216 1.948-1.929 5.675-2.33 7.888-.927 1.168.741 1.724 1.929 1.679 3.138-.07 1.839-.199 3.738-1.668 5.223-.573.578-.855 1.441-1.423 2.448 2.905.044 5.534-.209 7.495-2.269 1.327-1.394 2.278-3.137 3.467-4.67 1.977-2.544 4.053-4.979 7.081-6.393 1.328-.619 2.503-1.075 3.767.185.304.303 1.116.099 1.871.137.287.703.673 1.459.903 2.26.306 1.061.598 2.147.702 3.241.18 1.873.385 3.698 1.838 5.1-.364.773.064 1.267.529 1.844.625.772 1.298 1.019 2.229.683.864-.31 2.042-.195 1.98-1.644-.008-.186.312-.38.466-.578.969-1.254 2.061-2.387 2.81-3.843.645-1.254 1.602-2.471 2.71-3.329 1.474-1.142 3.206-1.966 4.875-2.835.746-.389 1.883.181 2.259.964.396.825.242 1.412-.639 2.021-1.301.895-2.654 1.717-3.95 2.618-1.278.891-2.238 1.998-2.542 3.622-.199 1.072.185 1.766 1.05 2.245 2.903 1.606 7.586 1.107 9.469-2.559.5-.974.879-2.008 1.365-2.991.735-1.485.676-3.001.515-4.613-.179-1.8-.014-3.633.02-5.45.046-2.437.252-4.88.135-7.306-.167-3.39-.602-6.765-.856-10.15-.136-1.815-.251-3.648-.144-5.459.055-.921.624-1.812.939-2.66zm-73.916 39.404c-1.241-.188-2.328-.52-3.395-.467-1.246.063-2.678.148-3.667.784-1.992 1.281-2.513 4.767-1.536 7.003.555 1.267 1.391 1.728 2.691 1.662 1.839-.092 3.359-.999 4.878-1.886.254-.148.342-.598.477-.923.818-1.964.453-4.031.553-6.173zm44.648-8.163c-3.646.816-5.166 3.703-7.278 5.836-.978.988-1.33 2.396-1.345 3.822 2.376.721 2.692.619 4.413-.796.795-.651 1.014-1.607 1.552-2.352 1.387-1.918 1.608-4.217 2.658-6.51zm-25.935 9.165c3.314-1.064 4.705-3.503 4.112-7.148-.274.088-.665.331-.787.235-.648-.514-1.24-.418-1.818.043-.556.444-1.2.84-1.165 1.708.006.169-.144.493-.225.493-.939.012-.919.886-.908 1.319.028 1.107.055 2.275.79 3.35zm-20.27-38.706l.31.364c1.504-.689 3.096-1.24 4.484-2.112 1.049-.659 1.908-1.685 1.77-3.145-.093-.979-.549-1.459-1.529-1.351-1.283.142-2.547.435-3.145 1.79-.65 1.476-1.263 2.969-1.891 4.453z" sketch:type="MSShapeGroup"/><path d="M31.787 35.673c-.451-3.399-.43-6.75-.058-10.08 2.354-.439 3.137.046 2.996 2.26-.167 2.623-.014 5.211.182 7.814.18 2.397.235 4.802.364 7.203.058 1.069-.529 2.083-1.328 2.222-.845.148-1.894-.813-1.987-1.911-.125-1.443-.179-2.89-.272-4.509-2.418.027-4.721.31-7.014 1.229-.561 1.405.596 2.625.509 4.172l-1.197 1.321c-1.605-.188-2.428-.912-2.489-2.565-.107-2.884-1.053-5.711-.65-8.638.116-.84.255-1.677.359-2.519.052-.415.223-.95.038-1.237-.821-1.279.238-2.21.567-3.228.254-.788 1.442-1.017 2.182-.645 1.318.662 1.544 1.209 1.289 2.349-.501 2.236-.913 4.493-1.339 6.744-.064.335-.009.692-.009 1.034l7.858-1.014" sketch:type="MSShapeGroup"/><path d="M88.547 33.674c.081.454.125.752.19 1.046.157.709.326 1.415.543 2.355.812 0 1.683.159 2.47-.029 2.362-.566 4.123.364 5.737 1.989-.728.917-1.517.971-2.637.831-1.477-.183-3.016.149-4.501.258-.575.773-.449 1.537-.216 2.309.174.579.453 1.144.524 1.735.109.88.604 1.092 1.377 1.084 1.526-.012 3.054-.061 4.574.037 1.471.093 2.961.296 3.577 2.051-.563 1.167-1.634 1.266-2.761 1.2-1.998-.116-3.995-.368-5.99-.357-2.458.014-3.49-1.444-4.011-3.694-.844-3.651-1.448-7.357-2.149-11.039-.069-.358-.147-.718-.174-1.081-.052-.673.176-1.11.891-1.377 2.85-1.067 5.711-2.03 8.781-2.265 1.023-.078 2.024-.514 3.044-.549.65-.023 1.465.233 1.922.665.298.282.29 1.215.044 1.645-.228.401-.928.63-1.46.746-2.843.615-5.701 1.156-8.544 1.763-.393.084-.735.396-1.232.677" sketch:type="MSShapeGroup"/><path d="M127.449 40.088c-1.351 1.26-1.523 2.908-.582 4.49.187.313.456.581.605.906.396.869-.214 2.025-1.176 2.297-1.09.308-1.906-.122-2.139-1.174-.323-1.455-.607-2.919-.929-4.483-1.668-.419-3.325.145-4.987.279-.33.026-.705.456-.919.79-.555.86-1.113 1.735-1.523 2.67-.686 1.565-.637 1.586-2.417 2.259-1.318-.967-1.57-1.49-.881-2.84.793-1.559 1.827-2.994 2.692-4.519.862-1.519 1.755-3.036 2.434-4.638.774-1.819 1.276-3.753 2.015-5.589.153-.381.793-.636 1.26-.81.748-.279 1.339.131 1.694.735.642 1.089 1.304 2.188 1.755 3.363.582 1.52 1.121 3.091 1.382 4.689.171 1.052 1.044 1.013 1.715 1.575zm-5.939-5.383c-.466 1.049-.763 1.702-1.047 2.361-.793 1.833-.633 2.06 1.439 2.039.278-.003.555-.044 1.004-.082l-1.396-4.317z" sketch:type="MSShapeGroup"/><path d="M44.446 43.414c-.295 0-.601.012-.903-.002-1.908-.085-3.357-.883-4.178-2.67-.749-1.632-1.064-3.312-.682-5.098.24-1.118.514-2.24.619-3.375.113-1.223.731-1.976 1.778-2.492 1.59-.782 3.132-1.623 4.955-.473.454.288 1.327-.073 1.767.221 2.126 1.415 4.094 3.02 4.777 5.659.087.339.17.746.064 1.055-.751 2.191-1.495 4.401-3.859 5.476-.439.2-.925.424-1.225.776-.855 1.002-1.894 1.208-3.114.921zm-.393-3.401c1.854.027 4.45-1.976 5.285-3.989.332-.804.171-1.36-.427-1.949-1.399-1.379-3.281-1.502-5.026-1.928-.338-.084-.995.43-1.234.83-.292.493-.35 1.148-.419 1.745l-.226 2.89c-.156 1.359.693 2.381 2.047 2.402z" sketch:type="MSShapeGroup"/><path d="M11.667 28.929c-.593 1.246-1.591 1.857-2.698 1.459-1.353-.485-2.365.047-3.354.805-.202.154-.327.439-.428.686-.089.215-.009.586-.145.677-2.888 1.912-2.499 4.419-1.454 6.875.703 1.655 2.033 2.817 4.248 3.084 2.142.259 3.871-.275 5.701-1.045.586-.247 1.267-.261 1.935-.386l1.298 1.613c-.164 1.214-1.055 1.752-2.052 2.054-1.145.345-2.241.804-3.469 1.003-1.064.172-2.061.348-3.157.288-2.403-.13-4.45-.813-5.834-2.93-.694-1.064-1.677-1.993-2.146-3.138-1.017-2.472-.621-5.022.404-7.395 1.312-3.035 3.617-4.92 7-5.403 2.11-.302 2.315-.281 4.151 1.751" sketch:type="MSShapeGroup"/><path d="M59.816 30.343c4.039-.573 7.57 2.103 8.174 5.995.246 1.581.572 3.141-.633 4.477-2.302 2.553-6.175 4.416-9.949 3.053-.965-.348-2.032-.409-2.689-1.337-.899-1.272-1.461-2.699-1.48-4.243-.017-1.388.101-2.797.349-4.163.287-1.595 1.429-2.679 2.765-3.453 1.431-.828 2.746.236 2.674 2.062-2.449 1.183-3.626 4.61-2.217 6.907.39.637 1.287 1.087 2.047 1.351 2.064.717 5.026-.596 5.906-2.495 1.137-2.458-.659-4.973-3.38-4.727-.899.081-1.477-.375-1.556-1.319-.057-.663-.011-1.334-.011-2.108" sketch:type="MSShapeGroup"/><path d="M72.329 42.389l1.302-.557c2.796 2.65 4.34 2.371 5.487.894-.494-2.917-2.729-4.406-4.927-5.94-1.183-.827-2.368-1.658-3.469-2.585-.436-.366-.795-.962-.926-1.517-.249-1.045-.555-2.315.599-2.962 1.31-.734 2.81-1.446 4.3-.48.468.302.852 1.095.85 1.662-.002.657-.553 1.164-1.396 1.118-.304-.017-.621.189-1.084.345.292.308.417.529.607.625 2.61 1.33 4.819 3.12 6.664 5.408 1.276 1.584 1.773 3.389 1.732 5.327-.028 1.258-1.09 2.015-2.053 2.609-1.104.682-2.406.978-3.672.511-1.041-.384-2.204-.105-3.184-1.098-1.064-1.077-1.434-2.018-.83-3.36" sketch:type="MSShapeGroup"/></g></svg>