<?xml version="1.0" encoding="UTF-8" standalone="no"?>
<svg width="267px" height="62px" viewBox="0 0 267 62" version="1.1" xmlns="http://www.w3.org/2000/svg" xmlns:xlink="http://www.w3.org/1999/xlink" xmlns:sketch="http://www.bohemiancoding.com/sketch/ns">
    <!-- Generator: Sketch 3.1.1 (8761) - http://www.bohemiancoding.com/sketch -->
    <title>choose-a-beat</title>
    <desc>Created with Sketch.</desc>
    <defs></defs>
    <g id="Page-1" stroke="none" stroke-width="1" fill="none" fill-rule="evenodd" sketch:type="MSPage">
        <g id="Imported-Layers" sketch:type="MSLayerGroup" fill="#000000">
            <path d="M166.268221,53.8253749 C165.817984,55.6269129 165.503716,57.18409 165.035521,58.6963846 C164.08502,61.7633627 161.29509,62.7470399 158.207567,61.5888193 C156.511802,60.9529823 155.7768,59.6439063 155.162374,58.2712465 C154.621063,57.0594161 154.338863,55.6904966 155.077714,54.3751868 C156.037193,52.6659075 157.47513,51.4391163 159.219638,50.5439576 C160.111133,50.0864043 161.071895,49.863238 162.108338,49.9854185 C162.547031,50.0377815 163.004964,49.9442761 163.636066,49.9068739 C163.636066,49.3445946 163.656589,48.8608598 163.632218,48.3796185 C163.493683,45.5208458 163.37952,42.6595795 163.184546,39.804547 C163.058839,37.9818144 162.79588,36.1690558 162.613733,34.3500634 C162.258417,30.8043375 161.601661,27.2922734 161.645274,23.7041583 C161.665798,22.080904 161.278414,20.4564029 161.155272,18.8269149 C161.062916,17.6001237 161.088571,16.3646052 161.077026,15.132827 C161.06933,14.4483672 160.993649,13.7427129 161.13988,13.0869281 C161.227105,12.700439 161.62475,12.2428858 162.000589,12.0870434 C162.466219,11.8937988 163.057556,11.7728651 163.52062,12.3388847 C163.947768,12.8575281 164.271016,13.331289 164.273581,14.0543977 C164.281277,16.0229987 164.391592,17.9928465 164.457011,19.9614475 C164.478817,20.6060116 164.4801,21.2505757 164.505754,21.8951399 C164.619917,24.8611322 164.844394,27.8134104 165.410077,30.7420005 C165.679449,32.1358548 165.683298,33.5770852 165.832094,35.2689102 C166.919846,34.4747374 167.758749,33.7790569 168.679747,33.2105439 C170.347292,32.1807374 172.071276,31.2369559 173.758062,30.2358244 C174.358378,29.8805038 174.899689,29.4291842 175.505136,29.0825908 C176.594171,28.4592212 177.696033,27.8520593 178.820984,27.2910267 C180.638608,26.3834006 181.954685,24.9446637 183.243826,23.4685246 C184.267441,22.2978366 185.167915,21.0997203 185.768232,19.6185943 C186.562239,17.6599671 186.331349,15.7113139 186.283888,13.7339857 C186.281322,13.6367401 186.27106,13.5232868 186.219751,13.445989 C184.835689,11.3826358 183.900582,9.05497389 182.143246,7.20481307 C179.874103,4.81730769 176.922549,3.78999468 173.802957,3.16413165 C172.21879,2.84496644 170.556376,2.83249905 168.927313,2.80631753 C168.137154,2.79385014 167.346994,3.10802839 166.546573,3.20278056 C165.592224,3.31748056 164.610938,3.27010447 163.670699,3.44340121 C160.322783,4.05555011 157.46102,5.58155876 155.704967,8.45155217 C154.899415,9.76686191 154.741639,11.4611803 154.324753,12.9934227 C154.195198,13.4684303 154.157999,13.9696194 154.109255,14.4620814 C154.051532,15.041815 154.119517,15.5691857 154.885305,15.6065878 C154.814755,15.9756226 154.776273,16.2673596 154.701875,16.5516161 C154.415827,17.6562269 153.878364,18.0900921 152.922733,18.0015737 C151.877311,17.9055747 151.239795,17.3083867 151.289822,16.2137498 C151.357806,14.736364 151.566891,13.2639651 151.742624,11.7928129 C151.793933,11.3552075 152.019693,10.9288228 152.023541,10.4962043 C152.038934,8.87294998 152.972759,7.58880871 153.659018,6.2236294 C154.132344,5.2798479 154.934048,4.59289466 155.892245,4.05679685 C157.157013,3.34989578 158.466677,2.66418927 159.574953,1.76030343 C160.374092,1.10825888 161.304069,1.16186866 162.126297,1.00602627 C164.850808,0.486136068 167.575319,-0.145960654 170.398601,-0.0499617439 C173.624658,0.0597512968 176.62239,0.927481709 179.507243,2.28144037 C180.942614,2.95343274 182.235602,3.80744903 183.472151,4.77367183 C184.697155,5.72992071 185.47577,7.00284133 186.281322,8.26578804 C186.549412,8.68593912 186.730277,9.17590758 187.062503,9.53870866 C188.799315,11.4312586 189.332929,13.7676477 189.32395,16.1514128 C189.318819,17.5839161 188.641539,19.0089388 188.30803,20.446429 C187.800071,22.6357029 186.119699,24.0756865 184.811317,25.765018 C183.45291,27.5166865 181.576281,28.5951158 179.738134,29.740869 C179.490567,29.8954647 179.258394,30.0737483 178.935147,30.3006549 C179.512374,30.796857 180.081904,30.5749375 180.574471,30.4889125 C183.192516,30.0313592 185.858022,30.0375929 188.317009,30.8679211 C190.864505,31.7294179 193.263203,32.9749102 195.132136,35.0968602 C196.189103,36.2962232 197.265311,37.4594308 197.960548,38.863259 C199.199662,41.3642176 199.59859,43.9748893 199.067542,46.7775588 C198.743012,48.4943185 197.996465,49.9180946 197.166541,51.4154282 C196.290438,52.9950467 195.205252,54.3577325 193.984096,55.6543412 C192.933543,56.7689259 191.734193,57.6678248 190.197487,58.0742617 C189.80369,58.1777411 189.415023,58.3211161 189.050729,58.498153 C185.583519,60.1712769 182.027801,59.9929932 178.443862,58.9644335 C176.952051,58.5355552 175.439717,58.1228846 174.022304,57.5119824 C171.808317,56.5569803 169.668729,55.439902 167.49579,54.3938879 C167.100711,54.2043836 166.7005,54.0248532 166.268221,53.8253749 L166.268221,53.8253749 Z M166.237435,38.7086633 C166.366991,42.6969817 166.497829,46.718962 166.627384,50.7110206 C167.98964,51.531375 169.231319,52.4851304 170.634622,53.0798249 C173.419422,54.2617336 176.265792,55.3264488 179.144231,56.271477 C180.424392,56.6928748 181.840523,56.8075748 183.204061,56.8848726 C186.024777,57.045702 188.485047,55.9086759 190.865787,54.6145607 C191.340396,54.3564858 191.802178,53.9862042 192.121577,53.562313 C192.982286,52.4115728 193.758336,51.2009891 194.579281,50.0215739 C196.349444,47.4744859 196.530308,44.6892708 195.897924,41.7806285 C195.751693,41.1111296 195.758107,40.3356579 195.396378,39.8008068 C194.589543,38.6114177 193.703179,37.4320025 192.647495,36.4570525 C191.453276,35.3549352 190.146178,34.3874656 188.50557,33.8139656 C186.372396,33.0696624 184.18663,33.2791146 182.027801,33.052208 C181.631438,33.0110657 181.217117,33.109558 180.813058,33.1656613 C177.778127,33.597033 174.821442,34.2927135 172.045622,35.6167504 C171.508159,35.8723319 170.870644,35.9471362 170.357554,36.2338862 C169.042759,36.970709 167.771577,37.7810894 166.237435,38.7086633 L166.237435,38.7086633 Z M163.234572,54.0173727 C163.207635,52.6073108 162.867713,52.2981195 161.917212,52.5798825 C160.661423,52.9526575 159.549299,53.5660532 158.506442,54.3951347 C157.096725,55.5134596 157.194213,57.4159835 158.210132,58.6365411 C159.167046,59.7847878 161.291241,59.8945008 162.028809,58.3248563 C162.71122,56.868665 162.919022,55.2030216 163.234572,54.0173727 L163.234572,54.0173727 Z" id="Fill-1" sketch:type="MSShapeGroup"></path>
            <path d="M251.977451,47.5804588 C251.33737,50.0153402 250.392001,52.2307956 248.887362,54.2018901 C247.834244,55.5807836 246.36937,56.5283053 244.85447,57.3199846 C242.785431,58.4021541 240.570163,58.3236096 238.394658,57.5643455 C236.661694,56.959677 235.954912,55.559589 235.612424,53.9263608 C235.581639,53.7829858 235.622686,53.6271434 235.607293,53.4787814 C235.590618,53.3341597 235.54444,53.1932782 235.476455,52.8953075 C235.278915,53.1695901 235.0647,53.3341597 235.042893,53.5199238 C234.799175,55.5234336 233.407417,56.4510074 231.610317,56.9334955 C230.83555,57.1417009 230.00306,57.2152585 229.194943,57.2239857 C228.232898,57.2339596 227.179779,57.5718259 226.448625,56.5046172 C225.894487,55.6967303 225.005557,55.0908151 225.019667,53.6994543 C224.519404,54.1058912 224.175633,54.3477586 223.878041,54.6357553 C222.864687,55.616939 221.826961,56.5108509 220.541669,57.2115183 C218.72661,58.2039226 216.921814,58.0343661 215.068274,57.6852791 C214.228088,57.52819 213.427666,57.1728694 212.61057,56.9035737 C212.320673,56.8075748 211.951248,56.7801466 211.757556,56.5881487 C210.64415,55.4810444 209.639775,55.9211433 208.378854,56.4697085 C206.023768,57.4932813 203.660986,58.6303074 201.005742,58.7599683 C200.556787,58.7824096 199.929534,58.6552422 199.664009,58.3610117 C198.839216,57.4459052 199.213772,56.66794 200.519588,56.3263335 C201.989593,55.9435846 203.4891,55.6331466 204.910361,55.1232303 C206.363691,54.6020934 207.738774,53.8764912 209.043307,53.2867836 C208.577677,50.3806348 208.766238,47.7687164 210.642867,45.6829219 C211.837085,44.3563915 213.495651,43.5098556 215.506966,44.0808621 C216.240686,44.2890675 217.001343,44.411248 217.731214,44.6281806 C217.991608,44.7054784 218.245588,44.9111903 218.422604,45.1218893 C219.221743,46.0719044 219.550121,47.0730359 219.315382,48.382112 C218.885668,50.7870717 217.626031,52.3430021 215.241442,53.0972793 C214.524398,53.3241858 213.862511,53.7144151 212.955623,54.130826 C213.459735,54.4163292 213.754762,54.675651 214.094684,54.7591825 C215.168327,55.0222444 216.249665,55.3401629 217.342548,55.4099803 C218.420039,55.4785509 219.410304,55.129464 220.201746,54.2567466 C221.31387,53.0312021 222.491413,51.8505402 223.736941,50.752163 C225.841895,48.8970152 227.479937,46.5356914 230.094134,45.2228751 C232.309403,44.1095371 234.568285,43.5023752 237.240204,44.4498969 C237.322299,45.6442729 237.336409,46.9271675 237.513425,48.1888674 C237.782798,50.102612 238.067563,52.0238369 238.540889,53.8951923 C238.755104,54.7467151 239.487541,55.3239553 240.557335,55.4710705 C242.333912,55.7166781 243.792372,55.1157499 245.08536,54.0809564 C246.732381,52.7631532 247.931731,51.0551206 248.426863,49.0590913 C249.105426,46.3212523 249.576186,43.5298034 250.022575,40.7445883 C250.193178,39.6736394 250.028989,38.5565612 250.055926,37.4606775 C250.105953,35.4870895 250.313754,33.5072678 250.216267,31.5411603 C250.120063,29.5925071 249.728831,27.6563212 249.472286,25.7600311 C247.679034,25.7600311 246.053819,25.7899528 244.43117,25.7513039 C242.903442,25.7151485 241.376998,25.6191495 239.851836,25.5219039 C239.501651,25.4994626 239.142488,25.4072039 238.816675,25.277543 C237.832824,24.8848202 237.781515,24.7190039 238.258689,23.3687855 C240.063486,23.3687855 241.950376,23.3276431 243.833419,23.3812529 C245.675415,23.4336159 247.505866,23.4735116 249.364537,22.964842 C249.80836,21.4924431 249.438935,20.0063301 249.340165,18.5451519 C249.18752,16.2773335 249.010504,13.9920607 248.562832,11.7678782 C248.160056,9.76810865 248.492282,7.70101523 247.786783,5.73989463 C247.482777,4.89585226 248.161339,4.08671858 249.120818,3.92962946 C250.208571,3.75259251 251.298888,4.33107945 251.277082,5.20130334 C251.171898,9.29559454 252.303263,13.2701988 252.468735,17.3370617 C252.53672,19.017666 252.664992,20.6957768 252.772741,22.4736268 C254.560862,22.678092 256.386182,22.5147692 258.21535,22.3925888 C259.282579,22.3215246 260.362635,22.3165377 261.426015,22.3988225 C261.951933,22.4399648 262.456045,22.7491561 262.947329,22.9286866 C262.717721,24.2340224 261.795441,24.9795724 260.623028,24.972092 C258.122994,24.9571311 255.62296,24.967105 252.952323,24.967105 C253.048527,26.3634528 253.07803,27.6326332 253.234523,28.8880995 C253.510309,31.0898407 253.943871,33.2753743 254.160651,35.4821026 C254.337668,37.2886275 254.324841,39.1151003 254.345364,40.9340926 C254.378715,43.9399806 255.008534,46.8598436 255.893615,49.7049022 C256.405423,51.3518445 257.358489,52.8591521 258.958049,53.8515564 C260.606353,54.8726357 263.325733,54.8464542 264.894508,53.7393499 C265.843726,53.0686043 266.323466,53.0611238 266.821164,53.7056879 C267.307317,54.3327977 267.130301,55.6269129 266.496634,56.1019205 C264.714926,57.4371781 262.75492,57.8299009 260.588395,57.1778563 C259.621219,56.8873661 258.595038,56.7240433 257.686867,56.3126194 C255.639635,55.3837988 254.424893,53.6458445 253.50133,51.7321 C253.006198,50.7060337 252.698343,49.5951891 252.308394,48.5217468 C252.194232,48.2088153 252.087765,47.8933903 251.977451,47.5804588 L251.977451,47.5804588 Z M233.743491,46.9446218 C232.753226,47.0368805 231.906627,47.2326186 231.23063,47.9407664 C230.657251,48.5416946 229.922249,49.0191957 229.443792,49.6774739 C228.633108,50.7970456 227.821142,51.9614999 227.899389,53.442626 C227.950698,54.4325368 228.471485,54.8788694 229.470729,54.7841173 C230.023584,54.7305075 230.58157,54.6731575 231.122881,54.5572108 C231.397384,54.498614 231.779637,54.3664597 231.875841,54.1632412 C232.33634,53.1882912 232.737834,52.185913 233.111107,51.1748076 C233.28171,50.7147609 233.236814,50.1624554 233.46514,49.7423044 C233.95001,48.8446522 233.858937,47.9470001 233.743491,46.9446218 L233.743491,46.9446218 Z M211.517686,51.5014532 C211.630566,51.5799978 211.743446,51.6585423 211.856326,51.7370869 C212.56824,51.3692989 213.241671,50.8207337 213.99848,50.6736185 C215.540317,50.3756478 215.896915,49.15135 216.433095,48.0691805 C216.57163,47.7886642 216.50621,47.2089305 216.293278,47.0044653 C215.232463,45.9858795 212.849157,46.5194838 212.355307,47.9295457 C211.952531,49.0790392 211.788342,50.3083239 211.517686,51.5014532 L211.517686,51.5014532 Z" id="Fill-2" sketch:type="MSShapeGroup"></path>
            <path d="M24.5041875,33.8396471 C24.94125,35.9862745 24.543,38.2576863 26.2119375,39.852902 C26.348625,41.7803137 24.634125,41.677451 23.641875,42.2541569 C23.0799375,42.5812941 21.28275,41.0467843 20.9368125,40.1125882 C20.854125,39.89 20.901375,39.6117647 20.921625,39.3605098 C20.94525,39.097451 21.0583125,38.8343922 21.043125,38.5763922 C20.8828125,35.6608235 20.7478125,32.7418824 20.5183125,29.8296863 C20.354625,27.7758039 20.034,25.7337255 19.8264375,23.6815294 C19.7083125,22.5028235 20.5115625,21.4050588 21.492,21.2920784 C22.896,21.1301961 23.7549375,21.8907059 23.8528125,23.3864314 C23.9844375,25.3829804 24.114375,27.3795294 24.2510625,29.4671373 C26.5730625,29.5632549 28.7415,29.6543137 31.04325,29.7487451 C30.8998125,27.8247059 30.7344375,25.7775686 30.601125,23.7270588 C30.5488125,22.9412549 30.5505,22.1503922 30.5505,21.3612157 C30.5488125,20.3696863 31.158,19.5855686 31.941,19.5383529 C32.6345625,19.4961961 33.77025,20.282 33.8934375,21.0020392 C34.0959375,22.1908627 34.26975,23.3931765 34.3423125,24.5954902 C34.6224375,29.2125098 35.1793125,33.7806275 36.4010625,38.2576863 C36.6406875,39.1379216 36.649125,40.0822353 36.7875,41.1833725 C35.5573125,41.3385098 34.489125,41.475098 33.429375,41.61 C32.6683125,40.1817255 32.1975,38.7804314 32.167125,37.1970196 C32.146875,36.2240392 31.7671875,35.2594902 31.5495,34.2898824 C31.3959375,33.6001961 30.958875,33.3017255 30.2585625,33.2561961 C28.38375,33.1381569 26.5089375,32.9526667 24.5041875,33.8396471" id="Fill-3" sketch:type="MSShapeGroup"></path>
            <path d="M116.8155,45.9808235 C116.393625,44.8982353 116.5455,43.9471765 117.331875,43.0214118 C119.471625,40.5088627 120.281625,37.4162353 121.2165,34.3354118 C121.651875,32.8987059 121.847625,31.3844314 122.394375,30.0354118 C122.95125,28.6594118 124.034625,27.457098 125.047125,26.320549 C125.51625,25.7927451 126.334687,25.576902 126.856125,26.5515686 C127.06875,26.9512157 127.551375,27.2125882 127.738687,27.6156078 C128.968875,30.2714902 130.114687,32.9661569 131.37525,35.6068627 C131.736375,36.3623137 132.3675,36.9946667 132.899062,37.6641176 C133.408687,38.304902 134.022937,38.876549 133.084687,39.6876471 C132.86025,39.8815686 132.750562,40.4414118 132.855187,40.7381961 C133.432312,42.3755686 133.990875,44.0314902 134.751937,45.584549 C135.487687,47.0836471 135.592312,47.0330588 134.649,48.7058431 L132.276375,48.7058431 C130.381312,46.0938039 129.935812,42.9016863 128.813625,39.927098 C127.121062,39.3841176 124.729875,41.2592549 123.589125,38.4532941 C123.442312,38.7011765 123.174,38.9524314 123.15375,39.2222353 C123.010312,41.1665098 121.739625,42.6285098 120.963375,44.2861176 C120.033562,46.2742353 119.21175,46.4968235 116.8155,45.9808235 L116.8155,45.9808235 Z M124.670812,35.6827451 C125.727187,35.9070196 126.700875,36.1161176 128.045812,36.4027843 C127.188562,34.9711373 126.557437,33.9172157 125.836875,32.7115294 C125.418375,33.7789412 125.109562,34.5647451 124.670812,35.6827451 L124.670812,35.6827451 Z" id="Fill-4" sketch:type="MSShapeGroup"></path>
            <path d="M105.500813,43.4699608 C103.2885,44.5272549 101.115,45.154549 98.816625,44.8257255 C96.7629375,44.5306275 94.7480625,43.9674118 92.7163125,43.5154902 C91.6700625,43.281098 91.1334375,42.5981569 90.9781875,41.5543529 C90.7925625,40.2913333 90.6440625,39.0165098 90.3504375,37.777098 C89.98425,36.2307843 89.5303125,34.6996471 89.0173125,33.1954902 C88.8890625,32.819451 88.3861875,32.5715686 88.0554375,32.2629804 C86.5873125,30.8903529 87.0193125,29.5362745 88.857,28.6273725 C92.552625,26.8028235 96.6853125,26.8500392 100.51425,25.6426667 C101.516625,25.3256471 102.017813,25.9731765 102.306375,26.7927059 C102.637125,27.7353333 102.049875,28.1231765 101.261813,28.3946667 C98.3863125,29.3845098 95.5175625,30.3945882 92.3383125,31.5058431 C92.721375,31.8329804 92.98125,32.2461176 93.27825,32.2764706 C94.483125,32.3961961 95.7031875,32.340549 96.9080625,32.456902 C98.317125,32.5918039 99.69075,32.8919608 100.742063,34.2359216 C98.9955,36.7029412 96.1858125,35.294902 93.922875,36.1599608 C93.8975625,37.1649804 93.693375,38.1632549 95.0383125,38.7467059 C95.4264375,38.9136471 95.51925,39.7601569 95.8179375,40.4599608 C97.956,41.4970196 100.470375,41.4413725 102.920625,41.5594118 C104.488313,41.6352941 104.623313,41.542549 105.500813,43.4699608" id="Fill-5" sketch:type="MSShapeGroup"></path>
            <path d="M61.6494375,27.7387059 C61.6764375,27.5481569 61.6966875,27.143451 61.7945625,26.7589804 C62.0848125,25.6021961 62.60625,25.1081176 63.7723125,25.1738824 C66.231,25.3138431 68.5614375,25.8500784 70.3198125,27.7909804 C70.723125,28.2378431 71.155125,28.6627843 71.6090625,29.0556863 C72.997875,30.258 73.5361875,31.9864314 72.97425,33.6878824 C72.02925,36.5511765 70.2185625,38.5409804 67.2181875,39.3284706 C66.3136875,39.564549 65.4463125,39.9726275 64.5316875,40.129451 C61.104375,40.7145882 57.294,38.2020392 56.3068125,34.8632157 C55.785375,33.0976863 56.6071875,31.7149412 57.4306875,30.3456863 C57.8728125,29.6104706 58.4600625,28.8617647 59.1688125,28.414902 C59.835375,27.9950196 60.746625,27.9646667 61.6494375,27.7387059 L61.6494375,27.7387059 Z M63.041625,29.588549 C62.3025,30.4805882 61.7371875,31.2781961 61.0554375,31.959451 C60.09525,32.9172549 59.9686875,33.6001961 60.6234375,34.8075686 C61.3456875,36.1414118 62.4256875,36.8412157 63.9225,36.4769804 C65.2741875,36.1481569 66.598875,35.6709412 67.8830625,35.1347059 C68.401125,34.9188627 68.8449375,34.423098 69.211125,33.9661176 C70.1375625,32.8076471 70.05825,32.0167843 69.0035625,30.8515686 C67.0629375,28.7049412 66.436875,28.5548627 63.8145,29.5244706 C63.4888125,29.6441961 63.0973125,29.5851765 63.041625,29.588549 L63.041625,29.588549 Z" id="Fill-6" sketch:type="MSShapeGroup"></path>
            <path d="M47.7444375,40.4262353 C44.2445625,40.368902 40.5945,37.7568627 39.9110625,34.9542745 C39.673125,33.9796078 39.848625,32.7722353 40.2114375,31.8127451 C40.8223125,30.1989804 41.7943125,28.7251765 42.498,27.1417647 C43.0160625,25.9731765 44.026875,25.5060784 45.0511875,25.5735294 C46.6813125,25.6797647 48.3553125,25.9664314 49.885875,26.5212157 C51.6324375,27.1535686 52.2163125,28.9325882 52.909875,30.5008235 C53.0955,30.9240784 53.092125,31.4552549 53.34525,31.8194902 C55.2706875,34.5934118 53.463375,38.2947843 50.2925625,39.6185098 C49.3138125,40.0265882 48.2625,40.2643529 47.7444375,40.4262353 L47.7444375,40.4262353 Z M46.4146875,29.016902 C44.901,30.4063922 44.2310625,31.4906667 43.98975,32.8885882 C43.61175,35.0638824 45.2165625,36.7703922 47.361375,36.3403922 C48.326625,36.1481569 49.2429375,35.6591373 50.1474375,35.2341961 C50.4174375,35.1077255 50.6604375,34.7704706 50.770125,34.4770588 C51.1515,33.4534902 50.0124375,30.7841176 48.9121875,30.5986275 C47.7781875,30.4080784 47.0829375,29.779098 46.4146875,29.016902 L46.4146875,29.016902 Z" id="Fill-7" sketch:type="MSShapeGroup"></path>
            <path d="M8.32275,22.3696078 C9.4280625,22.9513725 10.378125,23.4505098 11.444625,24.0120392 C11.7045,24.8062745 12.038625,25.6747059 11.29275,26.5363922 C10.42875,27.5312941 9.477,26.9815686 8.4999375,26.578549 C7.25625,27.6156078 6.0075,28.5683529 4.86675,29.637451 C3.9301875,30.5143137 4.13775,33.5057647 5.167125,34.7519216 C6.1138125,35.8985882 7.347375,36.5073333 8.8610625,36.4297647 C9.7993125,36.3808627 10.7443125,36.3437647 11.67075,36.2038039 C12.9144375,36.0149412 14.036625,36.1700784 15.0778125,37.1919608 C15.4659375,38.3082745 15.319125,39.3908627 14.04,40.0957255 C13.7835,40.2373725 13.4611875,40.3216863 13.1709375,40.32 C11.1695625,40.3065098 9.163125,40.3452941 7.1701875,40.2053333 C4.431375,40.013098 2.8215,38.1750588 1.495125,36.0098824 C0.0388125,33.6322353 0.0084375,31.2630196 1.306125,28.7757647 C2.035125,27.3778431 2.5160625,25.9630588 4.228875,25.3087843 C5.238,24.9226275 6.010875,23.931098 6.915375,23.2498431 C7.381125,22.899098 7.90425,22.6276078 8.32275,22.3696078" id="Fill-8" sketch:type="MSShapeGroup"></path>
            <path d="M80.1376875,23.4235294 C81.0118125,24.2936471 82.23525,24.4437255 82.258875,25.8736863 C82.2825,27.2361961 82.252125,27.42 80.8430625,27.6088627 C80.5815,27.6442745 80.3165625,27.6864314 80.0634375,27.7623137 C79.943625,27.7977255 79.8525,27.9208235 79.54875,28.1636471 C80.8785,29.2411765 82.2369375,30.2158431 83.440125,31.3540784 C84.888,32.7250196 86.383125,34.0976471 86.855625,36.1936863 C87.260625,37.9963137 86.9484375,39.7770196 86.05575,41.2390196 C85.3284375,42.432902 83.723625,42.9118039 82.3246875,42.7448627 C80.902125,42.574549 79.538625,41.9270196 78.2595,41.5223137 C77.9945625,38.1160392 78.4755,37.4567059 81.145125,37.3723922 C81.4336875,37.8900784 81.7408125,38.4398039 82.0648125,39.0215686 C83.170125,38.8124706 83.224125,37.8917647 83.1549375,37.2965098 C83.0165625,36.1026275 82.562625,34.9407843 81.550125,34.1549804 C80.497125,33.3388235 79.3513125,32.6373333 78.3405,31.7756471 C77.4309375,31.0016471 76.588875,30.1281569 75.826125,29.2091373 C75.1545,28.3997255 75.6,26.3104314 76.7356875,25.4301961 C77.76675,24.6325882 78.991875,24.084549 80.1376875,23.4235294" id="Fill-9" sketch:type="MSShapeGroup"></path>
        </g>
    </g>
</svg>