<svg width="10" height="7" viewBox="0 0 10 7" xmlns="http://www.w3.org/2000/svg" xmlns:sketch="http://www.bohemiancoding.com/sketch/ns"><title>down-tempo</title><desc>Created with Sketch.</desc><path d="M5.423 7.022c-1.158-.204-1.811-.965-2.466-1.763-.533-.649-1.144-1.235-1.742-1.827-.122-.121-.341-.146-.635-.262l.827-.41-.944-.095c.01-.749-.29-1.576.656-2.015.191-.088.393-.175.598-.201.793-.103 1.587-.231 2.384-.257 1.282-.043 2.567-.002 3.85-.02.255-.004.517-.183.763-.158.63.064 1.039 1.132.768 1.753-.376.859-1.19 1.305-1.745 1.988-.466.573-.895 1.176-1.322 1.779-.35.495-.673 1.008-.992 1.488" fill="#fff" sketch:type="MSShapeGroup"/></svg>