<svg width="215" height="59" viewBox="0 0 215 59" xmlns="http://www.w3.org/2000/svg" xmlns:sketch="http://www.bohemiancoding.com/sketch/ns"><title>drumkitmas-hover</title><desc>Created with Sketch.</desc><g sketch:type="MSArtboardGroup" fill="none"><path opacity=".87" sketch:type="MSShapeGroup" d="M-761-303h1024v1024h-1024z"/><g sketch:type="MSLayerGroup"><path d="M.44 55.327c-.509-3.729-.445-7.28.059-10.76.39-2.676.465-5.271.119-7.936-.438-3.344-.489-6.662.2-10.038.491-2.407.357-4.949.429-7.433.055-1.973.152-3.909 1.623-5.782 1.249-.433 2.777-.838 4.199-1.484 3.098-1.409 6.157-.84 9.251-.076 1.339.331 2.704.838 4.047.813 4.745-.089 9.489-.367 14.229-.591 1.403-.067 2.799-.269 4.201-.291 7.201-.111 14.406-.058 21.6-.318 4.906-.178 9.85-.458 14.685-1.256 8.83-1.456 17.656-2.896 26.543-3.942 1.555-.182 3.098-.591 4.602-1.044 5.591-1.691 11.288-2.68 17.125-2.927 2.634-.113 5.285-.24 7.883-.649 7.19-1.127 14.41-.133 21.608-.509 4.039-.211 8.09-.153 12.129-.358 7.227-.369 14.403.031 21.597.8 4.182.449 8.447.484 12.651.249 3.433-.191 6.621.189 9.757 1.809 3.981 5.349 4.122 11.818 4.519 18.144.511 8.144.689 16.309 1.075 24.462.057 1.213.46 2.413.718 3.616.465 2.182-.328 3.818-2.132 5.007-1.836 1.213-3.871 1.698-6.038 1.478-2.275-.231-4.541-.56-6.809-.851-8.192-1.049-16.374-2.18-24.579-3.111-3.133-.356-6.322-.249-9.484-.356-8.92-.3-17.834-.676-26.75-1.076-11.746-.524-23.509-.402-35.268-.38-.872.002-1.757.033-2.616.18-5.04.867-10.105 1.353-15.225 1.307-1.216-.011-2.431.358-3.653.52-2.266.3-4.532.807-6.802.818-7.582.038-15.079 1.107-22.617 1.642-3.68.262-7.388.098-11.083.138l-11.078.14c-1.927.022-3.809-.044-5.565 1.162-.795.547-2.013.52-3.052.638-2.272.26-4.593.253-6.824.704-4.124.833-7.976.267-11.748-1.518-1.055-.498-2.283-.622-3.53-.942zm3.829-2.504c3.169 0 6.161.32 9.064-.062 7.716-1.013 15.46-.907 23.187-.8 11.457.158 22.848-.68 34.241-1.609 5.606-.456 11.199-1.082 16.797-1.649 4.719-.478 9.436-.989 14.155-1.473 1.398-.144 2.801-.367 4.199-.358 9.5.051 19.001-.009 28.494.284 9.667.298 19.323.987 28.985 1.456 11.607.562 23.154 1.722 34.666 3.307 3.305.456 6.648.678 9.982.887 1.365.087 2.854.098 3.743-1.844-.861-1.093-1.799-2.282-2.999-3.802 1.711-1.404 1.68-3.318 1.643-5.28-.13-6.564-.064-13.133-.33-19.689-.134-3.351-.749-6.691-1.277-10.016-.337-2.116-1.22-4.038-2.317-5.264-6.223-2.222-12.241-1.629-18.147-2.187-6.494-.611-12.972-1.133-19.494-.949-4.217.12-8.432.267-12.648.391-9.658.289-19.307-.109-28.987.876-7.033.713-13.928 1.629-20.728 3.507-2.024.56-4.122.869-6.203 1.196-6.078.956-12.157 1.902-18.248 2.778-7.306 1.051-14.549 2.502-22.025 2.189-5.615-.233-11.261.104-16.887.327-6.837.271-13.668.696-20.503 1.04-2.629.133-5.263.22-7.894.344-1.517.073-3.105.911-4.457-.611-.2-.227-.982-.071-1.427.093-1.295.478-2.554 1.051-4.016 1.667-.216 5.771-1.053 11.556-.509 17.442.308 3.331-.029 6.724-.055 10.091-.02 2.464-.004 4.929-.004 7.72z" fill="#000" sketch:type="MSShapeGroup"/><path d="M4.269 52.822c0-2.791-.015-5.256.004-7.72.026-3.367.363-6.76.055-10.091-.544-5.887.293-11.671.509-17.442 1.462-.616 2.722-1.189 4.016-1.667.445-.164 1.227-.32 1.427-.093 1.352 1.522 2.94.684 4.457.611 2.631-.124 5.265-.211 7.894-.344 6.835-.344 13.666-.769 20.503-1.04 5.626-.222 11.272-.56 16.887-.327 7.476.313 14.718-1.138 22.025-2.189 6.091-.876 12.171-1.822 18.248-2.778 2.081-.327 4.179-.636 6.203-1.196 6.8-1.878 13.694-2.793 20.728-3.507 9.68-.984 19.329-.587 28.987-.876 4.217-.124 8.432-.271 12.648-.391 6.522-.184 13.001.338 19.494.949 5.906.558 11.924-.036 18.147 2.187 1.097 1.227 1.98 3.149 2.317 5.264.528 3.324 1.143 6.664 1.277 10.016.266 6.556.2 13.124.33 19.689.037 1.962.068 3.876-1.643 5.28 1.2 1.52 2.138 2.709 2.999 3.802-.89 1.942-2.378 1.931-3.743 1.844-3.334-.209-6.677-.431-9.982-.887-11.512-1.584-23.06-2.744-34.666-3.307-9.662-.469-19.318-1.158-28.985-1.456-9.493-.293-18.995-.233-28.494-.284-1.398-.009-2.801.213-4.199.358-4.719.484-9.436.996-14.155 1.473-5.598.567-11.191 1.193-16.797 1.649-11.393.929-22.784 1.767-34.241 1.609-7.727-.107-15.471-.213-23.187.8-2.902.382-5.895.062-9.064.062zm11.972-5.091c2.352-.707 4.51-1.436 6.712-1.993 1.881-.478 2.843-1.707 3.759-3.362 2.587-4.68-1.306-13.811-5.73-16.262-3.638-2.013-5.923-1.913-9.088.878-.777.687-1.396 1.556-2.123 2.38 1.149 4.911 2.264 9.718 2.143 14.709-.033 1.336.674 2.329 2.024 2.767.828.271 1.627.622 2.303.884zm63.18-19.696c-.388-2.264-.667-4.353-1.141-6.393-.13-.553-.775-1.258-1.295-1.371-.562-.122-1.372.222-1.852.631-.498.42-.861 1.122-1.057 1.771-.405 1.344-.722 2.724-.969 4.109-.617 3.48-1.072 6.996-2.993 10.089-.262.422-.418 1.011-.374 1.498.046.484.337 1.264.652 1.336.57.133 1.612.042 1.806-.316.912-1.684 1.7-3.456 2.343-5.264.498-1.407.718-2.916 1.068-4.411 1.852.638 1.321 2.187 1.861 3.187.432.798 1.301 1.353 1.933 1.973 2.786-1.898 2.678-5.278 4.807-7.331 1.246 2.409 1.29 4.871 1.484 7.298.112 1.409.11 2.829.273 4.229.141 1.207 1.26 1.971 2.215 1.618.938-.347 1.354-1.038 1.189-2.053-.566-3.482-1.108-6.969-1.713-10.442-.271-1.567-.608-3.129-1.039-4.658-.286-1.013-.795-1.964-2.239-2.124-2.501 1.296-1.729 5.269-4.959 6.627zm72.546-9.084c-2.261 1.104-3.27 3.058-3.748 5.107-1.013 4.356-2.244 8.571-4.924 12.224-.099.136-.231.371-.181.48.269.564.592 1.104.883 1.629 2.154-.78 2.889-2.453 3.675-3.996.718-1.413 1.143-2.973 1.77-4.436.645-1.5.288-3.464 2.314-5.164.304 2.316.449 4.022.78 5.691.159.793.473 1.851 1.061 2.2 1.136.676 1.958-.396 2.576-1.204 1.18-1.542 2.222-3.191 3.343-4.778.476-.673.837-1.607 2.162-1.096.425 3.604.843 7.298 1.315 10.984.086.68.324 1.36.612 1.982.123.267.595.584.835.533.471-.104 1.015-.351 1.297-.72.288-.376.473-.993.407-1.462-.74-5.267-1.511-10.531-2.358-15.782-.101-.627-.698-1.171-1.075-1.764-4.208.913-4.221 5.544-7.128 7.727-2.083-2.302.026-6.322-3.618-8.156zm-45.373-2.233c-1.143.731-1.942.958-2.209 1.467-.969 1.853-2.563 3.271-3.109 5.471-.531 2.136-1.79 4.078-4.05 5.284-1.277-2.089-.363-4.089-.727-5.92-.282-1.422-1.127-2.16-2.832-1.469-.121.582-.405 1.262-.379 1.929.178 4.389.418 8.771.652 13.158.018.349.101.702.194 1.042.328 1.22 1.297 1.96 2.266 1.693 1.187-.324 1.669-1.222 1.645-2.384-.022-.993-.163-1.984-.251-2.962 4.64-.631 4.899-.542 6.685 2.669.685 1.233 1.202 2.56 1.859 3.809.625 1.189 1.843 1.696 2.539 1.107.795-.673.773-1.524.381-2.393-.359-.8-.713-1.611-1.171-2.356-.923-1.504-1.775-3.084-2.911-4.411-1.097-1.276-2.513-2.267-3.843-3.429 1.863-3.824 5.426-6.727 5.261-12.304zm-70.498 17.878c4.179 2.3 7.124 4.773 9.982 7.378.984.898 2.136.773 2.717-.118.577-.887.374-1.702-.357-2.344-1.585-1.393-3.204-2.753-4.836-4.089-.94-.769-1.938-1.469-2.856-2.16.892-1.68 1.603-2.689 1.988-3.813 1.075-3.133-.65-5.742-3.821-5.938-6.159-.38-7.868 3.111-6.615 7.758.729 2.704.942 5.547 1.42 8.322.11.631.352 1.238.533 1.851 2.715-.72 2.911-.891 2.675-2.504-.174-1.191-.449-2.369-.832-4.342zm145.719-1.287c.293 1.838.456 3.044.687 4.238.134.689.328 1.373.581 2.024.299.764 1.801.938 2.204.196.396-.724.874-1.689.705-2.4-1.315-5.504-2.772-10.973-4.208-16.449-.132-.502-.401-.973-.65-1.438-.361-.676-1.892-.82-2.295-.207-.284.433-.533.902-.711 1.387-2.017 5.482-4.023 10.967-6.018 16.458-.288.793-.498 1.618-.705 2.296.958 1.076 1.828 1.002 2.343.116.872-1.504 1.537-3.131 2.283-4.698 1.834-.482 3.525-.927 5.783-1.522zm-114.805-3.773c0-1.378.011-2.442-.002-3.507-.007-.531-.013-1.067-.086-1.591-.165-1.18-1.209-2.002-2.18-1.716-.993.293-1.365 1.004-1.189 2.018.15.871.396 1.738.447 2.613.119 2.118.299 4.249.172 6.356-.128 2.136-2.501 4.313-4.552 4.52-1.442.144-2.473-1.004-3.235-3.616l-.115-.52c-.676-2.922-1.623-5.802-.802-8.891.231-.862-.764-1.856-1.57-1.649-.581.149-1.07.7-1.572 1.109-.11.089-.121.324-.152.498-.848 4.707.081 9.173 1.894 13.491.634 1.509 1.775 2.611 3.334 3.236 1.187.473 2.345.662 3.567.107 4.221-1.918 6.511-5.84 6.188-10.649-.048-.707-.115-1.413-.148-1.809zm127.297-2.556c.238-3.031 1.374-4.889 4.508-4.856.348.002.788.036 1.022-.151.368-.298.815-.769.821-1.171.004-.424-.368-1.082-.746-1.253-3.563-1.616-7.943.902-8.634 5.164-.619 3.811-.277 5.433 3.367 6.664.971.327 1.872.951 2.719 1.56 1.892 1.36 1.718 3.34 1.378 5.307-.295 1.709-1.689 2.124-3.083 2.449-1.013.236-2.077.289-3.072.58-.975.287-1.414 1.184-1.116 2.08.167.504.991 1.147 1.478 1.113 1.374-.098 2.772-.378 4.08-.827 4.488-1.54 5.23-2.713 5.221-7.331-.007-3.327-1.288-5.791-4.294-7.298-1.235-.618-2.418-1.342-3.649-2.031zm-62.123-3.133c1.955 4.938.934 10.476 3.094 15.864.839-.767 1.607-1.131 1.682-1.607.185-1.167.17-2.4.02-3.58-.469-3.649-1.037-7.284-1.561-10.904.771-.322 1.233-.66 1.711-.689 1.026-.062 2.07-.047 3.089.087 1.083.14 2.151.224 2.909-.678.416-.496.868-1.28.753-1.811-.101-.464-.998-1.1-1.506-1.067-3.836.242-7.67.569-11.488 1.013-.993.116-1.975.662-2.867 1.18-.319.184-.562.922-.462 1.311.106.416.634.993 1.011 1.018 1.156.08 2.325-.071 3.616-.138zm-15.258-.527c-1.528 4.809 1.308 9.158.033 13.404-.487.198-.817.32-1.136.464-.828.373-1.676.887-1.312 1.911.192.54.931 1.187 1.48 1.244 3.125.331 6.263.587 9.4.66.735.018 1.636-.629 2.182-1.229.348-.387.183-1.247.264-2.042l-6.586-.538c-.366-.478-.52-.596-.564-.747-.925-3.064-1.213-6.222-1.407-9.402-.084-1.371-.262-2.78-2.354-3.727zm-4.395-.36c4.69-.336 8.696-.578 12.686-.973.447-.044 1.114-.962 1.121-1.482.007-.469-.764-1.369-1.174-1.358-4.342.122-8.683.349-13.012.682-.414.031-1.066.989-1.048 1.5.018.538.652 1.109 1.119 1.558.205.198.663.127.308.073z" fill="#fff" sketch:type="MSShapeGroup"/><path fill="#fff" sketch:type="MSShapeGroup" d="M6.281 23.671l178.821-9.308 1.327 25.486-178.821 9.308z"/><path d="M16.242 47.731c-.676-.262-1.475-.613-2.303-.884-1.35-.438-2.057-1.431-2.024-2.767.121-4.991-.993-9.798-2.143-14.709.727-.824 1.345-1.693 2.123-2.38 3.164-2.791 5.45-2.891 9.088-.878 4.424 2.451 8.317 11.582 5.73 16.262-.916 1.656-1.878 2.884-3.759 3.362-2.202.558-4.36 1.287-6.712 1.993zm.412-4.078c1.566-.349 3.107-.622 4.609-1.042 2.438-.687 3.591-2.222 3.05-4.647-.493-2.198-1.22-4.447-2.356-6.364-1.072-1.816-2.997-2.873-5.236-3.078-1.909-.173-3.255.742-3.045 2.62.429 3.816 1.147 7.598 1.792 11.384.046.271.48.476 1.187 1.127z" fill="#000" sketch:type="MSShapeGroup"/><path d="M79.422 28.036c3.23-1.358 2.457-5.331 4.959-6.627 1.445.16 1.953 1.111 2.239 2.124.432 1.529.769 3.091 1.039 4.658.606 3.473 1.147 6.96 1.713 10.442.165 1.016-.251 1.707-1.189 2.053-.956.353-2.074-.411-2.215-1.618-.163-1.4-.161-2.82-.273-4.229-.194-2.427-.238-4.889-1.484-7.298-2.129 2.053-2.021 5.433-4.807 7.331-.632-.62-1.502-1.176-1.933-1.973-.539-1-.009-2.549-1.861-3.187-.35 1.496-.57 3.004-1.068 4.411-.643 1.809-1.431 3.58-2.343 5.264-.194.358-1.235.449-1.806.316-.315-.071-.606-.851-.652-1.336-.044-.487.112-1.076.374-1.498 1.92-3.093 2.376-6.609 2.993-10.089.247-1.384.564-2.764.969-4.109.196-.649.559-1.351 1.057-1.771.48-.409 1.29-.753 1.852-.631.52.113 1.165.818 1.295 1.371.473 2.04.753 4.129 1.141 6.393" fill="#000" sketch:type="MSShapeGroup"/><path d="M151.968 18.951c3.644 1.833 1.535 5.853 3.618 8.156 2.907-2.182 2.92-6.813 7.128-7.727.377.593.973 1.138 1.075 1.764.848 5.251 1.618 10.516 2.358 15.782.066.469-.119 1.087-.407 1.462-.282.369-.826.616-1.297.72-.24.051-.711-.267-.835-.533-.288-.622-.526-1.302-.612-1.982-.471-3.687-.89-7.38-1.315-10.984-1.326-.511-1.687.422-2.162 1.096-1.121 1.587-2.162 3.236-3.343 4.778-.619.809-1.44 1.88-2.576 1.204-.588-.349-.903-1.407-1.061-2.2-.33-1.669-.476-3.376-.78-5.691-2.026 1.7-1.669 3.664-2.314 5.164-.628 1.462-1.053 3.022-1.77 4.436-.786 1.542-1.522 3.216-3.675 3.996-.291-.524-.614-1.064-.883-1.629-.051-.109.081-.344.181-.48 2.68-3.653 3.911-7.869 4.924-12.224.478-2.049 1.486-4.002 3.748-5.107" fill="#000" sketch:type="MSShapeGroup"/><path d="M106.595 16.718c.165 5.578-3.398 8.48-5.261 12.304 1.33 1.162 2.746 2.153 3.843 3.429 1.136 1.327 1.988 2.907 2.911 4.411.458.744.813 1.556 1.171 2.356.392.869.414 1.72-.381 2.393-.696.589-1.914.082-2.539-1.107-.656-1.249-1.174-2.576-1.859-3.809-1.786-3.211-2.046-3.3-6.685-2.669.088.978.229 1.969.251 2.962.024 1.162-.458 2.06-1.645 2.384-.969.267-1.938-.473-2.266-1.693-.092-.34-.176-.693-.194-1.042-.233-4.387-.473-8.769-.652-13.158-.026-.667.258-1.347.379-1.929 1.704-.691 2.55.047 2.832 1.469.363 1.831-.551 3.831.727 5.92 2.259-1.207 3.519-3.149 4.05-5.284.546-2.2 2.14-3.618 3.109-5.471.266-.509 1.066-.736 2.209-1.467" fill="#000" sketch:type="MSShapeGroup"/><path d="M36.097 34.596c.383 1.973.658 3.151.832 4.342.236 1.613.04 1.784-2.675 2.504-.181-.613-.423-1.22-.533-1.851-.478-2.776-.691-5.618-1.42-8.322-1.253-4.647.456-8.138 6.615-7.758 3.171.196 4.895 2.804 3.821 5.938-.385 1.124-1.097 2.133-1.988 3.813.918.691 1.916 1.391 2.856 2.16 1.632 1.336 3.25 2.696 4.836 4.089.731.642.934 1.458.357 2.344-.581.891-1.733 1.016-2.717.118-2.858-2.604-5.802-5.078-9.982-7.378zm-.498-2.793c1.519-.8 2.788-1.318 3.86-2.109.392-.289.473-1.249.388-1.858-.053-.369-.7-.918-1.081-.92-.984-.007-2.147-.036-2.915.458-1.451.927-.958 2.402-.251 4.429z" fill="#000" sketch:type="MSShapeGroup"/><path d="M181.816 33.309c-2.257.596-3.948 1.04-5.783 1.522-.746 1.567-1.411 3.193-2.283 4.698-.515.887-1.385.96-2.343-.116.207-.678.416-1.502.705-2.296 1.995-5.491 4.001-10.976 6.018-16.458.178-.484.427-.953.711-1.387.403-.613 1.933-.469 2.295.207.249.464.517.936.65 1.438 1.436 5.476 2.893 10.944 4.208 16.449.17.711-.308 1.676-.705 2.4-.403.742-1.905.569-2.204-.196-.253-.651-.447-1.336-.581-2.024-.231-1.193-.394-2.4-.687-4.238zm-2.55-8.667l-1.321 5.642c2.766-.029 3.25-.382 2.858-1.96-.207-.831-.654-1.602-1.537-3.682z" fill="#000" sketch:type="MSShapeGroup"/><path d="M67.012 29.536c.033.396.099 1.102.148 1.809.324 4.809-1.966 8.731-6.188 10.649-1.222.556-2.38.367-3.567-.107-1.559-.624-2.7-1.727-3.334-3.236-1.812-4.318-2.742-8.784-1.894-13.491.031-.173.042-.409.152-.498.502-.409.991-.96 1.572-1.109.806-.207 1.801.787 1.57 1.649-.821 3.089.126 5.969.802 8.891l.115.52c.762 2.611 1.792 3.76 3.235 3.616 2.05-.207 4.424-2.384 4.552-4.52.128-2.107-.053-4.238-.172-6.356-.051-.876-.297-1.742-.447-2.613-.176-1.013.196-1.724 1.189-2.018.971-.287 2.015.536 2.18 1.716.073.524.079 1.06.086 1.591.013 1.064.002 2.129.002 3.507" fill="#000" sketch:type="MSShapeGroup"/><path d="M194.308 26.98c1.231.689 2.413 1.413 3.649 2.031 3.006 1.507 4.287 3.971 4.294 7.298.009 4.618-.733 5.791-5.221 7.331-1.308.449-2.706.729-4.08.827-.487.033-1.31-.609-1.478-1.113-.297-.896.141-1.793 1.116-2.08.995-.291 2.059-.344 3.072-.58 1.394-.324 2.788-.74 3.083-2.449.339-1.967.513-3.947-1.378-5.307-.848-.609-1.748-1.233-2.719-1.56-3.644-1.231-3.986-2.853-3.367-6.664.691-4.262 5.071-6.78 8.634-5.164.379.171.751.829.746 1.253-.007.402-.454.873-.821 1.171-.233.187-.674.153-1.022.151-3.133-.033-4.27 1.824-4.508 4.856" fill="#000" sketch:type="MSShapeGroup"/><path d="M132.185 23.847c-1.29.067-2.46.218-3.616.138-.377-.024-.905-.602-1.011-1.018-.099-.389.143-1.127.462-1.311.892-.518 1.874-1.064 2.867-1.18 3.818-.444 7.652-.771 11.488-1.013.509-.033 1.405.602 1.506 1.067.115.531-.337 1.316-.753 1.811-.757.902-1.825.818-2.909.678-1.02-.133-2.063-.149-3.089-.087-.478.029-.94.367-1.711.689.524 3.62 1.092 7.256 1.561 10.904.15 1.18.165 2.413-.02 3.58-.075.476-.843.84-1.682 1.607-2.16-5.389-1.138-10.927-3.094-15.864" fill="#000" sketch:type="MSShapeGroup"/><path d="M116.927 23.32c2.092.947 2.27 2.356 2.354 3.727.194 3.18.482 6.338 1.407 9.402.044.151.198.269.564.747l6.586.538c-.081.796.084 1.656-.264 2.042-.546.6-1.447 1.247-2.182 1.229-3.138-.073-6.276-.329-9.4-.66-.548-.058-1.288-.704-1.48-1.244-.363-1.024.484-1.538 1.312-1.911.319-.144.65-.267 1.136-.464 1.275-4.247-1.561-8.596-.033-13.404" fill="#000" sketch:type="MSShapeGroup"/><path d="M112.532 22.96c.355.053-.103.124-.308-.073-.467-.449-1.101-1.02-1.119-1.558-.018-.511.634-1.469 1.048-1.5 4.329-.333 8.669-.56 13.012-.682.41-.011 1.18.889 1.174 1.358-.007.52-.674 1.438-1.121 1.482-3.99.396-7.996.638-12.686.973" fill="#000" sketch:type="MSShapeGroup"/></g></g></svg>