<?xml version="1.0" encoding="UTF-8" standalone="no"?>
<svg width="215px" height="59px" viewBox="0 0 215 59" version="1.1" xmlns="http://www.w3.org/2000/svg" xmlns:xlink="http://www.w3.org/1999/xlink" xmlns:sketch="http://www.bohemiancoding.com/sketch/ns">
    <!-- Generator: Sketch 3.1.1 (8761) - http://www.bohemiancoding.com/sketch -->
    <title>drumkitmas</title>
    <desc>Created with Sketch.</desc>
    <defs></defs>
    <g id="Page-1" stroke="none" stroke-width="1" fill="none" fill-rule="evenodd" sketch:type="MSPage">
        <g id="Desktop-2" sketch:type="MSArtboardGroup" transform="translate(-761.000000, -303.000000)">
            <rect id="Rectangle-1" opacity="0.869927705" sketch:type="MSShapeGroup" x="0" y="0" width="1024" height="1024"></rect>
            <g id="drumkitmas" sketch:type="MSLayerGroup" transform="translate(761.000000, 303.500000)">
                <path d="M0.440121212,54.8266667 C-0.0685454545,51.0977778 -0.00468686869,47.5466667 0.499575758,44.0666667 C0.889333333,41.3911111 0.96420202,38.7955556 0.618484848,36.1311111 C0.180282828,32.7866667 0.129636364,29.4688889 0.818868687,26.0933333 C1.30991919,23.6866667 1.17559596,21.1444444 1.24826263,18.66 C1.30331313,16.6866667 1.40020202,14.7511111 2.87115152,12.8777778 C4.11969697,12.4444444 5.64789899,12.04 7.07040404,11.3933333 C10.1686465,9.98444444 13.2272525,10.5533333 16.3210909,11.3177778 C17.6599192,11.6488889 19.0251717,12.1555556 20.368404,12.1311111 C25.1137576,12.0422222 29.8569091,11.7644444 34.5978586,11.54 C36.0005455,11.4733333 37.3966263,11.2711111 38.7993131,11.2488889 C45.9999192,11.1377778 53.2049293,11.1911111 60.3989293,10.9311111 C65.3050303,10.7533333 70.2485657,10.4733333 75.084202,9.67555556 C83.914303,8.22 92.74,6.78 101.627354,5.73333333 C103.18198,5.55111111 104.725596,5.14222222 106.229576,4.68888889 C111.820505,2.99777778 117.517131,2.00888889 123.354687,1.76222222 C125.988303,1.64888889 128.639535,1.52222222 131.237919,1.11333333 C138.427515,-0.0133333333 145.647939,0.98 152.846343,0.604444444 C156.884848,0.393333333 160.936566,0.451111111 164.975071,0.246666667 C172.202101,-0.122222222 179.378485,0.277777778 186.572485,1.04666667 C190.754121,1.49555556 195.019434,1.53111111 199.223091,1.29555556 C202.65604,1.10444444 205.844566,1.48444444 208.980242,3.10444444 C212.961495,8.45333333 213.102424,14.9222222 213.498788,21.2488889 C214.009657,29.3933333 214.18802,37.5577778 214.573374,45.7111111 C214.630626,46.9244444 215.033596,48.1244444 215.291232,49.3266667 C215.755859,51.5088889 214.963131,53.1444444 213.159677,54.3333333 C211.323192,55.5466667 209.288525,56.0311111 207.121737,55.8111111 C204.847051,55.58 202.581172,55.2511111 200.313091,54.96 C192.121576,53.9111111 183.938869,52.78 175.734141,51.8488889 C172.600667,51.4933333 169.412141,51.6 166.25004,51.4933333 C157.329657,51.1933333 148.415879,50.8177778 139.499899,50.4177778 C127.754323,49.8933333 115.991131,50.0155556 104.232343,50.0377778 C103.360343,50.04 102.475131,50.0711111 101.616343,50.2177778 C96.5759192,51.0844444 91.5112727,51.5711111 86.3915758,51.5244444 C85.1760606,51.5133333 83.9605455,51.8822222 82.7384242,52.0444444 C80.4725455,52.3444444 78.2066667,52.8511111 75.9363838,52.8622222 C68.3548283,52.9 60.8569495,53.9688889 53.3194343,54.5044444 C49.6398586,54.7666667 45.9316566,54.6022222 42.2366667,54.6422222 C38.5438788,54.6822222 34.8510909,54.7422222 31.158303,54.7822222 C29.2315354,54.8044444 27.3488081,54.7377778 25.593798,55.9444444 C24.7988687,56.4911111 23.5811515,56.4644444 22.541798,56.5822222 C20.2693131,56.8422222 17.9483838,56.8355556 15.7177374,57.2866667 C11.5933535,58.12 7.7420202,57.5533333 3.9699596,55.7688889 C2.91519192,55.2711111 1.68646465,55.1466667 0.440121212,54.8266667 L0.440121212,54.8266667 Z M4.26943434,52.3222222 C7.43814141,52.3222222 10.4306869,52.6422222 13.3329495,52.26 C21.0488283,51.2466667 28.7933333,51.3533333 36.5202222,51.46 C47.9773333,51.6177778 59.3683838,50.78 70.7616364,49.8511111 C76.3679798,49.3955556 81.9611111,48.7688889 87.5586465,48.2022222 C92.2775758,47.7244444 96.994303,47.2133333 101.713232,46.7288889 C103.111515,46.5844444 104.514202,46.3622222 105.912485,46.3711111 C115.412,46.4222222 124.913717,46.3622222 134.406626,46.6555556 C144.073495,46.9533333 153.729354,47.6422222 163.391818,48.1111111 C174.998667,48.6733333 186.546061,49.8333333 198.058222,51.4177778 C201.363455,51.8733333 204.706121,52.0955556 208.03998,52.3044444 C209.405232,52.3911111 210.893798,52.4022222 211.783414,50.46 C210.922424,49.3666667 209.984364,48.1777778 208.784263,46.6577778 C210.495232,45.2533333 210.464404,43.34 210.42697,41.3777778 C210.297051,34.8133333 210.363111,28.2444444 210.096667,21.6888889 C209.962343,18.3377778 209.34798,14.9977778 208.819495,11.6733333 C208.482586,9.55777778 207.599576,7.63555556 206.50297,6.40888889 C200.280061,4.18666667 194.261939,4.78 188.356121,4.22222222 C181.862364,3.61111111 175.38402,3.08888889 168.861636,3.27333333 C164.644768,3.39333333 160.430101,3.54 156.213232,3.66444444 C146.555172,3.95333333 136.905919,3.55555556 127.225838,4.54 C120.192586,5.25333333 113.298061,6.16888889 106.498222,8.04666667 C104.474566,8.60666667 102.37604,8.91555556 100.295131,9.24222222 C94.2175556,10.1977778 88.1377778,11.1444444 82.0469899,12.02 C74.7406869,13.0711111 67.4982424,14.5222222 60.0223838,14.2088889 C54.4072323,13.9755556 48.7612525,14.3133333 43.1350909,14.5355556 C36.2978182,14.8066667 29.4671515,15.2311111 22.6320808,15.5755556 C20.0028687,15.7088889 17.3692525,15.7955556 14.7378384,15.92 C13.2206465,15.9933333 11.6329899,16.8311111 10.2809495,15.3088889 C10.0805657,15.0822222 9.29884848,15.2377778 8.8540404,15.4022222 C7.55925253,15.88 6.29969697,16.4533333 4.83755556,17.0688889 C4.62175758,22.84 3.7849899,28.6244444 4.32888889,34.5111111 C4.63717172,37.8422222 4.30026263,41.2355556 4.27383838,44.6022222 C4.2540202,47.0666667 4.26943434,49.5311111 4.26943434,52.3222222 L4.26943434,52.3222222 Z" id="Fill-1" fill="#000000" sketch:type="MSShapeGroup"></path>
                <path d="M4.26943434,52.3222222 C4.26943434,49.5311111 4.2540202,47.0666667 4.27383838,44.6022222 C4.30026263,41.2355556 4.63717172,37.8422222 4.32888889,34.5111111 C3.7849899,28.6244444 4.62175758,22.84 4.83755556,17.0688889 C6.29969697,16.4533333 7.55925253,15.88 8.8540404,15.4022222 C9.29884848,15.2377778 10.0805657,15.0822222 10.2809495,15.3088889 C11.6329899,16.8311111 13.2206465,15.9933333 14.7378384,15.92 C17.3692525,15.7955556 20.0028687,15.7088889 22.6320808,15.5755556 C29.4671515,15.2311111 36.2978182,14.8066667 43.1350909,14.5355556 C48.7612525,14.3133333 54.4072323,13.9755556 60.0223838,14.2088889 C67.4982424,14.5222222 74.7406869,13.0711111 82.0469899,12.02 C88.1377778,11.1444444 94.2175556,10.1977778 100.295131,9.24222222 C102.37604,8.91555556 104.474566,8.60666667 106.498222,8.04666667 C113.298061,6.16888889 120.192586,5.25333333 127.225838,4.54 C136.905919,3.55555556 146.555172,3.95333333 156.213232,3.66444444 C160.430101,3.54 164.644768,3.39333333 168.861636,3.27333333 C175.38402,3.08888889 181.862364,3.61111111 188.356121,4.22222222 C194.261939,4.78 200.280061,4.18666667 206.50297,6.40888889 C207.599576,7.63555556 208.482586,9.55777778 208.819495,11.6733333 C209.34798,14.9977778 209.962343,18.3377778 210.096667,21.6888889 C210.363111,28.2444444 210.297051,34.8133333 210.42697,41.3777778 C210.464404,43.34 210.495232,45.2533333 208.784263,46.6577778 C209.984364,48.1777778 210.922424,49.3666667 211.783414,50.46 C210.893798,52.4022222 209.405232,52.3911111 208.03998,52.3044444 C204.706121,52.0955556 201.363455,51.8733333 198.058222,51.4177778 C186.546061,49.8333333 174.998667,48.6733333 163.391818,48.1111111 C153.729354,47.6422222 144.073495,46.9533333 134.406626,46.6555556 C124.913717,46.3622222 115.412,46.4222222 105.912485,46.3711111 C104.514202,46.3622222 103.111515,46.5844444 101.713232,46.7288889 C96.994303,47.2133333 92.2775758,47.7244444 87.5586465,48.2022222 C81.9611111,48.7688889 76.3679798,49.3955556 70.7616364,49.8511111 C59.3683838,50.78 47.9773333,51.6177778 36.5202222,51.46 C28.7933333,51.3533333 21.0488283,51.2466667 13.3329495,52.26 C10.4306869,52.6422222 7.43814141,52.3222222 4.26943434,52.3222222 L4.26943434,52.3222222 Z M16.2418182,47.2311111 C18.5935758,46.5244444 20.7515556,45.7955556 22.9535758,45.2377778 C24.834101,44.76 25.7963838,43.5311111 26.7124242,41.8755556 C29.299798,37.1955556 25.4066263,28.0644444 20.9827677,25.6133333 C17.3450303,23.6 15.0593333,23.7 11.8950303,26.4911111 C11.1177172,27.1777778 10.4989495,28.0466667 9.77228283,28.8711111 C10.9217374,33.7822222 12.0359596,38.5888889 11.9148485,43.58 C11.8818182,44.9155556 12.5886667,45.9088889 13.9385051,46.3466667 C14.7664646,46.6177778 15.565798,46.9688889 16.2418182,47.2311111 L16.2418182,47.2311111 Z M79.4221818,27.5355556 C79.0346263,25.2711111 78.7549697,23.1822222 78.2815354,21.1422222 C78.1516162,20.5888889 77.5064242,19.8844444 76.9867475,19.7711111 C76.4252323,19.6488889 75.6148889,19.9933333 75.1348485,20.4022222 C74.6371919,20.8222222 74.2738586,21.5244444 74.0778788,22.1733333 C73.6727071,23.5177778 73.3556162,24.8977778 73.1089899,26.2822222 C72.4924242,29.7622222 72.0366061,33.2777778 70.1164444,36.3711111 C69.854404,36.7933333 69.6980606,37.3822222 69.742101,37.8688889 C69.7883434,38.3533333 70.0790101,39.1333333 70.393899,39.2044444 C70.9642222,39.3377778 72.0057778,39.2466667 72.1995556,38.8888889 C73.1111919,37.2044444 73.8995152,35.4333333 74.5425051,33.6244444 C75.0401616,32.2177778 75.2603636,30.7088889 75.6104848,29.2133333 C77.4623838,29.8511111 76.931697,31.4 77.4711919,32.4 C77.9027879,33.1977778 78.7725859,33.7533333 79.4045657,34.3733333 C82.1901212,32.4755556 82.0822222,29.0955556 84.2115758,27.0422222 C85.4579192,29.4511111 85.5019596,31.9133333 85.6957374,34.34 C85.8080404,35.7488889 85.8058384,37.1688889 85.9687879,38.5688889 C86.1097172,39.7755556 87.2283434,40.54 88.1840202,40.1866667 C89.1220808,39.84 89.5382626,39.1488889 89.3731111,38.1333333 C88.8071919,34.6511111 88.2654949,31.1644444 87.6599394,27.6911111 C87.3890909,26.1244444 87.0521818,24.5622222 86.6205859,23.0333333 C86.3343232,22.02 85.8256566,21.0688889 84.3811313,20.9088889 C81.8796364,22.2044444 82.6525455,26.1777778 79.4221818,27.5355556 L79.4221818,27.5355556 Z M151.967737,18.4511111 C149.706263,19.5555556 148.697737,21.5088889 148.219899,23.5577778 C147.20697,27.9133333 145.97604,32.1288889 143.296182,35.7822222 C143.197091,35.9177778 143.06497,36.1533333 143.115616,36.2622222 C143.384263,36.8266667 143.70796,37.3666667 143.998626,37.8911111 C146.152202,37.1111111 146.887677,35.4377778 147.673798,33.8955556 C148.391657,32.4822222 148.816646,30.9222222 149.444222,29.46 C150.089414,27.96 149.732687,25.9955556 151.758545,24.2955556 C152.062424,26.6111111 152.207758,28.3177778 152.538061,29.9866667 C152.696606,30.78 153.011495,31.8377778 153.599434,32.1866667 C154.735677,32.8622222 155.55703,31.7911111 156.175798,30.9822222 C157.356081,29.44 158.397636,27.7911111 159.518465,26.2044444 C159.994101,25.5311111 160.355232,24.5977778 161.680848,25.1088889 C162.105838,28.7133333 162.524222,32.4066667 162.995455,36.0933333 C163.081333,36.7733333 163.319152,37.4533333 163.607616,38.0755556 C163.730929,38.3422222 164.202162,38.66 164.442182,38.6088889 C164.913414,38.5044444 165.457313,38.2577778 165.739172,37.8888889 C166.027636,37.5133333 166.212606,36.8955556 166.146545,36.4266667 C165.406667,31.16 164.63596,25.8955556 163.788182,20.6444444 C163.686889,20.0177778 163.090141,19.4733333 162.713596,18.88 C158.505535,19.7933333 158.492323,24.4244444 155.585657,26.6066667 C153.502545,24.3044444 155.612081,20.2844444 151.967737,18.4511111 L151.967737,18.4511111 Z M106.595111,16.2177778 C105.452263,16.9488889 104.652929,17.1755556 104.386485,17.6844444 C103.417596,19.5377778 101.823333,20.9555556 101.277232,23.1555556 C100.746545,25.2911111 99.4869899,27.2333333 97.2277172,28.44 C95.9505455,26.3511111 96.8643838,24.3511111 96.5010505,22.52 C96.2191919,21.0977778 95.3736162,20.36 93.6692525,21.0511111 C93.5481414,21.6333333 93.2640808,22.3133333 93.2905051,22.98 C93.4688687,27.3688889 93.7088889,31.7511111 93.942303,36.1377778 C93.9599192,36.4866667 94.043596,36.84 94.1360808,37.18 C94.4641818,38.4 95.4330707,39.14 96.4019596,38.8733333 C97.5888485,38.5488889 98.0710909,37.6511111 98.0468687,36.4888889 C98.0248485,35.4955556 97.8839192,34.5044444 97.7958384,33.5266667 C102.435495,32.8955556 102.695333,32.9844444 104.481172,36.1955556 C105.166,37.4288889 105.683475,38.7555556 106.339677,40.0044444 C106.965051,41.1933333 108.182768,41.7 108.878606,41.1111111 C109.673535,40.4377778 109.651515,39.5866667 109.259556,38.7177778 C108.900626,37.9177778 108.546101,37.1066667 108.088081,36.3622222 C107.165434,34.8577778 106.313253,33.2777778 105.17701,31.9511111 C104.080404,30.6755556 102.664505,29.6844444 101.334485,28.5222222 C103.197394,24.6977778 106.760263,21.7955556 106.595111,16.2177778 L106.595111,16.2177778 Z M36.0974343,34.0955556 C40.2768687,36.3955556 43.2209697,38.8688889 46.0791919,41.4733333 C47.0634949,42.3711111 48.2151515,42.2466667 48.7964848,41.3555556 C49.3734141,40.4688889 49.1708283,39.6533333 48.4397576,39.0111111 C46.854303,37.6177778 45.2358182,36.2577778 43.6041212,34.9222222 C42.6638586,34.1533333 41.6663434,33.4533333 40.748101,32.7622222 C41.6399192,31.0822222 42.3511717,30.0733333 42.7365253,28.9488889 C43.8111111,25.8155556 42.0869293,23.2066667 38.9160202,23.0111111 C32.7569697,22.6311111 31.048202,26.1222222 32.3011515,30.7688889 C33.0300202,33.4733333 33.2436162,36.3155556 33.7214545,39.0911111 C33.8315556,39.7222222 34.0737778,40.3288889 34.2543434,40.9422222 C36.9694343,40.2222222 37.1654141,40.0511111 36.929798,38.4377778 C36.7558384,37.2466667 36.4805859,36.0688889 36.0974343,34.0955556 L36.0974343,34.0955556 Z M181.816121,32.8088889 C182.10899,34.6466667 182.271939,35.8533333 182.503152,37.0466667 C182.637475,37.7355556 182.831253,38.42 183.084485,39.0711111 C183.38396,39.8355556 184.885737,40.0088889 185.288707,39.2666667 C185.685071,38.5422222 186.162909,37.5777778 185.993354,36.8666667 C184.678747,31.3622222 183.22101,25.8933333 181.785293,20.4177778 C181.653172,19.9155556 181.384525,19.4444444 181.135697,18.98 C180.774566,18.3044444 179.244162,18.16 178.841192,18.7733333 C178.557131,19.2066667 178.308303,19.6755556 178.129939,20.16 C176.112889,25.6422222 174.106848,31.1266667 172.111818,36.6177778 C171.823354,37.4111111 171.614162,38.2355556 171.407172,38.9133333 C172.365051,39.9888889 173.234848,39.9155556 173.750121,39.0288889 C174.622121,37.5244444 175.287131,35.8977778 176.033616,34.3311111 C177.867899,33.8488889 179.559051,33.4044444 181.816121,32.8088889 L181.816121,32.8088889 Z M67.011596,29.0355556 C67.011596,27.6577778 67.0226061,26.5933333 67.0093939,25.5288889 C67.0027879,24.9977778 66.9961818,24.4622222 66.9235152,23.9377778 C66.7583636,22.7577778 65.7146061,21.9355556 64.7435152,22.2222222 C63.750404,22.5155556 63.3782626,23.2266667 63.5544242,24.24 C63.7041616,25.1111111 63.9507879,25.9777778 64.0014343,26.8533333 C64.1203434,28.9711111 64.3009091,31.1022222 64.1731919,33.2088889 C64.0454747,35.3444444 61.671697,37.5222222 59.6216162,37.7288889 C58.1792929,37.8733333 57.1487475,36.7244444 56.3868485,34.1133333 C56.338404,33.9444444 56.3119798,33.7666667 56.2723434,33.5933333 C55.5963232,30.6711111 54.6494545,27.7911111 55.4708081,24.7022222 C55.7020202,23.84 54.7067071,22.8466667 53.9007677,23.0533333 C53.3194343,23.2022222 52.8305859,23.7533333 52.3285253,24.1622222 C52.2184242,24.2511111 52.2074141,24.4866667 52.1765859,24.66 C51.3288081,29.3666667 52.2580606,33.8333333 54.0703232,38.1511111 C54.7045051,39.66 55.8451515,40.7622222 57.4041818,41.3866667 C58.5910707,41.86 59.7493333,42.0488889 60.9714545,41.4933333 C65.1927273,39.5755556 67.4828283,35.6533333 67.1591313,30.8444444 C67.1106869,30.1377778 67.0446263,29.4311111 67.011596,29.0355556 L67.011596,29.0355556 Z M194.308182,26.48 C194.546,23.4488889 195.682242,21.5911111 198.815717,21.6244444 C199.163636,21.6266667 199.60404,21.66 199.837455,21.4733333 C200.205192,21.1755556 200.652202,20.7044444 200.658808,20.3022222 C200.663212,19.8777778 200.291071,19.22 199.912323,19.0488889 C196.349455,17.4333333 191.969636,19.9511111 191.278202,24.2133333 C190.659434,28.0244444 191.000747,29.6466667 194.645091,30.8777778 C195.616182,31.2044444 196.516808,31.8288889 197.364586,32.4377778 C199.256121,33.7977778 199.082162,35.7777778 198.743051,37.7444444 C198.44798,39.4533333 197.054101,39.8688889 195.660222,40.1933333 C194.647293,40.4288889 193.583717,40.4822222 192.588404,40.7733333 C191.612909,41.06 191.174707,41.9577778 191.47198,42.8533333 C191.639333,43.3577778 192.462889,44 192.949535,43.9666667 C194.323596,43.8688889 195.721879,43.5888889 197.029879,43.14 C201.517596,41.6 202.259677,40.4266667 202.250869,35.8088889 C202.244263,32.4822222 200.962687,30.0177778 197.956929,28.5111111 C196.721596,27.8933333 195.539111,27.1688889 194.308182,26.48 L194.308182,26.48 Z M132.184788,23.3466667 C134.140182,28.2844444 133.118444,33.8222222 135.278626,39.2111111 C136.117596,38.4444444 136.886101,38.08 136.96097,37.6044444 C137.145939,36.4377778 137.130525,35.2044444 136.980788,34.0244444 C136.511758,30.3755556 135.943636,26.74 135.419556,23.12 C136.190263,22.7977778 136.652687,22.46 137.130525,22.4311111 C138.156667,22.3688889 139.200424,22.3844444 140.21996,22.5177778 C141.303354,22.6577778 142.371333,22.7422222 143.128828,21.84 C143.54501,21.3444444 143.996424,20.56 143.881919,20.0288889 C143.780626,19.5644444 142.884404,18.9288889 142.375737,18.9622222 C138.539818,19.2044444 134.706101,19.5311111 130.887798,19.9755556 C129.894687,20.0911111 128.912586,20.6377778 128.020768,21.1555556 C127.701475,21.34 127.459253,22.0777778 127.558343,22.4666667 C127.66404,22.8822222 128.192525,23.46 128.569071,23.4844444 C129.725131,23.5644444 130.894404,23.4133333 132.184788,23.3466667 L132.184788,23.3466667 Z M116.92699,22.82 C115.398788,27.6288889 118.23499,31.9777778 116.96002,36.2244444 C116.473374,36.4222222 116.143071,36.5444444 115.823778,36.6888889 C114.995818,37.0622222 114.14804,37.5755556 114.511374,38.6 C114.702949,39.14 115.442828,39.7866667 115.991131,39.8444444 C119.115798,40.1755556 122.253677,40.4311111 125.391556,40.5044444 C126.12703,40.5222222 127.027657,39.8755556 127.573758,39.2755556 C127.921677,38.8888889 127.756525,38.0288889 127.838,37.2333333 C125.360727,37.0311111 123.160909,36.8511111 121.251758,36.6955556 C120.886222,36.2177778 120.732081,36.1 120.68804,35.9488889 C119.763192,32.8844444 119.474727,29.7266667 119.280949,26.5466667 C119.197273,25.1755556 119.018909,23.7666667 116.92699,22.82 L116.92699,22.82 Z M112.531758,22.46 C117.222061,22.1244444 121.227535,21.8822222 125.217596,21.4866667 C125.664606,21.4422222 126.331818,20.5244444 126.338424,20.0044444 C126.34503,19.5355556 125.574323,18.6355556 125.164747,18.6466667 C120.822364,18.7688889 116.482182,18.9955556 112.15301,19.3288889 C111.73903,19.36 111.087232,20.3177778 111.104848,20.8288889 C111.122465,21.3666667 111.756646,21.9377778 112.223475,22.3866667 C112.428263,22.5844444 112.886283,22.5133333 112.531758,22.46 L112.531758,22.46 Z" id="Fill-2" sketch:type="MSShapeGroup"></path>
                <rect id="Rectangle-5" sketch:type="MSShapeGroup" transform="translate(96.356402, 31.259992) rotate(-3.000000) translate(-96.356402, -31.259992) " x="6.85640226" y="18.5037602" width="179" height="25.5124633"></rect>
                <path d="M16.2418182,47.2311111 C15.565798,46.9688889 14.7664646,46.6177778 13.9385051,46.3466667 C12.5886667,45.9088889 11.8818182,44.9155556 11.9148485,43.58 C12.0359596,38.5888889 10.9217374,33.7822222 9.77228283,28.8711111 C10.4989495,28.0466667 11.1177172,27.1777778 11.8950303,26.4911111 C15.0593333,23.7 17.3450303,23.6 20.9827677,25.6133333 C25.4066263,28.0644444 29.299798,37.1955556 26.7124242,41.8755556 C25.7963838,43.5311111 24.834101,44.76 22.9535758,45.2377778 C20.7515556,45.7955556 18.5935758,46.5244444 16.2418182,47.2311111 L16.2418182,47.2311111 Z M16.653596,43.1533333 C18.2192323,42.8044444 19.7606465,42.5311111 21.2624242,42.1111111 C23.7000606,41.4244444 24.8539192,39.8888889 24.3122222,37.4644444 C23.8189697,35.2666667 23.092303,33.0177778 21.9560606,31.1 C20.8836768,29.2844444 18.9591111,28.2266667 16.7196566,28.0222222 C14.8105051,27.8488889 13.4650707,28.7644444 13.6742626,30.6422222 C14.1036566,34.4577778 14.8215152,38.24 15.4667071,42.0266667 C15.5129495,42.2977778 15.9467475,42.5022222 16.653596,43.1533333 L16.653596,43.1533333 Z" id="Fill-3" fill="#000000" sketch:type="MSShapeGroup"></path>
                <path d="M79.4221818,27.5355556 C82.6525455,26.1777778 81.8796364,22.2044444 84.3811313,20.9088889 C85.8256566,21.0688889 86.3343232,22.02 86.6205859,23.0333333 C87.0521818,24.5622222 87.3890909,26.1244444 87.6599394,27.6911111 C88.2654949,31.1644444 88.8071919,34.6511111 89.3731111,38.1333333 C89.5382626,39.1488889 89.1220808,39.84 88.1840202,40.1866667 C87.2283434,40.54 86.1097172,39.7755556 85.9687879,38.5688889 C85.8058384,37.1688889 85.8080404,35.7488889 85.6957374,34.34 C85.5019596,31.9133333 85.4579192,29.4511111 84.2115758,27.0422222 C82.0822222,29.0955556 82.1901212,32.4755556 79.4045657,34.3733333 C78.7725859,33.7533333 77.9027879,33.1977778 77.4711919,32.4 C76.931697,31.4 77.4623838,29.8511111 75.6104848,29.2133333 C75.2603636,30.7088889 75.0401616,32.2177778 74.5425051,33.6244444 C73.8995152,35.4333333 73.1111919,37.2044444 72.1995556,38.8888889 C72.0057778,39.2466667 70.9642222,39.3377778 70.393899,39.2044444 C70.0790101,39.1333333 69.7883434,38.3533333 69.742101,37.8688889 C69.6980606,37.3822222 69.854404,36.7933333 70.1164444,36.3711111 C72.0366061,33.2777778 72.4924242,29.7622222 73.1089899,26.2822222 C73.3556162,24.8977778 73.6727071,23.5177778 74.0778788,22.1733333 C74.2738586,21.5244444 74.6371919,20.8222222 75.1348485,20.4022222 C75.6148889,19.9933333 76.4252323,19.6488889 76.9867475,19.7711111 C77.5064242,19.8844444 78.1516162,20.5888889 78.2815354,21.1422222 C78.7549697,23.1822222 79.0346263,25.2711111 79.4221818,27.5355556" id="Fill-4" fill="#000000" sketch:type="MSShapeGroup"></path>
                <path d="M151.967737,18.4511111 C155.612081,20.2844444 153.502545,24.3044444 155.585657,26.6066667 C158.492323,24.4244444 158.505535,19.7933333 162.713596,18.88 C163.090141,19.4733333 163.686889,20.0177778 163.788182,20.6444444 C164.63596,25.8955556 165.406667,31.16 166.146545,36.4266667 C166.212606,36.8955556 166.027636,37.5133333 165.739172,37.8888889 C165.457313,38.2577778 164.913414,38.5044444 164.442182,38.6088889 C164.202162,38.66 163.730929,38.3422222 163.607616,38.0755556 C163.319152,37.4533333 163.081333,36.7733333 162.995455,36.0933333 C162.524222,32.4066667 162.105838,28.7133333 161.680848,25.1088889 C160.355232,24.5977778 159.994101,25.5311111 159.518465,26.2044444 C158.397636,27.7911111 157.356081,29.44 156.175798,30.9822222 C155.55703,31.7911111 154.735677,32.8622222 153.599434,32.1866667 C153.011495,31.8377778 152.696606,30.78 152.538061,29.9866667 C152.207758,28.3177778 152.062424,26.6111111 151.758545,24.2955556 C149.732687,25.9955556 150.089414,27.96 149.444222,29.46 C148.816646,30.9222222 148.391657,32.4822222 147.673798,33.8955556 C146.887677,35.4377778 146.152202,37.1111111 143.998626,37.8911111 C143.70796,37.3666667 143.384263,36.8266667 143.115616,36.2622222 C143.06497,36.1533333 143.197091,35.9177778 143.296182,35.7822222 C145.97604,32.1288889 147.20697,27.9133333 148.219899,23.5577778 C148.697737,21.5088889 149.706263,19.5555556 151.967737,18.4511111" id="Fill-5" fill="#000000" sketch:type="MSShapeGroup"></path>
                <path d="M106.595111,16.2177778 C106.760263,21.7955556 103.197394,24.6977778 101.334485,28.5222222 C102.664505,29.6844444 104.080404,30.6755556 105.17701,31.9511111 C106.313253,33.2777778 107.165434,34.8577778 108.088081,36.3622222 C108.546101,37.1066667 108.900626,37.9177778 109.259556,38.7177778 C109.651515,39.5866667 109.673535,40.4377778 108.878606,41.1111111 C108.182768,41.7 106.965051,41.1933333 106.339677,40.0044444 C105.683475,38.7555556 105.166,37.4288889 104.481172,36.1955556 C102.695333,32.9844444 102.435495,32.8955556 97.7958384,33.5266667 C97.8839192,34.5044444 98.0248485,35.4955556 98.0468687,36.4888889 C98.0710909,37.6511111 97.5888485,38.5488889 96.4019596,38.8733333 C95.4330707,39.14 94.4641818,38.4 94.1360808,37.18 C94.043596,36.84 93.9599192,36.4866667 93.942303,36.1377778 C93.7088889,31.7511111 93.4688687,27.3688889 93.2905051,22.98 C93.2640808,22.3133333 93.5481414,21.6333333 93.6692525,21.0511111 C95.3736162,20.36 96.2191919,21.0977778 96.5010505,22.52 C96.8643838,24.3511111 95.9505455,26.3511111 97.2277172,28.44 C99.4869899,27.2333333 100.746545,25.2911111 101.277232,23.1555556 C101.823333,20.9555556 103.417596,19.5377778 104.386485,17.6844444 C104.652929,17.1755556 105.452263,16.9488889 106.595111,16.2177778" id="Fill-6" fill="#000000" sketch:type="MSShapeGroup"></path>
                <path d="M36.0974343,34.0955556 C36.4805859,36.0688889 36.7558384,37.2466667 36.929798,38.4377778 C37.1654141,40.0511111 36.9694343,40.2222222 34.2543434,40.9422222 C34.0737778,40.3288889 33.8315556,39.7222222 33.7214545,39.0911111 C33.2436162,36.3155556 33.0300202,33.4733333 32.3011515,30.7688889 C31.048202,26.1222222 32.7569697,22.6311111 38.9160202,23.0111111 C42.0869293,23.2066667 43.8111111,25.8155556 42.7365253,28.9488889 C42.3511717,30.0733333 41.6399192,31.0822222 40.748101,32.7622222 C41.6663434,33.4533333 42.6638586,34.1533333 43.6041212,34.9222222 C45.2358182,36.2577778 46.854303,37.6177778 48.4397576,39.0111111 C49.1708283,39.6533333 49.3734141,40.4688889 48.7964848,41.3555556 C48.2151515,42.2466667 47.0634949,42.3711111 46.0791919,41.4733333 C43.2209697,38.8688889 40.2768687,36.3955556 36.0974343,34.0955556 L36.0974343,34.0955556 Z M35.5997778,31.3022222 C37.1191717,30.5022222 38.3875354,29.9844444 39.4599192,29.1933333 C39.8518788,28.9044444 39.9333535,27.9444444 39.8474747,27.3355556 C39.7946263,26.9666667 39.1472323,26.4177778 38.7662828,26.4155556 C37.7819798,26.4088889 36.6193131,26.38 35.8508081,26.8733333 C34.3996768,27.8 34.8929293,29.2755556 35.5997778,31.3022222 L35.5997778,31.3022222 Z" id="Fill-7" fill="#000000" sketch:type="MSShapeGroup"></path>
                <path d="M181.816121,32.8088889 C179.559051,33.4044444 177.867899,33.8488889 176.033616,34.3311111 C175.287131,35.8977778 174.622121,37.5244444 173.750121,39.0288889 C173.234848,39.9155556 172.365051,39.9888889 171.407172,38.9133333 C171.614162,38.2355556 171.823354,37.4111111 172.111818,36.6177778 C174.106848,31.1266667 176.112889,25.6422222 178.129939,20.16 C178.308303,19.6755556 178.557131,19.2066667 178.841192,18.7733333 C179.244162,18.16 180.774566,18.3044444 181.135697,18.98 C181.384525,19.4444444 181.653172,19.9155556 181.785293,20.4177778 C183.22101,25.8933333 184.678747,31.3622222 185.993354,36.8666667 C186.162909,37.5777778 185.685071,38.5422222 185.288707,39.2666667 C184.885737,40.0088889 183.38396,39.8355556 183.084485,39.0711111 C182.831253,38.42 182.637475,37.7355556 182.503152,37.0466667 C182.271939,35.8533333 182.10899,34.6466667 181.816121,32.8088889 L181.816121,32.8088889 Z M179.266182,24.1422222 C178.645212,26.7977778 178.303899,28.2488889 177.94497,29.7844444 C180.710707,29.7555556 181.195152,29.4022222 180.803192,27.8244444 C180.596202,26.9933333 180.149192,26.2222222 179.266182,24.1422222 L179.266182,24.1422222 Z" id="Fill-8" fill="#000000" sketch:type="MSShapeGroup"></path>
                <path d="M67.011596,29.0355556 C67.0446263,29.4311111 67.1106869,30.1377778 67.1591313,30.8444444 C67.4828283,35.6533333 65.1927273,39.5755556 60.9714545,41.4933333 C59.7493333,42.0488889 58.5910707,41.86 57.4041818,41.3866667 C55.8451515,40.7622222 54.7045051,39.66 54.0703232,38.1511111 C52.2580606,33.8333333 51.3288081,29.3666667 52.1765859,24.66 C52.2074141,24.4866667 52.2184242,24.2511111 52.3285253,24.1622222 C52.8305859,23.7533333 53.3194343,23.2022222 53.9007677,23.0533333 C54.7067071,22.8466667 55.7020202,23.84 55.4708081,24.7022222 C54.6494545,27.7911111 55.5963232,30.6711111 56.2723434,33.5933333 C56.3119798,33.7666667 56.338404,33.9444444 56.3868485,34.1133333 C57.1487475,36.7244444 58.1792929,37.8733333 59.6216162,37.7288889 C61.671697,37.5222222 64.0454747,35.3444444 64.1731919,33.2088889 C64.3009091,31.1022222 64.1203434,28.9711111 64.0014343,26.8533333 C63.9507879,25.9777778 63.7041616,25.1111111 63.5544242,24.24 C63.3782626,23.2266667 63.750404,22.5155556 64.7435152,22.2222222 C65.7146061,21.9355556 66.7583636,22.7577778 66.9235152,23.9377778 C66.9961818,24.4622222 67.0027879,24.9977778 67.0093939,25.5288889 C67.0226061,26.5933333 67.011596,27.6577778 67.011596,29.0355556" id="Fill-9" fill="#000000" sketch:type="MSShapeGroup"></path>
                <path d="M194.308182,26.48 C195.539111,27.1688889 196.721596,27.8933333 197.956929,28.5111111 C200.962687,30.0177778 202.244263,32.4822222 202.250869,35.8088889 C202.259677,40.4266667 201.517596,41.6 197.029879,43.14 C195.721879,43.5888889 194.323596,43.8688889 192.949535,43.9666667 C192.462889,44 191.639333,43.3577778 191.47198,42.8533333 C191.174707,41.9577778 191.612909,41.06 192.588404,40.7733333 C193.583717,40.4822222 194.647293,40.4288889 195.660222,40.1933333 C197.054101,39.8688889 198.44798,39.4533333 198.743051,37.7444444 C199.082162,35.7777778 199.256121,33.7977778 197.364586,32.4377778 C196.516808,31.8288889 195.616182,31.2044444 194.645091,30.8777778 C191.000747,29.6466667 190.659434,28.0244444 191.278202,24.2133333 C191.969636,19.9511111 196.349455,17.4333333 199.912323,19.0488889 C200.291071,19.22 200.663212,19.8777778 200.658808,20.3022222 C200.652202,20.7044444 200.205192,21.1755556 199.837455,21.4733333 C199.60404,21.66 199.163636,21.6266667 198.815717,21.6244444 C195.682242,21.5911111 194.546,23.4488889 194.308182,26.48" id="Fill-10" fill="#000000" sketch:type="MSShapeGroup"></path>
                <path d="M132.184788,23.3466667 C130.894404,23.4133333 129.725131,23.5644444 128.569071,23.4844444 C128.192525,23.46 127.66404,22.8822222 127.558343,22.4666667 C127.459253,22.0777778 127.701475,21.34 128.020768,21.1555556 C128.912586,20.6377778 129.894687,20.0911111 130.887798,19.9755556 C134.706101,19.5311111 138.539818,19.2044444 142.375737,18.9622222 C142.884404,18.9288889 143.780626,19.5644444 143.881919,20.0288889 C143.996424,20.56 143.54501,21.3444444 143.128828,21.84 C142.371333,22.7422222 141.303354,22.6577778 140.21996,22.5177778 C139.200424,22.3844444 138.156667,22.3688889 137.130525,22.4311111 C136.652687,22.46 136.190263,22.7977778 135.419556,23.12 C135.943636,26.74 136.511758,30.3755556 136.980788,34.0244444 C137.130525,35.2044444 137.145939,36.4377778 136.96097,37.6044444 C136.886101,38.08 136.117596,38.4444444 135.278626,39.2111111 C133.118444,33.8222222 134.140182,28.2844444 132.184788,23.3466667" id="Fill-11" fill="#000000" sketch:type="MSShapeGroup"></path>
                <path d="M116.92699,22.82 C119.018909,23.7666667 119.197273,25.1755556 119.280949,26.5466667 C119.474727,29.7266667 119.763192,32.8844444 120.68804,35.9488889 C120.732081,36.1 120.886222,36.2177778 121.251758,36.6955556 C123.160909,36.8511111 125.360727,37.0311111 127.838,37.2333333 C127.756525,38.0288889 127.921677,38.8888889 127.573758,39.2755556 C127.027657,39.8755556 126.12703,40.5222222 125.391556,40.5044444 C122.253677,40.4311111 119.115798,40.1755556 115.991131,39.8444444 C115.442828,39.7866667 114.702949,39.14 114.511374,38.6 C114.14804,37.5755556 114.995818,37.0622222 115.823778,36.6888889 C116.143071,36.5444444 116.473374,36.4222222 116.96002,36.2244444 C118.23499,31.9777778 115.398788,27.6288889 116.92699,22.82" id="Fill-12" fill="#000000" sketch:type="MSShapeGroup"></path>
                <path d="M112.531758,22.46 C112.886283,22.5133333 112.428263,22.5844444 112.223475,22.3866667 C111.756646,21.9377778 111.122465,21.3666667 111.104848,20.8288889 C111.087232,20.3177778 111.73903,19.36 112.15301,19.3288889 C116.482182,18.9955556 120.822364,18.7688889 125.164747,18.6466667 C125.574323,18.6355556 126.34503,19.5355556 126.338424,20.0044444 C126.331818,20.5244444 125.664606,21.4422222 125.217596,21.4866667 C121.227535,21.8822222 117.222061,22.1244444 112.531758,22.46" id="Fill-13" fill="#000000" sketch:type="MSShapeGroup"></path>
            </g>
        </g>
    </g>
</svg>