<svg width="195" height="110" viewBox="0 0 195 110" xmlns="http://www.w3.org/2000/svg" xmlns:sketch="http://www.bohemiancoding.com/sketch/ns"><title>elves-2-men-hover</title><desc>Created with Sketch.</desc><g sketch:type="MSArtboardGroup" fill="none"><path opacity=".87" sketch:type="MSShapeGroup" d="M-68-502h1024v1024h-1024z"/><g sketch:type="MSShapeGroup"><path d="M6.127 106.496c-1.697-5.044-1.869-9.971-1.9-14.861-.082-12.309.373-24.622-.669-36.914-.111-1.309-.22-2.63-.154-3.939.521-10.569-1.178-20.952-2.682-31.342-.57-3.945-.326-7.863-.215-11.797.053-1.872 1.127-3.139 2.787-3.669 4.671-1.496 9.216-2.714 14.399-1.662 4.894.992 10.018 1.342 15.13 1.06 12.768-.701 25.542-1.362 38.323-1.753 13.597-.415 27.202-.507 40.804-.727 7.213-.117 14.426-.162 21.637-.321 5.409-.121 10.825-.674 16.22-.505 12.782.401 25.585.565 38.306 2.104.973.117 1.943.3 2.889.547.454.119.848.458 1.428.789.343 1.504.964 3.076 1.026 4.67.351 9.017 1.693 17.977 1.182 27.05-.324 5.732-.012 11.497-.103 17.246-.049 3.109-.269 6.219-.538 9.317-.599 6.877-.848 13.755-.497 20.656.125 2.453.117 4.914.117 7.374.002 3.117.004 6.236-.096 9.348-.051 1.625-.228 3.261-.513 4.861-.462 2.587-2.229 3.774-4.689 4.391-4.521 1.132-9.099 1.107-13.681.904-5.403-.242-10.829-.38-16.185-1.044-5.405-.668-10.753-1.089-16.154-.257-.482.074-.987.068-1.475.033-7.853-.553-15.69.267-23.533.277-9.175.01-18.35-.403-27.527-.602-1.802-.039-3.612-.012-5.411.099-8.334.505-16.655.302-24.99-.051-4.402-.187-8.828.325-13.244.36-4.915.039-9.836.016-14.744-.205-3.761-.168-7.494-.144-11.26-.049-4.65.115-9.458.047-13.987-1.387zm5.225-4.454c2.171 0 3.979-.183 5.738.031 8.773 1.064 17.527 2.328 26.408 1.73.796-.053 1.867-.187 2.366.24 1.726 1.479 3.729 1.04 5.641 1.118 3.277.131 6.558.144 9.838.179 3.936.041 7.874-.041 11.806.105 3.899.146 7.749-.489 11.658-.374 12.452.368 24.906.612 37.373.121 8.998-.353 18.023.376 27.024-.446.977-.09 1.98-.105 2.951.01 5.194.616 10.367 1.333 15.623 1.313 3.267-.012 6.524.549 9.772-.39.878-.255 2.093-.306 2.842.113 2.452 1.366 4.814.351 7.176-.014 1.356-.21 2.362-1.161 2.483-2.683.09-1.128.105-2.264.119-3.398.023-1.625-.179-3.279.057-4.871.577-3.928.415-7.85.39-11.795-.043-6.558.209-13.118.396-19.676.107-3.77.417-7.536.472-11.308.06-3.937-.369-7.9-.074-11.812.755-10.045-.125-20.019-.786-30.013-.033-.489-.096-.982-.203-1.461-.376-1.72-1.145-3.111-3.117-3.291-1.611-.148-3.228-.308-4.843-.308-2.883 0-5.785.851-8.58-.816-.895-.534-2.237-.382-3.376-.419-4.258-.136-8.533-.037-12.772-.386-2.984-.247-5.869.004-8.777.483-1.617.267-3.226.604-4.853.783-1.129.123-2.399.353-3.398-.018-4.863-1.816-9.667-1.091-14.443.136-2.604.668-5.186.649-7.812.52-3.764-.185-7.531-.321-11.295-.497-.973-.045-2.064.105-2.887-.288-3.273-1.559-6.692-1.136-10.096-1.007-2.454.092-4.904.362-7.359.401-4.586.072-9.177-.045-13.761.07-3.107.078-6.203.557-9.308.616-7.047.136-14.081.284-21.128.66-9.466.505-18.982.68-28.44-.725-3.667-.544-7.127.39-10.207 2.258-1.1 4.103-.704 8.015-.068 11.918 1.344 8.247 2.364 16.529 2.467 24.891.115 9.356 1.213 18.668.85 28.055-.263 6.714.197 13.455.306 20.184.088 5.547.07 5.547 3.396 9.675.103.125.242.22.433.39z" fill="#000"/><path d="M11.351 102.042c-.191-.171-.33-.265-.433-.39-3.326-4.128-3.308-4.128-3.396-9.675-.109-6.729-.568-13.47-.306-20.184.363-9.387-.735-18.698-.85-28.055-.103-8.362-1.122-16.644-2.467-24.891-.636-3.904-1.032-7.815.068-11.918 3.08-1.868 6.54-2.802 10.207-2.258 9.458 1.405 18.974 1.231 28.44.725 7.047-.376 14.081-.524 21.128-.66 3.105-.06 6.201-.538 9.308-.616 4.584-.115 9.175.002 13.761-.07 2.454-.039 4.904-.308 7.359-.401 3.404-.129 6.823-.553 10.096 1.007.823.392 1.915.242 2.887.288 3.764.177 7.531.312 11.295.497 2.627.129 5.208.148 7.812-.52 4.775-1.227 9.579-1.952 14.443-.136.999.372 2.27.142 3.398.018 1.627-.179 3.236-.516 4.853-.783 2.908-.479 5.793-.729 8.777-.483 4.24.349 8.514.251 12.772.386 1.139.037 2.481-.115 3.376.419 2.795 1.666 5.697.816 8.58.816 1.615 0 3.232.16 4.843.308 1.972.181 2.742 1.572 3.117 3.291.107.479.17.972.203 1.461.661 9.993 1.541 19.968.786 30.013-.296 3.912.133 7.875.074 11.812-.055 3.772-.365 7.538-.472 11.308-.187 6.558-.439 13.118-.396 19.676.025 3.945.187 7.867-.39 11.795-.236 1.592-.035 3.246-.057 4.871-.014 1.134-.029 2.27-.119 3.398-.121 1.522-1.127 2.474-2.483 2.683-2.362.366-4.724 1.381-7.176.014-.749-.419-1.964-.368-2.842-.113-3.248.939-6.505.378-9.772.39-5.255.021-10.429-.696-15.623-1.313-.971-.115-1.974-.101-2.951-.01-9 .822-18.025.092-27.024.446-12.466.491-24.92.247-37.373-.121-3.909-.115-7.759.52-11.658.374-3.932-.146-7.87-.064-11.806-.105-3.279-.035-6.561-.047-9.838-.179-1.913-.078-3.915.362-5.641-1.118-.499-.427-1.57-.294-2.366-.24-8.881.598-17.636-.666-26.408-1.73-1.759-.214-3.567-.031-5.738-.031zm128.69-56.677c-.722-2.096-1.045-3.378-1.597-4.553-.796-1.693-2.924-1.746-3.977-.177-.183.273-.435.526-.525.828-1.361 4.502-2.655 9.026-5.44 12.775.954 1.183 1.976 1.535 2.688.586 1.067-1.42 1.931-3.022 2.68-4.641.784-1.693 1.332-3.497 2.335-6.207.513 2.202.765 3.441 1.096 4.66.285 1.056 1.33 1.424 2.337 1.019 1.835-.738 2.657-2.371 3.599-3.902.474-.768.554-1.948 2.077-1.693 1.664 4.058 1.334 8.578 2.317 13.213.942-.501 1.818-.699 2.2-1.243.419-.598.774-1.746.476-2.256-1.231-2.106-1.034-4.446-1.453-6.679-.211-1.13-.287-2.324-.724-3.363-.423-1.011-1.081-2.026-1.894-2.747-1.293-1.146-2.811-.83-3.774.583-.712 1.046-1.365 2.131-2.421 3.797zm-119.891-2.985c.135 5.202.234 9.751.394 14.3.029.797.135 1.695.531 2.348.371.614 1.209 1.405 1.781 1.36 3.076-.238 6.144-.651 9.193-1.136 1.125-.179 1.644-.939.788-2.237-1.375 0-2.82.008-4.262-.004-.979-.008-1.966.031-2.93-.09-1.299-.162-2.167-1.243-2.356-2.724-.142-1.122.464-1.718 2.151-2.143 1.41-.355 2.826-.69 4.217-1.112.527-.158.585-1.455.084-1.652-.741-.292-1.533-.66-2.292-.639-1.274.037-2.538.357-4.116.606v-4.284c1.814-.399 3.544-.756 5.257-1.167.712-.173 1.34-1.393.946-1.97-.326-.479-1.008-1.13-1.43-1.062-2.551.409-5.075 1.003-7.956 1.607zm151.206 12.983c.667 1.009 1.656.388 2.146-.384.8-1.257 1.27-2.726 2.165-4.752 1.406 3.322 2.785 5.975 6.407 5.578.339-.547.718-.929.829-1.377 1.086-4.423 2.175-8.847 3.134-13.297.176-.814-.513-1.568-1.469-1.566-.581.002-1.161.302-1.685.452-.573 4.193-.829 8.189-2.561 12.192-1.541-1.249-1.822-2.714-2.335-4.043-.47-1.214-.884-2.457-1.457-3.62-.384-.781-1.194-1.255-2.03-.865-.499.234-1.003.886-1.122 1.432-.72 3.326-1.33 6.677-2.021 10.25zm-55.318-1.853c0-2.211.055-3.68-.01-5.143-.144-3.154-.932-6.129-2.854-8.693-1.069-1.424-2.337-1.607-3.807-.618-.663.446-1.354.957-1.785 1.605-.289.434-.382 1.331-.117 1.701.261.362 1.088.438 1.66.425.726-.016 1.449-.251 2.282-.411 1.194 3.265 3.156 6.096 1.246 9.443-4.268.577-4.439.696-6.185 4.341 2.438 2.821 5.407.988 7.944.754 3.335 2.303 3.335 2.303 5.14-.514l-3.513-2.891zm-52.199-8.802c2.859-.978 5.578-1.911 8.45-2.895-.232-1.179-.427-2.215-1.722-2.042-1.283.173-2.504.777-3.784 1.003-2.77.491-4.722 1.997-6.121 4.477 1.502 2.702 1.679 5.666 1.434 8.555-.185 2.194.55 3.706 1.894 5.338 2.573-.125 4.911-.746 7.127-1.812.328-.158.651-.797.595-1.155-.047-.302-.661-.748-1.001-.729-1.605.09-3.203.321-5.011.524l-.977-3.135c.449-.411.644-.696.915-.82 1.486-.68 2.976-1.348 4.488-1.962.964-.392 1.796-.857 1.664-2.071-.08-.742-1.145-.898-2.448-.339-1.322.569-2.551 1.502-4.451.89l-1.053-3.826zm92.274-3.026c-.271 4.013.862 8.118 1.523 12.245.113.709 1.289 1.607 2.107 1.779 3.115.653 6.123-.051 8.996-1.331.179-.08.279-.586.228-.857-.051-.277-.302-.688-.525-.731-.776-.156-1.58-.263-2.368-.23-1.584.066-3.162.238-4.792.37l-.657-2.272c.698-.185 1.307-.343 1.915-.51.622-.171 1.27-.284 1.855-.54.876-.386.915-1.268.23-2.708l-4.999.316-.408-3.285c1.816-1.475 4.322-.086 5.532-2.182.008-1.181-.704-2.069-1.74-1.87-2.198.421-4.615.037-6.897 1.806zm-104.584 12.646c-1.322-1.761-1.242-3.39-1.519-4.935-.402-2.252-.891-4.493-1.502-6.694-.111-.403-1.061-.906-1.486-.801-.482.119-.872.832-1.18 1.356-.133.224-.039.664.086.945 1.27 2.885 1.857 5.917 2.19 9.036.117 1.114.607 2.213 1.069 3.254.4.902 1.045 1.866 2.157 1.67.7-.121 1.418-.736 1.91-1.315.515-.606.868-1.403 1.116-2.174.601-1.863 1.133-3.752 1.629-5.648.536-2.048 1.04-4.107 1.449-6.182.06-.302-.431-.916-.788-1.042-.359-.125-1.069.039-1.27.327-.449.637-.796 1.401-.975 2.163-.595 2.552-1.053 5.136-1.664 7.684-.168.711-.681 1.338-1.223 2.355zm28.553-10.267c1.406-.575 2.483-.871 3.378-1.451.402-.261.665-1.116.593-1.648-.125-.941-.997-1.453-1.814-1.107-1.328.561-2.662 1.259-3.759 2.18-1.892 1.584-1.535 4.524.636 5.8 1.264.744 2.686 1.214 3.958 1.944 1.531.877 2.37 2.562 1.802 3.634-.737 1.393-1.993 1.518-3.378 1.021-1.365-.487-2.163.29-2.824 1.313-.462.713.043 1.946.813 1.874 1.619-.15 3.255-.304 4.829-.686 2.543-.62 3.468-2.129 3.097-4.738-.291-2.061-1.223-3.711-3.154-4.676-.876-.44-1.824-.789-2.594-1.372-.573-.434-.913-1.175-1.582-2.087zm-34.247 12.241c-.579-.045-1.356-.078-2.128-.171-2.089-.249-3.06-1.038-3.326-2.895-.162-1.13-.099-2.293-.142-3.441-.074-1.968-.109-3.941-.24-5.905-.129-1.948-.694-3.762-1.668-5.309-1.744.129-1.97 1.157-1.592 2.112 1.816 4.615.981 9.418 1.118 14.148.035 1.21-.277 2.431-.449 3.809 2.737.807 5.188.503 7.584.201 1.003-.127 1.644-1.031.843-2.55z" fill="#fff"/><path d="M140.042 45.365c1.057-1.666 1.709-2.751 2.421-3.797.962-1.414 2.481-1.73 3.774-.583.813.721 1.471 1.736 1.894 2.747.437 1.04.513 2.233.724 3.363.419 2.233.222 4.573 1.453 6.679.298.51-.057 1.658-.476 2.256-.382.544-1.258.742-2.2 1.243-.983-4.635-.653-9.155-2.317-13.213-1.523-.255-1.603.925-2.077 1.693-.942 1.531-1.765 3.164-3.599 3.902-1.008.405-2.052.037-2.337-1.019-.33-1.218-.583-2.457-1.096-4.66-1.003 2.71-1.551 4.514-2.335 6.207-.749 1.619-1.613 3.222-2.68 4.641-.712.949-1.734.598-2.688-.586 2.785-3.75 4.08-8.274 5.44-12.775.09-.302.343-.555.525-.828 1.053-1.57 3.181-1.516 3.977.177.552 1.175.874 2.457 1.597 4.553" fill="#000"/><path d="M20.151 42.38c2.881-.604 5.405-1.198 7.956-1.607.423-.068 1.104.583 1.43 1.062.394.577-.234 1.798-.946 1.97-1.713.411-3.443.768-5.257 1.167v4.284c1.578-.249 2.842-.569 4.116-.606.759-.021 1.551.347 2.292.639.501.197.443 1.494-.084 1.652-1.391.421-2.807.756-4.217 1.112-1.687.425-2.292 1.021-2.151 2.143.189 1.481 1.057 2.562 2.356 2.724.964.121 1.952.082 2.93.09 1.443.012 2.887.004 4.262.004.856 1.298.337 2.059-.788 2.237-3.049.485-6.117.898-9.193 1.136-.573.045-1.41-.746-1.781-1.36-.396-.653-.503-1.551-.531-2.348-.16-4.549-.259-9.098-.394-14.3" fill="#000"/><path d="M171.356 55.363c.692-3.573 1.301-6.924 2.021-10.25.119-.547.624-1.198 1.122-1.432.835-.39 1.646.084 2.03.865.573 1.163.987 2.406 1.457 3.62.513 1.329.794 2.794 2.335 4.043 1.732-4.002 1.988-7.998 2.561-12.192.523-.15 1.104-.45 1.685-.452.956-.002 1.646.752 1.469 1.566-.958 4.45-2.048 8.874-3.134 13.297-.111.448-.49.83-.829 1.377-3.622.397-5.001-2.256-6.407-5.578-.895 2.026-1.365 3.495-2.165 4.752-.49.773-1.48 1.393-2.146.384" fill="#000"/><path d="M116.038 53.509c1.116.918 2.352 1.933 3.513 2.891-1.806 2.817-1.806 2.817-5.14.514-2.536.234-5.506 2.067-7.944-.754 1.746-3.645 1.917-3.764 6.185-4.341 1.91-3.347-.051-6.178-1.246-9.443-.833.16-1.555.394-2.282.411-.573.012-1.4-.064-1.66-.425-.265-.37-.172-1.268.117-1.701.431-.647 1.122-1.159 1.785-1.605 1.469-.988 2.737-.805 3.807.618 1.923 2.564 2.711 5.539 2.854 8.693.066 1.463.01 2.932.01 5.143" fill="#000"/><path d="M63.84 44.708l1.053 3.826c1.9.612 3.129-.321 4.451-.89 1.303-.559 2.368-.403 2.448.339.131 1.214-.7 1.679-1.664 2.071-1.512.614-3.002 1.282-4.488 1.962-.271.123-.466.409-.915.82l.977 3.135c1.808-.203 3.406-.434 5.011-.524.341-.018.954.427 1.001.729.055.357-.267.996-.595 1.155-2.216 1.066-4.554 1.687-7.127 1.812-1.344-1.631-2.079-3.143-1.894-5.338.244-2.889.068-5.853-1.434-8.555 1.4-2.48 3.351-3.986 6.121-4.477 1.28-.226 2.501-.83 3.784-1.003 1.295-.173 1.49.863 1.722 2.042l-8.45 2.895" fill="#000"/><path d="M156.114 41.681c2.282-1.769 4.699-1.385 6.897-1.806 1.036-.199 1.748.688 1.74 1.87-1.211 2.096-3.716.707-5.532 2.182l.408 3.285c1.814-.115 3.396-.216 4.999-.316.685 1.44.646 2.322-.23 2.708-.585.257-1.233.37-1.855.54-.607.166-1.217.325-1.915.51l.657 2.272c1.629-.131 3.207-.304 4.792-.37.788-.033 1.592.074 2.368.23.224.043.474.454.525.731.051.271-.049.777-.228.857-2.873 1.28-5.881 1.985-8.996 1.331-.819-.173-1.995-1.07-2.107-1.779-.661-4.128-1.794-8.233-1.523-12.245" fill="#000"/><path d="M51.529 54.327c.542-1.017 1.055-1.644 1.223-2.355.612-2.548 1.069-5.132 1.664-7.684.179-.762.525-1.527.975-2.163.201-.288.911-.452 1.27-.327.357.125.848.74.788 1.042-.408 2.075-.913 4.134-1.449 6.182-.497 1.896-1.028 3.784-1.629 5.648-.248.77-.601 1.568-1.116 2.174-.492.579-1.211 1.194-1.91 1.315-1.112.195-1.757-.768-2.157-1.67-.462-1.042-.952-2.141-1.069-3.254-.332-3.119-.919-6.151-2.19-9.036-.125-.281-.22-.721-.086-.945.308-.524.698-1.237 1.18-1.356.425-.105 1.375.399 1.486.801.612 2.2 1.1 4.442 1.502 6.694.277 1.545.197 3.174 1.519 4.935" fill="#000"/><path d="M80.082 44.06c.669.912 1.01 1.654 1.582 2.087.77.583 1.718.933 2.594 1.372 1.931.966 2.863 2.615 3.154 4.676.371 2.609-.554 4.117-3.097 4.738-1.574.382-3.209.536-4.829.686-.77.072-1.274-1.161-.813-1.874.661-1.023 1.459-1.8 2.824-1.313 1.385.497 2.641.372 3.378-1.021.568-1.072-.271-2.757-1.802-3.634-1.272-.729-2.694-1.2-3.958-1.944-2.171-1.276-2.528-4.216-.636-5.8 1.098-.92 2.432-1.619 3.759-2.18.817-.345 1.689.166 1.814 1.107.072.532-.191 1.387-.593 1.648-.895.579-1.972.875-3.378 1.451" fill="#000"/><path d="M45.835 56.301c.8 1.518.16 2.422-.843 2.55-2.397.302-4.847.606-7.584-.201.172-1.379.484-2.599.449-3.809-.137-4.73.698-9.533-1.118-14.148-.378-.955-.152-1.983 1.592-2.112.975 1.547 1.539 3.361 1.668 5.309.131 1.964.166 3.937.24 5.905.043 1.148-.021 2.311.142 3.441.267 1.857 1.237 2.646 3.326 2.895.772.092 1.549.125 2.128.171" fill="#000"/></g></g></svg>