<?xml version="1.0" encoding="UTF-8" standalone="no"?>
<svg width="195px" height="110px" viewBox="0 0 195 110" version="1.1" xmlns="http://www.w3.org/2000/svg" xmlns:xlink="http://www.w3.org/1999/xlink" xmlns:sketch="http://www.bohemiancoding.com/sketch/ns">
    <!-- Generator: Sketch 3.1.1 (8761) - http://www.bohemiancoding.com/sketch -->
    <title>elves-2-men</title>
    <desc>Created with Sketch.</desc>
    <defs></defs>
    <g id="Page-1" stroke="none" stroke-width="1" fill="none" fill-rule="evenodd" sketch:type="MSPage">
        <g id="Desktop-2" sketch:type="MSArtboardGroup" transform="translate(-68.000000, -502.000000)">
            <rect id="Rectangle-1" opacity="0.869927705" sketch:type="MSShapeGroup" x="0" y="0" width="1024" height="1024"></rect>
            <g id="Group" sketch:type="MSLayerGroup" transform="translate(67.500000, 501.500000)">
                <g id="Imported-Layers" transform="translate(1.000000, 1.000000)" sketch:type="MSShapeGroup">
                    <path d="M5.6268125,105.996055 C3.92973958,100.952145 3.75736458,96.0253455 3.72658333,91.1355273 C3.6445,78.8267455 4.1000625,66.5138545 3.05760417,54.2215091 C2.94679167,52.9127636 2.83803125,51.5916909 2.90369792,50.2829455 C3.42492708,39.7143636 1.72580208,29.3306909 0.221625,18.9408545 C-0.348854167,14.9961273 -0.10465625,11.0781091 0.00615625,7.14365455 C0.0595104167,5.27196364 1.13275,4.00430909 2.79288542,3.47423636 C7.46342708,1.97852727 12.0087917,0.760181818 17.1923542,1.81210909 C22.0865729,2.80445455 27.210625,3.15372727 32.3223646,2.87225455 C45.0904271,2.17165455 57.8646458,1.51009091 70.6450208,1.11972727 C84.242125,0.704709091 97.8474375,0.612254545 111.448646,0.392418182 C118.661719,0.275309091 125.874792,0.230109091 133.085813,0.0719090909 C138.495104,-0.0493090909 143.910552,-0.601981818 149.305479,-0.433509091 C162.087906,-0.0328727273 174.890854,0.131490909 187.611719,1.67034545 C188.584406,1.78745455 189.555042,1.97030909 190.501052,2.21685455 C190.954563,2.33601818 191.348562,2.67501818 191.929302,3.0058 C192.272,4.50972727 192.893781,6.08145455 192.955344,7.67578182 C193.30625,16.6931818 194.648312,25.6530545 194.137344,34.7259273 C193.813115,40.4581091 194.125031,46.2231636 194.03474,51.9717818 C193.98549,55.0803091 193.765917,58.1908909 193.497094,61.2891455 C192.897885,68.1657091 192.649583,75.0443273 193.00049,81.9455455 C193.125667,84.3986727 193.117458,86.8600182 193.117458,89.3193091 C193.11951,92.4360545 193.121562,95.5548545 193.02101,98.6674909 C192.969708,100.292636 192.793229,101.928055 192.50799,103.528545 C192.046271,106.115218 190.279427,107.302745 187.818979,107.919109 C183.29824,109.051164 178.720042,109.026509 174.13774,108.823109 C168.734604,108.580673 163.308896,108.443018 157.952958,107.7794 C152.547771,107.111673 147.200042,106.690491 141.798958,107.522582 C141.316719,107.596545 140.811906,107.590382 140.32351,107.555455 C132.470187,107.002782 124.633281,107.822545 116.790219,107.832818 C107.615354,107.843091 98.4404896,107.430127 89.2635729,107.230836 C87.4618437,107.1918 85.6519063,107.218509 83.8522292,107.329455 C75.5187188,107.834873 67.1975208,107.631473 58.8619583,107.278091 C54.4602396,107.091127 50.0338958,107.602709 45.6178125,107.637636 C40.7030729,107.676673 35.7821771,107.654073 30.8735938,107.432182 C27.112125,107.263709 23.3793854,107.288364 19.6138125,107.382873 C14.9637917,107.497927 10.1557604,107.430127 5.6268125,105.996055 L5.6268125,105.996055 Z M10.8514167,101.5418 C13.0225208,101.5418 14.8304063,101.358945 16.5890417,101.572618 C25.3616979,102.636873 34.1158854,103.900418 42.9973021,103.302545 C43.7935104,103.249127 44.8646979,103.115582 45.3633542,103.542927 C47.0891563,105.0222 49.0919896,104.582527 51.0045312,104.6606 C54.2817083,104.792091 57.5629896,104.804418 60.8422188,104.839345 C64.7781146,104.880436 68.7160625,104.798255 72.6478542,104.944127 C76.5468125,105.09 80.3965208,104.455145 84.3057396,104.5702 C96.7577813,104.937964 109.211875,105.182455 121.678281,104.691418 C130.676667,104.338036 139.701729,105.0674 148.702167,104.245582 C149.678958,104.155182 150.682427,104.1408 151.653062,104.255855 C156.846885,104.872218 162.020188,105.589255 167.275573,105.568709 C170.54249,105.556382 173.799146,106.117273 177.047594,105.178345 C177.925885,104.923582 179.140719,104.872218 179.889729,105.291345 C182.341969,106.657618 184.703917,105.642673 187.065865,105.276964 C188.422292,105.0674 189.427813,104.116145 189.548885,102.593727 C189.639177,101.465782 189.653542,100.329618 189.667906,99.1955091 C189.690479,97.5703636 189.489375,95.9164545 189.725365,94.3241818 C190.302,90.3958909 190.139885,86.4737636 190.11526,82.5290364 C190.072167,75.9709273 190.324573,69.4107636 190.511313,62.8526545 C190.618021,59.0825636 190.927885,55.3165818 190.983292,51.5444364 C191.042802,47.6079273 190.613917,43.6447091 190.909417,39.7328545 C191.664583,29.6881818 190.78424,19.7133636 190.123469,9.72005455 C190.090635,9.23107273 190.027021,8.73798182 189.920312,8.25927273 C189.544781,6.53961818 188.77525,5.14869091 186.803198,4.96789091 C185.192312,4.81996364 183.575271,4.65970909 181.960281,4.65970909 C179.077104,4.65970909 176.175458,5.51029091 173.380521,3.84405455 C172.485813,3.30987273 171.14375,3.46190909 170.004844,3.42492727 C165.746771,3.28932727 161.472281,3.38794545 157.232677,3.03867273 C154.248948,2.79212727 151.363719,3.04278182 148.455917,3.52149091 C146.838875,3.78858182 145.230042,4.12552727 143.60274,4.30427273 C142.474094,4.42754545 141.203854,4.65765455 140.20449,4.28578182 C135.341052,2.46956364 130.537125,3.19481818 125.761927,4.42138182 C123.157833,5.08910909 120.576313,5.07061818 117.949646,4.94118182 C114.186125,4.75627273 110.4185,4.62067273 106.654979,4.44398182 C105.682292,4.39878182 104.590583,4.54876364 103.767698,4.15634545 C100.494625,2.59694545 97.0758542,3.02018182 93.6714479,3.14961818 C91.2171563,3.24207273 88.7669688,3.51121818 86.3126771,3.55025455 C81.7262708,3.62216364 77.1357604,3.50505455 72.5514062,3.62010909 C69.4445521,3.69818182 66.3479583,4.17689091 63.2431563,4.23647273 C56.1963021,4.37207273 49.1617604,4.52 42.1149063,4.89598182 C32.6486458,5.4014 23.1331354,5.57603636 13.6750833,4.17072727 C10.0080104,3.62627273 6.54819792,4.56109091 3.46802083,6.42867273 C2.36810417,10.5316 2.76415625,14.4434545 3.40030208,18.3470909 C4.74441667,26.5940364 5.76430208,34.8759091 5.86690625,43.2379091 C5.98182292,52.5943091 7.0796875,61.9055091 6.71646875,71.2927273 C6.45380208,78.0069818 6.91346875,84.7479455 7.02222917,91.4765818 C7.11046875,97.0238545 7.092,97.0238545 10.4184271,101.151436 C10.5210313,101.276764 10.6605729,101.371273 10.8514167,101.5418 L10.8514167,101.5418 Z" id="Fill-1" fill="#000000"></path>
                    <path d="M10.8514167,101.5418 C10.6605729,101.371273 10.5210313,101.276764 10.4184271,101.151436 C7.092,97.0238545 7.11046875,97.0238545 7.02222917,91.4765818 C6.91346875,84.7479455 6.45380208,78.0069818 6.71646875,71.2927273 C7.0796875,61.9055091 5.98182292,52.5943091 5.86690625,43.2379091 C5.76430208,34.8759091 4.74441667,26.5940364 3.40030208,18.3470909 C2.76415625,14.4434545 2.36810417,10.5316 3.46802083,6.42867273 C6.54819792,4.56109091 10.0080104,3.62627273 13.6750833,4.17072727 C23.1331354,5.57603636 32.6486458,5.4014 42.1149063,4.89598182 C49.1617604,4.52 56.1963021,4.37207273 63.2431563,4.23647273 C66.3479583,4.17689091 69.4445521,3.69818182 72.5514063,3.62010909 C77.1357604,3.50505455 81.7262708,3.62216364 86.3126771,3.55025455 C88.7669688,3.51121818 91.2171563,3.24207273 93.6714479,3.14961818 C97.0758542,3.02018182 100.494625,2.59694545 103.767698,4.15634545 C104.590583,4.54876364 105.682292,4.39878182 106.654979,4.44398182 C110.4185,4.62067273 114.186125,4.75627273 117.949646,4.94118182 C120.576313,5.07061818 123.157833,5.08910909 125.761927,4.42138182 C130.537125,3.19481818 135.341052,2.46956364 140.20449,4.28578182 C141.203854,4.65765455 142.474094,4.42754545 143.60274,4.30427273 C145.230042,4.12552727 146.838875,3.78858182 148.455917,3.52149091 C151.363719,3.04278182 154.248948,2.79212727 157.232677,3.03867273 C161.472281,3.38794545 165.746771,3.28932727 170.004844,3.42492727 C171.14375,3.46190909 172.485813,3.30987273 173.380521,3.84405455 C176.175458,5.51029091 179.077104,4.65970909 181.960281,4.65970909 C183.575271,4.65970909 185.192313,4.81996364 186.803198,4.96789091 C188.77525,5.14869091 189.544781,6.53961818 189.920313,8.25927273 C190.027021,8.73798182 190.090635,9.23107273 190.123469,9.72005455 C190.78424,19.7133636 191.664583,29.6881818 190.909417,39.7328545 C190.613917,43.6447091 191.042802,47.6079273 190.983292,51.5444364 C190.927885,55.3165818 190.618021,59.0825636 190.511313,62.8526545 C190.324573,69.4107636 190.072167,75.9709273 190.11526,82.5290364 C190.139885,86.4737636 190.302,90.3958909 189.725365,94.3241818 C189.489375,95.9164545 189.690479,97.5703636 189.667906,99.1955091 C189.653542,100.329618 189.639177,101.465782 189.548885,102.593727 C189.427813,104.116145 188.422292,105.0674 187.065865,105.276964 C184.703917,105.642673 182.341969,106.657618 179.889729,105.291345 C179.140719,104.872218 177.925885,104.923582 177.047594,105.178345 C173.799146,106.117273 170.54249,105.556382 167.275573,105.568709 C162.020188,105.589255 156.846885,104.872218 151.653063,104.255855 C150.682427,104.1408 149.678958,104.155182 148.702167,104.245582 C139.701729,105.0674 130.676667,104.338036 121.678281,104.691418 C109.211875,105.182455 96.7577813,104.937964 84.3057396,104.5702 C80.3965208,104.455145 76.5468125,105.09 72.6478542,104.944127 C68.7160625,104.798255 64.7781146,104.880436 60.8422188,104.839345 C57.5629896,104.804418 54.2817083,104.792091 51.0045313,104.6606 C49.0919896,104.582527 47.0891563,105.0222 45.3633542,103.542927 C44.8646979,103.115582 43.7935104,103.249127 42.9973021,103.302545 C34.1158854,103.900418 25.3616979,102.636873 16.5890417,101.572618 C14.8304063,101.358945 13.0225208,101.5418 10.8514167,101.5418 L10.8514167,101.5418 Z M139.541667,44.8651091 C138.819333,42.7694727 138.497156,41.4874364 137.945146,40.3122364 C137.148938,38.6192909 135.020927,38.5658727 133.968208,40.1355455 C133.785573,40.4088 133.533167,40.6615091 133.442875,40.9635273 C132.082344,45.4650364 130.787479,49.9891455 128.002802,53.7386909 C128.957021,54.9221091 129.978958,55.2734364 130.691031,54.3242364 C131.758115,52.9045455 132.622042,51.302 133.371052,49.6830182 C134.154948,47.9900727 134.702854,46.1861818 135.706323,43.4762364 C136.219344,45.6787091 136.47175,46.9176 136.802135,48.1359455 C137.087375,49.1919818 138.131885,49.5597455 139.139458,49.155 C140.974021,48.4174182 141.796906,46.7840545 142.738813,45.2534182 C143.212844,44.4850182 143.292875,43.3057091 144.815521,43.5604727 C146.47976,47.6182 146.149375,52.1382 147.132323,56.7732545 C148.074229,56.2719455 148.950469,56.0747091 149.332156,55.5302545 C149.750781,54.9323818 150.105792,53.7838909 149.80824,53.2743636 C148.57699,51.1684545 148.77399,48.8283273 148.355365,46.5950364 C148.144,45.4650364 148.068073,44.2713455 147.630979,43.2317455 C147.20825,42.2209091 146.549531,41.2059636 145.736906,40.4848182 C144.444094,39.3383818 142.925552,39.6547818 141.963125,41.0683091 C141.251052,42.1140727 140.59849,43.1988727 139.541667,44.8651091 L139.541667,44.8651091 Z M19.65075,41.8798545 C19.7861875,47.0819636 19.8846875,51.6307273 20.04475,56.1794909 C20.0734792,56.9766545 20.1801875,57.8744909 20.5762396,58.5278364 C20.9476667,59.1421455 21.7849167,59.9331455 22.3574479,59.8879455 C25.4335208,59.6496182 28.5013854,59.2366545 31.5507813,58.7517818 C32.6753229,58.5730364 33.1945,57.8128545 32.3387813,56.5143818 C30.9638854,56.5143818 29.5192188,56.5226 28.0766042,56.5102727 C27.0977604,56.5020545 26.1107083,56.5410909 25.1462292,56.4198727 C23.8472604,56.2575636 22.9792292,55.1768727 22.7904375,53.6955455 C22.6488438,52.5737636 23.2542083,51.9779455 24.9410208,51.5526545 C26.3508021,51.1972182 27.7667396,50.8623273 29.1580521,50.4411455 C29.6854375,50.2829455 29.7428958,48.9865273 29.2421875,48.7892909 C28.5013854,48.4975455 27.7092813,48.1297818 26.9500104,48.1503273 C25.6756667,48.1873091 24.4115833,48.5078182 22.8335313,48.7564182 L22.8335313,44.4726909 C24.6475729,44.0741091 26.3774792,43.7166182 28.0909688,43.3057091 C28.8030417,43.1331273 29.4309792,41.9127273 29.0369792,41.3354 C28.7106979,40.8566909 28.0294063,40.2054 27.6066771,40.2732 C25.0559375,40.6820545 22.531875,41.2758182 19.65075,41.8798545 L19.65075,41.8798545 Z M170.856458,54.8625273 C171.523385,55.8713091 172.51249,55.2508364 173.002938,54.4783273 C173.80325,53.2209455 174.273177,51.7519455 175.167885,49.7261636 C176.573563,53.0483636 177.952563,55.7007818 181.57449,55.3042545 C181.913083,54.7577455 182.292719,54.3756 182.403531,53.9277091 C183.489083,49.5042727 184.57874,45.0808364 185.537063,40.6306909 C185.713542,39.8170909 185.024042,39.0630727 184.067771,39.0651273 C183.487031,39.0671818 182.906292,39.3671455 182.38301,39.5171273 C181.810479,43.7104545 181.553969,47.7065455 179.82201,51.7088 C178.280896,50.4596364 177.99976,48.9947455 177.48674,47.6654545 C177.016813,46.4512182 176.602292,45.2082182 176.02976,44.0453455 C175.646021,43.2646182 174.835448,42.7900182 174.00025,43.1803818 C173.501594,43.4146 172.996781,44.0658909 172.87776,44.6124 C172.157479,47.9387091 171.54801,51.2896727 170.856458,54.8625273 L170.856458,54.8625273 Z M115.538448,53.0093273 C115.538448,50.7986364 115.593854,49.3296364 115.528188,47.8668 C115.384542,44.7130727 114.596542,41.7380909 112.67374,39.1740182 C111.604604,37.7502182 110.336417,37.5673636 108.867125,38.5556 C108.204302,39.0014364 107.51275,39.5130182 107.081813,40.1602 C106.792469,40.5937091 106.700125,41.4915455 106.964844,41.8613636 C107.225458,42.2229636 108.052448,42.2989818 108.624979,42.2866545 C109.351417,42.2702182 110.07375,42.036 110.906896,41.8757455 C112.101208,45.1404182 114.063,47.9715818 112.15251,51.3184364 C107.884177,51.8957636 107.713854,52.0149273 105.967531,55.6596909 C108.405406,58.4805818 111.374771,56.6479273 113.911146,56.4137091 C117.245781,58.7168545 117.245781,58.7168545 119.051615,55.9000727 C117.890135,54.9426545 116.654781,53.9277091 115.538448,53.0093273 L115.538448,53.0093273 Z M63.3396042,44.2076545 C66.1981563,43.2296909 68.9171667,42.2969273 71.7900833,41.3128 C71.5581979,40.1334909 71.36325,39.098 70.0683854,39.2705818 C68.7858333,39.4431636 67.5648438,40.0472 66.2843438,40.2732 C63.5140313,40.7642364 61.5625,42.2702182 60.1629792,44.7500545 C61.6651042,47.4517818 61.8415833,50.4164909 61.5973854,53.3051818 C61.4126979,55.4994364 62.1473438,57.0115818 63.4914583,58.6428909 C66.0647708,58.5175636 68.4020938,57.8970909 70.6183438,56.8307818 C70.9466771,56.6725818 71.2688542,56.0336182 71.2134479,55.6761273 C71.16625,55.3741091 70.5526771,54.9282727 70.2120313,54.9467636 C68.6073021,55.0371636 67.0087292,55.2672727 65.2008438,55.4706727 C64.8232604,54.2543818 64.5051875,53.2353273 64.2240521,52.3354364 C64.6734583,51.9245273 64.8684063,51.6389455 65.1392813,51.5156727 C66.6249896,50.8356182 68.1148021,50.1678909 69.6271875,49.5535818 C70.5916667,49.1611636 71.4227604,48.6968364 71.2914271,47.4826 C71.2113958,46.7409091 70.1463646,46.5847636 68.8432917,47.1436 C67.52175,47.7127091 66.2925521,48.6454727 64.3923229,48.0332182 C64.098875,46.9648545 63.7623333,45.7444545 63.3396042,44.2076545 L63.3396042,44.2076545 Z M155.613583,41.1813091 C155.342708,45.1938364 156.475458,49.2988182 157.136229,53.4264 C157.249094,54.1352182 158.424938,55.0330545 159.243719,55.2056364 C162.358781,55.8589818 165.367135,55.1542727 168.240052,53.8742909 C168.418583,53.7941636 168.519135,53.2887455 168.467833,53.0175455 C168.416531,52.7401818 168.166177,52.3292727 167.9425,52.2861273 C167.166813,52.1299818 166.362396,52.0231455 165.574396,52.0560182 C163.990188,52.1217636 162.412135,52.2943455 160.782781,52.4258364 C160.528323,51.5485455 160.353896,50.9424545 160.126115,50.1535091 C160.823823,49.9686 161.433292,49.8104 162.040708,49.6439818 C162.66249,49.4734545 163.310948,49.3604545 163.895792,49.1036364 C164.772031,48.7173818 164.811021,47.8359818 164.125625,46.3957455 C162.522948,46.4964182 160.940792,46.5970909 159.12675,46.7121455 C158.954375,45.3273818 158.825094,44.2877818 158.718385,43.4269273 C160.534479,41.9517636 163.040073,43.3406364 164.250802,41.245 C164.25901,40.0636364 163.546938,39.1760727 162.510635,39.3753636 C160.312854,39.7965455 157.8955,39.4123455 155.613583,41.1813091 L155.613583,41.1813091 Z M51.0291563,53.8270364 C49.7076146,52.0662909 49.7876458,50.4370364 49.5106146,48.8920182 C49.1084063,46.6402364 48.6200104,44.3987273 48.0084896,42.1983091 C47.8976771,41.7956182 46.9475625,41.2922545 46.5227813,41.3970364 C46.0405417,41.5162 45.6506458,42.2291273 45.3428333,42.7530364 C45.2094479,42.9769818 45.3038438,43.4166545 45.4290208,43.6981273 C46.6992604,46.5827091 47.2861563,49.6152182 47.6185938,52.7340182 C47.7355625,53.8475818 48.2260104,54.9467636 48.6877292,55.9884182 C49.0878854,56.8903636 49.7322396,57.8539455 50.8444688,57.6587636 C51.5442292,57.5375455 52.2624583,56.9232364 52.7549583,56.3438545 C53.2700313,55.7377636 53.6229896,54.9406 53.8712917,54.1701455 C54.4725521,52.3066727 55.0040417,50.4185455 55.5006458,48.5222 C56.0362396,46.4738182 56.5410521,44.4151636 56.9494167,42.3400727 C57.0089271,42.0380545 56.5184792,41.4237455 56.1614167,41.2984182 C55.8023021,41.1730909 55.0922813,41.3374545 54.8911771,41.6250909 C54.4417708,42.262 54.0949688,43.0262909 53.9164375,43.7885273 C53.3213333,46.3402727 52.8637188,48.9248909 52.2521979,51.4725273 C52.0839271,52.1834 51.5709063,52.8100364 51.0291563,53.8270364 L51.0291563,53.8270364 Z M79.5818438,43.5604727 C80.9875208,42.9852 82.0648646,42.6893455 82.9595729,42.1099636 C83.3617813,41.8490364 83.6244479,40.9943455 83.552625,40.4622182 C83.4274479,39.5212364 82.5553125,39.0096545 81.7385833,39.3548182 C80.4108854,39.9157091 79.0770313,40.6142545 77.9791667,41.5346909 C76.0871458,43.1187455 76.4442083,46.0588 78.6153125,47.3346727 C79.8793958,48.0784182 81.3014896,48.5489091 82.5737813,49.2782727 C84.1046354,50.1555636 84.9439375,51.8402909 84.3755104,52.9127636 C83.6388125,54.3057455 82.3829375,54.4310727 80.9977813,53.9338727 C79.6331458,53.4469455 78.8348854,54.2235636 78.1741146,55.2467273 C77.7123958,55.9596545 78.2172083,57.1923818 78.9867396,57.1204727 C80.6058333,56.9704909 82.2413438,56.8164 83.8152917,56.4342545 C86.3578229,55.8137818 87.2833125,54.3057455 86.9118854,51.6964727 C86.6204896,49.6357636 85.6888438,47.9859636 83.7578333,47.0203273 C82.8815938,46.5806545 81.9335313,46.2313818 81.164,45.6478909 C80.5914688,45.2143818 80.2508229,44.4726909 79.5818438,43.5604727 L79.5818438,43.5604727 Z M45.334625,55.8014545 C44.7559375,55.7562545 43.9781979,55.7233818 43.2066146,55.6309273 C41.1175938,55.3823273 40.1469583,54.5933818 39.8801875,52.7360727 C39.7180729,51.6060727 39.7816875,50.4432 39.7385938,49.2947091 C39.6647188,47.3264545 39.6298333,45.3540909 39.4985,43.3899455 C39.3692188,41.4422364 38.8048958,39.6280727 37.8301563,38.081 C36.0858854,38.2104364 35.8601563,39.2377091 36.2377396,40.1930727 C38.0538333,44.8075818 37.2186354,49.6111091 37.356125,54.3406727 C37.3910104,55.5508 37.0790938,56.7712 36.9067188,58.1498 C39.6441979,58.9572364 42.0943854,58.6531636 44.4912188,58.3511455 C45.4946875,58.2237636 46.1349375,57.3197636 45.334625,55.8014545 L45.334625,55.8014545 Z" id="Fill-2" fill-opacity="0" fill="#FFFFFF"></path>
                    <path d="M139.541667,44.8651091 C140.59849,43.1988727 141.251052,42.1140727 141.963125,41.0683091 C142.925552,39.6547818 144.444094,39.3383818 145.736906,40.4848182 C146.549531,41.2059636 147.20825,42.2209091 147.630979,43.2317455 C148.068073,44.2713455 148.144,45.4650364 148.355365,46.5950364 C148.77399,48.8283273 148.57699,51.1684545 149.80824,53.2743636 C150.105792,53.7838909 149.750781,54.9323818 149.332156,55.5302545 C148.950469,56.0747091 148.074229,56.2719455 147.132323,56.7732545 C146.149375,52.1382 146.47976,47.6182 144.815521,43.5604727 C143.292875,43.3057091 143.212844,44.4850182 142.738813,45.2534182 C141.796906,46.7840545 140.974021,48.4174182 139.139458,49.155 C138.131885,49.5597455 137.087375,49.1919818 136.802135,48.1359455 C136.47175,46.9176 136.219344,45.6787091 135.706323,43.4762364 C134.702854,46.1861818 134.154948,47.9900727 133.371052,49.6830182 C132.622042,51.302 131.758115,52.9045455 130.691031,54.3242364 C129.978958,55.2734364 128.957021,54.9221091 128.002802,53.7386909 C130.787479,49.9891455 132.082344,45.4650364 133.442875,40.9635273 C133.533167,40.6615091 133.785573,40.4088 133.968208,40.1355455 C135.020927,38.5658727 137.148938,38.6192909 137.945146,40.3122364 C138.497156,41.4874364 138.819333,42.7694727 139.541667,44.8651091" id="Fill-3" fill="#000000"></path>
                    <path d="M19.65075,41.8798545 C22.531875,41.2758182 25.0559375,40.6820545 27.6066771,40.2732 C28.0294063,40.2054 28.7106979,40.8566909 29.0369792,41.3354 C29.4309792,41.9127273 28.8030417,43.1331273 28.0909688,43.3057091 C26.3774792,43.7166182 24.6475729,44.0741091 22.8335313,44.4726909 L22.8335313,48.7564182 C24.4115833,48.5078182 25.6756667,48.1873091 26.9500104,48.1503273 C27.7092813,48.1297818 28.5013854,48.4975455 29.2421875,48.7892909 C29.7428958,48.9865273 29.6854375,50.2829455 29.1580521,50.4411455 C27.7667396,50.8623273 26.3508021,51.1972182 24.9410208,51.5526545 C23.2542083,51.9779455 22.6488438,52.5737636 22.7904375,53.6955455 C22.9792292,55.1768727 23.8472604,56.2575636 25.1462292,56.4198727 C26.1107083,56.5410909 27.0977604,56.5020545 28.0766042,56.5102727 C29.5192188,56.5226 30.9638854,56.5143818 32.3387813,56.5143818 C33.1945,57.8128545 32.6753229,58.5730364 31.5507813,58.7517818 C28.5013854,59.2366545 25.4335208,59.6496182 22.3574479,59.8879455 C21.7849167,59.9331455 20.9476667,59.1421455 20.5762396,58.5278364 C20.1801875,57.8744909 20.0734792,56.9766545 20.04475,56.1794909 C19.8846875,51.6307273 19.7861875,47.0819636 19.65075,41.8798545" id="Fill-4" fill="#000000"></path>
                    <path d="M170.856458,54.8625273 C171.54801,51.2896727 172.157479,47.9387091 172.87776,44.6124 C172.996781,44.0658909 173.501594,43.4146 174.00025,43.1803818 C174.835448,42.7900182 175.646021,43.2646182 176.02976,44.0453455 C176.602292,45.2082182 177.016813,46.4512182 177.48674,47.6654545 C177.99976,48.9947455 178.280896,50.4596364 179.82201,51.7088 C181.553969,47.7065455 181.810479,43.7104545 182.38301,39.5171273 C182.906292,39.3671455 183.487031,39.0671818 184.067771,39.0651273 C185.024042,39.0630727 185.713542,39.8170909 185.537063,40.6306909 C184.57874,45.0808364 183.489083,49.5042727 182.403531,53.9277091 C182.292719,54.3756 181.913083,54.7577455 181.57449,55.3042545 C177.952563,55.7007818 176.573563,53.0483636 175.167885,49.7261636 C174.273177,51.7519455 173.80325,53.2209455 173.002938,54.4783273 C172.51249,55.2508364 171.523385,55.8713091 170.856458,54.8625273" id="Fill-5" fill="#000000"></path>
                    <path d="M115.538448,53.0093273 C116.654781,53.9277091 117.890135,54.9426545 119.051615,55.9000727 C117.245781,58.7168545 117.245781,58.7168545 113.911146,56.4137091 C111.374771,56.6479273 108.405406,58.4805818 105.967531,55.6596909 C107.713854,52.0149273 107.884177,51.8957636 112.15251,51.3184364 C114.063,47.9715818 112.101208,45.1404182 110.906896,41.8757455 C110.07375,42.036 109.351417,42.2702182 108.624979,42.2866545 C108.052448,42.2989818 107.225458,42.2229636 106.964844,41.8613636 C106.700125,41.4915455 106.792469,40.5937091 107.081813,40.1602 C107.51275,39.5130182 108.204302,39.0014364 108.867125,38.5556 C110.336417,37.5673636 111.604604,37.7502182 112.67374,39.1740182 C114.596542,41.7380909 115.384542,44.7130727 115.528188,47.8668 C115.593854,49.3296364 115.538448,50.7986364 115.538448,53.0093273" id="Fill-6" fill="#000000"></path>
                    <path d="M63.3396042,44.2076545 C63.7623333,45.7444545 64.098875,46.9648545 64.3923229,48.0332182 C66.2925521,48.6454727 67.52175,47.7127091 68.8432917,47.1436 C70.1463646,46.5847636 71.2113958,46.7409091 71.2914271,47.4826 C71.4227604,48.6968364 70.5916667,49.1611636 69.6271875,49.5535818 C68.1148021,50.1678909 66.6249896,50.8356182 65.1392813,51.5156727 C64.8684063,51.6389455 64.6734583,51.9245273 64.2240521,52.3354364 C64.5051875,53.2353273 64.8232604,54.2543818 65.2008438,55.4706727 C67.0087292,55.2672727 68.6073021,55.0371636 70.2120313,54.9467636 C70.5526771,54.9282727 71.16625,55.3741091 71.2134479,55.6761273 C71.2688542,56.0336182 70.9466771,56.6725818 70.6183438,56.8307818 C68.4020938,57.8970909 66.0647708,58.5175636 63.4914583,58.6428909 C62.1473438,57.0115818 61.4126979,55.4994364 61.5973854,53.3051818 C61.8415833,50.4164909 61.6651042,47.4517818 60.1629792,44.7500545 C61.5625,42.2702182 63.5140313,40.7642364 66.2843438,40.2732 C67.5648437,40.0472 68.7858333,39.4431636 70.0683854,39.2705818 C71.36325,39.098 71.5581979,40.1334909 71.7900833,41.3128 C68.9171667,42.2969273 66.1981563,43.2296909 63.3396042,44.2076545" id="Fill-7" fill="#000000"></path>
                    <path d="M155.613583,41.1813091 C157.8955,39.4123455 160.312854,39.7965455 162.510635,39.3753636 C163.546937,39.1760727 164.25901,40.0636364 164.250802,41.245 C163.040073,43.3406364 160.534479,41.9517636 158.718385,43.4269273 C158.825094,44.2877818 158.954375,45.3273818 159.12675,46.7121455 C160.940792,46.5970909 162.522948,46.4964182 164.125625,46.3957455 C164.811021,47.8359818 164.772031,48.7173818 163.895792,49.1036364 C163.310948,49.3604545 162.66249,49.4734545 162.040708,49.6439818 C161.433292,49.8104 160.823823,49.9686 160.126115,50.1535091 C160.353896,50.9424545 160.528323,51.5485455 160.782781,52.4258364 C162.412135,52.2943455 163.990187,52.1217636 165.574396,52.0560182 C166.362396,52.0231455 167.166812,52.1299818 167.9425,52.2861273 C168.166177,52.3292727 168.416531,52.7401818 168.467833,53.0175455 C168.519135,53.2887455 168.418583,53.7941636 168.240052,53.8742909 C165.367135,55.1542727 162.358781,55.8589818 159.243719,55.2056364 C158.424937,55.0330545 157.249094,54.1352182 157.136229,53.4264 C156.475458,49.2988182 155.342708,45.1938364 155.613583,41.1813091" id="Fill-8" fill="#000000"></path>
                    <path d="M51.0291563,53.8270364 C51.5709063,52.8100364 52.0839271,52.1834 52.2521979,51.4725273 C52.8637188,48.9248909 53.3213333,46.3402727 53.9164375,43.7885273 C54.0949688,43.0262909 54.4417708,42.262 54.8911771,41.6250909 C55.0922813,41.3374545 55.8023021,41.1730909 56.1614167,41.2984182 C56.5184792,41.4237455 57.0089271,42.0380545 56.9494167,42.3400727 C56.5410521,44.4151636 56.0362396,46.4738182 55.5006458,48.5222 C55.0040417,50.4185455 54.4725521,52.3066727 53.8712917,54.1701455 C53.6229896,54.9406 53.2700313,55.7377636 52.7549583,56.3438545 C52.2624583,56.9232364 51.5442292,57.5375455 50.8444688,57.6587636 C49.7322396,57.8539455 49.0878854,56.8903636 48.6877292,55.9884182 C48.2260104,54.9467636 47.7355625,53.8475818 47.6185938,52.7340182 C47.2861563,49.6152182 46.6992604,46.5827091 45.4290208,43.6981273 C45.3038438,43.4166545 45.2094479,42.9769818 45.3428333,42.7530364 C45.6506458,42.2291273 46.0405417,41.5162 46.5227813,41.3970364 C46.9475625,41.2922545 47.8976771,41.7956182 48.0084896,42.1983091 C48.6200104,44.3987273 49.1084063,46.6402364 49.5106146,48.8920182 C49.7876458,50.4370364 49.7076146,52.0662909 51.0291563,53.8270364" id="Fill-9" fill="#000000"></path>
                    <path d="M79.5818438,43.5604727 C80.2508229,44.4726909 80.5914688,45.2143818 81.164,45.6478909 C81.9335313,46.2313818 82.8815938,46.5806545 83.7578333,47.0203273 C85.6888438,47.9859636 86.6204896,49.6357636 86.9118854,51.6964727 C87.2833125,54.3057455 86.3578229,55.8137818 83.8152917,56.4342545 C82.2413437,56.8164 80.6058333,56.9704909 78.9867396,57.1204727 C78.2172083,57.1923818 77.7123958,55.9596545 78.1741146,55.2467273 C78.8348854,54.2235636 79.6331458,53.4469455 80.9977813,53.9338727 C82.3829375,54.4310727 83.6388125,54.3057455 84.3755104,52.9127636 C84.9439375,51.8402909 84.1046354,50.1555636 82.5737813,49.2782727 C81.3014896,48.5489091 79.8793958,48.0784182 78.6153125,47.3346727 C76.4442083,46.0588 76.0871458,43.1187455 77.9791667,41.5346909 C79.0770313,40.6142545 80.4108854,39.9157091 81.7385833,39.3548182 C82.5553125,39.0096545 83.4274479,39.5212364 83.552625,40.4622182 C83.6244479,40.9943455 83.3617812,41.8490364 82.9595729,42.1099636 C82.0648646,42.6893455 80.9875208,42.9852 79.5818438,43.5604727" id="Fill-10" fill="#000000"></path>
                    <path d="M45.334625,55.8014545 C46.1349375,57.3197636 45.4946875,58.2237636 44.4912188,58.3511455 C42.0943854,58.6531636 39.6441979,58.9572364 36.9067188,58.1498 C37.0790938,56.7712 37.3910104,55.5508 37.356125,54.3406727 C37.2186354,49.6111091 38.0538333,44.8075818 36.2377396,40.1930727 C35.8601563,39.2377091 36.0858854,38.2104364 37.8301563,38.081 C38.8048958,39.6280727 39.3692188,41.4422364 39.4985,43.3899455 C39.6298333,45.3540909 39.6647188,47.3264545 39.7385938,49.2947091 C39.7816875,50.4432 39.7180729,51.6060727 39.8801875,52.7360727 C40.1469583,54.5933818 41.1175938,55.3823273 43.2066146,55.6309273 C43.9781979,55.7233818 44.7559375,55.7562545 45.334625,55.8014545" id="Fill-11" fill="#000000"></path>
                </g>
            </g>
        </g>
    </g>
</svg>