<?xml version="1.0" encoding="UTF-8" standalone="no"?>
<svg width="212px" height="102px" viewBox="0 0 212 102" version="1.1" xmlns="http://www.w3.org/2000/svg" xmlns:xlink="http://www.w3.org/1999/xlink" xmlns:sketch="http://www.bohemiancoding.com/sketch/ns">
    <!-- Generator: Sketch 3.1.1 (8761) - http://www.bohemiancoding.com/sketch -->
    <title>fa-la-la-hover</title>
    <desc>Created with Sketch.</desc>
    <defs></defs>
    <g id="Page-1" stroke="none" stroke-width="1" fill="none" fill-rule="evenodd" sketch:type="MSPage">
        <path d="M66.7128037,96.3474835 L69.6960234,96.3474835 C69.6980864,96.4715962 69.7001495,96.595709 69.7022126,96.7198218 L66.6797944,96.7198218 C66.6901098,96.595709 66.7024883,96.4715962 66.7128037,96.3474835" id="Fill-46" sketch:type="MSShapeGroup"></path>
        <g id="Group" sketch:type="MSLayerGroup">
            <path d="M205.380939,46.6113558 C204.454614,47.9848705 204.064692,49.4245788 204.204981,50.9925369 C204.508255,54.3559932 204.914682,57.7091068 205.156063,61.0767002 C205.253028,62.4460778 204.988953,63.836141 204.966259,65.2179299 C204.910556,68.3517776 204.683617,71.5021736 204.937376,74.6132673 C205.170505,77.459587 205.211766,80.3493462 206.181416,83.150158 C206.602285,84.358189 206.158722,85.9054617 205.968918,87.2789764 C205.845133,88.1622457 205.467589,89.0082811 205.143685,90.0653083 C204.68568,89.8729335 204.221486,89.6764216 203.610813,89.4199218 C203.142493,90.007389 202.929995,90.9113437 201.72928,90.7830939 C197.89607,90.3735217 194.112374,91.7511735 190.19664,90.9940856 C188.249089,90.6176102 186.111734,91.2402426 184.061028,91.3891779 C179.796633,91.6994599 175.517797,91.8794234 171.269907,92.3303665 C166.289621,92.8599144 161.342346,93.6852644 156.36825,94.2644573 C152.44839,94.7216061 148.5079,95.0049969 144.575661,95.3587183 C140.492818,95.7269196 136.4141,96.1654514 132.323005,96.436431 C127.241629,96.7715355 122.152,96.9701159 117.064435,97.2183415 C113.12807,97.4127848 109.191706,97.5824056 105.255341,97.7809861 C99.513778,98.0705826 93.7557103,98.8111221 88.0389042,98.5566909 C81.4721075,98.2650259 74.9486355,98.87111 68.4024696,98.7325174 C65.2995911,98.6663239 62.1884603,99.1296783 59.0814556,99.3344644 C57.3794112,99.4461659 56.6057547,100.904491 55.1079556,101.758801 C48.6731963,100.556975 41.9000911,99.3779038 34.9928855,99.3386014 C29.1894299,99.3055047 23.3839112,99.253791 17.5804556,99.3323958 C15.872222,99.3551498 14.1722407,99.8143671 12.4619439,100.017085 C11.9152266,100.083278 11.0487313,100.184637 10.844486,99.8991775 C9.95323364,98.6456384 8.65967991,99.0862388 7.52292056,98.7821625 C5.48046729,98.2381348 3.49990654,97.4334703 1.54822897,96.6039832 C1.15417991,96.436431 0.830275701,95.6917543 0.789014019,95.187029 C0.692049065,94.0410543 0.727121495,92.8743942 0.826149533,91.7284195 C1.02214252,89.4385388 1.37699299,87.1590007 1.50490421,84.8670514 C1.5709229,83.6610889 1.18718925,82.4344409 1.19131542,81.2181357 C1.20988318,74.8863154 1.43475935,68.550358 1.30272196,62.2206063 C1.17893692,56.2073421 0.638408879,50.2064893 0.40321729,44.1932251 C0.267053738,40.7304786 0.0916915888,37.2284297 0.440352804,33.7967113 C1.00357477,28.2385274 0.81996028,22.7030974 0.665228972,17.1531876 C0.654913551,16.8304944 0.663165888,16.5036641 0.663165888,16.1147774 C1.60599533,15.5666126 2.4147243,15.0867099 2.69736682,13.8104168 C2.92843224,12.7513211 3.99092056,11.9569993 5.39381776,12.167991 C5.93021963,12.2486643 6.5181986,12.1142088 7.06491589,11.9942331 C8.66999533,11.6446488 10.2193715,11.6384432 11.898722,11.7749672 C15.4864252,12.0687008 19.1318949,11.9052856 22.7381659,11.6818826 C25.2571916,11.5267417 27.7535234,10.95996 30.2601706,10.5793474 C30.4210911,10.5565934 30.6418411,10.4883314 30.7408692,10.5648676 C33.0453341,12.3438175 35.6365678,11.1171695 38.0586285,11.137855 C41.5617453,11.1688831 45.0648621,10.5524563 48.5762313,10.4283436 C56.3829416,10.1532269 64.1958411,10.0208399 72.0046145,9.80984821 C77.4284626,9.66298143 82.8523107,9.47267516 88.278222,9.31753419 C92.6189509,9.19342141 96.9782477,8.81280889 101.300409,9.06310299 C106.051692,9.33615111 110.590477,8.05158384 115.253047,7.80956392 C118.436386,7.64201167 121.613535,7.34827809 124.796874,7.1786573 C130.625086,6.86837535 136.457425,6.64910944 142.285638,6.30986784 C145.392643,6.12990431 148.489332,5.78031998 151.59221,5.50934042 C153.688304,5.32523979 155.802965,6.23333163 157.905248,5.35833654 C158.307549,5.19285283 158.928537,5.30041724 159.353533,5.4907235 C160.770871,6.12783577 162.029353,6.32227912 163.492079,5.37488491 C164.226537,4.89705071 165.402495,5.0976997 166.380397,5.01082075 C168.664231,4.80810321 170.948065,4.61572841 173.427893,4.40266814 C173.248404,2.74783108 174.149972,2.10658172 175.528112,1.90593273 C180.159736,1.23158663 184.793423,0.5737889 189.414731,-0.16261359 C190.279164,-0.299137647 190.906341,-0.375673861 191.622231,0.344180258 C192.069921,0.795123356 192.961173,0.977155432 193.652306,0.977155432 C195.125348,0.979223978 196.612832,0.873728116 198.069369,0.650325113 C200.926741,0.215930386 202.750507,1.77147722 203.437514,4.52471237 C204.35765,8.21706755 203.536542,11.8659833 203.732535,15.5231731 C203.891393,18.4770573 204.037871,21.43301 204.237991,24.382757 C204.271,24.852317 204.500002,25.3446311 204.755825,25.7521347 C205.393318,26.7595168 205.366498,27.8227496 204.939439,28.823926 C204.085322,30.8304159 204.252432,32.6238456 205.12718,34.6655008 C206.119523,36.9802041 206.517699,39.5514072 207.175822,42.0109088 C207.258346,42.3170536 207.357374,42.6211299 207.429582,42.8672869 C208.832479,43.2975446 210.260133,41.5103206 211.687787,43.2292825 C211.178206,43.6223063 210.78622,44.0091245 210.324089,44.2656242 C208.265131,45.4053933 207.594629,47.2443309 208.005182,49.3976877 C208.29814,50.932549 207.584313,51.5200162 206.290759,52.0350842 C204.087386,50.5788276 206.719881,48.338592 205.380939,46.6113558 L205.380939,46.6113558 Z M199.511465,6.90560918 C198.785259,7.04627033 198.079685,7.28415316 197.367921,7.30070153 C195.816481,7.33586682 194.058734,7.70820515 192.76518,7.11246381 C191.275633,6.42570644 189.891304,6.40295243 188.480154,6.59119014 C185.307131,7.01317359 182.167117,7.68545114 179.000283,8.18190226 C177.389014,8.43633346 175.656023,8.9472644 174.154098,8.59147443 C172.460306,8.19017645 170.791271,8.08468058 169.105731,7.97918472 C167.48621,7.87782595 165.858437,7.91712833 164.23479,7.9336767 C163.335285,7.94401943 162.43578,8.01641856 161.538339,8.08468058 C158.264224,8.33497469 154.992173,8.59354298 151.720121,8.85417981 C150.329603,8.96381277 148.937021,9.07965136 147.546502,9.20376414 C144.123846,9.509909 140.705315,9.84915059 137.280596,10.1201302 C135.47746,10.2628599 133.659883,10.2132147 131.860874,10.3786985 C129.174738,10.6248555 126.505107,11.1295808 123.814846,11.2681734 C118.395124,11.5453586 112.965086,11.6363746 107.539175,11.830818 C103.945283,11.9590678 100.353453,12.1948821 96.7595607,12.2631441 C94.8739019,12.300378 92.9779276,11.9425195 91.0963949,12.008713 C83.6961121,12.2693498 76.3020187,12.6251398 68.9037991,12.9540386 C66.768507,13.0471232 64.6290888,13.1195223 62.4979229,13.2870746 C60.4513435,13.4463526 58.4150794,13.8786788 56.3705631,13.909707 C52.1804393,13.9696949 47.9861893,13.7421548 43.7981285,13.8207595 C40.1815421,13.8910901 36.5690818,14.1765495 32.9607477,14.4454605 C29.6164883,14.6916175 26.2825444,15.1260123 22.936222,15.3163185 C20.5554229,15.450774 18.1560561,15.2563307 15.7690678,15.3245927 C13.8050117,15.3804435 11.8368294,15.806564 9.88721495,15.7072738 C8.0118715,15.6121206 6.17572664,15.3556209 4.44273598,16.0154872 C4.56858411,18.0757593 4.84916355,20.1132774 4.78727103,22.1383843 C4.63253972,27.3449154 4.55001636,32.5369666 5.43095327,37.6959211 C5.49490888,38.070328 5.5568014,38.6577952 5.35461916,38.827416 C3.98885748,39.9713221 4.24674299,41.5144576 4.32514019,42.9520973 C4.52732243,46.7209887 4.85947897,50.4836745 5.08848131,54.2525659 C5.18338318,55.7998385 4.83678505,57.4422643 5.23702336,58.8902467 C5.90133645,61.2897605 5.69090187,63.6044638 5.42476402,65.9853606 C5.16894159,68.2773099 4.91311916,70.5837391 4.90692991,72.8839626 C4.90074065,75.9288628 5.4660257,79.0068597 5.17719393,82.014526 C4.88423598,85.0801117 7.13918692,88.0505442 5.34017757,91.0913073 C5.27209579,91.2050773 5.36699766,91.411932 5.37731308,91.5774157 C5.44745794,92.6778823 5.51347664,93.7804175 5.60012617,95.2221943 C6.50582009,95.5345448 7.63226402,96.1840683 8.79996963,96.2668102 C11.0817407,96.4281568 13.3882687,96.2999069 15.6824182,96.2150965 C16.020764,96.2026852 16.313722,95.6462463 16.6788879,95.5531617 C17.5041215,95.3463071 18.253021,95.1560008 19.2350491,95.3690611 C21.1207079,95.7744961 23.1672874,95.902746 25.0673879,95.6172866 C26.1835164,95.4476658 27.1098411,95.5986697 28.1516986,95.7393309 C31.0606472,96.1344232 34.0830654,96.9866643 36.8847336,96.5419268 C40.1052079,96.0289273 43.3298084,95.4642142 46.5771028,95.0401622 C52.099979,94.3203081 57.6166659,93.5383976 63.1312897,92.7482129 C68.6603551,91.9559596 74.1832313,91.124404 79.7081706,90.3052597 C80.7170187,90.1563243 81.5319369,90.3135339 81.7836332,91.5629358 C81.2348528,91.726351 80.6819463,91.8918347 80.1290397,92.0552499 C81.779507,92.7378701 83.423785,93.1019343 85.0804416,93.1701963 C90.830257,93.4060106 96.5841986,93.5466718 102.33814,93.7100869 C104.479621,93.7700748 106.625229,93.8548852 108.76671,93.823857 C113.251855,93.7618006 117.726685,94.2830742 122.226271,93.759732 C125.483881,93.381188 128.797194,93.4866839 132.079561,93.2818978 C136.756572,92.9943699 141.425332,92.5992775 146.102343,92.2889956 C149.38471,92.0717982 152.687708,92.0676611 155.951507,91.7056655 C162.481168,90.9796058 168.988136,90.0425543 175.511607,89.2565067 C178.608297,88.8841684 181.797825,88.9772529 184.811991,88.2801528 C188.480154,87.4320488 192.133876,87.262428 195.810292,87.5396132 C198.164271,87.7175082 200.070561,86.7618398 202.007797,86.1019736 C201.766416,84.0644554 201.539477,82.2131065 201.331105,80.3576204 C201.250645,79.6274236 201.446638,78.7607027 201.116544,78.1856468 C199.952965,76.1626085 199.917893,73.9575381 199.7219,71.7483306 C199.624935,70.6540696 199.311346,69.5784256 199.094722,68.4924387 C199.016325,66.8748355 200.285121,66.4363037 201.609621,66.2335862 C201.820056,59.8728062 202.195537,53.6754415 201.135112,47.0912585 C200.142769,49.4721553 199.30722,51.4724396 198.475797,53.4665183 C197.489643,53.3879135 196.777879,53.2720749 196.072304,53.2948289 C195.278016,53.3196515 194.485792,53.4582441 193.695631,53.5699456 C192.804379,53.6981955 191.921379,53.9195299 191.023937,53.9815863 C188.577119,54.14707 188.108799,53.5492601 188.5111,51.1373351 C188.892771,48.8681398 189.262063,46.5886018 189.462182,44.2966524 C189.623103,42.4390979 189.713879,40.5318981 188.552362,38.7053717 C189.177477,38.2006464 189.699437,37.4394214 190.266785,37.4021876 C191.312769,37.3339255 191.428301,38.4530091 191.583033,39.210097 C191.793467,40.2443702 191.902811,41.330357 191.853297,42.3832471 C191.723322,45.1654419 191.481942,47.9455682 191.269444,50.9346176 C192.723918,50.5891703 193.908129,50.0534169 195.073771,50.0865136 C197.118287,50.1444329 197.84243,48.9819099 198.269488,47.3332784 C198.80589,45.2626636 199.315472,43.1837745 199.868379,41.1172968 C200.035488,40.4946643 200.204661,39.452117 200.553322,39.3714437 C201.884012,39.0570246 201.743722,38.0351627 201.630252,37.263595 C201.322853,35.166089 201.036084,33.1202967 201.056715,30.9545287 C201.085598,27.8641205 200.254175,24.7778494 200.041678,21.6708928 C199.818864,18.3819042 199.66207,15.0536131 199.924082,11.7770358 C200.058182,10.1015132 200.122138,8.57078897 199.511465,6.90560918 L199.511465,6.90560918 Z M66.7128037,96.3474835 C66.7024883,96.4715962 66.6901098,96.595709 66.6797944,96.7198218 L69.7022126,96.7198218 C69.7001495,96.595709 69.6980864,96.4715962 69.6960234,96.3474835 L66.7128037,96.3474835 L66.7128037,96.3474835 Z M198.803827,4.48540999 C198.822395,4.27855536 198.8389,4.07170072 198.855404,3.86277755 C198.255047,3.95586213 197.656752,4.04687817 197.056395,4.13789421 C197.081152,4.3116521 197.103846,4.48747854 197.128603,4.66123643 C197.687699,4.60331713 198.246794,4.54539783 198.803827,4.48540999 L198.803827,4.48540999 Z" id="Fill-6" fill="#000000" sketch:type="MSShapeGroup"></path>
            <path d="M199.511465,6.90560918 C200.122138,8.57078897 200.058182,10.1015132 199.924082,11.7770358 C199.66207,15.0536131 199.818864,18.3819042 200.041678,21.6708928 C200.254175,24.7778494 201.085598,27.8641205 201.056715,30.9545287 C201.036084,33.1202967 201.322853,35.166089 201.630252,37.263595 C201.743722,38.0351627 201.884012,39.0570246 200.553322,39.3714437 C200.204661,39.452117 200.035488,40.4946643 199.868379,41.1172968 C199.315472,43.1837745 198.80589,45.2626636 198.269488,47.3332784 C197.84243,48.9819099 197.118287,50.1444329 195.073771,50.0865136 C193.908129,50.0534169 192.723918,50.5891703 191.269444,50.9346176 C191.481942,47.9455682 191.723322,45.1654419 191.853297,42.3832471 C191.902811,41.330357 191.793467,40.2443702 191.583033,39.210097 C191.428301,38.4530091 191.312769,37.3339255 190.266785,37.4021876 C189.699437,37.4394214 189.177477,38.2006464 188.552362,38.7053717 C189.713879,40.5318981 189.623103,42.4390979 189.462182,44.2966524 C189.262063,46.5886018 188.892771,48.8681398 188.5111,51.1373351 C188.108799,53.5492601 188.577119,54.14707 191.023937,53.9815863 C191.921379,53.9195299 192.804379,53.6981955 193.695631,53.5699456 C194.485792,53.4582441 195.278016,53.3196515 196.072304,53.2948289 C196.777879,53.2720749 197.489643,53.3879135 198.475797,53.4665183 C199.30722,51.4724396 200.142769,49.4721553 201.135112,47.0912585 C202.195537,53.6754415 201.820056,59.8728062 201.609621,66.2335862 C200.285121,66.4363037 199.016325,66.8748355 199.094722,68.4924387 C199.311346,69.5784256 199.624935,70.6540696 199.7219,71.7483306 C199.917893,73.9575381 199.952965,76.1626085 201.116544,78.1856468 C201.446638,78.7607027 201.250645,79.6274236 201.331105,80.3576204 C201.539477,82.2131065 201.766416,84.0644554 202.007797,86.1019736 C200.070561,86.7618398 198.164271,87.7175082 195.810292,87.5396132 C192.133876,87.262428 188.480154,87.4320488 184.811991,88.2801528 C181.797825,88.9772529 178.608297,88.8841684 175.511607,89.2565067 C168.988136,90.0425543 162.481168,90.9796058 155.951507,91.7056655 C152.687708,92.0676611 149.38471,92.0717982 146.102343,92.2889956 C141.425332,92.5992775 136.756572,92.9943699 132.079561,93.2818978 C128.797194,93.4866839 125.483881,93.381188 122.226271,93.759732 C117.726685,94.2830742 113.251855,93.7618006 108.76671,93.823857 C106.625229,93.8548852 104.479621,93.7700748 102.33814,93.7100869 C96.5841986,93.5466718 90.830257,93.4060106 85.0804416,93.1701963 C83.423785,93.1019343 81.779507,92.7378701 80.1290397,92.0552499 C80.6819463,91.8918347 81.2348528,91.726351 81.7836332,91.5629358 C81.5319369,90.3135339 80.7170187,90.1563243 79.7081706,90.3052597 C74.1832313,91.124404 68.6603551,91.9559596 63.1312897,92.7482129 C57.6166659,93.5383976 52.099979,94.3203081 46.5771028,95.0401622 C43.3298084,95.4642142 40.1052079,96.0289273 36.8847336,96.5419268 C34.0830654,96.9866643 31.0606472,96.1344232 28.1516986,95.7393309 C27.1098411,95.5986697 26.1835164,95.4476658 25.0673879,95.6172866 C23.1672874,95.902746 21.1207079,95.7744961 19.2350491,95.3690611 C18.253021,95.1560008 17.5041215,95.3463071 16.6788879,95.5531617 C16.313722,95.6462463 16.020764,96.2026852 15.6824182,96.2150965 C13.3882687,96.2999069 11.0817407,96.4281568 8.79996963,96.2668102 C7.63226402,96.1840683 6.50582009,95.5345448 5.60012617,95.2221943 C5.51347664,93.7804175 5.44745794,92.6778823 5.37731308,91.5774157 C5.36699766,91.411932 5.27209579,91.2050773 5.34017757,91.0913073 C7.13918692,88.0505442 4.88423598,85.0801117 5.17719393,82.014526 C5.4660257,79.0068597 4.90074065,75.9288628 4.90692991,72.8839626 C4.91311916,70.5837391 5.16894159,68.2773099 5.42476402,65.9853606 C5.69090187,63.6044638 5.90133645,61.2897605 5.23702336,58.8902467 C4.83678505,57.4422643 5.18338318,55.7998385 5.08848131,54.2525659 C4.85947897,50.4836745 4.52732243,46.7209887 4.32514019,42.9520973 C4.24674299,41.5144576 3.98885748,39.9713221 5.35461916,38.827416 C5.5568014,38.6577952 5.49490888,38.070328 5.43095327,37.6959211 C4.55001636,32.5369666 4.63253972,27.3449154 4.78727103,22.1383843 C4.84916355,20.1132774 4.56858411,18.0757593 4.44273598,16.0154872 C6.17572664,15.3556209 8.0118715,15.6121206 9.88721495,15.7072738 C11.8368294,15.806564 13.8050117,15.3804435 15.7690678,15.3245927 C18.1560561,15.2563307 20.5554229,15.450774 22.936222,15.3163185 C26.2825444,15.1260123 29.6164883,14.6916175 32.9607477,14.4454605 C36.5690818,14.1765495 40.1815421,13.8910901 43.7981285,13.8207595 C47.9861893,13.7421548 52.1804393,13.9696949 56.3705631,13.909707 C58.4150794,13.8786788 60.4513435,13.4463526 62.4979229,13.2870746 C64.6290888,13.1195223 66.768507,13.0471232 68.9037991,12.9540386 C76.3020187,12.6251398 83.6961121,12.2693498 91.0963949,12.008713 C92.9779276,11.9425195 94.8739019,12.300378 96.7595607,12.2631441 C100.353453,12.1948821 103.945283,11.9590678 107.539175,11.830818 C112.965086,11.6363746 118.395124,11.5453586 123.814846,11.2681734 C126.505107,11.1295808 129.174738,10.6248555 131.860874,10.3786985 C133.659883,10.2132147 135.47746,10.2628599 137.280596,10.1201302 C140.705315,9.84915059 144.123846,9.509909 147.546502,9.20376414 C148.937021,9.07965136 150.329603,8.96381277 151.720121,8.85417981 C154.992173,8.59354298 158.264224,8.33497469 161.538339,8.08468058 C162.43578,8.01641856 163.335285,7.94401943 164.23479,7.9336767 C165.858437,7.91712833 167.48621,7.87782595 169.105731,7.97918472 C170.791271,8.08468058 172.460306,8.19017645 174.154098,8.59147443 C175.656023,8.9472644 177.389014,8.43633346 179.000283,8.18190226 C182.167117,7.68545114 185.307131,7.01317359 188.480154,6.59119014 C189.891304,6.40295243 191.275633,6.42570644 192.76518,7.11246381 C194.058734,7.70820515 195.816481,7.33586682 197.367921,7.30070153 C198.079685,7.28415316 198.785259,7.04627033 199.511465,6.90560918 L199.511465,6.90560918 Z M36.1172664,65.4268531 C37.0539065,64.5001443 37.9162757,63.5217219 37.2292687,62.3219651 C35.2940958,58.9440289 34.1924089,55.2971818 33.2681472,51.5510444 C32.8390257,49.8134655 32.1025047,48.1234631 31.2979019,46.5182712 C30.7697523,45.4674497 29.8351752,45.4715868 29.1357897,46.4334608 C28.725236,47.0002425 28.4982967,47.7552619 28.3641963,48.4606362 C28.1682033,49.501115 28.2012126,50.5850333 28.0093458,51.6255121 C27.549278,54.1201789 26.6497734,56.5941603 26.616764,59.0867586 C26.5899439,61.2794177 26.4248972,63.2010973 25.2056145,65.0689946 C24.7352313,65.7929858 25.1230911,66.6700494 26.1195607,66.9162064 C28.5643154,65.6730101 27.9618949,63.0149281 28.9191659,61.0808373 C30.5345607,60.6981562 32.1045678,60.2285962 33.7096472,60.7705553 C34.735,64.6325313 34.735,64.6325313 36.1172664,65.4268531 L36.1172664,65.4268531 Z M14.401243,64.4111969 C16.0991612,64.9614302 16.8686916,64.4856645 16.8026729,62.8391016 C16.7634743,61.8792962 16.6231846,60.9215592 16.5262196,59.9265884 C19.0287407,58.9460975 22.1852593,58.9398918 22.1439977,54.7614283 C21.0175537,55.1068755 20.2088248,55.3240729 19.4207266,55.6012581 C18.6511963,55.8722376 17.9249907,56.2838784 17.1410187,56.4824588 C16.2353248,56.7099989 15.4781729,56.3790315 15.2450444,55.3881978 C14.547722,52.4384508 13.8483364,49.4845666 14.1412944,46.3941584 C16.3508575,45.4550384 18.4386986,45.0806315 20.4522687,46.4024326 C21.7396332,44.8262003 21.8262827,44.2056364 21.1248341,43.0327706 C20.4543318,41.9157556 19.4269159,42.2363803 18.4778972,42.3439447 C16.8604393,42.5301139 15.212035,43.1196496 13.6502804,42.9272748 C11.7646215,42.6955976 11.2034626,43.6223063 10.8300444,44.6296884 C13.1572033,51.1911173 13.2995561,57.7711632 14.401243,64.4111969 L14.401243,64.4111969 Z M150.96297,48.6736965 C149.322818,48.2248219 148.80911,47.1698633 148.672946,45.7404978 C148.557414,44.5241925 148.274771,43.3016817 147.897227,42.1370901 C147.257671,40.1657654 146.273579,39.4355686 144.478696,39.3900606 C143.802005,42.2384489 143.313054,45.1613048 142.394981,47.9414311 C141.46453,50.7525855 140.109084,53.4210103 138.941379,56.1535599 C138.617474,56.2549187 138.60097,56.5403781 138.730944,56.7182731 C139.085794,57.2023129 139.634575,58.0793766 139.869766,58.009046 C140.470124,57.8290825 141.068418,57.3016032 141.431521,56.7555069 C141.877147,56.0852979 142.176294,55.2806334 142.37435,54.4904487 C142.999465,51.9957818 144.911944,51.3607381 147.313374,50.9470289 C147.750748,52.6411683 148.17368,54.2773884 148.608991,55.9694593 C149.41153,56.0646125 150.191376,56.157697 151.350829,56.2962896 C151.231171,55.2930447 151.379713,54.3849528 151.010421,53.8243768 C149.380584,51.3607381 149.314565,51.2159399 150.96297,48.6736965 L150.96297,48.6736965 Z M69.3803715,41.5806511 C67.5070911,44.5552207 68.0455561,47.7656046 66.9232383,50.5188398 C65.7596589,53.3775708 64.8849112,56.3562775 63.8430537,59.4053148 C65.297528,60.7850352 65.9061379,60.7064304 66.7746963,58.7040776 C67.1274836,57.8952759 67.3296659,57.0223494 67.6102453,56.1514914 C69.0936028,55.9301569 70.4985631,55.7191652 71.9468481,55.5040364 C72.165535,57.1630105 72.3140771,58.5406624 72.5389533,59.905903 C72.7617664,61.2732121 73.1867617,61.4511071 74.5112617,60.776761 C74.8557967,60.6009345 75.1487547,60.3237493 75.4664696,60.0920721 C75.0703575,58.5675535 74.6494883,57.1692162 74.3585935,55.7419192 C74.2224299,55.0675731 74.4638107,54.3146223 74.3111425,53.6485504 C74.0078692,52.3164065 73.4962243,51.0339078 73.1681939,49.7079696 C72.4791238,46.9257748 71.6311963,44.230459 69.3803715,41.5806511 L69.3803715,41.5806511 Z M110.283077,54.124316 C110.39861,54.7386743 110.499701,55.2040972 110.573972,55.6736572 C110.728703,56.6293256 110.986589,57.5705142 112.214124,57.3677966 C113.286928,57.1899017 113.874907,56.1928623 113.551002,55.3406212 C112.956834,53.7809373 114.731086,51.3855607 111.914977,50.572622 C111.671533,50.5022914 111.659154,49.6810785 111.508549,49.2197927 C111.029914,47.7345764 110.650306,46.2038522 110.006624,44.791035 C109.544493,43.7753788 108.725449,42.9210691 108.052883,41.9757435 C107.316362,42.3253278 106.742825,42.5983759 106.342586,42.7866136 C105.065537,48.520624 104.32489,54.14707 101.5356,59.4880566 C102.50525,59.6969798 103.165437,59.8397095 104.087636,60.0403585 C104.84685,57.6863528 105.540047,55.5392017 106.266252,53.2844862 C106.627292,53.5989052 107.08736,53.9981347 107.47522,54.3373763 C108.428364,54.2649772 109.305175,54.1987837 110.283077,54.124316 L110.283077,54.124316 Z M174.139657,48.1276002 C173.772428,51.2593794 170.970759,53.2203613 171.274033,56.2880155 C172.600596,56.9003052 173.056537,56.2818098 173.469154,55.3240729 C174.310893,53.3651595 175.200082,51.420726 176.186236,49.5321432 C176.437932,49.0439662 177.077488,48.5744062 177.615953,48.4606362 C178.618612,48.251713 179.676974,48.3096323 180.918951,48.2455074 C181.098439,50.5891703 181.273801,52.8500915 181.451227,55.1358352 C183.590645,55.7998385 184.011514,55.5557501 183.88154,53.5285747 C183.817584,52.5501523 183.704114,51.5510444 183.44004,50.6098558 C183.029486,49.1535992 182.876818,47.7635361 183.970252,46.3610617 C182.162991,45.5874253 181.597706,44.1580598 181.01179,42.5838961 C180.493956,41.1876273 179.796633,39.7065482 178.148229,38.7488112 C177.737675,39.2473309 177.230157,39.6569031 177.00528,40.1864509 C176.621547,41.0862686 176.270822,42.046074 176.167668,43.0079481 C175.990243,44.6441682 175.303236,45.7467034 173.44646,46.0197515 C173.762112,46.979557 174.009682,47.7304393 174.139657,48.1276002 L174.139657,48.1276002 Z M158.204395,54.8793354 C158.361189,53.6423447 158.44165,52.583249 158.639706,51.5489758 C159.171981,48.7688496 159.359722,46.0032032 158.600507,43.2313511 C158.235341,41.8950702 157.556586,41.3675909 156.537423,41.7895743 C155.501755,42.2198319 155.639981,43.0741416 156.027841,43.8539835 C157.205862,46.2224691 156.894336,48.6612852 156.4549,51.1145811 C156.252717,52.2460759 156.00721,53.3734337 155.815343,54.5069971 C155.336708,57.3305628 156.102112,58.3731101 158.940916,58.433098 C161.22475,58.4806746 163.523026,58.1290217 165.796544,58.2614086 C167.925647,58.38759 168.874666,57.2767806 169.576114,55.6943427 C169.153182,54.3766787 168.34239,54.1201789 167.240703,54.5069971 C166.702238,54.6973033 166.169963,54.9000209 165.635624,55.104807 C163.23832,56.021173 160.861647,56.0997777 158.204395,54.8793354 L158.204395,54.8793354 Z M60.2223411,58.8861096 C57.5733411,59.1591577 55.0976402,59.4135889 52.566236,59.6742258 C52.5352897,59.5583872 52.4156308,59.32671 52.4218201,59.0991699 C52.5002173,55.9901448 52.6817687,52.8790511 52.6590748,49.770026 C52.6466963,47.9724593 52.3743692,46.1666183 52.075222,44.3876685 C52.0050771,43.9718907 51.3531425,43.3906292 50.9549673,43.3761493 C50.6021799,43.3658066 50.0265794,43.9863705 49.9089836,44.4249023 C49.7501262,45.0206437 49.8986682,45.7136067 49.9791285,46.354856 C50.5650444,50.9821941 51.5408832,55.6074637 49.842965,60.2161849 C49.7068014,60.5864547 49.7356846,61.0270551 49.7294953,61.4366272 C49.7109276,62.5598479 50.2927173,63.188686 51.3964673,63.0583676 C53.9113668,62.7625654 56.4324556,62.4646948 58.918472,61.9868606 C60.3275584,61.7179495 60.4451542,61.269075 60.2223411,58.8861096 L60.2223411,58.8861096 Z M135.304161,53.9857234 C133.387556,54.571122 131.865,55.1254924 130.297056,55.4895566 C128.656904,55.8681006 127.0085,56.5838176 125.1084,55.8267296 C125.071264,55.1151497 124.996993,54.393227 125.005245,53.6713044 C125.034129,51.1166497 125.081579,48.561995 125.141409,46.0052717 C125.170292,44.6669222 124.836072,43.5623185 123.464121,43.0431134 C122.370687,43.5871411 122.180883,44.3855999 122.533671,45.4984779 C122.797745,46.3403762 122.983423,47.2546737 122.964855,48.1317373 C122.913278,50.7443113 122.742042,53.3548168 122.618257,55.9673908 C122.488283,58.679255 123.732322,59.8272982 126.348313,59.2977504 C128.355694,58.8902467 130.330065,58.3338078 132.331257,57.8973445 C133.4969,57.6429133 134.685236,57.493978 136.079881,57.2623008 C135.807554,56.1142576 135.59093,55.195823 135.304161,53.9857234 L135.304161,53.9857234 Z M85.6684206,43.6326491 C84.3253528,45.3143772 84.3418575,45.306103 85.189785,46.7396056 C85.4373551,47.1595206 85.7406285,47.649766 85.7323762,48.1027777 C85.678736,51.1311295 85.8066472,54.1987837 85.3630841,57.1754218 C84.9834766,59.7238709 86.4482664,61.8565421 88.9879229,61.5214376 C90.7704276,61.2856234 92.5157967,60.8057206 94.3540047,61.3621596 C94.8305771,61.5069578 95.7094509,61.1677162 96.0498598,60.7560755 C97.085528,59.5087421 96.423278,58.0338685 94.7996308,58.0049089 C92.7716192,57.9697436 90.7394813,58.1559128 88.3545561,58.2614086 C88.2163294,57.2105871 87.9976425,56.1969994 87.9708224,55.1751375 C87.9089299,52.9493817 87.9749486,50.7174202 87.9316238,48.4895958 C87.8965514,46.6258356 87.2941308,44.9875469 85.6684206,43.6326491 L85.6684206,43.6326491 Z" id="Fill-45" fill="#FFFFFF" sketch:type="MSShapeGroup"></path>
            <path d="M198.803827,4.48540999 C198.246794,4.54539783 197.687699,4.60331713 197.128603,4.66123643 C197.103846,4.48747854 197.081152,4.3116521 197.056395,4.13789421 C197.656752,4.04687817 198.255047,3.95586213 198.855404,3.86277755 C198.8389,4.07170072 198.822395,4.27855536 198.803827,4.48540999" id="Fill-47" fill="#FFFFFF" sketch:type="MSShapeGroup"></path>
            <path d="M36.1172664,65.4268531 C34.735,64.6325313 34.735,64.6325313 33.7096472,60.7705553 C32.1045678,60.2285962 30.5345607,60.6981562 28.9191659,61.0808373 C27.9618949,63.0149281 28.5643154,65.6730101 26.1195607,66.9162064 C25.1230911,66.6700494 24.7352313,65.7929858 25.2056145,65.0689946 C26.4248972,63.2010973 26.5899439,61.2794177 26.616764,59.0867586 C26.6497734,56.5941603 27.549278,54.1201789 28.0093458,51.6255121 C28.2012126,50.5850333 28.1682033,49.501115 28.3641963,48.4606362 C28.4982967,47.7552619 28.725236,47.0002425 29.1357897,46.4334608 C29.8351752,45.4715868 30.7697523,45.4674497 31.2979019,46.5182712 C32.1025047,48.1234631 32.8390257,49.8134655 33.2681472,51.5510444 C34.1924089,55.2971818 35.2940958,58.9440289 37.2292687,62.3219651 C37.9162757,63.5217219 37.0539065,64.5001443 36.1172664,65.4268531 L36.1172664,65.4268531 Z M28.8696519,57.5188005 C30.4520374,57.6822157 31.6238692,57.8042599 32.872035,57.9325098 C32.0653692,55.2454681 31.3164696,52.7466642 30.565507,50.2478602 C30.4355327,50.2582029 30.3055584,50.2664771 30.173521,50.2747513 C29.7526519,52.6225514 29.3297196,54.9703515 28.8696519,57.5188005 L28.8696519,57.5188005 Z" id="Fill-149" fill="#000000" sketch:type="MSShapeGroup"></path>
            <path d="M14.401243,64.4111969 C13.2995561,57.7711632 13.1572033,51.1911173 10.8300444,44.6296884 C11.2034626,43.6223063 11.7646215,42.6955976 13.6502804,42.9272748 C15.212035,43.1196496 16.8604393,42.5301139 18.4778972,42.3439447 C19.4269159,42.2363803 20.4543318,41.9157556 21.1248341,43.0327706 C21.8262827,44.2056364 21.7396332,44.8262003 20.4522687,46.4024326 C18.4386986,45.0806315 16.3508575,45.4550384 14.1412944,46.3941584 C13.8483364,49.4845666 14.547722,52.4384508 15.2450444,55.3881978 C15.4781729,56.3790315 16.2353248,56.7099989 17.1410187,56.4824588 C17.9249907,56.2838784 18.6511963,55.8722376 19.4207266,55.6012581 C20.2088248,55.3240729 21.0175537,55.1068755 22.1439977,54.7614283 C22.1852593,58.9398918 19.0287407,58.9460975 16.5262196,59.9265884 C16.6231846,60.9215592 16.7634743,61.8792962 16.8026729,62.8391016 C16.8686916,64.4856645 16.0991612,64.9614302 14.401243,64.4111969" id="Fill-150" fill="#000000" sketch:type="MSShapeGroup"></path>
            <path d="M150.96297,48.6736965 C149.314565,51.2159399 149.380584,51.3607381 151.010421,53.8243768 C151.379713,54.3849528 151.231171,55.2930447 151.350829,56.2962896 C150.191376,56.157697 149.41153,56.0646125 148.608991,55.9694593 C148.17368,54.2773884 147.750748,52.6411683 147.313374,50.9470289 C144.911944,51.3607381 142.999465,51.9957818 142.37435,54.4904487 C142.176294,55.2806334 141.877147,56.0852979 141.431521,56.7555069 C141.068418,57.3016032 140.470124,57.8290825 139.869766,58.009046 C139.634575,58.0793766 139.085794,57.2023129 138.730944,56.7182731 C138.60097,56.5403781 138.617474,56.2549187 138.941379,56.1535599 C140.109084,53.4210103 141.46453,50.7525855 142.394981,47.9414311 C143.313054,45.1613048 143.802005,42.2384489 144.478696,39.3900606 C146.273579,39.4355686 147.257671,40.1657654 147.897227,42.1370901 C148.274771,43.3016817 148.557414,44.5241925 148.672946,45.7404978 C148.80911,47.1698633 149.322818,48.2248219 150.96297,48.6736965 L150.96297,48.6736965 Z M146.760467,48.2475759 C146.733647,46.6341098 146.704764,45.3309256 145.570068,44.1084147 C145.287425,45.6949898 145.052234,47.0292021 144.769591,48.6219828 C145.5515,48.475116 146.069334,48.3778943 146.760467,48.2475759 L146.760467,48.2475759 Z" id="Fill-151" fill="#000000" sketch:type="MSShapeGroup"></path>
            <path d="M69.3803715,41.5806511 C71.6311963,44.230459 72.4791238,46.9257748 73.1681939,49.7079696 C73.4962243,51.0339078 74.0078692,52.3164065 74.3111425,53.6485504 C74.4638107,54.3146223 74.2224299,55.0675731 74.3585935,55.7419192 C74.6494883,57.1692162 75.0703575,58.5675535 75.4664696,60.0920721 C75.1487547,60.3237493 74.8557967,60.6009345 74.5112617,60.776761 C73.1867617,61.4511071 72.7617664,61.2732121 72.5389533,59.905903 C72.3140771,58.5406624 72.165535,57.1630105 71.9468481,55.5040364 C70.4985631,55.7191652 69.0936028,55.9301569 67.6102453,56.1514914 C67.3296659,57.0223494 67.1274836,57.8952759 66.7746963,58.7040776 C65.9061379,60.7064304 65.297528,60.7850352 63.8430537,59.4053148 C64.8849112,56.3562775 65.7596589,53.3775708 66.9232383,50.5188398 C68.0455561,47.7656046 67.5070911,44.5552207 69.3803715,41.5806511 L69.3803715,41.5806511 Z M71.5342313,52.651511 C71.1154252,50.7381057 70.838972,48.9157164 69.6671402,47.3208672 C69.2565864,49.0936114 68.8460327,50.8663556 68.4334159,52.651511 L71.5342313,52.651511 L71.5342313,52.651511 Z" id="Fill-152" fill="#000000" sketch:type="MSShapeGroup"></path>
            <path d="M110.283077,54.124316 C109.305175,54.1987837 108.428364,54.2649772 107.47522,54.3373763 C107.08736,53.9981347 106.627292,53.5989052 106.266252,53.2844862 C105.540047,55.5392017 104.84685,57.6863528 104.087636,60.0403585 C103.165437,59.8397095 102.50525,59.6969798 101.5356,59.4880566 C104.32489,54.14707 105.065537,48.520624 106.342586,42.7866136 C106.742825,42.5983759 107.316362,42.3253278 108.052883,41.9757435 C108.725449,42.9210691 109.544493,43.7753788 110.006624,44.791035 C110.650306,46.2038522 111.029914,47.7345764 111.508549,49.2197927 C111.659154,49.6810785 111.671533,50.5022914 111.914977,50.572622 C114.731086,51.3855607 112.956834,53.7809373 113.551002,55.3406212 C113.874907,56.1928623 113.286928,57.1899017 112.214124,57.3677966 C110.986589,57.5705142 110.728703,56.6293256 110.573972,55.6736572 C110.499701,55.2040972 110.39861,54.7386743 110.283077,54.124316 L110.283077,54.124316 Z M108.145722,46.9195692 C107.974486,46.9237063 107.80325,46.9278434 107.629951,46.934049 C107.328741,48.3737572 107.02753,49.815534 106.678869,51.4765767 C107.726916,51.2862705 108.477879,51.1518149 109.470222,50.9718514 C108.98746,49.4949093 108.566591,48.206205 108.145722,46.9195692 L108.145722,46.9195692 Z" id="Fill-153" fill="#000000" sketch:type="MSShapeGroup"></path>
            <path d="M174.139657,48.1276002 C174.009682,47.7304393 173.762112,46.979557 173.44646,46.0197515 C175.303236,45.7467034 175.990243,44.6441682 176.167668,43.0079481 C176.270822,42.046074 176.621547,41.0862686 177.00528,40.1864509 C177.230157,39.6569031 177.737675,39.2473309 178.148229,38.7488112 C179.796633,39.7065482 180.493956,41.1876273 181.01179,42.5838961 C181.597706,44.1580598 182.162991,45.5874253 183.970252,46.3610617 C182.876818,47.7635361 183.029486,49.1535992 183.44004,50.6098558 C183.704114,51.5510444 183.817584,52.5501523 183.88154,53.5285747 C184.011514,55.5557501 183.590645,55.7998385 181.451227,55.1358352 C181.273801,52.8500915 181.098439,50.5891703 180.918951,48.2455074 C179.676974,48.3096323 178.618612,48.251713 177.615953,48.4606362 C177.077488,48.5744062 176.437932,49.0439662 176.186236,49.5321432 C175.200082,51.420726 174.310893,53.3651595 173.469154,55.3240729 C173.056537,56.2818098 172.600596,56.9003052 171.274033,56.2880155 C170.970759,53.2203613 173.772428,51.2593794 174.139657,48.1276002 L174.139657,48.1276002 Z M177.750054,45.6908527 C179.643965,45.169579 179.643965,45.169579 178.261699,43.0617303 C178.080147,43.9946447 177.943984,44.700019 177.750054,45.6908527 L177.750054,45.6908527 Z" id="Fill-154" fill="#000000" sketch:type="MSShapeGroup"></path>
            <path d="M158.204395,54.8793354 C160.861647,56.0997777 163.23832,56.021173 165.635624,55.104807 C166.169963,54.9000209 166.702238,54.6973033 167.240703,54.5069971 C168.34239,54.1201789 169.153182,54.3766787 169.576114,55.6943427 C168.874666,57.2767806 167.925647,58.38759 165.796544,58.2614086 C163.523026,58.1290217 161.22475,58.4806746 158.940916,58.433098 C156.102112,58.3731101 155.336708,57.3305628 155.815343,54.5069971 C156.00721,53.3734337 156.252717,52.2460759 156.4549,51.1145811 C156.894336,48.6612852 157.205862,46.2224691 156.027841,43.8539835 C155.639981,43.0741416 155.501755,42.2198319 156.537423,41.7895743 C157.556586,41.3675909 158.235341,41.8950702 158.600507,43.2313511 C159.359722,46.0032032 159.171981,48.7688496 158.639706,51.5489758 C158.44165,52.583249 158.361189,53.6423447 158.204395,54.8793354" id="Fill-155" fill="#000000" sketch:type="MSShapeGroup"></path>
            <path d="M60.2223411,58.8861096 C60.4451542,61.269075 60.3275584,61.7179495 58.918472,61.9868606 C56.4324556,62.4646948 53.9113668,62.7625654 51.3964673,63.0583676 C50.2927173,63.188686 49.7109276,62.5598479 49.7294953,61.4366272 C49.7356846,61.0270551 49.7068014,60.5864547 49.842965,60.2161849 C51.5408832,55.6074637 50.5650444,50.9821941 49.9791285,46.354856 C49.8986682,45.7136067 49.7501262,45.0206437 49.9089836,44.4249023 C50.0265794,43.9863705 50.6021799,43.3658066 50.9549673,43.3761493 C51.3531425,43.3906292 52.0050771,43.9718907 52.075222,44.3876685 C52.3743692,46.1666183 52.6466963,47.9724593 52.6590748,49.770026 C52.6817687,52.8790511 52.5002173,55.9901448 52.4218201,59.0991699 C52.4156308,59.32671 52.5352897,59.5583872 52.566236,59.6742258 C55.0976402,59.4135889 57.5733411,59.1591577 60.2223411,58.8861096" id="Fill-156" fill="#000000" sketch:type="MSShapeGroup"></path>
            <path d="M135.304161,53.9857234 C135.59093,55.195823 135.807554,56.1142576 136.079881,57.2623008 C134.685236,57.493978 133.4969,57.6429133 132.331257,57.8973445 C130.330065,58.3338078 128.355694,58.8902467 126.348313,59.2977504 C123.732322,59.8272982 122.488283,58.679255 122.618257,55.9673908 C122.742042,53.3548168 122.913278,50.7443113 122.964855,48.1317373 C122.983423,47.2546737 122.797745,46.3403762 122.533671,45.4984779 C122.180883,44.3855999 122.370687,43.5871411 123.464121,43.0431134 C124.836072,43.5623185 125.170292,44.6669222 125.141409,46.0052717 C125.081579,48.561995 125.034129,51.1166497 125.005245,53.6713044 C124.996993,54.393227 125.071264,55.1151497 125.1084,55.8267296 C127.0085,56.5838176 128.656904,55.8681006 130.297056,55.4895566 C131.865,55.1254924 133.387556,54.571122 135.304161,53.9857234" id="Fill-157" fill="#000000" sketch:type="MSShapeGroup"></path>
            <path d="M85.6684206,43.6326491 C87.2941308,44.9875469 87.8965514,46.6258356 87.9316238,48.4895958 C87.9749486,50.7174202 87.9089299,52.9493817 87.9708224,55.1751375 C87.9976425,56.1969994 88.2163294,57.2105871 88.3545561,58.2614086 C90.7394813,58.1559128 92.7716192,57.9697436 94.7996308,58.0049089 C96.423278,58.0338685 97.085528,59.5087421 96.0498598,60.7560755 C95.7094509,61.1677162 94.8305771,61.5069578 94.3540047,61.3621596 C92.5157967,60.8057206 90.7704276,61.2856234 88.9879229,61.5214376 C86.4482664,61.8565421 84.9834766,59.7238709 85.3630841,57.1754218 C85.8066472,54.1987837 85.678736,51.1311295 85.7323762,48.1027777 C85.7406285,47.649766 85.4373551,47.1595206 85.189785,46.7396056 C84.3418575,45.306103 84.3253528,45.3143772 85.6684206,43.6326491" id="Fill-158" fill="#000000" sketch:type="MSShapeGroup"></path>
            <path d="M28.8696519,57.5188005 C29.3297196,54.9703515 29.7526519,52.6225514 30.173521,50.2747513 C30.3055584,50.2664771 30.4355327,50.2582029 30.565507,50.2478602 C31.3164696,52.7466642 32.0653692,55.2454681 32.872035,57.9325098 C31.6238692,57.8042599 30.4520374,57.6822157 28.8696519,57.5188005" id="Fill-245" fill="#FFFFFF" sketch:type="MSShapeGroup"></path>
            <path d="M146.760467,48.2475759 C146.069334,48.3778943 145.5515,48.475116 144.769591,48.6219828 C145.052234,47.0292021 145.287425,45.6949898 145.570068,44.1084147 C146.704764,45.3309256 146.733647,46.6341098 146.760467,48.2475759" id="Fill-246" fill="#FFFFFF" sketch:type="MSShapeGroup"></path>
            <path d="M71.5342313,52.651511 L68.4334159,52.651511 C68.8460327,50.8663556 69.2565864,49.0936114 69.6671402,47.3208672 C70.838972,48.9157164 71.1154252,50.7381057 71.5342313,52.651511" id="Fill-247" fill="#FFFFFF" sketch:type="MSShapeGroup"></path>
            <path d="M108.145722,46.9195692 C108.566591,48.206205 108.98746,49.4949093 109.470222,50.9718514 C108.477879,51.1518149 107.726916,51.2862705 106.678869,51.4765767 C107.02753,49.815534 107.328741,48.3737572 107.629951,46.934049 C107.80325,46.9278434 107.974486,46.9237063 108.145722,46.9195692" id="Fill-248" fill="#FFFFFF" sketch:type="MSShapeGroup"></path>
            <path d="M177.750054,45.6908527 C177.943984,44.700019 178.080147,43.9946447 178.261699,43.0617303 C179.643965,45.169579 179.643965,45.169579 177.750054,45.6908527" id="Fill-249" fill="#FFFFFF" sketch:type="MSShapeGroup"></path>
        </g>
    </g>
</svg>