<svg width="212" height="102" viewBox="0 0 212 102" xmlns="http://www.w3.org/2000/svg" xmlns:sketch="http://www.bohemiancoding.com/sketch/ns"><title>fa-la-la-hover</title><desc>Created with Sketch.</desc><g sketch:type="MSPage" fill="none"><path d="M66.713 96.347h2.983l.006.372h-3.022l.033-.372" sketch:type="MSShapeGroup"/><g sketch:type="MSLayerGroup"><path d="M205.381 46.611c-.926 1.374-1.316 2.813-1.176 4.381.303 3.363.71 6.717.951 10.084.097 1.369-.167 2.759-.19 4.141-.056 3.134-.283 6.284-.029 9.395.233 2.846.274 5.736 1.244 8.537.421 1.208-.023 2.755-.212 4.129-.124.883-.501 1.729-.825 2.786l-1.533-.645c-.468.587-.681 1.491-1.882 1.363-3.833-.41-7.617.968-11.533.211-1.948-.376-4.085.246-6.136.395-4.264.31-8.543.49-12.791.941-4.98.53-9.928 1.355-14.902 1.934-3.92.457-7.86.741-11.793 1.094-4.083.368-8.162.807-12.253 1.078-5.081.335-10.171.534-15.259.782-3.936.194-7.873.364-11.809.563-5.742.29-11.5 1.03-17.216.776-6.567-.292-13.09.314-19.636.176-3.103-.066-6.214.397-9.321.602-1.702.112-2.476 1.57-3.974 2.424-6.435-1.202-13.208-2.381-20.115-2.42-5.803-.033-11.609-.085-17.412-.006-1.708.023-3.408.482-5.119.685-.547.066-1.413.168-1.617-.118-.891-1.254-2.185-.813-3.322-1.117-2.042-.544-4.023-1.349-5.975-2.178-.394-.168-.718-.912-.759-1.417-.097-1.146-.062-2.313.037-3.459.196-2.29.551-4.569.679-6.861.066-1.206-.318-2.433-.314-3.649.019-6.332.243-12.668.111-18.998-.124-6.013-.664-12.014-.9-18.027-.136-3.463-.312-6.965.037-10.397.563-5.558.38-11.094.225-16.644-.01-.323-.002-.65-.002-1.038.943-.548 1.752-1.028 2.034-2.304.231-1.059 1.294-1.853 2.696-1.642.536.081 1.124-.054 1.671-.174 1.605-.35 3.154-.356 4.834-.219 3.588.294 7.233.13 10.839-.093 2.519-.155 5.015-.722 7.522-1.103.161-.023.382-.091.481-.014 2.304 1.779 4.896.552 7.318.573 3.503.031 7.006-.585 10.518-.71 7.807-.275 15.62-.408 23.428-.618 5.424-.147 10.848-.337 16.274-.492 4.341-.124 8.7-.505 13.022-.254 4.751.273 9.29-1.012 13.953-1.254 3.183-.168 6.36-.461 9.544-.631 5.828-.31 11.661-.53 17.489-.869 3.107-.18 6.204-.53 9.307-.801 2.096-.184 4.211.724 6.313-.151.402-.165 1.023-.058 1.448.132 1.417.637 2.676.832 4.139-.116.734-.478 1.91-.277 2.888-.364 2.284-.203 4.568-.395 7.047-.608-.179-1.655.722-2.296 2.1-2.497 4.632-.674 9.265-1.332 13.887-2.069.864-.137 1.492-.213 2.208.507.448.451 1.339.633 2.03.633 1.473.002 2.961-.103 4.417-.327 2.857-.434 4.681 1.121 5.368 3.874.92 3.692.099 7.341.295 10.998.159 2.954.305 5.91.505 8.86.033.47.262.962.518 1.369.637 1.007.611 2.071.184 3.072-.854 2.006-.687 3.8.188 5.842.992 2.315 1.391 4.886 2.049 7.345l.254.856c1.403.43 2.831-1.357 4.258.362-.51.393-.902.78-1.364 1.036-2.059 1.14-2.729 2.979-2.319 5.132.293 1.535-.421 2.122-1.714 2.637-2.203-1.456.429-3.696-.91-5.424zm-5.869-39.706c-.726.141-1.432.379-2.144.395-1.551.035-3.309.408-4.603-.188-1.49-.687-2.874-.71-4.285-.521-3.173.422-6.313 1.094-9.48 1.591-1.611.254-3.344.765-4.846.41-1.694-.401-3.363-.507-5.048-.612-1.62-.101-3.247-.062-4.871-.046-.9.01-1.799.083-2.696.151-3.274.25-6.546.509-9.818.769-1.391.11-2.783.225-4.174.35-3.423.306-6.841.645-10.266.916-1.803.143-3.621.093-5.42.259-2.686.246-5.356.751-8.046.889-5.42.277-10.85.368-16.276.563-3.594.128-7.186.364-10.78.432-1.886.037-3.782-.321-5.663-.254-7.4.261-14.794.616-22.193.945-2.135.093-4.275.165-6.406.333-2.047.159-4.083.592-6.127.623-4.19.06-8.384-.168-12.572-.089-3.617.07-7.229.356-10.837.625-3.344.246-6.678.681-10.025.871-2.381.134-4.78-.06-7.167.008-1.964.056-3.932.482-5.882.383-1.875-.095-3.711-.352-5.444.308.126 2.06.406 4.098.345 6.123-.155 5.207-.237 10.399.644 15.558.064.374.126.962-.076 1.131-1.366 1.144-1.108 2.687-1.029 4.125.202 3.769.534 7.532.763 11.3.095 1.547-.252 3.19.149 4.638.664 2.4.454 4.714.188 7.095-.256 2.292-.512 4.598-.518 6.899-.006 3.045.559 6.123.27 9.131-.293 3.066 1.962 6.036.163 9.077-.068.114.027.321.037.486.07 1.1.136 2.203.223 3.645.906.312 2.032.962 3.2 1.045 2.282.161 4.588.033 6.882-.052.338-.012.631-.569.996-.662.825-.207 1.574-.397 2.556-.184 1.886.405 3.932.534 5.832.248 1.116-.17 2.042-.019 3.084.122 2.909.395 5.931 1.247 8.733.803 3.22-.513 6.445-1.078 9.692-1.502 5.523-.72 11.04-1.502 16.554-2.292 5.529-.792 11.052-1.624 16.577-2.443 1.009-.149 1.824.008 2.075 1.258l-1.655.492c1.65.683 3.295 1.047 4.951 1.115 5.75.236 11.504.376 17.258.54 2.141.06 4.287.145 6.429.114 4.485-.062 8.96.459 13.46-.064 3.258-.379 6.571-.273 9.853-.478 4.677-.288 9.346-.683 14.023-.993 3.282-.217 6.585-.221 9.849-.583 6.53-.726 13.037-1.663 19.56-2.449 3.097-.372 6.286-.279 9.3-.976 3.668-.848 7.322-1.018 10.998-.741 2.354.178 4.26-.778 6.198-1.438-.241-2.038-.468-3.889-.677-5.744-.08-.73.116-1.597-.215-2.172-1.164-2.023-1.199-4.228-1.395-6.437-.097-1.094-.411-2.17-.627-3.256-.078-1.618 1.19-2.056 2.515-2.259.21-6.361.586-12.558-.475-19.142l-2.659 6.375c-.986-.079-1.698-.194-2.403-.172-.794.025-1.587.163-2.377.275-.891.128-1.774.35-2.672.412-2.447.165-2.915-.432-2.513-2.844.382-2.269.751-4.549.951-6.841.161-1.858.252-3.765-.91-5.591.625-.505 1.147-1.266 1.714-1.303 1.046-.068 1.162 1.051 1.316 1.808.21 1.034.32 2.12.27 3.173-.13 2.782-.371 5.562-.584 8.551 1.454-.345 2.639-.881 3.804-.848 2.045.058 2.769-1.105 3.196-2.753.536-2.071 1.046-4.15 1.599-6.216.167-.623.336-1.665.685-1.746 1.331-.314 1.19-1.336 1.077-2.108-.307-2.098-.594-4.143-.574-6.309.029-3.09-.803-6.177-1.015-9.284-.223-3.289-.38-6.617-.118-9.894.134-1.676.198-3.206-.413-4.871zm-132.799 89.442l-.033.372h3.022l-.006-.372h-2.983zm132.091-91.862l.052-.623-1.799.275.072.523 1.675-.176z" fill="#000" sketch:type="MSShapeGroup"/><path d="M199.511 6.906c.611 1.665.547 3.196.413 4.871-.262 3.277-.105 6.605.118 9.894.212 3.107 1.044 6.193 1.015 9.284-.021 2.166.266 4.212.574 6.309.113.772.254 1.793-1.077 2.108-.349.081-.518 1.123-.685 1.746-.553 2.066-1.062 4.145-1.599 6.216-.427 1.649-1.151 2.811-3.196 2.753-1.166-.033-2.35.503-3.804.848.212-2.989.454-5.769.584-8.551.05-1.053-.06-2.139-.27-3.173-.155-.757-.27-1.876-1.316-1.808-.567.037-1.089.798-1.714 1.303 1.162 1.827 1.071 3.734.91 5.591-.2 2.292-.569 4.571-.951 6.841-.402 2.412.066 3.01 2.513 2.844.897-.062 1.78-.283 2.672-.412.79-.112 1.582-.25 2.377-.275.706-.023 1.417.093 2.403.172l2.659-6.375c1.06 6.584.685 12.782.475 19.142-1.325.203-2.593.641-2.515 2.259.217 1.086.53 2.162.627 3.256.196 2.209.231 4.414 1.395 6.437.33.575.134 1.442.215 2.172.208 1.855.435 3.707.677 5.744-1.937.66-3.844 1.616-6.198 1.438-3.676-.277-7.33-.108-10.998.741-3.014.697-6.204.604-9.3.976-6.523.786-13.03 1.723-19.56 2.449-3.264.362-6.567.366-9.849.583-4.677.31-9.346.705-14.023.993-3.282.205-6.596.099-9.853.478-4.5.523-8.974.002-13.46.064-2.141.031-4.287-.054-6.429-.114-5.754-.163-11.508-.304-17.258-.54-1.657-.068-3.301-.432-4.951-1.115l1.655-.492c-.252-1.249-1.067-1.407-2.075-1.258-5.525.819-11.048 1.651-16.577 2.443-5.515.79-11.031 1.572-16.554 2.292-3.247.424-6.472.989-9.692 1.502-2.802.445-5.824-.408-8.733-.803-1.042-.141-1.968-.292-3.084-.122-1.9.285-3.947.157-5.832-.248-.982-.213-1.731-.023-2.556.184-.365.093-.658.65-.996.662-2.294.085-4.601.213-6.882.052-1.168-.083-2.294-.732-3.2-1.045-.087-1.442-.153-2.544-.223-3.645-.01-.165-.105-.372-.037-.486 1.799-3.041-.456-6.011-.163-9.077.289-3.008-.276-6.086-.27-9.131.006-2.3.262-4.607.518-6.899.266-2.381.477-4.696-.188-7.095-.4-1.448-.054-3.09-.149-4.638-.229-3.769-.561-7.532-.763-11.3-.078-1.438-.336-2.981 1.029-4.125.202-.17.14-.757.076-1.131-.881-5.159-.798-10.351-.644-15.558.062-2.025-.219-4.063-.345-6.123 1.733-.66 3.569-.403 5.444-.308 1.95.099 3.918-.327 5.882-.383 2.387-.068 4.786.126 7.167-.008 3.346-.19 6.68-.625 10.025-.871 3.608-.269 7.221-.554 10.837-.625 4.188-.079 8.382.149 12.572.089 2.045-.031 4.081-.463 6.127-.623 2.131-.168 4.271-.24 6.406-.333 7.398-.329 14.792-.685 22.193-.945 1.882-.066 3.778.292 5.663.254 3.594-.068 7.186-.304 10.78-.432 5.426-.194 10.856-.285 16.276-.563 2.69-.139 5.36-.643 8.046-.889 1.799-.165 3.617-.116 5.42-.259 3.425-.271 6.843-.61 10.266-.916 1.391-.124 2.783-.24 4.174-.35 3.272-.261 6.544-.519 9.818-.769.897-.068 1.797-.141 2.696-.151 1.624-.017 3.251-.056 4.871.046 1.686.105 3.355.211 5.048.612 1.502.356 3.235-.155 4.846-.41 3.167-.496 6.307-1.169 9.48-1.591 1.411-.188 2.795-.165 4.285.521 1.294.596 3.051.223 4.603.188.712-.017 1.417-.254 2.144-.395zm-163.394 58.521c.937-.927 1.799-1.905 1.112-3.105-1.935-3.378-3.037-7.025-3.961-10.771-.429-1.738-1.166-3.428-1.97-5.033-.528-1.051-1.463-1.047-2.162-.085-.411.567-.637 1.322-.772 2.027-.196 1.04-.163 2.124-.355 3.165-.46 2.495-1.36 4.969-1.393 7.461-.027 2.193-.192 4.114-1.411 5.982-.47.724-.083 1.601.914 1.847 2.445-1.243 1.842-3.901 2.8-5.835 1.615-.383 3.185-.852 4.79-.31 1.025 3.862 1.025 3.862 2.408 4.656zm-21.716-1.016c1.698.55 2.467.074 2.401-1.572-.039-.96-.179-1.918-.276-2.913 2.503-.98 5.659-.987 5.618-5.165-1.126.345-1.935.563-2.723.84-.77.271-1.496.683-2.28.881-.906.228-1.663-.103-1.896-1.094-.697-2.95-1.397-5.904-1.104-8.994 2.21-.939 4.297-1.314 6.311.008 1.287-1.576 1.374-2.197.673-3.37-.671-1.117-1.698-.796-2.647-.689-1.617.186-3.266.776-4.828.583-1.886-.232-2.447.695-2.82 1.702 2.327 6.561 2.47 13.141 3.571 19.782zm136.562-15.738c-1.64-.449-2.154-1.504-2.29-2.933-.116-1.216-.398-2.439-.776-3.603-.64-1.971-1.624-2.702-3.419-2.747-.677 2.848-1.166 5.771-2.084 8.551-.93 2.811-2.286 5.48-3.454 8.212-.324.101-.34.387-.21.565.355.484.904 1.361 1.139 1.291.6-.18 1.199-.707 1.562-1.254.446-.67.745-1.475.943-2.265.625-2.495 2.538-3.13 4.939-3.543l1.296 5.022 2.742.327c-.12-1.003.029-1.911-.34-2.472-1.63-2.464-1.696-2.608-.047-5.151zm-81.583-7.093c-1.873 2.975-1.335 6.185-2.457 8.938-1.164 2.859-2.038 5.837-3.08 8.886 1.454 1.38 2.063 1.301 2.932-.701.353-.809.555-1.682.836-2.553l4.337-.647c.219 1.659.367 3.037.592 4.402.223 1.367.648 1.545 1.972.871.345-.176.637-.453.955-.685-.396-1.525-.817-2.923-1.108-4.35-.136-.674.105-1.427-.047-2.093-.303-1.332-.815-2.615-1.143-3.941-.689-2.782-1.537-5.478-3.788-8.127zm40.903 12.544c.116.614.217 1.08.291 1.549.155.956.413 1.897 1.64 1.694 1.073-.178 1.661-1.175 1.337-2.027-.594-1.56 1.18-3.955-1.636-4.768-.243-.07-.256-.892-.406-1.353-.479-1.485-.858-3.016-1.502-4.429-.462-1.016-1.281-1.87-1.954-2.815l-1.71.811c-1.277 5.734-2.018 11.36-4.807 16.701l2.552.552 2.179-6.756 1.209 1.053 2.808-.213zm63.857-5.997c-.367 3.132-3.169 5.093-2.866 8.16 1.327.612 1.783-.006 2.195-.964.842-1.959 1.731-3.903 2.717-5.792.252-.488.891-.958 1.43-1.072 1.003-.209 2.061-.151 3.303-.215.179 2.344.355 4.605.532 6.89 2.139.664 2.56.42 2.43-1.607-.064-.978-.177-1.978-.441-2.919-.411-1.456-.563-2.846.53-4.249-1.807-.774-2.373-2.203-2.958-3.777-.518-1.396-1.215-2.877-2.864-3.835-.411.499-.918.908-1.143 1.438-.384.9-.734 1.86-.838 2.821-.177 1.636-.864 2.739-2.721 3.012l.693 2.108zm-15.935 6.752c.157-1.237.237-2.296.435-3.33.532-2.78.72-5.546-.039-8.318-.365-1.336-1.044-1.864-2.063-1.442-1.036.43-.897 1.285-.51 2.064 1.178 2.368.866 4.807.427 7.261-.202 1.131-.448 2.259-.64 3.392-.479 2.824.287 3.866 3.126 3.926 2.284.048 4.582-.304 6.856-.172 2.129.126 3.078-.985 3.78-2.567-.423-1.318-1.234-1.574-2.335-1.187-.538.19-1.071.393-1.605.598-2.397.916-4.774.995-7.431-.225zm-97.982 4.007l-7.656.788c-.031-.116-.151-.348-.144-.575.078-3.109.26-6.22.237-9.329-.012-1.798-.285-3.603-.584-5.382-.07-.416-.722-.997-1.12-1.012-.353-.01-.928.61-1.046 1.049-.159.596-.01 1.289.07 1.93.586 4.627 1.562 9.253-.136 13.861-.136.37-.107.811-.113 1.22-.019 1.123.563 1.752 1.667 1.622 2.515-.296 5.036-.594 7.522-1.072 1.409-.269 1.527-.718 1.304-3.101zm75.082-4.9c-1.917.585-3.439 1.14-5.007 1.504-1.64.379-3.289 1.094-5.189.337-.037-.712-.111-1.434-.103-2.155.029-2.555.076-5.109.136-7.666.029-1.338-.305-2.443-1.677-2.962-1.093.544-1.283 1.342-.93 2.455.264.842.45 1.756.431 2.633-.052 2.613-.223 5.223-.347 7.836-.13 2.712 1.114 3.86 3.73 3.33 2.007-.408 3.982-.964 5.983-1.4 1.166-.254 2.354-.403 3.749-.635l-.776-3.277zm-49.636-10.353c-1.343 1.682-1.327 1.673-.479 3.107.248.42.551.91.543 1.363-.054 3.028.074 6.096-.369 9.073-.38 2.548 1.085 4.681 3.625 4.346 1.783-.236 3.528-.716 5.366-.159.477.145 1.355-.194 1.696-.606 1.036-1.247.373-2.722-1.25-2.751-2.028-.035-4.06.151-6.445.256-.138-1.051-.357-2.064-.384-3.086-.062-2.226.004-4.458-.039-6.686-.035-1.864-.637-3.502-2.263-4.857z" fill="#fff" sketch:type="MSShapeGroup"/><path d="M198.804 4.485l-1.675.176-.072-.523 1.799-.275-.052.623" fill="#fff" sketch:type="MSShapeGroup"/><path d="M36.117 65.427c-1.382-.794-1.382-.794-2.408-4.656-1.605-.542-3.175-.072-4.79.31-.957 1.934-.355 4.592-2.8 5.835-.996-.246-1.384-1.123-.914-1.847 1.219-1.868 1.384-3.79 1.411-5.982.033-2.493.933-4.967 1.393-7.461.192-1.04.159-2.124.355-3.165.134-.705.361-1.46.772-2.027.699-.962 1.634-.966 2.162.085.805 1.605 1.541 3.295 1.97 5.033.924 3.746 2.026 7.393 3.961 10.771.687 1.2-.175 2.178-1.112 3.105zm-7.248-7.908l4.002.414-2.307-7.685-.392.027c-.421 2.348-.844 4.696-1.304 7.244z" fill="#000" sketch:type="MSShapeGroup"/><path d="M14.401 64.411c-1.102-6.64-1.244-13.22-3.571-19.782.373-1.007.935-1.934 2.82-1.702 1.562.192 3.21-.397 4.828-.583.949-.108 1.976-.428 2.647.689.701 1.173.615 1.793-.673 3.37-2.014-1.322-4.101-.947-6.311-.008-.293 3.09.406 6.044 1.104 8.994.233.991.99 1.322 1.896 1.094.784-.199 1.51-.61 2.28-.881.788-.277 1.597-.494 2.723-.84.041 4.178-3.115 4.185-5.618 5.165.097.995.237 1.953.276 2.913.066 1.647-.704 2.122-2.401 1.572" fill="#000" sketch:type="MSShapeGroup"/><path d="M150.963 48.674c-1.648 2.542-1.582 2.687.047 5.151.369.561.221 1.469.34 2.472l-2.742-.327c-.435-1.692-.858-3.328-1.296-5.022-2.401.414-4.314 1.049-4.939 3.543-.198.79-.497 1.595-.943 2.265-.363.546-.961 1.074-1.562 1.254-.235.07-.784-.807-1.139-1.291-.13-.178-.113-.463.21-.565 1.168-2.733 2.523-5.401 3.454-8.212.918-2.78 1.407-5.703 2.084-8.551 1.795.046 2.779.776 3.419 2.747.378 1.165.66 2.387.776 3.603.136 1.429.65 2.484 2.29 2.933zm-4.203-.426c-.027-1.613-.056-2.917-1.19-4.139-.283 1.587-.518 2.921-.8 4.514l1.991-.374z" fill="#000" sketch:type="MSShapeGroup"/><path d="M69.38 41.581c2.251 2.65 3.099 5.345 3.788 8.127.328 1.326.84 2.608 1.143 3.941.153.666-.089 1.419.047 2.093.291 1.427.712 2.826 1.108 4.35-.318.232-.611.509-.955.685-1.325.674-1.749.496-1.972-.871-.225-1.365-.373-2.743-.592-4.402l-4.337.647c-.281.871-.483 1.744-.836 2.553-.869 2.002-1.477 2.081-2.932.701 1.042-3.049 1.917-6.028 3.08-8.886 1.122-2.753.584-5.964 2.457-8.938zm2.154 11.071c-.419-1.913-.695-3.736-1.867-5.331l-1.234 5.331h3.101z" fill="#000" sketch:type="MSShapeGroup"/><path d="M110.283 54.124l-2.808.213-1.209-1.053c-.726 2.255-1.419 4.402-2.179 6.756l-2.552-.552c2.789-5.341 3.53-10.967 4.807-16.701l1.71-.811c.673.945 1.492 1.8 1.954 2.815.644 1.413 1.023 2.944 1.502 4.429.151.461.163 1.282.406 1.353 2.816.813 1.042 3.208 1.636 4.768.324.852-.264 1.849-1.337 2.027-1.228.203-1.485-.738-1.64-1.694-.074-.47-.175-.935-.291-1.549zm-2.137-7.205l-.516.014-.951 4.543 2.791-.505-1.325-4.052z" fill="#000" sketch:type="MSShapeGroup"/><path d="M174.14 48.128l-.693-2.108c1.857-.273 2.544-1.376 2.721-3.012.103-.962.454-1.922.838-2.821.225-.53.732-.939 1.143-1.438 1.648.958 2.346 2.439 2.864 3.835.586 1.574 1.151 3.004 2.958 3.777-1.093 1.402-.941 2.793-.53 4.249.264.941.378 1.94.441 2.919.13 2.027-.291 2.271-2.43 1.607-.177-2.286-.353-4.547-.532-6.89-1.242.064-2.3.006-3.303.215-.538.114-1.178.583-1.43 1.072-.986 1.889-1.875 3.833-2.717 5.792-.413.958-.869 1.576-2.195.964-.303-3.068 2.498-5.029 2.866-8.16zm3.61-2.437c1.894-.521 1.894-.521.512-2.629l-.512 2.629z" fill="#000" sketch:type="MSShapeGroup"/><path d="M158.204 54.879c2.657 1.22 5.034 1.142 7.431.225.534-.205 1.067-.408 1.605-.598 1.102-.387 1.912-.13 2.335 1.187-.701 1.582-1.65 2.693-3.78 2.567-2.274-.132-4.572.219-6.856.172-2.839-.06-3.604-1.103-3.126-3.926.192-1.134.437-2.261.64-3.392.439-2.453.751-4.892-.427-7.261-.388-.78-.526-1.634.51-2.064 1.019-.422 1.698.105 2.063 1.442.759 2.772.571 5.537.039 8.318-.198 1.034-.279 2.093-.435 3.33" fill="#000" sketch:type="MSShapeGroup"/><path d="M60.222 58.886c.223 2.383.105 2.832-1.304 3.101-2.486.478-5.007.776-7.522 1.072-1.104.13-1.686-.499-1.667-1.622.006-.41-.023-.85.113-1.22 1.698-4.609.722-9.234.136-13.861-.08-.641-.229-1.334-.07-1.93.118-.439.693-1.059 1.046-1.049.398.014 1.05.596 1.12 1.012.299 1.779.571 3.585.584 5.382.023 3.109-.159 6.22-.237 9.329-.006.228.113.459.144.575l7.656-.788" fill="#000" sketch:type="MSShapeGroup"/><path d="M135.304 53.986l.776 3.277c-1.395.232-2.583.381-3.749.635-2.001.436-3.976.993-5.983 1.4-2.616.53-3.86-.618-3.73-3.33.124-2.613.295-5.223.347-7.836.019-.877-.167-1.791-.431-2.633-.353-1.113-.163-1.911.93-2.455 1.372.519 1.706 1.624 1.677 2.962-.06 2.557-.107 5.111-.136 7.666-.008.722.066 1.444.103 2.155 1.9.757 3.549.041 5.189-.337 1.568-.364 3.09-.918 5.007-1.504" fill="#000" sketch:type="MSShapeGroup"/><path d="M85.668 43.633c1.626 1.355 2.228 2.993 2.263 4.857.043 2.228-.023 4.46.039 6.686.027 1.022.246 2.035.384 3.086 2.385-.105 4.417-.292 6.445-.256 1.624.029 2.286 1.504 1.25 2.751-.34.412-1.219.751-1.696.606-1.838-.556-3.584-.077-5.366.159-2.54.335-4.004-1.798-3.625-4.346.444-2.977.316-6.044.369-9.073.008-.453-.295-.943-.543-1.363-.848-1.434-.864-1.425.479-3.107" fill="#000" sketch:type="MSShapeGroup"/><path d="M28.87 57.519c.46-2.548.883-4.896 1.304-7.244l.392-.027 2.307 7.685-4.002-.414" fill="#fff" sketch:type="MSShapeGroup"/><path d="M146.76 48.248l-1.991.374.8-4.514c1.135 1.223 1.164 2.526 1.19 4.139" fill="#fff" sketch:type="MSShapeGroup"/><path d="M71.534 52.652h-3.101l1.234-5.331c1.172 1.595 1.448 3.417 1.867 5.331" fill="#fff" sketch:type="MSShapeGroup"/><path d="M108.146 46.92l1.325 4.052-2.791.505c.349-1.661.65-3.103.951-4.543l.516-.014" fill="#fff" sketch:type="MSShapeGroup"/><path d="M177.75 45.691l.512-2.629c1.382 2.108 1.382 2.108-.512 2.629" fill="#fff" sketch:type="MSShapeGroup"/></g></g></svg>