<?xml version="1.0" encoding="UTF-8" standalone="no"?>
<svg width="196px" height="105px" viewBox="0 0 196 105" version="1.1" xmlns="http://www.w3.org/2000/svg" xmlns:xlink="http://www.w3.org/1999/xlink" xmlns:sketch="http://www.bohemiancoding.com/sketch/ns">
    <!-- Generator: Sketch 3.1.1 (8761) - http://www.bohemiancoding.com/sketch -->
    <title>fog-horn-hover</title>
    <desc>Created with Sketch.</desc>
    <defs></defs>
    <g id="Page-1" stroke="none" stroke-width="1" fill="none" fill-rule="evenodd" sketch:type="MSPage">
        <g id="Group" sketch:type="MSLayerGroup">
            <path d="M196.42243,95.2253322 C195.993308,95.1508646 195.595133,95.080534 195.196958,95.012272 C194.196362,96.9567055 194.200488,96.8987862 191.931096,96.7002058 C189.313042,96.4726657 186.686736,96.3588956 184.062493,96.2037546 C183.736526,96.1851377 183.363107,96.129287 183.084591,96.2533998 C180.895659,97.2194109 178.698474,96.443706 176.4951,96.4188835 C173.87911,96.3899238 171.246614,96.6153954 168.647129,96.9298144 C164.576664,97.4221284 160.524766,98.0675149 156.470806,98.6798046 C155.012206,98.8990705 153.576299,99.343808 152.111509,99.4534409 C149.990659,99.612719 147.853304,99.5361828 145.724201,99.6044448 C143.687937,99.6665012 141.591843,99.5134288 139.62985,99.9478235 C137.230484,100.47944 134.876505,101.000714 132.402867,101.135169 C129.054481,101.31927 125.70197,101.455794 122.423729,102.508684 C120.670107,103.071328 118.675105,102.849994 116.803888,103.089945 C114.608766,103.371268 112.376509,103.576054 110.257722,104.165589 C107.123897,105.038516 104.051965,104.240057 100.953213,104.246263 C95.1064322,104.254537 89.2575888,104.277291 83.4108084,104.291771 C80.897972,104.297976 78.3810093,104.192481 75.8764252,104.322799 C72.1958832,104.515174 68.5256565,104.891649 64.8471776,105.154355 C63.6196425,105.243302 62.3714766,105.350866 61.1521939,105.239165 C53.6962079,104.556545 46.2216542,104.79029 38.7553528,104.647561 C38.097229,104.637218 37.2926262,104.794428 36.8098645,104.480008 C34.6168061,103.05478 32.0957173,103.52434 29.8180724,103.516066 C27.7405467,103.507792 25.759986,103.127179 23.7319743,102.982381 C23.2450864,102.949284 22.7561355,102.8562 22.2713107,102.868611 C17.837743,102.984449 13.4000491,103.261635 8.97267056,103.166482 C7.53057477,103.135453 6.10910981,102.146688 4.96409813,101.706088 C4.48958879,100.272585 3.94699766,99.1555702 3.7736986,97.9806359 C3.56326402,96.5492019 3.64785047,95.0701913 3.63340888,93.6118661 C3.59421028,89.7747127 3.5653271,85.9375593 3.54882243,82.1004058 C3.54263318,81.1943826 3.52200234,80.2780165 3.6437243,79.3864731 C3.93049299,77.2641446 4.0336472,75.2328321 3.62721963,73.040173 C3.14033178,70.408982 3.55501168,67.6185131 3.47867757,64.8983747 C3.39821729,62.0272324 3.10938551,59.1602272 3.08050234,56.2890849 C3.0598715,54.0840145 3.3713972,51.8789441 3.40853271,49.6697367 C3.44360514,47.5308598 3.3837757,45.3837087 3.24967523,43.2489689 C3.01860981,39.5524766 2.68645327,35.86219 2.41618925,32.1677662 C2.21194393,29.3752287 2.33572897,26.5164977 1.77663318,23.7984278 C1.08962617,20.4680683 1.68998364,16.9143057 0.0106331776,13.7452927 C-0.214242991,13.3233093 0.037453271,12.2724878 0.425313084,11.9725485 C1.35163785,11.254763 2.43475701,10.5287032 3.5529486,10.3094373 C6.76723364,9.68059922 10.0207173,9.25654722 13.325778,9.40134546 C17.1837453,9.57096626 21.0437757,9.65991375 24.901743,9.78195799 C26.791528,9.84194583 28.6875023,10.0239779 30.5710981,9.93916751 C34.5219042,9.75713543 38.4005023,10.4666468 42.3141729,10.7003926 C45.8337944,10.9113843 49.3822991,10.6507474 52.9184252,10.6341991 C54.139771,10.6279934 55.3693692,10.8493279 56.5824626,10.7707231 C60.5724673,10.5080177 64.5542196,10.1460221 68.5421612,9.83780874 C70.401,9.69507904 72.2680911,9.63302265 74.1248668,9.45512767 C79.0205654,8.98349911 83.9100748,8.44774561 88.8078364,7.98025414 C91.5888738,7.71548021 94.3781636,7.54379087 97.161264,7.31418223 C97.9761822,7.2459202 98.7869743,7.10939614 99.6018925,7.03492847 C102.186937,6.80118274 104.796738,6.71430379 107.359089,6.31921145 C110.589879,5.82069178 113.771154,5.01189017 116.993692,4.45958831 C119.48796,4.03346776 122.009049,3.61355286 124.530138,3.51219409 C130.356287,3.2805169 136.174185,3.12951302 141.942568,2.09523986 C144.273853,1.67739351 146.683535,1.66705078 149.060208,1.53259526 C152.491117,1.33608336 155.942657,1.35676883 159.352935,0.986499037 C163.010783,0.589338143 166.631495,0.19217725 170.338857,0.301810205 C175.581154,0.456951179 180.835829,0.202519982 186.086379,0.17562888 C187.922523,0.167354694 189.762794,0.268713464 191.59275,0.409374614 C192.22818,0.459019725 192.929629,0.649325987 193.447463,1.00304741 C195.720981,2.55445715 196.096463,3.10055337 195.120624,5.67796209 C194.565654,7.14456143 194.289201,8.57185839 194.619294,10.0219094 C195.376446,13.3439947 194.687376,16.5109392 193.651708,19.5930732 C193.071981,21.3182408 192.904871,22.9275698 193.354624,24.6651488 C193.938477,26.9281384 193.975612,29.1766483 193.290668,31.4644605 C192.878051,32.8441809 192.779023,34.2673408 192.94407,35.7918594 C193.171009,37.8935025 192.706815,40.061339 192.731572,42.1981474 C192.779023,46.2297441 192.898682,50.2634094 193.107054,54.2888006 C193.410327,60.2089801 193.616636,66.1477766 194.254129,72.0348595 C194.648178,75.6734324 194.433617,79.2789087 194.588348,82.8947276 C194.73689,86.3429943 195.304238,89.7767812 195.737486,93.2105681 C195.81382,93.8269949 196.137724,94.4123935 196.42243,95.2253322 L196.42243,95.2253322 Z M192.358154,93.6677169 C192.426236,92.7885847 192.539706,92.2259401 192.500507,91.6715697 C192.240558,87.8199364 191.974421,83.9662346 191.658769,80.1166699 C191.163629,74.0496236 190.924311,67.9680974 190.379657,61.8948454 C189.768984,55.1017393 190.041311,48.2196857 190.082572,41.3769345 C190.103203,38.342377 190.476621,35.3078196 190.734507,32.2773992 C191.074916,28.3057903 190.165096,24.4334716 189.845318,20.5156448 C189.622505,17.8058492 189.090229,15.098122 189.152121,12.3986691 C189.205762,9.93916751 188.236112,7.20868636 190.565334,5.10911185 C189.117049,4.4368343 188.20104,5.43387362 187.148867,5.59935733 C185.977035,5.78345795 185.483958,7.62032708 184.054241,6.85496494 C183.468325,4.92501123 186.21429,5.83310306 186.045117,4.00037102 C173.536638,4.36650372 161.007528,3.84109296 148.554752,4.92294268 C135.986444,6.01513514 123.482091,7.84993572 110.99218,9.35583744 C110.565121,10.9941261 110.585752,11.0954849 109.255063,11.368533 C107.171348,11.792585 105.062876,12.0925242 102.956467,12.3883263 C100.629308,12.7172252 98.1948692,12.3614352 95.9935584,13.534301 C95.6593388,13.7142645 95.1662617,13.7825266 94.805222,13.6853049 C92.721507,13.1226603 90.7368201,13.8094177 88.7294393,14.1093569 C85.8328692,14.5416831 83.0456425,15.2863597 79.992278,15.02986 C76.0868598,14.7030297 72.117486,15.185001 68.1728692,15.2449888 C62.2394393,15.3360049 56.3039463,15.3918556 50.3684533,15.4063354 C47.4038014,15.4146096 44.4226449,15.4683918 41.4786238,15.1891381 C38.1116706,14.8726505 34.7736005,14.6140822 31.4128364,15.1581099 C30.9383271,15.2346461 30.4349346,15.1663841 29.9480467,15.120876 C27.0060888,14.8436908 24.0641308,14.5644371 21.124236,14.2624293 C20.2288575,14.1714133 19.2777757,14.1714133 18.4607944,13.8507886 C14.9391098,12.4669311 11.3534696,13.9852441 7.80702804,13.5384381 C6.74453972,13.4039826 5.72743925,14.2086471 5.58302336,15.4683918 C5.41797664,16.9225799 5.23642523,18.403659 5.33751636,19.85371 C5.60984346,23.7094804 6.05134346,27.5528394 6.37731075,31.4044727 C6.52172664,33.1234346 6.44539252,34.8630821 6.64963785,36.5737699 C7.19429206,41.1287089 7.2788785,45.6939906 7.12621028,50.2716836 C7.11383178,50.6709131 7.11589486,51.2749286 6.88070327,51.428001 C5.67173598,52.2140486 6.38762617,53.1779912 6.52791589,54.0881516 C6.6166285,54.6549333 6.81468458,55.2134408 6.83118925,55.7802225 C6.93434346,59.2243521 6.90133411,62.6726188 7.0973271,66.1105428 C7.38409579,71.1102193 8.01127336,76.099553 7.23555374,81.1116407 C7.14890421,81.6722168 7.0973271,82.2679581 7.1881028,82.82026 C7.60897196,85.4038743 7.23349065,87.9150895 6.63725935,90.4200991 C6.42063551,91.3323281 6.63313318,92.0625249 7.24586916,92.9044233 C8.19076168,94.1993333 9.20786215,95.6286988 8.51879206,97.4821163 C10.2394042,98.4150307 11.8898715,99.0376631 13.7342687,99.1721186 C16.1088785,99.3458765 18.4731729,99.6168561 20.8436565,99.8423276 C22.5601425,100.003674 24.2766285,100.249831 25.9951776,100.293271 C27.9695491,100.342916 29.9501098,100.204323 31.9265444,100.154678 C36.3621752,100.040908 40.721472,101.157923 45.1323458,101.102072 C53.9293364,100.992439 62.7015701,102.171511 71.5274439,101.228254 C76.9141565,100.653198 82.3813294,100.878669 87.8051776,100.628375 C91.126743,100.473234 94.4400561,100.133993 97.749243,99.813368 C100.771661,99.5217029 103.78789,99.143159 106.783488,98.8059859 C107.396224,96.4912826 107.949131,96.0941217 109.906998,96.2347828 C113.490575,96.489214 117.078278,96.7436452 120.670107,96.8698266 C123.362432,96.9649797 126.063009,96.8946491 128.757397,96.82225 C129.887967,96.7932903 131.010285,96.4954197 132.142918,96.4457746 C133.597393,96.3795811 135.062182,96.5202422 136.514593,96.4271576 C138.398189,96.3092505 140.269407,95.9762146 142.153002,95.8645131 C146.501984,95.6080133 150.855091,95.4528723 155.204072,95.2046468 C157.077353,95.0991509 158.940318,94.8447197 160.809472,94.6916473 C163.155199,94.501341 165.515367,93.160923 167.848715,94.766115 C167.966311,94.8467883 168.172619,94.8178286 168.335603,94.8095544 C170.710213,94.6647562 173.086886,94.5075467 175.461495,94.3730912 C176.165007,94.3337888 176.567308,94.1538252 176.922159,93.3863946 C177.444119,92.2652425 180.152949,91.8742872 180.60889,92.8589152 C181.106093,93.9324908 181.7931,93.7835555 182.558505,93.8518175 C183.944897,93.9759303 185.339542,94.1951962 186.723871,94.1558938 C188.58271,94.1041801 190.437423,93.8456118 192.358154,93.6677169 L192.358154,93.6677169 Z M192.58922,17.7189702 C193.779619,17.2969868 193.90753,16.8460437 192.795528,16.2999474 C192.713005,16.8729348 192.651112,17.2969868 192.58922,17.7189702 L192.58922,17.7189702 Z" id="Fill-8" fill="#000000" sketch:type="MSShapeGroup"></path>
            <path d="M192.358154,93.6677169 C190.437423,93.8456118 188.58271,94.1041801 186.723871,94.1558938 C185.339542,94.1951962 183.944897,93.9759303 182.558505,93.8518175 C181.7931,93.7835555 181.106093,93.9324908 180.60889,92.8589152 C180.152949,91.8742872 177.444119,92.2652425 176.922159,93.3863946 C176.567308,94.1538252 176.165007,94.3337888 175.461495,94.3730912 C173.086886,94.5075467 170.710213,94.6647562 168.335603,94.8095544 C168.172619,94.8178286 167.966311,94.8467883 167.848715,94.766115 C165.515367,93.160923 163.155199,94.501341 160.809472,94.6916473 C158.940318,94.8447197 157.077353,95.0991509 155.204072,95.2046468 C150.855091,95.4528723 146.501984,95.6080133 142.153002,95.8645131 C140.269407,95.9762146 138.398189,96.3092505 136.514593,96.4271576 C135.062182,96.5202422 133.597393,96.3795811 132.142918,96.4457746 C131.010285,96.4954197 129.887967,96.7932903 128.757397,96.82225 C126.063009,96.8946491 123.362432,96.9649797 120.670107,96.8698266 C117.078278,96.7436452 113.490575,96.489214 109.906998,96.2347828 C107.949131,96.0941217 107.396224,96.4912826 106.783488,98.8059859 C103.78789,99.143159 100.771661,99.5217029 97.749243,99.813368 C94.4400561,100.133993 91.126743,100.473234 87.8051776,100.628375 C82.3813294,100.878669 76.9141565,100.653198 71.5274439,101.228254 C62.7015701,102.171511 53.9293364,100.992439 45.1323458,101.102072 C40.721472,101.157923 36.3621752,100.040908 31.9265444,100.154678 C29.9501098,100.204323 27.9695491,100.342916 25.9951776,100.293271 C24.2766285,100.249831 22.5601425,100.003674 20.8436565,99.8423276 C18.4731729,99.6168561 16.1088785,99.3458765 13.7342687,99.1721186 C11.8898715,99.0376631 10.2394042,98.4150307 8.51879206,97.4821163 C9.20786215,95.6286988 8.19076168,94.1993333 7.24586916,92.9044233 C6.63313318,92.0625249 6.42063551,91.3323281 6.63725935,90.4200991 C7.23349065,87.9150895 7.60897196,85.4038743 7.1881028,82.82026 C7.0973271,82.2679581 7.14890421,81.6722168 7.23555374,81.1116407 C8.01127336,76.099553 7.38409579,71.1102193 7.0973271,66.1105428 C6.90133411,62.6726188 6.93434346,59.2243521 6.83118925,55.7802225 C6.81468458,55.2134408 6.6166285,54.6549333 6.52791589,54.0881516 C6.38762617,53.1779912 5.67173598,52.2140486 6.88070327,51.428001 C7.11589486,51.2749286 7.11383178,50.6709131 7.12621028,50.2716836 C7.2788785,45.6939906 7.19429206,41.1287089 6.64963785,36.5737699 C6.44539252,34.8630821 6.52172664,33.1234346 6.37731075,31.4044727 C6.05134346,27.5528394 5.60984346,23.7094804 5.33751636,19.85371 C5.23642523,18.403659 5.41797664,16.9225799 5.58302336,15.4683918 C5.72743925,14.2086471 6.74453972,13.4039826 7.80702804,13.5384381 C11.3534696,13.9852441 14.9391098,12.4669311 18.4607944,13.8507886 C19.2777757,14.1714133 20.2288575,14.1714133 21.124236,14.2624293 C24.0641308,14.5644371 27.0060888,14.8436908 29.9480467,15.120876 C30.4349346,15.1663841 30.9383271,15.2346461 31.4128364,15.1581099 C34.7736005,14.6140822 38.1116706,14.8726505 41.4786238,15.1891381 C44.4226449,15.4683918 47.4038014,15.4146096 50.3684533,15.4063354 C56.3039463,15.3918556 62.2394393,15.3360049 68.1728692,15.2449888 C72.117486,15.185001 76.0868598,14.7030297 79.992278,15.02986 C83.0456425,15.2863597 85.8328692,14.5416831 88.7294393,14.1093569 C90.7368201,13.8094177 92.721507,13.1226603 94.805222,13.6853049 C95.1662617,13.7825266 95.6593388,13.7142645 95.9935584,13.534301 C98.1948692,12.3614352 100.629308,12.7172252 102.956467,12.3883263 C105.062876,12.0925242 107.171348,11.792585 109.255063,11.368533 C110.585752,11.0954849 110.565121,10.9941261 110.99218,9.35583744 C123.482091,7.84993572 135.986444,6.01513514 148.554752,4.92294268 C161.007528,3.84109296 173.536638,4.36650372 186.045117,4.00037102 C186.21429,5.83310306 183.468325,4.92501123 184.054241,6.85496494 C185.483958,7.62032708 185.977035,5.78345795 187.148867,5.59935733 C188.20104,5.43387362 189.117049,4.4368343 190.565334,5.10911185 C188.236112,7.20868636 189.205762,9.93916751 189.152121,12.3986691 C189.090229,15.098122 189.622505,17.8058492 189.845318,20.5156448 C190.165096,24.4334716 191.074916,28.3057903 190.734507,32.2773992 C190.476621,35.3078196 190.103203,38.342377 190.082572,41.3769345 C190.041311,48.2196857 189.768984,55.1017393 190.379657,61.8948454 C190.924311,67.9680974 191.163629,74.0496236 191.658769,80.1166699 C191.974421,83.9662346 192.240558,87.8199364 192.500507,91.6715697 C192.539706,92.2259401 192.426236,92.7885847 192.358154,93.6677169 L192.358154,93.6677169 Z M63.582507,60.7695562 C63.361757,62.0727404 63.2338458,63.442118 62.8748692,64.7473708 C62.6603084,65.5313498 62.086771,66.1291597 61.0511028,66.0815831 C60.0649486,66.0340066 59.3304907,65.7878496 58.8167827,64.8632094 C57.9771075,63.3531706 57.7295374,61.7231561 57.8966472,60.0703875 C58.2061098,57.0420357 58.5939696,54.017821 59.0891098,51.0163603 C59.2046425,50.310986 59.8256308,49.6573254 60.3063294,49.0553784 C61.1893294,47.9528432 61.0634813,47.0985336 59.7389813,45.911188 C58.6971238,44.9803421 57.9853598,44.9886163 57.1601262,46.3559255 C56.5969042,47.2888398 56.3761542,48.4699798 56.1698458,49.572515 C55.3611168,53.8647486 54.7896425,58.194216 55.0970421,62.5691915 C55.2022593,64.0812989 55.1878178,65.7340674 56.3039463,66.9793323 C57.8099977,68.6589919 59.7843692,69.2754187 61.913472,68.7624192 C63.9311682,68.2742422 64.9895304,66.656639 65.445472,64.6853144 C65.6290864,63.8909926 65.6992313,63.0656426 65.7796916,62.2506354 C65.8498364,61.5307812 65.8601519,60.8026529 65.8807827,60.4075606 C67.9335514,58.45899 70.8012383,59.6566783 72.6456355,57.8860026 C71.5769579,55.8153878 70.3122874,55.3023883 68.2141308,55.8009079 C66.231507,56.2725365 64.2034953,56.5455846 62.2146822,56.9965277 C61.4059533,57.1785598 60.6529276,57.5984747 59.8627664,57.9149623 C60.8386051,60.0890045 60.8386051,60.0890045 63.582507,60.7695562 L63.582507,60.7695562 Z M101.990944,56.384238 C101.662914,58.974058 103.305129,61.2577331 101.609273,63.4565979 C103.6476,65.2272735 104.06228,64.4495001 105.489935,62.0996315 C104.443951,59.0299087 104.138614,56.0967101 103.420661,53.2710758 C102.677951,50.3482198 101.714491,47.4812146 100.874815,44.6866086 C97.870965,44.7776246 97.2644182,45.7953494 98.5290888,48.0066254 C98.5703505,48.0790245 98.6095491,48.1514237 98.657,48.2176171 C99.9423014,50.0007041 100.247638,52.1147584 100.852121,54.309486 C98.5290888,54.4729012 96.3896706,54.6218365 94.1883598,54.774909 C94.1264673,53.502753 94.120278,52.2657623 93.9944299,51.0391143 C93.8417617,49.5683779 93.6870304,48.0831616 93.3548738,46.6475905 C93.0371589,45.2740757 91.863264,44.5893869 90.8482266,44.9637938 C89.8600093,45.3299265 89.6227547,46.1842361 90.0209299,47.6094645 C91.4341425,52.6505119 92.0551308,57.7660269 91.5084136,63.0077233 C91.3743131,64.2943591 91.2794112,65.6637368 92.4904416,66.6959414 C94.3719743,66.5035666 94.6195444,64.6480806 95.6139509,63.5869163 C95.7480514,63.4441866 95.4757243,62.8463767 95.3106776,62.4988609 C94.8423575,61.5142329 94.3348388,60.5482217 93.9387266,59.7683798 C95.9626121,56.5704072 99.0902477,57.3626604 101.990944,56.384238 L101.990944,56.384238 Z M134.012072,45.7498414 C133.927486,48.1886575 132.470949,49.5683779 130.857617,50.8922475 C128.998778,52.4229718 129.141131,54.3570626 131.119629,55.6250815 C133.069243,56.8744835 134.810486,58.3286715 136.007075,60.3744639 C136.419692,61.0777696 136.974661,61.7128133 137.531694,62.3168288 C138.076348,62.9063645 138.800491,63.1876868 139.524633,62.6974414 C140.098171,62.3064861 140.797556,61.8348576 141.01418,61.2432533 C141.3484,60.3289558 140.510787,59.7849282 139.825843,59.3360536 C139.225486,58.9430298 138.301224,58.7816832 137.995888,58.2479982 C136.817867,56.1794519 135.093129,54.7500864 133.157956,53.4903417 C132.454444,53.033193 132.520463,52.3712581 132.9599,51.7734483 C133.246668,51.382493 133.684042,51.1073763 134.007946,50.7391751 C135.398465,49.1608743 136.390808,47.383993 136.57236,45.2389104 C136.65282,44.2935848 136.535224,43.3979042 135.54907,42.9180015 C134.181245,42.2539981 130.249007,42.8187112 129.217465,43.8902182 C128.251942,44.8893261 127.307049,45.9235993 126.477689,47.0344086 C126.079514,47.5680936 125.770051,48.3127703 125.761799,48.9664309 C125.724664,51.605896 125.807187,54.2474297 125.871143,56.8889633 C125.92272,58.9657838 126.415797,60.9205601 127.513357,62.6829615 C130.071582,61.9113938 130.938077,59.5077429 129.512486,57.5819263 C129.108121,57.0337616 128.837857,56.3304558 128.701694,55.6581782 C128.557278,54.9403927 128.747082,54.1564136 128.610918,53.4365595 C128.15085,51.026703 129.493918,49.2498218 130.521334,47.3074568 C131.319748,45.7974179 132.910386,46.44901 134.012072,45.7498414 L134.012072,45.7498414 Z M150.952056,42.8993846 C150.516745,43.5882105 149.70389,44.2791049 149.765783,44.8769148 C150.095876,48.054202 149.105596,51.0618683 148.800259,54.1522765 C148.639339,55.7781539 148.234974,57.3792088 148.026603,59.0050862 C147.894565,60.0352223 148.381453,60.7550764 149.450131,60.9908907 C150.578638,61.2391162 150.916984,60.4840968 151.096472,59.6235815 C151.261519,58.8251227 151.403871,58.0080469 151.430692,57.1951082 C151.494647,55.3830616 151.455449,53.5668779 151.515278,51.7548313 C151.52972,51.3535334 151.779353,50.9605096 152.059932,50.1765305 C154.003357,53.3972571 155.759042,56.2415083 157.444582,59.1271304 C158.123336,60.2875849 158.80828,61.3280637 160.673308,61.4583821 C161.12925,59.776654 161.715166,58.1611193 161.979241,56.493871 C162.257757,54.7397437 162.175234,52.9297657 162.352659,51.1549529 C162.575472,48.9374713 161.715166,46.5710543 163.22947,44.5190563 C163.305804,44.415629 163.301678,44.1425809 163.219154,44.0474278 C162.272199,42.9407555 162.105089,41.0997493 159.973923,40.6736287 C159.782056,41.6851479 159.286916,42.6780501 159.489098,43.499263 C160.318458,46.8585822 159.963607,50.2303127 159.827444,53.5979061 C159.784119,54.6528647 159.437521,55.6974806 159.231213,56.7462336 C159.057914,56.7524393 158.884614,56.7607134 158.713379,56.7669191 C156.79471,52.8180642 154.217918,49.1856968 153.058465,44.8831205 C152.773759,43.8219562 152.270367,43.366876 150.952056,42.8993846 L150.952056,42.8993846 Z M48.1135023,62.0872202 C47.8989416,59.8593958 47.564722,57.8239462 47.542028,55.7843596 C47.5069556,52.5532902 46.1143738,50.1641192 43.5334556,48.368621 C41.9345654,47.2578116 40.7854276,47.6384242 40.2428364,49.5435553 C39.592965,51.8272305 38.8151822,54.1005629 38.4747734,56.4359517 C38.1384907,58.7403123 37.1296425,61.0508785 38.0642196,63.4545293 C38.6295047,64.9087174 39.0875093,66.4022078 39.6569206,67.8522588 C40.108736,69.0023706 41.5590841,69.9787244 42.512229,69.7408416 C44.8311355,69.1595801 46.8508949,68.1542666 47.4553785,65.5416926 C47.7318318,64.3502099 47.9154463,63.1359732 48.1135023,62.0872202 L48.1135023,62.0872202 Z M31.2601682,45.4478336 C28.6730607,45.9173936 26.6079136,46.3993649 24.5138832,46.6413848 C22.1351472,46.9165015 21.5286005,47.7273717 22.2321121,50.0689661 C22.4899977,50.9294814 22.7458201,51.8024079 22.8613528,52.6898143 C23.3936285,56.7483022 23.8557593,60.8150642 24.3942243,64.8735521 C24.5056308,65.7154505 24.8315981,66.5263206 25.1328084,67.6185131 C26.0735748,67.0641427 26.6801215,66.7062841 27.1401893,66.4353046 L27.1401893,61.2825557 C29.0856776,60.9722737 31.057986,60.6557862 33.0364836,60.3413671 C32.3721706,57.2757815 32.2339439,57.1661485 29.6777827,57.364729 C28.6317991,57.4454023 27.5858154,57.5178014 26.3149556,57.610886 C26.0900794,55.6519726 25.7785537,53.8792284 25.710472,52.0961415 C25.638264,50.2406554 25.8755187,50.0689661 27.7281682,49.6221601 C29.0279112,49.3098096 30.2575093,49.3966885 31.5407477,49.9200308 C32.7641565,50.4185504 33.5501916,49.6614625 33.1561425,48.436883 C32.7352734,47.1212876 32.2937734,45.733293 31.2601682,45.4478336 L31.2601682,45.4478336 Z M116.141638,45.354749 C114.555126,46.4428044 113.354411,47.2391947 112.186706,48.0831616 C111.668871,48.4596371 111.12628,48.8671407 110.756988,49.3760031 C109.240621,51.473509 108.28335,53.6889222 108.281287,56.4359517 C108.281287,58.8768363 109.13953,60.5233992 111.043757,61.8141721 C113.800037,63.6820694 118.906171,63.5000373 120.168778,59.5553195 C120.698991,57.902551 120.771199,55.9643231 120.517439,54.2329498 C120.21004,52.1437181 119.421942,50.1061999 118.679231,48.1059156 C118.167586,46.7241267 117.356794,45.4726562 116.141638,45.354749 L116.141638,45.354749 Z" id="Fill-51" fill="#FFFFFF" sketch:type="MSShapeGroup"></path>
            <path d="M192.58922,17.7189702 C192.651112,17.2969868 192.713005,16.8729348 192.795528,16.2999474 C193.90753,16.8460437 193.779619,17.2969868 192.58922,17.7189702" id="Fill-52" fill="#FFFFFF" sketch:type="MSShapeGroup"></path>
            <path d="M63.582507,60.7695562 C60.8386051,60.0890045 60.8386051,60.0890045 59.8627664,57.9149623 C60.6529276,57.5984747 61.4059533,57.1785598 62.2146822,56.9965277 C64.2034953,56.5455846 66.231507,56.2725365 68.2141308,55.8009079 C70.3122874,55.3023883 71.5769579,55.8153878 72.6456355,57.8860026 C70.8012383,59.6566783 67.9335514,58.45899 65.8807827,60.4075606 C65.8601519,60.8026529 65.8498364,61.5307812 65.7796916,62.2506354 C65.6992313,63.0656426 65.6290864,63.8909926 65.445472,64.6853144 C64.9895304,66.656639 63.9311682,68.2742422 61.913472,68.7624192 C59.7843692,69.2754187 57.8099977,68.6589919 56.3039463,66.9793323 C55.1878178,65.7340674 55.2022593,64.0812989 55.0970421,62.5691915 C54.7896425,58.194216 55.3611168,53.8647486 56.1698458,49.572515 C56.3761542,48.4699798 56.5969042,47.2888398 57.1601262,46.3559255 C57.9853598,44.9886163 58.6971238,44.9803421 59.7389813,45.911188 C61.0634813,47.0985336 61.1893294,47.9528432 60.3063294,49.0553784 C59.8256308,49.6573254 59.2046425,50.310986 59.0891098,51.0163603 C58.5939696,54.017821 58.2061098,57.0420357 57.8966472,60.0703875 C57.7295374,61.7231561 57.9771075,63.3531706 58.8167827,64.8632094 C59.3304907,65.7878496 60.0649486,66.0340066 61.0511028,66.0815831 C62.086771,66.1291597 62.6603084,65.5313498 62.8748692,64.7473708 C63.2338458,63.442118 63.361757,62.0727404 63.582507,60.7695562" id="Fill-184" fill="#000000" sketch:type="MSShapeGroup"></path>
            <path d="M101.990944,56.384238 C99.0902477,57.3626604 95.9626121,56.5704072 93.9387266,59.7683798 C94.3348388,60.5482217 94.8423575,61.5142329 95.3106776,62.4988609 C95.4757243,62.8463767 95.7480514,63.4441866 95.6139509,63.5869163 C94.6195444,64.6480806 94.3719743,66.5035666 92.4904416,66.6959414 C91.2794112,65.6637368 91.3743131,64.2943591 91.5084136,63.0077233 C92.0551308,57.7660269 91.4341425,52.6505119 90.0209299,47.6094645 C89.6227547,46.1842361 89.8600093,45.3299265 90.8482266,44.9637938 C91.863264,44.5893869 93.0371589,45.2740757 93.3548738,46.6475905 C93.6870304,48.0831616 93.8417617,49.5683779 93.9944299,51.0391143 C94.120278,52.2657623 94.1264673,53.502753 94.1883598,54.774909 C96.3896706,54.6218365 98.5290888,54.4729012 100.852121,54.309486 C100.247638,52.1147584 99.9423014,50.0007041 98.657,48.2176171 C98.6095491,48.1514237 98.5703505,48.0790245 98.5290888,48.0066254 C97.2644182,45.7953494 97.870965,44.7776246 100.874815,44.6866086 C101.714491,47.4812146 102.677951,50.3482198 103.420661,53.2710758 C104.138614,56.0967101 104.443951,59.0299087 105.489935,62.0996315 C104.06228,64.4495001 103.6476,65.2272735 101.609273,63.4565979 C103.305129,61.2577331 101.662914,58.974058 101.990944,56.384238" id="Fill-185" fill="#000000" sketch:type="MSShapeGroup"></path>
            <path d="M134.012072,45.7498414 C132.910386,46.44901 131.319748,45.7974179 130.521334,47.3074568 C129.493918,49.2498218 128.15085,51.026703 128.610918,53.4365595 C128.747082,54.1564136 128.557278,54.9403927 128.701694,55.6581782 C128.837857,56.3304558 129.108121,57.0337616 129.512486,57.5819263 C130.938077,59.5077429 130.071582,61.9113938 127.513357,62.6829615 C126.415797,60.9205601 125.92272,58.9657838 125.871143,56.8889633 C125.807187,54.2474297 125.724664,51.605896 125.761799,48.9664309 C125.770051,48.3127703 126.079514,47.5680936 126.477689,47.0344086 C127.307049,45.9235993 128.251942,44.8893261 129.217465,43.8902182 C130.249007,42.8187112 134.181245,42.2539981 135.54907,42.9180015 C136.535224,43.3979042 136.65282,44.2935848 136.57236,45.2389104 C136.390808,47.383993 135.398465,49.1608743 134.007946,50.7391751 C133.684042,51.1073763 133.246668,51.382493 132.9599,51.7734483 C132.520463,52.3712581 132.454444,53.033193 133.157956,53.4903417 C135.093129,54.7500864 136.817867,56.1794519 137.995888,58.2479982 C138.301224,58.7816832 139.225486,58.9430298 139.825843,59.3360536 C140.510787,59.7849282 141.3484,60.3289558 141.01418,61.2432533 C140.797556,61.8348576 140.098171,62.3064861 139.524633,62.6974414 C138.800491,63.1876868 138.076348,62.9063645 137.531694,62.3168288 C136.974661,61.7128133 136.419692,61.0777696 136.007075,60.3744639 C134.810486,58.3286715 133.069243,56.8744835 131.119629,55.6250815 C129.141131,54.3570626 128.998778,52.4229718 130.857617,50.8922475 C132.470949,49.5683779 133.927486,48.1886575 134.012072,45.7498414" id="Fill-186" fill="#000000" sketch:type="MSShapeGroup"></path>
            <path d="M150.952056,42.8993846 C152.270367,43.366876 152.773759,43.8219562 153.058465,44.8831205 C154.217918,49.1856968 156.79471,52.8180642 158.713379,56.7669191 C158.884614,56.7607134 159.057914,56.7524393 159.231213,56.7462336 C159.437521,55.6974806 159.784119,54.6528647 159.827444,53.5979061 C159.963607,50.2303127 160.318458,46.8585822 159.489098,43.499263 C159.286916,42.6780501 159.782056,41.6851479 159.973923,40.6736287 C162.105089,41.0997493 162.272199,42.9407555 163.219154,44.0474278 C163.301678,44.1425809 163.305804,44.415629 163.22947,44.5190563 C161.715166,46.5710543 162.575472,48.9374713 162.352659,51.1549529 C162.175234,52.9297657 162.257757,54.7397437 161.979241,56.493871 C161.715166,58.1611193 161.12925,59.776654 160.673308,61.4583821 C158.80828,61.3280637 158.123336,60.2875849 157.444582,59.1271304 C155.759042,56.2415083 154.003357,53.3972571 152.059932,50.1765305 C151.779353,50.9605096 151.52972,51.3535334 151.515278,51.7548313 C151.455449,53.5668779 151.494647,55.3830616 151.430692,57.1951082 C151.403871,58.0080469 151.261519,58.8251227 151.096472,59.6235815 C150.916984,60.4840968 150.578638,61.2391162 149.450131,60.9908907 C148.381453,60.7550764 147.894565,60.0352223 148.026603,59.0050862 C148.234974,57.3792088 148.639339,55.7781539 148.800259,54.1522765 C149.105596,51.0618683 150.095876,48.054202 149.765783,44.8769148 C149.70389,44.2791049 150.516745,43.5882105 150.952056,42.8993846" id="Fill-187" fill="#000000" sketch:type="MSShapeGroup"></path>
            <path d="M48.1135023,62.0872202 C47.9154463,63.1359732 47.7318318,64.3502099 47.4553785,65.5416926 C46.8508949,68.1542666 44.8311355,69.1595801 42.512229,69.7408416 C41.5590841,69.9787244 40.108736,69.0023706 39.6569206,67.8522588 C39.0875093,66.4022078 38.6295047,64.9087174 38.0642196,63.4545293 C37.1296425,61.0508785 38.1384907,58.7403123 38.4747734,56.4359517 C38.8151822,54.1005629 39.592965,51.8272305 40.2428364,49.5435553 C40.7854276,47.6384242 41.9345654,47.2578116 43.5334556,48.368621 C46.1143738,50.1641192 47.5069556,52.5532902 47.542028,55.7843596 C47.564722,57.8239462 47.8989416,59.8593958 48.1135023,62.0872202 L48.1135023,62.0872202 Z M42.9929276,66.6959414 C43.5025093,66.3960022 44.106993,66.2532725 44.2349042,65.9264422 C44.7836846,64.5094879 45.5490888,63.0428886 45.5738458,61.5824949 C45.6171706,59.0630055 45.1715444,56.5331733 44.917785,54.0095468 C44.9033435,53.8730228 44.7589276,53.74891 44.622764,53.5379183 C44.3710678,53.4924103 44.0554159,53.4241482 43.7377009,53.3807088 C43.3745981,53.3289951 43.0073692,53.2979669 42.6690234,53.2628016 C41.1196472,58.6658446 40.4078832,61.810035 42.9929276,66.6959414 L42.9929276,66.6959414 Z" id="Fill-188" fill="#000000" sketch:type="MSShapeGroup"></path>
            <path d="M31.2601682,45.4478336 C32.2937734,45.733293 32.7352734,47.1212876 33.1561425,48.436883 C33.5501916,49.6614625 32.7641565,50.4185504 31.5407477,49.9200308 C30.2575093,49.3966885 29.0279112,49.3098096 27.7281682,49.6221601 C25.8755187,50.0689661 25.638264,50.2406554 25.710472,52.0961415 C25.7785537,53.8792284 26.0900794,55.6519726 26.3149556,57.610886 C27.5858154,57.5178014 28.6317991,57.4454023 29.6777827,57.364729 C32.2339439,57.1661485 32.3721706,57.2757815 33.0364836,60.3413671 C31.057986,60.6557862 29.0856776,60.9722737 27.1401893,61.2825557 L27.1401893,66.4353046 C26.6801215,66.7062841 26.0735748,67.0641427 25.1328084,67.6185131 C24.8315981,66.5263206 24.5056308,65.7154505 24.3942243,64.8735521 C23.8557593,60.8150642 23.3936285,56.7483022 22.8613528,52.6898143 C22.7458201,51.8024079 22.4899977,50.9294814 22.2321121,50.0689661 C21.5286005,47.7273717 22.1351472,46.9165015 24.5138832,46.6413848 C26.6079136,46.3993649 28.6730607,45.9173936 31.2601682,45.4478336" id="Fill-189" fill="#000000" sketch:type="MSShapeGroup"></path>
            <path d="M116.141638,45.354749 C117.356794,45.4726562 118.167586,46.7241267 118.679231,48.1059156 C119.421942,50.1061999 120.21004,52.1437181 120.517439,54.2329498 C120.771199,55.9643231 120.698991,57.902551 120.168778,59.5553195 C118.906171,63.5000373 113.800037,63.6820694 111.043757,61.8141721 C109.13953,60.5233992 108.281287,58.8768363 108.281287,56.4359517 C108.28335,53.6889222 109.240621,51.473509 110.756988,49.3760031 C111.12628,48.8671407 111.668871,48.4596371 112.186706,48.0831616 C113.354411,47.2391947 114.555126,46.4428044 116.141638,45.354749 L116.141638,45.354749 Z M110.913783,56.1960003 C110.346435,58.3927965 115.027572,61.0136447 116.89879,59.8262991 C117.466138,59.4643035 118.060306,58.8809734 118.272804,58.2707522 C119.225949,55.5319969 118.474986,52.9607938 117.202063,50.5074979 C117.034953,50.1868732 116.64503,49.8600429 116.298432,49.7710954 C114.388016,49.2891241 112.091804,50.6647074 111.526519,52.6691288 C111.241813,53.6847851 111.155164,54.7562921 110.913783,56.1960003 L110.913783,56.1960003 Z" id="Fill-190" fill="#000000" sketch:type="MSShapeGroup"></path>
            <path d="M42.9929276,66.6959414 C40.4078832,61.810035 41.1196472,58.6658446 42.6690234,53.2628016 C43.0073692,53.2979669 43.3745981,53.3289951 43.7377009,53.3807088 C44.0554159,53.4241482 44.3710678,53.4924103 44.622764,53.5379183 C44.7589276,53.74891 44.9033435,53.8730228 44.917785,54.0095468 C45.1715444,56.5331733 45.6171706,59.0630055 45.5738458,61.5824949 C45.5490888,63.0428886 44.7836846,64.5094879 44.2349042,65.9264422 C44.106993,66.2532725 43.5025093,66.3960022 42.9929276,66.6959414" id="Fill-255" fill="#FFFFFF" sketch:type="MSShapeGroup"></path>
            <path d="M110.913783,56.1960003 C111.155164,54.7562921 111.241813,53.6847851 111.526519,52.6691288 C112.091804,50.6647074 114.388016,49.2891241 116.298432,49.7710954 C116.64503,49.8600429 117.034953,50.1868732 117.202063,50.5074979 C118.474986,52.9607938 119.225949,55.5319969 118.272804,58.2707522 C118.060306,58.8809734 117.466138,59.4643035 116.89879,59.8262991 C115.027572,61.0136447 110.346435,58.3927965 110.913783,56.1960003" id="Fill-256" fill="#FFFFFF" sketch:type="MSShapeGroup"></path>
        </g>
    </g>
</svg>