<svg width="196" height="105" viewBox="0 0 196 105" xmlns="http://www.w3.org/2000/svg" xmlns:sketch="http://www.bohemiancoding.com/sketch/ns"><title>fog-horn-hover</title><desc>Created with Sketch.</desc><g sketch:type="MSLayerGroup" fill="none"><path d="M196.422 95.225l-1.225-.213c-1.001 1.944-.996 1.887-3.266 1.688-2.618-.228-5.244-.341-7.869-.496-.326-.019-.699-.074-.978.05-2.189.966-4.386.19-6.589.165-2.616-.029-5.248.197-7.848.511-4.07.492-8.122 1.138-12.176 1.75-1.459.219-2.895.664-4.359.774-2.121.159-4.258.083-6.387.151-2.036.062-4.132-.091-6.094.343-2.399.532-4.753 1.053-7.227 1.187-3.348.184-6.701.321-9.979 1.374-1.754.563-3.749.341-5.62.581-2.195.281-4.427.486-6.546 1.076-3.134.873-6.206.074-9.305.081-5.847.008-11.696.031-17.542.046-2.513.006-5.03-.099-7.534.031-3.681.192-7.351.569-11.029.832-1.228.089-2.476.197-3.695.085-7.456-.683-14.931-.449-22.397-.592-.658-.01-1.463.147-1.945-.168-2.193-1.425-4.714-.956-6.992-.964-2.078-.008-4.058-.389-6.086-.534-.487-.033-.976-.126-1.461-.114-4.434.116-8.871.393-13.299.298-1.442-.031-2.864-1.02-4.009-1.46-.475-1.434-1.017-2.551-1.19-3.725-.21-1.431-.126-2.91-.14-4.369-.039-3.837-.068-7.674-.085-11.511-.006-.906-.027-1.822.095-2.714.287-2.122.39-4.154-.017-6.346-.487-2.631-.072-5.422-.149-8.142-.08-2.871-.369-5.738-.398-8.609-.021-2.205.291-4.41.328-6.619.035-2.139-.025-4.286-.159-6.421-.231-3.696-.563-7.387-.833-11.081-.204-2.793-.08-5.651-.64-8.369-.687-3.33-.087-6.884-1.766-10.053-.225-.422.027-1.473.415-1.773.926-.718 2.009-1.444 3.128-1.663 3.214-.629 6.468-1.053 9.773-.908 3.858.17 7.718.259 11.576.381 1.89.06 3.786.242 5.669.157 3.951-.182 7.829.527 11.743.761 3.52.211 7.068-.05 10.604-.066 1.221-.006 2.451.215 3.664.137 3.99-.263 7.972-.625 11.96-.933 1.859-.143 3.726-.205 5.583-.383 4.896-.472 9.785-1.007 14.683-1.475 2.781-.265 5.57-.436 8.353-.666.815-.068 1.626-.205 2.441-.279 2.585-.234 5.195-.321 7.757-.716 3.231-.499 6.412-1.307 9.635-1.86 2.494-.426 5.015-.846 7.536-.947 5.826-.232 11.644-.383 17.412-1.417 2.331-.418 4.741-.428 7.118-.563 3.431-.197 6.882-.176 10.293-.546 3.658-.397 7.279-.794 10.986-.685 5.242.155 10.497-.099 15.748-.126 1.836-.008 3.676.093 5.506.234.635.05 1.337.24 1.855.594 2.274 1.551 2.649 2.098 1.673 4.675-.555 1.467-.831 2.894-.501 4.344.757 3.322.068 6.489-.968 9.571-.58 1.725-.747 3.334-.297 5.072.584 2.263.621 4.511-.064 6.799-.413 1.38-.512 2.803-.347 4.327.227 2.102-.237 4.269-.212 6.406.047 4.032.167 8.065.375 12.091.303 5.92.51 11.859 1.147 17.746.394 3.639.179 7.244.334 10.86.149 3.448.716 6.882 1.149 10.316.076.616.4 1.202.685 2.015zm-4.064-1.558c.068-.879.182-1.442.142-1.996-.26-3.852-.526-7.705-.842-11.555-.495-6.067-.734-12.149-1.279-18.222-.611-6.793-.338-13.675-.297-20.518.021-3.035.394-6.069.652-9.1.34-3.972-.569-7.844-.889-11.762-.223-2.71-.755-5.418-.693-8.117.054-2.46-.916-5.19 1.413-7.29-1.448-.672-2.364.325-3.416.49-1.172.184-1.665 2.021-3.095 1.256-.586-1.93 2.16-1.022 1.991-2.855-12.508.366-25.038-.159-37.49.923-12.568 1.092-25.073 2.927-37.563 4.433-.427 1.638-.406 1.74-1.737 2.013-2.084.424-4.192.724-6.299 1.02-2.327.329-4.762-.027-6.963 1.146-.334.18-.827.248-1.188.151-2.084-.563-4.068.124-6.076.424-2.897.432-5.684 1.177-8.737.921-3.905-.327-7.875.155-11.819.215-5.933.091-11.869.147-17.804.161-2.965.008-5.946.062-8.89-.217-3.367-.316-6.705-.575-10.066-.031-.475.077-.978.008-1.465-.037-2.942-.277-5.884-.556-8.824-.858-.895-.091-1.846-.091-2.663-.412-3.522-1.384-7.107.134-10.654-.312-1.062-.134-2.08.67-2.224 1.93-.165 1.454-.347 2.935-.246 4.385.272 3.856.714 7.699 1.04 11.551.144 1.719.068 3.459.272 5.169.545 4.555.629 9.12.477 13.698-.012.399-.01 1.003-.246 1.156-1.209.786-.493 1.75-.353 2.66.089.567.287 1.125.303 1.692.103 3.444.07 6.892.266 10.33.287 5 .914 9.989.138 15.001-.087.561-.138 1.156-.047 1.709.421 2.584.045 5.095-.551 7.6-.217.912-.004 1.642.609 2.484.945 1.295 1.962 2.724 1.273 4.578 1.721.933 3.371 1.556 5.215 1.69 2.375.174 4.739.445 7.109.67 1.716.161 3.433.408 5.152.451 1.974.05 3.955-.089 5.931-.139 4.436-.114 8.795 1.003 13.206.947 8.797-.11 17.569 1.069 26.395.126 5.387-.575 10.854-.35 16.278-.6 3.322-.155 6.635-.494 9.944-.815 3.022-.292 6.039-.67 9.034-1.007.613-2.315 1.166-2.712 3.124-2.571 3.584.254 7.171.509 10.763.635 2.692.095 5.393.025 8.087-.048 1.131-.029 2.253-.327 3.386-.376 1.454-.066 2.919.074 4.372-.019 1.884-.118 3.755-.451 5.638-.563 4.349-.256 8.702-.412 13.051-.66 1.873-.105 3.736-.36 5.605-.513 2.346-.19 4.706-1.531 7.039.074.118.081.324.052.487.043 2.375-.145 4.751-.302 7.126-.436.704-.039 1.106-.219 1.461-.987.522-1.121 3.231-1.512 3.687-.527.497 1.074 1.184.925 1.95.993 1.386.124 2.781.343 4.165.304 1.859-.052 3.714-.31 5.634-.488zm.231-75.949c1.19-.422 1.318-.873.206-1.419l-.206 1.419z" fill="#000" sketch:type="MSShapeGroup"/><path d="M192.358 93.668c-1.921.178-3.775.436-5.634.488-1.384.039-2.779-.18-4.165-.304-.765-.068-1.452.081-1.95-.993-.456-.985-3.165-.594-3.687.527-.355.767-.757.947-1.461.987-2.375.134-4.751.292-7.126.436-.163.008-.369.037-.487-.043-2.333-1.605-4.694-.265-7.039-.074-1.869.153-3.732.408-5.605.513-4.349.248-8.702.403-13.051.66-1.884.112-3.755.445-5.638.563-1.452.093-2.917-.048-4.372.019-1.133.05-2.255.348-3.386.376-2.694.072-5.395.143-8.087.048-3.592-.126-7.18-.381-10.763-.635-1.958-.141-2.511.256-3.124 2.571-2.996.337-6.012.716-9.034 1.007-3.309.321-6.623.66-9.944.815-5.424.25-10.891.025-16.278.6-8.826.943-17.598-.236-26.395-.126-4.411.056-8.77-1.061-13.206-.947-1.976.05-3.957.188-5.931.139-1.719-.043-3.435-.29-5.152-.451-2.37-.225-4.735-.496-7.109-.67-1.844-.134-3.495-.757-5.215-1.69.689-1.853-.328-3.283-1.273-4.578-.613-.842-.825-1.572-.609-2.484.596-2.505.972-5.016.551-7.6-.091-.552-.039-1.148.047-1.709.776-5.012.149-10.001-.138-15.001-.196-3.438-.163-6.886-.266-10.33-.017-.567-.215-1.125-.303-1.692-.14-.91-.856-1.874.353-2.66.235-.153.233-.757.246-1.156.153-4.578.068-9.143-.477-13.698-.204-1.711-.128-3.45-.272-5.169-.326-3.852-.767-7.695-1.04-11.551-.101-1.45.08-2.931.246-4.385.144-1.26 1.162-2.064 2.224-1.93 3.546.447 7.132-1.072 10.654.312.817.321 1.768.321 2.663.412 2.94.302 5.882.581 8.824.858.487.046.99.114 1.465.037 3.361-.544 6.699-.285 10.066.031 2.944.279 5.925.225 8.89.217 5.935-.014 11.871-.07 17.804-.161 3.945-.06 7.914-.542 11.819-.215 3.053.256 5.841-.488 8.737-.921 2.007-.3 3.992-.987 6.076-.424.361.097.854.029 1.188-.151 2.201-1.173 4.636-.817 6.963-1.146 2.106-.296 4.215-.596 6.299-1.02 1.331-.273 1.31-.374 1.737-2.013 12.49-1.506 24.994-3.341 37.563-4.433 12.453-1.082 24.982-.556 37.49-.923.169 1.833-2.577.925-1.991 2.855 1.43.765 1.923-1.072 3.095-1.256 1.052-.165 1.968-1.163 3.416-.49-2.329 2.1-1.36 4.83-1.413 7.29-.062 2.699.47 5.407.693 8.117.32 3.918 1.23 7.79.889 11.762-.258 3.03-.631 6.065-.652 9.1-.041 6.843-.314 13.725.297 20.518.545 6.073.784 12.155 1.279 18.222.316 3.85.582 7.703.842 11.555.039.554-.074 1.117-.142 1.996zm-128.776-32.898c-.221 1.303-.349 2.673-.708 3.978-.215.784-.788 1.382-1.824 1.334-.986-.048-1.721-.294-2.234-1.218-.84-1.51-1.087-3.14-.92-4.793.309-3.028.697-6.053 1.192-9.054.116-.705.737-1.359 1.217-1.961.883-1.103.757-1.957-.567-3.144-1.042-.931-1.754-.923-2.579.445-.563.933-.784 2.114-.99 3.217-.809 4.292-1.38 8.622-1.073 12.997.105 1.512.091 3.165 1.207 4.41 1.506 1.68 3.48 2.296 5.61 1.783 2.018-.488 3.076-2.106 3.532-4.077.184-.794.254-1.62.334-2.435.07-.72.08-1.448.101-1.843 2.053-1.949 4.92-.751 6.765-2.522-1.069-2.071-2.333-2.584-4.432-2.085-1.983.472-4.011.745-5.999 1.196-.809.182-1.562.602-2.352.918.976 2.174.976 2.174 3.72 2.855zm38.408-4.385c-.328 2.59 1.314 4.873-.382 7.072 2.038 1.771 2.453.993 3.881-1.357-1.046-3.07-1.351-6.003-2.069-8.829-.743-2.923-1.706-5.79-2.546-8.584-3.004.091-3.61 1.109-2.346 3.32l.128.211c1.285 1.783 1.591 3.897 2.195 6.092-2.323.163-4.462.312-6.664.465-.062-1.272-.068-2.509-.194-3.736-.153-1.471-.307-2.956-.64-4.392-.318-1.374-1.492-2.058-2.507-1.684-.988.366-1.225 1.22-.827 2.646 1.413 5.041 2.034 10.157 1.487 15.398-.134 1.287-.229 2.656.982 3.688 1.882-.192 2.129-2.048 3.124-3.109.134-.143-.138-.741-.303-1.088-.468-.985-.976-1.951-1.372-2.73 2.024-3.198 5.152-2.406 8.052-3.384zm32.021-10.634c-.085 2.439-1.541 3.819-3.154 5.142-1.859 1.531-1.716 3.465.262 4.733 1.95 1.249 3.691 2.704 4.887 4.749.413.703.968 1.338 1.525 1.942.545.59 1.269.871 1.993.381.574-.391 1.273-.863 1.49-1.454.334-.914-.503-1.458-1.188-1.907-.6-.393-1.525-.554-1.83-1.088-1.178-2.069-2.903-3.498-4.838-4.758-.704-.457-.637-1.119-.198-1.717.287-.391.724-.666 1.048-1.034 1.391-1.578 2.383-3.355 2.564-5.5.08-.945-.037-1.841-1.023-2.321-1.368-.664-5.3-.099-6.332.972-.966.999-1.91 2.033-2.74 3.144-.398.534-.708 1.278-.716 1.932-.037 2.639.045 5.281.109 7.923.052 2.077.545 4.032 1.642 5.794 2.558-.772 3.425-3.175 1.999-5.101-.404-.548-.675-1.251-.811-1.924-.144-.718.045-1.502-.091-2.222-.46-2.41.883-4.187 1.91-6.129.798-1.51 2.389-.858 3.491-1.558zm16.94-2.85c-.435.689-1.248 1.38-1.186 1.978.33 3.177-.66 6.185-.966 9.275-.161 1.626-.565 3.227-.774 4.853-.132 1.03.355 1.75 1.424 1.986 1.129.248 1.467-.507 1.646-1.367.165-.798.307-1.616.334-2.428.064-1.812.025-3.628.085-5.44.014-.401.264-.794.545-1.578 1.943 3.221 3.699 6.065 5.385 8.951.679 1.16 1.364 2.201 3.229 2.331.456-1.682 1.042-3.297 1.306-4.965.279-1.754.196-3.564.373-5.339.223-2.217-.637-4.584.877-6.636.076-.103.072-.376-.01-.472-.947-1.107-1.114-2.948-3.245-3.374-.192 1.012-.687 2.004-.485 2.826.829 3.359.475 6.731.338 10.099-.043 1.055-.39 2.1-.596 3.148l-.518.021c-1.919-3.949-4.495-7.581-5.655-11.884-.285-1.061-.788-1.516-2.106-1.984zm-102.839 19.188c-.215-2.228-.549-4.263-.571-6.303-.035-3.231-1.428-5.62-4.009-7.416-1.599-1.111-2.748-.73-3.291 1.175-.65 2.284-1.428 4.557-1.768 6.892-.336 2.304-1.345 4.615-.411 7.019.565 1.454 1.023 2.948 1.593 4.398.452 1.15 1.902 2.126 2.855 1.889 2.319-.581 4.339-1.587 4.943-4.199.276-1.191.46-2.406.658-3.454zm-16.853-16.639c-2.587.47-4.652.952-6.746 1.194-2.379.275-2.985 1.086-2.282 3.428.258.861.514 1.733.629 2.621.532 4.058.994 8.125 1.533 12.184.111.842.437 1.653.739 2.745l2.007-1.183v-5.153c1.945-.31 3.918-.627 5.896-.941-.664-3.066-.803-3.175-3.359-2.977-1.046.081-2.092.153-3.363.246-.225-1.959-.536-3.732-.604-5.515-.072-1.855.165-2.027 2.018-2.474 1.3-.312 2.529-.225 3.813.298 1.223.499 2.009-.259 1.615-1.483-.421-1.316-.862-2.704-1.896-2.989zm84.881-.093c-1.587 1.088-2.787 1.884-3.955 2.728-.518.376-1.06.784-1.43 1.293-1.516 2.098-2.474 4.313-2.476 7.06 0 2.441.858 4.087 2.762 5.378 2.756 1.868 7.862 1.686 9.125-2.259.53-1.653.602-3.591.349-5.322-.307-2.089-1.095-4.127-1.838-6.127-.512-1.382-1.322-2.633-2.538-2.751z" fill="#fff" sketch:type="MSShapeGroup"/><path d="M192.589 17.719l.206-1.419c1.112.546.984.997-.206 1.419" fill="#fff" sketch:type="MSShapeGroup"/><path d="M63.583 60.77c-2.744-.681-2.744-.681-3.72-2.855.79-.316 1.543-.736 2.352-.918 1.989-.451 4.017-.724 5.999-1.196 2.098-.499 3.363.014 4.432 2.085-1.844 1.771-4.712.573-6.765 2.522-.021.395-.031 1.123-.101 1.843-.08.815-.151 1.64-.334 2.435-.456 1.971-1.514 3.589-3.532 4.077-2.129.513-4.103-.103-5.61-1.783-1.116-1.245-1.102-2.898-1.207-4.41-.307-4.375.264-8.704 1.073-12.997.206-1.103.427-2.284.99-3.217.825-1.367 1.537-1.376 2.579-.445 1.325 1.187 1.45 2.042.567 3.144-.481.602-1.102 1.256-1.217 1.961-.495 3.001-.883 6.026-1.192 9.054-.167 1.653.08 3.283.92 4.793.514.925 1.248 1.171 2.234 1.218 1.036.048 1.609-.55 1.824-1.334.359-1.305.487-2.675.708-3.978" fill="#000" sketch:type="MSShapeGroup"/><path d="M101.991 56.384c-2.901.978-6.028.186-8.052 3.384.396.78.904 1.746 1.372 2.73.165.348.437.945.303 1.088-.994 1.061-1.242 2.917-3.124 3.109-1.211-1.032-1.116-2.402-.982-3.688.547-5.242-.074-10.357-1.487-15.398-.398-1.425-.161-2.28.827-2.646 1.015-.374 2.189.31 2.507 1.684.332 1.436.487 2.921.64 4.392.126 1.227.132 2.464.194 3.736 2.201-.153 4.341-.302 6.664-.465-.604-2.195-.91-4.309-2.195-6.092l-.128-.211c-1.265-2.211-.658-3.229 2.346-3.32.84 2.795 1.803 5.662 2.546 8.584.718 2.826 1.023 5.759 2.069 8.829-1.428 2.35-1.842 3.128-3.881 1.357 1.696-2.199.054-4.483.382-7.072" fill="#000" sketch:type="MSShapeGroup"/><path d="M134.012 45.75c-1.102.699-2.692.048-3.491 1.558-1.027 1.942-2.37 3.719-1.91 6.129.136.72-.054 1.504.091 2.222.136.672.406 1.376.811 1.924 1.426 1.926.559 4.329-1.999 5.101-1.098-1.762-1.591-3.717-1.642-5.794-.064-2.642-.146-5.283-.109-7.923.008-.654.318-1.398.716-1.932.829-1.111 1.774-2.145 2.74-3.144 1.032-1.072 4.964-1.636 6.332-.972.986.48 1.104 1.376 1.023 2.321-.182 2.145-1.174 3.922-2.564 5.5-.324.368-.761.643-1.048 1.034-.439.598-.505 1.26.198 1.717 1.935 1.26 3.66 2.689 4.838 4.758.305.534 1.23.695 1.83 1.088.685.449 1.523.993 1.188 1.907-.217.592-.916 1.063-1.49 1.454-.724.49-1.448.209-1.993-.381-.557-.604-1.112-1.239-1.525-1.942-1.197-2.046-2.938-3.5-4.887-4.749-1.978-1.268-2.121-3.202-.262-4.733 1.613-1.324 3.07-2.704 3.154-5.142" fill="#000" sketch:type="MSShapeGroup"/><path d="M150.952 42.899c1.318.467 1.822.923 2.106 1.984 1.159 4.303 3.736 7.935 5.655 11.884l.518-.021c.206-1.049.553-2.093.596-3.148.136-3.368.491-6.739-.338-10.099-.202-.821.293-1.814.485-2.826 2.131.426 2.298 2.267 3.245 3.374.083.095.087.368.01.472-1.514 2.052-.654 4.418-.877 6.636-.177 1.775-.095 3.585-.373 5.339-.264 1.667-.85 3.283-1.306 4.965-1.865-.13-2.55-1.171-3.229-2.331-1.686-2.886-3.441-5.73-5.385-8.951-.281.784-.53 1.177-.545 1.578-.06 1.812-.021 3.628-.085 5.44-.027.813-.169 1.63-.334 2.428-.179.861-.518 1.616-1.646 1.367-1.069-.236-1.556-.956-1.424-1.986.208-1.626.613-3.227.774-4.853.305-3.09 1.296-6.098.966-9.275-.062-.598.751-1.289 1.186-1.978" fill="#000" sketch:type="MSShapeGroup"/><path d="M48.114 62.087c-.198 1.049-.382 2.263-.658 3.454-.604 2.613-2.624 3.618-4.943 4.199-.953.238-2.403-.738-2.855-1.889-.569-1.45-1.027-2.944-1.593-4.398-.935-2.404.074-4.714.411-7.019.34-2.335 1.118-4.609 1.768-6.892.543-1.905 1.692-2.286 3.291-1.175 2.581 1.795 3.973 4.185 4.009 7.416.023 2.04.357 4.075.571 6.303zm-5.121 4.609c.51-.3 1.114-.443 1.242-.769.549-1.417 1.314-2.884 1.339-4.344.043-2.519-.402-5.049-.656-7.573-.014-.137-.159-.261-.295-.472-.252-.046-.567-.114-.885-.157-.363-.052-.73-.083-1.069-.118-1.549 5.403-2.261 8.547.324 13.433z" fill="#000" sketch:type="MSShapeGroup"/><path d="M31.26 45.448c1.034.285 1.475 1.673 1.896 2.989.394 1.225-.392 1.982-1.615 1.483-1.283-.523-2.513-.61-3.813-.298-1.853.447-2.09.618-2.018 2.474.068 1.783.38 3.556.604 5.515 1.271-.093 2.317-.165 3.363-.246 2.556-.199 2.694-.089 3.359 2.977-1.978.314-3.951.631-5.896.941v5.153l-2.007 1.183c-.301-1.092-.627-1.903-.739-2.745-.538-4.058-1.001-8.125-1.533-12.184-.116-.887-.371-1.76-.629-2.621-.704-2.342-.097-3.152 2.282-3.428 2.094-.242 4.159-.724 6.746-1.194" fill="#000" sketch:type="MSShapeGroup"/><path d="M116.142 45.355c1.215.118 2.026 1.369 2.538 2.751.743 2 1.531 4.038 1.838 6.127.254 1.731.182 3.67-.349 5.322-1.263 3.945-6.369 4.127-9.125 2.259-1.904-1.291-2.762-2.937-2.762-5.378.002-2.747.959-4.962 2.476-7.06.369-.509.912-.916 1.43-1.293 1.168-.844 2.368-1.64 3.955-2.728zm-5.228 10.841c-.567 2.197 4.114 4.818 5.985 3.63.567-.362 1.162-.945 1.374-1.556.953-2.739.202-5.31-1.071-7.763-.167-.321-.557-.647-.904-.736-1.91-.482-4.207.894-4.772 2.898-.285 1.016-.371 2.087-.613 3.527z" fill="#000" sketch:type="MSShapeGroup"/><path d="M42.993 66.696c-2.585-4.886-1.873-8.03-.324-13.433.338.035.706.066 1.069.118.318.043.633.112.885.157.136.211.281.335.295.472.254 2.524.699 5.053.656 7.573-.025 1.46-.79 2.927-1.339 4.344-.128.327-.732.47-1.242.769" fill="#fff" sketch:type="MSShapeGroup"/><path d="M110.914 56.196c.241-1.44.328-2.511.613-3.527.565-2.004 2.861-3.38 4.772-2.898.347.089.737.416.904.736 1.273 2.453 2.024 5.024 1.071 7.763-.212.61-.807 1.194-1.374 1.556-1.871 1.187-6.552-1.434-5.985-3.63" fill="#fff" sketch:type="MSShapeGroup"/></g></svg>