<svg width="207" height="102" viewBox="0 0 207 102" xmlns="http://www.w3.org/2000/svg" xmlns:sketch="http://www.bohemiancoding.com/sketch/ns"><title>gun-shot-hover</title><desc>Created with Sketch.</desc><g sketch:type="MSLayerGroup" fill="none"><path d="M200.247-.393c.648.157 1.17 1.258 2.505 1.02 1.029-.184 1.725.85 1.743 1.992.056 3.38.111 6.762.103 10.142-.004 1.475-.19 2.948-.254 4.425-.227 5.264-.479 10.531-.644 15.797-.206 6.59-.353 13.183-.493 19.775-.058 2.805-.035 5.612-.041 8.419-.002.412-.089.875.068 1.227 2.187 4.933 1.518 10.161 1.533 15.301.006 1.541.177 2.857 1.05 4.189 1.64 2.499.479 6.005-1.974 7.608-1.935 1.266-3.848 1.86-6.15 1.798-1.261-.033-2.527.666-3.811.947-.869.192-1.826.478-2.643.29-1.844-.426-3.623-.139-5.345.312-1.956.513-3.689.101-5.556-.416-1.37-.381-2.919-.213-4.38-.132-3.852.213-7.708.408-11.545.801-3.416.352-6.802 1.02-10.214 1.423-1.539.182-3.113.068-4.673.072-1.058 0-2.084-.134-3.037.662-.433.364-1.244.325-1.89.381-4.419.381-8.875.494-13.247 1.169-5.156.796-10.301.585-15.465.71-5.279.128-10.621-.509-15.844.861-.706.184-1.471.155-2.21.182-4.766.178-9.534.302-14.295.53-2.544.122-5.077.455-7.619.618-2.045.132-4.097.151-6.146.221-4.349.151-8.708.157-13.041.499-3.678.288-7.32 1.018-10.992 1.431-1.197.134-2.443-.209-3.66-.163-2.709.101-5.414.416-8.122.439-1.785.014-3.813.647-5.176-1.291-.13-.184-.623-.159-.945-.151-3.024.091-6.049.263-9.073.279-1.884.008-3.775-.36-5.653-.294-3.612.128-6.422-.668-6.806-4.931-1.89-1.676-1.512-3.945-1.63-6.102-.029-.55-.46-1.072-.541-1.63-.161-1.125-.45-2.308-.262-3.394.774-4.474.324-8.81-.712-13.204-.617-2.617-.571-5.391-.831-8.092-.134-1.386-.289-2.768-.442-4.222l-1.698.182c.134-.712.043-1.518.402-1.911 1.155-1.266 1.327-2.666 1.287-4.305-.14-6.034-.12-12.072-.225-18.108-.023-1.301-.328-2.598-.503-3.897-.351-2.594-.635-5.198-1.081-7.774-.188-1.086.316-1.46 1.244-1.963l.598 1.988 2.078-.6c.563-3.44 1.205-6.938 6.002-7.449 1.164 1.032 2.907 1.04 4.762.896 1.964-.155 3.99.234 5.919-.066 6.389-.993 12.801.118 19.193-.436 5.321-.461 10.656-.796 15.993-.999 5.995-.23 11.999-.197 17.996-.374 5.114-.153 10.161-.929 15.089-2.294 3.408-.943 6.827-1.748 10.344-2.153 2.36-.271 4.698-.937 7.056-.987 3.759-.079 7.481-.956 11.281-.381 1.335.203 2.754-.232 4.139-.277 5.651-.184 11.3-.366 16.95-.478 3.689-.072 7.384.095 11.068-.056 5.585-.23 11.167-.585 16.742-1.003 2.203-.165 4.378-.699 6.577-.97 2.853-.35 5.731-.505 8.57-.933 1.995-.302 4.13-.563 5.867-1.481 2.546-1.342 5.341-1.529 7.961-2.426 1.448-.499 2.969-.784 4.747-1.239zm.466 6.028c-.803-.114-1.436-.294-2.063-.273-1.382.046-2.767.157-4.141.306-1.36.147-2.719.314-4.06.575-2.241.439-4.448 1.105-6.703 1.407-2.684.358-5.492.074-8.093.701-7.572 1.822-15.294 1.814-22.972 2.294-3.439.215-6.907-.048-10.357.035-3.282.079-6.561.292-9.839.505-3.198.207-6.396.449-9.585.747-4.335.403-8.657.935-12.993 1.299-4.405.368-8.822.544-13.191 1.282-2.913.494-5.847.85-8.772 1.27-1.382.199-2.835.19-4.126.645-2.08.732-4.176.873-6.325.856-.574-.004-1.145.085-1.719.124-3.443.23-6.882.554-10.328.656-2.622.077-5.255-.267-7.875-.182-2.622.085-5.23.627-7.85.683-6.092.132-12.189.077-18.283.132-1.168.01-2.465-.527-3.429.728-.157.203-.858.201-1.166.033-1.516-.825-2.903-.081-4.31.275-3.419.865-6.835 1.119-10.26.089-2.989-.9-4.974.122-5.579 3.167-.559 2.815-.86 5.684-1.254 8.531-.225 1.628-.635 3.268-.574 4.888.182 4.729 1.622 9.422.305 14.19-.08.296.041.656.093.98.312 1.947.699 3.883.933 5.84.415 3.504.489 7.07 1.182 10.516.501 2.501-.666 5.103.683 7.478l-.039.238c-.103 3.293-.468 6.607-.225 9.875.196 2.625.076 5.475 2.026 7.722.256.294.274.902.219 1.342-.231 1.841.21 2.364 1.948 2.389 2.525.035 5.055.083 7.574.244 3.251.207 6.493.606 9.746.778 3.121.163 6.21-.089 9.278-.885 5.213-1.353 10.563-1.508 15.877-.912 4.002.451 7.98 1.038 12.017.947 5.977-.132 11.958-.197 17.93-.461 6.49-.29 12.995-.563 19.455-1.235 6.443-.67 12.886-1.08 19.354-1.231 1.974-.048 3.949-.157 5.915-.325.615-.052 1.512-.207 1.754-.623.873-1.504 2.253-1.483 3.639-1.518 3.111-.081 6.237-.325 9.331-.132 7.45.463 14.745-.894 22.1-1.566 3.761-.343 7.522-.695 11.287-.978 2.748-.209 5.521-.176 8.254-.494 4.805-.561 9.583-1.338 14.384-1.951 1.174-.149 1.595-.647 1.448-1.775-.204-1.541-.522-3.084-.536-4.629-.035-3.616.235-7.238.097-10.847-.144-3.752.217-7.602-1.44-11.183-.19-.408-.118-.968-.076-1.45.167-1.969.355-3.939.559-5.904.543-5.242.966-10.49.763-15.762-.041-1.036-.51-2.058-.524-3.088-.047-3.355-.027-6.715.068-10.068.066-2.3.351-4.592.441-6.89.078-2.019.023-4.042.027-6.063v-3.343z" fill="#000" sketch:type="MSShapeGroup"/><path d="M200.713 5.635v3.343c-.004 2.021.052 4.044-.027 6.063-.091 2.298-.375 4.59-.441 6.89-.095 3.353-.116 6.712-.068 10.068.014 1.03.483 2.052.524 3.088.202 5.273-.221 10.521-.763 15.762-.204 1.965-.392 3.934-.559 5.904-.041.482-.113 1.043.076 1.45 1.657 3.581 1.296 7.43 1.44 11.183.138 3.61-.132 7.232-.097 10.847.014 1.545.332 3.088.536 4.629.146 1.127-.274 1.626-1.448 1.775-4.801.612-9.579 1.39-14.384 1.951-2.734.319-5.506.285-8.254.494-3.765.283-7.526.635-11.287.978-7.355.672-14.65 2.029-22.1 1.566-3.095-.192-6.22.052-9.331.132-1.386.035-2.767.014-3.639 1.518-.241.416-1.139.571-1.754.623-1.966.168-3.94.277-5.915.325-6.468.151-12.911.561-19.354 1.231-6.46.672-12.964.945-19.455 1.235-5.973.265-11.954.329-17.93.461-4.037.091-8.015-.496-12.017-.947-5.315-.596-10.664-.441-15.877.912-3.068.796-6.156 1.049-9.278.885-3.253-.172-6.495-.571-9.746-.778-2.519-.161-5.048-.209-7.574-.244-1.737-.025-2.179-.548-1.948-2.389.056-.441.037-1.049-.219-1.342-1.95-2.246-1.83-5.097-2.026-7.722-.243-3.268.122-6.582.225-9.875l.039-.238c-1.349-2.375-.182-4.977-.683-7.478-.693-3.446-.767-7.012-1.182-10.516-.233-1.957-.621-3.893-.933-5.84-.052-.325-.173-.685-.093-.98 1.316-4.768-.124-9.462-.305-14.19-.062-1.62.349-3.26.574-4.888.394-2.846.695-5.715 1.254-8.531.604-3.045 2.589-4.067 5.579-3.167 3.425 1.03 6.841.776 10.26-.089 1.407-.356 2.793-1.1 4.31-.275.307.168 1.009.17 1.166-.033.963-1.256 2.261-.718 3.429-.728 6.094-.056 12.191 0 18.283-.132 2.62-.056 5.228-.598 7.85-.683 2.62-.085 5.253.259 7.875.182 3.445-.101 6.885-.426 10.328-.656.574-.039 1.145-.128 1.719-.124 2.15.017 4.246-.124 6.325-.856 1.291-.455 2.744-.447 4.126-.645 2.925-.42 5.859-.776 8.772-1.27 4.37-.738 8.787-.914 13.191-1.282 4.337-.364 8.659-.896 12.993-1.299 3.19-.298 6.387-.54 9.585-.747 3.278-.213 6.556-.426 9.839-.505 3.449-.083 6.918.18 10.357-.035 7.679-.48 15.401-.472 22.972-2.294 2.602-.627 5.409-.343 8.093-.701 2.255-.302 4.462-.968 6.703-1.407 1.341-.261 2.701-.428 4.06-.575 1.374-.149 2.758-.261 4.141-.306.627-.021 1.261.159 2.063.273zm-156.002 40.498c.427-1.262.043-2.255-.92-2.894-1.331-.879-2.954-1.562-4.434-.972-2.255.896-4.609 1.924-5.593 4.483-.528 1.371-1.11 2.757-1.366 4.191-.584 3.295-1.155 6.611-1.405 9.944-.215 2.846-.408 5.802.906 8.491 1.733 3.545 4.382 4.754 7.367 3.345 2.358-1.113 4.978-2.36 4.735-5.866-.066-.933.382-1.851-.128-2.853-.248-.486.019-1.237.056-1.928l2.791-.13v-3.32l-3.959-.223c-.08-.004-.171-.027-.241 0-.229.083-.576.124-.652.29-.501 1.055-1.465 1.142-2.426 1.425-.425.126-.774.952-.871 1.51-.033.186.798.616 1.287.772.413.13.902.027 1.378.027.194 1.702.369 3.163.518 4.625.025.236.004.544-.128.716-.889 1.142-2.02 1.949-3.491 2.069-1.424.118-2.719-.352-3.241-1.74-.514-1.359-1.087-2.879-.955-4.263.481-5.058 1.232-10.09 1.904-15.129.324-2.422 2.059-3.366 4.172-3.965.481-.137 1.465.215 1.667.618.79 1.58 1.826 1.349 3.029.78zm8.021-.178c.052 2.422.076 4.509.149 6.595.099 2.859.25 5.713.353 8.572.064 1.8-.023 3.612.14 5.403.196 2.16 1.545 3.686 3.652 4.073 1.355.248 2.783.273 4.163.178.658-.046 1.393-.486 1.902-.954 3.439-3.167 3.998-7.366 3.976-11.718-.008-1.723-.299-3.442-.349-5.167-.064-2.277-.014-4.559-.014-6.967l-2.152-1.481-1.492 1.804c.202 1.349.45 2.368.491 3.399.132 3.295.037 6.609.324 9.89.215 2.453-.468 4.528-1.69 6.526-.836 1.369-2.22 1.698-3.654 1.562-1.349-.126-2.257-1.338-2.496-2.993-.105-.732-.309-1.504-.179-2.205.976-5.277-.078-10.483-.456-15.711-.138-1.928-.52-2.135-2.078-1.214-.342.203-.656.455-.59.41zm35.611-1.442c-1.087-1.152-2.009-2.104-3.664-2.193-.243.778-.623 1.46-.65 2.155-.124 3.186.023 6.388-.258 9.555-.25 2.805-.421 5.705-2.034 8.274-1.987-3.032-2.82-6.342-3.309-9.774-.208-1.456-.574-2.894-.726-4.354-.171-1.642-2.086-1.684-2.387-3.08-1.811.738-1.931 1.936-1.531 3.473.264 1.012.427 2.124.301 3.152-.483 3.92-1.104 7.823-1.669 11.735-.14.976-.425 1.971-.33 2.927.06.614.576 1.394 1.108 1.673.338.178 1.298-.285 1.593-.722.361-.53.367-1.33.437-2.023.128-1.299.179-2.604.289-3.905.146-1.793.318-3.585.477-5.378.05-.573.093-1.148.138-1.723.479.285.699.563.708.844.103 3.678 1.886 6.779 3.359 9.991.462 1.009 1.25 1.45 2.48 1.644 1.073-2.662 2.531-5.14 2.824-8.028.33-3.268.796-6.557.712-9.824-.052-1.975.21-3.426 2.133-4.42zm43.31.767c-.499-.114-.751-.244-.976-.209-.693.108-1.638.054-2.005.478-.569.66-.019 1.415.396 2.193.833 1.562 1.36 3.291 2.028 4.989l-5.315 1.394c-.4-2.987-.739-5.746-1.145-8.498-.289-1.963-.472-2.062-2.795-2.025l-1.287 2.189c1.275.37 1.448 1.303 1.508 2.356.056.976.301 1.94.347 2.917.167 3.438.928 6.855.258 10.33-.235 1.214-.155 2.493-.215 3.703 1.811.689 2.701-.455 3.621-.877v-6.801c1.91-.501 3.594-1.69 5.894-1.347-.132 1.804-.248 3.51-.386 5.215-.074.943.336 1.585 1.157 1.988.891.439 1.314-.23 1.869-.732.796-.722.79-1.462.522-2.445-.534-1.957-1.242-3.972.291-5.868.157-.194.021-.629.021-.995l-1.391-.612-2.397-7.341zm14.303 18.083c3.033-.01 5.773-2.054 6.827-5.151.398-1.167.609-2.404 1.046-3.556.683-1.804.221-3.419-.668-4.958-.576-.993-1.159-2.073-2.009-2.795-1.285-1.094-2.699-2.385-4.248-2.733-2.278-.511-5.51 1.959-5.958 4.286-.545 2.819-.974 5.697-1.069 8.564-.109 3.281 2.401 6.501 6.08 6.342zm-40.529 1.715c-.116-.345-.229-.567-.26-.801-.134-.991-.722-1.462-1.679-1.436-1.079.031-2.073 1.057-2.296 2.217-.2 1.038.382 1.45 1.203 1.855 2.932 1.452 7.582.451 9.616-2.114.854-1.08 1.289-2.273 1.197-3.672-.27-4.048-1.147-7.666-5.558-9.269-1.36-.496-1.923-1.965-1.731-3.428.192-1.45.848-2.044 2.721-2.35.968-.157 1.948-.236 2.923-.331.933-.093 1.867-.159 3.171-.269l-1.993-2.952c-2.525.838-5.119 1.409-7.444 2.54-3.301 1.607-3.425 7.01-.375 9.037.751.501 1.578.887 2.364 1.336 2.098 1.194 3.154 3.397 2.808 5.844-.324 2.292-1.052 2.964-3.974 3.655l-.693.134zm67.564-25.797l-.518-.49c-1.232.292-2.451.749-3.695.838-2.855.201-5.449 1.924-8.415 1.398-.225-.039-.538.021-.71.159-1.679 1.349-3.689 1.657-5.727 1.961-1.038.155-1.816 1.183-1.529 1.887.392.962 1.143 1.27 2.193.98 1.401-.387 2.833-.672 4.409-1.038.774 2.503 1.537 4.826 2.205 7.174.747 2.631 1.065 5.318.92 8.065-.056 1.04.01 2.151 1.454 2.625 1.001-1.868 4.002-3.103 1.36-5.804-.101-.105-.118-.304-.151-.465-.706-3.459-.538-7.083-2.071-10.399-.309-.668-.043-1.605-.043-2.41 3-1.256 5.94-2.172 9.426-1.32l.891-3.161z" fill="#fff" sketch:type="MSShapeGroup"/><path d="M44.711 46.133c-1.203.569-2.238.801-3.029-.78-.202-.403-1.186-.755-1.667-.618-2.113.6-3.848 1.543-4.172 3.965-.673 5.039-1.424 10.072-1.904 15.129-.132 1.384.441 2.904.955 4.263.522 1.388 1.818 1.858 3.241 1.74 1.471-.12 2.602-.927 3.491-2.069.132-.172.153-.48.128-.716-.149-1.462-.324-2.923-.518-4.625-.477 0-.966.103-1.378-.027-.489-.155-1.32-.585-1.287-.772.097-.559.446-1.384.871-1.51.961-.283 1.925-.37 2.426-1.425.076-.165.423-.207.652-.29.07-.027.161-.004.241 0l3.959.223v3.32l-2.791.13c-.037.691-.303 1.442-.056 1.928.51 1.001.062 1.92.128 2.853.243 3.506-2.377 4.754-4.735 5.866-2.985 1.409-5.634.201-7.367-3.345-1.314-2.689-1.12-5.645-.906-8.491.25-3.332.821-6.648 1.405-9.944.256-1.434.838-2.819 1.366-4.191.984-2.559 3.338-3.587 5.593-4.483 1.479-.59 3.103.093 4.434.972.963.639 1.347 1.632.92 2.894" fill="#000" sketch:type="MSShapeGroup"/><path d="M52.732 45.955c-.066.046.248-.207.59-.41 1.558-.921 1.939-.714 2.078 1.214.378 5.227 1.432 10.434.456 15.711-.13.701.074 1.473.179 2.205.239 1.655 1.147 2.867 2.496 2.993 1.434.137 2.818-.192 3.654-1.562 1.221-1.998 1.904-4.073 1.69-6.526-.287-3.281-.192-6.595-.324-9.89-.041-1.03-.289-2.05-.491-3.399l1.492-1.804 2.152 1.481c0 2.408-.05 4.689.014 6.967.05 1.725.34 3.444.349 5.167.023 4.352-.536 8.551-3.976 11.718-.51.467-1.244.908-1.902.954-1.38.095-2.808.07-4.163-.178-2.106-.387-3.456-1.913-3.652-4.073-.163-1.791-.076-3.603-.14-5.403-.103-2.859-.254-5.713-.353-8.572-.072-2.085-.097-4.172-.149-6.595" fill="#000" sketch:type="MSShapeGroup"/><path d="M88.343 44.513c-1.923.995-2.185 2.445-2.133 4.42.085 3.266-.382 6.555-.712 9.824-.293 2.888-1.752 5.366-2.824 8.028-1.23-.194-2.018-.635-2.48-1.644-1.473-3.212-3.256-6.313-3.359-9.991-.008-.281-.229-.559-.708-.844l-.138 1.723c-.159 1.793-.33 3.585-.477 5.378-.109 1.301-.161 2.606-.289 3.905-.07.693-.076 1.493-.437 2.023-.295.436-1.254.9-1.593.722-.532-.279-1.048-1.059-1.108-1.673-.095-.956.19-1.951.33-2.927.565-3.912 1.186-7.815 1.669-11.735.126-1.028-.037-2.141-.301-3.152-.4-1.537-.281-2.735 1.531-3.473.301 1.396 2.216 1.438 2.387 3.08.153 1.46.518 2.898.726 4.354.489 3.432 1.322 6.741 3.309 9.774 1.613-2.569 1.785-5.469 2.034-8.274.281-3.167.134-6.369.258-9.555.027-.695.406-1.378.65-2.155 1.655.089 2.577 1.04 3.664 2.193" fill="#000" sketch:type="MSShapeGroup"/><path d="M131.653 45.281l2.397 7.341 1.391.612c0 .366.136.801-.021.995-1.533 1.897-.825 3.912-.291 5.868.268.983.274 1.723-.522 2.445-.555.503-.978 1.171-1.869.732-.821-.403-1.232-1.045-1.157-1.988.138-1.704.254-3.411.386-5.215-2.3-.343-3.984.846-5.894 1.347v6.801c-.92.422-1.809 1.566-3.621.877.06-1.21-.021-2.488.215-3.703.671-3.475-.091-6.892-.258-10.33-.045-.976-.291-1.94-.347-2.917-.06-1.053-.233-1.986-1.508-2.356l1.287-2.189c2.323-.037 2.507.062 2.795 2.025.406 2.751.745 5.511 1.145 8.498l5.315-1.394c-.668-1.698-1.195-3.428-2.028-4.989-.415-.778-.966-1.533-.396-2.193.367-.424 1.312-.37 2.005-.478.225-.035.477.095.976.209" fill="#000" sketch:type="MSShapeGroup"/><path d="M145.956 63.364c-3.678.159-6.189-3.061-6.08-6.342.095-2.867.524-5.744 1.069-8.564.448-2.327 3.681-4.797 5.958-4.286 1.549.348 2.963 1.638 4.248 2.733.85.722 1.434 1.802 2.009 2.795.889 1.539 1.351 3.155.668 4.958-.437 1.152-.648 2.389-1.046 3.556-1.054 3.097-3.794 5.14-6.827 5.151zm-1.84-3.655c4.126.821 5.11.374 6.164-2.764.237-.697.481-1.396.656-2.112.635-2.584.177-4.782-1.976-6.607-.959-.811-1.766-1.394-3.041-.983-1.358.436-1.908 1.469-2.102 2.757-.223 1.458-.254 2.958-.619 4.375-.516 1.994-.045 3.705.918 5.333z" fill="#000" sketch:type="MSShapeGroup"/><path d="M105.427 65.079l.693-.134c2.921-.691 3.65-1.363 3.974-3.655.347-2.447-.71-4.65-2.808-5.844-.786-.449-1.613-.836-2.364-1.336-3.049-2.027-2.925-7.43.375-9.037 2.325-1.131 4.918-1.702 7.444-2.54l1.993 2.952c-1.304.11-2.238.176-3.171.269-.976.095-1.956.174-2.923.331-1.873.306-2.529.9-2.721 2.35-.192 1.462.371 2.931 1.731 3.428 4.411 1.603 5.288 5.221 5.558 9.269.093 1.398-.342 2.592-1.197 3.672-2.034 2.565-6.684 3.566-9.616 2.114-.821-.405-1.403-.817-1.203-1.855.223-1.16 1.217-2.186 2.296-2.217.957-.027 1.545.445 1.679 1.436.031.234.144.455.26.801" fill="#000" sketch:type="MSShapeGroup"/><path d="M172.991 39.282l-.891 3.161c-3.487-.852-6.427.064-9.426 1.32 0 .805-.266 1.742.043 2.41 1.533 3.316 1.366 6.94 2.071 10.399.033.161.05.36.151.465 2.643 2.702-.359 3.936-1.36 5.804-1.444-.474-1.51-1.585-1.454-2.625.144-2.747-.173-5.434-.92-8.065-.668-2.348-1.432-4.671-2.205-7.174-1.576.366-3.008.652-4.409 1.038-1.05.29-1.801-.019-2.193-.98-.287-.703.491-1.731 1.529-1.887 2.038-.304 4.048-.612 5.727-1.961.171-.139.485-.199.71-.159 2.967.525 5.56-1.198 8.415-1.398 1.244-.089 2.463-.546 3.695-.838l.518.49" fill="#000" sketch:type="MSShapeGroup"/><path d="M144.116 59.709c-.963-1.628-1.434-3.339-.918-5.333.365-1.417.396-2.917.619-4.375.194-1.289.745-2.321 2.102-2.757 1.275-.412 2.082.172 3.041.983 2.154 1.824 2.612 4.023 1.976 6.607-.175.716-.419 1.415-.656 2.112-1.054 3.138-2.038 3.585-6.164 2.764" fill="#fff" sketch:type="MSShapeGroup"/></g></svg>