<?xml version="1.0" encoding="UTF-8" standalone="no"?>
<svg width="207px" height="102px" viewBox="0 0 207 102" version="1.1" xmlns="http://www.w3.org/2000/svg" xmlns:xlink="http://www.w3.org/1999/xlink" xmlns:sketch="http://www.bohemiancoding.com/sketch/ns">
    <!-- Generator: Sketch 3.1.1 (8761) - http://www.bohemiancoding.com/sketch -->
    <title>gun-shot</title>
    <desc>Created with Sketch.</desc>
    <defs></defs>
    <g id="Page-1" stroke="none" stroke-width="1" fill="none" fill-rule="evenodd" sketch:type="MSPage">
        <g id="Group" sketch:type="MSLayerGroup">
            <path d="M200.246519,-0.39273129 C200.894327,-0.23552177 201.416287,0.864944872 202.751103,0.627062045 C203.780582,0.442961423 204.475841,1.47723458 204.494409,2.61907215 C204.550112,5.99907684 204.605815,9.38115007 204.597563,12.7611548 C204.593437,14.2360283 204.407759,15.7088333 204.343804,17.1857753 C204.116864,22.4502257 203.865168,27.7167446 203.700121,32.9832636 C203.493813,39.5736521 203.347334,46.1661093 203.207044,52.7585664 C203.149278,55.5635152 203.171972,58.3705325 203.165783,61.1775499 C203.16372,61.5891906 203.07707,62.052545 203.233864,62.4041979 C205.420734,67.3376808 204.752294,72.5648974 204.766736,77.705235 C204.772925,79.246302 204.944161,80.5618975 205.816846,81.8940413 C207.456998,84.3928452 206.295481,87.8990312 203.842474,89.5021546 C201.907301,90.768105 199.994822,91.3617778 197.692421,91.2997214 C196.431876,91.2666247 195.165143,91.9657933 193.881904,92.2471156 C193.013346,92.4394904 192.056075,92.7249498 191.239093,92.5367121 C189.394696,92.1105915 187.616318,92.3981195 185.893643,92.8490626 C183.937839,93.3620621 182.204848,92.9504214 180.337757,92.4332848 C178.967869,92.0526723 177.418493,92.2202245 175.957829,92.3008978 C172.106051,92.5139581 168.250147,92.7084014 164.412811,93.1014252 C160.996343,93.4530781 157.610822,94.1212186 154.198481,94.5245851 C152.659421,94.7066172 151.085287,94.5928471 149.525596,94.5969842 C148.467234,94.5969842 147.441881,94.4625287 146.488736,95.258919 C146.055488,95.6229832 145.244696,95.5836808 144.598951,95.6395316 C140.179825,96.0201441 135.723563,96.1339141 131.351888,96.8082602 C126.196241,97.6046506 121.050909,97.3936588 115.887009,97.5177716 C110.607577,97.6460215 105.266252,97.0089092 100.042523,98.3782869 C99.3369486,98.5623875 98.5715444,98.5334279 97.8329603,98.560319 C93.067236,98.738214 88.2994486,98.8623267 83.5378505,99.0898668 C80.9940678,99.2119111 78.4606005,99.544947 75.9188808,99.7083622 C73.8743645,99.8407491 71.8215958,99.8593661 69.7729533,99.9296966 C65.423972,100.080701 61.0646752,100.086906 56.7321986,100.428216 C53.0537196,100.715744 49.4123762,101.445941 45.7400864,101.85965 C44.5434977,101.994106 43.2973949,101.650727 42.0801752,101.696235 C39.3713458,101.797594 36.6666425,102.112013 33.9578131,102.134767 C32.1732453,102.149247 30.1452336,102.782222 28.781535,100.843994 C28.6515607,100.659893 28.1584836,100.684716 27.8366425,100.69299 C24.8121612,100.784006 21.7876799,100.955696 18.7631986,100.972244 C16.8796028,100.980518 14.9877547,100.612317 13.1103481,100.67851 C9.49788785,100.80676 6.68796729,100.01037 6.30423364,95.747096 C4.4144486,94.0715735 4.79199299,91.8023781 4.6743972,89.6448843 C4.64551402,89.094651 4.21432944,88.5733773 4.13386916,88.0148698 C3.9729486,86.8895806 3.68411682,85.7063721 3.87185748,84.6203853 C4.64551402,80.1461196 4.19576168,75.8104466 3.16009346,71.4168542 C2.54323131,68.8001431 2.58861916,66.0262225 2.32867056,63.324701 C2.19457009,61.9387749 2.03983879,60.556986 1.88717056,59.1027979 C1.32601168,59.1627858 0.94846729,59.2041567 0.189252336,59.28483 C0.323352804,58.5732501 0.232577103,57.766517 0.591553738,57.3734932 C1.74688084,56.1075429 1.91811682,54.707137 1.87891822,53.0688483 C1.7386285,47.0348987 1.75925935,40.996812 1.65404206,34.9607938 C1.63134813,33.6596782 1.32601168,32.3626997 1.15064953,31.0636526 C0.799925234,28.4696955 0.515219626,25.8653957 0.0695934579,23.2900555 C-0.118147196,22.2040687 0.385245327,21.8296618 1.31363318,21.3270051 C1.54263551,22.0861616 1.72212383,22.68604 1.91192757,23.3148781 C2.54735748,23.132846 3.20754439,22.9404712 3.98945327,22.7149996 C4.55267523,19.2750071 5.19429439,15.7770953 9.99096495,15.2661643 C11.1545444,16.298369 12.8978505,16.3066431 14.7525631,16.1618449 C16.7166192,16.0067039 18.7425678,16.3955906 20.6715514,16.0956514 C27.0609229,15.1027492 33.4729883,16.2135586 39.8644229,15.6591881 C45.1851168,15.1979023 50.5202523,14.8627978 55.8574509,14.6600803 C61.8527734,14.4304716 67.8563481,14.4635684 73.8537336,14.2856734 C78.9681192,14.132601 84.0144229,13.3568961 88.9431308,11.9916555 C92.3513458,11.0483984 95.7698762,10.2437339 99.2874346,9.8382988 C101.647603,9.56731924 103.985077,8.90124732 106.343182,8.85160221 C110.102121,8.77299745 113.823925,7.89593381 117.624126,8.47098969 C118.958942,8.67370723 120.378343,8.2393125 121.762673,8.19380448 C127.41346,8.00970386 133.062185,7.82767178 138.712972,7.71597028 C142.401766,7.64357116 146.09675,7.81112341 149.781418,7.66011953 C155.366187,7.43051089 160.948893,7.07472092 166.523346,6.65687457 C168.72672,6.49139086 170.90121,5.95770591 173.100458,5.68672634 C175.953703,5.33714201 178.831706,5.18200104 181.670509,4.75381195 C183.665512,4.45180419 185.800804,4.19116735 187.537921,3.27273279 C190.083766,1.93024623 192.879245,1.74407706 195.499362,0.846327955 C196.947647,0.347808292 198.46814,0.0623489001 200.246519,-0.39273129 L200.246519,-0.39273129 Z M200.712776,5.63501268 C199.910236,5.52124264 199.276869,5.34127911 198.649692,5.36196457 C197.267425,5.40747259 195.883096,5.51917409 194.509082,5.66810942 C193.149509,5.81497621 191.789937,5.98252847 190.448932,6.2431653 C188.208423,6.68169712 186.000923,7.34776904 183.745972,7.6497768 C181.0619,8.00763531 178.254042,7.72424447 175.652493,8.351014 C168.080974,10.1734033 160.35885,10.1651291 152.680051,10.6450319 C149.24089,10.8601607 145.772846,10.5974553 142.323369,10.6801972 C139.041002,10.7588019 135.762762,10.9718622 132.484521,11.1849225 C129.286741,11.3917771 126.08896,11.633797 122.899432,11.9316677 C118.564893,12.3350342 114.242731,12.8666506 109.906129,13.2307148 C105.501444,13.598916 101.084381,13.7747424 96.7147687,14.5132135 C93.8016939,15.0075961 90.8679883,15.363386 87.942535,15.7833009 C86.5602687,15.9818814 85.1078575,15.9736072 83.8163668,16.4286874 C81.736778,17.1609528 79.6406846,17.3016139 77.4909509,17.2850656 C76.9174136,17.2809285 76.3459393,17.369876 75.7724019,17.4091783 C72.3291145,17.638787 68.8899533,17.9635487 65.4446028,18.0649075 C62.8224229,18.1414437 60.1899276,17.798065 57.5698107,17.8828754 C54.9476308,17.9676858 52.3398925,18.509645 49.7197757,18.5654957 C43.6274883,18.6978827 37.5310748,18.6420319 31.4367243,18.6978827 C30.2690187,18.7082254 28.9713388,18.1704034 28.0078785,19.426011 C27.8510841,19.6287285 27.1496355,19.62666 26.842236,19.4591077 C25.3258692,18.6337578 23.9394766,19.3784344 22.5324533,19.7342244 C19.1139229,20.5988768 15.6974556,20.853308 12.272736,19.8231719 C9.2833271,18.9233542 7.29864019,19.9452161 6.69415654,22.9901163 C6.13506075,25.8054078 5.83385047,28.6744816 5.4398014,31.5208013 C5.21492523,33.1487473 4.8043715,34.7891045 4.86626402,36.4087763 C5.04781542,41.1374732 6.48784813,45.8310048 5.17160047,50.599004 C5.09114019,50.8948061 5.21286215,51.2547332 5.26443925,51.579495 C5.57596495,53.5259971 5.96382477,55.4621564 6.19695327,57.4190012 C6.61163318,60.9231187 6.68590421,64.4892926 7.37910047,67.9354907 C7.88042991,70.4363632 6.7127243,73.0385945 8.06198131,75.4132857 C8.09292757,75.4670679 8.02484579,75.5704952 8.02278271,75.6511685 C7.9196285,78.9442942 7.55446262,82.2581054 7.79790654,85.5264086 C7.99389953,88.1513939 7.87424065,91.0018507 9.82385514,93.248292 C10.0796776,93.5420256 10.0982453,94.1501782 10.0425421,94.5907786 C9.81147664,96.4317848 10.2529766,96.955127 11.9900935,96.9799496 C14.5153084,97.0151149 17.0446495,97.0626914 19.5636752,97.2240381 C22.8150958,97.4308927 26.0562009,97.8301221 29.3096846,98.0018115 C32.4311308,98.1652266 35.5195678,97.912864 38.5873738,97.1164736 C43.8007874,95.7636443 49.1503645,95.6085034 54.4648692,96.2042447 C58.4672523,96.6551878 62.4448785,97.242655 66.4823341,97.1516389 C72.4590888,97.019252 78.4399696,96.955127 84.4125981,96.6903531 C90.9030607,96.4007566 97.407965,96.1277085 103.867481,95.4554309 C110.310493,94.7852219 116.753505,94.3756498 123.221273,94.2246459 C125.195645,94.1770693 127.170016,94.0674364 129.136136,93.8998841 C129.750935,93.8481705 130.648376,93.6930295 130.889757,93.2772517 C131.762442,91.7734185 133.142645,91.794104 134.529037,91.7589387 C137.640168,91.6782654 140.765741,91.4341769 143.860367,91.6265517 C151.310164,92.0899061 158.605229,90.7329397 165.960124,90.0606621 C169.721126,89.7172835 173.482129,89.3656306 177.247257,89.0822397 C179.995285,88.8733166 182.76807,88.9064133 185.501657,88.5878572 C190.306579,88.0272811 195.084682,87.2495077 199.885479,86.637218 C201.059374,86.4882827 201.480243,85.989763 201.333764,84.8624052 C201.129519,83.3213382 200.811804,81.7782027 200.797362,80.2329986 C200.76229,76.6171796 201.032554,72.995155 200.894327,69.3855417 C200.749911,65.6331987 201.110951,61.783634 199.454294,58.2029803 C199.264491,57.7954767 199.336699,57.2349006 199.37796,56.7529293 C199.54507,54.7836732 199.732811,52.8144171 199.937056,50.8492981 C200.479647,45.6076018 200.902579,40.3596997 200.700397,35.0869752 C200.659136,34.0506335 200.190815,33.0287716 200.176374,31.9986355 C200.128923,28.6434534 200.149554,25.2841342 200.244456,21.9310206 C200.310474,19.6307971 200.59518,17.3388478 200.685956,15.0406928 C200.764353,13.0217916 200.70865,10.9987533 200.712776,8.97778354 L200.712776,5.63501268 L200.712776,5.63501268 Z" id="Fill-12" fill="#000000" sketch:type="MSShapeGroup"></path>
            <path d="M200.712776,5.63501268 L200.712776,8.97778354 C200.70865,10.9987533 200.764353,13.0217916 200.685956,15.0406928 C200.59518,17.3388478 200.310474,19.6307971 200.244456,21.9310206 C200.149554,25.2841342 200.128923,28.6434534 200.176374,31.9986355 C200.190815,33.0287716 200.659136,34.0506335 200.700397,35.0869752 C200.902579,40.3596997 200.479647,45.6076018 199.937056,50.8492981 C199.732811,52.8144171 199.54507,54.7836732 199.37796,56.7529293 C199.336699,57.2349006 199.264491,57.7954767 199.454294,58.2029803 C201.110951,61.783634 200.749911,65.6331987 200.894327,69.3855417 C201.032554,72.995155 200.76229,76.6171796 200.797362,80.2329986 C200.811804,81.7782027 201.129519,83.3213382 201.333764,84.8624052 C201.480243,85.989763 201.059374,86.4882827 199.885479,86.637218 C195.084682,87.2495077 190.306579,88.0272811 185.501657,88.5878572 C182.76807,88.9064133 179.995285,88.8733166 177.247257,89.0822397 C173.482129,89.3656306 169.721126,89.7172835 165.960124,90.0606621 C158.605229,90.7329397 151.310164,92.0899061 143.860367,91.6265517 C140.765741,91.4341769 137.640168,91.6782654 134.529037,91.7589387 C133.142645,91.794104 131.762442,91.7734185 130.889757,93.2772517 C130.648376,93.6930295 129.750935,93.8481705 129.136136,93.8998841 C127.170016,94.0674364 125.195645,94.1770693 123.221273,94.2246459 C116.753505,94.3756498 110.310493,94.7852219 103.867481,95.4554309 C97.407965,96.1277085 90.9030607,96.4007566 84.4125981,96.6903531 C78.4399696,96.955127 72.4590888,97.019252 66.4823341,97.1516389 C62.4448785,97.242655 58.4672523,96.6551878 54.4648692,96.2042447 C49.1503645,95.6085034 43.8007874,95.7636443 38.5873738,97.1164736 C35.5195678,97.912864 32.4311308,98.1652266 29.3096846,98.0018115 C26.0562009,97.8301221 22.8150958,97.4308927 19.5636752,97.2240381 C17.0446495,97.0626914 14.5153084,97.0151149 11.9900935,96.9799496 C10.2529766,96.955127 9.81147664,96.4317848 10.0425421,94.5907786 C10.0982453,94.1501782 10.0796776,93.5420256 9.82385514,93.248292 C7.87424065,91.0018507 7.99389953,88.1513939 7.79790654,85.5264086 C7.55446262,82.2581054 7.9196285,78.9442942 8.02278271,75.6511685 C8.02484579,75.5704952 8.09292757,75.4670679 8.06198131,75.4132857 C6.7127243,73.0385945 7.88042991,70.4363632 7.37910047,67.9354907 C6.68590421,64.4892926 6.61163318,60.9231187 6.19695327,57.4190012 C5.96382477,55.4621564 5.57596495,53.5259971 5.26443925,51.579495 C5.21286215,51.2547332 5.09114019,50.8948061 5.17160047,50.599004 C6.48784813,45.8310048 5.04781542,41.1374732 4.86626402,36.4087763 C4.8043715,34.7891045 5.21492523,33.1487473 5.4398014,31.5208013 C5.83385047,28.6744816 6.13506075,25.8054078 6.69415654,22.9901163 C7.29864019,19.9452161 9.2833271,18.9233542 12.272736,19.8231719 C15.6974556,20.853308 19.1139229,20.5988768 22.5324533,19.7342244 C23.9394766,19.3784344 25.3258692,18.6337578 26.842236,19.4591077 C27.1496355,19.62666 27.8510841,19.6287285 28.0078785,19.426011 C28.9713388,18.1704034 30.2690187,18.7082254 31.4367243,18.6978827 C37.5310748,18.6420319 43.6274883,18.6978827 49.7197757,18.5654957 C52.3398925,18.509645 54.9476308,17.9676858 57.5698107,17.8828754 C60.1899276,17.798065 62.8224229,18.1414437 65.4446028,18.0649075 C68.8899533,17.9635487 72.3291145,17.638787 75.7724019,17.4091783 C76.3459393,17.369876 76.9174136,17.2809285 77.4909509,17.2850656 C79.6406846,17.3016139 81.736778,17.1609528 83.8163668,16.4286874 C85.1078575,15.9736072 86.5602687,15.9818814 87.942535,15.7833009 C90.8679883,15.363386 93.8016939,15.0075961 96.7147687,14.5132135 C101.084381,13.7747424 105.501444,13.598916 109.906129,13.2307148 C114.242731,12.8666506 118.564893,12.3350342 122.899432,11.9316677 C126.08896,11.633797 129.286741,11.3917771 132.484521,11.1849225 C135.762762,10.9718622 139.041002,10.7588019 142.323369,10.6801972 C145.772846,10.5974553 149.24089,10.8601607 152.680051,10.6450319 C160.35885,10.1651291 168.080974,10.1734033 175.652493,8.351014 C178.254042,7.72424447 181.0619,8.00763531 183.745972,7.6497768 C186.000923,7.34776904 188.208423,6.68169712 190.448932,6.2431653 C191.789937,5.98252847 193.149509,5.81497621 194.509082,5.66810942 C195.883096,5.51917409 197.267425,5.40747259 198.649692,5.36196457 C199.276869,5.34127911 199.910236,5.52124264 200.712776,5.63501268 L200.712776,5.63501268 Z M44.7106075,46.1330125 C45.1376659,44.8711993 44.7539322,43.878297 43.790472,43.2391162 C42.4597827,42.359984 40.8361355,41.6773637 39.3569042,42.2668994 C37.1019533,43.16258 34.7479743,44.1906475 33.7638832,46.7494393 C33.2357336,48.1208855 32.6539439,49.5068116 32.3981215,50.9403142 C31.8142687,54.2355084 31.2427944,57.5513882 30.9931612,60.8838163 C30.7786005,63.7301361 30.5846706,66.6860887 31.8988551,69.375199 C33.6318458,72.9206873 36.2808458,74.1287184 39.2661285,72.7200384 C41.6242336,71.6071604 44.2443505,70.359827 44.0009065,66.853641 C43.9348879,65.9207266 44.3825771,65.002292 43.8729953,64.0011156 C43.6254252,63.5150072 43.8915631,62.7641249 43.9286986,62.0732305 C44.9849977,62.0235853 45.8453037,61.984283 46.7200514,61.942912 L46.7200514,58.6228952 C45.288271,58.5422219 44.0236005,58.4718913 42.760993,58.3994922 C42.6805327,58.3953551 42.589757,58.3726011 42.5196121,58.3994922 C42.2906098,58.482234 41.9440117,58.523605 41.8676776,58.6890887 C41.3663481,59.7440473 40.4028879,59.8309262 39.4414907,60.1143171 C39.0164953,60.2404984 38.6678341,61.0658484 38.5708692,61.6243559 C38.5378598,61.8105251 39.3692827,62.2407827 39.8582336,62.3959237 C40.2708505,62.5262421 40.7598014,62.4228148 41.2363738,62.4228148 C41.4303037,64.1252284 41.6056659,65.5856221 41.7542079,67.0480843 C41.778965,67.2838986 41.7583341,67.592112 41.6262967,67.7638014 C40.7371075,68.9056389 39.6065374,69.712372 38.1355584,69.8323477 C36.7120304,69.9502548 35.4164136,69.4806948 34.8944533,68.0927002 C34.3807453,66.7336653 33.8072079,65.2132838 33.9392453,63.8294263 C34.4199439,58.7718305 35.1709065,53.7390573 35.843472,48.7000785 C36.1673762,46.2778108 37.9024299,45.3345536 40.015028,44.7346752 C40.4957266,44.5981511 41.4798178,44.949804 41.682,45.3531706 C42.4721612,46.9335399 43.5078294,46.7018628 44.7106075,46.1330125 L44.7106075,46.1330125 Z M52.7318785,45.9551175 C52.7834556,48.3773853 52.8082126,50.4645485 52.8804206,52.5496432 C52.9794486,55.4083742 53.1300537,58.2629681 53.2332079,61.1216991 C53.2971636,62.9213344 53.210514,64.733381 53.3734977,66.5247421 C53.5694907,68.6843045 54.9187477,70.2108917 57.0251565,70.5977098 C58.3806028,70.8459354 59.808257,70.8707579 61.1884603,70.7756048 C61.8465841,70.7300968 62.5810421,70.2894964 63.0906238,69.822005 C66.529785,66.6550605 67.0888808,62.4559115 67.0661869,58.1036901 C67.0579346,56.380591 66.7670397,54.661629 66.7175257,52.9364614 C66.6535701,50.6589919 66.7030841,48.3773853 66.7030841,45.9695974 C66.1481145,45.5889848 65.4219089,45.0883966 64.5512874,44.4885182 C63.9633084,45.1980296 63.4062757,45.8744442 63.0596776,46.2922906 C63.2618598,47.6409828 63.5094299,48.6607761 63.5506916,49.6909122 C63.682729,52.9861065 63.5878271,56.2999177 63.8745958,59.5806321 C64.0891565,62.0339281 63.4062757,64.10868 62.1849299,66.1068958 C61.3493808,67.4762734 59.9650514,67.8051723 58.5312079,67.6686482 C57.1819509,67.5424669 56.2741939,66.3302988 56.0348762,64.6754617 C55.9296589,63.9431963 55.7254136,63.1716285 55.8553879,62.4703913 C56.8312266,57.1935297 55.7769907,51.9869986 55.3994463,46.7597821 C55.2612196,44.8318969 54.8795491,44.6250423 53.3219206,45.5455454 C52.9794486,45.7482629 52.6658598,46.0006256 52.7318785,45.9551175 L52.7318785,45.9551175 Z M88.3427734,44.5133407 C87.255528,43.3611604 86.3333294,42.4096291 84.678736,42.3206817 C84.4352921,43.0984551 84.0556846,43.7810754 84.0288645,44.4761069 C83.9050794,47.6616682 84.0515584,50.8637779 83.770979,54.0307224 C83.5213458,56.8356712 83.3501098,59.7357731 81.736778,62.3049076 C79.750028,59.2724187 78.9165421,55.9627446 78.4275911,52.5310263 C78.2192196,51.0747697 77.8540537,49.63713 77.7013855,48.1767363 C77.5301495,46.5343105 75.6156075,46.4929396 75.3143972,45.0966708 C73.5030093,45.8351418 73.3833505,47.0328302 73.7835888,48.5697601 C74.0476636,49.5812792 74.2106472,50.6941572 74.0847991,51.7222247 C73.6020374,55.6421199 72.9810491,59.5454668 72.415764,63.4570879 C72.2754743,64.4334418 71.9907687,65.4284126 72.0856706,66.384081 C72.1455,66.9984392 72.661271,67.7782812 73.1935467,68.057535 C73.5318925,68.2354299 74.4912266,67.7720756 74.7862477,67.3356123 C75.1472874,66.8060644 75.1534766,66.005537 75.2236215,65.312574 C75.3515327,64.0135269 75.4031098,62.7082742 75.5124533,61.4071585 C75.6589322,59.6137289 75.8301682,57.8223678 75.9890257,56.0289381 C76.0385397,55.4559508 76.0818645,54.8808949 76.1272523,54.305839 C76.6058879,54.5912984 76.8266379,54.8684836 76.8348902,55.1498059 C76.9380444,58.8276813 78.7205491,61.9284322 80.1935911,65.1408846 C80.655722,66.1503352 81.4438201,66.5909356 82.6734182,66.785379 C83.746222,64.1231599 85.2048224,61.6450414 85.4977804,58.7573507 C85.8278738,55.4890475 86.2941308,52.2000589 86.2095444,48.9338242 C86.1579673,46.9583625 86.419979,45.5083115 88.3427734,44.5133407 L88.3427734,44.5133407 Z M131.653098,45.2807714 C131.153832,45.1670014 130.902136,45.036683 130.677259,45.0718483 C129.984063,45.1794127 129.039171,45.1256305 128.671942,45.5496825 C128.10253,46.2095487 128.653374,46.9645681 129.068054,47.7423416 C129.90154,49.304094 130.427626,51.0333987 131.096065,52.7316753 C129.183586,53.234332 127.491857,53.6770009 125.781561,54.1258755 C125.381322,51.1388946 125.042977,48.3794538 124.636549,45.6282872 C124.347717,43.6652368 124.164103,43.5659465 121.84107,43.6031804 C121.447021,44.2754579 121.042657,44.9622153 120.553706,45.7917024 C121.828692,46.1619722 122.001991,47.0948866 122.06182,48.1477766 C122.117523,49.1241305 122.36303,50.0880731 122.408418,51.0644269 C122.575528,54.5023509 123.336806,57.9195894 122.666304,61.3947473 C122.431112,62.6089839 122.511572,63.8873456 122.451743,65.0974452 C124.263131,65.7862711 125.15232,64.642365 126.072456,64.2203815 L126.072456,57.4190012 C127.982871,56.918413 129.666348,55.7289989 131.966687,56.0723776 C131.83465,57.87615 131.719117,59.5827007 131.58089,61.2871829 C131.506619,62.23044 131.917173,62.8716893 132.73828,63.2750559 C133.629533,63.7135877 134.052465,63.0454472 134.607435,62.5427905 C135.403785,61.8208678 135.397596,61.0803282 135.129395,60.0977687 C134.595056,58.1409239 133.887418,56.1261598 135.42029,54.2293028 C135.577084,54.0348595 135.440921,53.6004647 135.440921,53.234332 C134.813743,52.9592154 134.236079,52.7047842 134.050402,52.6220423 C133.18597,49.974303 132.432944,47.672011 131.653098,45.2807714 L131.653098,45.2807714 Z M145.95646,63.3640034 C148.989194,63.3536606 151.72897,61.3099369 152.783206,58.213323 C153.181381,57.0466629 153.391815,55.8096722 153.829189,54.6574919 C154.51207,52.8537195 154.049939,51.2381848 153.16075,49.6991864 C152.58515,48.7062841 152.001297,47.626503 151.151306,46.9045803 C149.866005,45.8103193 148.452792,44.5195464 146.903416,44.1720306 C144.625771,43.6610997 141.392918,46.130944 140.945229,48.4580586 C140.400575,51.2774872 139.971453,54.1548351 139.876551,57.0218403 C139.767208,60.3025548 142.277981,63.5232814 145.95646,63.3640034 L145.95646,63.3640034 Z M105.427173,65.0788283 C105.31164,64.733381 105.198171,64.5120466 105.167224,64.2783008 C105.033124,63.2874671 104.445145,62.8158386 103.487874,62.8427297 C102.408881,62.8737579 101.414474,63.8997569 101.191661,65.0602113 C100.991542,66.0986216 101.573332,66.5102623 102.394439,66.9156974 C105.326082,68.3678169 109.976273,67.3666405 112.010474,64.801643 C112.864591,63.7218619 113.299902,62.5283106 113.207063,61.1299733 C112.936799,57.0818282 112.059988,53.4639407 107.649114,51.8608173 C106.289542,51.3643662 105.72632,49.8956983 105.918187,48.433236 C106.110054,46.9831851 106.766114,46.3895123 108.639395,46.0833674 C109.606981,45.9261579 110.586946,45.8475531 111.562785,45.7524 C112.495299,45.6593154 113.429876,45.5931219 114.733745,45.483489 C113.964215,44.34372 113.434002,43.5576723 112.740806,42.5316734 C110.215591,43.3694346 107.622294,43.9403534 105.297199,45.0718483 C101.996264,46.6791087 101.872479,52.0821517 104.921717,54.1093271 C105.67268,54.6099153 106.499977,54.9967335 107.286012,55.445608 C109.384168,56.6391593 110.440467,58.8421611 110.093869,61.2892514 C109.769965,63.5812007 109.041696,64.2534783 106.120369,64.9443727 C105.959449,64.9816066 105.798528,65.0064291 105.427173,65.0788283 L105.427173,65.0788283 Z M172.991114,39.2819871 C172.817815,39.1185719 172.644516,38.9551568 172.47328,38.7917416 C171.241619,39.0834067 170.022336,39.5405554 168.778297,39.6295029 C165.922988,39.8301519 163.329692,41.553251 160.362977,41.0278402 C160.1381,40.9885378 159.824512,41.0485257 159.653276,41.1871183 C157.973925,42.5358105 155.964481,42.8440239 153.926154,43.1481002 C152.888423,43.3032412 152.11064,44.3313087 152.397409,45.0346144 C152.789395,45.9964885 153.540357,46.3047019 154.590467,46.0151054 C155.991301,45.6282872 157.423082,45.3428278 158.999278,44.9766951 C159.772935,47.4796362 160.536276,49.8026137 161.204715,52.1504138 C161.951551,54.7816047 162.269266,57.4686463 162.12485,60.2156759 C162.069147,61.2561547 162.135166,62.366964 163.579325,62.8406611 C164.579921,60.9727638 167.581708,59.7378417 164.938897,57.0363202 C164.837806,56.9308243 164.821301,56.7322439 164.788292,56.5708972 C164.082717,53.1122878 164.249827,49.4881946 162.716956,46.1723149 C162.407493,45.5041744 162.673631,44.567123 162.673631,43.7624584 C165.673355,42.5068508 168.61325,41.5904848 172.099862,42.4427259 C172.415514,41.3236423 172.702283,40.3017804 172.991114,39.2819871 L172.991114,39.2819871 Z" id="Fill-61" sketch:type="MSShapeGroup"></path>
            <path d="M44.7106075,46.1330125 C43.5078294,46.7018628 42.4721612,46.9335399 41.682,45.3531706 C41.4798178,44.949804 40.4957266,44.5981511 40.015028,44.7346752 C37.9024299,45.3345536 36.1673762,46.2778108 35.843472,48.7000785 C35.1709065,53.7390573 34.4199439,58.7718305 33.9392453,63.8294263 C33.8072079,65.2132838 34.3807453,66.7336653 34.8944533,68.0927002 C35.4164136,69.4806948 36.7120304,69.9502548 38.1355584,69.8323477 C39.6065374,69.712372 40.7371075,68.9056389 41.6262967,67.7638014 C41.7583341,67.592112 41.778965,67.2838986 41.7542079,67.0480843 C41.6056659,65.5856221 41.4303037,64.1252284 41.2363738,62.4228148 C40.7598014,62.4228148 40.2708505,62.5262421 39.8582336,62.3959237 C39.3692827,62.2407827 38.5378598,61.8105251 38.5708692,61.6243559 C38.6678341,61.0658484 39.0164953,60.2404984 39.4414907,60.1143171 C40.4028879,59.8309262 41.3663481,59.7440473 41.8676776,58.6890887 C41.9440117,58.523605 42.2906098,58.482234 42.5196121,58.3994922 C42.589757,58.3726011 42.6805327,58.3953551 42.760993,58.3994922 C44.0236005,58.4718913 45.288271,58.5422219 46.7200514,58.6228952 L46.7200514,61.942912 C45.8453037,61.984283 44.9849977,62.0235853 43.9286986,62.0732305 C43.8915631,62.7641249 43.6254252,63.5150072 43.8729953,64.0011156 C44.3825771,65.002292 43.9348879,65.9207266 44.0009065,66.853641 C44.2443505,70.359827 41.6242336,71.6071604 39.2661285,72.7200384 C36.2808458,74.1287184 33.6318458,72.9206873 31.8988551,69.375199 C30.5846706,66.6860887 30.7786005,63.7301361 30.9931612,60.8838163 C31.2427944,57.5513882 31.8142687,54.2355084 32.3981215,50.9403142 C32.6539439,49.5068116 33.2357336,48.1208855 33.7638832,46.7494393 C34.7479743,44.1906475 37.1019533,43.16258 39.3569042,42.2668994 C40.8361355,41.6773637 42.4597827,42.359984 43.790472,43.2391162 C44.7539322,43.878297 45.1376659,44.8711993 44.7106075,46.1330125" id="Fill-217" fill="#000000" sketch:type="MSShapeGroup"></path>
            <path d="M52.7318785,45.9551175 C52.6658598,46.0006256 52.9794486,45.7482629 53.3219206,45.5455454 C54.8795491,44.6250423 55.2612196,44.8318969 55.3994463,46.7597821 C55.7769907,51.9869986 56.8312266,57.1935297 55.8553879,62.4703913 C55.7254136,63.1716285 55.9296589,63.9431963 56.0348762,64.6754617 C56.2741939,66.3302988 57.1819509,67.5424669 58.5312079,67.6686482 C59.9650514,67.8051723 61.3493808,67.4762734 62.1849299,66.1068958 C63.4062757,64.10868 64.0891565,62.0339281 63.8745958,59.5806321 C63.5878271,56.2999177 63.682729,52.9861065 63.5506916,49.6909122 C63.5094299,48.6607761 63.2618598,47.6409828 63.0596776,46.2922906 C63.4062757,45.8744442 63.9633084,45.1980296 64.5512874,44.4885182 C65.4219089,45.0883966 66.1481145,45.5889848 66.7030841,45.9695974 C66.7030841,48.3773853 66.6535701,50.6589919 66.7175257,52.9364614 C66.7670397,54.661629 67.0579346,56.380591 67.0661869,58.1036901 C67.0888808,62.4559115 66.529785,66.6550605 63.0906238,69.822005 C62.5810421,70.2894964 61.8465841,70.7300968 61.1884603,70.7756048 C59.808257,70.8707579 58.3806028,70.8459354 57.0251565,70.5977098 C54.9187477,70.2108917 53.5694907,68.6843045 53.3734977,66.5247421 C53.210514,64.733381 53.2971636,62.9213344 53.2332079,61.1216991 C53.1300537,58.2629681 52.9794486,55.4083742 52.8804206,52.5496432 C52.8082126,50.4645485 52.7834556,48.3773853 52.7318785,45.9551175" id="Fill-218" fill="#000000" sketch:type="MSShapeGroup"></path>
            <path d="M88.3427734,44.5133407 C86.419979,45.5083115 86.1579673,46.9583625 86.2095444,48.9338242 C86.2941308,52.2000589 85.8278738,55.4890475 85.4977804,58.7573507 C85.2048224,61.6450414 83.746222,64.1231599 82.6734182,66.785379 C81.4438201,66.5909356 80.655722,66.1503352 80.1935911,65.1408846 C78.7205491,61.9284322 76.9380444,58.8276813 76.8348902,55.1498059 C76.8266379,54.8684836 76.6058879,54.5912984 76.1272523,54.305839 C76.0818645,54.8808949 76.0385397,55.4559508 75.9890257,56.0289381 C75.8301682,57.8223678 75.6589322,59.6137289 75.5124533,61.4071585 C75.4031098,62.7082742 75.3515327,64.0135269 75.2236215,65.312574 C75.1534766,66.005537 75.1472874,66.8060644 74.7862477,67.3356123 C74.4912266,67.7720756 73.5318925,68.2354299 73.1935467,68.057535 C72.661271,67.7782812 72.1455,66.9984392 72.0856706,66.384081 C71.9907687,65.4284126 72.2754743,64.4334418 72.415764,63.4570879 C72.9810491,59.5454668 73.6020374,55.6421199 74.0847991,51.7222247 C74.2106472,50.6941572 74.0476636,49.5812792 73.7835888,48.5697601 C73.3833505,47.0328302 73.5030093,45.8351418 75.3143972,45.0966708 C75.6156075,46.4929396 77.5301495,46.5343105 77.7013855,48.1767363 C77.8540537,49.63713 78.2192196,51.0747697 78.4275911,52.5310263 C78.9165421,55.9627446 79.750028,59.2724187 81.736778,62.3049076 C83.3501098,59.7357731 83.5213458,56.8356712 83.770979,54.0307224 C84.0515584,50.8637779 83.9050794,47.6616682 84.0288645,44.4761069 C84.0556846,43.7810754 84.4352921,43.0984551 84.678736,42.3206817 C86.3333294,42.4096291 87.255528,43.3611604 88.3427734,44.5133407" id="Fill-219" fill="#000000" sketch:type="MSShapeGroup"></path>
            <path d="M131.653098,45.2807714 C132.432944,47.672011 133.18597,49.974303 134.050402,52.6220423 C134.236079,52.7047842 134.813743,52.9592154 135.440921,53.234332 C135.440921,53.6004647 135.577084,54.0348595 135.42029,54.2293028 C133.887418,56.1261598 134.595056,58.1409239 135.129395,60.0977687 C135.397596,61.0803282 135.403785,61.8208678 134.607435,62.5427905 C134.052465,63.0454472 133.629533,63.7135877 132.73828,63.2750559 C131.917173,62.8716893 131.506619,62.23044 131.58089,61.2871829 C131.719117,59.5827007 131.83465,57.87615 131.966687,56.0723776 C129.666348,55.7289989 127.982871,56.918413 126.072456,57.4190012 L126.072456,64.2203815 C125.15232,64.642365 124.263131,65.7862711 122.451743,65.0974452 C122.511572,63.8873456 122.431112,62.6089839 122.666304,61.3947473 C123.336806,57.9195894 122.575528,54.5023509 122.408418,51.0644269 C122.36303,50.0880731 122.117523,49.1241305 122.06182,48.1477766 C122.001991,47.0948866 121.828692,46.1619722 120.553706,45.7917024 C121.042657,44.9622153 121.447021,44.2754579 121.84107,43.6031804 C124.164103,43.5659465 124.347717,43.6652368 124.636549,45.6282872 C125.042977,48.3794538 125.381322,51.1388946 125.781561,54.1258755 C127.491857,53.6770009 129.183586,53.234332 131.096065,52.7316753 C130.427626,51.0333987 129.90154,49.304094 129.068054,47.7423416 C128.653374,46.9645681 128.10253,46.2095487 128.671942,45.5496825 C129.039171,45.1256305 129.984063,45.1794127 130.677259,45.0718483 C130.902136,45.036683 131.153832,45.1670014 131.653098,45.2807714" id="Fill-220" fill="#000000" sketch:type="MSShapeGroup"></path>
            <path d="M145.95646,63.3640034 C142.277981,63.5232814 139.767208,60.3025548 139.876551,57.0218403 C139.971453,54.1548351 140.400575,51.2774872 140.945229,48.4580586 C141.392918,46.130944 144.625771,43.6610997 146.903416,44.1720306 C148.452792,44.5195464 149.866005,45.8103193 151.151306,46.9045803 C152.001297,47.626503 152.58515,48.7062841 153.16075,49.6991864 C154.049939,51.2381848 154.51207,52.8537195 153.829189,54.6574919 C153.391815,55.8096722 153.181381,57.0466629 152.783206,58.213323 C151.72897,61.3099369 148.989194,63.3536606 145.95646,63.3640034 L145.95646,63.3640034 Z M144.116189,59.708882 C148.242357,60.5300949 149.226449,60.0832889 150.280685,56.9453041 C150.517939,56.248204 150.761383,55.5490354 150.936745,54.8333183 C151.572175,52.249704 151.114171,50.0508392 148.960311,48.2263814 C148.000977,47.4155112 147.194311,46.8321812 145.919325,47.2438219 C144.561815,47.6802852 144.010972,48.7124898 143.817042,50.0011941 C143.594229,51.4595193 143.563283,52.9592154 143.198117,54.3761696 C142.682346,56.3702482 143.152729,58.0809361 144.116189,59.708882 L144.116189,59.708882 Z" id="Fill-221" fill="#000000" sketch:type="MSShapeGroup"></path>
            <path d="M105.427173,65.0788283 C105.798528,65.0064291 105.959449,64.9816066 106.120369,64.9443727 C109.041696,64.2534783 109.769965,63.5812007 110.093869,61.2892514 C110.440467,58.8421611 109.384168,56.6391593 107.286012,55.445608 C106.499977,54.9967335 105.67268,54.6099153 104.921717,54.1093271 C101.872479,52.0821517 101.996264,46.6791087 105.297199,45.0718483 C107.622294,43.9403534 110.215591,43.3694346 112.740806,42.5316734 C113.434002,43.5576723 113.964215,44.34372 114.733745,45.483489 C113.429876,45.5931219 112.495299,45.6593154 111.562785,45.7524 C110.586946,45.8475531 109.606981,45.9261579 108.639395,46.0833674 C106.766114,46.3895123 106.110054,46.9831851 105.918187,48.433236 C105.72632,49.8956983 106.289542,51.3643662 107.649114,51.8608173 C112.059988,53.4639407 112.936799,57.0818282 113.207063,61.1299733 C113.299902,62.5283106 112.864591,63.7218619 112.010474,64.801643 C109.976273,67.3666405 105.326082,68.3678169 102.394439,66.9156974 C101.573332,66.5102623 100.991542,66.0986216 101.191661,65.0602113 C101.414474,63.8997569 102.408881,62.8737579 103.487874,62.8427297 C104.445145,62.8158386 105.033124,63.2874671 105.167224,64.2783008 C105.198171,64.5120466 105.31164,64.733381 105.427173,65.0788283" id="Fill-222" fill="#000000" sketch:type="MSShapeGroup"></path>
            <path d="M172.991114,39.2819871 C172.702283,40.3017804 172.415514,41.3236423 172.099862,42.4427259 C168.61325,41.5904848 165.673355,42.5068508 162.673631,43.7624584 C162.673631,44.567123 162.407493,45.5041744 162.716956,46.1723149 C164.249827,49.4881946 164.082717,53.1122878 164.788292,56.5708972 C164.821301,56.7322439 164.837806,56.9308243 164.938897,57.0363202 C167.581708,59.7378417 164.579921,60.9727638 163.579325,62.8406611 C162.135166,62.366964 162.069147,61.2561547 162.12485,60.2156759 C162.269266,57.4686463 161.951551,54.7816047 161.204715,52.1504138 C160.536276,49.8026137 159.772935,47.4796362 158.999278,44.9766951 C157.423082,45.3428278 155.991301,45.6282872 154.590467,46.0151054 C153.540357,46.3047019 152.789395,45.9964885 152.397409,45.0346144 C152.11064,44.3313087 152.888423,43.3032412 153.926154,43.1481002 C155.964481,42.8440239 157.973925,42.5358105 159.653276,41.1871183 C159.824512,41.0485257 160.1381,40.9885378 160.362977,41.0278402 C163.329692,41.553251 165.922988,39.8301519 168.778297,39.6295029 C170.022336,39.5405554 171.241619,39.0834067 172.47328,38.7917416 C172.644516,38.9551568 172.817815,39.1185719 172.991114,39.2819871" id="Fill-223" fill="#000000" sketch:type="MSShapeGroup"></path>
            <path d="M144.116189,59.708882 C143.152729,58.0809361 142.682346,56.3702482 143.198117,54.3761696 C143.563283,52.9592154 143.594229,51.4595193 143.817042,50.0011941 C144.010972,48.7124898 144.561815,47.6802852 145.919325,47.2438219 C147.194311,46.8321812 148.000977,47.4155112 148.960311,48.2263814 C151.114171,50.0508392 151.572175,52.249704 150.936745,54.8333183 C150.761383,55.5490354 150.517939,56.248204 150.280685,56.9453041 C149.226449,60.0832889 148.242357,60.5300949 144.116189,59.708882" id="Fill-261" sketch:type="MSShapeGroup"></path>
        </g>
    </g>
</svg>