<svg width="201" height="98" viewBox="0 0 201 98" xmlns="http://www.w3.org/2000/svg" xmlns:sketch="http://www.bohemiancoding.com/sketch/ns"><title>ho-ho-ho-hover</title><desc>Created with Sketch.</desc><g sketch:type="MSLayerGroup" fill="none"><path d="M196.996 6.609c-.563.598-.625 1.388-.491 2.48.256 2.098.083 4.263-.052 6.392-.126 1.961-.39 3.918-.679 5.864-.289 1.942-.683 3.868-1.079 6.059.528-.064.961-.209 1.362-.151 1.021.151 1.642.695 1.446 1.843l-.025.246c-1.642 5.027.043 9.894.716 14.807.033.24.231.47.225.699-.066 2.532-.262 5.066-.215 7.594.054 2.956.268 5.91.493 8.858.398 5.248.904 10.49 1.269 15.74.142 2.042-.029 4.102.047 6.15.078 2.133.188 4.269.452 6.384.338 2.687-.041 3.283-2.536 3.529-1.05.103-2.086.339-3.13.513-.243.039-.51.143-.73.085-3.472-.904-6.944-.006-10.414.008-3.27.012-6.538.283-9.808.41-.902.035-1.807-.06-2.711-.064-2.678-.012-5.428-.403-8.023.062-7.326 1.316-14.669 1.727-22.092 1.547-2.403-.058-4.817.525-7.235.699-1.207.087-2.437-.161-3.654-.141-4.103.07-8.209.308-12.31.254-2.932-.039-5.857-.48-8.791-.67-1.622-.105-3.251-.083-4.879-.091-2.55-.012-5.133.25-7.646-.066-3.28-.416-6.528-.025-9.787-.06-5.911-.064-11.834-.079-17.738.168-5.737.24-11.46.854-17.192 1.254-1.89.132-3.794.037-5.682.172-3.169.225-6.33.734-9.498.782-3.445.052-6.897-.329-10.35-.439-1.948-.06-3.901.019-5.849.089-3.194.116-6.383.302-9.577.412-2.17.074-4.347.13-6.519.074-1.426-.035-1.906-.767-1.285-2.106.355-.767.163-1.324.095-2.046-.274-2.846-.365-5.709-.514-8.568-.095-1.798-.167-3.599-.254-5.399-.118-2.381-.26-4.762-.355-7.147-.142-3.587-.219-7.178-.39-10.763-.144-3.024-.118-6.026.14-9.054.212-2.53.134-5.132-.194-7.654-.512-3.914-.353-7.846-.648-11.762-.349-4.675-.648-9.36-.739-14.045-.066-3.51.192-7.029.386-10.539.134-2.397.378-2.565 2.653-2.832 2.113-.246 4.26-.372 6.319-.861 3.629-.863 7.287-1.016 10.982-.993.726.004 1.45-.271 2.181-.372.567-.079 1.19-.252 1.706-.101 3.643 1.072 7.276.434 10.941.155 3.608-.275 7.246-.316 10.866-.275 7.741.093 15.479.341 23.222.455 6.672.099 13.346.134 20.022.132 6.311-.002 12.622-.188 18.931-.112 6.14.077 12.201-.728 18.3-1.142 8.426-.573 16.893-.439 25.351-.048 5.059.234 10.142-.118 15.215-.19 1.892-.027 3.79.085 5.671-.043 1.704-.116 3.39-.499 5.09-.72 2.48-.325 4.97-.59 7.448-.927.718-.099 1.428-.323 2.115-.563.959-.337 1.857-.546 2.828.048 1.013.618 1.879 1.57 3.332 1.293.361-.07.999.741 1.339 1.26.642.98 1.162 2.044 1.927 3.428zm-189.985 78.201c-.149 2.364-.349 4.727-.423 7.091-.041 1.285.547 2.236 1.97 2.389 1.452.157 2.911.449 4.357.397 1.19-.041 2.368-.734 3.549-.72 2.944.031 5.886.339 8.83.461 1.879.079 3.924.496 5.603-.085 1.968-.683 3.901-1.098 5.933-1.285.396-.037 1.007-.05 1.141-.288.871-1.543 2.257-.978 3.52-1.001 2.775-.048 5.564.021 8.325-.225 4.165-.37 8.287-1.243 12.506-.966.902.06 1.816.052 2.717-.014 3.877-.285 7.759-1.138 11.595.31.448.17.966.165 1.454.205 1.634.132 3.266.271 4.902.366 7.215.422 14.429.817 21.644 1.26 1.291.079 2.573.457 3.862.482 3.938.072 7.879.008 11.817.058 6.243.081 12.486.246 18.731.296 1.714.012 3.429-.294 5.145-.389 4.504-.25 9.065-.101 13.499-.784 5.643-.871 11.302-.838 16.944-.983 4.26-.11 8.496-.238 12.702-.654l1.378-2.126c2.655.447 5.199.875 7.939 1.334-.113-2.242-.268-4.201-.303-6.162-.062-3.61-.045-7.221-.08-10.831-.019-1.818-.142-3.608-1.749-4.454 0-2.066.19-3.893-.039-5.668-.549-4.278-.706-8.529.043-12.796.113-.639.052-1.326-.027-1.98-.406-3.341-.838-6.679-1.275-10.018-.136-1.04-.186-2.046-1.044-2.933-.475-.49-.648-1.591-.495-2.321.883-4.224 1.054-8.485.976-12.779-.033-1.866-.039-3.75.192-5.595.355-2.807.464-5.558-.51-8.28-.557-.029-1.122 0-1.669-.097-.619-.11-1.219-.327-1.855-.507l.235-1.369c-.813-.093-1.611-.29-2.397-.25-.889.043-1.76.374-2.651.445-1.582.128-3.247-.147-4.475 1.287-.153.18-.613.143-.926.13-3.848-.143-7.695-.476-11.537-.405-4.101.077-8.193.71-12.294.782-6.414.116-12.816.039-19.199.985-2.892.428-5.888.091-8.824.294-3.078.213-6.063 1.036-9.208 1.103-4.578.095-9.146.796-13.709 1.305-1.599.178-3.175.776-4.762.782-3.367.01-6.752-.085-10.101-.418-5.806-.577-11.592-.732-17.425-.43-3.348.174-6.73-.29-10.095-.492-1.966-.12-3.928-.306-5.892-.436-1.3-.087-2.63.019-3.899-.213-3.658-.674-7.322-1.03-11.044-.817-3.844.221-7.691.501-11.537.511-7.248.019-14.446.174-21.485 2.282-1.426.426-2.527.999-3.579 2.164.289 3.345.594 6.768.873 10.192.037.478.126 1.202-.134 1.413-1.131.927-.765 2.098-.65 3.188.204 1.934.716 3.85.776 5.782.157 5.264.146 10.531.202 15.797.004.414-.008.827.008 1.241.103 2.613.262 5.223.309 7.836.07 4.034.056 8.069.099 12.105.006.658-.006 1.367.223 1.963.86 2.24.433 4.505.285 6.774-.072 1.072-.19 2.168-.029 3.215.13.846.648 1.634 1.036 2.551z" fill="#000" sketch:type="MSShapeGroup"/><path d="M7.011 84.811c-.388-.916-.906-1.704-1.036-2.551-.161-1.047-.043-2.143.029-3.215.149-2.269.576-4.534-.285-6.774-.229-.596-.217-1.305-.223-1.963-.043-4.036-.029-8.071-.099-12.105-.047-2.613-.206-5.223-.309-7.836-.017-.414-.004-.827-.008-1.241-.056-5.267-.045-10.533-.202-15.797-.06-1.932-.571-3.847-.776-5.782-.116-1.09-.481-2.261.65-3.188.26-.211.171-.935.134-1.413-.279-3.423-.584-6.847-.873-10.192 1.052-1.165 2.154-1.738 3.579-2.164 7.039-2.108 14.237-2.263 21.485-2.282 3.846-.01 7.693-.29 11.537-.511 3.722-.213 7.386.143 11.044.817 1.269.232 2.599.126 3.899.213 1.964.13 3.926.316 5.892.436 3.365.203 6.746.666 10.095.492 5.832-.302 11.619-.147 17.425.43 3.348.333 6.734.428 10.101.418 1.587-.006 3.163-.604 4.762-.782 4.564-.509 9.131-1.21 13.709-1.305 3.144-.066 6.129-.889 9.208-1.103 2.936-.203 5.931.134 8.824-.294 6.383-.945 12.785-.869 19.199-.985 4.101-.072 8.193-.705 12.294-.782 3.841-.07 7.689.263 11.537.405.314.012.774.05.926-.13 1.228-1.434 2.892-1.158 4.475-1.287.891-.07 1.762-.401 2.651-.445.786-.039 1.584.157 2.397.25l-.235 1.369c.635.18 1.236.397 1.855.507.547.097 1.112.068 1.669.097.974 2.722.864 5.473.51 8.28-.231 1.845-.225 3.73-.192 5.595.078 4.294-.093 8.556-.976 12.779-.153.73.021 1.831.495 2.321.858.887.908 1.893 1.044 2.933.437 3.339.869 6.677 1.275 10.018.078.654.14 1.34.027 1.98-.749 4.267-.592 8.518-.043 12.796.229 1.775.039 3.601.039 5.668 1.607.846 1.731 2.635 1.749 4.454.035 3.61.019 7.221.08 10.831.035 1.961.19 3.92.303 6.162-2.74-.459-5.284-.887-7.939-1.334l-1.378 2.126c-4.207.416-8.442.544-12.702.654-5.643.145-11.302.112-16.944.983-4.434.683-8.995.534-13.499.784-1.716.095-3.431.401-5.145.389-6.245-.05-12.488-.215-18.731-.296-3.938-.05-7.879.014-11.817-.058-1.289-.025-2.571-.403-3.862-.482-7.215-.443-14.429-.838-21.644-1.26-1.636-.095-3.268-.234-4.902-.366-.489-.039-1.007-.035-1.454-.205-3.835-1.448-7.718-.596-11.595-.31-.902.066-1.816.074-2.717.014-4.219-.277-8.341.596-12.506.966-2.76.246-5.55.178-8.325.225-1.263.023-2.649-.542-3.52 1.001-.134.238-.745.25-1.141.288-2.032.186-3.965.602-5.933 1.285-1.679.581-3.724.163-5.603.085-2.944-.122-5.886-.43-8.83-.461-1.18-.014-2.358.678-3.549.72-1.446.052-2.905-.24-4.357-.397-1.424-.153-2.012-1.105-1.97-2.389.074-2.364.274-4.727.423-7.091zm36.494-47.035c-.462 1.065-1.079 1.988-1.254 2.987-.384 2.178-.345 4.441-.842 6.586-.765 3.318-.041 6.332 1.157 9.371.671 1.696 1.795 2.894 3.326 3.779 1.576.912 4.285.563 5.424-.875 1.793-2.265 3.237-4.679 3.846-7.633.425-2.06-.109-3.941-.295-5.871-.359-3.738-2.191-6.822-4.953-9.325-1.322-1.198-2.401-.952-3.024.681-.212.55-.101 1.227-.146 2.021 2.317-.256 3.295 1.131 4.081 2.743.252.513.472 1.065.58 1.626.361 1.855.848 3.713.947 5.587.186 3.486-1.211 6.33-3.903 8.597-1.593-1.171-2.736-2.383-3.256-4.137-1.271-4.286-.563-8.518.477-12.68.611-2.453.765-2.513-2.162-3.457zm67.795 8.266c0-1.134.2-2.017-.035-2.764-1.075-3.434-2.288-6.793-6.647-7.273-.475-.052-.891-.608-1.341-.921-1.23-.852-2.618-.546-2.971.745-.726 2.65-1.7 5.198-1.978 8.009-.398 4.034-.019 7.848 1.648 11.511 1.065 2.348 3.767 3.243 6.02 1.969 1.205-.681 2.422-1.481 3.332-2.501.784-.879 1.417-2.091 1.62-3.246.334-1.911.266-3.893.353-5.531zm49.594-12.866c-2.744 3.02-3.295 6.487-3.794 9.968-.118.811.017 1.676-.194 2.453-.615 2.255-.171 4.4.47 6.541.617 2.058 2.304 3.14 4.258 2.569 2.148-.627 4.066-1.696 5.381-3.614 1.069-1.56 2.255-3.057 3.14-4.716.516-.964.864-2.234.724-3.291-.312-2.344-.887-4.669-1.537-6.948-.359-1.268-1.374-2.217-2.785-1.94-2.007.395-3.866.325-5.663-1.022zm-134.893 29.487c.782-1.233 1.225-2.302.86-3.92-.512-2.271-.33-4.702-.439-6.977 2.302-1.518 4.694-1.907 7.233-1.843.305-1.353.062-2.277-1.333-2.46-1.199-.155-2.418-.223-3.627-.221-.854.004-1.706.192-2.744.321-.264-2.315-.51-4.348-.724-6.388-.144-1.39-.206-2.788-.371-4.176-.13-1.084-.708-1.903-1.859-1.967-1.275-.072-1.681.906-1.801 1.94-.07.621.105 1.274.19 1.909.584 4.387 1.174 8.775 1.756 13.162l-.05.238c-.05 2.904-.132 5.808-.126 8.711.004 1.243.524 1.634 1.859 1.669.4.01.803.002 1.176.002zm121.316-20.241c-2.76.416-5.564.84-8.298 1.251-.483 2.948.411 3.75 2.973 2.929 1.696-.546 3.396-1.08 5.063-1.609.165.362.283.503.287.645.105 2.873.14 5.748.314 8.618.091 1.475 1.192 2.428 2.15 1.971.79-.376 1.51-.952 2.166-1.545.732-.66.803-1.632.002-2.141-1.376-.875-1.376-2.112-1.378-3.457-.002-1.32-.087-2.639-.107-3.961-.035-2.038.159-4.106-.124-6.108-.297-2.104-.988-4.16-1.603-6.208-.846-2.811-1.972-3.142-4.57-1.185 2.104 3.163 3.208 6.712 3.126 10.8zm-65.321 6.52c2.265-.813 4.475-2.259 7.264-1.421 0 1.431.01 2.828-.008 4.226-.004.385.041.989-.167 1.117-1.327.813-.708 1.785-.068 2.443.491.503 1.702 1.022 2.073.767.72-.49 1.083-1.512 1.566-2.331.066-.114-.014-.323-.043-.484-.862-4.747-.332-9.519-.268-14.283.025-1.791-.017-3.591-.182-5.372-.12-1.287-1.058-1.82-2.288-1.582-1.081.213-1.322.945-1.052 1.841 1.069 3.558.406 7.147.349 10.93-.637 0-1.219.12-1.731-.021-1.696-.47-3.26.027-4.809.565-2.205.767-2.337 1.514-.635 3.605zm-46.566 12.275c2.707-.697 2.554-.712 2.812-3.332.171-1.756-.722-3.183-.897-4.77-.351-3.177-.774-6.425-.464-9.573.295-2.999-.52-5.672-1.11-8.456-.177-.832-.448-1.76-1.454-1.665-.825.079-1.809.389-2.364.954-.658.664-.444 1.585.212 2.422 1.572 2.006 2.061 4.406 2.104 6.897.041 2.379-.12 4.766.004 7.139.124 2.4-.689 4.84.318 7.205.116.269.06.687-.068.968-.514 1.123.252 1.638.908 2.213zm43.215-1.764c1.213-.273 2.181-1.022 2.321-2.209.089-.743-.561-1.566-.85-2.364-.165-.459-.382-.941-.382-1.413-.004-4.265-.889-8.514-.116-12.804.291-1.605.248-3.293.165-4.933-.07-1.371-.949-1.889-2.203-1.601-1.186.271-1.236 1.183-1.219 2.116.118 6.826.25 13.65.367 20.474.023 1.355.439 2.406 1.917 2.735zm59.59-4.04c1.343-1.239 1.58-2.551.423-4.092-.303-.408-.353-1.067-.371-1.616-.089-2.617-.021-5.244-.212-7.852-.175-2.371-.592-4.725-.949-7.081-.194-1.282-.994-1.992-2.282-2.195-1.271 1.109-1.529 2.282-.803 3.785.384.792.541 1.727.646 2.617.375 3.179.739 6.363.99 9.553.074.941-.105 1.957-.4 2.863-.84 2.575.116 3.928 2.958 4.017zm42.225-12.401c-.163-1.169-.421-2.286-.456-3.411-.095-3.022-.083-6.044-.134-9.069-.025-1.489-.576-1.99-1.945-1.833-1.129.13-1.65 1.055-1.584 2.275.171 3.179.421 6.373.262 9.542-.095 1.878.297 3.171 1.875 4.09l1.983-1.595zm-117.94.66c-.058-4.168-.908-7.854-2.183-11.437-2.973.474-3.012.604-2.507 3.045.382 1.837.722 3.713.765 5.581.037 1.624.516 2.817 1.912 3.823l2.012-1.012zm50.31-9.944c1.523 2.54 2.608 4.962 1.981 7.819-.103.47-.045.983-.008 1.473.066.892.749 1.152 1.386.896.887-.354 1.805-.84 2.455-1.514.497-.517.854-1.309.225-2.211-.481-.689-.637-1.609-.908-2.437-.406-1.231-.681-2.517-1.201-3.696-.823-1.864-1.141-1.913-2.952-.933-.281.153-.545.335-.978.604zm-49.819 23.046c-.039-2.495-1.366-3.442-3.286-3.059-1.366.273-2.032 1.177-2.672 2.257-1.075 1.812-1.04 2.333.45 3.715.883.821 2.511.889 3.612.085 1.19-.865 1.933-2.002 1.896-2.997zm109.3-.697c2.311 1.86 4.675 2.215 5.869.929 1.452-1.564 1.283-2.861-.47-4.708-2.094-.782-3.233.165-4.087 1.779-.371.703-.875 1.34-1.312 2zm-56.826-.242c2.168.023 4.163-2.582 3.392-4.561-.186-.474-.912-1.009-1.413-1.034-1.851-.089-3.559 1.487-3.862 3.347-.287 1.773.097 2.232 1.884 2.249z" fill="#fff" sketch:type="MSShapeGroup"/><path d="M43.505 37.776c2.928.943 2.773 1.003 2.162 3.457-1.04 4.162-1.747 8.394-.477 12.68.52 1.754 1.663 2.966 3.256 4.137 2.692-2.267 4.089-5.111 3.903-8.597-.099-1.874-.586-3.732-.947-5.587-.107-.561-.328-1.113-.58-1.626-.786-1.611-1.764-2.999-4.081-2.743.045-.794-.066-1.471.146-2.021.623-1.632 1.702-1.878 3.024-.681 2.762 2.503 4.594 5.587 4.953 9.325.186 1.93.72 3.81.295 5.871-.609 2.954-2.053 5.368-3.846 7.633-1.139 1.438-3.848 1.787-5.424.875-1.531-.885-2.655-2.083-3.326-3.779-1.199-3.039-1.923-6.053-1.157-9.371.497-2.145.458-4.408.842-6.586.175-.999.792-1.922 1.254-2.987" fill="#000" sketch:type="MSShapeGroup"/><path d="M111.3 46.042c-.087 1.638-.019 3.62-.353 5.531-.202 1.154-.836 2.366-1.62 3.246-.91 1.02-2.127 1.82-3.332 2.501-2.253 1.274-4.956.379-6.02-1.969-1.667-3.663-2.047-7.478-1.648-11.511.279-2.811 1.252-5.36 1.978-8.009.353-1.291 1.741-1.597 2.971-.745.45.312.866.869 1.341.921 4.359.48 5.572 3.839 6.647 7.273.235.747.035 1.63.035 2.764zm-8.861-7.19c-.468 1.682-1.048 3.146-1.252 4.663-.208 1.543-.237 3.165.002 4.698.274 1.769.794 3.531 1.459 5.192.547 1.365 1.675 1.642 3.076 1.04 1.376-.592 2.245-1.727 2.63-3.109.807-2.896 1.032-5.887.12-8.769-.371-1.173-1.355-2.253-2.304-3.101-.489-.436-1.514-.267-2.296-.379-.402-.058-.8-.13-1.434-.236z" fill="#000" sketch:type="MSShapeGroup"/><path d="M160.894 33.176c1.797 1.347 3.656 1.417 5.663 1.022 1.411-.277 2.426.672 2.785 1.94.65 2.28 1.225 4.605 1.537 6.948.14 1.057-.208 2.327-.724 3.291-.885 1.659-2.071 3.157-3.14 4.716-1.314 1.918-3.233 2.987-5.381 3.614-1.954.571-3.641-.511-4.258-2.569-.642-2.141-1.085-4.286-.47-6.541.21-.778.076-1.642.194-2.453.499-3.481 1.05-6.948 3.794-9.968zm6.387 3.85c-.724.048-1.38-.11-1.642.145-1.085 1.053-2.331 1.314-3.794 1.398-.978.058-1.694.877-1.791 2.04-.101 1.225-.415 2.441-.419 3.663-.006 1.878.087 3.769.301 5.637.161 1.386.823 1.849 2.22 1.632.677-.105 1.483-.426 1.908-.925 1.273-1.489 2.467-3.064 3.526-4.712.454-.707.743-1.704.671-2.532-.175-2.027-.604-4.034-.98-6.346z" fill="#000" sketch:type="MSShapeGroup"/><path d="M26.002 62.663c-.373 0-.776.008-1.176-.002-1.335-.035-1.855-.426-1.859-1.669-.006-2.902.076-5.806.126-8.711l.05-.238c-.582-4.387-1.172-8.775-1.756-13.162-.085-.635-.26-1.289-.19-1.909.12-1.034.526-2.013 1.801-1.94 1.151.064 1.729.883 1.859 1.967.165 1.388.227 2.786.371 4.176.215 2.04.46 4.073.724 6.388 1.038-.128 1.89-.316 2.744-.321 1.209-.002 2.428.066 3.627.221 1.395.182 1.638 1.107 1.333 2.46-2.54-.064-4.931.325-7.233 1.843.109 2.275-.072 4.706.439 6.977.365 1.618-.078 2.687-.86 3.92" fill="#000" sketch:type="MSShapeGroup"/><path d="M147.317 42.422c.083-4.087-1.021-7.637-3.126-10.8 2.597-1.957 3.724-1.626 4.57 1.185.615 2.048 1.306 4.104 1.603 6.208.283 2.002.089 4.071.124 6.108.021 1.322.105 2.642.107 3.961.002 1.345.002 2.582 1.378 3.457.8.509.73 1.481-.002 2.141-.656.594-1.376 1.169-2.166 1.545-.957.457-2.059-.496-2.15-1.971-.173-2.869-.208-5.744-.314-8.618-.004-.143-.122-.283-.287-.645-1.667.53-3.367 1.063-5.063 1.609-2.562.821-3.456.019-2.973-2.929 2.734-.412 5.537-.836 8.298-1.251" fill="#000" sketch:type="MSShapeGroup"/><path d="M81.996 48.942c-1.702-2.091-1.57-2.838.635-3.605 1.549-.538 3.113-1.034 4.809-.565.512.141 1.093.021 1.731.021.058-3.783.72-7.372-.349-10.93-.27-.896-.029-1.628 1.052-1.841 1.23-.238 2.168.296 2.288 1.582.165 1.781.206 3.581.182 5.372-.064 4.764-.594 9.536.268 14.283.029.161.109.37.043.484-.483.819-.846 1.841-1.566 2.331-.371.254-1.582-.265-2.073-.767-.64-.658-1.258-1.63.068-2.443.208-.128.163-.732.167-1.117.019-1.398.008-2.795.008-4.226-2.789-.838-4.999.608-7.264 1.421" fill="#000" sketch:type="MSShapeGroup"/><path d="M35.43 61.217c-.656-.575-1.421-1.09-.908-2.213.128-.281.184-.699.068-.968-1.007-2.364-.194-4.805-.318-7.205-.124-2.373.037-4.76-.004-7.139-.043-2.491-.532-4.89-2.104-6.897-.656-.838-.871-1.758-.212-2.422.555-.565 1.539-.875 2.364-.954 1.007-.095 1.277.834 1.454 1.665.59 2.784 1.405 5.457 1.11 8.456-.309 3.148.113 6.396.464 9.573.175 1.587 1.069 3.014.897 4.77-.258 2.621-.105 2.635-2.812 3.332" fill="#000" sketch:type="MSShapeGroup"/><path d="M78.645 59.452c-1.477-.329-1.894-1.38-1.917-2.735-.118-6.824-.25-13.648-.367-20.474-.017-.933.033-1.845 1.219-2.116 1.254-.288 2.133.23 2.203 1.601.083 1.64.126 3.328-.165 4.933-.774 4.29.111 8.539.116 12.804 0 .472.217.954.382 1.413.289.798.939 1.622.85 2.364-.14 1.187-1.108 1.936-2.321 2.209" fill="#000" sketch:type="MSShapeGroup"/><path d="M138.235 55.412c-2.843-.089-3.798-1.442-2.958-4.017.295-.906.475-1.922.4-2.863-.252-3.19-.615-6.373-.99-9.553-.105-.889-.262-1.824-.646-2.617-.726-1.504-.468-2.677.803-3.785 1.287.203 2.088.912 2.282 2.195.357 2.356.774 4.71.949 7.081.192 2.608.124 5.235.212 7.852.019.548.068 1.208.371 1.616 1.157 1.541.92 2.853-.423 4.092" fill="#000" sketch:type="MSShapeGroup"/><path d="M180.461 43.011l-1.983 1.595c-1.578-.918-1.97-2.211-1.875-4.09.159-3.169-.091-6.363-.262-9.542-.066-1.22.456-2.145 1.584-2.275 1.37-.157 1.921.343 1.945 1.833.052 3.024.039 6.046.134 9.069.035 1.125.293 2.242.456 3.411" fill="#000" sketch:type="MSShapeGroup"/><path d="M62.52 43.671l-2.012 1.012c-1.397-1.005-1.875-2.199-1.912-3.823-.043-1.868-.384-3.744-.765-5.581-.505-2.441-.466-2.571 2.507-3.045 1.275 3.583 2.125 7.269 2.183 11.437" fill="#000" sketch:type="MSShapeGroup"/><path d="M112.831 33.728c.433-.269.697-.451.978-.604 1.811-.98 2.129-.931 2.952.933.52 1.179.794 2.466 1.201 3.696.27.827.427 1.748.908 2.437.629.902.272 1.694-.225 2.211-.65.674-1.568 1.16-2.455 1.514-.637.256-1.32-.004-1.386-.896-.037-.49-.095-1.003.008-1.473.627-2.857-.458-5.279-1.981-7.819" fill="#000" sketch:type="MSShapeGroup"/><path d="M63.011 56.774c.037.995-.706 2.133-1.896 2.997-1.102.805-2.729.736-3.612-.085-1.49-1.382-1.525-1.903-.45-3.715.64-1.08 1.306-1.984 2.672-2.257 1.921-.383 3.247.565 3.286 3.059" fill="#000" sketch:type="MSShapeGroup"/><path d="M172.311 56.076c.437-.66.941-1.297 1.312-2 .854-1.613 1.993-2.561 4.087-1.779 1.754 1.847 1.923 3.144.47 4.708-1.195 1.287-3.559.931-5.869-.929" fill="#000" sketch:type="MSShapeGroup"/><path d="M115.486 55.834c-1.787-.017-2.17-.476-1.884-2.249.303-1.86 2.012-3.436 3.862-3.347.501.025 1.228.561 1.413 1.034.772 1.98-1.223 4.584-3.392 4.561" fill="#000" sketch:type="MSShapeGroup"/><path d="M102.439 38.852c.633.105 1.032.178 1.434.236.782.112 1.807-.058 2.296.379.949.848 1.933 1.928 2.304 3.101.912 2.881.687 5.873-.12 8.769-.386 1.382-1.254 2.517-2.63 3.109-1.401.602-2.529.325-3.076-1.04-.664-1.661-1.184-3.423-1.459-5.192-.239-1.533-.21-3.155-.002-4.698.204-1.516.784-2.981 1.252-4.663" fill="#fff" sketch:type="MSShapeGroup"/><path d="M167.282 37.025c.375 2.313.805 4.319.98 6.346.072.827-.217 1.824-.671 2.532-1.058 1.649-2.253 3.223-3.526 4.712-.425.499-1.232.819-1.908.925-1.397.217-2.059-.246-2.22-1.632-.215-1.868-.307-3.759-.301-5.637.004-1.223.318-2.439.419-3.663.097-1.163.813-1.982 1.791-2.04 1.463-.085 2.709-.345 3.794-1.398.262-.254.918-.097 1.642-.145" fill="#fff" sketch:type="MSShapeGroup"/></g></svg>