<?xml version="1.0" encoding="UTF-8" standalone="no"?>
<svg width="201px" height="98px" viewBox="0 0 201 98" version="1.1" xmlns="http://www.w3.org/2000/svg" xmlns:xlink="http://www.w3.org/1999/xlink" xmlns:sketch="http://www.bohemiancoding.com/sketch/ns">
    <!-- Generator: Sketch 3.1.1 (8761) - http://www.bohemiancoding.com/sketch -->
    <title>ho-ho-ho-hover</title>
    <desc>Created with Sketch.</desc>
    <defs></defs>
    <g id="Page-1" stroke="none" stroke-width="1" fill="none" fill-rule="evenodd" sketch:type="MSPage">
        <g id="Group" sketch:type="MSLayerGroup">
            <path d="M196.996243,6.609191 C196.433021,7.20700089 196.371129,7.99718558 196.505229,9.08937804 C196.761051,11.186884 196.587752,13.352652 196.453652,15.4811862 C196.327804,17.4421681 196.063729,19.3990129 195.774897,21.345515 C195.486065,23.28788 195.092016,25.2136966 194.695904,27.4042871 C195.224054,27.3401622 195.657301,27.195364 196.05754,27.2532833 C197.078766,27.4042871 197.699755,27.9483148 197.503762,29.096358 C197.491383,29.1790999 197.503762,29.2659788 197.479005,29.342515 C195.83679,34.3690826 197.522329,39.2363721 198.194895,44.1491696 C198.227904,44.389121 198.42596,44.6187296 198.419771,44.8483383 C198.353752,47.3802389 198.157759,49.9142082 198.20521,52.4419718 C198.25885,55.3979245 198.473411,58.3518086 198.698287,61.2994871 C199.096463,66.5473891 199.601918,71.7890855 199.967084,77.0390561 C200.109437,79.0807113 199.938201,81.1409834 200.014535,83.1888443 C200.092932,85.3215155 200.202276,87.4583239 200.46635,89.5723782 C200.804696,92.2594199 200.425089,92.8551612 197.93082,93.1013182 C196.88071,93.2047456 195.845042,93.4405598 194.801121,93.6143177 C194.557678,93.6536201 194.29154,93.7570474 194.07079,93.6991281 C190.598619,92.7951734 187.126449,93.6929225 183.656341,93.7074023 C180.386353,93.7198136 177.118428,93.9907932 173.848439,94.1169745 C172.946871,94.1521398 172.041178,94.0569866 171.137547,94.0528495 C168.459664,94.0404383 165.709572,93.649483 163.114213,94.1149059 C155.788201,95.4305014 148.445685,95.8421421 141.022708,95.6621786 C138.619215,95.6042593 136.205407,96.1875893 133.787472,96.3613472 C132.580568,96.4482262 131.35097,96.2000006 130.13375,96.2206861 C126.030276,96.2910167 121.924738,96.5288995 117.823327,96.4751173 C114.891685,96.4358149 111.966231,95.9952145 109.032526,95.8049083 C107.410942,95.6994124 105.781105,95.7221664 104.153332,95.7138922 C101.60336,95.701481 99.0203785,95.9641863 96.5075421,95.6476988 C93.2272383,95.2319209 89.9799439,95.6228762 86.720271,95.5877109 C80.809535,95.523586 74.8864206,95.5091062 68.9818738,95.7552632 C63.2444369,95.9952145 57.5214416,96.6095728 51.7901939,97.0088022 C49.9004089,97.1411892 47.9961822,97.0460361 46.1084603,97.1804916 C42.9395631,97.4059631 39.7789182,97.9148255 36.610021,97.9624021 C33.1646706,98.0141157 29.7131308,97.6335032 26.259528,97.5238703 C24.3119766,97.4638824 22.358236,97.5424872 20.4106846,97.6128178 C17.2170304,97.7286564 14.0275023,97.9148255 10.8338481,98.0244585 C8.66348364,98.0989261 6.48692991,98.1547769 4.31450234,98.0989261 C2.88891121,98.0637609 2.40821262,97.3314955 3.02920093,95.993146 C3.3840514,95.2257153 3.19218458,94.6692763 3.1241028,93.9473537 C2.84971262,91.1010339 2.75893692,88.2381658 2.61039486,85.3794348 C2.51549299,83.5818681 2.44328505,81.7801642 2.35663551,79.9805289 C2.23903972,77.5996321 2.09668692,75.2187353 2.00178505,72.8337014 C1.85943224,69.2468421 1.78309813,65.6558457 1.61186215,62.0710549 C1.46744626,59.0468402 1.49426636,56.0453795 1.75215187,53.0170277 C1.96464953,50.4871955 1.88625234,47.8849643 1.55822196,45.3634063 C1.0465771,41.4497167 1.20543458,37.5174101 0.910413551,33.6016519 C0.561752336,28.9267372 0.26260514,24.2414798 0.171829439,19.5562224 C0.105810748,16.0458993 0.363696262,12.527302 0.557626168,9.01697892 C0.691726636,6.61953373 0.935170561,6.45198148 3.21075234,6.18513901 C5.32335047,5.93898199 7.47102103,5.81280067 9.52997897,5.32462374 C13.1589439,4.46203992 16.8167921,4.30896749 20.5117757,4.3317215 C21.2379813,4.3358586 21.9621238,4.06074194 22.6924556,3.95938317 C23.2598037,3.88077841 23.8828551,3.70702052 24.3986262,3.8580244 C28.0420327,4.92953139 31.6751238,4.29241912 35.3391612,4.01316537 C38.9474953,3.73804871 42.5847126,3.69667778 46.2054252,3.73804871 C53.9461168,3.83113329 61.6847453,4.07935885 69.4275,4.1931289 C76.099514,4.29241912 82.7735911,4.32758441 89.4497313,4.32551586 C95.7607056,4.32344732 102.07168,4.13727815 108.380591,4.21381436 C114.520329,4.29035058 120.581671,3.48568606 126.680147,3.0719768 C135.105783,2.49898947 143.57268,2.63344498 152.031325,3.02440023 C157.090007,3.25814596 162.173446,2.90649309 167.24657,2.83409397 C169.138418,2.80720287 171.036456,2.91890437 172.917988,2.7906545 C174.622096,2.6748159 176.307636,2.29213483 178.007617,2.07080038 C180.487444,1.7460386 182.977586,1.48126468 185.45535,1.14409163 C186.173304,1.0448014 186.883005,0.8213984 187.570012,0.581447027 C188.529346,0.244273977 189.426787,0.0353507991 190.3985,0.629023593 C191.411474,1.24751894 192.27797,2.19905025 193.730381,1.92186504 C194.091421,1.85153447 194.728914,2.66240462 195.069322,3.18160975 C195.710942,4.16210071 196.230839,5.22533351 196.996243,6.609191 L196.996243,6.609191 Z M7.01095327,84.8105846 C6.86241121,87.174933 6.66229206,89.5372129 6.58802103,91.9015614 C6.54675935,93.1861286 7.13473832,94.1376599 8.55826636,94.2907324 C10.0106776,94.4479419 11.469278,94.7396069 12.9155,94.6878933 C14.1058995,94.6465223 15.2839206,93.9535593 16.4640047,93.9680391 C19.4080257,93.9990673 22.3499836,94.3072807 25.2940047,94.429325 C27.1734743,94.5079297 29.2179907,94.9257761 30.8973411,94.3445146 C32.8655234,93.6618943 34.7986332,93.2461165 36.830771,93.0599473 C37.2268832,93.0227135 37.8375561,93.0103022 37.9716565,92.7724194 C38.842278,91.2292838 40.2286706,91.793997 41.491278,91.771243 C44.2661262,91.7236664 47.0554159,91.7919284 49.8158224,91.5457714 C53.9811893,91.1755016 58.1032313,90.3025751 62.3222383,90.5797603 C63.2238061,90.6397481 64.1377523,90.6314739 65.0393201,90.5652805 C68.9158551,90.2798211 72.7985794,89.42758 76.6338528,90.8755624 C77.0815421,91.0451832 77.5993762,91.0410461 78.0883271,91.0803485 C79.7222897,91.2127354 81.3541893,91.3513281 82.990215,91.4464812 C90.2048201,91.8684646 97.4194252,92.263557 104.63403,92.7062259 C105.925521,92.7848307 107.206696,93.1633746 108.496124,93.1881972 C112.434551,93.2605963 116.375042,93.1964714 120.31347,93.2461165 C126.556362,93.3267898 132.799255,93.4922735 139.04421,93.5419186 C140.758633,93.5543299 142.473056,93.248185 144.189542,93.1530319 C148.693255,92.9027378 153.254734,93.0516731 157.688301,92.3690528 C163.330836,91.4981948 168.989876,91.5312916 174.632411,91.3864933 C178.89268,91.2768604 183.128192,91.1486105 187.33482,90.7328327 C187.823771,89.9798818 188.257019,89.3076043 188.71296,88.6063671 C191.36815,89.0531731 193.911932,89.4813622 196.651708,89.9405795 C196.538238,87.6982753 196.383507,85.7393619 196.348435,83.77838 C196.286542,80.1687667 196.303047,76.5570848 196.267974,72.9474715 C196.249407,71.1292192 196.125621,69.3399267 194.518479,68.4938912 C194.518479,66.4274135 194.708283,64.6008871 194.47928,62.8260743 C193.9305,58.5483205 193.773706,54.2974578 194.522605,50.0300468 C194.636075,49.390866 194.574182,48.7041086 194.495785,48.050448 C194.089357,44.7097457 193.658173,41.3711119 193.220799,38.0324781 C193.084636,36.9919993 193.035121,35.9866858 192.176879,35.0992795 C191.702369,34.609034 191.52907,33.5085673 191.681738,32.7783705 C192.564738,28.5543989 192.735974,24.2931935 192.657577,19.9988913 C192.624568,18.1330625 192.618379,16.2486168 192.849444,14.4034735 C193.204294,11.5964562 193.313638,8.84528957 192.339862,6.12308262 C191.782829,6.09412297 191.217544,6.12308262 190.670827,6.02586094 C190.051902,5.91622798 189.451544,5.69903062 188.816114,5.51906709 C188.890386,5.0950151 188.956404,4.70612839 189.051306,4.14968943 C188.238451,4.05660484 187.440037,3.86009294 186.654002,3.89939532 C185.764813,3.9428348 184.894192,4.27380221 184.002939,4.34413278 C182.420554,4.47238265 180.755645,4.19726599 179.52811,5.63076859 C179.375442,5.81073212 178.915374,5.77349829 178.601785,5.76108701 C174.754133,5.61835731 170.906481,5.28532136 167.065019,5.35565193 C162.963607,5.43218815 158.872512,6.06516332 154.7711,6.13756244 C148.356972,6.25340103 141.955222,6.17686482 135.57204,7.12219049 C132.679596,7.55037958 129.683998,7.21320653 126.748229,7.41592407 C123.670107,7.62898434 120.684825,8.45226577 117.540685,8.51845925 C112.962701,8.61361238 108.395033,9.31484959 103.831491,9.82371198 C102.2326,10.001607 100.656404,10.5994169 99.0698925,10.6056225 C95.7029393,10.6159652 92.3174182,10.5208121 88.9690327,10.1877761 C83.163514,9.61065171 77.3765631,9.45551074 71.5442243,9.7575185 C68.1958388,9.93127639 64.8144439,9.46792201 61.4495537,9.26520447 C59.4834346,9.14522879 57.5214416,8.95905962 55.5573855,8.8287412 C54.2576425,8.74186226 52.9269533,8.84735812 51.6581565,8.61568093 C48.0003084,7.94133483 44.336271,7.58554486 40.6144673,7.79860513 C36.7709416,8.01993959 32.9232897,8.29919334 29.0777009,8.30953608 C21.8300864,8.32815299 14.631986,8.48329397 7.59274299,10.5911427 C6.16715187,11.0172632 5.06546495,11.5902505 4.01329206,12.7548421 C4.30212383,16.0996815 4.60746028,19.5231257 4.88597664,22.9465698 C4.92311215,23.424404 5.01182477,24.1483952 4.75187617,24.359387 C3.62130607,25.2860957 3.98647196,26.4568929 4.10200467,27.5470168 C4.30625,29.4811077 4.81789486,31.3965815 4.8777243,33.3286038 C5.03451869,38.5930542 5.02420327,43.8595731 5.07990654,49.126092 C5.08403271,49.5398013 5.07165421,49.9535106 5.08815888,50.3672198 C5.19131308,52.9797938 5.35017056,55.5902993 5.3976215,58.2028733 C5.46776636,62.2365386 5.45332477,66.2722725 5.49664953,70.3080063 C5.50283879,70.9658041 5.49046028,71.6753155 5.71946262,72.2710568 C6.57976869,74.5112925 6.15271028,76.7763507 6.00416822,79.045546 C5.93196028,80.117053 5.81436449,81.2133825 5.97528505,82.260067 C6.10525935,83.1061024 6.62309346,83.8942186 7.01095327,84.8105846 L7.01095327,84.8105846 Z" id="Fill-9" fill="#000000" sketch:type="MSShapeGroup"></path>
            <path d="M7.01095327,84.8105846 C6.62309346,83.8942186 6.10525935,83.1061024 5.97528505,82.260067 C5.81436449,81.2133825 5.93196028,80.117053 6.00416822,79.045546 C6.15271028,76.7763507 6.57976869,74.5112925 5.71946262,72.2710568 C5.49046028,71.6753155 5.50283879,70.9658041 5.49664953,70.3080063 C5.45332477,66.2722725 5.46776636,62.2365386 5.3976215,58.2028733 C5.35017056,55.5902993 5.19131308,52.9797938 5.08815888,50.3672198 C5.07165421,49.9535106 5.08403271,49.5398013 5.07990654,49.126092 C5.02420327,43.8595731 5.03451869,38.5930542 4.8777243,33.3286038 C4.81789486,31.3965815 4.30625,29.4811077 4.10200467,27.5470168 C3.98647196,26.4568929 3.62130607,25.2860957 4.75187617,24.359387 C5.01182477,24.1483952 4.92311215,23.424404 4.88597664,22.9465698 C4.60746028,19.5231257 4.30212383,16.0996815 4.01329206,12.7548421 C5.06546495,11.5902505 6.16715187,11.0172632 7.59274299,10.5911427 C14.631986,8.48329397 21.8300864,8.32815299 29.0777009,8.30953608 C32.9232897,8.29919334 36.7709416,8.01993959 40.6144673,7.79860513 C44.336271,7.58554486 48.0003084,7.94133483 51.6581565,8.61568093 C52.9269533,8.84735812 54.2576425,8.74186226 55.5573855,8.8287412 C57.5214416,8.95905962 59.4834346,9.14522879 61.4495537,9.26520447 C64.8144439,9.46792201 68.1958388,9.93127639 71.5442243,9.7575185 C77.3765631,9.45551074 83.163514,9.61065171 88.9690327,10.1877761 C92.3174182,10.5208121 95.7029393,10.6159652 99.0698925,10.6056225 C100.656404,10.5994169 102.2326,10.001607 103.831491,9.82371198 C108.395033,9.31484959 112.962701,8.61361238 117.540685,8.51845925 C120.684825,8.45226577 123.670107,7.62898434 126.748229,7.41592407 C129.683998,7.21320653 132.679596,7.55037958 135.57204,7.12219049 C141.955222,6.17686482 148.356972,6.25340103 154.7711,6.13756244 C158.872512,6.06516332 162.963607,5.43218815 167.065019,5.35565193 C170.906481,5.28532136 174.754133,5.61835731 178.601785,5.76108701 C178.915374,5.77349829 179.375442,5.81073212 179.52811,5.63076859 C180.755645,4.19726599 182.420554,4.47238265 184.002939,4.34413278 C184.894192,4.27380221 185.764813,3.9428348 186.654002,3.89939532 C187.440037,3.86009294 188.238451,4.05660484 189.051306,4.14968943 C188.956404,4.70612839 188.890386,5.0950151 188.816114,5.51906709 C189.451544,5.69903062 190.051902,5.91622798 190.670827,6.02586094 C191.217544,6.12308262 191.782829,6.09412297 192.339862,6.12308262 C193.313638,8.84528957 193.204294,11.5964562 192.849444,14.4034735 C192.618379,16.2486168 192.624568,18.1330625 192.657577,19.9988913 C192.735974,24.2931935 192.564738,28.5543989 191.681738,32.7783705 C191.52907,33.5085673 191.702369,34.609034 192.176879,35.0992795 C193.035121,35.9866858 193.084636,36.9919993 193.220799,38.0324781 C193.658173,41.3711119 194.089357,44.7097457 194.495785,48.050448 C194.574182,48.7041086 194.636075,49.390866 194.522605,50.0300468 C193.773706,54.2974578 193.9305,58.5483205 194.47928,62.8260743 C194.708283,64.6008871 194.518479,66.4274135 194.518479,68.4938912 C196.125621,69.3399267 196.249407,71.1292192 196.267974,72.9474715 C196.303047,76.5570848 196.286542,80.1687667 196.348435,83.77838 C196.383507,85.7393619 196.538238,87.6982753 196.651708,89.9405795 C193.911932,89.4813622 191.36815,89.0531731 188.71296,88.6063671 C188.257019,89.3076043 187.823771,89.9798818 187.33482,90.7328327 C183.128192,91.1486105 178.89268,91.2768604 174.632411,91.3864933 C168.989876,91.5312916 163.330836,91.4981948 157.688301,92.3690528 C153.254734,93.0516731 148.693255,92.9027378 144.189542,93.1530319 C142.473056,93.248185 140.758633,93.5543299 139.04421,93.5419186 C132.799255,93.4922735 126.556362,93.3267898 120.31347,93.2461165 C116.375042,93.1964714 112.434551,93.2605963 108.496124,93.1881972 C107.206696,93.1633746 105.925521,92.7848307 104.63403,92.7062259 C97.4194252,92.263557 90.2048201,91.8684646 82.990215,91.4464812 C81.3541893,91.3513281 79.7222897,91.2127354 78.0883271,91.0803485 C77.5993762,91.0410461 77.0815421,91.0451832 76.6338528,90.8755624 C72.7985794,89.42758 68.9158551,90.2798211 65.0393201,90.5652805 C64.1377523,90.6314739 63.2238061,90.6397481 62.3222383,90.5797603 C58.1032313,90.3025751 53.9811893,91.1755016 49.8158224,91.5457714 C47.0554159,91.7919284 44.2661262,91.7236664 41.491278,91.771243 C40.2286706,91.793997 38.842278,91.2292838 37.9716565,92.7724194 C37.8375561,93.0103022 37.2268832,93.0227135 36.830771,93.0599473 C34.7986332,93.2461165 32.8655234,93.6618943 30.8973411,94.3445146 C29.2179907,94.9257761 27.1734743,94.5079297 25.2940047,94.429325 C22.3499836,94.3072807 19.4080257,93.9990673 16.4640047,93.9680391 C15.2839206,93.9535593 14.1058995,94.6465223 12.9155,94.6878933 C11.469278,94.7396069 10.0106776,94.4479419 8.55826636,94.2907324 C7.13473832,94.1376599 6.54675935,93.1861286 6.58802103,91.9015614 C6.66229206,89.5372129 6.86241121,87.174933 7.01095327,84.8105846 L7.01095327,84.8105846 Z M43.5048481,37.7759784 C43.0427173,38.8412797 42.4258551,39.7638514 42.250493,40.7629593 C41.8667593,42.9411385 41.9059579,45.2041282 41.4087547,47.3492108 C40.6433505,50.667159 41.367493,53.681031 42.5661449,56.7197256 C43.2366472,58.4159336 44.361028,59.6136219 45.8918364,60.4989597 C47.4680327,61.4111886 50.1768621,61.0616043 51.3156846,59.6239646 C53.1085047,57.3589064 54.5526636,54.9449128 55.1612734,51.9910287 C55.5862687,49.9307566 55.0519299,48.050448 54.8662523,46.1204942 C54.5072757,42.382631 52.675257,39.2984285 49.9127874,36.7954874 C48.5903505,35.5977991 47.5113575,35.8439561 46.8883061,37.4760392 C46.6758084,38.0262725 46.787215,38.7026871 46.7418271,39.4970089 C49.0586706,39.2405092 50.0365724,40.6285038 50.8226075,42.2399013 C51.0743037,42.7529008 51.2950537,43.3052027 51.4023341,43.8657788 C51.7633738,45.7212648 52.2502617,47.5788194 52.3492897,49.4529224 C52.5349673,52.9384229 51.1382593,55.7826741 48.4459346,58.0498009 C46.8532336,56.8790036 45.710285,55.6668355 45.1903879,53.9127082 C43.919528,49.6266803 44.6271659,45.3944345 45.6669603,41.2325193 C46.2776332,38.7792234 46.4323645,38.7192355 43.5048481,37.7759784 L43.5048481,37.7759784 Z M111.299855,46.0418895 C111.299855,44.9083261 111.499974,44.0250568 111.264783,43.2783116 C110.189916,39.8445247 108.976822,36.4852055 104.617526,36.0053027 C104.143016,35.9535891 103.726273,35.3971501 103.276521,35.0847996 C102.046923,34.2325585 100.658467,34.5387034 100.30568,35.8294763 C99.5794743,38.4792841 98.6056986,41.0277332 98.3271822,43.8388877 C97.929007,47.872553 98.3086145,51.6869524 99.9755864,55.3503479 C101.040138,57.698148 103.742778,58.5938285 105.995666,57.319604 C107.200507,56.6390523 108.417727,55.8385248 109.327547,54.8187315 C110.111519,53.9395993 110.744886,52.7274312 110.947068,51.5731823 C111.281287,49.6618455 111.213206,47.6801782 111.299855,46.0418895 L111.299855,46.0418895 Z M160.894334,33.1755314 C158.150432,36.195609 157.599589,39.6624926 157.100322,43.1438561 C156.982727,43.9547262 157.116827,44.8193786 156.906393,45.597152 C156.291593,47.8518675 156.735157,49.99695 157.376776,52.1378955 C157.993638,54.1960991 159.681241,55.2779488 161.634981,54.70703 C163.782652,54.0802605 165.70132,53.010822 167.015505,51.0932796 C168.084182,49.5335957 169.270456,48.0359681 170.155519,46.376994 C170.67129,45.4130514 171.019951,44.142964 170.879661,43.0859368 C170.568136,40.7422738 169.992535,38.4172277 169.342664,36.1376897 C168.983687,34.8696708 167.96865,33.9202081 166.5575,34.1973933 C164.550119,34.5924856 162.69128,34.522155 160.894334,33.1755314 L160.894334,33.1755314 Z M26.0016425,62.6626592 C26.7835514,61.4298055 27.2271145,60.3603671 26.8619486,58.7427639 C26.3503037,56.4715 26.5318551,54.0409581 26.4225117,51.7655571 C28.7249136,50.2472441 31.116028,49.8583574 33.6556846,49.9224824 C33.961021,48.5696531 33.7175771,47.6450129 32.3229322,47.4629808 C31.1242804,47.3078398 29.9049977,47.2395778 28.6960304,47.2416463 C27.8419136,47.2457834 26.9898598,47.4340212 25.9521285,47.562271 C25.6880537,45.2475677 25.4425467,43.2141867 25.227986,41.1746 C25.0835701,39.7845369 25.0216776,38.3861996 24.8566308,36.998205 C24.7266565,35.9142867 24.148993,35.0951424 22.9977921,35.0310174 C21.7228061,34.9586183 21.3163785,35.9370407 21.1967196,36.9713139 C21.1265748,37.5918778 21.3019369,38.2455384 21.3865234,38.8805821 C21.9703762,43.2679689 22.5604182,47.6553556 23.1422079,52.0427424 C23.1525234,52.1192786 23.0926939,52.2020204 23.0926939,52.2806252 C23.0431799,55.1848642 22.9606565,58.0891032 22.9668458,60.9912737 C22.970972,62.2344701 23.4908692,62.6254253 24.8256846,62.6605906 C25.2259229,62.6709333 25.6282243,62.6626592 26.0016425,62.6626592 L26.0016425,62.6626592 Z M147.317178,42.4219334 C144.556771,42.8377112 141.75304,43.2617632 139.019453,43.6734039 C138.536692,46.6210824 139.430007,47.4236784 141.992357,46.6024655 C143.688213,46.0563693 145.388194,45.5226844 147.055166,44.9931365 C147.220213,45.3551321 147.337808,45.4957933 147.341935,45.6385229 C147.447152,48.5117338 147.482224,51.3870132 147.655523,54.2560869 C147.746299,55.7309604 148.847986,56.6845603 149.805257,56.2274116 C150.595418,55.8509361 151.315435,55.2758802 151.971495,54.6822075 C152.70389,54.0223412 152.774035,53.0501244 151.973558,52.541262 C150.597481,51.6662669 150.597481,50.4292762 150.595418,49.0847211 C150.593355,47.7649886 150.508769,46.445256 150.488138,45.1234549 C150.453065,43.0859368 150.646995,41.0173905 150.364353,39.0150376 C150.067269,36.911326 149.376136,34.855191 148.761336,32.8073301 C147.915472,29.9961757 146.789028,29.6652083 144.191605,31.6220531 C146.295951,34.7848604 147.399701,38.3344859 147.317178,42.4219334 L147.317178,42.4219334 Z M81.9958084,48.9419914 C84.2610748,48.1290527 86.4706379,46.6831388 89.2599276,47.5209001 C89.2599276,48.9523342 89.270243,50.3486029 89.2516752,51.7469402 C89.2475491,52.1316898 89.2929369,52.7357054 89.0845654,52.8639552 C87.7580023,53.6768939 88.3769276,54.6491107 89.0164836,55.3069084 C89.5074977,55.8095652 90.718528,56.3287703 91.0898832,56.0743391 C91.8098995,55.5840936 92.1730023,54.5622318 92.655764,53.7430874 C92.7217827,53.6293174 92.6413224,53.4203942 92.6124393,53.2590476 C91.7500701,48.5117338 92.2802827,43.7395974 92.3442383,38.9757353 C92.3689953,37.1843741 92.3277336,35.3847388 92.1626869,33.6037205 C92.043028,32.3170847 91.1043248,31.7833997 89.8747266,32.0212825 C88.7936706,32.2343428 88.5522897,32.9666082 88.8225537,33.8622888 C89.8912313,37.4201884 89.2289813,41.0091163 89.171215,44.7924875 C88.533722,44.7924875 87.9519322,44.9124632 87.4402874,44.771802 C85.7444322,44.302242 84.1806145,44.7986931 82.6312383,45.3365152 C80.4258014,46.1039459 80.293764,46.8506911 81.9958084,48.9419914 L81.9958084,48.9419914 Z M35.4299369,61.2167453 C38.1367033,60.5196452 37.984035,60.5051653 38.2419206,57.8843172 C38.4131565,56.1281213 37.5198411,54.7008244 37.344479,53.1142493 C36.9937547,49.9369622 36.5708224,46.6893445 36.880285,43.541017 C37.1753061,40.5416248 36.3603879,37.869063 35.7703458,35.0847996 C35.5929206,34.253244 35.3226565,33.3244667 34.3158715,33.4196198 C33.4906379,33.4982246 32.5065467,33.8085065 31.9515771,34.3732197 C31.2934533,35.0372231 31.508014,35.9577262 32.1640748,36.7954874 C33.7361449,38.8019774 34.2250958,41.2014911 34.2684206,43.6920209 C34.3096822,46.0708491 34.1487617,48.4579516 34.2725467,50.8305742 C34.3963318,53.2300879 33.5834766,55.6709726 34.5902617,58.035321 C34.7057944,58.3042321 34.6500911,58.7220784 34.5221799,59.0034007 C34.008472,60.1266214 34.7738762,60.6416894 35.4299369,61.2167453 L35.4299369,61.2167453 Z M78.6453598,59.4522753 C79.8584533,59.1792272 80.8260397,58.4304134 80.9663294,57.2430678 C81.0550421,56.5004597 80.4051706,55.6771782 80.1163388,54.8787194 C79.9512921,54.4195021 79.7346682,53.9375308 79.7346682,53.4659022 C79.7305421,49.2005597 78.845479,44.9517656 79.6191355,40.6616005 C79.9100304,39.0564086 79.8667056,37.3684748 79.7841822,35.7281175 C79.7140374,34.3566713 78.8351636,33.8395347 77.5808084,34.1270627 C76.394535,34.3980423 76.345021,35.3102712 76.3615257,36.2431856 C76.4791215,43.0693884 76.6111589,49.8935227 76.7287547,56.717657 C76.7514486,58.0725549 77.1681916,59.1233764 78.6453598,59.4522753 L78.6453598,59.4522753 Z M138.235481,55.4124043 C139.578549,54.1733451 139.815804,52.8618867 138.658414,51.3208197 C138.35514,50.9133161 138.305626,50.2534498 138.287058,49.705285 C138.198346,47.0885739 138.266428,44.4615201 138.074561,41.8530832 C137.899199,39.4825291 137.482456,37.1285234 137.125542,34.7724491 C136.931612,33.4899504 136.131136,32.780439 134.843771,32.5777215 C133.572911,33.6864623 133.315026,34.8593281 134.041231,36.3631613 C134.424965,37.1554145 134.581759,38.0903974 134.686977,38.9798723 C135.062458,42.159228 135.425561,45.3427208 135.677257,48.5324192 C135.751528,49.4736078 135.57204,50.4892641 135.277019,51.3952874 C134.437343,53.9706275 135.392551,55.3234568 138.235481,55.4124043 L138.235481,55.4124043 Z M180.460624,43.0114691 C180.29764,41.8427405 180.039755,40.7257254 180.004682,39.6004362 C179.90978,36.5782901 179.922159,33.5561439 179.870582,30.5319292 C179.845825,29.0425758 179.294981,28.5419876 177.925093,28.6991971 C176.796586,28.8295156 176.274626,29.7541558 176.340645,30.9745981 C176.511881,34.1539538 176.761514,37.3477893 176.602657,40.5168023 C176.507755,42.3950423 176.899741,43.6878838 178.478,44.6063183 C179.08661,44.1160729 179.651895,43.6609927 180.460624,43.0114691 L180.460624,43.0114691 Z M62.5202944,43.6713354 C62.462528,39.5032146 61.6125374,35.817065 60.3375514,32.2343428 C57.3646472,32.7080399 57.3254486,32.8383583 57.8309042,35.279243 C58.2125748,37.1161121 58.5529836,38.9922836 58.5963084,40.860181 C58.6334439,42.4839898 59.1120794,43.677541 60.5087874,44.6828545 C61.1710374,44.3498186 61.8064673,44.0312625 62.5202944,43.6713354 L62.5202944,43.6713354 Z M112.830664,33.7278332 C114.35322,36.2680081 115.438402,38.6902759 114.811224,41.5469383 C114.70807,42.0164983 114.765836,42.5294978 114.802972,43.0197433 C114.868991,43.9112868 115.551871,44.1719236 116.189364,43.9154239 C117.076491,43.5617024 117.994563,43.0755941 118.644435,42.401248 C119.141638,41.8841114 119.498551,41.0918581 118.869311,40.1899719 C118.388612,39.501146 118.231818,38.5806429 117.961554,37.7532244 C117.555126,36.5224393 117.280736,35.2358035 116.760839,34.0567321 C115.937668,32.1929719 115.619953,32.1433268 113.808565,33.1238177 C113.527986,33.2768901 113.263911,33.4589222 112.830664,33.7278332 L112.830664,33.7278332 Z M63.0113084,56.7735078 C62.9721098,54.2788409 61.6455467,53.3314467 59.7248154,53.7141278 C58.3590537,53.9871759 57.6926776,54.8911306 57.0531215,55.9709118 C55.9782547,57.7829584 56.0133271,58.3042321 57.5028738,59.686021 C58.3858738,60.5072339 60.0136472,60.5754959 61.1153341,59.7708314 C62.3057336,58.906179 63.0484439,57.7684786 63.0113084,56.7735078 L63.0113084,56.7735078 Z M172.311442,56.0764077 C174.622096,57.9360308 176.98639,58.2918208 178.180916,57.005185 C179.633327,55.441364 179.464154,54.1443854 177.710533,52.2971735 C175.616502,51.515263 174.47768,52.4626573 173.623563,54.0761234 C173.252208,54.7794291 172.748815,55.4165414 172.311442,56.0764077 L172.311442,56.0764077 Z M115.485853,55.8343878 C117.654154,55.8571418 119.649157,53.2528419 118.877563,51.2732431 C118.691886,50.799546 117.96568,50.2637925 117.46435,50.23897 C115.613764,50.1500225 113.90553,51.7262548 113.602257,53.5858779 C113.315488,55.3586221 113.699222,55.8178394 115.485853,55.8343878 L115.485853,55.8343878 Z" id="Fill-53" fill="#FFFFFF" sketch:type="MSShapeGroup"></path>
            <path d="M43.5048481,37.7759784 C46.4323645,38.7192355 46.2776332,38.7792234 45.6669603,41.2325193 C44.6271659,45.3944345 43.919528,49.6266803 45.1903879,53.9127082 C45.710285,55.6668355 46.8532336,56.8790036 48.4459346,58.0498009 C51.1382593,55.7826741 52.5349673,52.9384229 52.3492897,49.4529224 C52.2502617,47.5788194 51.7633738,45.7212648 51.4023341,43.8657788 C51.2950537,43.3052027 51.0743037,42.7529008 50.8226075,42.2399013 C50.0365724,40.6285038 49.0586706,39.2405092 46.7418271,39.4970089 C46.787215,38.7026871 46.6758084,38.0262725 46.8883061,37.4760392 C47.5113575,35.8439561 48.5903505,35.5977991 49.9127874,36.7954874 C52.675257,39.2984285 54.5072757,42.382631 54.8662523,46.1204942 C55.0519299,48.050448 55.5862687,49.9307566 55.1612734,51.9910287 C54.5526636,54.9449128 53.1085047,57.3589064 51.3156846,59.6239646 C50.1768621,61.0616043 47.4680327,61.4111886 45.8918364,60.4989597 C44.361028,59.6136219 43.2366472,58.4159336 42.5661449,56.7197256 C41.367493,53.681031 40.6433505,50.667159 41.4087547,47.3492108 C41.9059579,45.2041282 41.8667593,42.9411385 42.250493,40.7629593 C42.4258551,39.7638514 43.0427173,38.8412797 43.5048481,37.7759784" id="Fill-191" fill="#000000" sketch:type="MSShapeGroup"></path>
            <path d="M111.299855,46.0418895 C111.213206,47.6801782 111.281287,49.6618455 110.947068,51.5731823 C110.744886,52.7274312 110.111519,53.9395993 109.327547,54.8187315 C108.417727,55.8385248 107.200507,56.6390523 105.995666,57.319604 C103.742778,58.5938285 101.040138,57.698148 99.9755864,55.3503479 C98.3086145,51.6869524 97.929007,47.872553 98.3271822,43.8388877 C98.6056986,41.0277332 99.5794743,38.4792841 100.30568,35.8294763 C100.658467,34.5387034 102.046923,34.2325585 103.276521,35.0847996 C103.726273,35.3971501 104.143016,35.9535891 104.617526,36.0053027 C108.976822,36.4852055 110.189916,39.8445247 111.264783,43.2783116 C111.499974,44.0250568 111.299855,44.9083261 111.299855,46.0418895 L111.299855,46.0418895 Z M102.438909,38.8516225 C101.970589,40.5333506 101.390862,41.9978814 101.186617,43.5141259 C100.978245,45.0572614 100.949362,46.6790017 101.18868,48.2117946 C101.46307,49.9804017 101.982967,51.7428031 102.64728,53.4038458 C103.193998,54.7690864 104.322505,55.0462716 105.723339,54.4443246 C107.099416,53.8527204 107.967974,52.7170885 108.353771,51.3352995 C109.160437,48.4393347 109.385313,45.4482167 108.47343,42.5667317 C108.102075,41.3938659 107.117984,40.3140847 106.168965,39.4659807 C105.680014,39.0295175 104.654661,39.1991383 103.872752,39.0874368 C103.470451,39.0295175 103.072276,38.9571183 102.438909,38.8516225 L102.438909,38.8516225 Z" id="Fill-192" fill="#000000" sketch:type="MSShapeGroup"></path>
            <path d="M160.894334,33.1755314 C162.69128,34.522155 164.550119,34.5924856 166.5575,34.1973933 C167.96865,33.9202081 168.983687,34.8696708 169.342664,36.1376897 C169.992535,38.4172277 170.568136,40.7422738 170.879661,43.0859368 C171.019951,44.142964 170.67129,45.4130514 170.155519,46.376994 C169.270456,48.0359681 168.084182,49.5335957 167.015505,51.0932796 C165.70132,53.010822 163.782652,54.0802605 161.634981,54.70703 C159.681241,55.2779488 157.993638,54.1960991 157.376776,52.1378955 C156.735157,49.99695 156.291593,47.8518675 156.906393,45.597152 C157.116827,44.8193786 156.982727,43.9547262 157.100322,43.1438561 C157.599589,39.6624926 158.150432,36.195609 160.894334,33.1755314 L160.894334,33.1755314 Z M167.281643,37.0250961 C166.5575,37.0726726 165.901439,36.9154631 165.639428,37.1698943 C164.554245,38.2227844 163.308143,38.4834212 161.845416,38.5682316 C160.867514,38.6261509 160.151624,39.4452953 160.054659,40.6078183 C159.953568,41.8323977 159.639979,43.048703 159.635853,44.2712138 C159.629664,46.1494539 159.722502,48.0401052 159.937063,49.9080026 C160.097984,51.2939286 160.760234,51.757283 162.156942,51.5400856 C162.833633,51.4345897 163.640299,51.1139651 164.065294,50.6154454 C165.338217,49.126092 166.532743,47.5519283 167.591105,45.9032969 C168.044984,45.195854 168.333815,44.1988147 168.261607,43.3713962 C168.086245,41.3442208 167.657124,39.3377309 167.281643,37.0250961 L167.281643,37.0250961 Z" id="Fill-193" fill="#000000" sketch:type="MSShapeGroup"></path>
            <path d="M26.0016425,62.6626592 C25.6282243,62.6626592 25.2259229,62.6709333 24.8256846,62.6605906 C23.4908692,62.6254253 22.970972,62.2344701 22.9668458,60.9912737 C22.9606565,58.0891032 23.0431799,55.1848642 23.0926939,52.2806252 C23.0926939,52.2020204 23.1525234,52.1192786 23.1422079,52.0427424 C22.5604182,47.6553556 21.9703762,43.2679689 21.3865234,38.8805821 C21.3019369,38.2455384 21.1265748,37.5918778 21.1967196,36.9713139 C21.3163785,35.9370407 21.7228061,34.9586183 22.9977921,35.0310174 C24.148993,35.0951424 24.7266565,35.9142867 24.8566308,36.998205 C25.0216776,38.3861996 25.0835701,39.7845369 25.227986,41.1746 C25.4425467,43.2141867 25.6880537,45.2475677 25.9521285,47.562271 C26.9898598,47.4340212 27.8419136,47.2457834 28.6960304,47.2416463 C29.9049977,47.2395778 31.1242804,47.3078398 32.3229322,47.4629808 C33.7175771,47.6450129 33.961021,48.5696531 33.6556846,49.9224824 C31.116028,49.8583574 28.7249136,50.2472441 26.4225117,51.7655571 C26.5318551,54.0409581 26.3503037,56.4715 26.8619486,58.7427639 C27.2271145,60.3603671 26.7835514,61.4298055 26.0016425,62.6626592" id="Fill-194" fill="#000000" sketch:type="MSShapeGroup"></path>
            <path d="M147.317178,42.4219334 C147.399701,38.3344859 146.295951,34.7848604 144.191605,31.6220531 C146.789028,29.6652083 147.915472,29.9961757 148.761336,32.8073301 C149.376136,34.855191 150.067269,36.911326 150.364353,39.0150376 C150.646995,41.0173905 150.453065,43.0859368 150.488138,45.1234549 C150.508769,46.445256 150.593355,47.7649886 150.595418,49.0847211 C150.597481,50.4292762 150.597481,51.6662669 151.973558,52.541262 C152.774035,53.0501244 152.70389,54.0223412 151.971495,54.6822075 C151.315435,55.2758802 150.595418,55.8509361 149.805257,56.2274116 C148.847986,56.6845603 147.746299,55.7309604 147.655523,54.2560869 C147.482224,51.3870132 147.447152,48.5117338 147.341935,45.6385229 C147.337808,45.4957933 147.220213,45.3551321 147.055166,44.9931365 C145.388194,45.5226844 143.688213,46.0563693 141.992357,46.6024655 C139.430007,47.4236784 138.536692,46.6210824 139.019453,43.6734039 C141.75304,43.2617632 144.556771,42.8377112 147.317178,42.4219334" id="Fill-195" fill="#000000" sketch:type="MSShapeGroup"></path>
            <path d="M81.9958084,48.9419914 C80.293764,46.8506911 80.4258014,46.1039459 82.6312383,45.3365152 C84.1806145,44.7986931 85.7444322,44.302242 87.4402874,44.771802 C87.9519322,44.9124632 88.533722,44.7924875 89.171215,44.7924875 C89.2289813,41.0091163 89.8912313,37.4201884 88.8225537,33.8622888 C88.5522897,32.9666082 88.7936706,32.2343428 89.8747266,32.0212825 C91.1043248,31.7833997 92.043028,32.3170847 92.1626869,33.6037205 C92.3277336,35.3847388 92.3689953,37.1843741 92.3442383,38.9757353 C92.2802827,43.7395974 91.7500701,48.5117338 92.6124393,53.2590476 C92.6413224,53.4203942 92.7217827,53.6293174 92.655764,53.7430874 C92.1730023,54.5622318 91.8098995,55.5840936 91.0898832,56.0743391 C90.718528,56.3287703 89.5074977,55.8095652 89.0164836,55.3069084 C88.3769276,54.6491107 87.7580023,53.6768939 89.0845654,52.8639552 C89.2929369,52.7357054 89.2475491,52.1316898 89.2516752,51.7469402 C89.270243,50.3486029 89.2599276,48.9523342 89.2599276,47.5209001 C86.4706379,46.6831388 84.2610748,48.1290527 81.9958084,48.9419914" id="Fill-196" fill="#000000" sketch:type="MSShapeGroup"></path>
            <path d="M35.4299369,61.2167453 C34.7738762,60.6416894 34.008472,60.1266214 34.5221799,59.0034007 C34.6500911,58.7220784 34.7057944,58.3042321 34.5902617,58.035321 C33.5834766,55.6709726 34.3963318,53.2300879 34.2725467,50.8305742 C34.1487617,48.4579516 34.3096822,46.0708491 34.2684206,43.6920209 C34.2250958,41.2014911 33.7361449,38.8019774 32.1640748,36.7954874 C31.508014,35.9577262 31.2934533,35.0372231 31.9515771,34.3732197 C32.5065467,33.8085065 33.4906379,33.4982246 34.3158715,33.4196198 C35.3226565,33.3244667 35.5929206,34.253244 35.7703458,35.0847996 C36.3603879,37.869063 37.1753061,40.5416248 36.880285,43.541017 C36.5708224,46.6893445 36.9937547,49.9369622 37.344479,53.1142493 C37.5198411,54.7008244 38.4131565,56.1281213 38.2419206,57.8843172 C37.984035,60.5051653 38.1367033,60.5196452 35.4299369,61.2167453" id="Fill-197" fill="#000000" sketch:type="MSShapeGroup"></path>
            <path d="M78.6453598,59.4522753 C77.1681916,59.1233764 76.7514486,58.0725549 76.7287547,56.717657 C76.6111589,49.8935227 76.4791215,43.0693884 76.3615257,36.2431856 C76.345021,35.3102712 76.394535,34.3980423 77.5808084,34.1270627 C78.8351636,33.8395347 79.7140374,34.3566713 79.7841822,35.7281175 C79.8667056,37.3684748 79.9100304,39.0564086 79.6191355,40.6616005 C78.845479,44.9517656 79.7305421,49.2005597 79.7346682,53.4659022 C79.7346682,53.9375308 79.9512921,54.4195021 80.1163388,54.8787194 C80.4051706,55.6771782 81.0550421,56.5004597 80.9663294,57.2430678 C80.8260397,58.4304134 79.8584533,59.1792272 78.6453598,59.4522753" id="Fill-198" fill="#000000" sketch:type="MSShapeGroup"></path>
            <path d="M138.235481,55.4124043 C135.392551,55.3234568 134.437343,53.9706275 135.277019,51.3952874 C135.57204,50.4892641 135.751528,49.4736078 135.677257,48.5324192 C135.425561,45.3427208 135.062458,42.159228 134.686977,38.9798723 C134.581759,38.0903974 134.424965,37.1554145 134.041231,36.3631613 C133.315026,34.8593281 133.572911,33.6864623 134.843771,32.5777215 C136.131136,32.780439 136.931612,33.4899504 137.125542,34.7724491 C137.482456,37.1285234 137.899199,39.4825291 138.074561,41.8530832 C138.266428,44.4615201 138.198346,47.0885739 138.287058,49.705285 C138.305626,50.2534498 138.35514,50.9133161 138.658414,51.3208197 C139.815804,52.8618867 139.578549,54.1733451 138.235481,55.4124043" id="Fill-199" fill="#000000" sketch:type="MSShapeGroup"></path>
            <path d="M180.460624,43.0114691 C179.651895,43.6609927 179.08661,44.1160729 178.478,44.6063183 C176.899741,43.6878838 176.507755,42.3950423 176.602657,40.5168023 C176.761514,37.3477893 176.511881,34.1539538 176.340645,30.9745981 C176.274626,29.7541558 176.796586,28.8295156 177.925093,28.6991971 C179.294981,28.5419876 179.845825,29.0425758 179.870582,30.5319292 C179.922159,33.5561439 179.90978,36.5782901 180.004682,39.6004362 C180.039755,40.7257254 180.29764,41.8427405 180.460624,43.0114691" id="Fill-200" fill="#000000" sketch:type="MSShapeGroup"></path>
            <path d="M62.5202944,43.6713354 C61.8064673,44.0312625 61.1710374,44.3498186 60.5087874,44.6828545 C59.1120794,43.677541 58.6334439,42.4839898 58.5963084,40.860181 C58.5529836,38.9922836 58.2125748,37.1161121 57.8309042,35.279243 C57.3254486,32.8383583 57.3646472,32.7080399 60.3375514,32.2343428 C61.6125374,35.817065 62.462528,39.5032146 62.5202944,43.6713354" id="Fill-201" fill="#000000" sketch:type="MSShapeGroup"></path>
            <path d="M112.830664,33.7278332 C113.263911,33.4589222 113.527986,33.2768901 113.808565,33.1238177 C115.619953,32.1433268 115.937668,32.1929719 116.760839,34.0567321 C117.280736,35.2358035 117.555126,36.5224393 117.961554,37.7532244 C118.231818,38.5806429 118.388612,39.501146 118.869311,40.1899719 C119.498551,41.0918581 119.141638,41.8841114 118.644435,42.401248 C117.994563,43.0755941 117.076491,43.5617024 116.189364,43.9154239 C115.551871,44.1719236 114.868991,43.9112868 114.802972,43.0197433 C114.765836,42.5294978 114.70807,42.0164983 114.811224,41.5469383 C115.438402,38.6902759 114.35322,36.2680081 112.830664,33.7278332" id="Fill-202" fill="#000000" sketch:type="MSShapeGroup"></path>
            <path d="M63.0113084,56.7735078 C63.0484439,57.7684786 62.3057336,58.906179 61.1153341,59.7708314 C60.0136472,60.5754959 58.3858738,60.5072339 57.5028738,59.686021 C56.0133271,58.3042321 55.9782547,57.7829584 57.0531215,55.9709118 C57.6926776,54.8911306 58.3590537,53.9871759 59.7248154,53.7141278 C61.6455467,53.3314467 62.9721098,54.2788409 63.0113084,56.7735078" id="Fill-203" fill="#000000" sketch:type="MSShapeGroup"></path>
            <path d="M172.311442,56.0764077 C172.748815,55.4165414 173.252208,54.7794291 173.623563,54.0761234 C174.47768,52.4626573 175.616502,51.515263 177.710533,52.2971735 C179.464154,54.1443854 179.633327,55.441364 178.180916,57.005185 C176.98639,58.2918208 174.622096,57.9360308 172.311442,56.0764077" id="Fill-204" fill="#000000" sketch:type="MSShapeGroup"></path>
            <path d="M115.485853,55.8343878 C113.699222,55.8178394 113.315488,55.3586221 113.602257,53.5858779 C113.90553,51.7262548 115.613764,50.1500225 117.46435,50.23897 C117.96568,50.2637925 118.691886,50.799546 118.877563,51.2732431 C119.649157,53.2528419 117.654154,55.8571418 115.485853,55.8343878" id="Fill-205" fill="#000000" sketch:type="MSShapeGroup"></path>
            <path d="M102.438909,38.8516225 C103.072276,38.9571183 103.470451,39.0295175 103.872752,39.0874368 C104.654661,39.1991383 105.680014,39.0295175 106.168965,39.4659807 C107.117984,40.3140847 108.102075,41.3938659 108.47343,42.5667317 C109.385313,45.4482167 109.160437,48.4393347 108.353771,51.3352995 C107.967974,52.7170885 107.099416,53.8527204 105.723339,54.4443246 C104.322505,55.0462716 103.193998,54.7690864 102.64728,53.4038458 C101.982967,51.7428031 101.46307,49.9804017 101.18868,48.2117946 C100.949362,46.6790017 100.978245,45.0572614 101.186617,43.5141259 C101.390862,41.9978814 101.970589,40.5333506 102.438909,38.8516225" id="Fill-257" fill="#FFFFFF" sketch:type="MSShapeGroup"></path>
            <path d="M167.281643,37.0250961 C167.657124,39.3377309 168.086245,41.3442208 168.261607,43.3713962 C168.333815,44.1988147 168.044984,45.195854 167.591105,45.9032969 C166.532743,47.5519283 165.338217,49.126092 164.065294,50.6154454 C163.640299,51.1139651 162.833633,51.4345897 162.156942,51.5400856 C160.760234,51.757283 160.097984,51.2939286 159.937063,49.9080026 C159.722502,48.0401052 159.629664,46.1494539 159.635853,44.2712138 C159.639979,43.048703 159.953568,41.8323977 160.054659,40.6078183 C160.151624,39.4452953 160.867514,38.6261509 161.845416,38.5682316 C163.308143,38.4834212 164.554245,38.2227844 165.639428,37.1698943 C165.901439,36.9154631 166.5575,37.0726726 167.281643,37.0250961" id="Fill-258" fill="#FFFFFF" sketch:type="MSShapeGroup"></path>
        </g>
    </g>
</svg>