<?xml version="1.0" encoding="UTF-8" standalone="no"?>
<svg width="219px" height="56px" viewBox="0 0 219 56" version="1.1" xmlns="http://www.w3.org/2000/svg" xmlns:xlink="http://www.w3.org/1999/xlink" xmlns:sketch="http://www.bohemiancoding.com/sketch/ns">
    <!-- Generator: Sketch 3.1.1 (8761) - http://www.bohemiancoding.com/sketch -->
    <title>indie-clause</title>
    <desc>Created with Sketch.</desc>
    <defs></defs>
    <g id="Page-1" stroke="none" stroke-width="1" fill="none" fill-rule="evenodd" sketch:type="MSPage">
        <g id="Desktop-2" sketch:type="MSArtboardGroup" transform="translate(-505.000000, -311.000000)">
            <rect id="Rectangle-1" opacity="0.869927705" sketch:type="MSShapeGroup" x="0" y="0" width="1024" height="1024"></rect>
            <g id="indie-clause" sketch:type="MSLayerGroup" transform="translate(505.500000, 311.500000)">
                <path d="M53.9148611,54.6686429 C52.7428056,51.7270357 50.2466111,51.0857857 47.3306667,51.6761429 C44.7310556,52.2033929 42.2024167,51.8552857 39.6088889,51.6435714 C31.6863611,50.9921429 23.75775,50.9147857 15.8331944,51.8471429 C12.7834167,52.2074643 9.68902778,52.2909286 6.61288889,52.30925 C3.07036111,52.3316429 1.05475,50.2837143 0.898611111,46.5787143 C0.797222222,44.1419643 0.904694444,41.6970714 0.924972222,39.2542143 C0.94525,37.14725 0.989861111,35.0402857 0.993916667,32.9333214 C0.995944444,31.9582143 0.801277778,30.9668214 0.920916667,30.0100357 C1.50897222,25.2688571 0.90875,20.58875 0.255805556,15.9208571 C-0.0483611111,13.74875 0.154416667,11.7374643 1.26158333,9.545 C4.99269444,8.576 8.91036111,7.84314286 12.9699722,7.58664286 C23.8023611,6.90060714 34.6185278,5.9825 45.4468611,5.22928571 C49.3118056,4.96057143 53.1889167,4.82214286 57.064,4.76717857 C63.7272778,4.67353571 70.2810556,3.78189286 76.8510556,2.69278571 C82.5815556,1.74414286 88.3668056,1.0805 94.2534444,1.47339286 C98.7611944,1.77264286 103.317611,1.50392857 107.843611,1.3085 C119.320833,0.807714286 130.785889,0.811785714 142.263111,1.41028571 C147.926694,1.70546429 153.618667,1.44489286 159.28225,1.72785714 C164.126611,1.96807143 168.940556,1.49782143 173.77275,1.56296429 C178.633333,1.63014286 183.504056,1.73803571 188.3545,1.49985714 C195.451722,1.15378571 202.538806,0.55325 209.625889,-0.0106428571 C213.401611,-0.311928571 216.041778,2.18385714 215.950528,6.07410714 C215.934306,6.82528571 215.940389,7.69657143 216.287139,8.31542857 C217.605194,10.6687143 217.876917,13.2540714 217.897194,15.8231429 C217.925583,19.39175 217.603167,22.9623929 217.497722,26.5350714 C217.410528,29.4542857 217.489611,32.3796071 217.372,35.2967857 C217.254389,38.1997143 217.238167,41.1453929 216.712972,43.9852143 C216.078278,47.4337143 214.525,48.49025 210.943944,48.6185 C209.814472,48.6592143 208.670806,48.5879643 207.547417,48.4434286 C197.221972,47.1181786 186.843806,47.3156429 176.475778,47.4438929 C170.808139,47.5131071 165.144556,47.8734286 159.476917,48.0016786 C157.550528,48.0444286 155.616028,47.7858929 153.687611,47.6454286 C152.716306,47.5762143 151.749056,47.3706071 150.781806,47.3868929 C141.064694,47.5599286 131.345556,47.03675 121.626417,47.9467143 C115.026,48.5635357 108.362722,48.4841429 101.731889,48.8139286 C97.6905278,49.0134286 93.6593056,49.4103929 89.6240278,49.6974286 C86.5681667,49.91525 83.5102778,50.1005 80.4544167,50.2959286 C77.869,50.4608214 75.2795278,50.585 72.6981667,50.8048571 C71.9093611,50.8740714 70.7920556,50.9493929 70.423,51.4583214 C68.8798611,53.5815714 66.7,52.9769643 64.6600556,53.2029286 C61.2939444,53.5754643 57.9440556,54.1088214 53.9148611,54.6686429 L53.9148611,54.6686429 Z M211.639472,45.3776429 C214.407389,42.7210357 214.936639,39.7448214 214.202583,36.34925 C213.8315,34.6311071 213.655083,32.8172857 213.734167,31.0625 C213.898417,27.329 214.427667,23.60975 214.529056,19.8782857 C214.585833,17.8201786 214.076861,15.7478214 213.823389,13.6836071 C211.509694,11.6295714 212.02475,9.07067857 212.511417,6.49346429 C212.935222,4.25825 212.387722,3.40732143 210.329528,3.1325 C209.047972,2.9615 207.740056,2.80067857 206.456472,2.86989286 C202.254917,3.10196429 198.024972,3.20375 193.872083,3.80428571 C189.348111,4.45775 184.834278,4.51678571 180.298139,4.49642857 C177.219972,4.48421429 174.139778,4.44960714 171.061611,4.42517857 C158.755028,4.32542857 146.430194,4.61042857 134.152,3.97732143 C127.168333,3.617 120.251583,4.21142857 113.302389,4.07503571 C105.870583,3.9305 98.4387778,4.95242857 90.9948056,4.27046429 C90.352,4.21142857 89.6726944,4.10353571 89.0603056,4.24196429 C83.9989722,5.37585714 78.7956944,5.42675 73.6998889,6.31635714 C70.6845833,6.84157143 67.6003333,6.95353571 64.5485278,7.26296429 C63.4210833,7.37696429 62.2976944,7.53778571 61.17025,7.64975 C59.0796111,7.85942857 56.9768056,8.30525 54.9003611,8.20346429 C45.1568889,7.72303571 35.5087222,9.22335714 25.7997222,9.44932143 C21.9266667,9.53685714 18.0596944,10.0417143 14.19475,10.4203571 C10.8529722,10.7481071 7.44427778,10.685 4.03152778,11.7802143 C3.96663889,13.0627143 3.78616667,14.1823571 3.87741667,15.2775714 C4.11061111,18.02375 4.69663889,20.7577143 4.72097222,23.5018571 C4.76963889,29.0227143 4.49386111,34.5456071 4.44519444,40.0705357 C4.42491667,42.3261071 4.53441667,44.5979643 4.80005556,46.8352143 C4.99877778,48.5228214 5.73891667,49.1905357 7.32666667,49.2149643 C9.42541667,49.2516071 11.53025,49.0968929 13.6269722,48.9543929 C17.8163611,48.6714286 22.0138611,47.9813214 26.1890556,48.0993929 C37.6581667,48.419 49.1191667,48.6999286 60.5943611,48.5248571 C71.2908889,48.362 81.9488889,47.792 92.5805278,46.6173929 C96.2791944,46.2082143 99.9819167,45.7501786 103.694778,45.5751071 C113.075278,45.1353929 122.457806,44.7689643 131.844389,44.5165357 C138.152806,44.3475714 144.469333,44.372 150.779778,44.4005 C155.147611,44.4208571 159.5195,44.7771071 163.883278,44.6651429 C177.810056,44.3048214 191.73075,44.0076071 205.641306,45.0926429 C207.733972,45.2555 209.83475,45.2941786 211.639472,45.3776429 L211.639472,45.3776429 Z" id="Fill-1" fill="#000000" sketch:type="MSShapeGroup"></path>
                <path d="M211.639472,45.3776429 C209.83475,45.2941786 207.733972,45.2555 205.641306,45.0926429 C191.73075,44.0076071 177.810056,44.3048214 163.883278,44.6651429 C159.5195,44.7771071 155.147611,44.4208571 150.779778,44.4005 C144.469333,44.372 138.152806,44.3475714 131.844389,44.5165357 C122.457806,44.7689643 113.075278,45.1353929 103.694778,45.5751071 C99.9819167,45.7501786 96.2791944,46.2082143 92.5805278,46.6173929 C81.9488889,47.792 71.2908889,48.362 60.5943611,48.5248571 C49.1191667,48.6999286 37.6581667,48.419 26.1890556,48.0993929 C22.0138611,47.9813214 17.8163611,48.6714286 13.6269722,48.9543929 C11.53025,49.0968929 9.42541667,49.2516071 7.32666667,49.2149643 C5.73891667,49.1905357 4.99877778,48.5228214 4.80005556,46.8352143 C4.53441667,44.5979643 4.42491667,42.3261071 4.44519444,40.0705357 C4.49386111,34.5456071 4.76963889,29.0227143 4.72097222,23.5018571 C4.69663889,20.7577143 4.11061111,18.02375 3.87741667,15.2775714 C3.78616667,14.1823571 3.96663889,13.0627143 4.03152778,11.7802143 C7.44427778,10.685 10.8529722,10.7481071 14.19475,10.4203571 C18.0596944,10.0417143 21.9266667,9.53685714 25.7997222,9.44932143 C35.5087222,9.22335714 45.1568889,7.72303571 54.9003611,8.20346429 C56.9768056,8.30525 59.0796111,7.85942857 61.17025,7.64975 C62.2976944,7.53778571 63.4210833,7.37696429 64.5485278,7.26296429 C67.6003333,6.95353571 70.6845833,6.84157143 73.6998889,6.31635714 C78.7956944,5.42675 83.9989722,5.37585714 89.0603056,4.24196429 C89.6726944,4.10353571 90.352,4.21142857 90.9948056,4.27046429 C98.4387778,4.95242857 105.870583,3.9305 113.302389,4.07503571 C120.251583,4.21142857 127.168333,3.617 134.152,3.97732143 C146.430194,4.61042857 158.755028,4.32542857 171.061611,4.42517857 C174.139778,4.44960714 177.219972,4.48421429 180.298139,4.49642857 C184.834278,4.51678571 189.348111,4.45775 193.872083,3.80428571 C198.024972,3.20375 202.254917,3.10196429 206.456472,2.86989286 C207.740056,2.80067857 209.047972,2.9615 210.329528,3.1325 C212.387722,3.40732143 212.935222,4.25825 212.511417,6.49346429 C212.02475,9.07067857 211.509694,11.6295714 213.823389,13.6836071 C214.076861,15.7478214 214.585833,17.8201786 214.529056,19.8782857 C214.427667,23.60975 213.898417,27.329 213.734167,31.0625 C213.655083,32.8172857 213.8315,34.6311071 214.202583,36.34925 C214.936639,39.7448214 214.407389,42.7210357 211.639472,45.3776429 L211.639472,45.3776429 Z M54.8030278,32.9068571 C54.7563889,33.7394643 54.6773056,35.0301071 54.6043056,36.3227857 C54.3853056,40.154 55.8595,41.7113214 59.6291389,41.6156429 C60.2739722,41.5993571 60.9208333,41.4873929 61.5636389,41.5097857 C63.61575,41.5810357 65.0088333,40.4410357 65.7895278,38.7737857 C66.4586944,37.3447143 66.9595556,35.6957857 66.9798333,34.1364286 C67.0082222,31.8930714 66.5884722,29.6334286 66.262,27.3961786 C65.9132222,25.0021786 64.5140556,23.2779286 62.5856389,21.9038214 C60.4422778,20.3790714 56.9626111,20.4238571 54.9206389,22.0890714 C54.0993889,22.7588214 53.8803889,23.6484286 53.9959722,24.6947857 C54.2778333,27.272 54.5069722,29.8553214 54.8030278,32.9068571 L54.8030278,32.9068571 Z M45.2217778,36.3085357 C43.5894167,35.9665357 43.2041389,34.6535 42.8046667,33.4870357 C42.1192778,31.49 41.6528889,29.4196786 40.9675,27.4226429 C40.6065556,26.3681429 40.0428333,25.3625 39.4324722,24.4260714 C39.2317222,24.1186786 38.50375,23.8723571 38.1772778,24.0006071 C37.6480278,24.2102857 37.2039444,24.7131071 36.8206944,25.1731786 C36.6442778,25.3848929 36.6361667,25.7940714 36.6564444,26.1055357 C36.9261389,30.2095357 36.1636944,34.1873214 35.2633611,38.1528929 C35.1234444,38.7737857 34.9896111,39.4415 35.07275,40.0562857 C35.1234444,40.4308571 35.54725,40.9499643 35.8919722,41.0354643 C36.2529167,41.1250357 36.9403333,40.8888929 37.1025556,40.5876071 C37.5486667,39.755 37.9461111,38.8389286 38.0900833,37.9126786 C38.4043889,35.9197143 38.5443056,33.89825 39.4284167,31.3678571 C40.9715556,35.6815357 42.0787222,39.6450714 46.2721667,41.3408214 C46.6493333,40.9316429 46.9778333,40.7301071 47.0731389,40.4512143 C48.9488333,34.8509643 48.9265278,28.9616429 49.59975,23.18225 C49.7538611,21.8651429 48.7845833,21.50075 46.8115556,22.0178214 C46.9535,26.7915714 46.8683333,31.5958571 45.2217778,36.3085357 L45.2217778,36.3085357 Z M17.5446389,38.2668929 C15.8778056,39.4170714 13.3410556,38.4419643 11.85875,40.5041429 C12.1588611,40.9255357 12.3433889,41.4181786 12.6921667,41.6136071 C13.0754167,41.8293929 13.6087222,41.8131071 14.0791667,41.8293929 C17.8913889,41.9515357 21.6448056,40.1132857 25.5198889,41.4487143 C25.6354722,41.4894286 26.3816944,40.4837857 26.3208611,40.0359286 C26.2498889,39.5086786 25.7145556,38.8613214 25.2116667,38.6129643 C24.0923333,38.0612857 22.8675556,37.7253929 21.4440556,37.2123929 C21.3264444,35.4677857 21.1784167,33.7089286 21.0952778,31.946 C21.0060556,30.0487143 20.1523611,28.14125 21.1865278,26.0790714 C22.8351111,25.6739643 24.5587222,25.3055 26.2417778,24.7945357 C26.5743333,24.69275 27.0184167,23.9537857 26.9251389,23.66675 C26.7548056,23.1374643 26.2985556,22.6020714 25.8159444,22.3048571 C25.4691944,22.0911071 24.871,22.1786429 24.4127222,22.27025 C23.3055556,22.4921429 22.2267778,22.8545 21.1155556,23.0499286 C18.4105,23.5303571 15.7054444,23.7685357 12.9395556,23.3736071 C11.7614167,23.2046429 10.6643889,23.7441071 10.98275,25.3604643 C12.8361389,27.0317857 15.2836667,26.3294643 17.3013056,26.7875 C18.7511667,30.9586786 18.8018611,34.3074286 17.5446389,38.2668929 L17.5446389,38.2668929 Z M76.9889444,39.5147857 C75.6992778,34.6738571 75.4498611,28.7845357 76.17175,22.4107143 C77.2343056,21.3765714 80.0549444,22.4005357 79.5216389,19.2105714 C77.3782778,19.2105714 75.29575,19.2044643 73.2111944,19.2126071 C71.8566389,19.2166786 69.8633333,18.2069643 69.3786944,19.9495357 C68.7176389,22.3211429 71.6173611,21.5170357 72.5663611,22.6020714 C73.5599722,28.5504286 73.5843056,35.1176429 72.613,39.4618571 C71.9255833,39.755 71.0962222,39.94025 70.5041111,40.4186429 C70.0965278,40.7484286 69.7396389,41.5688214 69.8714444,42.0187143 C70.0073056,42.4726786 70.8163889,43.0874643 71.2543889,43.0284286 C74.2838889,42.6314643 77.3012222,42.1205 80.3003056,41.5281071 C80.7808889,41.4324286 81.1438611,40.7362143 81.5595556,40.3188929 C81.1033056,39.9850357 80.6713889,39.4211429 80.1826944,39.3661786 C79.2438333,39.25625 78.2705,39.4353929 76.9889444,39.5147857 L76.9889444,39.5147857 Z M96.1778056,29.5458929 C94.3791667,27.2109286 91.8403889,30.065 89.7294722,28.39775 C89.2894444,27.0216071 89.3665,25.3095714 89.7315,23.4448571 C92.0289722,22.9033571 94.2088333,22.4290357 96.35625,21.8447857 C96.6867778,21.7531786 97.0984167,21.1322857 97.0740833,20.78825 C97.0456944,20.4197857 96.5245556,19.7724286 96.2508056,19.7887143 C93.3754167,19.9597143 90.4939444,20.1429286 87.6449167,20.5378571 C86.6249444,20.6803571 86.1382778,21.7206071 86.2295278,22.7954643 C86.6208889,27.4694643 87.0264444,32.1414286 87.4705278,36.8093214 C87.6773611,38.9855 88.76425,40.097 91.0373889,40.7647143 C93.9594167,41.6237857 96.7719444,40.9540357 99.5621667,40.1662143 C99.8338889,40.0888571 99.9312222,39.3804286 100.1705,38.8226429 C96.8713056,37.3080714 92.8705,39.6511786 89.8754722,36.5894643 C89.8045,35.936 89.6524167,35.1441071 89.6564722,34.3522143 C89.6605278,33.5949286 89.8268056,32.8396786 89.9038611,32.21675 C92.2195833,31.41875 94.8333889,32.1821429 96.1778056,29.5458929 L96.1778056,29.5458929 Z M171.653722,31.3719286 C172.049139,31.9113929 172.182972,32.2595 172.432389,32.3999643 C172.937306,32.6829286 173.503056,32.8518929 174.044472,33.0676786 C174.261444,32.5078571 174.748111,31.8971429 174.654833,31.3943214 C173.908611,27.3839643 173.853861,23.3552857 174.097194,19.3021786 C174.135722,18.6670357 174.149917,17.981 173.953222,17.3947143 C173.825472,17.012 173.320556,16.5682143 172.935278,16.5152857 C172.578389,16.4664286 171.897056,16.82675 171.809861,17.1361786 C171.50975,18.2049286 171.428639,19.3327143 171.225861,20.4299643 C170.694583,23.282 170.264694,26.1584643 169.559028,28.9657143 C169.112917,30.73475 167.959111,31.2151786 166.229417,30.9240714 C164.075917,30.5596786 162.834917,29.3687857 162.342167,27.1885357 C161.9285,25.3645357 162.325944,23.6586071 162.611861,21.9099286 C162.743667,21.1037857 162.790306,20.2732143 161.958917,19.7866786 C161.381,19.44875 160.310333,20.3261429 160.111611,21.5882857 C159.813528,23.4855714 159.487056,25.4439286 159.64725,27.3330714 C159.878417,30.0751786 161.381,32.2126786 163.952222,33.3363929 C166.413944,34.4132857 168.676944,33.9328571 170.621583,32.0315 C170.846667,31.8136786 171.158944,31.6833929 171.653722,31.3719286 L171.653722,31.3719286 Z M159.79325,35.5329286 C159.693889,34.7837857 159.679694,34.1384643 159.515444,33.5358929 C158.166972,28.5626429 156.798222,23.5975357 155.411222,18.6365 C155.2855,18.1906786 155.025944,17.7652143 154.760306,17.3784286 C154.233083,16.6068929 152.681833,16.7901071 152.335083,17.6613929 C152.156639,18.1051786 152.043083,18.5754286 151.919389,19.0395714 C151.298889,21.3704643 150.763556,23.7298571 150.041667,26.0281786 C149.269083,28.4873214 148.309944,30.8853929 147.454222,33.3180714 C147.034472,34.5089643 147.296056,34.81025 149.252861,35.3252857 C149.749667,34.2036071 150.234306,33.029 150.789917,31.889 C150.986611,31.4838929 151.355667,31.1602143 151.767306,30.64925 C153.117806,30.7367857 154.502778,30.8243214 156.005361,30.9220357 C156.36225,32.4284643 156.528528,33.713 156.98275,34.8876071 C157.357889,35.8566071 158.201444,36.3370357 159.79325,35.5329286 L159.79325,35.5329286 Z M201.212639,16.1793929 C199.860111,16.1793929 199.055083,15.9900714 198.396056,16.2180714 C196.87725,16.7432857 195.478083,17.6349286 193.943056,18.0868571 C190.986556,18.9601786 189.816528,21.0976786 189.846944,23.8866071 C189.8875,27.2679286 190.335639,30.6329643 190.061889,34.0346429 C189.934139,35.6408214 190.998722,36.6708929 192.440472,37.3508214 C193.855861,38.0165 195.299639,37.9920714 196.688667,37.5482857 C198.365639,37.0108571 199.985833,36.278 201.587778,35.5329286 C201.851389,35.4107857 201.889917,34.7980357 202.185972,33.9939286 C200.285944,34.2789286 198.73875,34.5313571 197.185472,34.739 C192.890639,35.309 192.4425,34.8733571 192.779111,30.4517857 C192.801417,30.1566071 193.040694,29.87975 193.178583,29.5927143 C198.004694,27.3900714 198.004694,27.3900714 198.272361,25.5253571 C196.441278,25.3421429 194.575722,26.7101429 192.801417,25.5314643 C192.239722,22.1928929 192.219444,22.1582857 194.567611,20.7841786 C196.236472,19.8070357 197.992528,18.9846071 199.657333,18.0033929 C200.133861,17.7224643 200.425861,17.126 201.212639,16.1793929 L201.212639,16.1793929 Z M179.927056,31.9358214 C178.566417,32.2432143 178.168972,33.1104286 178.637389,34.4214286 C179.663444,37.2856786 183.633833,39.3152857 186.048917,38.2241429 C188.451833,37.1411429 189.530611,33.3323214 187.902306,30.578 C186.937083,28.9473929 185.497361,27.5468214 184.073861,26.2622857 C182.889639,25.1935357 181.374889,24.5013929 180.081167,23.5405357 C178.925333,22.6814643 178.990222,21.2340714 180.164306,20.2691429 C180.752361,19.7887143 181.413417,19.4019286 182.031889,18.9785 C181.31,17.7428214 180.385333,17.5087143 179.407944,17.8466429 C176.204056,18.9561071 174.902222,22.7038571 178.033111,25.0327143 C179.718194,26.2867143 181.478306,27.4389286 183.185694,28.6644286 C184.688278,29.7413214 185.809639,31.1459643 185.971861,33.0228929 C186.032694,33.7191071 185.673778,34.7125357 185.154667,35.1257857 C184.635556,35.5390357 183.540556,35.6978214 182.946417,35.4250357 C182.1495,35.0586071 181.524944,34.2198929 180.953111,33.485 C180.592167,33.0188214 180.796972,32.1678929 179.927056,31.9358214 L179.927056,31.9358214 Z M124.759333,20.5643214 C121.918417,19.9922857 121.492583,20.0065357 120.129917,21.6961786 C117.205861,25.3217857 116.342028,29.552 117.122722,34.0611071 C117.503944,36.2576429 118.972056,37.7131786 121.119472,38.5824286 C124.053667,39.76925 126.744528,38.7900714 129.536778,38.2852143 C129.749694,37.4098571 129.89975,36.7950714 130.137,35.8199643 C128.902083,35.7935 127.792889,35.5838214 126.766833,35.7914643 C125.294667,36.0886786 123.901583,36.107 122.461861,35.7141071 C121.45,35.43725 120.780833,34.8570714 120.3185,33.9226786 C119.118056,31.5022143 119.959583,29.1774286 120.525333,26.8078571 C120.965361,24.9594286 121.679139,23.4794643 123.69475,22.9196429 C124.86275,22.5959643 124.925611,21.5903214 124.759333,20.5643214 L124.759333,20.5643214 Z M137.777667,32.2839286 C137.708722,31.6996786 137.530278,30.9220357 137.544472,30.1484643 C137.593139,27.5671786 137.751306,24.9879286 137.779694,22.4086786 C137.787806,21.6351071 137.658028,20.7760357 137.299111,20.1123929 C137.05375,19.6563929 136.262917,19.1800357 135.796528,19.2512857 C135.382861,19.3164286 134.782639,20.1246071 134.784667,20.6009643 C134.796833,22.8443214 135.040167,25.0856429 135.103028,27.329 C135.165889,29.5927143 135.070583,31.8625357 135.131417,34.12625 C135.163861,35.3965357 136.078389,36.3268571 137.321417,36.2311786 C139.716222,36.05 142.111028,35.7690714 144.477444,35.3619286 C144.872861,35.29475 145.383861,34.3766429 145.361556,33.8738214 C145.341278,33.4626071 144.664,32.90075 144.17125,32.7419643 C143.591306,32.55875 142.897806,32.7745357 142.255,32.75825 C140.847722,32.7236429 139.385694,33.4076429 137.777667,32.2839286 L137.777667,32.2839286 Z" id="Fill-2" sketch:type="MSShapeGroup"></path>
                <rect id="Rectangle-4" sketch:type="MSShapeGroup" x="51.5" y="18.5" width="108" height="24"></rect>
                <path d="M54.8030278,32.9068571 C54.5069722,29.8553214 54.2778333,27.272 53.9959722,24.6947857 C53.8803889,23.6484286 54.0993889,22.7588214 54.9206389,22.0890714 C56.9626111,20.4238571 60.4422778,20.3790714 62.5856389,21.9038214 C64.5140556,23.2779286 65.9132222,25.0021786 66.262,27.3961786 C66.5884722,29.6334286 67.0082222,31.8930714 66.9798333,34.1364286 C66.9595556,35.6957857 66.4586944,37.3447143 65.7895278,38.7737857 C65.0088333,40.4410357 63.61575,41.5810357 61.5636389,41.5097857 C60.9208333,41.4873929 60.2739722,41.5993571 59.6291389,41.6156429 C55.8595,41.7113214 54.3853056,40.154 54.6043056,36.3227857 C54.6773056,35.0301071 54.7563889,33.7394643 54.8030278,32.9068571 L54.8030278,32.9068571 Z M57.6216389,38.3198214 C59.035,38.5132143 60.1239167,38.7900714 61.2108056,38.7778571 C62.4173333,38.7656429 63.3480833,38.0185357 63.8671944,36.9579286 C65.40425,33.8066429 64.3275,27.4450357 61.9408056,25.0367857 C61.0769722,24.1655 60.0509167,23.852 58.8687222,23.9415714 C57.9927222,24.00875 57.3113889,24.4179286 57.0579167,25.2790357 C56.8794722,25.8877143 56.7517222,26.5513571 56.7922778,27.1783571 C57.0234444,30.7184643 57.3134167,34.2545 57.6216389,38.3198214 L57.6216389,38.3198214 Z" id="Fill-3" fill="#000000" sketch:type="MSShapeGroup"></path>
                <path d="M45.2217778,36.3085357 C46.8683333,31.5958571 46.9535,26.7915714 46.8115556,22.0178214 C48.7845833,21.50075 49.7538611,21.8651429 49.59975,23.18225 C48.9265278,28.9616429 48.9488333,34.8509643 47.0731389,40.4512143 C46.9778333,40.7301071 46.6493333,40.9316429 46.2721667,41.3408214 C42.0787222,39.6450714 40.9715556,35.6815357 39.4284167,31.3678571 C38.5443056,33.89825 38.4043889,35.9197143 38.0900833,37.9126786 C37.9461111,38.8389286 37.5486667,39.755 37.1025556,40.5876071 C36.9403333,40.8888929 36.2529167,41.1250357 35.8919722,41.0354643 C35.54725,40.9499643 35.1234444,40.4308571 35.07275,40.0562857 C34.9896111,39.4415 35.1234444,38.7737857 35.2633611,38.1528929 C36.1636944,34.1873214 36.9261389,30.2095357 36.6564444,26.1055357 C36.6361667,25.7940714 36.6442778,25.3848929 36.8206944,25.1731786 C37.2039444,24.7131071 37.6480278,24.2102857 38.1772778,24.0006071 C38.50375,23.8723571 39.2317222,24.1186786 39.4324722,24.4260714 C40.0428333,25.3625 40.6065556,26.3681429 40.9675,27.4226429 C41.6528889,29.4196786 42.1192778,31.49 42.8046667,33.4870357 C43.2041389,34.6535 43.5894167,35.9665357 45.2217778,36.3085357" id="Fill-4" fill="#000000" sketch:type="MSShapeGroup"></path>
                <path d="M17.5446389,38.2668929 C18.8018611,34.3074286 18.7511667,30.9586786 17.3013056,26.7875 C15.2836667,26.3294643 12.8361389,27.0317857 10.98275,25.3604643 C10.6643889,23.7441071 11.7614167,23.2046429 12.9395556,23.3736071 C15.7054444,23.7685357 18.4105,23.5303571 21.1155556,23.0499286 C22.2267778,22.8545 23.3055556,22.4921429 24.4127222,22.27025 C24.871,22.1786429 25.4691944,22.0911071 25.8159444,22.3048571 C26.2985556,22.6020714 26.7548056,23.1374643 26.9251389,23.66675 C27.0184167,23.9537857 26.5743333,24.69275 26.2417778,24.7945357 C24.5587222,25.3055 22.8351111,25.6739643 21.1865278,26.0790714 C20.1523611,28.14125 21.0060556,30.0487143 21.0952778,31.946 C21.1784167,33.7089286 21.3264444,35.4677857 21.4440556,37.2123929 C22.8675556,37.7253929 24.0923333,38.0612857 25.2116667,38.6129643 C25.7145556,38.8613214 26.2498889,39.5086786 26.3208611,40.0359286 C26.3816944,40.4837857 25.6354722,41.4894286 25.5198889,41.4487143 C21.6448056,40.1132857 17.8913889,41.9515357 14.0791667,41.8293929 C13.6087222,41.8131071 13.0754167,41.8293929 12.6921667,41.6136071 C12.3433889,41.4181786 12.1588611,40.9255357 11.85875,40.5041429 C13.3410556,38.4419643 15.8778056,39.4170714 17.5446389,38.2668929" id="Fill-5" fill="#000000" sketch:type="MSShapeGroup"></path>
                <path d="M76.9889444,39.5147857 C78.2705,39.4353929 79.2438333,39.25625 80.1826944,39.3661786 C80.6713889,39.4211429 81.1033056,39.9850357 81.5595556,40.3188929 C81.1438611,40.7362143 80.7808889,41.4324286 80.3003056,41.5281071 C77.3012222,42.1205 74.2838889,42.6314643 71.2543889,43.0284286 C70.8163889,43.0874643 70.0073056,42.4726786 69.8714444,42.0187143 C69.7396389,41.5688214 70.0965278,40.7484286 70.5041111,40.4186429 C71.0962222,39.94025 71.9255833,39.755 72.613,39.4618571 C73.5843056,35.1176429 73.5599722,28.5504286 72.5663611,22.6020714 C71.6173611,21.5170357 68.7176389,22.3211429 69.3786944,19.9495357 C69.8633333,18.2069643 71.8566389,19.2166786 73.2111944,19.2126071 C75.29575,19.2044643 77.3782778,19.2105714 79.5216389,19.2105714 C80.0549444,22.4005357 77.2343056,21.3765714 76.17175,22.4107143 C75.4498611,28.7845357 75.6992778,34.6738571 76.9889444,39.5147857" id="Fill-6" fill="#000000" sketch:type="MSShapeGroup"></path>
                <path d="M96.1778056,29.5458929 C94.8333889,32.1821429 92.2195833,31.41875 89.9038611,32.21675 C89.8268056,32.8396786 89.6605278,33.5949286 89.6564722,34.3522143 C89.6524167,35.1441071 89.8045,35.936 89.8754722,36.5894643 C92.8705,39.6511786 96.8713056,37.3080714 100.1705,38.8226429 C99.9312222,39.3804286 99.8338889,40.0888571 99.5621667,40.1662143 C96.7719444,40.9540357 93.9594167,41.6237857 91.0373889,40.7647143 C88.76425,40.097 87.6773611,38.9855 87.4705278,36.8093214 C87.0264444,32.1414286 86.6208889,27.4694643 86.2295278,22.7954643 C86.1382778,21.7206071 86.6249444,20.6803571 87.6449167,20.5378571 C90.4939444,20.1429286 93.3754167,19.9597143 96.2508056,19.7887143 C96.5245556,19.7724286 97.0456944,20.4197857 97.0740833,20.78825 C97.0984167,21.1322857 96.6867778,21.7531786 96.35625,21.8447857 C94.2088333,22.4290357 92.0289722,22.9033571 89.7315,23.4448571 C89.3665,25.3095714 89.2894444,27.0216071 89.7294722,28.39775 C91.8403889,30.065 94.3791667,27.2109286 96.1778056,29.5458929" id="Fill-7" fill="#000000" sketch:type="MSShapeGroup"></path>
                <path d="M171.653722,31.3719286 C171.158944,31.6833929 170.846667,31.8136786 170.621583,32.0315 C168.676944,33.9328571 166.413944,34.4132857 163.952222,33.3363929 C161.381,32.2126786 159.878417,30.0751786 159.64725,27.3330714 C159.487056,25.4439286 159.813528,23.4855714 160.111611,21.5882857 C160.310333,20.3261429 161.381,19.44875 161.958917,19.7866786 C162.790306,20.2732143 162.743667,21.1037857 162.611861,21.9099286 C162.325944,23.6586071 161.9285,25.3645357 162.342167,27.1885357 C162.834917,29.3687857 164.075917,30.5596786 166.229417,30.9240714 C167.959111,31.2151786 169.112917,30.73475 169.559028,28.9657143 C170.264694,26.1584643 170.694583,23.282 171.225861,20.4299643 C171.428639,19.3327143 171.50975,18.2049286 171.809861,17.1361786 C171.897056,16.82675 172.578389,16.4664286 172.935278,16.5152857 C173.320556,16.5682143 173.825472,17.012 173.953222,17.3947143 C174.149917,17.981 174.135722,18.6670357 174.097194,19.3021786 C173.853861,23.3552857 173.908611,27.3839643 174.654833,31.3943214 C174.748111,31.8971429 174.261444,32.5078571 174.044472,33.0676786 C173.503056,32.8518929 172.937306,32.6829286 172.432389,32.3999643 C172.182972,32.2595 172.049139,31.9113929 171.653722,31.3719286" id="Fill-8" fill="#000000" sketch:type="MSShapeGroup"></path>
                <path d="M159.79325,35.5329286 C158.201444,36.3370357 157.357889,35.8566071 156.98275,34.8876071 C156.528528,33.713 156.36225,32.4284643 156.005361,30.9220357 C154.502778,30.8243214 153.117806,30.7367857 151.767306,30.64925 C151.355667,31.1602143 150.986611,31.4838929 150.789917,31.889 C150.234306,33.029 149.749667,34.2036071 149.252861,35.3252857 C147.296056,34.81025 147.034472,34.5089643 147.454222,33.3180714 C148.309944,30.8853929 149.269083,28.4873214 150.041667,26.0281786 C150.763556,23.7298571 151.298889,21.3704643 151.919389,19.0395714 C152.043083,18.5754286 152.156639,18.1051786 152.335083,17.6613929 C152.681833,16.7901071 154.233083,16.6068929 154.760306,17.3784286 C155.025944,17.7652143 155.2855,18.1906786 155.411222,18.6365 C156.798222,23.5975357 158.166972,28.5626429 159.515444,33.5358929 C159.679694,34.1384643 159.693889,34.7837857 159.79325,35.5329286 L159.79325,35.5329286 Z M153.271917,23.6036429 C152.9495,25.0143929 152.698056,25.7574286 152.629111,26.51675 C152.550028,27.3778571 153.207028,27.6648929 153.884306,27.4938929 C154.17225,27.4226429 154.561583,26.7549286 154.488583,26.4577143 C154.306083,25.6963571 153.888361,24.992 153.271917,23.6036429 L153.271917,23.6036429 Z" id="Fill-9" fill="#000000" sketch:type="MSShapeGroup"></path>
                <path d="M201.212639,16.1793929 C200.425861,17.126 200.133861,17.7224643 199.657333,18.0033929 C197.992528,18.9846071 196.236472,19.8070357 194.567611,20.7841786 C192.219444,22.1582857 192.239722,22.1928929 192.801417,25.5314643 C194.575722,26.7101429 196.441278,25.3421429 198.272361,25.5253571 C198.004694,27.3900714 198.004694,27.3900714 193.178583,29.5927143 C193.040694,29.87975 192.801417,30.1566071 192.779111,30.4517857 C192.4425,34.8733571 192.890639,35.309 197.185472,34.739 C198.73875,34.5313571 200.285944,34.2789286 202.185972,33.9939286 C201.889917,34.7980357 201.851389,35.4107857 201.587778,35.5329286 C199.985833,36.278 198.365639,37.0108571 196.688667,37.5482857 C195.299639,37.9920714 193.855861,38.0165 192.440472,37.3508214 C190.998722,36.6708929 189.934139,35.6408214 190.061889,34.0346429 C190.335639,30.6329643 189.8875,27.2679286 189.846944,23.8866071 C189.816528,21.0976786 190.986556,18.9601786 193.943056,18.0868571 C195.478083,17.6349286 196.87725,16.7432857 198.396056,16.2180714 C199.055083,15.9900714 199.860111,16.1793929 201.212639,16.1793929" id="Fill-10" fill="#000000" sketch:type="MSShapeGroup"></path>
                <path d="M179.927056,31.9358214 C180.796972,32.1678929 180.592167,33.0188214 180.953111,33.485 C181.524944,34.2198929 182.1495,35.0586071 182.946417,35.4250357 C183.540556,35.6978214 184.635556,35.5390357 185.154667,35.1257857 C185.673778,34.7125357 186.032694,33.7191071 185.971861,33.0228929 C185.809639,31.1459643 184.688278,29.7413214 183.185694,28.6644286 C181.478306,27.4389286 179.718194,26.2867143 178.033111,25.0327143 C174.902222,22.7038571 176.204056,18.9561071 179.407944,17.8466429 C180.385333,17.5087143 181.31,17.7428214 182.031889,18.9785 C181.413417,19.4019286 180.752361,19.7887143 180.164306,20.2691429 C178.990222,21.2340714 178.925333,22.6814643 180.081167,23.5405357 C181.374889,24.5013929 182.889639,25.1935357 184.073861,26.2622857 C185.497361,27.5468214 186.937083,28.9473929 187.902306,30.578 C189.530611,33.3323214 188.451833,37.1411429 186.048917,38.2241429 C183.633833,39.3152857 179.663444,37.2856786 178.637389,34.4214286 C178.168972,33.1104286 178.566417,32.2432143 179.927056,31.9358214" id="Fill-11" fill="#000000" sketch:type="MSShapeGroup"></path>
                <path d="M124.759333,20.5643214 C124.925611,21.5903214 124.86275,22.5959643 123.69475,22.9196429 C121.679139,23.4794643 120.965361,24.9594286 120.525333,26.8078571 C119.959583,29.1774286 119.118056,31.5022143 120.3185,33.9226786 C120.780833,34.8570714 121.45,35.43725 122.461861,35.7141071 C123.901583,36.107 125.294667,36.0886786 126.766833,35.7914643 C127.792889,35.5838214 128.902083,35.7935 130.137,35.8199643 C129.89975,36.7950714 129.749694,37.4098571 129.536778,38.2852143 C126.744528,38.7900714 124.053667,39.76925 121.119472,38.5824286 C118.972056,37.7131786 117.503944,36.2576429 117.122722,34.0611071 C116.342028,29.552 117.205861,25.3217857 120.129917,21.6961786 C121.492583,20.0065357 121.918417,19.9922857 124.759333,20.5643214" id="Fill-12" fill="#000000" sketch:type="MSShapeGroup"></path>
                <path d="M137.777667,32.2839286 C139.385694,33.4076429 140.847722,32.7236429 142.255,32.75825 C142.897806,32.7745357 143.591306,32.55875 144.17125,32.7419643 C144.664,32.90075 145.341278,33.4626071 145.361556,33.8738214 C145.383861,34.3766429 144.872861,35.29475 144.477444,35.3619286 C142.111028,35.7690714 139.716222,36.05 137.321417,36.2311786 C136.078389,36.3268571 135.163861,35.3965357 135.131417,34.12625 C135.070583,31.8625357 135.165889,29.5927143 135.103028,27.329 C135.040167,25.0856429 134.796833,22.8443214 134.784667,20.6009643 C134.782639,20.1246071 135.382861,19.3164286 135.796528,19.2512857 C136.262917,19.1800357 137.05375,19.6563929 137.299111,20.1123929 C137.658028,20.7760357 137.787806,21.6351071 137.779694,22.4086786 C137.751306,24.9879286 137.593139,27.5671786 137.544472,30.1484643 C137.530278,30.9220357 137.708722,31.6996786 137.777667,32.2839286" id="Fill-13" fill="#000000" sketch:type="MSShapeGroup"></path>
            </g>
        </g>
    </g>
</svg>