<svg width="219" height="56" viewBox="0 0 219 56" xmlns="http://www.w3.org/2000/svg" xmlns:sketch="http://www.bohemiancoding.com/sketch/ns"><title>indie-clause</title><desc>Created with Sketch.</desc><g sketch:type="MSArtboardGroup" fill="none"><path opacity=".87" sketch:type="MSShapeGroup" d="M-505-311h1024v1024h-1024z"/><g sketch:type="MSLayerGroup"><path d="M54.415 55.169c-1.172-2.942-3.668-3.583-6.584-2.992-2.6.527-5.128.179-7.722-.033-7.923-.651-15.851-.729-23.776.204-3.05.36-6.144.444-9.22.462-3.543.022-5.558-2.026-5.714-5.731-.101-2.437.006-4.882.026-7.325.02-2.107.065-4.214.069-6.321.002-.975-.193-1.966-.073-2.923.588-4.741-.012-9.421-.665-14.089-.304-2.172-.101-4.183 1.006-6.376 3.731-.969 7.649-1.702 11.708-1.958 10.832-.686 21.649-1.604 32.477-2.357 3.865-.269 7.742-.407 11.617-.462 6.663-.094 13.217-.985 19.787-2.074 5.731-.949 11.516-1.612 17.402-1.219 4.508.299 9.064.031 13.59-.165 11.477-.501 22.942-.497 34.42.102 5.664.295 11.356.035 17.019.318 4.844.24 9.658-.23 14.49-.165 4.861.067 9.731.175 14.582-.063 7.097-.346 14.184-.947 21.271-1.51 3.776-.301 6.416 2.194 6.325 6.085-.016.751-.01 1.622.337 2.241 1.318 2.353 1.59 4.939 1.61 7.508.028 3.569-.294 7.139-.399 10.712-.087 2.919-.008 5.845-.126 8.762-.118 2.903-.134 5.849-.659 8.688-.635 3.448-2.188 4.505-5.769 4.633-1.129.041-2.273-.031-3.397-.175-10.325-1.325-20.704-1.128-31.072-1-5.668.069-11.331.43-16.999.558-1.926.043-3.861-.216-5.789-.356-.971-.069-1.939-.275-2.906-.259-9.717.173-19.436-.35-29.155.56-6.6.617-13.264.537-19.895.867-4.041.2-8.073.596-12.108.884-3.056.218-6.114.403-9.17.599-2.585.165-5.175.289-7.756.509-.789.069-1.906.145-2.275.653-1.543 2.123-3.723 1.519-5.763 1.745-3.366.373-6.716.906-10.745 1.466zm157.725-9.291c2.768-2.657 3.297-5.633 2.563-9.028-.371-1.718-.548-3.532-.468-5.287.164-3.733.694-7.453.795-11.184.057-2.058-.452-4.13-.706-6.195-2.314-2.054-1.799-4.613-1.312-7.19.424-2.235-.124-3.086-2.182-3.361-1.282-.171-2.589-.332-3.873-.263-4.202.232-8.431.334-12.584.934-4.524.653-9.038.712-13.574.692-3.078-.012-6.158-.047-9.237-.071-12.307-.1-24.631.185-36.91-.448-6.984-.36-13.9.234-20.85.098-7.432-.145-14.864.877-22.308.195-.643-.059-1.322-.167-1.934-.028-5.061 1.134-10.265 1.185-15.36 2.074-3.015.525-6.1.637-9.151.947l-3.378.387c-2.091.21-4.193.655-6.27.554-9.743-.48-19.392 1.02-29.101 1.246-3.873.088-7.74.592-11.605.971-3.342.328-6.75.265-10.163 1.36-.065 1.282-.245 2.402-.154 3.497.233 2.746.819 5.48.844 8.224.049 5.521-.227 11.044-.276 16.569-.02 2.256.089 4.527.355 6.765.199 1.688.939 2.355 2.527 2.38 2.099.037 4.204-.118 6.3-.261 4.189-.283 8.387-.973 12.562-.855 11.469.32 22.93.601 34.405.425 10.697-.163 21.355-.733 31.986-1.907 3.699-.409 7.401-.867 11.114-1.042 9.38-.44 18.763-.806 28.15-1.059 6.308-.169 12.625-.145 18.935-.116 4.368.02 8.74.377 13.103.265 13.927-.36 27.847-.658 41.758.428 2.093.163 4.193.202 5.998.285z" fill="#000" sketch:type="MSShapeGroup"/><path d="M212.139 45.878c-1.805-.083-3.906-.122-5.998-.285-13.911-1.085-27.831-.788-41.758-.428-4.364.112-8.736-.244-13.103-.265-6.31-.029-12.627-.053-18.935.116-9.387.252-18.769.619-28.15 1.059-3.713.175-7.416.633-11.114 1.042-10.632 1.175-21.29 1.745-31.986 1.907-11.475.175-22.936-.106-34.405-.425-4.175-.118-8.373.572-12.562.855-2.097.142-4.202.297-6.3.261-1.588-.024-2.328-.692-2.527-2.38-.266-2.237-.375-4.509-.355-6.765.049-5.525.324-11.048.276-16.569-.024-2.744-.61-5.478-.844-8.224-.091-1.095.089-2.215.154-3.497 3.413-1.095 6.821-1.032 10.163-1.36 3.865-.379 7.732-.883 11.605-.971 9.709-.226 19.357-1.726 29.101-1.246 2.076.102 4.179-.344 6.27-.554l3.378-.387c3.052-.309 6.136-.421 9.151-.947 5.096-.89 10.299-.941 15.36-2.074.612-.138 1.292-.031 1.934.028 7.444.682 14.876-.34 22.308-.195 6.949.136 13.866-.458 20.85-.098 12.278.633 24.603.348 36.91.448 3.078.024 6.158.059 9.237.071 4.536.02 9.05-.039 13.574-.692 4.153-.601 8.383-.702 12.584-.934 1.284-.069 2.591.092 3.873.263 2.058.275 2.606 1.126 2.182 3.361-.487 2.577-1.002 5.136 1.312 7.19.253 2.064.762 4.137.706 6.195-.101 3.731-.631 7.451-.795 11.184-.079 1.755.097 3.569.468 5.287.734 3.396.205 6.372-2.563 9.028zm-156.836-12.471l-.199 3.416c-.219 3.831 1.255 5.389 5.025 5.293.645-.016 1.292-.128 1.934-.106 2.052.071 3.445-1.069 4.226-2.736.669-1.429 1.17-3.078 1.19-4.637.028-2.243-.391-4.503-.718-6.74-.349-2.394-1.748-4.118-3.676-5.492-2.143-1.525-5.623-1.48-7.665.185-.821.67-1.04 1.559-.925 2.606.282 2.577.511 5.161.807 8.212zm-9.581 3.402c-1.632-.342-2.018-1.655-2.417-2.822l-1.837-6.064c-.361-1.055-.925-2.06-1.535-2.997-.201-.307-.929-.554-1.255-.425-.529.21-.973.712-1.357 1.173-.176.212-.185.621-.164.932.27 4.104-.493 8.082-1.393 12.047-.14.621-.274 1.289-.191 1.903.051.375.474.894.819.979.361.09 1.048-.147 1.211-.448.446-.833.844-1.749.988-2.675.314-1.993.454-4.014 1.338-6.545 1.543 4.314 2.65 8.277 6.844 9.973.377-.409.706-.611.801-.89 1.876-5.6 1.853-11.49 2.527-17.269.154-1.317-.815-1.681-2.788-1.164.142 4.774.057 9.578-1.59 14.291zm-27.677 1.958c-1.667 1.15-4.204.175-5.686 2.237.3.421.485.914.833 1.109.383.216.917.2 1.387.216 3.812.122 7.566-1.716 11.441-.381.116.041.862-.965.801-1.413-.071-.527-.606-1.175-1.109-1.423-1.119-.552-2.344-.888-3.768-1.401-.118-1.745-.266-3.503-.349-5.266-.089-1.897-.943-3.805.091-5.867 1.649-.405 3.372-.774 5.055-1.285.333-.102.777-.841.683-1.128-.17-.529-.627-1.065-1.109-1.362-.347-.214-.945-.126-1.403-.035-1.107.222-2.186.584-3.297.78-2.705.48-5.41.719-8.176.324-1.178-.169-2.275.37-1.957 1.987 1.853 1.671 4.301.969 6.319 1.427 1.45 4.171 1.501 7.52.243 11.479zm59.444 1.248c-1.29-4.841-1.539-10.73-.817-17.104 1.063-1.034 3.883-.01 3.35-3.2-2.143 0-4.226-.006-6.31.002-1.355.004-3.348-1.006-3.832.737-.661 2.372 2.239 1.568 3.188 2.653.994 5.948 1.018 12.516.047 16.86-.687.293-1.517.478-2.109.957-.408.33-.764 1.15-.633 1.6.136.454.945 1.069 1.383 1.01 3.029-.397 6.047-.908 9.046-1.5.481-.096.844-.792 1.259-1.209-.456-.334-.888-.898-1.377-.953-.939-.11-1.912.069-3.194.149zm19.189-9.969c-1.799-2.335-4.337.519-6.448-1.148-.44-1.376-.363-3.088.002-4.953 2.297-.541 4.477-1.016 6.625-1.6.331-.092.742-.712.718-1.057-.028-.368-.55-1.016-.823-1-2.875.171-5.757.354-8.606.749-1.02.142-1.507 1.183-1.415 2.258.391 4.674.797 9.346 1.241 14.014.207 2.176 1.294 3.288 3.567 3.955 2.922.859 5.735.189 8.525-.599.272-.077.369-.786.608-1.344-3.299-1.515-7.3.829-10.295-2.233-.071-.653-.223-1.445-.219-2.237.004-.757.17-1.513.247-2.135 2.316-.798 4.93-.035 6.274-2.671zm75.476 1.826c.395.539.529.888.779 1.028.505.283 1.071.452 1.612.668.217-.56.704-1.171.61-1.673-.746-4.01-.801-8.039-.558-12.092.039-.635.053-1.321-.144-1.907-.128-.383-.633-.826-1.018-.879-.357-.049-1.038.311-1.125.621-.3 1.069-.381 2.197-.584 3.294-.531 2.852-.961 5.728-1.667 8.536-.446 1.769-1.6 2.249-3.33 1.958-2.154-.364-3.395-1.555-3.887-3.736-.414-1.824-.016-3.53.27-5.279.132-.806.178-1.637-.653-2.123-.578-.338-1.649.539-1.847 1.802-.298 1.897-.625 3.856-.464 5.745.231 2.742 1.734 4.88 4.305 6.003 2.462 1.077 4.725.596 6.669-1.305.225-.218.537-.348 1.032-.66zm-11.86 4.161c-.099-.749-.114-1.394-.278-1.997-1.348-4.973-2.717-9.938-4.104-14.899-.126-.446-.385-.871-.651-1.258-.527-.772-2.078-.588-2.425.283-.178.444-.292.914-.416 1.378-.62 2.331-1.156 4.69-1.878 6.989-.773 2.459-1.732 4.857-2.587 7.29-.42 1.191-.158 1.492 1.799 2.007.497-1.122.981-2.296 1.537-3.436.197-.405.566-.729.977-1.24l4.238.273c.357 1.506.523 2.791.977 3.966.375.969 1.219 1.449 2.81.645zm41.419-19.354c-1.353 0-2.158-.189-2.817.039-1.519.525-2.918 1.417-4.453 1.869-2.957.873-4.127 3.011-4.096 5.8.041 3.381.489 6.746.215 10.148-.128 1.606.937 2.636 2.379 3.316 1.415.666 2.859.641 4.248.197 1.677-.537 3.297-1.27 4.899-2.015.264-.122.302-.735.598-1.539-1.9.285-3.447.537-5 .745-4.295.57-4.743.134-4.406-4.287.022-.295.262-.572.399-.859 4.826-2.203 4.826-2.203 5.094-4.067-1.831-.183-3.697 1.185-5.471.006-.562-3.339-.582-3.373 1.766-4.747 1.669-.977 3.425-1.8 5.09-2.781.477-.281.769-.877 1.555-1.824zm-21.286 15.756c-1.361.307-1.758 1.175-1.29 2.486 1.026 2.864 4.996 4.894 7.412 3.803 2.403-1.083 3.482-4.892 1.853-7.646-.965-1.631-2.405-3.031-3.828-4.316-1.184-1.069-2.699-1.761-3.993-2.722-1.156-.859-1.091-2.306.083-3.271.588-.48 1.249-.867 1.868-1.291-.722-1.236-1.647-1.47-2.624-1.132-3.204 1.109-4.506 4.857-1.375 7.186 1.685 1.254 3.445 2.406 5.153 3.632 1.503 1.077 2.624 2.482 2.786 4.358.061.696-.298 1.69-.817 2.103-.519.413-1.614.572-2.208.299-.797-.366-1.421-1.205-1.993-1.94-.361-.466-.156-1.317-1.026-1.549zm-55.168-11.371c-2.841-.572-3.267-.558-4.629 1.132-2.924 3.626-3.788 7.856-3.007 12.365.381 2.197 1.849 3.652 3.997 4.521 2.934 1.187 5.625.208 8.417-.297l.6-2.465c-1.235-.026-2.344-.236-3.37-.029-1.472.297-2.865.316-4.305-.077-1.012-.277-1.681-.857-2.143-1.791-1.2-2.42-.359-4.745.207-7.115.44-1.848 1.154-3.328 3.169-3.888 1.168-.324 1.231-1.329 1.065-2.355zm13.018 11.72c-.069-.584-.247-1.362-.233-2.135.049-2.581.207-5.161.235-7.74.008-.774-.122-1.633-.481-2.296-.245-.456-1.036-.932-1.503-.861-.414.065-1.014.873-1.012 1.35.012 2.243.255 4.485.318 6.728.063 2.264-.032 4.534.028 6.797.032 1.27.947 2.201 2.19 2.105 2.395-.181 4.79-.462 7.156-.869.395-.067.906-.985.884-1.488-.02-.411-.698-.973-1.19-1.132-.58-.183-1.273.033-1.916.016-1.407-.035-2.869.649-4.477-.474z" sketch:type="MSShapeGroup"/><path sketch:type="MSShapeGroup" d="M52 19h108v24h-108z"/><path d="M55.303 33.407c-.296-3.052-.525-5.635-.807-8.212-.116-1.046.103-1.936.925-2.606 2.042-1.665 5.522-1.71 7.665-.185 1.928 1.374 3.328 3.098 3.676 5.492.326 2.237.746 4.497.718 6.74-.02 1.559-.521 3.208-1.19 4.637-.781 1.667-2.174 2.807-4.226 2.736-.643-.022-1.29.09-1.934.106-3.77.096-5.244-1.462-5.025-5.293l.199-3.416zm2.819 5.413c1.413.193 2.502.47 3.589.458 1.207-.012 2.137-.759 2.656-1.82 1.537-3.151.46-9.513-1.926-11.921-.864-.871-1.89-1.185-3.072-1.095-.876.067-1.557.476-1.811 1.337-.178.609-.306 1.272-.266 1.899.231 3.54.521 7.076.829 11.141z" fill="#000" sketch:type="MSShapeGroup"/><path d="M45.722 36.809c1.647-4.713 1.732-9.517 1.59-14.291 1.973-.517 2.942-.153 2.788 1.164-.673 5.779-.651 11.669-2.527 17.269-.095.279-.424.48-.801.89-4.193-1.696-5.301-5.659-6.844-9.973-.884 2.53-1.024 4.552-1.338 6.545-.144.926-.541 1.842-.988 2.675-.162.301-.85.537-1.211.448-.345-.086-.769-.605-.819-.979-.083-.615.051-1.282.191-1.903.9-3.966 1.663-7.943 1.393-12.047-.02-.311-.012-.721.164-.932.383-.46.827-.963 1.357-1.173.326-.128 1.054.118 1.255.425.61.936 1.174 1.942 1.535 2.997l1.837 6.064c.399 1.166.785 2.48 2.417 2.822" fill="#000" sketch:type="MSShapeGroup"/><path d="M18.045 38.767c1.257-3.959 1.207-7.308-.243-11.479-2.018-.458-4.465.244-6.319-1.427-.318-1.616.779-2.156 1.957-1.987 2.766.395 5.471.157 8.176-.324 1.111-.195 2.19-.558 3.297-.78.458-.092 1.056-.179 1.403.035.483.297.939.833 1.109 1.362.093.287-.351 1.026-.683 1.128-1.683.511-3.407.879-5.055 1.285-1.034 2.062-.18 3.97-.091 5.867.083 1.763.231 3.522.349 5.266 1.424.513 2.648.849 3.768 1.401.503.248 1.038.896 1.109 1.423.061.448-.685 1.453-.801 1.413-3.875-1.335-7.629.503-11.441.381-.47-.016-1.004 0-1.387-.216-.349-.195-.533-.688-.833-1.109 1.482-2.062 4.019-1.087 5.686-2.237" fill="#000" sketch:type="MSShapeGroup"/><path d="M77.489 40.015c1.282-.079 2.255-.259 3.194-.149.489.055.921.619 1.377.953-.416.417-.779 1.114-1.259 1.209-2.999.592-6.016 1.103-9.046 1.5-.438.059-1.247-.556-1.383-1.01-.132-.45.225-1.27.633-1.6.592-.478 1.421-.664 2.109-.957.971-4.344.947-10.911-.047-16.86-.949-1.085-3.849-.281-3.188-2.653.485-1.743 2.478-.733 3.832-.737 2.085-.008 4.167-.002 6.31-.002.533 3.19-2.287 2.166-3.35 3.2-.722 6.374-.472 12.263.817 17.104" fill="#000" sketch:type="MSShapeGroup"/><path d="M96.678 30.046c-1.344 2.636-3.958 1.873-6.274 2.671-.077.623-.243 1.378-.247 2.135-.004.792.148 1.584.219 2.237 2.995 3.062 6.996.719 10.295 2.233-.239.558-.337 1.266-.608 1.344-2.79.788-5.603 1.458-8.525.599-2.273-.668-3.36-1.779-3.567-3.955-.444-4.668-.85-9.34-1.241-14.014-.091-1.075.395-2.115 1.415-2.258 2.849-.395 5.731-.578 8.606-.749.274-.016.795.631.823 1 .024.344-.387.965-.718 1.057-2.147.584-4.327 1.059-6.625 1.6-.365 1.865-.442 3.577-.002 4.953 2.111 1.667 4.65-1.187 6.448 1.148" fill="#000" sketch:type="MSShapeGroup"/><path d="M172.154 31.872c-.495.311-.807.442-1.032.66-1.945 1.901-4.208 2.382-6.669 1.305-2.571-1.124-4.074-3.261-4.305-6.003-.16-1.889.166-3.848.464-5.745.199-1.262 1.269-2.14 1.847-1.802.831.487.785 1.317.653 2.123-.286 1.749-.683 3.455-.27 5.279.493 2.18 1.734 3.371 3.887 3.736 1.73.291 2.883-.189 3.33-1.958.706-2.807 1.136-5.684 1.667-8.536.203-1.097.284-2.225.584-3.294.087-.309.769-.67 1.125-.621.385.053.89.497 1.018.879.197.586.182 1.272.144 1.907-.243 4.053-.189 8.082.558 12.092.093.503-.393 1.114-.61 1.673-.541-.216-1.107-.385-1.612-.668-.249-.14-.383-.489-.779-1.028" fill="#000" sketch:type="MSShapeGroup"/><path d="M160.293 36.033c-1.592.804-2.435.324-2.81-.645-.454-1.175-.621-2.459-.977-3.966l-4.238-.273c-.412.511-.781.835-.977 1.24-.556 1.14-1.04 2.315-1.537 3.436-1.957-.515-2.218-.816-1.799-2.007.856-2.433 1.815-4.831 2.587-7.29.722-2.298 1.257-4.658 1.878-6.989.124-.464.237-.934.416-1.378.347-.871 1.898-1.055 2.425-.283.266.387.525.812.651 1.258 1.387 4.961 2.756 9.926 4.104 14.899.164.603.178 1.248.278 1.997zm-6.521-11.929c-.322 1.411-.574 2.154-.643 2.913-.079.861.578 1.148 1.255.977.288-.071.677-.739.604-1.036-.183-.761-.6-1.466-1.217-2.854z" fill="#000" sketch:type="MSShapeGroup"/><path d="M201.713 16.679c-.787.947-1.079 1.543-1.555 1.824-1.665.981-3.421 1.804-5.09 2.781-2.348 1.374-2.328 1.409-1.766 4.747 1.774 1.179 3.64-.189 5.471-.006-.268 1.865-.268 1.865-5.094 4.067-.138.287-.377.564-.399.859-.337 4.422.112 4.857 4.406 4.287 1.553-.208 3.1-.46 5-.745-.296.804-.335 1.417-.598 1.539-1.602.745-3.222 1.478-4.899 2.015-1.389.444-2.833.468-4.248-.197-1.442-.68-2.506-1.71-2.379-3.316.274-3.402-.174-6.767-.215-10.148-.03-2.789 1.14-4.926 4.096-5.8 1.535-.452 2.934-1.344 4.453-1.869.659-.228 1.464-.039 2.817-.039" fill="#000" sketch:type="MSShapeGroup"/><path d="M180.427 32.436c.87.232.665 1.083 1.026 1.549.572.735 1.196 1.574 1.993 1.94.594.273 1.689.114 2.208-.299.519-.413.878-1.407.817-2.103-.162-1.877-1.284-3.282-2.786-4.358-1.707-1.226-3.468-2.378-5.153-3.632-3.131-2.329-1.829-6.077 1.375-7.186.977-.338 1.902-.104 2.624 1.132-.618.423-1.28.81-1.868 1.291-1.174.965-1.239 2.412-.083 3.271 1.294.961 2.808 1.653 3.993 2.722 1.424 1.285 2.863 2.685 3.828 4.316 1.628 2.754.55 6.563-1.853 7.646-2.415 1.091-6.385-.938-7.412-3.803-.468-1.311-.071-2.178 1.29-2.486" fill="#000" sketch:type="MSShapeGroup"/><path d="M125.259 21.064c.166 1.026.103 2.032-1.065 2.355-2.016.56-2.729 2.04-3.169 3.888-.566 2.37-1.407 4.694-.207 7.115.462.934 1.132 1.515 2.143 1.791 1.44.393 2.833.375 4.305.077 1.026-.208 2.135.002 3.37.029l-.6 2.465c-2.792.505-5.483 1.484-8.417.297-2.147-.869-3.616-2.325-3.997-4.521-.781-4.509.083-8.739 3.007-12.365 1.363-1.69 1.788-1.704 4.629-1.132" fill="#000" sketch:type="MSShapeGroup"/><path d="M138.278 32.784c1.608 1.124 3.07.44 4.477.474.643.016 1.336-.199 1.916-.016.493.159 1.17.721 1.19 1.132.022.503-.489 1.421-.884 1.488-2.366.407-4.761.688-7.156.869-1.243.096-2.158-.835-2.19-2.105l-.028-6.797c-.063-2.243-.306-4.485-.318-6.728-.002-.476.598-1.285 1.012-1.35.466-.071 1.257.405 1.503.861.359.664.489 1.523.481 2.296-.028 2.579-.187 5.159-.235 7.74-.014.774.164 1.551.233 2.135" fill="#000" sketch:type="MSShapeGroup"/></g></g></svg>