<?xml version="1.0" encoding="UTF-8" standalone="no"?>
<svg width="212px" height="99px" viewBox="0 0 212 99" version="1.1" xmlns="http://www.w3.org/2000/svg" xmlns:xlink="http://www.w3.org/1999/xlink" xmlns:sketch="http://www.bohemiancoding.com/sketch/ns">
    <!-- Generator: Sketch 3.1.1 (8761) - http://www.bohemiancoding.com/sketch -->
    <title>joy-to-the</title>
    <desc>Created with Sketch.</desc>
    <defs></defs>
    <g id="Page-1" stroke="none" stroke-width="1" fill="none" fill-rule="evenodd" sketch:type="MSPage">
        <g id="joy-to-the-hover" sketch:type="MSLayerGroup">
            <g id="Page-1" sketch:type="MSShapeGroup">
                <g id="Group">
                    <rect id="Rectangle-2" transform="translate(108.000000, 50.000000) rotate(-2.000000) translate(-108.000000, -50.000000) " x="10" y="8" width="196" height="84"></rect>
                    <rect id="Rectangle-5" x="2" y="72" width="6" height="15"></rect>
                    <rect id="Rectangle-4" x="5" y="13" width="21" height="81"></rect>
                    <rect id="Rectangle-3" x="35" y="8" width="52" height="5"></rect>
                    <path d="M4.8948271,13.387521 C4.7132757,12.963469 4.52553505,12.6718039 4.46364252,12.3553163 C4.15624299,10.7873582 4.78135748,10.040613 6.34517523,10.0261332 C6.99710981,10.0199275 7.66967523,9.8523753 8.2968528,9.9640768 C13.6835654,10.9135396 18.7174907,9.0621906 23.8174346,7.9410385 C27.8590164,7.0515636 31.9232921,6.7992009 36.0205771,6.4578908 C40.5511098,6.0793468 45.0383178,6.2179394 49.5502827,6.3296409 C52.7398107,6.4061771 55.9375911,6.5178786 59.1209299,6.3772175 C65.1018107,6.1083065 71.093007,6.155883 77.0573832,5.3388072 C80.1293154,4.9188923 83.2982126,5.0885131 86.4175958,5.1671179 C91.5918107,5.2995048 96.7701519,5.4753313 101.934051,5.81871 C106.835939,6.1455403 111.717196,6.7702413 116.617021,7.1611965 C122.222421,7.6080025 127.753549,6.9460677 133.257857,5.8621494 C140.559112,4.4245098 147.961458,3.8142886 155.376182,4.3024655 C159.663271,4.5837878 163.892593,4.6044733 168.173493,4.2879857 C175.192105,3.7708491 182.235474,3.5846799 189.258213,3.1027087 C193.755736,2.7944953 198.242944,2.2649474 202.71571,1.6898915 C203.576016,1.5802586 204.351736,0.7921424 205.325512,0.2232922 C205.967131,0.7342231 206.705715,1.3258274 207.508255,1.9691453 C207.18435,3.1957932 206.99661,4.3562477 208.102423,5.3781096 C208.413949,5.6656375 208.352056,6.4868504 208.283974,7.0412208 C207.59903,12.5497597 207.731068,18.0748469 207.840411,23.6040712 C207.910556,27.1412854 207.995143,30.6826367 207.161657,34.17848 C206.88314,35.3513458 206.926465,36.6110905 206.899645,37.8336014 C206.812995,41.5528476 206.623192,45.276231 206.740787,48.9892716 C206.85632,52.6836954 207.293694,56.3698449 207.594904,60.058063 C207.953881,64.4888892 208.500598,68.9135098 208.609942,73.3505416 C208.673897,75.9507044 209.938568,78.2116255 210.072668,80.7373206 C210.103614,81.2999652 210.278977,81.9081178 210.126308,82.4190487 C209.441364,84.6985868 209.627042,86.791956 211.281636,88.601934 C210.559556,90.273319 209.065883,90.418117 207.73932,90.509133 C203.813271,90.778044 199.870717,90.838032 195.940542,91.073847 C193.730979,91.208302 191.533794,91.541338 189.328357,91.76681 C187.040397,92.000555 184.756563,92.286015 182.462414,92.416333 C178.026783,92.666627 173.584963,92.792809 169.149332,93.030691 C164.237129,93.293397 159.333178,93.798122 154.418911,93.87259 C149.087902,93.953263 143.752766,93.61609 138.417631,93.539554 C134.792792,93.48784 131.161764,93.694695 127.541051,93.562308 C119.955091,93.283054 112.426897,94.112541 104.871883,94.45592 C101.940241,94.590375 98.9859042,94.230448 96.0418832,94.120815 C95.4765981,94.10013 94.9071869,94.182872 94.3419019,94.230448 C93.6879042,94.28423 93.0318435,94.431097 92.384035,94.404206 C84.8929766,94.083581 77.4576215,95.198528 69.9933832,95.229556 C67.1813995,95.241967 64.6891939,95.730144 62.1949252,96.905079 C61.4893505,97.236046 60.4949439,96.942312 59.6346379,96.94645 C53.2947804,96.971272 46.9549229,97.006437 40.6171285,97.020917 C39.4638645,97.022986 38.3085374,96.869913 37.1614626,96.91749 C33.711986,97.064357 30.2563201,97.198812 26.819222,97.513231 C25.938285,97.593905 25.1151145,98.317896 24.2362407,98.760565 C22.2783738,97.198812 19.9429626,97.947626 17.7333995,98.022094 C16.247979,98.06967 14.6367103,99.099806 13.6856285,97.049877 C11.8597991,96.598934 10.0298435,96.154196 8.2060771,95.69291 C7.41591589,95.49433 6.61956542,95.29575 5.84797196,95.035113 C4.13561215,94.460057 3.18246729,93.632638 3.37227103,91.425499 C3.49605607,89.960969 2.50783879,88.316474 1.7651285,86.88504 C0.911011682,85.2302032 0.519025701,83.6270798 0.657252336,81.7302228 C0.795478972,79.8023376 0.27764486,77.8330815 0.329221963,75.8907165 C0.389051402,73.6008358 0.510773364,71.2613099 1.0389229,69.0479653 C1.90748131,65.4052552 2.06221262,61.7211742 2.28915187,58.024682 C2.32835047,57.3896383 2.37167523,56.6180705 2.73271495,56.1609217 C4.05927804,54.4791936 4.00770093,52.4623609 4.29446963,50.5303387 C5.04955841,45.4396462 4.87832243,40.3489537 4.28002804,35.2520555 C3.99325935,32.7987596 3.76013084,30.3206411 3.77044626,27.8549339 C3.78695093,24.0943167 4.04071028,20.335768 4.181,16.5751508 C4.2201986,15.5222608 4.34398364,14.5355642 5.68292523,14.4424796 C6.83206308,14.3618063 7.67586449,14.9451363 7.77076636,16.3807075 C7.93375,18.8257292 8.19576168,21.3762468 7.69236916,23.7240469 C6.92696495,27.2902208 7.16421963,30.8295035 7.4406729,34.3253468 C7.63872897,36.8262193 7.42829439,39.2319387 7.2715,41.683166 C7.14565187,43.6296681 7.23436449,45.5927186 7.06931776,47.5350836 C6.92490187,49.2374972 6.55560981,50.9212939 6.29359813,52.6154333 C6.11823598,53.7469282 5.59833879,54.9735761 5.85828738,55.9975066 C6.4276986,58.2604963 5.99445093,60.391099 5.74688084,62.602375 C5.29093925,66.6856854 5.02067523,70.7917499 4.69058178,74.8895401 C4.50490421,77.1897636 4.16655841,79.5003299 4.24908178,81.7922792 C4.3109743,83.4760759 4.83706075,85.1722839 5.35902103,86.796093 C5.74894393,88.014467 6.72684579,89.0053 6.58036682,90.465694 C6.54323131,90.846306 7.15596729,91.520653 7.60778271,91.686136 C9.52438785,92.393579 11.4781285,93.010006 13.4442477,93.564376 C18.8123925,95.080621 24.2857547,94.366972 29.6332687,93.748477 C32.6288668,93.40303 35.3913364,93.682283 38.3085374,93.932578 C42.3934439,94.280093 46.5443692,93.965674 50.660222,93.806396 C52.5314393,93.731929 54.3923411,93.347179 55.8179322,93.16101 C56.4203528,92.319111 56.7174369,91.733713 57.1733785,91.330346 C57.431264,91.102806 57.9532243,91.12556 58.3555257,91.119355 C62.6426145,91.049024 66.8657477,90.453283 71.0723762,89.669304 C71.8666636,89.522437 72.7187173,89.567945 73.5315724,89.652755 C80.6430234,90.395363 87.7771682,90.060259 94.8989346,90.089218 C98.1049673,90.103698 101.313063,89.698263 104.519096,89.685852 C107.708624,89.673441 110.902278,89.869953 114.091806,90.051985 C119.754972,90.374678 125.414012,90.939391 131.081304,91.051092 C135.434411,91.135903 139.795771,90.668411 144.153005,90.473968 C145.366098,90.420186 146.601886,90.337444 147.796411,90.492585 C150.402086,90.829758 152.892229,89.880295 155.47521,89.965106 C158.928813,90.076807 162.394794,90.246428 165.840145,90.070602 C170.898827,89.814102 175.945131,89.299034 180.993498,88.843954 C183.578542,88.612276 186.079,88.101345 188.773388,88.304063 C191.969105,88.541946 195.32368,88.210978 198.207871,86.15898 C199.918168,84.9447438 201.884287,84.1007769 203.703928,83.0375441 C204.995418,82.2825247 205.771138,81.13655 205.69893,79.5934144 C205.587523,77.2187233 205.405972,74.8461006 205.242988,72.473478 C205.075879,70.0119079 204.844813,67.5544749 204.73547,65.0908362 C204.522972,60.391099 204.463143,55.6830875 204.178437,50.9895559 C203.949435,47.2103218 203.363519,43.4538417 203.153084,39.6746076 C202.810612,33.5062025 202.672386,27.325386 202.393869,21.1528438 C202.191687,16.7137434 202.833306,12.2436148 201.799701,7.829337 C201.587203,6.912971 201.861593,5.8807664 201.911107,4.8857956 C201.807953,4.8113279 201.675916,4.6313644 201.55832,4.6417071 C197.155699,4.9623318 192.738636,5.1588437 188.360771,5.6925286 C185.924269,5.9903993 183.539343,6.689568 181.045075,6.5385641 C179.072766,6.4206569 177.090143,6.1517459 175.126086,6.2468991 C169.873474,6.4971932 164.627051,6.9295193 159.376502,7.2439384 C156.756386,7.4011479 154.130079,7.4466559 151.5079,7.5645631 C147.740708,7.7321153 143.977643,7.897599 140.402318,9.3393758 C139.826717,9.571053 139.114953,9.4924482 138.465082,9.5048595 C134.695827,9.5772586 130.759463,8.9670375 127.196516,9.862718 C122.387467,11.0686805 117.576355,10.0737097 112.84364,10.9424992 C104.830621,10.1461089 96.6958808,11.3893052 88.7406285,9.3952266 C86.937493,8.9422149 84.8434626,9.5110652 83.1145981,8.923598 C80.0385397,7.8769136 76.9604182,8.3423365 73.8822967,8.2016753 C73.5522033,8.1871955 73.1808481,8.1085907 72.8982056,8.2264979 C69.5560093,9.6372465 66.1189112,8.6919208 62.7148224,8.7436345 C58.1120818,8.8098279 53.5093411,8.1582359 48.8983481,8.9753117 C46.3999533,9.4179806 43.7963411,9.2338799 41.2752523,9.5855328 C37.8010187,10.0695727 34.3701098,10.865963 30.8979393,11.3851681 C29.2804813,11.627188 27.6093832,11.6292566 25.9692313,11.5692687 C21.0157664,11.3893052 16.0808692,11.3437972 11.2429369,12.6593926 C10.8468248,12.7669571 10.4342079,12.831082 10.0628528,12.9882915 C9.23968224,13.3358073 8.45571028,13.9646454 7.61809813,14.0370445 C6.7784229,14.1115122 5.89129673,13.6481578 4.8948271,13.387521 L4.8948271,13.387521 L4.8948271,13.387521 Z M34.0152593,8.6029733 C31.430215,7.6948815 29.0122804,8.3009656 26.5799042,8.7891425 C26.5964089,8.9504891 26.6108505,9.1097672 26.6273551,9.2711138 C29.0906776,9.0477108 31.554,8.8243078 34.0152593,8.6029733 L34.0152593,8.6029733 L34.0152593,8.6029733 Z M101.713301,92.16397 L96.0563248,92.16397 C97.9667407,93.504388 99.8358949,92.499075 101.713301,92.16397 L101.713301,92.16397 L101.713301,92.16397 Z M95.1238107,7.560426 C95.1279369,7.2853093 95.1341262,7.0101927 95.1382523,6.735076 C93.8488248,6.6419914 92.5593972,6.3255038 91.2472757,7.1280998 C92.5408294,7.272898 93.8323201,7.4156277 95.1238107,7.560426 L95.1238107,7.560426 L95.1238107,7.560426 Z" id="Fill-11" fill="#000000"></path>
                    <path d="M105.763136,59.944293 C104.114731,58.4466654 102.687077,57.1517554 100.972654,55.5920715 C100.378486,58.8934714 99.2210958,61.708763 96.4462477,63.5125354 C95.3961379,63.4339306 94.8164112,62.7719958 94.5482103,61.845287 C93.659021,58.7734957 92.8069673,55.6913617 91.9507874,52.6092277 C91.7981192,52.0548573 91.7176589,51.48187 91.5608645,50.9295681 C90.9563808,48.8175823 90.9501916,48.8196509 92.5263879,47.1151687 C94.5358318,47.555769 94.9278178,48.9665176 94.810222,50.7785642 C94.6204182,53.7262427 95.6065724,56.4463811 96.6195467,59.6133255 C98.9198855,56.7214978 99.4274042,53.6683234 99.3015561,50.3710606 L101.63903,50.3710606 C102.52822,52.0093493 103.134766,53.8131217 105.049308,55.1804308 C105.470178,50.3586493 104.890451,45.7664765 105.740442,41.168098 C108.824752,41.4680372 108.286287,44.2605748 110.064666,45.8761094 C108.837131,46.1284721 108.110925,46.2774074 107.370278,46.4284113 C107.256808,48.3190626 107.139213,50.2841816 107.02368,52.2472321 C107.015428,52.4065102 106.953535,52.6195704 107.029869,52.7188607 C107.90668,53.8627668 108.026339,55.256967 107.718939,56.4918891 C107.440423,57.6130413 106.565675,58.5831895 105.763136,59.944293" id="Fill-13" fill="#000000"></path>
                    <path d="M136.843498,53.7986418 C137.229294,54.8970399 137.520189,55.9933695 137.998825,56.998683 C138.481586,58.0081336 138.128799,58.8293465 137.503685,59.4664588 C137.107572,59.8677567 136.305033,60.1780387 135.787199,60.0642686 C135.283806,59.9525671 134.580294,59.278221 134.532843,58.7962497 C134.120227,54.5453871 133.823143,50.2841816 133.528121,46.0229762 C133.509554,45.7437225 133.779818,45.4437833 133.969621,45.0404167 C134.687575,45.0735135 135.380771,45.1045417 136.117292,45.1397069 C136.575297,44.2585062 136.93221,43.4290191 137.408783,42.6739997 C138.473334,40.990203 139.843222,40.607522 141.625727,41.4204607 C145.397044,43.1414912 145.974708,45.8243958 143.364907,49.6387952 C142.954353,50.2386736 142.438582,50.7640844 141.763953,51.5770231 C145.283575,52.7726429 147.61486,55.0025358 148.990937,58.2646333 C148.386453,58.8148667 147.887187,59.3402774 147.317776,59.766398 C146.453343,60.4117844 145.110276,60.0104864 145.062825,58.9472536 C144.930787,56.0099179 142.737729,55.4327934 140.623068,54.741899 C139.475993,54.3674921 138.279404,54.1502947 136.843498,53.7986418 L136.843498,53.7986418 L136.843498,53.7986418 Z M136.73828,52.2410265 C137.714119,51.5873658 138.264963,51.016447 138.929276,50.811661 C140.85207,50.2200567 141.786647,48.7307034 142.527294,47.0717292 C143.028624,45.9505771 142.67171,45.1976262 141.584465,44.6929009 C140.462147,44.1716273 139.327451,44.2957401 139.081944,45.3031221 C138.708526,46.8317778 137.561451,46.9455479 136.366925,47.1875678 C136.49071,48.8713645 136.602117,50.4000202 136.73828,52.2410265 L136.73828,52.2410265 L136.73828,52.2410265 Z" id="Fill-14" fill="#000000"></path>
                    <path d="M45.3003294,55.3169548 C46.0863645,55.7410068 46.6330818,56.036809 47.4273692,56.4670666 C44.5204836,58.6452459 46.0616075,60.7489575 47.3448458,62.8630118 C46.7032266,63.6594021 46.098743,64.4082159 45.3498435,65.3369932 C42.7070327,63.3139549 44.652521,60.2649176 43.3919766,57.9295288 C41.1535304,58.0888069 38.7995514,58.2563592 36.3671752,58.4280485 C36.2949673,59.5140353 36.2268855,60.5421028 36.1588037,61.576376 C36.9118294,61.9569885 37.6648551,62.3355325 38.6345047,62.8237094 C37.4461682,63.9117648 36.5507897,64.7288406 35.6120864,65.5852188 C33.835771,65.2004692 34.0152593,64.07518 34.0750888,62.5299759 C34.2421986,58.2667019 34.0688995,53.9868796 33.9636822,49.7153314 C33.9368621,48.6169333 33.9987547,47.7378011 35.4656075,47.551632 C36.7653505,49.9366659 36.1835607,52.6278446 36.460014,55.1494026 C38.8573178,55.3438459 41.1060794,55.525878 43.5817804,55.726527 C43.3238949,52.557514 43.0701355,49.4278035 42.8019346,46.1326092 C43.7757103,46.056073 44.3946355,46.0084964 45.3003294,45.9381658 L45.3003294,55.3169548" id="Fill-15" fill="#000000"></path>
                    <path d="M170.595554,55.9933695 C170.744096,54.2723389 170.979287,52.5513084 171.012297,50.8282093 C171.034991,49.5374364 170.884386,48.2259781 170.651257,46.9538221 C170.251019,44.7590944 171.311444,43.7765349 173.535449,43.6917245 C176.28554,43.5862287 178.303236,44.9369894 180.17239,46.525633 C182.138509,48.1928813 183.553785,50.3524437 184.187152,52.9215782 C184.771005,55.2817896 183.118474,58.0784642 180.549935,59.2720154 C177.973143,60.4697037 175.192105,60.728272 172.439951,61.0944047 C171.385715,61.2350659 170.73378,60.6082963 170.725528,59.4747329 C170.717276,58.3184155 170.723465,57.1600296 170.723465,56.0037122 C170.68014,56.0016437 170.638879,55.9975066 170.595554,55.9933695 L170.595554,55.9933695 L170.595554,55.9933695 Z M173.38897,46.5442499 C173.153778,49.4153922 172.906208,52.1789701 172.724657,54.9446165 C172.687521,55.4989869 172.858757,56.0885226 173.023804,56.6325503 C173.351834,57.7040573 174.915652,58.6597257 175.980203,58.4032259 C177.253126,58.0970811 178.54668,57.8033475 179.753584,57.313102 C182.167393,56.3326111 182.971995,54.075827 181.581477,51.8666196 C179.722638,48.9106669 177.191234,46.8297093 173.38897,46.5442499 L173.38897,46.5442499 L173.38897,46.5442499 Z" id="Fill-16" fill="#000000"></path>
                    <path d="M128.826353,20.737066 C131.665157,17.2701824 135.102255,17.6073554 136.874444,21.3990008 C137.359269,22.433274 137.691425,23.5564947 137.949311,24.6714411 C138.372243,26.5083103 137.908049,27.9314701 136.247266,29.1498439 C134.091343,30.7322818 131.776563,31.834817 129.247222,32.5608768 C126.416671,33.3717469 124.495939,32.0251233 123.971916,29.0691706 C123.604687,27.0006243 123.94097,25.1699608 125.195325,23.4903012 C125.488283,23.0993459 125.746168,22.6670197 125.942161,22.2202137 C126.740575,20.399893 126.728196,20.3957559 128.826353,20.737066 L128.826353,20.737066 L128.826353,20.737066 Z M130.0085,23.7074985 C127.012902,24.2060182 126.99846,24.220498 126.761206,27.0523379 C126.622979,28.7175177 127.367752,29.5490733 129.014093,29.4766742 C131.405208,29.3691098 133.46004,28.3679334 135.318879,26.9323622 C135.618026,26.6986165 135.863533,26.2911129 135.962561,25.9187746 C136.360736,24.4521752 135.13939,21.7444481 133.781881,20.9625376 C132.552283,20.2530262 131.475353,20.623296 130.831671,21.9781938 C130.551091,22.5697981 130.268449,23.1634709 130.0085,23.7074985 L130.0085,23.7074985 L130.0085,23.7074985 Z" id="Fill-17" fill="#000000"></path>
                    <path d="M126.637421,51.7631923 C126.301138,54.276476 125.467652,57.3917068 122.494748,59.4168136 C121.838687,59.8636196 121.027895,60.1304621 120.250112,60.3373168 C118.603771,60.7799857 117.380362,60.30422 116.95743,58.7610845 C116.555129,57.2986222 116.344694,55.6996359 116.474668,54.1958027 C116.65622,52.0858855 117.200874,50.0028593 117.638248,47.9177647 C118.238605,45.0631707 119.30522,44.3619335 122.14196,44.8832072 C125.07154,45.4230978 126.594096,47.4750957 126.637421,51.7631923 L126.637421,51.7631923 L126.637421,51.7631923 Z M120.20885,57.4206664 C123.429325,55.1535397 124.473245,52.4602924 123.681021,48.9065298 C123.390126,47.6012771 122.659794,47.1668823 121.444638,47.3944224 C119.35886,52.2637805 118.913234,55.6148255 120.20885,57.4206664 L120.20885,57.4206664 L120.20885,57.4206664 Z" id="Fill-18" fill="#000000"></path>
                    <path d="M56.082007,27.0068299 C55.7354089,24.1253449 57.0103949,22.1933226 59.3767523,20.6812153 C61.5780631,19.2725352 63.4121449,19.3118376 64.7448972,21.5541418 C66.5150234,24.53078 67.8766589,27.6046398 66.3479136,31.3300917 C65.4380935,33.5496419 63.9836192,34.8673059 61.9617967,35.6574906 C59.859514,36.4807721 57.3961916,34.7762899 56.6555444,32.1099337 C56.3955958,31.1708137 56.3068832,30.17998 56.1954766,29.2056947 C56.1129533,28.4775663 56.1170794,27.7411639 56.082007,27.0068299 L56.082007,27.0068299 L56.082007,27.0068299 Z M62.8406706,23.126237 C62.6075421,23.1655394 62.3063318,23.2420756 62.0009953,23.2668982 C59.6284486,23.4613415 58.7495748,24.3715019 58.8382874,26.7275762 C58.8795491,27.8673452 59.1064883,28.99884 59.244715,30.1365405 C59.3685,31.1501282 59.5830607,32.1575103 60.7239463,32.4553809 C61.9659229,32.7780741 62.9293832,32.2650747 63.7030397,31.2432128 C65.427778,28.9719489 65.132757,25.7201941 62.8406706,23.126237 L62.8406706,23.126237 L62.8406706,23.126237 Z" id="Fill-19" fill="#000000"></path>
                    <path d="M47.3861075,18.7409188 C48.5558762,21.4362347 49.7483388,23.6102769 50.4539136,25.9332544 C51.863,30.5771409 49.3831729,36.0422402 44.161507,37.2730253 C42.7297266,37.6101983 41.2752523,38.2907501 39.8909229,37.3371502 C39.1977266,36.859316 38.2590234,36.1042966 38.2239509,35.4320191 C38.1538061,34.1060809 38.3704299,32.6187961 38.9563458,31.4438618 C39.7114346,29.9296859 40.8585093,30.248242 42.125243,32.0458087 C41.8116542,33.0759448 41.5228224,34.0274761 41.0751332,35.5002811 C42.7462313,34.935568 43.8974322,34.6190804 44.9908668,34.1640002 C48.2299089,32.8194451 48.8199509,28.6637355 47.5202079,26.2063025 C46.9136612,25.0582593 46.0946168,24.019849 45.3684112,22.9359308 C45.3250864,22.8697373 45.2301846,22.8407776 45.1827336,22.7766527 C44.4668435,21.8230528 43.7427009,20.668804 44.5390514,19.6469421 C44.994993,19.0615435 46.2184019,19.0780919 47.3861075,18.7409188" id="Fill-20" fill="#000000"></path>
                    <path d="M76.5725584,23.6288938 C78.449965,20.7184491 79.9106285,17.7480166 82.5823224,15.5698373 C83.3229696,16.0104377 84.0017243,16.4138042 84.657785,16.8047595 C84.5855771,17.9031576 84.4060888,18.7181648 83.1537967,19.0884346 C82.5286822,19.2725352 82.0686145,20.1516674 81.6271145,20.782574 C81.3011472,21.2459284 81.1546682,21.831327 80.878215,22.3319152 C79.4340561,24.9424207 79.1204673,27.5487891 80.4841659,30.3454637 C80.952486,31.3032006 80.8823411,32.5257115 81.0783341,33.7564966 C79.8611145,33.8661295 78.9987453,33.9426657 77.9919603,34.0316132 C77.6536145,32.8008282 77.3689089,31.6176197 77.0016799,30.4592337 C76.0609136,27.4784585 74.503285,25.0148198 71.4169112,23.8336799 C70.9671589,23.659922 70.4245678,23.4054908 70.2079439,23.0248783 C69.8778505,22.4498224 69.4838014,21.6017184 69.6880467,21.1052673 C69.9418061,20.4888405 70.4947126,19.953087 71.6417874,20.3171511 C73.5893388,20.9356465 74.9798575,22.1809114 76.5725584,23.6288938" id="Fill-21" fill="#000000"></path>
                    <path d="M120.099507,20.737066 C117.968341,21.1631866 116.04761,21.4424403 114.190834,21.9533713 C112.587818,22.3919031 112.544493,22.6628826 112.866334,24.2535948 C113.268636,26.2476734 113.648243,28.2479577 114.097995,30.5564554 C113.854551,30.9784388 113.394484,31.7851719 112.884902,32.6725783 C110.807376,32.591905 110.813565,32.5898364 110.644393,30.4323426 C110.452526,27.9707725 109.792339,25.6312466 108.95679,23.2751724 C106.972103,23.8212686 105.20404,24.307377 103.312192,24.8286506 C102.986224,23.9164217 102.777853,23.3310231 102.571544,22.7601043 C102.812925,22.501536 102.944963,22.2533105 103.147145,22.164363 C104.484023,21.5706902 105.789956,20.823945 107.19079,20.4784977 C110.128621,19.7565751 113.107715,19.1835877 116.095061,18.6974794 C117.023449,18.5464755 118.042612,18.8195236 119.001946,18.99535 C119.979848,19.1773821 120.365645,19.8124258 120.099507,20.737066" id="Fill-22" fill="#000000"></path>
                    <path d="M25.8351308,51.9576356 C24.7293178,53.6083356 27.1183692,53.4035495 26.992521,54.4729879 C24.5704603,55.325229 23.9040841,56.5539455 24.4446121,59.2368501 C24.7664533,60.8337679 25.1192407,62.4224114 25.4885327,64.1475791 C25.1481238,64.3937361 24.4838107,64.6233447 24.3228902,65.0432596 C24.0526262,65.7507025 23.7658575,66.400226 23.0087056,66.0072022 C22.5424486,65.7651823 22.1628411,65.0205056 22.0720654,64.4475183 C21.8451262,62.9933302 21.7068995,61.5101825 21.7110257,60.0373775 C21.7151519,58.2356737 21.9090818,56.4339699 22.0039836,54.632266 C22.0328668,54.0799641 22.0081098,53.5235252 22.0081098,52.7498889 C20.4442921,53.159461 19.117729,53.5235252 17.7829136,53.8503555 C16.9618061,54.053073 16.0953107,54.1792544 15.7198294,53.1532554 C15.4495654,52.4127158 16.2190958,51.4984183 17.2836472,51.4094708 C19.9924766,51.1860678 22.5878364,50.569641 25.1336822,49.6181097 C26.2704416,49.1940577 27.5474907,48.8424049 28.6017266,49.8704724 C28.9607033,50.2200567 29.4640958,50.9440479 29.3361846,51.1674509 C29.051479,51.6576964 28.4449322,52.1562161 27.900278,52.2493006 C27.2339019,52.3651392 26.4973808,52.0693371 25.8351308,51.9576356" id="Fill-23" fill="#000000"></path>
                    <path d="M164.528023,56.4132844 C164.406301,58.4094316 163.316993,59.3837169 161.579876,59.4374991 C160.199673,59.47887 158.827722,59.7953576 157.449582,59.9649784 C156.717187,60.0559945 155.974477,60.1821758 155.248271,60.1304621 C154.002168,60.0373775 153.247079,59.1975477 153.174871,57.892295 C153.007762,54.9322052 152.881914,51.9679783 152.731308,49.00582 C152.669416,47.7729664 152.675605,46.5297701 152.496117,45.3134648 C152.329007,44.1840385 152.727182,43.5552005 153.785544,43.3173176 C154.901673,43.0670235 155.283343,43.8820308 155.454579,44.7011751 C155.598995,45.3941381 155.489652,46.1429519 155.487589,46.8669431 C155.471084,49.7504967 155.425696,52.6340503 155.458706,55.5176038 C155.464895,56.0616315 155.772294,56.6035906 155.951783,57.1848522 C158.889614,57.5799445 161.456091,55.1535397 164.528023,56.4132844" id="Fill-24" fill="#000000"></path>
                    <path d="M66.628493,45.8678353 C64.8067897,44.9887031 63.6432103,45.7147628 62.4363061,46.6642256 C60.7652079,47.9818896 59.0074603,49.2023319 57.2063879,50.3379638 C56.6039673,50.7185764 55.7539766,50.7103022 55.0174556,50.879923 C54.8916075,50.7206449 54.7657593,50.5634354 54.6378481,50.4041573 C54.9844463,49.7587709 55.1701238,48.8817072 55.7065257,48.5093689 C58.3122009,46.6890481 61.012778,45.0052514 63.6803458,43.2759467 C63.8185724,43.1869992 63.9856822,43.0442695 64.1156565,43.064955 C64.9573949,43.2035476 65.9043505,43.2035476 66.5769159,43.6275996 C66.8781262,43.8179059 66.628493,44.8894128 66.628493,45.8678353" id="Fill-25" fill="#000000"></path>
                    <path d="M58.1141449,63.4235879 C57.5179136,63.6138941 56.9216822,63.8042004 56.0263037,64.0896598 C55.6198762,62.1659117 55.1721869,60.3580022 54.8668505,58.5252702 C54.586271,56.8290622 54.390278,55.1121688 54.2871238,53.3973439 C54.2458621,52.7271348 54.5573879,52.0362404 54.7100561,51.3536201 C54.903986,51.3060435 55.0979159,51.2605355 55.2918458,51.2129589 C55.640507,51.7466439 56.181035,52.2389579 56.3006939,52.822288 C56.6679229,54.586758 56.7896449,56.4029417 57.1713154,58.1632746 C57.4374533,59.387854 57.9738551,60.5524456 58.5370771,62.1617746 C58.4958154,62.2776132 58.2791916,62.8816287 58.0646308,63.4856443 L58.1141449,63.4235879" id="Fill-26" fill="#000000"></path>
                    <path d="M58.0646308,63.4856443 C60.9158131,61.5701704 64.1899276,60.9103041 67.4805467,60.3021515 C68.3759252,60.1366678 68.6585678,60.6124334 68.5842967,61.5908558 C65.3865164,62.9664391 62.1474743,64.412353 58.4937523,65.2294288 C58.339021,64.4764779 58.2317407,63.9448615 58.118271,63.4194508 C58.1141449,63.4235879 58.0646308,63.4856443 58.0646308,63.4856443" id="Fill-27" fill="#000000"></path>
                    <path d="M65.9579907,54.0013594 C63.7546168,54.7212135 61.6874065,55.3790112 59.6325748,56.0802484 C59.0115864,56.2912402 58.386472,56.7049494 57.920215,55.9251075 C57.38175,55.0211527 58.0460631,54.5329758 58.7124393,54.2020084 C59.9399743,53.5897187 61.1716355,52.9298524 62.4755047,52.5430342 C64.3178388,51.9948695 64.6293645,52.2162039 65.9579907,54.0013594" id="Fill-28" fill="#000000"></path>
                    <path d="M34.0152593,8.6029733 C31.554,8.8243078 29.0906776,9.0477108 26.6273551,9.2711138 C26.6108505,9.1097672 26.5964089,8.9504891 26.5799042,8.7891425 C29.0122804,8.3009656 31.430215,7.6948815 34.0152593,8.6029733" id="Fill-58"></path>
                    <path d="M101.713301,92.16397 C99.8358949,92.499075 97.9667407,93.504388 96.0563248,92.16397 L101.713301,92.16397" id="Fill-59"></path>
                    <path d="M95.1238107,7.560426 C93.8323201,7.4156277 92.5408294,7.272898 91.2472757,7.1280998 C92.5593972,6.3255038 93.8488248,6.6419914 95.1382523,6.735076 C95.1341262,7.0101927 95.1279369,7.2853093 95.1238107,7.560426" id="Fill-60"></path>
                    <path d="M136.73828,52.2410265 C136.602117,50.4000202 136.49071,48.8713645 136.366925,47.1875678 C137.561451,46.9455479 138.708526,46.8317778 139.081944,45.3031221 C139.327451,44.2957401 140.462147,44.1716273 141.584465,44.6929009 C142.67171,45.1976262 143.028624,45.9505771 142.527294,47.0717292 C141.786647,48.7307034 140.85207,50.2200567 138.929276,50.811661 C138.264963,51.016447 137.714119,51.5873658 136.73828,52.2410265" id="Fill-62"></path>
                    <path d="M173.38897,46.5442499 C177.191234,46.8297093 179.722638,48.9106669 181.581477,51.8666196 C182.971995,54.075827 182.167393,56.3326111 179.753584,57.313102 C178.54668,57.8033475 177.253126,58.0970811 175.980203,58.4032259 C174.915652,58.6597257 173.351834,57.7040573 173.023804,56.6325503 C172.858757,56.0885226 172.687521,55.4989869 172.724657,54.9446165 C172.906208,52.1789701 173.153778,49.4153922 173.38897,46.5442499" id="Fill-63"></path>
                    <path d="M130.0085,23.7074985 C130.268449,23.1634709 130.551091,22.5697981 130.831671,21.9781938 C131.475353,20.623296 132.552283,20.2530262 133.781881,20.9625376 C135.13939,21.7444481 136.360736,24.4521752 135.962561,25.9187746 C135.863533,26.2911129 135.618026,26.6986165 135.318879,26.9323622 C133.46004,28.3679334 131.405208,29.3691098 129.014093,29.4766742 C127.367752,29.5490733 126.622979,28.7175177 126.761206,27.0523379 C126.99846,24.220498 127.012902,24.2060182 130.0085,23.7074985" id="Fill-64"></path>
                    <path d="M120.20885,57.4206664 C118.913234,55.6148255 119.35886,52.2637805 121.444638,47.3944224 C122.659794,47.1668823 123.390126,47.6012771 123.681021,48.9065298 C124.473245,52.4602924 123.429325,55.1535397 120.20885,57.4206664" id="Fill-65"></path>
                    <path d="M62.8406706,23.126237 C65.132757,25.7201941 65.427778,28.9719489 63.7030397,31.2432128 C62.9293832,32.2650747 61.9659229,32.7780741 60.7239463,32.4553809 C59.5830607,32.1575103 59.3685,31.1501282 59.244715,30.1365405 C59.1064883,28.99884 58.8795491,27.8673452 58.8382874,26.7275762 C58.7495748,24.3715019 59.6284486,23.4613415 62.0009953,23.2668982 C62.3063318,23.2420756 62.6075421,23.1655394 62.8406706,23.126237" id="Fill-66"></path>
                </g>
            </g>
        </g>
    </g>
</svg>