<svg width="212" height="99" viewBox="0 0 212 99" xmlns="http://www.w3.org/2000/svg" xmlns:sketch="http://www.bohemiancoding.com/sketch/ns"><title>joy-to-the-hover</title><desc>Created with Sketch.</desc><g sketch:type="MSShapeGroup" fill="none"><path fill="#fff" d="M8.628 11.472l195.804-6.86 2.94 83.916-195.804 6.86z"/><path stroke="#979797" fill="#fff" d="M2 72h6v15h-6z"/><path fill="#fff" d="M5 13h21v81h-21z"/><path fill="#fff" d="M35 8h52v5h-52z"/><path d="M4.895 13.388c-.182-.424-.369-.716-.431-1.032-.307-1.568.318-2.315 1.882-2.329.652-.006 1.325-.174 1.952-.062 5.387.949 10.421-.902 15.521-2.023 4.042-.889 8.106-1.142 12.203-1.483 4.531-.379 9.018-.24 13.53-.128 3.19.077 6.387.188 9.571.048 5.981-.269 11.972-.221 17.936-1.038 3.072-.42 6.241-.25 9.36-.172 5.174.132 10.353.308 15.516.652 4.902.327 9.783.952 14.683 1.342 5.605.447 11.137-.215 16.641-1.299 7.301-1.438 14.704-2.048 22.118-1.56 4.287.281 8.516.302 12.797-.014 7.019-.517 14.062-.703 21.085-1.185 4.498-.308 8.985-.838 13.457-1.413.86-.11 1.636-.898 2.61-1.467l2.183 1.746c-.324 1.227-.512 2.387.594 3.409.312.288.25 1.109.182 1.663-.685 5.509-.553 11.034-.444 16.563.07 3.537.155 7.079-.679 10.574-.279 1.173-.235 2.433-.262 3.655-.087 3.719-.276 7.443-.159 11.156.116 3.694.553 7.381.854 11.069.359 4.431.906 8.855 1.015 13.292.064 2.6 1.329 4.861 1.463 7.387.031.563.206 1.171.054 1.682-.685 2.28-.499 4.373 1.155 6.183-.722 1.671-2.216 1.816-3.542 1.907-3.926.269-7.869.329-11.799.565-2.21.134-4.407.467-6.612.693-2.288.234-4.572.519-6.866.65-4.436.25-8.877.376-13.313.614-4.912.263-9.816.767-14.73.842-5.331.081-10.666-.257-16.001-.333-3.625-.052-7.256.155-10.877.023-7.586-.279-15.114.55-22.669.894-2.932.134-5.886-.225-8.83-.335-.565-.021-1.135.062-1.7.11-.654.054-1.31.201-1.958.174-7.491-.321-14.926.794-22.391.825-2.812.012-5.304.501-7.798 1.676-.706.331-1.7.037-2.56.041-6.34.025-12.68.06-19.018.074-1.153.002-2.309-.151-3.456-.103-3.449.147-6.905.281-10.342.596-.881.081-1.704.805-2.583 1.247-1.958-1.562-4.293-.813-6.503-.738-1.485.048-3.097 1.078-4.048-.972-1.826-.451-3.656-.896-5.48-1.357-.79-.199-1.587-.397-2.358-.658-1.712-.575-2.666-1.402-2.476-3.61.124-1.465-.864-3.109-1.607-4.54-.854-1.655-1.246-3.258-1.108-5.155.138-1.928-.38-3.897-.328-5.84.06-2.29.182-4.629.71-6.843.869-3.643 1.023-7.327 1.25-11.023.039-.635.083-1.407.444-1.864 1.327-1.682 1.275-3.699 1.562-5.631.755-5.091.584-10.181-.014-15.278-.287-2.453-.52-4.931-.51-7.397.017-3.761.27-7.519.411-11.28.039-1.053.163-2.04 1.502-2.133 1.149-.081 1.993.503 2.088 1.938.163 2.445.425 4.996-.078 7.343-.765 3.566-.528 7.105-.252 10.601.198 2.501-.012 4.907-.169 7.358-.126 1.947-.037 3.91-.202 5.852-.144 1.702-.514 3.386-.776 5.08-.175 1.131-.695 2.358-.435 3.382.569 2.263.136 4.394-.111 6.605-.456 4.083-.726 8.189-1.056 12.287-.186 2.3-.524 4.611-.441 6.903.062 1.684.588 3.38 1.11 5.004.39 1.218 1.368 2.209 1.221 3.67-.037.381.576 1.055 1.027 1.22 1.917.707 3.87 1.324 5.836 1.878 5.368 1.516 10.842.803 16.189.184 2.996-.345 5.758-.066 8.675.184 4.085.348 8.236.033 12.352-.126 1.871-.074 3.732-.459 5.158-.645.602-.842.9-1.427 1.355-1.831.258-.228.78-.205 1.182-.211 4.287-.07 8.51-.666 12.717-1.45.794-.147 1.646-.101 2.459-.017 7.111.743 14.246.408 21.367.436 3.206.014 6.414-.391 9.62-.403 3.19-.012 6.383.184 9.573.366 5.663.323 11.322.887 16.989.999 4.353.085 8.714-.383 13.072-.577 1.213-.054 2.449-.137 3.643.019 2.606.337 5.096-.612 7.679-.527 3.454.112 6.92.281 10.365.105 5.059-.256 10.105-.772 15.153-1.227 2.585-.232 5.086-.743 7.78-.54 3.196.238 6.55-.093 9.434-2.145 1.71-1.214 3.676-2.058 5.496-3.121 1.291-.755 2.067-1.901 1.995-3.444-.111-2.375-.293-4.747-.456-7.12-.167-2.462-.398-4.919-.508-7.383-.212-4.7-.272-9.408-.557-14.101-.229-3.779-.815-7.536-1.025-11.315-.342-6.168-.481-12.349-.759-18.522-.202-4.439.439-8.909-.594-13.324-.212-.916.062-1.949.111-2.944-.103-.074-.235-.254-.353-.244-4.403.321-8.82.517-13.198 1.051-2.437.298-4.821.997-7.316.846-1.972-.118-3.955-.387-5.919-.292-5.253.25-10.499.683-15.75.997-2.62.157-5.246.203-7.869.321-3.767.168-7.53.333-11.106 1.775-.576.232-1.287.153-1.937.165-3.769.072-7.706-.538-11.269.358-4.809 1.206-9.62.211-14.353 1.08-8.013-.796-16.148.447-24.103-1.547-1.803-.453-3.897.116-5.626-.472-3.076-1.047-6.154-.581-9.232-.722-.33-.014-.701-.093-.984.025-3.342 1.411-6.779.465-10.183.517-4.603.066-9.205-.585-13.816.232-2.498.443-5.102.259-7.623.61-3.474.484-6.905 1.28-10.377 1.8-1.617.242-3.289.244-4.929.184-4.953-.18-9.888-.225-14.726 1.09-.396.108-.809.172-1.18.329-.823.348-1.607.976-2.445 1.049-.84.074-1.727-.389-2.723-.65zm29.12-4.785c-2.585-.908-5.003-.302-7.435.186l.047.482c2.463-.223 4.927-.447 7.388-.668zm67.698 83.561h-5.657c1.91 1.34 3.78.335 5.657 0zm-6.589-84.604l.014-.825c-1.289-.093-2.579-.41-3.891.393l3.877.432z" fill="#000"/><path d="M105.763 59.944l-4.79-4.352c-.594 3.301-1.752 6.117-4.526 7.92-1.05-.079-1.63-.741-1.898-1.667-.889-3.072-1.741-6.154-2.597-9.236l-.39-1.68c-.604-2.112-.611-2.11.966-3.814 2.009.441 2.401 1.851 2.284 3.663-.19 2.948.796 5.668 1.809 8.835 2.3-2.892 2.808-5.945 2.682-9.242h2.337c.889 1.638 1.496 3.442 3.41 4.809.421-4.822-.159-9.414.691-14.012 3.084.3 2.546 3.092 4.324 4.708l-2.694.552c-.113 1.891-.231 3.856-.347 5.819-.008.159-.07.372.006.472.877 1.144.996 2.538.689 3.773-.279 1.121-1.153 2.091-1.956 3.452" fill="#000"/><path d="M136.843 53.799c.386 1.098.677 2.195 1.155 3.2.483 1.009.13 1.831-.495 2.468-.396.401-1.199.712-1.716.598-.503-.112-1.207-.786-1.254-1.268-.413-4.251-.71-8.512-1.005-12.773-.019-.279.252-.579.441-.983l2.148.099c.458-.881.815-1.711 1.291-2.466 1.065-1.684 2.434-2.066 4.217-1.254 3.771 1.721 4.349 4.404 1.739 8.218-.411.6-.926 1.125-1.601 1.938 3.52 1.196 5.851 3.426 7.227 6.688-.604.55-1.104 1.076-1.673 1.502-.864.645-2.208.244-2.255-.819-.132-2.937-2.325-3.514-4.44-4.205-1.147-.374-2.344-.592-3.78-.943zm-.105-1.558c.976-.654 1.527-1.225 2.191-1.429 1.923-.592 2.857-2.081 3.598-3.74.501-1.121.144-1.874-.943-2.379-1.122-.521-2.257-.397-2.503.61-.373 1.529-1.52 1.642-2.715 1.884l.371 5.053z" fill="#000"/><path d="M45.3 55.317l2.127 1.15c-2.907 2.178-1.366 4.282-.083 6.396l-1.995 2.474c-2.643-2.023-.697-5.072-1.958-7.407l-7.025.499-.208 3.148 2.476 1.247c-1.188 1.088-2.084 1.905-3.022 2.762-1.776-.385-1.597-1.51-1.537-3.055.167-4.263-.006-8.543-.111-12.815-.027-1.098.035-1.978 1.502-2.164 1.3 2.385.718 5.076.994 7.598l7.122.577-.78-9.594 2.498-.194v9.379" fill="#000"/><path d="M170.596 55.993c.149-1.721.384-3.442.417-5.165.023-1.291-.128-2.602-.361-3.874-.4-2.195.66-3.177 2.884-3.262 2.75-.105 4.768 1.245 6.637 2.834 1.966 1.667 3.381 3.827 4.015 6.396.584 2.36-1.069 5.157-3.637 6.35-2.577 1.198-5.358 1.456-8.11 1.822-1.054.141-1.706-.486-1.714-1.62-.008-1.156-.002-2.315-.002-3.471l-.128-.01zm2.793-9.449c-.235 2.871-.483 5.635-.664 8.4-.037.554.134 1.144.299 1.688.328 1.072 1.892 2.027 2.956 1.771 1.273-.306 2.566-.6 3.773-1.09 2.414-.98 3.218-3.237 1.828-5.446-1.859-2.956-4.39-5.037-8.193-5.322z" fill="#000"/><path d="M128.826 20.737c2.839-3.467 6.276-3.13 8.048.662.485 1.034.817 2.157 1.075 3.272.423 1.837-.041 3.26-1.702 4.478-2.156 1.582-4.471 2.685-7 3.411-2.831.811-4.751-.536-5.275-3.492-.367-2.069-.031-3.899 1.223-5.579.293-.391.551-.823.747-1.27.798-1.82.786-1.824 2.884-1.483zm1.182 2.97c-2.996.499-3.01.513-3.247 3.345-.138 1.665.607 2.497 2.253 2.424 2.391-.108 4.446-1.109 6.305-2.544.299-.234.545-.641.644-1.014.398-1.467-.823-4.174-2.181-4.956-1.23-.71-2.307-.339-2.95 1.016l-.823 1.729z" fill="#000"/><path d="M126.637 51.763c-.336 2.513-1.17 5.629-4.143 7.654-.656.447-1.467.714-2.245.921-1.646.443-2.87-.033-3.293-1.576-.402-1.462-.613-3.061-.483-4.565.182-2.11.726-4.193 1.164-6.278.6-2.855 1.667-3.556 4.504-3.035 2.93.54 4.452 2.592 4.495 6.88zm-6.429 5.657c3.22-2.267 4.264-4.96 3.472-8.514-.291-1.305-1.021-1.74-2.236-1.512-2.086 4.869-2.531 8.22-1.236 10.026z" fill="#000"/><path d="M56.082 27.007c-.347-2.881.928-4.814 3.295-6.326 2.201-1.409 4.035-1.369 5.368.873 1.77 2.977 3.132 6.05 1.603 9.776-.91 2.22-2.364 3.537-4.386 4.327-2.102.823-4.566-.881-5.306-3.548-.26-.939-.349-1.93-.46-2.904-.083-.728-.078-1.465-.113-2.199zm6.759-3.881c-.233.039-.534.116-.84.141-2.373.194-3.251 1.105-3.163 3.461.041 1.14.268 2.271.406 3.409.124 1.014.338 2.021 1.479 2.319 1.242.323 2.205-.19 2.979-1.212 1.725-2.271 1.43-5.523-.862-8.117z" fill="#000"/><path d="M47.386 18.741c1.17 2.695 2.362 4.869 3.068 7.192 1.409 4.644-1.071 10.109-6.292 11.34-1.432.337-2.886 1.018-4.271.064-.693-.478-1.632-1.233-1.667-1.905-.07-1.326.146-2.813.732-3.988.755-1.514 1.902-1.196 3.169.602l-1.05 3.454c1.671-.565 2.822-.881 3.916-1.336 3.239-1.345 3.829-5.5 2.529-7.958-.607-1.148-1.426-2.186-2.152-3.27l-.186-.159c-.716-.954-1.44-2.108-.644-3.13.456-.585 1.679-.569 2.847-.906" fill="#000"/><path d="M76.573 23.629c1.877-2.91 3.338-5.881 6.01-8.059l2.075 1.235c-.072 1.098-.252 1.913-1.504 2.284-.625.184-1.085 1.063-1.527 1.694-.326.463-.472 1.049-.749 1.549-1.444 2.611-1.758 5.217-.394 8.014.468.958.398 2.18.594 3.411l-3.086.275c-.338-1.231-.623-2.414-.99-3.572-.941-2.981-2.498-5.444-5.585-6.626-.45-.174-.992-.428-1.209-.809-.33-.575-.724-1.423-.52-1.92.254-.616.807-1.152 1.954-.788 1.948.618 3.338 1.864 4.931 3.312" fill="#000"/><path d="M120.1 20.737c-2.131.426-4.052.705-5.909 1.216-1.603.439-1.646.71-1.325 2.3.402 1.994.782 3.994 1.232 6.303l-1.213 2.116c-2.078-.081-2.071-.083-2.241-2.24-.192-2.462-.852-4.801-1.688-7.157l-5.645 1.553-.741-2.069c.241-.259.373-.507.576-.596 1.337-.594 2.643-1.34 4.044-1.686 2.938-.722 5.917-1.295 8.904-1.781.928-.151 1.948.122 2.907.298.978.182 1.364.817 1.098 1.742" fill="#000"/><path d="M25.835 51.958c-1.106 1.651 1.283 1.446 1.157 2.515-2.422.852-3.088 2.081-2.548 4.764.322 1.597.675 3.186 1.044 4.911-.34.246-1.005.476-1.166.896-.27.707-.557 1.357-1.314.964-.466-.242-.846-.987-.937-1.56-.227-1.454-.365-2.937-.361-4.41.004-1.802.198-3.603.293-5.405.029-.552.004-1.109.004-1.882-1.564.41-2.89.774-4.225 1.1-.821.203-1.688.329-2.063-.697-.27-.741.499-1.655 1.564-1.744 2.709-.223 5.304-.84 7.85-1.791 1.137-.424 2.414-.776 3.468.252.359.35.862 1.074.734 1.297-.285.49-.891.989-1.436 1.082-.666.116-1.403-.18-2.065-.292" fill="#000"/><path d="M164.528 56.413c-.122 1.996-1.211 2.97-2.948 3.024-1.38.041-2.752.358-4.13.527-.732.091-1.475.217-2.201.165-1.246-.093-2.001-.933-2.073-2.238-.167-2.96-.293-5.924-.444-8.886-.062-1.233-.056-2.476-.235-3.692-.167-1.129.231-1.758 1.289-1.996 1.116-.25 1.498.565 1.669 1.384.144.693.035 1.442.033 2.166-.017 2.884-.062 5.767-.029 8.651.006.544.314 1.086.493 1.667 2.938.395 5.504-2.031 8.576-.772" fill="#000"/><path d="M66.628 45.868c-1.822-.879-2.985-.153-4.192.796-1.671 1.318-3.429 2.538-5.23 3.674-.602.381-1.452.372-2.189.542l-.38-.476c.347-.645.532-1.522 1.069-1.895 2.606-1.82 5.306-3.504 7.974-5.233.138-.089.305-.232.435-.211.842.139 1.789.139 2.461.563.301.19.052 1.262.052 2.24" fill="#000"/><path d="M58.114 63.424l-2.088.666c-.406-1.924-.854-3.732-1.159-5.564-.281-1.696-.477-3.413-.58-5.128-.041-.67.27-1.361.423-2.044l.582-.141c.349.534.889 1.026 1.009 1.609.367 1.764.489 3.581.871 5.341.266 1.225.803 2.389 1.366 3.998l-.472 1.324.05-.062" fill="#000"/><path d="M58.065 63.486c2.851-1.915 6.125-2.575 9.416-3.183.895-.165 1.178.31 1.104 1.289-3.198 1.376-6.437 2.821-10.091 3.639-.155-.753-.262-1.285-.375-1.81l-.054.066" fill="#000"/><path d="M65.958 54.001c-2.203.72-4.271 1.378-6.325 2.079-.621.211-1.246.625-1.712-.155-.538-.904.126-1.392.792-1.723 1.228-.612 2.459-1.272 3.763-1.659 1.842-.548 2.154-.327 3.482 1.458" fill="#000"/><path d="M34.015 8.603c-2.461.221-4.925.445-7.388.668l-.047-.482c2.432-.488 4.85-1.094 7.435-.186" fill="#fff"/><path d="M101.713 92.164c-1.877.335-3.747 1.34-5.657 0h5.657" fill="#fff"/><path d="M95.124 7.56l-3.877-.432c1.312-.803 2.602-.486 3.891-.393l-.014.825" fill="#fff"/><path d="M136.738 52.241l-.371-5.053c1.195-.242 2.342-.356 2.715-1.884.246-1.007 1.38-1.131 2.503-.61 1.087.505 1.444 1.258.943 2.379-.741 1.659-1.675 3.148-3.598 3.74-.664.205-1.215.776-2.191 1.429" fill="#fff"/><path d="M173.389 46.544c3.802.285 6.334 2.366 8.193 5.322 1.391 2.209.586 4.466-1.828 5.446-1.207.49-2.5.784-3.773 1.09-1.065.256-2.628-.699-2.956-1.771-.165-.544-.336-1.134-.299-1.688.182-2.766.429-5.529.664-8.4" fill="#fff"/><path d="M130.008 23.707l.823-1.729c.644-1.355 1.721-1.725 2.95-1.016 1.358.782 2.579 3.49 2.181 4.956-.099.372-.345.78-.644 1.014-1.859 1.436-3.914 2.437-6.305 2.544-1.646.072-2.391-.759-2.253-2.424.237-2.832.252-2.846 3.247-3.345" fill="#fff"/><path d="M120.209 57.421c-1.296-1.806-.85-5.157 1.236-10.026 1.215-.228 1.945.207 2.236 1.512.792 3.554-.252 6.247-3.472 8.514" fill="#fff"/><path d="M62.841 23.126c2.292 2.594 2.587 5.846.862 8.117-.774 1.022-1.737 1.535-2.979 1.212-1.141-.298-1.355-1.305-1.479-2.319-.138-1.138-.365-2.269-.406-3.409-.089-2.356.79-3.266 3.163-3.461.305-.025.607-.101.84-.141" fill="#fff"/></g></svg>