<?xml version="1.0" encoding="UTF-8" standalone="no"?>
<svg width="196px" height="106px" viewBox="0 0 196 106" version="1.1" xmlns="http://www.w3.org/2000/svg" xmlns:xlink="http://www.w3.org/1999/xlink" xmlns:sketch="http://www.bohemiancoding.com/sketch/ns">
    <!-- Generator: Sketch 3.1.1 (8761) - http://www.bohemiancoding.com/sketch -->
    <title>merry-xmas-you-hover</title>
    <desc>Created with Sketch.</desc>
    <defs></defs>
    <g id="Page-1" stroke="none" stroke-width="1" fill="none" fill-rule="evenodd" sketch:type="MSPage">
        <g id="Group" sketch:type="MSLayerGroup">
            <path d="M4.13826869,77.6434224 C3.83705841,74.8074454 3.52140654,71.8701096 3.21194393,68.9348424 C3.13560981,68.2087826 3.01801402,67.4806543 3.03039252,66.7545945 C3.14179907,59.9883795 3.2800257,53.2221645 3.40381075,46.458018 C3.42444159,45.3079063 3.40587383,44.1598631 3.40587383,42.8773644 C1.53053037,42.4202156 1.35310514,41.0198098 1.41293458,39.4208235 C1.46038551,38.127982 1.60892757,36.7813584 0.465978972,35.738811 C0.27411215,35.5629846 0.422654206,35.00034 0.428843458,34.6176589 C0.478357477,31.2335171 0.534060748,27.8473068 0.583574766,24.4610965 C0.58563785,24.2976813 0.573259346,24.1218549 0.517556075,23.970851 C-0.559373832,21.066612 0.117317757,18.2120181 0.616584112,15.3098476 C0.959056075,13.3219746 0.971434579,11.263771 0.990002336,9.23659558 C1.01269626,6.84328749 1.44181776,6.43578387 3.56679439,5.35393414 C6.53763551,3.84389533 9.56211682,4.38171737 12.6381752,4.47273341 C17.733993,4.62373729 22.8566308,4.88023704 27.9297547,4.53272125 C34.4903621,4.0838467 41.0200234,3.89974608 47.5971355,4.12728618 C54.2629603,4.35896336 60.9432266,4.04661287 67.6152407,4.10246362 C72.700743,4.14383455 77.7821192,4.4230883 82.8655584,4.53065271 C86.7359042,4.61132601 90.6083131,4.59477764 94.480722,4.61132601 C99.2340678,4.62994293 103.987414,4.65476549 108.740759,4.64855985 C115.724299,4.63821712 122.716091,4.99607563 129.672811,3.85837515 C132.24135,3.43846025 134.884161,3.43432316 137.496026,3.32262166 C143.315986,3.07025901 149.094685,2.19112682 154.976537,2.92339222 C157.514131,3.2398798 160.183762,2.35867907 162.801815,2.15389299 C167.887318,1.75880064 172.976946,1.44851869 178.066575,1.11961983 C181.402582,0.904491011 184.744778,0.898285372 188.060154,0.298406939 C189.817902,-0.0201491939 191.509631,0.509398664 192.801121,1.86015941 C193.118836,2.19112682 193.438614,2.68757794 193.450993,3.11783557 C193.52939,5.81521997 193.550021,8.51674146 193.52939,11.2161944 C193.519075,12.3642376 193.354028,13.5102123 193.273568,14.6582555 C193.238495,15.1526381 193.063133,15.731831 193.250874,16.1310605 C194.455715,18.6960579 193.523201,21.3189746 193.545895,23.9087946 C193.585093,28.5382013 193.384974,33.1779507 193.638734,37.7928775 C193.915187,42.8649531 194.651708,47.9101376 195.058136,52.978076 C195.221119,55.0259369 195.089082,57.1027574 194.998306,59.1630295 C194.897215,61.4673901 194.779619,63.7779564 194.505229,66.0657686 C194.280353,67.9398716 193.793465,69.7788092 193.463371,71.6405009 C192.929033,74.6729898 192.650516,77.6889304 194.340182,80.5042219 C193.840916,82.4776151 195.524393,83.9028435 195.648178,85.6859304 C195.751332,87.1587354 195.578033,88.656363 195.491383,90.1415792 C195.419175,91.3723643 195.163353,92.6052179 195.221119,93.8277288 C195.340778,96.4692624 194.758988,98.9080785 193.58922,101.020064 C190.38525,102.654216 187.152397,102.546651 183.832895,102.149491 C182.153544,101.948842 180.412301,102.310837 178.697879,102.317043 C176.898869,102.323248 175.097797,102.209478 173.298787,102.149491 C172.479743,102.120531 171.662762,102.075023 170.84578,102.072954 C169.222133,102.066749 167.596423,102.060543 165.974839,102.101914 C164.613203,102.135011 163.253631,102.250849 161.891995,102.296357 C158.622007,102.403922 155.347893,102.461841 152.077904,102.594228 C148.882187,102.724546 145.690596,102.987252 142.494879,103.078268 C136.493367,103.249957 130.485666,103.247889 124.486217,103.491977 C118.152549,103.748477 111.827133,104.197351 105.499654,104.58417 C103.368488,104.714488 101.17543,104.6545 99.1288505,105.159225 C97.032757,105.676362 95.1862967,104.981331 93.3625304,104.468331 C92.5042874,104.226311 91.7326939,104.062896 90.8620724,104.07117 C88.6421939,104.091856 86.4202523,104.038073 84.2003738,104.073239 C79.1808902,104.153912 74.1614065,104.18494 69.1501752,104.393863 C64.5680654,104.586238 59.9735771,104.404206 55.4162243,105.322641 C53.4645467,105.715664 51.3643271,105.326778 49.3342523,105.388834 C47.2072126,105.452959 45.082236,105.630854 42.9572593,105.761172 C42.7922126,105.771515 42.604472,105.885285 42.4744977,105.833572 C38.5257547,104.273888 34.4821098,105.891491 30.5065467,105.461233 C26.442271,105.020633 22.3016612,105.215076 18.3549813,103.719517 C17.0985631,103.243752 15.5821963,103.500251 14.2040561,103.297534 C12.1224042,102.993457 10.0448785,102.650079 7.99623598,102.182587 C7.24321028,102.010898 6.39734579,101.599257 5.90839486,101.02627 C3.98560047,98.7694859 2.67347897,96.2665449 3.62868692,93.1430399 C3.67613785,92.9858304 3.78548131,92.7996612 3.74421963,92.6672743 C2.68379439,89.3906969 4.19190888,86.0210349 3.3708014,82.7382519 C3.23257477,82.1838815 3.17893458,81.5984829 2.99119393,81.0627294 C2.27530374,79.0417597 2.26086215,79.0458968 4.13826869,77.6434224 L4.13826869,77.6434224 Z M82.6984486,100.403638 C82.6551238,98.5522885 82.6778178,98.5460829 84.4438178,98.459204 C86.2448902,98.3743936 88.0418364,98.2213211 89.8429089,98.148922 C90.9941098,98.1013454 92.250528,97.8593255 93.2841332,98.217184 C94.9201589,98.7818972 96.492229,98.3330226 98.0849299,98.4136959 C99.0545794,98.4633411 100.055175,98.3082001 100.989752,98.5005749 C103.349921,98.9887518 105.726593,98.974272 108.109456,99.0094373 C110.411857,99.0446026 112.716322,99.0611509 115.018724,99.1500984 C122.28078,99.4334893 129.540773,99.8078962 136.804893,100.010614 C139.315666,100.080944 141.818187,100.010614 144.357843,99.5451908 C147.235846,99.0177115 150.247949,99.2349088 153.202285,99.1232073 C154.846563,99.0611509 156.49703,99.0632195 158.130993,98.8977358 C160.563369,98.6515788 162.970988,98.1199624 165.442563,98.4881636 C166.659783,98.6681271 167.885255,98.8046512 169.110727,98.8853245 C172.308507,99.0942477 175.50835,99.3838442 178.708194,99.4086667 C181.410834,99.4272836 184.113474,99.1335501 186.814051,98.9432438 C187.459797,98.8977358 188.142678,98.8253367 188.722404,98.5688369 C189.458925,98.2420066 189.427979,97.3918341 188.710026,96.8478064 C188.427383,96.6326776 188.058091,96.5354559 187.952874,96.4878793 C188.142678,94.6799698 188.190129,93.1285601 188.483086,91.6226584 C189.427979,86.7801914 190.449206,81.9542729 189.826154,76.9670077 C189.780766,76.5863952 189.925182,76.176823 190.015958,75.7879363 C190.232582,74.8467477 190.566801,73.9221075 190.680271,72.9726448 C190.99386,70.3559337 191.37553,67.7350855 191.439486,65.1080317 C191.534388,61.1529711 191.441549,57.1896364 191.311575,53.2345758 C191.216673,50.2724175 190.575054,47.283368 190.822624,44.3625806 C191.222862,39.6442265 190.694713,34.9796545 190.603937,30.2943971 C190.550297,27.5432305 191.334269,24.6720882 189.842659,22.028486 C189.710621,21.7926717 189.877731,21.3934423 189.894236,21.0686805 C189.964381,19.6724118 190.07785,18.276143 190.086103,16.8798742 C190.112923,12.7014107 190.096418,8.5229471 190.096418,4.12108054 C187.453607,4.12108054 184.69939,3.97007666 181.96993,4.15831437 C178.534895,4.3961972 175.116364,4.88230558 171.697834,5.31463176 C169.913266,5.54010331 168.136951,5.85245381 166.366825,6.18135267 C164.609077,6.50818299 162.87815,7.05634776 161.110086,7.2321742 C158.203201,7.52177069 155.310757,7.62726655 152.346105,7.39558936 C148.298334,7.08117032 144.190734,7.55279888 140.109953,7.68104875 C135.432942,7.82791554 130.75593,8.02442744 126.076855,8.08648383 C123.782706,8.11544348 121.48443,7.78861316 119.188217,7.80516153 C114.932075,7.83412118 110.677995,8.02029035 106.421853,8.09475802 C103.640815,8.14440313 100.859778,8.15681441 98.0808037,8.10510075 C94.3032967,8.03477017 90.5257897,7.87549211 86.7482827,7.77620188 C79.5130467,7.58589562 72.2798738,7.36042407 65.0446379,7.24458548 C60.8441986,7.178392 56.6375701,7.19287182 52.441257,7.35835553 C47.2670421,7.56107307 42.1031425,8.11751203 36.9289276,8.22921353 C30.5931963,8.36780613 24.2492126,8.18370551 17.9093551,8.18370551 C15.3635093,8.18370551 12.8156005,8.2416248 10.2738808,8.38642305 C8.68324299,8.47537054 7.10498364,8.77530975 5.22138785,9.02146677 C4.47867757,13.050995 3.17480841,17.2211844 4.4745514,21.6706275 C4.90160981,23.1330898 4.81496028,24.7589672 4.88716822,26.314514 C4.97794393,28.2941128 5.03983645,30.2778487 5.02333178,32.2595161 C5.01301636,33.4013537 5.20488318,34.3818446 6.20341589,35.0644649 C7.03483879,35.6312466 6.95644159,36.4628022 6.80996262,37.2922893 C6.05693692,41.58866 6.33957944,45.8229743 7.52172664,50.0097121 C7.63313318,50.4027359 7.825,50.7936911 7.83944159,51.190852 C8.01892991,56.6373345 8.15096729,62.0858855 8.3448972,67.5302994 C8.44598832,70.4014417 8.56977336,73.2767211 8.82353271,76.1354521 C8.96382243,77.71789 9.37850234,79.122433 8.41710514,80.7483104 C7.19163318,82.8189252 7.90133411,85.2080962 8.34077103,87.4690174 C8.45630374,88.0688958 8.59659346,89.0287013 8.28919393,89.2789954 C7.07610047,90.2615549 7.25765187,91.6247269 7.0843528,92.8575805 C6.69236682,95.6149528 7.18338084,96.7050767 9.84063318,97.8655312 C12.0048084,98.8108568 14.3299042,99.4148724 16.6281799,100.000271 C17.4265935,100.205057 18.3611706,99.9299404 19.2256028,99.8161703 C21.241236,99.5513964 23.2568692,98.9908204 25.26425,99.0259857 C28.5424907,99.083905 31.8186682,99.4707231 35.0865935,99.8120333 C38.1007593,100.124384 41.0942944,100.674617 44.1125864,100.914568 C47.7167944,101.204165 51.337507,101.359306 54.9540935,101.421362 C61.0340023,101.52479 67.1180374,101.528927 73.2000093,101.530995 C76.403979,101.533064 79.6162009,101.520653 82.6984486,100.403638 L82.6984486,100.403638 Z M100.412089,99.4707231 C100.412089,99.3735014 100.412089,99.2783483 100.414152,99.1811266 L97.1132173,99.1811266 C97.1152804,99.2783483 97.1173435,99.3735014 97.1194065,99.4707231 L100.412089,99.4707231 L100.412089,99.4707231 Z M23.7066215,102.627325 C23.7004322,102.734889 23.6921799,102.842454 23.6859907,102.952087 C24.2884112,103.0038 24.8887687,103.057582 25.4911893,103.109296 C25.5015047,102.947949 25.5118201,102.788671 25.5241986,102.627325 L23.7066215,102.627325 L23.7066215,102.627325 Z" id="Fill-7" fill="#000000" sketch:type="MSShapeGroup"></path>
            <path d="M82.6984486,100.403638 C79.6162009,101.520653 76.403979,101.533064 73.2000093,101.530995 C67.1180374,101.528927 61.0340023,101.52479 54.9540935,101.421362 C51.337507,101.359306 47.7167944,101.204165 44.1125864,100.914568 C41.0942944,100.674617 38.1007593,100.124384 35.0865935,99.8120333 C31.8186682,99.4707231 28.5424907,99.083905 25.26425,99.0259857 C23.2568692,98.9908204 21.241236,99.5513964 19.2256028,99.8161703 C18.3611706,99.9299404 17.4265935,100.205057 16.6281799,100.000271 C14.3299042,99.4148724 12.0048084,98.8108568 9.84063318,97.8655312 C7.18338084,96.7050767 6.69236682,95.6149528 7.0843528,92.8575805 C7.25765187,91.6247269 7.07610047,90.2615549 8.28919393,89.2789954 C8.59659346,89.0287013 8.45630374,88.0688958 8.34077103,87.4690174 C7.90133411,85.2080962 7.19163318,82.8189252 8.41710514,80.7483104 C9.37850234,79.122433 8.96382243,77.71789 8.82353271,76.1354521 C8.56977336,73.2767211 8.44598832,70.4014417 8.3448972,67.5302994 C8.15096729,62.0858855 8.01892991,56.6373345 7.83944159,51.190852 C7.825,50.7936911 7.63313318,50.4027359 7.52172664,50.0097121 C6.33957944,45.8229743 6.05693692,41.58866 6.80996262,37.2922893 C6.95644159,36.4628022 7.03483879,35.6312466 6.20341589,35.0644649 C5.20488318,34.3818446 5.01301636,33.4013537 5.02333178,32.2595161 C5.03983645,30.2778487 4.97794393,28.2941128 4.88716822,26.314514 C4.81496028,24.7589672 4.90160981,23.1330898 4.4745514,21.6706275 C3.17480841,17.2211844 4.47867757,13.050995 5.22138785,9.02146677 C7.10498364,8.77530975 8.68324299,8.47537054 10.2738808,8.38642305 C12.8156005,8.2416248 15.3635093,8.18370551 17.9093551,8.18370551 C24.2492126,8.18370551 30.5931963,8.36780613 36.9289276,8.22921353 C42.1031425,8.11751203 47.2670421,7.56107307 52.441257,7.35835553 C56.6375701,7.19287182 60.8441986,7.178392 65.0446379,7.24458548 C72.2798738,7.36042407 79.5130467,7.58589562 86.7482827,7.77620188 C90.5257897,7.87549211 94.3032967,8.03477017 98.0808037,8.10510075 C100.859778,8.15681441 103.640815,8.14440313 106.421853,8.09475802 C110.677995,8.02029035 114.932075,7.83412118 119.188217,7.80516153 C121.48443,7.78861316 123.782706,8.11544348 126.076855,8.08648383 C130.75593,8.02442744 135.432942,7.82791554 140.109953,7.68104875 C144.190734,7.55279888 148.298334,7.08117032 152.346105,7.39558936 C155.310757,7.62726655 158.203201,7.52177069 161.110086,7.2321742 C162.87815,7.05634776 164.609077,6.50818299 166.366825,6.18135267 C168.136951,5.85245381 169.913266,5.54010331 171.697834,5.31463176 C175.116364,4.88230558 178.534895,4.3961972 181.96993,4.15831437 C184.69939,3.97007666 187.453607,4.12108054 190.096418,4.12108054 C190.096418,8.5229471 190.112923,12.7014107 190.086103,16.8798742 C190.07785,18.276143 189.964381,19.6724118 189.894236,21.0686805 C189.877731,21.3934423 189.710621,21.7926717 189.842659,22.028486 C191.334269,24.6720882 190.550297,27.5432305 190.603937,30.2943971 C190.694713,34.9796545 191.222862,39.6442265 190.822624,44.3625806 C190.575054,47.283368 191.216673,50.2724175 191.311575,53.2345758 C191.441549,57.1896364 191.534388,61.1529711 191.439486,65.1080317 C191.37553,67.7350855 190.99386,70.3559337 190.680271,72.9726448 C190.566801,73.9221075 190.232582,74.8467477 190.015958,75.7879363 C189.925182,76.176823 189.780766,76.5863952 189.826154,76.9670077 C190.449206,81.9542729 189.427979,86.7801914 188.483086,91.6226584 C188.190129,93.1285601 188.142678,94.6799698 187.952874,96.4878793 C188.058091,96.5354559 188.427383,96.6326776 188.710026,96.8478064 C189.427979,97.3918341 189.458925,98.2420066 188.722404,98.5688369 C188.142678,98.8253367 187.459797,98.8977358 186.814051,98.9432438 C184.113474,99.1335501 181.410834,99.4272836 178.708194,99.4086667 C175.50835,99.3838442 172.308507,99.0942477 169.110727,98.8853245 C167.885255,98.8046512 166.659783,98.6681271 165.442563,98.4881636 C162.970988,98.1199624 160.563369,98.6515788 158.130993,98.8977358 C156.49703,99.0632195 154.846563,99.0611509 153.202285,99.1232073 C150.247949,99.2349088 147.235846,99.0177115 144.357843,99.5451908 C141.818187,100.010614 139.315666,100.080944 136.804893,100.010614 C129.540773,99.8078962 122.28078,99.4334893 115.018724,99.1500984 C112.716322,99.0611509 110.411857,99.0446026 108.109456,99.0094373 C105.726593,98.974272 103.349921,98.9887518 100.989752,98.5005749 C100.055175,98.3082001 99.0545794,98.4633411 98.0849299,98.4136959 C96.492229,98.3330226 94.9201589,98.7818972 93.2841332,98.217184 C92.250528,97.8593255 90.9941098,98.1013454 89.8429089,98.148922 C88.0418364,98.2213211 86.2448902,98.3743936 84.4438178,98.459204 C82.6778178,98.5460829 82.6551238,98.5522885 82.6984486,100.403638 L82.6984486,100.403638 Z M143.978236,45.3120434 C145.556495,46.2263409 145.616325,46.5469655 145.469846,48.4583023 C145.247033,51.414255 145.176888,54.3805504 145.01803,57.3427088 C144.954075,58.5424656 145.517297,59.1423441 146.734516,59.3223076 C147.565939,58.3025143 148.380857,57.3054749 149.226722,56.2691332 C148.438624,55.5389364 147.768121,54.9225096 146.773715,54.0020065 C149.344318,53.7620551 151.407402,53.5696803 153.625217,53.3628257 C153.625217,54.8273565 153.602523,56.0519359 153.631407,57.2765153 C153.66029,58.5859051 154.188439,59.4650373 155.669734,59.4857228 C156.404192,58.490752 156.796178,57.5826602 156.177252,56.3001614 C155.741942,55.3941381 155.78114,54.2585062 155.607841,53.2138903 C155.973007,53.0732292 156.19582,52.909814 156.414507,52.9180882 C157.097388,52.9387737 157.852477,52.9904873 157.965946,52.1216979 C158.079416,51.2715253 157.410977,51.0088199 156.688897,50.9653805 C155.246801,50.876433 155.032241,49.8607767 154.962096,48.7210077 C154.840374,46.7476145 154.695958,44.7783584 154.598993,42.8049652 C154.555668,41.9630669 154.526785,41.164608 153.513811,40.8667373 C152.428629,41.5783173 151.978876,42.569151 152.094409,43.8206215 C152.183121,44.8011124 152.306907,45.7774663 152.422439,46.7538202 C152.568918,48.0114963 152.725713,49.2671039 152.896949,50.6778525 L147.714481,50.6778525 C147.272981,47.9039319 148.653185,44.7618101 145.616325,42.3354052 C145.040724,43.4462146 144.541458,44.4122257 144.048381,45.3803054 C142.344273,45.2086161 140.638103,44.8983341 138.933995,44.9045398 C137.557918,44.9066083 136.183904,45.3099748 134.803701,45.496144 C132.841708,45.7609179 132.783942,45.806426 132.299117,48.4272741 C133.369857,48.4272741 134.389021,48.5017418 135.39168,48.4148629 C137.910706,48.1935284 138.686425,48.8637374 138.473928,51.4101179 C138.339827,53.0339268 138.048932,54.6473929 137.755974,56.2525849 C137.510467,57.5930029 137.487773,58.8299936 138.624533,59.7980733 C141.10436,58.3914618 141.091981,58.3935303 140.714437,55.9071376 C140.642229,55.4272349 140.724752,54.9245781 140.724752,54.4322641 C140.726815,52.3988831 140.726815,50.3634335 140.726815,48.2742017 C141.471589,48.0425245 142.080199,47.8191215 142.705313,47.6681176 C144.019498,47.3516301 144.413547,46.5635139 143.978236,45.3120434 L143.978236,45.3120434 Z M19.9394299,29.3800996 C21.7198715,31.4403718 22.2150117,31.5086338 24.0057687,29.8579338 C24.5978738,29.3097691 25.0744463,28.612669 25.5159463,27.9279801 C26.5825607,26.2669374 27.5975981,24.5748665 28.8849626,22.4835662 C28.967486,24.3121612 29.0768294,25.6629219 29.0788925,27.0157512 C29.0892079,30.668804 30.366257,34.3280624 29.0376308,37.9749096 C28.9530444,38.2045182 28.7879977,38.5168687 28.8725841,38.6782153 C29.1222173,39.1519124 29.3986706,39.7704078 29.8216028,39.9400286 C30.1186869,40.0600043 30.7644322,39.6276781 31.0945257,39.286368 C32.3674486,37.9624983 32.4726659,36.2973185 32.2807991,34.5804251 C32.1879603,33.7612807 32.0456075,32.948342 31.961021,32.1291977 C31.7423341,30.0048006 31.1873645,27.8369641 31.420493,25.758075 C31.7732804,22.5952677 30.5189252,20.0695727 29.2501285,17.1074143 C26.7042827,19.8461697 25.6686145,23.1827349 23.4219159,25.7435952 C23.3332033,24.8768743 23.5683949,24.0928952 23.5683949,23.3109847 C23.5683949,21.8526596 23.6240981,20.3488264 23.2940047,18.9484206 C22.9474065,17.473547 21.4165981,17.3059948 20.504715,18.5305742 C20.2200093,18.9111867 19.9332407,19.4469402 19.9745023,19.8813349 C20.1292336,21.5341035 18.984222,22.3966873 18.1115374,23.2675453 C18.1466098,23.9646454 18.3260981,24.5790036 18.1775561,25.0982088 C17.1893388,28.571298 16.2320678,32.0609357 15.060236,35.4740371 C14.2721379,37.7597808 14.1215327,37.7080671 16.6199276,39.1250213 C17.0366706,38.5230744 17.661785,37.9542241 17.8660304,37.2612611 C18.6108037,34.7417717 19.2152874,32.1809114 19.9394299,29.3800996 L19.9394299,29.3800996 Z M147.838266,20.9487048 C145.560621,20.1150807 144.060759,20.619806 143.932848,22.7379974 C143.840009,24.2707902 142.87036,24.8789428 142.119397,26.3103769 C141.240523,22.7276547 141.84707,19.1221784 139.214575,16.4971932 C138.044806,17.1942933 137.089598,17.6204138 136.920425,19.0725333 C136.755379,20.4998303 136.165336,21.8878249 135.686701,23.2654767 C134.931612,25.4457245 134.151766,27.6176982 133.305902,29.7648493 C132.895348,30.8094651 132.311495,31.785819 131.748273,32.9090397 C132.218657,33.5089181 132.814888,34.266006 133.644248,35.3188961 C134.302371,34.5845622 135.05746,34.1087965 135.239012,33.4716843 C135.866189,31.2748881 136.198346,28.99535 136.827586,26.8006224 C137.229888,25.3857367 137.956093,24.0660041 138.601839,22.5497597 C140.256432,25.129237 138.89686,28.4658022 141.376687,30.4040301 C143.573871,29.6779703 144.14122,27.5018596 145.843264,25.6112082 C146.171294,27.8969519 146.36935,29.6572848 146.691192,31.3948638 C146.916068,32.5925521 147.192521,33.8109259 147.66703,34.9238038 C148.089963,35.9125689 149.045171,35.6126297 149.829143,35.3271703 C150.573916,35.0582593 150.743089,34.4563123 150.586294,33.7157727 C150.34904,32.5987577 150.140668,31.4734685 149.897224,30.3564535 C149.237037,27.3074162 148.564472,24.262516 147.838266,20.9487048 L147.838266,20.9487048 Z M72.7316893,31.00184 C72.8864206,30.9170296 73.0411519,30.8301506 73.1958832,30.7432717 C73.9344673,32.6049633 75.4075093,33.4965068 77.1487523,34.1625787 C79.1747009,34.9382836 80.967521,36.0780526 81.8670257,38.2334779 C82.0547664,38.6802839 82.3807336,39.0877875 82.7108271,39.4518517 C83.5030514,40.3268468 84.3055911,40.2213509 84.767722,39.1477754 C85.0854369,38.4113729 85.2628621,37.6170511 85.479486,36.9240881 C82.0423879,34.8369248 79.8720234,31.1880091 75.9253435,30.1971754 C75.6076285,27.7811133 77.2065187,26.5296428 78.5103879,25.2326643 C80.0618271,23.6895287 80.769465,22.0326231 80.0143762,19.6227667 C79.3500631,19.5545046 78.4835678,19.2090574 77.8316332,19.4490088 C76.3255818,20.0033792 74.8917383,20.7873582 73.484715,21.58168 C72.50475,22.1360504 71.6526963,22.9179609 70.6830467,23.4971539 C69.7051449,24.080484 69.3544206,24.7879268 69.560729,25.9463127 C69.9341472,28.0479558 70.1115724,30.1868327 70.4726121,32.2926129 C70.7717593,34.0363974 71.2194486,35.7574279 71.5887407,37.4288134 C73.9447827,37.3502086 74.4131028,36.7379189 73.8519439,34.9796545 C73.4331379,33.6681962 73.1030444,32.3298467 72.7316893,31.00184 L72.7316893,31.00184 Z M57.2111075,36.363512 C59.5960327,34.6735097 56.6870841,33.0372895 57.3658388,30.8260135 C59.0575678,33.7240469 63.0145631,34.0053692 63.2538808,37.7328897 C63.9223201,37.991458 64.5866332,38.2479577 65.22,38.4899776 C66.814764,36.249742 66.8065117,35.7036457 65.1312874,33.974341 C64.4442804,33.2648296 63.6726869,32.6401286 62.9815537,31.9368229 C61.90875,30.8446304 60.8710187,29.7172727 59.5527079,28.3230725 C60.093236,28.0024478 60.4707804,27.8990205 60.6502687,27.6507949 C61.5085117,26.4655179 62.6349556,25.3485029 63.0764556,24.0122219 C64.2276565,20.5287899 62.3935748,19.3207589 59.8704229,19.7365367 C57.4380467,20.1378347 55.0758154,20.8576888 53.5573855,23.0296624 C53.8524065,24.0329074 54.2856542,24.9554791 54.3723037,25.9090789 C54.6178107,28.6023262 54.7415958,31.3059163 54.869507,34.0074378 C54.9602827,35.8980891 55.2656192,36.2145767 57.2111075,36.363512 L57.2111075,36.363512 Z M117.942114,71.9611256 C115.610829,74.1000025 113.553935,75.9906538 111.325804,78.0385147 C110.58722,76.4374598 110.079701,75.1570297 109.405072,73.9717526 C109.184322,73.5828659 108.497315,73.1960478 108.086762,73.2539671 C107.65764,73.3139549 107.121238,73.8372971 106.94175,74.2820346 C105.835937,77.0207899 104.775512,79.7802307 103.791421,82.5665626 C103.389119,83.7063316 103.13536,84.9184998 102.966187,86.1203252 C102.871285,86.7967398 103.213757,87.5683076 104.051369,87.4110981 C104.56714,87.3138764 105.223201,86.8153567 105.408879,86.3375225 C105.763729,85.4356363 105.749287,84.3951575 106.025741,83.453969 C106.588963,81.5322894 106.811776,79.4637431 108.257998,77.6475594 C108.40035,78.1833129 108.470495,78.4998005 108.565397,78.8059454 C109.51029,81.8405028 110.467561,82.1259622 112.765836,80.038799 C113.822136,79.0789935 114.849551,78.0881598 116.262764,76.7601531 C116.083276,79.2961909 115.85221,81.2282131 115.835706,83.1643725 C115.817138,85.1067375 115.662407,87.1132274 116.710453,88.8880401 C118.823051,88.6274033 118.928269,88.5301816 118.75497,86.9849775 C118.416624,83.9711055 118.216505,80.9717134 118.75497,77.9454301 C118.967467,76.7477418 118.926206,75.4755858 118.806547,74.257212 C118.734339,73.5270152 118.28665,72.8340522 117.942114,71.9611256 L117.942114,71.9611256 Z M114.207932,58.7079493 C114.121283,58.4948891 114.034633,58.2818288 113.947984,58.0687685 C111.858079,57.8515712 109.772301,57.5764545 107.678271,57.4357934 C106.421853,57.3530515 105.660575,56.840052 105.448077,55.5885815 C105.161308,53.9109904 104.891044,52.2271937 104.579519,50.3386109 C105.243832,50.1069338 106.007173,49.8793937 106.739568,49.5691117 C107.558612,49.2236645 108.34671,48.8037496 109.237963,48.3714234 C109.398883,49.0643864 109.539173,49.6580592 109.6774,50.2558691 C111.957107,49.6642648 112.565717,48.1480204 111.455778,45.6657648 C109.097673,46.1953127 106.685928,46.7124492 104.284498,47.2812995 C102.134764,47.7922304 99.976778,48.2969557 97.866243,48.9423422 C97.3422196,49.1016202 96.8037547,49.7263212 96.5974463,50.2620747 C96.4076425,50.7523202 96.6531495,51.414255 96.7356729,52.2747703 C98.1530117,51.9127747 99.240257,51.6355895 100.327502,51.3584043 C101.429189,51.0791505 102.427722,51.3191019 102.695923,52.4836935 C103.052836,54.0351032 103.71715,55.6030613 103.207568,57.2599669 C102.873348,57.3220233 102.631967,57.4130394 102.39265,57.4026966 C101.25589,57.3447773 100.302745,57.7833091 100.240853,58.9354894 C100.172771,60.2179882 101.280647,60.2366051 102.303937,60.4579395 C105.608998,61.1777937 108.7944,60.4765565 111.981864,59.8373756 C112.7679,59.6801661 113.467285,59.0947675 114.207932,58.7079493 L114.207932,58.7079493 Z M121.160526,29.2249587 C122.524224,31.1466382 124.259278,32.4518909 124.886456,34.6300702 C125.07007,35.2630454 125.752951,35.8298271 126.338867,36.2331936 C126.633888,36.4379797 127.33121,36.3676491 127.667493,36.1463146 C128.981678,35.2837308 129.134346,33.0497008 127.7789,32.3484636 C125.125773,30.9749489 124.226269,28.2279193 122.243645,26.2214294 C123.968383,23.9811937 125.513633,21.8236999 124.68221,18.8801585 C123.739381,18.431284 123.033806,18.5388484 122.586117,19.6600005 C121.969255,21.1989989 121.273995,22.7069692 120.481771,24.5293585 C118.977783,22.5952677 117.583138,20.797701 116.149294,18.9525576 C114.653558,21.0769547 114.612297,21.2341642 115.843958,22.7938482 C116.953897,24.1983911 118.154612,25.5326035 119.427535,27.0281625 C118.91589,28.1389718 118.459949,29.3780311 117.801825,30.4971147 C117.104502,31.6823917 116.217376,32.7538987 115.423089,33.8585024 C116.077086,35.2651139 117.001348,35.984968 118.810673,35.3644041 C119.514185,33.5296036 120.269273,31.5500047 121.160526,29.2249587 L121.160526,29.2249587 Z M96.762493,35.4678315 C94.7613014,34.4769978 94.1361869,32.8221607 94.0536636,30.9873601 C93.9051215,27.6507949 94.8046262,24.5831407 96.836764,21.8940305 C97.3793551,21.1783135 97.9508294,20.4894876 98.5140514,19.7820447 C98.3510678,19.3207589 98.2437874,18.9256665 98.0766776,18.5574653 C97.5278972,17.3287488 97.0946495,17.1963618 96.1064322,17.9637925 C95.7887173,18.2099495 95.4771916,18.5016145 95.2605678,18.8367191 C94.0907991,20.6570398 92.9519766,22.4959775 91.7326939,24.4383425 C90.9404696,23.679186 90.2988505,23.0648277 89.6923037,22.4835662 C90.4927804,19.5648474 90.1214252,19.192509 86.5213435,19.1656179 C85.4609182,21.1328055 85.4526659,21.1390111 86.8369953,22.7090378 C88.2563972,24.3162982 89.5623294,26.004232 90.1812547,28.0934638 C91.0580654,31.070102 91.8894883,34.0591514 92.6775864,37.0585436 C92.8694533,37.7866719 93.1355911,38.3844818 93.9236893,38.2934657 C94.5199206,38.2231352 95.2275584,37.9976636 95.6257336,37.5880914 C96.1146846,37.079229 96.3313084,36.3097298 96.762493,35.4678315 L96.762493,35.4678315 Z M92.5517383,75.9741055 C94.5137313,75.7713879 96.370507,75.5562591 98.2314089,75.3969811 C99.0133178,75.3307876 99.8674346,75.2728683 99.8426776,74.30272 C99.8220467,73.4235879 99.0545794,73.1443341 98.233472,73.1505397 C97.9859019,73.1526083 97.7383318,73.140197 97.4928248,73.1484712 C95.6174813,73.2022534 93.7421379,73.2312131 91.8709206,73.3284347 C90.3421752,73.4049709 88.815493,73.5456321 87.2929369,73.696636 C86.337729,73.7897206 85.6796051,74.3999417 85.8219579,75.3225134 C85.9601846,76.2161254 86.707021,76.6153548 87.686986,76.4788308 C88.5596706,76.3588551 89.4467967,76.3381696 90.7320981,76.2430165 C89.3395164,78.9590178 91.4335467,81.6398538 89.8305304,84.2048513 C88.889764,84.1634804 87.9242407,84.1179723 87.0020421,84.0745329 C85.8157687,86.2299581 86.020014,87.005663 88.0872243,87.1152959 C90.5257897,87.2456144 92.984986,86.9725663 95.4359299,86.89603 C96.4035164,86.8670704 97.4329953,86.6891754 98.3221846,86.9539493 C99.4486285,87.2890538 100.038671,86.7781229 100.434783,85.9982809 C100.806138,85.2660155 100.036607,84.3082786 98.9803084,84.0910812 C98.5057991,83.9938596 97.9982804,84.0641901 97.5052033,84.0621216 L93.2655654,84.0621216 C93.0283107,81.3812856 92.8096238,78.8886872 92.5517383,75.9741055 L92.5517383,75.9741055 Z M64.5123621,51.4907912 C64.2111519,52.5395442 63.9058154,53.2325072 63.8253551,53.9502928 C63.6458668,55.5658275 63.7345794,57.2268702 63.4148014,58.8093081 C63.0847079,60.4475968 61.6157921,61.4694587 60.2541565,61.3887854 C58.7646098,61.2977693 57.7928972,60.2593591 57.4978762,58.4162843 C57.2276121,56.7324876 57.4772453,55.1314328 58.2591542,53.6110512 C58.5211659,53.1001203 58.8801425,52.5933264 58.9667921,52.0472302 C59.1194603,51.099836 58.5892477,50.5475341 57.6711752,50.2434578 C56.8892664,49.9848895 56.2765304,50.1586474 56.0846636,50.8950499 C55.4843061,53.1994105 54.7931729,55.5058396 54.5043411,57.8577768 C54.0875981,61.2315759 57.3679019,64.499879 60.1530654,64.4336856 C62.2924836,64.3840404 63.5654065,63.2422029 64.8507079,61.6163255 C65.2839556,62.3216998 65.6408692,62.7726429 65.8554299,63.2835738 C66.1979019,64.0985811 66.814764,64.5205645 67.6007991,64.2826817 C68.4982407,64.0096336 68.3930234,63.2194489 68.2403551,62.4292642 C67.6503131,59.3657471 67.1139112,56.2918872 66.519743,53.0277212 C66.1669556,52.7567416 65.6037336,52.326484 64.5123621,51.4907912 L64.5123621,51.4907912 Z M46.8152266,30.1847642 C46.2726355,27.0695334 45.8497033,26.8026909 43.0892967,27.5163394 C41.8370047,27.8411012 40.5640818,28.0872582 39.3241682,28.3644434 C38.3111939,25.9111475 38.534007,24.7134591 40.5228201,24.0887582 C42.1959813,23.5633474 43.6318879,22.2725745 45.6268902,22.5994048 C46.6976308,22.7731627 47.2505374,21.9229902 47.0318505,20.8328662 C46.922507,20.2909071 46.6151075,19.7903189 46.3200864,19.0890817 C42.8850514,20.0964638 39.5552336,21.0707491 35.984035,22.1174335 C35.7715374,22.40703 35.1876846,22.8910698 35.0453318,23.4826741 C34.8740958,24.1983911 34.7771308,25.2967892 35.1773692,25.7084299 C36.1160724,26.670304 36.1511449,27.7604279 36.1924065,28.8981283 C36.2584252,30.7680942 36.1985958,32.6442657 36.3306332,34.508026 C36.376021,35.1803035 36.817521,35.82569 37.1971285,36.7792898 C38.1193271,35.9560084 39.1591215,35.447146 39.4376379,34.667304 C39.7553528,33.7778291 39.3963762,32.6421972 39.3076636,31.2459284 C41.7400397,30.9025497 44.199236,30.5550339 46.8152266,30.1847642 L46.8152266,30.1847642 Z M162.374757,27.9590083 C163.775591,30.5798565 163.435182,33.5585632 164.951549,35.9373915 C167.17968,34.5928364 167.37361,33.8233371 166.422528,31.8520125 C165.799477,30.5550339 165.366229,29.1670394 164.873152,27.8907463 C165.813918,27.2557026 167.635621,25.5946599 167.757343,25.2243901 C167.223005,25.0609749 166.698981,24.796201 166.15639,24.7527615 C163.89525,24.5645238 163.825105,24.5872778 163.853988,22.498046 C163.882871,20.5163787 163.034944,18.9173924 162.098304,17.2708295 C160.746984,17.5749058 160.654145,18.6257273 160.385944,19.5441619 C160.183762,20.241262 160.099175,20.9942129 159.789713,21.6375308 C158.089731,25.1664708 156.344362,28.6747253 154.594867,32.1788428 C153.891355,33.5875229 153.891355,33.6537163 155.690364,35.0417109 C156.265965,34.1625787 157.140713,33.3661884 157.340832,32.4229313 C157.928811,29.6572848 159.925876,28.7119592 162.374757,27.9590083 L162.374757,27.9590083 Z M85.873535,50.4503124 C88.5493551,49.5794544 91.7038107,49.4822328 93.3006379,50.5144374 C93.8556075,50.073837 94.4270818,49.6187568 94.9861776,49.1740194 C93.8576706,47.0661707 93.4945678,46.5097317 92.6074416,46.522143 C90.0698481,46.5635139 87.5240023,46.6462558 85.0008505,46.9027555 C83.6557196,47.0413481 83.0079112,48.3259154 83.3029322,49.672539 C83.4782944,50.4627237 83.7485584,51.2508399 83.7918832,52.0492987 C83.9445514,54.8356306 84.0064439,57.6260996 84.1240397,60.4165686 C84.2086262,62.3651392 84.5366565,62.557514 86.7854182,61.8128374 C86.7854182,60.6399716 86.8266799,59.36161 86.7730397,58.089454 C86.7276519,57.0344954 87.2764322,56.5235644 88.2048201,56.4656451 C89.9233692,56.3622178 91.6501706,56.3270525 93.3728458,56.3415324 C94.2083949,56.347738 95.0088715,56.4553024 95.4730654,55.4375776 C92.9622921,52.3057985 89.3766519,53.8840993 86.2510794,53.3007693 C86.1190421,52.3037299 85.995257,51.3625414 85.873535,50.4503124 L85.873535,50.4503124 Z M63.6479299,85.7583296 C64.4525327,85.4956242 65.2571355,85.3011808 65.9915935,84.9578021 C66.3031192,84.8130039 66.715736,84.2482908 66.6373388,84.0497103 C66.4991121,83.6939203 66.0638014,83.3257191 65.6821308,83.2222918 C64.361757,82.8561591 63.0104369,82.6037964 61.7045047,82.3162685 C61.564215,81.8591198 61.4775654,81.5447007 61.3744112,81.2364873 C60.8256308,79.6023357 60.2809766,77.9702527 59.7239439,76.3402382 C59.2453084,74.9419009 58.1498107,75.1197958 57.0605023,75.3204448 C55.9711939,75.5210938 55.9526262,76.3629922 55.9526262,77.2173018 C55.9526262,77.873031 56.0846636,78.5784053 55.8907336,79.1741466 C55.0593107,81.7288013 54.5765491,84.4261857 52.9652804,86.6850383 C52.6991425,87.0615137 52.4474463,87.630364 52.5361589,88.0337305 C52.6599439,88.5881009 53.0003528,89.3162292 53.4521682,89.5251524 C54.1598061,89.8499142 54.8591916,89.5975515 55.0923201,88.6087864 C55.2553037,87.9178919 55.630785,87.2787111 55.9113645,86.6167763 L59.8539182,86.6167763 C60.3800047,87.566239 60.9225958,88.5405244 61.4755023,89.5334266 C63.6314252,89.1073061 63.158979,87.297328 63.6479299,85.7583296 L63.6479299,85.7583296 Z M176.758579,16.8984911 C176.073636,16.8984911 175.456773,16.7185276 175.035904,16.9295193 C173.271967,17.8189943 171.588491,18.8698158 170.474425,20.574298 C169.74822,21.6871759 169.240701,22.8517675 169.764724,24.2707902 C170.38365,25.9504498 171.844313,26.4510381 173.267841,27.0591907 C175.06685,27.8286899 176.869986,28.5961206 178.648364,29.4090593 C179.844953,29.9551555 180.001748,30.8632473 179.582942,32.0754155 C178.753582,34.4687236 174.916245,35.5092024 172.884107,33.8336799 C171.778294,32.9193824 170.827213,32.76631 170.484741,33.5006439 C170.001979,34.5431913 170.550759,35.3457872 171.444075,35.716057 C172.939811,36.3345524 174.482998,37.0378581 176.061257,37.2157531 C178.869114,37.5322407 181.132318,35.4492145 181.85646,32.2926129 C182.399051,29.9220588 181.235472,27.6942344 178.776276,26.5586025 C177.212458,25.8366798 175.601189,25.220253 174.014678,24.5459069 C172.615907,23.948097 172.537509,23.6067869 172.818089,22.092611 C173.018208,20.99835 173.783612,20.5391327 174.610909,20.2888386 C176.119023,19.8296213 176.682245,18.832582 176.758579,16.8984911 L176.758579,16.8984911 Z M133.559661,85.596983 C133.229568,84.5151332 132.965493,83.6525494 132.684914,82.7341148 C133.803105,82.3576394 134.611834,82.0866598 135.346292,81.8384343 C135.53197,80.2539278 134.578825,79.9105491 133.578229,79.7657509 C132.065988,79.546485 131.265512,78.5949537 130.799255,77.2772897 C130.444404,76.2719761 130.248411,75.2046062 129.856425,74.2158411 C129.584098,73.5290837 129.101336,72.9271367 128.443213,71.8494241 C127.801593,73.1008946 127.374535,73.8600511 127.015558,74.6481673 C125.35065,78.3053572 123.931248,82.1011397 121.327636,85.2370559 C120.712836,85.9755269 120.331166,86.7036552 121.024362,87.384207 C121.769136,88.1144038 122.590243,87.6034729 123.145213,86.9311953 C123.768264,86.1741074 124.317044,85.3487574 124.834879,84.5130647 C125.34446,83.6897832 125.775645,82.8147882 126.153189,82.1259622 C127.615916,82.4093531 128.90328,82.6596472 130.081301,82.8871873 C130.770371,84.5627098 129.346843,87.2249289 132.623021,87.2642313 C132.981998,86.627119 133.338911,85.9900068 133.559661,85.596983 L133.559661,85.596983 Z M29.8587383,67.892295 C30.1516963,66.351228 30.4694112,65.0770035 30.6220794,63.7800249 C30.8345771,61.9824582 30.9150374,60.1662745 31.0635794,58.3604336 C31.0883364,58.0480831 31.0470748,57.5826602 31.2265631,57.4502732 C32.8976612,56.238105 33.1204743,54.2750546 33.8528692,52.572641 C34.1086916,51.9727625 34.436722,51.391501 34.8080771,50.8557475 C35.8169252,49.3932853 35.8870701,48.6548142 34.9937547,48.1604317 C34.0385467,47.6329524 33.2690164,47.9783996 32.4706028,49.3912167 C32.0270397,50.1814014 31.6990093,51.0357111 31.2843294,51.8424441 C30.954236,52.4878306 30.5746285,53.1063259 30.1496332,53.8572082 C28.0040257,52.3781976 26.3968832,50.8247193 26.8796449,48.0838955 C26.1905748,47.8563554 25.656236,47.6515693 25.1053925,47.5088396 C24.2987266,47.2999164 23.401285,47.0310054 22.9742266,48.0694156 C22.5760514,49.0374953 22.7204673,49.7987204 23.6055304,50.6654413 C24.9898598,52.0203391 26.1142407,53.6606963 27.2427477,55.2555455 C28.1154322,56.4883991 28.4826612,57.8970792 28.3361822,59.4609002 C28.084486,62.1458733 27.9441963,64.8411892 27.7461402,67.6875089 C28.4228318,67.7537024 28.9592336,67.8054161 29.8587383,67.892295 L29.8587383,67.892295 Z M163.880808,58.8031025 C166.496799,58.2632119 166.587575,56.4987419 166.746432,55.0424853 C167.004318,52.7153707 167.996661,50.8288564 169.492397,49.1429912 C171.128423,47.2999164 172.846972,45.5313093 174.454114,43.6654805 C175.766236,42.1430304 175.749731,41.47489 174.501565,39.3029163 C173.633007,40.0641414 172.80571,40.7902011 171.978414,41.5141923 C172.6386,43.2021261 171.037647,43.8433755 170.297,44.7287133 C169.317035,45.897442 167.928579,46.7248605 166.690729,47.6639806 C166.261607,47.9887423 165.758215,48.2100768 165.314652,48.4624394 C161.898185,44.288113 161.675371,44.1991655 159.335834,46.2387521 C159.820659,46.9151668 160.179636,47.8273957 160.846012,48.2679961 C163.785907,50.2124296 164.809196,51.9975851 163.78178,56.192597 C163.59404,56.9600277 163.833357,57.8350228 163.880808,58.8031025 L163.880808,58.8031025 Z M45.4185187,51.12259 C44.6386729,51.4245978 43.8423224,51.6024927 43.1862617,52.0079278 C40.0751308,53.9316759 38.8929836,57.0055357 38.2162921,60.4248428 C37.4942126,64.0613472 39.6274416,65.858914 43.9764229,65.4017652 C46.3984836,65.1452655 47.5744416,63.0125942 47.9499229,60.3938146 C48.4161799,57.1337856 47.3743224,54.2171353 45.4185187,51.12259 L45.4185187,51.12259 Z M77.8543271,84.4034317 C74.9969556,82.2376637 74.1366495,79.213449 72.3912804,76.8284151 C72.0941963,76.4209115 71.5103435,75.7465654 71.326729,75.8251701 C70.8212734,76.0423675 70.3735841,76.5388186 70.0661846,77.0290641 C69.8743178,77.335209 69.9609673,77.827523 69.952715,78.2370951 C69.9362103,79.1203644 70.026986,80.016045 69.9176425,80.886903 C69.6473785,83.0050944 69.317285,85.1191488 68.9521192,87.2228604 C68.752,88.3750407 69.0160748,89.1466084 70.2456729,89.3782856 C72.3005047,86.7553689 72.2860631,86.7574374 71.9312126,83.5987672 C71.8569416,82.9389009 71.9208972,82.2645548 71.9208972,81.2716526 C74.2645607,83.7477025 75.7685491,86.4864579 78.7558949,87.6965575 C80.3795421,85.9858697 80.3506589,83.8987064 80.5879136,81.8922165 C80.6890047,81.0358383 80.6044182,80.0450046 81.014972,79.3665214 C81.5534369,78.4811836 81.5513738,77.8254544 80.8210421,77.271084 C80.2743248,76.8573748 79.4655958,76.3443753 78.9147523,76.4746937 C77.8893995,76.7187821 78.2091776,77.7840835 78.2298084,78.5825424 C78.2525023,79.5713075 78.3494673,80.5621412 78.2978902,81.5467693 C78.2545654,82.3928047 78.0441308,83.230566 77.8543271,84.4034317 L77.8543271,84.4034317 Z M120.537474,44.6749311 C118.705456,45.7360954 118.596112,45.9781153 119.13664,48.0239076 C119.984568,51.23636 119.567825,54.405373 118.346479,57.373737 C117.638841,59.0947675 117.985439,59.8580611 119.741124,60.5592983 C120.733467,60.9564592 121.946561,60.9357737 123.052374,60.8881972 C124.90915,60.811661 126.75561,60.5655039 128.826946,60.368992 C131.370729,58.0460145 131.370729,58.0460145 129.260194,56.4656451 C127.556086,57.8226115 125.435236,57.6219625 123.429918,57.7481439 C121.521565,57.866051 121.230671,57.2827209 121.410159,55.3486301 C121.653603,52.7443303 121.793893,50.1255507 121.880542,47.5088396 C121.913551,46.4621551 121.890857,45.318249 120.537474,44.6749311 L120.537474,44.6749311 Z M141.62632,74.0462203 C139.654012,72.825778 139.076348,73.0160842 138.746255,74.790897 C138.552325,75.8417185 138.42235,76.9070199 138.168591,77.9433616 C137.722965,79.7719565 137.124671,81.5674547 136.736811,83.4063924 C136.258175,85.687999 136.790451,86.3747564 139.096979,86.6871069 C139.808743,86.78226 140.543201,86.7036552 141.263217,86.7491632 C143.373752,86.8815502 145.482224,86.2403009 147.615453,86.9684292 C148.659374,87.3242191 149.773439,86.7677802 150.34904,85.7500554 C150.573916,85.354963 150.524402,84.3434439 150.305715,84.2400166 C149.387643,83.8056218 148.345785,83.3401989 147.369946,83.3815698 C145.348124,83.4684488 143.344869,83.923529 141.32511,84.1138352 C140.664923,84.1758916 139.971727,83.8842266 139.187755,83.7332227 C140.041871,80.3428753 140.819654,77.2545356 141.62632,74.0462203 L141.62632,74.0462203 Z M45.3298061,34.266006 C43.3471822,35.0148198 41.0385911,35.8174158 38.8001449,36.7917011 C38.410222,36.9613219 38.0264883,37.9583612 38.1832827,38.3637963 C38.3545187,38.8085338 39.146743,39.0236626 39.6893341,39.2987792 C39.7924883,39.3504929 39.9967336,39.222243 40.1452757,39.1581181 C42.3692804,38.2127924 44.6613668,37.6915187 47.0978692,37.904579 C47.4795397,37.9376758 47.9932477,37.8425226 48.2511332,37.6005027 C48.6245514,37.2488498 49.0516098,36.696548 49.0289159,36.2518105 C49.006222,35.8112101 48.542028,35.2154688 48.1170327,35.0106827 C47.3990794,34.6652355 46.5594042,34.5742194 45.3298061,34.266006 L45.3298061,34.266006 Z" id="Fill-48" fill="#FFFFFF" sketch:type="MSShapeGroup"></path>
            <path d="M100.412089,99.4707231 L97.1194065,99.4707231 C97.1173435,99.3735014 97.1152804,99.2783483 97.1132173,99.1811266 L100.414152,99.1811266 C100.412089,99.2783483 100.412089,99.3735014 100.412089,99.4707231" id="Fill-49" fill="#FFFFFF" sketch:type="MSShapeGroup"></path>
            <path d="M23.7066215,102.627325 L25.5241986,102.627325 C25.5118201,102.788671 25.5015047,102.947949 25.4911893,103.109296 C24.8887687,103.057582 24.2884112,103.0038 23.6859907,102.952087 C23.6921799,102.842454 23.7004322,102.734889 23.7066215,102.627325" id="Fill-50" fill="#FFFFFF" sketch:type="MSShapeGroup"></path>
            <path d="M19.9394299,29.3800996 C19.2152874,32.1809114 18.6108037,34.7417717 17.8660304,37.2612611 C17.661785,37.9542241 17.0366706,38.5230744 16.6199276,39.1250213 C14.1215327,37.7080671 14.2721379,37.7597808 15.060236,35.4740371 C16.2320678,32.0609357 17.1893388,28.571298 18.1775561,25.0982088 C18.3260981,24.5790036 18.1466098,23.9646454 18.1115374,23.2675453 C18.984222,22.3966873 20.1292336,21.5341035 19.9745023,19.8813349 C19.9332407,19.4469402 20.2200093,18.9111867 20.504715,18.5305742 C21.4165981,17.3059948 22.9474065,17.473547 23.2940047,18.9484206 C23.6240981,20.3488264 23.5683949,21.8526596 23.5683949,23.3109847 C23.5683949,24.0928952 23.3332033,24.8768743 23.4219159,25.7435952 C25.6686145,23.1827349 26.7042827,19.8461697 29.2501285,17.1074143 C30.5189252,20.0695727 31.7732804,22.5952677 31.420493,25.758075 C31.1873645,27.8369641 31.7423341,30.0048006 31.961021,32.1291977 C32.0456075,32.948342 32.1879603,33.7612807 32.2807991,34.5804251 C32.4726659,36.2973185 32.3674486,37.9624983 31.0945257,39.286368 C30.7644322,39.6276781 30.1186869,40.0600043 29.8216028,39.9400286 C29.3986706,39.7704078 29.1222173,39.1519124 28.8725841,38.6782153 C28.7879977,38.5168687 28.9530444,38.2045182 29.0376308,37.9749096 C30.366257,34.3280624 29.0892079,30.668804 29.0788925,27.0157512 C29.0768294,25.6629219 28.967486,24.3121612 28.8849626,22.4835662 C27.5975981,24.5748665 26.5825607,26.2669374 25.5159463,27.9279801 C25.0744463,28.612669 24.5978738,29.3097691 24.0057687,29.8579338 C22.2150117,31.5086338 21.7198715,31.4403718 19.9394299,29.3800996" id="Fill-159" fill="#000000" sketch:type="MSShapeGroup"></path>
            <path d="M147.838266,20.9487048 C148.564472,24.262516 149.237037,27.3074162 149.897224,30.3564535 C150.140668,31.4734685 150.34904,32.5987577 150.586294,33.7157727 C150.743089,34.4563123 150.573916,35.0582593 149.829143,35.3271703 C149.045171,35.6126297 148.089963,35.9125689 147.66703,34.9238038 C147.192521,33.8109259 146.916068,32.5925521 146.691192,31.3948638 C146.36935,29.6572848 146.171294,27.8969519 145.843264,25.6112082 C144.14122,27.5018596 143.573871,29.6779703 141.376687,30.4040301 C138.89686,28.4658022 140.256432,25.129237 138.601839,22.5497597 C137.956093,24.0660041 137.229888,25.3857367 136.827586,26.8006224 C136.198346,28.99535 135.866189,31.2748881 135.239012,33.4716843 C135.05746,34.1087965 134.302371,34.5845622 133.644248,35.3188961 C132.814888,34.266006 132.218657,33.5089181 131.748273,32.9090397 C132.311495,31.785819 132.895348,30.8094651 133.305902,29.7648493 C134.151766,27.6176982 134.931612,25.4457245 135.686701,23.2654767 C136.165336,21.8878249 136.755379,20.4998303 136.920425,19.0725333 C137.089598,17.6204138 138.044806,17.1942933 139.214575,16.4971932 C141.84707,19.1221784 141.240523,22.7276547 142.119397,26.3103769 C142.87036,24.8789428 143.840009,24.2707902 143.932848,22.7379974 C144.060759,20.619806 145.560621,20.1150807 147.838266,20.9487048" id="Fill-160" fill="#000000" sketch:type="MSShapeGroup"></path>
            <path d="M72.7316893,31.00184 C73.1030444,32.3298467 73.4331379,33.6681962 73.8519439,34.9796545 C74.4131028,36.7379189 73.9447827,37.3502086 71.5887407,37.4288134 C71.2194486,35.7574279 70.7717593,34.0363974 70.4726121,32.2926129 C70.1115724,30.1868327 69.9341472,28.0479558 69.560729,25.9463127 C69.3544206,24.7879268 69.7051449,24.080484 70.6830467,23.4971539 C71.6526963,22.9179609 72.50475,22.1360504 73.484715,21.58168 C74.8917383,20.7873582 76.3255818,20.0033792 77.8316332,19.4490088 C78.4835678,19.2090574 79.3500631,19.5545046 80.0143762,19.6227667 C80.769465,22.0326231 80.0618271,23.6895287 78.5103879,25.2326643 C77.2065187,26.5296428 75.6076285,27.7811133 75.9253435,30.1971754 C79.8720234,31.1880091 82.0423879,34.8369248 85.479486,36.9240881 C85.2628621,37.6170511 85.0854369,38.4113729 84.767722,39.1477754 C84.3055911,40.2213509 83.5030514,40.3268468 82.7108271,39.4518517 C82.3807336,39.0877875 82.0547664,38.6802839 81.8670257,38.2334779 C80.967521,36.0780526 79.1747009,34.9382836 77.1487523,34.1625787 C75.4075093,33.4965068 73.9344673,32.6049633 73.1958832,30.7432717 C73.0411519,30.8301506 72.8864206,30.9170296 72.7316893,31.00184 L72.7316893,31.00184 Z M76.7299463,23.4681943 C76.5875935,23.3502871 76.4473037,23.2344485 76.3049509,23.1186099 C74.2831285,24.2087338 73.2082617,25.9318329 72.8265911,28.5754351 C74.2851916,26.6682354 75.5065374,25.0671806 76.7299463,23.4681943 L76.7299463,23.4681943 Z" id="Fill-161" fill="#000000" sketch:type="MSShapeGroup"></path>
            <path d="M57.2111075,36.363512 C55.2656192,36.2145767 54.9602827,35.8980891 54.869507,34.0074378 C54.7415958,31.3059163 54.6178107,28.6023262 54.3723037,25.9090789 C54.2856542,24.9554791 53.8524065,24.0329074 53.5573855,23.0296624 C55.0758154,20.8576888 57.4380467,20.1378347 59.8704229,19.7365367 C62.3935748,19.3207589 64.2276565,20.5287899 63.0764556,24.0122219 C62.6349556,25.3485029 61.5085117,26.4655179 60.6502687,27.6507949 C60.4707804,27.8990205 60.093236,28.0024478 59.5527079,28.3230725 C60.8710187,29.7172727 61.90875,30.8446304 62.9815537,31.9368229 C63.6726869,32.6401286 64.4442804,33.2648296 65.1312874,33.974341 C66.8065117,35.7036457 66.814764,36.249742 65.22,38.4899776 C64.5866332,38.2479577 63.9223201,37.991458 63.2538808,37.7328897 C63.0145631,34.0053692 59.0575678,33.7240469 57.3658388,30.8260135 C56.6870841,33.0372895 59.5960327,34.6735097 57.2111075,36.363512 L57.2111075,36.363512 Z M56.8500678,26.4510381 C59.7590164,26.3434736 60.8772079,25.1726764 60.4769696,22.5104573 C58.719222,23.3358073 56.5571098,23.5488676 56.8500678,26.4510381 L56.8500678,26.4510381 Z" id="Fill-162" fill="#000000" sketch:type="MSShapeGroup"></path>
            <path d="M117.942114,71.9611256 C118.28665,72.8340522 118.734339,73.5270152 118.806547,74.257212 C118.926206,75.4755858 118.967467,76.7477418 118.75497,77.9454301 C118.216505,80.9717134 118.416624,83.9711055 118.75497,86.9849775 C118.928269,88.5301816 118.823051,88.6274033 116.710453,88.8880401 C115.662407,87.1132274 115.817138,85.1067375 115.835706,83.1643725 C115.85221,81.2282131 116.083276,79.2961909 116.262764,76.7601531 C114.849551,78.0881598 113.822136,79.0789935 112.765836,80.038799 C110.467561,82.1259622 109.51029,81.8405028 108.565397,78.8059454 C108.470495,78.4998005 108.40035,78.1833129 108.257998,77.6475594 C106.811776,79.4637431 106.588963,81.5322894 106.025741,83.453969 C105.749287,84.3951575 105.763729,85.4356363 105.408879,86.3375225 C105.223201,86.8153567 104.56714,87.3138764 104.051369,87.4110981 C103.213757,87.5683076 102.871285,86.7967398 102.966187,86.1203252 C103.13536,84.9184998 103.389119,83.7063316 103.791421,82.5665626 C104.775512,79.7802307 105.835937,77.0207899 106.94175,74.2820346 C107.121238,73.8372971 107.65764,73.3139549 108.086762,73.2539671 C108.497315,73.1960478 109.184322,73.5828659 109.405072,73.9717526 C110.079701,75.1570297 110.58722,76.4374598 111.325804,78.0385147 C113.553935,75.9906538 115.610829,74.1000025 117.942114,71.9611256" id="Fill-163" fill="#000000" sketch:type="MSShapeGroup"></path>
            <path d="M144.042192,45.3761683 C144.541458,44.4122257 145.040724,43.4462146 145.616325,42.3354052 C148.653185,44.7618101 147.272981,47.9039319 147.714481,50.6778525 L152.896949,50.6778525 C152.725713,49.2671039 152.568918,48.0114963 152.422439,46.7538202 C152.306907,45.7774663 152.183121,44.8011124 152.094409,43.8206215 C151.978876,42.569151 152.428629,41.5783173 153.513811,40.8667373 C154.526785,41.164608 154.555668,41.9630669 154.598993,42.8049652 C154.695958,44.7783584 154.840374,46.7476145 154.962096,48.7210077 C155.032241,49.8607767 155.246801,50.876433 156.688897,50.9653805 C157.410977,51.0088199 158.079416,51.2715253 157.965946,52.1216979 C157.852477,52.9904873 157.097388,52.9387737 156.414507,52.9180882 C156.19582,52.909814 155.973007,53.0732292 155.607841,53.2138903 C155.78114,54.2585062 155.741942,55.3941381 156.177252,56.3001614 C156.796178,57.5826602 156.404192,58.490752 155.669734,59.4857228 C154.188439,59.4650373 153.66029,58.5859051 153.631407,57.2765153 C153.602523,56.0519359 153.625217,54.8273565 153.625217,53.3628257 C151.407402,53.5696803 149.344318,53.7620551 146.773715,54.0020065 C147.768121,54.9225096 148.438624,55.5389364 149.226722,56.2691332 C148.380857,57.3054749 147.565939,58.3025143 146.734516,59.3223076 C145.517297,59.1423441 144.954075,58.5424656 145.01803,57.3427088 C145.176888,54.3805504 145.247033,51.414255 145.469846,48.4583023 C145.616325,46.5469655 145.556495,46.2263409 143.978236,45.3120434 L144.042192,45.3761683" id="Fill-164" fill="#000000" sketch:type="MSShapeGroup"></path>
            <path d="M114.207932,58.7079493 C113.467285,59.0947675 112.7679,59.6801661 111.981864,59.8373756 C108.7944,60.4765565 105.608998,61.1777937 102.303937,60.4579395 C101.280647,60.2366051 100.172771,60.2179882 100.240853,58.9354894 C100.302745,57.7833091 101.25589,57.3447773 102.39265,57.4026966 C102.631967,57.4130394 102.873348,57.3220233 103.207568,57.2599669 C103.71715,55.6030613 103.052836,54.0351032 102.695923,52.4836935 C102.427722,51.3191019 101.429189,51.0791505 100.327502,51.3584043 C99.240257,51.6355895 98.1530117,51.9127747 96.7356729,52.2747703 C96.6531495,51.414255 96.4076425,50.7523202 96.5974463,50.2620747 C96.8037547,49.7263212 97.3422196,49.1016202 97.866243,48.9423422 C99.976778,48.2969557 102.134764,47.7922304 104.284498,47.2812995 C106.685928,46.7124492 109.097673,46.1953127 111.455778,45.6657648 C112.565717,48.1480204 111.957107,49.6642648 109.6774,50.2558691 C109.539173,49.6580592 109.398883,49.0643864 109.237963,48.3714234 C108.34671,48.8037496 107.558612,49.2236645 106.739568,49.5691117 C106.007173,49.8793937 105.243832,50.1069338 104.579519,50.3386109 C104.891044,52.2271937 105.161308,53.9109904 105.448077,55.5885815 C105.660575,56.840052 106.421853,57.3530515 107.678271,57.4357934 C109.772301,57.5764545 111.858079,57.8515712 113.947984,58.0687685 C114.034633,58.2818288 114.121283,58.4948891 114.207932,58.7079493" id="Fill-165" fill="#000000" sketch:type="MSShapeGroup"></path>
            <path d="M121.160526,29.2249587 C120.269273,31.5500047 119.514185,33.5296036 118.810673,35.3644041 C117.001348,35.984968 116.077086,35.2651139 115.423089,33.8585024 C116.217376,32.7538987 117.104502,31.6823917 117.801825,30.4971147 C118.459949,29.3780311 118.91589,28.1389718 119.427535,27.0281625 C118.154612,25.5326035 116.953897,24.1983911 115.843958,22.7938482 C114.612297,21.2341642 114.653558,21.0769547 116.149294,18.9525576 C117.583138,20.797701 118.977783,22.5952677 120.481771,24.5293585 C121.273995,22.7069692 121.969255,21.1989989 122.586117,19.6600005 C123.033806,18.5388484 123.739381,18.431284 124.68221,18.8801585 C125.513633,21.8236999 123.968383,23.9811937 122.243645,26.2214294 C124.226269,28.2279193 125.125773,30.9749489 127.7789,32.3484636 C129.134346,33.0497008 128.981678,35.2837308 127.667493,36.1463146 C127.33121,36.3676491 126.633888,36.4379797 126.338867,36.2331936 C125.752951,35.8298271 125.07007,35.2630454 124.886456,34.6300702 C124.259278,32.4518909 122.524224,31.1466382 121.160526,29.2249587" id="Fill-166" fill="#000000" sketch:type="MSShapeGroup"></path>
            <path d="M96.762493,35.4678315 C96.3313084,36.3097298 96.1146846,37.079229 95.6257336,37.5880914 C95.2275584,37.9976636 94.5199206,38.2231352 93.9236893,38.2934657 C93.1355911,38.3844818 92.8694533,37.7866719 92.6775864,37.0585436 C91.8894883,34.0591514 91.0580654,31.070102 90.1812547,28.0934638 C89.5623294,26.004232 88.2563972,24.3162982 86.8369953,22.7090378 C85.4526659,21.1390111 85.4609182,21.1328055 86.5213435,19.1656179 C90.1214252,19.192509 90.4927804,19.5648474 89.6923037,22.4835662 C90.2988505,23.0648277 90.9404696,23.679186 91.7326939,24.4383425 C92.9519766,22.4959775 94.0907991,20.6570398 95.2605678,18.8367191 C95.4771916,18.5016145 95.7887173,18.2099495 96.1064322,17.9637925 C97.0946495,17.1963618 97.5278972,17.3287488 98.0766776,18.5574653 C98.2437874,18.9256665 98.3510678,19.3207589 98.5140514,19.7820447 C97.9508294,20.4894876 97.3793551,21.1783135 96.836764,21.8940305 C94.8046262,24.5831407 93.9051215,27.6507949 94.0536636,30.9873601 C94.1361869,32.8221607 94.7613014,34.4769978 96.762493,35.4678315" id="Fill-167" fill="#000000" sketch:type="MSShapeGroup"></path>
            <path d="M92.5517383,75.9741055 C92.8096238,78.8886872 93.0283107,81.3812856 93.2655654,84.0621216 L97.5052033,84.0621216 C97.9982804,84.0641901 98.5057991,83.9938596 98.9803084,84.0910812 C100.036607,84.3082786 100.806138,85.2660155 100.434783,85.9982809 C100.038671,86.7781229 99.4486285,87.2890538 98.3221846,86.9539493 C97.4329953,86.6891754 96.4035164,86.8670704 95.4359299,86.89603 C92.984986,86.9725663 90.5257897,87.2456144 88.0872243,87.1152959 C86.020014,87.005663 85.8157687,86.2299581 87.0020421,84.0745329 C87.9242407,84.1179723 88.889764,84.1634804 89.8305304,84.2048513 C91.4335467,81.6398538 89.3395164,78.9590178 90.7320981,76.2430165 C89.4467967,76.3381696 88.5596706,76.3588551 87.686986,76.4788308 C86.707021,76.6153548 85.9601846,76.2161254 85.8219579,75.3225134 C85.6796051,74.3999417 86.337729,73.7897206 87.2929369,73.696636 C88.815493,73.5456321 90.3421752,73.4049709 91.8709206,73.3284347 C93.7421379,73.2312131 95.6174813,73.2022534 97.4928248,73.1484712 C97.7383318,73.140197 97.9859019,73.1526083 98.233472,73.1505397 C99.0545794,73.1443341 99.8220467,73.4235879 99.8426776,74.30272 C99.8674346,75.2728683 99.0133178,75.3307876 98.2314089,75.3969811 C96.370507,75.5562591 94.5137313,75.7713879 92.5517383,75.9741055" id="Fill-168" fill="#000000" sketch:type="MSShapeGroup"></path>
            <path d="M64.5123621,51.4907912 C65.6037336,52.326484 66.1669556,52.7567416 66.519743,53.0277212 C67.1139112,56.2918872 67.6503131,59.3657471 68.2403551,62.4292642 C68.3930234,63.2194489 68.4982407,64.0096336 67.6007991,64.2826817 C66.814764,64.5205645 66.1979019,64.0985811 65.8554299,63.2835738 C65.6408692,62.7726429 65.2839556,62.3216998 64.8507079,61.6163255 C63.5654065,63.2422029 62.2924836,64.3840404 60.1530654,64.4336856 C57.3679019,64.499879 54.0875981,61.2315759 54.5043411,57.8577768 C54.7931729,55.5058396 55.4843061,53.1994105 56.0846636,50.8950499 C56.2765304,50.1586474 56.8892664,49.9848895 57.6711752,50.2434578 C58.5892477,50.5475341 59.1194603,51.099836 58.9667921,52.0472302 C58.8801425,52.5933264 58.5211659,53.1001203 58.2591542,53.6110512 C57.4772453,55.1314328 57.2276121,56.7324876 57.4978762,58.4162843 C57.7928972,60.2593591 58.7646098,61.2977693 60.2541565,61.3887854 C61.6157921,61.4694587 63.0847079,60.4475968 63.4148014,58.8093081 C63.7345794,57.2268702 63.6458668,55.5658275 63.8253551,53.9502928 C63.9058154,53.2325072 64.2111519,52.5395442 64.5123621,51.4907912" id="Fill-169" fill="#000000" sketch:type="MSShapeGroup"></path>
            <path d="M46.8152266,30.1847642 C44.199236,30.5550339 41.7400397,30.9025497 39.3076636,31.2459284 C39.3963762,32.6421972 39.7553528,33.7778291 39.4376379,34.667304 C39.1591215,35.447146 38.1193271,35.9560084 37.1971285,36.7792898 C36.817521,35.82569 36.376021,35.1803035 36.3306332,34.508026 C36.1985958,32.6442657 36.2584252,30.7680942 36.1924065,28.8981283 C36.1511449,27.7604279 36.1160724,26.670304 35.1773692,25.7084299 C34.7771308,25.2967892 34.8740958,24.1983911 35.0453318,23.4826741 C35.1876846,22.8910698 35.7715374,22.40703 35.984035,22.1174335 C39.5552336,21.0707491 42.8850514,20.0964638 46.3200864,19.0890817 C46.6151075,19.7903189 46.922507,20.2909071 47.0318505,20.8328662 C47.2505374,21.9229902 46.6976308,22.7731627 45.6268902,22.5994048 C43.6318879,22.2725745 42.1959813,23.5633474 40.5228201,24.0887582 C38.534007,24.7134591 38.3111939,25.9111475 39.3241682,28.3644434 C40.5640818,28.0872582 41.8370047,27.8411012 43.0892967,27.5163394 C45.8497033,26.8026909 46.2726355,27.0695334 46.8152266,30.1847642" id="Fill-170" fill="#000000" sketch:type="MSShapeGroup"></path>
            <path d="M162.374757,27.9590083 C159.925876,28.7119592 157.928811,29.6572848 157.340832,32.4229313 C157.140713,33.3661884 156.265965,34.1625787 155.690364,35.0417109 C153.891355,33.6537163 153.891355,33.5875229 154.594867,32.1788428 C156.344362,28.6747253 158.089731,25.1664708 159.789713,21.6375308 C160.099175,20.9942129 160.183762,20.241262 160.385944,19.5441619 C160.654145,18.6257273 160.746984,17.5749058 162.098304,17.2708295 C163.034944,18.9173924 163.882871,20.5163787 163.853988,22.498046 C163.825105,24.5872778 163.89525,24.5645238 166.15639,24.7527615 C166.698981,24.796201 167.223005,25.0609749 167.757343,25.2243901 C167.635621,25.5946599 165.813918,27.2557026 164.873152,27.8907463 C165.366229,29.1670394 165.799477,30.5550339 166.422528,31.8520125 C167.37361,33.8233371 167.17968,34.5928364 164.951549,35.9373915 C163.435182,33.5585632 163.775591,30.5798565 162.374757,27.9590083 L162.374757,27.9590083 Z M161.471126,23.7557222 C161.339089,23.7433109 161.204988,23.7329682 161.072951,23.7205569 C160.969797,23.9336172 160.837759,24.1384033 160.771741,24.3618063 C160.602568,24.9265194 161.190547,25.4043536 161.438117,24.9596162 C161.611416,24.6493342 161.471126,24.1632258 161.471126,23.7557222 L161.471126,23.7557222 Z" id="Fill-171" fill="#000000" sketch:type="MSShapeGroup"></path>
            <path d="M85.873535,50.4503124 C85.995257,51.3625414 86.1190421,52.3037299 86.2510794,53.3007693 C89.3766519,53.8840993 92.9622921,52.3057985 95.4730654,55.4375776 C95.0088715,56.4553024 94.2083949,56.347738 93.3728458,56.3415324 C91.6501706,56.3270525 89.9233692,56.3622178 88.2048201,56.4656451 C87.2764322,56.5235644 86.7276519,57.0344954 86.7730397,58.089454 C86.8266799,59.36161 86.7854182,60.6399716 86.7854182,61.8128374 C84.5366565,62.557514 84.2086262,62.3651392 84.1240397,60.4165686 C84.0064439,57.6260996 83.9445514,54.8356306 83.7918832,52.0492987 C83.7485584,51.2508399 83.4782944,50.4627237 83.3029322,49.672539 C83.0079112,48.3259154 83.6557196,47.0413481 85.0008505,46.9027555 C87.5240023,46.6462558 90.0698481,46.5635139 92.6074416,46.522143 C93.4945678,46.5097317 93.8576706,47.0661707 94.9861776,49.1740194 C94.4270818,49.6187568 93.8556075,50.073837 93.3006379,50.5144374 C91.7038107,49.4822328 88.5493551,49.5794544 85.873535,50.4503124" id="Fill-172" fill="#000000" sketch:type="MSShapeGroup"></path>
            <path d="M63.6479299,85.7583296 C63.158979,87.297328 63.6314252,89.1073061 61.4755023,89.5334266 C60.9225958,88.5405244 60.3800047,87.566239 59.8539182,86.6167763 L55.9113645,86.6167763 C55.630785,87.2787111 55.2553037,87.9178919 55.0923201,88.6087864 C54.8591916,89.5975515 54.1598061,89.8499142 53.4521682,89.5251524 C53.0003528,89.3162292 52.6599439,88.5881009 52.5361589,88.0337305 C52.4474463,87.630364 52.6991425,87.0615137 52.9652804,86.6850383 C54.5765491,84.4261857 55.0593107,81.7288013 55.8907336,79.1741466 C56.0846636,78.5784053 55.9526262,77.873031 55.9526262,77.2173018 C55.9526262,76.3629922 55.9711939,75.5210938 57.0605023,75.3204448 C58.1498107,75.1197958 59.2453084,74.9419009 59.7239439,76.3402382 C60.2809766,77.9702527 60.8256308,79.6023357 61.3744112,81.2364873 C61.4775654,81.5447007 61.564215,81.8591198 61.7045047,82.3162685 C63.0104369,82.6037964 64.361757,82.8561591 65.6821308,83.2222918 C66.0638014,83.3257191 66.4991121,83.6939203 66.6373388,84.0497103 C66.715736,84.2482908 66.3031192,84.8130039 65.9915935,84.9578021 C65.2571355,85.3011808 64.4525327,85.4956242 63.6479299,85.7583296 L63.6479299,85.7583296 Z M59.0864509,83.2388401 C58.8904579,81.7991319 58.694465,80.7689958 57.8094019,79.5878559 C57.5308855,80.9634392 57.3348925,81.9377245 57.1100164,83.0547395 C57.7970234,83.1188645 58.3127944,83.166441 59.0864509,83.2388401 L59.0864509,83.2388401 Z" id="Fill-173" fill="#000000" sketch:type="MSShapeGroup"></path>
            <path d="M176.758579,16.8984911 C176.682245,18.832582 176.119023,19.8296213 174.610909,20.2888386 C173.783612,20.5391327 173.018208,20.99835 172.818089,22.092611 C172.537509,23.6067869 172.615907,23.948097 174.014678,24.5459069 C175.601189,25.220253 177.212458,25.8366798 178.776276,26.5586025 C181.235472,27.6942344 182.399051,29.9220588 181.85646,32.2926129 C181.132318,35.4492145 178.869114,37.5322407 176.061257,37.2157531 C174.482998,37.0378581 172.939811,36.3345524 171.444075,35.716057 C170.550759,35.3457872 170.001979,34.5431913 170.484741,33.5006439 C170.827213,32.76631 171.778294,32.9193824 172.884107,33.8336799 C174.916245,35.5092024 178.753582,34.4687236 179.582942,32.0754155 C180.001748,30.8632473 179.844953,29.9551555 178.648364,29.4090593 C176.869986,28.5961206 175.06685,27.8286899 173.267841,27.0591907 C171.844313,26.4510381 170.38365,25.9504498 169.764724,24.2707902 C169.240701,22.8517675 169.74822,21.6871759 170.474425,20.574298 C171.588491,18.8698158 173.271967,17.8189943 175.035904,16.9295193 C175.456773,16.7185276 176.073636,16.8984911 176.758579,16.8984911" id="Fill-174" fill="#000000" sketch:type="MSShapeGroup"></path>
            <path d="M133.559661,85.596983 C133.338911,85.9900068 132.981998,86.627119 132.623021,87.2642313 C129.346843,87.2249289 130.770371,84.5627098 130.081301,82.8871873 C128.90328,82.6596472 127.615916,82.4093531 126.153189,82.1259622 C125.775645,82.8147882 125.34446,83.6897832 124.834879,84.5130647 C124.317044,85.3487574 123.768264,86.1741074 123.145213,86.9311953 C122.590243,87.6034729 121.769136,88.1144038 121.024362,87.384207 C120.331166,86.7036552 120.712836,85.9755269 121.327636,85.2370559 C123.931248,82.1011397 125.35065,78.3053572 127.015558,74.6481673 C127.374535,73.8600511 127.801593,73.1008946 128.443213,71.8494241 C129.101336,72.9271367 129.584098,73.5290837 129.856425,74.2158411 C130.248411,75.2046062 130.444404,76.2719761 130.799255,77.2772897 C131.265512,78.5949537 132.065988,79.546485 133.578229,79.7657509 C134.578825,79.9105491 135.53197,80.2539278 135.346292,81.8384343 C134.611834,82.0866598 133.803105,82.3576394 132.684914,82.7341148 C132.965493,83.6525494 133.229568,84.5151332 133.559661,85.596983" id="Fill-175" fill="#000000" sketch:type="MSShapeGroup"></path>
            <path d="M29.8587383,67.892295 C28.9592336,67.8054161 28.4228318,67.7537024 27.7461402,67.6875089 C27.9441963,64.8411892 28.084486,62.1458733 28.3361822,59.4609002 C28.4826612,57.8970792 28.1154322,56.4883991 27.2427477,55.2555455 C26.1142407,53.6606963 24.9898598,52.0203391 23.6055304,50.6654413 C22.7204673,49.7987204 22.5760514,49.0374953 22.9742266,48.0694156 C23.401285,47.0310054 24.2987266,47.2999164 25.1053925,47.5088396 C25.656236,47.6515693 26.1905748,47.8563554 26.8796449,48.0838955 C26.3968832,50.8247193 28.0040257,52.3781976 30.1496332,53.8572082 C30.5746285,53.1063259 30.954236,52.4878306 31.2843294,51.8424441 C31.6990093,51.0357111 32.0270397,50.1814014 32.4706028,49.3912167 C33.2690164,47.9783996 34.0385467,47.6329524 34.9937547,48.1604317 C35.8870701,48.6548142 35.8169252,49.3932853 34.8080771,50.8557475 C34.436722,51.391501 34.1086916,51.9727625 33.8528692,52.572641 C33.1204743,54.2750546 32.8976612,56.238105 31.2265631,57.4502732 C31.0470748,57.5826602 31.0883364,58.0480831 31.0635794,58.3604336 C30.9150374,60.1662745 30.8345771,61.9824582 30.6220794,63.7800249 C30.4694112,65.0770035 30.1516963,66.351228 29.8587383,67.892295" id="Fill-176" fill="#000000" sketch:type="MSShapeGroup"></path>
            <path d="M163.880808,58.8031025 C163.833357,57.8350228 163.59404,56.9600277 163.78178,56.192597 C164.809196,51.9975851 163.785907,50.2124296 160.846012,48.2679961 C160.179636,47.8273957 159.820659,46.9151668 159.335834,46.2387521 C161.675371,44.1991655 161.898185,44.288113 165.314652,48.4624394 C165.758215,48.2100768 166.261607,47.9887423 166.690729,47.6639806 C167.928579,46.7248605 169.317035,45.897442 170.297,44.7287133 C171.037647,43.8433755 172.6386,43.2021261 171.978414,41.5141923 C172.80571,40.7902011 173.633007,40.0641414 174.501565,39.3029163 C175.749731,41.47489 175.766236,42.1430304 174.454114,43.6654805 C172.846972,45.5313093 171.128423,47.2999164 169.492397,49.1429912 C167.996661,50.8288564 167.004318,52.7153707 166.746432,55.0424853 C166.587575,56.4987419 166.496799,58.2632119 163.880808,58.8031025" id="Fill-177" fill="#000000" sketch:type="MSShapeGroup"></path>
            <path d="M45.4185187,51.12259 C47.3743224,54.2171353 48.4161799,57.1337856 47.9499229,60.3938146 C47.5744416,63.0125942 46.3984836,65.1452655 43.9764229,65.4017652 C39.6274416,65.858914 37.4942126,64.0613472 38.2162921,60.4248428 C38.8929836,57.0055357 40.0751308,53.9316759 43.1862617,52.0079278 C43.8423224,51.6024927 44.6386729,51.4245978 45.4185187,51.12259 L45.4185187,51.12259 Z M44.8057827,54.738409 C42.5178224,55.9340287 41.1747547,57.5474949 41.15825,60.1414519 C41.1458715,61.9410872 41.9690421,62.7167921 43.6752126,62.2906716 C44.8057827,62.0072807 45.449465,61.2543299 45.7548014,60.1249036 C46.2767617,58.199087 45.8352617,56.4883991 44.8057827,54.738409 L44.8057827,54.738409 Z" id="Fill-178" fill="#000000" sketch:type="MSShapeGroup"></path>
            <path d="M77.8543271,84.4034317 C78.0441308,83.230566 78.2545654,82.3928047 78.2978902,81.5467693 C78.3494673,80.5621412 78.2525023,79.5713075 78.2298084,78.5825424 C78.2091776,77.7840835 77.8893995,76.7187821 78.9147523,76.4746937 C79.4655958,76.3443753 80.2743248,76.8573748 80.8210421,77.271084 C81.5513738,77.8254544 81.5534369,78.4811836 81.014972,79.3665214 C80.6044182,80.0450046 80.6890047,81.0358383 80.5879136,81.8922165 C80.3506589,83.8987064 80.3795421,85.9858697 78.7558949,87.6965575 C75.7685491,86.4864579 74.2645607,83.7477025 71.9208972,81.2716526 C71.9208972,82.2645548 71.8569416,82.9389009 71.9312126,83.5987672 C72.2860631,86.7574374 72.3005047,86.7553689 70.2456729,89.3782856 C69.0160748,89.1466084 68.752,88.3750407 68.9521192,87.2228604 C69.317285,85.1191488 69.6473785,83.0050944 69.9176425,80.886903 C70.026986,80.016045 69.9362103,79.1203644 69.952715,78.2370951 C69.9609673,77.827523 69.8743178,77.335209 70.0661846,77.0290641 C70.3735841,76.5388186 70.8212734,76.0423675 71.326729,75.8251701 C71.5103435,75.7465654 72.0941963,76.4209115 72.3912804,76.8284151 C74.1366495,79.213449 74.9969556,82.2376637 77.8543271,84.4034317" id="Fill-179" fill="#000000" sketch:type="MSShapeGroup"></path>
            <path d="M120.537474,44.6749311 C121.890857,45.318249 121.913551,46.4621551 121.880542,47.5088396 C121.793893,50.1255507 121.653603,52.7443303 121.410159,55.3486301 C121.230671,57.2827209 121.521565,57.866051 123.429918,57.7481439 C125.435236,57.6219625 127.556086,57.8226115 129.260194,56.4656451 C131.370729,58.0460145 131.370729,58.0460145 128.826946,60.368992 C126.75561,60.5655039 124.90915,60.811661 123.052374,60.8881972 C121.946561,60.9357737 120.733467,60.9564592 119.741124,60.5592983 C117.985439,59.8580611 117.638841,59.0947675 118.346479,57.373737 C119.567825,54.405373 119.984568,51.23636 119.13664,48.0239076 C118.596112,45.9781153 118.705456,45.7360954 120.537474,44.6749311" id="Fill-180" fill="#000000" sketch:type="MSShapeGroup"></path>
            <path d="M141.62632,74.0462203 C140.819654,77.2545356 140.041871,80.3428753 139.187755,83.7332227 C139.971727,83.8842266 140.664923,84.1758916 141.32511,84.1138352 C143.344869,83.923529 145.348124,83.4684488 147.369946,83.3815698 C148.345785,83.3401989 149.387643,83.8056218 150.305715,84.2400166 C150.524402,84.3434439 150.573916,85.354963 150.34904,85.7500554 C149.773439,86.7677802 148.659374,87.3242191 147.615453,86.9684292 C145.482224,86.2403009 143.373752,86.8815502 141.263217,86.7491632 C140.543201,86.7036552 139.808743,86.78226 139.096979,86.6871069 C136.790451,86.3747564 136.258175,85.687999 136.736811,83.4063924 C137.124671,81.5674547 137.722965,79.7719565 138.168591,77.9433616 C138.42235,76.9070199 138.552325,75.8417185 138.746255,74.790897 C139.076348,73.0160842 139.654012,72.825778 141.62632,74.0462203" id="Fill-181" fill="#000000" sketch:type="MSShapeGroup"></path>
            <path d="M143.978236,45.3120434 C144.413547,46.5635139 144.019498,47.3516301 142.705313,47.6681176 C142.080199,47.8191215 141.471589,48.0425245 140.726815,48.2742017 C140.726815,50.3634335 140.726815,52.3988831 140.724752,54.4322641 C140.724752,54.9245781 140.642229,55.4272349 140.714437,55.9071376 C141.091981,58.3935303 141.10436,58.3914618 138.624533,59.7980733 C137.487773,58.8299936 137.510467,57.5930029 137.755974,56.2525849 C138.048932,54.6473929 138.339827,53.0339268 138.473928,51.4101179 C138.686425,48.8637374 137.910706,48.1935284 135.39168,48.4148629 C134.389021,48.5017418 133.369857,48.4272741 132.299117,48.4272741 C132.783942,45.806426 132.841708,45.7609179 134.803701,45.496144 C136.183904,45.3099748 137.557918,44.9066083 138.933995,44.9045398 C140.638103,44.8983341 142.344273,45.2086161 144.046318,45.3782369 C144.042192,45.3761683 143.978236,45.3120434 143.978236,45.3120434" id="Fill-182" fill="#000000" sketch:type="MSShapeGroup"></path>
            <path d="M45.3298061,34.266006 C46.5594042,34.5742194 47.3990794,34.6652355 48.1170327,35.0106827 C48.542028,35.2154688 49.006222,35.8112101 49.0289159,36.2518105 C49.0516098,36.696548 48.6245514,37.2488498 48.2511332,37.6005027 C47.9932477,37.8425226 47.4795397,37.9376758 47.0978692,37.904579 C44.6613668,37.6915187 42.3692804,38.2127924 40.1452757,39.1581181 C39.9967336,39.222243 39.7924883,39.3504929 39.6893341,39.2987792 C39.146743,39.0236626 38.3545187,38.8085338 38.1832827,38.3637963 C38.0264883,37.9583612 38.410222,36.9613219 38.8001449,36.7917011 C41.0385911,35.8174158 43.3471822,35.0148198 45.3298061,34.266006" id="Fill-183" fill="#000000" sketch:type="MSShapeGroup"></path>
            <path d="M76.7299463,23.4681943 C75.5065374,25.0671806 74.2851916,26.6682354 72.8265911,28.5754351 C73.2082617,25.9318329 74.2831285,24.2087338 76.3049509,23.1186099 C76.4473037,23.2344485 76.5875935,23.3502871 76.7299463,23.4681943" id="Fill-250" fill="#FFFFFF" sketch:type="MSShapeGroup"></path>
            <path d="M56.8500678,26.4510381 C56.5571098,23.5488676 58.719222,23.3358073 60.4769696,22.5104573 C60.8772079,25.1726764 59.7590164,26.3434736 56.8500678,26.4510381" id="Fill-251" fill="#FFFFFF" sketch:type="MSShapeGroup"></path>
            <path d="M161.471126,23.7557222 C161.471126,24.1632258 161.611416,24.6493342 161.438117,24.9596162 C161.190547,25.4043536 160.602568,24.9265194 160.771741,24.3618063 C160.837759,24.1384033 160.969797,23.9336172 161.072951,23.7205569 C161.204988,23.7329682 161.339089,23.7433109 161.471126,23.7557222" id="Fill-252" fill="#FFFFFF" sketch:type="MSShapeGroup"></path>
            <path d="M59.0864509,83.2388401 C58.3127944,83.166441 57.7970234,83.1188645 57.1100164,83.0547395 C57.3348925,81.9377245 57.5308855,80.9634392 57.8094019,79.5878559 C58.694465,80.7689958 58.8904579,81.7991319 59.0864509,83.2388401" id="Fill-253" fill="#FFFFFF" sketch:type="MSShapeGroup"></path>
            <path d="M44.8057827,54.738409 C45.8352617,56.4883991 46.2767617,58.199087 45.7548014,60.1249036 C45.449465,61.2543299 44.8057827,62.0072807 43.6752126,62.2906716 C41.9690421,62.7167921 41.1458715,61.9410872 41.15825,60.1414519 C41.1747547,57.5474949 42.5178224,55.9340287 44.8057827,54.738409" id="Fill-254" fill="#FFFFFF" sketch:type="MSShapeGroup"></path>
        </g>
    </g>
</svg>