<svg width="196" height="106" viewBox="0 0 196 106" xmlns="http://www.w3.org/2000/svg" xmlns:sketch="http://www.bohemiancoding.com/sketch/ns"><title>merry-xmas-you-hover</title><desc>Created with Sketch.</desc><g sketch:type="MSLayerGroup" fill="none"><path d="M4.138 77.643c-.301-2.836-.617-5.773-.926-8.709-.076-.726-.194-1.454-.182-2.18.111-6.766.25-13.532.373-20.297.021-1.15.002-2.298.002-3.581-1.875-.457-2.053-1.858-1.993-3.457.047-1.293.196-2.639-.947-3.682-.192-.176-.043-.738-.037-1.121l.155-10.157c.002-.163-.01-.339-.066-.49-1.077-2.904-.4-5.759.099-8.661.342-1.988.355-4.046.373-6.073.023-2.393.452-2.801 2.577-3.883 2.971-1.51 5.995-.972 9.071-.881 5.096.151 10.218.408 15.292.06 6.561-.449 13.09-.633 19.667-.405 6.666.232 13.346-.081 20.018-.025 5.086.041 10.167.321 15.25.428 3.87.081 7.743.064 11.615.081 4.753.019 9.507.043 14.26.037 6.984-.01 13.975.348 20.932-.79 2.569-.42 5.211-.424 7.823-.536 5.82-.252 11.599-1.131 17.481-.399 2.538.316 5.207-.565 7.825-.769 5.086-.395 10.175-.705 15.265-1.034 3.336-.215 6.678-.221 9.994-.821 1.758-.319 3.449.211 4.741 1.562.318.331.637.827.65 1.258.078 2.697.099 5.399.078 8.098-.01 1.148-.175 2.294-.256 3.442-.035.494-.21 1.074-.023 1.473 1.205 2.565.272 5.188.295 7.778.039 4.629-.161 9.269.093 13.884.276 5.072 1.013 10.117 1.419 15.185.163 2.048.031 4.125-.06 6.185-.101 2.304-.219 4.615-.493 6.903-.225 1.874-.712 3.713-1.042 5.575-.534 3.032-.813 6.048.877 8.864-.499 1.973 1.184 3.399 1.308 5.182.103 1.473-.07 2.97-.157 4.456-.072 1.231-.328 2.464-.27 3.686.12 2.642-.462 5.08-1.632 7.192-3.204 1.634-6.437 1.527-9.756 1.129-1.679-.201-3.421.161-5.135.168-1.799.006-3.6-.108-5.399-.168-.819-.029-1.636-.074-2.453-.077-1.624-.006-3.249-.012-4.871.029-1.362.033-2.721.149-4.083.194-3.27.108-6.544.165-9.814.298-3.196.13-6.387.393-9.583.484-6.002.172-12.009.17-18.009.414-6.334.256-12.659.705-18.987 1.092-2.131.13-4.324.07-6.371.575-2.096.517-3.943-.178-5.766-.691-.858-.242-1.63-.405-2.5-.397-2.22.021-4.442-.033-6.662.002-5.019.081-10.039.112-15.05.321-4.582.192-9.177.01-13.734.929-1.952.393-4.052.004-6.082.066-2.127.064-4.252.242-6.377.372-.165.01-.353.124-.483.072-3.949-1.56-7.992.058-11.968-.372-4.064-.441-8.205-.246-12.152-1.742-1.256-.476-2.773-.219-4.151-.422-2.082-.304-4.159-.647-6.208-1.115-.753-.172-1.599-.583-2.088-1.156-1.923-2.257-3.235-4.76-2.28-7.883.047-.157.157-.343.116-.476-1.06-3.277.448-6.646-.373-9.929-.138-.554-.192-1.14-.38-1.676-.716-2.021-.73-2.017 1.147-3.419zm78.56 22.76c-.043-1.851-.021-1.858 1.745-1.944 1.801-.085 3.598-.238 5.399-.31 1.151-.048 2.408-.29 3.441.068 1.636.565 3.208.116 4.801.197.97.05 1.97-.105 2.905.087 2.36.488 4.737.474 7.12.509 2.302.035 4.607.052 6.909.141 7.262.283 14.522.658 21.786.861 2.511.07 5.013 0 7.553-.465 2.878-.527 5.89-.31 8.844-.422 1.644-.062 3.295-.06 4.929-.225 2.432-.246 4.84-.778 7.312-.41 1.217.18 2.443.316 3.668.397 3.198.209 6.398.499 9.597.523 2.703.019 5.405-.275 8.106-.465.646-.046 1.329-.118 1.908-.374.737-.327.706-1.177-.012-1.721-.283-.215-.652-.312-.757-.36.19-1.808.237-3.359.53-4.865.945-4.842 1.966-9.668 1.343-14.656-.045-.381.099-.79.19-1.179.217-.941.551-1.866.664-2.815.314-2.617.695-5.238.759-7.865.095-3.955.002-7.918-.128-11.873-.095-2.962-.737-5.951-.489-8.872.4-4.718-.128-9.383-.219-14.068-.054-2.751.73-5.622-.761-8.266-.132-.236.035-.635.052-.96.07-1.396.184-2.793.192-4.189.027-4.178.01-8.357.01-12.759-2.643 0-5.397-.151-8.126.037-3.435.238-6.854.724-10.272 1.156-1.785.225-3.561.538-5.331.867-1.758.327-3.489.875-5.257 1.051-2.907.29-5.799.395-8.764.163-4.048-.314-8.155.157-12.236.285-4.677.147-9.354.343-14.033.405-2.294.029-4.592-.298-6.889-.281-4.256.029-8.51.215-12.766.29-2.781.05-5.562.062-8.341.01-3.778-.07-7.555-.23-11.333-.329-7.235-.19-14.468-.416-21.704-.532-4.2-.066-8.407-.052-12.603.114-5.174.203-10.338.759-15.512.871-6.336.139-12.68-.046-19.02-.046-2.546 0-5.094.058-7.635.203-1.591.089-3.169.389-5.052.635-.743 4.03-2.047 8.2-.747 12.649.427 1.462.34 3.088.413 4.644.091 1.98.153 3.963.136 5.945-.01 1.142.182 2.122 1.18 2.805.831.567.753 1.398.607 2.228-.753 4.296-.47 8.531.712 12.717.111.393.303.784.318 1.181.179 5.446.312 10.895.505 16.339.101 2.871.225 5.746.479 8.605.14 1.582.555 2.987-.406 4.613-1.225 2.071-.516 4.46-.076 6.721.116.6.256 1.56-.052 1.81-1.213.983-1.032 2.346-1.205 3.579-.392 2.757.099 3.847 2.756 5.008 2.164.945 4.489 1.549 6.788 2.135.798.205 1.733-.07 2.597-.184 2.016-.265 4.031-.825 6.039-.79 3.278.058 6.554.445 9.822.786 3.014.312 6.008.863 9.026 1.103 3.604.29 7.225.445 10.842.507 6.08.103 12.164.108 18.246.11 3.204.002 6.416-.01 9.498-1.127zm17.714-.933l.002-.29h-3.301l.006.29h3.293zm-76.705 3.157l-.021.325 1.805.157.033-.482h-1.818z" fill="#000" sketch:type="MSShapeGroup"/><path d="M82.698 100.404c-3.082 1.117-6.294 1.129-9.498 1.127-6.082-.002-12.166-.006-18.246-.11-3.617-.062-7.237-.217-10.842-.507-3.018-.24-6.012-.79-9.026-1.103-3.268-.341-6.544-.728-9.822-.786-2.007-.035-4.023.525-6.039.79-.864.114-1.799.389-2.597.184-2.298-.585-4.623-1.189-6.788-2.135-2.657-1.16-3.148-2.251-2.756-5.008.173-1.233-.008-2.596 1.205-3.579.307-.25.167-1.21.052-1.81-.439-2.261-1.149-4.65.076-6.721.961-1.626.547-3.03.406-4.613-.254-2.859-.378-5.734-.479-8.605-.194-5.444-.326-10.893-.505-16.339-.014-.397-.206-.788-.318-1.181-1.182-4.187-1.465-8.421-.712-12.717.146-.829.225-1.661-.607-2.228-.999-.683-1.19-1.663-1.18-2.805.017-1.982-.045-3.965-.136-5.945-.072-1.556.014-3.181-.413-4.644-1.3-4.449.004-8.62.747-12.649 1.884-.246 3.462-.546 5.052-.635 2.542-.145 5.09-.203 7.635-.203 6.34 0 12.684.184 19.02.046 5.174-.112 10.338-.668 15.512-.871 4.196-.165 8.403-.18 12.603-.114 7.235.116 14.468.341 21.704.532 3.778.099 7.555.259 11.333.329 2.779.052 5.56.039 8.341-.01 4.256-.074 8.51-.261 12.766-.29 2.296-.017 4.594.31 6.889.281 4.679-.062 9.356-.259 14.033-.405 4.081-.128 8.188-.6 12.236-.285 2.965.232 5.857.126 8.764-.163 1.768-.176 3.499-.724 5.257-1.051 1.77-.329 3.546-.641 5.331-.867 3.419-.432 6.837-.918 10.272-1.156 2.729-.188 5.484-.037 8.126-.037 0 4.402.017 8.58-.01 12.759-.008 1.396-.122 2.793-.192 4.189-.017.325-.184.724-.052.96 1.492 2.644.708 5.515.761 8.266.091 4.685.619 9.35.219 14.068-.248 2.921.394 5.91.489 8.872.13 3.955.223 7.918.128 11.873-.064 2.627-.446 5.248-.759 7.865-.113.949-.448 1.874-.664 2.815-.091.389-.235.798-.19 1.179.623 4.987-.398 9.813-1.343 14.656-.293 1.506-.34 3.057-.53 4.865.105.048.475.145.757.36.718.544.749 1.394.012 1.721-.58.256-1.263.329-1.908.374-2.701.19-5.403.484-8.106.465-3.2-.025-6.4-.314-9.597-.523-1.225-.081-2.451-.217-3.668-.397-2.472-.368-4.879.163-7.312.41-1.634.165-3.284.163-4.929.225-2.954.112-5.966-.105-8.844.422-2.54.465-5.042.536-7.553.465-7.264-.203-14.524-.577-21.786-.861-2.302-.089-4.607-.105-6.909-.141-2.383-.035-4.76-.021-7.12-.509-.935-.192-1.935-.037-2.905-.087-1.593-.081-3.165.368-4.801-.197-1.034-.358-2.29-.116-3.441-.068-1.801.072-3.598.225-5.399.31-1.766.087-1.789.093-1.745 1.944zm61.28-55.092c1.578.914 1.638 1.235 1.492 3.146-.223 2.956-.293 5.922-.452 8.884-.064 1.2.499 1.8 1.716 1.98l2.492-3.053-2.453-2.267 6.852-.639c0 1.465-.023 2.689.006 3.914.029 1.309.557 2.189 2.038 2.209.734-.995 1.126-1.903.508-3.186-.435-.906-.396-2.042-.569-3.086.365-.141.588-.304.807-.296.683.021 1.438.072 1.551-.796.113-.85-.555-1.113-1.277-1.156-1.442-.089-1.657-1.105-1.727-2.244-.122-1.973-.266-3.943-.363-5.916-.043-.842-.072-1.64-1.085-1.938-1.085.712-1.535 1.702-1.419 2.954.089.98.212 1.957.328 2.933.146 1.258.303 2.513.475 3.924h-5.182c-.442-2.774.939-5.916-2.098-8.342-.576 1.111-1.075 2.077-1.568 3.045-1.704-.172-3.41-.482-5.114-.476-1.376.002-2.75.405-4.13.592-1.962.265-2.02.31-2.505 2.931 1.071 0 2.09.074 3.093-.012 2.519-.221 3.295.449 3.082 2.995-.134 1.624-.425 3.237-.718 4.842-.246 1.34-.268 2.577.869 3.545 2.48-1.407 2.467-1.405 2.09-3.891-.072-.48.01-.983.01-1.475.002-2.033.002-4.069.002-6.158.745-.232 1.353-.455 1.978-.606 1.314-.316 1.708-1.105 1.273-2.356zm-124.039-15.932c1.78 2.06 2.276 2.129 4.066.478.592-.548 1.069-1.245 1.51-1.93 1.067-1.661 2.082-3.353 3.369-5.444.083 1.829.192 3.179.194 4.532.01 3.653 1.287 7.312-.041 10.959-.085.23-.25.542-.165.703.25.474.526 1.092.949 1.262.297.12.943-.312 1.273-.654 1.273-1.324 1.378-2.989 1.186-4.706-.093-.819-.235-1.632-.32-2.451-.219-2.124-.774-4.292-.541-6.371.353-3.163-.902-5.689-2.17-8.651-2.546 2.739-3.582 6.075-5.828 8.636-.089-.867.146-1.651.146-2.433 0-1.458.056-2.962-.274-4.363-.347-1.475-1.877-1.642-2.789-.418-.285.381-.571.916-.53 1.351.155 1.653-.99 2.515-1.863 3.386.035.697.215 1.311.066 1.831-.988 3.473-1.945 6.963-3.117 10.376-.788 2.286-.939 2.234 1.56 3.651.417-.602 1.042-1.171 1.246-1.864.745-2.519 1.349-5.08 2.073-7.881zm127.899-8.431c-2.278-.834-3.778-.329-3.905 1.789-.093 1.533-1.062 2.141-1.813 3.572-.879-3.583-.272-7.188-2.905-9.813-1.17.697-2.125 1.123-2.294 2.575-.165 1.427-.755 2.815-1.234 4.193-.755 2.18-1.535 4.352-2.381 6.499-.411 1.045-.994 2.021-1.558 3.144l1.896 2.41c.658-.734 1.413-1.21 1.595-1.847.627-2.197.959-4.476 1.589-6.671.402-1.415 1.129-2.735 1.774-4.251 1.655 2.579.295 5.916 2.775 7.854 2.197-.726 2.765-2.902 4.467-4.793.328 2.286.526 4.046.848 5.784.225 1.198.501 2.416.976 3.529.423.989 1.378.689 2.162.403.745-.269.914-.871.757-1.611-.237-1.117-.446-2.242-.689-3.359-.66-3.049-1.333-6.094-2.059-9.408zm-75.107 10.053l.464-.259c.739 1.862 2.212 2.753 3.953 3.419 2.026.776 3.819 1.915 4.718 4.071.188.447.514.854.844 1.218.792.875 1.595.769 2.057-.304.318-.736.495-1.531.712-2.224-3.437-2.087-5.607-5.736-9.554-6.727-.318-2.416 1.281-3.668 2.585-4.965 1.551-1.543 2.259-3.2 1.504-5.61-.664-.068-1.531-.414-2.183-.174-1.506.554-2.94 1.338-4.347 2.133-.98.554-1.832 1.336-2.802 1.915-.978.583-1.329 1.291-1.122 2.449.373 2.102.551 4.241.912 6.346.299 1.744.747 3.465 1.116 5.136 2.356-.079 2.824-.691 2.263-2.449-.419-1.311-.749-2.65-1.12-3.978zm-15.521 5.362c2.385-1.69-.524-3.326.155-5.537 1.692 2.898 5.649 3.179 5.888 6.907l1.966.757c1.595-2.24 1.587-2.786-.089-4.516-.687-.71-1.459-1.334-2.15-2.038-1.073-1.092-2.111-2.22-3.429-3.614.541-.321.918-.424 1.098-.672.858-1.185 1.985-2.302 2.426-3.639 1.151-3.483-.683-4.691-3.206-4.276-2.432.401-4.795 1.121-6.313 3.293.295 1.003.728 1.926.815 2.879.246 2.693.369 5.397.497 8.098.091 1.891.396 2.207 2.342 2.356zm60.731 35.598c-2.331 2.139-4.388 4.03-6.616 6.077-.739-1.601-1.246-2.881-1.921-4.067-.221-.389-.908-.776-1.318-.718-.429.06-.966.583-1.145 1.028-1.106 2.739-2.166 5.498-3.15 8.285-.402 1.14-.656 2.352-.825 3.554-.095.676.248 1.448 1.085 1.291.516-.097 1.172-.596 1.358-1.074.355-.902.34-1.942.617-2.884.563-1.922.786-3.99 2.232-5.806.142.536.212.852.307 1.158.945 3.035 1.902 3.32 4.2 1.233 1.056-.96 2.084-1.951 3.497-3.279-.179 2.536-.411 4.468-.427 6.404-.019 1.942-.173 3.949.875 5.724 2.113-.261 2.218-.358 2.045-1.903-.338-3.014-.538-6.013 0-9.04.212-1.198.171-2.47.052-3.688-.072-.73-.52-1.423-.864-2.296zm-3.734-13.253l-.26-.639c-2.09-.217-4.176-.492-6.27-.633-1.256-.083-2.018-.596-2.23-1.847-.287-1.678-.557-3.361-.869-5.25.664-.232 1.428-.459 2.16-.769.819-.345 1.607-.765 2.498-1.198l.439 1.884c2.28-.592 2.888-2.108 1.778-4.59-2.358.53-4.77 1.047-7.171 1.616-2.15.511-4.308 1.016-6.418 1.661-.524.159-1.062.784-1.269 1.32-.19.49.056 1.152.138 2.013l3.592-.916c1.102-.279 2.1-.039 2.368 1.125.357 1.551 1.021 3.119.512 4.776-.334.062-.576.153-.815.143-1.137-.058-2.09.381-2.152 1.533-.068 1.282 1.04 1.301 2.063 1.522 3.305.72 6.49.019 9.678-.621.786-.157 1.485-.743 2.226-1.129zm6.953-29.483c1.364 1.922 3.099 3.227 3.726 5.405.184.633.866 1.2 1.452 1.603.295.205.992.134 1.329-.087 1.314-.863 1.467-3.097.111-3.798-2.653-1.374-3.553-4.121-5.535-6.127 1.725-2.24 3.27-4.398 2.439-7.341-.943-.449-1.648-.341-2.096.78-.617 1.539-1.312 3.047-2.104 4.869-1.504-1.934-2.899-3.732-4.332-5.577-1.496 2.124-1.537 2.282-.305 3.841 1.11 1.405 2.311 2.739 3.584 4.234-.512 1.111-.968 2.35-1.626 3.469-.697 1.185-1.584 2.257-2.379 3.361.654 1.407 1.578 2.126 3.388 1.506l2.35-6.139zm-24.398 6.243c-2.001-.991-2.626-2.646-2.709-4.48-.149-3.337.751-6.404 2.783-9.093.543-.716 1.114-1.405 1.677-2.112-.163-.461-.27-.856-.437-1.225-.549-1.229-.982-1.361-1.97-.594-.318.246-.629.538-.846.873-1.17 1.82-2.309 3.659-3.528 5.602l-2.04-1.955c.8-2.919.429-3.291-3.171-3.318-1.06 1.967-1.069 1.973.316 3.543 1.419 1.607 2.725 3.295 3.344 5.384.877 2.977 1.708 5.966 2.496 8.965.192.728.458 1.326 1.246 1.235.596-.07 1.304-.296 1.702-.705.489-.509.706-1.278 1.137-2.12zm-4.211 40.506c1.962-.203 3.819-.418 5.68-.577.782-.066 1.636-.124 1.611-1.094-.021-.879-.788-1.158-1.609-1.152l-.741-.002c-1.875.054-3.751.083-5.622.18-1.529.077-3.055.217-4.578.368-.955.093-1.613.703-1.471 1.626.138.894.885 1.293 1.865 1.156.873-.12 1.76-.141 3.045-.236-1.393 2.716.701 5.397-.902 7.962-.941-.041-1.906-.087-2.828-.13-1.186 2.155-.982 2.931 1.085 3.041 2.439.13 4.898-.143 7.349-.219.968-.029 1.997-.207 2.886.058 1.126.335 1.716-.176 2.113-.956.371-.732-.398-1.69-1.454-1.907-.475-.097-.982-.027-1.475-.029h-4.24l-.714-8.088zm-28.039-24.483c-.301 1.049-.607 1.742-.687 2.46-.179 1.616-.091 3.277-.411 4.859-.33 1.638-1.799 2.66-3.161 2.579-1.49-.091-2.461-1.129-2.756-2.973-.27-1.684-.021-3.285.761-4.805.262-.511.621-1.018.708-1.564.153-.947-.378-1.5-1.296-1.804-.782-.259-1.395-.085-1.587.652-.6 2.304-1.291 4.611-1.58 6.963-.417 3.374 2.864 6.642 5.649 6.576 2.139-.05 3.412-1.191 4.698-2.817.433.705.79 1.156 1.005 1.667.342.815.959 1.237 1.745.999.897-.273.792-1.063.64-1.853-.59-3.064-1.126-6.137-1.721-9.402l-2.007-1.537zm-17.697-21.306c-.543-3.115-.966-3.382-3.726-2.668-1.252.325-2.525.571-3.765.848-1.013-2.453-.79-3.651 1.199-4.276 1.673-.525 3.109-1.816 5.104-1.489 1.071.174 1.624-.676 1.405-1.767-.109-.542-.417-1.043-.712-1.744-3.435 1.007-6.765 1.982-10.336 3.028-.212.29-.796.774-.939 1.365-.171.716-.268 1.814.132 2.226.939.962.974 2.052 1.015 3.19.066 1.87.006 3.746.138 5.61.045.672.487 1.318.866 2.271.922-.823 1.962-1.332 2.241-2.112.318-.889-.041-2.025-.13-3.421l7.508-1.061zm115.56-2.226c1.401 2.621 1.06 5.6 2.577 7.978 2.228-1.345 2.422-2.114 1.471-4.085-.623-1.297-1.056-2.685-1.549-3.961.941-.635 2.762-2.296 2.884-2.666-.534-.163-1.058-.428-1.601-.472-2.261-.188-2.331-.165-2.302-2.255.029-1.982-.819-3.581-1.756-5.227-1.351.304-1.444 1.355-1.712 2.273-.202.697-.287 1.45-.596 2.093-1.7 3.529-3.445 7.037-5.195 10.541-.704 1.409-.704 1.475 1.095 2.863.576-.879 1.45-1.676 1.65-2.619.588-2.766 2.585-3.711 5.034-4.464zm-76.501 22.491c2.676-.871 5.83-.968 7.427.064l1.686-1.34c-1.129-2.108-1.492-2.664-2.379-2.652-2.538.041-5.083.124-7.607.381-1.345.139-1.993 1.423-1.698 2.77.175.79.446 1.578.489 2.377.153 2.786.215 5.577.332 8.367.085 1.949.413 2.141 2.661 1.396 0-1.173.041-2.451-.012-3.723-.045-1.055.503-1.566 1.432-1.624 1.719-.103 3.445-.139 5.168-.124.836.006 1.636.114 2.1-.904-2.511-3.132-6.096-1.553-9.222-2.137l-.378-2.85zm-22.226 35.308c.805-.263 1.609-.457 2.344-.801.312-.145.724-.71.646-.908-.138-.356-.574-.724-.955-.827-1.32-.366-2.672-.618-3.978-.906-.14-.457-.227-.772-.33-1.08-.549-1.634-1.093-3.266-1.65-4.896-.479-1.398-1.574-1.22-2.663-1.02-1.089.201-1.108 1.043-1.108 1.897 0 .656.132 1.361-.062 1.957-.831 2.555-1.314 5.252-2.925 7.511-.266.376-.518.945-.429 1.349.124.554.464 1.282.916 1.491.708.325 1.407.072 1.64-.916.163-.691.538-1.33.819-1.992h3.943l1.622 2.917c2.156-.426 1.683-2.236 2.172-3.775zm113.111-68.86c-.685 0-1.302-.18-1.723.031-1.764.889-3.447 1.94-4.561 3.645-.726 1.113-1.234 2.277-.71 3.696.619 1.68 2.08 2.18 3.503 2.788 1.799.769 3.602 1.537 5.381 2.35 1.197.546 1.353 1.454.935 2.666-.829 2.393-4.667 3.434-6.699 1.758-1.106-.914-2.057-1.067-2.399-.333-.483 1.043.066 1.845.959 2.215 1.496.618 3.039 1.322 4.617 1.5 2.808.316 5.071-1.767 5.795-4.923.543-2.371-.621-4.598-3.08-5.734-1.564-.722-3.175-1.338-4.762-2.013-1.399-.598-1.477-.939-1.197-2.453.2-1.094.966-1.553 1.793-1.804 1.508-.459 2.071-1.456 2.148-3.39zm-43.199 68.698l-.875-2.863 2.661-.896c.186-1.585-.767-1.928-1.768-2.073-1.512-.219-2.313-1.171-2.779-2.488-.355-1.005-.551-2.073-.943-3.061-.272-.687-.755-1.289-1.413-2.366-.642 1.251-1.069 2.011-1.428 2.799-1.665 3.657-3.084 7.453-5.688 10.589-.615.738-.996 1.467-.303 2.147.745.73 1.566.219 2.121-.453.623-.757 1.172-1.582 1.69-2.418.51-.823.941-1.698 1.318-2.387l3.928.761c.689 1.676-.734 4.338 2.542 4.377l.937-1.667zm-103.701-17.705c.293-1.541.611-2.815.763-4.112.212-1.798.293-3.614.441-5.42.025-.312-.017-.778.163-.91 1.671-1.212 1.894-3.175 2.626-4.878.256-.6.584-1.181.955-1.717 1.009-1.462 1.079-2.201.186-2.695-.955-.527-1.725-.182-2.523 1.231-.444.79-.772 1.644-1.186 2.451-.33.645-.71 1.264-1.135 2.015-2.146-1.479-3.753-3.032-3.27-5.773-.689-.228-1.223-.432-1.774-.575-.807-.209-1.704-.478-2.131.561-.398.968-.254 1.729.631 2.596 1.384 1.355 2.509 2.995 3.637 4.59.873 1.233 1.24 2.642 1.093 4.205-.252 2.685-.392 5.38-.59 8.227l2.113.205zm134.022-9.089c2.616-.54 2.707-2.304 2.866-3.761.258-2.327 1.25-4.214 2.746-5.899 1.636-1.843 3.355-3.612 4.962-5.478 1.312-1.522 1.296-2.191.047-4.363l-2.523 2.211c.66 1.688-.941 2.329-1.681 3.215-.98 1.169-2.368 1.996-3.606 2.935-.429.325-.933.546-1.376.798-3.416-4.174-3.639-4.263-5.979-2.224.485.676.844 1.589 1.51 2.029 2.94 1.944 3.963 3.73 2.936 7.925-.188.767.052 1.642.099 2.611zm-118.462-7.681c-.78.302-1.576.48-2.232.885-3.111 1.924-4.293 4.998-4.97 8.417-.722 3.637 1.411 5.434 5.76 4.977 2.422-.256 3.598-2.389 3.973-5.008.466-3.26-.576-6.177-2.531-9.271zm32.436 33.281c-2.857-2.166-3.718-5.19-5.463-7.575-.297-.408-.881-1.082-1.065-1.003-.505.217-.953.714-1.261 1.204-.192.306-.105.798-.113 1.208-.017.883.074 1.779-.035 2.65-.27 2.118-.6 4.232-.966 6.336-.2 1.152.064 1.924 1.294 2.155 2.055-2.623 2.04-2.621 1.686-5.78-.074-.66-.01-1.334-.01-2.327 2.344 2.476 3.848 5.215 6.835 6.425 1.624-1.711 1.595-3.798 1.832-5.804.101-.856.017-1.847.427-2.526.538-.885.536-1.541-.194-2.095-.547-.414-1.355-.927-1.906-.796-1.025.244-.706 1.309-.685 2.108.023.989.12 1.98.068 2.964-.043.846-.254 1.684-.444 2.857zm42.683-39.729c-1.832 1.061-1.941 1.303-1.401 3.349.848 3.212.431 6.381-.79 9.35-.708 1.721-.361 2.484 1.395 3.186.992.397 2.205.376 3.311.329 1.857-.077 3.703-.323 5.775-.519 2.544-2.323 2.544-2.323.433-3.903-1.704 1.357-3.825 1.156-5.83 1.282-1.908.118-2.199-.465-2.02-2.4.243-2.604.384-5.223.47-7.84.033-1.047.01-2.191-1.343-2.834zm21.089 29.371c-1.972-1.22-2.55-1.03-2.88.745-.194 1.051-.324 2.116-.578 3.152-.446 1.829-1.044 3.624-1.432 5.463-.479 2.282.054 2.968 2.36 3.281.712.095 1.446.017 2.166.062 2.111.132 4.219-.509 6.352.219 1.044.356 2.158-.201 2.734-1.218.225-.395.175-1.407-.043-1.51-.918-.434-1.96-.9-2.936-.858-2.022.087-4.025.542-6.045.732-.66.062-1.353-.23-2.137-.381.854-3.39 1.632-6.479 2.439-9.687zm-96.297-39.78c-1.983.749-4.291 1.551-6.53 2.526-.39.17-.774 1.167-.617 1.572.171.445.963.66 1.506.935.103.052.307-.077.456-.141 2.224-.945 4.516-1.467 6.953-1.254.382.033.895-.062 1.153-.304.373-.352.8-.904.778-1.349-.023-.441-.487-1.036-.912-1.241-.718-.345-1.558-.436-2.787-.745z" fill="#fff" sketch:type="MSShapeGroup"/><path d="M100.412 99.471h-3.293l-.006-.29h3.301l-.002.29" fill="#fff" sketch:type="MSShapeGroup"/><path d="M23.707 102.627h1.818l-.033.482-1.805-.157.021-.325" fill="#fff" sketch:type="MSShapeGroup"/><path d="M19.939 29.38c-.724 2.801-1.329 5.362-2.073 7.881-.204.693-.829 1.262-1.246 1.864-2.498-1.417-2.348-1.365-1.56-3.651 1.172-3.413 2.129-6.903 3.117-10.376.149-.519-.031-1.134-.066-1.831.873-.871 2.018-1.733 1.863-3.386-.041-.434.246-.97.53-1.351.912-1.225 2.443-1.057 2.789.418.33 1.4.274 2.904.274 4.363 0 .782-.235 1.566-.146 2.433 2.247-2.561 3.282-5.897 5.828-8.636 1.269 2.962 2.523 5.488 2.17 8.651-.233 2.079.322 4.247.541 6.371.085.819.227 1.632.32 2.451.192 1.717.087 3.382-1.186 4.706-.33.341-.976.774-1.273.654-.423-.17-.699-.788-.949-1.262-.085-.161.08-.474.165-.703 1.329-3.647.052-7.306.041-10.959-.002-1.353-.111-2.704-.194-4.532-1.287 2.091-2.302 3.783-3.369 5.444-.441.685-.918 1.382-1.51 1.93-1.791 1.651-2.286 1.582-4.066-.478" fill="#000" sketch:type="MSShapeGroup"/><path d="M147.838 20.949c.726 3.314 1.399 6.359 2.059 9.408.243 1.117.452 2.242.689 3.359.157.741-.012 1.342-.757 1.611-.784.285-1.739.585-2.162-.403-.475-1.113-.751-2.331-.976-3.529-.322-1.738-.52-3.498-.848-5.784-1.702 1.891-2.269 4.067-4.467 4.793-2.48-1.938-1.12-5.275-2.775-7.854-.646 1.516-1.372 2.836-1.774 4.251-.629 2.195-.961 4.474-1.589 6.671-.182.637-.937 1.113-1.595 1.847l-1.896-2.41c.563-1.123 1.147-2.1 1.558-3.144.846-2.147 1.626-4.319 2.381-6.499.479-1.378 1.069-2.766 1.234-4.193.169-1.452 1.124-1.878 2.294-2.575 2.632 2.625 2.026 6.23 2.905 9.813.751-1.431 1.721-2.04 1.813-3.572.128-2.118 1.628-2.623 3.905-1.789" fill="#000" sketch:type="MSShapeGroup"/><path d="M72.732 31.002c.371 1.328.701 2.666 1.12 3.978.561 1.758.093 2.371-2.263 2.449-.369-1.671-.817-3.392-1.116-5.136-.361-2.106-.538-4.245-.912-6.346-.206-1.158.144-1.866 1.122-2.449.97-.579 1.822-1.361 2.802-1.915 1.407-.794 2.841-1.578 4.347-2.133.652-.24 1.518.105 2.183.174.755 2.41.047 4.067-1.504 5.61-1.304 1.297-2.903 2.548-2.585 4.965 3.947.991 6.117 4.64 9.554 6.727-.217.693-.394 1.487-.712 2.224-.462 1.074-1.265 1.179-2.057.304-.33-.364-.656-.772-.844-1.218-.9-2.155-2.692-3.295-4.718-4.071-1.741-.666-3.214-1.558-3.953-3.419l-.464.259zm3.998-7.534l-.425-.35c-2.022 1.09-3.097 2.813-3.478 5.457l3.903-5.107z" fill="#000" sketch:type="MSShapeGroup"/><path d="M57.211 36.364c-1.945-.149-2.251-.465-2.342-2.356-.128-2.702-.252-5.405-.497-8.098-.087-.954-.52-1.876-.815-2.879 1.518-2.172 3.881-2.892 6.313-3.293 2.523-.416 4.357.792 3.206 4.276-.442 1.336-1.568 2.453-2.426 3.639-.179.248-.557.352-1.098.672 1.318 1.394 2.356 2.522 3.429 3.614.691.703 1.463 1.328 2.15 2.038 1.675 1.729 1.683 2.275.089 4.516l-1.966-.757c-.239-3.728-4.196-4.009-5.888-6.907-.679 2.211 2.23 3.847-.155 5.537zm-.361-9.912c2.909-.108 4.027-1.278 3.627-3.941-1.758.825-3.92 1.038-3.627 3.941z" fill="#000" sketch:type="MSShapeGroup"/><path d="M117.942 71.961c.345.873.792 1.566.864 2.296.12 1.218.161 2.491-.052 3.688-.538 3.026-.338 6.026 0 9.04.173 1.545.068 1.642-2.045 1.903-1.048-1.775-.893-3.781-.875-5.724.017-1.936.248-3.868.427-6.404-1.413 1.328-2.441 2.319-3.497 3.279-2.298 2.087-3.256 1.802-4.2-1.233-.095-.306-.165-.623-.307-1.158-1.446 1.816-1.669 3.885-2.232 5.806-.276.941-.262 1.982-.617 2.884-.186.478-.842.976-1.358 1.074-.838.157-1.18-.614-1.085-1.291.169-1.202.423-2.414.825-3.554.984-2.786 2.045-5.546 3.15-8.285.179-.445.716-.968 1.145-1.028.411-.058 1.098.329 1.318.718.675 1.185 1.182 2.466 1.921 4.067 2.228-2.048 4.285-3.939 6.616-6.077" fill="#000" sketch:type="MSShapeGroup"/><path d="M144.042 45.376l1.574-3.041c3.037 2.426 1.657 5.569 2.098 8.342h5.182c-.171-1.411-.328-2.666-.475-3.924-.116-.976-.239-1.953-.328-2.933-.116-1.251.334-2.242 1.419-2.954 1.013.298 1.042 1.096 1.085 1.938.097 1.973.241 3.943.363 5.916.07 1.14.285 2.155 1.727 2.244.722.043 1.391.306 1.277 1.156-.113.869-.869.817-1.551.796-.219-.008-.441.155-.807.296.173 1.045.134 2.18.569 3.086.619 1.282.227 2.191-.508 3.186-1.481-.021-2.009-.9-2.038-2.209-.029-1.225-.006-2.449-.006-3.914l-6.852.639 2.453 2.267-2.492 3.053c-1.217-.18-1.78-.78-1.716-1.98.159-2.962.229-5.928.452-8.884.146-1.911.087-2.232-1.492-3.146l.064.064" fill="#000" sketch:type="MSShapeGroup"/><path d="M114.208 58.708c-.741.387-1.44.972-2.226 1.129-3.187.639-6.373 1.34-9.678.621-1.023-.221-2.131-.24-2.063-1.522.062-1.152 1.015-1.591 2.152-1.533.239.01.481-.081.815-.143.51-1.657-.155-3.225-.512-4.776-.268-1.165-1.267-1.405-2.368-1.125l-3.592.916c-.083-.861-.328-1.522-.138-2.013.206-.536.745-1.16 1.269-1.32 2.111-.645 4.269-1.15 6.418-1.661 2.401-.569 4.813-1.086 7.171-1.616 1.11 2.482.501 3.998-1.778 4.59l-.439-1.884c-.891.432-1.679.852-2.498 1.198-.732.31-1.496.538-2.16.769.312 1.889.582 3.572.869 5.25.212 1.251.974 1.764 2.23 1.847 2.094.141 4.18.416 6.27.633l.26.639" fill="#000" sketch:type="MSShapeGroup"/><path d="M121.161 29.225l-2.35 6.139c-1.809.621-2.734-.099-3.388-1.506.794-1.105 1.681-2.176 2.379-3.361.658-1.119 1.114-2.358 1.626-3.469-1.273-1.496-2.474-2.83-3.584-4.234-1.232-1.56-1.19-1.717.305-3.841l4.332 5.577c.792-1.822 1.487-3.33 2.104-4.869.448-1.121 1.153-1.229 2.096-.78.831 2.944-.714 5.101-2.439 7.341 1.983 2.006 2.882 4.754 5.535 6.127 1.355.701 1.203 2.935-.111 3.798-.336.221-1.034.292-1.329.087-.586-.403-1.269-.97-1.452-1.603-.627-2.178-2.362-3.483-3.726-5.405" fill="#000" sketch:type="MSShapeGroup"/><path d="M96.762 35.468c-.431.842-.648 1.611-1.137 2.12-.398.41-1.106.635-1.702.705-.788.091-1.054-.507-1.246-1.235-.788-2.999-1.62-5.988-2.496-8.965-.619-2.089-1.925-3.777-3.344-5.384-1.384-1.57-1.376-1.576-.316-3.543 3.6.027 3.971.399 3.171 3.318l2.04 1.955c1.219-1.942 2.358-3.781 3.528-5.602.217-.335.528-.627.846-.873.988-.767 1.421-.635 1.97.594.167.368.274.763.437 1.225-.563.707-1.135 1.396-1.677 2.112-2.032 2.689-2.932 5.757-2.783 9.093.083 1.835.708 3.49 2.709 4.48" fill="#000" sketch:type="MSShapeGroup"/><path d="M92.552 75.974l.714 8.088h4.24c.493.002 1.001-.068 1.475.029 1.056.217 1.826 1.175 1.454 1.907-.396.78-.986 1.291-2.113.956-.889-.265-1.919-.087-2.886-.058-2.451.077-4.91.35-7.349.219-2.067-.11-2.271-.885-1.085-3.041.922.043 1.888.089 2.828.13 1.603-2.565-.491-5.246.902-7.962-1.285.095-2.172.116-3.045.236-.98.137-1.727-.263-1.865-1.156-.142-.923.516-1.533 1.471-1.626 1.523-.151 3.049-.292 4.578-.368 1.871-.097 3.747-.126 5.622-.18l.741.002c.821-.006 1.589.273 1.609 1.152.025.97-.829 1.028-1.611 1.094-1.861.159-3.718.374-5.68.577" fill="#000" sketch:type="MSShapeGroup"/><path d="M64.512 51.491l2.007 1.537c.594 3.264 1.131 6.338 1.721 9.402.153.79.258 1.58-.64 1.853-.786.238-1.403-.184-1.745-.999-.215-.511-.571-.962-1.005-1.667-1.285 1.626-2.558 2.768-4.698 2.817-2.785.066-6.065-3.202-5.649-6.576.289-2.352.98-4.658 1.58-6.963.192-.736.805-.91 1.587-.652.918.304 1.448.856 1.296 1.804-.087.546-.446 1.053-.708 1.564-.782 1.52-1.032 3.121-.761 4.805.295 1.843 1.267 2.881 2.756 2.973 1.362.081 2.831-.941 3.161-2.579.32-1.582.231-3.243.411-4.859.08-.718.386-1.411.687-2.46" fill="#000" sketch:type="MSShapeGroup"/><path d="M46.815 30.185c-2.616.37-5.075.718-7.508 1.061.089 1.396.448 2.532.13 3.421-.279.78-1.318 1.289-2.241 2.112-.38-.954-.821-1.599-.866-2.271-.132-1.864-.072-3.74-.138-5.61-.041-1.138-.076-2.228-1.015-3.19-.4-.412-.303-1.51-.132-2.226.142-.592.726-1.076.939-1.365l10.336-3.028c.295.701.602 1.202.712 1.744.219 1.09-.334 1.94-1.405 1.767-1.995-.327-3.431.964-5.104 1.489-1.989.625-2.212 1.822-1.199 4.276 1.24-.277 2.513-.523 3.765-.848 2.76-.714 3.183-.447 3.726 2.668" fill="#000" sketch:type="MSShapeGroup"/><path d="M162.375 27.959c-2.449.753-4.446 1.698-5.034 4.464-.2.943-1.075 1.74-1.65 2.619-1.799-1.388-1.799-1.454-1.095-2.863 1.749-3.504 3.495-7.012 5.195-10.541.309-.643.394-1.396.596-2.093.268-.918.361-1.969 1.712-2.273.937 1.647 1.785 3.246 1.756 5.227-.029 2.089.041 2.066 2.302 2.255.543.043 1.067.308 1.601.472-.122.37-1.943 2.031-2.884 2.666.493 1.276.926 2.664 1.549 3.961.951 1.971.757 2.741-1.471 4.085-1.516-2.379-1.176-5.358-2.577-7.978zm-.904-4.203l-.398-.035c-.103.213-.235.418-.301.641-.169.565.419 1.043.666.598.173-.31.033-.796.033-1.204z" fill="#000" sketch:type="MSShapeGroup"/><path d="M85.874 50.45l.378 2.85c3.126.583 6.711-.995 9.222 2.137-.464 1.018-1.265.91-2.1.904-1.723-.014-3.449.021-5.168.124-.928.058-1.477.569-1.432 1.624.054 1.272.012 2.551.012 3.723-2.249.745-2.577.552-2.661-1.396-.118-2.79-.179-5.581-.332-8.367-.043-.798-.314-1.587-.489-2.377-.295-1.347.353-2.631 1.698-2.77 2.523-.256 5.069-.339 7.607-.381.887-.012 1.25.544 2.379 2.652l-1.686 1.34c-1.597-1.032-4.751-.935-7.427-.064" fill="#000" sketch:type="MSShapeGroup"/><path d="M63.648 85.758c-.489 1.539-.017 3.349-2.172 3.775l-1.622-2.917h-3.943c-.281.662-.656 1.301-.819 1.992-.233.989-.933 1.241-1.64.916-.452-.209-.792-.937-.916-1.491-.089-.403.163-.972.429-1.349 1.611-2.259 2.094-4.956 2.925-7.511.194-.596.062-1.301.062-1.957 0-.854.019-1.696 1.108-1.897 1.089-.201 2.185-.379 2.663 1.02.557 1.63 1.102 3.262 1.65 4.896.103.308.19.623.33 1.08 1.306.288 2.657.54 3.978.906.382.103.817.472.955.827.078.199-.334.763-.646.908-.734.343-1.539.538-2.344.801zm-4.561-2.519c-.196-1.44-.392-2.47-1.277-3.651-.279 1.376-.475 2.35-.699 3.467l1.976.184z" fill="#000" sketch:type="MSShapeGroup"/><path d="M176.759 16.898c-.076 1.934-.64 2.931-2.148 3.39-.827.25-1.593.71-1.793 1.804-.281 1.514-.202 1.855 1.197 2.453 1.587.674 3.198 1.291 4.762 2.013 2.459 1.136 3.623 3.363 3.08 5.734-.724 3.157-2.987 5.24-5.795 4.923-1.578-.178-3.121-.881-4.617-1.5-.893-.37-1.442-1.173-.959-2.215.342-.734 1.294-.581 2.399.333 2.032 1.676 5.869.635 6.699-1.758.419-1.212.262-2.12-.935-2.666-1.778-.813-3.582-1.58-5.381-2.35-1.424-.608-2.884-1.109-3.503-2.788-.524-1.419-.017-2.584.71-3.696 1.114-1.704 2.798-2.755 4.561-3.645.421-.211 1.038-.031 1.723-.031" fill="#000" sketch:type="MSShapeGroup"/><path d="M133.56 85.597l-.937 1.667c-3.276-.039-1.853-2.702-2.542-4.377l-3.928-.761c-.378.689-.809 1.564-1.318 2.387-.518.836-1.067 1.661-1.69 2.418-.555.672-1.376 1.183-2.121.453-.693-.681-.312-1.409.303-2.147 2.604-3.136 4.023-6.932 5.688-10.589.359-.788.786-1.547 1.428-2.799.658 1.078 1.141 1.68 1.413 2.366.392.989.588 2.056.943 3.061.466 1.318 1.267 2.269 2.779 2.488 1.001.145 1.954.488 1.768 2.073l-2.661.896.875 2.863" fill="#000" sketch:type="MSShapeGroup"/><path d="M29.859 67.892l-2.113-.205c.198-2.846.338-5.542.59-8.227.146-1.564-.221-2.973-1.093-4.205-1.129-1.595-2.253-3.235-3.637-4.59-.885-.867-1.029-1.628-.631-2.596.427-1.038 1.324-.769 2.131-.561.551.143 1.085.348 1.774.575-.483 2.741 1.124 4.294 3.27 5.773.425-.751.805-1.369 1.135-2.015.415-.807.743-1.661 1.186-2.451.798-1.413 1.568-1.758 2.523-1.231.893.494.823 1.233-.186 2.695-.371.536-.699 1.117-.955 1.717-.732 1.702-.955 3.665-2.626 4.878-.179.132-.138.598-.163.91-.149 1.806-.229 3.622-.441 5.42-.153 1.297-.47 2.571-.763 4.112" fill="#000" sketch:type="MSShapeGroup"/><path d="M163.881 58.803c-.047-.968-.287-1.843-.099-2.611 1.027-4.195.004-5.98-2.936-7.925-.666-.441-1.025-1.353-1.51-2.029 2.34-2.04 2.562-1.951 5.979 2.224.444-.252.947-.474 1.376-.798 1.238-.939 2.626-1.767 3.606-2.935.741-.885 2.342-1.527 1.681-3.215l2.523-2.211c1.248 2.172 1.265 2.84-.047 4.363-1.607 1.866-3.326 3.634-4.962 5.478-1.496 1.686-2.488 3.572-2.746 5.899-.159 1.456-.25 3.221-2.866 3.761" fill="#000" sketch:type="MSShapeGroup"/><path d="M45.419 51.123c1.956 3.095 2.998 6.011 2.531 9.271-.375 2.619-1.551 4.751-3.973 5.008-4.349.457-6.482-1.34-5.76-4.977.677-3.419 1.859-6.493 4.97-8.417.656-.405 1.452-.583 2.232-.885zm-.613 3.616c-2.288 1.196-3.631 2.809-3.648 5.403-.012 1.8.811 2.575 2.517 2.149 1.131-.283 1.774-1.036 2.08-2.166.522-1.926.08-3.637-.949-5.386z" fill="#000" sketch:type="MSShapeGroup"/><path d="M77.854 84.403c.19-1.173.4-2.011.444-2.857.052-.985-.045-1.975-.068-2.964-.021-.798-.34-1.864.685-2.108.551-.13 1.36.383 1.906.796.73.554.732 1.21.194 2.095-.411.678-.326 1.669-.427 2.526-.237 2.006-.208 4.094-1.832 5.804-2.987-1.21-4.491-3.949-6.835-6.425 0 .993-.064 1.667.01 2.327.355 3.159.369 3.157-1.686 5.78-1.23-.232-1.494-1.003-1.294-2.155.365-2.104.695-4.218.966-6.336.109-.871.019-1.767.035-2.65.008-.41-.078-.902.113-1.208.307-.49.755-.987 1.261-1.204.184-.079.767.596 1.065 1.003 1.745 2.385 2.606 5.409 5.463 7.575" fill="#000" sketch:type="MSShapeGroup"/><path d="M120.537 44.675c1.353.643 1.376 1.787 1.343 2.834-.087 2.617-.227 5.235-.47 7.84-.179 1.934.111 2.517 2.02 2.4 2.005-.126 4.126.074 5.83-1.282 2.111 1.58 2.111 1.58-.433 3.903-2.071.197-3.918.443-5.775.519-1.106.048-2.319.068-3.311-.329-1.756-.701-2.102-1.465-1.395-3.186 1.221-2.968 1.638-6.137.79-9.35-.541-2.046-.431-2.288 1.401-3.349" fill="#000" sketch:type="MSShapeGroup"/><path d="M141.626 74.046c-.807 3.208-1.584 6.297-2.439 9.687.784.151 1.477.443 2.137.381 2.02-.19 4.023-.645 6.045-.732.976-.041 2.018.424 2.936.858.219.103.268 1.115.043 1.51-.576 1.018-1.69 1.574-2.734 1.218-2.133-.728-4.242-.087-6.352-.219-.72-.046-1.454.033-2.166-.062-2.307-.312-2.839-.999-2.36-3.281.388-1.839.986-3.634 1.432-5.463.254-1.036.384-2.102.578-3.152.33-1.775.908-1.965 2.88-.745" fill="#000" sketch:type="MSShapeGroup"/><path d="M143.978 45.312c.435 1.251.041 2.04-1.273 2.356-.625.151-1.234.374-1.978.606 0 2.089 0 4.125-.002 6.158 0 .492-.083.995-.01 1.475.378 2.486.39 2.484-2.09 3.891-1.137-.968-1.114-2.205-.869-3.545.293-1.605.584-3.219.718-4.842.212-2.546-.563-3.217-3.082-2.995-1.003.087-2.022.012-3.093.012.485-2.621.543-2.666 2.505-2.931 1.38-.186 2.754-.59 4.13-.592 1.704-.006 3.41.304 5.112.474l-.068-.066" fill="#000" sketch:type="MSShapeGroup"/><path d="M45.33 34.266c1.23.308 2.069.399 2.787.745.425.205.889.801.912 1.241.023.445-.404.997-.778 1.349-.258.242-.772.337-1.153.304-2.437-.213-4.729.308-6.953 1.254-.149.064-.353.192-.456.141-.543-.275-1.335-.49-1.506-.935-.157-.405.227-1.402.617-1.572 2.238-.974 4.547-1.777 6.53-2.526" fill="#000" sketch:type="MSShapeGroup"/><path d="M76.73 23.468l-3.903 5.107c.382-2.644 1.457-4.367 3.478-5.457l.425.35" fill="#fff" sketch:type="MSShapeGroup"/><path d="M56.85 26.451c-.293-2.902 1.869-3.115 3.627-3.941.4 2.662-.718 3.833-3.627 3.941" fill="#fff" sketch:type="MSShapeGroup"/><path d="M161.471 23.756c0 .408.14.894-.033 1.204-.248.445-.836-.033-.666-.598.066-.223.198-.428.301-.641l.398.035" fill="#fff" sketch:type="MSShapeGroup"/><path d="M59.086 83.239l-1.976-.184.699-3.467c.885 1.181 1.081 2.211 1.277 3.651" fill="#fff" sketch:type="MSShapeGroup"/><path d="M44.806 54.738c1.029 1.75 1.471 3.461.949 5.386-.305 1.129-.949 1.882-2.08 2.166-1.706.426-2.529-.35-2.517-2.149.017-2.594 1.36-4.207 3.648-5.403" fill="#fff" sketch:type="MSShapeGroup"/></g></svg>