<?xml version="1.0" encoding="UTF-8" standalone="no"?>
<svg width="210px" height="110px" viewBox="0 0 210 110" version="1.1" xmlns="http://www.w3.org/2000/svg" xmlns:xlink="http://www.w3.org/1999/xlink" xmlns:sketch="http://www.bohemiancoding.com/sketch/ns">
    <!-- Generator: Sketch 3.1.1 (8761) - http://www.bohemiancoding.com/sketch -->
    <title>merry-christmas</title>
    <desc>Created with Sketch.</desc>
    <defs></defs>
    <g id="Page-1" stroke="none" stroke-width="1" fill="none" fill-rule="evenodd" sketch:type="MSPage">
        <g id="Group" sketch:type="MSLayerGroup">
            <path d="M1.21813551,16.284635 C2.30331776,15.9846958 3.60718692,15.4758334 4.95850701,15.28139 C8.44924533,14.7808018 11.9688668,14.4767255 15.4596051,13.9740688 C16.6128692,13.8085851 17.640285,13.9430406 18.7791075,14.1064557 C21.4363598,14.4870683 24.1616939,14.4932739 26.8581449,14.497411 C33.6415654,14.5098223 40.4126075,14.1995403 47.1815864,13.7361859 C50.8641916,13.4838233 54.5591752,13.4300411 58.2459065,13.2521461 C59.3929813,13.1962954 60.5338668,13.0163318 61.6788785,12.9191101 C62.3308131,12.8632594 63.1704883,12.5902113 63.6078621,12.8860134 C65.2872126,14.0216453 66.9933832,13.3824645 68.6355981,13.1052793 C73.1929509,12.3295744 77.7709346,12.0916916 82.3819276,12.1289255 C85.5549509,12.1558166 88.7321005,12.153748 91.9051238,12.0441151 C92.7365467,12.0151554 93.5390864,11.3801117 94.3808248,11.3015069 C97.4919556,11.0098419 100.611339,10.8278098 103.728659,10.6168181 C108.147785,10.3168789 112.575164,10.120367 116.981911,9.69424643 C119.329701,9.46670634 121.640355,8.85027954 123.969577,8.41588481 C124.289355,8.35589697 124.619449,8.32486877 124.945416,8.30418331 C130.604456,7.92357078 136.259369,7.44573659 141.924598,7.20578521 C145.71861,7.0444386 149.419783,6.3969836 153.131271,5.72470605 C153.455175,5.66678675 153.789395,5.67712948 154.117425,5.65230693 C158.375631,5.32547661 162.640026,5.0482914 166.894105,4.6552676 C172.945131,4.09469155 178.996157,3.49895021 185.032741,2.81012428 C187.042185,2.58051564 189.010367,1.99304849 191.005369,1.61243597 C193.332528,1.16769851 195.667939,0.770537614 198.001287,0.350622711 C199.290715,0.118945523 200.592521,-0.0692921917 201.871633,-0.35682013 C203.586056,-0.739501199 205.554238,0.272017951 206.342336,1.7613713 C207.784432,4.47737262 207.68953,7.38781729 207.728729,10.3168789 C207.811252,16.3260059 208.10421,22.335133 208.065012,28.3421915 C208.032002,33.5962992 208.754082,38.858681 207.879334,44.1148572 C207.652395,45.4800978 207.792685,46.9218745 207.862829,48.3243489 C208.102147,53.0013322 208.479692,57.6721098 208.624107,62.3511615 C208.754082,66.6040928 208.809785,70.8735724 208.589035,75.1182294 C208.463187,77.5446342 208.780902,79.834515 209.251285,82.1719724 C209.486477,83.3448381 209.300799,84.5963086 209.360629,85.8105453 C209.432836,87.3371325 208.978958,88.8719939 209.93004,90.3737585 C210.602605,91.4349228 209.998121,92.3905912 208.71282,92.8001633 C208.250689,92.9490987 207.745234,92.9573729 207.260409,93.0318405 C204.665049,93.4227958 202.046995,93.6958439 199.480519,94.2315974 C193.596603,95.4561768 187.652857,96.0726036 181.67404,96.6580022 C172.12815,97.5909166 162.536871,98.0170372 153.017801,99.3160843 C145.869215,100.29037 138.636042,100.633748 131.47714,101.537703 C128.392829,101.92659 125.386916,102.911218 122.222145,102.617484 C121.487687,102.549222 120.650075,102.665061 120.039402,102.350642 C118.073283,101.339123 116.030829,101.599759 113.986313,101.723872 C109.307238,102.009332 104.630227,102.298928 99.955278,102.625758 C96.5965771,102.859504 93.2440654,103.165649 89.8874276,103.42008 C87.3457079,103.614524 84.7977991,103.757253 82.2560794,103.959971 C81.4432243,104.026164 80.3662944,103.926874 79.8814696,104.394365 C78.3052734,105.914747 76.7105093,105.08526 75.0847991,104.789458 C74.3689089,104.659139 73.636514,104.425394 72.9288762,104.479176 C66.1248248,104.992175 59.3187103,105.480352 52.5311636,106.158835 C50.8022991,106.330525 49.1621472,107.259302 47.4374089,107.633709 C46.1933692,107.90262 44.8709322,107.768165 43.5959463,107.919168 C41.6463318,108.150846 39.7090958,108.492156 37.7615444,108.744518 C37.287035,108.806575 36.7795164,108.775547 36.3111963,108.672119 C32.403715,107.801261 28.5230537,108.403208 24.6320771,108.818986 C22.1790701,109.081691 19.7178107,109.261655 17.2606776,109.470578 C13.3284393,109.803614 9.39620093,110.149061 5.45983645,110.440726 C4.73982009,110.494509 3.92696495,110.496577 3.29566121,110.211118 C2.69736682,109.940138 1.98353972,109.313369 1.88038551,108.744518 C1.79992523,108.289438 2.56532944,107.683354 3.10792056,106.93454 C2.33839019,105.794771 1.84943925,104.299212 2.64372664,102.654718 C2.74275467,102.452 2.68086215,102.164473 2.6746729,101.916247 C2.57977103,97.9942832 2.92430607,93.9999202 2.28681308,90.1669039 C1.20575701,83.6530515 2.18572196,77.1681588 1.85150234,70.679129 C1.6225,66.2420972 1.64519393,61.792654 1.44920093,57.3535536 C1.32954206,54.5775645 0.958186916,51.8139866 0.801392523,49.040066 C0.70442757,47.3169669 0.836464953,45.5835251 0.795203271,43.8562889 C0.760130841,42.3752097 0.731247664,40.8796507 0.516686916,39.419257 C0.124700935,36.7404896 0.0896285047,36.7218726 3.22551636,36.4798527 C1.05721495,35.0546243 1.40793925,33.0046949 1.39349766,31.0354388 C1.35842523,26.2943306 1.28415421,21.5532225 1.21813551,16.284635 L1.21813551,16.284635 Z M203.629381,4.22500997 C197.619617,5.30892824 191.880117,6.32665303 186.148869,7.38781729 C184.878009,7.62363157 183.650474,8.09939722 182.377551,8.30418331 C180.279395,8.64135636 178.14204,8.74271513 176.056262,9.12953329 C171.280222,10.0148711 166.500056,10.7202454 161.620862,10.635435 C160.236533,10.612681 158.843951,10.8650437 157.459621,11.0222532 C151.728374,11.6738453 146.263264,13.7072263 140.453619,14.0692219 C134.227231,14.4560401 128.073051,15.7612928 121.79096,15.5999462 C120.313792,15.5606438 118.822182,15.659934 117.353266,15.8274863 C112.05114,16.4294332 106.763456,17.1741099 101.45514,17.6995207 C97.0483925,18.1339154 92.6230771,18.4359232 88.1998248,18.6158867 C84.1912523,18.7793019 80.1703014,18.673806 76.1576028,18.7337938 C74.6824977,18.7565479 73.2115187,18.9241001 71.7364136,19.006842 C68.631472,19.1847369 65.5224042,19.5301842 62.4215888,19.4639907 C59.9046262,19.4081399 57.4062313,18.6841487 54.8954579,19.6398171 C54.4580841,19.8073694 53.8494743,19.5198414 53.1707196,19.4205512 C53.3254509,18.5621045 53.4471729,17.8960326 53.595715,17.0665455 C50.6001168,17.2920171 47.6664112,17.5278313 44.7285794,17.7181376 C44.0828341,17.7615771 43.148257,17.9043068 42.8243528,17.5547224 C41.6153855,16.2453326 40.1052079,16.5783686 38.7085,16.6114653 C35.8346238,16.6797274 32.9648738,16.9362271 30.0930607,17.1120535 C27.549278,17.2671945 25.0075584,17.4326782 22.4637757,17.5629966 C20.1799416,17.6809038 17.8919813,17.7057263 15.6122734,17.87121 C14.6611916,17.9415406 13.7018575,18.1897662 12.7961636,18.5021167 C11.5046729,18.9468541 10.2957056,19.6915308 8.98152103,19.9894015 C8.00980841,20.2086674 7.48784813,20.6782274 7.26503505,21.5035774 C7.0112757,22.448903 6.84416589,23.4355996 6.7781472,24.414022 C6.67086682,25.9757745 6.70181308,27.5437326 6.62960514,29.1075536 C6.34077336,35.2635475 5.9983014,41.4174728 5.74866822,47.5755352 C5.6475771,50.0970931 5.73216355,52.6269253 5.73216355,55.136072 L4.35196028,55.136072 C4.58715187,56.4889013 4.95438084,57.7548516 5.00389486,59.0352818 C5.15037383,62.8062417 4.86773131,66.6185726 5.31954673,70.3460931 C5.86420093,74.8286329 5.06578738,79.2118826 5.07197664,83.6385717 C5.07403972,85.3327111 4.83678505,86.979274 5.49490888,88.8016633 C6.13240187,90.5640648 6.4913785,92.6946675 6.09526636,94.8314758 C5.61456776,97.4254329 6.07463551,100.124886 5.50109813,102.768488 C5.31748364,103.612455 5.9467243,104.669482 6.31395327,105.58378 C6.75545327,106.690452 7.53942523,107.124847 8.83710514,107.044173 C13.4315935,106.758714 18.0425864,106.729754 22.6308855,106.392581 C26.0597313,106.140219 29.4638201,105.529997 32.8844136,105.143179 C35.4158178,104.85772 37.9575374,104.663276 40.4951308,104.450216 C41.724729,104.346789 42.9584533,104.299212 44.1901145,104.222676 C48.2935888,103.966176 52.4011893,103.720019 56.5046636,103.444903 C57.5671519,103.372504 58.6358294,103.279419 59.6776869,103.072564 C62.2379743,102.561633 64.7838201,101.986578 67.331729,101.426001 C72.4234206,100.304849 77.5914463,99.9138941 82.7821659,100.006979 C84.3831192,100.035938 85.4662383,99.7401362 85.6807991,98.1701096 C89.1488435,98.1701096 92.4167687,98.1039161 95.6805678,98.1990692 C97.306278,98.2466458 98.9629346,98.925129 100.537068,98.7368913 C105.106799,98.1907951 109.664152,98.4493633 114.23182,98.4597061 C118.999607,98.4721174 123.767395,98.1349443 128.531056,98.1887265 C133.79811,98.2507829 139.019776,97.9549808 144.214621,97.1068768 C145.173956,96.9496673 146.162173,96.7634981 147.119444,96.8358972 C149.242357,96.9951753 151.092944,96.0519182 153.052874,95.5596041 C153.261245,95.5078905 153.490248,95.3568866 153.61197,95.1851973 C154.816811,93.4517554 155.18404,93.3379854 156.921157,93.6296504 C158.530362,93.9026985 160.168451,94.1364443 161.796224,94.1550612 C165.910014,94.2026378 170.02793,94.1654039 174.14172,94.0723193 C175.922161,94.0309484 177.766558,94.1488555 179.284988,92.8001633 C179.635713,92.4878129 180.366044,92.5622805 180.923077,92.5415951 C181.744185,92.5105669 182.569418,92.6036514 183.3864,92.5622805 C188.294477,92.3057808 193.194301,92.0989261 198.06318,91.219794 C200.573953,90.7667823 203.05997,90.5206253 205.213829,88.9961067 C205.213829,87.8025554 205.20764,86.6586493 205.215893,85.5126747 C205.236523,82.8214959 205.558364,80.1158373 204.65886,77.4784408 C204.277189,76.3552201 204.328766,75.2133825 204.887862,74.1129159 C205.106549,73.6867954 205.300479,73.1986184 205.327299,72.7290584 C205.449021,70.5136453 205.640888,68.289958 205.552175,66.078682 C205.467589,63.9977244 205.642951,61.9353837 205.189072,59.8089181 C204.669175,57.3680334 204.918808,54.7533909 204.898178,52.2152846 C204.858979,47.3148983 204.46493,42.410375 205.166379,37.5224001 C205.236523,37.0383602 205.154,36.5336349 205.137495,36.0371838 C205.028152,32.5206551 205.104486,28.9855094 204.749636,25.4938032 C204.466993,22.7074713 205.5955,19.7701356 203.924402,17.1058479 C203.765544,16.8514167 204.07707,16.3239374 204.118332,15.9205709 C204.504129,12.0503207 204.390659,8.20075599 203.629381,4.22500997 L203.629381,4.22500997 Z" id="Fill-2" fill="#000000" sketch:type="MSShapeGroup"></path>
            <path d="M203.629381,4.22500997 C204.390659,8.20075599 204.504129,12.0503207 204.118332,15.9205709 C204.07707,16.3239374 203.765544,16.8514167 203.924402,17.1058479 C205.5955,19.7701356 204.466993,22.7074713 204.749636,25.4938032 C205.104486,28.9855094 205.028152,32.5206551 205.137495,36.0371838 C205.154,36.5336349 205.236523,37.0383602 205.166379,37.5224001 C204.46493,42.410375 204.858979,47.3148983 204.898178,52.2152846 C204.918808,54.7533909 204.669175,57.3680334 205.189072,59.8089181 C205.642951,61.9353837 205.467589,63.9977244 205.552175,66.078682 C205.640888,68.289958 205.449021,70.5136453 205.327299,72.7290584 C205.300479,73.1986184 205.106549,73.6867954 204.887862,74.1129159 C204.328766,75.2133825 204.277189,76.3552201 204.65886,77.4784408 C205.558364,80.1158373 205.236523,82.8214959 205.215893,85.5126747 C205.20764,86.6586493 205.213829,87.8025554 205.213829,88.9961067 C203.05997,90.5206253 200.573953,90.7667823 198.06318,91.219794 C193.194301,92.0989261 188.294477,92.3057808 183.3864,92.5622805 C182.569418,92.6036514 181.744185,92.5105669 180.923077,92.5415951 C180.366044,92.5622805 179.635713,92.4878129 179.284988,92.8001633 C177.766558,94.1488555 175.922161,94.0309484 174.14172,94.0723193 C170.02793,94.1654039 165.910014,94.2026378 161.796224,94.1550612 C160.168451,94.1364443 158.530362,93.9026985 156.921157,93.6296504 C155.18404,93.3379854 154.816811,93.4517554 153.61197,95.1851973 C153.490248,95.3568866 153.261245,95.5078905 153.052874,95.5596041 C151.092944,96.0519182 149.242357,96.9951753 147.119444,96.8358972 C146.162173,96.7634981 145.173956,96.9496673 144.214621,97.1068768 C139.019776,97.9549808 133.79811,98.2507829 128.531056,98.1887265 C123.767395,98.1349443 118.999607,98.4721174 114.23182,98.4597061 C109.664152,98.4493633 105.106799,98.1907951 100.537068,98.7368913 C98.9629346,98.925129 97.306278,98.2466458 95.6805678,98.1990692 C92.4167687,98.1039161 89.1488435,98.1701096 85.6807991,98.1701096 C85.4662383,99.7401362 84.3831192,100.035938 82.7821659,100.006979 C77.5914463,99.9138941 72.4234206,100.304849 67.331729,101.426001 C64.7838201,101.986578 62.2379743,102.561633 59.6776869,103.072564 C58.6358294,103.279419 57.5671519,103.372504 56.5046636,103.444903 C52.4011893,103.720019 48.2935888,103.966176 44.1901145,104.222676 C42.9584533,104.299212 41.724729,104.346789 40.4951308,104.450216 C37.9575374,104.663276 35.4158178,104.85772 32.8844136,105.143179 C29.4638201,105.529997 26.0597313,106.140219 22.6308855,106.392581 C18.0425864,106.729754 13.4315935,106.758714 8.83710514,107.044173 C7.53942523,107.124847 6.75545327,106.690452 6.31395327,105.58378 C5.9467243,104.669482 5.31748364,103.612455 5.50109813,102.768488 C6.07463551,100.124886 5.61456776,97.4254329 6.09526636,94.8314758 C6.4913785,92.6946675 6.13240187,90.5640648 5.49490888,88.8016633 C4.83678505,86.979274 5.07403972,85.3327111 5.07197664,83.6385717 C5.06578738,79.2118826 5.86420093,74.8286329 5.31954673,70.3460931 C4.86773131,66.6185726 5.15037383,62.8062417 5.00389486,59.0352818 C4.95438084,57.7548516 4.58715187,56.4889013 4.35196028,55.136072 L5.73216355,55.136072 C5.73216355,52.6269253 5.6475771,50.0970931 5.74866822,47.5755352 C5.9983014,41.4174728 6.34077336,35.2635475 6.62960514,29.1075536 C6.70181308,27.5437326 6.67086682,25.9757745 6.7781472,24.414022 C6.84416589,23.4355996 7.0112757,22.448903 7.26503505,21.5035774 C7.48784813,20.6782274 8.00980841,20.2086674 8.98152103,19.9894015 C10.2957056,19.6915308 11.5046729,18.9468541 12.7961636,18.5021167 C13.7018575,18.1897662 14.6611916,17.9415406 15.6122734,17.87121 C17.8919813,17.7057263 20.1799416,17.6809038 22.4637757,17.5629966 C25.0075584,17.4326782 27.549278,17.2671945 30.0930607,17.1120535 C32.9648738,16.9362271 35.8346238,16.6797274 38.7085,16.6114653 C40.1052079,16.5783686 41.6153855,16.2453326 42.8243528,17.5547224 C43.148257,17.9043068 44.0828341,17.7615771 44.7285794,17.7181376 C47.6664112,17.5278313 50.6001168,17.2920171 53.595715,17.0665455 C53.4471729,17.8960326 53.3254509,18.5621045 53.1707196,19.4205512 C53.8494743,19.5198414 54.4580841,19.8073694 54.8954579,19.6398171 C57.4062313,18.6841487 59.9046262,19.4081399 62.4215888,19.4639907 C65.5224042,19.5301842 68.631472,19.1847369 71.7364136,19.006842 C73.2115187,18.9241001 74.6824977,18.7565479 76.1576028,18.7337938 C80.1703014,18.673806 84.1912523,18.7793019 88.1998248,18.6158867 C92.6230771,18.4359232 97.0483925,18.1339154 101.45514,17.6995207 C106.763456,17.1741099 112.05114,16.4294332 117.353266,15.8274863 C118.822182,15.659934 120.313792,15.5606438 121.79096,15.5999462 C128.073051,15.7612928 134.227231,14.4560401 140.453619,14.0692219 C146.263264,13.7072263 151.728374,11.6738453 157.459621,11.0222532 C158.843951,10.8650437 160.236533,10.612681 161.620862,10.635435 C166.500056,10.7202454 171.280222,10.0148711 176.056262,9.12953329 C178.14204,8.74271513 180.279395,8.64135636 182.377551,8.30418331 C183.650474,8.09939722 184.878009,7.62363157 186.148869,7.38781729 C191.880117,6.32665303 197.619617,5.30892824 203.629381,4.22500997 L203.629381,4.22500997 Z M137.27647,56.6274939 C133.890949,56.344103 133.043021,57.0660257 132.904794,59.9040712 C132.884164,60.315712 132.865596,60.7335583 132.902731,61.1431305 C133.203942,64.382474 131.435879,67.1812172 130.940738,70.2571456 C130.825206,70.9749311 129.896818,71.5582612 129.3501,72.2098533 C129.304713,72.265704 129.317091,72.3711999 129.290271,72.507724 C129.997909,73.2999772 130.849963,74.2763311 131.947523,73.6164648 C132.663414,73.1862071 132.99557,72.0816034 133.435007,71.2459107 C133.579423,70.9749311 133.4969,70.5922501 133.564981,70.2695568 C134.053932,67.9900188 134.557325,65.7125493 135.054528,63.4350798 C135.221638,63.4164629 135.390811,63.3957774 135.557921,63.3771605 C135.824058,64.3741998 136.16653,65.3567593 136.341893,66.3682785 C136.690554,68.3933853 136.651355,68.399591 138.877423,68.2589298 C140.3876,65.9028556 141.864769,63.598495 143.513173,61.0272919 C145.105874,64.4900384 144.557093,68.3230548 146.436563,71.6534143 C147.529998,71.212814 148.470764,70.8322014 149.489928,70.4226293 C149.355827,69.6862268 149.450729,68.9125905 149.120636,68.6167883 C147.251481,66.9412658 147.234977,64.5707117 146.979154,62.4504518 C146.692386,60.0840348 145.656717,58.2926737 144.231126,56.4516674 C143.482227,56.6647277 142.793157,56.8612396 142.479568,56.9501871 C141.210771,59.2111082 140.115273,61.167953 139.017713,63.1227293 C138.852666,63.0772213 138.687619,63.0317133 138.522572,62.9862053 C138.109956,60.8866307 137.699402,58.7849877 137.27647,56.6274939 L137.27647,56.6274939 Z M58.0230935,31.4884505 C56.8945864,32.3406915 56.0177757,33.2487834 56.1539393,34.7898504 C56.1931379,35.2407935 55.9290631,35.7289704 55.7722687,36.1881877 C54.8211869,38.9827938 53.9959533,41.8042909 52.4300724,44.3816997 C51.1509603,46.4854113 51.6626051,47.2280194 54.257965,47.5838094 C56.2075794,44.7064614 56.5479883,41.0430659 58.3882593,37.855436 C58.2108341,40.043958 58.3243037,42.0049399 60.7814369,43.1736686 C62.1843341,41.2313036 63.5253388,39.3778861 64.8663435,37.5224001 C65.0437687,37.5596339 65.223257,37.5968677 65.4006822,37.6341016 C65.6668201,40.5259293 65.9329579,43.4177571 66.1970327,46.2764881 C68.3591449,46.6115926 68.3591449,46.6115926 69.6857079,45.0850054 C69.3143528,43.4880876 69.0028271,42.0897503 68.6624182,40.6996872 C67.9589065,37.8264764 68.363271,34.4940483 65.2253201,32.5227236 C62.8156379,32.8454168 63.3664813,36.0061556 61.3260911,36.8459854 C60.2388458,35.1311605 60.6287687,32.5020381 58.0230935,31.4884505 L58.0230935,31.4884505 Z M40.0226846,83.5847895 C40.0928294,82.802879 39.983486,82.0437225 40.8149089,81.3217998 C41.9888037,80.3020065 41.4606542,78.9595199 39.8927103,78.2272545 L39.8927103,75.9435794 C41.848514,75.5733096 43.7444883,75.2154511 45.6136425,74.8617297 C46.7442126,77.5115375 45.4032079,80.5626433 47.5550047,83.2103826 C48.2791472,82.1905893 48.9207664,81.2887031 49.6345935,80.281321 C46.8679977,77.3853562 48.2791472,73.8440049 48.0357033,70.588113 C47.8458995,68.0644865 48.2028131,65.5036261 48.1842453,62.9613827 C48.1801192,62.2560084 47.7076729,61.5568397 47.4312196,60.8038889 C45.2649813,61.5630454 45.0009065,63.0689471 45.1061238,64.6844818 C45.1742056,65.745646 45.55175,66.7861248 45.6177687,67.8472891 C45.7064813,69.2807917 45.6280841,70.7267056 45.6198318,72.2284702 C43.3525023,72.4353248 41.4441495,72.6090827 39.2902897,72.8055946 C39.3913808,71.4775879 39.4285164,70.5074397 39.5440491,69.5455656 C39.7709883,67.6714627 40.0990187,65.809771 40.2743808,63.9315309 C40.4022921,62.5766331 39.8266916,61.9126297 38.7208785,61.8960813 C38.1906659,62.3594357 37.6460117,62.8372699 37.334486,63.1082495 C37.334486,65.2719489 37.2911612,67.081927 37.3448014,68.8877679 C37.4479556,72.4063652 37.6068131,75.9228939 37.7367874,79.4414912 C37.7677336,80.3247605 37.8089953,81.2100983 37.7966168,82.0954361 C37.775986,83.605475 38.5723364,83.9240311 40.0226846,83.5847895 L40.0226846,83.5847895 Z M69.8569439,78.293448 C68.8893575,77.6439245 68.2415491,77.3191627 67.7319673,76.8475341 C65.9886612,75.2299309 64.3443832,73.5006262 62.5639416,71.928531 C60.3048645,69.9323838 60.1728271,69.5993478 61.4230561,66.9329916 C61.6685631,66.4096494 61.9594579,65.9069927 62.1863972,65.3753762 C62.9394229,63.6088377 63.3458505,61.792654 62.9992523,59.8978656 C59.6756238,58.4788428 57.1421565,60.1791879 56.6841519,63.151689 C56.5727453,63.8777487 55.9579463,64.5727803 55.4504276,65.1788643 C54.8583224,65.8842386 54.7035911,66.5358307 55.0295584,67.4253057 C55.386472,68.4016595 55.6691145,69.4338641 55.7949626,70.4640002 C56.1106145,73.0724371 56.2818505,75.6994909 56.5913131,78.3099964 C56.7171612,79.3732292 56.9977407,80.4778329 57.9942103,80.1737566 C59.9706449,77.6480616 59.0360678,75.2299309 58.8565794,72.7828406 C60.6163902,73.9267467 62.2586051,75.0189392 63.6016729,76.4027967 C64.9942547,77.8383678 66.0938785,79.5573298 67.4843972,81.3652393 C68.3942173,80.1861679 69.1101075,79.2594591 69.8569439,78.293448 L69.8569439,78.293448 Z M85.5611402,61.7285291 C85.3465794,60.9342073 85.1815327,60.3922482 85.0494953,59.8440834 C84.5584813,57.7982911 84.5461028,57.8458676 82.6501285,58.4209235 C80.7025771,59.0104592 78.689007,59.3786605 76.7373294,59.9578534 C74.5979112,60.5928972 72.0830117,60.3219176 70.521257,62.4111494 C71.0060818,64.5913972 71.5362944,65.0133806 72.9144346,64.3783369 C74.2657547,63.7536359 75.6315164,63.1578946 77.1004322,62.5021654 C76.9106285,67.0839955 78.9654603,71.1838543 78.4249322,75.5195274 C77.9256659,75.5815838 77.6780958,75.6601885 77.4408411,75.6332974 C76.4835701,75.5195274 75.57375,75.5174589 75.3612523,76.7358326 C75.2147734,77.5860052 76.0379439,78.1052103 77.5254276,78.156924 C77.7709346,78.1651981 78.0226308,78.1693352 78.2640117,78.1341699 C80.2858341,77.8342307 82.317972,77.5901423 84.3232897,77.199187 C86.7804229,76.7213528 87.0610023,76.2104219 86.5658621,73.5750939 C85.2248575,73.8274565 83.8838528,74.0777506 82.687264,74.3011536 C81.1193201,72.5842602 80.5086472,70.8280643 80.4508808,68.7243527 C80.3910514,66.5234195 80.4240607,64.1838936 78.2619486,62.4897541 C79.9660561,62.0532909 81.3813318,61.6912953 82.8069229,61.3272311 C83.1679626,61.7388718 83.4856776,62.102936 83.8735374,62.5476734 C84.3624883,62.3097906 84.8617547,62.0677707 85.5611402,61.7285291 L85.5611402,61.7285291 Z M82.1034112,31.1657572 C80.0774626,30.0921817 78.3259042,31.0147533 76.7682757,31.691168 C73.1289953,33.2736059 72.8174696,34.5085281 74.1048341,37.3031342 C74.8392921,38.8979834 75.2477827,40.5300664 75.1611332,42.3214275 C75.0662313,44.2720667 75.8543294,45.9641376 77.1602617,47.5548497 C80.6654416,47.2838701 84.0880981,46.7460481 87.4096636,45.6435129 C87.2941308,43.9473049 86.5431682,43.3660434 85.115514,43.5377328 C83.0359252,43.7880269 80.9501472,43.9907444 79.0294159,44.197599 C78.8272336,42.9171689 78.66425,41.8891013 78.4868248,40.7720863 C80.1620491,40.5404091 81.8929766,40.3004578 83.8013294,40.0356838 C83.5145607,39.4254627 83.3639556,39.1400033 83.2442967,38.8442012 C82.5304696,37.071457 82.392243,36.9721667 80.6097383,37.1066223 C80.283771,37.1314448 79.963993,37.2224608 79.6380257,37.2679689 C77.389264,37.586525 77.3129299,37.5286057 76.7600234,34.9367172 C77.5625631,34.6533263 78.3754182,34.258234 79.2336612,34.0886132 C80.085715,33.9189924 80.9810935,33.9727746 81.9569322,33.9231295 C82.0064463,32.986078 82.049771,32.1731393 82.1034112,31.1657572 L82.1034112,31.1657572 Z M108.68625,38.2525969 C110.181986,38.8669552 111.036103,39.282733 111.931481,39.5702609 C113.301369,40.0108613 114.403056,40.6541792 115.215911,41.9615005 C115.667727,42.6854917 116.703395,43.0454187 117.62353,43.6680512 C118.337357,42.6130926 118.859318,41.8394562 119.329701,41.1423561 C117.173778,38.4242863 114.108035,37.5327428 111.465224,35.9110025 C111.799444,35.3380152 112.009879,34.9946365 112.203808,34.6429836 C112.833049,33.4928718 113.600516,32.3944737 114.048206,31.1761 C114.801231,29.1220335 114.09153,28.0277725 111.980995,27.6140632 C110.045822,27.2355192 106.509696,28.8800135 105.674147,30.6341408 C105.447208,31.1140436 105.395631,31.7573615 105.476091,32.293115 C105.888708,35.0484187 106.260063,37.8202707 106.883114,40.532135 C107.165757,41.7608515 106.864547,43.4239627 108.807972,44.2182845 C109.476411,43.2750274 110.14485,42.3317703 110.675063,41.5829565 C109.981867,40.422502 109.480537,39.5806037 108.68625,38.2525969 L108.68625,38.2525969 Z M24.9374136,62.1587867 C23.6417967,62.5931815 22.5009112,62.95104 21.3785935,63.356475 C18.6161238,64.3514458 16.8253668,66.01042 16.8026729,69.2580377 C16.7758528,72.9669412 16.2724603,76.6820504 17.4504813,80.3144178 C18.9668481,84.991401 24.5227336,87.3495438 28.9955,85.1817073 C29.1213481,84.1536397 29.2492593,83.1110924 29.4225584,81.7044809 C28.4425935,81.8554848 27.6875047,81.9568435 26.9386051,82.0912991 C24.9105935,82.4532947 22.7814907,82.511214 21.4425491,80.8067318 C20.4749626,79.5738782 19.773514,77.8590533 19.6394136,76.2973008 C19.4166005,73.6867954 19.6084673,71.0163021 19.870479,68.3933853 C20.1201121,65.8904443 20.9535981,65.3319368 23.573715,65.2450578 C24.2689743,65.2223038 24.9580444,65.1043967 25.805972,65.0113121 C25.5088879,64.0328897 25.3025794,63.356475 24.9374136,62.1587867 L24.9374136,62.1587867 Z M160.661528,61.1927756 C160.494418,59.713765 160.444904,57.9637748 160.050855,56.2965265 C159.850736,55.4525596 159.116278,54.6623749 158.445776,54.0376739 C158.16107,53.7708314 157.422486,53.9942344 156.921157,53.9942344 C155.720442,60.073692 154.550673,66.0166256 151.742815,71.3741606 C152.902269,72.5490949 153.79971,72.1436598 154.377374,71.2210881 C155.111832,70.0523595 155.726631,68.7760664 156.199077,67.4770193 C156.636451,66.2813995 157.292512,65.7166864 158.771743,65.9276781 C158.93679,66.5978871 159.085332,67.3032614 159.285451,67.9920873 C159.51239,68.7760664 159.696005,69.5931422 160.061171,70.3129963 C160.599636,71.3762291 161.769404,71.5748096 162.753495,70.8859836 C163.702514,70.2219803 163.650937,69.6924324 162.899974,68.4719901 C162.35532,67.5887208 161.872558,66.5772017 161.732269,65.5718881 C161.664187,65.0795741 162.44197,64.469353 163.013444,63.6646884 C162.316121,62.932423 161.631178,62.2105004 160.661528,61.1927756 L160.661528,61.1927756 Z M171.478278,56.521998 C171.859949,55.4794507 172.000238,54.4348348 170.993453,53.640513 C170.029993,52.8854936 168.917991,52.6662277 167.748222,53.1626788 C167.143738,53.41711 166.477362,53.617759 165.988411,54.0252626 C164.785633,55.0285076 163.98722,56.230333 164.042923,57.9534321 C164.100689,59.7054908 164.641217,60.808026 166.398965,61.5320172 C168.418724,62.3615043 170.316762,63.5426442 172.152907,64.7444696 C173.786869,65.8139081 173.842572,67.0426246 172.483,68.4264821 C172.117834,68.7988204 171.531918,68.9539614 171.01821,69.2270095 C170.733505,68.8484655 170.531322,68.5940343 170.345645,68.3271918 C170.10839,67.9858817 169.88764,67.6342288 169.69371,67.3425638 C167.21182,69.0160178 167.21182,69.0160178 167.372741,71.2707333 C168.672484,71.3969146 170.046498,71.727882 171.385439,71.618249 C173.531047,71.4424226 174.929818,70.1288957 175.722042,68.1037888 C176.526645,66.0497223 176.029442,64.3018007 174.403731,63.0048222 C172.815157,61.7368033 171.067724,60.6549535 169.316166,59.6165433 C168.332075,59.0332132 167.246893,58.6526007 166.96425,57.3969931 C168.127829,55.2146767 169.966037,56.9398444 171.478278,56.521998 L171.478278,56.521998 Z M93.3059579,43.1529831 C94.1435701,43.8293978 94.8677126,44.4127279 95.4515654,44.886425 C97.5394065,44.0486637 97.0009416,42.3565928 96.9493645,40.9230902 C99.0537103,42.255234 101.04046,43.5149787 103.074661,44.8036831 C104.112393,42.1890406 104.143339,42.1538753 102.461925,40.714167 C101.721278,40.0811919 100.807332,39.6509342 100.000666,39.0862211 C99.2950911,38.5939071 98.628715,38.0436737 97.9334556,37.5079202 C101.271526,33.633533 101.420068,32.2434699 98.9092944,29.8977383 C97.8633107,30.1025244 96.8049486,30.2597339 95.7713435,30.5162337 C93.4771939,31.0871525 92.5941939,32.5868485 93.062514,34.8457011 C93.4132383,36.5315664 93.576222,38.256734 93.9764603,39.930188 C94.2570397,41.1009852 94.2611659,42.1393954 93.3059579,43.1529831 L93.3059579,43.1529831 Z M93.6938178,74.3280447 C95.5340888,76.8413285 96.9555537,77.3894933 98.8969159,76.2559299 C99.8046729,75.726382 100.772259,75.0809956 101.343734,74.2370287 C102.957065,71.8478577 103.452206,69.0367032 100.062558,67.2225881 C99.0537103,66.6826975 98.0036005,66.211069 96.9514276,65.7601259 C96.1736449,65.4250214 95.3504743,65.1374934 95.4309346,64.0887404 C95.5093318,63.0730842 96.1509509,62.4421776 97.0999696,62.171198 C97.8034813,61.9726176 98.53175,61.8526419 99.2538294,61.7181864 C99.9759089,61.5857994 100.805269,61.6519929 101.393248,61.3024085 C101.809991,61.054183 102.03693,60.2681354 102.080255,59.7013537 C102.098822,59.4696765 101.354049,58.9070319 101.048713,58.9670198 C98.655535,59.4365798 96.1653925,59.5855151 94.0569206,61.076937 C91.6988154,62.7441853 91.9876472,67.2660276 94.8326402,67.9031399 C95.9425794,68.1513654 97.0174463,68.5961029 98.0819977,69.0139492 C99.8170514,69.6903639 100.636096,71.3245155 99.9882874,72.708373 C99.317785,74.1418755 97.6714439,74.6486694 96.053986,73.7323034 C95.049264,73.1655217 94.4055818,73.3082514 93.6938178,74.3280447 L93.6938178,74.3280447 Z M133.750659,25.216618 C134.225168,23.5969462 133.459764,22.7571164 131.685512,22.6247295 C130.763313,24.9745981 129.847304,27.3389465 128.9086,29.6929522 C128.512488,30.6858545 128.1989,31.7573615 126.738236,31.6063576 C125.434367,31.4698335 124.885586,30.7148141 124.757675,29.5088516 C124.724666,29.2068439 124.664836,28.9069046 124.555493,28.1994618 C123.466185,28.786929 122.515103,29.0930738 121.842537,29.7074321 C120.648012,30.7954874 120.91415,32.1421111 122.34593,32.8826507 C122.999928,33.2198237 123.699313,33.4721864 124.388383,33.7410974 C126.467972,34.5478305 126.406079,34.5374877 126.181203,36.6908444 C125.9914,38.5297821 125.966643,40.3852682 125.873804,42.1311213 C127.445874,42.7041086 128.056547,42.0752705 128.295864,40.9458442 C128.415523,40.3894053 128.425839,39.8019381 128.434091,39.2289508 C128.458848,37.3217511 128.512488,35.4848819 129.962836,33.9314037 C130.530185,33.323251 130.668411,32.2951835 130.942801,31.4388053 C131.394617,30.0280567 131.704079,28.5655945 132.259049,27.1982854 C132.558196,26.4577458 133.241077,25.8723472 133.750659,25.216618 L133.750659,25.216618 Z M107.887836,59.8937285 C108.498509,59.8440834 108.989523,59.7282448 109.464033,59.7758214 C114.225631,60.251587 118.896453,59.2938501 123.600285,58.9049634 C124.357437,58.842907 125.153787,58.7312055 125.087769,57.6886581 C125.032065,56.8219372 124.475033,56.3420345 123.631231,56.3234176 C122.896773,56.3089377 122.127243,56.298595 121.429921,56.4909698 C117.706054,57.5231744 113.971871,56.9750096 110.233563,56.6874817 C109.604322,56.6399051 108.956514,56.7267841 108.323147,56.8115945 C107.233839,56.9605298 107.023404,57.6865896 107.285416,58.6153669 C107.394759,59.0042536 107.629951,59.3559065 107.887836,59.8937285 L107.887836,59.8937285 Z M185.354582,58.71052 C185.730063,57.8872386 186.047778,57.5169688 186.039526,57.1529046 C185.928119,52.1552967 185.771325,47.1597574 185.62072,41.9883916 L182.693203,41.9883916 C182.507526,47.1121808 184.141488,52.0932403 182.433255,57.1715215 C183.390526,57.6741783 184.277652,58.1416698 185.354582,58.71052 L185.354582,58.71052 Z M114.481453,74.6135041 C115.612023,73.359965 116.381554,72.7435382 116.812738,71.9450794 C117.105696,71.3969146 117.231544,70.3026536 116.903514,69.9551378 C115.684231,68.6705705 115.818332,67.1584632 115.708988,65.6236018 C115.612023,64.2438814 115.424283,62.8538183 115.104505,61.5092632 C114.898196,60.6466794 114.134855,60.092309 113.23535,60.4646473 C112.321404,60.8452598 111.925292,61.6064849 112.32553,62.6821289 C112.692759,63.6708941 113.064114,64.692756 113.189963,65.7290977 C113.418965,67.596995 113.406586,69.4959205 113.612895,71.3679549 C113.713986,72.2781153 114.081215,73.159316 114.481453,74.6135041 L114.481453,74.6135041 Z M182.835556,64.5748488 C182.579734,65.1912756 182.206315,65.6587671 182.247577,66.0869562 C182.321848,66.9143747 182.377551,68.0375954 182.903638,68.4595788 C183.669042,69.0739371 184.741846,68.8257115 185.465988,67.9072769 C185.952876,67.2846445 186.507846,66.7157943 187.056626,66.0972989 C186.511972,65.3836504 186.010643,64.7320583 185.472178,64.0287526 C184.679953,64.1921678 183.82171,64.3700627 182.835556,64.5748488 L182.835556,64.5748488 Z" id="Fill-34" sketch:type="MSShapeGroup"></path>
            <path d="M137.27647,56.6274939 C137.699402,58.7849877 138.109956,60.8866307 138.522572,62.9862053 C138.687619,63.0317133 138.852666,63.0772213 139.017713,63.1227293 C140.115273,61.167953 141.210771,59.2111082 142.479568,56.9501871 C142.793157,56.8612396 143.482227,56.6647277 144.231126,56.4516674 C145.656717,58.2926737 146.692386,60.0840348 146.979154,62.4504518 C147.234977,64.5707117 147.251481,66.9412658 149.120636,68.6167883 C149.450729,68.9125905 149.355827,69.6862268 149.489928,70.4226293 C148.470764,70.8322014 147.529998,71.212814 146.436563,71.6534143 C144.557093,68.3230548 145.105874,64.4900384 143.513173,61.0272919 C141.864769,63.598495 140.3876,65.9028556 138.877423,68.2589298 C136.651355,68.399591 136.690554,68.3933853 136.341893,66.3682785 C136.16653,65.3567593 135.824058,64.3741998 135.557921,63.3771605 C135.390811,63.3957774 135.221638,63.4164629 135.054528,63.4350798 C134.557325,65.7125493 134.053932,67.9900188 133.564981,70.2695568 C133.4969,70.5922501 133.579423,70.9749311 133.435007,71.2459107 C132.99557,72.0816034 132.663414,73.1862071 131.947523,73.6164648 C130.849963,74.2763311 129.997909,73.2999772 129.290271,72.507724 C129.317091,72.3711999 129.304713,72.265704 129.3501,72.2098533 C129.896818,71.5582612 130.825206,70.9749311 130.940738,70.2571456 C131.435879,67.1812172 133.203942,64.382474 132.902731,61.1431305 C132.865596,60.7335583 132.884164,60.315712 132.904794,59.9040712 C133.043021,57.0660257 133.890949,56.344103 137.27647,56.6274939" id="Fill-87" fill="#000000" sketch:type="MSShapeGroup"></path>
            <path d="M58.0230935,31.4884505 C60.6287687,32.5020381 60.2388458,35.1311605 61.3260911,36.8459854 C63.3664813,36.0061556 62.8156379,32.8454168 65.2253201,32.5227236 C68.363271,34.4940483 67.9589065,37.8264764 68.6624182,40.6996872 C69.0028271,42.0897503 69.3143528,43.4880876 69.6857079,45.0850054 C68.3591449,46.6115926 68.3591449,46.6115926 66.1970327,46.2764881 C65.9329579,43.4177571 65.6668201,40.5259293 65.4006822,37.6341016 C65.223257,37.5968677 65.0437687,37.5596339 64.8663435,37.5224001 C63.5253388,39.3778861 62.1843341,41.2313036 60.7814369,43.1736686 C58.3243037,42.0049399 58.2108341,40.043958 58.3882593,37.855436 C56.5479883,41.0430659 56.2075794,44.7064614 54.257965,47.5838094 C51.6626051,47.2280194 51.1509603,46.4854113 52.4300724,44.3816997 C53.9959533,41.8042909 54.8211869,38.9827938 55.7722687,36.1881877 C55.9290631,35.7289704 56.1931379,35.2407935 56.1539393,34.7898504 C56.0177757,33.2487834 56.8945864,32.3406915 58.0230935,31.4884505" id="Fill-88" fill="#000000" sketch:type="MSShapeGroup"></path>
            <path d="M40.0226846,83.5847895 C38.5723364,83.9240311 37.775986,83.605475 37.7966168,82.0954361 C37.8089953,81.2100983 37.7677336,80.3247605 37.7367874,79.4414912 C37.6068131,75.9228939 37.4479556,72.4063652 37.3448014,68.8877679 C37.2911612,67.081927 37.334486,65.2719489 37.334486,63.1082495 C37.6460117,62.8372699 38.1906659,62.3594357 38.7208785,61.8960813 C39.8266916,61.9126297 40.4022921,62.5766331 40.2743808,63.9315309 C40.0990187,65.809771 39.7709883,67.6714627 39.5440491,69.5455656 C39.4285164,70.5074397 39.3913808,71.4775879 39.2902897,72.8055946 C41.4441495,72.6090827 43.3525023,72.4353248 45.6198318,72.2284702 C45.6280841,70.7267056 45.7064813,69.2807917 45.6177687,67.8472891 C45.55175,66.7861248 45.1742056,65.745646 45.1061238,64.6844818 C45.0009065,63.0689471 45.2649813,61.5630454 47.4312196,60.8038889 C47.7076729,61.5568397 48.1801192,62.2560084 48.1842453,62.9613827 C48.2028131,65.5036261 47.8458995,68.0644865 48.0357033,70.588113 C48.2791472,73.8440049 46.8679977,77.3853562 49.6345935,80.281321 C48.9207664,81.2887031 48.2791472,82.1905893 47.5550047,83.2103826 C45.4032079,80.5626433 46.7442126,77.5115375 45.6136425,74.8617297 C43.7444883,75.2154511 41.848514,75.5733096 39.8927103,75.9435794 L39.8927103,78.2272545 C41.4606542,78.9595199 41.9888037,80.3020065 40.8149089,81.3217998 C39.983486,82.0437225 40.0928294,82.802879 40.0226846,83.5847895" id="Fill-89" fill="#000000" sketch:type="MSShapeGroup"></path>
            <path d="M69.8569439,78.293448 C69.1101075,79.2594591 68.3942173,80.1861679 67.4843972,81.3652393 C66.0938785,79.5573298 64.9942547,77.8383678 63.6016729,76.4027967 C62.2586051,75.0189392 60.6163902,73.9267467 58.8565794,72.7828406 C59.0360678,75.2299309 59.9706449,77.6480616 57.9942103,80.1737566 C56.9977407,80.4778329 56.7171612,79.3732292 56.5913131,78.3099964 C56.2818505,75.6994909 56.1106145,73.0724371 55.7949626,70.4640002 C55.6691145,69.4338641 55.386472,68.4016595 55.0295584,67.4253057 C54.7035911,66.5358307 54.8583224,65.8842386 55.4504276,65.1788643 C55.9579463,64.5727803 56.5727453,63.8777487 56.6841519,63.151689 C57.1421565,60.1791879 59.6756238,58.4788428 62.9992523,59.8978656 C63.3458505,61.792654 62.9394229,63.6088377 62.1863972,65.3753762 C61.9594579,65.9069927 61.6685631,66.4096494 61.4230561,66.9329916 C60.1728271,69.5993478 60.3048645,69.9323838 62.5639416,71.928531 C64.3443832,73.5006262 65.9886612,75.2299309 67.7319673,76.8475341 C68.2415491,77.3191627 68.8893575,77.6439245 69.8569439,78.293448 L69.8569439,78.293448 Z M61.0434486,62.303585 C58.8668949,62.7876248 58.0870491,64.5231352 58.4563411,67.7562731 C59.9644556,66.1862464 60.5462453,64.4114337 61.0434486,62.303585 L61.0434486,62.303585 Z" id="Fill-90" fill="#000000" sketch:type="MSShapeGroup"></path>
            <path d="M85.5611402,61.7285291 C84.8617547,62.0677707 84.3624883,62.3097906 83.8735374,62.5476734 C83.4856776,62.102936 83.1679626,61.7388718 82.8069229,61.3272311 C81.3813318,61.6912953 79.9660561,62.0532909 78.2619486,62.4897541 C80.4240607,64.1838936 80.3910514,66.5234195 80.4508808,68.7243527 C80.5086472,70.8280643 81.1193201,72.5842602 82.687264,74.3011536 C83.8838528,74.0777506 85.2248575,73.8274565 86.5658621,73.5750939 C87.0610023,76.2104219 86.7804229,76.7213528 84.3232897,77.199187 C82.317972,77.5901423 80.2858341,77.8342307 78.2640117,78.1341699 C78.0226308,78.1693352 77.7709346,78.1651981 77.5254276,78.156924 C76.0379439,78.1052103 75.2147734,77.5860052 75.3612523,76.7358326 C75.57375,75.5174589 76.4835701,75.5195274 77.4408411,75.6332974 C77.6780958,75.6601885 77.9256659,75.5815838 78.4249322,75.5195274 C78.9654603,71.1838543 76.9106285,67.0839955 77.1004322,62.5021654 C75.6315164,63.1578946 74.2657547,63.7536359 72.9144346,64.3783369 C71.5362944,65.0133806 71.0060818,64.5913972 70.521257,62.4111494 C72.0830117,60.3219176 74.5979112,60.5928972 76.7373294,59.9578534 C78.689007,59.3786605 80.7025771,59.0104592 82.6501285,58.4209235 C84.5461028,57.8458676 84.5584813,57.7982911 85.0494953,59.8440834 C85.1815327,60.3922482 85.3465794,60.9342073 85.5611402,61.7285291" id="Fill-91" fill="#000000" sketch:type="MSShapeGroup"></path>
            <path d="M82.1034112,31.1657572 C82.049771,32.1731393 82.0064463,32.986078 81.9569322,33.9231295 C80.9810935,33.9727746 80.085715,33.9189924 79.2336612,34.0886132 C78.3754182,34.258234 77.5625631,34.6533263 76.7600234,34.9367172 C77.3129299,37.5286057 77.389264,37.586525 79.6380257,37.2679689 C79.963993,37.2224608 80.283771,37.1314448 80.6097383,37.1066223 C82.392243,36.9721667 82.5304696,37.071457 83.2442967,38.8442012 C83.3639556,39.1400033 83.5145607,39.4254627 83.8013294,40.0356838 C81.8929766,40.3004578 80.1620491,40.5404091 78.4868248,40.7720863 C78.66425,41.8891013 78.8272336,42.9171689 79.0294159,44.197599 C80.9501472,43.9907444 83.0359252,43.7880269 85.115514,43.5377328 C86.5431682,43.3660434 87.2941308,43.9473049 87.4096636,45.6435129 C84.0880981,46.7460481 80.6654416,47.2838701 77.1602617,47.5548497 C75.8543294,45.9641376 75.0662313,44.2720667 75.1611332,42.3214275 C75.2477827,40.5300664 74.8392921,38.8979834 74.1048341,37.3031342 C72.8174696,34.5085281 73.1289953,33.2736059 76.7682757,31.691168 C78.3259042,31.0147533 80.0774626,30.0921817 82.1034112,31.1657572" id="Fill-92" fill="#000000" sketch:type="MSShapeGroup"></path>
            <path d="M108.68625,38.2525969 C109.480537,39.5806037 109.981867,40.422502 110.675063,41.5829565 C110.14485,42.3317703 109.476411,43.2750274 108.807972,44.2182845 C106.864547,43.4239627 107.165757,41.7608515 106.883114,40.532135 C106.260063,37.8202707 105.888708,35.0484187 105.476091,32.293115 C105.395631,31.7573615 105.447208,31.1140436 105.674147,30.6341408 C106.509696,28.8800135 110.045822,27.2355192 111.980995,27.6140632 C114.09153,28.0277725 114.801231,29.1220335 114.048206,31.1761 C113.600516,32.3944737 112.833049,33.4928718 112.203808,34.6429836 C112.009879,34.9946365 111.799444,35.3380152 111.465224,35.9110025 C114.108035,37.5327428 117.173778,38.4242863 119.329701,41.1423561 C118.859318,41.8394562 118.337357,42.6130926 117.62353,43.6680512 C116.703395,43.0454187 115.667727,42.6854917 115.215911,41.9615005 C114.403056,40.6541792 113.301369,40.0108613 111.931481,39.5702609 C111.036103,39.282733 110.181986,38.8669552 108.68625,38.2525969 L108.68625,38.2525969 Z M108.890495,34.9636083 C111.626145,32.3013892 111.751993,32.0635063 111.289862,30.5700159 C108.482005,31.5505068 108.250939,31.9414621 108.890495,34.9636083 L108.890495,34.9636083 Z" id="Fill-93" fill="#000000" sketch:type="MSShapeGroup"></path>
            <path d="M24.9374136,62.1587867 C25.3025794,63.356475 25.5088879,64.0328897 25.805972,65.0113121 C24.9580444,65.1043967 24.2689743,65.2223038 23.573715,65.2450578 C20.9535981,65.3319368 20.1201121,65.8904443 19.870479,68.3933853 C19.6084673,71.0163021 19.4166005,73.6867954 19.6394136,76.2973008 C19.773514,77.8590533 20.4749626,79.5738782 21.4425491,80.8067318 C22.7814907,82.511214 24.9105935,82.4532947 26.9386051,82.0912991 C27.6875047,81.9568435 28.4425935,81.8554848 29.4225584,81.7044809 C29.2492593,83.1110924 29.1213481,84.1536397 28.9955,85.1817073 C24.5227336,87.3495438 18.9668481,84.991401 17.4504813,80.3144178 C16.2724603,76.6820504 16.7758528,72.9669412 16.8026729,69.2580377 C16.8253668,66.01042 18.6161238,64.3514458 21.3785935,63.356475 C22.5009112,62.95104 23.6417967,62.5931815 24.9374136,62.1587867" id="Fill-94" fill="#000000" sketch:type="MSShapeGroup"></path>
            <path d="M160.661528,61.1927756 C161.631178,62.2105004 162.316121,62.932423 163.013444,63.6646884 C162.44197,64.469353 161.664187,65.0795741 161.732269,65.5718881 C161.872558,66.5772017 162.35532,67.5887208 162.899974,68.4719901 C163.650937,69.6924324 163.702514,70.2219803 162.753495,70.8859836 C161.769404,71.5748096 160.599636,71.3762291 160.061171,70.3129963 C159.696005,69.5931422 159.51239,68.7760664 159.285451,67.9920873 C159.085332,67.3032614 158.93679,66.5978871 158.771743,65.9276781 C157.292512,65.7166864 156.636451,66.2813995 156.199077,67.4770193 C155.726631,68.7760664 155.111832,70.0523595 154.377374,71.2210881 C153.79971,72.1436598 152.902269,72.5490949 151.742815,71.3741606 C154.550673,66.0166256 155.720442,60.073692 156.921157,53.9942344 C157.422486,53.9942344 158.16107,53.7708314 158.445776,54.0376739 C159.116278,54.6623749 159.850736,55.4525596 160.050855,56.2965265 C160.444904,57.9637748 160.494418,59.713765 160.661528,61.1927756" id="Fill-95" fill="#000000" sketch:type="MSShapeGroup"></path>
            <path d="M171.478278,56.521998 C169.966037,56.9398444 168.127829,55.2146767 166.96425,57.3969931 C167.246893,58.6526007 168.332075,59.0332132 169.316166,59.6165433 C171.067724,60.6549535 172.815157,61.7368033 174.403731,63.0048222 C176.029442,64.3018007 176.526645,66.0497223 175.722042,68.1037888 C174.929818,70.1288957 173.531047,71.4424226 171.385439,71.618249 C170.046498,71.727882 168.672484,71.3969146 167.372741,71.2707333 C167.21182,69.0160178 167.21182,69.0160178 169.69371,67.3425638 C169.88764,67.6342288 170.10839,67.9858817 170.345645,68.3271918 C170.531322,68.5940343 170.733505,68.8484655 171.01821,69.2270095 C171.531918,68.9539614 172.117834,68.7988204 172.483,68.4264821 C173.842572,67.0426246 173.786869,65.8139081 172.152907,64.7444696 C170.316762,63.5426442 168.418724,62.3615043 166.398965,61.5320172 C164.641217,60.808026 164.100689,59.7054908 164.042923,57.9534321 C163.98722,56.230333 164.785633,55.0285076 165.988411,54.0252626 C166.477362,53.617759 167.143738,53.41711 167.748222,53.1626788 C168.917991,52.6662277 170.029993,52.8854936 170.993453,53.640513 C172.000238,54.4348348 171.859949,55.4794507 171.478278,56.521998" id="Fill-96" fill="#000000" sketch:type="MSShapeGroup"></path>
            <path d="M93.3059579,43.1529831 C94.2611659,42.1393954 94.2570397,41.1009852 93.9764603,39.930188 C93.576222,38.256734 93.4132383,36.5315664 93.062514,34.8457011 C92.5941939,32.5868485 93.4771939,31.0871525 95.7713435,30.5162337 C96.8049486,30.2597339 97.8633107,30.1025244 98.9092944,29.8998069 C101.420068,32.2434699 101.271526,33.633533 97.9334556,37.5079202 C98.628715,38.0436737 99.2950911,38.5939071 100.000666,39.0862211 C100.807332,39.6509342 101.721278,40.0811919 102.461925,40.714167 C104.143339,42.1538753 104.112393,42.1890406 103.074661,44.8036831 C101.04046,43.5149787 99.0537103,42.255234 96.9493645,40.9230902 C97.0009416,42.3565928 97.5394065,44.0486637 95.4515654,44.886425 C94.8677126,44.4127279 94.1435701,43.8293978 93.3059579,43.1529831 L93.3059579,43.1529831 Z M98.1005654,33.1598359 C95.7094509,33.5859564 95.6888201,33.6087104 95.6826308,35.4269626 C97.3372243,34.8229471 97.3372243,34.8229471 98.1005654,33.1598359 L98.1005654,33.1598359 Z" id="Fill-97" fill="#000000" sketch:type="MSShapeGroup"></path>
            <path d="M93.6938178,74.3280447 C94.4055818,73.3082514 95.049264,73.1655217 96.053986,73.7323034 C97.6714439,74.6486694 99.317785,74.1418755 99.9882874,72.708373 C100.636096,71.3245155 99.8170514,69.6903639 98.0819977,69.0139492 C97.0174463,68.5961029 95.9425794,68.1513654 94.8326402,67.9031399 C91.9876472,67.2660276 91.6988154,62.7441853 94.0569206,61.076937 C96.1653925,59.5855151 98.655535,59.4365798 101.048713,58.9670198 C101.354049,58.9070319 102.098822,59.4696765 102.080255,59.7013537 C102.03693,60.2681354 101.809991,61.054183 101.393248,61.3024085 C100.805269,61.6519929 99.9759089,61.5857994 99.2538294,61.7181864 C98.53175,61.8526419 97.8034813,61.9726176 97.0999696,62.171198 C96.1509509,62.4421776 95.5093318,63.0730842 95.4309346,64.0887404 C95.3504743,65.1374934 96.1736449,65.4250214 96.9514276,65.7601259 C98.0036005,66.211069 99.0537103,66.6826975 100.062558,67.2225881 C103.452206,69.0367032 102.957065,71.8478577 101.343734,74.2370287 C100.772259,75.0809956 99.8046729,75.726382 98.8969159,76.2559299 C96.9555537,77.3894933 95.5340888,76.8413285 93.6938178,74.3280447" id="Fill-98" fill="#000000" sketch:type="MSShapeGroup"></path>
            <path d="M133.750659,25.216618 C133.241077,25.8723472 132.558196,26.4577458 132.259049,27.1982854 C131.704079,28.5655945 131.394617,30.0280567 130.942801,31.4388053 C130.668411,32.2951835 130.530185,33.323251 129.962836,33.9314037 C128.512488,35.4848819 128.458848,37.3217511 128.434091,39.2289508 C128.425839,39.8019381 128.415523,40.3894053 128.295864,40.9458442 C128.056547,42.0752705 127.445874,42.7041086 125.873804,42.1311213 C125.966643,40.3852682 125.9914,38.5297821 126.181203,36.6908444 C126.406079,34.5374877 126.467972,34.5478305 124.388383,33.7410974 C123.699313,33.4721864 122.999928,33.2198237 122.34593,32.8826507 C120.91415,32.1421111 120.648012,30.7954874 121.842537,29.7074321 C122.515103,29.0930738 123.466185,28.786929 124.555493,28.1994618 C124.664836,28.9069046 124.724666,29.2068439 124.757675,29.5088516 C124.885586,30.7148141 125.434367,31.4698335 126.738236,31.6063576 C128.1989,31.7573615 128.512488,30.6858545 128.9086,29.6929522 C129.847304,27.3389465 130.763313,24.9745981 131.685512,22.6247295 C133.459764,22.7571164 134.225168,23.5969462 133.750659,25.216618" id="Fill-99" fill="#000000" sketch:type="MSShapeGroup"></path>
            <path d="M107.887836,59.8937285 C107.629951,59.3559065 107.394759,59.0042536 107.285416,58.6153669 C107.023404,57.6865896 107.233839,56.9605298 108.323147,56.8115945 C108.956514,56.7267841 109.604322,56.6399051 110.233563,56.6874817 C113.971871,56.9750096 117.706054,57.5231744 121.429921,56.4909698 C122.127243,56.298595 122.896773,56.3089377 123.631231,56.3234176 C124.475033,56.3420345 125.032065,56.8219372 125.087769,57.6886581 C125.153787,58.7312055 124.357437,58.842907 123.600285,58.9049634 C118.896453,59.2938501 114.225631,60.251587 109.464033,59.7758214 C108.989523,59.7282448 108.498509,59.8440834 107.887836,59.8937285" id="Fill-100" fill="#000000" sketch:type="MSShapeGroup"></path>
            <path d="M185.354582,58.71052 C184.277652,58.1416698 183.390526,57.6741783 182.433255,57.1715215 C184.141488,52.0932403 182.507526,47.1121808 182.693203,41.9883916 L185.62072,41.9883916 C185.771325,47.1597574 185.928119,52.1552967 186.039526,57.1529046 C186.047778,57.5169688 185.730063,57.8872386 185.354582,58.71052" id="Fill-101" fill="#000000" sketch:type="MSShapeGroup"></path>
            <path d="M114.481453,74.6135041 C114.081215,73.159316 113.713986,72.2781153 113.612895,71.3679549 C113.406586,69.4959205 113.418965,67.596995 113.189963,65.7290977 C113.064114,64.692756 112.692759,63.6708941 112.32553,62.6821289 C111.925292,61.6064849 112.321404,60.8452598 113.23535,60.4646473 C114.134855,60.092309 114.898196,60.6466794 115.104505,61.5092632 C115.424283,62.8538183 115.612023,64.2438814 115.708988,65.6236018 C115.818332,67.1584632 115.684231,68.6705705 116.903514,69.9551378 C117.231544,70.3026536 117.105696,71.3969146 116.812738,71.9450794 C116.381554,72.7435382 115.612023,73.359965 114.481453,74.6135041" id="Fill-102" fill="#000000" sketch:type="MSShapeGroup"></path>
            <path d="M182.835556,64.5748488 C183.82171,64.3700627 184.679953,64.1921678 185.472178,64.0287526 C186.010643,64.7320583 186.511972,65.3836504 187.056626,66.0972989 C186.507846,66.7157943 185.952876,67.2846445 185.465988,67.9072769 C184.741846,68.8257115 183.669042,69.0739371 182.903638,68.4595788 C182.377551,68.0375954 182.321848,66.9143747 182.247577,66.0869562 C182.206315,65.6587671 182.579734,65.1912756 182.835556,64.5748488" id="Fill-103" fill="#000000" sketch:type="MSShapeGroup"></path>
            <path d="M61.0434486,62.303585 C60.5462453,64.4114337 59.9644556,66.1862464 58.4563411,67.7562731 C58.0870491,64.5231352 58.8668949,62.7876248 61.0434486,62.303585" id="Fill-228" sketch:type="MSShapeGroup"></path>
            <path d="M108.890495,34.9636083 C108.250939,31.9414621 108.482005,31.5505068 111.289862,30.5700159 C111.751993,32.0635063 111.626145,32.3013892 108.890495,34.9636083" id="Fill-229" sketch:type="MSShapeGroup"></path>
            <path d="M98.1005654,33.1598359 C97.3372243,34.8229471 97.3372243,34.8229471 95.6826308,35.4269626 C95.6888201,33.6087104 95.7094509,33.5859564 98.1005654,33.1598359" id="Fill-230" sketch:type="MSShapeGroup"></path>
        </g>
    </g>
</svg>