<svg width="210" height="110" viewBox="0 0 210 110" xmlns="http://www.w3.org/2000/svg" xmlns:sketch="http://www.bohemiancoding.com/sketch/ns"><title>merry-christmas-hover</title><desc>Created with Sketch.</desc><g sketch:type="MSLayerGroup" fill="none"><path d="M1.218 16.285c1.085-.3 2.389-.809 3.74-1.003 3.491-.501 7.01-.805 10.501-1.307 1.153-.165 2.181-.031 3.32.132 2.657.381 5.383.387 8.079.391 6.783.012 13.554-.298 20.323-.761 3.683-.252 7.378-.306 11.064-.484 1.147-.056 2.288-.236 3.433-.333.652-.056 1.492-.329 1.929-.033 1.679 1.136 3.386.496 5.028.219 4.557-.776 9.135-1.014 13.746-.976 3.173.027 6.35.025 9.523-.085.831-.029 1.634-.664 2.476-.743 3.111-.292 6.231-.474 9.348-.685 4.419-.3 8.847-.496 13.253-.923 2.348-.228 4.658-.844 6.988-1.278.32-.06.65-.091.976-.112 5.659-.381 11.314-.858 16.979-1.098 3.794-.161 7.495-.809 11.207-1.481.324-.058.658-.048.986-.072 4.258-.327 8.523-.604 12.777-.997 6.051-.561 12.102-1.156 18.139-1.845 2.009-.23 3.978-.817 5.973-1.198 2.327-.445 4.663-.842 6.996-1.262 1.289-.232 2.591-.42 3.87-.707 1.714-.383 3.683.629 4.471 2.118 1.442 2.716 1.347 5.626 1.386 8.556.083 6.009.375 12.018.336 18.025-.033 5.254.689 10.516-.186 15.773-.227 1.365-.087 2.807-.017 4.209.239 4.677.617 9.348.761 14.027.13 4.253.186 8.522-.035 12.767-.126 2.426.192 4.716.662 7.054.235 1.173.05 2.424.109 3.639.072 1.527-.382 3.061.569 4.563.673 1.061.068 2.017-1.217 2.426-.462.149-.968.157-1.452.232-2.595.391-5.213.664-7.78 1.2-5.884 1.225-11.828 1.841-17.806 2.426-9.546.933-19.137 1.359-28.656 2.658-7.149.974-14.382 1.318-21.541 2.222-3.084.389-6.09 1.374-9.255 1.08-.734-.068-1.572.048-2.183-.267-1.966-1.012-4.009-.751-6.053-.627-4.679.285-9.356.575-14.031.902-3.359.234-6.711.54-10.068.794-2.542.194-5.09.337-7.631.54-.813.066-1.89-.033-2.375.434-1.576 1.52-3.171.691-4.797.395-.716-.13-1.448-.364-2.156-.31-6.804.513-13.61 1.001-20.398 1.68-1.729.172-3.369 1.1-5.094 1.475-1.244.269-2.566.134-3.841.285-1.95.232-3.887.573-5.834.825-.475.062-.982.031-1.45-.072-3.907-.871-7.788-.269-11.679.147-2.453.263-4.914.443-7.371.652-3.932.333-7.864.678-11.801.97-.72.054-1.533.056-2.164-.23-.598-.271-1.312-.898-1.415-1.467-.08-.455.685-1.061 1.228-1.81-.77-1.14-1.258-2.635-.464-4.28.099-.203.037-.49.031-.738-.095-3.922.25-7.916-.388-11.749-1.081-6.514-.101-12.999-.435-19.488-.229-4.437-.206-8.886-.402-13.326-.12-2.776-.491-5.54-.648-8.313-.097-1.723.035-3.457-.006-5.184-.035-1.481-.064-2.977-.279-4.437-.392-2.679-.427-2.697 2.709-2.939-2.168-1.425-1.818-3.475-1.832-5.444-.035-4.741-.109-9.482-.175-14.751zm202.411-12.06c-6.01 1.084-11.749 2.102-17.481 3.163-1.271.236-2.498.712-3.771.916-2.098.337-4.236.439-6.321.825-4.776.885-9.556 1.591-14.435 1.506-1.384-.023-2.777.23-4.161.387-5.731.652-11.196 2.685-17.006 3.047-6.226.387-12.381 1.692-18.663 1.531-1.477-.039-2.969.06-4.438.228-5.302.602-10.59 1.347-15.898 1.872-4.407.434-8.832.736-13.255.916-4.009.163-8.03.058-12.042.118-1.475.023-2.946.19-4.421.273-3.105.178-6.214.523-9.315.457-2.517-.056-5.015-.78-7.526.176-.437.168-1.046-.12-1.725-.219l.425-2.354c-2.996.225-5.929.461-8.867.652-.646.043-1.58.186-1.904-.163-1.209-1.309-2.719-.976-4.116-.943-2.874.068-5.744.325-8.615.501-2.544.155-5.086.321-7.629.451-2.284.118-4.572.143-6.852.308-.951.07-1.91.319-2.816.631-1.291.445-2.5 1.189-3.815 1.487-.972.219-1.494.689-1.716 1.514-.254.945-.421 1.932-.487 2.91-.107 1.562-.076 3.13-.149 4.694-.289 6.156-.631 12.31-.881 18.468-.101 2.522-.017 5.051-.017 7.561h-1.38c.235 1.353.602 2.619.652 3.899.146 3.771-.136 7.583.316 11.311.545 4.483-.254 8.866-.248 13.292.002 1.694-.235 3.341.423 5.163.637 1.762.996 3.893.6 6.03-.481 2.594-.021 5.293-.594 7.937-.184.844.446 1.901.813 2.815.442 1.107 1.225 1.541 2.523 1.46 4.594-.285 9.205-.314 13.794-.652 3.429-.252 6.833-.863 10.254-1.249 2.531-.285 5.073-.48 7.611-.693 1.23-.103 2.463-.151 3.695-.228 4.103-.257 8.211-.503 12.315-.778 1.062-.072 2.131-.165 3.173-.372 2.56-.511 5.106-1.086 7.654-1.647 5.092-1.121 10.26-1.512 15.45-1.419 1.601.029 2.684-.267 2.899-1.837 3.468 0 6.736-.066 10 .029 1.626.048 3.282.726 4.857.538 4.57-.546 9.127-.288 13.695-.277 4.768.012 9.536-.325 14.299-.271 5.267.062 10.489-.234 15.684-1.082.959-.157 1.948-.343 2.905-.271 2.123.159 3.974-.784 5.933-1.276.208-.052.437-.203.559-.374 1.205-1.733 1.572-1.847 3.309-1.556 1.609.273 3.247.507 4.875.525 4.114.048 8.232.01 12.345-.083 1.78-.041 3.625.077 5.143-1.272.351-.312 1.081-.238 1.638-.259.821-.031 1.646.062 2.463.021 4.908-.256 9.808-.463 14.677-1.342 2.511-.453 4.997-.699 7.151-2.224 0-1.194-.006-2.337.002-3.483.021-2.691.342-5.397-.557-8.034-.382-1.123-.33-2.265.229-3.366.219-.426.413-.914.439-1.384.122-2.215.314-4.439.225-6.65-.085-2.081.091-4.143-.363-6.27-.52-2.441-.27-5.056-.291-7.594-.039-4.9-.433-9.805.268-14.693.07-.484-.012-.989-.029-1.485-.109-3.517-.033-7.052-.388-10.543-.283-2.786.846-5.724-.825-8.388-.159-.254.153-.782.194-1.185.386-3.87.272-7.72-.489-11.696z" fill="#000" sketch:type="MSShapeGroup"/><path d="M203.629 4.225c.761 3.976.875 7.825.489 11.696-.041.403-.353.931-.194 1.185 1.671 2.664.543 5.602.825 8.388.355 3.492.279 7.027.388 10.543.017.496.099 1.001.029 1.485-.701 4.888-.307 9.792-.268 14.693.021 2.538-.229 5.153.291 7.594.454 2.126.279 4.189.363 6.27.089 2.211-.103 4.435-.225 6.65-.027.47-.221.958-.439 1.384-.559 1.1-.611 2.242-.229 3.366.9 2.637.578 5.343.557 8.034-.008 1.146-.002 2.29-.002 3.483-2.154 1.525-4.64 1.771-7.151 2.224-4.869.879-9.769 1.086-14.677 1.342-.817.041-1.642-.052-2.463-.021-.557.021-1.287-.054-1.638.259-1.518 1.349-3.363 1.231-5.143 1.272-4.114.093-8.232.13-12.345.083-1.628-.019-3.266-.252-4.875-.525-1.737-.292-2.104-.178-3.309 1.556-.122.172-.351.323-.559.374-1.96.492-3.811 1.436-5.933 1.276-.957-.072-1.945.114-2.905.271-5.195.848-10.417 1.144-15.684 1.082-4.764-.054-9.531.283-14.299.271-4.568-.01-9.125-.269-13.695.277-1.574.188-3.231-.49-4.857-.538-3.264-.095-6.532-.029-10-.029-.215 1.57-1.298 1.866-2.899 1.837-5.191-.093-10.359.298-15.45 1.419-2.548.561-5.094 1.136-7.654 1.647-1.042.207-2.111.3-3.173.372-4.103.275-8.211.521-12.315.778-1.232.077-2.465.124-3.695.228-2.538.213-5.079.408-7.611.693-3.421.387-6.825.997-10.254 1.249-4.588.337-9.199.366-13.794.652-1.298.081-2.082-.354-2.523-1.46-.367-.914-.996-1.971-.813-2.815.574-2.644.113-5.343.594-7.937.396-2.137.037-4.267-.6-6.03-.658-1.822-.421-3.469-.423-5.163-.006-4.427.792-8.81.248-13.292-.452-3.728-.169-7.54-.316-11.311-.05-1.28-.417-2.546-.652-3.899h1.38c0-2.509-.085-5.039.017-7.561.25-6.158.592-12.312.881-18.468.072-1.564.041-3.132.149-4.694.066-.978.233-1.965.487-2.91.223-.825.745-1.295 1.716-1.514 1.314-.298 2.523-1.043 3.815-1.487.906-.312 1.865-.561 2.816-.631 2.28-.165 4.568-.19 6.852-.308 2.544-.13 5.086-.296 7.629-.451 2.872-.176 5.742-.432 8.615-.501 1.397-.033 2.907-.366 4.116.943.324.35 1.258.207 1.904.163 2.938-.19 5.872-.426 8.867-.652l-.425 2.354c.679.099 1.287.387 1.725.219 2.511-.956 5.009-.232 7.526-.176 3.101.066 6.21-.279 9.315-.457 1.475-.083 2.946-.25 4.421-.273 4.013-.06 8.034.046 12.042-.118 4.423-.18 8.849-.482 13.255-.916 5.308-.525 10.596-1.27 15.898-1.872 1.469-.168 2.961-.267 4.438-.228 6.282.161 12.436-1.144 18.663-1.531 5.81-.362 11.275-2.395 17.006-3.047 1.384-.157 2.777-.41 4.161-.387 4.879.085 9.659-.621 14.435-1.506 2.086-.387 4.223-.488 6.321-.825 1.273-.205 2.5-.681 3.771-.916 5.731-1.061 11.471-2.079 17.481-3.163zm-66.353 52.402c-3.386-.283-4.233.439-4.372 3.277-.021.412-.039.829-.002 1.239.301 3.239-1.467 6.038-1.962 9.114-.116.718-1.044 1.301-1.591 1.953-.045.056-.033.161-.06.298.708.792 1.56 1.769 2.657 1.109.716-.43 1.048-1.535 1.487-2.371.144-.271.062-.654.13-.976.489-2.28.992-4.557 1.49-6.834l.503-.058c.266.997.609 1.98.784 2.991.349 2.025.309 2.031 2.536 1.891l4.636-7.232c1.593 3.463 1.044 7.296 2.923 10.626l3.053-1.231c-.134-.736-.039-1.51-.369-1.806-1.869-1.676-1.886-4.046-2.141-6.166-.287-2.366-1.322-4.158-2.748-5.999l-1.752.499-3.462 6.173-.495-.137c-.413-2.1-.823-4.201-1.246-6.359zm-79.253-25.139c-1.129.852-2.005 1.76-1.869 3.301.039.451-.225.939-.382 1.398-.951 2.795-1.776 5.616-3.342 8.194-1.279 2.104-.767 2.846 1.828 3.202 1.95-2.877 2.29-6.541 4.13-9.728-.177 2.189-.064 4.15 2.393 5.318l4.085-5.651.534.112c.266 2.892.532 5.784.796 8.642 2.162.335 2.162.335 3.489-1.191-.371-1.597-.683-2.995-1.023-4.385-.704-2.873-.299-6.206-3.437-8.177-2.41.323-1.859 3.483-3.899 4.323-1.087-1.715-.697-4.344-3.303-5.358zm-18 52.096c.07-.782-.039-1.541.792-2.263 1.174-1.02.646-2.362-.922-3.095v-2.284l5.721-1.082c1.131 2.65-.21 5.701 1.941 8.349l2.08-2.929c-2.767-2.896-1.355-6.437-1.599-9.693-.19-2.524.167-5.084.149-7.627-.004-.705-.477-1.405-.753-2.157-2.166.759-2.43 2.265-2.325 3.881l.512 3.163c.089 1.434.01 2.879.002 4.381l-6.33.577c.101-1.328.138-2.298.254-3.26.227-1.874.555-3.736.73-5.614.128-1.355-.448-2.019-1.554-2.035l-1.386 1.212c0 2.164-.043 3.974.01 5.78.103 3.519.262 7.035.392 10.554.031.883.072 1.769.06 2.654-.021 1.51.776 1.829 2.226 1.489zm29.834-5.291c-.968-.65-1.615-.974-2.125-1.446-1.743-1.618-3.388-3.347-5.168-4.919-2.259-1.996-2.391-2.329-1.141-4.996.246-.523.536-1.026.763-1.558.753-1.767 1.159-3.583.813-5.478-3.324-1.419-5.857.281-6.315 3.254-.111.726-.726 1.421-1.234 2.027-.592.705-.747 1.357-.421 2.246.357.976.64 2.009.765 3.039.316 2.608.487 5.235.796 7.846.126 1.063.406 2.168 1.403 1.864 1.976-2.526 1.042-4.944.862-7.391 1.76 1.144 3.402 2.236 4.745 3.62 1.393 1.436 2.492 3.155 3.883 4.962l2.373-3.072zm15.704-16.565c-.215-.794-.38-1.336-.512-1.884-.491-2.046-.503-1.998-2.399-1.423-1.948.59-3.961.958-5.913 1.537-2.139.635-4.654.364-6.216 2.453.485 2.18 1.015 2.602 2.393 1.967 1.351-.625 2.717-1.22 4.186-1.876-.19 4.582 1.865 8.682 1.325 13.017-.499.062-.747.141-.984.114-.957-.114-1.867-.116-2.08 1.103-.146.85.677 1.369 2.164 1.421.246.008.497.012.739-.023 2.022-.3 4.054-.544 6.059-.935 2.457-.478 2.738-.989 2.243-3.624-1.341.252-2.682.503-3.879.726-1.568-1.717-2.179-3.473-2.236-5.577-.06-2.201-.027-4.54-2.189-6.235l4.545-1.163 1.067 1.22 1.688-.819zm-3.458-30.563c-2.026-1.074-3.778-.151-5.335.525-3.639 1.582-3.951 2.817-2.663 5.612.734 1.595 1.143 3.227 1.056 5.018-.095 1.951.693 3.643 1.999 5.233 3.505-.271 6.928-.809 10.249-1.911-.116-1.696-.866-2.277-2.294-2.106-2.08.25-4.165.453-6.086.66l-.543-3.426 5.315-.736c-.287-.61-.437-.896-.557-1.191-.714-1.773-.852-1.872-2.635-1.738-.326.025-.646.116-.972.161-2.249.319-2.325.261-2.878-2.331.803-.283 1.615-.678 2.474-.848.852-.17 1.747-.116 2.723-.165l.146-2.757zm26.583 7.087c1.496.614 2.35 1.03 3.245 1.318 1.37.441 2.472 1.084 3.284 2.391.452.724 1.487 1.084 2.408 1.707l1.706-2.526c-2.156-2.718-5.222-3.61-7.864-5.231.334-.573.545-.916.739-1.268.629-1.15 1.397-2.249 1.844-3.467.753-2.054.043-3.148-2.067-3.562-1.935-.379-5.471 1.266-6.307 3.02-.227.48-.279 1.123-.198 1.659.413 2.755.784 5.527 1.407 8.239.283 1.229-.019 2.892 1.925 3.686l1.867-2.635-1.989-3.33zm-83.749 23.906c-1.296.434-2.437.792-3.559 1.198-2.762.995-4.553 2.654-4.576 5.902-.027 3.709-.53 7.424.648 11.056 1.516 4.677 7.072 7.035 11.545 4.867l.427-3.477c-.98.151-1.735.252-2.484.387-2.028.362-4.157.42-5.496-1.285-.968-1.233-1.669-2.948-1.803-4.509-.223-2.611-.031-5.281.231-7.904.25-2.503 1.083-3.061 3.703-3.148.695-.023 1.384-.141 2.232-.234l-.869-2.853zm135.724-.966c-.167-1.479-.217-3.229-.611-4.896-.2-.844-.935-1.634-1.605-2.259-.285-.267-1.023-.043-1.525-.043-1.201 6.079-2.37 12.022-5.178 17.38 1.159 1.175 2.057.769 2.635-.153.734-1.169 1.349-2.445 1.822-3.744.437-1.196 1.093-1.76 2.573-1.549.165.67.314 1.376.514 2.064.227.784.411 1.601.776 2.321.538 1.063 1.708 1.262 2.692.573.949-.664.897-1.194.146-2.414-.545-.883-1.027-1.895-1.168-2.9-.068-.492.71-1.103 1.281-1.907l-2.352-2.472zm10.817-4.671c.382-1.043.522-2.087-.485-2.881-.963-.755-2.075-.974-3.245-.478-.604.254-1.271.455-1.76.863-1.203 1.003-2.001 2.205-1.945 3.928.058 1.752.598 2.855 2.356 3.579 2.02.829 3.918 2.011 5.754 3.212 1.634 1.069 1.69 2.298.33 3.682-.365.372-.951.527-1.465.801-.285-.379-.487-.633-.673-.9-.237-.341-.458-.693-.652-.985-2.482 1.673-2.482 1.673-2.321 3.928 1.3.126 2.674.457 4.013.348 2.146-.176 3.544-1.489 4.337-3.514.805-2.054.307-3.802-1.318-5.099-1.589-1.268-3.336-2.35-5.088-3.388-.984-.583-2.069-.964-2.352-2.22 1.164-2.182 3.002-.457 4.514-.875zm-78.172-13.369l2.146 1.733c2.088-.838 1.549-2.53 1.498-3.963 2.104 1.332 4.091 2.592 6.125 3.881 1.038-2.615 1.069-2.65-.613-4.09-.741-.633-1.655-1.063-2.461-1.628-.706-.492-1.372-1.043-2.067-1.578 3.338-3.874 3.487-5.264.976-7.61-1.046.205-2.104.362-3.138.618-2.294.571-3.177 2.071-2.709 4.329.351 1.686.514 3.411.914 5.084.281 1.171.285 2.209-.671 3.223zm.388 31.175c1.84 2.513 3.262 3.061 5.203 1.928.908-.53 1.875-1.175 2.447-2.019 1.613-2.389 2.108-5.2-1.281-7.014-1.009-.54-2.059-1.012-3.111-1.462-.778-.335-1.601-.623-1.52-1.671.078-1.016.72-1.647 1.669-1.918.704-.199 1.432-.319 2.154-.453.722-.132 1.551-.066 2.139-.416.417-.248.644-1.034.687-1.601.019-.232-.726-.794-1.032-.734-2.393.47-4.883.618-6.992 2.11-2.358 1.667-2.069 6.189.776 6.826 1.11.248 2.185.693 3.249 1.111 1.735.676 2.554 2.311 1.906 3.694-.671 1.434-2.317 1.94-3.934 1.024-1.005-.567-1.648-.424-2.36.596zm40.057-49.111c.475-1.62-.291-2.46-2.065-2.592-.922 2.35-1.838 4.714-2.777 7.068-.396.993-.71 2.064-2.17 1.913-1.304-.137-1.853-.892-1.981-2.098-.033-.302-.093-.602-.202-1.309-1.089.587-2.04.894-2.713 1.508-1.195 1.088-.928 2.435.503 3.175.654.337 1.353.59 2.042.858 2.08.807 2.018.796 1.793 2.95-.19 1.839-.215 3.694-.307 5.44 1.572.573 2.183-.056 2.422-1.185.12-.556.13-1.144.138-1.717.025-1.907.078-3.744 1.529-5.298.567-.608.706-1.636.98-2.493.452-1.411.761-2.873 1.316-4.241.299-.741.982-1.326 1.492-1.982zm-25.863 34.677c.611-.05 1.102-.165 1.576-.118 4.762.476 9.432-.482 14.136-.871.757-.062 1.554-.174 1.487-1.216-.056-.867-.613-1.347-1.457-1.365-.734-.014-1.504-.025-2.201.168-3.724 1.032-7.458.484-11.196.197-.629-.048-1.277.039-1.91.124-1.089.149-1.3.875-1.038 1.804.109.389.345.741.602 1.278zm77.467-1.183c.375-.823.693-1.194.685-1.558-.111-4.998-.268-9.993-.419-15.165h-2.928c-.186 5.124 1.448 10.105-.26 15.183.957.503 1.844.97 2.921 1.539zm-70.873 15.903c1.131-1.254 1.9-1.87 2.331-2.668.293-.548.419-1.642.091-1.99-1.219-1.285-1.085-2.797-1.195-4.332-.097-1.38-.285-2.77-.604-4.114-.206-.863-.97-1.417-1.869-1.045-.914.381-1.31 1.142-.91 2.217.367.989.739 2.011.864 3.047.229 1.868.217 3.767.423 5.639.101.91.468 1.791.869 3.246zm68.354-10.039c-.256.616-.629 1.084-.588 1.512.074.827.13 1.951.656 2.373.765.614 1.838.366 2.562-.552.487-.623 1.042-1.191 1.591-1.81l-1.584-2.069-2.637.546z" fill="#fff" sketch:type="MSShapeGroup"/><path d="M137.276 56.627l1.246 6.359.495.137 3.462-6.173 1.752-.499c1.426 1.841 2.461 3.632 2.748 5.999.256 2.12.272 4.491 2.141 6.166.33.296.235 1.069.369 1.806l-3.053 1.231c-1.879-3.33-1.331-7.163-2.923-10.626l-4.636 7.232c-2.226.141-2.187.134-2.536-1.891-.175-1.012-.518-1.994-.784-2.991l-.503.058c-.497 2.277-1.001 4.555-1.49 6.834-.068.323.014.705-.13.976-.439.836-.772 1.94-1.487 2.371-1.098.66-1.95-.316-2.657-1.109.027-.137.014-.242.06-.298.547-.652 1.475-1.235 1.591-1.953.495-3.076 2.263-5.875 1.962-9.114-.037-.41-.019-.827.002-1.239.138-2.838.986-3.56 4.372-3.277" fill="#000" sketch:type="MSShapeGroup"/><path d="M58.023 31.488c2.606 1.014 2.216 3.643 3.303 5.358 2.04-.84 1.49-4.001 3.899-4.323 3.138 1.971 2.734 5.304 3.437 8.177.34 1.39.652 2.788 1.023 4.385-1.327 1.527-1.327 1.527-3.489 1.191-.264-2.859-.53-5.751-.796-8.642l-.534-.112-4.085 5.651c-2.457-1.169-2.571-3.13-2.393-5.318-1.84 3.188-2.181 6.851-4.13 9.728-2.595-.356-3.107-1.098-1.828-3.202 1.566-2.577 2.391-5.399 3.342-8.194.157-.459.421-.947.382-1.398-.136-1.541.741-2.449 1.869-3.301" fill="#000" sketch:type="MSShapeGroup"/><path d="M40.023 83.585c-1.45.339-2.247.021-2.226-1.489.012-.885-.029-1.771-.06-2.654-.13-3.519-.289-7.035-.392-10.554-.054-1.806-.01-3.616-.01-5.78l1.386-1.212c1.106.017 1.681.681 1.554 2.035-.175 1.878-.503 3.74-.73 5.614-.116.962-.153 1.932-.254 3.26l6.33-.577c.008-1.502.087-2.948-.002-4.381l-.512-3.163c-.105-1.616.159-3.121 2.325-3.881.276.753.749 1.452.753 2.157.019 2.542-.338 5.103-.149 7.627.243 3.256-1.168 6.797 1.599 9.693l-2.08 2.929c-2.152-2.648-.811-5.699-1.941-8.349l-5.721 1.082v2.284c1.568.732 2.096 2.075.922 3.095-.831.722-.722 1.481-.792 2.263" fill="#000" sketch:type="MSShapeGroup"/><path d="M69.857 78.293l-2.373 3.072c-1.391-1.808-2.49-3.527-3.883-4.962-1.343-1.384-2.985-2.476-4.745-3.62.179 2.447 1.114 4.865-.862 7.391-.996.304-1.277-.801-1.403-1.864-.309-2.611-.481-5.238-.796-7.846-.126-1.03-.408-2.062-.765-3.039-.326-.889-.171-1.541.421-2.246.508-.606 1.122-1.301 1.234-2.027.458-2.973 2.991-4.673 6.315-3.254.347 1.895-.06 3.711-.813 5.478-.227.532-.518 1.034-.763 1.558-1.25 2.666-1.118 2.999 1.141 4.996 1.78 1.572 3.425 3.301 5.168 4.919.51.472 1.157.796 2.125 1.446zm-8.813-15.99c-2.177.484-2.956 2.22-2.587 5.453 1.508-1.57 2.09-3.345 2.587-5.453z" fill="#000" sketch:type="MSShapeGroup"/><path d="M85.561 61.729l-1.688.819-1.067-1.22c-1.426.364-2.841.726-4.545 1.163 2.162 1.694 2.129 4.034 2.189 6.235.058 2.104.668 3.86 2.236 5.577 1.197-.223 2.538-.474 3.879-.726.495 2.635.215 3.146-2.243 3.624-2.005.391-4.037.635-6.059.935-.241.035-.493.031-.739.023-1.487-.052-2.311-.571-2.164-1.421.212-1.218 1.122-1.216 2.08-1.103.237.027.485-.052.984-.114.541-4.336-1.514-8.436-1.325-13.017-1.469.656-2.835 1.251-4.186 1.876-1.378.635-1.908.213-2.393-1.967 1.562-2.089 4.077-1.818 6.216-2.453 1.952-.579 3.965-.947 5.913-1.537 1.896-.575 1.908-.623 2.399 1.423.132.548.297 1.09.512 1.884" fill="#000" sketch:type="MSShapeGroup"/><path d="M82.103 31.166l-.146 2.757c-.976.05-1.871-.004-2.723.165-.858.17-1.671.565-2.474.848.553 2.592.629 2.65 2.878 2.331.326-.046.646-.137.972-.161 1.783-.134 1.921-.035 2.635 1.738.12.296.27.581.557 1.191-1.908.265-3.639.505-5.315.736l.543 3.426c1.921-.207 4.007-.41 6.086-.66 1.428-.172 2.179.41 2.294 2.106-3.322 1.103-6.744 1.64-10.249 1.911-1.306-1.591-2.094-3.283-1.999-5.233.087-1.791-.322-3.423-1.056-5.018-1.287-2.795-.976-4.03 2.663-5.612 1.558-.676 3.309-1.599 5.335-.525" fill="#000" sketch:type="MSShapeGroup"/><path d="M108.686 38.253l1.989 3.33-1.867 2.635c-1.943-.794-1.642-2.457-1.925-3.686-.623-2.712-.994-5.484-1.407-8.239-.08-.536-.029-1.179.198-1.659.836-1.754 4.372-3.399 6.307-3.02 2.111.414 2.82 1.508 2.067 3.562-.448 1.218-1.215 2.317-1.844 3.467-.194.352-.404.695-.739 1.268 2.643 1.622 5.709 2.513 7.864 5.231l-1.706 2.526c-.92-.623-1.956-.983-2.408-1.707-.813-1.307-1.915-1.951-3.284-2.391-.895-.288-1.749-.703-3.245-1.318zm.204-3.289c2.736-2.662 2.861-2.9 2.399-4.394-2.808.98-3.039 1.371-2.399 4.394z" fill="#000" sketch:type="MSShapeGroup"/><path d="M24.937 62.159l.869 2.853c-.848.093-1.537.211-2.232.234-2.62.087-3.454.645-3.703 3.148-.262 2.623-.454 5.293-.231 7.904.134 1.562.836 3.277 1.803 4.509 1.339 1.704 3.468 1.647 5.496 1.285.749-.134 1.504-.236 2.484-.387l-.427 3.477c-4.473 2.168-10.029-.19-11.545-4.867-1.178-3.632-.675-7.347-.648-11.056.023-3.248 1.813-4.907 4.576-5.902 1.122-.405 2.263-.763 3.559-1.198" fill="#000" sketch:type="MSShapeGroup"/><path d="M160.662 61.193l2.352 2.472c-.571.805-1.349 1.415-1.281 1.907.14 1.005.623 2.017 1.168 2.9.751 1.22.803 1.75-.146 2.414-.984.689-2.154.49-2.692-.573-.365-.72-.549-1.537-.776-2.321-.2-.689-.349-1.394-.514-2.064-1.479-.211-2.135.354-2.573 1.549-.472 1.299-1.087 2.575-1.822 3.744-.578.923-1.475 1.328-2.635.153 2.808-5.358 3.978-11.3 5.178-17.38.501 0 1.24-.223 1.525.043.671.625 1.405 1.415 1.605 2.259.394 1.667.444 3.417.611 4.896" fill="#000" sketch:type="MSShapeGroup"/><path d="M171.478 56.522c-1.512.418-3.35-1.307-4.514.875.283 1.256 1.368 1.636 2.352 2.22 1.752 1.038 3.499 2.12 5.088 3.388 1.626 1.297 2.123 3.045 1.318 5.099-.792 2.025-2.191 3.339-4.337 3.514-1.339.11-2.713-.221-4.013-.348-.161-2.255-.161-2.255 2.321-3.928.194.292.415.643.652.985.186.267.388.521.673.9.514-.273 1.1-.428 1.465-.801 1.36-1.384 1.304-2.613-.33-3.682-1.836-1.202-3.734-2.383-5.754-3.212-1.758-.724-2.298-1.827-2.356-3.579-.056-1.723.743-2.925 1.945-3.928.489-.408 1.155-.608 1.76-.863 1.17-.496 2.282-.277 3.245.478 1.007.794.866 1.839.485 2.881" fill="#000" sketch:type="MSShapeGroup"/><path d="M93.306 43.153c.955-1.014.951-2.052.671-3.223-.4-1.673-.563-3.399-.914-5.084-.468-2.259.415-3.759 2.709-4.329 1.034-.256 2.092-.414 3.138-.616 2.511 2.344 2.362 3.734-.976 7.608.695.536 1.362 1.086 2.067 1.578.807.565 1.721.995 2.461 1.628 1.681 1.44 1.65 1.475.613 4.09l-6.125-3.881c.052 1.434.59 3.126-1.498 3.963l-2.146-1.733zm4.795-9.993c-2.391.426-2.412.449-2.418 2.267 1.655-.604 1.655-.604 2.418-2.267z" fill="#000" sketch:type="MSShapeGroup"/><path d="M93.694 74.328c.712-1.02 1.355-1.163 2.36-.596 1.617.916 3.264.41 3.934-1.024.648-1.384-.171-3.018-1.906-3.694-1.065-.418-2.139-.863-3.249-1.111-2.845-.637-3.134-5.159-.776-6.826 2.108-1.491 4.599-1.64 6.992-2.11.305-.06 1.05.503 1.032.734-.043.567-.27 1.353-.687 1.601-.588.35-1.417.283-2.139.416-.722.134-1.45.254-2.154.453-.949.271-1.591.902-1.669 1.918-.08 1.049.743 1.336 1.52 1.671 1.052.451 2.102.923 3.111 1.462 3.39 1.814 2.895 4.625 1.281 7.014-.571.844-1.539 1.489-2.447 2.019-1.941 1.134-3.363.585-5.203-1.928" fill="#000" sketch:type="MSShapeGroup"/><path d="M133.751 25.217c-.51.656-1.192 1.241-1.492 1.982-.555 1.367-.864 2.83-1.316 4.241-.274.856-.413 1.884-.98 2.493-1.45 1.553-1.504 3.39-1.529 5.298-.008.573-.019 1.16-.138 1.717-.239 1.129-.85 1.758-2.422 1.185.093-1.746.118-3.601.307-5.44.225-2.153.287-2.143-1.793-2.95-.689-.269-1.388-.521-2.042-.858-1.432-.741-1.698-2.087-.503-3.175.673-.614 1.624-.921 2.713-1.508.109.707.169 1.007.202 1.309.128 1.206.677 1.961 1.981 2.098 1.461.151 1.774-.921 2.17-1.913.939-2.354 1.855-4.718 2.777-7.068 1.774.132 2.54.972 2.065 2.592" fill="#000" sketch:type="MSShapeGroup"/><path d="M107.888 59.894c-.258-.538-.493-.889-.602-1.278-.262-.929-.052-1.655 1.038-1.804.633-.085 1.281-.172 1.91-.124 3.738.288 7.472.836 11.196-.197.697-.192 1.467-.182 2.201-.168.844.019 1.401.499 1.457 1.365.066 1.043-.73 1.154-1.487 1.216-4.704.389-9.375 1.347-14.136.871-.475-.048-.966.068-1.576.118" fill="#000" sketch:type="MSShapeGroup"/><path d="M185.355 58.711c-1.077-.569-1.964-1.036-2.921-1.539 1.708-5.078.074-10.059.26-15.183h2.928c.151 5.171.307 10.167.419 15.165.008.364-.309.734-.685 1.558" fill="#000" sketch:type="MSShapeGroup"/><path d="M114.481 74.614c-.4-1.454-.767-2.335-.869-3.246-.206-1.872-.194-3.771-.423-5.639-.126-1.036-.497-2.058-.864-3.047-.4-1.076-.004-1.837.91-2.217.9-.372 1.663.182 1.869 1.045.32 1.345.508 2.735.604 4.114.109 1.535-.025 3.047 1.195 4.332.328.348.202 1.442-.091 1.99-.431.798-1.201 1.415-2.331 2.668" fill="#000" sketch:type="MSShapeGroup"/><path d="M182.836 64.575l2.637-.546 1.584 2.069c-.549.618-1.104 1.187-1.591 1.81-.724.918-1.797 1.167-2.562.552-.526-.422-.582-1.545-.656-2.373-.041-.428.332-.896.588-1.512" fill="#000" sketch:type="MSShapeGroup"/><path d="M61.043 62.304c-.497 2.108-1.079 3.883-2.587 5.453-.369-3.233.411-4.969 2.587-5.453" fill="#fff" sketch:type="MSShapeGroup"/><path d="M108.89 34.964c-.64-3.022-.408-3.413 2.399-4.394.462 1.493.336 1.731-2.399 4.394" fill="#fff" sketch:type="MSShapeGroup"/><path d="M98.101 33.16c-.763 1.663-.763 1.663-2.418 2.267.006-1.818.027-1.841 2.418-2.267" fill="#fff" sketch:type="MSShapeGroup"/></g></svg>