<svg width="192" height="115" viewBox="0 0 192 115" xmlns="http://www.w3.org/2000/svg" xmlns:sketch="http://www.bohemiancoding.com/sketch/ns"><title>mr-tannen-hover</title><desc>Created with Sketch.</desc><g sketch:type="MSArtboardGroup" fill="none"><path opacity=".87" sketch:type="MSShapeGroup" d="M-536-506h1024v1024h-1024z"/><g sketch:type="MSShapeGroup"><path d="M191.294 8.932c-.232 3.24-.498 6.398-.676 9.562-.152 2.696-.292 5.334.59 8.044.562 1.724.186 3.8.04 5.704-.598 7.806-1.414 15.596-1.862 23.408-.284 4.938-.13 9.906-.02 14.856.03 1.388.598 2.762 1.008 4.522l-1.994 1.546c-.078.184-.338.488-.306.756.408 3.516-.186 6.984-.39 10.474-.156 2.708-.24 5.442-.044 8.142.278 3.828-.82 7.574-.39 11.434.154 1.376-.438 3.124-1.874 4.236-.732.566-1.192 1.486-1.864 2.362-3.24.714-6.646.66-9.898.166-5.398-.818-10.798-.998-16.222-1.204-3.988-.152-7.97-.568-11.944-.962-4.588-.456-9.166-1.02-13.748-1.53-.636-.07-1.276-.112-1.914-.14-6.222-.28-12.444-.69-18.67-.778-3.982-.056-7.974.336-11.96.582-3.514.218-7 .286-10.502-.364-1.868-.346-3.824-.296-5.74-.296-6.232-.002-12.466-.002-18.698.114-4.312.078-8.626.572-12.932.486-10.218-.202-20.434-.616-30.648-.988-3.336-.122-6.666-.376-10-.568-2.444-.142-4.71-.866-6.784-2.154-1.394-.866-1.888-1.71-1.298-3.21.742-1.882.618-3.744.594-5.656-.066-5.582.306-11.202-.22-16.738-.818-8.624-.142-17.218.016-25.808.104-5.606-.088-11.158-.438-16.734-.17-2.704-.108-5.43-.018-8.142.16-4.824-.554-9.562-1.154-14.32-.396-3.152-.646-6.328-.872-9.5-.118-1.666 1.418-3.264-.252-4.838 3.79-1.204 9.526-1.598 16.192-1.228.276.292.612.616.912.974.304.364.57.758.884 1.18 2.984.798 6.006.536 9.032.216 1.264-.134 2.546-.386 3.802-.3 5.578.384 11.144.944 16.724 1.298 5.892.374 11.776 1.024 17.702.518 6.232-.534 12.456-.196 18.684.242 3.658.258 7.338.158 11.004.312 5.896.244 11.786.576 17.678.848 1.118.052 2.244.07 3.358-.012 6.392-.466 12.74.15 19.098.648 4.444.35 8.964.1 13.346.784 5.288.824 10.498.17 15.742.146 1.748-.01 3.498-.012 5.246.05 3.502.126 7.002.262 10.498.466 3.338.194 6.672.456 10.002.748.42.036.81.434 1.18.646zm-187.072-1.81c0 2.05-.106 3.958.02 5.85.364 5.574.888 11.138 1.218 16.714.206 3.502.152 7.02.254 10.53.11 3.668.334 7.334.386 11.004.072 4.95-.002 9.902.042 14.854.028 3.006.532 6.058.168 9.01-.73 5.894-.148 11.792-.502 17.674-.038.636-.076 1.312.096 1.91.39 1.354 1.206 2.648 1.304 4.008.11 1.544-.394 3.128-.574 4.7-.032.274.214.578.48 1.232 1.438.384 3.084 1.034 4.782 1.234 3.168.37 6.364.58 9.554.676 8.128.248 16.258.466 24.388.568 8.29.104 16.588.236 24.872.016 6.71-.176 13.388-.462 20.1.146 3.802.344 7.66.118 11.492.04 2.548-.052 5.096-.468 7.64-.422 6.382.118 12.76.404 19.14.626 1.278.044 2.562.042 3.832.174 6.98.728 13.942 1.686 20.938 2.19 8.274.596 16.516 1.88 24.852 1.394 1.084-.064 2.166-.154 3.434-.244 1.108-5.15 2.118-10.116 2.368-15.22.354-7.176.718-14.35 1.184-21.52.144-2.22.806-4.406.92-6.624.148-2.868-.042-5.754-.038-8.63.004-2.716.066-5.434.112-8.15.044-2.81-1.204-5.546-.42-8.42.13-.476-.414-1.138-.7-1.844l-2.632 3.636-2.28-2.156c-.648 1.01-1.124 2.044-1.864 2.83-.846.9-1.68.71-2.06-.456 1.522-3.432 2.996-6.782 4.502-10.118.312-.69.47-1.596 1.482-1.654 1.094-.062 1.19.784 1.398 1.568.47 1.794 1.484 1.184 2.618.442 1.068-6.554.888-13.254.798-19.944-.016-1.208-.572-2.408-.854-3.52-.938-.246-1.546-.506-2.168-.55-8.282-.592-16.556-1.36-24.88-.792-2.528.174-5.116.382-7.608.054-5.712-.754-11.41-1.39-17.184-1.256-2.232.054-4.47-.146-6.704-.23-1.586-.06-3.17-.164-4.754-.166-6.218-.012-12.424.246-18.656-.264-6.018-.49-12.054-1.73-18.142-.51-.592.12-1.256-.162-1.89-.192-4.302-.204-8.606-.6-12.902-.538-9.424.136-18.826.334-28.224-.8-5.85-.704-11.756-1.078-17.646-1.302-4.456-.17-8.944-.056-13.386.3-2.66.214-5.432.474-8.306 2.142z" fill="#000"/><path d="M4.222 7.122c2.874-1.668 5.646-1.928 8.306-2.142 4.442-.356 8.93-.47 13.386-.3 5.89.224 11.796.598 17.646 1.302 9.398 1.134 18.8.936 28.224.8 4.296-.062 8.6.334 12.902.538.634.03 1.298.312 1.89.192 6.088-1.22 12.124.02 18.142.51 6.232.51 12.438.252 18.656.264 1.584.002 3.168.106 4.754.166 2.234.084 4.472.284 6.704.23 5.774-.134 11.472.502 17.184 1.256 2.492.328 5.08.12 7.608-.054 8.324-.568 16.598.2 24.88.792.622.044 1.23.304 2.168.55.282 1.112.838 2.312.854 3.52.09 6.69.27 13.39-.798 19.944-1.134.742-2.148 1.352-2.618-.442-.208-.784-.304-1.63-1.398-1.568-1.012.058-1.17.964-1.482 1.654-1.506 3.336-2.98 6.686-4.502 10.118.38 1.166 1.214 1.356 2.06.456.74-.786 1.216-1.82 1.864-2.83l2.28 2.156 2.632-3.636c.286.706.83 1.368.7 1.844-.784 2.874.464 5.61.42 8.42-.046 2.716-.108 5.434-.112 8.15-.004 2.876.186 5.762.038 8.63-.114 2.218-.776 4.404-.92 6.624-.466 7.17-.83 14.344-1.184 21.52-.25 5.104-1.26 10.07-2.368 15.22-1.268.09-2.35.18-3.434.244-8.336.486-16.578-.798-24.852-1.394-6.996-.504-13.958-1.462-20.938-2.19-1.27-.132-2.554-.13-3.832-.174-6.38-.222-12.758-.508-19.14-.626-2.544-.046-5.092.37-7.64.422-3.832.078-7.69.304-11.492-.04-6.712-.608-13.39-.322-20.1-.146-8.284.22-16.582.088-24.872-.016-8.13-.102-16.26-.32-24.388-.568-3.19-.096-6.386-.306-9.554-.676-1.698-.2-3.344-.85-4.782-1.234-.266-.654-.512-.958-.48-1.232.18-1.572.684-3.156.574-4.7-.098-1.36-.914-2.654-1.304-4.008-.172-.598-.134-1.274-.096-1.91.354-5.882-.228-11.78.502-17.674.364-2.952-.14-6.004-.168-9.01-.044-4.952.03-9.904-.042-14.854-.052-3.67-.276-7.336-.386-11.004-.102-3.51-.048-7.028-.254-10.53-.33-5.576-.854-11.14-1.218-16.714-.126-1.892-.02-3.8-.02-5.85zm27.48 32.962c-.454-1.902-.562-3.046-1.02-4.028-.284-.61-1.03-1.182-1.688-1.39-.83-.262-1.478.32-1.82 1.142-1.588 3.81-3.214 7.604-4.724 11.442-.166.424.152 1.314.534 1.602.402.304 1.154.142 1.83.188.52-1.302.922-2.484 1.458-3.604.55-1.146.698-2.528 1.858-3.904.298 1.28.394 2.066.666 2.784.678 1.806 1.95 1.978 3.228.624 1.14-1.206 1.484-3.058 3.43-4.32.49 2.4.772 4.374.734 6.418-.018.938.056 1.894.236 2.812.194.986 1.536 1.34 2.266.636.684-.662 1.33-1.368 1.082-2.462-.67-2.936-1.286-5.884-2.018-8.802-.268-1.062-.75-2.08-1.23-3.072-.324-.664-1.628-.732-2.068-.126-.814 1.126-1.566 2.298-2.754 4.06zm53.83 24.102l-3.876 5.33c-1.94-2.06-1.166-5.29-3.848-6.826-.406.272-1.182.502-1.354.958-1.402 3.716-2.716 7.464-3.99 11.224-.276.818.024 1.59.968 1.864.828.24 1.678.134 2.056-.7.386-.852.596-1.804.766-2.734.264-1.446.494-2.882 1.616-4.316.63 2.21 1.148 4.026 1.716 6.014 3.81-.574 3.64-4.634 6.126-6.336 2.144 2.844.434 6.936 2.936 9.848 1.662-.892 2.472-2.198 1.684-3.568-1.102-1.91-1.082-3.97-1.56-5.964-.294-1.228-.674-2.476-1.282-3.57-.306-.552-1.202-.778-1.958-1.224zm34.884 6.316c-2.628-1.58-2.752-1.676-3.908-4.276-.646-1.454-1.142-2.974-1.772-4.436-.288-.664-1.646-.6-2.024.044-.082.138-.184.27-.232.42-1.378 4.408-2.752 8.82-4.114 13.234-.044.138-.008.34.068.466.16.26.338.644.572.696.424.096 1.18.146 1.296-.064.532-.956.954-1.99 1.292-3.034.346-1.06.476-2.19.834-3.244.326-.956-.06-2.266 1.442-2.942.676 1.094 1.216 2.228 1.996 3.16.908 1.084 1.94 2.112 3.078 2.946 1.182.866 2.668.424 3.192-.89.53-1.324.872-2.728 1.238-4.112.844-3.19 1.654-6.388 2.574-9.952-.574-.204-1.436-.798-2.178-.674-.506.086-.946 1.136-1.218 1.832-.224.572-.1 1.27-.228 1.892-.61 2.944-1.254 5.882-1.908 8.934zm21.444-32.636c-.218 3.344-.458 6.51-.616 9.678-.066 1.372 1.028 2.37 2.45 2.374 2.76.004 4.956-1.262 6.614-3.33 1.074-1.34 1.11-3.002.182-4.502-.572-.924-1.34-1.724-2.186-2.786.644-.75 1.256-1.44 1.844-2.152.63-.76 1.14-1.59.628-2.6-.52-1.028-1.556-1.016-2.498-1.01-1.11.008-2.228.084-3.322.262-.42.068-.834.448-1.152.78-.186.192-.278.592-.226.862.048.262.31.65.524.682 1.008.148 2.032.194 3.234.29-1.358 3.072-3.642 1.406-5.476 1.452zm-46.394 7.228l-.878.132c-.312-.7-.716-1.376-.916-2.108-.418-1.538-.704-3.11-1.094-4.656-.236-.93-.548-1.966-1.706-2-1.318-.04-1.258 1.08-1.464 2.024-.742 3.418-1.572 6.814-2.35 10.224-.104.458-.178.948-.126 1.406.028.264.308.668.526.706.434.074 1.072.102 1.32-.15.414-.422.662-1.056.85-1.642.43-1.348.78-2.722 1.28-4.504 1.008 1.948 1.682 3.54 2.628 4.95.44.654 1.408.952 2.334 1.536.516-1.224 1.008-2.058 1.222-2.96.728-3.096 1.366-6.214 2.018-9.328.062-.3.096-.706-.054-.936-.316-.484-.684-1.048-1.174-1.276-.742-.346-1.656.28-1.79 1.082-.078.462-.078.936-.118 1.404l-.508 6.096zm-49.922 4.032l5.818 2.786c-.086-1.304.086-2.15-.236-2.714-.438-.764-1.146-1.564-1.93-1.896-1.324-.558-2.734-.85-3.226-2.512.836-1.324 1.768-2.608 2.482-4.002.494-.962.82-2.056.974-3.128.166-1.146-.236-2.19-1.354-2.814-1.13-.632-2.454-.508-3.47.516-.986.99-1.854 2.098-2.656 3.016.118 3.176.23 6.17.336 9.164.022.63-.03 1.266.036 1.892.12 1.1 1.014 1.436 2.062.76.388-.252.694-.63 1.164-1.068zm126.348-3.136c.368.846.646 1.76 1.14 2.54.468.74 1.202.988 1.808.398.286-4.106.572-8.048.818-11.992.038-.614-.01-1.282-.226-1.846-.14-.362-.652-.788-1.012-.802-.368-.014-.988.372-1.086.704-.356 1.21-.494 2.484-.804 3.71-.306 1.218-.532 2.52-1.154 3.574-.414.704-1.43 1.39-2.226 1.452-1.048.082-1.51-1.026-1.646-1.986-.154-1.094-.154-2.21-.19-3.32-.03-.95.068-1.914-.052-2.852-.086-.67-.646-1.142-1.35-.988-.388.084-.968.506-1 .824-.174 1.734-.288 3.486-.27 5.23.056 5.236 2.104 6.744 7.25 5.354zm-92.074-.518c.384 1.2.77 2.556 1.254 3.874.494 1.342 1.29 1.3 2.604.044-.346-1.946-.61-3.792-1.018-5.604-.446-1.984-1.032-3.938-1.54-5.908-.198-.766-.226-1.61-.574-2.294-.238-.466-.86-.86-1.386-1.004-.282-.076-.908.362-1.066.71-.718 1.59-1.404 3.204-1.956 4.858-.908 2.714-1.582 5.516-3.448 7.808-.186.23-.336.594-.302.87.054.442.168.968.456 1.27.534.562 1.254.378 1.628-.176.704-1.046 1.22-2.214 1.88-3.288.74-1.2 1.786-1.744 3.468-1.16zm23.536-1.226c1.098 2.142 1.746 3.586 2.554 4.934.628 1.046 2.14.84 2.696-.278l.19-.436c1.546-3.734 1.206-7.788 1.92-11.666.056-.308-.762-1.056-1.226-1.104-.434-.046-1.286.514-1.346.9-.218 1.4-.136 2.842-.254 4.262-.098 1.194.188 2.518-.814 3.518-2.362-1.516-.944-5.554-4.372-6.17-1.886 1.62-.964 3.992-1.792 5.836-.832 1.852-1.654 3.708-2.442 5.478 1.342 1.31 2.268.716 2.842-.368.714-1.35 1.194-2.824 2.044-4.906zm26.218-6.972c-.382 1.642-.62 2.714-.882 3.778-.598 2.422-.208 5.124-2.07 7.208-.11.122.288.814.576 1.126.134.146.682.134.848-.018.686-.624 1.388-1.268 1.91-2.026.504-.734.798-1.614 1.28-2.634.88 1.19 1.454 2.14 2.2 2.924.802.844 2.372.568 2.868-.454.34-.704.596-1.468.756-2.234.55-2.642 1.054-5.294 1.542-7.948.086-.46.14-.992-.012-1.41-.136-.372-.538-.82-.894-.894-.368-.078-1.068.15-1.19.43-.364.848-.706 1.782-.716 2.688-.026 2.178-.342 4.242-1.292 6.292-2.29-1.788-1.442-5.398-4.924-6.828zm-14.226-.17c0 3.042-.06 5.734.026 8.422.04 1.244.196 2.538.6 3.706.494 1.434 1.528 1.962 3.052 1.658 1.718-.342 3.406-.854 5.086-1.362.916-.276 1.496-1.304 1.02-1.762-.382-.368-1.082-.66-1.59-.596-1.544.198-3.064.586-4.788.94l-.858-3.19c1.704-1.858 4.242-1.888 5.774-3.57-1.842-3.152-3.832.298-5.596-.504-.578-.706-.762-1.48.208-1.93 1.442-.666 2.982-1.126 4.43-1.782.314-.142.688-.926.572-1.098-.32-.47-.996-1.166-1.34-1.074-2.138.578-4.224 1.346-6.596 2.142zm44.832-4.342c-.72.246-1.6.286-1.748.634-1.794 4.256-3.498 8.548-5.158 12.858-.124.322.15 1.016.454 1.22.254.172 1.044.026 1.212-.23.78-1.184 1.424-2.458 2.14-3.74h3.122c1.122 1.19.962 2.95 2.528 3.696.396-.296.976-.502 1.06-.832.464-1.86.248-3.812-.762-5.326-.742-1.112-1.17-2.208-1.496-3.434-.406-1.528-.848-3.046-1.352-4.846zm-65.686 43.836c1.786.802 2.47.158 2.996-1.02.836-1.872 2.114-3.05 4.522-2.522.094 1.198.052 2.316.322 3.35.112.428.916.968 1.364.934.466-.036.934-.664 1.302-1.114.166-.206.144-.61.124-.918-.084-1.414.134-2.956-.366-4.21-1.018-2.55-1.79-5.382-4.5-6.832-.342-.184-.894.024-1.46.058l-4.304 12.274zm-32.042-37.332c.166 1.982.304 3.866.488 5.746.122 1.258.2 2.54.53 3.75.11.4.984.886 1.428.814.408-.064 1.016-.826 1.008-1.272-.056-3.154-.248-6.306-.41-9.728l4.688.502c.132-.754.56-1.622.3-2.146-.284-.568-1.252-1.206-1.846-1.14-3.184.352-6.346.526-9.53.064-.292-.042-.67.04-.91.208-.37.256-.942.668-.912.958.062.554.38 1.41.78 1.532 1.176.362 2.442.428 4.386.712zm-4.822 9.664c-.174-.242-.296-.586-.532-.706-.8-.412-1.46-.07-2.062.496-.588.554-1.068 1.146-.706 1.998.104.248.378.53.626.59 1.33.322 2.82-1.028 2.674-2.378z" fill="#fff"/><path fill="#fff" d="M140.5 39.5h11v12h-11z"/><path d="M31.702 40.084c1.188-1.762 1.94-2.934 2.754-4.06.44-.606 1.744-.538 2.068.126.48.992.962 2.01 1.23 3.072.732 2.918 1.348 5.866 2.018 8.802.248 1.094-.398 1.8-1.082 2.462-.73.704-2.072.35-2.266-.636-.18-.918-.254-1.874-.236-2.812.038-2.044-.244-4.018-.734-6.418-1.946 1.262-2.29 3.114-3.43 4.32-1.278 1.354-2.55 1.182-3.228-.624-.272-.718-.368-1.504-.666-2.784-1.16 1.376-1.308 2.758-1.858 3.904-.536 1.12-.938 2.302-1.458 3.604-.676-.046-1.428.116-1.83-.188-.382-.288-.7-1.178-.534-1.602 1.51-3.838 3.136-7.632 4.724-11.442.342-.822.99-1.404 1.82-1.142.658.208 1.404.78 1.688 1.39.458.982.566 2.126 1.02 4.028" fill="#000"/><path d="M85.532 64.186c.756.446 1.652.672 1.958 1.224.608 1.094.988 2.342 1.282 3.57.478 1.994.458 4.054 1.56 5.964.788 1.37-.022 2.676-1.684 3.568-2.502-2.912-.792-7.004-2.936-9.848-2.486 1.702-2.316 5.762-6.126 6.336-.568-1.988-1.086-3.804-1.716-6.014-1.122 1.434-1.352 2.87-1.616 4.316-.17.93-.38 1.882-.766 2.734-.378.834-1.228.94-2.056.7-.944-.274-1.244-1.046-.968-1.864 1.274-3.76 2.588-7.508 3.99-11.224.172-.456.948-.686 1.354-.958 2.682 1.536 1.908 4.766 3.848 6.826l3.876-5.33" fill="#000"/><path d="M120.416 70.502c.654-3.052 1.298-5.99 1.908-8.934.128-.622.004-1.32.228-1.892.272-.696.712-1.746 1.218-1.832.742-.124 1.604.47 2.178.674-.92 3.564-1.73 6.762-2.574 9.952-.366 1.384-.708 2.788-1.238 4.112-.524 1.314-2.01 1.756-3.192.89-1.138-.834-2.17-1.862-3.078-2.946-.78-.932-1.32-2.066-1.996-3.16-1.502.676-1.116 1.986-1.442 2.942-.358 1.054-.488 2.184-.834 3.244-.338 1.044-.76 2.078-1.292 3.034-.116.21-.872.16-1.296.064-.234-.052-.412-.436-.572-.696-.076-.126-.112-.328-.068-.466 1.362-4.414 2.736-8.826 4.114-13.234.048-.15.15-.282.232-.42.378-.644 1.736-.708 2.024-.044.63 1.462 1.126 2.982 1.772 4.436 1.156 2.6 1.28 2.696 3.908 4.276" fill="#000"/><path d="M141.86 37.866c1.834-.046 4.118 1.62 5.476-1.452-1.202-.096-2.226-.142-3.234-.29-.214-.032-.476-.42-.524-.682-.052-.27.04-.67.226-.862.318-.332.732-.712 1.152-.78 1.094-.178 2.212-.254 3.322-.262.942-.006 1.978-.018 2.498 1.01.512 1.01.002 1.84-.628 2.6-.588.712-1.2 1.402-1.844 2.152.846 1.062 1.614 1.862 2.186 2.786.928 1.5.892 3.162-.182 4.502-1.658 2.068-3.854 3.334-6.614 3.33-1.422-.004-2.516-1.002-2.45-2.374.158-3.168.398-6.334.616-9.678zm2.49 3.966c0 1.032-.054 1.788.014 2.53.082.876.27 1.74.428 2.718 1.906-.3 3.502-.868 3.492-2.728-.01-1.922-1.666-2.386-3.934-2.52z" fill="#000"/><path d="M95.466 45.094l.508-6.096c.04-.468.04-.942.118-1.404.134-.802 1.048-1.428 1.79-1.082.49.228.858.792 1.174 1.276.15.23.116.636.054.936-.652 3.114-1.29 6.232-2.018 9.328-.214.902-.706 1.736-1.222 2.96-.926-.584-1.894-.882-2.334-1.536-.946-1.41-1.62-3.002-2.628-4.95-.5 1.782-.85 3.156-1.28 4.504-.188.586-.436 1.22-.85 1.642-.248.252-.886.224-1.32.15-.218-.038-.498-.442-.526-.706-.052-.458.022-.948.126-1.406.778-3.41 1.608-6.806 2.35-10.224.206-.944.146-2.064 1.464-2.024 1.158.034 1.47 1.07 1.706 2 .39 1.546.676 3.118 1.094 4.656.2.732.604 1.408.916 2.108l.878-.132" fill="#000"/><path d="M45.544 49.126c-.47.438-.776.816-1.164 1.068-1.048.676-1.942.34-2.062-.76-.066-.626-.014-1.262-.036-1.892-.106-2.994-.218-5.988-.336-9.164.802-.918 1.67-2.026 2.656-3.016 1.016-1.024 2.34-1.148 3.47-.516 1.118.624 1.52 1.668 1.354 2.814-.154 1.072-.48 2.166-.974 3.128-.714 1.394-1.646 2.678-2.482 4.002.492 1.662 1.902 1.954 3.226 2.512.784.332 1.492 1.132 1.93 1.896.322.564.15 1.41.236 2.714l-5.818-2.786zm.83-10.006l-.274-.312c-.096.23-.218.454-.27.692-.014.072.17.186.262.282l.282-.662z" fill="#000"/><path d="M171.892 45.99c-5.146 1.39-7.194-.118-7.25-5.354-.018-1.744.096-3.496.27-5.23.032-.318.612-.74 1-.824.704-.154 1.264.318 1.35.988.12.938.022 1.902.052 2.852.036 1.11.036 2.226.19 3.32.136.96.598 2.068 1.646 1.986.796-.062 1.812-.748 2.226-1.452.622-1.054.848-2.356 1.154-3.574.31-1.226.448-2.5.804-3.71.098-.332.718-.718 1.086-.704.36.014.872.44 1.012.802.216.564.264 1.232.226 1.846-.246 3.944-.532 7.886-.818 11.992-.606.59-1.34.342-1.808-.398-.494-.78-.772-1.694-1.14-2.54" fill="#000"/><path d="M79.818 45.472c-1.682-.584-2.728-.04-3.468 1.16-.66 1.074-1.176 2.242-1.88 3.288-.374.554-1.094.738-1.628.176-.288-.302-.402-.828-.456-1.27-.034-.276.116-.64.302-.87 1.866-2.292 2.54-5.094 3.448-7.808.552-1.654 1.238-3.268 1.956-4.858.158-.348.784-.786 1.066-.71.526.144 1.148.538 1.386 1.004.348.684.376 1.528.574 2.294.508 1.97 1.094 3.924 1.54 5.908.408 1.812.672 3.658 1.018 5.604-1.314 1.256-2.11 1.298-2.604-.044-.484-1.318-.87-2.674-1.254-3.874zm-.87-4.23l-.228-.39c-.1.11-.304.27-.28.32.084.178.246.32.378.474l.13-.404z" fill="#000"/><path d="M103.354 44.246c-.85 2.082-1.33 3.556-2.044 4.906-.574 1.084-1.5 1.678-2.842.368.788-1.77 1.61-3.626 2.442-5.478.828-1.844-.094-4.216 1.792-5.836 3.428.616 2.01 4.654 4.372 6.17 1.002-1 .716-2.324.814-3.518.118-1.42.036-2.862.254-4.262.06-.386.912-.946 1.346-.9.464.048 1.282.796 1.226 1.104-.714 3.878-.374 7.932-1.92 11.666l-.19.436c-.556 1.118-2.068 1.324-2.696.278-.808-1.348-1.456-2.792-2.554-4.934" fill="#000"/><path d="M129.572 37.274c3.482 1.43 2.634 5.04 4.924 6.828.95-2.05 1.266-4.114 1.292-6.292.01-.906.352-1.84.716-2.688.122-.28.822-.508 1.19-.43.356.074.758.522.894.894.152.418.098.95.012 1.41-.488 2.654-.992 5.306-1.542 7.948-.16.766-.416 1.53-.756 2.234-.496 1.022-2.066 1.298-2.868.454-.746-.784-1.32-1.734-2.2-2.924-.482 1.02-.776 1.9-1.28 2.634-.522.758-1.224 1.402-1.91 2.026-.166.152-.714.164-.848.018-.288-.312-.686-1.004-.576-1.126 1.862-2.084 1.472-4.786 2.07-7.208.262-1.064.5-2.136.882-3.778" fill="#000"/><path d="M115.346 37.104c2.372-.796 4.458-1.564 6.596-2.142.344-.092 1.02.604 1.34 1.074.116.172-.258.956-.572 1.098-1.448.656-2.988 1.116-4.43 1.782-.97.45-.786 1.224-.208 1.93 1.764.802 3.754-2.648 5.596.504-1.532 1.682-4.07 1.712-5.774 3.57l.858 3.19c1.724-.354 3.244-.742 4.788-.94.508-.064 1.208.228 1.59.596.476.458-.104 1.486-1.02 1.762-1.68.508-3.368 1.02-5.086 1.362-1.524.304-2.558-.224-3.052-1.658-.404-1.168-.56-2.462-.6-3.706-.086-2.688-.026-5.38-.026-8.422" fill="#000"/><path d="M160.178 32.762c.504 1.8.946 3.318 1.352 4.846.326 1.226.754 2.322 1.496 3.434 1.01 1.514 1.226 3.466.762 5.326-.084.33-.664.536-1.06.832-1.566-.746-1.406-2.506-2.528-3.696h-3.122c-.716 1.282-1.36 2.556-2.14 3.74-.168.256-.958.402-1.212.23-.304-.204-.578-.898-.454-1.22 1.66-4.31 3.364-8.602 5.158-12.858.148-.348 1.028-.388 1.748-.634zm-1.112 7.178c-.104-.218-.186-.452-.322-.646-.034-.052-.338-.006-.346.028-.048.236-.048.482-.062.724l.73-.106z" fill="#000"/><path d="M94.492 76.598l4.304-12.274c.566-.034 1.118-.242 1.46-.058 2.71 1.45 3.482 4.282 4.5 6.832.5 1.254.282 2.796.366 4.21.02.308.042.712-.124.918-.368.45-.836 1.078-1.302 1.114-.448.034-1.252-.506-1.364-.934-.27-1.034-.228-2.152-.322-3.35-2.408-.528-3.686.65-4.522 2.522-.526 1.178-1.21 1.822-2.996 1.02zm5.63-6.932c.244-.104.596-.146.7-.33.098-.172-.072-.492-.126-.748l-.946.396.372.682z" fill="#000"/><path d="M62.45 39.266c-1.944-.284-3.21-.35-4.386-.712-.4-.122-.718-.978-.78-1.532-.03-.29.542-.702.912-.958.24-.168.618-.25.91-.208 3.184.462 6.346.288 9.53-.064.594-.066 1.562.572 1.846 1.14.26.524-.168 1.392-.3 2.146l-4.688-.502c.162 3.422.354 6.574.41 9.728.008.446-.6 1.208-1.008 1.272-.444.072-1.318-.414-1.428-.814-.33-1.21-.408-2.492-.53-3.75-.184-1.88-.322-3.764-.488-5.746" fill="#000"/><path d="M57.628 48.93c.146 1.35-1.344 2.7-2.674 2.378-.248-.06-.522-.342-.626-.59-.362-.852.118-1.444.706-1.998.602-.566 1.262-.908 2.062-.496.236.12.358.464.532.706" fill="#000"/><path d="M46.374 39.12l-.282.662c-.092-.096-.276-.21-.262-.282.052-.238.174-.462.27-.692l.274.312" fill="#fff"/><path d="M78.948 41.242l-.13.404c-.132-.154-.294-.296-.378-.474-.024-.05.18-.21.28-.32l.228.39" fill="#fff"/><path d="M159.064 39.942l-.728.104c.014-.242.014-.488.062-.724.008-.034.312-.08.346-.028.136.194.218.428.32.648" fill="#fff"/><path d="M100.12 69.666l-.37-.682.946-.396c.054.256.224.576.126.748-.104.184-.456.226-.702.33" fill="#fff"/></g></g></svg>