<?xml version="1.0" encoding="UTF-8" standalone="no"?>
<svg width="192px" height="115px" viewBox="0 0 192 115" version="1.1" xmlns="http://www.w3.org/2000/svg" xmlns:xlink="http://www.w3.org/1999/xlink" xmlns:sketch="http://www.bohemiancoding.com/sketch/ns">
    <!-- Generator: Sketch 3.1.1 (8761) - http://www.bohemiancoding.com/sketch -->
    <title>mr-tannen-hover</title>
    <desc>Created with Sketch.</desc>
    <defs></defs>
    <g id="Page-1" stroke="none" stroke-width="1" fill="none" fill-rule="evenodd" sketch:type="MSPage">
        <g id="Desktop-2" sketch:type="MSArtboardGroup" transform="translate(-536.000000, -506.000000)">
            <rect id="Rectangle-1" opacity="0.869927705" sketch:type="MSShapeGroup" x="0" y="0" width="1024" height="1024"></rect>
            <g id="Group" sketch:type="MSLayerGroup" transform="translate(67.500000, 501.500000)">
                <g id="Imported-Layers" transform="translate(469.000000, 5.000000)" sketch:type="MSShapeGroup">
                    <path d="M190.794,8.432 C190.562,11.672 190.296,14.83 190.118,17.994 C189.966,20.69 189.826,23.328 190.708,26.038 C191.27,27.762 190.894,29.838 190.748,31.742 C190.15,39.548 189.334,47.338 188.886,55.15 C188.602,60.088 188.756,65.056 188.866,70.006 C188.896,71.394 189.464,72.768 189.874,74.528 C189.356,74.93 188.656,75.474 187.88,76.074 C187.802,76.258 187.542,76.562 187.574,76.83 C187.982,80.346 187.388,83.814 187.184,87.304 C187.028,90.012 186.944,92.746 187.14,95.446 C187.418,99.274 186.32,103.02 186.75,106.88 C186.904,108.256 186.312,110.004 184.876,111.116 C184.144,111.682 183.684,112.602 183.012,113.478 C179.772,114.192 176.366,114.138 173.114,113.644 C167.716,112.826 162.316,112.646 156.892,112.44 C152.904,112.288 148.922,111.872 144.948,111.478 C140.36,111.022 135.782,110.458 131.2,109.948 C130.564,109.878 129.924,109.836 129.286,109.808 C123.064,109.528 116.842,109.118 110.616,109.03 C106.634,108.974 102.642,109.366 98.656,109.612 C95.142,109.83 91.656,109.898 88.154,109.248 C86.286,108.902 84.33,108.952 82.414,108.952 C76.182,108.95 69.948,108.95 63.716,109.066 C59.404,109.144 55.09,109.638 50.784,109.552 C40.566,109.35 30.35,108.936 20.136,108.564 C16.8,108.442 13.47,108.188 10.136,107.996 C7.692,107.854 5.426,107.13 3.352,105.842 C1.958,104.976 1.464,104.132 2.054,102.632 C2.796,100.75 2.672,98.888 2.648,96.976 C2.582,91.394 2.954,85.774 2.428,80.238 C1.61,71.614 2.286,63.02 2.444,54.43 C2.548,48.824 2.356,43.272 2.006,37.696 C1.836,34.992 1.898,32.266 1.988,29.554 C2.148,24.73 1.434,19.992 0.834,15.234 C0.438,12.082 0.188,8.906 -0.038,5.734 C-0.156,4.068 1.38,2.47 -0.29,0.896 C3.5,-0.308 9.236,-0.702 15.902,-0.332 C16.178,-0.04 16.514,0.284 16.814,0.642 C17.118,1.006 17.384,1.4 17.698,1.822 C20.682,2.62 23.704,2.358 26.73,2.038 C27.994,1.904 29.276,1.652 30.532,1.738 C36.11,2.122 41.676,2.682 47.256,3.036 C53.148,3.41 59.032,4.06 64.958,3.554 C71.19,3.02 77.414,3.358 83.642,3.796 C87.3,4.054 90.98,3.954 94.646,4.108 C100.542,4.352 106.432,4.684 112.324,4.956 C113.442,5.008 114.568,5.026 115.682,4.944 C122.074,4.478 128.422,5.094 134.78,5.592 C139.224,5.942 143.744,5.692 148.126,6.376 C153.414,7.2 158.624,6.546 163.868,6.522 C165.616,6.512 167.366,6.51 169.114,6.572 C172.616,6.698 176.116,6.834 179.612,7.038 C182.95,7.232 186.284,7.494 189.614,7.786 C190.034,7.822 190.424,8.22 190.794,8.432 L190.794,8.432 Z M3.722,6.622 C3.722,8.672 3.616,10.58 3.742,12.472 C4.106,18.046 4.63,23.61 4.96,29.186 C5.166,32.688 5.112,36.206 5.214,39.716 C5.324,43.384 5.548,47.05 5.6,50.72 C5.672,55.67 5.598,60.622 5.642,65.574 C5.67,68.58 6.174,71.632 5.81,74.584 C5.08,80.478 5.662,86.376 5.308,92.258 C5.27,92.894 5.232,93.57 5.404,94.168 C5.794,95.522 6.61,96.816 6.708,98.176 C6.818,99.72 6.314,101.304 6.134,102.876 C6.102,103.15 6.348,103.454 6.614,104.108 C8.052,104.492 9.698,105.142 11.396,105.342 C14.564,105.712 17.76,105.922 20.95,106.018 C29.078,106.266 37.208,106.484 45.338,106.586 C53.628,106.69 61.926,106.822 70.21,106.602 C76.92,106.426 83.598,106.14 90.31,106.748 C94.112,107.092 97.97,106.866 101.802,106.788 C104.35,106.736 106.898,106.32 109.442,106.366 C115.824,106.484 122.202,106.77 128.582,106.992 C129.86,107.036 131.144,107.034 132.414,107.166 C139.394,107.894 146.356,108.852 153.352,109.356 C161.626,109.952 169.868,111.236 178.204,110.75 C179.288,110.686 180.37,110.596 181.638,110.506 C182.746,105.356 183.756,100.39 184.006,95.286 C184.36,88.11 184.724,80.936 185.19,73.766 C185.334,71.546 185.996,69.36 186.11,67.142 C186.258,64.274 186.068,61.388 186.072,58.512 C186.076,55.796 186.138,53.078 186.184,50.362 C186.228,47.552 184.98,44.816 185.764,41.942 C185.894,41.466 185.35,40.804 185.064,40.098 C184.15,41.362 183.352,42.462 182.432,43.734 C181.518,42.87 180.866,42.252 180.152,41.578 C179.504,42.588 179.028,43.622 178.288,44.408 C177.442,45.308 176.608,45.118 176.228,43.952 C177.75,40.52 179.224,37.17 180.73,33.834 C181.042,33.144 181.2,32.238 182.212,32.18 C183.306,32.118 183.402,32.964 183.61,33.748 C184.08,35.542 185.094,34.932 186.228,34.19 C187.296,27.636 187.116,20.936 187.026,14.246 C187.01,13.038 186.454,11.838 186.172,10.726 C185.234,10.48 184.626,10.22 184.004,10.176 C175.722,9.584 167.448,8.816 159.124,9.384 C156.596,9.558 154.008,9.766 151.516,9.438 C145.804,8.684 140.106,8.048 134.332,8.182 C132.1,8.236 129.862,8.036 127.628,7.952 C126.042,7.892 124.458,7.788 122.874,7.786 C116.656,7.774 110.45,8.032 104.218,7.522 C98.2,7.032 92.164,5.792 86.076,7.012 C85.484,7.132 84.82,6.85 84.186,6.82 C79.884,6.616 75.58,6.22 71.284,6.282 C61.86,6.418 52.458,6.616 43.06,5.482 C37.21,4.778 31.304,4.404 25.414,4.18 C20.958,4.01 16.47,4.124 12.028,4.48 C9.368,4.694 6.596,4.954 3.722,6.622 L3.722,6.622 Z" id="Fill-1" fill="#000000"></path>
                    <path d="M3.722,6.622 C6.596,4.954 9.368,4.694 12.028,4.48 C16.47,4.124 20.958,4.01 25.414,4.18 C31.304,4.404 37.21,4.778 43.06,5.482 C52.458,6.616 61.86,6.418 71.284,6.282 C75.58,6.22 79.884,6.616 84.186,6.82 C84.82,6.85 85.484,7.132 86.076,7.012 C92.164,5.792 98.2,7.032 104.218,7.522 C110.45,8.032 116.656,7.774 122.874,7.786 C124.458,7.788 126.042,7.892 127.628,7.952 C129.862,8.036 132.1,8.236 134.332,8.182 C140.106,8.048 145.804,8.684 151.516,9.438 C154.008,9.766 156.596,9.558 159.124,9.384 C167.448,8.816 175.722,9.584 184.004,10.176 C184.626,10.22 185.234,10.48 186.172,10.726 C186.454,11.838 187.01,13.038 187.026,14.246 C187.116,20.936 187.296,27.636 186.228,34.19 C185.094,34.932 184.08,35.542 183.61,33.748 C183.402,32.964 183.306,32.118 182.212,32.18 C181.2,32.238 181.042,33.144 180.73,33.834 C179.224,37.17 177.75,40.52 176.228,43.952 C176.608,45.118 177.442,45.308 178.288,44.408 C179.028,43.622 179.504,42.588 180.152,41.578 C180.866,42.252 181.518,42.87 182.432,43.734 C183.352,42.462 184.15,41.362 185.064,40.098 C185.35,40.804 185.894,41.466 185.764,41.942 C184.98,44.816 186.228,47.552 186.184,50.362 C186.138,53.078 186.076,55.796 186.072,58.512 C186.068,61.388 186.258,64.274 186.11,67.142 C185.996,69.36 185.334,71.546 185.19,73.766 C184.724,80.936 184.36,88.11 184.006,95.286 C183.756,100.39 182.746,105.356 181.638,110.506 C180.37,110.596 179.288,110.686 178.204,110.75 C169.868,111.236 161.626,109.952 153.352,109.356 C146.356,108.852 139.394,107.894 132.414,107.166 C131.144,107.034 129.86,107.036 128.582,106.992 C122.202,106.77 115.824,106.484 109.442,106.366 C106.898,106.32 104.35,106.736 101.802,106.788 C97.97,106.866 94.112,107.092 90.31,106.748 C83.598,106.14 76.92,106.426 70.21,106.602 C61.926,106.822 53.628,106.69 45.338,106.586 C37.208,106.484 29.078,106.266 20.95,106.018 C17.76,105.922 14.564,105.712 11.396,105.342 C9.698,105.142 8.052,104.492 6.614,104.108 C6.348,103.454 6.102,103.15 6.134,102.876 C6.314,101.304 6.818,99.72 6.708,98.176 C6.61,96.816 5.794,95.522 5.404,94.168 C5.232,93.57 5.27,92.894 5.308,92.258 C5.662,86.376 5.08,80.478 5.81,74.584 C6.174,71.632 5.67,68.58 5.642,65.574 C5.598,60.622 5.672,55.67 5.6,50.72 C5.548,47.05 5.324,43.384 5.214,39.716 C5.112,36.206 5.166,32.688 4.96,29.186 C4.63,23.61 4.106,18.046 3.742,12.472 C3.616,10.58 3.722,8.672 3.722,6.622 L3.722,6.622 Z M31.202,39.584 C30.748,37.682 30.64,36.538 30.182,35.556 C29.898,34.946 29.152,34.374 28.494,34.166 C27.664,33.904 27.016,34.486 26.674,35.308 C25.086,39.118 23.46,42.912 21.95,46.75 C21.784,47.174 22.102,48.064 22.484,48.352 C22.886,48.656 23.638,48.494 24.314,48.54 C24.834,47.238 25.236,46.056 25.772,44.936 C26.322,43.79 26.47,42.408 27.63,41.032 C27.928,42.312 28.024,43.098 28.296,43.816 C28.974,45.622 30.246,45.794 31.524,44.44 C32.664,43.234 33.008,41.382 34.954,40.12 C35.444,42.52 35.726,44.494 35.688,46.538 C35.67,47.476 35.744,48.432 35.924,49.35 C36.118,50.336 37.46,50.69 38.19,49.986 C38.874,49.324 39.52,48.618 39.272,47.524 C38.602,44.588 37.986,41.64 37.254,38.722 C36.986,37.66 36.504,36.642 36.024,35.65 C35.7,34.986 34.396,34.918 33.956,35.524 C33.142,36.65 32.39,37.822 31.202,39.584 L31.202,39.584 Z M85.032,63.686 C83.674,65.552 82.482,67.194 81.156,69.016 C79.216,66.956 79.99,63.726 77.308,62.19 C76.902,62.462 76.126,62.692 75.954,63.148 C74.552,66.864 73.238,70.612 71.964,74.372 C71.688,75.19 71.988,75.962 72.932,76.236 C73.76,76.476 74.61,76.37 74.988,75.536 C75.374,74.684 75.584,73.732 75.754,72.802 C76.018,71.356 76.248,69.92 77.37,68.486 C78,70.696 78.518,72.512 79.086,74.5 C82.896,73.926 82.726,69.866 85.212,68.164 C87.356,71.008 85.646,75.1 88.148,78.012 C89.81,77.12 90.62,75.814 89.832,74.444 C88.73,72.534 88.75,70.474 88.272,68.48 C87.978,67.252 87.598,66.004 86.99,64.91 C86.684,64.358 85.788,64.132 85.032,63.686 L85.032,63.686 Z M119.916,70.002 C117.288,68.422 117.164,68.326 116.008,65.726 C115.362,64.272 114.866,62.752 114.236,61.29 C113.948,60.626 112.59,60.69 112.212,61.334 C112.13,61.472 112.028,61.604 111.98,61.754 C110.602,66.162 109.228,70.574 107.866,74.988 C107.822,75.126 107.858,75.328 107.934,75.454 C108.094,75.714 108.272,76.098 108.506,76.15 C108.93,76.246 109.686,76.296 109.802,76.086 C110.334,75.13 110.756,74.096 111.094,73.052 C111.44,71.992 111.57,70.862 111.928,69.808 C112.254,68.852 111.868,67.542 113.37,66.866 C114.046,67.96 114.586,69.094 115.366,70.026 C116.274,71.11 117.306,72.138 118.444,72.972 C119.626,73.838 121.112,73.396 121.636,72.082 C122.166,70.758 122.508,69.354 122.874,67.97 C123.718,64.78 124.528,61.582 125.448,58.018 C124.874,57.814 124.012,57.22 123.27,57.344 C122.764,57.43 122.324,58.48 122.052,59.176 C121.828,59.748 121.952,60.446 121.824,61.068 C121.214,64.012 120.57,66.95 119.916,70.002 L119.916,70.002 Z M141.36,37.366 C141.142,40.71 140.902,43.876 140.744,47.044 C140.678,48.416 141.772,49.414 143.194,49.418 C145.954,49.422 148.15,48.156 149.808,46.088 C150.882,44.748 150.918,43.086 149.99,41.586 C149.418,40.662 148.65,39.862 147.804,38.8 C148.448,38.05 149.06,37.36 149.648,36.648 C150.278,35.888 150.788,35.058 150.276,34.048 C149.756,33.02 148.72,33.032 147.778,33.038 C146.668,33.046 145.55,33.122 144.456,33.3 C144.036,33.368 143.622,33.748 143.304,34.08 C143.118,34.272 143.026,34.672 143.078,34.942 C143.126,35.204 143.388,35.592 143.602,35.624 C144.61,35.772 145.634,35.818 146.836,35.914 C145.478,38.986 143.194,37.32 141.36,37.366 L141.36,37.366 Z M94.966,44.594 C94.672,44.638 94.38,44.682 94.088,44.726 C93.776,44.026 93.372,43.35 93.172,42.618 C92.754,41.08 92.468,39.508 92.078,37.962 C91.842,37.032 91.53,35.996 90.372,35.962 C89.054,35.922 89.114,37.042 88.908,37.986 C88.166,41.404 87.336,44.8 86.558,48.21 C86.454,48.668 86.38,49.158 86.432,49.616 C86.46,49.88 86.74,50.284 86.958,50.322 C87.392,50.396 88.03,50.424 88.278,50.172 C88.692,49.75 88.94,49.116 89.128,48.53 C89.558,47.182 89.908,45.808 90.408,44.026 C91.416,45.974 92.09,47.566 93.036,48.976 C93.476,49.63 94.444,49.928 95.37,50.512 C95.886,49.288 96.378,48.454 96.592,47.552 C97.32,44.456 97.958,41.338 98.61,38.224 C98.672,37.924 98.706,37.518 98.556,37.288 C98.24,36.804 97.872,36.24 97.382,36.012 C96.64,35.666 95.726,36.292 95.592,37.094 C95.514,37.556 95.514,38.03 95.474,38.498 C95.306,40.53 95.134,42.562 94.966,44.594 L94.966,44.594 Z M45.044,48.626 C46.802,49.468 48.58,50.32 50.862,51.412 C50.776,50.108 50.948,49.262 50.626,48.698 C50.188,47.934 49.48,47.134 48.696,46.802 C47.372,46.244 45.962,45.952 45.47,44.29 C46.306,42.966 47.238,41.682 47.952,40.288 C48.446,39.326 48.772,38.232 48.926,37.16 C49.092,36.014 48.69,34.97 47.572,34.346 C46.442,33.714 45.118,33.838 44.102,34.862 C43.116,35.852 42.248,36.96 41.446,37.878 C41.564,41.054 41.676,44.048 41.782,47.042 C41.804,47.672 41.752,48.308 41.818,48.934 C41.938,50.034 42.832,50.37 43.88,49.694 C44.268,49.442 44.574,49.064 45.044,48.626 L45.044,48.626 Z M171.392,45.49 C171.76,46.336 172.038,47.25 172.532,48.03 C173,48.77 173.734,49.018 174.34,48.428 C174.626,44.322 174.912,40.38 175.158,36.436 C175.196,35.822 175.148,35.154 174.932,34.59 C174.792,34.228 174.28,33.802 173.92,33.788 C173.552,33.774 172.932,34.16 172.834,34.492 C172.478,35.702 172.34,36.976 172.03,38.202 C171.724,39.42 171.498,40.722 170.876,41.776 C170.462,42.48 169.446,43.166 168.65,43.228 C167.602,43.31 167.14,42.202 167.004,41.242 C166.85,40.148 166.85,39.032 166.814,37.922 C166.784,36.972 166.882,36.008 166.762,35.07 C166.676,34.4 166.116,33.928 165.412,34.082 C165.024,34.166 164.444,34.588 164.412,34.906 C164.238,36.64 164.124,38.392 164.142,40.136 C164.198,45.372 166.246,46.88 171.392,45.49 L171.392,45.49 Z M79.318,44.972 C79.702,46.172 80.088,47.528 80.572,48.846 C81.066,50.188 81.862,50.146 83.176,48.89 C82.83,46.944 82.566,45.098 82.158,43.286 C81.712,41.302 81.126,39.348 80.618,37.378 C80.42,36.612 80.392,35.768 80.044,35.084 C79.806,34.618 79.184,34.224 78.658,34.08 C78.376,34.004 77.75,34.442 77.592,34.79 C76.874,36.38 76.188,37.994 75.636,39.648 C74.728,42.362 74.054,45.164 72.188,47.456 C72.002,47.686 71.852,48.05 71.886,48.326 C71.94,48.768 72.054,49.294 72.342,49.596 C72.876,50.158 73.596,49.974 73.97,49.42 C74.674,48.374 75.19,47.206 75.85,46.132 C76.59,44.932 77.636,44.388 79.318,44.972 L79.318,44.972 Z M102.854,43.746 C103.952,45.888 104.6,47.332 105.408,48.68 C106.036,49.726 107.548,49.52 108.104,48.402 C108.174,48.26 108.232,48.112 108.294,47.966 C109.84,44.232 109.5,40.178 110.214,36.3 C110.27,35.992 109.452,35.244 108.988,35.196 C108.554,35.15 107.702,35.71 107.642,36.096 C107.424,37.496 107.506,38.938 107.388,40.358 C107.29,41.552 107.576,42.876 106.574,43.876 C104.212,42.36 105.63,38.322 102.202,37.706 C100.316,39.326 101.238,41.698 100.41,43.542 C99.578,45.394 98.756,47.25 97.968,49.02 C99.31,50.33 100.236,49.736 100.81,48.652 C101.524,47.302 102.004,45.828 102.854,43.746 L102.854,43.746 Z M129.072,36.774 C128.69,38.416 128.452,39.488 128.19,40.552 C127.592,42.974 127.982,45.676 126.12,47.76 C126.01,47.882 126.408,48.574 126.696,48.886 C126.83,49.032 127.378,49.02 127.544,48.868 C128.23,48.244 128.932,47.6 129.454,46.842 C129.958,46.108 130.252,45.228 130.734,44.208 C131.614,45.398 132.188,46.348 132.934,47.132 C133.736,47.976 135.306,47.7 135.802,46.678 C136.142,45.974 136.398,45.21 136.558,44.444 C137.108,41.802 137.612,39.15 138.1,36.496 C138.186,36.036 138.24,35.504 138.088,35.086 C137.952,34.714 137.55,34.266 137.194,34.192 C136.826,34.114 136.126,34.342 136.004,34.622 C135.64,35.47 135.298,36.404 135.288,37.31 C135.262,39.488 134.946,41.552 133.996,43.602 C131.706,41.814 132.554,38.204 129.072,36.774 L129.072,36.774 Z M114.846,36.604 C114.846,39.646 114.786,42.338 114.872,45.026 C114.912,46.27 115.068,47.564 115.472,48.732 C115.966,50.166 117,50.694 118.524,50.39 C120.242,50.048 121.93,49.536 123.61,49.028 C124.526,48.752 125.106,47.724 124.63,47.266 C124.248,46.898 123.548,46.606 123.04,46.67 C121.496,46.868 119.976,47.256 118.252,47.61 C117.89,46.268 117.62,45.26 117.394,44.42 C119.098,42.562 121.636,42.532 123.168,40.85 C121.326,37.698 119.336,41.148 117.572,40.346 C116.994,39.64 116.81,38.866 117.78,38.416 C119.222,37.75 120.762,37.29 122.21,36.634 C122.524,36.492 122.898,35.708 122.782,35.536 C122.462,35.066 121.786,34.37 121.442,34.462 C119.304,35.04 117.218,35.808 114.846,36.604 L114.846,36.604 Z M159.678,32.262 C158.958,32.508 158.078,32.548 157.93,32.896 C156.136,37.152 154.432,41.444 152.772,45.754 C152.648,46.076 152.922,46.77 153.226,46.974 C153.48,47.146 154.27,47 154.438,46.744 C155.218,45.56 155.862,44.286 156.578,43.004 L159.7,43.004 C160.822,44.194 160.662,45.954 162.228,46.7 C162.624,46.404 163.204,46.198 163.288,45.868 C163.752,44.008 163.536,42.056 162.526,40.542 C161.784,39.43 161.356,38.334 161.03,37.108 C160.624,35.58 160.182,34.062 159.678,32.262 L159.678,32.262 Z M93.992,76.098 C95.778,76.9 96.462,76.256 96.988,75.078 C97.824,73.206 99.102,72.028 101.51,72.556 C101.604,73.754 101.562,74.872 101.832,75.906 C101.944,76.334 102.748,76.874 103.196,76.84 C103.662,76.804 104.13,76.176 104.498,75.726 C104.664,75.52 104.642,75.116 104.622,74.808 C104.538,73.394 104.756,71.852 104.256,70.598 C103.238,68.048 102.466,65.216 99.756,63.766 C99.414,63.582 98.862,63.79 98.296,63.824 C96.882,67.854 95.482,71.85 93.992,76.098 L93.992,76.098 Z M61.95,38.766 C62.116,40.748 62.254,42.632 62.438,44.512 C62.56,45.77 62.638,47.052 62.968,48.262 C63.078,48.662 63.952,49.148 64.396,49.076 C64.804,49.012 65.412,48.25 65.404,47.804 C65.348,44.65 65.156,41.498 64.994,38.076 C66.67,38.254 68.038,38.402 69.682,38.578 C69.814,37.824 70.242,36.956 69.982,36.432 C69.698,35.864 68.73,35.226 68.136,35.292 C64.952,35.644 61.79,35.818 58.606,35.356 C58.314,35.314 57.936,35.396 57.696,35.564 C57.326,35.82 56.754,36.232 56.784,36.522 C56.846,37.076 57.164,37.932 57.564,38.054 C58.74,38.416 60.006,38.482 61.95,38.766 L61.95,38.766 Z M57.128,48.43 C56.954,48.188 56.832,47.844 56.596,47.724 C55.796,47.312 55.136,47.654 54.534,48.22 C53.946,48.774 53.466,49.366 53.828,50.218 C53.932,50.466 54.206,50.748 54.454,50.808 C55.784,51.13 57.274,49.78 57.128,48.43 L57.128,48.43 Z" id="Fill-2" fill="#FFFFFF"></path>
                    <rect id="Rectangle-7" fill="#FFFFFF" x="140" y="39" width="11" height="12"></rect>
                    <path d="M31.202,39.584 C32.39,37.822 33.142,36.65 33.956,35.524 C34.396,34.918 35.7,34.986 36.024,35.65 C36.504,36.642 36.986,37.66 37.254,38.722 C37.986,41.64 38.602,44.588 39.272,47.524 C39.52,48.618 38.874,49.324 38.19,49.986 C37.46,50.69 36.118,50.336 35.924,49.35 C35.744,48.432 35.67,47.476 35.688,46.538 C35.726,44.494 35.444,42.52 34.954,40.12 C33.008,41.382 32.664,43.234 31.524,44.44 C30.246,45.794 28.974,45.622 28.296,43.816 C28.024,43.098 27.928,42.312 27.63,41.032 C26.47,42.408 26.322,43.79 25.772,44.936 C25.236,46.056 24.834,47.238 24.314,48.54 C23.638,48.494 22.886,48.656 22.484,48.352 C22.102,48.064 21.784,47.174 21.95,46.75 C23.46,42.912 25.086,39.118 26.674,35.308 C27.016,34.486 27.664,33.904 28.494,34.166 C29.152,34.374 29.898,34.946 30.182,35.556 C30.64,36.538 30.748,37.682 31.202,39.584" id="Fill-3" fill="#000000"></path>
                    <path d="M85.032,63.686 C85.788,64.132 86.684,64.358 86.99,64.91 C87.598,66.004 87.978,67.252 88.272,68.48 C88.75,70.474 88.73,72.534 89.832,74.444 C90.62,75.814 89.81,77.12 88.148,78.012 C85.646,75.1 87.356,71.008 85.212,68.164 C82.726,69.866 82.896,73.926 79.086,74.5 C78.518,72.512 78,70.696 77.37,68.486 C76.248,69.92 76.018,71.356 75.754,72.802 C75.584,73.732 75.374,74.684 74.988,75.536 C74.61,76.37 73.76,76.476 72.932,76.236 C71.988,75.962 71.688,75.19 71.964,74.372 C73.238,70.612 74.552,66.864 75.954,63.148 C76.126,62.692 76.902,62.462 77.308,62.19 C79.99,63.726 79.216,66.956 81.156,69.016 C82.482,67.194 83.674,65.552 85.032,63.686" id="Fill-4" fill="#000000"></path>
                    <path d="M119.916,70.002 C120.57,66.95 121.214,64.012 121.824,61.068 C121.952,60.446 121.828,59.748 122.052,59.176 C122.324,58.48 122.764,57.43 123.27,57.344 C124.012,57.22 124.874,57.814 125.448,58.018 C124.528,61.582 123.718,64.78 122.874,67.97 C122.508,69.354 122.166,70.758 121.636,72.082 C121.112,73.396 119.626,73.838 118.444,72.972 C117.306,72.138 116.274,71.11 115.366,70.026 C114.586,69.094 114.046,67.96 113.37,66.866 C111.868,67.542 112.254,68.852 111.928,69.808 C111.57,70.862 111.44,71.992 111.094,73.052 C110.756,74.096 110.334,75.13 109.802,76.086 C109.686,76.296 108.93,76.246 108.506,76.15 C108.272,76.098 108.094,75.714 107.934,75.454 C107.858,75.328 107.822,75.126 107.866,74.988 C109.228,70.574 110.602,66.162 111.98,61.754 C112.028,61.604 112.13,61.472 112.212,61.334 C112.59,60.69 113.948,60.626 114.236,61.29 C114.866,62.752 115.362,64.272 116.008,65.726 C117.164,68.326 117.288,68.422 119.916,70.002" id="Fill-5" fill="#000000"></path>
                    <path d="M141.36,37.366 C143.194,37.32 145.478,38.986 146.836,35.914 C145.634,35.818 144.61,35.772 143.602,35.624 C143.388,35.592 143.126,35.204 143.078,34.942 C143.026,34.672 143.118,34.272 143.304,34.08 C143.622,33.748 144.036,33.368 144.456,33.3 C145.55,33.122 146.668,33.046 147.778,33.038 C148.72,33.032 149.756,33.02 150.276,34.048 C150.788,35.058 150.278,35.888 149.648,36.648 C149.06,37.36 148.448,38.05 147.804,38.8 C148.65,39.862 149.418,40.662 149.99,41.586 C150.918,43.086 150.882,44.748 149.808,46.088 C148.15,48.156 145.954,49.422 143.194,49.418 C141.772,49.414 140.678,48.416 140.744,47.044 C140.902,43.876 141.142,40.71 141.36,37.366 L141.36,37.366 Z M143.85,41.332 C143.85,42.364 143.796,43.12 143.864,43.862 C143.946,44.738 144.134,45.602 144.292,46.58 C146.198,46.28 147.794,45.712 147.784,43.852 C147.774,41.93 146.118,41.466 143.85,41.332 L143.85,41.332 Z" id="Fill-6" fill="#000000"></path>
                    <path d="M94.966,44.594 C95.134,42.562 95.306,40.53 95.474,38.498 C95.514,38.03 95.514,37.556 95.592,37.094 C95.726,36.292 96.64,35.666 97.382,36.012 C97.872,36.24 98.24,36.804 98.556,37.288 C98.706,37.518 98.672,37.924 98.61,38.224 C97.958,41.338 97.32,44.456 96.592,47.552 C96.378,48.454 95.886,49.288 95.37,50.512 C94.444,49.928 93.476,49.63 93.036,48.976 C92.09,47.566 91.416,45.974 90.408,44.026 C89.908,45.808 89.558,47.182 89.128,48.53 C88.94,49.116 88.692,49.75 88.278,50.172 C88.03,50.424 87.392,50.396 86.958,50.322 C86.74,50.284 86.46,49.88 86.432,49.616 C86.38,49.158 86.454,48.668 86.558,48.21 C87.336,44.8 88.166,41.404 88.908,37.986 C89.114,37.042 89.054,35.922 90.372,35.962 C91.53,35.996 91.842,37.032 92.078,37.962 C92.468,39.508 92.754,41.08 93.172,42.618 C93.372,43.35 93.776,44.026 94.088,44.726 C94.38,44.682 94.672,44.638 94.966,44.594" id="Fill-7" fill="#000000"></path>
                    <path d="M45.044,48.626 C44.574,49.064 44.268,49.442 43.88,49.694 C42.832,50.37 41.938,50.034 41.818,48.934 C41.752,48.308 41.804,47.672 41.782,47.042 C41.676,44.048 41.564,41.054 41.446,37.878 C42.248,36.96 43.116,35.852 44.102,34.862 C45.118,33.838 46.442,33.714 47.572,34.346 C48.69,34.97 49.092,36.014 48.926,37.16 C48.772,38.232 48.446,39.326 47.952,40.288 C47.238,41.682 46.306,42.966 45.47,44.29 C45.962,45.952 47.372,46.244 48.696,46.802 C49.48,47.134 50.188,47.934 50.626,48.698 C50.948,49.262 50.776,50.108 50.862,51.412 C48.58,50.32 46.802,49.468 45.044,48.626 L45.044,48.626 Z M45.874,38.62 C45.776,38.508 45.688,38.408 45.6,38.308 C45.504,38.538 45.382,38.762 45.33,39 C45.316,39.072 45.5,39.186 45.592,39.282 C45.69,39.05 45.79,38.818 45.874,38.62 L45.874,38.62 Z" id="Fill-8" fill="#000000"></path>
                    <path d="M171.392,45.49 C166.246,46.88 164.198,45.372 164.142,40.136 C164.124,38.392 164.238,36.64 164.412,34.906 C164.444,34.588 165.024,34.166 165.412,34.082 C166.116,33.928 166.676,34.4 166.762,35.07 C166.882,36.008 166.784,36.972 166.814,37.922 C166.85,39.032 166.85,40.148 167.004,41.242 C167.14,42.202 167.602,43.31 168.65,43.228 C169.446,43.166 170.462,42.48 170.876,41.776 C171.498,40.722 171.724,39.42 172.03,38.202 C172.34,36.976 172.478,35.702 172.834,34.492 C172.932,34.16 173.552,33.774 173.92,33.788 C174.28,33.802 174.792,34.228 174.932,34.59 C175.148,35.154 175.196,35.822 175.158,36.436 C174.912,40.38 174.626,44.322 174.34,48.428 C173.734,49.018 173,48.77 172.532,48.03 C172.038,47.25 171.76,46.336 171.392,45.49" id="Fill-9" fill="#000000"></path>
                    <path d="M79.318,44.972 C77.636,44.388 76.59,44.932 75.85,46.132 C75.19,47.206 74.674,48.374 73.97,49.42 C73.596,49.974 72.876,50.158 72.342,49.596 C72.054,49.294 71.94,48.768 71.886,48.326 C71.852,48.05 72.002,47.686 72.188,47.456 C74.054,45.164 74.728,42.362 75.636,39.648 C76.188,37.994 76.874,36.38 77.592,34.79 C77.75,34.442 78.376,34.004 78.658,34.08 C79.184,34.224 79.806,34.618 80.044,35.084 C80.392,35.768 80.42,36.612 80.618,37.378 C81.126,39.348 81.712,41.302 82.158,43.286 C82.566,45.098 82.83,46.944 83.176,48.89 C81.862,50.146 81.066,50.188 80.572,48.846 C80.088,47.528 79.702,46.172 79.318,44.972 L79.318,44.972 Z M78.448,40.742 C78.372,40.612 78.296,40.482 78.22,40.352 C78.12,40.462 77.916,40.622 77.94,40.672 C78.024,40.85 78.186,40.992 78.318,41.146 C78.362,41.012 78.404,40.878 78.448,40.742 L78.448,40.742 Z" id="Fill-10" fill="#000000"></path>
                    <path d="M102.854,43.746 C102.004,45.828 101.524,47.302 100.81,48.652 C100.236,49.736 99.31,50.33 97.968,49.02 C98.756,47.25 99.578,45.394 100.41,43.542 C101.238,41.698 100.316,39.326 102.202,37.706 C105.63,38.322 104.212,42.36 106.574,43.876 C107.576,42.876 107.29,41.552 107.388,40.358 C107.506,38.938 107.424,37.496 107.642,36.096 C107.702,35.71 108.554,35.15 108.988,35.196 C109.452,35.244 110.27,35.992 110.214,36.3 C109.5,40.178 109.84,44.232 108.294,47.966 C108.232,48.112 108.174,48.26 108.104,48.402 C107.548,49.52 106.036,49.726 105.408,48.68 C104.6,47.332 103.952,45.888 102.854,43.746" id="Fill-11" fill="#000000"></path>
                    <path d="M129.072,36.774 C132.554,38.204 131.706,41.814 133.996,43.602 C134.946,41.552 135.262,39.488 135.288,37.31 C135.298,36.404 135.64,35.47 136.004,34.622 C136.126,34.342 136.826,34.114 137.194,34.192 C137.55,34.266 137.952,34.714 138.088,35.086 C138.24,35.504 138.186,36.036 138.1,36.496 C137.612,39.15 137.108,41.802 136.558,44.444 C136.398,45.21 136.142,45.974 135.802,46.678 C135.306,47.7 133.736,47.976 132.934,47.132 C132.188,46.348 131.614,45.398 130.734,44.208 C130.252,45.228 129.958,46.108 129.454,46.842 C128.932,47.6 128.23,48.244 127.544,48.868 C127.378,49.02 126.83,49.032 126.696,48.886 C126.408,48.574 126.01,47.882 126.12,47.76 C127.982,45.676 127.592,42.974 128.19,40.552 C128.452,39.488 128.69,38.416 129.072,36.774" id="Fill-12" fill="#000000"></path>
                    <path d="M114.846,36.604 C117.218,35.808 119.304,35.04 121.442,34.462 C121.786,34.37 122.462,35.066 122.782,35.536 C122.898,35.708 122.524,36.492 122.21,36.634 C120.762,37.29 119.222,37.75 117.78,38.416 C116.81,38.866 116.994,39.64 117.572,40.346 C119.336,41.148 121.326,37.698 123.168,40.85 C121.636,42.532 119.098,42.562 117.394,44.42 C117.62,45.26 117.89,46.268 118.252,47.61 C119.976,47.256 121.496,46.868 123.04,46.67 C123.548,46.606 124.248,46.898 124.63,47.266 C125.106,47.724 124.526,48.752 123.61,49.028 C121.93,49.536 120.242,50.048 118.524,50.39 C117,50.694 115.966,50.166 115.472,48.732 C115.068,47.564 114.912,46.27 114.872,45.026 C114.786,42.338 114.846,39.646 114.846,36.604" id="Fill-13" fill="#000000"></path>
                    <path d="M159.678,32.262 C160.182,34.062 160.624,35.58 161.03,37.108 C161.356,38.334 161.784,39.43 162.526,40.542 C163.536,42.056 163.752,44.008 163.288,45.868 C163.204,46.198 162.624,46.404 162.228,46.7 C160.662,45.954 160.822,44.194 159.7,43.004 L156.578,43.004 C155.862,44.286 155.218,45.56 154.438,46.744 C154.27,47 153.48,47.146 153.226,46.974 C152.922,46.77 152.648,46.076 152.772,45.754 C154.432,41.444 156.136,37.152 157.93,32.896 C158.078,32.548 158.958,32.508 159.678,32.262 L159.678,32.262 Z M158.566,39.44 C158.462,39.222 158.38,38.988 158.244,38.794 C158.21,38.742 157.906,38.788 157.898,38.822 C157.85,39.058 157.85,39.304 157.836,39.546 C158.078,39.51 158.32,39.476 158.566,39.44 L158.566,39.44 Z" id="Fill-14" fill="#000000"></path>
                    <path d="M93.992,76.098 C95.482,71.85 96.882,67.854 98.296,63.824 C98.862,63.79 99.414,63.582 99.756,63.766 C102.466,65.216 103.238,68.048 104.256,70.598 C104.756,71.852 104.538,73.394 104.622,74.808 C104.642,75.116 104.664,75.52 104.498,75.726 C104.13,76.176 103.662,76.804 103.196,76.84 C102.748,76.874 101.944,76.334 101.832,75.906 C101.562,74.872 101.604,73.754 101.51,72.556 C99.102,72.028 97.824,73.206 96.988,75.078 C96.462,76.256 95.778,76.9 93.992,76.098 L93.992,76.098 Z M99.622,69.166 C99.866,69.062 100.218,69.02 100.322,68.836 C100.42,68.664 100.25,68.344 100.196,68.088 C99.88,68.22 99.566,68.352 99.25,68.484 C99.374,68.712 99.496,68.938 99.622,69.166 L99.622,69.166 Z" id="Fill-15" fill="#000000"></path>
                    <path d="M61.95,38.766 C60.006,38.482 58.74,38.416 57.564,38.054 C57.164,37.932 56.846,37.076 56.784,36.522 C56.754,36.232 57.326,35.82 57.696,35.564 C57.936,35.396 58.314,35.314 58.606,35.356 C61.79,35.818 64.952,35.644 68.136,35.292 C68.73,35.226 69.698,35.864 69.982,36.432 C70.242,36.956 69.814,37.824 69.682,38.578 C68.038,38.402 66.67,38.254 64.994,38.076 C65.156,41.498 65.348,44.65 65.404,47.804 C65.412,48.25 64.804,49.012 64.396,49.076 C63.952,49.148 63.078,48.662 62.968,48.262 C62.638,47.052 62.56,45.77 62.438,44.512 C62.254,42.632 62.116,40.748 61.95,38.766" id="Fill-16" fill="#000000"></path>
                    <path d="M57.128,48.43 C57.274,49.78 55.784,51.13 54.454,50.808 C54.206,50.748 53.932,50.466 53.828,50.218 C53.466,49.366 53.946,48.774 54.534,48.22 C55.136,47.654 55.796,47.312 56.596,47.724 C56.832,47.844 56.954,48.188 57.128,48.43" id="Fill-17" fill="#000000"></path>
                    <path d="M45.874,38.62 C45.79,38.818 45.69,39.05 45.592,39.282 C45.5,39.186 45.316,39.072 45.33,39 C45.382,38.762 45.504,38.538 45.6,38.308 C45.688,38.408 45.776,38.508 45.874,38.62" id="Fill-19" fill="#FFFFFF"></path>
                    <path d="M78.448,40.742 C78.404,40.878 78.362,41.012 78.318,41.146 C78.186,40.992 78.024,40.85 77.94,40.672 C77.916,40.622 78.12,40.462 78.22,40.352 C78.296,40.482 78.372,40.612 78.448,40.742" id="Fill-20" fill="#FFFFFF"></path>
                    <path d="M158.564,39.442 C158.32,39.476 158.078,39.51 157.836,39.546 C157.85,39.304 157.85,39.058 157.898,38.822 C157.906,38.788 158.21,38.742 158.244,38.794 C158.38,38.988 158.462,39.222 158.564,39.442" id="Fill-21" fill="#FFFFFF"></path>
                    <path d="M99.62,69.166 C99.496,68.938 99.374,68.712 99.25,68.484 C99.566,68.352 99.88,68.22 100.196,68.088 C100.25,68.344 100.42,68.664 100.322,68.836 C100.218,69.02 99.866,69.062 99.62,69.166" id="Fill-22" fill="#FFFFFF"></path>
                </g>
            </g>
        </g>
    </g>
</svg>