<svg width="122" height="47" viewBox="0 0 122 47" xmlns="http://www.w3.org/2000/svg" xmlns:sketch="http://www.bohemiancoding.com/sketch/ns"><title>next</title><desc>Created with Sketch.</desc><g sketch:type="MSLayerGroup" fill="none"><path d="M75.649-.278c.18.139.313.333.453.336 2.015.052 4.034.042 6.048.123 1.97.079 3.938.262 5.906.369 1.654.091 3.312.128 4.968.207.919.044 1.839.184 2.758.176 1.573-.015 3.145-.137 4.719-.165.593-.01 1.199.209 1.782.15.55-.055 1.077-.336 1.581-.508-.039.472.341.717 1.061.744 2.515.094 5.027.244 7.542.375l1.667.095c.341.102.68.304 1.004.283 1.667-.104 3.293-.142 4.434 1.399.1.134.133.328.162.501.162.975.419 1.954.429 2.933.005.573-.429 1.137-.598 1.724-.233.807-.534 1.624-.574 2.449-.135 2.755.002 5.497.526 8.222.268 1.391.23 2.837.429 4.245.26 1.844.653 3.67.924 5.513.246 1.668.395 3.349.607 5.02.116.901.297 1.792.407 2.693.124 1.024.275 2.054.278 3.082.002 1.087-.775 1.749-1.52 2.436-1.184 1.089-2.645 1.294-4.124 1.535-.927.15-1.847.372-2.759.6-.183.045-.325.265-.508.425-1.172-.709-2.427-.828-3.748-.162-1.503.757-3.105.684-4.728.544-.712-.061-1.493.036-2.171.018-1.536-.042-2.988.118-4.46.489-.672.168-1.39.254-2.08.217-1.422-.074-2.837-.319-4.259-.377-1.662-.07-3.33.006-4.993-.023-2.498-.044-4.995-.189-7.489-.163-1.546.016-3.087.311-4.635.408-.968.061-1.943-.011-2.915-.024l-1.557-.021c-1.004-.016-2.007-.052-3.012-.052-.971 0-1.941.071-2.909.049-1.271-.029-2.539-.123-3.809-.178-.448-.019-.934-.116-1.344.01-2.046.634-4.097.309-6.163.199-1.601-.084-3.213.112-4.821.146-.434.01-.871-.142-1.308-.165-1.533-.079-3.07-.222-4.601-.176-2.189.068-4.373.296-6.562.425-.942.055-1.887.019-2.83.047-2.862.087-5.725.162-8.584.299-.614.029-1.258-.126-1.872.391-.262.22-.995-.176-1.519-.207-1.533-.092-3.068-.133-4.603-.205-2.65-.125-5.3-.349-7.951-.345-1.164.002-2.3.246-3.442-.223-1.368-.56-2.42-1.365-2.798-2.891-.129-.524-.691-1.197-.522-1.485.339-.576.262-1.069.27-1.647.013-.951.275-1.906.238-2.852-.066-1.687-.209-3.378-.445-5.049-.198-1.399-.638-2.765-.845-4.164-.111-.749.061-1.535.064-2.307.003-.529-.076-1.06-.096-1.59-.084-2.21-.122-4.421-.252-6.628-.059-.979-.318-1.944-.442-2.921-.039-.296.113-.611.104-.914-.026-.995-.149-1.99-.114-2.98.043-1.191.19-2.38.341-3.562.027-.214.249-.489.45-.579.697-.314 1.424-.558 2.139-.825.292-.11.669-.131.866-.332.842-.856 1.882-.605 2.893-.663 1.258-.074 2.509-.275 3.766-.411.636-.068 1.274-.116 1.922-.176l.209-.809c1.567.328 2.933-.173 4.323-.678.595-.215 1.284-.16 1.93-.226 1.921-.194 3.839-.419 5.763-.577 3.479-.286 6.965-.514 10.445-.809 1.585-.133 3.158-.469 4.743-.531 2.385-.094 4.776 0 7.165-.032 2.592-.034 5.183-.133 7.774-.184 3.684-.074 7.367-.171 11.051-.176 1.286-.002 2.57.296 3.859.354 1.758.078 3.523.071 5.284.065.241 0 .484-.212.681-.306zm-69.212 42.378c.373 0 .709.011 1.045-.002 1.528-.057 3.063-.223 4.587-.159 2.247.097 4.487.492 6.732.513 2.56.024 5.122-.236 7.685-.348 1.996-.086 3.992-.149 5.988-.192 1.382-.029 2.771-.083 4.145.016 1.329.094 2.559-.438 3.928-.293 2.186.231 4.412.073 6.62.076 2.714.003 5.429 0 8.143 0 2.084 0 4.171.023 6.255-.008 1.236-.018 2.47-.168 3.706-.167 1.371.003 2.745.191 4.114.154 1.851-.05 3.704-.38 5.551-.333 3.086.078 6.136-.468 9.254-.11 3.195.367 6.453.307 9.678.243 3.627-.073 7.251-.335 10.872-.568 1.286-.083 2.563-.311 3.841-.497.338-.049.698-.123.984-.293.731-.437 1.451-.6 2.314-.403.447.1.966-.181 1.454-.194.702-.018 1.516-.155 2.08.144.611.324 1.202.613 1.776.361.627-.277.979-.903.815-1.682-.199-.953-.439-1.902-.567-2.866-.182-1.356-.264-2.726-.416-4.086-.223-1.993-.995-3.879-.821-5.972.125-1.506-.427-3.019-.439-4.591-.018-2.553-.427-5.099-.604-7.653-.061-.891.074-1.797.127-2.697.087-1.42.18-2.839.27-4.251-1.242-.079-2.573.005-3.819-.286-1.659-.387-3.288-.718-4.997-.556-.328.032-.67-.116-1.006-.121-.733-.01-1.467.057-2.199.027-1.925-.079-3.852-.149-5.771-.312-1.21-.102-2.472.631-3.635-.218-.056-.042-.161-.021-.244-.023-2.673-.105-5.345-.217-8.02-.306-.974-.034-1.951.016-2.925-.023-1.938-.078-3.875-.215-5.813-.275-.564-.018-1.144.251-1.699.199-1.61-.152-3.256-.726-4.805-.516-1.559.21-3.107-.644-4.601.137l-.079-.026c-.63-.152-1.258-.413-1.893-.427-.953-.023-1.954-.018-2.853.252-.68.205-1.231.05-1.855-.013-1.136-.115-2.284-.22-3.422-.171-1.057.047-2.107.43-3.161.438-2.419.019-4.837-.162-7.255-.141-1.618.015-3.235.226-4.85.37-.651.057-1.252-.147-1.855-.238-.947-.144-1.988.322-2.984.548-.604.138-1.218.484-1.798.429-1.44-.138-2.856-.353-4.296.013-.355.091-.763-.055-1.143-.034-1.101.063-2.199.157-3.296.238-.526.039-1.054.136-1.575.104-.839-.05-1.697-.356-2.504-.241-.939.133-1.859.54-2.735.945-1.209.56-2.375 1.202-3.778.954-.154-.027-.323-.006-.479.023-.914.18-1.861.621-2.732.501-1.819-.252-3.499.061-5.188.629-.564.188-1.159.28-1.856.445 0 1.352-.031 2.904.01 4.453.032 1.307.516 2.548.41 3.911-.112 1.453.133 2.938.254 4.405.135 1.635.429 3.269.41 4.9-.011.836.014 1.335 1.186 1.409-1.36.422-.948 1.284-.931 2.003.021.76-.124 1.605.998 1.986-1.054-.047-.979.22-.736 1.019.365 1.2.601 2.558.41 3.771-.162 1.027.513 1.922.053 2.983-.31.713-.059 1.671-.059 2.692z" fill="#000" sketch:type="MSShapeGroup"/><path d="M6.437 42.1c0-1.021-.251-1.978.059-2.692.46-1.061-.215-1.956-.053-2.983.191-1.213-.045-2.57-.41-3.771-.243-.799-.318-1.066.736-1.019-1.122-.382-.977-1.226-.998-1.986-.018-.718-.429-1.58.931-2.003-1.172-.074-1.197-.573-1.186-1.409.019-1.631-.275-3.264-.41-4.9-.121-1.467-.366-2.952-.254-4.405.106-1.364-.378-2.604-.41-3.911-.04-1.55-.01-3.101-.01-4.453.698-.165 1.292-.257 1.856-.445 1.689-.568 3.369-.882 5.188-.629.871.12 1.818-.322 2.732-.501.156-.029.325-.05.479-.023 1.403.248 2.57-.395 3.778-.954.876-.404 1.797-.812 2.735-.945.807-.115 1.665.191 2.504.241.521.032 1.049-.065 1.575-.104 1.098-.081 2.195-.175 3.296-.238.379-.021.788.125 1.143.034 1.44-.366 2.856-.15 4.296-.013.58.055 1.194-.291 1.798-.429.996-.226 2.038-.692 2.984-.548.603.091 1.204.294 1.855.238 1.615-.144 3.232-.356 4.85-.37 2.417-.021 4.836.16 7.255.141 1.054-.008 2.104-.391 3.161-.438 1.138-.049 2.285.057 3.422.171.624.063 1.175.218 1.855.013.898-.27 1.9-.275 2.853-.252.635.015 1.263.275 1.893.427l.079.026c1.495-.781 3.042.073 4.601-.137 1.549-.21 3.195.364 4.805.516.554.052 1.135-.217 1.699-.199 1.938.06 3.875.197 5.813.275.974.039 1.951-.011 2.925.023 2.674.089 5.347.201 8.02.306.084.002.188-.019.244.023 1.164.849 2.425.116 3.635.218 1.919.163 3.846.233 5.771.312.731.029 1.466-.037 2.199-.027.336.005.678.154 1.006.121 1.708-.162 3.338.17 4.997.556 1.246.291 2.576.207 3.819.286-.09 1.412-.183 2.831-.27 4.251-.053.899-.188 1.805-.127 2.697.177 2.554.587 5.1.604 7.653.011 1.572.564 3.085.439 4.591-.174 2.093.598 3.979.821 5.972.153 1.36.235 2.731.416 4.086.129.964.368 1.914.567 2.866.164.78-.188 1.406-.815 1.682-.574.252-1.165-.037-1.776-.361-.564-.299-1.377-.162-2.08-.144-.489.013-1.008.294-1.454.194-.863-.197-1.583-.034-2.314.403-.286.17-.646.244-.984.293-1.278.186-2.555.414-3.841.497-3.621.233-7.245.495-10.872.568-3.226.065-6.483.125-9.678-.243-3.118-.358-6.168.188-9.254.11-1.847-.047-3.7.283-5.551.333-1.369.037-2.743-.15-4.114-.154-1.236-.002-2.47.149-3.706.167-2.084.031-4.171.008-6.255.008-2.714 0-5.429.003-8.143 0-2.208-.003-4.434.155-6.62-.076-1.369-.146-2.599.387-3.928.293-1.374-.099-2.763-.045-4.145-.016-1.996.044-3.992.107-5.988.192-2.563.112-5.125.372-7.685.348-2.245-.021-4.486-.416-6.732-.513-1.524-.065-3.058.102-4.587.159-.336.013-.672.002-1.045.002zm96.732-18.64c-1.133.835-2.168 1.483-3.06 2.291-.786.712-1.411 1.603-2.11 2.412-.487.565-1.066 1.071-1.454 1.697-.882 1.419-.154 3.164 1.442 3.628.879.256 2.009-.453 2.587-1.491.596-1.071 1.144-2.229 1.977-3.093 1.291-1.339 2.718-2.591 4.251-3.636 1.244-.849 1.927-2.033 2.472-3.285.344-.793.196-1.802.292-2.985-1.112-.645-2.345-1.378-3.595-2.079-.498-.28-1.075-.432-1.544-.749-.53-.356-.98-.831-1.463-1.26-.868-.77-1.93-1.412-2.544-2.352-.566-.865-1.109-1.326-2.068-1.108-.619.142-1.652.401-1.7.728-.111.749-.389 1.699.381 2.376 1.096.966 2.158 1.974 3.293 2.891.636.514 1.39.885 2.089 1.318l-.035.291c-.543.045-1.093.162-1.631.125-2.342-.163-4.678-.372-7.017-.566-.432-.037-.873-.17-1.295-.12-1.737.205-3.47.461-5.204.704-1.244.173-2.486.356-3.706.532-.087.84-.186 1.511-.22 2.185-.051 1.009.498 1.572 1.514 1.542.468-.015.937-.12 1.401-.204.985-.178 1.962-.442 2.957-.537 1.229-.116 2.473-.138 3.711-.128 1.342.01 2.684.087 4.026.163 1.866.105 3.732.225 5.596.37.244.019.474.241.659.34zm-86.043.98c1.405 2.732 2.809 5.251 3.999 7.867.648 1.425 2.803 1.906 3.729 1.053.114-.104.228-.246.267-.391.346-1.301.675-2.604 1.008-3.91.093-.364.233-.726.26-1.095.111-1.49.672-2.86 1.054-4.277.352-1.305.667-2.624.984-3.939.026-.105-.08-.235-.09-.356-.029-.425-.053-.851-.058-1.276-.018-1.414-1.008-2.388-2.266-2.219-.526.071-1.657 1.613-1.733 2.423-.146 1.569-.174 3.154-.416 4.706-.227 1.443-.67 2.852-1.046 4.394-.411-.751-.725-1.307-1.024-1.87-.733-1.386-1.43-2.792-2.197-4.157-.58-1.032-1.319-1.978-1.848-3.033-.416-.831-1.458-1.485-2.417-1.265-.765.176-1.639 1.436-1.583 2.228.058.799.182 1.618.077 2.402-.323 2.443-.734 4.874-1.127 7.309-.124.776-.05 1.776-.503 2.261-.543.582-.593.903-.193 1.454.358.495.63 1.14 1.111 1.435.487.298 1.181.27 1.79.345.829.104 1.689-1.136 1.389-1.919-.162-.425-.325-.911-.281-1.348.127-1.26.347-2.511.554-3.761.162-.987.358-1.969.561-3.059zm18.921-1.163c0-.958-.029-1.81.021-2.659.011-.205.238-.477.436-.582 1.385-.736 2.813-1.297 4.441-1.048 1.941.298 2.382-.016 2.443-1.826.032-.998-1.143-2.603-2.142-2.43-.988.171-1.982.33-2.964.537-1.194.252-2.371.579-3.565.823-1.646.336-2.324.93-2.396 2.31-.023.442.223.895.236 1.346.056 2.027.09 4.055.093 6.084.002.694-.17 1.39-.148 2.08.031 1.011.383 2.064.191 3.015-.188.927.056 1.687.215 2.519.112.592.389.852 1.016.916.603.06 1.178.398 1.782.472 1.098.134 2.226.319 3.311.197 1.326-.147 2.612-.629 3.929-.886 1.162-.225 1.856-.925 2.268-1.972.246-.628-.461-2.095-1.021-2.09-.742.005-1.495.057-2.226.183-1.876.322-3.741.694-5.578 1.04-.119-1.381-.243-2.65-.318-3.921-.006-.125.378-.408.418-.38 1.141.796 2.182-.04 3.272-.144.942-.091 1.906.06 2.861.097.633.023.947-.291.939-.932-.005-.388.109-.823-.027-1.153-.207-.5-.495-1.16-.916-1.328-.678-.272-1.491-.239-2.248-.257-1.417-.032-2.837-.01-4.322-.01zm15.17-8.806c-.492.356-.881.62-1.242.916-.082.068-.056.257-.104.38-.593 1.558.588 2.6 1.135 3.805.44.972 1.122 1.831 1.604 2.787.154.304.132.814-.013 1.137-.767 1.697-1.634 3.35-2.395 5.05-.434.974-.783 1.993-1.077 3.019-.238.835.225 1.516 1.043 1.745 1.127.315 2.557-.087 2.8-.788l.021-.094c.328-1.199.635-2.402.99-3.593.212-.715.498-1.407.747-2.111l.157-.511c.146.17.347.314.429.511.238.566.386 1.171.646 1.726.257.548.768 1.021.877 1.584.194 1 .76 1.724 1.35 2.469.662.835 2.745.862 3.087-.031.341-.888.546-1.825-.167-2.755-.403-.524-.804-1.102-1.122-1.666-.995-1.763-1.798-3.635-2.692-5.456-.445-.911-.109-1.635.599-2.151.844-.616 1-1.401.85-2.337-.029-.181-.149-.48-.09-.521.879-.603.437-1.508.522-2.279.024-.225-.1-.516-.249-.699-.725-.893-1.475.021-2.218.013-.532-.006-.476.485-.622.848-.431 1.068-.943 2.103-1.4 3.096-.344-.788-.863-1.721-1.149-2.722-.201-.705-.641-.925-1.202-1.1-.413-.129-.842-.205-1.117-.27zm25.771-.961c-.572-.349-1.151-.878-1.826-1.082-2.104-.634-4.236-.241-6.342.084-1.861.286-3.698.731-5.556 1.04-1.379.23-1.752.624-1.773 2.084-.008.594-.072 1.202.685 1.372.521.116 1.074.288 1.581.218.91-.123 1.795-.411 2.504-.584.206 1.166.301 2.417.656 3.588.847 2.784.537 5.652.664 8.476.04.867.339 1.315.876 1.626.974.565 2.099.453 2.51-.231.267-.442.354-1.063.329-1.597-.039-.922-.288-1.834-.338-2.756-.114-2.087.19-4.191-.386-6.257-.233-.841-.186-1.776-.493-2.58-.328-.861-.35-1.029.569-1.008 1.466.034 2.931.112 4.396.189.836.045 1.252-.417 1.482-1.147l.461-1.435z" fill="#fff" sketch:type="MSShapeGroup"/><path d="M103.17 23.46c-.185-.099-.415-.32-.659-.34-1.864-.146-3.73-.265-5.596-.37-1.342-.076-2.684-.154-4.026-.163-1.237-.01-2.481.011-3.711.128-.995.095-1.972.359-2.957.537-.464.084-.934.189-1.401.204-1.016.031-1.565-.532-1.514-1.542.034-.675.133-1.346.22-2.185 1.22-.176 2.462-.359 3.706-.532 1.734-.243 3.467-.498 5.204-.704.423-.05.863.082 1.295.12 2.338.194 4.675.403 7.017.566.538.037 1.088-.079 1.631-.125l.035-.291c-.699-.434-1.453-.804-2.089-1.318-1.135-.917-2.197-1.925-3.293-2.891-.77-.678-.492-1.627-.381-2.376.048-.327 1.082-.586 1.7-.728.959-.218 1.503.243 2.068 1.108.614.94 1.676 1.582 2.544 2.352.482.429.932.904 1.463 1.26.469.317 1.046.469 1.544.749 1.25.7 2.483 1.433 3.595 2.079-.096 1.183.051 2.192-.292 2.985-.545 1.252-1.228 2.436-2.472 3.285-1.533 1.045-2.96 2.297-4.251 3.636-.832.864-1.381 2.022-1.977 3.093-.579 1.039-1.708 1.747-2.587 1.491-1.596-.464-2.324-2.21-1.442-3.628.389-.626.968-1.132 1.454-1.697.699-.809 1.324-1.7 2.11-2.412.892-.807 1.927-1.456 3.06-2.291" fill="#000" sketch:type="MSShapeGroup"/><path d="M17.126 24.44c-.203 1.09-.399 2.072-.561 3.059-.207 1.25-.428 2.501-.554 3.761-.043.437.119.922.281 1.348.301.783-.559 2.022-1.389 1.919-.609-.074-1.303-.047-1.79-.345-.481-.294-.752-.94-1.111-1.435-.4-.552-.35-.872.193-1.454.453-.485.379-1.485.503-2.261.392-2.435.804-4.866 1.127-7.309.104-.785-.019-1.603-.077-2.402-.056-.791.818-2.051 1.583-2.228.959-.22 2.001.434 2.417 1.265.529 1.055 1.268 2.001 1.848 3.033.767 1.365 1.464 2.771 2.197 4.157.299.563.612 1.119 1.024 1.87.376-1.542.82-2.951 1.046-4.394.243-1.551.27-3.137.416-4.706.076-.81 1.207-2.352 1.733-2.423 1.258-.168 2.248.806 2.266 2.219.005.425.029.851.058 1.276.01.121.116.251.09.356-.317 1.315-.632 2.634-.984 3.939-.383 1.417-.943 2.787-1.054 4.277-.027.369-.167.731-.26 1.095-.333 1.305-.662 2.609-1.008 3.91-.039.146-.153.288-.267.391-.926.852-3.081.372-3.729-1.053-1.189-2.616-2.594-5.134-3.999-7.867" fill="#000" sketch:type="MSShapeGroup"/><path d="M36.047 23.277c1.485 0 2.904-.023 4.322.01.757.018 1.57-.015 2.248.257.421.168.709.828.916 1.328.137.33.023.765.027 1.153.008.641-.305.954-.939.932-.955-.037-1.919-.188-2.861-.097-1.09.104-2.131.94-3.272.144-.04-.027-.424.256-.418.38.076 1.271.199 2.54.318 3.921 1.837-.346 3.703-.718 5.578-1.04.731-.126 1.483-.178 2.226-.183.559-.005 1.266 1.462 1.021 2.09-.411 1.047-1.106 1.747-2.268 1.972-1.318.257-2.604.739-3.929.886-1.085.121-2.213-.063-3.311-.197-.604-.074-1.18-.413-1.782-.472-.627-.063-.903-.324-1.016-.916-.159-.831-.403-1.592-.215-2.519.191-.951-.161-2.004-.191-3.015-.023-.691.149-1.386.148-2.08-.003-2.029-.037-4.057-.093-6.084-.013-.451-.259-.904-.236-1.346.072-1.38.751-1.974 2.396-2.31 1.194-.244 2.371-.571 3.565-.823.982-.207 1.975-.366 2.964-.537 1-.173 2.174 1.432 2.142 2.43-.061 1.81-.501 2.124-2.443 1.826-1.628-.249-3.055.312-4.441 1.048-.198.105-.424.377-.436.582-.05.849-.021 1.702-.021 2.659" fill="#000" sketch:type="MSShapeGroup"/><path d="M51.217 14.471c.275.065.704.141 1.117.27.561.175 1.001.395 1.202 1.1.286 1.001.805 1.935 1.149 2.722.456-.993.969-2.029 1.4-3.096.146-.362.09-.854.622-.848.742.008 1.493-.906 2.218-.013.149.183.273.474.249.699-.085.772.357 1.676-.522 2.279-.059.04.061.34.09.521.149.937-.006 1.721-.85 2.337-.709.516-1.045 1.241-.599 2.151.894 1.821 1.697 3.693 2.692 5.456.318.565.718 1.142 1.122 1.666.714.93.508 1.867.167 2.755-.342.893-2.425.865-3.087.031-.59-.744-1.156-1.469-1.35-2.469-.109-.563-.62-1.035-.877-1.584-.26-.555-.408-1.16-.646-1.726-.082-.197-.283-.341-.429-.511l-.157.511c-.249.704-.535 1.396-.747 2.111-.355 1.191-.662 2.394-.99 3.593l-.021.094c-.243.7-1.673 1.103-2.8.788-.818-.23-1.281-.911-1.043-1.745.294-1.026.643-2.045 1.077-3.019.76-1.7 1.628-3.353 2.395-5.05.145-.324.167-.833.013-1.137-.482-.956-1.164-1.815-1.604-2.787-.546-1.205-1.728-2.247-1.135-3.805.048-.123.023-.312.104-.38.362-.296.751-.56 1.242-.916" fill="#000" sketch:type="MSShapeGroup"/><path d="M76.988 13.51l-.461 1.435c-.23.73-.646 1.192-1.482 1.147-1.464-.078-2.93-.155-4.396-.189-.919-.021-.897.147-.569 1.008.307.804.26 1.739.493 2.58.575 2.066.272 4.17.386 6.257.05.922.299 1.834.338 2.756.024.534-.063 1.155-.329 1.597-.411.684-1.536.796-2.51.231-.537-.311-.836-.759-.876-1.626-.127-2.824.183-5.692-.664-8.476-.355-1.171-.45-2.422-.656-3.588-.709.173-1.594.461-2.504.584-.508.07-1.061-.102-1.581-.218-.757-.17-.693-.778-.685-1.372.021-1.459.394-1.854 1.773-2.084 1.858-.309 3.695-.754 5.556-1.04 2.105-.325 4.238-.718 6.342-.084.675.204 1.254.733 1.826 1.082" fill="#000" sketch:type="MSShapeGroup"/></g></svg>