<?xml version="1.0" encoding="UTF-8" standalone="no"?>
<svg width="122px" height="47px" viewBox="0 0 122 47" version="1.1" xmlns="http://www.w3.org/2000/svg" xmlns:xlink="http://www.w3.org/1999/xlink" xmlns:sketch="http://www.bohemiancoding.com/sketch/ns">
    <!-- Generator: Sketch 3.1.1 (8761) - http://www.bohemiancoding.com/sketch -->
    <title>next-hover</title>
    <desc>Created with Sketch.</desc>
    <defs></defs>
    <g id="Page-1" stroke="none" stroke-width="1" fill="none" fill-rule="evenodd" sketch:type="MSPage">
        <g id="Imported-Layers" sketch:type="MSLayerGroup">
            <path d="M75.6489286,-0.2775 C75.8289286,-0.138382353 75.9623214,0.0557352941 76.1021429,0.0589705882 C78.1175,0.110735294 80.1360714,0.101029412 82.1498214,0.181911765 C84.1201786,0.261176471 86.0873214,0.443970588 88.0560714,0.550735294 C89.7098214,0.641323529 91.3683929,0.678529412 93.02375,0.757794118 C93.9430357,0.801470588 94.8623214,0.942205882 95.7816071,0.934117647 C97.355,0.919558824 98.9267857,0.796617647 100.500179,0.769117647 C101.093214,0.759411765 101.699107,0.977794118 102.2825,0.919558824 C102.832143,0.864558824 103.359286,0.583088235 103.863929,0.411617647 C103.825357,0.883970588 104.204643,1.12823529 104.924643,1.15573529 C107.439821,1.24955882 109.951786,1.4 112.466964,1.53102941 C113.031071,1.56014706 113.596786,1.59573529 114.133571,1.62647059 C114.474286,1.72838235 114.813393,1.93058824 115.138036,1.90955882 C116.804643,1.80602941 118.431071,1.76720588 119.572143,3.30882353 C119.671786,3.44308824 119.705536,3.63720588 119.734464,3.81029412 C119.896786,4.78573529 120.153929,5.76441176 120.163571,6.74308824 C120.168393,7.31573529 119.734464,7.88029412 119.565714,8.4675 C119.332679,9.27470588 119.032143,10.0916176 118.991964,10.9166176 C118.856964,13.6714706 118.993571,16.4133824 119.5175,19.1391176 C119.785893,20.5302941 119.747321,21.9764706 119.946607,23.3838235 C120.206964,25.2279412 120.599107,27.0542647 120.870714,28.8967647 C121.116607,30.5645588 121.266071,32.2452941 121.478214,33.9163235 C121.593929,34.8173529 121.775536,35.7086765 121.884821,36.6097059 C122.008571,37.6336765 122.159643,38.6641176 122.162857,39.6913235 C122.164464,40.7783824 121.388214,41.44 120.6425,42.1275 C119.458036,43.2161765 117.997143,43.4216176 116.518571,43.6626471 C115.59125,43.8130882 114.671964,44.0347059 113.759107,44.2627941 C113.575893,44.3080882 113.434464,44.5280882 113.25125,44.6882353 C112.079643,43.9797059 110.824464,43.86 109.503393,44.5264706 C108.000714,45.2835294 106.398393,45.2107353 104.775179,45.07 C104.063214,45.0085294 103.282143,45.1055882 102.603929,45.0877941 C101.0675,45.0457353 99.61625,45.2058824 98.1441071,45.5763235 C97.4723214,45.7445588 96.7539286,45.8302941 96.0644643,45.7930882 C94.6421429,45.7186765 93.2278571,45.4744118 91.8055357,45.4161765 C90.14375,45.3466176 88.4755357,45.4226471 86.8121429,45.3935294 C84.3146429,45.3498529 81.8171429,45.2042647 79.3228571,45.2301471 C77.7767857,45.2463235 76.2355357,45.5407353 74.6878571,45.6377941 C73.7203571,45.6992647 72.7448214,45.6264706 71.7725,45.6135294 C71.2533929,45.6054412 70.7342857,45.6022059 70.2151786,45.5925 C69.2107143,45.5763235 68.2078571,45.5407353 67.2033929,45.5407353 C66.2326786,45.5407353 65.2619643,45.6119118 64.2944643,45.5892647 C63.0232143,45.5601471 61.7551786,45.4663235 60.4855357,45.4113235 C60.0371429,45.3919118 59.5517857,45.2948529 59.1419643,45.4210294 C57.0960714,46.0551471 55.0453571,45.73 52.9785714,45.62 C51.3778571,45.5358824 49.7658929,45.7316176 48.1571429,45.7655882 C47.7232143,45.7752941 47.2860714,45.6232353 46.8489286,45.6005882 C45.3157143,45.5213235 43.7792857,45.3789706 42.2476786,45.4242647 C40.05875,45.4922059 37.8746429,45.7202941 35.6857143,45.8497059 C34.7439286,45.9047059 33.7989286,45.8691176 32.8555357,45.8966176 C29.9932143,45.9839706 27.1308929,46.0583824 24.2717857,46.1958824 C23.6578571,46.225 23.0133929,46.0697059 22.3994643,46.5873529 C22.1375,46.8073529 21.4046429,46.4110294 20.8807143,46.3802941 C19.3475,46.2880882 17.8126786,46.2476471 16.2778571,46.1748529 C13.6276786,46.0502941 10.9775,45.8254412 8.32732143,45.8302941 C7.16375,45.8319118 6.0275,46.0761765 4.88482143,45.6070588 C3.51714286,45.0473529 2.46446429,44.2417647 2.08678571,42.7163235 C1.95821429,42.1922059 1.39571429,41.5192647 1.56446429,41.2313235 C1.90357143,40.6554412 1.82642857,40.1620588 1.83446429,39.5845588 C1.84732143,38.6333824 2.10928571,37.6789706 2.07232143,36.7326471 C2.00642857,35.0454412 1.86339286,33.355 1.62714286,31.6839706 C1.42946429,30.2847059 0.989107143,28.9194118 0.781785714,27.5201471 C0.670892857,26.7711765 0.842857143,25.985 0.846071429,25.2133824 C0.849285714,24.6844118 0.770535714,24.1538235 0.749642857,23.6232353 C0.666071429,21.4135294 0.6275,19.2022059 0.497321429,16.9957353 C0.437857143,16.0170588 0.179107143,15.0513235 0.0553571429,14.0742647 C0.0167857143,13.7782353 0.167857143,13.4627941 0.159821429,13.1602941 C0.134107143,12.1654412 0.0103571429,11.1705882 0.0457142857,10.1805882 C0.0891071429,8.99 0.235357143,7.80102941 0.386428571,6.61852941 C0.41375,6.405 0.635535714,6.13 0.836428571,6.03941176 C1.53392857,5.72558824 2.26035714,5.48132353 2.97553571,5.21441176 C3.26803571,5.10441176 3.64410714,5.08338235 3.84178571,4.88279412 C4.68392857,4.02705882 5.72375,4.27779412 6.73464286,4.21955882 C7.99303571,4.14514706 9.24339286,3.94455882 10.5001786,3.80867647 C11.1366071,3.74073529 11.7746429,3.69220588 12.4223214,3.63235294 C12.49625,3.34602941 12.56375,3.08073529 12.63125,2.82352941 C14.1982143,3.15191176 15.5642857,2.65044118 16.9544643,2.14573529 C17.5491071,1.93058824 18.2385714,1.98558824 18.8846429,1.91926471 C20.8051786,1.72514706 22.7241071,1.50029412 24.6478571,1.34176471 C28.1273214,1.05544118 31.6132143,0.827352941 35.0926786,0.532941176 C36.6773214,0.400294118 38.2507143,0.0638235294 39.8353571,0.00235294118 C42.2203571,-0.0914705882 44.6117857,0.00235294118 47,-0.03 C49.5923214,-0.0639705882 52.1830357,-0.162647059 54.77375,-0.214411765 C58.4573214,-0.288823529 62.1408929,-0.385882353 65.8244643,-0.390735294 C67.1101786,-0.392352941 68.3942857,-0.0947058824 69.6832143,-0.0364705882 C71.4414286,0.0411764706 73.2060714,0.0347058824 74.9675,0.0282352941 C75.2085714,0.0282352941 75.45125,-0.183676471 75.6489286,-0.2775 L75.6489286,-0.2775 Z M6.43732143,42.1 C6.81017857,42.1 7.14607143,42.1113235 7.48196429,42.0983824 C9.01035714,42.0417647 10.5451786,41.8751471 12.06875,41.9398529 C14.3155357,42.0369118 16.5558929,42.4316176 18.8010714,42.4526471 C21.36125,42.4769118 23.9230357,42.2164706 26.4864286,42.1048529 C28.4825,42.0191176 30.4785714,41.9560294 32.4746429,41.9123529 C33.8567857,41.8832353 35.2453571,41.8298529 36.6194643,41.9285294 C37.9485714,42.0223529 39.1780357,41.4901471 40.5473214,41.6357353 C42.7330357,41.8670588 44.9589286,41.7085294 47.1671429,41.7117647 C49.8816071,41.715 52.5960714,41.7117647 55.3105357,41.7117647 C57.395,41.7117647 59.4810714,41.7344118 61.5655357,41.7036765 C62.8014286,41.6858824 64.0357143,41.5354412 65.2716071,41.5370588 C66.6425,41.5402941 68.0166071,41.7279412 69.3858929,41.6907353 C71.2373214,41.6405882 73.0903571,41.3105882 74.9369643,41.3575 C78.0226786,41.4351471 81.0730357,40.89 84.1908929,41.2475 C87.3858929,41.6147059 90.6435714,41.5548529 93.8691071,41.4901471 C97.4964286,41.4173529 101.120536,41.1552941 104.741429,40.9223529 C106.027143,40.8398529 107.304821,40.6117647 108.5825,40.4257353 C108.92,40.3772059 109.28,40.3027941 109.566071,40.1329412 C110.297321,39.6961765 111.017321,39.5327941 111.880357,39.7301471 C112.327143,39.8304412 112.84625,39.5489706 113.334821,39.5360294 C114.037143,39.5182353 114.850357,39.3807353 115.414464,39.68 C116.025179,40.0035294 116.616607,40.2930882 117.190357,40.0407353 C117.817143,39.7641176 118.169107,39.1380882 118.005179,38.3583824 C117.805893,37.4055882 117.566429,36.4560294 117.437857,35.4919118 C117.25625,34.1363235 117.174286,32.7661765 117.021607,31.4057353 C116.798214,29.4127941 116.026786,27.5266176 116.200357,25.4333824 C116.325714,23.9273529 115.772857,22.4148529 115.761607,20.8425 C115.743929,18.2898529 115.334107,15.7436765 115.157321,13.1894118 C115.09625,12.2980882 115.23125,11.3922059 115.284286,10.4927941 C115.371071,9.0725 115.464286,7.65382353 115.554286,6.24161765 C114.311964,6.16235294 112.98125,6.24647059 111.735714,5.95529412 C110.077143,5.56867647 108.4475,5.23705882 106.739107,5.39882353 C106.41125,5.43117647 106.068929,5.28235294 105.733036,5.2775 C105.000179,5.26779412 104.265714,5.33411765 103.534464,5.305 C101.609107,5.22573529 99.6821429,5.15617647 97.7632143,4.99279412 C96.5530357,4.89088235 95.2914286,5.62367647 94.1278571,4.77441176 C94.0716071,4.73235294 93.9671429,4.75338235 93.8835714,4.75176471 C91.2108929,4.64661765 88.5382143,4.535 85.8639286,4.44602941 C84.89,4.41205882 83.9128571,4.46220588 82.9389286,4.42338235 C81.0007143,4.34573529 79.0641071,4.20823529 77.1258929,4.14838235 C76.5617857,4.13058824 75.9816071,4.39911765 75.4271429,4.34735294 C73.8167857,4.19529412 72.1710714,3.62102941 70.6217857,3.83132353 C69.0628571,4.04161765 67.5151786,3.1875 66.0205357,3.96882353 C66.0028571,3.97852941 65.9691071,3.94941176 65.9417857,3.94294118 C65.3117857,3.79088235 64.6833929,3.53044118 64.0485714,3.51588235 C63.0955357,3.49323529 62.0942857,3.49808824 61.1958929,3.76823529 C60.5160714,3.97367647 59.9648214,3.81838235 59.34125,3.75529412 C58.205,3.64044118 57.0575,3.53529412 55.9196429,3.58382353 C54.8621429,3.63073529 53.8126786,4.01411765 52.7583929,4.02220588 C50.3396429,4.04161765 47.9208929,3.86044118 45.50375,3.88147059 C43.8853571,3.89602941 42.2685714,4.10794118 40.6533929,4.25191176 C40.0025,4.30852941 39.4014286,4.10470588 38.79875,4.01411765 C37.8521429,3.87014706 36.8107143,4.33602941 35.8142857,4.5625 C35.21,4.7 34.5960714,5.04617647 34.0158929,4.99117647 C32.5758929,4.85367647 31.16,4.63852941 29.72,5.00411765 C29.3648214,5.09470588 28.9566071,4.94911765 28.5773214,4.97014706 C27.4764286,5.03323529 26.37875,5.12705882 25.2810714,5.20794118 C24.7555357,5.24676471 24.2267857,5.34382353 23.7060714,5.31147059 C22.8671429,5.26132353 22.0089286,4.95558824 21.2021429,5.07044118 C20.2635714,5.20308824 19.3426786,5.61073529 18.4667857,6.01514706 C17.2582143,6.57485294 16.0914286,7.21705882 14.6883929,6.96955882 C14.5341071,6.94205882 14.3653571,6.96308824 14.2094643,6.99220588 C13.295,7.17176471 12.3483929,7.61338235 11.4773214,7.49367647 C9.65803571,7.24132353 7.97857143,7.55514706 6.28946429,8.12294118 C5.72535714,8.31058824 5.13071429,8.40279412 4.43321429,8.56779412 C4.43321429,9.92014706 4.40267857,11.4714706 4.44285714,13.0211765 C4.475,14.3282353 4.95875,15.5689706 4.85267857,16.9326471 C4.74017857,18.3852941 4.98607143,19.8702941 5.10660714,21.3375 C5.24160714,22.9729412 5.53571429,24.6067647 5.51642857,26.2373529 C5.50517857,27.0736765 5.53089286,27.5719118 6.7025,27.6463235 C5.34285714,28.0685294 5.75428571,28.9307353 5.77196429,29.6489706 C5.79285714,30.4092647 5.64821429,31.2536765 6.77,31.6354412 C5.71571429,31.5885294 5.79125,31.8554412 6.03392857,32.6545588 C6.39875,33.8548529 6.635,35.2120588 6.44375,36.4252941 C6.28142857,37.4525 6.95642857,38.3470588 6.49678571,39.4082353 C6.18660714,40.1216176 6.43732143,41.0792647 6.43732143,42.1 L6.43732143,42.1 Z" id="Fill-2" fill="#000000" sketch:type="MSShapeGroup"></path>
            <path d="M6.43732143,42.1 C6.43732143,41.0792647 6.18660714,40.1216176 6.49678571,39.4082353 C6.95642857,38.3470588 6.28142857,37.4525 6.44375,36.4252941 C6.635,35.2120588 6.39875,33.8548529 6.03392857,32.6545588 C5.79125,31.8554412 5.71571429,31.5885294 6.77,31.6354412 C5.64821429,31.2536765 5.79285714,30.4092647 5.77196429,29.6489706 C5.75428571,28.9307353 5.34285714,28.0685294 6.7025,27.6463235 C5.53089286,27.5719118 5.50517857,27.0736765 5.51642857,26.2373529 C5.53571429,24.6067647 5.24160714,22.9729412 5.10660714,21.3375 C4.98607143,19.8702941 4.74017857,18.3852941 4.85267857,16.9326471 C4.95875,15.5689706 4.475,14.3282353 4.44285714,13.0211765 C4.40267857,11.4714706 4.43321429,9.92014706 4.43321429,8.56779412 C5.13071429,8.40279412 5.72535714,8.31058824 6.28946429,8.12294118 C7.97857143,7.55514706 9.65803571,7.24132353 11.4773214,7.49367647 C12.3483929,7.61338235 13.295,7.17176471 14.2094643,6.99220588 C14.3653571,6.96308824 14.5341071,6.94205882 14.6883929,6.96955882 C16.0914286,7.21705882 17.2582143,6.57485294 18.4667857,6.01514706 C19.3426786,5.61073529 20.2635714,5.20308824 21.2021429,5.07044118 C22.0089286,4.95558824 22.8671429,5.26132353 23.7060714,5.31147059 C24.2267857,5.34382353 24.7555357,5.24676471 25.2810714,5.20794118 C26.37875,5.12705882 27.4764286,5.03323529 28.5773214,4.97014706 C28.9566071,4.94911765 29.3648214,5.09470588 29.72,5.00411765 C31.16,4.63852941 32.5758929,4.85367647 34.0158929,4.99117647 C34.5960714,5.04617647 35.21,4.7 35.8142857,4.5625 C36.8107143,4.33602941 37.8521429,3.87014706 38.79875,4.01411765 C39.4014286,4.10470588 40.0025,4.30852941 40.6533929,4.25191176 C42.2685714,4.10794118 43.8853571,3.89602941 45.50375,3.88147059 C47.9208929,3.86044118 50.3396429,4.04161765 52.7583929,4.02220588 C53.8126786,4.01411765 54.8621429,3.63073529 55.9196429,3.58382353 C57.0575,3.53529412 58.205,3.64044118 59.34125,3.75529412 C59.9648214,3.81838235 60.5160714,3.97367647 61.1958929,3.76823529 C62.0942857,3.49808824 63.0955357,3.49323529 64.0485714,3.51588235 C64.6833929,3.53044118 65.3117857,3.79088235 65.9417857,3.94294118 C65.9691071,3.94941176 66.0028571,3.97852941 66.0205357,3.96882353 C67.5151786,3.1875 69.0628571,4.04161765 70.6217857,3.83132353 C72.1710714,3.62102941 73.8167857,4.19529412 75.4271429,4.34735294 C75.9816071,4.39911765 76.5617857,4.13058824 77.1258929,4.14838235 C79.0641071,4.20823529 81.0007143,4.34573529 82.9389286,4.42338235 C83.9128571,4.46220588 84.89,4.41205882 85.8639286,4.44602941 C88.5382143,4.535 91.2108929,4.64661765 93.8835714,4.75176471 C93.9671429,4.75338235 94.0716071,4.73235294 94.1278571,4.77441176 C95.2914286,5.62367647 96.5530357,4.89088235 97.7632143,4.99279412 C99.6821429,5.15617647 101.609107,5.22573529 103.534464,5.305 C104.265714,5.33411765 105.000179,5.26779412 105.733036,5.2775 C106.068929,5.28235294 106.41125,5.43117647 106.739107,5.39882353 C108.4475,5.23705882 110.077143,5.56867647 111.735714,5.95529412 C112.98125,6.24647059 114.311964,6.16235294 115.554286,6.24161765 C115.464286,7.65382353 115.371071,9.0725 115.284286,10.4927941 C115.23125,11.3922059 115.09625,12.2980882 115.157321,13.1894118 C115.334107,15.7436765 115.743929,18.2898529 115.761607,20.8425 C115.772857,22.4148529 116.325714,23.9273529 116.200357,25.4333824 C116.026786,27.5266176 116.798214,29.4127941 117.021607,31.4057353 C117.174286,32.7661765 117.25625,34.1363235 117.437857,35.4919118 C117.566429,36.4560294 117.805893,37.4055882 118.005179,38.3583824 C118.169107,39.1380882 117.817143,39.7641176 117.190357,40.0407353 C116.616607,40.2930882 116.025179,40.0035294 115.414464,39.68 C114.850357,39.3807353 114.037143,39.5182353 113.334821,39.5360294 C112.84625,39.5489706 112.327143,39.8304412 111.880357,39.7301471 C111.017321,39.5327941 110.297321,39.6961765 109.566071,40.1329412 C109.28,40.3027941 108.92,40.3772059 108.5825,40.4257353 C107.304821,40.6117647 106.027143,40.8398529 104.741429,40.9223529 C101.120536,41.1552941 97.4964286,41.4173529 93.8691071,41.4901471 C90.6435714,41.5548529 87.3858929,41.6147059 84.1908929,41.2475 C81.0730357,40.89 78.0226786,41.4351471 74.9369643,41.3575 C73.0903571,41.3105882 71.2373214,41.6405882 69.3858929,41.6907353 C68.0166071,41.7279412 66.6425,41.5402941 65.2716071,41.5370588 C64.0357143,41.5354412 62.8014286,41.6858824 61.5655357,41.7036765 C59.4810714,41.7344118 57.395,41.7117647 55.3105357,41.7117647 C52.5960714,41.7117647 49.8816071,41.715 47.1671429,41.7117647 C44.9589286,41.7085294 42.7330357,41.8670588 40.5473214,41.6357353 C39.1780357,41.4901471 37.9485714,42.0223529 36.6194643,41.9285294 C35.2453571,41.8298529 33.8567857,41.8832353 32.4746429,41.9123529 C30.4785714,41.9560294 28.4825,42.0191176 26.4864286,42.1048529 C23.9230357,42.2164706 21.36125,42.4769118 18.8010714,42.4526471 C16.5558929,42.4316176 14.3155357,42.0369118 12.06875,41.9398529 C10.5451786,41.8751471 9.01035714,42.0417647 7.48196429,42.0983824 C7.14607143,42.1113235 6.81017857,42.1 6.43732143,42.1 L6.43732143,42.1 Z M103.169643,23.4598529 C102.036607,24.2945588 101.001607,24.9432353 100.109643,25.7504412 C99.32375,26.4622059 98.6985714,27.3535294 97.9994643,28.1623529 C97.5125,28.7269118 96.9339286,29.2332353 96.545,29.8592647 C95.6626786,31.2779412 96.3907143,33.0233824 97.9866071,33.4876471 C98.8657143,33.7432353 99.9955357,33.0347059 100.574107,31.9961765 C101.170357,30.9252941 101.718393,29.7670588 102.550893,28.9032353 C103.841429,27.5638235 105.268571,26.3117647 106.801786,25.2667647 C108.045714,24.4175 108.72875,23.2333824 109.273571,21.9813235 C109.6175,21.1886765 109.469643,20.1792647 109.566071,18.9967647 C108.453929,18.3513235 107.22125,17.6185294 105.970893,16.9180882 C105.472679,16.6382353 104.895714,16.4861765 104.426429,16.1691176 C103.896071,15.8132353 103.446071,15.3376471 102.963929,14.9089706 C102.096071,14.1389706 101.03375,13.4967647 100.419821,12.5569118 C99.8541071,11.6914706 99.3108929,11.2304412 98.3514286,11.4488235 C97.7326786,11.5911765 96.6992857,11.85 96.6510714,12.1767647 C96.5401786,12.9257353 96.2621429,13.8752941 97.0319643,14.5530882 C98.1280357,15.5188235 99.1903571,16.5266176 100.325,17.4438235 C100.961429,17.9582353 101.715179,18.3286765 102.414286,18.7622059 C102.403036,18.8592647 102.391786,18.9563235 102.378929,19.0533824 C101.835714,19.0986765 101.286071,19.2151471 100.747679,19.1779412 C98.4060714,19.0145588 96.0692857,18.8058824 93.7308929,18.6117647 C93.2985714,18.5745588 92.8582143,18.4419118 92.4355357,18.4920588 C90.6982143,18.6975 88.9657143,18.9530882 87.2316071,19.1957353 C85.9876786,19.3688235 84.7453571,19.5516176 83.5255357,19.7279412 C83.43875,20.5675 83.3391071,21.2388235 83.3053571,21.9133824 C83.2539286,22.9227941 83.8035714,23.4857353 84.8192857,23.455 C85.2869643,23.4404412 85.75625,23.3352941 86.2207143,23.2511765 C87.2058929,23.0732353 88.1830357,22.8095588 89.1778571,22.7141176 C90.4073214,22.5976471 91.65125,22.5766176 92.88875,22.5863235 C94.2307143,22.5960294 95.5726786,22.6736765 96.9146429,22.7497059 C98.7805357,22.8548529 100.646429,22.9745588 102.510714,23.1201471 C102.755,23.1395588 102.984821,23.3611765 103.169643,23.4598529 L103.169643,23.4598529 Z M17.1264286,24.4401471 C18.5310714,27.1723529 19.9357143,29.6910294 21.125,32.3067647 C21.7726786,33.7319118 23.9278571,34.2123529 24.8535714,33.3598529 C24.9676786,33.2563235 25.0817857,33.1139706 25.1203571,32.9683824 C25.4658929,31.6677941 25.7953571,30.3639706 26.1280357,29.0585294 C26.22125,28.6945588 26.3610714,28.3322059 26.3883929,27.9633824 C26.4992857,26.4735294 27.0601786,25.1033824 27.4426786,23.6863235 C27.7946429,22.3808824 28.1096429,21.0625 28.42625,19.7473529 C28.4519643,19.6422059 28.3458929,19.5127941 28.33625,19.3914706 C28.3073214,18.9660294 28.2832143,18.5405882 28.2783929,18.1151471 C28.2607143,16.7013235 27.2707143,15.7275 26.0123214,15.8957353 C25.4867857,15.9669118 24.3553571,17.5085294 24.2798214,18.3189706 C24.1335714,19.8880882 24.10625,21.4733824 23.8635714,23.0247059 C23.6369643,24.4676471 23.1933929,25.8766176 22.8173214,27.4182353 C22.4058929,26.6676471 22.0925,26.1111765 21.7935714,25.5482353 C21.0607143,24.1619118 20.3632143,22.7561765 19.5966071,21.3908824 C19.0164286,20.3588235 18.2771429,19.4125 17.7483929,18.3577941 C17.3321429,17.5263235 16.2907143,16.8727941 15.33125,17.0927941 C14.56625,17.2691176 13.6919643,18.5292647 13.7482143,19.3202941 C13.8060714,20.1194118 13.9298214,20.9379412 13.8253571,21.7225 C13.5023214,24.1651471 13.0908929,26.5964706 12.69875,29.0310294 C12.575,29.8075 12.6489286,30.8072059 12.1957143,31.2925 C11.6525,31.8748529 11.6026786,32.1951471 12.0028571,32.7467647 C12.36125,33.2417647 12.6328571,33.8872059 13.1133929,34.1816176 C13.6003571,34.4792647 14.2946429,34.4517647 14.90375,34.5261765 C15.7330357,34.6297059 16.5928571,33.3905882 16.2923214,32.6076471 C16.13,32.1822059 15.9676786,31.6969118 16.0110714,31.2601471 C16.1380357,30 16.3582143,28.7495588 16.5655357,27.4991176 C16.7278571,26.5123529 16.9239286,25.5304412 17.1264286,24.4401471 L17.1264286,24.4401471 Z M36.0473214,23.2770588 C36.0473214,22.3194118 36.0183929,21.4669118 36.0682143,20.6176471 C36.0794643,20.4122059 36.3060714,20.1404412 36.50375,20.0352941 C37.8891071,19.2992647 39.31625,18.7379412 40.9442857,18.9870588 C42.8857143,19.2847059 43.3260714,18.9708824 43.3871429,17.1607353 C43.4192857,16.1626471 42.2444643,14.5579412 41.2448214,14.7310294 C40.2564286,14.9025 39.2632143,15.0610294 38.28125,15.2680882 C37.0871429,15.5204412 35.9107143,15.8472059 34.7166071,16.0914706 C33.0708929,16.4279412 32.3926786,17.0216176 32.3203571,18.4014706 C32.2978571,18.8430882 32.54375,19.2960294 32.5566071,19.7473529 C32.6128571,21.7742647 32.6466071,23.8027941 32.6498214,25.8313235 C32.6514286,26.5252941 32.4794643,27.2208824 32.5019643,27.9116176 C32.5325,28.9226471 32.8844643,29.9757353 32.6932143,30.9269118 C32.5051786,31.8538235 32.7494643,32.6141176 32.9085714,33.4455882 C33.0210714,34.0376471 33.2975,34.2980882 33.9242857,34.3611765 C34.5269643,34.4210294 35.1023214,34.7591176 35.7066071,34.8335294 C36.8042857,34.9677941 37.9325,35.1522059 39.0173214,35.0308824 C40.3432143,34.8836765 41.6289286,34.4016176 42.9467857,34.1444118 C44.10875,33.9195588 44.8030357,33.2191176 45.2144643,32.1725 C45.4603571,31.5448529 44.7532143,30.0776471 44.1939286,30.0825 C43.4514286,30.0873529 42.6992857,30.1391176 41.9680357,30.2652941 C40.0925,30.5872059 38.2266071,30.9592647 36.3896429,31.3054412 C36.2707143,29.9239706 36.1469643,28.6557353 36.0714286,27.3842647 C36.065,27.2597059 36.4491071,26.9766176 36.4892857,27.0041176 C37.6303571,27.8 38.6717857,26.9636765 39.7614286,26.8601471 C40.7032143,26.7695588 41.6675,26.92 42.6221429,26.9572059 C43.2553571,26.9798529 43.56875,26.6660294 43.5607143,26.0254412 C43.5558929,25.6372059 43.67,25.2020588 43.5333929,24.8720588 C43.3260714,24.3722059 43.0383929,23.7122059 42.6173214,23.5439706 C41.9391071,23.2722059 41.1258929,23.3045588 40.3689286,23.2867647 C38.9514286,23.2544118 37.5323214,23.2770588 36.0473214,23.2770588 L36.0473214,23.2770588 Z M51.2171429,14.4705882 C50.7253571,14.8264706 50.3364286,15.0901471 49.9748214,15.3861765 C49.8928571,15.4541176 49.9185714,15.6433824 49.8703571,15.7663235 C49.2773214,17.3241176 50.4585714,18.3658824 51.005,19.5710294 C51.4453571,20.5432353 52.1267857,21.4022059 52.6089286,22.3582353 C52.7632143,22.6623529 52.7407143,23.1719118 52.5960714,23.4954412 C51.8294643,25.1923529 50.9616071,26.8455882 50.2014286,28.5457353 C49.7675,29.5195588 49.41875,30.5386765 49.1246429,31.5642647 C48.8867857,32.3989706 49.3496429,33.08 50.1676786,33.3097059 C51.2942857,33.6251471 52.7246429,33.2223529 52.9673214,32.5219118 C52.9769643,32.4927941 52.9801786,32.4588235 52.9882143,32.4280882 C53.3160714,31.2294118 53.6230357,30.0258824 53.9782143,28.8352941 C54.1903571,28.1202941 54.4764286,27.4279412 54.7255357,26.7242647 C54.785,26.5560294 54.83,26.3829412 54.8830357,26.2130882 C55.0292857,26.3829412 55.2301786,26.5269118 55.3121429,26.7242647 C55.55,27.2904412 55.6978571,27.8954412 55.9582143,28.4502941 C56.2153571,28.9986765 56.7264286,29.4710294 56.8357143,30.0339706 C57.0301786,31.0336765 57.5958929,31.7583824 58.1857143,32.5025 C58.8478571,33.3372059 60.9307143,33.3647059 61.2730357,32.4717647 C61.61375,31.5836765 61.8194643,30.6470588 61.1058929,29.7169118 C60.7025,29.1927941 60.3023214,28.6152941 59.9841071,28.0507353 C58.9892857,26.2875 58.1857143,24.4158824 57.2921429,22.5944118 C56.8469643,21.6836765 57.1828571,20.9589706 57.8916071,20.4429412 C58.7353571,19.8266176 58.89125,19.0420588 58.7417857,18.1054412 C58.7128571,17.9242647 58.5923214,17.625 58.6517857,17.5845588 C59.5308929,16.9811765 59.0889286,16.0769118 59.1741071,15.3052941 C59.1982143,15.0804412 59.0744643,14.7892647 58.925,14.6064706 C58.2001786,13.7135294 57.4496429,14.6275 56.7071429,14.6194118 C56.1751786,14.6129412 56.2314286,15.1047059 56.0851786,15.4670588 C55.6544643,16.5347059 55.1417857,17.57 54.6853571,18.5632353 C54.3414286,17.7754412 53.8223214,16.8420588 53.53625,15.8407353 C53.3353571,15.1354412 52.895,14.9154412 52.3341071,14.7407353 C51.9210714,14.6113235 51.4919643,14.5352941 51.2171429,14.4705882 L51.2171429,14.4705882 Z M76.9876786,13.5097059 C76.4155357,13.1602941 75.8369643,12.6313235 75.1619643,12.4275 C73.0582143,11.7933824 70.9255357,12.1864706 68.8201786,12.5116176 C66.9591071,12.7979412 65.1221429,13.2427941 63.2642857,13.5517647 C61.8853571,13.7814706 61.5125,14.1761765 61.4916071,15.6352941 C61.4835714,16.2289706 61.4192857,16.8372059 62.17625,17.0070588 C62.6969643,17.1235294 63.2498214,17.295 63.7576786,17.2254412 C64.6673214,17.1025 65.5528571,16.8145588 66.2616071,16.6414706 C66.4673214,17.8077941 66.5621429,19.0582353 66.9173214,20.2294118 C67.7642857,23.0133824 67.4541071,25.8814706 67.5810714,28.7058824 C67.62125,29.5729412 67.9201786,30.0210294 68.4569643,30.3316176 C69.4308929,30.8961765 70.5558929,30.7845588 70.9673214,30.1002941 C71.2341071,29.6586765 71.3208929,29.0375 71.2967857,28.5036765 C71.2582143,27.5816176 71.0091071,26.6692647 70.9592857,25.7472059 C70.8451786,23.6604412 71.1489286,21.5558824 70.5735714,19.4901471 C70.3405357,18.6489706 70.3871429,17.7139706 70.0801786,16.91 C69.7523214,16.0494118 69.7298214,15.8811765 70.6491071,15.9022059 C72.1148214,15.9361765 73.5805357,16.0138235 75.0446429,16.0914706 C75.8803571,16.1367647 76.2966071,15.6741176 76.5264286,14.9445588 C76.6646429,14.5029412 76.8092857,14.0645588 76.9876786,13.5097059 L76.9876786,13.5097059 Z" id="Fill-3" fill="#FFFFFF" sketch:type="MSShapeGroup"></path>
            <path d="M108.169643,23.992341 C107.984821,23.8936645 107.755,23.6720469 107.510714,23.6526351 C105.646429,23.5070469 103.780536,23.387341 101.914643,23.282194 C100.572679,23.2061645 99.2307143,23.1285175 97.88875,23.1188116 C96.65125,23.1091057 95.4073214,23.1301351 94.1778571,23.2466057 C93.1830357,23.3420469 92.2058929,23.6057234 91.2207143,23.7836645 C90.75625,23.8677822 90.2869643,23.9729293 89.8192857,23.9874881 C88.8035714,24.0182234 88.2539286,23.4552822 88.3053571,22.4458704 C88.3391071,21.7713116 88.43875,21.0999881 88.5255357,20.2604293 C89.7453571,20.0841057 90.9876786,19.9013116 92.2316071,19.7282234 C93.9657143,19.4855763 95.6982143,19.2299881 97.4355357,19.0245469 C97.8582143,18.9743998 98.2985714,19.1070469 98.7308929,19.1442528 C101.069286,19.3383704 103.406071,19.5470469 105.747679,19.7104293 C106.286071,19.7476351 106.835714,19.6311645 107.378929,19.5858704 C107.391786,19.4888116 107.403036,19.3917528 107.414286,19.294694 C106.715179,18.8611645 105.961429,18.4907234 105.325,17.9763116 C104.190357,17.0591057 103.128036,16.0513116 102.031964,15.0855763 C101.262143,14.4077822 101.540179,13.4582234 101.651071,12.7092528 C101.699286,12.3824881 102.732679,12.1236645 103.351429,11.9813116 C104.310893,11.7629293 104.854107,12.2239587 105.419821,13.0893998 C106.03375,14.0292528 107.096071,14.6714587 107.963929,15.4414587 C108.446071,15.8701351 108.896071,16.3457234 109.426429,16.7016057 C109.895714,17.0186645 110.472679,17.1707234 110.970893,17.4505763 C112.22125,18.1510175 113.453929,18.8838116 114.566071,19.5292528 C114.469643,20.7117528 114.6175,21.7211645 114.273571,22.5138116 C113.72875,23.7658704 113.045714,24.9499881 111.801786,25.7992528 C110.268571,26.8442528 108.841429,28.0963116 107.550893,29.4357234 C106.718393,30.2995469 106.170357,31.4577822 105.574107,32.5286645 C104.995536,33.567194 103.865714,34.2757234 102.986607,34.0201351 C101.390714,33.5558704 100.662679,31.8104293 101.545,30.3917528 C101.933929,29.7657234 102.5125,29.2593998 102.999464,28.694841 C103.698571,27.8860175 104.32375,26.994694 105.109643,26.2829293 C106.001607,25.4757234 107.036607,24.8270469 108.169643,23.992341" id="Fill-4" fill="#000000" sketch:type="MSShapeGroup"></path>
            <path d="M17.1264286,24.4401471 C16.9239286,25.5304412 16.7278571,26.5123529 16.5655357,27.4991176 C16.3582143,28.7495588 16.1380357,30 16.0110714,31.2601471 C15.9676786,31.6969118 16.13,32.1822059 16.2923214,32.6076471 C16.5928571,33.3905882 15.7330357,34.6297059 14.90375,34.5261765 C14.2946429,34.4517647 13.6003571,34.4792647 13.1133929,34.1816176 C12.6328571,33.8872059 12.36125,33.2417647 12.0028571,32.7467647 C11.6026786,32.1951471 11.6525,31.8748529 12.1957143,31.2925 C12.6489286,30.8072059 12.575,29.8075 12.69875,29.0310294 C13.0908929,26.5964706 13.5023214,24.1651471 13.8253571,21.7225 C13.9298214,20.9379412 13.8060714,20.1194118 13.7482143,19.3202941 C13.6919643,18.5292647 14.56625,17.2691176 15.33125,17.0927941 C16.2907143,16.8727941 17.3321429,17.5263235 17.7483929,18.3577941 C18.2771429,19.4125 19.0164286,20.3588235 19.5966071,21.3908824 C20.3632143,22.7561765 21.0607143,24.1619118 21.7935714,25.5482353 C22.0925,26.1111765 22.4058929,26.6676471 22.8173214,27.4182353 C23.1933929,25.8766176 23.6369643,24.4676471 23.8635714,23.0247059 C24.10625,21.4733824 24.1335714,19.8880882 24.2798214,18.3189706 C24.3553571,17.5085294 25.4867857,15.9669118 26.0123214,15.8957353 C27.2707143,15.7275 28.2607143,16.7013235 28.2783929,18.1151471 C28.2832143,18.5405882 28.3073214,18.9660294 28.33625,19.3914706 C28.3458929,19.5127941 28.4519643,19.6422059 28.42625,19.7473529 C28.1096429,21.0625 27.7946429,22.3808824 27.4426786,23.6863235 C27.0601786,25.1033824 26.4992857,26.4735294 26.3883929,27.9633824 C26.3610714,28.3322059 26.22125,28.6945588 26.1280357,29.0585294 C25.7953571,30.3639706 25.4658929,31.6677941 25.1203571,32.9683824 C25.0817857,33.1139706 24.9676786,33.2563235 24.8535714,33.3598529 C23.9278571,34.2123529 21.7726786,33.7319118 21.125,32.3067647 C19.9357143,29.6910294 18.5310714,27.1723529 17.1264286,24.4401471" id="Fill-5" fill="#000000" sketch:type="MSShapeGroup"></path>
            <path d="M36.0473214,23.2770588 C37.5323214,23.2770588 38.9514286,23.2544118 40.3689286,23.2867647 C41.1258929,23.3045588 41.9391071,23.2722059 42.6173214,23.5439706 C43.0383929,23.7122059 43.3260714,24.3722059 43.5333929,24.8720588 C43.67,25.2020588 43.5558929,25.6372059 43.5607143,26.0254412 C43.56875,26.6660294 43.2553571,26.9798529 42.6221429,26.9572059 C41.6675,26.92 40.7032143,26.7695588 39.7614286,26.8601471 C38.6717857,26.9636765 37.6303571,27.8 36.4892857,27.0041176 C36.4491071,26.9766176 36.065,27.2597059 36.0714286,27.3842647 C36.1469643,28.6557353 36.2707143,29.9239706 36.3896429,31.3054412 C38.2266071,30.9592647 40.0925,30.5872059 41.9680357,30.2652941 C42.6992857,30.1391176 43.4514286,30.0873529 44.1939286,30.0825 C44.7532143,30.0776471 45.4603571,31.5448529 45.2144643,32.1725 C44.8030357,33.2191176 44.10875,33.9195588 42.9467857,34.1444118 C41.6289286,34.4016176 40.3432143,34.8836765 39.0173214,35.0308824 C37.9325,35.1522059 36.8042857,34.9677941 35.7066071,34.8335294 C35.1023214,34.7591176 34.5269643,34.4210294 33.9242857,34.3611765 C33.2975,34.2980882 33.0210714,34.0376471 32.9085714,33.4455882 C32.7494643,32.6141176 32.5051786,31.8538235 32.6932143,30.9269118 C32.8844643,29.9757353 32.5325,28.9226471 32.5019643,27.9116176 C32.4794643,27.2208824 32.6514286,26.5252941 32.6498214,25.8313235 C32.6466071,23.8027941 32.6128571,21.7742647 32.5566071,19.7473529 C32.54375,19.2960294 32.2978571,18.8430882 32.3203571,18.4014706 C32.3926786,17.0216176 33.0708929,16.4279412 34.7166071,16.0914706 C35.9107143,15.8472059 37.0871429,15.5204412 38.28125,15.2680882 C39.2632143,15.0610294 40.2564286,14.9025 41.2448214,14.7310294 C42.2444643,14.5579412 43.4192857,16.1626471 43.3871429,17.1607353 C43.3260714,18.9708824 42.8857143,19.2847059 40.9442857,18.9870588 C39.31625,18.7379412 37.8891071,19.2992647 36.50375,20.0352941 C36.3060714,20.1404412 36.0794643,20.4122059 36.0682143,20.6176471 C36.0183929,21.4669118 36.0473214,22.3194118 36.0473214,23.2770588" id="Fill-6" fill="#000000" sketch:type="MSShapeGroup"></path>
            <path d="M51.2171429,14.4705882 C51.4919643,14.5352941 51.9210714,14.6113235 52.3341071,14.7407353 C52.895,14.9154412 53.3353571,15.1354412 53.53625,15.8407353 C53.8223214,16.8420588 54.3414286,17.7754412 54.6853571,18.5632353 C55.1417857,17.57 55.6544643,16.5347059 56.0851786,15.4670588 C56.2314286,15.1047059 56.1751786,14.6129412 56.7071429,14.6194118 C57.4496429,14.6275 58.2001786,13.7135294 58.925,14.6064706 C59.0744643,14.7892647 59.1982143,15.0804412 59.1741071,15.3052941 C59.0889286,16.0769118 59.5308929,16.9811765 58.6517857,17.5845588 C58.5923214,17.625 58.7128571,17.9242647 58.7417857,18.1054412 C58.89125,19.0420588 58.7353571,19.8266176 57.8916071,20.4429412 C57.1828571,20.9589706 56.8469643,21.6836765 57.2921429,22.5944118 C58.1857143,24.4158824 58.9892857,26.2875 59.9841071,28.0507353 C60.3023214,28.6152941 60.7025,29.1927941 61.1058929,29.7169118 C61.8194643,30.6470588 61.61375,31.5836765 61.2730357,32.4717647 C60.9307143,33.3647059 58.8478571,33.3372059 58.1857143,32.5025 C57.5958929,31.7583824 57.0301786,31.0336765 56.8357143,30.0339706 C56.7264286,29.4710294 56.2153571,28.9986765 55.9582143,28.4502941 C55.6978571,27.8954412 55.55,27.2904412 55.3121429,26.7242647 C55.2301786,26.5269118 55.0292857,26.3829412 54.8830357,26.2130882 C54.83,26.3829412 54.785,26.5560294 54.7255357,26.7242647 C54.4764286,27.4279412 54.1903571,28.1202941 53.9782143,28.8352941 C53.6230357,30.0258824 53.3160714,31.2294118 52.9882143,32.4280882 C52.9801786,32.4588235 52.9769643,32.4927941 52.9673214,32.5219118 C52.7246429,33.2223529 51.2942857,33.6251471 50.1676786,33.3097059 C49.3496429,33.08 48.8867857,32.3989706 49.1246429,31.5642647 C49.41875,30.5386765 49.7675,29.5195588 50.2014286,28.5457353 C50.9616071,26.8455882 51.8294643,25.1923529 52.5960714,23.4954412 C52.7407143,23.1719118 52.7632143,22.6623529 52.6089286,22.3582353 C52.1267857,21.4022059 51.4453571,20.5432353 51.005,19.5710294 C50.4585714,18.3658824 49.2773214,17.3241176 49.8703571,15.7663235 C49.9185714,15.6433824 49.8928571,15.4541176 49.9748214,15.3861765 C50.3364286,15.0901471 50.7253571,14.8264706 51.2171429,14.4705882" id="Fill-7" fill="#000000" sketch:type="MSShapeGroup"></path>
            <path d="M76.9876786,13.5097059 C76.8092857,14.0645588 76.6646429,14.5029412 76.5264286,14.9445588 C76.2966071,15.6741176 75.8803571,16.1367647 75.0446429,16.0914706 C73.5805357,16.0138235 72.1148214,15.9361765 70.6491071,15.9022059 C69.7298214,15.8811765 69.7523214,16.0494118 70.0801786,16.91 C70.3871429,17.7139706 70.3405357,18.6489706 70.5735714,19.4901471 C71.1489286,21.5558824 70.8451786,23.6604412 70.9592857,25.7472059 C71.0091071,26.6692647 71.2582143,27.5816176 71.2967857,28.5036765 C71.3208929,29.0375 71.2341071,29.6586765 70.9673214,30.1002941 C70.5558929,30.7845588 69.4308929,30.8961765 68.4569643,30.3316176 C67.9201786,30.0210294 67.62125,29.5729412 67.5810714,28.7058824 C67.4541071,25.8814706 67.7642857,23.0133824 66.9173214,20.2294118 C66.5621429,19.0582353 66.4673214,17.8077941 66.2616071,16.6414706 C65.5528571,16.8145588 64.6673214,17.1025 63.7576786,17.2254412 C63.2498214,17.295 62.6969643,17.1235294 62.17625,17.0070588 C61.4192857,16.8372059 61.4835714,16.2289706 61.4916071,15.6352941 C61.5125,14.1761765 61.8853571,13.7814706 63.2642857,13.5517647 C65.1221429,13.2427941 66.9591071,12.7979412 68.8201786,12.5116176 C70.9255357,12.1864706 73.0582143,11.7933824 75.1619643,12.4275 C75.8369643,12.6313235 76.4155357,13.1602941 76.9876786,13.5097059" id="Fill-8" fill="#000000" sketch:type="MSShapeGroup"></path>
        </g>
    </g>
</svg>