<svg width="214" height="100" viewBox="0 0 214 100" xmlns="http://www.w3.org/2000/svg" xmlns:sketch="http://www.bohemiancoding.com/sketch/ns"><title>put-that-cookie-hover</title><desc>Created with Sketch.</desc><g sketch:type="MSLayerGroup" fill="none"><path d="M210.463 93.081l-1.485 2.619c-3.683-.17-7.594-.376-11.51-.527-4.766-.18-9.536-.513-14.297-.416-5.246.108-10.487.592-15.723.993-1.793.139-3.559.666-5.35.753-1.71.081-3.441-.308-5.158-.267-4.029.093-8.054.319-12.081.496-2.614.116-5.226.265-7.842.362-4.357.163-8.721.472-13.076.399-5.659-.093-11.31-.544-16.967-.757-2.8-.105-5.607-.081-8.411-.014-4.26.101-8.533-.621-12.789.273-.836.176-1.783-.159-2.678-.273-3.062-.391-6.078-.079-9.08.552-.716.151-1.487.356-2.179.232-1.923-.348-3.683.155-5.515.606-1.978.486-4.035.699-6.072.914-3.511.374-7.033.658-10.551.974-.328.029-.664.052-.988.012-6.629-.78-13.257-.027-19.884-.023-4.687.002-9.373-.354-14.06-.405-2.785-.031-5.572.259-8.36.306-.788.012-1.582-.321-2.42-.505-.45-1.084.167-2.637-1.419-3.103-.099-.029-.175-.283-.19-.439-.215-2.195-.444-4.389-.615-6.588-.109-1.388-.122-2.784-.19-4.176-.097-1.951-1.238-4.106 1.139-5.575.186-.114.21-.616.184-.929-.301-3.694-.522-7.401-1.003-11.073-.161-1.233-.994-2.379-1.578-3.692 2.455-1.667 1.828-4.189 1.648-6.417-.334-4.1-1.036-8.167-1.516-12.256-.097-.834-.322-1.75.701-2.428.411-.273.549-1.179.559-1.8.068-3.798.064-7.596.08-11.394.002-.248-.066-.501-.033-.743.512-3.798 1.036-7.596 1.554-11.394.078-.573.142-1.148.212-1.721.039-.319-.035-.724.134-.939 1.021-1.311 2.098-2.579 3.28-4.013 1.376 1.268 2.783 1.136 4.271.263.844-.494 1.78-.894 2.727-1.121 1.003-.242 2.084-.401 3.099-.292 2.428.265 4.828.925 7.256 1.036 6.169.279 12.337.122 18.471-.763 1.052-.153 2.139-.052 3.206-.13.813-.062 1.855.056 2.383-.393 1.343-1.136 2.666-.571 4.089-.509 3.202.141 6.414.025 9.62.025 3.703 0 7.406.05 11.108.008 2.288-.025 4.594-.017 6.856-.312 3.435-.453 6.858-.618 10.322-.652 4.427-.041 8.851-.513 13.278-.765 5.83-.331 11.661-.65 17.493-.931 5.985-.292 11.976-.463 17.957-.817 4.733-.281 9.459-.699 14.178-1.175 3.672-.37 7.314-1.063 10.99-1.359 4.002-.323 8.027-.333 12.042-.521 1.96-.093 3.918-.283 5.878-.424 2.457-.176 4.984-.039 7.355-.592 3.2-.745 6.46-.732 9.668-1.274 2.061-.35 4.215-.151 6.327-.184.741-.012 1.481.023 2.22.033 1.597.021 2.208.408 2.162 1.984-.146 5.02 2.057 9.627 2.393 14.548 1.322 1.829.829 3.891.336 5.72-.827 3.064-.237 5.91.751 8.704.532 1.5.45 2.569-.875 3.407-.743.47-.877 1.067-.84 1.882.155 3.295-.237 6.547-.786 9.797-.52 3.092-.629 6.177.194 9.286.324 1.231.212 2.637.039 3.928-.398 2.97-.336 5.879.192 8.845.4 2.249.334 4.582.452 6.88.103 2.011.734 3.999-.305 6.032-.386.757-.295 2.129.151 2.875 1.271 2.133.442 3.998-.578 5.693-.79 1.314-1.283 2.424-.553 3.643zm-4.537-89.729c-2.661 1.533-2.905 1.715-4.126 1.034-2.496-1.388-5.055-1.036-7.693-.73-4.972.579-9.907 1.638-14.968 1.189-1.306-.116-2.641-.108-3.945.017-2.694.252-5.381.621-8.069.945-2.362.285-4.731.869-7.083.801-3.46-.101-6.823-.019-10.064 1.328-.217.091-.464.145-.701.149-4.25.091-8.5.172-12.752.256-.906.017-1.813.004-2.719.06-7.549.47-15.1.889-22.642 1.452-4.652.345-9.389.13-13.887 1.779-.522.192-1.137.165-1.71.188-4.578.172-9.156.352-13.736.488-2.139.062-4.357-.306-6.4.145-2.115.467-4.147 1.204-6.356 1.055l-.239.054c-4.432.197-8.863.461-13.297.563-4.161.095-8.329-.046-12.49.035-3.759.072-7.516.294-11.273.476-.877.043-1.805.449-2.612.261-3.398-.792-6.843-.023-10.262-.476-2.837-.379-5.754-.116-8.607-.41-2.088-.213-2.418-.25-3.064 1.764-1.279 3.982-1.459 8.055-.833 12.169.184 1.216.594 2.408.691 3.628.083 1.026.14 2.213-.285 3.088-.959 1.975-1.434 4.021-1.547 6.168-.105 2.042.136 4.133-.219 6.125-.528 2.968.033 5.854.155 8.775.13 3.128.359 6.253.503 9.383.212 4.691.563 9.317 2.639 13.681 1.62 3.401 2.977 6.934 4.314 10.459.584 1.539 1.566 1.93 3.045 1.847 3.014-.165 6.035-.263 9.051-.381.402-.014.809.008 1.211.041 3.01.259 6.016.592 9.032.761 2.032.114 4.081-.07 6.117.002 3.852.141 7.701.546 11.51-.517.508-.141 1.195.174 1.743.408 1.108.472 2.15 1.386 3.272 1.483 2.515.215 5.063.006 7.596.05.883.017 1.846.083 2.622.449 1.933.912 3.889 1.074 5.979.838 2.366-.265 4.751-.459 7.13-.49 5.228-.068 10.46-.006 15.69-.014.986-.002 1.976-.052 2.961-.13 2.403-.194 4.859-1.109 7.118.573.107.081.322.014.487.021 4.349.176 8.698.49 13.049.49 4.925-.002 9.851-.312 14.776-.443 3.536-.095 7.076-.07 10.61-.182 3.858-.12 7.71-.358 11.566-.507 4.603-.18 9.208-.298 13.81-.492 2.133-.089 4.258-.323 6.389-.447 3.668-.213 7.338-.575 11.002-.54 4.355.041 8.706.428 13.057.681 1.31.077 2.624.348 3.922.275 1.999-.114 2.732-1.167 2.449-3.155-.163-1.134-.425-2.265-.466-3.403-.107-3.039-.052-6.082-.194-9.118-.097-2.075-.293-4.061-.006-6.212.485-3.637.07-7.399-.025-11.108-.062-2.387-.268-4.77-.338-7.159-.099-3.384-.13-6.77-.2-10.154-.041-1.978-.21-3.961-.12-5.933.056-1.196.161-2.664.86-3.479.708-.821.836-1.597.774-2.412-.149-1.949-.512-3.879-.747-5.823-.068-.556-.014-1.134.025-1.7.054-.807.248-1.62.204-2.42-.25-4.598-.512-9.199-.858-13.793-.091-1.194-.503-2.362-.827-3.806zm-198.062 81.461c-.32-2.656-1.157-4.472-2.717-6.042-.227.54-.219 1.043-.229 1.543-.043 1.909 1.463 2.836 2.946 4.499zm-2.538 6.09c-.701 1.295-.324 2.397.574 3.409.212-1.191-.035-2.317-.574-3.409zm5.698 4.729l.109-.345c-.349-.182-.681-.424-1.05-.521-.297-.079-.64.019-.961.039l-.027.372 1.929.455zm22.552-2.747l.043.494 1.205-.105-.041-.484-1.207.095z" fill="#000" sketch:type="MSShapeGroup"/><path d="M205.926 3.351c.324 1.444.737 2.613.827 3.806.347 4.594.609 9.195.858 13.793.043.801-.151 1.613-.204 2.42-.039.567-.093 1.144-.025 1.7.235 1.944.598 3.874.747 5.823.062.815-.066 1.591-.774 2.412-.699.815-.805 2.284-.86 3.479-.091 1.971.078 3.955.12 5.933.07 3.384.101 6.77.2 10.154.07 2.389.276 4.772.338 7.159.095 3.709.51 7.472.025 11.108-.287 2.151-.091 4.137.006 6.212.142 3.037.087 6.079.194 9.118.041 1.138.303 2.269.466 3.403.283 1.988-.45 3.041-2.449 3.155-1.298.072-2.612-.199-3.922-.275-4.351-.252-8.702-.639-13.057-.681-3.664-.035-7.334.327-11.002.54-2.131.124-4.256.358-6.389.447-4.603.194-9.208.312-13.81.492-3.856.149-7.708.387-11.566.507-3.534.112-7.074.087-10.61.182-4.925.13-9.851.441-14.776.443-4.351 0-8.7-.314-13.049-.49-.165-.006-.38.06-.487-.021-2.259-1.682-4.714-.767-7.118-.573-.984.079-1.974.128-2.961.13-5.23.008-10.462-.054-15.69.014-2.379.031-4.764.225-7.13.49-2.09.236-4.046.074-5.979-.838-.776-.366-1.739-.432-2.622-.449-2.533-.043-5.081.165-7.596-.05-1.122-.097-2.164-1.012-3.272-1.483-.549-.234-1.236-.548-1.743-.408-3.808 1.063-7.658.658-11.51.517-2.036-.072-4.085.112-6.117-.002-3.016-.17-6.022-.503-9.032-.761-.402-.033-.809-.056-1.211-.041-3.016.118-6.037.215-9.051.381-1.479.083-2.461-.308-3.045-1.847-1.337-3.525-2.694-7.058-4.314-10.459-2.075-4.365-2.426-8.99-2.639-13.681-.144-3.13-.373-6.255-.503-9.383-.122-2.921-.683-5.806-.155-8.775.355-1.992.113-4.083.219-6.125.113-2.147.588-4.193 1.547-6.168.425-.875.367-2.062.285-3.088-.097-1.22-.508-2.412-.691-3.628-.625-4.114-.446-8.187.833-12.169.646-2.015.976-1.978 3.064-1.764 2.853.294 5.77.031 8.607.41 3.419.453 6.864-.316 10.262.476.807.188 1.735-.217 2.612-.261 3.757-.182 7.514-.403 11.273-.476 4.161-.081 8.329.06 12.49-.035 4.434-.101 8.865-.366 13.297-.563l.239-.054c2.21.149 4.242-.587 6.356-1.055 2.042-.451 4.26-.083 6.4-.145 4.58-.137 9.158-.316 13.736-.488.574-.023 1.188.004 1.71-.188 4.498-1.649 9.234-1.434 13.887-1.779 7.543-.563 15.094-.983 22.642-1.452.906-.056 1.813-.043 2.719-.06 4.252-.085 8.502-.165 12.752-.256.237-.004.485-.058.701-.149 3.241-1.347 6.604-1.429 10.064-1.328 2.352.068 4.72-.515 7.083-.801 2.688-.325 5.374-.693 8.069-.945 1.304-.124 2.639-.132 3.945-.017 5.061.449 9.996-.61 14.968-1.189 2.639-.306 5.197-.658 7.693.73 1.221.681 1.465.499 4.126-1.034zm-33.42 57.077c1.729 3.028 3.157 5.492 4.545 7.976.501.894 1.05 1.653 2.144 1.864 1.217.232 2.653-.604 2.375-1.74-.446-1.812.448-3.186.908-4.696.91-2.983 1.888-5.947 2.965-8.87.297-.803 1.05-1.429 1.574-2.151.08-.11.06-.292.122-.641l-1.483-.124v-1.446c-2.014-.865-2.238 1.425-3.532 1.806-.536.157-.933.869-1.329 1.378-.103.132.056.453.06.689.056 2.848-1.388 5.19-2.251 7.697-.792-.925-1.304-1.804-2.061-2.34-1.069-.755-1.797-1.564-2.071-2.904-.332-1.628-1.298-2.801-3.431-3.15-.475 1.258-1.122 2.491-1.393 3.802-.435 2.11-1.3 3.976-2.637 6.15-1.081-2.844-2.164-5.269-2.377-7.991-.128-1.622-1.824-3.243-3.431-3.196-.477.014-1.085.341-1.382.724-.891 1.148-.862 2.668.427 4.04 1.62 1.719 2.1 3.891 2.878 5.945.671 1.771 1.067 3.641 1.698 5.426.549 1.551 2.674 2.102 3.573.927.737-.962 1.351-2.052 1.832-3.167.772-1.783 1.391-3.637 2.278-6.007zm-48.742-2.108c1.333 2.679 2.589 5.142 3.784 7.633.78 1.622 2.851 2.948 4.502 2.778 1.256-.132 2.723-2.023 2.973-3.798.45-3.177.955-6.334 2.319-9.294.404-.877.563-1.897.685-2.871.13-1.034-.085-2.019-1.281-2.358-.99-.281-2.115.389-2.48 1.558-.487 1.562-.862 3.161-1.298 4.739-.604 2.186-1.221 4.369-1.884 6.741-.351-.418-.551-.579-.652-.788-1.607-3.314-3.13-6.671-4.848-9.927-.491-.929-1.485-2.1-2.344-2.182-.893-.087-1.935.96-2.837 1.613-.276.201-.369.726-.446 1.123-.305 1.611-.6 3.225-.844 4.847-.365 2.437-.582 4.898-1.042 7.314-.526 2.757-.613 2.741 1.772 4.319 1.576-.242 2.133-1.293 2.214-2.737.056-.989.043-1.994.219-2.962.345-1.887.514-3.833 1.487-5.748zm33.946 2.044c.827-4.832-1.448-7.093-4.65-8.647-1.454-.707-3.33-.751-5.007-.724-1.454.021-2.597.918-3.637 2.089-1.551 1.744-2.377 3.87-2.75 5.951-.406 2.269.105 4.712.289 7.072.025.314.452.623.737.887 3.185 2.958 6.563 3.479 10.833 1.378 2.457-1.208 4.095-3.212 4.182-6.152.021-.658.004-1.318.004-1.855zm-127.567 13.193c2.007.234 3.54.426 5.075.587 1.917.205 4.869-1.975 5.102-3.912.454-3.738.196-7.383-1.776-10.74-.65-1.105-1.417-2.282-2.723-2.282-2.102.002-4.256.18-6.284.695-.838.211-1.551 1.405-2.065 2.298-.596 1.03.394 1.611 1.013 2.246.167.174.367.397.392.616.338 2.84.644 5.686.97 8.531.078.687.206 1.369.297 1.959zm47.925-46.555c-.555.256-.928.418-1.291.6-2.616 1.311-5.304 2.009-8.223 1.103-.353-.11-.974-.108-1.155.108-1.089 1.301-2.496 1.415-4.023 1.334-1.058-.056-1.442.714-1.51 1.599-.08 1.009.658 1.26 1.465 1.229.897-.033 1.791-.207 2.688-.261.767-.046 1.543-.01 1.925-.01 2.199 2.801 1.145 6.179 2.705 9.124l2.505-1.485-2.721-8.049c2.414-.743 4.318-2 6.697-1.63.767 1.847.97 3.692 1.021 5.61.041 1.452.386 2.906.72 4.332.087.368.823.956.945.885.6-.343 1.258-.784 1.578-1.365.316-.575.563-1.798.305-1.984-1.96-1.405-1.549-3.384-1.572-5.302-.027-2.091-.417-4.081-2.057-5.837zm-6.513 41.497c1.228.894 2.234 1.731 3.338 2.406 2.622 1.603 3.938.445 4.238-2.102.212-1.791.175-3.61.365-5.403.194-1.835-.276-3.339-1.733-4.493-1.747 1.123-2.007 1.789-1.205 3.574.926 2.062.361 4.063.233 6.293-1.653-.722-2.738-1.458-3.487-2.766-.718-1.254-1.69-2.358-2.542-3.517-1.774 1.072-1.795 1.204-1.397 2.801.151.6.179 1.303.019 1.893-.355 1.303-1.331 1.618-2.137.563-.761-.995-1.209-2.273-1.599-3.49-.361-1.121-.462-2.327-.726-3.759l-2.791.97c.258 1.4.512 2.505.656 3.622.287 2.226 1.182 4.104 3.008 5.444 1.737 1.274 3.887.894 5.172-.873.233-.323.365-.718.588-1.165zm122.799-44.242c-.472 2.939-.914 5.513-1.281 8.098-.113.798-.301 1.773.031 2.412.607 1.167 1.574 2.145 2.459 3.289 3.326-.858 6.523-2.077 9.511-3.85.631-.374 1.595-.618 1.104-1.508-.194-.352-1.258-.277-1.927-.283-.291-.002-.565.348-.875.43-2.187.581-4.19 1.942-6.546 1.667l-1.436-2.538 6.653-3.03-.33-2.619c-1.836.668-3.462 1.258-5.116 1.858-.479-1.783.582-2.542 1.659-3.099 1.378-.714 2.833-1.349 4.326-1.744 1.174-.308 1.636-.892 1.704-2.298-4.225-1.072-7.035 1.81-9.936 3.215zm-97.848 44.317c-1.873-1.32-2.719-2.753-3.493-4.267-.922-1.81-1.308-3.891-2.783-5.426-.648-.672-1.467-1.016-2.193-.521-.491.335-.902 1.177-.9 1.789.012 3.283-.146 6.518-1.663 9.704l2.1 1.655c2.857-2.515 1.256-5.957 2.22-9.182 1.671 4.226 3.295 7.937 7.287 9.817 2.75-3.843 3.154-11.375.864-14.538-2.094.759-2.115.854-1.551 2.685.784 2.555.798 5.13.111 8.285zm-73.221-30.985c.968-.616 1.888-1.218 2.822-1.793 1.611-.995 2.81-2.253 2.878-4.29.031-.904.074-1.808.157-2.708.111-1.2-.433-2.027-1.351-2.722-3.233-2.453-7.229-1.603-9.144 1.949-.429.796-.167 1.39.394 1.971.501.521 1.306 1.024 1.399 1.624.435 2.793 1.529 5.531.726 8.458-.303 1.107.014 2.122 1.372 2.325l2.022-2.505-1.275-2.308zm150.648-5.161c.625 1.218 1.106 2.242 1.669 3.221.522.91 1.021 2.011 2.397 1.547.821-.275.943-1.655.347-3.119-.093-.23-.219-.445-.326-.668-.576-1.179-1.114-2.379-1.733-3.535-.71-1.326-.914-2.453.093-3.87 1.021-1.436.425-2.323-1.762-2.906-1.015 2.368-2.049 4.785-3.084 7.203.215-2.793-.006-5.393-1.65-7.621-1.527-.294-1.813.643-1.844 1.62.604 1.7 1.213 3.411 1.386 5.163.142 1.44-.12 2.954-.406 4.396-.293 1.479.334 2.288 1.452 2.944 1.869-.865 2.589-2.546 3.462-4.373zm-38.344-6.952c-1.071-.825-1.904-.654-2.635.273-.611.774-1.24 1.535-1.813 2.337-1.496 2.087-2.715 4.276-3.041 6.915-.2 1.628.425 2.722 1.681 3.512.751.472 1.613.794 2.461 1.076 3.895 1.301 7.219-.296 10.46-2.174.77-.445 1.399-1.094 1.364-2.515-.875.192-1.696.188-2.319.54-2.597 1.46-5.409 1.33-8.186 1.142-2.139-.143-3.138-1.845-2.47-3.864.167-.507.648-.908.968-1.369 1.273-1.837 3.363-3.169 3.53-5.873zm-93.185 4.545c-.594-.496-1.032-1.742-2.434-1.129-1.436.627-.716 1.7-.693 2.733.047 2.131-.13 4.265-.256 6.396-.054.9-.8 1.485-1.483 1.225-1.174-.447-2.381-1.096-3.245-1.986-.743-.763-1.017-1.777-.392-3.13.737-1.589.827-3.504 1.029-5.298.076-.678-.318-1.411-.503-2.145-1.279.41-1.871.927-2.067 1.975-.334 1.775-.996 3.504-1.18 5.287-.33 3.217 1.005 5.751 3.736 7.496 2.521 1.611 5.327.383 5.929-2.383.316-1.444.425-2.933.673-4.396.241-1.429.541-2.848.887-4.646zm13.957 35.682c-.219-.817-.373-1.88-.78-2.836-1.45-3.426-1.479-3.38-5.149-2.913-2.222.281-3.526 1.502-4.151 3.612-.763 2.569-.01 4.876 1.261 7.033 1.273 2.164 3.493 1.984 5.508 1.686 1.622-.24 2.342-1.692 2.732-3.171.27-1.022.363-2.091.58-3.411zm133.356-34.53c-.891.132-1.84.248-2.779.42-.976.176-1.607-.108-1.785-1.15-.254-1.491-.518-2.983-.765-4.406l6.785-2.985c-.609-.947-.97-1.738-2.032-1.392-3.024.98-6.057 1.942-9.053 3.014-.945.337-1.011 1.514-.237 2.186.177.153.458.18.664.308 2.125 1.338 2.393 3.053.798 5.031-.25.31-.487.631-.687.887.423 1.206.961 1.762 2.271 1.994 2.463.436 4.39-.672 6.406-1.595.831-.379.992-1.233.413-2.313zm-90.557 6.425c.388.759.656 1.467 1.089 2.054.256.35.844.769 1.155.685.464-.126.945-.604 1.172-1.057.192-.387.231-1.119-.008-1.4-.992-1.16-.58-3.051-2.115-3.924-.293-.168-.415-.697-.543-1.084-.487-1.477-.906-2.977-1.424-4.441-.701-1.986-.976-2.054-2.732-1.082-1.141 3.608-2.111 7.079-3.386 10.434-.365.962-.4 1.655-.085 2.551 2.602.554 2.012-2.066 3.035-3.107l3.839.372zm47.403-11.516l-.541-.501c-.724.275-1.613.37-2.146.856-1.663 1.525-2.042 4.663-.968 6.667 1.516 2.832 4.314 3.705 7 2.009.999-.631 1.813-1.613 2.571-2.551 1.622-2.009 1.131-4.985-.982-6.454-.658-.457-1.325-.908-1.983-1.357-.664.232-1.322.368-1.886.681-.856.478-1.007 1.398-.637 2.153.33.674.879 1.233 1.972.794 1.345-.54 2.23.18 2.288 1.525.06 1.434-1.987 3.297-3.505 3.192-1.481-.101-2.581-1.516-2.385-3.181.066-.55.378-1.069.549-1.611.231-.736.435-1.481.652-2.222zm19.114 4.501c-.035-1.762-.858-3.144-2.1-4.319-1.533-1.45-2.255-1.438-3.982-.029-.508.414-1.104.718-1.622 1.121-2.734 2.135-3.425 5.304-1.783 8.094 1.242 2.112 4.357 2.989 6.185 1.498 1.952-1.593 3.334-3.647 3.301-6.365zm24.65 18.94l.355.11c-.146 1.793-.252 3.589-.454 5.376-.19 1.69-.658 3.366-.679 5.051-.021 1.63.782 2.052 2.245 1.371.514-.24 1.06-.792 1.23-1.318.444-1.386.699-2.834 1.007-4.261.396-1.841.811-3.682 1.145-5.535.281-1.564-.396-2.793-1.648-3.481-1.034-.567-1.834-.05-2.399.602-.458.53-.549 1.378-.8 2.085zm-144.837-17.657h3.08c0 2.482-.103 4.853.035 7.211.091 1.566-.14 3.326 1.347 4.545 1.325-1.798 1.927-2.987 1.393-4.261-1.036-2.466-.184-5.027-.889-7.515 2.385-1.169 5.255-1.282 6.818-4.102-.734-.155-1.279-.428-1.762-.341-1.506.269-2.991.954-4.481.949-1.508-.006-2.841.316-4.213.788-1.688.579-1.698.552-1.329 2.726zm39.112 3.454c.522 1.676.926 3.165 1.454 4.609.312.846.924 1.392 1.919.844.986-.542 1.409-1.7.679-2.445-.885-.902-1.083-1.915-1.246-2.925l2.785-1.359c-.617-2.023-2.478-1.036-3.315-1.866l-1.316-5.602-2.699.341c.357 1.024.716 1.824.904 2.666.206.921.252 1.876.367 2.817-.982.236-1.774.263-2.368.623-.458.279-.974 1.028-.895 1.469.076.443.819 1.005 1.335 1.082.774.114 1.603-.151 2.397-.254zm33.135-7.614l-.347-.592c-.398 0-.803-.043-1.195.006-2.17.281-4.337.598-6.509.875-.893.114-1.811.087-2.688.265-.918.188-1.809.643-1.613 1.785.184 1.08.918 1.462 2.022 1.092.359-.12.792-.019 1.263-.019l1.071 8.589c.807-.182 1.714-.134 1.908-.484.367-.664.47-1.562.429-2.35-.107-2.004-.357-4.001-.536-5.883 2.218-1.307 4.729-1.436 6.195-3.285zm71.886 45.204c2.486-.161 2.888-.345 3.227-1.475.813-2.693.765-3.006-.415-5.573-.417-.906-1.034-1.578-2.016-1.512-.897.062-1.57.556-2.032 1.51-1.308 2.699-1.073 4.414 1.236 7.05zm-83.186-5.264c-.264.678-.582 1.223-.685 1.806-.237 1.357-.421 2.73-.528 4.106-.058.724.017 1.479.177 2.189.07.31.47.707.784.776.842.182 2.517-1.545 2.43-2.453-.118-1.212-.239-2.426-.442-3.626-.175-1.032-.4-2.085-1.737-2.797z" fill="#fff" sketch:type="MSShapeGroup"/><path d="M7.864 84.813c-1.483-1.663-2.989-2.59-2.946-4.499.01-.501.002-1.003.229-1.543 1.56 1.57 2.397 3.386 2.717 6.042" fill="#fff" sketch:type="MSShapeGroup"/><path d="M5.326 90.903c.538 1.092.786 2.217.574 3.409-.897-1.012-1.275-2.114-.574-3.409" fill="#fff" sketch:type="MSShapeGroup"/><path d="M11.025 95.631l-1.929-.455.027-.372c.322-.021.664-.118.961-.039.369.097.701.339 1.05.521l-.109.345" fill="#fff" sketch:type="MSShapeGroup"/><path d="M33.576 92.884l1.207-.095.041.484-1.205.105-.043-.494" fill="#fff" sketch:type="MSShapeGroup"/><path d="M172.506 60.429c-.887 2.371-1.506 4.224-2.278 6.007-.481 1.115-1.095 2.205-1.832 3.167-.9 1.175-3.024.625-3.573-.927-.631-1.785-1.027-3.655-1.698-5.426-.778-2.054-1.258-4.226-2.878-5.945-1.289-1.371-1.318-2.892-.427-4.04.297-.383.906-.71 1.382-.724 1.607-.048 3.303 1.574 3.431 3.196.212 2.722 1.296 5.147 2.377 7.991 1.337-2.174 2.201-4.04 2.637-6.15.27-1.311.918-2.544 1.393-3.802 2.133.35 3.099 1.522 3.431 3.15.274 1.34 1.003 2.149 2.071 2.904.757.536 1.269 1.415 2.061 2.34.862-2.507 2.307-4.849 2.251-7.697-.004-.236-.163-.556-.06-.689.396-.509.792-1.22 1.329-1.378 1.294-.381 1.518-2.67 3.532-1.806v1.446l1.483.124c-.062.35-.041.532-.122.641-.524.722-1.277 1.349-1.574 2.151-1.077 2.923-2.055 5.887-2.965 8.87-.46 1.51-1.353 2.884-.908 4.696.279 1.136-1.157 1.971-2.375 1.74-1.093-.211-1.642-.97-2.144-1.864-1.388-2.484-2.816-4.948-4.545-7.976" fill="#000" sketch:type="MSShapeGroup"/><path d="M123.764 58.321c-.974 1.915-1.143 3.862-1.487 5.748-.175.968-.163 1.973-.219 2.962-.08 1.444-.637 2.495-2.214 2.737-2.385-1.578-2.298-1.562-1.772-4.319.46-2.416.677-4.878 1.042-7.314.243-1.622.538-3.235.844-4.847.076-.397.169-.923.446-1.123.902-.654 1.943-1.7 2.837-1.613.858.083 1.853 1.254 2.344 2.182 1.719 3.256 3.241 6.613 4.848 9.927.101.209.301.37.652.788.662-2.373 1.279-4.555 1.884-6.741.435-1.578.811-3.177 1.298-4.739.365-1.169 1.49-1.839 2.48-1.558 1.197.339 1.411 1.324 1.281 2.358-.122.974-.281 1.994-.685 2.871-1.364 2.96-1.869 6.117-2.319 9.294-.25 1.775-1.716 3.665-2.973 3.798-1.65.17-3.722-1.156-4.502-2.778-1.195-2.491-2.451-4.954-3.784-7.633" fill="#000" sketch:type="MSShapeGroup"/><path d="M157.71 60.365c0 .538.017 1.198-.004 1.855-.087 2.939-1.725 4.944-4.182 6.152-4.271 2.102-7.648 1.58-10.833-1.378-.285-.265-.712-.573-.737-.887-.184-2.36-.695-4.803-.289-7.072.373-2.081 1.199-4.207 2.75-5.951 1.04-1.171 2.183-2.069 3.637-2.089 1.677-.027 3.553.017 5.007.724 3.202 1.553 5.477 3.814 4.65 8.647zm-3.951-.426c-.491-1.361-.891-2.768-1.523-4.058-.229-.465-1.215-1.055-1.512-.904-1.778.904-4.281.923-4.764 3.577-.173.962-.528 1.909-.565 2.873-.052 1.376-.041 2.83 1.572 3.508 1.683.707 3.223.829 4.786-.488 1.438-1.21 1.671-2.726 2.005-4.507z" fill="#000" sketch:type="MSShapeGroup"/><path d="M30.143 73.558c-.091-.59-.219-1.272-.297-1.959-.326-2.844-.631-5.691-.97-8.531-.025-.219-.225-.443-.392-.616-.619-.635-1.609-1.216-1.013-2.246.514-.894 1.228-2.087 2.065-2.298 2.028-.515 4.182-.693 6.284-.695 1.306 0 2.073 1.177 2.723 2.282 1.972 3.357 2.23 7.002 1.776 10.74-.233 1.936-3.185 4.116-5.102 3.912-1.535-.161-3.068-.354-5.075-.587zm1.789-5.058l.423-.225c.695.805 1.485 1.549 2.057 2.437.392.61.73 1.169 1.487.943.994-.296 1.902-.6 2.267-1.907.73-2.631.149-4.952-.883-7.362-.635-1.483-1.516-2.017-3.045-2.28-1.498-.259-2.232.573-3.334 1.345.347 2.377.687 4.712 1.027 7.05z" fill="#000" sketch:type="MSShapeGroup"/><path d="M78.069 27.003c1.64 1.756 2.03 3.746 2.057 5.837.023 1.918-.388 3.897 1.572 5.302.258.186.01 1.409-.305 1.984-.32.581-.978 1.022-1.578 1.365-.122.07-.858-.517-.945-.885-.334-1.425-.679-2.879-.72-4.332-.052-1.918-.254-3.763-1.021-5.61-2.379-.37-4.283.887-6.697 1.63.912 2.693 1.766 5.225 2.721 8.049l-2.505 1.485c-1.56-2.946-.505-6.324-2.705-9.124-.382 0-1.157-.035-1.925.01-.897.054-1.791.228-2.688.261-.807.031-1.545-.219-1.465-1.229.068-.885.452-1.655 1.51-1.599 1.527.081 2.934-.033 4.023-1.334.182-.215.803-.217 1.155-.108 2.919.906 5.607.209 8.223-1.103.363-.182.737-.343 1.291-.6" fill="#000" sketch:type="MSShapeGroup"/><path d="M71.555 68.5c-.223.447-.355.842-.588 1.165-1.285 1.767-3.435 2.147-5.172.873-1.826-1.34-2.721-3.219-3.008-5.444-.144-1.117-.398-2.222-.656-3.622l2.791-.97c.264 1.431.365 2.637.726 3.759.39 1.216.838 2.495 1.599 3.49.807 1.055 1.783.741 2.137-.563.161-.59.132-1.293-.019-1.893-.398-1.597-.378-1.729 1.397-2.801.852 1.158 1.824 2.263 2.542 3.517.749 1.307 1.834 2.044 3.487 2.766.128-2.23.693-4.23-.233-6.293-.803-1.785-.543-2.451 1.205-3.574 1.457 1.154 1.927 2.658 1.733 4.493-.19 1.793-.153 3.612-.365 5.403-.299 2.546-1.615 3.705-4.238 2.102-1.104-.674-2.111-1.512-3.338-2.406" fill="#000" sketch:type="MSShapeGroup"/><path d="M194.354 24.258c2.901-1.405 5.711-4.286 9.936-3.215-.068 1.407-.53 1.99-1.704 2.298-1.494.395-2.948 1.03-4.326 1.744-1.077.556-2.137 1.316-1.659 3.099 1.655-.6 3.28-1.189 5.116-1.858l.33 2.619-6.653 3.03 1.436 2.538c2.356.275 4.359-1.086 6.546-1.667.309-.083.584-.432.875-.43.668.006 1.733-.068 1.927.283.491.889-.472 1.134-1.104 1.508-2.987 1.773-6.185 2.991-9.511 3.85-.885-1.144-1.853-2.122-2.459-3.289-.332-.639-.144-1.613-.031-2.412.367-2.586.809-5.159 1.281-8.098" fill="#000" sketch:type="MSShapeGroup"/><path d="M96.506 68.575c.687-3.155.673-5.73-.111-8.285-.563-1.831-.543-1.926 1.551-2.685 2.29 3.163 1.886 10.694-.864 14.538-3.992-1.88-5.616-5.591-7.287-9.817-.963 3.225.637 6.667-2.22 9.182l-2.1-1.655c1.516-3.186 1.675-6.421 1.663-9.704-.002-.612.408-1.454.9-1.789.726-.494 1.545-.151 2.193.521 1.475 1.535 1.861 3.616 2.783 5.426.774 1.514 1.62 2.948 3.493 4.267" fill="#000" sketch:type="MSShapeGroup"/><path d="M23.285 37.59l1.275 2.308-2.022 2.505c-1.358-.203-1.675-1.218-1.372-2.325.803-2.927-.291-5.666-.726-8.458-.093-.6-.897-1.103-1.399-1.624-.561-.581-.823-1.175-.394-1.971 1.915-3.552 5.911-4.402 9.144-1.949.918.695 1.463 1.522 1.351 2.722-.083.9-.126 1.804-.157 2.708-.068 2.038-1.267 3.295-2.878 4.29-.935.575-1.855 1.177-2.822 1.793zm.77-9.462c-1.603.012-1.985.618-1.452 2.112.268.755.359 1.576.528 2.366.217 1.016.778 1.365 1.791 1.016 1.343-.465 2.304-2.22 2.04-3.81-.173-1.057-1.281-1.698-2.907-1.684z" fill="#000" sketch:type="MSShapeGroup"/><path d="M173.934 32.429c-.873 1.827-1.593 3.508-3.462 4.373-1.118-.656-1.745-1.465-1.452-2.944.287-1.442.549-2.956.406-4.396-.173-1.752-.782-3.463-1.386-5.163.031-.976.318-1.913 1.844-1.62 1.644 2.228 1.865 4.828 1.65 7.621l3.084-7.203c2.187.583 2.783 1.471 1.762 2.906-1.007 1.417-.803 2.544-.093 3.87.619 1.156 1.157 2.356 1.733 3.535.107.223.233.439.326.668.596 1.465.475 2.844-.347 3.119-1.376.463-1.875-.637-2.397-1.547-.563-.978-1.044-2.002-1.669-3.221" fill="#000" sketch:type="MSShapeGroup"/><path d="M135.589 25.477c-.167 2.704-2.257 4.036-3.53 5.873-.32.461-.8.863-.968 1.369-.668 2.019.33 3.721 2.47 3.864 2.777.188 5.589.319 8.186-1.142.623-.352 1.444-.348 2.319-.54.035 1.421-.594 2.071-1.364 2.515-3.241 1.878-6.565 3.475-10.46 2.174-.848-.281-1.71-.604-2.461-1.076-1.256-.79-1.882-1.884-1.681-3.512.326-2.639 1.545-4.828 3.041-6.915.574-.803 1.203-1.564 1.813-2.337.73-.927 1.564-1.098 2.635-.273" fill="#000" sketch:type="MSShapeGroup"/><path d="M42.404 30.021c-.347 1.798-.646 3.217-.887 4.646-.248 1.462-.357 2.952-.673 4.396-.602 2.766-3.408 3.994-5.929 2.383-2.732-1.746-4.066-4.28-3.736-7.496.184-1.783.846-3.512 1.18-5.287.196-1.049.788-1.566 2.067-1.975.186.734.58 1.467.503 2.145-.202 1.793-.293 3.709-1.029 5.298-.625 1.353-.351 2.366.392 3.13.864.889 2.071 1.539 3.245 1.986.683.261 1.43-.325 1.483-1.225.126-2.131.303-4.265.256-6.396-.023-1.032-.743-2.106.693-2.733 1.403-.612 1.84.633 2.434 1.129" fill="#000" sketch:type="MSShapeGroup"/><path d="M56.361 65.704c-.217 1.32-.309 2.389-.58 3.411-.39 1.479-1.11 2.931-2.732 3.171-2.016.298-4.236.478-5.508-1.686-1.271-2.157-2.024-4.464-1.261-7.033.625-2.11 1.929-3.33 4.151-3.612 3.67-.467 3.699-.513 5.149 2.913.406.956.561 2.019.78 2.836zm-7.547.488c.194.556.543 1.632.941 2.693.545 1.446 3.231 1.318 3.848-.141.541-1.274.937-2.631.359-4.056-.386-.956-2.067-2.23-2.989-2.186-1.234.056-2.164 1.398-2.158 3.69z" fill="#000" sketch:type="MSShapeGroup"/><path d="M189.716 31.173c.58 1.08.419 1.934-.413 2.313-2.016.923-3.943 2.031-6.406 1.595-1.31-.232-1.849-.788-2.271-1.994.2-.256.437-.577.687-.887 1.595-1.978 1.327-3.692-.798-5.031-.206-.128-.487-.155-.664-.308-.774-.672-.708-1.849.237-2.186 2.996-1.072 6.028-2.033 9.053-3.014 1.062-.345 1.424.445 2.032 1.392-2.352 1.034-4.561 2.006-6.785 2.985.248 1.423.512 2.915.765 4.406.177 1.043.809 1.326 1.785 1.15.939-.172 1.888-.288 2.779-.42" fill="#000" sketch:type="MSShapeGroup"/><path d="M99.159 37.598l-3.839-.372c-1.023 1.04-.433 3.661-3.035 3.107-.316-.896-.281-1.589.085-2.551 1.275-3.355 2.245-6.826 3.386-10.434 1.756-.972 2.03-.904 2.732 1.082.518 1.465.937 2.964 1.424 4.441.128.387.25.916.543 1.084 1.535.873 1.122 2.764 2.115 3.924.239.281.2 1.014.008 1.4-.227.453-.708.931-1.172 1.057-.312.085-.9-.335-1.155-.685-.433-.587-.701-1.295-1.089-2.054zm-2.307-6.419c-1.048 1.98-1.058 1.988.844 2.784l-.844-2.784z" fill="#000" sketch:type="MSShapeGroup"/><path d="M146.563 26.083c-.217.741-.421 1.485-.652 2.222-.171.542-.483 1.061-.549 1.611-.196 1.665.904 3.08 2.385 3.181 1.518.105 3.565-1.758 3.505-3.192-.058-1.345-.943-2.064-2.288-1.525-1.093.439-1.642-.12-1.972-.794-.369-.755-.219-1.676.637-2.153.563-.312 1.221-.449 1.886-.681.658.449 1.325.9 1.983 1.357 2.113 1.469 2.604 4.445.982 6.454-.757.937-1.572 1.92-2.571 2.551-2.686 1.696-5.484.823-7-2.009-1.075-2.004-.695-5.142.968-6.667.532-.486 1.421-.581 2.146-.856l.541.501" fill="#000" sketch:type="MSShapeGroup"/><path d="M165.677 30.584c.033 2.718-1.349 4.772-3.301 6.365-1.828 1.491-4.943.614-6.185-1.498-1.642-2.79-.951-5.959 1.783-8.094.518-.403 1.114-.707 1.622-1.121 1.727-1.409 2.449-1.421 3.982.029 1.242 1.175 2.065 2.557 2.1 4.319zm-5.281 4.071c1.487-.033 2.337-.912 2.944-2.931.258-.863.59-1.721-.175-2.534-.831-.881-1.857-.604-2.756-.356-.664.184-1.374.676-1.774 1.239-.664.931-1.083 2-.481 3.217.508 1.026 1.281 1.436 2.243 1.365z" fill="#000" sketch:type="MSShapeGroup"/><path d="M190.327 49.523c.252-.707.342-1.556.8-2.085.565-.652 1.366-1.169 2.399-.602 1.252.689 1.929 1.918 1.648 3.481-.334 1.853-.749 3.694-1.145 5.535-.307 1.427-.563 2.875-1.007 4.261-.169.525-.716 1.078-1.23 1.318-1.463.681-2.265.259-2.245-1.371.021-1.686.489-3.361.679-5.051.202-1.787.307-3.583.454-5.376l-.355-.11" fill="#000" sketch:type="MSShapeGroup"/><path d="M45.49 31.866c-.369-2.174-.359-2.147 1.329-2.726 1.372-.472 2.705-.794 4.213-.788 1.49.004 2.975-.681 4.481-.949.483-.087 1.027.186 1.762.341-1.564 2.819-4.434 2.933-6.818 4.102.706 2.488-.146 5.049.889 7.515.534 1.274-.068 2.464-1.393 4.261-1.487-1.218-1.256-2.979-1.347-4.545-.138-2.358-.035-4.729-.035-7.211h-3.08" fill="#000" sketch:type="MSShapeGroup"/><path d="M84.602 35.321c-.794.103-1.624.368-2.397.254-.516-.077-1.258-.639-1.335-1.082-.078-.441.437-1.189.895-1.469.594-.36 1.386-.387 2.368-.623-.116-.941-.161-1.897-.367-2.817-.188-.842-.547-1.642-.904-2.666l2.699-.341 1.316 5.602c.838.829 2.699-.157 3.315 1.866l-2.785 1.359c.163 1.009.361 2.023 1.246 2.925.73.745.307 1.903-.679 2.445-.994.548-1.607.002-1.919-.844-.528-1.444-.933-2.933-1.454-4.609" fill="#000" sketch:type="MSShapeGroup"/><path d="M117.738 27.707c-1.467 1.849-3.978 1.978-6.195 3.285.179 1.882.429 3.879.536 5.883.041.788-.062 1.686-.429 2.35-.194.35-1.102.302-1.908.484l-1.071-8.589c-.47 0-.904-.101-1.263.019-1.104.37-1.838-.012-2.022-1.092-.196-1.142.695-1.597 1.613-1.785.877-.178 1.795-.151 2.688-.265 2.172-.277 4.339-.594 6.509-.875.392-.05.796-.006 1.195-.006l.347.592" fill="#000" sketch:type="MSShapeGroup"/><path d="M189.624 72.91c-2.309-2.635-2.544-4.35-1.236-7.05.462-.954 1.135-1.448 2.032-1.51.982-.066 1.599.606 2.016 1.512 1.18 2.567 1.228 2.879.415 5.573-.338 1.129-.741 1.314-3.227 1.475" fill="#000" sketch:type="MSShapeGroup"/><path d="M106.438 67.646c1.337.712 1.562 1.764 1.737 2.797.202 1.2.324 2.414.442 3.626.087.908-1.589 2.635-2.43 2.453-.314-.068-.714-.465-.784-.776-.161-.71-.235-1.465-.177-2.189.107-1.376.291-2.749.528-4.106.103-.583.421-1.127.685-1.806" fill="#000" sketch:type="MSShapeGroup"/><path d="M153.759 59.939c-.334 1.781-.567 3.297-2.005 4.507-1.564 1.318-3.103 1.196-4.786.488-1.613-.678-1.624-2.133-1.572-3.508.037-.964.392-1.911.565-2.873.483-2.654 2.985-2.673 4.764-3.577.297-.151 1.283.439 1.512.904.631 1.291 1.032 2.697 1.523 4.058" fill="#fff" sketch:type="MSShapeGroup"/><path d="M31.932 68.5l-1.027-7.05c1.102-.772 1.836-1.603 3.334-1.345 1.529.263 2.41.796 3.045 2.28 1.032 2.41 1.613 4.731.883 7.362-.365 1.307-1.273 1.611-2.267 1.907-.757.225-1.095-.333-1.487-.943-.571-.887-1.362-1.632-2.057-2.437l-.423.225" fill="#fff" sketch:type="MSShapeGroup"/><path d="M24.055 28.128c1.626-.014 2.734.627 2.907 1.684.264 1.591-.697 3.345-2.04 3.81-1.013.35-1.574 0-1.791-1.016-.169-.79-.26-1.611-.528-2.366-.532-1.493-.151-2.1 1.452-2.112" fill="#fff" sketch:type="MSShapeGroup"/><path d="M48.814 66.192c-.006-2.292.924-3.634 2.158-3.69.922-.043 2.604 1.231 2.989 2.186.578 1.425.182 2.782-.359 4.056-.617 1.458-3.303 1.587-3.848.141-.398-1.061-.747-2.137-.941-2.693" fill="#fff" sketch:type="MSShapeGroup"/><path d="M96.853 31.18l.844 2.784c-1.902-.796-1.892-.805-.844-2.784" fill="#fff" sketch:type="MSShapeGroup"/><path d="M160.396 34.655c-.961.07-1.735-.339-2.243-1.365-.602-1.216-.184-2.286.481-3.217.4-.563 1.11-1.055 1.774-1.239.9-.248 1.925-.525 2.756.356.765.813.433 1.671.175 2.534-.607 2.019-1.457 2.898-2.944 2.931" fill="#fff" sketch:type="MSShapeGroup"/></g></svg>