<?xml version="1.0" encoding="UTF-8" standalone="no"?>
<svg width="214px" height="100px" viewBox="0 0 214 100" version="1.1" xmlns="http://www.w3.org/2000/svg" xmlns:xlink="http://www.w3.org/1999/xlink" xmlns:sketch="http://www.bohemiancoding.com/sketch/ns">
    <!-- Generator: Sketch 3.1.1 (8761) - http://www.bohemiancoding.com/sketch -->
    <title>put-that-cookie</title>
    <desc>Created with Sketch.</desc>
    <defs></defs>
    <g id="Page-1" stroke="none" stroke-width="1" fill="none" fill-rule="evenodd" sketch:type="MSPage">
        <g id="Group" sketch:type="MSLayerGroup">
            <path d="M210.462867,93.0808455 C209.955348,93.9744575 209.52829,94.7274084 208.977446,95.6996251 C205.294841,95.5300043 201.383234,95.3231497 197.4675,95.1721458 C192.701776,94.9921823 187.931925,94.6591463 183.170327,94.756368 C177.923904,94.8639324 172.683671,95.3479723 167.447563,95.7492702 C165.654743,95.8878629 163.888743,96.4153422 162.097986,96.5022211 C160.387689,96.5828944 158.656762,96.1940077 156.940276,96.2353786 C152.911072,96.3284632 148.885995,96.5539348 144.858855,96.7318298 C142.244928,96.8476683 139.633063,96.9966037 137.017072,97.0938254 C132.659839,97.2572405 128.296416,97.5654539 123.941245,97.4930548 C118.282206,97.3999702 112.631418,96.9490271 106.974442,96.7359668 C104.174836,96.630471 101.366979,96.6552935 98.5632477,96.721487 C94.302979,96.8228458 90.0303318,96.1009231 85.7741893,96.9945351 C84.9386402,97.1703616 83.9916846,96.8352571 83.0963061,96.721487 C80.0346893,96.3305318 77.0184603,96.6428823 74.0166729,97.2737889 C73.3007827,97.4247928 72.5291893,97.6295789 71.8380561,97.5054661 C69.9152617,97.1579503 68.1554509,97.660607 66.3234322,98.1115501 C64.3449346,98.5976585 62.2880397,98.8107188 60.2517757,99.0258476 C56.7404065,99.4002545 53.218722,99.6836453 49.7011636,100.000133 C49.3731332,100.029093 49.0368505,100.051847 48.7129463,100.012544 C42.084257,99.2327022 35.4555678,99.9856531 28.8289416,99.9897902 C24.1416145,99.9918587 19.4563505,99.6360688 14.7690234,99.5843551 C11.9838598,99.5533269 9.19663318,99.8429234 6.40940654,99.8905 C5.62130841,99.9029113 4.82702103,99.5698753 3.98940888,99.3857747 C3.53965654,98.3018564 4.15651869,96.7483781 2.57000701,96.2829552 C2.47097897,96.2539956 2.39464486,95.9995644 2.38020327,95.8444234 C2.16564252,93.6496957 1.93664019,91.4549681 1.76540421,89.2561034 C1.65606075,87.8681088 1.64368224,86.47184 1.57560047,85.0797083 C1.47863551,83.1290692 0.33775,80.9736439 2.7144229,79.504976 C2.90010047,79.391206 2.92485748,78.8885492 2.89803738,78.5761987 C2.5968271,74.881775 2.3760771,71.17494 1.8953785,67.5032703 C1.73445794,66.2704167 0.900971963,65.124442 0.317119159,63.8109151 C2.77218925,62.1436667 2.14501168,59.6221088 1.96552336,57.3942844 C1.63130374,53.2944256 0.92985514,49.2276635 0.449156542,45.1381475 C0.352191589,44.3045233 0.127315421,43.3881573 1.15060514,42.7096741 C1.56115888,42.436626 1.69938551,41.5306027 1.70970093,40.9100388 C1.77778271,37.1121877 1.77365654,33.3143367 1.79016121,29.5164857 C1.7922243,29.2682601 1.72414252,29.0158975 1.75715187,28.7738775 C2.26879673,24.9760265 2.79282009,21.1781754 3.31065421,17.3803244 C3.3890514,16.8073371 3.45300701,16.2322812 3.52315187,15.6592939 C3.56235047,15.3407377 3.48807944,14.9353027 3.65725234,14.7201738 C4.67847897,13.4087155 5.75540888,12.1406966 6.93755607,10.707194 C8.31363318,11.9752129 9.72065654,11.8428259 11.2081402,10.9698994 C12.0519416,10.4755168 12.9885818,10.0762874 13.9355374,9.84874726 C14.9381963,9.60672734 16.0192523,9.44744927 17.0342897,9.55708223 C19.4625397,9.82185616 21.8619065,10.4817224 24.2901565,10.5934239 C30.458778,10.8726777 36.6273995,10.7154682 42.7609486,9.83013034 C43.8131215,9.67705791 44.9003668,9.77841668 45.9669813,9.69981192 C46.7798364,9.63775553 47.8216939,9.75566267 48.3498435,9.30678812 C49.6929112,8.17115619 51.0153481,8.73586934 52.4388762,8.79792573 C55.6407827,8.93858688 58.8530047,8.82274828 62.0590374,8.82274828 C65.7622734,8.82274828 69.4655093,8.8723934 73.1666822,8.83102247 C75.4546425,8.80619991 77.7611706,8.8144741 80.0223107,8.51867198 C83.4573458,8.06566033 86.8800023,7.90017663 90.3439206,7.86707989 C94.7712991,7.82570896 99.1945514,7.3540804 103.62193,7.10171775 C109.452206,6.77075034 115.282481,6.4521942 121.11482,6.1708719 C127.099827,5.87920687 133.091023,5.70751753 139.071904,5.35379611 C143.804619,5.07247381 148.531145,4.65462745 153.249418,4.1788618 C156.921708,3.80859201 160.563051,3.11562899 164.239467,2.81982687 C168.24185,2.49713364 172.266928,2.48679091 176.281689,2.29855319 C178.241619,2.20546861 180.199486,2.01516235 182.159416,1.8745012 C184.616549,1.69867476 187.143827,1.83519882 189.514311,1.28289695 C192.714154,0.538220277 195.973827,0.550631555 199.181923,0.00867241929 C201.242944,-0.340911909 203.396804,-0.142331462 205.509402,-0.175428203 C206.250049,-0.187839481 206.990696,-0.152674194 207.72928,-0.142331462 C209.326107,-0.121645999 209.93678,0.265172163 209.891393,1.84140446 C209.744914,6.86176637 211.948287,11.468419 212.28457,16.3894907 C213.607007,18.2180857 213.11393,20.2804263 212.620853,22.1090213 C211.793556,25.1725384 212.383598,28.0188581 213.371815,30.8134642 C213.904091,32.3131603 213.821568,33.3825987 212.497068,34.22036 C211.754357,34.68992 211.620257,35.2877299 211.657393,36.1027371 C211.812124,39.3979314 211.420138,42.6496862 210.871357,45.8993725 C210.35146,48.9918493 210.242117,52.0760518 211.065287,55.1850769 C211.389192,56.415862 211.277785,57.8224735 211.104486,59.1132464 C210.706311,62.0836789 210.768203,64.992055 211.296353,67.9583505 C211.696591,70.2068603 211.630572,72.5401805 211.748168,74.8383355 C211.851322,76.8489625 212.482626,78.8368355 211.442832,80.8702166 C211.057035,81.6273045 211.147811,82.9987507 211.593437,83.745496 C212.864297,85.8781672 212.034937,87.743996 211.015773,89.4381354 C210.225612,90.7516623 209.732535,91.8624717 210.462867,93.0808455 L210.462867,93.0808455 Z M205.926145,3.35144327 C203.264766,4.88423609 203.021322,5.06626817 201.799977,4.38571643 C199.303645,2.99772185 196.745421,3.34937472 194.106736,3.65551958 C189.134703,4.23471255 184.199806,5.29380826 179.139061,4.84493371 C177.833129,4.72909512 176.498313,4.7373693 175.194444,4.86148208 C172.500056,5.11384473 169.813921,5.48204598 167.125722,5.80680775 C164.763491,6.09226714 162.39507,6.67559721 160.043154,6.60733518 C156.583362,6.50597641 153.220535,6.58871826 149.97943,7.93534191 C149.762806,8.02635795 149.515236,8.08014016 149.277981,8.08427725 C145.028028,8.17529329 140.778075,8.25596659 136.526058,8.34077699 C135.620364,8.35732536 134.712607,8.34491408 133.806914,8.40076484 C126.258089,8.87032485 118.707201,9.29023975 111.164565,9.85288435 C106.512311,10.1983316 101.77547,9.98320277 97.2779463,11.6318342 C96.755986,11.824209 96.1411869,11.7973179 95.5676495,11.8200719 C90.9896659,11.9917612 86.4116822,12.1717248 81.8316355,12.3082488 C79.6922173,12.3703052 77.4744019,12.002104 75.4319486,12.4530471 C73.3172874,12.9205385 71.2851495,13.656941 69.0755864,13.5080057 C68.9992523,13.5018001 68.916729,13.5576508 68.8362687,13.5617879 C64.404764,13.7582998 59.9732593,14.0230737 55.5396916,14.1244325 C51.3784509,14.2195856 47.211021,14.0789245 43.0497804,14.1595978 C39.2908411,14.2319969 35.533965,14.4533314 31.7770888,14.6353634 C30.900278,14.6788029 29.9718902,15.084238 29.1652243,14.8960003 C25.7673248,14.103747 22.3219743,14.8732463 18.9034439,14.4202346 C16.0667033,14.0416906 13.1495023,14.304396 10.296257,14.0106625 C8.20841589,13.7976022 7.87832243,13.7603683 7.2325771,15.7751325 C5.95346495,19.7570841 5.77397664,23.8300518 6.39909112,27.9443905 C6.58270561,29.1606957 6.99325935,30.3521784 7.0902243,31.5726207 C7.17274766,32.5986197 7.23051402,33.7859653 6.80551869,34.6609604 C5.84618458,36.6364221 5.37167523,38.6822144 5.25820561,40.8293655 C5.15298832,42.8710207 5.39436916,44.962321 5.03951869,46.9543311 C4.51136916,49.9226951 5.07252804,52.8083172 5.19425,55.7291046 C5.3242243,58.8567466 5.55322664,61.9823201 5.69764252,65.1120307 C5.91014019,69.8034938 6.26086449,74.4287633 8.3363271,78.7933961 C9.95584813,82.1940862 11.3133575,85.7271633 12.650236,89.2519663 C13.2340888,90.7909647 14.2161168,91.18192 15.6953481,91.0991781 C18.709514,90.9336944 21.7298692,90.8364727 24.7460981,90.7185656 C25.1483995,90.7040858 25.5548271,90.7268398 25.9571285,90.7599365 C28.9671682,91.0185048 31.9730818,91.3515408 34.9893107,91.5211616 C37.0214486,91.6349316 39.0700911,91.450831 41.1063551,91.5232301 C44.9581332,91.6638913 48.8078481,92.0693263 52.6163014,91.0060935 C53.1238201,90.8654324 53.8108271,91.1798514 54.3596075,91.4135972 C55.4674836,91.8852257 56.5093411,92.7995232 57.6316589,92.8967449 C60.1465584,93.1118737 62.6944673,92.9029505 65.2279346,92.94639 C66.1109346,92.9629384 67.0743949,93.0291318 67.8501145,93.3952645 C69.7832243,94.3074935 71.739028,94.4688401 73.8289322,94.2330258 C76.1952897,93.9682519 78.580215,93.7738085 80.9589509,93.7427803 C86.1868061,93.6745183 91.4187874,93.7365747 96.6487056,93.7283005 C97.6348598,93.7262319 98.6251402,93.6765868 99.6092313,93.5979821 C102.012724,93.4035387 104.467794,92.4892412 106.726871,94.1709694 C106.834152,94.2516427 107.048713,94.1854492 107.213759,94.1916549 C111.562741,94.3674813 115.911722,94.6819003 120.262766,94.6819003 C125.187348,94.6798318 130.113993,94.3695499 135.038575,94.2392314 C138.574701,94.1440783 142.114953,94.1689009 145.649016,94.0571994 C149.506984,93.9372237 153.358762,93.6993408 157.214666,93.5504055 C161.817407,93.370442 166.42221,93.2525348 171.024951,93.0580915 C173.15818,92.969144 175.283157,92.7353983 177.414322,92.6112855 C181.082486,92.3982252 184.752713,92.0362296 188.41675,92.0713949 C192.771921,92.1127658 197.122965,92.499584 201.474009,92.7519466 C202.784068,92.8284828 204.098252,93.0994624 205.395932,93.0270633 C207.395061,92.9132932 208.127456,91.8604032 207.844813,89.8725302 C207.681829,88.7389668 207.419818,87.6074719 207.378556,86.4697715 C207.271276,83.4310769 207.326979,80.3882453 207.184626,77.3516193 C207.087661,75.2768673 206.891668,73.2910629 207.178437,71.1397747 C207.663262,67.5032703 207.248582,63.7405845 207.15368,60.031681 C207.091787,57.6445785 206.885479,55.2616131 206.815334,52.8724421 C206.716306,49.4883004 206.68536,46.10209 206.615215,42.7179483 C206.573953,40.740418 206.40478,38.7566821 206.495556,36.7853574 C206.551259,35.5897377 206.656477,34.1210698 207.355862,33.3060625 C208.0635,32.4848496 208.191411,31.7091448 208.129519,30.8941375 C207.980977,28.9455669 207.617874,27.0156132 207.382682,25.0711796 C207.3146,24.5147407 207.368241,23.9376162 207.407439,23.3708345 C207.461079,22.5641015 207.655009,21.7511628 207.611685,20.9506354 C207.362051,16.3522569 207.10004,11.7518099 206.753442,7.1575685 C206.662666,5.96401727 206.250049,4.7952886 205.926145,3.35144327 L205.926145,3.35144327 Z M7.86388084,84.8128659 C7.5441028,82.1568524 6.70649065,80.3406687 5.14679907,78.7706421 C4.91985981,79.3105327 4.92811215,79.8131894 4.91779673,80.3137776 C4.87447196,82.2230459 6.38052336,83.1497546 7.86388084,84.8128659 L7.86388084,84.8128659 Z M5.32628738,90.9026662 C4.62483879,92.1975762 5.00238318,93.3001114 5.89982477,94.3116306 C6.11232243,93.1201479 5.86475234,91.9948587 5.32628738,90.9026662 L5.32628738,90.9026662 Z M11.0245257,95.6313631 C11.0616612,95.5175931 11.0987967,95.4017545 11.1338692,95.2859159 C10.7852079,95.1038838 10.4530514,94.8618639 10.0837593,94.7646422 C9.78667523,94.6860374 9.44420327,94.7832591 9.12236215,94.8039446 C9.11410981,94.9280574 9.10585748,95.0521701 9.09554206,95.1762829 C9.7392243,95.3272868 10.3829065,95.4803592 11.0245257,95.6313631 L11.0245257,95.6313631 Z M33.5760981,92.8843336 C33.5905397,93.0477488 33.6049813,93.2132325 33.6194229,93.3787162 C34.0196612,93.3435509 34.4219626,93.3083856 34.824264,93.2732203 C34.8098224,93.1118737 34.7974439,92.9505271 34.7830023,92.7891805 C34.3807009,92.8202087 33.9783995,92.8512369 33.5760981,92.8843336 L33.5760981,92.8843336 Z" id="Fill-3" fill="#000000" sketch:type="MSShapeGroup"></path>
            <path d="M205.926145,3.35144327 C206.250049,4.7952886 206.662666,5.96401727 206.753442,7.1575685 C207.10004,11.7518099 207.362051,16.3522569 207.611685,20.9506354 C207.655009,21.7511628 207.461079,22.5641015 207.407439,23.3708345 C207.368241,23.9376162 207.3146,24.5147407 207.382682,25.0711796 C207.617874,27.0156132 207.980977,28.9455669 208.129519,30.8941375 C208.191411,31.7091448 208.0635,32.4848496 207.355862,33.3060625 C206.656477,34.1210698 206.551259,35.5897377 206.495556,36.7853574 C206.40478,38.7566821 206.573953,40.740418 206.615215,42.7179483 C206.68536,46.10209 206.716306,49.4883004 206.815334,52.8724421 C206.885479,55.2616131 207.091787,57.6445785 207.15368,60.031681 C207.248582,63.7405845 207.663262,67.5032703 207.178437,71.1397747 C206.891668,73.2910629 207.087661,75.2768673 207.184626,77.3516193 C207.326979,80.3882453 207.271276,83.4310769 207.378556,86.4697715 C207.419818,87.6074719 207.681829,88.7389668 207.844813,89.8725302 C208.127456,91.8604032 207.395061,92.9132932 205.395932,93.0270633 C204.098252,93.0994624 202.784068,92.8284828 201.474009,92.7519466 C197.122965,92.499584 192.771921,92.1127658 188.41675,92.0713949 C184.752713,92.0362296 181.082486,92.3982252 177.414322,92.6112855 C175.283157,92.7353983 173.15818,92.969144 171.024951,93.0580915 C166.42221,93.2525348 161.817407,93.370442 157.214666,93.5504055 C153.358762,93.6993408 149.506984,93.9372237 145.649016,94.0571994 C142.114953,94.1689009 138.574701,94.1440783 135.038575,94.2392314 C130.113993,94.3695499 125.187348,94.6798318 120.262766,94.6819003 C115.911722,94.6819003 111.562741,94.3674813 107.213759,94.1916549 C107.048713,94.1854492 106.834152,94.2516427 106.726871,94.1709694 C104.467794,92.4892412 102.012724,93.4035387 99.6092313,93.5979821 C98.6251402,93.6765868 97.6348598,93.7262319 96.6487056,93.7283005 C91.4187874,93.7365747 86.1868061,93.6745183 80.9589509,93.7427803 C78.580215,93.7738085 76.1952897,93.9682519 73.8289322,94.2330258 C71.739028,94.4688401 69.7832243,94.3074935 67.8501145,93.3952645 C67.0743949,93.0291318 66.1109346,92.9629384 65.2279346,92.94639 C62.6944673,92.9029505 60.1465584,93.1118737 57.6316589,92.8967449 C56.5093411,92.7995232 55.4674836,91.8852257 54.3596075,91.4135972 C53.8108271,91.1798514 53.1238201,90.8654324 52.6163014,91.0060935 C48.8078481,92.0693263 44.9581332,91.6638913 41.1063551,91.5232301 C39.0700911,91.450831 37.0214486,91.6349316 34.9893107,91.5211616 C31.9730818,91.3515408 28.9671682,91.0185048 25.9571285,90.7599365 C25.5548271,90.7268398 25.1483995,90.7040858 24.7460981,90.7185656 C21.7298692,90.8364727 18.709514,90.9336944 15.6953481,91.0991781 C14.2161168,91.18192 13.2340888,90.7909647 12.650236,89.2519663 C11.3133575,85.7271633 9.95584813,82.1940862 8.3363271,78.7933961 C6.26086449,74.4287633 5.91014019,69.8034938 5.69764252,65.1120307 C5.55322664,61.9823201 5.3242243,58.8567466 5.19425,55.7291046 C5.07252804,52.8083172 4.51136916,49.9226951 5.03951869,46.9543311 C5.39436916,44.962321 5.15298832,42.8710207 5.25820561,40.8293655 C5.37167523,38.6822144 5.84618458,36.6364221 6.80551869,34.6609604 C7.23051402,33.7859653 7.17274766,32.5986197 7.0902243,31.5726207 C6.99325935,30.3521784 6.58270561,29.1606957 6.39909112,27.9443905 C5.77397664,23.8300518 5.95346495,19.7570841 7.2325771,15.7751325 C7.87832243,13.7603683 8.20841589,13.7976022 10.296257,14.0106625 C13.1495023,14.304396 16.0667033,14.0416906 18.9034439,14.4202346 C22.3219743,14.8732463 25.7673248,14.103747 29.1652243,14.8960003 C29.9718902,15.084238 30.900278,14.6788029 31.7770888,14.6353634 C35.533965,14.4533314 39.2908411,14.2319969 43.0497804,14.1595978 C47.211021,14.0789245 51.3784509,14.2195856 55.5396916,14.1244325 C59.9732593,14.0230737 64.404764,13.7582998 68.8362687,13.5617879 C68.916729,13.5576508 68.9992523,13.5018001 69.0755864,13.5080057 C71.2851495,13.656941 73.3172874,12.9205385 75.4319486,12.4530471 C77.4744019,12.002104 79.6922173,12.3703052 81.8316355,12.3082488 C86.4116822,12.1717248 90.9896659,11.9917612 95.5676495,11.8200719 C96.1411869,11.7973179 96.755986,11.824209 97.2779463,11.6318342 C101.77547,9.98320277 106.512311,10.1983316 111.164565,9.85288435 C118.707201,9.29023975 126.258089,8.87032485 133.806914,8.40076484 C134.712607,8.34491408 135.620364,8.35732536 136.526058,8.34077699 C140.778075,8.25596659 145.028028,8.17529329 149.277981,8.08427725 C149.515236,8.08014016 149.762806,8.02635795 149.97943,7.93534191 C153.220535,6.58871826 156.583362,6.50597641 160.043154,6.60733518 C162.39507,6.67559721 164.763491,6.09226714 167.125722,5.80680775 C169.813921,5.48204598 172.500056,5.11384473 175.194444,4.86148208 C176.498313,4.7373693 177.833129,4.72909512 179.139061,4.84493371 C184.199806,5.29380826 189.134703,4.23471255 194.106736,3.65551958 C196.745421,3.34937472 199.303645,2.99772185 201.799977,4.38571643 C203.021322,5.06626817 203.264766,4.88423609 205.926145,3.35144327 L205.926145,3.35144327 Z M172.506245,60.4288419 C174.23511,63.4571937 175.662764,65.9208323 177.05122,68.4051565 C177.552549,69.2987685 178.101329,70.057925 179.194764,70.2689167 C180.411984,70.5005939 181.84789,69.6649012 181.569374,68.5292692 C181.123748,66.7172227 182.017063,65.3437079 182.477131,63.8336691 C183.386951,60.8508253 184.364853,57.8865984 185.441783,54.9637425 C185.738867,54.1611465 186.491893,53.534377 187.015916,52.8124543 C187.096376,52.7028213 187.075745,52.5207893 187.137638,52.1712049 C186.642498,52.129834 186.165925,52.0884631 185.65428,52.0470922 L185.65428,50.6011783 C183.64071,49.7365259 183.415834,52.0264067 182.12228,52.4070192 C181.585879,52.5642287 181.189766,53.2758087 180.793654,53.7846711 C180.6905,53.917058 180.849357,54.2376827 180.853484,54.473497 C180.909187,57.3218853 179.465028,59.6634797 178.602659,62.1705579 C177.810435,61.2459176 177.29879,60.3667855 176.541638,59.831032 C175.47296,59.0760126 174.744692,58.2672109 174.470301,56.9267929 C174.138145,55.298847 173.172621,54.1259812 171.039393,53.7763969 C170.564883,55.0340731 169.917075,56.2669267 169.646811,57.578385 C169.2115,59.6883023 168.347068,61.554131 167.010189,63.7281732 C165.929133,60.883922 164.846014,58.4595858 164.633516,55.7373788 C164.505605,54.1156385 162.80975,52.4938982 161.202607,52.5414747 C160.726035,52.5559546 160.117425,52.8827849 159.820341,53.2654659 C158.929089,54.4135092 158.957972,55.9338907 160.2474,57.3053369 C161.866921,59.0242989 162.347619,61.1962725 163.125402,63.250339 C163.795904,65.0210147 164.192016,66.8909806 164.82332,68.676136 C165.3721,70.2275458 167.497077,70.7777791 168.396582,69.6028448 C169.133103,68.6409707 169.747902,67.5508468 170.2286,66.4359004 C171.000194,64.6528134 171.619119,62.7993959 172.506245,60.4288419 L172.506245,60.4288419 Z M123.76382,58.3209932 C125.096572,60.9997606 126.352991,63.4633993 127.547516,65.9539291 C128.327362,67.5756694 130.398699,68.9016076 132.049166,68.7319868 C133.305584,68.5995998 134.772437,66.7089485 135.02207,64.9341357 C135.471822,61.7568486 135.977278,58.6002469 137.340977,55.6401571 C137.745341,54.7630935 137.904199,53.7433001 138.025921,52.7690148 C138.155895,51.7347417 137.941334,50.7501136 136.744745,50.410872 C135.754465,50.1295497 134.630084,50.7997587 134.264918,51.9684874 C133.77803,53.5302399 133.402549,55.1292262 132.967238,56.707527 C132.362755,58.8939805 131.745893,61.0762968 131.083643,63.4489195 C130.732918,63.0310731 130.532799,62.8697265 130.431708,62.6608033 C128.824565,59.3469921 127.302009,55.9897415 125.58346,52.7338495 C125.092446,51.8050722 124.09804,50.634275 123.239797,50.5515332 C122.346481,50.4646542 121.304624,51.5113387 120.403056,52.1649993 C120.126603,52.3656483 120.033764,52.8910591 119.95743,53.28822 C119.652093,54.8996175 119.357072,56.5130837 119.113629,58.134824 C118.748463,60.5715715 118.531839,63.0331417 118.071771,65.4492038 C117.545685,68.206576 117.459035,68.1900276 119.84396,69.7683285 C121.420157,69.5263086 121.977189,68.475487 122.05765,67.0316417 C122.113353,66.0428766 122.100974,65.0375631 122.276336,64.0694834 C122.620871,62.1829691 122.790044,60.236467 123.76382,58.3209932 L123.76382,58.3209932 Z M157.709806,60.3647169 C158.537103,55.5325927 156.261521,53.2716716 153.059614,51.7181933 C151.60514,51.0107505 149.729797,50.967311 148.052509,50.9942021 C146.598035,51.0148876 145.455086,51.9126367 144.415292,53.0834339 C142.863853,54.8272184 142.038619,56.953684 141.665201,59.0346416 C141.258773,61.3038369 141.770418,63.7467901 141.954033,66.1070015 C141.97879,66.4214205 142.405848,66.7296339 142.690554,66.9944079 C145.875956,69.9524291 149.253224,70.4737028 153.523808,68.3720597 C155.980942,67.1640287 157.61903,65.1596073 157.70568,62.220203 C157.726311,61.5624052 157.709806,60.902539 157.709806,60.3647169 L157.709806,60.3647169 Z M30.1431262,73.5579053 C32.150507,73.7916511 33.6833785,73.9840259 35.2183131,74.1453725 C37.1349182,74.3501586 40.0871916,72.1699108 40.3203201,70.2337514 C40.7741986,66.4958882 40.5163131,62.8511096 38.5440047,59.4938589 C37.8941332,58.3892552 37.1266659,57.2122523 35.8207336,57.2122523 C33.7184509,57.2143209 31.5645911,57.3922159 29.5365794,57.9072839 C28.6989673,58.1182756 27.9851402,59.3118268 27.4714322,60.2054388 C26.8752009,61.2355749 27.8654813,61.8168364 28.4844065,62.4518802 C28.6515164,62.625638 28.8516355,62.849041 28.8763925,63.068307 C29.2147383,65.9084211 29.5200748,68.7547408 29.8460421,71.598992 C29.9244393,72.2857494 30.0523505,72.9683696 30.1431262,73.5579053 L30.1431262,73.5579053 Z M78.0685701,27.0032019 C77.5136005,27.2597016 77.1401822,27.4210482 76.7770794,27.6030803 C74.1610888,28.9145387 71.4728902,29.6116388 68.5536262,28.7056155 C68.2008388,28.5959825 67.5798505,28.5980511 67.3982991,28.8131799 C66.3089907,30.1142955 64.9019673,30.2280656 63.375285,30.1473923 C62.3169229,30.0915415 61.9331893,30.8610408 61.8651075,31.7463786 C61.7846472,32.7558292 62.5232313,33.0061233 63.3298972,32.9750951 C64.2273388,32.9419984 65.1206542,32.7682405 66.0180958,32.7144583 C66.7855631,32.6689503 67.5612827,32.7041155 67.9429533,32.7041155 C70.1422009,35.5049273 69.087965,38.8828634 70.6476565,41.8284734 C71.6977664,41.2058409 72.4899907,40.7362809 73.1522407,40.3432571 C72.1970327,37.5196914 71.3429159,34.9877907 70.4310327,32.2945434 C72.8448411,31.5519352 74.7490678,30.2942591 77.1278037,30.6645289 C77.895271,32.5117407 78.0974533,34.356884 78.1490304,36.2744265 C78.1902921,37.726546 78.5348271,39.1807341 78.8690467,40.6059625 C78.9556963,40.9741637 79.6922173,41.5616309 79.8139393,41.4913003 C80.4142967,41.1479216 81.0724206,40.7073212 81.3921986,40.1260597 C81.7078505,39.5510039 81.9554206,38.328493 81.697535,38.1423238 C79.7376051,36.7377809 80.1481589,34.758182 80.125465,32.8406396 C80.0986449,30.7493393 79.708722,28.7593977 78.0685701,27.0032019 L78.0685701,27.0032019 Z M71.5554136,68.5003096 C72.7829486,69.3939216 73.7897336,70.2316829 74.8934836,70.906029 C77.5156636,72.5091524 78.8319112,71.3507664 79.1310584,68.8043859 C79.3435561,67.0130248 79.3064206,65.1947726 79.4962243,63.4013429 C79.6901542,61.5665423 79.219771,60.0627092 77.7632336,58.9084603 C76.0158014,60.031681 75.7558528,60.6977529 76.5583925,62.4829083 C77.4847173,64.545249 76.9194322,66.5455333 76.791521,68.7754262 C75.1389907,68.0535036 74.0538084,67.3171011 73.3049089,66.0097798 C72.5869556,64.7562408 71.615243,63.651637 70.7631893,62.4932511 C68.9889369,63.5647581 68.9683061,63.697145 69.3664813,65.2940628 C69.5170864,65.8939412 69.5459696,66.597247 69.3850491,67.1867827 C69.0301986,68.4899669 68.0543598,68.8043859 67.2476939,67.7494273 C66.4864159,66.7544565 66.0387266,65.4760949 65.6488037,64.2597896 C65.287764,63.1386375 65.1866729,61.932675 64.9225981,60.501241 C63.6847477,60.9314986 62.8079369,61.2355749 62.1312453,61.4713892 C62.3891308,62.8717951 62.6428902,63.9763988 62.7873061,65.0934138 C63.0740748,67.3191696 63.9694533,69.1974097 65.7952827,70.5378277 C67.5323995,71.8120522 69.6821332,71.4314397 70.9674346,69.6649012 C71.2005631,69.3422079 71.3326005,68.9471156 71.5554136,68.5003096 L71.5554136,68.5003096 Z M194.354306,24.2582409 C193.88186,27.1976452 193.44036,29.7709169 193.073131,32.3565998 C192.959661,33.1550586 192.771921,34.129344 193.104077,34.7685248 C193.710624,35.9351849 194.67821,36.9136073 195.563273,38.0575134 C198.888965,37.1990667 202.086745,35.9806929 205.074091,34.2079487 C205.705395,33.8335418 206.668855,33.5894534 206.177841,32.6999784 C205.983911,32.3483256 204.91936,32.4227932 204.250921,32.4165876 C203.960026,32.4145191 203.685636,32.7641034 203.376173,32.8468452 C201.189304,33.4281067 199.186049,34.7892102 196.830007,34.5140936 C196.318362,33.6101388 195.860357,32.8013372 195.3941,31.9759872 C197.651114,30.9479197 199.784343,29.9757029 202.047547,28.9455669 C201.952645,28.192616 201.85568,27.4169111 201.717453,26.3267872 C199.881308,26.9949277 198.255598,27.5844634 196.601005,28.1843418 C196.122369,26.4012549 197.182794,25.6420984 198.259724,25.0856594 C199.637864,24.372011 201.092339,23.7369672 202.586012,23.3418749 C203.759907,23.0336615 204.222037,22.4503314 204.290119,21.0437199 C200.064923,19.9722129 197.255002,22.853698 194.354306,24.2582409 L194.354306,24.2582409 Z M96.5063528,68.5747773 C94.6330724,67.2550447 93.7872079,65.8215421 93.0135514,64.3073662 C92.0913528,62.4973882 91.7055561,60.4164306 90.2304509,58.8815692 C89.5826425,58.2092917 88.7635981,57.865913 88.0373925,58.3602955 C87.5463785,58.6954 87.1358248,59.5372984 87.1378879,60.1495881 C87.1502664,63.4323711 86.9914089,66.6675775 85.4750421,69.8531389 C86.1723645,70.4033722 86.846993,70.9349886 87.5752617,71.5079759 C90.4326332,68.9926236 88.8316799,65.5505625 89.7951402,62.3256988 C91.4662383,66.551739 93.0898855,70.2627111 97.0819533,72.1430197 C99.8320444,68.2996606 100.236409,60.7680834 97.9463855,57.6052761 C95.8523551,58.3644326 95.8317243,58.4595858 96.3949463,60.2902492 C97.1789182,62.844904 97.1933598,65.4202441 96.5063528,68.5747773 L96.5063528,68.5747773 Z M23.2854346,37.5900219 C24.253021,36.9735951 25.1731565,36.3716482 26.1077336,35.7965923 C27.7190023,34.8016215 28.9176542,33.5439453 28.985736,31.5064272 C29.0166822,30.6024725 29.060007,29.6985177 29.1425304,28.7987001 C29.2539369,27.5989432 28.7092827,26.7715247 27.7912103,26.0764931 C24.5583575,23.6231972 20.5621636,24.4733697 18.6476215,28.0250638 C18.2185,28.8214541 18.4805117,29.4151269 19.0416706,29.9963884 C19.543,30.5176621 20.3476028,31.0203188 20.4404416,31.6201973 C20.8757523,34.4127348 21.9691869,37.1514901 21.1666472,40.0784832 C20.8633738,41.1851554 21.1810888,42.2008117 22.5385981,42.4035292 C23.2029112,41.5823163 23.836278,40.7942002 24.5604206,39.8985196 C24.2488949,39.3317379 23.8981706,38.6987628 23.2854346,37.5900219 L23.2854346,37.5900219 Z M173.9339,32.4289989 C174.559014,33.6473727 175.039713,34.6713031 175.602935,35.6497255 C176.124895,36.5598859 176.624161,37.6603525 178.000238,37.1969981 C178.821346,36.9218815 178.943068,35.5421611 178.346836,34.0776303 C178.253998,33.8480217 178.12815,33.6328928 178.020869,33.4094898 C177.445269,32.2304184 176.906804,31.0306616 176.287879,29.8743442 C175.578178,28.548406 175.373932,27.4210482 176.380717,26.004094 C177.401944,24.5685229 176.805713,23.6811165 174.618843,23.0977864 C173.603806,25.466272 172.570201,27.8823341 171.534533,30.3004647 C171.749093,27.5079272 171.528343,24.9077645 169.884065,22.6799401 C168.357383,22.3862065 168.070614,23.323258 168.039668,24.2996118 C168.644152,25.9999569 169.252762,27.7106447 169.426061,29.4627035 C169.568414,30.9024117 169.306402,32.4165876 169.019633,33.8583644 C168.726675,35.337375 169.353853,36.1461766 170.472044,36.8019058 C172.341199,35.9372534 173.061215,34.2555253 173.9339,32.4289989 L173.9339,32.4289989 Z M135.589418,25.4766147 C134.518678,24.6512647 133.685192,24.8229541 132.95486,25.7496628 C132.344187,26.5232991 131.714946,27.2845242 131.141409,28.0871202 C129.645673,30.1742834 128.42639,32.3628054 128.100423,35.0022705 C127.900304,36.6302165 128.525418,37.7244775 129.781836,38.5146621 C130.532799,38.9862907 131.395168,39.3089839 132.243096,39.5903062 C136.138199,40.8914219 139.461827,39.2945041 142.702932,37.4162641 C143.472463,36.9715266 144.101703,36.322003 144.066631,34.9009117 C143.191883,35.0932865 142.370776,35.0891494 141.747724,35.4408023 C139.150301,36.901196 136.338318,36.7708776 133.561407,36.5826399 C131.421988,36.4399102 130.423456,34.7374966 131.091895,32.7185954 C131.259005,32.2118015 131.739703,31.8105035 132.059481,31.3492177 C133.332404,29.5123486 135.422308,28.1802047 135.589418,25.4766147 L135.589418,25.4766147 Z M42.404035,30.021211 C41.8098668,29.5247598 41.372493,28.279495 39.9695958,28.8917847 C38.5336893,29.5185542 39.2537056,30.5921297 39.2763995,31.6243344 C39.3238505,33.7549371 39.1464252,35.8896769 39.0205771,38.0202796 C38.9669369,38.9200972 38.2201005,39.5054958 37.5372196,39.244859 C36.3633248,38.798053 35.1564206,38.1485294 34.2919883,37.2590545 C33.549278,36.4957609 33.2748879,35.4821732 33.9000023,34.129344 C34.6365234,32.5407004 34.7272991,30.6252265 34.9294813,28.8317968 C35.0058154,28.1533136 34.6117664,27.4210482 34.4260888,26.6867143 C33.1469766,27.0962865 32.5548715,27.613423 32.3588785,28.662176 C32.0246589,30.4369888 31.3624089,32.1662935 31.1787944,33.9493804 C30.8487009,37.1659699 32.1835164,39.6999392 34.9150397,41.4457923 C37.4361285,43.0571899 40.2419229,41.8284734 40.8443435,39.0628269 C41.1599953,37.6189816 41.2693388,36.1296282 41.5169089,34.667166 C41.7582897,33.2378005 42.0574369,31.8187777 42.404035,30.021211 L42.404035,30.021211 Z M56.3607991,65.703635 C56.1421121,64.8865592 55.9873808,63.8233264 55.5809533,62.867658 C54.1306051,59.4421453 54.101722,59.4876533 50.4314953,59.9551447 C48.2095537,60.236467 46.9056846,61.4569094 46.2805701,63.5668266 C45.517229,66.1359611 46.2702547,68.4423903 47.5411145,70.5998841 C48.8140374,72.7635836 51.0339159,72.58362 53.0495491,72.2857494 C54.6711332,72.045798 55.3911495,70.5936785 55.7810724,69.1146678 C56.0513364,68.092806 56.1441752,67.0233675 56.3607991,65.703635 L56.3607991,65.703635 Z M189.716493,31.1733913 C188.825241,31.3057782 187.876222,31.4216168 186.937519,31.5933062 C185.96168,31.7691326 185.330376,31.4857418 185.152951,30.4431944 C184.899192,28.9517725 184.635117,27.4603506 184.387547,26.0371908 C186.611551,25.0587683 188.821114,24.0865516 191.17303,23.0522784 C190.564421,22.1048842 190.203381,21.3146995 189.140893,21.6601467 C186.116411,22.6406377 183.083678,23.6025117 180.088079,24.6740187 C179.143187,25.0111918 179.077168,26.1881946 179.850825,26.8604722 C180.02825,27.0135446 180.308829,27.0404357 180.515138,27.1686856 C182.640114,28.5070351 182.908315,30.22186 181.313551,32.1993902 C181.063918,32.5096722 180.826664,32.8302969 180.626544,33.0867966 C181.049477,34.2927591 181.587942,34.8491981 182.898,35.0808753 C185.361322,35.5173385 187.288243,34.4085977 189.303876,33.486026 C190.135299,33.1074821 190.29622,32.2531724 189.716493,31.1733913 L189.716493,31.1733913 Z M99.159479,37.5982961 C99.5473388,38.3574526 99.8155397,39.0648955 100.248787,39.6523626 C100.50461,40.001947 101.092589,40.4218619 101.404114,40.3370515 C101.868308,40.2108701 102.349007,39.7330359 102.575946,39.2800243 C102.767813,38.8932061 102.807012,38.1609407 102.567694,37.8796184 C101.57535,36.7191639 101.987967,34.8285126 100.453033,33.9555861 C100.160075,33.7880338 100.038353,33.258486 99.9104416,32.8716678 C99.4235537,31.3947257 99.0047477,29.8950296 98.4869136,28.4304988 C97.785465,26.4446944 97.5110748,26.3764323 95.7553902,27.3486491 C94.6145047,30.9561939 93.6448551,34.4272146 92.3698692,37.7823968 C92.0047033,38.7442708 91.9696308,39.4372338 92.2852827,40.3329144 C94.8868318,40.8872848 94.2967897,38.2664366 95.3200794,37.2259578 C96.5414252,37.3438649 97.7503925,37.4617721 99.159479,37.5982961 L99.159479,37.5982961 Z M146.562963,26.0826988 C146.381411,25.9151465 146.201923,25.7475943 146.022435,25.5821106 C145.298292,25.8572272 144.409103,25.9523804 143.876827,26.4384887 C142.213981,27.9630074 141.834374,31.1009921 142.909241,33.1054135 C144.425607,35.9372534 147.22315,36.81018 149.909285,35.113972 C150.907818,34.4830654 151.722736,33.5005059 152.479888,32.5634544 C154.101472,30.5548959 153.610458,27.5782578 151.49786,26.1095899 C150.839736,25.6524411 150.17336,25.201498 149.515236,24.7526235 C148.850923,24.9843007 148.192799,25.1208247 147.629577,25.4331752 C146.773397,25.9110094 146.622792,26.8315125 146.992084,27.5865319 C147.322178,28.260878 147.870958,28.8193856 148.964393,28.3808537 C150.309523,27.8409631 151.194586,28.5608173 151.252353,29.9053724 C151.312182,31.338875 149.265603,33.2026352 147.747173,33.0971393 C146.265879,32.9957806 145.166255,31.5808949 145.362248,29.9157151 C145.428266,29.3654818 145.739792,28.8462767 145.911028,28.3043175 C146.142093,27.567915 146.346339,26.8232384 146.562963,26.0826988 L146.562963,26.0826988 Z M165.677437,30.5838556 C165.642364,28.8214541 164.819194,27.4396652 163.577217,26.2647308 C162.044346,24.8146799 161.322266,24.8270912 159.595465,26.2357712 C159.087946,26.6494805 158.491715,26.9535568 157.973881,27.3569233 C155.240294,29.4916631 154.549161,32.6606761 156.191376,35.451145 C157.433353,37.5631308 160.54861,38.4401945 162.376502,36.9487726 C164.32818,35.3559919 165.710446,33.3019254 165.677437,30.5838556 L165.677437,30.5838556 Z M190.327166,49.5234657 C190.444762,49.5586309 190.564421,49.5958648 190.682016,49.6330986 C190.535537,51.4265283 190.43032,53.2220265 190.228138,55.0092505 C190.038334,56.6992528 189.570014,58.3747754 189.549383,60.0606406 C189.528752,61.6906551 190.331292,62.1126386 191.794019,61.4320868 C192.307727,61.1921354 192.854444,60.6398336 193.023617,60.1144228 C193.46718,58.7284968 193.723002,57.2805144 194.030402,55.8532174 C194.426514,54.0122112 194.841194,52.1712049 195.175414,50.3177874 C195.455993,48.7539664 194.779301,47.5252499 193.527009,46.836424 C192.493404,46.2696423 191.692928,46.7867789 191.127643,47.438371 C190.669638,47.9679188 190.578862,48.8160228 190.327166,49.5234657 L190.327166,49.5234657 Z M45.4904089,31.8663543 L48.5705935,31.8663543 C48.5705935,34.3486099 48.4674393,36.7191639 48.6056659,39.0773067 C48.6964416,40.6431963 48.4653762,42.4035292 49.9528598,43.621903 C51.2773598,41.8243363 51.8797804,40.6349221 51.3454416,39.3606976 C50.3097734,36.8949904 51.1618271,34.33413 50.4562523,31.8456688 C52.8411776,30.6769401 55.7109276,30.5631701 57.2747453,27.7437415 C56.5402874,27.5886005 55.9956332,27.3155524 55.5128715,27.4024313 C54.0068201,27.6713423 52.5213995,28.3560312 51.0318528,28.3518941 C49.5237383,28.3456884 48.190986,28.6683817 46.819035,29.1400102 C45.1314322,29.7192032 45.1211168,29.6923121 45.4904089,31.8663543 L45.4904089,31.8663543 Z M84.6023575,35.3208266 C85.1243178,36.9963491 85.5286822,38.4857025 86.0568318,39.9295478 C86.3683575,40.7755833 86.9810935,41.3216795 87.9755,40.7735147 C88.9616542,40.2315556 89.3845864,39.0731697 88.6542547,38.328493 C87.7691916,37.4266068 87.5711355,36.4130191 87.4081519,35.4035685 C88.4376308,34.9009117 89.324757,34.4685855 90.1933154,34.0445336 C89.5764533,32.0214953 87.7155514,33.0081918 86.8779393,32.1787048 C86.4323131,30.2859849 86.0093808,28.480144 85.5616916,26.5770813 C84.5858528,26.7011941 83.8844042,26.7901416 82.8631776,26.9183915 C83.2200911,27.9423219 83.5790678,28.7428493 83.7668084,29.5847477 C83.9731168,30.5052508 84.0185047,31.4609192 84.1340374,32.4021078 C83.1520093,32.6379221 82.359785,32.6648132 81.7656168,33.0247402 C81.3076121,33.303994 80.7918411,34.0528077 80.8702383,34.4934081 C80.9465724,34.936077 81.6892827,35.4987216 82.2050537,35.5752578 C82.9787103,35.6890279 83.8080701,35.4242539 84.6023575,35.3208266 L84.6023575,35.3208266 Z M117.737551,27.7065076 C117.622019,27.5099957 117.506486,27.3114153 117.390953,27.1149034 C116.992778,27.1149034 116.588414,27.0714639 116.196428,27.121109 C114.026063,27.4024313 111.859825,27.7189189 109.687397,27.9961041 C108.794082,28.1098742 107.876009,28.0829831 106.999199,28.260878 C106.081126,28.4491158 105.189874,28.9041959 105.385867,30.0460335 C105.569481,31.1258147 106.303939,31.5084958 107.407689,31.138226 C107.766666,31.0182503 108.199914,31.1196091 108.670297,31.1196091 C109.023084,33.9411062 109.363493,36.6819301 109.741037,39.7082134 C110.547703,39.5261813 111.45546,39.5737579 111.64939,39.2241735 C112.016619,38.5601702 112.119773,37.6624211 112.078512,36.8743049 C111.971231,34.8698835 111.721598,32.8737363 111.54211,30.9913592 C113.759925,29.6840379 116.270699,29.555788 117.737551,27.7065076 L117.737551,27.7065076 Z M189.623654,72.9104503 C192.109671,72.7491037 192.511972,72.5650031 192.850318,71.4355768 C193.663173,68.7423295 193.615722,68.429979 192.435638,65.862913 C192.018895,64.9568897 191.402033,64.2846122 190.420005,64.3508057 C189.522563,64.4128621 188.849998,64.9072446 188.387867,65.8608445 C187.079871,68.5602974 187.315063,70.2751223 189.623654,72.9104503 L189.623654,72.9104503 Z M106.43804,67.646 C106.173965,68.3244832 105.85625,68.8685108 105.753096,69.4518409 C105.515841,70.8088073 105.332227,72.182322 105.224946,73.5579053 C105.16718,74.2818965 105.241451,75.036916 105.402371,75.7464273 C105.472516,76.0567093 105.872755,76.4538702 106.186343,76.5221322 C107.028082,76.7041643 108.703306,74.9769281 108.616657,74.0688363 C108.499061,72.8566681 108.377339,71.6424314 108.175157,70.4426746 C107.999794,69.41047 107.774918,68.3575799 106.43804,67.646 L106.43804,67.646 Z" id="Fill-35" sketch:type="MSShapeGroup"></path>
            <path d="M7.86388084,84.8128659 C6.38052336,83.1497546 4.87447196,82.2230459 4.91779673,80.3137776 C4.92811215,79.8131894 4.91985981,79.3105327 5.14679907,78.7706421 C6.70649065,80.3406687 7.5441028,82.1568524 7.86388084,84.8128659" id="Fill-36" sketch:type="MSShapeGroup"></path>
            <path d="M5.32628738,90.9026662 C5.86475234,91.9948587 6.11232243,93.1201479 5.89982477,94.3116306 C5.00238318,93.3001114 4.62483879,92.1975762 5.32628738,90.9026662" id="Fill-37" sketch:type="MSShapeGroup"></path>
            <path d="M11.0245257,95.6313631 C10.3829065,95.4803592 9.7392243,95.3272868 9.09554206,95.1762829 C9.10585748,95.0521701 9.11410981,94.9280574 9.12236215,94.8039446 C9.44420327,94.7832591 9.78667523,94.6860374 10.0837593,94.7646422 C10.4530514,94.8618639 10.7852079,95.1038838 11.1338692,95.2859159 C11.0987967,95.4017545 11.0616612,95.5175931 11.0245257,95.6313631" id="Fill-38" sketch:type="MSShapeGroup"></path>
            <path d="M33.5760981,92.8843336 C33.9783995,92.8512369 34.3807009,92.8202087 34.7830023,92.7891805 C34.7974439,92.9505271 34.8098224,93.1118737 34.824264,93.2732203 C34.4219626,93.3083856 34.0196612,93.3435509 33.6194229,93.3787162 C33.6049813,93.2132325 33.5905397,93.0477488 33.5760981,92.8843336" id="Fill-39" sketch:type="MSShapeGroup"></path>
            <path d="M172.506245,60.4288419 C171.619119,62.7993959 171.000194,64.6528134 170.2286,66.4359004 C169.747902,67.5508468 169.133103,68.6409707 168.396582,69.6028448 C167.497077,70.7777791 165.3721,70.2275458 164.82332,68.676136 C164.192016,66.8909806 163.795904,65.0210147 163.125402,63.250339 C162.347619,61.1962725 161.866921,59.0242989 160.2474,57.3053369 C158.957972,55.9338907 158.929089,54.4135092 159.820341,53.2654659 C160.117425,52.8827849 160.726035,52.5559546 161.202607,52.5414747 C162.80975,52.4938982 164.505605,54.1156385 164.633516,55.7373788 C164.846014,58.4595858 165.929133,60.883922 167.010189,63.7281732 C168.347068,61.554131 169.2115,59.6883023 169.646811,57.578385 C169.917075,56.2669267 170.564883,55.0340731 171.039393,53.7763969 C173.172621,54.1259812 174.138145,55.298847 174.470301,56.9267929 C174.744692,58.2672109 175.47296,59.0760126 176.541638,59.831032 C177.29879,60.3667855 177.810435,61.2459176 178.602659,62.1705579 C179.465028,59.6634797 180.909187,57.3218853 180.853484,54.473497 C180.849357,54.2376827 180.6905,53.917058 180.793654,53.7846711 C181.189766,53.2758087 181.585879,52.5642287 182.12228,52.4070192 C183.415834,52.0264067 183.64071,49.7365259 185.65428,50.6011783 L185.65428,52.0470922 C186.165925,52.0884631 186.642498,52.129834 187.137638,52.1712049 C187.075745,52.5207893 187.096376,52.7028213 187.015916,52.8124543 C186.491893,53.534377 185.738867,54.1611465 185.441783,54.9637425 C184.364853,57.8865984 183.386951,60.8508253 182.477131,63.8336691 C182.017063,65.3437079 181.123748,66.7172227 181.569374,68.5292692 C181.84789,69.6649012 180.411984,70.5005939 179.194764,70.2689167 C178.101329,70.057925 177.552549,69.2987685 177.05122,68.4051565 C175.662764,65.9208323 174.23511,63.4571937 172.506245,60.4288419" id="Fill-104" fill="#000000" sketch:type="MSShapeGroup"></path>
            <path d="M123.76382,58.3209932 C122.790044,60.236467 122.620871,62.1829691 122.276336,64.0694834 C122.100974,65.0375631 122.113353,66.0428766 122.05765,67.0316417 C121.977189,68.475487 121.420157,69.5263086 119.84396,69.7683285 C117.459035,68.1900276 117.545685,68.206576 118.071771,65.4492038 C118.531839,63.0331417 118.748463,60.5715715 119.113629,58.134824 C119.357072,56.5130837 119.652093,54.8996175 119.95743,53.28822 C120.033764,52.8910591 120.126603,52.3656483 120.403056,52.1649993 C121.304624,51.5113387 122.346481,50.4646542 123.239797,50.5515332 C124.09804,50.634275 125.092446,51.8050722 125.58346,52.7338495 C127.302009,55.9897415 128.824565,59.3469921 130.431708,62.6608033 C130.532799,62.8697265 130.732918,63.0310731 131.083643,63.4489195 C131.745893,61.0762968 132.362755,58.8939805 132.967238,56.707527 C133.402549,55.1292262 133.77803,53.5302399 134.264918,51.9684874 C134.630084,50.7997587 135.754465,50.1295497 136.744745,50.410872 C137.941334,50.7501136 138.155895,51.7347417 138.025921,52.7690148 C137.904199,53.7433001 137.745341,54.7630935 137.340977,55.6401571 C135.977278,58.6002469 135.471822,61.7568486 135.02207,64.9341357 C134.772437,66.7089485 133.305584,68.5995998 132.049166,68.7319868 C130.398699,68.9016076 128.327362,67.5756694 127.547516,65.9539291 C126.352991,63.4633993 125.096572,60.9997606 123.76382,58.3209932" id="Fill-105" fill="#000000" sketch:type="MSShapeGroup"></path>
            <path d="M157.709806,60.3647169 C157.709806,60.902539 157.726311,61.5624052 157.70568,62.220203 C157.61903,65.1596073 155.980942,67.1640287 153.523808,68.3720597 C149.253224,70.4737028 145.875956,69.9524291 142.690554,66.9944079 C142.405848,66.7296339 141.97879,66.4214205 141.954033,66.1070015 C141.770418,63.7467901 141.258773,61.3038369 141.665201,59.0346416 C142.038619,56.953684 142.863853,54.8272184 144.415292,53.0834339 C145.455086,51.9126367 146.598035,51.0148876 148.052509,50.9942021 C149.729797,50.967311 151.60514,51.0107505 153.059614,51.7181933 C156.261521,53.2716716 158.537103,55.5325927 157.709806,60.3647169 L157.709806,60.3647169 Z M153.759,59.9385964 C153.267986,58.5774929 152.867748,57.1708814 152.236444,55.8801085 C152.007442,55.4146856 151.021287,54.8251499 150.724203,54.9761538 C148.945825,55.8801085 146.443304,55.8987254 145.960542,58.5526703 C145.787243,59.5145444 145.432393,60.4619386 145.395257,61.4258812 C145.34368,62.8014645 145.353995,64.2556525 146.967327,64.9341357 C148.650804,65.6415786 150.189864,65.7636228 151.753682,64.4459588 C153.191652,63.2358592 153.42478,61.7196148 153.759,59.9385964 L153.759,59.9385964 Z" id="Fill-106" fill="#000000" sketch:type="MSShapeGroup"></path>
            <path d="M30.1431262,73.5579053 C30.0523505,72.9683696 29.9244393,72.2857494 29.8460421,71.598992 C29.5200748,68.7547408 29.2147383,65.9084211 28.8763925,63.068307 C28.8516355,62.849041 28.6515164,62.625638 28.4844065,62.4518802 C27.8654813,61.8168364 26.8752009,61.2355749 27.4714322,60.2054388 C27.9851402,59.3118268 28.6989673,58.1182756 29.5365794,57.9072839 C31.5645911,57.3922159 33.7184509,57.2143209 35.8207336,57.2122523 C37.1266659,57.2122523 37.8941332,58.3892552 38.5440047,59.4938589 C40.5163131,62.8511096 40.7741986,66.4958882 40.3203201,70.2337514 C40.0871916,72.1699108 37.1349182,74.3501586 35.2183131,74.1453725 C33.6833785,73.9840259 32.150507,73.7916511 30.1431262,73.5579053 L30.1431262,73.5579053 Z M31.9318201,68.5003096 C32.0741729,68.4237734 32.2123995,68.3493057 32.3547523,68.274838 C33.0500117,69.0795026 33.8401729,69.8241792 34.4116472,70.7115856 C34.8036332,71.3218068 35.141979,71.8803143 35.8991308,71.6548427 C36.8935374,71.3590406 37.8012944,71.0549643 38.1664603,69.747643 C38.8967921,67.1164521 38.3150023,64.7955431 37.2834603,62.3856867 C36.6480304,60.902539 35.7670935,60.368854 34.2383481,60.1061486 C32.7405491,59.8475803 32.0060911,60.679136 30.9044042,61.4507037 C31.2510023,63.8274635 31.5914112,66.1628522 31.9318201,68.5003096 L31.9318201,68.5003096 Z" id="Fill-107" fill="#000000" sketch:type="MSShapeGroup"></path>
            <path d="M78.0685701,27.0032019 C79.708722,28.7593977 80.0986449,30.7493393 80.125465,32.8406396 C80.1481589,34.758182 79.7376051,36.7377809 81.697535,38.1423238 C81.9554206,38.328493 81.7078505,39.5510039 81.3921986,40.1260597 C81.0724206,40.7073212 80.4142967,41.1479216 79.8139393,41.4913003 C79.6922173,41.5616309 78.9556963,40.9741637 78.8690467,40.6059625 C78.5348271,39.1807341 78.1902921,37.726546 78.1490304,36.2744265 C78.0974533,34.356884 77.895271,32.5117407 77.1278037,30.6645289 C74.7490678,30.2942591 72.8448411,31.5519352 70.4310327,32.2945434 C71.3429159,34.9877907 72.1970327,37.5196914 73.1522407,40.3432571 C72.4899907,40.7362809 71.6977664,41.2058409 70.6476565,41.8284734 C69.087965,38.8828634 70.1422009,35.5049273 67.9429533,32.7041155 C67.5612827,32.7041155 66.7855631,32.6689503 66.0180958,32.7144583 C65.1206542,32.7682405 64.2273388,32.9419984 63.3298972,32.9750951 C62.5232313,33.0061233 61.7846472,32.7558292 61.8651075,31.7463786 C61.9331893,30.8610408 62.3169229,30.0915415 63.375285,30.1473923 C64.9019673,30.2280656 66.3089907,30.1142955 67.3982991,28.8131799 C67.5798505,28.5980511 68.2008388,28.5959825 68.5536262,28.7056155 C71.4728902,29.6116388 74.1610888,28.9145387 76.7770794,27.6030803 C77.1401822,27.4210482 77.5136005,27.2597016 78.0685701,27.0032019" id="Fill-108" fill="#000000" sketch:type="MSShapeGroup"></path>
            <path d="M71.5554136,68.5003096 C71.3326005,68.9471156 71.2005631,69.3422079 70.9674346,69.6649012 C69.6821332,71.4314397 67.5323995,71.8120522 65.7952827,70.5378277 C63.9694533,69.1974097 63.0740748,67.3191696 62.7873061,65.0934138 C62.6428902,63.9763988 62.3891308,62.8717951 62.1312453,61.4713892 C62.8079369,61.2355749 63.6847477,60.9314986 64.9225981,60.501241 C65.1866729,61.932675 65.287764,63.1386375 65.6488037,64.2597896 C66.0387266,65.4760949 66.4864159,66.7544565 67.2476939,67.7494273 C68.0543598,68.8043859 69.0301986,68.4899669 69.3850491,67.1867827 C69.5459696,66.597247 69.5170864,65.8939412 69.3664813,65.2940628 C68.9683061,63.697145 68.9889369,63.5647581 70.7631893,62.4932511 C71.615243,63.651637 72.5869556,64.7562408 73.3049089,66.0097798 C74.0538084,67.3171011 75.1389907,68.0535036 76.791521,68.7754262 C76.9194322,66.5455333 77.4847173,64.545249 76.5583925,62.4829083 C75.7558528,60.6977529 76.0158014,60.031681 77.7632336,58.9084603 C79.219771,60.0627092 79.6901542,61.5665423 79.4962243,63.4013429 C79.3064206,65.1947726 79.3435561,67.0130248 79.1310584,68.8043859 C78.8319112,71.3507664 77.5156636,72.5091524 74.8934836,70.906029 C73.7897336,70.2316829 72.7829486,69.3939216 71.5554136,68.5003096" id="Fill-109" fill="#000000" sketch:type="MSShapeGroup"></path>
            <path d="M194.354306,24.2582409 C197.255002,22.853698 200.064923,19.9722129 204.290119,21.0437199 C204.222037,22.4503314 203.759907,23.0336615 202.586012,23.3418749 C201.092339,23.7369672 199.637864,24.372011 198.259724,25.0856594 C197.182794,25.6420984 196.122369,26.4012549 196.601005,28.1843418 C198.255598,27.5844634 199.881308,26.9949277 201.717453,26.3267872 C201.85568,27.4169111 201.952645,28.192616 202.047547,28.9455669 C199.784343,29.9757029 197.651114,30.9479197 195.3941,31.9759872 C195.860357,32.8013372 196.318362,33.6101388 196.830007,34.5140936 C199.186049,34.7892102 201.189304,33.4281067 203.376173,32.8468452 C203.685636,32.7641034 203.960026,32.4145191 204.250921,32.4165876 C204.91936,32.4227932 205.983911,32.3483256 206.177841,32.6999784 C206.668855,33.5894534 205.705395,33.8335418 205.074091,34.2079487 C202.086745,35.9806929 198.888965,37.1990667 195.563273,38.0575134 C194.67821,36.9136073 193.710624,35.9351849 193.104077,34.7685248 C192.771921,34.129344 192.959661,33.1550586 193.073131,32.3565998 C193.44036,29.7709169 193.88186,27.1976452 194.354306,24.2582409" id="Fill-110" fill="#000000" sketch:type="MSShapeGroup"></path>
            <path d="M96.5063528,68.5747773 C97.1933598,65.4202441 97.1789182,62.844904 96.3949463,60.2902492 C95.8317243,58.4595858 95.8523551,58.3644326 97.9463855,57.6052761 C100.236409,60.7680834 99.8320444,68.2996606 97.0819533,72.1430197 C93.0898855,70.2627111 91.4662383,66.551739 89.7951402,62.3256988 C88.8316799,65.5505625 90.4326332,68.9926236 87.5752617,71.5079759 C86.846993,70.9349886 86.1723645,70.4033722 85.4750421,69.8531389 C86.9914089,66.6675775 87.1502664,63.4323711 87.1378879,60.1495881 C87.1358248,59.5372984 87.5463785,58.6954 88.0373925,58.3602955 C88.7635981,57.865913 89.5826425,58.2092917 90.2304509,58.8815692 C91.7055561,60.4164306 92.0913528,62.4973882 93.0135514,64.3073662 C93.7872079,65.8215421 94.6330724,67.2550447 96.5063528,68.5747773" id="Fill-111" fill="#000000" sketch:type="MSShapeGroup"></path>
            <path d="M23.2854346,37.5900219 C23.8981706,38.6987628 24.2488949,39.3317379 24.5604206,39.8985196 C23.836278,40.7942002 23.2029112,41.5823163 22.5385981,42.4035292 C21.1810888,42.2008117 20.8633738,41.1851554 21.1666472,40.0784832 C21.9691869,37.1514901 20.8757523,34.4127348 20.4404416,31.6201973 C20.3476028,31.0203188 19.543,30.5176621 19.0416706,29.9963884 C18.4805117,29.4151269 18.2185,28.8214541 18.6476215,28.0250638 C20.5621636,24.4733697 24.5583575,23.6231972 27.7912103,26.0764931 C28.7092827,26.7715247 29.2539369,27.5989432 29.1425304,28.7987001 C29.060007,29.6985177 29.0166822,30.6024725 28.985736,31.5064272 C28.9176542,33.5439453 27.7190023,34.8016215 26.1077336,35.7965923 C25.1731565,36.3716482 24.253021,36.9735951 23.2854346,37.5900219 L23.2854346,37.5900219 Z M24.054965,28.1284911 C22.4519486,28.1409024 22.070278,28.7469864 22.6025537,30.2404769 C22.8707547,30.9954963 22.9615304,31.8167092 23.1307033,32.6068939 C23.3473271,33.6225501 23.908486,33.9721344 24.9214603,33.6225501 C26.264528,33.1571272 27.2259252,31.4029999 26.9618505,29.8122878 C26.7885514,28.7552606 25.6806752,28.1140113 24.054965,28.1284911 L24.054965,28.1284911 Z" id="Fill-112" fill="#000000" sketch:type="MSShapeGroup"></path>
            <path d="M173.9339,32.4289989 C173.061215,34.2555253 172.341199,35.9372534 170.472044,36.8019058 C169.353853,36.1461766 168.726675,35.337375 169.019633,33.8583644 C169.306402,32.4165876 169.568414,30.9024117 169.426061,29.4627035 C169.252762,27.7106447 168.644152,25.9999569 168.039668,24.2996118 C168.070614,23.323258 168.357383,22.3862065 169.884065,22.6799401 C171.528343,24.9077645 171.749093,27.5079272 171.534533,30.3004647 C172.570201,27.8823341 173.603806,25.466272 174.618843,23.0977864 C176.805713,23.6811165 177.401944,24.5685229 176.380717,26.004094 C175.373932,27.4210482 175.578178,28.548406 176.287879,29.8743442 C176.906804,31.0306616 177.445269,32.2304184 178.020869,33.4094898 C178.12815,33.6328928 178.253998,33.8480217 178.346836,34.0776303 C178.943068,35.5421611 178.821346,36.9218815 178.000238,37.1969981 C176.624161,37.6603525 176.124895,36.5598859 175.602935,35.6497255 C175.039713,34.6713031 174.559014,33.6473727 173.9339,32.4289989" id="Fill-113" fill="#000000" sketch:type="MSShapeGroup"></path>
            <path d="M135.589418,25.4766147 C135.422308,28.1802047 133.332404,29.5123486 132.059481,31.3492177 C131.739703,31.8105035 131.259005,32.2118015 131.091895,32.7185954 C130.423456,34.7374966 131.421988,36.4399102 133.561407,36.5826399 C136.338318,36.7708776 139.150301,36.901196 141.747724,35.4408023 C142.370776,35.0891494 143.191883,35.0932865 144.066631,34.9009117 C144.101703,36.322003 143.472463,36.9715266 142.702932,37.4162641 C139.461827,39.2945041 136.138199,40.8914219 132.243096,39.5903062 C131.395168,39.3089839 130.532799,38.9862907 129.781836,38.5146621 C128.525418,37.7244775 127.900304,36.6302165 128.100423,35.0022705 C128.42639,32.3628054 129.645673,30.1742834 131.141409,28.0871202 C131.714946,27.2845242 132.344187,26.5232991 132.95486,25.7496628 C133.685192,24.8229541 134.518678,24.6512647 135.589418,25.4766147" id="Fill-114" fill="#000000" sketch:type="MSShapeGroup"></path>
            <path d="M42.404035,30.021211 C42.0574369,31.8187777 41.7582897,33.2378005 41.5169089,34.667166 C41.2693388,36.1296282 41.1599953,37.6189816 40.8443435,39.0628269 C40.2419229,41.8284734 37.4361285,43.0571899 34.9150397,41.4457923 C32.1835164,39.6999392 30.8487009,37.1659699 31.1787944,33.9493804 C31.3624089,32.1662935 32.0246589,30.4369888 32.3588785,28.662176 C32.5548715,27.613423 33.1469766,27.0962865 34.4260888,26.6867143 C34.6117664,27.4210482 35.0058154,28.1533136 34.9294813,28.8317968 C34.7272991,30.6252265 34.6365234,32.5407004 33.9000023,34.129344 C33.2748879,35.4821732 33.549278,36.4957609 34.2919883,37.2590545 C35.1564206,38.1485294 36.3633248,38.798053 37.5372196,39.244859 C38.2201005,39.5054958 38.9669369,38.9200972 39.0205771,38.0202796 C39.1464252,35.8896769 39.3238505,33.7549371 39.2763995,31.6243344 C39.2537056,30.5921297 38.5336893,29.5185542 39.9695958,28.8917847 C41.372493,28.279495 41.8098668,29.5247598 42.404035,30.021211" id="Fill-115" fill="#000000" sketch:type="MSShapeGroup"></path>
            <path d="M56.3607991,65.703635 C56.1441752,67.0233675 56.0513364,68.092806 55.7810724,69.1146678 C55.3911495,70.5936785 54.6711332,72.045798 53.0495491,72.2857494 C51.0339159,72.58362 48.8140374,72.7635836 47.5411145,70.5998841 C46.2702547,68.4423903 45.517229,66.1359611 46.2805701,63.5668266 C46.9056846,61.4569094 48.2095537,60.236467 50.4314953,59.9551447 C54.101722,59.4876533 54.1306051,59.4421453 55.5809533,62.867658 C55.9873808,63.8233264 56.1421121,64.8865592 56.3607991,65.703635 L56.3607991,65.703635 Z M48.8140374,66.1918119 C49.0079673,66.7482509 49.3566285,67.8238949 49.7548037,68.8850592 C50.2994579,70.3309731 52.9855935,70.2027232 53.6024556,68.7443981 C54.1429836,67.4701735 54.5390958,66.1132071 53.9614322,64.6879787 C53.5756355,63.7323103 51.894222,62.4580858 50.9720234,62.5015253 C49.7382991,62.557376 48.8078481,63.8998626 48.8140374,66.1918119 L48.8140374,66.1918119 Z" id="Fill-116" fill="#000000" sketch:type="MSShapeGroup"></path>
            <path d="M189.716493,31.1733913 C190.29622,32.2531724 190.135299,33.1074821 189.303876,33.486026 C187.288243,34.4085977 185.361322,35.5173385 182.898,35.0808753 C181.587942,34.8491981 181.049477,34.2927591 180.626544,33.0867966 C180.826664,32.8302969 181.063918,32.5096722 181.313551,32.1993902 C182.908315,30.22186 182.640114,28.5070351 180.515138,27.1686856 C180.308829,27.0404357 180.02825,27.0135446 179.850825,26.8604722 C179.077168,26.1881946 179.143187,25.0111918 180.088079,24.6740187 C183.083678,23.6025117 186.116411,22.6406377 189.140893,21.6601467 C190.203381,21.3146995 190.564421,22.1048842 191.17303,23.0522784 C188.821114,24.0865516 186.611551,25.0587683 184.387547,26.0371908 C184.635117,27.4603506 184.899192,28.9517725 185.152951,30.4431944 C185.330376,31.4857418 185.96168,31.7691326 186.937519,31.5933062 C187.876222,31.4216168 188.825241,31.3057782 189.716493,31.1733913" id="Fill-117" fill="#000000" sketch:type="MSShapeGroup"></path>
            <path d="M99.159479,37.5982961 C97.7503925,37.4617721 96.5414252,37.3438649 95.3200794,37.2259578 C94.2967897,38.2664366 94.8868318,40.8872848 92.2852827,40.3329144 C91.9696308,39.4372338 92.0047033,38.7442708 92.3698692,37.7823968 C93.6448551,34.4272146 94.6145047,30.9561939 95.7553902,27.3486491 C97.5110748,26.3764323 97.785465,26.4446944 98.4869136,28.4304988 C99.0047477,29.8950296 99.4235537,31.3947257 99.9104416,32.8716678 C100.038353,33.258486 100.160075,33.7880338 100.453033,33.9555861 C101.987967,34.8285126 101.57535,36.7191639 102.567694,37.8796184 C102.807012,38.1609407 102.767813,38.8932061 102.575946,39.2800243 C102.349007,39.7330359 101.868308,40.2108701 101.404114,40.3370515 C101.092589,40.4218619 100.50461,40.001947 100.248787,39.6523626 C99.8155397,39.0648955 99.5473388,38.3574526 99.159479,37.5982961 L99.159479,37.5982961 Z M96.8529509,31.1795969 C95.8049042,33.1591957 95.7945888,33.1674699 97.6967523,33.9638602 C97.4244252,33.0702482 97.2139907,32.369011 96.8529509,31.1795969 L96.8529509,31.1795969 Z" id="Fill-118" fill="#000000" sketch:type="MSShapeGroup"></path>
            <path d="M146.562963,26.0826988 C146.346339,26.8232384 146.142093,27.567915 145.911028,28.3043175 C145.739792,28.8462767 145.428266,29.3654818 145.362248,29.9157151 C145.166255,31.5808949 146.265879,32.9957806 147.747173,33.0971393 C149.265603,33.2026352 151.312182,31.338875 151.252353,29.9053724 C151.194586,28.5608173 150.309523,27.8409631 148.964393,28.3808537 C147.870958,28.8193856 147.322178,28.260878 146.992084,27.5865319 C146.622792,26.8315125 146.773397,25.9110094 147.629577,25.4331752 C148.192799,25.1208247 148.850923,24.9843007 149.515236,24.7526235 C150.17336,25.201498 150.839736,25.6524411 151.49786,26.1095899 C153.610458,27.5782578 154.101472,30.5548959 152.479888,32.5634544 C151.722736,33.5005059 150.907818,34.4830654 149.909285,35.113972 C147.22315,36.81018 144.425607,35.9372534 142.909241,33.1054135 C141.834374,31.1009921 142.213981,27.9630074 143.876827,26.4384887 C144.409103,25.9523804 145.298292,25.8572272 146.022435,25.5821106 C146.201923,25.7475943 146.381411,25.9151465 146.562963,26.0826988" id="Fill-119" fill="#000000" sketch:type="MSShapeGroup"></path>
            <path d="M165.677437,30.5838556 C165.710446,33.3019254 164.32818,35.3559919 162.376502,36.9487726 C160.54861,38.4401945 157.433353,37.5631308 156.191376,35.451145 C154.549161,32.6606761 155.240294,29.4916631 157.973881,27.3569233 C158.491715,26.9535568 159.087946,26.6494805 159.595465,26.2357712 C161.322266,24.8270912 162.044346,24.8146799 163.577217,26.2647308 C164.819194,27.4396652 165.642364,28.8214541 165.677437,30.5838556 L165.677437,30.5838556 Z M160.395942,34.6547547 C161.883425,34.621658 162.733416,33.7425258 163.339963,31.7236246 C163.597848,30.8610408 163.930005,30.002594 163.1646,29.1896553 C162.333178,28.3084546 161.307825,28.5856398 160.40832,28.8338654 C159.744007,29.017966 159.034306,29.51028 158.634068,30.0729246 C157.969755,31.0037705 157.550949,32.0732089 158.153369,33.2895141 C158.660888,34.3155131 159.434544,34.7250853 160.395942,34.6547547 L160.395942,34.6547547 Z" id="Fill-120" fill="#000000" sketch:type="MSShapeGroup"></path>
            <path d="M190.327166,49.5234657 C190.578862,48.8160228 190.669638,47.9679188 191.127643,47.438371 C191.692928,46.7867789 192.493404,46.2696423 193.527009,46.836424 C194.779301,47.5252499 195.455993,48.7539664 195.175414,50.3177874 C194.841194,52.1712049 194.426514,54.0122112 194.030402,55.8532174 C193.723002,57.2805144 193.46718,58.7284968 193.023617,60.1144228 C192.854444,60.6398336 192.307727,61.1921354 191.794019,61.4320868 C190.331292,62.1126386 189.528752,61.6906551 189.549383,60.0606406 C189.570014,58.3747754 190.038334,56.6992528 190.228138,55.0092505 C190.43032,53.2220265 190.535537,51.4265283 190.682016,49.6330986 C190.564421,49.5958648 190.444762,49.5586309 190.327166,49.5234657" id="Fill-121" fill="#000000" sketch:type="MSShapeGroup"></path>
            <path d="M45.4904089,31.8663543 C45.1211168,29.6923121 45.1314322,29.7192032 46.819035,29.1400102 C48.190986,28.6683817 49.5237383,28.3456884 51.0318528,28.3518941 C52.5213995,28.3560312 54.0068201,27.6713423 55.5128715,27.4024313 C55.9956332,27.3155524 56.5402874,27.5886005 57.2747453,27.7437415 C55.7109276,30.5631701 52.8411776,30.6769401 50.4562523,31.8456688 C51.1618271,34.33413 50.3097734,36.8949904 51.3454416,39.3606976 C51.8797804,40.6349221 51.2773598,41.8243363 49.9528598,43.621903 C48.4653762,42.4035292 48.6964416,40.6431963 48.6056659,39.0773067 C48.4674393,36.7191639 48.5705935,34.3486099 48.5705935,31.8663543 L45.4904089,31.8663543" id="Fill-122" fill="#000000" sketch:type="MSShapeGroup"></path>
            <path d="M84.6023575,35.3208266 C83.8080701,35.4242539 82.9787103,35.6890279 82.2050537,35.5752578 C81.6892827,35.4987216 80.9465724,34.936077 80.8702383,34.4934081 C80.7918411,34.0528077 81.3076121,33.303994 81.7656168,33.0247402 C82.359785,32.6648132 83.1520093,32.6379221 84.1340374,32.4021078 C84.0185047,31.4609192 83.9731168,30.5052508 83.7668084,29.5847477 C83.5790678,28.7428493 83.2200911,27.9423219 82.8631776,26.9183915 C83.8844042,26.7901416 84.5858528,26.7011941 85.5616916,26.5770813 C86.0093808,28.480144 86.4323131,30.2859849 86.8779393,32.1787048 C87.7155514,33.0081918 89.5764533,32.0214953 90.1933154,34.0445336 C89.324757,34.4685855 88.4376308,34.9009117 87.4081519,35.4035685 C87.5711355,36.4130191 87.7691916,37.4266068 88.6542547,38.328493 C89.3845864,39.0731697 88.9616542,40.2315556 87.9755,40.7735147 C86.9810935,41.3216795 86.3683575,40.7755833 86.0568318,39.9295478 C85.5286822,38.4857025 85.1243178,36.9963491 84.6023575,35.3208266" id="Fill-123" fill="#000000" sketch:type="MSShapeGroup"></path>
            <path d="M117.737551,27.7065076 C116.270699,29.555788 113.759925,29.6840379 111.54211,30.9913592 C111.721598,32.8737363 111.971231,34.8698835 112.078512,36.8743049 C112.119773,37.6624211 112.016619,38.5601702 111.64939,39.2241735 C111.45546,39.5737579 110.547703,39.5261813 109.741037,39.7082134 C109.363493,36.6819301 109.023084,33.9411062 108.670297,31.1196091 C108.199914,31.1196091 107.766666,31.0182503 107.407689,31.138226 C106.303939,31.5084958 105.569481,31.1258147 105.385867,30.0460335 C105.189874,28.9041959 106.081126,28.4491158 106.999199,28.260878 C107.876009,28.0829831 108.794082,28.1098742 109.687397,27.9961041 C111.859825,27.7189189 114.026063,27.4024313 116.196428,27.121109 C116.588414,27.0714639 116.992778,27.1149034 117.390953,27.1149034 C117.506486,27.3114153 117.622019,27.5099957 117.737551,27.7065076" id="Fill-124" fill="#000000" sketch:type="MSShapeGroup"></path>
            <path d="M189.623654,72.9104503 C187.315063,70.2751223 187.079871,68.5602974 188.387867,65.8608445 C188.849998,64.9072446 189.522563,64.4128621 190.420005,64.3508057 C191.402033,64.2846122 192.018895,64.9568897 192.435638,65.862913 C193.615722,68.429979 193.663173,68.7423295 192.850318,71.4355768 C192.511972,72.5650031 192.109671,72.7491037 189.623654,72.9104503" id="Fill-125" fill="#000000" sketch:type="MSShapeGroup"></path>
            <path d="M106.43804,67.646 C107.774918,68.3575799 107.999794,69.41047 108.175157,70.4426746 C108.377339,71.6424314 108.499061,72.8566681 108.616657,74.0688363 C108.703306,74.9769281 107.028082,76.7041643 106.186343,76.5221322 C105.872755,76.4538702 105.472516,76.0567093 105.402371,75.7464273 C105.241451,75.036916 105.16718,74.2818965 105.224946,73.5579053 C105.332227,72.182322 105.515841,70.8088073 105.753096,69.4518409 C105.85625,68.8685108 106.173965,68.3244832 106.43804,67.646" id="Fill-126" fill="#000000" sketch:type="MSShapeGroup"></path>
            <path d="M153.759,59.9385964 C153.42478,61.7196148 153.191652,63.2358592 151.753682,64.4459588 C150.189864,65.7636228 148.650804,65.6415786 146.967327,64.9341357 C145.353995,64.2556525 145.34368,62.8014645 145.395257,61.4258812 C145.432393,60.4619386 145.787243,59.5145444 145.960542,58.5526703 C146.443304,55.8987254 148.945825,55.8801085 150.724203,54.9761538 C151.021287,54.8251499 152.007442,55.4146856 152.236444,55.8801085 C152.867748,57.1708814 153.267986,58.5774929 153.759,59.9385964" id="Fill-231" sketch:type="MSShapeGroup"></path>
            <path d="M31.9318201,68.5003096 C31.5914112,66.1628522 31.2510023,63.8274635 30.9044042,61.4507037 C32.0060911,60.679136 32.7405491,59.8475803 34.2383481,60.1061486 C35.7670935,60.368854 36.6480304,60.902539 37.2834603,62.3856867 C38.3150023,64.7955431 38.8967921,67.1164521 38.1664603,69.747643 C37.8012944,71.0549643 36.8935374,71.3590406 35.8991308,71.6548427 C35.141979,71.8803143 34.8036332,71.3218068 34.4116472,70.7115856 C33.8401729,69.8241792 33.0500117,69.0795026 32.3547523,68.274838 C32.2123995,68.3493057 32.0741729,68.4237734 31.9318201,68.5003096" id="Fill-232" sketch:type="MSShapeGroup"></path>
            <path d="M24.054965,28.1284911 C25.6806752,28.1140113 26.7885514,28.7552606 26.9618505,29.8122878 C27.2259252,31.4029999 26.264528,33.1571272 24.9214603,33.6225501 C23.908486,33.9721344 23.3473271,33.6225501 23.1307033,32.6068939 C22.9615304,31.8167092 22.8707547,30.9954963 22.6025537,30.2404769 C22.070278,28.7469864 22.4519486,28.1409024 24.054965,28.1284911" id="Fill-233" sketch:type="MSShapeGroup"></path>
            <path d="M48.8140374,66.1918119 C48.8078481,63.8998626 49.7382991,62.557376 50.9720234,62.5015253 C51.894222,62.4580858 53.5756355,63.7323103 53.9614322,64.6879787 C54.5390958,66.1132071 54.1429836,67.4701735 53.6024556,68.7443981 C52.9855935,70.2027232 50.2994579,70.3309731 49.7548037,68.8850592 C49.3566285,67.8238949 49.0079673,66.7482509 48.8140374,66.1918119" id="Fill-234" sketch:type="MSShapeGroup"></path>
            <path d="M96.8529509,31.1795969 C97.2139907,32.369011 97.4244252,33.0702482 97.6967523,33.9638602 C95.7945888,33.1674699 95.8049042,33.1591957 96.8529509,31.1795969" id="Fill-235" fill="#FFFFFF" sketch:type="MSShapeGroup"></path>
            <path d="M160.395942,34.6547547 C159.434544,34.7250853 158.660888,34.3155131 158.153369,33.2895141 C157.550949,32.0732089 157.969755,31.0037705 158.634068,30.0729246 C159.034306,29.51028 159.744007,29.017966 160.40832,28.8338654 C161.307825,28.5856398 162.333178,28.3084546 163.1646,29.1896553 C163.930005,30.002594 163.597848,30.8610408 163.339963,31.7236246 C162.733416,33.7425258 161.883425,34.621658 160.395942,34.6547547" id="Fill-236" sketch:type="MSShapeGroup"></path>
        </g>
    </g>
</svg>