<?xml version="1.0" encoding="UTF-8" standalone="no"?>
<svg width="144px" height="48px" viewBox="0 0 144 48" version="1.1" xmlns="http://www.w3.org/2000/svg" xmlns:xlink="http://www.w3.org/1999/xlink" xmlns:sketch="http://www.bohemiancoding.com/sketch/ns">
    <!-- Generator: Sketch 3.1.1 (8761) - http://www.bohemiancoding.com/sketch -->
    <title>restart</title>
    <desc>Created with Sketch.</desc>
    <defs></defs>
    <g id="Page-1" stroke="none" stroke-width="1" fill="none" fill-rule="evenodd" sketch:type="MSPage">
        <g id="Imported-Layers" sketch:type="MSLayerGroup" transform="translate(71.500000, 23.500000) rotate(3.000000) translate(-71.500000, -23.500000) translate(0.000000, -2.000000)">
            <path d="M17.7798387,50.6335714 C17.3089785,50.4952857 16.8272043,50.2108571 16.3688172,50.2422857 C14.6631183,50.3617143 12.9652151,50.5927143 11.2641935,50.7655714 C10.8931183,50.8032857 10.5033333,50.8441429 10.1447312,50.7702857 C8.9972043,50.533 7.96349462,50.8912857 6.91731183,51.2762857 C6.64134409,51.3768571 6.16268817,51.4475714 6.02548387,51.2998571 C5.56086022,50.7954286 5.18666667,51.5905714 4.65967742,51.2747143 C4.2355914,51.0201429 3.54021505,51.2244286 3.08650538,51.2244286 C2.72478495,50.5487143 2.38177419,49.9248571 2.05591398,49.2931429 C1.98887097,49.1627143 1.9311828,48.9945714 1.95456989,48.8578571 C2.3194086,46.65 2.3661828,44.428 2.26483871,42.1997143 C2.1666129,40.0295714 2.07930108,37.8578571 1.92026882,35.6908571 C1.7705914,33.6448571 1.54919355,31.6035714 1.32623656,29.5638571 C1.18591398,28.2957143 0.930215054,27.0401429 0.833548387,25.7704286 C0.777419355,25.0381429 1.02532258,24.2838571 0.978548387,23.5515714 C0.838225806,21.3217143 0.633978495,19.0965714 0.415698925,16.873 C0.392311828,16.6247143 0.122580645,16.4 -0.0660752688,16.114 C0.875645161,15.1161429 0.186505376,14.343 -0.427795699,13.6908571 C-0.0738709677,13.0827143 0.138172043,12.3645714 0.615268817,12.0015714 C1.04247312,11.6762857 1.7627957,11.7407143 2.36774194,11.6307143 C3.29387097,9.954 4.8077957,9.24371429 6.70994624,9.09128571 C7.76548387,9.00642857 8.80075269,8.67328571 9.85629032,8.56642857 C11.3296774,8.41557143 12.8170968,8.39514286 14.2936022,8.27571429 C15.6890323,8.161 17.0797849,7.97871429 18.4736559,7.84828571 C18.8681183,7.81214286 19.2703763,7.84514286 19.667957,7.86085714 C20.8934409,7.908 22.1204839,8.01014286 23.3459677,7.99914286 C24.6119892,7.98657143 25.8780108,7.88757143 27.140914,7.78071429 C28.0857527,7.70057143 29.0243548,7.45071429 29.9660753,7.45542857 C31.1323118,7.46014286 32.3110215,7.81371429 33.4632258,7.72885714 C35.8362366,7.55128571 38.1967742,7.19142857 40.5604301,6.89128571 C42.5654839,6.63671429 44.5674194,6.35542857 46.570914,6.093 C48.4543548,5.84471429 50.3331183,5.56657143 52.2227957,5.37328571 C53.5465054,5.23814286 54.8826882,5.235 56.2110753,5.15328571 C59.1204301,4.97414286 62.0001613,4.652 64.8767742,4.08314286 C67.2778495,3.60857143 69.7802688,3.651 72.235914,3.44828571 C73.6453763,3.332 75.0548387,3.20157143 76.4596237,3.04285714 C78.4459677,2.81814286 80.4245161,2.54157143 82.4108602,2.32471429 C85.4324731,1.99471429 88.4556452,1.66942857 91.4819355,1.39285714 C92.8913978,1.26557143 94.321129,1.12414286 95.725914,1.22471429 C97.8058065,1.37242857 99.842043,0.882142857 101.943763,1.08957143 C103.732097,1.26557143 105.579677,0.803571429 107.402312,0.657428571 C108.696398,0.555285714 109.993602,0.459428571 111.290806,0.445285714 C114.161183,0.412285714 117.033118,0.432714286 119.903495,0.434285714 C124.049247,0.437428571 128.193441,0.437428571 132.337634,0.45 C133.249731,0.453142857 134.191452,0.366714286 135.066129,0.564714286 C136.319677,0.849142857 137.566989,1.26714286 138.730108,1.814 C139.207204,2.03714286 139.531505,2.70971429 139.799677,3.24242857 C140.357849,4.35342857 141.090645,5.28057143 141.957527,6.17785714 C142.470484,6.709 142.657581,7.73042857 142.679409,8.53814286 C142.743333,10.9628571 142.651344,13.3922857 142.629516,15.8201429 C142.618602,17.0977143 142.576505,18.38 142.638871,19.6544286 C142.709032,21.0765714 143.011505,22.4971429 142.975645,23.913 C142.922634,25.992 142.688763,28.0678571 142.473602,30.139 C142.327043,31.547 142.074462,32.944 141.881129,34.3472857 C141.75328,35.276 141.628548,36.2047143 141.541237,37.1381429 C141.520968,37.3628571 141.577097,37.6975714 141.728333,37.8185714 C142.174247,38.1768571 142.155538,38.4738571 141.821882,38.8981429 C141.690914,39.0631429 141.655054,39.3884286 141.711183,39.6052857 C141.882688,40.259 141.965323,40.8781429 141.288656,41.2772857 C140.75543,41.5915714 140.203495,41.9011429 139.620376,42.096 C138.111129,42.6004286 136.572258,42.1148571 135.055215,42.162 C132.303333,42.2452857 129.559247,42.6098571 126.812043,42.8565714 C124.467097,43.0687143 122.120591,43.2777143 119.777204,43.5024286 C119.601022,43.5181429 119.321935,43.6218571 119.282957,43.746 C118.932151,44.8632857 118.027849,45.0565714 117.06586,45.1194286 C114.884624,45.2608571 112.701828,45.4022857 110.517473,45.484 C109.692688,45.5138571 108.85543,45.2687143 108.038441,45.3315714 C104.577151,45.6002857 101.120538,45.9397143 97.6623656,46.2477143 C96.1266129,46.3844286 94.5705914,46.3985714 93.0551075,46.6578571 C90.6415591,47.0711429 88.2217742,46.9972857 85.798871,47.013 C83.6067204,47.0255714 81.4519892,47.3178571 79.3549462,47.9652857 C78.9963441,48.0752857 78.6018817,48.3581429 78.4147849,48.6755714 C78.092043,49.2255714 77.6975806,49.4848571 77.0801613,49.4644286 C75.9201613,49.4251429 74.7601613,49.3905714 73.6001613,49.3654286 C71.9817742,49.3292857 70.3633871,49.3182857 68.745,49.2664286 C66.4265591,49.191 64.1065591,48.9804286 61.7896774,49.0197143 C58.0461828,49.0825714 54.3058065,49.2837143 50.5654301,49.4644286 C49.3118817,49.5241429 48.066129,49.7661429 46.8141398,49.8038571 C46.1577419,49.8242857 45.488871,49.4628571 44.8324731,49.4864286 C43.2265591,49.5445714 41.6222043,49.7174286 40.0178495,49.8572857 C37.9878495,50.0348571 35.9547312,50.2045714 33.9278495,50.4167143 C32.9268817,50.5204286 31.936828,50.7168571 30.9405376,50.863 C30.7051075,50.8975714 30.3620968,51.006 30.2451613,50.8928571 C28.9058602,49.6058571 27.275,50.324 25.7891398,50.2627143 C24.3562903,50.2045714 22.9094086,50.4717143 21.4687634,50.5942857 C20.2198925,50.698 18.9710215,50.7985714 17.7221505,50.9022857 C17.7408602,50.8127143 17.761129,50.7231429 17.7798387,50.6335714 L17.7798387,50.6335714 Z M6.29833333,47.5488571 C7.10596774,47.5488571 7.7311828,47.6227143 8.33456989,47.5362857 C10.2024194,47.2675714 12.0577957,46.9124286 13.9256452,46.6437143 C15.1402151,46.4692857 16.3703763,46.4032857 17.5880645,46.254 C18.5594086,46.1361429 19.5260753,45.8831429 20.4522043,46.4441429 C20.7905376,46.65 21.1491398,46.9815714 21.4999462,46.9831429 C23.0528495,46.9925714 24.6057527,46.9155714 26.1586559,46.8417143 C27.0801075,46.7992857 27.9984409,46.6672857 28.9198925,46.6452857 C30.744086,46.6044286 32.572957,46.6672857 34.3955914,46.5887143 C37.5123118,46.4551429 40.6243548,46.2241429 43.7395161,46.0795714 C45.0491935,46.0182857 46.3697849,46.1314286 47.6779032,46.0528571 C49.3726882,45.9522857 51.0596774,45.4902857 52.7560215,46.0591429 C52.862043,46.0952857 52.9976882,46.0292857 53.1208602,46.0245714 C54.5895699,45.9758571 56.0567204,45.9051429 57.5254301,45.891 C58.1974194,45.8847143 58.8709677,46.0418571 59.542957,46.034 C61.8676344,46.0041429 64.1923118,45.9287143 66.5169892,45.8831429 C67.5709677,45.8627143 68.6311828,45.9381429 69.6789247,45.8532857 C71.2131183,45.7291429 72.7395161,45.5138571 74.2674731,45.3111429 C76.7823656,44.9795714 79.3003763,44.6684286 81.8043548,44.2692857 C82.9409677,44.087 84.0354839,43.6548571 85.1689785,43.4442857 C86.7593011,43.1472857 88.3683333,42.954 89.9695699,42.7135714 C91.7236022,42.4495714 93.4745161,42.1698571 95.2301075,41.9231429 C96.7003763,41.7172857 98.1722043,41.5067143 99.6487097,41.3762857 C101.037903,41.2552857 102.434892,41.2034286 103.828763,41.1798571 C105.925806,41.1468571 108.027527,41.2568571 110.118333,41.1405714 C113.06043,40.9771429 115.99629,40.6832857 118.929032,40.402 C120.266774,40.2747143 121.59828,40.0767143 122.923548,39.8567143 C124.231667,39.6382857 125.519516,39.2438571 126.833871,39.1212857 C129.362796,38.8855714 131.905753,38.7755714 134.444032,38.642 C134.905538,38.6184286 135.376398,38.7268571 135.842581,38.7865714 C136.297849,38.8431429 137.027527,39.1165714 137.155376,38.9421429 C137.481237,38.4895714 137.671452,37.8405714 137.673011,37.2701429 C137.67457,36.6792857 137.074301,35.8747143 137.295699,35.54 C137.814892,34.759 137.291022,34.0895714 137.406398,33.3934286 C137.43914,33.197 137.495269,33.0037143 137.551398,32.812 C137.680806,32.3578571 137.919355,31.91 137.934946,31.4527143 C138.030054,28.643 138.069032,25.8301429 138.143871,23.0188571 C138.159462,22.4217143 138.262366,21.8261429 138.304462,21.229 C138.382419,20.1132857 138.527419,18.9912857 138.486882,17.8787143 C138.452581,16.9547143 138.139194,16.0432857 138.045645,15.1161429 C137.906882,13.7332857 137.916237,12.3347143 137.744731,10.9565714 C137.581022,9.65385714 137.350269,8.34485714 136.98543,7.08614286 C136.726613,6.19357143 136.436613,5.08885714 135.421613,4.82642857 C134.493925,4.58757143 133.463333,4.63471429 132.491989,4.72114286 C131.629785,4.79814286 130.572688,4.90814286 130.195376,4.22928571 C129.800914,3.52528571 129.289516,3.519 128.818656,3.50642857 C127.204946,3.464 125.585,3.50957143 123.972849,3.59757143 C122.44957,3.68242857 120.932527,3.87571429 119.412366,3.99985714 C118.367742,4.08471429 117.198387,4.46185714 116.300323,4.124 C114.582151,3.47814286 112.901398,3.85371429 111.231559,3.88828571 C109.104892,3.93385714 106.990699,4.38642857 104.860914,4.55457143 C104.156183,4.60957143 103.417151,4.19314286 102.704624,4.23085714 C100.261452,4.35657143 97.8213978,4.564 95.3844624,4.79028571 C94.6002151,4.86257143 93.7536022,4.93485714 93.0738172,5.28214286 C92.2802151,5.68757143 91.7656989,5.46757143 91.22,4.97257143 C90.4544624,4.27485714 88.5336022,4.47757143 88.0003763,5.37485714 C87.5404301,6.14642857 86.8622043,6.29885714 86.0763978,6.25642857 C84.0198925,6.14485714 81.9633871,5.92642857 79.9084409,5.939 C78.3991935,5.94685714 76.8930645,6.27528571 75.3822581,6.42142857 C73.0856452,6.643 70.7812366,6.78285714 68.4893011,7.04842857 C66.6136559,7.26528571 64.7598387,7.67857143 62.8826344,7.88442857 C61.3172581,8.05728571 59.843871,9.206 58.1771505,8.36057143 C58.103871,8.32285714 57.9900538,8.348 57.8996237,8.36685714 C55.1399462,8.92314286 52.3865054,9.50928571 49.6190323,10.0215714 C48.9829032,10.1394286 48.3233871,10.3012857 47.6591935,9.75442857 C47.1836559,9.36314286 46.5974194,8.83828571 45.8100538,9.10542857 C44.3647312,9.59414286 42.6902151,9.32542857 41.4351075,10.4662857 C41.2994624,10.5904286 41.039086,10.5904286 40.8317204,10.614 C38.4275269,10.8842857 36.0233333,11.1592857 33.6144624,11.3997143 C33.3213441,11.428 33.0048387,11.2692857 32.7039247,11.1765714 C32.3406452,11.065 31.9867204,10.8324286 31.625,10.8261429 C30.9530108,10.8151429 30.2794624,10.9392857 29.6043548,10.9911429 C25.7501613,11.285 21.8912903,11.5395714 18.0417742,11.8837143 C15.9478495,12.0707143 13.8695161,12.4258571 11.781828,12.6788571 C10.5017742,12.8344286 9.21704301,12.957 7.93075269,13.0575714 C7.49107527,13.0921429 7.02956989,12.9318571 6.59924731,13.001 C5.77913978,13.133 4.9761828,13.3655714 4.11865591,13.5682857 C4.25274194,14.9825714 4.41489247,16.5414286 4.54741935,18.1018571 C4.6705914,19.557 5.36129032,20.9084286 5.21784946,22.4232857 C5.0977957,23.715 5.13989247,25.0224286 5.12430108,26.3235714 C5.11962366,26.7918571 4.99645161,27.3528571 5.20069892,27.7111429 C5.71365591,28.6037143 5.66376344,29.5465714 5.69806452,30.4957143 C5.70741935,30.7597143 5.69182796,31.0252857 5.71365591,31.2892857 C5.90854839,33.6055714 6.48231183,35.8762857 6.43865591,38.2255714 C6.40903226,39.7325714 6.53844086,41.2427143 6.61639785,42.7512857 C6.63043011,43.0404286 6.80973118,43.3327143 6.78166667,43.6108571 C6.64913978,44.8978571 6.47139785,46.1785714 6.29833333,47.5488571 L6.29833333,47.5488571 Z" id="Fill-1" fill="#000000" sketch:type="MSShapeGroup"></path>
            <path d="M6.29833333,47.5488571 C6.47139785,46.1785714 6.64913978,44.8978571 6.78166667,43.6108571 C6.80973118,43.3327143 6.63043011,43.0404286 6.61639785,42.7512857 C6.53844086,41.2427143 6.40903226,39.7325714 6.43865591,38.2255714 C6.48231183,35.8762857 5.90854839,33.6055714 5.71365591,31.2892857 C5.69182796,31.0252857 5.70741935,30.7597143 5.69806452,30.4957143 C5.66376344,29.5465714 5.71365591,28.6037143 5.20069892,27.7111429 C4.99645161,27.3528571 5.11962366,26.7918571 5.12430108,26.3235714 C5.13989247,25.0224286 5.0977957,23.715 5.21784946,22.4232857 C5.36129032,20.9084286 4.6705914,19.557 4.54741935,18.1018571 C4.41489247,16.5414286 4.25274194,14.9825714 4.11865591,13.5682857 C4.9761828,13.3655714 5.77913978,13.133 6.59924731,13.001 C7.02956989,12.9318571 7.49107527,13.0921429 7.93075269,13.0575714 C9.21704301,12.957 10.5017742,12.8344286 11.781828,12.6788571 C13.8695161,12.4258571 15.9478495,12.0707143 18.0417742,11.8837143 C21.8912903,11.5395714 25.7501613,11.285 29.6043548,10.9911429 C30.2794624,10.9392857 30.9530108,10.8151429 31.625,10.8261429 C31.9867204,10.8324286 32.3406452,11.065 32.7039247,11.1765714 C33.0048387,11.2692857 33.3213441,11.428 33.6144624,11.3997143 C36.0233333,11.1592857 38.4275269,10.8842857 40.8317204,10.614 C41.039086,10.5904286 41.2994624,10.5904286 41.4351075,10.4662857 C42.6902151,9.32542857 44.3647312,9.59414286 45.8100538,9.10542857 C46.5974194,8.83828571 47.1836559,9.36314286 47.6591935,9.75442857 C48.3233871,10.3012857 48.9829032,10.1394286 49.6190323,10.0215714 C52.3865054,9.50928571 55.1399462,8.92314286 57.8996237,8.36685714 C57.9900538,8.348 58.103871,8.32285714 58.1771505,8.36057143 C59.843871,9.206 61.3172581,8.05728571 62.8826344,7.88442857 C64.7598387,7.67857143 66.6136559,7.26528571 68.4893011,7.04842857 C70.7812366,6.78285714 73.0856452,6.643 75.3822581,6.42142857 C76.8930645,6.27528571 78.3991935,5.94685714 79.9084409,5.939 C81.9633871,5.92642857 84.0198925,6.14485714 86.0763978,6.25642857 C86.8622043,6.29885714 87.5404301,6.14642857 88.0003763,5.37485714 C88.5336022,4.47757143 90.4544624,4.27485714 91.22,4.97257143 C91.7656989,5.46757143 92.2802151,5.68757143 93.0738172,5.28214286 C93.7536022,4.93485714 94.6002151,4.86257143 95.3844624,4.79028571 C97.8213978,4.564 100.261452,4.35657143 102.704624,4.23085714 C103.417151,4.19314286 104.156183,4.60957143 104.860914,4.55457143 C106.990699,4.38642857 109.104892,3.93385714 111.231559,3.88828571 C112.901398,3.85371429 114.582151,3.47814286 116.300323,4.124 C117.198387,4.46185714 118.367742,4.08471429 119.412366,3.99985714 C120.932527,3.87571429 122.44957,3.68242857 123.972849,3.59757143 C125.585,3.50957143 127.204946,3.464 128.818656,3.50642857 C129.289516,3.519 129.800914,3.52528571 130.195376,4.22928571 C130.572688,4.90814286 131.629785,4.79814286 132.491989,4.72114286 C133.463333,4.63471429 134.493925,4.58757143 135.421613,4.82642857 C136.436613,5.08885714 136.726613,6.19357143 136.98543,7.08614286 C137.350269,8.34485714 137.581022,9.65385714 137.744731,10.9565714 C137.916237,12.3347143 137.906882,13.7332857 138.045645,15.1161429 C138.139194,16.0432857 138.452581,16.9547143 138.486882,17.8787143 C138.527419,18.9912857 138.382419,20.1132857 138.304462,21.229 C138.262366,21.8261429 138.159462,22.4217143 138.143871,23.0188571 C138.069032,25.8301429 138.030054,28.643 137.934946,31.4527143 C137.919355,31.91 137.680806,32.3578571 137.551398,32.812 C137.495269,33.0037143 137.43914,33.197 137.406398,33.3934286 C137.291022,34.0895714 137.814892,34.759 137.295699,35.54 C137.074301,35.8747143 137.67457,36.6792857 137.673011,37.2701429 C137.671452,37.8405714 137.481237,38.4895714 137.155376,38.9421429 C137.027527,39.1165714 136.297849,38.8431429 135.842581,38.7865714 C135.376398,38.7268571 134.905538,38.6184286 134.444032,38.642 C131.905753,38.7755714 129.362796,38.8855714 126.833871,39.1212857 C125.519516,39.2438571 124.231667,39.6382857 122.923548,39.8567143 C121.59828,40.0767143 120.266774,40.2747143 118.929032,40.402 C115.99629,40.6832857 113.06043,40.9771429 110.118333,41.1405714 C108.027527,41.2568571 105.925806,41.1468571 103.828763,41.1798571 C102.434892,41.2034286 101.037903,41.2552857 99.6487097,41.3762857 C98.1722043,41.5067143 96.7003763,41.7172857 95.2301075,41.9231429 C93.4745161,42.1698571 91.7236022,42.4495714 89.9695699,42.7135714 C88.3683333,42.954 86.7593011,43.1472857 85.1689785,43.4442857 C84.0354839,43.6548571 82.9409677,44.087 81.8043548,44.2692857 C79.3003763,44.6684286 76.7823656,44.9795714 74.2674731,45.3111429 C72.7395161,45.5138571 71.2131183,45.7291429 69.6789247,45.8532857 C68.6311828,45.9381429 67.5709677,45.8627143 66.5169892,45.8831429 C64.1923118,45.9287143 61.8676344,46.0041429 59.542957,46.034 C58.8709677,46.0418571 58.1974194,45.8847143 57.5254301,45.891 C56.0567204,45.9051429 54.5895699,45.9758571 53.1208602,46.0245714 C52.9976882,46.0292857 52.862043,46.0952857 52.7560215,46.0591429 C51.0596774,45.4902857 49.3726882,45.9522857 47.6779032,46.0528571 C46.3697849,46.1314286 45.0491935,46.0182857 43.7395161,46.0795714 C40.6243548,46.2241429 37.5123118,46.4551429 34.3955914,46.5887143 C32.572957,46.6672857 30.744086,46.6044286 28.9198925,46.6452857 C27.9984409,46.6672857 27.0801075,46.7992857 26.1586559,46.8417143 C24.6057527,46.9155714 23.0528495,46.9925714 21.4999462,46.9831429 C21.1491398,46.9815714 20.7905376,46.65 20.4522043,46.4441429 C19.5260753,45.8831429 18.5594086,46.1361429 17.5880645,46.254 C16.3703763,46.4032857 15.1402151,46.4692857 13.9256452,46.6437143 C12.0577957,46.9124286 10.2024194,47.2675714 8.33456989,47.5362857 C7.7311828,47.6227143 7.10596774,47.5488571 6.29833333,47.5488571 L6.29833333,47.5488571 Z M17.326129,34.5578571 C17.8827419,34.7731429 18.2553763,34.8862857 18.6015054,35.0544286 C19.6102688,35.5478571 20.6315054,36.0208571 21.6012903,36.585 C22.1033333,36.8757143 22.7036022,37.2591429 22.9078495,37.7494286 C23.3350538,38.7771429 23.5361828,39.9007143 23.8183871,40.9881429 C23.9337634,41.4328571 24.0210753,41.8854286 24.1224194,42.3348571 C24.3937097,42.3348571 24.7273656,42.3867143 25.0376344,42.3254286 C25.6955914,42.195 26.4408602,42.1572857 26.9678495,41.8052857 C27.8378495,41.2238571 28.1138172,39.4465714 27.6226882,38.4864286 C27.1097312,37.4822857 27.0458065,36.3445714 26.037043,35.4614286 C25.2278495,34.7511429 24.675914,33.7171429 23.6079032,33.2252857 C22.9062903,32.9031429 22.2405376,32.5055714 21.4360215,32.0765714 C21.7899462,31.4118571 22.1236022,30.8084286 22.433871,30.194 C22.78,29.5072857 23.1682258,28.8331429 23.4254839,28.1118571 C23.918172,26.729 24.2783333,25.2974286 24.7912903,23.924 C25.3167204,22.516 25.0282796,20.5627143 23.9665054,19.546 C23.2680108,18.875 22.4151613,18.3485714 21.7977419,17.6162857 C20.8825269,16.532 19.7053763,16.0778571 18.4471505,16.323 C17.0704301,16.5901429 15.731129,17.1574286 14.4432796,17.7435714 C13.7634946,18.0531429 13.2474194,18.7147143 12.6175269,19.161 C11.7132258,19.8021429 11.9954301,20.4432857 12.5270968,21.1284286 C12.5536022,21.1614286 12.4210753,21.2934286 12.4304301,21.372 C12.6814516,23.5358571 12.9714516,25.695 13.188172,27.862 C13.3908602,29.8797143 13.8211828,31.8848571 13.5452151,33.9371429 C13.4844086,34.3928571 13.6309677,34.8737143 13.6418817,35.3435714 C13.6652688,36.4388571 13.8024731,37.5561429 13.6387634,38.6247143 C13.4267204,40.006 14.0394624,41.4124286 15.3475806,41.6685714 C15.943172,41.7848571 16.6058065,41.5617143 17.2154301,41.4957143 C17.27,41.1594286 17.2185484,40.7665714 17.3775806,40.6345714 C18.1072581,40.0311429 17.8047849,39.2705714 17.7502151,38.5697143 C17.6504301,37.2858571 17.4836022,36.0067143 17.326129,34.5578571 L17.326129,34.5578571 Z M103.549677,27.3968571 C104.742419,28.1307143 105.79172,28.8724286 106.923656,29.4475714 C108.351828,30.1735714 109.318495,31.1651429 109.528978,32.8214286 C109.566398,33.1137143 109.750376,33.4987143 109.982688,33.6307143 C110.545538,33.9512857 111.15828,34.2278571 111.785054,34.3755714 C112.842151,34.6254286 114.298387,33.109 113.977204,32.1095714 C113.737097,31.3647143 113.422151,30.6355714 113.069785,29.9362857 C112.790699,29.3831429 112.513172,28.7357143 112.043871,28.3962857 C110.70457,27.4282857 109.259247,26.6111429 107.874731,25.7044286 C107.073333,25.1811429 106.310914,24.5981429 105.492366,24.0135714 C105.679462,23.8391429 105.75586,23.7087143 105.858763,23.6804286 C108.450054,22.9795714 109.606935,21.0058571 110.308548,18.6188571 C110.367796,18.4145714 110.381828,18.138 110.520591,18.0217143 C111.141129,17.5047143 110.985215,16.7692857 110.972742,16.158 C110.938441,14.4765714 109.962419,13.232 108.741613,12.2294286 C106.962634,10.7695714 105.001237,11.0555714 103.094409,11.934 C102.012366,12.4337143 100.997366,13.0921429 99.9886022,13.738 C99.5941398,13.991 98.972043,14.4718571 99.0234946,14.739 C99.2043548,15.6975714 98.5635484,16.2617143 98.247043,16.9798571 C98.2002688,17.0867143 98.1254301,17.2124286 98.1425806,17.3145714 C98.3452688,18.4915714 98.6025269,19.6607143 98.7693548,20.8424286 C99.071828,22.989 99.3633871,25.1387143 99.5723118,27.2947143 C99.640914,27.9877143 99.4382258,28.7074286 99.3431183,29.5638571 C99.2979032,29.5135714 99.5863441,29.7618571 99.5567204,29.809 C99.1591398,30.4548571 99.6643011,30.777 99.9698925,31.2028571 C100.885108,32.4741429 101.939086,32.504 102.947849,31.305 C103.247204,30.9482857 103.67129,30.6968571 103.827204,30.5695714 C103.72586,29.3972857 103.633871,28.357 103.549677,27.3968571 L103.549677,27.3968571 Z M43.0004839,39.368 C43.5118817,39.1731429 43.8580108,38.9704286 44.2259677,38.917 C44.8558602,38.8258571 45.9877957,37.4335714 45.8958065,36.7767143 C45.8178495,36.2062857 44.3662903,34.924 43.7847312,34.9491429 C42.8929032,34.9884286 42.0026344,35.111 41.1123656,35.1125714 C40.2189785,35.1141429 39.320914,35.045 38.4322043,34.9444286 C37.5824731,34.8485714 36.7374194,34.6961429 35.9032796,34.5091429 C35.7442473,34.4745714 35.550914,34.1744286 35.5337634,33.9811429 C35.384086,32.2777143 35.2687097,30.5711429 35.1533333,28.9965714 C35.5820968,28.8315714 35.907957,28.6948571 36.2416129,28.5817143 C36.4941935,28.4968571 36.7530108,28.4041429 37.0165054,28.3774286 C37.8397312,28.2925714 38.6691935,28.2627143 39.4908602,28.1668571 C40.480914,28.0521429 40.6430645,27.1218571 41.0016667,26.4398571 C41.1108065,26.234 40.9361828,25.7531429 40.7428495,25.53 C39.8915591,24.5462857 38.7798925,24.4174286 37.5575269,24.6122857 C36.565914,24.771 35.5602688,24.8291429 34.6279032,24.925 C34.4143011,22.9575714 34.2303226,21.262 34.0369892,19.48 C35.9921505,19.48 37.7633333,19.513 39.5313978,19.4611429 C40.0693011,19.4454286 40.827043,19.37 41.0858602,19.0227143 C41.4912366,18.4758571 41.9496237,17.3931429 41.6954839,17.0317143 C40.9065591,15.9112857 39.6124731,15.2827143 38.2154839,15.564 C35.9048387,16.0307143 33.6690323,15.9505714 31.5345699,15.1585714 C31.2773118,15.3722857 31.0948925,15.575 30.8688172,15.6991429 C29.8553763,16.2538571 29.5263978,17.1291429 29.9286559,18.2181429 C30.0643011,18.5858571 30.1344624,18.9865714 30.1703226,19.3778571 C30.2295699,20.0331429 30.2015054,20.6962857 30.2763441,21.3484286 C30.4338172,22.7265714 30.6645699,24.0952857 30.811129,25.4734286 C30.9296237,26.6064286 30.9405376,27.7504286 31.0512366,28.885 C31.2383333,30.7722857 31.4597312,32.6564286 31.681129,34.5405714 C31.8043011,35.5871429 31.8463978,36.662 32.1426344,37.6598571 C32.2860753,38.1438571 32.8707527,38.6922857 33.3603226,38.829 C34.09,39.0317143 34.9116667,38.884 35.6943548,38.9044286 C37.8631183,38.961 40.0318817,39.0175714 42.2006452,39.104 C42.510914,39.1165714 42.8133871,39.3035714 43.0004839,39.368 L43.0004839,39.368 Z M84.8088172,18.0107143 C84.7791935,18.2527143 84.7932258,18.622 84.684086,18.9504286 C84.2428495,20.2861429 83.7797849,21.6155714 83.2933333,22.9355714 C82.6384946,24.7128571 81.961828,26.4822857 81.2773656,28.2485714 C80.868871,29.303 80.5227419,30.4014286 79.966129,31.3741429 C79.6839247,31.8644286 79.386129,32.2038571 79.5623118,32.8182857 C79.8055376,33.6621429 80.189086,34.4101429 81.0933871,34.5264286 C81.883871,34.6301429 82.7086559,34.4698571 83.1296237,33.6102857 C83.4180645,33.0178571 83.6940323,32.4175714 83.9279032,31.8031429 C84.2163441,31.0394286 84.3956452,30.2285714 84.7402151,29.4947143 C84.8945699,29.1647143 85.3061828,28.8032857 85.6476344,28.7482857 C86.8871505,28.5455714 88.1484946,28.4858571 89.3973656,28.3365714 C90.2361828,28.236 90.4887634,28.5848571 90.4435484,29.402 C90.3796237,30.5444286 90.4606989,31.668 91.6456452,32.3248571 C91.7937634,32.4081429 91.8904301,32.68 91.9153763,32.8764286 C92.0136022,33.6165714 92.5156452,33.461 92.9646774,33.3682857 C93.1315054,33.3352857 93.2811828,33.0712857 93.4215054,33.0838571 C94.9354301,33.2221429 94.9510215,31.9492857 95.3392473,31.0378571 C95.3875806,30.9231429 95.3298925,30.7392857 95.2722043,30.6088571 C94.9136022,29.7932857 94.5222581,28.9887143 94.187043,28.1621429 C94.1215591,28.0018571 94.2119892,27.7268571 94.3164516,27.5555714 C94.9977957,26.4225714 94.8418817,25.0931429 93.7052688,24.661 C92.6840323,24.2712857 92.6980645,23.5311429 92.4610753,22.7548571 C92.1180645,21.6297143 91.6082258,20.5548571 91.2589785,19.4312857 C91.0313441,18.7005714 90.9627419,17.9211429 90.8224194,17.1621429 C90.7678495,16.8227143 90.417043,16.4377143 90.4622581,16.1092857 C90.5869892,15.2025714 90.2564516,14.5802857 89.681129,13.9297143 C88.9420968,13.0905714 86.7826882,13.2697143 86.3586022,14.3178571 C85.9828495,15.2434286 85.7193548,16.2145714 85.3669892,17.1511429 C85.2562903,17.4481429 85.0177419,17.6964286 84.8088172,18.0107143 L84.8088172,18.0107143 Z M59.5554301,18.633 C60.0153763,18.875 60.3677419,19.0824286 60.7403763,19.249 C60.9804839,19.3558571 61.2580108,19.4894286 61.5027957,19.4627143 C62.9091398,19.3087143 64.3123656,19.1138571 65.7155914,18.9284286 C66.5091935,18.8247143 66.9332796,19.1798571 67.0470968,19.9592857 C67.3370968,21.9377143 67.7533871,23.9035714 67.9358065,25.8898571 C68.1244624,27.9547143 68.1057527,30.0368571 68.1618817,32.1127143 C68.1837097,32.9157143 68.0854839,33.6872857 68.7060215,34.4022857 C69.5027419,35.3215714 69.961129,35.5305714 71.2193548,35.1 C71.7401075,34.9224286 72.5181183,33.6417143 72.4666667,32.988 C72.3544086,31.5642857 72.2421505,30.1405714 72.0862366,28.7215714 C71.8851075,26.8845714 71.645,25.0507143 71.4189247,23.2168571 C71.2302688,21.6988571 71.0384946,20.1808571 70.8436022,18.6172857 C71.7962366,18.666 72.6256989,18.7367143 73.4567204,18.7398571 C74.0413978,18.7414286 74.6447849,18.5387143 75.2107527,18.6235714 C76.1197312,18.7587143 76.9803763,19.0242857 77.9486022,18.9661429 C78.8092473,18.9127143 79.340914,18.4915714 79.6589785,17.9038571 C79.9302688,17.3994286 80.5274194,16.8242857 79.8803763,16.0652857 C79.1865591,15.2512857 78.6954301,14.4404286 77.3265054,14.7122857 C76.016828,14.9715714 74.6245161,14.7735714 73.2711828,14.8364286 C71.8632796,14.9024286 70.4616129,15.0768571 69.0552688,15.135 C66.6947312,15.2292857 64.3326344,15.2764286 61.9705376,15.3298571 C60.2274194,15.3675714 59.3168817,16.4157143 59.5523118,18.138 C59.5772581,18.3234286 59.5554301,18.5135714 59.5554301,18.633 L59.5554301,18.633 Z M117.586613,16.2255714 C117.491505,16.7692857 117.299731,17.1841429 117.380806,17.5361429 C117.592849,18.4475714 117.95457,19.3244286 118.202473,20.2295714 C118.904086,22.7815714 119.56672,25.3445714 119.636882,28.0144286 C119.669624,29.2637143 119.710161,30.5051429 120.475699,31.5815714 C120.771935,31.998 122.284301,32.3028571 122.588333,31.9744286 C122.976559,31.558 123.37414,31.1447143 123.71871,30.6921429 C123.855914,30.513 123.938548,30.2207143 123.908925,29.996 C123.781075,29.0012857 123.618925,28.0097143 123.442742,27.0212857 C123.241613,25.893 122.978118,24.7757143 122.805054,23.6427143 C122.44957,21.3154286 121.945968,19.029 121.111828,16.8258571 C120.965269,16.4408571 120.720484,16.0935714 120.433602,15.5671429 C121.412742,15.3817143 122.287419,15.1947143 123.168333,15.0532857 C125.215484,14.7248571 127.228333,14.0978571 129.356559,14.5457143 C129.967742,14.6745714 130.716129,14.607 131.288333,14.3618571 C132.735215,13.7442857 132.919194,12.4761429 132.649462,11.0744286 C132.426505,10.988 132.130269,10.9628571 131.988387,10.7994286 C131.140215,9.822 130.137688,10.2258571 129.153871,10.4285714 C128.854516,10.4914286 128.559839,10.57 128.258925,10.614 C125.932688,10.9675714 123.600215,11.2865714 121.278656,11.6731429 C119.448226,11.9795714 117.639624,12.4415714 115.802957,12.6945714 C114.769247,12.836 113.727742,12.6207143 112.717419,13.2115714 C111.836505,13.727 111.314194,14.4875714 111.577688,15.4854286 C111.747634,16.1312857 113.351989,17.0521429 114.028656,16.9138571 C115.159032,16.6844286 116.294086,16.4754286 117.586613,16.2255714 L117.586613,16.2255714 Z M58.2909677,17.8111429 C57.7982796,17.1574286 57.4989247,16.3591429 56.9672581,16.1422857 C56.1144086,15.7965714 55.1103226,15.7447143 54.167043,15.729 C52.4519892,15.6991429 51.1142473,16.6891429 50.1039247,17.8897143 C48.9906989,19.2144286 48.4247312,20.888 48.1394086,22.6464286 C47.942957,23.8595714 49.3680108,26.8484286 50.4874731,27.3748571 C52.4613441,28.302 54.4320968,29.2354286 56.409086,30.15 C57.4677419,30.6402857 58.0305914,32.1912857 57.4864516,33.2111429 C57.4365591,33.307 57.3414516,33.3887143 57.2510215,33.4515714 C56.621129,33.8852857 56.0161828,34.3692857 55.3457527,34.7244286 C54.9076344,34.957 54.255914,35.2445714 53.9019892,35.0764286 C53.1956989,34.7385714 52.5424194,34.9632857 51.8813441,34.9727143 C51.511828,34.9774286 51.1095699,35.2257143 50.7837097,35.4535714 C49.8887634,36.0821429 50.0244086,37.0752857 49.9947849,37.6347143 C50.5732258,38.9641429 51.49,39.0254286 52.4738172,38.8997143 C52.9914516,38.8352857 53.5246774,38.8352857 54.022043,38.7001429 C55.1181183,38.4047143 56.2547312,38.1627143 57.2666129,37.6708571 C58.1943011,37.2214286 58.9769892,36.4702857 59.8282796,35.859 C61.0537634,34.9821429 61.7475806,32.9612857 61.4716129,31.4275714 C61.2564516,30.238 60.847957,29.2527143 60.0761828,28.2627143 C59.4634409,27.477 58.8881183,26.8342857 57.9916129,26.4791429 C56.6850538,25.9621429 55.3816129,25.4325714 54.0579032,24.9595714 C53.0241935,24.5887143 52.1136559,24.0575714 52.0185484,22.879 C51.9670968,22.2331429 52.2882796,21.5574286 52.4519892,20.8974286 C52.7263978,19.7801429 53.7944086,19.183 54.9341398,19.3951429 C55.3909677,19.48 55.9647312,19.4752857 56.3513978,19.2631429 C57.0467742,18.8812857 57.6408065,18.3124286 58.2909677,17.8111429 L58.2909677,17.8111429 Z" id="Fill-3" fill="#FFFFFF" sketch:type="MSShapeGroup"></path>
            <path d="M17.326129,34.5578571 C17.4836022,36.0067143 17.6504301,37.2858571 17.7502151,38.5697143 C17.8047849,39.2705714 18.1072581,40.0311429 17.3775806,40.6345714 C17.2185484,40.7665714 17.27,41.1594286 17.2154301,41.4957143 C16.6058065,41.5617143 15.943172,41.7848571 15.3475806,41.6685714 C14.0394624,41.4124286 13.4267204,40.006 13.6387634,38.6247143 C13.8024731,37.5561429 13.6652688,36.4388571 13.6418817,35.3435714 C13.6309677,34.8737143 13.4844086,34.3928571 13.5452151,33.9371429 C13.8211828,31.8848571 13.3908602,29.8797143 13.188172,27.862 C12.9714516,25.695 12.6814516,23.5358571 12.4304301,21.372 C12.4210753,21.2934286 12.5536022,21.1614286 12.5270968,21.1284286 C11.9954301,20.4432857 11.7132258,19.8021429 12.6175269,19.161 C13.2474194,18.7147143 13.7634946,18.0531429 14.4432796,17.7435714 C15.731129,17.1574286 17.0704301,16.5901429 18.4471505,16.323 C19.7053763,16.0778571 20.8825269,16.532 21.7977419,17.6162857 C22.4151613,18.3485714 23.2680108,18.875 23.9665054,19.546 C25.0282796,20.5627143 25.3167204,22.516 24.7912903,23.924 C24.2783333,25.2974286 23.918172,26.729 23.4254839,28.1118571 C23.1682258,28.8331429 22.78,29.5072857 22.433871,30.194 C22.1236022,30.8084286 21.7899462,31.4118571 21.4360215,32.0765714 C22.2405376,32.5055714 22.9062903,32.9031429 23.6079032,33.2252857 C24.675914,33.7171429 25.2278495,34.7511429 26.037043,35.4614286 C27.0458065,36.3445714 27.1097312,37.4822857 27.6226882,38.4864286 C28.1138172,39.4465714 27.8378495,41.2238571 26.9678495,41.8052857 C26.4408602,42.1572857 25.6955914,42.195 25.0376344,42.3254286 C24.7273656,42.3867143 24.3937097,42.3348571 24.1224194,42.3348571 C24.0210753,41.8854286 23.9337634,41.4328571 23.8183871,40.9881429 C23.5361828,39.9007143 23.3350538,38.7771429 22.9078495,37.7494286 C22.7036022,37.2591429 22.1033333,36.8757143 21.6012903,36.585 C20.6315054,36.0208571 19.6102688,35.5478571 18.6015054,35.0544286 C18.2553763,34.8862857 17.8827419,34.7731429 17.326129,34.5578571 L17.326129,34.5578571 Z M17.425914,30.0651429 C17.5568817,30.0934286 17.6878495,30.1217143 17.8203763,30.1515714 C18.3380108,29.5717143 19.0302688,29.0735714 19.3405376,28.3978571 C20.113871,26.7164286 20.7780645,24.9752857 21.340914,23.2105714 C21.5124194,22.67 21.6527419,21.8685714 20.7422043,21.4741429 C20.2744624,21.2698571 19.9408065,20.745 19.5525806,20.36 C18.7465054,19.5632857 18.0651613,19.568 16.6198387,20.4574286 C15.8667742,20.921 16.0850538,21.6957143 16.1598925,22.373 C16.2347312,23.0628571 16.4327419,23.737 16.534086,24.4252857 C16.767957,25.992 16.969086,27.565 17.1982796,29.1332857 C17.2434946,29.4475714 17.347957,29.754 17.425914,30.0651429 L17.425914,30.0651429 Z" id="Fill-4" fill="#000000" sketch:type="MSShapeGroup"></path>
            <path d="M103.549677,27.3968571 C103.633871,28.357 103.72586,29.3972857 103.827204,30.5695714 C103.67129,30.6968571 103.247204,30.9482857 102.947849,31.305 C101.939086,32.504 100.885108,32.4741429 99.9698925,31.2028571 C99.6643011,30.777 99.1591398,30.4548571 99.5567204,29.809 C99.5863441,29.7618571 99.2979032,29.5135714 99.3431183,29.5638571 C99.4382258,28.7074286 99.640914,27.9877143 99.5723118,27.2947143 C99.3633871,25.1387143 99.071828,22.989 98.7693548,20.8424286 C98.6025269,19.6607143 98.3452688,18.4915714 98.1425806,17.3145714 C98.1254301,17.2124286 98.2002688,17.0867143 98.247043,16.9798571 C98.5635484,16.2617143 99.2043548,15.6975714 99.0234946,14.739 C98.972043,14.4718571 99.5941398,13.991 99.9886022,13.738 C100.997366,13.0921429 102.012366,12.4337143 103.094409,11.934 C105.001237,11.0555714 106.962634,10.7695714 108.741613,12.2294286 C109.962419,13.232 110.938441,14.4765714 110.972742,16.158 C110.985215,16.7692857 111.141129,17.5047143 110.520591,18.0217143 C110.381828,18.138 110.367796,18.4145714 110.308548,18.6188571 C109.606935,21.0058571 108.450054,22.9795714 105.858763,23.6804286 C105.75586,23.7087143 105.679462,23.8391429 105.492366,24.0135714 C106.310914,24.5981429 107.073333,25.1811429 107.874731,25.7044286 C109.259247,26.6111429 110.70457,27.4282857 112.043871,28.3962857 C112.513172,28.7357143 112.790699,29.3831429 113.069785,29.9362857 C113.422151,30.6355714 113.737097,31.3647143 113.977204,32.1095714 C114.298387,33.109 112.842151,34.6254286 111.785054,34.3755714 C111.15828,34.2278571 110.545538,33.9512857 109.982688,33.6307143 C109.750376,33.4987143 109.566398,33.1137143 109.528978,32.8214286 C109.318495,31.1651429 108.351828,30.1735714 106.923656,29.4475714 C105.79172,28.8724286 104.742419,28.1307143 103.549677,27.3968571 L103.549677,27.3968571 Z M102.576774,21.3484286 C102.980591,21.2698571 103.253441,21.2384286 103.513817,21.163 C104.483602,20.8817143 105.478333,20.6224286 105.930484,19.5554286 C106.261022,18.7728571 106.611828,17.995 106.865968,17.1872857 C106.979785,16.8242857 107.045269,16.1972857 106.847258,16.0275714 C106.298441,15.5577143 105.746505,14.8112857 104.860914,15.168 C104.199839,15.4335714 103.52629,15.7572857 102.98371,16.2114286 C102.512849,16.6058571 101.892312,17.2297143 101.911022,17.731 C101.956237,18.9504286 102.335108,20.1557143 102.576774,21.3484286 L102.576774,21.3484286 Z" id="Fill-5" fill="#000000" sketch:type="MSShapeGroup"></path>
            <path d="M43.0004839,39.368 C42.8133871,39.3035714 42.510914,39.1165714 42.2006452,39.104 C40.0318817,39.0175714 37.8631183,38.961 35.6943548,38.9044286 C34.9116667,38.884 34.09,39.0317143 33.3603226,38.829 C32.8707527,38.6922857 32.2860753,38.1438571 32.1426344,37.6598571 C31.8463978,36.662 31.8043011,35.5871429 31.681129,34.5405714 C31.4597312,32.6564286 31.2383333,30.7722857 31.0512366,28.885 C30.9405376,27.7504286 30.9296237,26.6064286 30.811129,25.4734286 C30.6645699,24.0952857 30.4338172,22.7265714 30.2763441,21.3484286 C30.2015054,20.6962857 30.2295699,20.0331429 30.1703226,19.3778571 C30.1344624,18.9865714 30.0643011,18.5858571 29.9286559,18.2181429 C29.5263978,17.1291429 29.8553763,16.2538571 30.8688172,15.6991429 C31.0948925,15.575 31.2773118,15.3722857 31.5345699,15.1585714 C33.6690323,15.9505714 35.9048387,16.0307143 38.2154839,15.564 C39.6124731,15.2827143 40.9065591,15.9112857 41.6954839,17.0317143 C41.9496237,17.3931429 41.4912366,18.4758571 41.0858602,19.0227143 C40.827043,19.37 40.0693011,19.4454286 39.5313978,19.4611429 C37.7633333,19.513 35.9921505,19.48 34.0369892,19.48 C34.2303226,21.262 34.4143011,22.9575714 34.6279032,24.925 C35.5602688,24.8291429 36.565914,24.771 37.5575269,24.6122857 C38.7798925,24.4174286 39.8915591,24.5462857 40.7428495,25.53 C40.9361828,25.7531429 41.1108065,26.234 41.0016667,26.4398571 C40.6430645,27.1218571 40.480914,28.0521429 39.4908602,28.1668571 C38.6691935,28.2627143 37.8397312,28.2925714 37.0165054,28.3774286 C36.7530108,28.4041429 36.4941935,28.4968571 36.2416129,28.5817143 C35.907957,28.6948571 35.5820968,28.8315714 35.1533333,28.9965714 C35.2687097,30.5711429 35.384086,32.2777143 35.5337634,33.9811429 C35.550914,34.1744286 35.7442473,34.4745714 35.9032796,34.5091429 C36.7374194,34.6961429 37.5824731,34.8485714 38.4322043,34.9444286 C39.320914,35.045 40.2189785,35.1141429 41.1123656,35.1125714 C42.0026344,35.111 42.8929032,34.9884286 43.7847312,34.9491429 C44.3662903,34.924 45.8178495,36.2062857 45.8958065,36.7767143 C45.9877957,37.4335714 44.8558602,38.8258571 44.2259677,38.917 C43.8580108,38.9704286 43.5118817,39.1731429 43.0004839,39.368" id="Fill-6" fill="#000000" sketch:type="MSShapeGroup"></path>
            <path d="M84.8088172,18.0107143 C85.0177419,17.6964286 85.2562903,17.4481429 85.3669892,17.1511429 C85.7193548,16.2145714 85.9828495,15.2434286 86.3586022,14.3178571 C86.7826882,13.2697143 88.9420968,13.0905714 89.681129,13.9297143 C90.2564516,14.5802857 90.5869892,15.2025714 90.4622581,16.1092857 C90.417043,16.4377143 90.7678495,16.8227143 90.8224194,17.1621429 C90.9627419,17.9211429 91.0313441,18.7005714 91.2589785,19.4312857 C91.6082258,20.5548571 92.1180645,21.6297143 92.4610753,22.7548571 C92.6980645,23.5311429 92.6840323,24.2712857 93.7052688,24.661 C94.8418817,25.0931429 94.9977957,26.4225714 94.3164516,27.5555714 C94.2119892,27.7268571 94.1215591,28.0018571 94.187043,28.1621429 C94.5222581,28.9887143 94.9136022,29.7932857 95.2722043,30.6088571 C95.3298925,30.7392857 95.3875806,30.9231429 95.3392473,31.0378571 C94.9510215,31.9492857 94.9354301,33.2221429 93.4215054,33.0838571 C93.2811828,33.0712857 93.1315054,33.3352857 92.9646774,33.3682857 C92.5156452,33.461 92.0136022,33.6165714 91.9153763,32.8764286 C91.8904301,32.68 91.7937634,32.4081429 91.6456452,32.3248571 C90.4606989,31.668 90.3796237,30.5444286 90.4435484,29.402 C90.4887634,28.5848571 90.2361828,28.236 89.3973656,28.3365714 C88.1484946,28.4858571 86.8871505,28.5455714 85.6476344,28.7482857 C85.3061828,28.8032857 84.8945699,29.1647143 84.7402151,29.4947143 C84.3956452,30.2285714 84.2163441,31.0394286 83.9279032,31.8031429 C83.6940323,32.4175714 83.4180645,33.0178571 83.1296237,33.6102857 C82.7086559,34.4698571 81.883871,34.6301429 81.0933871,34.5264286 C80.189086,34.4101429 79.8055376,33.6621429 79.5623118,32.8182857 C79.386129,32.2038571 79.6839247,31.8644286 79.966129,31.3741429 C80.5227419,30.4014286 80.868871,29.303 81.2773656,28.2485714 C81.961828,26.4822857 82.6384946,24.7128571 83.2933333,22.9355714 C83.7797849,21.6155714 84.2428495,20.2861429 84.684086,18.9504286 C84.7932258,18.622 84.7791935,18.2527143 84.8088172,18.0107143 L84.8088172,18.0107143 Z M88.967043,24.3247143 C88.5944086,23.1712857 88.2404839,22.0728571 87.8195161,20.7685714 C87.3393011,22.1341429 86.947957,23.2467143 86.491129,24.5431429 C87.3751613,24.4645714 88.1313441,24.3985714 88.967043,24.3247143 L88.967043,24.3247143 Z" id="Fill-7" fill="#000000" sketch:type="MSShapeGroup"></path>
            <path d="M59.5554301,18.633 C59.5554301,18.5135714 59.5772581,18.3234286 59.5523118,18.138 C59.3168817,16.4157143 60.2274194,15.3675714 61.9705376,15.3298571 C64.3326344,15.2764286 66.6947312,15.2292857 69.0552688,15.135 C70.4616129,15.0768571 71.8632796,14.9024286 73.2711828,14.8364286 C74.6245161,14.7735714 76.016828,14.9715714 77.3265054,14.7122857 C78.6954301,14.4404286 79.1865591,15.2512857 79.8803763,16.0652857 C80.5274194,16.8242857 79.9302688,17.3994286 79.6589785,17.9038571 C79.340914,18.4915714 78.8092473,18.9127143 77.9486022,18.9661429 C76.9803763,19.0242857 76.1197312,18.7587143 75.2107527,18.6235714 C74.6447849,18.5387143 74.0413978,18.7414286 73.4567204,18.7398571 C72.6256989,18.7367143 71.7962366,18.666 70.8436022,18.6172857 C71.0384946,20.1808571 71.2302688,21.6988571 71.4189247,23.2168571 C71.645,25.0507143 71.8851075,26.8845714 72.0862366,28.7215714 C72.2421505,30.1405714 72.3544086,31.5642857 72.4666667,32.988 C72.5181183,33.6417143 71.7401075,34.9224286 71.2193548,35.1 C69.961129,35.5305714 69.5027419,35.3215714 68.7060215,34.4022857 C68.0854839,33.6872857 68.1837097,32.9157143 68.1618817,32.1127143 C68.1057527,30.0368571 68.1244624,27.9547143 67.9358065,25.8898571 C67.7533871,23.9035714 67.3370968,21.9377143 67.0470968,19.9592857 C66.9332796,19.1798571 66.5091935,18.8247143 65.7155914,18.9284286 C64.3123656,19.1138571 62.9091398,19.3087143 61.5027957,19.4627143 C61.2580108,19.4894286 60.9804839,19.3558571 60.7403763,19.249 C60.3677419,19.0824286 60.0153763,18.875 59.5554301,18.633" id="Fill-8" fill="#000000" sketch:type="MSShapeGroup"></path>
            <path d="M117.586613,16.2255714 C116.294086,16.4754286 115.159032,16.6844286 114.028656,16.9138571 C113.351989,17.0521429 111.747634,16.1312857 111.577688,15.4854286 C111.314194,14.4875714 111.836505,13.727 112.717419,13.2115714 C113.727742,12.6207143 114.769247,12.836 115.802957,12.6945714 C117.639624,12.4415714 119.448226,11.9795714 121.278656,11.6731429 C123.600215,11.2865714 125.932688,10.9675714 128.258925,10.614 C128.559839,10.57 128.854516,10.4914286 129.153871,10.4285714 C130.137688,10.2258571 131.140215,9.822 131.988387,10.7994286 C132.130269,10.9628571 132.426505,10.988 132.649462,11.0744286 C132.919194,12.4761429 132.735215,13.7442857 131.288333,14.3618571 C130.716129,14.607 129.967742,14.6745714 129.356559,14.5457143 C127.228333,14.0978571 125.215484,14.7248571 123.168333,15.0532857 C122.287419,15.1947143 121.412742,15.3817143 120.433602,15.5671429 C120.720484,16.0935714 120.965269,16.4408571 121.111828,16.8258571 C121.945968,19.029 122.44957,21.3154286 122.805054,23.6427143 C122.978118,24.7757143 123.241613,25.893 123.442742,27.0212857 C123.618925,28.0097143 123.781075,29.0012857 123.908925,29.996 C123.938548,30.2207143 123.855914,30.513 123.71871,30.6921429 C123.37414,31.1447143 122.976559,31.558 122.588333,31.9744286 C122.284301,32.3028571 120.771935,31.998 120.475699,31.5815714 C119.710161,30.5051429 119.669624,29.2637143 119.636882,28.0144286 C119.56672,25.3445714 118.904086,22.7815714 118.202473,20.2295714 C117.95457,19.3244286 117.592849,18.4475714 117.380806,17.5361429 C117.299731,17.1841429 117.491505,16.7692857 117.586613,16.2255714" id="Fill-9" fill="#000000" sketch:type="MSShapeGroup"></path>
            <path d="M58.2909677,17.8111429 C57.6408065,18.3124286 57.0467742,18.8812857 56.3513978,19.2631429 C55.9647312,19.4752857 55.3909677,19.48 54.9341398,19.3951429 C53.7944086,19.183 52.7263978,19.7801429 52.4519892,20.8974286 C52.2882796,21.5574286 51.9670968,22.2331429 52.0185484,22.879 C52.1136559,24.0575714 53.0241935,24.5887143 54.0579032,24.9595714 C55.3816129,25.4325714 56.6850538,25.9621429 57.9916129,26.4791429 C58.8881183,26.8342857 59.4634409,27.477 60.0761828,28.2627143 C60.847957,29.2527143 61.2564516,30.238 61.4716129,31.4275714 C61.7475806,32.9612857 61.0537634,34.9821429 59.8282796,35.859 C58.9769892,36.4702857 58.1943011,37.2214286 57.2666129,37.6708571 C56.2547312,38.1627143 55.1181183,38.4047143 54.022043,38.7001429 C53.5246774,38.8352857 52.9914516,38.8352857 52.4738172,38.8997143 C51.49,39.0254286 50.5732258,38.9641429 49.9947849,37.6347143 C50.0244086,37.0752857 49.8887634,36.0821429 50.7837097,35.4535714 C51.1095699,35.2257143 51.511828,34.9774286 51.8813441,34.9727143 C52.5424194,34.9632857 53.1956989,34.7385714 53.9019892,35.0764286 C54.255914,35.2445714 54.9076344,34.957 55.3457527,34.7244286 C56.0161828,34.3692857 56.621129,33.8852857 57.2510215,33.4515714 C57.3414516,33.3887143 57.4365591,33.307 57.4864516,33.2111429 C58.0305914,32.1912857 57.4677419,30.6402857 56.409086,30.15 C54.4320968,29.2354286 52.4613441,28.302 50.4874731,27.3748571 C49.3680108,26.8484286 47.942957,23.8595714 48.1394086,22.6464286 C48.4247312,20.888 48.9906989,19.2144286 50.1039247,17.8897143 C51.1142473,16.6891429 52.4519892,15.6991429 54.167043,15.729 C55.1103226,15.7447143 56.1144086,15.7965714 56.9672581,16.1422857 C57.4989247,16.3591429 57.7982796,17.1574286 58.2909677,17.8111429" id="Fill-10" fill="#000000" sketch:type="MSShapeGroup"></path>
            <path d="M17.425914,30.0651429 C17.347957,29.754 17.2434946,29.4475714 17.1982796,29.1332857 C16.969086,27.565 16.767957,25.992 16.534086,24.4252857 C16.4327419,23.737 16.2347312,23.0628571 16.1598925,22.373 C16.0850538,21.6957143 15.8667742,20.921 16.6198387,20.4574286 C18.0651613,19.568 18.7465054,19.5632857 19.5525806,20.36 C19.9408065,20.745 20.2744624,21.2698571 20.7422043,21.4741429 C21.6527419,21.8685714 21.5124194,22.67 21.340914,23.2105714 C20.7780645,24.9752857 20.113871,26.7164286 19.3405376,28.3978571 C19.0302688,29.0735714 18.3380108,29.5717143 17.8203763,30.1515714 C17.6878495,30.1217143 17.5568817,30.0934286 17.425914,30.0651429" id="Fill-11" fill="#FFFFFF" sketch:type="MSShapeGroup"></path>
            <path d="M102.576774,21.3484286 C102.335108,20.1557143 101.956237,18.9504286 101.911022,17.731 C101.892312,17.2297143 102.512849,16.6058571 102.98371,16.2114286 C103.52629,15.7572857 104.199839,15.4335714 104.860914,15.168 C105.746505,14.8112857 106.298441,15.5577143 106.847258,16.0275714 C107.045269,16.1972857 106.979785,16.8242857 106.865968,17.1872857 C106.611828,17.995 106.261022,18.7728571 105.930484,19.5554286 C105.478333,20.6224286 104.483602,20.8817143 103.513817,21.163 C103.253441,21.2384286 102.980591,21.2698571 102.576774,21.3484286" id="Fill-12" fill="#FFFFFF" sketch:type="MSShapeGroup"></path>
            <path d="M88.967043,24.3247143 C88.1313441,24.3985714 87.3751613,24.4645714 86.491129,24.5431429 C86.947957,23.2467143 87.3393011,22.1341429 87.8195161,20.7685714 C88.2404839,22.0728571 88.5944086,23.1712857 88.967043,24.3247143" id="Fill-13" fill="#FFFFFF" sketch:type="MSShapeGroup"></path>
        </g>
    </g>
</svg>