<svg width="144" height="48" viewBox="0 0 144 48" xmlns="http://www.w3.org/2000/svg" xmlns:sketch="http://www.bohemiancoding.com/sketch/ns"><title>restart</title><desc>Created with Sketch.</desc><g sketch:type="MSLayerGroup" fill="none"><path d="M16.526 45.814c-.463-.163-.93-.472-1.389-.464-1.71.031-3.418.173-5.127.257-.373.018-.764.039-1.119-.054-1.134-.297-2.185.007-3.251.338-.281.086-.763.132-.892-.023-.438-.528-.853.247-1.363-.096-.41-.276-1.116-.108-1.569-.132-.326-.694-.636-1.335-.929-1.983-.06-.134-.109-.305-.079-.44.479-2.187.642-4.404.656-6.635.015-2.173.04-4.347-.006-6.52-.043-2.052-.158-4.102-.275-6.152-.074-1.274-.264-2.542-.295-3.815-.018-.734.269-1.475.26-2.209-.024-2.235-.113-4.468-.215-6.701-.01-.249-.268-.488-.442-.783.993-.948.344-1.756-.235-2.44.385-.589.634-1.296 1.13-1.633.444-.303 1.16-.201 1.77-.279 1.012-1.627 2.562-2.258 4.47-2.311 1.059-.03 2.11-.309 3.17-.361 1.48-.074 2.967-.017 4.448-.06 1.4-.042 2.799-.152 4.198-.21.396-.016.796.038 1.192.075 1.222.111 2.442.277 3.667.329 1.265.053 2.535.02 3.803-.021.948-.031 1.899-.232 2.839-.178 1.165.065 2.324.48 3.479.455 2.38-.054 4.757-.291 7.134-.468 2.016-.15 4.031-.327 6.046-.485 1.894-.15 3.786-.33 5.684-.425 1.329-.066 2.664 0 3.996-.012 2.916-.028 5.809-.2 8.713-.618 2.423-.349 4.921-.177 7.385-.252 1.414-.043 2.829-.1 4.241-.185 1.996-.121 3.987-.295 5.983-.408 3.036-.173 6.073-.34 9.11-.459 1.415-.054 2.85-.121 4.248.053 2.07.256 4.13-.128 6.219.188 1.777.269 3.647-.097 5.476-.148 1.298-.035 2.599-.063 3.896-.01 2.869.116 5.737.286 8.605.437 4.141.219 8.281.434 12.421.662.911.051 1.856.013 2.72.256 1.238.349 2.462.832 3.595 1.439.465.248.754.936.994 1.483.5 1.139 1.184 2.103 2.003 3.045.485.557.619 1.587.598 2.395-.062 2.426-.28 4.848-.429 7.272-.077 1.276-.186 2.555-.19 3.831-.004 1.424.224 2.859.115 4.272-.161 2.074-.503 4.136-.825 6.194-.22 1.399-.545 2.781-.811 4.173-.176.921-.349 1.842-.485 2.77-.032.223.007.561.152.689.427.381.393.677.037 1.083-.139.158-.192.481-.147.701.137.662.188 1.285-.509 1.648-.549.286-1.117.567-1.709.731-1.534.425-3.046-.14-4.564-.171-2.753-.06-5.514.162-8.271.265-2.354.09-4.709.177-7.061.279-.177.007-.461.096-.506.218-.409 1.098-1.322 1.244-2.286 1.257-2.186.028-4.374.056-6.561.024-.826-.013-1.649-.301-2.469-.281-3.472.088-6.943.248-10.413.376-1.541.057-3.097-.01-4.624.17-2.433.287-4.846.088-7.267-.023-2.191-.101-4.358.079-6.487.616-.364.091-.773.353-.976.661-.351.533-.759.771-1.374.719-1.157-.1-2.314-.194-3.471-.28-1.615-.12-3.231-.215-4.845-.351-2.312-.196-4.619-.527-6.936-.608-3.743-.132-7.49-.125-11.236-.139-1.255-.006-2.512.171-3.765.144-.657-.014-1.306-.41-1.963-.42-1.607-.025-3.219.064-4.829.12-2.037.072-4.077.136-6.113.242-1.005.052-2.005.196-3.008.29-.237.022-.585.113-.696-.006-1.271-1.355-2.938-.723-4.419-.861-1.428-.133-2.888.059-4.333.107l-3.759.113.072-.265zm-11.31-3.679c.807.042 1.428.148 2.035.093l5.632-.601c1.222-.111 2.455-.113 3.679-.199.977-.067 1.955-.27 2.851.339.327.223.668.573 1.019.593 1.551.09 3.106.094 4.661.101.923.006 1.847-.079 2.769-.053 1.824.054 3.648.212 5.473.228 3.121.029 6.241-.04 9.361-.023 1.312.007 2.625.189 3.936.178 1.698-.012 3.408-.386 5.073.27.104.042.243-.017.366-.016 1.47.028 2.939.033 4.407.096l2.008.248c2.324.091 4.65.137 6.975.212 1.054.034 2.109.165 3.16.135 1.539-.044 3.075-.18 4.612-.303 2.53-.2 5.061-.38 7.584-.649 1.145-.123 2.261-.498 3.404-.649 1.604-.214 3.222-.323 4.834-.48 1.766-.173 3.53-.361 5.296-.516 1.48-.129 2.961-.263 4.443-.317 1.394-.049 2.792-.028 4.186.021 2.097.076 4.191.295 6.285.288 2.948-.01 5.896-.151 8.84-.28 1.343-.058 2.683-.186 4.019-.337 1.318-.15 2.625-.477 3.945-.531 2.539-.104 5.085-.082 7.627-.083.462 0 .927.133 1.39.217.452.08 1.167.391 1.303.224.349-.435.573-1.074.604-1.643.032-.59-.526-1.425-.287-1.748.559-.753.071-1.449.222-2.139.043-.195.109-.385.175-.573.153-.447.414-.882.454-1.338.241-2.802.426-5.61.647-8.415.047-.596.18-1.185.254-1.78.136-1.111.339-2.224.356-3.337.014-.925-.252-1.852-.297-2.783-.067-1.389.015-2.785-.084-4.171-.096-1.31-.258-2.63-.557-3.906-.212-.905-.444-2.024-1.445-2.339-.914-.287-1.946-.293-2.921-.258-.865.032-1.927.087-2.269-.611-.357-.724-.868-.757-1.338-.794-1.61-.126-3.231-.165-4.846-.161-1.526.006-3.052.12-4.577.165-1.048.03-2.236.346-3.115-.038-1.683-.735-3.381-.447-5.051-.499-2.127-.065-4.263.277-6.399.334-.707.018-1.424-.436-2.137-.436-2.447-.001-4.896.079-7.342.178-.787.031-1.637.06-2.334.371-.814.364-1.316.117-1.836-.406-.728-.737-2.658-.634-3.237.234-.5.747-1.185.864-1.968.781-2.049-.218-4.092-.544-6.145-.638-1.508-.071-3.03.179-4.547.247-2.306.102-4.615.122-6.919.268-1.885.119-3.759.436-5.645.544-1.573.091-3.104 1.162-4.726.231-.071-.041-.186-.022-.278-.008-2.786.412-5.567.855-8.358 1.222-.642.085-1.309.212-1.944-.369-.455-.416-1.013-.97-1.814-.745-1.469.413-3.128.058-4.441 1.132-.142.117-.402.103-.61.116-2.416.145-4.832.295-7.251.41-.294.013-.602-.162-.898-.27-.357-.13-.699-.381-1.06-.406-.671-.046-1.35.043-2.027.06-3.866.093-7.734.147-11.597.29-2.102.078-4.196.325-6.295.469-1.287.089-2.577.144-3.867.178-.441.012-.894-.172-1.327-.126-.826.089-1.64.28-2.508.438.06 1.42.141 2.986.193 4.551.047 1.46.667 2.846.445 4.352-.187 1.284-.213 2.592-.296 3.892-.029.468-.181 1.022.004 1.39.466.918.367 1.858.352 2.808-.004.264-.034.529-.026.794.074 2.324.529 4.622.364 6.967-.108 1.504-.057 3.019-.058 4.53-.001.29.163.591.12.867-.199 1.279-.443 2.549-.688 3.909z" fill="#000" sketch:type="MSShapeGroup"/><path d="M5.216 42.136c.244-1.36.488-2.63.688-3.909.042-.276-.121-.578-.12-.867.001-1.511-.05-3.026.058-4.53.166-2.345-.289-4.643-.364-6.967-.008-.265.021-.529.026-.794.015-.95.114-1.889-.352-2.808-.185-.369-.033-.923-.004-1.39.083-1.299.109-2.607.296-3.892.222-1.506-.398-2.892-.445-4.352-.051-1.566-.132-3.131-.193-4.551.867-.158 1.681-.349 2.508-.438.433-.047.886.137 1.327.126 1.29-.034 2.58-.089 3.867-.178 2.099-.144 4.193-.391 6.295-.469 3.864-.144 7.732-.197 11.597-.29.677-.017 1.356-.106 2.027-.06.361.025.703.276 1.06.406.296.108.604.283.898.27 2.419-.115 4.835-.265 7.251-.41.208-.013.468.001.61-.116 1.313-1.074 2.972-.719 4.441-1.132.8-.226 1.359.329 1.814.745.635.581 1.302.453 1.944.369 2.791-.368 5.573-.81 8.358-1.222.091-.014.206-.033.278.008 1.621.931 3.153-.14 4.726-.231 1.886-.108 3.759-.425 5.645-.544 2.303-.146 4.613-.166 6.919-.268 1.517-.067 3.039-.317 4.547-.247 2.054.094 4.097.419 6.145.638.783.083 1.468-.034 1.968-.781.579-.869 2.509-.971 3.237-.234.519.523 1.022.769 1.836.406.697-.312 1.547-.34 2.334-.371 2.446-.099 4.895-.18 7.342-.178.714-.001 1.43.454 2.137.436 2.136-.057 4.272-.399 6.399-.334 1.67.052 3.369-.236 5.051.499.88.384 2.067.068 3.115.038 1.525-.045 3.051-.159 4.577-.165 1.615-.004 3.236.035 4.846.161.47.037.98.07 1.338.794.342.698 1.403.643 2.269.611.975-.036 2.007-.029 2.921.258 1 .315 1.233 1.434 1.445 2.339.299 1.276.461 2.596.557 3.906.1 1.386.018 2.782.084 4.171.045.931.311 1.858.297 2.783-.017 1.114-.221 2.227-.356 3.337-.073.594-.207 1.184-.254 1.78-.221 2.805-.406 5.613-.647 8.415-.039.456-.301.891-.454 1.338-.066.189-.132.379-.175.573-.151.689.337 1.385-.222 2.139-.239.323.319 1.158.287 1.748-.031.57-.255 1.208-.604 1.643-.137.168-.852-.143-1.303-.224-.463-.084-.927-.217-1.39-.217-2.543.001-5.089-.021-7.627.083-1.319.054-2.626.381-3.945.531-1.335.151-2.676.279-4.019.337-2.944.129-5.893.269-8.84.28-2.095.007-4.189-.212-6.285-.288-1.394-.049-2.792-.07-4.186-.021-1.482.054-2.963.187-4.443.317-1.767.155-3.53.344-5.296.516-1.612.157-3.23.266-4.834.48-1.143.151-2.259.526-3.404.649-2.522.269-5.054.448-7.584.649-1.537.123-3.073.259-4.612.303-1.051.03-2.106-.1-3.16-.135-2.325-.075-4.651-.121-6.975-.212l-2.008-.248c-1.468-.062-2.937-.068-4.407-.096-.123-.002-.262.057-.366.016-1.665-.656-3.374-.283-5.073-.27-1.311.01-2.624-.171-3.936-.178-3.12-.018-6.241.051-9.361.023-1.825-.016-3.649-.174-5.473-.228-.922-.026-1.846.058-2.769.053-1.555-.007-3.111-.011-4.661-.101-.35-.02-.691-.37-1.019-.593-.896-.609-1.875-.406-2.851-.339-1.224.086-2.457.088-3.679.199l-5.632.601c-.607.055-1.228-.051-2.035-.093zm11.692-12.405c.545.244.911.376 1.248.562.982.545 1.978 1.071 2.917 1.685.486.317 1.066.731 1.245 1.231.373 1.049.516 2.182.741 3.283.092.45.156.907.234 1.361.271.014.602.083.915.038.664-.096 1.411-.095 1.955-.419.899-.536 1.267-2.297.827-3.281-.46-1.03-.465-2.17-1.427-3.104-.771-.752-1.269-1.813-2.31-2.36-.684-.358-1.329-.79-2.11-1.261.388-.646.753-1.231 1.095-1.829.381-.668.804-1.321 1.099-2.028.564-1.356.998-2.767 1.582-4.113.598-1.379.412-3.346-.596-4.417-.663-.707-1.488-1.277-2.066-2.041-.858-1.131-2.01-1.646-3.28-1.466-1.389.195-2.757.692-4.074 1.211-.695.274-1.245.908-1.898 1.321-.937.593-.688 1.249-.193 1.961l-.109.238c.138 2.175.316 4.347.42 6.523.098 2.026.423 4.052.041 6.088-.084.452.037.94.023 1.41-.034 1.095.045 2.219-.174 3.278-.284 1.369.255 2.806 1.549 3.13.589.147 1.263-.041 1.875-.076.072-.333.041-.728.207-.852.76-.565.498-1.34.48-2.043-.033-1.288-.133-2.574-.215-4.03zm86.51-2.67c1.153.795 2.163 1.591 3.264 2.224 1.389.8 2.303 1.84 2.427 3.506.022.294.186.688.411.832.546.35 1.143.658 1.762.838 1.043.305 2.577-1.135 2.308-2.15-.201-.757-.478-1.501-.794-2.218-.25-.567-.494-1.228-.945-1.592-1.288-1.037-2.689-1.928-4.025-2.906-.773-.564-1.505-1.186-2.292-1.813.196-.165.279-.291.383-.314 2.625-.565 3.884-2.477 4.709-4.825.07-.201.098-.477.243-.586.647-.484.529-1.227.549-1.838.053-1.682-.857-2.976-2.025-4.041-1.701-1.551-3.676-1.367-5.626-.589-1.107.443-2.155 1.048-3.197 1.641-.407.232-1.054.68-1.016.95.131.967-.539 1.497-.892 2.198-.052.104-.134.226-.122.329.141 1.186.337 2.368.443 3.557.191 2.16.37 4.323.467 6.488.032.696-.207 1.404-.347 2.255-.043-.053.233.21.201.256-.431.625.057.973.34 1.414.848 1.318 1.9 1.402 2.97.257.318-.341.754-.57.917-.689l-.112-3.184zm-61.111 8.811c.521-.168.877-.353 1.248-.387.634-.058 1.837-1.39 1.779-2.051-.048-.574-1.432-1.93-2.014-1.936-.893-.007-1.789.069-2.678.024-.893-.045-1.786-.161-2.669-.307-.844-.14-1.68-.336-2.504-.566-.157-.043-.335-.353-.342-.547-.061-1.71-.087-3.42-.121-4.999.437-.143.77-.262 1.109-.358.257-.072.52-.151.785-.164.827-.042 1.657-.029 2.483-.082.995-.063 1.205-.984 1.599-1.647.12-.2-.03-.689-.211-.922-.799-1.027-1.903-1.214-3.134-1.082-.999.107-2.007.113-2.943.16l-.307-5.47c1.953.102 3.721.227 5.49.267.538.012 1.299-.024 1.576-.357.433-.525.948-1.583.713-1.957-.73-1.16-1.99-1.856-3.4-1.647-2.333.346-4.562.15-6.653-.752-.268.2-.461.393-.693.505-1.041.501-1.415 1.359-1.07 2.468.116.374.166.778.181 1.171.025.658-.037 1.319.003 1.974.086 1.385.245 2.764.32 4.149.059 1.138.011 2.281.062 3.421.089 1.895.212 3.789.335 5.683.069 1.052.055 2.128.299 3.14.118.491.674 1.069 1.156 1.231.718.24 1.547.136 2.328.197 2.164.169 4.327.339 6.489.538.309.029.602.231.785.305zm42.877-19.162c-.042.24-.047.61-.173.932-.51 1.311-1.042 2.615-1.597 3.909-.747 1.741-1.515 3.474-2.29 5.203-.463 1.032-.866 2.111-1.472 3.054-.307.475-.623.799-.479 1.422.199.856.543 1.623 1.441 1.786.784.145 1.617.027 2.082-.809.319-.577.626-1.162.891-1.764.328-.748.549-1.549.932-2.264.171-.322.601-.661.945-.698 1.249-.138 2.512-.132 3.767-.216.843-.057 1.077.305.99 1.119-.123 1.138-.101 2.265 1.049 2.982.144.091.226.368.241.565.06.745.569.615 1.023.546.168-.024.332-.28.471-.26 1.505.217 1.587-1.054 2.022-1.944.054-.112.006-.299-.045-.432-.316-.833-.665-1.658-.957-2.501-.057-.164.048-.434.161-.599.74-1.096.653-2.433-.46-2.923-1-.442-.947-1.181-1.144-1.969-.284-1.142-.738-2.242-1.028-3.383-.189-.742-.217-1.524-.318-2.29-.037-.342-.367-.745-.305-1.071.172-.899-.126-1.538-.667-2.218-.695-.877-2.861-.81-3.339.215-.424.905-.737 1.862-1.138 2.779-.126.291-.377.527-.602.83zm-25.26-.692c.447.266.788.491 1.152.677.234.119.505.267.751.253 1.413-.081 2.825-.202 4.236-.315.798-.062 1.203.314 1.277 1.099.187 1.992.5 3.977.579 5.971.081 2.073-.046 4.152-.098 6.228-.02.803-.158 1.569.425 2.316.748.96 1.195 1.192 2.475.828.529-.15 1.373-1.389 1.356-2.045-.038-1.428-.076-2.856-.158-4.282-.105-1.846-.25-3.69-.38-5.534l-.336-4.625c.949.098 1.774.212 2.604.258.584.032 1.197-.139 1.758-.025.901.182 1.747.492 2.717.485.863-.009 1.416-.402 1.764-.972.297-.49.924-1.033.317-1.825-.651-.849-1.099-1.685-2.481-1.484-1.322.191-2.702-.079-4.058-.087-1.41-.007-2.819.094-4.227.079-2.363-.029-4.725-.104-7.088-.174-1.743-.053-2.707.947-2.562 2.68.015.187-.016.375-.023.495zm58.098.613c-.123.538-.336.943-.274 1.299.164.922.48 1.816.681 2.733.568 2.586 1.097 5.181 1.028 7.852-.032 1.25-.056 2.492.652 3.607.274.431 1.769.815 2.09.502.409-.396.828-.788 1.196-1.222.146-.172.244-.46.226-.686-.076-1-.186-1.999-.311-2.996-.142-1.138-.347-2.267-.461-3.408-.234-2.343-.618-4.654-1.337-6.898-.126-.392-.353-.752-.612-1.293.988-.134 1.871-.276 2.759-.371 2.062-.222 4.106-.743 6.208-.185.604.161 1.355.132 1.939-.083 1.478-.542 1.727-1.799 1.531-3.213-.218-.098-.513-.138-.646-.309-.796-1.021-1.819-.669-2.812-.518-.302.047-.601.11-.904.139-2.342.232-4.689.43-7.028.695-1.845.211-3.675.578-5.523.736-1.04.088-2.069-.182-3.109.356-.907.469-1.468 1.202-1.257 2.212.136.654 1.691 1.657 2.374 1.554 1.141-.17 2.286-.32 3.59-.503zm-59.319-1.499c-.458-.679-.716-1.492-1.236-1.736-.834-.39-1.834-.494-2.776-.558-1.712-.119-3.1.8-4.171 1.947-1.181 1.266-1.833 2.908-2.21 4.65-.259 1.202 1.009 4.262 2.1 4.846 1.924 1.029 3.844 2.064 5.771 3.08 1.032.545 1.514 2.124.917 3.114-.055.093-.154.17-.248.228-.652.401-1.281.853-1.97 1.173-.45.21-1.116.463-1.461.277-.688-.374-1.352-.184-2.013-.209-.369-.015-.784.213-1.122.423-.927.581-.843 1.581-.902 2.138.509 1.358 1.421 1.467 2.411 1.393.52-.037 1.053-.01 1.557-.119 1.11-.238 2.258-.421 3.295-.86.95-.401 1.771-1.11 2.653-1.677 1.27-.812 2.068-2.795 1.872-4.342-.153-1.2-.51-2.205-1.229-3.234-.571-.817-1.113-1.489-1.99-1.89-1.278-.584-2.553-1.181-3.851-1.723-1.013-.424-1.895-1.002-1.929-2.185-.018-.648.338-1.306.536-1.957.332-1.102 1.43-1.643 2.558-1.372.452.109 1.025.134 1.423-.058.715-.345 1.338-.883 2.013-1.35z" fill="#fff" sketch:type="MSShapeGroup"/><path d="M16.909 29.731c.082 1.456.182 2.742.215 4.03.018.703.281 1.479-.48 2.043-.166.124-.135.519-.207.852-.612.034-1.286.223-1.875.076-1.293-.324-1.832-1.761-1.549-3.13.219-1.059.14-2.182.174-3.278.014-.47-.108-.958-.023-1.41.382-2.036.057-4.061-.041-6.088-.104-2.176-.281-4.348-.42-6.523l.109-.238c-.496-.712-.744-1.367.193-1.961.652-.413 1.202-1.047 1.898-1.321 1.317-.519 2.685-1.016 4.074-1.211 1.27-.179 2.422.335 3.28 1.466.579.764 1.403 1.334 2.066 2.041 1.008 1.071 1.194 3.037.596 4.417-.584 1.345-1.018 2.757-1.582 4.113-.295.707-.717 1.36-1.099 2.028-.342.598-.707 1.183-1.095 1.829.781.47 1.426.902 2.11 1.261 1.041.547 1.539 1.609 2.31 2.36.962.935.967 2.075 1.427 3.104.441.985.073 2.746-.827 3.281-.545.324-1.291.323-1.955.419-.313.045-.644-.024-.915-.038-.078-.454-.142-.911-.234-1.361-.225-1.101-.368-2.234-.741-3.283-.179-.5-.758-.915-1.245-1.231-.939-.614-1.935-1.14-2.917-1.685-.337-.186-.703-.318-1.248-.562zm.333-4.483l.39.107c.547-.552 1.265-1.014 1.61-1.673.86-1.64 1.614-3.344 2.268-5.078.199-.531.381-1.324-.508-1.766-.457-.228-.763-.77-1.13-1.175-.764-.838-1.445-.869-2.935-.055-.776.424-.599 1.209-.559 1.89.039.693.202 1.377.267 2.07.152 1.577.271 3.159.419 4.738.029.316.117.628.179.943z" fill="#000" sketch:type="MSShapeGroup"/><path d="M103.418 27.061l.112 3.184c-.162.119-.599.348-.917.689-1.07 1.145-2.121 1.061-2.97-.257-.283-.441-.771-.789-.34-1.414.032-.046-.243-.309-.201-.256.14-.851.379-1.559.347-2.255-.097-2.165-.276-4.327-.467-6.488-.105-1.189-.301-2.371-.443-3.557-.012-.103.069-.225.122-.329.354-.701 1.023-1.231.892-2.198-.038-.27.609-.718 1.016-.95 1.041-.593 2.09-1.198 3.197-1.641 1.951-.778 3.925-.962 5.626.589 1.167 1.065 2.078 2.359 2.025 4.041-.019.611.098 1.354-.549 1.838-.145.109-.173.385-.243.586-.825 2.348-2.083 4.26-4.709 4.825-.104.023-.187.149-.383.314.787.627 1.519 1.249 2.292 1.813 1.336.978 2.737 1.869 4.025 2.906.451.363.695 1.025.945 1.592.316.717.592 1.462.794 2.218.269 1.015-1.265 2.454-2.308 2.15-.618-.18-1.216-.488-1.762-.838-.225-.144-.389-.538-.411-.832-.124-1.666-1.038-2.706-2.427-3.506-1.101-.633-2.111-1.429-3.264-2.224zm-.657-6.093c.407-.057.682-.075.946-.137.983-.231 1.991-.438 2.498-1.48.371-.765.762-1.523 1.058-2.317.133-.357.231-.98.042-1.16-.524-.498-1.036-1.272-1.94-.962-.674.231-1.364.519-1.93.945-.491.37-1.143.961-1.151 1.462-.018 1.221.298 2.444.477 3.648z" fill="#000" sketch:type="MSShapeGroup"/><path d="M42.307 35.872c-.184-.074-.476-.277-.785-.305-2.162-.199-4.326-.368-6.489-.538-.781-.061-1.609.044-2.328-.197-.482-.162-1.038-.74-1.156-1.231-.244-1.012-.23-2.088-.299-3.14-.123-1.894-.246-3.788-.335-5.683-.052-1.139-.003-2.283-.062-3.421-.075-1.384-.234-2.764-.32-4.149-.041-.655.022-1.316-.003-1.974-.015-.393-.065-.797-.181-1.171-.345-1.109.029-1.966 1.07-2.468.232-.112.425-.305.693-.505 2.091.902 4.321 1.099 6.653.752 1.41-.208 2.67.487 3.4 1.647.235.374-.279 1.432-.713 1.957-.277.333-1.038.369-1.576.357-1.769-.04-3.537-.165-5.49-.267l.307 5.47c.936-.047 1.944-.053 2.943-.16 1.231-.131 2.335.055 3.134 1.082.182.233.331.722.211.922-.394.663-.604 1.584-1.599 1.647-.826.053-1.656.04-2.483.082-.265.013-.528.092-.785.164-.339.096-.672.215-1.109.358.033 1.579.06 3.29.121 4.999.007.194.185.504.342.547.824.23 1.66.426 2.504.566.883.147 1.776.262 2.669.307.889.045 1.785-.031 2.678-.024.582.005 1.966 1.362 2.014 1.936.058.661-1.145 1.993-1.779 2.051-.37.034-.727.219-1.248.387" fill="#000" sketch:type="MSShapeGroup"/><path d="M85.184 16.71c.225-.303.476-.539.602-.83.401-.917.714-1.874 1.138-2.779.478-1.025 2.645-1.092 3.339-.215.541.68.839 1.319.667 2.218-.062.326.268.729.305 1.071.101.766.129 1.548.318 2.29.29 1.141.744 2.241 1.028 3.383.196.788.144 1.527 1.144 1.969 1.113.491 1.2 1.827.46 2.923-.113.166-.218.436-.161.599.292.843.641 1.667.957 2.501.051.133.099.32.045.432-.435.89-.517 2.161-2.022 1.944-.14-.02-.303.236-.471.26-.453.069-.963.199-1.023-.546-.015-.198-.097-.474-.241-.565-1.15-.718-1.172-1.844-1.049-2.982.088-.814-.147-1.176-.99-1.119-1.255.084-2.519.078-3.767.216-.344.037-.774.377-.945.698-.382.715-.604 1.516-.932 2.264-.266.602-.572 1.187-.891 1.764-.465.837-1.298.954-2.082.809-.897-.163-1.242-.93-1.441-1.786-.144-.623.171-.947.479-1.422.607-.943 1.01-2.022 1.472-3.054.776-1.729 1.544-3.461 2.29-5.203.555-1.293 1.086-2.597 1.597-3.909.126-.322.131-.692.173-.932zm3.826 6.524l-.961-3.612-1.523 3.702 2.485-.089z" fill="#000" sketch:type="MSShapeGroup"/><path d="M59.924 16.018c.006-.119.038-.308.023-.495-.146-1.733.818-2.733 2.562-2.68 2.363.069 4.725.145 7.088.174 1.408.015 2.817-.086 4.227-.079 1.355.008 2.736.278 4.058.087 1.382-.2 1.83.635 2.481 1.484.607.792-.02 1.335-.317 1.825-.348.571-.901.964-1.764.972-.97.008-1.816-.302-2.717-.485-.561-.114-1.174.057-1.758.025-.83-.046-1.655-.16-2.604-.258l.336 4.625c.13 1.844.275 3.688.38 5.534.082 1.426.12 2.854.158 4.282.017.656-.826 1.895-1.356 2.045-1.279.365-1.726.132-2.475-.828-.583-.747-.444-1.512-.425-2.316.052-2.077.179-4.156.098-6.228-.079-1.994-.393-3.979-.579-5.971-.073-.785-.478-1.161-1.277-1.099-1.411.112-2.823.234-4.236.315-.246.014-.516-.134-.751-.253-.364-.186-.705-.411-1.152-.677" fill="#000" sketch:type="MSShapeGroup"/><path d="M118.022 16.631c-1.304.182-2.449.332-3.59.503-.683.103-2.238-.9-2.374-1.554-.211-1.011.35-1.743 1.257-2.212 1.04-.538 2.069-.269 3.109-.356 1.848-.157 3.679-.525 5.523-.736 2.339-.265 4.686-.463 7.028-.695.303-.028.601-.091.904-.139.993-.151 2.016-.503 2.812.518.133.171.428.211.646.309.197 1.414-.053 2.672-1.531 3.213-.584.215-1.336.244-1.939.083-2.103-.558-4.146-.036-6.208.185-.887.095-1.771.237-2.759.371.259.541.486.9.612 1.293.719 2.244 1.103 4.555 1.337 6.898.114 1.141.319 2.271.461 3.408.125.997.235 1.996.311 2.996.018.226-.08.514-.226.686-.368.434-.786.826-1.196 1.222-.321.312-1.816-.071-2.09-.502-.709-1.115-.685-2.357-.652-3.607.069-2.671-.46-5.266-1.028-7.852-.201-.917-.516-1.812-.681-2.733-.063-.356.15-.76.274-1.299" fill="#000" sketch:type="MSShapeGroup"/><path d="M58.703 15.131c-.676.467-1.299 1.004-2.013 1.35-.397.192-.971.167-1.423.058-1.128-.271-2.226.27-2.558 1.372-.198.651-.554 1.309-.536 1.957.034 1.182.916 1.76 1.929 2.185 1.298.541 2.572 1.138 3.851 1.723.877.401 1.418 1.073 1.99 1.89.72 1.029 1.076 2.035 1.229 3.234.196 1.547-.602 3.529-1.872 4.342-.882.566-1.703 1.276-2.653 1.677-1.036.439-2.185.621-3.295.86-.504.109-1.037.081-1.557.119-.989.074-1.902-.034-2.411-1.393.059-.557-.025-1.557.902-2.138.337-.211.752-.438 1.122-.423.661.025 1.325-.166 2.013.209.345.186 1.011-.067 1.461-.277.688-.32 1.318-.772 1.97-1.173.094-.058.193-.135.248-.228.597-.991.115-2.569-.917-3.114-1.927-1.016-3.848-2.051-5.771-3.08-1.091-.584-2.359-3.644-2.1-4.846.376-1.742 1.029-3.384 2.21-4.65 1.072-1.147 2.46-2.066 4.171-1.947.942.065 1.942.169 2.776.558.52.244.777 1.057 1.236 1.736" fill="#000" sketch:type="MSShapeGroup"/><path d="M17.242 25.248c-.062-.315-.15-.626-.179-.943-.147-1.579-.267-3.161-.419-4.738-.065-.693-.228-1.377-.267-2.07-.04-.681-.217-1.466.559-1.89 1.49-.813 2.171-.783 2.935.055.368.405.674.946 1.13 1.175.889.441.707 1.235.508 1.766-.654 1.734-1.408 3.439-2.268 5.078-.345.659-1.063 1.121-1.61 1.673l-.39-.107" fill="#fff" sketch:type="MSShapeGroup"/><path d="M102.761 20.968c-.179-1.204-.495-2.428-.477-3.648.007-.502.66-1.093 1.151-1.462.566-.425 1.255-.714 1.93-.945.903-.31 1.416.464 1.94.962.189.18.091.803-.042 1.16-.296.794-.687 1.553-1.058 2.317-.507 1.042-1.514 1.25-2.498 1.48-.264.062-.538.079-.946.137" fill="#fff" sketch:type="MSShapeGroup"/><path d="M89.01 23.234l-2.485.089c.524-1.271.973-2.362 1.523-3.702l.961 3.612" fill="#fff" sketch:type="MSShapeGroup"/></g></svg>