<svg width="211" height="110" viewBox="0 0 211 110" xmlns="http://www.w3.org/2000/svg" xmlns:sketch="http://www.bohemiancoding.com/sketch/ns"><title>santa-omg-hover</title><desc>Created with Sketch.</desc><g sketch:type="MSLayerGroup" fill="none"><path d="M206.292 99.946l.755 1.266c-2.193 1.142-4.454 1.471-6.73 1.671-6.468.573-12.938 1.092-19.403 1.663-.893.079-1.772.314-2.657.494-.563.116-1.114.337-1.681.379-1.741.13-2.352-.449-2.579-2.602-.992 1.454-2.307 1.096-3.608 1.094-5.909-.004-11.819.103-17.728.12-9.47.023-18.939.006-28.264.006-.557.687-.961 1.547-1.634 1.918-.724.397-1.696.418-2.564.451-1.205.043-2.416-.056-3.623-.091l-6.893-.199c-.489-.014-.98-.097-1.463-.058-3.52.298-7.033.65-10.555.921-4.26.331-8.523.784-12.789.844-3.936.056-7.879-.358-11.819-.525-3.608-.153-7.219-.283-10.831-.366-1.729-.039-3.466-.008-5.191.118-.937.07-1.851.426-2.783.614-.553.114-1.172.341-1.675.203-3.216-.894-6.369-.153-9.542.23-1.054.126-2.162.393-3.171.199-3.912-.749-7.656.439-11.471.794-.652.06-1.296.209-1.948.244-3.284.182-6.567.449-9.851.478-3.848.033-7.633-.457-11.312-1.733-.937-.325-2.08-.05-3.433-.05-.229-3.181-.491-6.104-.631-9.035-.093-1.975-.074-3.961 0-5.939.078-2.058.472-4.118.394-6.164-.171-4.526.235-9.013.495-13.516.099-1.704-.107-3.461-.419-5.149-.534-2.902-1.261-5.769-1.9-8.653-.05-.221-.12-.476-.062-.681.955-3.384.596-6.785.382-10.225-.087-1.39.65-3.004 1.448-4.23.747-1.148 1.349-2.168 1.325-3.574-.023-1.138.248-2.28.268-3.421.027-1.374.196-2.751-1.017-3.907-.522-.496-.78-1.502-.784-2.28-.027-3.759-.803-7.542.359-11.276.347-1.115.518-2.149 1.799-2.728.631-.283.957-1.249 1.49-2.004 3.404-.405 6.905-.794 10.398-1.256 1.465-.192 2.903-.571 4.363-.805 6.113-.976 12.284-.952 18.444-.968 3.612-.008 7.241.451 10.833.221 2.222-.143 4.388.074 6.575.124 1.63.037 3.256.426 4.881.43 1.873.002 3.742-.281 5.618-.376 3.202-.163 6.408-.252 9.61-.416 5.75-.29 11.498-.612 17.247-.921.406-.021.866-.147 1.219-.008 2.89 1.14 5.948.65 8.904 1.018 4.485.559 8.838-.418 13.255-.519 6.897-.159 13.794-.356 20.691-.399 5.556-.035 11.112.184 16.668.176 2.03-.004 4.056-.381 6.088-.517 5.145-.348 10.293-.647 15.438-.98 4.92-.319 9.849-.546 14.753-1.032 2.515-.248 4.976-1.001 7.47-1.481 3.216-.618 6.431-1.239 9.666-1.744.658-.103 1.395.3 2.075.465-.9 6.024-.239 11.938-.815 17.808-.287 2.904.673 5.866-.153 8.791-.039.139.039.323.091.478.728 2.135.805 4.313.518 6.537-.396 3.097.671 6.038.994 9.058.365 3.399.637 6.832.596 10.246-.062 5.002-.518 9.995-.644 14.997-.052 2.04.132 4.129.536 6.129.708 3.498-.08 6.899-.345 10.332-.144 1.884-.613 3.742-.778 5.626-.163 1.851-1.151 2.95-2.903 3.686zm-199.653-80.982v8.367l-.023.496c-.103 2.052-.161 4.11-.322 6.158-.157 2.009.361 4.123-.949 5.978-.248.35-.151.964-.159 1.458-.025 1.322-.099 2.652-.008 3.967.116 1.676-.258 3.423 1.023 4.94.569.672.206 1.543-.71 2.033-.538.285-1.362.718-1.403 1.146-.272 2.929-.633 5.889-.462 8.808.221 3.773 1.178 7.472 1.25 11.294.06 3.2.571 6.39.854 9.588.167 1.878.406 3.765.382 5.645-.037 2.964-.326 5.926-.402 8.893-.052 1.963.083 3.932.136 5.988.739.128 1.289.285 1.842.306 1.197.046 2.327.05 2.622 1.634.056.294.755.645 1.172.666 2.703.139 5.409.197 8.114.267.144.004.373-.07.423-.176.757-1.578 2.354-1.086 3.526-1.235 1.927-.246 4.031-.383 5.841.165 1.494.449 2.841.544 4.297.397.489-.048.992-.252 1.454-.178 3.27.523 6.513.105 9.756-.213 1.298-.126 2.828.006 3.823-.643 1.62-1.057 3.041-.699 4.617-.308.856.213 1.739.447 2.61.443 4.332-.025 8.636-.517 12.993-.387 4.58.137 9.183-.312 13.767-.621 7.73-.521 15.473-.972 23.173-1.804 2.397-.261 4.727.052 7.083-.13 1.797-.139 3.602-.228 5.405-.267 3.022-.064 6.045-.068 9.067-.108.243-.004.526-.004.726-.12 1.403-.807 2.88-.434 4.347-.325.559.041 1.124.077 1.681.035 3.563-.259 7.105.039 10.695-.91 3.2-.848 6.695-.583 10.06-.796 2.451-.155 4.978.046 7.334-.505 3.961-.923 7.976-.931 11.966-1.318 2.453-.236 4.927-.259 7.376-.517 3.505-.366 6.938-1.369 10.526-1.028 1.793.17 3.604.24 5.242-.914.406-.285 1.261-.157 1.818.041 1.855.658 3.681 1.295 5.713.381.146-2.375.326-4.791.439-7.209.142-3.018.196-6.038.355-9.054.072-1.396.522-2.799.425-4.172-.312-4.404-.823-8.793-1.199-13.193-.103-1.227-.149-2.497.037-3.707.448-2.939-.068-5.711-1.065-8.452-.217-.594-.351-1.256-.347-1.884.017-3.092.054-6.185.161-9.275.144-4.116.107-8.262.631-12.333.373-2.894.495-5.724.258-8.601-.045-.546-.192-1.237.064-1.626.864-1.316.287-2.186-.728-2.927-.567-.414-1.51-.505-1.832-1.024-1.397-2.242-3.194-1.351-4.986-.85-1.733.482-3.449 1.107-5.218 1.359-2.911.418-5.863.554-8.791.869-2.853.308-5.688.894-8.545.999-5.498.203-11.007.163-16.509.203-3.46.023-6.918-.019-10.377.012-1.469.014-2.963-.002-4.405.242-6.068 1.024-12.123.923-18.11-.391-2.15-.472-4.229-.575-6.36-.333-6.874.784-13.748.755-20.66.451-5.077-.223-10.192.031-15.269.364-4.089.271-8.145 1.003-12.224 1.465-.563.064-1.197-.184-1.752-.403-1.271-.505-2.403-1.103-3.897-.327-1.126.585-2.525.782-3.823.865-3.437.219-6.885.327-10.33.399-8.618.182-17.237.294-25.855.511-.924.023-1.894.43-2.74.863-1.098.559-2.094 1.156-3.429.817-.594-.151-1.289.093-1.937.157l-3.278.323-1.263-1.911c-1.89.391-3.643.753-5.721 1.181zm170.827 81.147l.039.718c5.725-.743 11.632-.151 17.159-2.358l-.07-.536-17.128 2.176z" fill="#000" sketch:type="MSShapeGroup"/><path d="M49.046.263l-.06.24-.025-.209.056-.24.029.209" fill="#000" sketch:type="MSShapeGroup"/><path d="M6.639 18.964c2.078-.428 3.831-.79 5.721-1.181l1.263 1.911 3.278-.323c.648-.064 1.343-.308 1.937-.157 1.335.339 2.331-.259 3.429-.817.846-.432 1.816-.84 2.74-.863 8.618-.217 17.237-.329 25.855-.511 3.445-.072 6.893-.18 10.33-.399 1.298-.083 2.696-.279 3.823-.865 1.494-.776 2.626-.178 3.897.327.555.219 1.188.467 1.752.403 4.079-.461 8.135-1.194 12.224-1.465 5.077-.333 10.192-.587 15.269-.364 6.911.304 13.786.333 20.66-.451 2.131-.242 4.211-.139 6.36.333 5.987 1.314 12.042 1.415 18.11.391 1.442-.244 2.936-.228 4.405-.242 3.46-.031 6.918.01 10.377-.012 5.502-.039 11.011 0 16.509-.203 2.857-.105 5.692-.691 8.545-.999 2.928-.314 5.88-.451 8.791-.869 1.768-.252 3.485-.877 5.218-1.359 1.793-.501 3.59-1.392 4.986.85.322.519 1.265.61 1.832 1.024 1.015.741 1.593 1.611.728 2.927-.256.389-.109 1.08-.064 1.626.237 2.877.116 5.707-.258 8.601-.524 4.071-.487 8.216-.631 12.333-.107 3.09-.144 6.183-.161 9.275-.004.629.13 1.291.347 1.884.996 2.741 1.512 5.513 1.065 8.452-.186 1.21-.14 2.48-.037 3.707.375 4.4.887 8.789 1.199 13.193.097 1.374-.353 2.776-.425 4.172-.159 3.016-.212 6.036-.355 9.054-.113 2.418-.293 4.834-.439 7.209-2.032.914-3.858.277-5.713-.381-.557-.199-1.411-.327-1.818-.041-1.638 1.154-3.449 1.084-5.242.914-3.588-.341-7.021.662-10.526 1.028-2.449.259-4.923.281-7.376.517-3.99.387-8.005.395-11.966 1.318-2.356.55-4.883.35-7.334.505-3.365.213-6.86-.052-10.06.796-3.59.949-7.132.652-10.695.91-.557.041-1.122.006-1.681-.035-1.467-.11-2.944-.482-4.347.325-.2.116-.483.116-.726.12-3.022.039-6.045.043-9.067.108-1.803.039-3.608.128-5.405.267-2.356.182-4.685-.13-7.083.13-7.699.832-15.442 1.282-23.173 1.804-4.584.308-9.187.757-13.767.621-4.357-.13-8.661.362-12.993.387-.871.004-1.754-.23-2.61-.443-1.576-.391-2.998-.749-4.617.308-.994.65-2.525.517-3.823.643-3.243.319-6.486.736-9.756.213-.462-.074-.966.13-1.454.178-1.457.147-2.804.052-4.297-.397-1.809-.548-3.914-.412-5.841-.165-1.172.149-2.769-.343-3.526 1.235-.05.105-.279.18-.423.176-2.705-.07-5.411-.128-8.114-.267-.417-.021-1.116-.372-1.172-.666-.295-1.585-1.426-1.589-2.622-1.634-.553-.021-1.104-.178-1.842-.306-.054-2.056-.188-4.025-.136-5.988.076-2.966.365-5.928.402-8.893.025-1.88-.215-3.767-.382-5.645-.283-3.198-.794-6.388-.854-9.588-.072-3.823-1.029-7.521-1.25-11.294-.171-2.919.19-5.879.462-8.808.041-.428.864-.861 1.403-1.146.916-.49 1.279-1.361.71-2.033-1.281-1.516-.908-3.264-1.023-4.94-.091-1.316-.017-2.646.008-3.967.008-.494-.089-1.109.159-1.458 1.31-1.855.792-3.97.949-5.978.161-2.048.219-4.106.322-6.158l.023-.496v-8.367zm13.315 53.282c-1.397 1.057-2.558 2.106-3.883 2.875-.786.457-1.424.784-1.31 1.798.107.962.753 1.32 1.587 1.653 2.16.865 4.361.85 6.561.399 2.486-.509 4.531-1.779 5.874-4.011 1.147-1.903 1.448-4.083.246-5.848-2.018-2.964-4.405-5.686-7.782-7.287-.803-.381-1.535-.96-2.207-1.553-1.256-1.105-1.296-1.754-.427-3.73.646-1.467 1.461-1.926 3.008-1.75 1.485.17 2.977.316 3.846-1.469l-1.568-2.06c-1.081 0-2.071-.05-3.051.019-.635.043-1.448.062-1.849.443-1.232 1.177-2.616 2.36-3.377 3.835-1.702 3.308-1.745 5.343 1.38 7.736l2.269 1.462c2.383 1.822 5.052 3.322 6.641 6.042.724 1.239.856 3.359-.194 4.019-2.113 1.326-4.419 2.282-6.971 1.682-.456-1.802 2.826-2.054 1.209-4.255zm43.432-18.079c-1.659.188-2.271.956-2.084 2.207.505 3.403-.175 6.721-.741 10.022-.262 1.522-.091 3.31-1.49 4.567-1.828-4.423-3.662-8.715-5.356-13.063-.415-1.061-1.197-1.22-1.917-1.055-.58.132-1.17.796-1.471 1.374-.235.447-.06 1.125-.021 1.698.336 4.905-.722 9.633-1.7 14.501.503.422.673 1.454 1.906 1.179 1.019-.228 1.327-.875 1.485-1.717.118-.627.192-1.268.227-1.905.14-2.673.144-5.36.749-8.508l5.482 12.893c.571-.161 1.046-.151 1.162-.352.772-1.328 1.752-2.629 2.125-4.077.695-2.697 1.126-5.478 1.463-8.249.194-1.613.425-3.08 1.818-3.934l-1.638-5.581zm92.68 11.553c.175-2.439.177-4.749.551-7 .345-2.087 1.211-4.085 1.605-6.168.248-1.305.045-2.697.045-4.017-2.538-.215-2.55-.217-2.936 1.769-.316 1.613-.652 3.225-.877 4.853-.446 3.239-.978 6.479-1.18 9.737-.198 3.177 1.983 5.072 5.121 4.611 1.444-.213 2.859-.73 4.238-1.247.623-.236 1.271-.701 1.648-1.243 1.176-1.696.91-3.577.547-5.484-.146-.778-.897-1.601-.165-2.59l1.638 2.114c2.476-1.088 2.921-2.315 1.863-4.745-.582-1.336-1.366-1.864-2.635-1.434-1.861.631-3.728 1.318-5.447 2.249-.637.345-1.186 1.436-1.207 2.201-.027.972.844 1.502 1.908 1.502.384 0 .765.182 1.05.254.77 1.535 1.172 3.111-.017 4.257-1.512 1.462-3.454 1.16-5.752.383zm-73.295 6.113c.039.101.095.457.289.707 1.122 1.444 2.082 1.367 3.016-.234.206-.352.324-.755.499-1.125.528-1.105 1.067-2.207 1.428-2.954 2.177-.35 3.974-.637 5.89-.943.716 3.066 1.382 5.916 2.04 8.74 1.669.391 2.329-.896 2.715-1.928.452-1.212.083-2.522-.79-3.643-.578-.741-1.034-1.609-1.386-2.484-.468-1.167.309-1.949 1.254-2.526-.406-.596-.594-1.208-.976-1.369-1.151-.49-1.157-1.469-1.285-2.441-.487-3.728-.978-7.455-1.461-11.123-2.319-.149-2.645-.124-2.861 1.624-.264 2.129-1.403 3.814-2.166 5.695-1.05 2.584-1.931 5.242-3.041 7.798-.877 2.015-1.991 3.926-3.165 6.206zm60.702-22.313c-1.584 1.247-1.281 3.819-3.293 4.673-1.463-1.471-.619-4.714-3.707-4.82-1.601 1.026-1.956 2.528-1.898 4.15.068 1.922-.262 3.746-.877 5.56-.631 1.87-1.071 3.806-1.729 5.666-.219.612-.858 1.076-1.261 1.556.73 1.483 1.549 2.817 3.602 1.715.84-3.941 1.702-7.989 2.67-12.535.555 1.324.864 2.058 1.147 2.728 1.638.014 1.638.014 5.579-3.421 1.062 3.647 1.615 7.271 1.056 10.938-.167 1.103.031 1.82.446 2.621 2.958-.199 3.837-1.423 2.979-3.934-.182-.534-.34-1.086-.417-1.642-.472-3.411-.895-6.83-1.378-10.239-.225-1.582-.922-2.817-2.919-3.014zm-98.943 20.574c1.399-1.653 1.617-2.522.856-3.266l-1.861-.42c-.549-2.499-.999-4.931-1.634-7.312-.355-1.336-1.007-2.596-1.535-3.883-.442-1.074-1.417-1.254-2.253-.885-.512.223-.887 1.061-1.054 1.694-.206.78-.041 1.651-.192 2.453-.621 3.316-1.267 6.628-1.97 9.927-.27 1.266-.718 2.493-1.12 3.856l-2.705-.846c.243.716.274 1.158.505 1.423.871.995 1.481 1.967 1.279 3.446-.122.894.627 1.51 1.688 1.115.45-.168.879-.395 1.304-.59.219-1.473.316-2.879.648-4.226.796-3.239 1.166-3.473 4.588-3.415.231.004.458.143.677.215.223.738.512 1.431.623 2.149.126.813-.019 1.673.163 2.466.134.587.52 1.458.939 1.553.582.13 1.44-.182 1.931-.598 1.483-1.262 1.159-3.076-.877-4.857zm71.09-9.778c-.452 2.745.695 5.215 2.073 7.598 1.166 2.015 4.004 3.411 5.884 2.635 3.097-1.278 5.319-3.525 6.045-6.925.526-2.457-.666-4.605-1.31-6.89-.889-3.159-2.5-5.176-5.839-5.504-.681-.068-1.502-.079-2.063.236-3.388 1.882-5.24 4.683-4.79 8.851zm-43.694-2.24c.149 1.64.384 3.167.406 4.698.045 3.44-.056 6.884.014 10.324.01.515.536 1.299.992 1.446.46.151 1.279-.176 1.673-.565 1.195-1.183 1.25-2.662.805-4.228-1.05-3.701-.679-7.484-.819-11.602 2.034-.07 3.87-.132 5.704-.203.411-.017.833-.021 1.225-.122.774-.199 1.582-1.535 1.44-2.329-.173-.96-.953-1.022-1.696-1.084-.404-.033-.848-.066-1.221.06-2.533.854-5.149.759-7.761.763-1.809 0-3.623-.062-5.43.002-1.027.037-1.758.892-1.646 1.775.126.987.753 1.413 1.723 1.355 1.384-.083 2.769-.174 4.59-.29zm106.946-6.075l.157-.017c-.146-1.551-.215-3.115-.466-4.65-.266-1.62-.679-3.219-1.098-4.809-.13-.501-.534-1.357-.732-1.334-.751.087-1.712.271-2.125.792-.408.515-.439 1.518-.301 2.242.351 1.843 1.155 3.63 1.287 5.475.173 2.426-.012 4.898-.266 7.327-.107 1.045.365 1.649 1.015 1.984.431.219 1.275-.027 1.76-.337.947-.608 1.382-1.485 1.126-2.739-.262-1.28-.25-2.621-.357-3.934zm-74.052-4.611c-1.865.755-2.148 1.214-1.846 2.861.454 2.495.869 4.989.382 7.538-.091.474-.056 1.001.052 1.473.21.927.848 1.429 1.797 1.272 1.49-.248 2.975-2.395 2.29-3.678-.745-1.396-.549-2.844-.908-4.222-.452-1.748.411-3.93-1.766-5.244zm67.865 19.533c-.019 2.244.879 3.428 2.595 3.428 1.97 0 4.13-2.019 4.079-3.814-.039-1.469-2.177-3.328-3.757-3.275-1.428.05-2.903 1.901-2.917 3.661zm-67.84 7.92c.604-.05 1.248-.081 1.886-.165.318-.041.635-.151.935-.275 1.663-.693 2.41-2.042 2.053-3.67-.437-2.002-1.584-3.064-3.237-3.09-1.223-.021-2.358.693-2.484 1.597-.258 1.837-.933 3.91.848 5.604z" fill="#fff" sketch:type="MSShapeGroup"/><path d="M177.467 100.111l17.128-2.176.07.536c-5.527 2.207-11.434 1.616-17.159 2.358l-.039-.718" fill="#fff" sketch:type="MSShapeGroup"/><path d="M19.954 72.246c1.617 2.201-1.665 2.453-1.209 4.255 2.552.6 4.859-.356 6.971-1.682 1.05-.66.918-2.78.194-4.019-1.589-2.72-4.258-4.22-6.641-6.042l-2.269-1.462c-3.126-2.393-3.082-4.429-1.38-7.736.761-1.475 2.146-2.658 3.377-3.835.4-.381 1.213-.399 1.849-.443.98-.068 1.97-.019 3.051-.019l1.568 2.06c-.869 1.785-2.36 1.638-3.846 1.469-1.547-.176-2.362.283-3.008 1.75-.869 1.975-.829 2.625.427 3.73.673.594 1.405 1.173 2.207 1.553 3.377 1.601 5.764 4.323 7.782 7.287 1.203 1.764.902 3.945-.246 5.848-1.343 2.232-3.388 3.502-5.874 4.011-2.199.451-4.401.465-6.561-.399-.833-.333-1.479-.691-1.587-1.653-.113-1.014.524-1.34 1.31-1.798 1.325-.769 2.486-1.818 3.883-2.875" fill="#000" sketch:type="MSShapeGroup"/><path d="M63.387 54.167l1.638 5.581c-1.393.854-1.624 2.321-1.818 3.934-.336 2.772-.767 5.552-1.463 8.249-.373 1.448-1.353 2.749-2.125 4.077-.116.201-.59.19-1.162.352-1.762-4.143-3.509-8.256-5.482-12.893-.604 3.148-.609 5.835-.749 8.508-.035.637-.109 1.278-.227 1.905-.159.842-.466 1.489-1.485 1.717-1.234.275-1.403-.757-1.906-1.179.978-4.867 2.036-9.596 1.7-14.501-.039-.573-.215-1.251.021-1.698.301-.577.891-1.241 1.471-1.374.72-.165 1.502-.006 1.917 1.055 1.694 4.348 3.528 8.64 5.356 13.063 1.399-1.258 1.228-3.045 1.49-4.567.565-3.301 1.246-6.619.741-10.022-.188-1.251.425-2.019 2.084-2.207" fill="#000" sketch:type="MSShapeGroup"/><path d="M156.066 65.72c2.298.778 4.24 1.08 5.752-.383 1.188-1.146.786-2.722.017-4.257-.285-.072-.666-.254-1.05-.254-1.065 0-1.935-.53-1.908-1.502.021-.765.569-1.855 1.207-2.201 1.719-.931 3.586-1.618 5.447-2.249 1.269-.43 2.053.097 2.635 1.434 1.058 2.431.613 3.657-1.863 4.745l-1.638-2.114c-.732.989.019 1.812.165 2.59.363 1.907.629 3.788-.547 5.484-.378.542-1.025 1.007-1.648 1.243-1.378.517-2.793 1.034-4.238 1.247-3.138.461-5.319-1.434-5.121-4.611.202-3.258.734-6.497 1.18-9.737.225-1.628.561-3.239.877-4.853.386-1.986.398-1.984 2.936-1.769 0 1.32.202 2.712-.045 4.017-.394 2.083-1.261 4.081-1.605 6.168-.373 2.251-.375 4.561-.551 7" fill="#000" sketch:type="MSShapeGroup"/><path d="M82.771 71.832c1.174-2.28 2.288-4.191 3.165-6.206 1.11-2.557 1.991-5.215 3.041-7.798.763-1.88 1.902-3.566 2.166-5.695.217-1.748.543-1.773 2.861-1.624.483 3.668.974 7.395 1.461 11.123.128.972.134 1.951 1.285 2.441.382.161.569.774.976 1.369-.945.577-1.723 1.359-1.254 2.526.353.875.809 1.744 1.386 2.484.873 1.121 1.242 2.431.79 3.643-.386 1.032-1.046 2.319-2.715 1.928l-2.04-8.74c-1.917.306-3.714.594-5.89.943-.361.747-.9 1.849-1.428 2.954-.175.37-.293.774-.499 1.125-.935 1.601-1.894 1.678-3.016.234-.194-.25-.25-.606-.289-.707zm6.507-6.673l4.013-.755c-.415-2.453-.798-4.716-1.184-6.979l-.662-.025-2.166 7.759z" fill="#000" sketch:type="MSShapeGroup"/><path d="M143.473 49.519c1.997.197 2.694 1.431 2.919 3.014.483 3.409.906 6.828 1.378 10.239.076.556.235 1.109.417 1.642.858 2.511-.021 3.736-2.979 3.934-.415-.801-.613-1.518-.446-2.621.559-3.668.006-7.292-1.056-10.938-3.94 3.436-3.94 3.436-5.579 3.421l-1.147-2.728c-.968 4.547-1.83 8.595-2.67 12.535-2.053 1.103-2.872-.232-3.602-1.715.402-.48 1.042-.943 1.261-1.556.658-1.86 1.098-3.796 1.729-5.666.615-1.814.945-3.639.877-5.56-.058-1.622.297-3.124 1.898-4.15 3.088.105 2.245 3.349 3.707 4.82 2.012-.854 1.708-3.426 3.293-4.673" fill="#000" sketch:type="MSShapeGroup"/><path d="M44.53 70.093c2.036 1.781 2.36 3.595.877 4.857-.491.416-1.349.728-1.931.598-.419-.095-.805-.966-.939-1.553-.182-.792-.037-1.653-.163-2.466-.111-.718-.4-1.411-.623-2.149-.219-.072-.446-.211-.677-.215-3.423-.058-3.792.176-4.588 3.415-.332 1.347-.429 2.753-.648 4.226-.425.194-.854.422-1.304.59-1.06.395-1.809-.221-1.688-1.115.202-1.479-.408-2.451-1.279-3.446-.231-.265-.262-.707-.505-1.423l2.705.846c.402-1.363.85-2.59 1.12-3.856.704-3.299 1.349-6.611 1.97-9.927.151-.803-.014-1.673.192-2.453.167-.633.543-1.471 1.054-1.694.836-.368 1.811-.188 2.253.885.528 1.287 1.18 2.546 1.535 3.883.635 2.381 1.085 4.814 1.634 7.312l1.861.42c.761.745.543 1.613-.856 3.266zm-5.261-11.038l-.574.13-.784 6.808h2.942c-.553-2.418-1.069-4.677-1.584-6.938z" fill="#000" sketch:type="MSShapeGroup"/><path d="M115.62 60.315c-.45-4.168 1.403-6.969 4.79-8.851.561-.314 1.382-.304 2.063-.236 3.338.329 4.949 2.346 5.839 5.504.644 2.286 1.836 4.433 1.31 6.89-.726 3.401-2.948 5.647-6.045 6.925-1.879.776-4.718-.621-5.884-2.635-1.378-2.383-2.525-4.853-2.073-7.598zm5.358-5.918c-.726.972-1.568 1.667-1.842 2.54-1.071 3.43-.576 6.692 1.62 9.592.86 1.14 1.646 1.15 3.043.693 1.624-.527 2.191-1.913 2.882-3.19.974-1.8.274-6.228-1.325-7.414-1.213-.9-2.721-1.402-4.378-2.222z" fill="#000" sketch:type="MSShapeGroup"/><path d="M71.926 58.074c-1.822.116-3.206.207-4.59.29-.97.058-1.597-.368-1.723-1.355-.111-.883.619-1.738 1.646-1.775 1.807-.064 3.621-.002 5.43-.002 2.612-.004 5.228.091 7.761-.763.373-.126.817-.093 1.221-.06.743.062 1.523.124 1.696 1.084.142.794-.666 2.131-1.44 2.329-.392.101-.815.105-1.225.122-1.834.07-3.67.132-5.704.203.14 4.118-.231 7.902.819 11.602.446 1.566.39 3.045-.805 4.228-.394.389-1.213.716-1.673.565-.456-.147-.982-.931-.992-1.446-.07-3.44.031-6.884-.014-10.324-.023-1.531-.258-3.057-.406-4.698" fill="#000" sketch:type="MSShapeGroup"/><path d="M178.872 51.999c.107 1.314.095 2.654.357 3.934.256 1.254-.179 2.131-1.126 2.739-.485.31-1.329.556-1.76.337-.65-.335-1.122-.939-1.015-1.984.254-2.428.439-4.9.266-7.327-.132-1.845-.937-3.632-1.287-5.475-.138-.724-.107-1.727.301-2.242.413-.521 1.374-.705 2.125-.792.198-.023.602.834.732 1.334.419 1.591.831 3.19 1.098 4.809.252 1.535.32 3.099.466 4.65l-.157.017" fill="#000" sketch:type="MSShapeGroup"/><path d="M104.819 47.388c2.177 1.314 1.314 3.496 1.766 5.244.359 1.378.163 2.826.908 4.222.685 1.282-.8 3.43-2.29 3.678-.949.157-1.587-.345-1.797-1.272-.107-.472-.142-.999-.052-1.473.487-2.548.072-5.043-.382-7.538-.301-1.647-.019-2.106 1.846-2.861" fill="#000" sketch:type="MSShapeGroup"/><path d="M172.685 66.922c.014-1.76 1.49-3.612 2.917-3.661 1.58-.054 3.718 1.806 3.757 3.275.052 1.795-2.108 3.814-4.079 3.814-1.716 0-2.614-1.183-2.595-3.428" fill="#000" sketch:type="MSShapeGroup"/><path d="M104.844 74.842c-1.78-1.694-1.106-3.767-.848-5.604.126-.904 1.261-1.618 2.484-1.597 1.653.027 2.8 1.088 3.237 3.09.357 1.628-.39 2.977-2.053 3.67-.299.124-.617.234-.935.275-.637.085-1.281.116-1.886.165" fill="#000" sketch:type="MSShapeGroup"/><path d="M89.278 65.159l2.166-7.759.662.025c.386 2.263.77 4.526 1.184 6.979l-4.013.755" fill="#fff" sketch:type="MSShapeGroup"/><path d="M39.269 59.055l1.584 6.938h-2.942l.784-6.808.574-.13" fill="#fff" sketch:type="MSShapeGroup"/><path d="M120.978 54.397c1.657.819 3.165 1.322 4.378 2.222 1.599 1.185 2.298 5.614 1.325 7.414-.691 1.276-1.258 2.662-2.882 3.19-1.397.457-2.183.447-3.043-.693-2.195-2.9-2.69-6.162-1.62-9.592.274-.873 1.116-1.568 1.842-2.54" fill="#fff" sketch:type="MSShapeGroup"/></g></svg>