<?xml version="1.0" encoding="UTF-8" standalone="no"?>
<svg width="211px" height="110px" viewBox="0 0 211 110" version="1.1" xmlns="http://www.w3.org/2000/svg" xmlns:xlink="http://www.w3.org/1999/xlink" xmlns:sketch="http://www.bohemiancoding.com/sketch/ns">
    <!-- Generator: Sketch 3.1.1 (8761) - http://www.bohemiancoding.com/sketch -->
    <title>santa-omg-hover</title>
    <desc>Created with Sketch.</desc>
    <defs></defs>
    <g id="Page-1" stroke="none" stroke-width="1" fill="none" fill-rule="evenodd" sketch:type="MSPage">
        <g id="Group" sketch:type="MSLayerGroup">
            <path d="M206.292227,99.9459525 C206.605815,100.473432 206.807998,100.810605 207.047315,101.211903 C204.854257,102.35374 202.593117,102.682639 200.317535,102.883288 C193.849766,103.456276 187.379935,103.975481 180.914229,104.5464 C180.020914,104.625004 179.14204,104.860819 178.256977,105.040782 C177.693755,105.156621 177.142911,105.377955 176.575563,105.419326 C174.83432,105.549644 174.223647,104.970452 173.996708,102.817095 C173.004364,104.271283 171.69018,103.913424 170.388374,103.911356 C164.479701,103.907219 158.568965,104.014783 152.660292,104.031331 C143.190736,104.054085 133.72118,104.037537 124.39604,104.037537 C123.839007,104.724294 123.434643,105.58481 122.762077,105.95508 C122.037935,106.35224 121.066222,106.372926 120.197664,106.406023 C118.992822,106.449462 117.781792,106.350172 116.574888,106.315007 C114.276612,106.246745 111.9804,106.184688 109.682124,106.116426 C109.193173,106.101946 108.702159,106.019204 108.219397,106.058507 C104.699776,106.356378 101.186343,106.70803 97.6646589,106.97901 C93.4043902,107.309977 89.1420584,107.762989 84.8756005,107.822977 C80.939236,107.878828 76.9966822,107.465118 73.0561916,107.297566 C69.4478575,107.144494 65.8374603,107.014175 62.225,106.931433 C60.4961355,106.892131 58.7590187,106.923159 57.0342804,107.049341 C56.0976402,107.119671 55.1836939,107.475461 54.2511799,107.663699 C53.6982734,107.777469 53.0793481,108.005009 52.5759556,107.866416 C49.3596075,106.972804 46.207215,107.713344 43.0341916,108.096025 C41.9799556,108.222206 40.8720794,108.489049 39.8632313,108.294605 C35.9516238,107.545792 32.2071262,108.733137 28.3924836,109.088927 C27.7405491,109.148915 27.0968668,109.29785 26.4449322,109.333016 C23.1605023,109.515048 19.8781355,109.78189 16.5937056,109.81085 C12.7460537,109.843947 8.96029439,109.353701 5.28181542,108.077408 C4.34517523,107.752646 3.20222664,108.027763 1.84884346,108.027763 C1.61984112,104.846339 1.35782944,101.923483 1.21753972,98.9923526 C1.12470093,97.0168909 1.14326869,95.0310864 1.21753972,93.0535562 C1.29593692,90.9953526 1.68998598,88.9350804 1.61158879,86.8892881 C1.4403528,82.3633088 1.84678037,77.8766318 2.10672897,73.3734065 C2.20575701,71.6689243 1.9994486,69.9127285 1.6879229,68.2247947 C1.15358411,65.3226242 0.427378505,62.455619 -0.21217757,59.5720654 C-0.261691589,59.350731 -0.331836449,59.0962998 -0.274070093,58.8915137 C0.68113785,55.5073719 0.322161215,52.1066818 0.107600467,48.6666892 C0.0209509346,47.2766261 0.757471963,45.66316 1.55588551,44.436512 C2.30272196,43.2884688 2.90514252,42.2686755 2.88038551,40.862064 C2.85769159,39.7243635 3.12795561,38.5825259 3.14858645,37.4406884 C3.17540654,36.0671736 3.34457944,34.6895218 2.13148598,33.5332044 C1.6095257,33.0367533 1.35164019,32.0314397 1.34751402,31.2536663 C1.32069393,27.4951177 0.544974299,23.7117465 1.70649065,19.9780203 C2.05308879,18.8630739 2.22432477,17.8288007 3.5055,17.2496078 C4.13680374,16.9662169 4.46277103,16.0002058 4.99504673,15.2451864 C8.39913551,14.8397513 11.9001893,14.4508646 15.3929907,13.9895788 C16.8577804,13.7972039 18.29575,13.41866 19.7564136,13.1849142 C25.8693318,12.2085604 32.0400164,12.2333829 38.2003855,12.2168346 C41.8128458,12.2085604 45.4418107,12.6677777 49.0336402,12.438169 C51.2555818,12.2954393 53.4218201,12.5126367 55.6086893,12.5622818 C57.2385257,12.5995156 58.864236,12.9884023 60.4899463,12.9925394 C62.3632266,12.994608 64.2323808,12.7112171 66.1077243,12.616064 C69.3096308,12.4526488 72.5156636,12.3637013 75.7175701,12.2002862 C81.4673855,11.9106897 87.2151379,11.5879965 92.9649533,11.2797831 C93.3713808,11.2590976 93.8314486,11.1329163 94.184236,11.2715089 C97.0746168,12.4112779 100.132107,11.9210324 103.088507,12.2892337 C107.573652,12.8477412 111.926759,11.8713873 116.343822,11.7700286 C123.240713,11.6107505 130.137603,11.4142386 137.034493,11.3707991 C142.590379,11.3356338 148.146264,11.5548997 153.70215,11.5466256 C155.732224,11.5424885 157.758173,11.166013 159.790311,11.029489 C164.935643,10.6819732 170.083037,10.382034 175.228369,10.048998 C180.148825,9.73044188 185.077533,9.50290179 189.981484,9.0167934 C192.496383,8.76856785 194.957643,8.01561699 197.451911,7.53571424 C200.668259,6.91721889 203.882544,6.296655 207.11746,5.79192969 C207.775584,5.68850238 208.512105,6.09186891 209.192923,6.25735262 C208.293418,12.2809595 208.953605,18.1949334 208.378005,24.0654679 C208.091236,26.9697069 209.05057,29.9318652 208.225336,32.8567897 C208.186138,32.9953823 208.264535,33.179483 208.316112,33.3346239 C209.044381,35.4693637 209.120715,37.647543 208.833946,39.8712303 C208.437834,42.9678441 209.504449,45.909317 209.828353,48.9293946 C210.193519,52.3280162 210.465846,55.7618031 210.424584,59.1749045 C210.362692,64.1766495 209.90675,69.1701204 209.780902,74.1718654 C209.729325,76.211452 209.912939,78.3006838 210.317304,80.3009681 C211.024942,83.7988799 210.236843,87.1995701 209.972769,90.633357 C209.828353,92.5178027 209.360033,94.3753573 209.194986,96.259803 C209.032002,98.1111519 208.043785,99.20955 206.292227,99.9459525 L206.292227,99.9459525 Z M6.63932477,18.9644327 L6.63932477,27.3317025 C6.63932477,27.4971862 6.62488318,27.6626699 6.61663084,27.8281536 C6.51347664,29.8801516 6.45571028,31.9383552 6.29478972,33.986216 C6.13799533,35.9947745 6.65582944,38.1088288 5.34577103,39.9643149 C5.09820093,40.3138992 5.19516589,40.9282575 5.18691355,41.42264 C5.16215654,42.7444411 5.08788551,44.0745164 5.17866121,45.3901119 C5.29419393,47.0656344 4.9207757,48.813556 6.20195093,50.3298005 C6.77136215,51.002078 6.40825935,51.872936 5.49225,52.3631815 C4.95378505,52.6486409 4.13061449,53.0809671 4.0893528,53.5091562 C3.8170257,56.4382178 3.45598598,59.3983076 3.62722196,62.3170264 C3.84797196,66.0900549 4.80524299,69.7886157 4.87745093,73.6112893 C4.93728037,76.8113305 5.44892523,80.0010289 5.73156776,83.1990015 C5.89867757,85.0772416 6.13799533,86.9637558 6.11323832,88.8440644 C6.0761028,91.8082913 5.78727103,94.7704496 5.71093692,97.736745 C5.65935981,99.6997955 5.79346028,101.669052 5.84710047,103.725187 C6.58568458,103.853436 7.13652804,104.010646 7.68943458,104.031331 C8.88602336,104.076839 10.0165935,104.080977 10.3116145,105.665483 C10.3673178,105.959217 11.0667033,106.31087 11.4834463,106.331555 C14.1860864,106.470148 16.8928528,106.528067 19.5975561,106.598397 C19.741972,106.602535 19.9709743,106.528067 20.0204883,106.422571 C20.7776402,104.84427 22.3744673,105.336584 23.5462991,105.187649 C25.4732196,104.941492 27.5775654,104.804968 29.3868902,105.353133 C30.8805631,105.802007 32.227757,105.89716 33.6842944,105.750293 C34.1732453,105.702717 34.6766379,105.497931 35.1387687,105.572398 C38.408757,106.095741 41.6519252,105.677894 44.8950935,105.359338 C46.1927734,105.233157 47.7235818,105.365544 48.7179883,104.71602 C50.3375093,103.658993 51.7589743,104.016852 53.3351706,104.407807 C54.1913505,104.620867 55.0743505,104.854613 55.944972,104.850476 C60.2774486,104.825653 64.5810421,104.333339 68.9382757,104.463658 C73.5183224,104.600182 78.1210631,104.151307 82.705236,103.843094 C90.4356121,103.32182 98.1783668,102.870877 105.877797,102.039321 C108.2751,101.778685 110.604322,102.091035 112.960364,101.909003 C114.757311,101.77041 116.562509,101.681463 118.365645,101.64216 C121.388063,101.578036 124.410481,101.573898 127.4329,101.534596 C127.676343,101.530459 127.958986,101.530459 128.159105,101.41462 C129.562002,100.607887 131.039171,100.980226 132.506023,101.089859 C133.065119,101.13123 133.630404,101.166395 134.187437,101.125024 C137.750383,100.866456 141.292699,101.164326 144.882465,100.214864 C148.082308,99.3667595 151.577173,99.6315335 154.942063,99.4184732 C157.393007,99.2633322 159.920285,99.4639812 162.276327,98.9137479 C166.237449,97.9911762 170.25221,97.982902 174.242215,97.5960839 C176.695222,97.3602696 179.16886,97.3375156 181.617741,97.0789473 C185.122921,96.7128146 188.555893,95.7095696 192.143596,96.0508798 C193.936416,96.2205006 195.747804,96.2908312 197.385893,95.1365823 C197.79232,94.8511229 198.646437,94.9793728 199.20347,95.1779532 C201.058182,95.835751 202.884012,96.4728632 204.91615,95.5585658 C205.062629,93.1838746 205.242117,90.7678125 205.355586,88.3496818 C205.497939,85.3316728 205.551579,82.3115951 205.710437,79.2956546 C205.782645,77.8993858 206.232397,76.4969114 206.135432,75.1233967 C205.823907,70.7194616 205.312262,66.3300063 204.93678,61.9302082 C204.833626,60.7035603 204.788238,59.4334728 204.973916,58.2233732 C205.421605,55.2839689 204.905834,52.5121169 203.909364,49.771293 C203.692741,49.1776202 203.55864,48.5156854 203.562766,47.8868473 C203.579271,44.7943705 203.616407,41.7018938 203.723687,38.6114856 C203.868103,34.4950784 203.830967,30.3497116 204.354991,26.2788124 C204.728409,23.3849161 204.850131,20.5551448 204.612876,17.6777968 C204.567488,17.1317006 204.421009,16.4408061 204.676832,16.0519194 C205.541264,14.736324 204.9636,13.865466 203.948563,13.1249264 C203.381215,12.7112171 202.438386,12.6202011 202.116544,12.100996 C200.719836,9.85869176 198.92289,10.7502352 197.13007,11.2508234 C195.397079,11.7327947 193.680593,12.3574957 191.91253,12.6098584 C189.001519,13.0277047 186.049245,13.1642288 183.121729,13.4786478 C180.268484,13.7868612 177.433806,14.3722598 174.576435,14.4777557 C169.078315,14.6804732 163.569881,14.6411708 158.067636,14.6804732 C154.607843,14.7032272 151.150114,14.6618563 147.690322,14.6928845 C146.221407,14.7073643 144.727734,14.690816 143.285638,14.9349044 C137.218107,15.9588349 131.162956,15.8574761 125.175886,14.5439492 C123.026152,14.0723206 120.946563,13.9688933 118.815397,14.2109132 C111.941201,14.9948923 105.067005,14.9659326 98.1556729,14.6618563 C93.0784229,14.4384533 87.9640374,14.6928845 82.8867874,15.0259205 C78.7977547,15.2969 74.7417313,16.0291654 70.663014,16.4904513 C70.0997921,16.5545762 69.4664252,16.3063506 68.9114556,16.0870847 C67.6405958,15.5823594 66.5079626,14.9845495 65.0142897,15.7602544 C63.8878458,16.345653 62.4890748,16.5421649 61.1913949,16.6249068 C57.7542967,16.8441727 54.3068832,16.9517371 50.8615327,17.0241362 C42.2440304,17.2061683 33.624465,17.3178698 25.0069626,17.5350671 C24.0827009,17.5578212 23.1130514,17.9653248 22.2671869,18.397651 C21.1696262,18.9561585 20.1731565,19.5539684 18.8383411,19.2147268 C18.2441729,19.0637229 17.5489136,19.3078113 16.9011051,19.3719363 C15.7767243,19.4836378 14.6544065,19.5932707 13.6228645,19.6946295 C13.1029673,18.9065134 12.7068551,18.3066349 12.360257,17.7832927 C10.470472,18.174248 8.71685047,18.5362436 6.63932477,18.9644327 L6.63932477,18.9644327 Z M177.466815,100.111436 C177.481257,100.351388 177.493636,100.58927 177.506014,100.829222 C183.231072,100.086614 189.137682,100.678218 194.664685,98.471079 C194.639928,98.2911154 194.617234,98.1132205 194.59454,97.9353255 C188.883923,98.6613852 183.175369,99.3853764 177.466815,100.111436 L177.466815,100.111436 Z" id="Fill-4" fill="#000000" sketch:type="MSShapeGroup"></path>
            <path d="M49.0460187,0.262705383 C49.0274509,0.343378689 49.0068201,0.421983449 48.9861893,0.502656756 C48.9758738,0.432326181 48.9573061,0.361995606 48.9614322,0.293733577 C48.9676215,0.213060271 48.9965047,0.134455511 49.0171355,0.0537822043 C49.0274509,0.124112779 49.0357033,0.194443354 49.0460187,0.262705383" id="Fill-29" fill="#000000" sketch:type="MSShapeGroup"></path>
            <path d="M6.63932477,18.9644327 C8.71685047,18.5362436 10.470472,18.174248 12.360257,17.7832927 C12.7068551,18.3066349 13.1029673,18.9065134 13.6228645,19.6946295 C14.6544065,19.5932707 15.7767243,19.4836378 16.9011051,19.3719363 C17.5489136,19.3078113 18.2441729,19.0637229 18.8383411,19.2147268 C20.1731565,19.5539684 21.1696262,18.9561585 22.2671869,18.397651 C23.1130514,17.9653248 24.0827009,17.5578212 25.0069626,17.5350671 C33.624465,17.3178698 42.2440304,17.2061683 50.8615327,17.0241362 C54.3068832,16.9517371 57.7542967,16.8441727 61.1913949,16.6249068 C62.4890748,16.5421649 63.8878458,16.345653 65.0142897,15.7602544 C66.5079626,14.9845495 67.6405958,15.5823594 68.9114556,16.0870847 C69.4664252,16.3063506 70.0997921,16.5545762 70.663014,16.4904513 C74.7417313,16.0291654 78.7977547,15.2969 82.8867874,15.0259205 C87.9640374,14.6928845 93.0784229,14.4384533 98.1556729,14.6618563 C105.067005,14.9659326 111.941201,14.9948923 118.815397,14.2109132 C120.946563,13.9688933 123.026152,14.0723206 125.175886,14.5439492 C131.162956,15.8574761 137.218107,15.9588349 143.285638,14.9349044 C144.727734,14.690816 146.221407,14.7073643 147.690322,14.6928845 C151.150114,14.6618563 154.607843,14.7032272 158.067636,14.6804732 C163.569881,14.6411708 169.078315,14.6804732 174.576435,14.4777557 C177.433806,14.3722598 180.268484,13.7868612 183.121729,13.4786478 C186.049245,13.1642288 189.001519,13.0277047 191.91253,12.6098584 C193.680593,12.3574957 195.397079,11.7327947 197.13007,11.2508234 C198.92289,10.7502352 200.719836,9.85869176 202.116544,12.100996 C202.438386,12.6202011 203.381215,12.7112171 203.948563,13.1249264 C204.9636,13.865466 205.541264,14.736324 204.676832,16.0519194 C204.421009,16.4408061 204.567488,17.1317006 204.612876,17.6777968 C204.850131,20.5551448 204.728409,23.3849161 204.354991,26.2788124 C203.830967,30.3497116 203.868103,34.4950784 203.723687,38.6114856 C203.616407,41.7018938 203.579271,44.7943705 203.562766,47.8868473 C203.55864,48.5156854 203.692741,49.1776202 203.909364,49.771293 C204.905834,52.5121169 205.421605,55.2839689 204.973916,58.2233732 C204.788238,59.4334728 204.833626,60.7035603 204.93678,61.9302082 C205.312262,66.3300063 205.823907,70.7194616 206.135432,75.1233967 C206.232397,76.4969114 205.782645,77.8993858 205.710437,79.2956546 C205.551579,82.3115951 205.497939,85.3316728 205.355586,88.3496818 C205.242117,90.7678125 205.062629,93.1838746 204.91615,95.5585658 C202.884012,96.4728632 201.058182,95.835751 199.20347,95.1779532 C198.646437,94.9793728 197.79232,94.8511229 197.385893,95.1365823 C195.747804,96.2908312 193.936416,96.2205006 192.143596,96.0508798 C188.555893,95.7095696 185.122921,96.7128146 181.617741,97.0789473 C179.16886,97.3375156 176.695222,97.3602696 174.242215,97.5960839 C170.25221,97.982902 166.237449,97.9911762 162.276327,98.9137479 C159.920285,99.4639812 157.393007,99.2633322 154.942063,99.4184732 C151.577173,99.6315335 148.082308,99.3667595 144.882465,100.214864 C141.292699,101.164326 137.750383,100.866456 134.187437,101.125024 C133.630404,101.166395 133.065119,101.13123 132.506023,101.089859 C131.039171,100.980226 129.562002,100.607887 128.159105,101.41462 C127.958986,101.530459 127.676343,101.530459 127.4329,101.534596 C124.410481,101.573898 121.388063,101.578036 118.365645,101.64216 C116.562509,101.681463 114.757311,101.77041 112.960364,101.909003 C110.604322,102.091035 108.2751,101.778685 105.877797,102.039321 C98.1783668,102.870877 90.4356121,103.32182 82.705236,103.843094 C78.1210631,104.151307 73.5183224,104.600182 68.9382757,104.463658 C64.5810421,104.333339 60.2774486,104.825653 55.944972,104.850476 C55.0743505,104.854613 54.1913505,104.620867 53.3351706,104.407807 C51.7589743,104.016852 50.3375093,103.658993 48.7179883,104.71602 C47.7235818,105.365544 46.1927734,105.233157 44.8950935,105.359338 C41.6519252,105.677894 38.408757,106.095741 35.1387687,105.572398 C34.6766379,105.497931 34.1732453,105.702717 33.6842944,105.750293 C32.227757,105.89716 30.8805631,105.802007 29.3868902,105.353133 C27.5775654,104.804968 25.4732196,104.941492 23.5462991,105.187649 C22.3744673,105.336584 20.7776402,104.84427 20.0204883,106.422571 C19.9709743,106.528067 19.741972,106.602535 19.5975561,106.598397 C16.8928528,106.528067 14.1860864,106.470148 11.4834463,106.331555 C11.0667033,106.31087 10.3673178,105.959217 10.3116145,105.665483 C10.0165935,104.080977 8.88602336,104.076839 7.68943458,104.031331 C7.13652804,104.010646 6.58568458,103.853436 5.84710047,103.725187 C5.79346028,101.669052 5.65935981,99.6997955 5.71093692,97.736745 C5.78727103,94.7704496 6.0761028,91.8082913 6.11323832,88.8440644 C6.13799533,86.9637558 5.89867757,85.0772416 5.73156776,83.1990015 C5.44892523,80.0010289 4.93728037,76.8113305 4.87745093,73.6112893 C4.80524299,69.7886157 3.84797196,66.0900549 3.62722196,62.3170264 C3.45598598,59.3983076 3.8170257,56.4382178 4.0893528,53.5091562 C4.13061449,53.0809671 4.95378505,52.6486409 5.49225,52.3631815 C6.40825935,51.872936 6.77136215,51.002078 6.20195093,50.3298005 C4.9207757,48.813556 5.29419393,47.0656344 5.17866121,45.3901119 C5.08788551,44.0745164 5.16215654,42.7444411 5.18691355,41.42264 C5.19516589,40.9282575 5.09820093,40.3138992 5.34577103,39.9643149 C6.65582944,38.1088288 6.13799533,35.9947745 6.29478972,33.986216 C6.45571028,31.9383552 6.51347664,29.8801516 6.61663084,27.8281536 C6.62488318,27.6626699 6.63932477,27.4971862 6.63932477,27.3317025 L6.63932477,18.9644327 L6.63932477,18.9644327 Z M19.9544696,72.2460487 C18.5577617,73.3030759 17.3962453,74.3518289 16.0717453,75.1213281 C15.2857103,75.5784769 14.6482173,75.9053072 14.7616869,76.9188949 C14.8689673,77.8807689 15.5147126,78.2386274 16.3481986,78.5716634 C18.5082477,79.4363157 20.7095584,79.4218359 22.9088061,78.9708928 C25.3948224,78.4620304 27.4393388,77.191943 28.7824065,74.9599815 C29.9294813,73.0569189 30.2306916,70.8766711 29.0279136,69.1122011 C27.0102173,66.1479742 24.623229,63.4257672 21.2459603,61.8247124 C20.4434206,61.4440999 19.7110257,60.8649069 19.0384603,60.2712341 C17.7820421,59.1666304 17.7428435,58.5171068 18.6114019,56.5416451 C19.2571472,55.0750457 20.0720654,54.6158285 21.6193785,54.7916549 C23.1047991,54.9612757 24.5964089,55.1081425 25.4649673,53.322987 C24.9471332,52.6403667 24.4086682,51.9349924 23.8970234,51.2627149 C22.8159673,51.2627149 21.8256869,51.2130698 20.845722,51.2813318 C20.2102921,51.3247713 19.3974369,51.3433882 18.9971986,51.7240007 C17.7655374,52.9010036 16.3812079,54.0842121 15.6199299,55.5590856 C13.9178855,58.8666911 13.8745607,60.9021407 17.0001332,63.2954488 C17.7118972,63.8394765 18.5556986,64.2138834 19.2695257,64.7579111 C21.6523879,66.5803004 24.3220187,68.0799965 25.9105935,70.8001349 C26.634736,72.0391941 26.7667734,74.1594541 25.7166636,74.8193204 C23.6040654,76.1452585 21.2975374,77.1009269 18.7455023,76.5010485 C18.2895607,74.6993447 21.5719276,74.446982 19.9544696,72.2460487 L19.9544696,72.2460487 Z M63.3865164,54.1669539 C61.7277967,54.3551916 61.1150607,55.1226223 61.3028014,56.3740928 C61.808257,59.7768515 61.1274393,63.0947998 60.5621542,66.3961997 C60.3001425,67.9186498 60.4713785,69.7058739 59.0726075,70.96355 C57.244715,66.540998 55.4106332,62.2487644 53.7168411,57.90068 C53.3021612,56.8395158 52.5202523,56.6802377 51.800236,56.8457214 C51.2205093,56.9781084 50.6304673,57.6421117 50.329257,58.2192361 C50.0940654,58.6660422 50.2694276,59.3445253 50.3086262,59.9175127 C50.6449089,64.822036 49.5865467,69.5507329 48.6086449,74.4180224 C49.1120374,74.8400058 49.2812103,75.8722104 50.5149346,75.5970938 C51.5340981,75.3695537 51.8414977,74.7220987 52.0003551,73.8802003 C52.1179509,73.2534308 52.192222,72.6121814 52.2272944,71.9750692 C52.3675841,69.3025073 52.3717103,66.6154657 52.9761939,63.4671382 C54.9485023,68.104819 56.6959346,72.2170891 58.4578084,76.3603874 C59.0292827,76.1990408 59.5037921,76.2093835 59.6193248,76.0087345 C60.3909182,74.6807278 61.3708832,73.3796121 61.7443014,71.9316297 C62.4395607,69.2342453 62.8707453,66.454119 63.207028,63.682267 C63.4009579,62.0688008 63.6320234,60.6022015 65.0246051,59.7478919 C64.4696355,57.8572405 63.9518014,56.0886334 63.3865164,54.1669539 L63.3865164,54.1669539 Z M156.066444,65.7197851 C156.241806,63.280969 156.243869,60.9704028 156.617287,58.7198244 C156.961822,56.6326611 157.828318,54.6344454 158.222367,52.5514192 C158.469937,51.2461665 158.267755,49.8540348 158.267755,48.5343023 C155.730161,48.3191735 155.717783,48.3171049 155.331986,50.3029094 C155.016334,51.9163755 154.680051,53.5277731 154.455175,55.1557191 C154.009549,58.3950626 153.477273,61.6344061 153.275091,64.8923666 C153.077035,68.0696537 155.257715,69.9644421 158.395666,69.5031563 C159.839825,69.290096 161.2551,68.7729595 162.633241,68.2558229 C163.256292,68.0200086 163.9041,67.5545857 164.281645,67.0126266 C165.457603,65.3164186 165.191465,63.43611 164.828362,61.5289103 C164.681883,60.7511368 163.930921,59.9278554 164.663315,58.9390903 C165.278114,59.7313435 165.802138,60.4098267 166.301404,61.0531446 C168.777105,59.9650892 169.222731,58.7384413 168.164369,56.3078993 C167.582579,54.9716184 166.798607,54.4441391 165.529811,54.8743968 C163.668909,55.5053034 161.801818,56.1920608 160.083269,57.1229066 C159.445776,57.4683538 158.896995,58.5584777 158.876364,59.3238399 C158.849544,60.2960567 159.720166,60.8256045 160.784717,60.8256045 C161.168451,60.8256045 161.550121,61.0076366 161.834827,61.0800357 C162.604357,62.6148971 163.006659,64.1911294 161.818322,65.337104 C160.306082,66.7995663 158.36472,66.4975585 156.066444,65.7197851 L156.066444,65.7197851 Z M82.7712547,71.8323395 C82.8104533,71.9336982 82.8661565,72.2894882 83.0600864,72.5397823 C84.1824042,73.9836276 85.1417383,73.9070914 86.0763154,72.3060366 C86.2826238,71.9543837 86.4002196,71.5510172 86.5755818,71.1807474 C87.1037313,70.0761436 87.6421963,68.9736085 88.003236,68.2268632 C90.1797897,67.8772789 91.976736,67.589751 93.8933411,67.2836061 C94.6092313,70.3491918 95.2756075,73.1996486 95.9337313,76.0232143 C97.6027664,76.4141696 98.2629533,75.1275338 98.64875,74.0953291 C99.1005654,72.883161 98.7312734,71.5737712 97.8585888,70.4526191 C97.2809252,69.7120795 96.8249836,68.84329 96.4721963,67.968295 C96.0038762,66.8016348 96.7816589,66.0197243 97.7265514,65.4425999 C97.3201238,64.8468586 97.1323832,64.2345688 96.7507126,64.0732222 C95.5995117,63.5829768 95.5933224,62.6045543 95.4654112,61.6323376 C94.9785234,57.9048171 94.4875093,54.1772966 94.0047477,50.509764 C91.6858411,50.3608287 91.3598738,50.3856512 91.14325,52.1335729 C90.8791752,54.262107 89.7403528,55.9479723 88.9770117,57.8282809 C87.9269019,60.4118952 87.045965,63.0699773 85.9360257,65.6267005 C85.059215,67.6414646 83.9451495,69.5528014 82.7712547,71.8323395 L82.7712547,71.8323395 Z M143.473379,49.5189303 C141.88893,50.7662638 142.192203,53.3374668 140.180696,54.1917765 C138.71797,52.72104 139.561771,49.4775594 136.473334,49.3720635 C134.872381,50.3980625 134.51753,51.8998271 134.575297,53.5215675 C134.643379,55.443247 134.313285,57.2677048 133.698486,59.08182 C133.067182,60.9517858 132.627745,62.8879452 131.969621,64.7475683 C131.750935,65.359858 131.111379,65.8232124 130.709077,66.3031152 C131.439409,67.7862629 132.258453,69.1204752 134.311222,68.0179401 C135.150897,64.0773593 136.013266,60.0292142 136.980853,55.4825494 C137.535822,56.806419 137.845285,57.540753 138.127928,58.210962 C139.766016,58.2254418 139.766016,58.2254418 143.706507,54.7895864 C144.768995,58.4364335 145.321902,62.0605267 144.762806,65.7280593 C144.595696,66.8305945 144.793752,67.54838 145.208432,68.3489075 C148.166895,68.150327 149.045769,66.9257476 148.187526,64.4145324 C148.005974,63.8808474 147.847117,63.3285456 147.770783,62.7721066 C147.298336,59.3610737 146.875404,55.9417667 146.392643,52.5328023 C146.167766,50.9503644 145.470444,49.7154422 143.473379,49.5189303 L143.473379,49.5189303 Z M44.5299276,70.092692 C45.9286986,68.4399235 46.1473855,67.5711341 45.3861075,66.8264574 C44.78575,66.6920019 44.1606355,66.5492722 43.5252056,66.4065425 C42.9764252,63.9077385 42.5266729,61.4751281 41.891243,59.0942312 C41.5363925,57.7579503 40.8844579,56.4982056 40.3563084,55.2115698 C39.9148084,54.1379943 38.9389696,53.9580307 38.1034206,54.326232 C37.5917757,54.549635 37.2162944,55.3873962 37.0491846,56.0203714 C36.8428762,56.8002134 37.0079229,57.6710714 36.8573178,58.4736673 C36.2363294,61.7895471 35.5905841,65.1012898 34.8870724,68.4006211 C34.6168084,69.6665715 34.1691192,70.8932194 33.7668178,72.2563915 C32.8239883,71.9626579 32.1080981,71.7392549 31.0621145,71.410356 C31.3055584,72.1260731 31.3365047,72.568742 31.5675701,72.8335159 C32.4381916,73.8284867 33.0488645,74.8007034 32.8466822,76.2797141 C32.7249603,77.1733261 33.4738598,77.7897529 34.534285,77.3946605 C34.9840374,77.2271083 35.4131589,76.9995682 35.8381542,76.8051248 C36.0568411,75.3323198 36.1538061,73.9257083 36.4859626,72.5790847 C37.2823131,69.3397412 37.6516051,69.1059954 41.0742617,69.1639147 C41.3053271,69.1680518 41.5322664,69.3066444 41.7509533,69.3790435 C41.9737664,70.1175146 42.2625981,70.8104776 42.3740047,71.5282632 C42.4998528,72.3412019 42.3554369,73.2017171 42.5369883,73.9939704 C42.6710888,74.5814375 43.0568855,75.4522955 43.4756916,75.5474487 C44.0574813,75.6777671 44.9157243,75.3654166 45.4067383,74.9496388 C46.8900958,73.6878255 46.5661916,71.8737104 44.5299276,70.092692 L44.5299276,70.092692 Z M115.61968,60.3146736 C115.167864,63.0596345 116.314939,65.5294788 117.693079,67.9124442 C118.858722,69.9272083 121.697526,71.3234771 123.576995,70.5477722 C126.673685,69.2694106 128.895626,67.0229693 129.621832,63.6222791 C130.147918,61.1648461 128.955456,59.017695 128.311773,56.7319513 C127.422584,53.5732811 125.811315,51.5564485 122.473245,51.2275496 C121.792428,51.1592876 120.97132,51.1489448 120.410161,51.4633639 C117.022577,53.345741 115.169928,56.1465527 115.61968,60.3146736 L115.61968,60.3146736 Z M71.9256215,58.0744379 C72.0741636,59.7147951 72.3093551,61.2413823 72.3320491,62.7721066 C72.3774369,66.2120991 72.2763458,69.6562287 72.3464907,73.0962213 C72.3568061,73.6112893 72.8828925,74.3952684 73.3388341,74.5421352 C73.7989019,74.693139 74.6179463,74.3663087 75.0119953,73.977422 C76.206521,72.7942135 76.2622243,71.3152029 75.8165981,69.7493133 C74.7664883,66.048684 75.1378435,62.2653127 74.9975537,58.146837 C77.0317547,58.0765065 78.8678995,58.0144501 80.7019813,57.9441195 C81.112535,57.9275711 81.5354673,57.923434 81.9274533,57.8220753 C82.7011098,57.6234948 83.5098388,56.2872139 83.367486,55.4928921 C83.1941869,54.5330866 82.4143411,54.4710302 81.6716308,54.4089738 C81.2672664,54.3758771 80.8237033,54.3427803 80.450285,54.4689617 C77.9168178,55.3232713 75.3008271,55.2281182 72.6889626,55.2322553 C70.8796379,55.2322553 69.0661869,55.1701989 67.2589252,55.2343238 C66.2315093,55.2715576 65.5011776,56.1258673 65.6125841,57.0091366 C65.7384322,57.9958331 66.3656098,58.4219537 67.3352593,58.3640344 C68.7195888,58.2812925 70.1039182,58.1902765 71.9256215,58.0744379 L71.9256215,58.0744379 Z M178.871776,51.9991174 C178.925416,51.9929117 178.976993,51.9887746 179.02857,51.982569 C178.882091,50.4311593 178.814009,48.8673382 178.562313,47.3324769 C178.296175,45.7128051 177.883558,44.1138188 177.464752,42.5231067 C177.334778,42.0225185 176.930414,41.1661403 176.732357,41.1888943 C175.981395,41.2757732 175.019998,41.4598739 174.607381,41.9811475 C174.19889,42.4962156 174.167944,43.4994605 174.306171,44.2234518 C174.656895,46.0665265 175.461498,47.8537505 175.593535,49.6988939 C175.766834,52.1252987 175.581157,54.5972115 175.327397,57.0256849 C175.220117,58.0703008 175.692563,58.6743163 176.342435,59.0094208 C176.773619,59.2286868 177.617421,58.9825297 178.102245,58.6722478 C179.049201,58.0640952 179.484512,57.1870315 179.228689,55.9334925 C178.966678,54.6530623 178.979056,53.3126443 178.871776,51.9991174 L178.871776,51.9991174 Z M104.819435,47.3883276 C102.954407,48.143347 102.671764,48.6025643 102.972974,50.2491272 C103.426853,52.743794 103.841533,55.2384609 103.354645,57.78691 C103.263869,58.2606071 103.298942,58.7880864 103.406222,59.2597149 C103.616657,60.1864237 104.25415,60.6890805 105.203168,60.5318709 C106.692715,60.2836454 108.178136,58.1364943 107.493192,56.8539956 C106.748418,55.4577268 106.944411,54.0097444 106.585435,52.6320925 C106.133619,50.8841709 106.995988,48.7018545 104.819435,47.3883276 L104.819435,47.3883276 Z M172.684586,66.9216105 C172.666019,69.1659833 173.56346,70.3491918 175.279946,70.3491918 C177.250192,70.3491918 179.410241,68.3302906 179.358664,66.5347924 C179.319465,65.0661245 177.18211,63.2065013 175.601787,63.2602835 C174.174133,63.3099286 172.699028,65.1612776 172.684586,66.9216105 L172.684586,66.9216105 Z M104.844192,74.8420744 C105.448675,74.7924293 106.092357,74.7614011 106.72985,74.6765907 C107.047565,74.6352197 107.36528,74.5255868 107.664428,74.401474 C109.327273,73.708511 110.07411,72.3598188 109.717196,70.7318728 C109.279822,68.72952 108.132748,67.6683557 106.480217,67.6414646 C105.256808,67.6207792 104.122112,68.3344276 103.996264,69.2383824 C103.738379,71.0752515 103.06375,73.1479349 104.844192,74.8420744 L104.844192,74.8420744 Z" id="Fill-40" fill="#FFFFFF" sketch:type="MSShapeGroup"></path>
            <path d="M177.466815,100.111436 C183.175369,99.3853764 188.883923,98.6613852 194.59454,97.9353255 C194.617234,98.1132205 194.639928,98.2911154 194.664685,98.471079 C189.137682,100.678218 183.231072,100.086614 177.506014,100.829222 C177.493636,100.58927 177.481257,100.351388 177.466815,100.111436" id="Fill-41" fill="#FFFFFF" sketch:type="MSShapeGroup"></path>
            <path d="M19.9544696,72.2460487 C21.5719276,74.446982 18.2895607,74.6993447 18.7455023,76.5010485 C21.2975374,77.1009269 23.6040654,76.1452585 25.7166636,74.8193204 C26.7667734,74.1594541 26.634736,72.0391941 25.9105935,70.8001349 C24.3220187,68.0799965 21.6523879,66.5803004 19.2695257,64.7579111 C18.5556986,64.2138834 17.7118972,63.8394765 17.0001332,63.2954488 C13.8745607,60.9021407 13.9178855,58.8666911 15.6199299,55.5590856 C16.3812079,54.0842121 17.7655374,52.9010036 18.9971986,51.7240007 C19.3974369,51.3433882 20.2102921,51.3247713 20.845722,51.2813318 C21.8256869,51.2130698 22.8159673,51.2627149 23.8970234,51.2627149 C24.4086682,51.9349924 24.9471332,52.6403667 25.4649673,53.322987 C24.5964089,55.1081425 23.1047991,54.9612757 21.6193785,54.7916549 C20.0720654,54.6158285 19.2571472,55.0750457 18.6114019,56.5416451 C17.7428435,58.5171068 17.7820421,59.1666304 19.0384603,60.2712341 C19.7110257,60.8649069 20.4434206,61.4440999 21.2459603,61.8247124 C24.623229,63.4257672 27.0102173,66.1479742 29.0279136,69.1122011 C30.2306916,70.8766711 29.9294813,73.0569189 28.7824065,74.9599815 C27.4393388,77.191943 25.3948224,78.4620304 22.9088061,78.9708928 C20.7095584,79.4218359 18.5082477,79.4363157 16.3481986,78.5716634 C15.5147126,78.2386274 14.8689673,77.8807689 14.7616869,76.9188949 C14.6482173,75.9053072 15.2857103,75.5784769 16.0717453,75.1213281 C17.3962453,74.3518289 18.5577617,73.3030759 19.9544696,72.2460487" id="Fill-127" fill="#000000" sketch:type="MSShapeGroup"></path>
            <path d="M63.3865164,54.1669539 C63.9518014,56.0886334 64.4696355,57.8572405 65.0246051,59.7478919 C63.6320234,60.6022015 63.4009579,62.0688008 63.207028,63.682267 C62.8707453,66.454119 62.4395607,69.2342453 61.7443014,71.9316297 C61.3708832,73.3796121 60.3909182,74.6807278 59.6193248,76.0087345 C59.5037921,76.2093835 59.0292827,76.1990408 58.4578084,76.3603874 C56.6959346,72.2170891 54.9485023,68.104819 52.9761939,63.4671382 C52.3717103,66.6154657 52.3675841,69.3025073 52.2272944,71.9750692 C52.192222,72.6121814 52.1179509,73.2534308 52.0003551,73.8802003 C51.8414977,74.7220987 51.5340981,75.3695537 50.5149346,75.5970938 C49.2812103,75.8722104 49.1120374,74.8400058 48.6086449,74.4180224 C49.5865467,69.5507329 50.6449089,64.822036 50.3086262,59.9175127 C50.2694276,59.3445253 50.0940654,58.6660422 50.329257,58.2192361 C50.6304673,57.6421117 51.2205093,56.9781084 51.800236,56.8457214 C52.5202523,56.6802377 53.3021612,56.8395158 53.7168411,57.90068 C55.4106332,62.2487644 57.244715,66.540998 59.0726075,70.96355 C60.4713785,69.7058739 60.3001425,67.9186498 60.5621542,66.3961997 C61.1274393,63.0947998 61.808257,59.7768515 61.3028014,56.3740928 C61.1150607,55.1226223 61.7277967,54.3551916 63.3865164,54.1669539" id="Fill-128" fill="#000000" sketch:type="MSShapeGroup"></path>
            <path d="M156.066444,65.7197851 C158.36472,66.4975585 160.306082,66.7995663 161.818322,65.337104 C163.006659,64.1911294 162.604357,62.6148971 161.834827,61.0800357 C161.550121,61.0076366 161.168451,60.8256045 160.784717,60.8256045 C159.720166,60.8256045 158.849544,60.2960567 158.876364,59.3238399 C158.896995,58.5584777 159.445776,57.4683538 160.083269,57.1229066 C161.801818,56.1920608 163.668909,55.5053034 165.529811,54.8743968 C166.798607,54.4441391 167.582579,54.9716184 168.164369,56.3078993 C169.222731,58.7384413 168.777105,59.9650892 166.301404,61.0531446 C165.802138,60.4098267 165.278114,59.7313435 164.663315,58.9390903 C163.930921,59.9278554 164.681883,60.7511368 164.828362,61.5289103 C165.191465,63.43611 165.457603,65.3164186 164.281645,67.0126266 C163.9041,67.5545857 163.256292,68.0200086 162.633241,68.2558229 C161.2551,68.7729595 159.839825,69.290096 158.395666,69.5031563 C155.257715,69.9644421 153.077035,68.0696537 153.275091,64.8923666 C153.477273,61.6344061 154.009549,58.3950626 154.455175,55.1557191 C154.680051,53.5277731 155.016334,51.9163755 155.331986,50.3029094 C155.717783,48.3171049 155.730161,48.3191735 158.267755,48.5343023 C158.267755,49.8540348 158.469937,51.2461665 158.222367,52.5514192 C157.828318,54.6344454 156.961822,56.6326611 156.617287,58.7198244 C156.243869,60.9704028 156.241806,63.280969 156.066444,65.7197851" id="Fill-129" fill="#000000" sketch:type="MSShapeGroup"></path>
            <path d="M82.7712547,71.8323395 C83.9451495,69.5528014 85.059215,67.6414646 85.9360257,65.6267005 C87.045965,63.0699773 87.9269019,60.4118952 88.9770117,57.8282809 C89.7403528,55.9479723 90.8791752,54.262107 91.14325,52.1335729 C91.3598738,50.3856512 91.6858411,50.3608287 94.0047477,50.509764 C94.4875093,54.1772966 94.9785234,57.9048171 95.4654112,61.6323376 C95.5933224,62.6045543 95.5995117,63.5829768 96.7507126,64.0732222 C97.1323832,64.2345688 97.3201238,64.8468586 97.7265514,65.4425999 C96.7816589,66.0197243 96.0038762,66.8016348 96.4721963,67.968295 C96.8249836,68.84329 97.2809252,69.7120795 97.8585888,70.4526191 C98.7312734,71.5737712 99.1005654,72.883161 98.64875,74.0953291 C98.2629533,75.1275338 97.6027664,76.4141696 95.9337313,76.0232143 C95.2756075,73.1996486 94.6092313,70.3491918 93.8933411,67.2836061 C91.976736,67.589751 90.1797897,67.8772789 88.003236,68.2268632 C87.6421963,68.9736085 87.1037313,70.0761436 86.5755818,71.1807474 C86.4002196,71.5510172 86.2826238,71.9543837 86.0763154,72.3060366 C85.1417383,73.9070914 84.1824042,73.9836276 83.0600864,72.5397823 C82.8661565,72.2894882 82.8104533,71.9336982 82.7712547,71.8323395 L82.7712547,71.8323395 Z M89.278222,65.159209 C90.8771121,64.8592698 92.0303762,64.6420725 93.2909206,64.4041896 C92.8762407,61.9508937 92.492507,59.687904 92.1067103,57.4249144 C91.8859603,57.4166402 91.6652103,57.408366 91.4444603,57.4000918 C90.7595164,59.8533877 90.0745724,62.3087522 89.278222,65.159209 L89.278222,65.159209 Z" id="Fill-130" fill="#000000" sketch:type="MSShapeGroup"></path>
            <path d="M143.473379,49.5189303 C145.470444,49.7154422 146.167766,50.9503644 146.392643,52.5328023 C146.875404,55.9417667 147.298336,59.3610737 147.770783,62.7721066 C147.847117,63.3285456 148.005974,63.8808474 148.187526,64.4145324 C149.045769,66.9257476 148.166895,68.150327 145.208432,68.3489075 C144.793752,67.54838 144.595696,66.8305945 144.762806,65.7280593 C145.321902,62.0605267 144.768995,58.4364335 143.706507,54.7895864 C139.766016,58.2254418 139.766016,58.2254418 138.127928,58.210962 C137.845285,57.540753 137.535822,56.806419 136.980853,55.4825494 C136.013266,60.0292142 135.150897,64.0773593 134.311222,68.0179401 C132.258453,69.1204752 131.439409,67.7862629 130.709077,66.3031152 C131.111379,65.8232124 131.750935,65.359858 131.969621,64.7475683 C132.627745,62.8879452 133.067182,60.9517858 133.698486,59.08182 C134.313285,57.2677048 134.643379,55.443247 134.575297,53.5215675 C134.51753,51.8998271 134.872381,50.3980625 136.473334,49.3720635 C139.561771,49.4775594 138.71797,52.72104 140.180696,54.1917765 C142.192203,53.3374668 141.88893,50.7662638 143.473379,49.5189303" id="Fill-131" fill="#000000" sketch:type="MSShapeGroup"></path>
            <path d="M44.5299276,70.092692 C46.5661916,71.8737104 46.8900958,73.6878255 45.4067383,74.9496388 C44.9157243,75.3654166 44.0574813,75.6777671 43.4756916,75.5474487 C43.0568855,75.4522955 42.6710888,74.5814375 42.5369883,73.9939704 C42.3554369,73.2017171 42.4998528,72.3412019 42.3740047,71.5282632 C42.2625981,70.8104776 41.9737664,70.1175146 41.7509533,69.3790435 C41.5322664,69.3066444 41.3053271,69.1680518 41.0742617,69.1639147 C37.6516051,69.1059954 37.2823131,69.3397412 36.4859626,72.5790847 C36.1538061,73.9257083 36.0568411,75.3323198 35.8381542,76.8051248 C35.4131589,76.9995682 34.9840374,77.2271083 34.534285,77.3946605 C33.4738598,77.7897529 32.7249603,77.1733261 32.8466822,76.2797141 C33.0488645,74.8007034 32.4381916,73.8284867 31.5675701,72.8335159 C31.3365047,72.568742 31.3055584,72.1260731 31.0621145,71.410356 C32.1080981,71.7392549 32.8239883,71.9626579 33.7668178,72.2563915 C34.1691192,70.8932194 34.6168084,69.6665715 34.8870724,68.4006211 C35.5905841,65.1012898 36.2363294,61.7895471 36.8573178,58.4736673 C37.0079229,57.6710714 36.8428762,56.8002134 37.0491846,56.0203714 C37.2162944,55.3873962 37.5917757,54.549635 38.1034206,54.326232 C38.9389696,53.9580307 39.9148084,54.1379943 40.3563084,55.2115698 C40.8844579,56.4982056 41.5363925,57.7579503 41.891243,59.0942312 C42.5266729,61.4751281 42.9764252,63.9077385 43.5252056,66.4065425 C44.1606355,66.5492722 44.78575,66.6920019 45.3861075,66.8264574 C46.1473855,67.5711341 45.9286986,68.4399235 44.5299276,70.092692 L44.5299276,70.092692 Z M39.2690631,59.0549289 C39.0771963,59.0983683 38.8873925,59.1418078 38.6955257,59.1852473 C38.4355771,61.4358257 38.1776916,63.6864041 37.9115537,65.9928332 L40.8535117,65.9928332 C40.3006051,63.5747026 39.7848341,61.31585 39.2690631,59.0549289 L39.2690631,59.0549289 Z" id="Fill-132" fill="#000000" sketch:type="MSShapeGroup"></path>
            <path d="M115.61968,60.3146736 C115.169928,56.1465527 117.022577,53.345741 120.410161,51.4633639 C120.97132,51.1489448 121.792428,51.1592876 122.473245,51.2275496 C125.811315,51.5564485 127.422584,53.5732811 128.311773,56.7319513 C128.955456,59.017695 130.147918,61.1648461 129.621832,63.6222791 C128.895626,67.0229693 126.673685,69.2694106 123.576995,70.5477722 C121.697526,71.3234771 118.858722,69.9272083 117.693079,67.9124442 C116.314939,65.5294788 115.167864,63.0596345 115.61968,60.3146736 L115.61968,60.3146736 Z M120.977509,54.3965626 C120.251304,55.3687793 119.409565,56.0638109 119.135175,56.9367374 C118.064435,60.3663872 118.559575,63.6284848 120.754696,66.5285867 C121.615002,67.6683557 122.401037,67.6786985 123.797745,67.2215497 C125.421393,66.6940704 125.988741,65.3081444 126.679874,64.0318513 C127.65365,62.232216 126.954264,57.8034583 125.355374,56.6181813 C124.14228,55.7183636 122.634166,55.2157069 120.977509,54.3965626 L120.977509,54.3965626 Z" id="Fill-133" fill="#000000" sketch:type="MSShapeGroup"></path>
            <path d="M71.9256215,58.0744379 C70.1039182,58.1902765 68.7195888,58.2812925 67.3352593,58.3640344 C66.3656098,58.4219537 65.7384322,57.9958331 65.6125841,57.0091366 C65.5011776,56.1258673 66.2315093,55.2715576 67.2589252,55.2343238 C69.0661869,55.1701989 70.8796379,55.2322553 72.6889626,55.2322553 C75.3008271,55.2281182 77.9168178,55.3232713 80.450285,54.4689617 C80.8237033,54.3427803 81.2672664,54.3758771 81.6716308,54.4089738 C82.4143411,54.4710302 83.1941869,54.5330866 83.367486,55.4928921 C83.5098388,56.2872139 82.7011098,57.6234948 81.9274533,57.8220753 C81.5354673,57.923434 81.112535,57.9275711 80.7019813,57.9441195 C78.8678995,58.0144501 77.0317547,58.0765065 74.9975537,58.146837 C75.1378435,62.2653127 74.7664883,66.048684 75.8165981,69.7493133 C76.2622243,71.3152029 76.206521,72.7942135 75.0119953,73.977422 C74.6179463,74.3663087 73.7989019,74.693139 73.3388341,74.5421352 C72.8828925,74.3952684 72.3568061,73.6112893 72.3464907,73.0962213 C72.2763458,69.6562287 72.3774369,66.2120991 72.3320491,62.7721066 C72.3093551,61.2413823 72.0741636,59.7147951 71.9256215,58.0744379" id="Fill-134" fill="#000000" sketch:type="MSShapeGroup"></path>
            <path d="M178.871776,51.9991174 C178.979056,53.3126443 178.966678,54.6530623 179.228689,55.9334925 C179.484512,57.1870315 179.049201,58.0640952 178.102245,58.6722478 C177.617421,58.9825297 176.773619,59.2286868 176.342435,59.0094208 C175.692563,58.6743163 175.220117,58.0703008 175.327397,57.0256849 C175.581157,54.5972115 175.766834,52.1252987 175.593535,49.6988939 C175.461498,47.8537505 174.656895,46.0665265 174.306171,44.2234518 C174.167944,43.4994605 174.19889,42.4962156 174.607381,41.9811475 C175.019998,41.4598739 175.981395,41.2757732 176.732357,41.1888943 C176.930414,41.1661403 177.334778,42.0225185 177.464752,42.5231067 C177.883558,44.1138188 178.296175,45.7128051 178.562313,47.3324769 C178.814009,48.8673382 178.882091,50.4311593 179.02857,51.982569 C178.976993,51.9887746 178.925416,51.9929117 178.871776,51.9991174" id="Fill-135" fill="#000000" sketch:type="MSShapeGroup"></path>
            <path d="M104.819435,47.3883276 C106.995988,48.7018545 106.133619,50.8841709 106.585435,52.6320925 C106.944411,54.0097444 106.748418,55.4577268 107.493192,56.8539956 C108.178136,58.1364943 106.692715,60.2836454 105.203168,60.5318709 C104.25415,60.6890805 103.616657,60.1864237 103.406222,59.2597149 C103.298942,58.7880864 103.263869,58.2606071 103.354645,57.78691 C103.841533,55.2384609 103.426853,52.743794 102.972974,50.2491272 C102.671764,48.6025643 102.954407,48.143347 104.819435,47.3883276" id="Fill-136" fill="#000000" sketch:type="MSShapeGroup"></path>
            <path d="M172.684586,66.9216105 C172.699028,65.1612776 174.174133,63.3099286 175.601787,63.2602835 C177.18211,63.2065013 179.319465,65.0661245 179.358664,66.5347924 C179.410241,68.3302906 177.250192,70.3491918 175.279946,70.3491918 C173.56346,70.3491918 172.666019,69.1659833 172.684586,66.9216105" id="Fill-137" fill="#000000" sketch:type="MSShapeGroup"></path>
            <path d="M104.844192,74.8420744 C103.06375,73.1479349 103.738379,71.0752515 103.996264,69.2383824 C104.122112,68.3344276 105.256808,67.6207792 106.480217,67.6414646 C108.132748,67.6683557 109.279822,68.72952 109.717196,70.7318728 C110.07411,72.3598188 109.327273,73.708511 107.664428,74.401474 C107.36528,74.5255868 107.047565,74.6352197 106.72985,74.6765907 C106.092357,74.7614011 105.448675,74.7924293 104.844192,74.8420744" id="Fill-138" fill="#000000" sketch:type="MSShapeGroup"></path>
            <path d="M89.278222,65.159209 C90.0745724,62.3087522 90.7595164,59.8533877 91.4444603,57.4000918 C91.6652103,57.408366 91.8859603,57.4166402 92.1067103,57.4249144 C92.492507,59.687904 92.8762407,61.9508937 93.2909206,64.4041896 C92.0303762,64.6420725 90.8771121,64.8592698 89.278222,65.159209" id="Fill-237" fill="#FFFFFF" sketch:type="MSShapeGroup"></path>
            <path d="M39.2690631,59.0549289 C39.7848341,61.31585 40.3006051,63.5747026 40.8535117,65.9928332 L37.9115537,65.9928332 C38.1776916,63.6864041 38.4355771,61.4358257 38.6955257,59.1852473 C38.8873925,59.1418078 39.0771963,59.0983683 39.2690631,59.0549289" id="Fill-238" fill="#FFFFFF" sketch:type="MSShapeGroup"></path>
            <path d="M120.977509,54.3965626 C122.634166,55.2157069 124.14228,55.7183636 125.355374,56.6181813 C126.954264,57.8034583 127.65365,62.232216 126.679874,64.0318513 C125.988741,65.3081444 125.421393,66.6940704 123.797745,67.2215497 C122.401037,67.6786985 121.615002,67.6683557 120.754696,66.5285867 C118.559575,63.6284848 118.064435,60.3663872 119.135175,56.9367374 C119.409565,56.0638109 120.251304,55.3687793 120.977509,54.3965626" id="Fill-239" fill="#FFFFFF" sketch:type="MSShapeGroup"></path>
        </g>
    </g>
</svg>