<svg width="190" height="58" viewBox="0 0 190 58" xmlns="http://www.w3.org/2000/svg" xmlns:sketch="http://www.bohemiancoding.com/sketch/ns"><title>slay-music</title><desc>Created with Sketch.</desc><g sketch:type="MSArtboardGroup" fill="none"><path opacity=".87" sketch:type="MSShapeGroup" d="M-278-310h1024v1024h-1024z"/><g sketch:type="MSLayerGroup"><path d="M186.419 2.088c.29 1.464.566 2.765.801 4.071.529 2.971 1.16 5.932 1.529 8.924.72 5.839 1.376 11.688 1.034 17.601-.235 4.027-.38 8.062-.501 12.095-.065 2.185.061 4.377 0 6.562-.059 2.107-1.066 3.654-3.088 3.985-6.27 1.028-12.518 2.567-18.939 1.977-5.855-.537-11.683-.204-17.525.082-2.671.131-5.349.194-8.024.209-3.852.021-7.703-.008-11.553-.057-2.157-.027-4.326.192-6.417-.719-.726-.316-1.653-.219-2.49-.228-12.763-.133-25.407-1.715-38.073-3.066-9.021-.963-18.058-1.041-27.01.811-4.959 1.028-9.988 1.416-15.012 1.18-4.422-.206-8.664.822-12.981 1.29-5.205.565-10.372.643-15.495-.491-2.272-.504-4.454-1.207-6.589-2.303-2.998-1.536-4.005-3.871-4.061-6.937-.086-4.522-.214-9.046-.195-13.57.029-7.569-.241-15.104-1.834-22.536-.287-1.334.294-2.32 1.355-3.005 2.154-1.391 4.529-2.13 7.095-2.274 6.524-.365 13.051-.689 19.566-1.155 2.488-.179 4.945-.759 7.426-1.045 2.322-.268 4.659-.468 6.994-.558 3.015-.118 6.033-.105 9.05-.131.669-.004 1.454-.143 1.989.145 3.327 1.799 6.914.877 10.37 1.03 7.185.316 14.387.556 21.574.447 5.341-.08 10.672-.75 16.006-1.182.999-.08 1.985-.346 2.983-.398 9.35-.474 18.702-.921 28.052-1.38.667-.032 1.345-.034 1.995-.16 6.786-1.342 13.596-1.224 20.454-.584 4.991.466 10.017.556 15.029.813.168.008.346.038.501-.006 5.188-1.439 10.294-.318 15.983.563zm-182.605 8.515c.321 8.332 2.559 16.261 1.273 24.384-.025.16.046.333.055.502.178 3.858.443 7.714.495 11.575.025 1.947.837 3.108 2.492 3.961 3.671 1.892 7.619 2.703 11.664 2.615 3.833-.086 7.674.067 11.515-.75 3.084-.655 6.352-.818 9.509-.649 4.573.24 9.073-.164 13.497-1.045 10.135-2.019 20.265-2.151 30.502-.967 10.156 1.174 20.345 2.076 30.532 2.956 3.665.316 7.376.091 11.051.343 4.5.312 9.006.714 13.466 1.372 2.876.426 5.645.516 8.465-.2.963-.244 1.999-.268 3-.268 5.026.006 10.057-.088 15.077.12 6.596.272 12.933-.794 19.428-2.91.071-2.135.189-4.132.195-6.13.013-3.199-.111-6.401-.055-9.6.042-2.522.411-5.04.392-7.56-.067-8.926-.646-12.287-3.709-23.28-1.649-.82-3.312-1.376-5.266-.896-1.097.27-2.303.089-3.461.112-3.829.082-7.655.219-11.481.217-1.492 0-3.015-.169-4.468-.506-4.462-1.03-8.951-.872-13.462-.59-9.698.609-19.403 1.155-29.101 1.783-5.84.377-11.706.194-17.523 1.26-3.594.662-7.317.849-10.982.841-6.698-.013-13.397-.379-20.097-.495-2.511-.044-5.047.027-7.533.354-2.194.289-4.309.152-6.491-.042-7.342-.651-14.702-1.174-21.876 1.294-.445.152-1.087.341-1.406.141-2.058-1.287-4.244-.628-6.379-.523-4.682.228-9.363.514-14.043.797-1.831.112-3.717.084-5.276 1.785z" fill="#000" sketch:type="MSShapeGroup"/><path d="M3.814 10.603c1.559-1.7 3.445-1.673 5.276-1.785 4.68-.282 9.36-.569 14.043-.797 2.136-.105 4.322-.765 6.379.523.319.2.961.011 1.406-.141 7.175-2.467 14.534-1.945 21.876-1.294 2.182.194 4.296.331 6.491.042 2.486-.327 5.022-.398 7.533-.354 6.7.116 13.399.483 20.097.495 3.665.008 7.389-.179 10.982-.841 5.817-1.066 11.683-.883 17.523-1.26 9.698-.628 19.403-1.174 29.101-1.783 4.51-.282 9-.44 13.462.59 1.454.337 2.977.506 4.468.506 3.826.002 7.653-.135 11.481-.217 1.158-.023 2.364.158 3.461-.112 1.953-.48 3.617.076 5.266.896 3.063 10.993 3.642 14.354 3.709 23.28.019 2.52-.35 5.038-.392 7.56-.057 3.199.067 6.401.055 9.6-.006 1.998-.124 3.995-.195 6.13-6.495 2.116-12.832 3.182-19.428 2.91-5.02-.209-10.051-.114-15.077-.12-1.001 0-2.037.023-3 .268-2.819.716-5.589.626-8.465.2-4.46-.657-8.966-1.06-13.466-1.372-3.675-.253-7.386-.027-11.051-.343-10.187-.881-20.376-1.783-30.532-2.956-10.237-1.184-20.368-1.051-30.502.967-4.424.881-8.924 1.285-13.497 1.045-3.157-.169-6.426-.006-9.509.649-3.841.818-7.682.664-11.515.75-4.045.089-7.993-.723-11.664-2.615-1.655-.853-2.467-2.014-2.492-3.961-.052-3.86-.317-7.716-.495-11.575-.008-.169-.08-.341-.055-.502 1.286-8.123-.952-16.052-1.273-24.384zm102.16 16.267c-.604-2.061-.955-3.496-1.458-4.872-.275-.75-.692-1.526-1.252-2.071-1.248-1.216-3.205-.763-3.575.883-1.064 4.739-2.003 9.507-2.92 14.278-.063.325.499 1.11.684 1.083.562-.082 1.418-.341 1.554-.74.594-1.734 1.059-3.523 1.403-5.327.325-1.696.606-3.371 1.548-4.872 2.043 2.314.331 6.347 4.005 7.742 2.645-1.871 2.561-5.31 4.666-8.089 1.651 4.2.73 8.416 2.358 12.129.621-.131 1.116-.171 1.554-.35.283-.118.581-.402.694-.683.183-.451.417-1.03.279-1.435-1.24-3.677-1.674-7.489-2.175-11.311-.203-1.563-.854-3.279-2.727-3.82-1.653.375-1.871 1.814-2.431 2.988-.625 1.313-1.286 2.609-2.207 4.467zm43.4-4.768c1.938 2.807 1.313 5.723 1.328 8.53.01 1.92-.384 3.622-2.593 4.305-.346.107-.711 1.209-.543 1.65.193.499.978 1.096 1.498 1.089 2.664-.027 5.326-.232 7.991-.383.164-.008.369-.017.48-.114.472-.415 1.206-.824 1.278-1.317.061-.413-.585-1.222-1.064-1.363-1.217-.36-2.513-.445-3.912-.66l-.615-12.938c1.049-.354 2.121-.735 3.203-1.077.917-.287 1.416-.879 1.275-1.837-.164-1.127-1.089-1.184-1.899-1.024-1.794.354-3.562.834-5.339 1.273-1.454.358-2.924.664-4.34 1.14-.359.122-.741.801-.732 1.218.006.398.436 1.045.795 1.136.948.244 1.959.249 3.189.373zm-92.556 11.25c4.54-.495 4.533-.493 5.538 3.532.117.468.229 1.094.562 1.317.634.428 1.427.849 2.148.843.877-.008 1.46-1.456 1.095-2.413-.65-1.703-1.364-3.384-2.01-5.089-1.24-3.277-2.448-6.555-3.048-10.043-.107-.626-.98-1.374-1.649-1.585-1.015-.32-2.008.2-2.44 1.241-.376.906-.573 1.892-.806 2.855-.705 2.916-1.309 5.86-2.11 8.749-.432 1.563-1.187 3.038-1.796 4.551 1.697.687 2.052.725 2.341.196.715-1.304 1.385-2.636 2.173-4.155zm-29.674-13.357c-3.226-.013-5.427 1.865-5.882 5.019-.42 2.893.48 4.273 3.409 5.184.636.198 1.324.249 1.932.502 2.582 1.068 3.245 3.405 1.661 5.708-1.047 1.523-2.329 1.901-4.286 1.235-.31-.105-.579-.354-.892-.44-1.227-.335-2.433.348-2.754 1.519-.277 1.001.684 2.368 1.821 2.592 3.273.641 7.202-1.241 8.93-4.28 2.104-3.702.839-7.415-3.107-9.071-.919-.386-2.014-.52-2.748-1.119-.514-.419-.887-1.53-.707-2.147.18-.617 1.078-1.123 1.771-1.441.355-.164.938.24 1.431.295 1.198.133 2.125-.468 2.205-1.37.086-.961-.722-1.913-1.785-2.086-.329-.055-.665-.07-.999-.099zm143.034-2.109c-1.043-.348-1.645-.761-2.182-.687-1.596.215-2.744 1.186-3.459 2.632-1.303 2.628-1.947 5.407-1.353 8.313.403 1.97 1.091 3.883 1.653 5.82.686 2.362 2.341 3.757 4.674 3.997 2.144.223 4.336.034 6.505-.063.449-.021.892-.413 1.317-.67.722-.438.682-1.73-.143-2.059-.726-.291-1.561-.438-2.343-.419-1.324.03-2.639.31-3.965.358-1.496.055-2.708-.786-3.231-2.046-1.424-3.443-2.618-7.042-.904-10.706.675-1.445 1.966-2.602 3.43-4.469zm-47.919 15.106c-1.817-1.486-1.59-3.369-1.366-5.171.185-1.498.636-2.961.923-4.448.183-.95-.436-2.048-1.08-1.877-.573.154-1.385.584-1.504 1.047-.548 2.107-1.236 4.273-1.204 6.408.025 1.943.762 3.93 1.466 5.788.529 1.393 2.068 1.861 3.388 1.252 2.171-1.001 4.116-2.324 5.039-4.68.919-2.345 1.819-4.703 2.608-7.095.252-.765.281-1.692.111-2.48-.115-.525-.692-1.085-1.206-1.332-.313-.152-1.129.126-1.315.449-.642 1.108-1.313 2.109-1.154 3.66.392 3.784-.959 6.821-4.705 8.479zm-46.175-5.289c-2.306-2.147-3.147-4.107-3.826-6.176-.206-.622-.441-1.279-.839-1.776-.258-.32-.961-.638-1.25-.504-.539.255-1.053.775-1.324 1.315-.18.362-.029.995.159 1.424.6 1.376 1.148 2.807 1.97 4.046 1.544 2.326 2.448 4.701 1.861 7.563-.151.729.214 1.633.548 2.362.166.36.803.697 1.217.685.373-.011 1.053-.518 1.047-.794-.061-2.682 1.62-4.636 2.668-6.859.642-1.359 1.097-2.807 1.657-4.208.604-1.515 1.231-3.024 1.81-4.444-1.863-1.414-2.71-1.353-3.212.065-.774 2.196-1.502 4.404-2.486 7.301zm61.301-3.641c1.12-.822 2.003-1.292 2.622-1.995.338-.386.39-1.207.256-1.757-.08-.329-.762-.723-1.175-.729-3.042-.036-4.666 1.614-4.689 4.539-.013 1.618.539 2.899 1.764 3.957.868.752 1.773 1.526 2.415 2.461.902 1.319-.052 3.302-1.632 3.399-1.275.076-2.57-.171-4.137-.297-.088.984-.453 1.915-.143 2.461.325.577 1.259.917 1.993 1.117.613.164 1.32-.032 1.985-.053 2.222-.078 3.95-1.205 4.749-3.14.913-2.21 1.028-4.558-.955-6.505-.944-.925-1.76-1.981-3.054-3.458zm-96.095 11.029c-.275-1.789.015-3.753.436-5.729.648-3.034.227-6.02-.688-8.924-.13-.413-1.12-.87-1.596-.767-.478.105-.944.832-1.162 1.387-.162.407 0 1.007.166 1.469 1.011 2.79.778 5.626.388 8.475-.229 1.66-.541 3.319-.636 4.99-.092 1.652.986 2.95 2.624 3.148 1.823.219 3.669.287 5.509.312 1.815.023 2.092-.632 1.374-2.992-1.964-.87-4.389.641-6.415-1.368z" sketch:type="MSShapeGroup"/><path sketch:type="MSShapeGroup" d="M52.5 22.5h11v9h-11z"/><path d="M105.974 26.87c.921-1.858 1.582-3.154 2.207-4.467.56-1.174.778-2.613 2.431-2.988 1.873.542 2.524 2.257 2.727 3.82.501 3.822.936 7.634 2.175 11.311.138.405-.097.984-.279 1.435-.113.28-.411.565-.694.683-.438.179-.934.219-1.554.35-1.628-3.713-.707-7.929-2.358-12.129-2.104 2.779-2.02 6.218-4.666 8.089-3.673-1.395-1.961-5.428-4.005-7.742-.942 1.5-1.223 3.175-1.548 4.872-.344 1.804-.81 3.593-1.403 5.327-.136.398-.992.657-1.554.74-.185.027-.747-.759-.684-1.083.917-4.771 1.857-9.539 2.92-14.278.369-1.646 2.326-2.099 3.575-.883.56.546.978 1.321 1.252 2.071.503 1.376.854 2.811 1.458 4.872" fill="#000" sketch:type="MSShapeGroup"/><path d="M149.374 22.101c-1.229-.124-2.24-.129-3.189-.373-.359-.091-.789-.738-.795-1.136-.008-.417.373-1.096.732-1.218 1.416-.476 2.887-.782 4.34-1.14 1.777-.438 3.545-.919 5.339-1.273.81-.16 1.735-.103 1.899 1.024.141.959-.359 1.551-1.275 1.837-1.082.341-2.154.723-3.203 1.077l.615 12.938c1.399.215 2.696.299 3.912.66.478.141 1.124.95 1.064 1.363-.071.493-.806.902-1.278 1.317-.111.097-.317.105-.48.114-2.664.152-5.326.356-7.991.383-.52.006-1.305-.59-1.498-1.089-.168-.44.197-1.542.543-1.65 2.209-.683 2.603-2.385 2.593-4.305-.015-2.807.61-5.723-1.328-8.53" fill="#000" sketch:type="MSShapeGroup"/><path d="M56.818 33.351c-.789 1.519-1.458 2.851-2.173 4.155-.289.529-.644.491-2.341-.196.608-1.513 1.364-2.988 1.796-4.551.801-2.889 1.406-5.833 2.11-8.749.233-.963.43-1.949.806-2.855.432-1.041 1.424-1.561 2.44-1.241.669.211 1.542.959 1.649 1.585.6 3.487 1.808 6.766 3.048 10.043.646 1.705 1.359 3.386 2.01 5.089.365.957-.218 2.404-1.095 2.413-.722.006-1.515-.415-2.148-.843-.334-.223-.445-.849-.562-1.317-1.005-4.025-.999-4.027-5.538-3.532zm1.76-7.927c-.252 1.486-.545 2.282-.451 3.028.055.419.753.756 1.162 1.129.222-.525.694-1.096.608-1.564-.128-.704-.648-1.336-1.32-2.594z" fill="#000" sketch:type="MSShapeGroup"/><path d="M27.146 19.992c.331.032.667.046.996.101 1.064.173 1.871 1.125 1.785 2.086-.08.902-1.007 1.502-2.205 1.37-.493-.055-1.076-.459-1.431-.295-.692.318-1.59.824-1.771 1.441-.18.617.193 1.728.707 2.147.734.598 1.829.733 2.748 1.119 3.946 1.656 5.211 5.369 3.107 9.071-1.729 3.038-5.658 4.92-8.93 4.28-1.137-.223-2.098-1.591-1.821-2.592.321-1.172 1.527-1.854 2.754-1.519.313.086.581.335.892.44 1.957.666 3.239.289 4.286-1.235 1.584-2.303.921-4.64-1.661-5.708-.608-.253-1.296-.303-1.932-.502-2.929-.91-3.829-2.29-3.409-5.184.455-3.154 2.656-5.032 5.884-5.021" fill="#000" sketch:type="MSShapeGroup"/><path d="M170.178 17.885c-1.464 1.867-2.754 3.024-3.43 4.469-1.714 3.664-.52 7.263.904 10.706.522 1.26 1.735 2.101 3.231 2.046 1.326-.048 2.641-.329 3.965-.358.782-.019 1.617.129 2.343.419.824.329.864 1.62.143 2.059-.426.257-.869.649-1.317.67-2.169.097-4.361.287-6.505.063-2.333-.24-3.988-1.635-4.674-3.997-.562-1.936-1.25-3.85-1.653-5.82-.594-2.906.05-5.685 1.353-8.313.715-1.445 1.863-2.417 3.459-2.632.537-.074 1.139.339 2.182.687" fill="#000" sketch:type="MSShapeGroup"/><path d="M122.259 32.991c3.747-1.658 5.098-4.695 4.705-8.479-.159-1.551.512-2.552 1.154-3.66.187-.322 1.003-.601 1.315-.449.514.247 1.091.807 1.206 1.332.17.788.141 1.715-.111 2.48-.789 2.392-1.689 4.75-2.608 7.095-.923 2.356-2.868 3.679-5.039 4.68-1.32.609-2.859.141-3.388-1.252-.705-1.858-1.441-3.846-1.466-5.788-.031-2.135.657-4.301 1.204-6.408.12-.464.931-.893 1.504-1.047.644-.171 1.263.927 1.08 1.877-.287 1.488-.738 2.95-.923 4.448-.224 1.802-.451 3.685 1.366 5.171" fill="#000" sketch:type="MSShapeGroup"/><path d="M76.084 27.702c.984-2.897 1.712-5.106 2.486-7.301.501-1.418 1.349-1.479 3.212-.065-.579 1.42-1.206 2.929-1.81 4.444-.56 1.401-1.015 2.849-1.657 4.208-1.049 2.223-2.729 4.176-2.668 6.859.006.276-.673.784-1.047.794-.413.013-1.051-.325-1.217-.685-.334-.729-.699-1.633-.548-2.362.587-2.862-.317-5.236-1.861-7.563-.822-1.239-1.37-2.67-1.97-4.046-.189-.43-.34-1.062-.159-1.424.271-.539.785-1.06 1.324-1.315.29-.135.992.183 1.25.504.399.497.634 1.155.839 1.776.68 2.069 1.521 4.029 3.826 6.176" fill="#000" sketch:type="MSShapeGroup"/><path d="M137.385 24.061c1.294 1.477 2.11 2.533 3.054 3.458 1.982 1.947 1.867 4.294.955 6.505-.799 1.934-2.528 3.062-4.749 3.14-.665.021-1.372.217-1.985.053-.734-.2-1.668-.539-1.993-1.117-.31-.546.055-1.477.143-2.461 1.567.126 2.861.373 4.137.297 1.58-.097 2.534-2.08 1.632-3.399-.642-.936-1.546-1.709-2.415-2.461-1.225-1.058-1.777-2.339-1.764-3.957.023-2.925 1.647-4.575 4.689-4.539.413.006 1.095.4 1.175.729.134.55.082 1.372-.256 1.757-.619.704-1.502 1.174-2.622 1.995" fill="#000" sketch:type="MSShapeGroup"/><path d="M41.289 35.09c2.026 2.008 4.452.497 6.415 1.368.717 2.36.441 3.015-1.374 2.992-1.84-.025-3.686-.093-5.509-.312-1.638-.198-2.717-1.496-2.624-3.148.094-1.671.407-3.329.636-4.99.39-2.849.623-5.685-.388-8.475-.166-.461-.327-1.062-.166-1.469.218-.554.684-1.281 1.162-1.387.476-.103 1.466.354 1.596.767.915 2.904 1.336 5.889.688 8.924-.422 1.977-.711 3.94-.436 5.729" fill="#000" sketch:type="MSShapeGroup"/></g></g></svg>