<?xml version="1.0" encoding="UTF-8" standalone="no"?>
<svg width="190px" height="58px" viewBox="0 0 190 58" version="1.1" xmlns="http://www.w3.org/2000/svg" xmlns:xlink="http://www.w3.org/1999/xlink" xmlns:sketch="http://www.bohemiancoding.com/sketch/ns">
    <!-- Generator: Sketch 3.1.1 (8761) - http://www.bohemiancoding.com/sketch -->
    <title>slay-music-hover</title>
    <desc>Created with Sketch.</desc>
    <defs></defs>
    <g id="Page-1" stroke="none" stroke-width="1" fill="none" fill-rule="evenodd" sketch:type="MSPage">
        <g id="Desktop-2" sketch:type="MSArtboardGroup" transform="translate(-278.000000, -310.000000)">
            <rect id="Rectangle-1" opacity="0.869927705" sketch:type="MSShapeGroup" x="0" y="0" width="1024" height="1024"></rect>
            <g id="slay-music" sketch:type="MSLayerGroup" transform="translate(278.000000, 310.500000)">
                <path d="M186.41912,1.58757143 C186.70862,3.05203571 186.985533,4.35214286 187.220489,5.65857143 C187.749141,8.62964286 188.380587,11.5901786 188.749804,14.5823214 C189.469359,20.4212143 190.125978,26.2706429 189.784033,32.1832857 C189.549076,36.2100357 189.404326,40.2452143 189.282652,44.2782857 C189.21762,46.4633929 189.343489,48.6548214 189.282652,50.8399286 C189.223913,52.9470714 188.216957,54.4937143 186.194652,54.8245357 C179.92425,55.8528214 173.676924,57.3910357 167.255478,56.8010357 C161.400446,56.2637143 155.572685,56.5966429 149.730239,56.8832143 C147.059707,57.0138571 144.380783,57.0770714 141.706054,57.0918214 C137.854446,57.1128929 134.002837,57.0833929 130.153326,57.0349286 C127.996761,57.0075357 125.827609,57.2266786 123.736076,56.3163929 C123.010228,56.0003214 122.082989,56.09725 121.245957,56.0888214 C108.482783,55.9560714 95.8391848,54.3736071 83.1725109,53.0229286 C74.1518587,52.0599643 65.1144239,51.982 56.163,53.8341786 C51.2037391,54.8624643 46.17525,55.2501786 41.1509565,55.0141786 C36.7287391,54.8076786 32.4869348,55.8359643 28.1696087,56.30375 C22.9649022,56.8684643 17.7979565,56.9464286 12.6750652,55.8127857 C10.4031196,55.3091786 8.22138043,54.6053929 6.08579348,53.5096786 C3.088,51.9735714 2.08104348,49.6388571 2.02440217,46.5729643 C1.9383913,42.0510357 1.81042391,37.527 1.82930435,33.0029643 C1.85867391,25.4341071 1.58805435,17.8989643 -0.00419565217,10.4670714 C-0.291597826,9.13325 0.2895,8.14710714 1.351,7.46228571 C3.50546739,6.07157143 5.88020652,5.33196429 8.44584783,5.18867857 C14.970087,4.82414286 21.4964239,4.49964286 28.0122717,4.03396429 C30.5002935,3.85485714 32.9568478,3.27539286 35.4385761,2.98882143 C37.7608696,2.72121429 40.0978478,2.52103571 42.4327283,2.43042857 C45.4473043,2.31242857 48.4660761,2.32507143 51.48275,2.29978571 C52.1519565,2.29557143 52.9365435,2.1565 53.4714891,2.44517857 C56.7986413,4.24467857 60.3859239,3.32175 63.8410435,3.47557143 C71.0260978,3.79164286 78.2279348,4.03185714 85.415087,3.92228571 C90.7561522,3.84221429 96.0867283,3.17214286 101.4215,2.74017857 C102.420065,2.66010714 103.406043,2.39460714 104.404609,2.34192857 C113.75462,1.86782143 123.106728,1.42110714 132.456739,0.96175 C133.123848,0.930142857 133.801446,0.928035714 134.451772,0.801607143 C141.238239,-0.540642857 148.047783,-0.422642857 154.905576,0.217928571 C159.896304,0.683607143 164.922696,0.774214286 169.934402,1.03128571 C170.102228,1.03971429 170.280543,1.06921429 170.435783,1.02496429 C175.623707,-0.414214286 180.729815,0.706785714 186.41912,1.58757143 L186.41912,1.58757143 Z M3.81384783,10.1025357 C4.13481522,18.4341786 6.37319565,26.3633571 5.08722826,34.4863929 C5.06205435,34.6465357 5.13338043,34.8193214 5.14177174,34.9878929 C5.32008696,38.8460714 5.58441304,42.7021429 5.6368587,46.5624286 C5.66203261,48.5094286 6.4738913,49.6704643 8.12907609,50.5238571 C11.8002717,52.4160714 15.7483804,53.2273214 19.7929891,53.1388214 C23.6257174,53.0524286 27.466837,53.20625 31.3079565,52.3886786 C34.3917609,51.7333571 37.6601739,51.5711071 40.8174022,51.7396786 C45.390663,51.9798929 49.8905,51.5753214 54.3148152,50.6945357 C64.449413,48.6758929 74.5798152,48.5431429 84.8172065,49.7273571 C94.9727826,50.9010357 105.161924,51.8028929 115.348967,52.6836786 C119.01387,52.99975 122.724924,52.7742857 126.400315,53.0271429 C130.900152,53.339 135.406283,53.7414643 139.866261,54.3988929 C142.74238,54.8245357 145.511511,54.9151429 148.330989,54.1987143 C149.293891,53.9542857 150.330217,53.9311071 151.33088,53.9311071 C156.357272,53.9374286 161.387859,53.8426071 166.407957,54.0512143 C173.003522,54.3230357 179.341054,53.2568214 185.835924,51.14125 C185.90725,49.0067143 186.024728,47.0091429 186.031022,45.0115714 C186.043609,41.8129286 185.919837,38.6100714 185.976478,35.4114286 C186.018435,32.8891786 186.387652,30.3711429 186.368772,27.851 C186.301641,18.9251429 185.722641,15.56425 182.659815,4.57128571 C181.010924,3.75160714 179.347348,3.19532143 177.394272,3.67575 C176.297109,3.94546429 175.090859,3.76425 173.932859,3.78742857 C170.104326,3.86960714 166.277891,4.00657143 162.451457,4.00446429 C160.959902,4.00446429 159.43688,3.83589286 157.983087,3.49875 C153.521011,2.46835714 149.031663,2.62639286 144.521337,2.90875 C134.823087,3.51771429 125.118543,4.06346429 115.420293,4.69139286 C109.579946,5.06857143 103.714424,4.88525 97.8971522,5.95146429 C94.3035761,6.61310714 90.5799348,6.80064286 86.9150326,6.79221429 C80.2166739,6.77957143 73.5183152,6.41292857 66.8178587,6.29703571 C64.3067609,6.25278571 61.7704891,6.32442857 59.2845652,6.65103571 C57.0902391,6.93971429 54.9756304,6.80275 52.7938913,6.60889286 C45.4515,5.95778571 38.0923261,5.43521429 30.9177609,7.90267857 C30.4730217,8.05439286 29.831087,8.24403571 29.5122174,8.04385714 C27.45425,6.75639286 25.2683152,7.41592857 23.1327283,7.52128571 C18.4503804,7.74885714 13.7701304,8.03542857 9.08988043,8.31778571 C7.25847826,8.42946429 5.37253261,8.40207143 3.81384783,10.1025357 L3.81384783,10.1025357 Z" id="Fill-1" fill="#000000" sketch:type="MSShapeGroup"></path>
                <path d="M3.81384783,10.1025357 C5.37253261,8.40207143 7.25847826,8.42946429 9.08988043,8.31778571 C13.7701304,8.03542857 18.4503804,7.74885714 23.1327283,7.52128571 C25.2683152,7.41592857 27.45425,6.75639286 29.5122174,8.04385714 C29.831087,8.24403571 30.4730217,8.05439286 30.9177609,7.90267857 C38.0923261,5.43521429 45.4515,5.95778571 52.7938913,6.60889286 C54.9756304,6.80275 57.0902391,6.93971429 59.2845652,6.65103571 C61.7704891,6.32442857 64.3067609,6.25278571 66.8178587,6.29703571 C73.5183152,6.41292857 80.2166739,6.77957143 86.9150326,6.79221429 C90.5799348,6.80064286 94.3035761,6.61310714 97.8971522,5.95146429 C103.714424,4.88525 109.579946,5.06857143 115.420293,4.69139286 C125.118543,4.06346429 134.823087,3.51771429 144.521337,2.90875 C149.031663,2.62639286 153.521011,2.46835714 157.983087,3.49875 C159.43688,3.83589286 160.959902,4.00446429 162.451457,4.00446429 C166.277891,4.00657143 170.104326,3.86960714 173.932859,3.78742857 C175.090859,3.76425 176.297109,3.94546429 177.394272,3.67575 C179.347348,3.19532143 181.010924,3.75160714 182.659815,4.57128571 C185.722641,15.56425 186.301641,18.9251429 186.368772,27.851 C186.387652,30.3711429 186.018435,32.8891786 185.976478,35.4114286 C185.919837,38.6100714 186.043609,41.8129286 186.031022,45.0115714 C186.024728,47.0091429 185.90725,49.0067143 185.835924,51.14125 C179.341054,53.2568214 173.003522,54.3230357 166.407957,54.0512143 C161.387859,53.8426071 156.357272,53.9374286 151.33088,53.9311071 C150.330217,53.9311071 149.293891,53.9542857 148.330989,54.1987143 C145.511511,54.9151429 142.74238,54.8245357 139.866261,54.3988929 C135.406283,53.7414643 130.900152,53.339 126.400315,53.0271429 C122.724924,52.7742857 119.01387,52.99975 115.348967,52.6836786 C105.161924,51.8028929 94.9727826,50.9010357 84.8172065,49.7273571 C74.5798152,48.5431429 64.449413,48.6758929 54.3148152,50.6945357 C49.8905,51.5753214 45.390663,51.9798929 40.8174022,51.7396786 C37.6601739,51.5711071 34.3917609,51.7333571 31.3079565,52.3886786 C27.466837,53.20625 23.6257174,53.0524286 19.7929891,53.1388214 C15.7483804,53.2273214 11.8002717,52.4160714 8.12907609,50.5238571 C6.4738913,49.6704643 5.66203261,48.5094286 5.6368587,46.5624286 C5.58441304,42.7021429 5.32008696,38.8460714 5.14177174,34.9878929 C5.13338043,34.8193214 5.06205435,34.6465357 5.08722826,34.4863929 C6.37319565,26.3633571 4.13481522,18.4341786 3.81384783,10.1025357 L3.81384783,10.1025357 Z M105.973783,26.3696786 C105.369609,24.3088929 105.019272,22.8739286 104.515793,21.4979643 C104.240978,20.7478214 103.823511,19.9723929 103.263391,19.4266429 C102.015185,18.2108214 100.057913,18.6638571 99.6886957,20.3095357 C98.6250978,25.0485 97.6852717,29.8169643 96.7685217,34.5875357 C96.705587,34.9120357 97.2678043,35.698 97.452413,35.6706071 C98.0146304,35.5884286 98.8705435,35.32925 99.0069022,34.931 C99.600587,33.1968214 100.066304,31.4078571 100.410348,29.6041429 C100.735511,27.9078929 101.01662,26.2327143 101.958543,24.7324286 C104.001826,27.0460714 102.29,31.0791429 105.963293,32.4740714 C108.608652,30.6029286 108.524739,27.1640714 110.628859,24.38475 C112.279848,28.5842857 111.358902,32.8006786 112.986815,36.5134643 C113.607772,36.3828214 114.102859,36.3427857 114.541304,36.1636786 C114.824511,36.0456786 115.122402,35.7612143 115.235685,35.4809643 C115.418196,35.0300357 115.653152,34.4505714 115.514696,34.046 C114.27488,30.3690357 113.84063,26.5572143 113.33925,22.7348571 C113.135761,21.1713571 112.485435,19.4561429 110.612076,18.9146071 C108.958989,19.2896786 108.740815,20.7288571 108.180696,21.9025357 C107.555543,23.2152857 106.894728,24.5111786 105.973783,26.3696786 L105.973783,26.3696786 Z M149.373609,21.6012143 C151.312,24.4079286 150.686848,27.3242143 150.701533,30.1309286 C150.712022,32.0505357 150.31763,33.7531071 148.10862,34.4358214 C147.762478,34.5432857 147.397457,35.6453214 147.565283,36.0857143 C147.758283,36.5851071 148.54287,37.1814286 149.06313,37.1751071 C151.72737,37.1477143 154.389511,36.9433214 157.05375,36.7916071 C157.21738,36.7831786 157.422967,36.77475 157.534152,36.6778214 C158.006163,36.2627143 158.740402,35.8539286 158.811728,35.3608571 C158.872565,34.9478571 158.226435,34.1387143 157.74813,33.9975357 C156.531391,33.6372143 155.234935,33.5529286 153.835685,33.338 C153.625902,28.9214286 153.428707,24.7808929 153.221022,20.4001429 C154.269935,20.0461429 155.341924,19.66475 156.424402,19.3233929 C157.341152,19.0368214 157.840435,18.4447143 157.69988,17.4859643 C157.53625,16.3586429 156.611109,16.30175 155.801348,16.4618929 C154.007707,16.8158929 152.239239,17.2963214 150.46238,17.7346071 C149.008587,18.0928214 147.538011,18.3983571 146.121978,18.8745714 C145.76325,18.9967857 145.381446,19.6752857 145.389837,20.0925 C145.39613,20.49075 145.826185,21.1376429 146.184913,21.22825 C147.13313,21.4726786 148.144283,21.4768929 149.373609,21.6012143 L149.373609,21.6012143 Z M56.8175217,32.85125 C61.3572174,32.3560714 61.3509239,32.3581786 62.3557826,36.3828214 C62.4732609,36.8506071 62.5844457,37.4764286 62.918,37.6997857 C63.5515435,38.1275357 64.3445217,38.5489643 65.0661739,38.5426429 C65.9430652,38.5342143 66.5262609,37.0866071 66.1612391,36.1299643 C65.510913,34.4273929 64.7976522,32.7458929 64.1515217,31.0412143 C62.9117065,27.7646071 61.7033587,24.4858929 61.1033804,20.9985714 C60.9963913,20.37275 60.1236957,19.6247143 59.4544891,19.414 C58.4391413,19.0937143 57.4468696,19.6141786 57.0147174,20.6551071 C56.6392065,21.5611786 56.4420109,22.5473214 56.2091522,23.5102857 C55.5042826,26.4265714 54.9001087,29.37025 54.0987391,32.2591429 C53.666587,33.8226429 52.9113696,35.2976429 52.303,36.8105714 C54.0001413,37.4975 54.3546739,37.5354286 54.6441739,37.0065357 C55.3595326,35.7022143 56.0287391,34.3705 56.8175217,32.85125 L56.8175217,32.85125 Z M27.1437717,19.4940714 C23.9173152,19.4814286 21.7166957,21.3588929 21.2614674,24.5132857 C20.8419022,27.4063929 21.7418696,28.7865714 24.6704348,29.6968571 C25.3060761,29.8949286 25.994163,29.9455 26.6025326,30.1983571 C29.1849565,31.2666786 29.8478696,33.6035 28.2640109,35.9066071 C27.2171957,37.4300714 25.9354239,37.80725 23.9781522,37.1413929 C23.6676739,37.0360357 23.3991522,36.7873929 23.0865761,36.701 C21.8593478,36.3659643 20.6530978,37.0486786 20.3321304,38.22025 C20.0552174,39.2211429 21.0160217,40.5886786 22.1530435,40.8120357 C25.4256522,41.4526071 29.3548804,39.5709286 31.0834891,36.5324286 C33.1876087,32.8301786 31.9226196,29.1173929 27.9766087,27.4611786 C27.0577609,27.0755714 25.9626957,26.9407143 25.2284565,26.3422857 C24.7144891,25.9229643 24.3410761,24.8125 24.5214891,24.1951071 C24.7019022,23.5777143 25.5997717,23.072 26.2920543,22.7538214 C26.646587,22.5894643 27.2297826,22.9940357 27.7227717,23.0488214 C28.9206304,23.1815714 29.8478696,22.5810357 29.927587,21.6791786 C30.0135978,20.7183214 29.2059348,19.7658929 28.142337,19.5931071 C27.8129783,19.5383214 27.4773261,19.5235714 27.1437717,19.4940714 L27.1437717,19.4940714 Z M170.17775,17.3848214 C169.13513,17.0371429 168.533054,16.6241429 167.996011,16.6978929 C166.399565,16.9128214 165.252054,17.8842143 164.536696,19.3297143 C163.233946,21.9573214 162.589913,24.7366429 163.183598,27.6423929 C163.58638,29.6125714 164.274467,31.5258571 164.836685,33.4623214 C165.522674,35.8244286 167.177859,37.2193571 169.510641,37.4595714 C171.65462,37.6829286 173.846848,37.4932857 176.016,37.3963571 C176.464935,37.3752857 176.907576,36.9833571 177.333435,36.7262857 C178.055087,36.288 178.015228,34.9963214 177.190783,34.6676071 C176.464935,34.3768214 175.63,34.2293214 174.847511,34.2482857 C173.523783,34.2777857 172.208446,34.5580357 170.88262,34.6065 C169.38687,34.6612857 168.174326,33.8205357 167.651967,32.5604643 C166.227543,29.1173929 165.03388,25.5183929 166.747804,21.8540714 C167.423304,20.4085714 168.713467,19.25175 170.17775,17.3848214 L170.17775,17.3848214 Z M122.259207,32.4909286 C120.442489,31.0053929 120.669054,29.1216071 120.893522,27.32 C121.07813,25.8218214 121.529163,24.3594643 121.816565,22.8718214 C121.999076,21.9215 121.380217,20.8236786 120.736185,20.9943571 C120.163478,21.1481786 119.35162,21.5780357 119.232043,22.0416071 C118.684511,24.14875 117.996424,26.3148929 118.027891,28.4494286 C118.053065,30.3922143 118.789402,32.37925 119.494272,34.23775 C120.022924,35.6305714 121.562728,36.0983571 122.882261,35.4893929 C125.053511,34.4885 126.998196,33.1652143 127.921239,30.8094286 C128.840087,28.4641786 129.740054,26.1062857 130.528837,23.7146786 C130.780576,22.9497857 130.809946,22.0226429 130.640022,21.2345714 C130.524641,20.7098929 129.947739,20.1493929 129.433772,19.9028571 C129.121196,19.7511429 128.305141,20.0292857 128.118435,20.3516786 C127.4765,21.4600357 126.805196,22.4609286 126.96463,24.0117857 C127.356924,27.7962143 126.005924,30.8326071 122.259207,32.4909286 L122.259207,32.4909286 Z M76.0839565,27.202 C73.7784457,25.0548214 72.9372174,23.0951786 72.2575217,21.0259643 C72.0519348,20.4043571 71.8169783,19.7469286 71.4183913,19.2496429 C71.1603587,18.9293571 70.457587,18.6111786 70.168087,18.7460357 C69.6289457,19.001 69.1149783,19.5214643 68.8443587,20.0608929 C68.6639457,20.4233214 68.8149891,21.0554643 69.0037935,21.4853214 C69.6037717,22.8612857 70.1513043,24.2920357 70.9736522,25.5310357 C72.5176522,27.8573214 73.4218152,30.2320714 72.8344239,33.0935714 C72.6833804,33.8226429 73.0484022,34.7266071 73.3819565,35.4556786 C73.5476848,35.816 74.1854239,36.1531429 74.5986957,36.1405 C74.9721087,36.1299643 75.6518043,35.6221429 75.6455109,35.3461071 C75.5846739,32.6637143 77.2650326,30.7103929 78.3139457,28.4873571 C78.9558804,27.12825 79.4111087,25.6806429 79.9712283,24.2793929 C80.5754022,22.7643571 81.2026522,21.2556429 81.7816522,19.8354286 C79.9187826,18.4215357 79.0712609,18.4826429 78.5698804,19.90075 C77.7957826,22.0963929 77.067837,24.3046786 76.0839565,27.202 L76.0839565,27.202 Z M137.384533,23.5608571 C138.504772,22.7390714 139.387957,22.2691786 140.006815,21.5653929 C140.344565,21.1797857 140.397011,20.358 140.26275,19.8080357 C140.183033,19.4793214 139.501239,19.0852857 139.087967,19.0789643 C136.04612,19.0431429 134.422402,20.6930357 134.399326,23.61775 C134.386739,25.2360357 134.938467,26.5171786 136.163598,27.5749643 C137.032098,28.3272143 137.936261,29.1005357 138.578196,30.0361071 C139.480261,31.3551786 138.52575,33.338 136.946087,33.4349286 C135.670609,33.5107857 134.37625,33.26425 132.809174,33.1378214 C132.721065,34.1218571 132.356043,35.0532143 132.666522,35.5989643 C132.991685,36.1763214 133.925217,36.5155714 134.659457,36.71575 C135.272022,36.8801071 135.978989,36.6841429 136.644,36.6630714 C138.865598,36.5851071 140.594207,35.4577857 141.393478,33.5234286 C142.306033,31.3130357 142.421413,28.9656786 140.438967,27.0186786 C139.494946,26.0936429 138.678891,25.0379643 137.384533,23.5608571 L137.384533,23.5608571 Z M41.289413,34.5896429 C41.0145978,32.8006786 41.3040978,30.8368214 41.7257609,28.8603214 C42.3739891,25.8260357 41.9523261,22.8402143 41.0376739,19.9365714 C40.9076087,19.5235714 39.9174348,19.0663214 39.4412283,19.1695714 C38.9629239,19.2749286 38.4972065,20.0018929 38.2790326,20.5560714 C38.1175,20.96275 38.2790326,21.5632857 38.4447609,22.02475 C39.455913,24.8146071 39.2230543,27.6508214 38.8328587,30.4996786 C38.6041957,32.1601071 38.2916196,33.8184286 38.1972174,35.4893929 C38.104913,37.1413929 39.1831957,38.4393929 40.8215978,38.6374643 C42.6446087,38.8566071 44.4906957,38.9240357 46.3304891,38.9493214 C48.1451087,38.9725 48.4220217,38.3171786 47.7045652,35.9571786 C45.741,35.0869286 43.315913,36.59775 41.289413,34.5896429 L41.289413,34.5896429 Z" id="Fill-2" fill="#FFFFFF" sketch:type="MSShapeGroup"></path>
                <rect id="Rectangle-3" fill="#FFFFFF" sketch:type="MSShapeGroup" x="52.5" y="22" width="11" height="9"></rect>
                <path d="M105.973783,26.3696786 C106.894728,24.5111786 107.555543,23.2152857 108.180696,21.9025357 C108.740815,20.7288571 108.958989,19.2896786 110.612076,18.9146071 C112.485435,19.4561429 113.135761,21.1713571 113.33925,22.7348571 C113.84063,26.5572143 114.27488,30.3690357 115.514696,34.046 C115.653152,34.4505714 115.418196,35.0300357 115.235685,35.4809643 C115.122402,35.7612143 114.824511,36.0456786 114.541304,36.1636786 C114.102859,36.3427857 113.607772,36.3828214 112.986815,36.5134643 C111.358902,32.8006786 112.279848,28.5842857 110.628859,24.38475 C108.524739,27.1640714 108.608652,30.6029286 105.963293,32.4740714 C102.29,31.0791429 104.001826,27.0460714 101.958543,24.7324286 C101.01662,26.2327143 100.735511,27.9078929 100.410348,29.6041429 C100.066304,31.4078571 99.600587,33.1968214 99.0069022,34.931 C98.8705435,35.32925 98.0146304,35.5884286 97.452413,35.6706071 C97.2678043,35.698 96.705587,34.9120357 96.7685217,34.5875357 C97.6852717,29.8169643 98.6250978,25.0485 99.6886957,20.3095357 C100.057913,18.6638571 102.015185,18.2108214 103.263391,19.4266429 C103.823511,19.9723929 104.240978,20.7478214 104.515793,21.4979643 C105.019272,22.8739286 105.369609,24.3088929 105.973783,26.3696786" id="Fill-3" fill="#000000" sketch:type="MSShapeGroup"></path>
                <path d="M149.373609,21.6012143 C148.144283,21.4768929 147.13313,21.4726786 146.184913,21.22825 C145.826185,21.1376429 145.39613,20.49075 145.389837,20.0925 C145.381446,19.6752857 145.76325,18.9967857 146.121978,18.8745714 C147.538011,18.3983571 149.008587,18.0928214 150.46238,17.7346071 C152.239239,17.2963214 154.007707,16.8158929 155.801348,16.4618929 C156.611109,16.30175 157.53625,16.3586429 157.69988,17.4859643 C157.840435,18.4447143 157.341152,19.0368214 156.424402,19.3233929 C155.341924,19.66475 154.269935,20.0461429 153.221022,20.4001429 C153.428707,24.7808929 153.625902,28.9214286 153.835685,33.338 C155.234935,33.5529286 156.531391,33.6372143 157.74813,33.9975357 C158.226435,34.1387143 158.872565,34.9478571 158.811728,35.3608571 C158.740402,35.8539286 158.006163,36.2627143 157.534152,36.6778214 C157.422967,36.77475 157.21738,36.7831786 157.05375,36.7916071 C154.389511,36.9433214 151.72737,37.1477143 149.06313,37.1751071 C148.54287,37.1814286 147.758283,36.5851071 147.565283,36.0857143 C147.397457,35.6453214 147.762478,34.5432857 148.10862,34.4358214 C150.31763,33.7531071 150.712022,32.0505357 150.701533,30.1309286 C150.686848,27.3242143 151.312,24.4079286 149.373609,21.6012143" id="Fill-4" fill="#000000" sketch:type="MSShapeGroup"></path>
                <path d="M56.8175217,32.85125 C56.0287391,34.3705 55.3595326,35.7022143 54.6441739,37.0065357 C54.3546739,37.5354286 54.0001413,37.4975 52.303,36.8105714 C52.9113696,35.2976429 53.666587,33.8226429 54.0987391,32.2591429 C54.9001087,29.37025 55.5042826,26.4265714 56.2091522,23.5102857 C56.4420109,22.5473214 56.6392065,21.5611786 57.0147174,20.6551071 C57.4468696,19.6141786 58.4391413,19.0937143 59.4544891,19.414 C60.1236957,19.6247143 60.9963913,20.37275 61.1033804,20.9985714 C61.7033587,24.4858929 62.9117065,27.7646071 64.1515217,31.0412143 C64.7976522,32.7458929 65.510913,34.4273929 66.1612391,36.1299643 C66.5262609,37.0866071 65.9430652,38.5342143 65.0661739,38.5426429 C64.3445217,38.5489643 63.5515435,38.1275357 62.918,37.6997857 C62.5844457,37.4764286 62.4732609,36.8506071 62.3557826,36.3828214 C61.3509239,32.3581786 61.3572174,32.3560714 56.8175217,32.85125 L56.8175217,32.85125 Z M58.5775978,24.9241786 C58.3258587,26.4097143 58.032163,27.2062143 58.1265652,27.9521429 C58.1811087,28.3714643 58.8796848,28.7086071 59.2887609,29.0815714 C59.5111304,28.5568929 59.9831413,27.9858571 59.8971304,27.5180714 C59.769163,26.8142857 59.2489022,26.1821429 58.5775978,24.9241786 L58.5775978,24.9241786 Z" id="Fill-5" fill="#000000" sketch:type="MSShapeGroup"></path>
                <path d="M27.1458696,19.4919643 C27.4773261,19.5235714 27.8129783,19.5383214 28.142337,19.5931071 C29.2059348,19.7658929 30.0135978,20.7183214 29.927587,21.6791786 C29.8478696,22.5810357 28.9206304,23.1815714 27.7227717,23.0488214 C27.2297826,22.9940357 26.646587,22.5894643 26.2920543,22.7538214 C25.5997717,23.072 24.7019022,23.5777143 24.5214891,24.1951071 C24.3410761,24.8125 24.7144891,25.9229643 25.2284565,26.3422857 C25.9626957,26.9407143 27.0577609,27.0755714 27.9766087,27.4611786 C31.9226196,29.1173929 33.1876087,32.8301786 31.0834891,36.5324286 C29.3548804,39.5709286 25.4256522,41.4526071 22.1530435,40.8120357 C21.0160217,40.5886786 20.0552174,39.2211429 20.3321304,38.22025 C20.6530978,37.0486786 21.8593478,36.3659643 23.0865761,36.701 C23.3991522,36.7873929 23.6676739,37.0360357 23.9781522,37.1413929 C25.9354239,37.80725 27.2171957,37.4300714 28.2640109,35.9066071 C29.8478696,33.6035 29.1849565,31.2666786 26.6025326,30.1983571 C25.994163,29.9455 25.3060761,29.8949286 24.6704348,29.6968571 C21.7418696,28.7865714 20.8419022,27.4063929 21.2614674,24.5132857 C21.7166957,21.3588929 23.9173152,19.4814286 27.1458696,19.4919643" id="Fill-6" fill="#000000" sketch:type="MSShapeGroup"></path>
                <path d="M170.17775,17.3848214 C168.713467,19.25175 167.423304,20.4085714 166.747804,21.8540714 C165.03388,25.5183929 166.227543,29.1173929 167.651967,32.5604643 C168.174326,33.8205357 169.38687,34.6612857 170.88262,34.6065 C172.208446,34.5580357 173.523783,34.2777857 174.847511,34.2482857 C175.63,34.2293214 176.464935,34.3768214 177.190783,34.6676071 C178.015228,34.9963214 178.055087,36.288 177.333435,36.7262857 C176.907576,36.9833571 176.464935,37.3752857 176.016,37.3963571 C173.846848,37.4932857 171.65462,37.6829286 169.510641,37.4595714 C167.177859,37.2193571 165.522674,35.8244286 164.836685,33.4623214 C164.274467,31.5258571 163.58638,29.6125714 163.183598,27.6423929 C162.589913,24.7366429 163.233946,21.9573214 164.536696,19.3297143 C165.252054,17.8842143 166.399565,16.9128214 167.996011,16.6978929 C168.533054,16.6241429 169.13513,17.0371429 170.17775,17.3848214" id="Fill-7" fill="#000000" sketch:type="MSShapeGroup"></path>
                <path d="M122.259207,32.4909286 C126.005924,30.8326071 127.356924,27.7962143 126.96463,24.0117857 C126.805196,22.4609286 127.4765,21.4600357 128.118435,20.3516786 C128.305141,20.0292857 129.121196,19.7511429 129.433772,19.9028571 C129.947739,20.1493929 130.524641,20.7098929 130.640022,21.2345714 C130.809946,22.0226429 130.780576,22.9497857 130.528837,23.7146786 C129.740054,26.1062857 128.840087,28.4641786 127.921239,30.8094286 C126.998196,33.1652143 125.053511,34.4885 122.882261,35.4893929 C121.562728,36.0983571 120.022924,35.6305714 119.494272,34.23775 C118.789402,32.37925 118.053065,30.3922143 118.027891,28.4494286 C117.996424,26.3148929 118.684511,24.14875 119.232043,22.0416071 C119.35162,21.5780357 120.163478,21.1481786 120.736185,20.9943571 C121.380217,20.8236786 121.999076,21.9215 121.816565,22.8718214 C121.529163,24.3594643 121.07813,25.8218214 120.893522,27.32 C120.669054,29.1216071 120.442489,31.0053929 122.259207,32.4909286" id="Fill-8" fill="#000000" sketch:type="MSShapeGroup"></path>
                <path d="M76.0839565,27.202 C77.067837,24.3046786 77.7957826,22.0963929 78.5698804,19.90075 C79.0712609,18.4826429 79.9187826,18.4215357 81.7816522,19.8354286 C81.2026522,21.2556429 80.5754022,22.7643571 79.9712283,24.2793929 C79.4111087,25.6806429 78.9558804,27.12825 78.3139457,28.4873571 C77.2650326,30.7103929 75.5846739,32.6637143 75.6455109,35.3461071 C75.6518043,35.6221429 74.9721087,36.1299643 74.5986957,36.1405 C74.1854239,36.1531429 73.5476848,35.816 73.3819565,35.4556786 C73.0484022,34.7266071 72.6833804,33.8226429 72.8344239,33.0935714 C73.4218152,30.2320714 72.5176522,27.8573214 70.9736522,25.5310357 C70.1513043,24.2920357 69.6037717,22.8612857 69.0037935,21.4853214 C68.8149891,21.0554643 68.6639457,20.4233214 68.8443587,20.0608929 C69.1149783,19.5214643 69.6289457,19.001 70.168087,18.7460357 C70.457587,18.6111786 71.1603587,18.9293571 71.4183913,19.2496429 C71.8169783,19.7469286 72.0519348,20.4043571 72.2575217,21.0259643 C72.9372174,23.0951786 73.7784457,25.0548214 76.0839565,27.202" id="Fill-9" fill="#000000" sketch:type="MSShapeGroup"></path>
                <path d="M137.384533,23.5608571 C138.678891,25.0379643 139.494946,26.0936429 140.438967,27.0186786 C142.421413,28.9656786 142.306033,31.3130357 141.393478,33.5234286 C140.594207,35.4577857 138.865598,36.5851071 136.644,36.6630714 C135.978989,36.6841429 135.272022,36.8801071 134.659457,36.71575 C133.925217,36.5155714 132.991685,36.1763214 132.666522,35.5989643 C132.356043,35.0532143 132.721065,34.1218571 132.809174,33.1378214 C134.37625,33.26425 135.670609,33.5107857 136.946087,33.4349286 C138.52575,33.338 139.480261,31.3551786 138.578196,30.0361071 C137.936261,29.1005357 137.032098,28.3272143 136.163598,27.5749643 C134.938467,26.5171786 134.386739,25.2360357 134.399326,23.61775 C134.422402,20.6930357 136.04612,19.0431429 139.087967,19.0789643 C139.501239,19.0852857 140.183033,19.4793214 140.26275,19.8080357 C140.397011,20.358 140.344565,21.1797857 140.006815,21.5653929 C139.387957,22.2691786 138.504772,22.7390714 137.384533,23.5608571" id="Fill-10" fill="#000000" sketch:type="MSShapeGroup"></path>
                <path d="M41.289413,34.5896429 C43.315913,36.59775 45.741,35.0869286 47.7045652,35.9571786 C48.4220217,38.3171786 48.1451087,38.9725 46.3304891,38.9493214 C44.4906957,38.9240357 42.6446087,38.8566071 40.8215978,38.6374643 C39.1831957,38.4393929 38.104913,37.1413929 38.1972174,35.4893929 C38.2916196,33.8184286 38.6041957,32.1601071 38.8328587,30.4996786 C39.2230543,27.6508214 39.455913,24.8146071 38.4447609,22.02475 C38.2790326,21.5632857 38.1175,20.96275 38.2790326,20.5560714 C38.4972065,20.0018929 38.9629239,19.2749286 39.4412283,19.1695714 C39.9174348,19.0663214 40.9076087,19.5235714 41.0376739,19.9365714 C41.9523261,22.8402143 42.3739891,25.8260357 41.7257609,28.8603214 C41.3040978,30.8368214 41.0145978,32.8006786 41.289413,34.5896429" id="Fill-11" fill="#000000" sketch:type="MSShapeGroup"></path>
            </g>
        </g>
    </g>
</svg>