<?xml version="1.0" encoding="UTF-8" standalone="no"?>
<svg width="195px" height="93px" viewBox="0 0 195 93" version="1.1" xmlns="http://www.w3.org/2000/svg" xmlns:xlink="http://www.w3.org/1999/xlink" xmlns:sketch="http://www.bohemiancoding.com/sketch/ns">
    <!-- Generator: Sketch 3.1.1 (8761) - http://www.bohemiancoding.com/sketch -->
    <title>sleigh-bells</title>
    <desc>Created with Sketch.</desc>
    <defs></defs>
    <g id="Page-1" stroke="none" stroke-width="1" fill="none" fill-rule="evenodd" sketch:type="MSPage">
        <g id="Group" sketch:type="MSLayerGroup">
            <path d="M0.244357477,72.9404604 C1.37699065,71.5235062 2.11351168,70.3175437 1.85768925,68.3338078 C1.2800257,63.8512679 1.17274533,59.3087402 0.883913551,54.7889665 C0.753939252,52.7473113 0.551757009,50.7035875 0.557946262,48.6640008 C0.568261682,46.2127734 0.766317757,43.7636146 0.879787383,41.3144557 C0.902481308,40.8180046 0.974689252,40.3132793 0.904544393,39.8292395 C0.318628505,35.7107638 0.807579439,31.5984937 1.11910514,27.5110462 C1.48014486,22.7968291 1.17068224,18.1343257 0.811705607,13.4532054 C0.753939252,12.7188714 1.05721262,11.9535093 1.23670093,10.9668127 C1.13148364,10.8820023 0.772507009,10.5944744 0.322754673,10.2345473 C0.460981308,9.49607627 0.60746028,8.70589157 0.762191589,7.87847305 C3.51434579,6.76145803 6.27475234,6.1036603 9.2146472,6.47599864 C9.29717056,6.48634137 9.37763084,6.51736957 9.45809112,6.51323248 C12.8683692,6.3849826 16.2786472,6.23397872 19.6909883,6.12434577 C22.3895023,6.03953537 25.1003949,6.12227722 27.7885935,5.90921695 C30.5655047,5.68788249 33.321785,5.19349992 36.0863178,4.82736723 C38.0400584,4.56879894 39.9876098,4.23369443 41.9496028,4.10544456 C43.0781098,4.03304544 44.2355,4.4508918 45.3681332,4.39504104 C48.970278,4.21714606 52.5662336,3.88204156 56.1683785,3.68139256 C58.0478481,3.5758967 59.9355701,3.61726763 61.8191659,3.59658217 C66.6570981,3.54073141 71.4929673,3.4952234 76.3308995,3.42902991 C83.8982921,3.3256026 91.4656846,3.08358268 99.031014,3.14357052 C103.953533,3.1828729 108.871925,3.77034006 113.796507,3.90479557 C120.11986,4.080622 126.449402,4.02270271 132.774818,4.11578729 C137.524037,4.18611787 142.269131,4.3660814 147.01835,4.44261761 C152.691832,4.53570219 158.357061,4.73635119 164.009911,3.80136825 C166.991068,3.30905423 170.056811,3.34215097 173.070977,3.01945774 C176.248126,2.6781476 179.406708,2.14032556 182.583857,1.79487832 C185.360769,1.49493911 188.154185,1.39151179 190.827942,0.427569205 C191.661428,0.129698535 192.676465,0.0200655799 192.752799,1.43495126 C194.514673,2.38234548 193.759584,4.71980282 195.191364,5.89680567 C195.443061,6.1036603 195.428619,6.90005064 195.261509,7.31169135 C193.359346,12.0134971 194.403266,16.9593914 193.949388,21.7749672 C193.722449,24.1848237 193.782278,26.6112285 193.32221,29.0459075 C192.909593,31.2261553 193.573907,33.6132578 193.774026,35.9072757 C193.901937,37.3821492 194.159822,38.8549542 194.161886,40.3298277 C194.168075,44.5434566 194.099993,48.7591539 194.000965,52.9727828 C193.970019,54.2014993 193.648178,55.4219416 193.60279,56.6527267 C193.433617,61.1766375 193.260318,65.7026168 193.221119,70.2306647 C193.202551,72.5039971 193.965893,74.7628497 193.266507,77.0713474 C193.122091,77.5471131 193.386166,78.2442132 193.660556,78.7303216 C194.607512,80.4182554 194.549745,82.2696043 194.667341,84.0981993 C194.723044,84.9938798 192.983864,86.8617771 191.921376,86.9776157 C190.411199,87.1430994 188.894832,87.2527324 187.382591,87.3954621 C187.137084,87.4182161 186.854442,87.4244217 186.660512,87.5485345 C184.329227,89.0440935 181.894787,88.3263079 179.431465,88.0263687 C177.498355,87.7884859 175.517794,87.9622438 173.564054,87.8732963 C170.613843,87.7388408 167.669822,87.5319862 164.721675,87.3561597 C162.761745,87.2403211 160.799752,87.0045068 158.841886,87.0376036 C155.965946,87.0872487 153.096196,87.4016677 150.22232,87.4761354 C143.98768,87.6354135 137.738598,87.9849978 131.5184,87.7326351 C126.804252,87.5423289 122.195322,88.3014854 117.528626,88.4545578 C111.374446,88.6552068 105.240897,89.3833351 99.0867173,89.7060283 C92.2248995,90.0659554 85.3486402,90.1693827 78.4826963,90.4900074 C74.9589486,90.6554911 71.4475794,91.253301 67.9258949,91.3050146 C62.6650304,91.3836194 57.4000397,91.143668 52.1371121,91.0588576 C47.8190771,90.9885271 43.5319883,90.3927857 39.183007,90.7506442 C34.0438645,91.1726277 28.8758388,91.367071 23.7181285,91.4249903 C18.946215,91.4808411 14.2980864,92.2048323 9.64170561,93.154295 C7.92934579,93.5038794 6.06638084,93.33219 4.30038084,93.1377467 C2.80258178,92.972263 1.04483411,90.4238139 0.966436916,88.8517187 C0.832336449,86.1564028 0.626028037,83.4672926 0.465107477,80.7740453 C0.442413551,80.378953 0.353700935,79.8494051 0.557946262,79.6053167 C2.15271028,77.7167339 1.81642757,75.8757276 0.580640187,73.9933505 C0.407341121,73.7285766 0.37639486,73.3686495 0.244357477,72.9404604 L0.244357477,72.9404604 Z M4.11882944,12.0321141 C4.11882944,13.0312219 4.05281075,13.7634873 4.13120794,14.4792043 C4.37877804,16.764948 4.73569159,19.040349 4.93374766,21.3302298 C5.01008178,22.213499 4.80377336,23.125728 4.67173598,24.0172714 C4.43241822,25.6369432 4.03836916,27.2442037 3.92077336,28.8700811 C3.78873598,30.7379784 3.90633178,32.6224241 3.87951168,34.5006642 C3.78873598,40.7642224 3.54735514,47.0277807 4.04249533,53.2892704 C4.45098598,58.4420193 4.78314252,63.6030423 5.18750701,68.7578598 C5.29478738,70.1251689 5.91164953,71.5586715 5.64963785,72.8287589 C5.01420794,75.8984817 4.942,78.9868213 4.81408879,82.0792981 C4.71712383,84.4270981 4.79552103,86.7831724 4.79552103,89.4578028 C6.00242523,89.4578028 7.25471729,89.8425524 7.96648131,89.3854037 C10.0295654,88.0573969 12.1854883,87.8981189 14.5353411,87.8174455 C18.7811682,87.6705788 23.0166799,87.1720591 27.2563178,86.8224748 C29.7134509,86.6197572 32.168521,86.410834 34.6235911,86.2225963 C38.225736,85.9454111 41.8258178,85.6082381 45.4320888,85.4303431 C50.686764,85.1697063 55.9476285,85.0642104 61.2043668,84.8263276 C66.1083178,84.6029246 71.0081425,84.1437073 75.9120935,84.0588969 C81.0285421,83.9720179 86.153243,84.1375016 91.2696916,84.3298765 C95.4515631,84.4850174 99.6251822,84.6567068 103.778171,85.4613713 C106.40654,85.9702337 109.173136,85.8419838 111.875776,85.850258 C113.986311,85.8564636 116.107161,85.7323509 118.201192,85.4758511 C120.220951,85.225557 122.343864,85.0517991 124.190325,84.2843684 C129.546091,82.0606811 135.056589,82.9418819 140.519636,83.150805 C144.008311,83.2852606 147.476355,83.9554696 150.989787,83.5562401 C154.492904,83.1570107 157.987769,82.6233257 161.501201,82.4164711 C165.992535,82.1516972 170.498311,82.1516972 174.997897,82.052407 C175.402262,82.0441328 175.814879,82.1041206 176.210991,82.1930681 C177.768619,82.5467895 179.317995,82.9356762 180.875624,83.2873291 C183.524624,83.885139 186.084911,83.192176 188.923715,82.7784667 C188.96085,81.7752217 189.210484,80.7657711 188.979418,79.8804333 C188.651388,78.6165515 188.717407,77.4953994 189.043374,76.2563402 C189.224925,75.5592401 189.07432,74.5622007 188.676145,73.972665 C188.02421,73.0045854 188.211951,71.9806549 188.77311,71.4717925 C189.810841,70.530604 189.687056,69.4942623 189.703561,68.3524247 C189.734507,66.0811608 189.825283,63.8119655 189.932563,61.5427702 C189.982077,60.4836745 190.153313,59.4287159 190.219332,58.3696201 C190.477217,54.3587088 190.848572,50.3477975 190.918717,46.3348177 C190.988862,42.3135636 191.003304,38.2612814 190.561804,34.2772612 C190.217269,31.1785788 189.715939,28.1626383 190.004771,24.9998309 C190.468965,19.9236183 190.09761,14.799829 190.974421,9.71947927 C191.306577,7.79779974 191.729509,5.63823738 190.497848,3.65657001 C184.768664,5.27624178 178.97965,5.76441871 173.118428,5.58445518 C172.709937,5.5720439 172.295257,5.62375756 171.888829,5.68788249 C164.665972,6.82765152 157.377096,7.55577982 150.092346,7.16689311 C143.90722,6.8359257 137.786049,7.08621981 131.642185,7.53302581 C130.171206,7.64059022 128.689911,7.89295287 127.231311,7.79779974 C121.910617,7.4523525 116.600238,6.91866755 111.279544,6.58976869 C106.676804,6.30637784 102.065811,6.21329326 97.4589439,6.02091845 C94.5066706,5.89680567 91.5564603,5.61962047 88.60625,5.63410029 C84.4965864,5.65271721 80.388986,5.88232585 76.2793224,6.022987 C74.6329813,6.07883775 72.9866402,6.11814013 71.3423621,6.19467634 C66.9294252,6.39946243 62.5164883,6.63527671 58.1035514,6.82972006 C55.3163248,6.95176429 52.4898995,6.7821435 49.7418715,7.16689311 C43.1709486,8.08325913 36.5216285,8.22598883 29.9692734,9.35127802 C26.4166425,9.96149919 22.7856145,10.1187087 19.1896589,10.5013898 C16.8026706,10.755821 14.5188364,11.2584777 12.569222,12.8553955 C11.6779696,13.5835238 10.6154813,13.4925078 9.61901168,12.743694 C9.14037617,12.3858355 8.50082009,12.1169245 7.91077804,12.0631422 C6.77401869,11.9576464 5.61869159,12.0321141 4.11882944,12.0321141 L4.11882944,12.0321141 Z M42.5582126,87.2610066 C39.6059393,86.7624869 30.7573715,87.5630143 28.9810561,88.3676789 C33.7777266,88.7979365 38.1328972,87.7450464 42.5582126,87.2610066 L42.5582126,87.2610066 Z M91.1727266,87.2051558 C91.1706636,87.0210552 91.1686005,86.8369546 91.1665374,86.652854 C90.2959159,86.4542735 89.4191051,86.0840037 88.2534626,87.2051558 L91.1727266,87.2051558 L91.1727266,87.2051558 Z M133.501023,84.9049323 C133.538159,84.7952994 133.577357,84.687735 133.616556,84.5801706 C133.309157,84.5450053 133.001757,84.4746747 132.696421,84.4829489 C132.403463,84.4912231 132.114631,84.5822391 131.823736,84.6360213 C131.838178,84.7249688 131.850556,84.8139163 131.862935,84.9049323 L133.501023,84.9049323 L133.501023,84.9049323 Z" id="Fill-10" fill="#000000" sketch:type="MSShapeGroup"></path>
            <path d="M4.11882944,12.0321141 C5.61869159,12.0321141 6.77401869,11.9576464 7.91077804,12.0631422 C8.50082009,12.1169245 9.14037617,12.3858355 9.61901168,12.743694 C10.6154813,13.4925078 11.6779696,13.5835238 12.569222,12.8553955 C14.5188364,11.2584777 16.8026706,10.755821 19.1896589,10.5013898 C22.7856145,10.1187087 26.4166425,9.96149919 29.9692734,9.35127802 C36.5216285,8.22598883 43.1709486,8.08325913 49.7418715,7.16689311 C52.4898995,6.7821435 55.3163248,6.95176429 58.1035514,6.82972006 C62.5164883,6.63527671 66.9294252,6.39946243 71.3423621,6.19467634 C72.9866402,6.11814013 74.6329813,6.07883775 76.2793224,6.022987 C80.388986,5.88232585 84.4965864,5.65271721 88.60625,5.63410029 C91.5564603,5.61962047 94.5066706,5.89680567 97.4589439,6.02091845 C102.065811,6.21329326 106.676804,6.30637784 111.279544,6.58976869 C116.600238,6.91866755 121.910617,7.4523525 127.231311,7.79779974 C128.689911,7.89295287 130.171206,7.64059022 131.642185,7.53302581 C137.786049,7.08621981 143.90722,6.8359257 150.092346,7.16689311 C157.377096,7.55577982 164.665972,6.82765152 171.888829,5.68788249 C172.295257,5.62375756 172.709937,5.5720439 173.118428,5.58445518 C178.97965,5.76441871 184.768664,5.27624178 190.497848,3.65657001 C191.729509,5.63823738 191.306577,7.79779974 190.974421,9.71947927 C190.09761,14.799829 190.468965,19.9236183 190.004771,24.9998309 C189.715939,28.1626383 190.217269,31.1785788 190.561804,34.2772612 C191.003304,38.2612814 190.988862,42.3135636 190.918717,46.3348177 C190.848572,50.3477975 190.477217,54.3587088 190.219332,58.3696201 C190.153313,59.4287159 189.982077,60.4836745 189.932563,61.5427702 C189.825283,63.8119655 189.734507,66.0811608 189.703561,68.3524247 C189.687056,69.4942623 189.810841,70.530604 188.77311,71.4717925 C188.211951,71.9806549 188.02421,73.0045854 188.676145,73.972665 C189.07432,74.5622007 189.224925,75.5592401 189.043374,76.2563402 C188.717407,77.4953994 188.651388,78.6165515 188.979418,79.8804333 C189.210484,80.7657711 188.96085,81.7752217 188.923715,82.7784667 C186.084911,83.192176 183.524624,83.885139 180.875624,83.2873291 C179.317995,82.9356762 177.768619,82.5467895 176.210991,82.1930681 C175.814879,82.1041206 175.402262,82.0441328 174.997897,82.052407 C170.498311,82.1516972 165.992535,82.1516972 161.501201,82.4164711 C157.987769,82.6233257 154.492904,83.1570107 150.989787,83.5562401 C147.476355,83.9554696 144.008311,83.2852606 140.519636,83.150805 C135.056589,82.9418819 129.546091,82.0606811 124.190325,84.2843684 C122.343864,85.0517991 120.220951,85.225557 118.201192,85.4758511 C116.107161,85.7323509 113.986311,85.8564636 111.875776,85.850258 C109.173136,85.8419838 106.40654,85.9702337 103.778171,85.4613713 C99.6251822,84.6567068 95.4515631,84.4850174 91.2696916,84.3298765 C86.153243,84.1375016 81.0285421,83.9720179 75.9120935,84.0588969 C71.0081425,84.1437073 66.1083178,84.6029246 61.2043668,84.8263276 C55.9476285,85.0642104 50.686764,85.1697063 45.4320888,85.4303431 C41.8258178,85.6082381 38.225736,85.9454111 34.6235911,86.2225963 C32.168521,86.410834 29.7134509,86.6197572 27.2563178,86.8224748 C23.0166799,87.1720591 18.7811682,87.6705788 14.5353411,87.8174455 C12.1854883,87.8981189 10.0295654,88.0573969 7.96648131,89.3854037 C7.25471729,89.8425524 6.00242523,89.4578028 4.79552103,89.4578028 C4.79552103,86.7831724 4.71712383,84.4270981 4.81408879,82.0792981 C4.942,78.9868213 5.01420794,75.8984817 5.64963785,72.8287589 C5.91164953,71.5586715 5.29478738,70.1251689 5.18750701,68.7578598 C4.78314252,63.6030423 4.45098598,58.4420193 4.04249533,53.2892704 C3.54735514,47.0277807 3.78873598,40.7642224 3.87951168,34.5006642 C3.90633178,32.6224241 3.78873598,30.7379784 3.92077336,28.8700811 C4.03836916,27.2442037 4.43241822,25.6369432 4.67173598,24.0172714 C4.80377336,23.125728 5.01008178,22.213499 4.93374766,21.3302298 C4.73569159,19.040349 4.37877804,16.764948 4.13120794,14.4792043 C4.05281075,13.7634873 4.11882944,13.0312219 4.11882944,12.0321141 L4.11882944,12.0321141 Z M54.7592921,40.9648714 C57.3546519,38.8963251 57.4784369,38.1247573 55.7475093,35.9403724 C52.3661145,36.7429684 48.9496472,37.5393587 45.5414322,38.37712 C44.6852523,38.5881117 44.0766425,39.0949055 44.1261565,40.1209045 C44.2024907,41.7633303 44.1694813,43.4140303 44.3262757,45.0461133 C44.5078271,46.9264219 45.1123107,48.8025934 45.0462921,50.6622166 C44.972021,52.8197104 45.9457967,54.9337647 44.9121916,57.1967544 C44.4253037,58.2599872 45.044229,59.8734533 45.3103668,61.2076657 C45.3825748,61.5737984 45.9540491,61.8985602 46.3604766,62.1219632 C47.1774579,62.5687692 48.0398271,62.9307648 49.0796215,63.4189417 C52.2299509,62.1488543 55.689743,61.2614479 59.4321776,62.1033463 C59.6034136,61.2552423 59.7292617,60.6305413 59.8736776,59.9168928 C56.1044229,57.9662536 52.3764299,59.7307236 48.5886075,59.7576147 C48.2564509,57.1098754 47.9346098,54.5593578 47.5880117,51.8247396 C49.3705164,51.5123891 50.8765678,51.2496837 52.3145374,50.9993896 C53.1005724,52.6438839 53.1005724,52.6438839 54.8872033,52.2032836 C54.5571098,47.5345745 53.2573668,48.1820295 50.3092196,48.3888842 C49.5169953,48.4447349 48.7288972,48.5316139 47.7736893,48.6184928 C47.5529393,46.4341079 47.3156846,44.4876058 47.1774579,42.5328295 C47.1155654,41.6681772 47.7344907,41.2937703 48.5184626,41.0145165 C50.2885888,40.3856784 52.0215794,39.6534131 53.8412196,38.9335589 C54.0867266,39.4775866 54.3817477,40.1312473 54.7592921,40.9648714 L54.7592921,40.9648714 Z M170.719061,51.9302355 C170.882044,50.3643459 170.941874,48.8853353 171.201822,47.4435585 C171.795991,44.1297473 172.509818,40.8386901 173.118428,37.529016 C173.23396,36.904315 173.29379,36.1079247 173.000832,35.6156106 C172.73882,35.1750103 171.975479,34.9267847 171.395752,34.8378372 C171.181192,34.8026719 170.675736,35.4273729 170.61178,35.8017798 C169.84225,40.4187752 169.165558,45.0523189 168.365082,49.6631087 C168.222729,50.4925958 167.82868,51.6261591 167.203565,51.9571266 C165.202374,53.0141537 163.040262,53.7712417 160.424271,53.5747298 C160.568687,52.2922311 160.609949,51.1545306 160.838951,50.0561325 C161.591977,46.4299708 162.406895,42.8162204 163.207371,39.2004014 C163.4405,38.1475113 163.283706,37.1028954 162.39039,36.5443879 C161.550715,36.0210457 160.665652,36.412001 160.172575,37.036702 C160.172575,38.7184301 160.391262,40.2222633 160.12925,41.6350804 C159.541271,44.7834079 158.612883,47.8676105 158.020778,51.0138694 C157.641171,53.0286336 156.776738,55.2192241 159.091519,57.2650164 C161.226811,56.7540855 163.677755,56.3817471 165.959526,55.548123 C167.620308,54.9420389 169.107792,55.0227122 170.712871,55.392982 C173.914778,56.131453 176.90625,55.9763121 179.320058,53.1382665 C179.095182,52.6790492 178.853801,52.1908723 178.569096,51.6075422 C176.014998,52.4453035 173.555801,53.0410448 170.719061,51.9302355 L170.719061,51.9302355 Z M12.2081822,64.480106 C12.717764,66.8630713 13.2211565,67.4919094 15.0696799,67.5911996 C17.8259603,67.740135 20.4811495,67.2891919 22.8536963,65.7315765 C24.4567126,64.6786864 24.9683575,63.6113165 24.5103528,61.7620361 C23.9388785,59.455607 23.2477453,57.180206 22.5958107,54.8944623 C22.5545491,54.7475955 22.3874393,54.6400311 22.3255467,54.4931643 C20.9948575,51.3986191 18.4778949,49.452117 15.7278037,47.7807315 C15.0820584,47.3897763 14.6240537,47.0919056 14.7891005,46.3079266 C15.2491682,44.1007876 16.7552196,43.0561717 19.0349276,43.178216 C19.9839463,43.2278611 21.0154883,43.1864902 21.8922991,42.8617284 C23.0868248,42.421128 23.2539346,40.1105618 22.2677804,39.3100344 C21.2465537,38.4805473 18.5088411,38.4660675 17.3720818,39.2107441 C16.3095935,39.9057757 15.1872757,40.5118598 13.55125,41.4737338 C13.0148481,42.7458898 12.1710467,44.6013758 11.4469042,46.5003014 C10.8259159,48.1323844 11.5665631,49.3507582 12.8766215,50.2960839 C14.2093738,51.2558894 15.5545047,52.201215 16.8913832,53.1548149 C18.5439136,54.3338863 19.7466916,55.7901429 20.0417126,57.8979916 C20.1551822,58.7005876 20.5286005,59.4638811 20.712215,60.26234 C20.957722,61.3359156 21.1372103,62.4260395 21.3662126,63.632002 C18.9668458,64.3373763 17.0027897,65.4295687 14.7870374,63.8740219 C13.895785,63.2472524 12.9508925,63.8429937 12.2081822,64.480106 L12.2081822,64.480106 Z M133.175056,43.2382038 C133.736215,42.4893901 134.132327,41.9763906 134.511935,41.4530483 C135.650757,39.8850902 135.989103,38.2343903 135.347484,36.3209849 C134.619215,34.1531484 133.538159,33.4270886 131.316217,33.9959389 C130.365136,34.2400273 129.451189,34.6371882 128.493918,34.8440429 C126.798063,35.2101756 126.290544,35.9631264 126.800126,37.5848667 C126.994056,38.2033621 127.359222,38.7928978 127.425241,39.4175988 C127.660432,41.7012739 128.048292,44.0118401 127.908002,46.2810355 C127.778028,48.3454447 128.190645,50.5153498 127.101336,52.5135655 C126.818694,53.0327706 127.033255,53.9512052 127.266383,54.5986602 C128.450593,57.8979916 131.660752,58.7978092 134.311815,56.61963 C136.143834,55.1137282 137.31154,53.1713632 138.052187,50.929059 C139.032152,47.9689693 138.00061,45.5260161 135.1845,44.2476544 C134.542881,43.9559894 133.923956,43.6167478 133.175056,43.2382038 L133.175056,43.2382038 Z M104.63435,49.3073187 C104.943813,47.2842804 105.212014,45.6935683 105.422449,44.0966505 C105.616379,42.6300512 105.872201,41.1551777 105.876327,39.6844412 C105.882516,37.8744632 105.092355,37.1918429 103.12211,37.036702 C103.054028,37.5869353 102.897234,38.1495799 102.934369,38.6998132 C103.278904,43.8318766 102.610465,48.9060207 102.092631,53.9863705 C101.944089,55.461244 101.620185,56.9175006 101.533535,58.3923742 C101.506715,58.8640027 101.87807,59.5135263 102.270056,59.8010542 C102.517626,59.9789492 103.210822,59.7431349 103.586304,59.5073206 C105.119175,58.5454466 105.63082,56.2204005 104.80765,54.590386 C104.543575,54.0691123 104.489935,53.4402743 104.277437,52.6169928 C106.429234,52.2384489 108.281883,51.9136871 110.410986,51.5392802 C110.025189,54.0608382 109.618762,56.1397272 109.424832,58.2393017 C109.32993,59.2653007 109.494977,60.3905899 110.881369,61.1911173 C111.527114,60.5002229 112.205869,59.7762316 112.696883,59.2508209 C111.75818,55.5191633 111.159886,52.2177634 114.145168,49.3466211 C113.565442,48.9018836 112.998093,48.4633518 112.424556,48.0206829 C112.424556,47.1911958 112.42043,46.3720515 112.424556,45.5508386 C112.438998,42.9072364 112.521521,40.2615657 112.451376,37.620032 C112.401862,35.7149009 111.694224,35.2680949 109.829196,35.7748887 C109.829196,36.9622343 109.503229,38.2923096 109.889026,39.3638166 C111.017533,42.4749102 109.957107,45.5384273 110.396544,48.7426056 C108.440741,48.9329118 106.829472,49.0921899 104.63435,49.3073187 L104.63435,49.3073187 Z M145.761932,45.8693947 C145.706229,44.9737142 145.759869,44.4586462 145.631958,43.9932232 C144.874806,41.1924115 146.376731,39.5934252 148.602799,38.4577933 C149.306311,38.0999348 150.203752,37.8330923 150.954715,37.9385882 C151.926428,38.0751122 152.524722,37.5993466 152.59693,36.9436174 C152.67739,36.1927351 152.372054,35.2784376 151.317818,35.1253652 C150.839182,35.0550346 150.3296,34.8833452 149.881911,34.9784984 C147.331939,35.5204575 145.359631,37.2063228 143.247033,38.5694948 C142.83029,38.8384058 142.741577,39.8933644 142.793154,40.5635734 C142.96439,42.8534542 143.300673,45.1309237 143.511107,47.4187359 C143.721542,49.7148223 143.826759,52.0212515 144.031005,54.3194065 C144.245565,56.7209887 146.413867,58.7502327 148.23557,58.0572697 C150.837119,57.0685045 153.354082,55.8335824 155.838035,54.567632 C156.211453,54.3773258 156.446645,53.4071775 156.335238,52.8859039 C156.172255,52.1226103 155.458428,52.0026346 154.740474,52.3398076 C153.845096,52.757654 152.962096,53.2148027 152.044023,53.5747298 C150.474016,54.189088 148.990659,55.1157968 147.267984,55.1592363 C146.050764,51.9219613 145.951736,51.2662321 146.285956,48.6371097 C148.497582,47.7434977 150.806173,46.8126519 153.129206,45.8735318 C151.876914,43.7367235 151.637596,43.55676 149.793199,44.14009 C148.50996,44.5475936 147.303056,45.1971172 145.761932,45.8693947 L145.761932,45.8693947 Z M89.367528,37.3304355 C88.0636589,38.108209 88.1028575,38.1226888 87.6861145,39.1424821 C87.3766519,39.895433 86.9207103,40.588396 86.5844276,41.3330727 C85.9510607,42.7438213 85.2351706,44.1359529 84.779229,45.6046208 C84.3191612,47.0877685 84.0654019,48.6453839 83.8446519,50.1885195 C83.504243,52.5673477 83.4629813,54.9482445 84.1479252,57.2960446 C84.7214626,59.2611636 86.3698668,60.8829039 87.8160888,60.8477386 C90.568243,60.7774081 93.9186916,57.5856411 94.1621355,54.7972407 C94.3601916,52.5404566 94.3601916,52.5404566 96.7905047,52.0481426 C97.0298224,51.9984975 97.3207173,51.9860862 97.4878271,51.841288 C97.8323621,51.5392802 98.3316285,51.1731475 98.3522593,50.8111519 C98.3728902,50.4470877 97.9623364,49.834798 97.6095491,49.7168909 C96.699729,49.410746 95.7135748,49.1459721 94.7686822,49.1770003 C93.3843528,49.2225083 92.014465,49.5969152 90.6280724,49.7230965 C89.5593949,49.8182497 89.2458061,50.3933055 89.2148598,51.3469054 C89.1839136,52.2901625 89.5779626,52.8838353 90.4238271,53.2934075 C91.4409276,53.7857215 91.8287874,54.6896762 91.5626495,55.7653203 C91.352215,56.6175614 89.390222,57.6621773 88.3215444,57.7118224 C87.1167033,57.7676732 86.7886729,56.9547345 86.5307874,56.0487112 C86.2852804,55.1819903 85.8025187,54.2718299 85.9015467,53.4361372 C86.3781192,49.4500484 86.6463201,45.3791493 89.2107336,41.9784591 C89.6460444,41.4013347 89.8915514,40.6814806 90.2154556,40.0216143 C90.7848668,38.8570227 90.5166659,37.9509994 89.367528,37.3304355 L89.367528,37.3304355 Z M41.9269089,62.5253297 C41.2378388,61.2966132 40.3940374,60.8911781 39.15825,61.2118028 C38.1267079,61.4786453 37.0600935,61.6234435 36.0037944,61.7744474 C33.2516402,62.1716083 33.0473949,61.9895762 33.1402336,59.099817 C33.319722,53.5767983 33.5322196,48.0558482 33.7096449,42.5328295 C33.7302757,41.883306 33.7302757,41.1944801 33.542535,40.5842589 C33.1629276,39.3534738 32.1107547,38.668785 31.1534836,38.8756396 C30.1838341,39.0845628 29.911507,39.8912959 30.1260678,41.4675282 C30.7532453,46.0452212 30.8976612,50.6249827 30.4396565,55.2440467 C30.1260678,58.3903056 29.7588388,61.5675928 30.278736,64.9744885 C31.2298178,65.0758473 32.0880607,65.2537423 32.9442407,65.241331 C34.7411869,65.2144399 36.5381332,65.0923957 38.3350794,65.0034482 C39.9979252,64.9227749 41.4193902,64.4759689 41.9269089,62.5253297 L41.9269089,62.5253297 Z M180.791037,57.1553835 C181.70911,59.3335627 182.146484,59.6852156 183.673166,59.4928408 C186.604808,59.1246396 188.983544,56.0094088 188.407944,53.1237867 C187.86329,50.3933055 187.277374,47.6545502 184.844998,45.7990642 C184.207505,45.3129558 183.745374,44.5827589 183.239918,43.9373725 C181.975248,42.3239064 182.179493,40.4353236 182.794292,38.7742809 C183.266738,37.4917821 184.481895,36.5754161 186.117921,36.7015975 C187.725063,36.8277788 188.183068,35.741792 188.500783,34.2255475 C187.83647,34.045584 187.231986,33.7456448 186.625439,33.7415077 C183.021231,33.7084109 178.670187,37.1794317 179.419086,41.8543463 C179.833766,44.4338236 181.255231,46.2541444 183.002664,47.6793728 C185.791953,49.9568423 186.157119,52.6562952 185.577393,55.6122479 C184.195126,57.2981132 181.977311,54.8489543 180.791037,57.1553835 L180.791037,57.1553835 Z M68.7903271,55.7508405 C67.3564836,55.6556874 66.3888972,55.5605342 65.4192477,55.5336431 C64.3691379,55.5046835 63.5088318,56.3383077 63.4840748,57.3415526 C63.4593178,58.297221 64.3608855,59.0791315 65.4481308,59.008801 C66.7561262,58.9239906 68.0599953,58.7564383 69.3679907,58.7109303 C70.921493,58.6571481 72.4853107,58.7812609 74.0305607,58.6550795 C74.894993,58.584749 75.7800561,58.2558501 76.5599019,57.8566207 C76.8776168,57.6932055 77.2035841,56.8740612 77.0591682,56.6320412 C76.832229,56.2514287 76.2298084,55.9452839 75.7552991,55.8935702 C74.3358972,55.7404978 72.9020537,55.726018 71.3960023,55.6515503 C71.3279206,54.3855999 71.1855678,53.3968348 71.2392079,52.4204809 C71.4104439,49.3776493 71.7157804,46.3410233 71.854007,43.2961231 C71.9489089,41.1882744 71.534229,40.8945408 69.304035,40.9545287 C69.1369252,45.7638989 68.9698154,50.5712005 68.7903271,55.7508405 L68.7903271,55.7508405 Z M75.4644042,40.054711 C75.6356402,40.1829609 75.8089393,40.3112108 75.9801752,40.4394607 C76.465,39.9823119 77.052979,39.5934252 77.4078294,39.0493975 C77.8926542,38.3047209 78.3424065,37.4731652 78.5198318,36.6188556 C78.598229,36.2527229 78.0432593,35.4811551 77.6265164,35.340494 C76.9085631,35.1026112 76.0193738,35.0136637 75.2952313,35.2122441 C71.5878692,36.2216947 67.9093902,37.3387097 64.2226589,38.4246965 C63.2550724,38.7101559 62.5845701,39.2293611 62.8795911,40.3794728 C63.1395397,41.3889234 64.003972,41.7695359 65.2150023,41.3434154 C66.4507897,40.9090207 67.6453154,40.3525817 68.8790397,39.9140499 C71.0081425,39.1569619 73.1558131,38.4474505 75.4644042,37.6614029 L75.4644042,40.054711 L75.4644042,40.054711 Z" id="Fill-54" sketch:type="MSShapeGroup"></path>
            <path d="M42.5582126,87.2610066 C38.1328972,87.7450464 33.7777266,88.7979365 28.9810561,88.3676789 C30.7573715,87.5630143 39.6059393,86.7624869 42.5582126,87.2610066" id="Fill-55" sketch:type="MSShapeGroup"></path>
            <path d="M91.1727266,87.2051558 L88.2534626,87.2051558 C89.4191051,86.0840037 90.2959159,86.4542735 91.1665374,86.652854 C91.1686005,86.8369546 91.1706636,87.0210552 91.1727266,87.2051558" id="Fill-56" sketch:type="MSShapeGroup"></path>
            <path d="M133.501023,84.9049323 L131.862935,84.9049323 C131.850556,84.8139163 131.838178,84.7249688 131.823736,84.6360213 C132.114631,84.5822391 132.403463,84.4912231 132.696421,84.4829489 C133.001757,84.4746747 133.309157,84.5450053 133.616556,84.5801706 C133.577357,84.687735 133.538159,84.7952994 133.501023,84.9049323" id="Fill-57" sketch:type="MSShapeGroup"></path>
            <path d="M54.7592921,40.9648714 C54.3817477,40.1312473 54.0867266,39.4775866 53.8412196,38.9335589 C52.0215794,39.6534131 50.2885888,40.3856784 48.5184626,41.0145165 C47.7344907,41.2937703 47.1155654,41.6681772 47.1774579,42.5328295 C47.3156846,44.4876058 47.5529393,46.4341079 47.7736893,48.6184928 C48.7288972,48.5316139 49.5169953,48.4447349 50.3092196,48.3888842 C53.2573668,48.1820295 54.5571098,47.5345745 54.8872033,52.2032836 C53.1005724,52.6438839 53.1005724,52.6438839 52.3145374,50.9993896 C50.8765678,51.2496837 49.3705164,51.5123891 47.5880117,51.8247396 C47.9346098,54.5593578 48.2564509,57.1098754 48.5886075,59.7576147 C52.3764299,59.7307236 56.1044229,57.9662536 59.8736776,59.9168928 C59.7292617,60.6305413 59.6034136,61.2552423 59.4321776,62.1033463 C55.689743,61.2614479 52.2299509,62.1488543 49.0796215,63.4189417 C48.0398271,62.9307648 47.1774579,62.5687692 46.3604766,62.1219632 C45.9540491,61.8985602 45.3825748,61.5737984 45.3103668,61.2076657 C45.044229,59.8734533 44.4253037,58.2599872 44.9121916,57.1967544 C45.9457967,54.9337647 44.972021,52.8197104 45.0462921,50.6622166 C45.1123107,48.8025934 44.5078271,46.9264219 44.3262757,45.0461133 C44.1694813,43.4140303 44.2024907,41.7633303 44.1261565,40.1209045 C44.0766425,39.0949055 44.6852523,38.5881117 45.5414322,38.37712 C48.9496472,37.5393587 52.3661145,36.7429684 55.7475093,35.9403724 C57.4784369,38.1247573 57.3546519,38.8963251 54.7592921,40.9648714" id="Fill-206" fill="#000000" sketch:type="MSShapeGroup"></path>
            <path d="M170.719061,51.9302355 C173.555801,53.0410448 176.014998,52.4453035 178.569096,51.6075422 C178.853801,52.1908723 179.095182,52.6790492 179.320058,53.1382665 C176.90625,55.9763121 173.914778,56.131453 170.712871,55.392982 C169.107792,55.0227122 167.620308,54.9420389 165.959526,55.548123 C163.677755,56.3817471 161.226811,56.7540855 159.091519,57.2650164 C156.776738,55.2192241 157.641171,53.0286336 158.020778,51.0138694 C158.612883,47.8676105 159.541271,44.7834079 160.12925,41.6350804 C160.391262,40.2222633 160.172575,38.7184301 160.172575,37.036702 C160.665652,36.412001 161.550715,36.0210457 162.39039,36.5443879 C163.283706,37.1028954 163.4405,38.1475113 163.207371,39.2004014 C162.406895,42.8162204 161.591977,46.4299708 160.838951,50.0561325 C160.609949,51.1545306 160.568687,52.2922311 160.424271,53.5747298 C163.040262,53.7712417 165.202374,53.0141537 167.203565,51.9571266 C167.82868,51.6261591 168.222729,50.4925958 168.365082,49.6631087 C169.165558,45.0523189 169.84225,40.4187752 170.61178,35.8017798 C170.675736,35.4273729 171.181192,34.8026719 171.395752,34.8378372 C171.975479,34.9267847 172.73882,35.1750103 173.000832,35.6156106 C173.29379,36.1079247 173.23396,36.904315 173.118428,37.529016 C172.509818,40.8386901 171.795991,44.1297473 171.201822,47.4435585 C170.941874,48.8853353 170.882044,50.3643459 170.719061,51.9302355" id="Fill-207" fill="#000000" sketch:type="MSShapeGroup"></path>
            <path d="M12.2081822,64.480106 C12.9508925,63.8429937 13.895785,63.2472524 14.7870374,63.8740219 C17.0027897,65.4295687 18.9668458,64.3373763 21.3662126,63.632002 C21.1372103,62.4260395 20.957722,61.3359156 20.712215,60.26234 C20.5286005,59.4638811 20.1551822,58.7005876 20.0417126,57.8979916 C19.7466916,55.7901429 18.5439136,54.3338863 16.8913832,53.1548149 C15.5545047,52.201215 14.2093738,51.2558894 12.8766215,50.2960839 C11.5665631,49.3507582 10.8259159,48.1323844 11.4469042,46.5003014 C12.1710467,44.6013758 13.0148481,42.7458898 13.55125,41.4737338 C15.1872757,40.5118598 16.3095935,39.9057757 17.3720818,39.2107441 C18.5088411,38.4660675 21.2465537,38.4805473 22.2677804,39.3100344 C23.2539346,40.1105618 23.0868248,42.421128 21.8922991,42.8617284 C21.0154883,43.1864902 19.9839463,43.2278611 19.0349276,43.178216 C16.7552196,43.0561717 15.2491682,44.1007876 14.7891005,46.3079266 C14.6240537,47.0919056 15.0820584,47.3897763 15.7278037,47.7807315 C18.4778949,49.452117 20.9948575,51.3986191 22.3255467,54.4931643 C22.3874393,54.6400311 22.5545491,54.7475955 22.5958107,54.8944623 C23.2477453,57.180206 23.9388785,59.455607 24.5103528,61.7620361 C24.9683575,63.6113165 24.4567126,64.6786864 22.8536963,65.7315765 C20.4811495,67.2891919 17.8259603,67.740135 15.0696799,67.5911996 C13.2211565,67.4919094 12.717764,66.8630713 12.2081822,64.480106" id="Fill-208" fill="#000000" sketch:type="MSShapeGroup"></path>
            <path d="M133.175056,43.2382038 C133.923956,43.6167478 134.542881,43.9559894 135.1845,44.2476544 C138.00061,45.5260161 139.032152,47.9689693 138.052187,50.929059 C137.31154,53.1713632 136.143834,55.1137282 134.311815,56.61963 C131.660752,58.7978092 128.450593,57.8979916 127.266383,54.5986602 C127.033255,53.9512052 126.818694,53.0327706 127.101336,52.5135655 C128.190645,50.5153498 127.778028,48.3454447 127.908002,46.2810355 C128.048292,44.0118401 127.660432,41.7012739 127.425241,39.4175988 C127.359222,38.7928978 126.994056,38.2033621 126.800126,37.5848667 C126.290544,35.9631264 126.798063,35.2101756 128.493918,34.8440429 C129.451189,34.6371882 130.365136,34.2400273 131.316217,33.9959389 C133.538159,33.4270886 134.619215,34.1531484 135.347484,36.3209849 C135.989103,38.2343903 135.650757,39.8850902 134.511935,41.4530483 C134.132327,41.9763906 133.736215,42.4893901 133.175056,43.2382038 L133.175056,43.2382038 Z M130.264044,45.4039718 C130.264044,47.4373529 129.956645,49.1439036 130.383703,50.6415311 C130.620958,51.4730867 130.907727,52.1164046 130.695229,53.0058795 C130.503362,53.806407 130.530182,54.8923938 131.477138,55.0764944 C132.149703,55.2068128 133.187435,54.8386116 133.664007,54.3235435 C134.945182,52.9376175 135.87357,51.2931232 136.084005,49.3300727 C136.203664,48.2151263 135.817867,47.2987602 134.82965,46.8891881 C133.437068,46.3099951 131.955773,45.9417939 130.264044,45.4039718 L130.264044,45.4039718 Z M130.030916,42.4500877 C132.058928,41.5026935 133.315346,40.5222025 133.480393,38.6811963 C133.527843,38.1640597 133.432942,37.3387097 133.115227,37.1546091 C132.64897,36.881561 131.796916,36.8381215 131.338911,37.1028954 C130.777752,37.4235201 130.202152,38.1144146 130.086619,38.7308414 C129.8865,39.8106226 130.030916,40.9545287 130.030916,42.4500877 L130.030916,42.4500877 Z" id="Fill-209" fill="#000000" sketch:type="MSShapeGroup"></path>
            <path d="M104.63435,49.3073187 C106.829472,49.0921899 108.440741,48.9329118 110.396544,48.7426056 C109.957107,45.5384273 111.017533,42.4749102 109.889026,39.3638166 C109.503229,38.2923096 109.829196,36.9622343 109.829196,35.7748887 C111.694224,35.2680949 112.401862,35.7149009 112.451376,37.620032 C112.521521,40.2615657 112.438998,42.9072364 112.424556,45.5508386 C112.42043,46.3720515 112.424556,47.1911958 112.424556,48.0206829 C112.998093,48.4633518 113.565442,48.9018836 114.145168,49.3466211 C111.159886,52.2177634 111.75818,55.5191633 112.696883,59.2508209 C112.205869,59.7762316 111.527114,60.5002229 110.881369,61.1911173 C109.494977,60.3905899 109.32993,59.2653007 109.424832,58.2393017 C109.618762,56.1397272 110.025189,54.0608382 110.410986,51.5392802 C108.281883,51.9136871 106.429234,52.2384489 104.277437,52.6169928 C104.489935,53.4402743 104.543575,54.0691123 104.80765,54.590386 C105.63082,56.2204005 105.119175,58.5454466 103.586304,59.5073206 C103.210822,59.7431349 102.517626,59.9789492 102.270056,59.8010542 C101.87807,59.5135263 101.506715,58.8640027 101.533535,58.3923742 C101.620185,56.9175006 101.944089,55.461244 102.092631,53.9863705 C102.610465,48.9060207 103.278904,43.8318766 102.934369,38.6998132 C102.897234,38.1495799 103.054028,37.5869353 103.12211,37.036702 C105.092355,37.1918429 105.882516,37.8744632 105.876327,39.6844412 C105.872201,41.1551777 105.616379,42.6300512 105.422449,44.0966505 C105.212014,45.6935683 104.943813,47.2842804 104.63435,49.3073187" id="Fill-210" fill="#000000" sketch:type="MSShapeGroup"></path>
            <path d="M145.761932,45.8693947 C147.303056,45.1971172 148.50996,44.5475936 149.793199,44.14009 C151.637596,43.55676 151.876914,43.7367235 153.129206,45.8735318 C150.806173,46.8126519 148.497582,47.7434977 146.285956,48.6371097 C145.951736,51.2662321 146.050764,51.9219613 147.267984,55.1592363 C148.990659,55.1157968 150.474016,54.189088 152.044023,53.5747298 C152.962096,53.2148027 153.845096,52.757654 154.740474,52.3398076 C155.458428,52.0026346 156.172255,52.1226103 156.335238,52.8859039 C156.446645,53.4071775 156.211453,54.3773258 155.838035,54.567632 C153.354082,55.8335824 150.837119,57.0685045 148.23557,58.0572697 C146.413867,58.7502327 144.245565,56.7209887 144.031005,54.3194065 C143.826759,52.0212515 143.721542,49.7148223 143.511107,47.4187359 C143.300673,45.1309237 142.96439,42.8534542 142.793154,40.5635734 C142.741577,39.8933644 142.83029,38.8384058 143.247033,38.5694948 C145.359631,37.2063228 147.331939,35.5204575 149.881911,34.9784984 C150.3296,34.8833452 150.839182,35.0550346 151.317818,35.1253652 C152.372054,35.2784376 152.67739,36.1927351 152.59693,36.9436174 C152.524722,37.5993466 151.926428,38.0751122 150.954715,37.9385882 C150.203752,37.8330923 149.306311,38.0999348 148.602799,38.4577933 C146.376731,39.5934252 144.874806,41.1924115 145.631958,43.9932232 C145.759869,44.4586462 145.706229,44.9737142 145.761932,45.8693947" id="Fill-211" fill="#000000" sketch:type="MSShapeGroup"></path>
            <path d="M89.367528,37.3304355 C90.5166659,37.9509994 90.7848668,38.8570227 90.2154556,40.0216143 C89.8915514,40.6814806 89.6460444,41.4013347 89.2107336,41.9784591 C86.6463201,45.3791493 86.3781192,49.4500484 85.9015467,53.4361372 C85.8025187,54.2718299 86.2852804,55.1819903 86.5307874,56.0487112 C86.7886729,56.9547345 87.1167033,57.7676732 88.3215444,57.7118224 C89.390222,57.6621773 91.352215,56.6175614 91.5626495,55.7653203 C91.8287874,54.6896762 91.4409276,53.7857215 90.4238271,53.2934075 C89.5779626,52.8838353 89.1839136,52.2901625 89.2148598,51.3469054 C89.2458061,50.3933055 89.5593949,49.8182497 90.6280724,49.7230965 C92.014465,49.5969152 93.3843528,49.2225083 94.7686822,49.1770003 C95.7135748,49.1459721 96.699729,49.410746 97.6095491,49.7168909 C97.9623364,49.834798 98.3728902,50.4470877 98.3522593,50.8111519 C98.3316285,51.1731475 97.8323621,51.5392802 97.4878271,51.841288 C97.3207173,51.9860862 97.0298224,51.9984975 96.7905047,52.0481426 C94.3601916,52.5404566 94.3601916,52.5404566 94.1621355,54.7972407 C93.9186916,57.5856411 90.568243,60.7774081 87.8160888,60.8477386 C86.3698668,60.8829039 84.7214626,59.2611636 84.1479252,57.2960446 C83.4629813,54.9482445 83.504243,52.5673477 83.8446519,50.1885195 C84.0654019,48.6453839 84.3191612,47.0877685 84.779229,45.6046208 C85.2351706,44.1359529 85.9510607,42.7438213 86.5844276,41.3330727 C86.9207103,40.588396 87.3766519,39.895433 87.6861145,39.1424821 C88.1028575,38.1226888 88.0636589,38.108209 89.367528,37.3304355" id="Fill-212" fill="#000000" sketch:type="MSShapeGroup"></path>
            <path d="M41.9269089,62.5253297 C41.4193902,64.4759689 39.9979252,64.9227749 38.3350794,65.0034482 C36.5381332,65.0923957 34.7411869,65.2144399 32.9442407,65.241331 C32.0880607,65.2537423 31.2298178,65.0758473 30.278736,64.9744885 C29.7588388,61.5675928 30.1260678,58.3903056 30.4396565,55.2440467 C30.8976612,50.6249827 30.7532453,46.0452212 30.1260678,41.4675282 C29.911507,39.8912959 30.1838341,39.0845628 31.1534836,38.8756396 C32.1107547,38.668785 33.1629276,39.3534738 33.542535,40.5842589 C33.7302757,41.1944801 33.7302757,41.883306 33.7096449,42.5328295 C33.5322196,48.0558482 33.319722,53.5767983 33.1402336,59.099817 C33.0473949,61.9895762 33.2516402,62.1716083 36.0037944,61.7744474 C37.0600935,61.6234435 38.1267079,61.4786453 39.15825,61.2118028 C40.3940374,60.8911781 41.2378388,61.2966132 41.9269089,62.5253297" id="Fill-213" fill="#000000" sketch:type="MSShapeGroup"></path>
            <path d="M180.791037,57.1553835 C181.977311,54.8489543 184.195126,57.2981132 185.577393,55.6122479 C186.157119,52.6562952 185.791953,49.9568423 183.002664,47.6793728 C181.255231,46.2541444 179.833766,44.4338236 179.419086,41.8543463 C178.670187,37.1794317 183.021231,33.7084109 186.625439,33.7415077 C187.231986,33.7456448 187.83647,34.045584 188.500783,34.2255475 C188.183068,35.741792 187.725063,36.8277788 186.117921,36.7015975 C184.481895,36.5754161 183.266738,37.4917821 182.794292,38.7742809 C182.179493,40.4353236 181.975248,42.3239064 183.239918,43.9373725 C183.745374,44.5827589 184.207505,45.3129558 184.844998,45.7990642 C187.277374,47.6545502 187.86329,50.3933055 188.407944,53.1237867 C188.983544,56.0094088 186.604808,59.1246396 183.673166,59.4928408 C182.146484,59.6852156 181.70911,59.3335627 180.791037,57.1553835" id="Fill-214" fill="#000000" sketch:type="MSShapeGroup"></path>
            <path d="M68.7903271,55.7508405 C68.9698154,50.5712005 69.1369252,45.7638989 69.304035,40.9545287 C71.534229,40.8945408 71.9489089,41.1882744 71.854007,43.2961231 C71.7157804,46.3410233 71.4104439,49.3776493 71.2392079,52.4204809 C71.1855678,53.3968348 71.3279206,54.3855999 71.3960023,55.6515503 C72.9020537,55.726018 74.3358972,55.7404978 75.7552991,55.8935702 C76.2298084,55.9452839 76.832229,56.2514287 77.0591682,56.6320412 C77.2035841,56.8740612 76.8776168,57.6932055 76.5599019,57.8566207 C75.7800561,58.2558501 74.894993,58.584749 74.0305607,58.6550795 C72.4853107,58.7812609 70.921493,58.6571481 69.3679907,58.7109303 C68.0599953,58.7564383 66.7561262,58.9239906 65.4481308,59.008801 C64.3608855,59.0791315 63.4593178,58.297221 63.4840748,57.3415526 C63.5088318,56.3383077 64.3691379,55.5046835 65.4192477,55.5336431 C66.3888972,55.5605342 67.3564836,55.6556874 68.7903271,55.7508405" id="Fill-215" fill="#000000" sketch:type="MSShapeGroup"></path>
            <path d="M75.4644042,40.054711 L75.4644042,37.6614029 C73.1558131,38.4474505 71.0081425,39.1569619 68.8790397,39.9140499 C67.6453154,40.3525817 66.4507897,40.9090207 65.2150023,41.3434154 C64.003972,41.7695359 63.1395397,41.3889234 62.8795911,40.3794728 C62.5845701,39.2293611 63.2550724,38.7101559 64.2226589,38.4246965 C67.9093902,37.3387097 71.5878692,36.2216947 75.2952313,35.2122441 C76.0193738,35.0136637 76.9085631,35.1026112 77.6265164,35.340494 C78.0432593,35.4811551 78.598229,36.2527229 78.5198318,36.6188556 C78.3424065,37.4731652 77.8926542,38.3047209 77.4078294,39.0493975 C77.052979,39.5934252 76.465,39.9823119 75.9801752,40.4394607 C75.8089393,40.3112108 75.6356402,40.1829609 75.4644042,40.054711" id="Fill-216" fill="#000000" sketch:type="MSShapeGroup"></path>
            <path d="M130.264044,45.4039718 C131.955773,45.9417939 133.437068,46.3099951 134.82965,46.8891881 C135.817867,47.2987602 136.203664,48.2151263 136.084005,49.3300727 C135.87357,51.2931232 134.945182,52.9376175 133.664007,54.3235435 C133.187435,54.8386116 132.149703,55.2068128 131.477138,55.0764944 C130.530182,54.8923938 130.503362,53.806407 130.695229,53.0058795 C130.907727,52.1164046 130.620958,51.4730867 130.383703,50.6415311 C129.956645,49.1439036 130.264044,47.4373529 130.264044,45.4039718" id="Fill-259" sketch:type="MSShapeGroup"></path>
            <path d="M130.030916,42.4500877 C130.030916,40.9545287 129.8865,39.8106226 130.086619,38.7308414 C130.202152,38.1144146 130.777752,37.4235201 131.338911,37.1028954 C131.796916,36.8381215 132.64897,36.881561 133.115227,37.1546091 C133.432942,37.3387097 133.527843,38.1640597 133.480393,38.6811963 C133.315346,40.5222025 132.058928,41.5026935 130.030916,42.4500877" id="Fill-260" sketch:type="MSShapeGroup"></path>
        </g>
    </g>
</svg>