<svg width="195" height="93" viewBox="0 0 195 93" xmlns="http://www.w3.org/2000/svg" xmlns:sketch="http://www.bohemiancoding.com/sketch/ns"><title>sleigh-bells-hover</title><desc>Created with Sketch.</desc><g sketch:type="MSLayerGroup" fill="none"><path d="M.244 72.94c1.133-1.417 1.869-2.623 1.613-4.607-.578-4.483-.685-9.025-.974-13.545-.13-2.042-.332-4.085-.326-6.125.01-2.451.208-4.9.322-7.35.023-.496.095-1.001.025-1.485-.586-4.118-.097-8.231.215-12.318.361-4.714.052-9.377-.307-14.058-.058-.734.246-1.5.425-2.486l-.914-.732.439-2.356c2.752-1.117 5.513-1.775 8.452-1.402l.243.037c3.41-.128 6.821-.279 10.233-.389 2.699-.085 5.409-.002 8.098-.215 2.777-.221 5.533-.716 8.298-1.082 1.954-.259 3.901-.594 5.863-.722 1.129-.072 2.286.345 3.419.29 3.602-.178 7.198-.513 10.8-.714 1.879-.105 3.767-.064 5.651-.085 4.838-.056 9.674-.101 14.512-.168 7.567-.103 15.135-.345 22.7-.285 4.923.039 9.841.627 14.765.761 6.323.176 12.653.118 18.978.211 4.749.07 9.494.25 14.244.327 5.673.093 11.339.294 16.992-.641 2.981-.492 6.047-.459 9.061-.782 3.177-.341 6.336-.879 9.513-1.225 2.777-.3 5.57-.403 8.244-1.367.833-.298 1.849-.408 1.925 1.007 1.762.947 1.007 3.285 2.439 4.462.252.207.237 1.003.07 1.415-1.902 4.702-.858 9.648-1.312 14.463-.227 2.41-.167 4.836-.627 7.271-.413 2.18.252 4.567.452 6.861.128 1.475.386 2.948.388 4.423.006 4.214-.062 8.429-.161 12.643-.031 1.229-.353 2.449-.398 3.68-.169 4.524-.342 9.05-.382 13.578-.019 2.273.745 4.532.045 6.841-.144.476.12 1.173.394 1.659.947 1.688.889 3.539 1.007 5.368.056.896-1.683 2.764-2.746 2.879-1.51.165-3.027.275-4.539.418-.246.023-.528.029-.722.153-2.331 1.496-4.766.778-7.229.478-1.933-.238-3.914-.064-5.867-.153-2.95-.134-5.894-.341-8.842-.517-1.96-.116-3.922-.352-5.88-.319-2.876.05-5.746.364-8.62.439-6.235.159-12.484.509-18.704.256-4.714-.19-9.323.569-13.99.722-6.154.201-12.288.929-18.442 1.251-6.862.36-13.738.463-20.604.784-3.524.165-7.035.763-10.557.815-5.261.079-10.526-.161-15.789-.246-4.318-.07-8.605-.666-12.954-.308-5.139.422-10.307.616-15.465.674-4.772.056-9.42.78-14.076 1.729-1.712.35-3.575.178-5.341-.017-1.498-.165-3.256-2.714-3.334-4.286-.134-2.695-.34-5.384-.501-8.078-.023-.395-.111-.925.093-1.169 1.595-1.889 1.258-3.73.023-5.612-.173-.265-.204-.625-.336-1.053zm3.874-60.908c0 .999-.066 1.731.012 2.447.248 2.286.604 4.561.803 6.851.076.883-.13 1.795-.262 2.687-.239 1.62-.633 3.227-.751 4.853-.132 1.868-.014 3.752-.041 5.631-.091 6.264-.332 12.527.163 18.789.408 5.153.741 10.314 1.145 15.469.107 1.367.724 2.801.462 4.071-.635 3.07-.708 6.158-.836 9.251-.097 2.348-.019 4.704-.019 7.379 1.207 0 2.459.385 3.171-.072 2.063-1.328 4.219-1.487 6.569-1.568 4.246-.147 8.481-.645 12.721-.995 2.457-.203 4.912-.412 7.367-.6 3.602-.277 7.202-.614 10.808-.792 5.255-.261 10.516-.366 15.772-.604 4.904-.223 9.804-.683 14.708-.767 5.116-.087 10.241.079 15.358.271 4.182.155 8.355.327 12.508 1.131 2.628.509 5.395.381 8.098.389 2.111.006 4.231-.118 6.325-.374 2.02-.25 4.143-.424 5.989-1.191 5.356-2.224 10.866-1.342 16.329-1.134 3.489.134 6.957.805 10.47.405 3.503-.399 6.998-.933 10.511-1.14 4.491-.265 8.997-.265 13.497-.364.404-.008.817.052 1.213.141 1.558.354 3.107.743 4.665 1.094 2.649.598 5.209-.095 8.048-.509.037-1.003.287-2.013.056-2.898-.328-1.264-.262-2.385.064-3.624.182-.697.031-1.694-.367-2.284-.652-.968-.464-1.992.097-2.501 1.038-.941.914-1.978.93-3.119.031-2.271.122-4.54.229-6.81.05-1.059.221-2.114.287-3.173.258-4.011.629-8.022.699-12.035.07-4.021.085-8.074-.357-12.058-.345-3.099-.846-6.115-.557-9.277.464-5.076.093-10.2.97-15.28.332-1.922.755-4.081-.477-6.063-5.729 1.62-11.518 2.108-17.379 1.928-.408-.012-.823.039-1.23.103-7.223 1.14-14.512 1.868-21.796 1.479-6.185-.331-12.306-.081-18.45.366-1.471.108-2.952.36-4.411.265-5.321-.345-10.631-.879-15.952-1.208-4.603-.283-9.214-.376-13.821-.569-2.952-.124-5.902-.401-8.853-.387-4.11.019-8.217.248-12.327.389-1.646.056-3.293.095-4.937.172-4.413.205-8.826.441-13.239.635-2.787.122-5.614-.048-8.362.337-6.571.916-13.22 1.059-19.773 2.184-3.553.61-7.184.767-10.78 1.15-2.387.254-4.671.757-6.62 2.354-.891.728-1.954.637-2.95-.112-.479-.358-1.118-.627-1.708-.681-1.137-.105-2.292-.031-3.792-.031zm38.439 75.229c-2.952-.499-11.801.302-13.577 1.107 4.797.43 9.152-.623 13.577-1.107zm48.615-.056l-.006-.552c-.871-.199-1.747-.569-2.913.552h2.919zm42.328-2.3l.116-.325c-.307-.035-.615-.105-.92-.097-.293.008-.582.099-.873.153l.039.269h1.638z" fill="#000" sketch:type="MSShapeGroup"/><path d="M4.119 12.032c1.5 0 2.655-.074 3.792.031.59.054 1.23.323 1.708.681.996.749 2.059.84 2.95.112 1.95-1.597 4.233-2.1 6.62-2.354 3.596-.383 7.227-.54 10.78-1.15 6.552-1.125 13.202-1.268 19.773-2.184 2.748-.385 5.574-.215 8.362-.337 4.413-.194 8.826-.43 13.239-.635 1.644-.077 3.291-.116 4.937-.172 4.11-.141 8.217-.37 12.327-.389 2.95-.014 5.9.263 8.853.387 4.607.192 9.218.285 13.821.569 5.321.329 10.631.863 15.952 1.208 1.459.095 2.94-.157 4.411-.265 6.144-.447 12.265-.697 18.45-.366 7.285.389 14.574-.339 21.796-1.479.406-.064.821-.116 1.23-.103 5.861.18 11.65-.308 17.379-1.928 1.232 1.982.809 4.141.477 6.063-.877 5.08-.505 10.204-.97 15.28-.289 3.163.212 6.179.557 9.277.442 3.984.427 8.036.357 12.058-.07 4.013-.441 8.024-.699 12.035-.066 1.059-.237 2.114-.287 3.173-.107 2.269-.198 4.538-.229 6.81-.017 1.142.107 2.178-.93 3.119-.561.509-.749 1.533-.097 2.501.398.59.549 1.587.367 2.284-.326 1.239-.392 2.36-.064 3.624.231.885-.019 1.895-.056 2.898-2.839.414-5.399 1.107-8.048.509l-4.665-1.094c-.396-.089-.809-.149-1.213-.141-4.5.099-9.005.099-13.497.364-3.513.207-7.008.741-10.511 1.14-3.513.399-6.981-.271-10.47-.405-5.463-.209-10.974-1.09-16.329 1.134-1.846.767-3.969.941-5.989 1.191-2.094.256-4.215.381-6.325.374-2.703-.008-5.469.12-8.098-.389-4.153-.805-8.327-.976-12.508-1.131-5.116-.192-10.241-.358-15.358-.271-4.904.085-9.804.544-14.708.767-5.257.238-10.518.343-15.772.604-3.606.178-7.206.515-10.808.792-2.455.188-4.91.397-7.367.6-4.24.35-8.475.848-12.721.995-2.35.081-4.506.24-6.569 1.568-.712.457-1.964.072-3.171.072 0-2.675-.078-5.031.019-7.379.128-3.092.2-6.181.836-9.251.262-1.27-.355-2.704-.462-4.071-.404-5.155-.737-10.316-1.145-15.469-.495-6.261-.254-12.525-.163-18.789.027-1.878-.091-3.763.041-5.631.118-1.626.512-3.233.751-4.853.132-.892.338-1.804.262-2.687-.198-2.29-.555-4.565-.803-6.851-.078-.716-.012-1.448-.012-2.447zm50.64 28.933c2.595-2.069 2.719-2.84.988-5.024-3.381.803-6.798 1.599-10.206 2.437-.856.211-1.465.718-1.415 1.744.076 1.642.043 3.293.2 4.925.182 1.88.786 3.756.72 5.616-.074 2.157.9 4.272-.134 6.535-.487 1.063.132 2.677.398 4.011.072.366.644.691 1.05.914.817.447 1.679.809 2.719 1.297 3.15-1.27 6.61-2.157 10.353-1.316l.441-2.186c-3.769-1.951-7.497-.186-11.285-.159-.332-2.648-.654-5.198-1.001-7.933 1.783-.312 3.289-.575 4.727-.825.786 1.644.786 1.644 2.573 1.204-.33-4.669-1.63-4.021-4.578-3.814-.792.056-1.58.143-2.536.23-.221-2.184-.458-4.131-.596-6.086-.062-.865.557-1.239 1.341-1.518 1.77-.629 3.503-1.361 5.323-2.081l.918 2.031zm115.96 10.965c.163-1.566.223-3.045.483-4.487.594-3.314 1.308-6.605 1.917-9.915.116-.625.175-1.421-.118-1.913-.262-.441-1.025-.689-1.605-.778-.215-.035-.72.59-.784.964-.77 4.617-1.446 9.251-2.247 13.861-.142.829-.536 1.963-1.162 2.294-2.001 1.057-4.163 1.814-6.779 1.618.144-1.282.186-2.42.415-3.519.753-3.626 1.568-7.24 2.368-10.856.233-1.053.076-2.098-.817-2.656-.84-.523-1.725-.132-2.218.492 0 1.682.219 3.186-.043 4.598-.588 3.148-1.516 6.233-2.108 9.379-.38 2.015-1.244 4.205 1.071 6.251 2.135-.511 4.586-.883 6.868-1.717 1.661-.606 3.148-.525 4.753-.155 3.202.738 6.193.583 8.607-2.255l-.751-1.531c-2.554.838-5.013 1.434-7.85.323zm-158.511 12.55c.51 2.383 1.013 3.012 2.861 3.111 2.756.149 5.411-.302 7.784-1.86 1.603-1.053 2.115-2.12 1.657-3.97-.571-2.306-1.263-4.582-1.915-6.868-.041-.147-.208-.254-.27-.401-1.331-3.095-3.848-5.041-6.598-6.712-.646-.391-1.104-.689-.939-1.473.46-2.207 1.966-3.252 4.246-3.13.949.05 1.981.008 2.857-.316 1.195-.441 1.362-2.751.375-3.552-1.021-.829-3.759-.844-4.896-.099-1.062.695-2.185 1.301-3.821 2.263-.536 1.272-1.38 3.128-2.104 5.027-.621 1.632.12 2.85 1.43 3.796 1.333.96 2.678 1.905 4.015 2.859 1.653 1.179 2.855 2.635 3.15 4.743.113.803.487 1.566.671 2.364.246 1.074.425 2.164.654 3.37-2.399.705-4.363 1.798-6.579.242-.891-.627-1.836-.031-2.579.606zm120.967-21.242c.561-.749.957-1.262 1.337-1.785 1.139-1.568 1.477-3.219.836-5.132-.728-2.168-1.809-2.894-4.031-2.325-.951.244-1.865.641-2.822.848-1.696.366-2.203 1.119-1.694 2.741.194.618.559 1.208.625 1.833.235 2.284.623 4.594.483 6.863-.13 2.064.283 4.234-.807 6.233-.283.519-.068 1.438.165 2.085 1.184 3.299 4.394 4.199 7.045 2.021 1.832-1.506 3-3.448 3.74-5.691.98-2.96-.052-5.403-2.868-6.681-.642-.292-1.261-.631-2.009-1.009zm-28.541 6.069c.309-2.023.578-3.614.788-5.211.194-1.467.45-2.941.454-4.412.006-1.81-.784-2.493-2.754-2.648-.068.55-.225 1.113-.188 1.663.345 5.132-.324 10.206-.842 15.287-.149 1.475-.472 2.931-.559 4.406-.027.472.345 1.121.737 1.409.248.178.941-.058 1.316-.294 1.533-.962 2.045-3.287 1.221-4.917-.264-.521-.318-1.15-.53-1.973l6.134-1.078c-.386 2.522-.792 4.6-.986 6.7-.095 1.026.07 2.151 1.457 2.952l1.816-1.94c-.939-3.732-1.537-7.033 1.448-9.904l-1.721-1.326c0-.829-.004-1.649 0-2.47.014-2.644.097-5.289.027-7.931-.05-1.905-.757-2.352-2.622-1.845 0 1.187-.326 2.517.06 3.589 1.129 3.111.068 6.175.508 9.379-1.956.19-3.567.35-5.762.565zm41.128-3.438c-.056-.896-.002-1.411-.13-1.876-.757-2.801.745-4.4 2.971-5.535.704-.358 1.601-.625 2.352-.519.972.137 1.57-.339 1.642-.995.08-.751-.225-1.665-1.279-1.818-.479-.07-.988-.242-1.436-.147-2.55.542-4.522 2.228-6.635 3.591-.417.269-.505 1.324-.454 1.994.171 2.29.508 4.567.718 6.855.21 2.296.316 4.603.52 6.901.215 2.402 2.383 4.431 4.205 3.738 2.602-.989 5.119-2.224 7.602-3.49.373-.19.609-1.16.497-1.682-.163-.763-.877-.883-1.595-.546-.895.418-1.778.875-2.696 1.235-1.57.614-3.053 1.541-4.776 1.585-1.217-3.237-1.316-3.893-.982-6.522 2.212-.894 4.52-1.824 6.843-2.764-1.252-2.137-1.492-2.317-3.336-1.733-1.283.408-2.49 1.057-4.031 1.729zm-56.394-8.539c-1.304.778-1.265.792-1.681 1.812-.309.753-.765 1.446-1.102 2.191-.633 1.411-1.349 2.803-1.805 4.272-.46 1.483-.714 3.041-.935 4.584-.34 2.379-.382 4.76.303 7.108.574 1.965 2.222 3.587 3.668 3.552 2.752-.07 6.103-3.262 6.346-6.05.198-2.257.198-2.257 2.628-2.749.239-.05.53-.062.697-.207.345-.302.844-.668.864-1.03.021-.364-.39-.976-.743-1.094-.91-.306-1.896-.571-2.841-.54-1.384.046-2.754.42-4.141.546-1.069.095-1.382.67-1.413 1.624-.031.943.363 1.537 1.209 1.947 1.017.492 1.405 1.396 1.139 2.472-.21.852-2.172 1.897-3.241 1.947-1.205.056-1.533-.757-1.791-1.663-.246-.867-.728-1.777-.629-2.613.477-3.986.745-8.057 3.309-11.458.435-.577.681-1.297 1.005-1.957.569-1.165.301-2.071-.848-2.691zm-47.441 25.195c-.689-1.229-1.533-1.634-2.769-1.314-1.032.267-2.098.412-3.154.563-2.752.397-2.956.215-2.864-2.675.179-5.523.392-11.044.569-16.567.021-.65.021-1.338-.167-1.949-.38-1.231-1.432-1.915-2.389-1.709-.97.209-1.242 1.016-1.027 2.592.627 4.578.772 9.157.314 13.777-.314 3.146-.681 6.324-.161 9.73.951.101 1.809.279 2.666.267 1.797-.027 3.594-.149 5.391-.238 1.663-.081 3.084-.527 3.592-2.478zm138.864-5.37c.918 2.178 1.355 2.53 2.882 2.337 2.932-.368 5.31-3.483 4.735-6.369-.545-2.73-1.131-5.469-3.563-7.325-.637-.486-1.1-1.216-1.605-1.862-1.265-1.613-1.06-3.502-.446-5.163.472-1.282 1.688-2.199 3.324-2.073 1.607.126 2.065-.96 2.383-2.476-.664-.18-1.269-.48-1.875-.484-3.604-.033-7.955 3.438-7.206 8.113.415 2.579 1.836 4.4 3.584 5.825 2.789 2.277 3.154 4.977 2.575 7.933-1.382 1.686-3.6-.763-4.786 1.543zm-112.001-1.405c-1.434-.095-2.401-.19-3.371-.217-1.05-.029-1.91.805-1.935 1.808-.025.956.877 1.738 1.964 1.667 1.308-.085 2.612-.252 3.92-.298 1.554-.054 3.117.07 4.663-.056.864-.07 1.749-.399 2.529-.798.318-.163.644-.983.499-1.225-.227-.381-.829-.687-1.304-.738-1.419-.153-2.853-.168-4.359-.242-.068-1.266-.21-2.255-.157-3.231.171-3.043.477-6.079.615-9.124.095-2.108-.32-2.402-2.55-2.342l-.514 14.796zm6.674-15.696l.516.385c.485-.457 1.073-.846 1.428-1.39.485-.745.935-1.576 1.112-2.431.078-.366-.477-1.138-.893-1.278-.718-.238-1.607-.327-2.331-.128-3.707 1.009-7.386 2.126-11.073 3.212-.968.285-1.638.805-1.343 1.955.26 1.009 1.124 1.39 2.335.964 1.236-.434 2.43-.991 3.664-1.429 2.129-.757 4.277-1.467 6.585-2.253v2.393z" fill="#fff" sketch:type="MSShapeGroup"/><path d="M42.558 87.261c-4.425.484-8.78 1.537-13.577 1.107 1.776-.805 10.625-1.605 13.577-1.107" fill="#fff" sketch:type="MSShapeGroup"/><path d="M91.173 87.205h-2.919c1.166-1.121 2.042-.751 2.913-.552l.006.552" fill="#fff" sketch:type="MSShapeGroup"/><path d="M133.501 84.905h-1.638l-.039-.269c.291-.054.58-.145.873-.153.305-.008.613.062.92.097l-.116.325" fill="#fff" sketch:type="MSShapeGroup"/><path d="M54.759 40.965l-.918-2.031c-1.82.72-3.553 1.452-5.323 2.081-.784.279-1.403.654-1.341 1.518.138 1.955.375 3.901.596 6.086.955-.087 1.743-.174 2.536-.23 2.948-.207 4.248-.854 4.578 3.814-1.787.441-1.787.441-2.573-1.204-1.438.25-2.944.513-4.727.825.347 2.735.668 5.285 1.001 7.933 3.788-.027 7.516-1.791 11.285.159l-.441 2.186c-3.742-.842-7.202.046-10.353 1.316-1.04-.488-1.902-.85-2.719-1.297-.406-.223-.978-.548-1.05-.914-.266-1.334-.885-2.948-.398-4.011 1.034-2.263.06-4.377.134-6.535.066-1.86-.538-3.736-.72-5.616-.157-1.632-.124-3.283-.2-4.925-.05-1.026.559-1.533 1.415-1.744 3.408-.838 6.825-1.634 10.206-2.437 1.731 2.184 1.607 2.956-.988 5.024" fill="#000" sketch:type="MSShapeGroup"/><path d="M170.719 51.93c2.837 1.111 5.296.515 7.85-.323l.751 1.531c-2.414 2.838-5.405 2.993-8.607 2.255-1.605-.37-3.093-.451-4.753.155-2.282.834-4.733 1.206-6.868 1.717-2.315-2.046-1.45-4.236-1.071-6.251.592-3.146 1.52-6.23 2.108-9.379.262-1.413.043-2.917.043-4.598.493-.625 1.378-1.016 2.218-.492.893.559 1.05 1.603.817 2.656-.8 3.616-1.615 7.23-2.368 10.856-.229 1.098-.27 2.236-.415 3.519 2.616.197 4.778-.561 6.779-1.618.625-.331 1.019-1.465 1.162-2.294.8-4.611 1.477-9.244 2.247-13.861.064-.374.569-.999.784-.964.58.089 1.343.337 1.605.778.293.492.233 1.289.118 1.913-.609 3.31-1.322 6.601-1.917 9.915-.26 1.442-.32 2.921-.483 4.487" fill="#000" sketch:type="MSShapeGroup"/><path d="M12.208 64.48c.743-.637 1.688-1.233 2.579-.606 2.216 1.556 4.18.463 6.579-.242-.229-1.206-.408-2.296-.654-3.37-.184-.798-.557-1.562-.671-2.364-.295-2.108-1.498-3.564-3.15-4.743-1.337-.954-2.682-1.899-4.015-2.859-1.31-.945-2.051-2.164-1.43-3.796.724-1.899 1.568-3.754 2.104-5.027 1.636-.962 2.758-1.568 3.821-2.263 1.137-.745 3.874-.73 4.896.099.986.801.819 3.111-.375 3.552-.877.325-1.908.366-2.857.316-2.28-.122-3.786.923-4.246 3.13-.165.784.293 1.082.939 1.473 2.75 1.671 5.267 3.618 6.598 6.712.062.147.229.254.27.401.652 2.286 1.343 4.561 1.915 6.868.458 1.849-.054 2.917-1.657 3.97-2.373 1.558-5.028 2.009-7.784 1.86-1.849-.099-2.352-.728-2.861-3.111" fill="#000" sketch:type="MSShapeGroup"/><path d="M133.175 43.238c.749.379 1.368.718 2.009 1.009 2.816 1.278 3.848 3.721 2.868 6.681-.741 2.242-1.908 4.185-3.74 5.691-2.651 2.178-5.861 1.278-7.045-2.021-.233-.647-.448-1.566-.165-2.085 1.089-1.998.677-4.168.807-6.233.14-2.269-.248-4.58-.483-6.863-.066-.625-.431-1.214-.625-1.833-.51-1.622-.002-2.375 1.694-2.741.957-.207 1.871-.604 2.822-.848 2.222-.569 3.303.157 4.031 2.325.642 1.913.303 3.564-.836 5.132-.38.523-.776 1.036-1.337 1.785zm-2.911 2.166c0 2.033-.307 3.74.12 5.238.237.832.524 1.475.312 2.364-.192.801-.165 1.887.782 2.071.673.13 1.71-.238 2.187-.753 1.281-1.386 2.21-3.03 2.42-4.993.12-1.115-.266-2.031-1.254-2.441-1.393-.579-2.874-.947-4.566-1.485zm-.233-2.954c2.028-.947 3.284-1.928 3.449-3.769.047-.517-.047-1.342-.365-1.527-.466-.273-1.318-.316-1.776-.052-.561.321-1.137 1.012-1.252 1.628-.2 1.08-.056 2.224-.056 3.719z" fill="#000" sketch:type="MSShapeGroup"/><path d="M104.634 49.307l5.762-.565c-.439-3.204.621-6.268-.508-9.379-.386-1.072-.06-2.402-.06-3.589 1.865-.507 2.573-.06 2.622 1.845.07 2.642-.012 5.287-.027 7.931-.004.821 0 1.64 0 2.47l1.721 1.326c-2.985 2.871-2.387 6.173-1.448 9.904l-1.816 1.94c-1.386-.801-1.551-1.926-1.457-2.952.194-2.1.6-4.178.986-6.7l-6.134 1.078c.212.823.266 1.452.53 1.973.823 1.63.312 3.955-1.221 4.917-.375.236-1.069.472-1.316.294-.392-.288-.763-.937-.737-1.409.087-1.475.411-2.931.559-4.406.518-5.08 1.186-10.154.842-15.287-.037-.55.12-1.113.188-1.663 1.97.155 2.76.838 2.754 2.648-.004 1.471-.26 2.946-.454 4.412-.21 1.597-.479 3.188-.788 5.211" fill="#000" sketch:type="MSShapeGroup"/><path d="M145.762 45.869c1.541-.672 2.748-1.322 4.031-1.729 1.844-.583 2.084-.403 3.336 1.733l-6.843 2.764c-.334 2.629-.235 3.285.982 6.522 1.723-.043 3.206-.97 4.776-1.585.918-.36 1.801-.817 2.696-1.235.718-.337 1.432-.217 1.595.546.111.521-.124 1.491-.497 1.682-2.484 1.266-5.001 2.501-7.602 3.49-1.822.693-3.99-1.336-4.205-3.738-.204-2.298-.309-4.605-.52-6.901-.21-2.288-.547-4.565-.718-6.855-.052-.67.037-1.725.454-1.994 2.113-1.363 4.085-3.049 6.635-3.591.448-.095.957.077 1.436.147 1.054.153 1.36 1.067 1.279 1.818-.072.656-.671 1.131-1.642.995-.751-.105-1.648.161-2.352.519-2.226 1.136-3.728 2.735-2.971 5.535.128.465.074.98.13 1.876" fill="#000" sketch:type="MSShapeGroup"/><path d="M89.368 37.33c1.149.621 1.417 1.527.848 2.691-.324.66-.569 1.38-1.005 1.957-2.564 3.401-2.833 7.472-3.309 11.458-.099.836.384 1.746.629 2.613.258.906.586 1.719 1.791 1.663 1.069-.05 3.031-1.094 3.241-1.947.266-1.076-.122-1.98-1.139-2.472-.846-.41-1.24-1.003-1.209-1.947.031-.954.345-1.529 1.413-1.624 1.386-.126 2.756-.501 4.141-.546.945-.031 1.931.234 2.841.54.353.118.763.73.743 1.094-.021.362-.52.728-.864 1.03-.167.145-.458.157-.697.207-2.43.492-2.43.492-2.628 2.749-.243 2.788-3.594 5.98-6.346 6.05-1.446.035-3.095-1.587-3.668-3.552-.685-2.348-.644-4.729-.303-7.108.221-1.543.475-3.101.935-4.584.456-1.469 1.172-2.861 1.805-4.272.336-.745.792-1.438 1.102-2.191.417-1.02.378-1.034 1.681-1.812" fill="#000" sketch:type="MSShapeGroup"/><path d="M41.927 62.525c-.508 1.951-1.929 2.397-3.592 2.478-1.797.089-3.594.211-5.391.238-.856.012-1.714-.165-2.666-.267-.52-3.407-.153-6.584.161-9.73.458-4.619.314-9.199-.314-13.777-.215-1.576.058-2.383 1.027-2.592.957-.207 2.009.478 2.389 1.709.188.61.188 1.299.167 1.949-.177 5.523-.39 11.044-.569 16.567-.093 2.89.111 3.072 2.864 2.675 1.056-.151 2.123-.296 3.154-.563 1.236-.321 2.08.085 2.769 1.314" fill="#000" sketch:type="MSShapeGroup"/><path d="M180.791 57.155c1.186-2.306 3.404.143 4.786-1.543.58-2.956.215-5.655-2.575-7.933-1.747-1.425-3.169-3.246-3.584-5.825-.749-4.675 3.602-8.146 7.206-8.113.607.004 1.211.304 1.875.484-.318 1.516-.776 2.602-2.383 2.476-1.636-.126-2.851.79-3.324 2.073-.615 1.661-.819 3.55.446 5.163.505.645.968 1.376 1.605 1.862 2.432 1.855 3.018 4.594 3.563 7.325.576 2.886-1.803 6.001-4.735 6.369-1.527.192-1.964-.159-2.882-2.337" fill="#000" sketch:type="MSShapeGroup"/><path d="M68.79 55.751c.179-5.18.347-9.987.514-14.796 2.23-.06 2.645.234 2.55 2.342-.138 3.045-.444 6.082-.615 9.124-.054.976.089 1.965.157 3.231 1.506.074 2.94.089 4.359.242.475.052 1.077.358 1.304.738.144.242-.182 1.061-.499 1.225-.78.399-1.665.728-2.529.798-1.545.126-3.109.002-4.663.056-1.308.046-2.612.213-3.92.298-1.087.07-1.989-.712-1.964-1.667.025-1.003.885-1.837 1.935-1.808.97.027 1.937.122 3.371.217" fill="#000" sketch:type="MSShapeGroup"/><path d="M75.464 40.055v-2.393c-2.309.786-4.456 1.496-6.585 2.253-1.234.439-2.428.995-3.664 1.429-1.211.426-2.075.046-2.335-.964-.295-1.15.375-1.669 1.343-1.955 3.687-1.086 7.365-2.203 11.073-3.212.724-.199 1.613-.11 2.331.128.417.141.972.912.893 1.278-.177.854-.627 1.686-1.112 2.431-.355.544-.943.933-1.428 1.39l-.516-.385" fill="#000" sketch:type="MSShapeGroup"/><path d="M130.264 45.404c1.692.538 3.173.906 4.566 1.485.988.41 1.374 1.326 1.254 2.441-.21 1.963-1.139 3.608-2.42 4.993-.477.515-1.514.883-2.187.753-.947-.184-.974-1.27-.782-2.071.212-.889-.074-1.533-.312-2.364-.427-1.498-.12-3.204-.12-5.238" fill="#fff" sketch:type="MSShapeGroup"/><path d="M130.031 42.45c0-1.496-.144-2.639.056-3.719.116-.616.691-1.307 1.252-1.628.458-.265 1.31-.221 1.776.052.318.184.413 1.009.365 1.527-.165 1.841-1.421 2.821-3.449 3.769" fill="#fff" sketch:type="MSShapeGroup"/></g></svg>