<svg width="193" height="122" viewBox="0 0 193 122" xmlns="http://www.w3.org/2000/svg" xmlns:sketch="http://www.bohemiancoding.com/sketch/ns"><title>smells-like-hover</title><desc>Created with Sketch.</desc><g sketch:type="MSArtboardGroup" fill="none"><path opacity=".87" sketch:type="MSShapeGroup" d="M-303-502h1024v1024h-1024z"/><g sketch:type="MSShapeGroup"><path d="M4.838 108.047c1.491-4.364.02-8.27-.116-12.224-.188-5.451-.623-10.895-.734-16.346-.103-5.167.312-10.35.068-15.505-.294-6.183-1.068-12.344-1.582-18.518-.159-1.909-.268-3.837-.185-5.749.188-4.305.109-8.619-.961-12.779-1.683-6.54-1.075-12.849.94-19.184.532-1.675 1.473-2.521 3.06-2.697 1.609-.176 3.241-.166 4.861-.229 2.505-.096 5.009-.183 7.512-.275.589-.02 1.182-.104 1.768-.061 4.384.325 8.771.656 13.153 1.026 3.542.299 7.073.292 10.583-.29 9.898-1.643 19.89-2.336 29.887-2.985 1.909-.124 3.804-.453 5.709-.64 3.37-.327 6.725-.577 10.136-.525 7.95.122 15.906-.166 23.86-.144 3.98.009 7.971.198 11.936.545 9.428.826 18.866-.118 28.293.281 4.423.189 8.846.373 13.262.671 4.554.307 9.114.643 13.647 1.174 3.056.357 6.069 1.07 8.942 1.597 2.725 4.725 2.424 9.655 1.901 14.44-.789 7.204-1.201 14.411-1.485 21.642-.198 5.065.735 10.004 1.395 14.98.251 1.895.512 3.808.517 5.716.024 6.501-.14 13.004-.078 19.505.028 3.093.464 6.179.61 9.274.251 5.309.573 10.621.545 15.93-.011 1.998-.911 3.991-1.352 5.775-1.216 1.177-2.452 1.518-3.825 1.527-2.361.018-4.721.063-7.082.087-.292.004-.745.057-.855-.1-1.578-2.24-3.625-.922-5.216-.373-1.62.56-3.171.638-4.756.566-2.502-.115-4.992-.449-7.488-.671-.735-.065-1.476-.115-2.21-.087-7.799.277-15.611.381-23.393.913-8.375.575-16.717 1.63-25.085 2.331-4.844.407-9.715.471-14.567.799-2.491.17-4.965.586-7.448.882-.732.087-1.465.205-2.199.211-6.064.054-12.046.972-18.066 1.555-7.773.752-15.572 1.433-23.415 1.205-4.865-.14-9.744.144-14.605-.03-3.379-.122-6.746-.677-10.112-1.089-1.316-.161-2.607-.538-3.924-.688-4.796-.542-7.775-3.264-9.286-7.714-.471-1.39-.7-2.874-2.563-3.728zm.588-101.003c-.656 1.919-1.33 3.701-1.873 5.521-1.001 3.355-.667 6.749.007 10.096.907 4.505 1.582 9.032 1.452 13.633-.157 5.636.85 11.178 1.236 16.768.224 3.242.73 6.49.649 9.723-.249 9.895-.074 19.773.545 29.646.131 2.061.187 4.146.564 6.167.425 2.268.325 4.636 1.811 6.741.63.895.133 2.571.187 3.891.177 4.396 2.123 6.643 6.384 7.797 8.375 2.27 16.902 2.375 25.477 2.028 3.244-.133 6.496-.148 9.737-.342 6.184-.37 12.399-.529 18.532-1.322 8.494-1.1 17.026-1.579 25.543-2.279 5.439-.447 10.908-.562 16.331-1.139 10.424-1.111 20.839-2.239 31.337-2.399 3.972-.063 7.939-.375 11.913-.501 3.549-.111 7.052-.152 10.591.2 3.074.305 6.149.355 9.245-.325 4.177-.919 8.416-.963 12.725.299.297-.776.639-1.427.796-2.12 1.158-5.113 1.007-10.266.412-15.427-.355-3.076-.99-6.144-1.049-9.226-.105-5.599.103-11.206.225-16.808.072-3.242.15-6.462-.31-9.708-.641-4.527-.85-9.115-1.497-13.64-.512-3.581.471-7.048.37-10.594-.07-2.49.371-4.995.58-7.492.333-3.967 1.258-7.873.992-11.906-.159-2.41-.464-4.684-2.217-6.703-1.029-.22-2.167-.543-3.329-.699-4.087-.545-8.172-1.131-12.276-1.512-4.554-.421-9.124-.73-13.695-.911-4.848-.192-9.711-.044-14.53-.775-1.327-.201-2.572-.166-3.902.257-2.995.952-6.088 1.019-9.197.503-1.164-.192-2.345-.336-3.522-.379-6.917-.251-13.835-.566-20.756-.66-5.31-.072-10.648.512-15.928.144-5.511-.384-10.836.908-16.283.985-4.407.065-8.811.741-13.199 1.288-5.846.728-11.784.787-17.523 2.342-.843.229-1.763.296-2.638.257-6.328-.279-12.652-.592-18.977-.919-4.403-.227-8.804-.506-13.209-.728-.562-.028-1.136.144-1.729.227z" fill="#000"/><path d="M5.425 7.044c.593-.083 1.168-.255 1.729-.227 4.405.222 8.806.501 13.209.728 6.324.327 12.649.64 18.977.919.876.039 1.796-.028 2.638-.257 5.739-1.555 11.677-1.614 17.523-2.342 4.388-.547 8.793-1.224 13.199-1.288 5.447-.078 10.772-1.37 16.283-.985 5.28.368 10.618-.216 15.928-.144 6.921.094 13.839.409 20.756.66 1.177.043 2.358.187 3.522.379 3.11.516 6.202.449 9.197-.503 1.33-.423 2.576-.458 3.902-.257 4.819.73 9.682.582 14.53.775 4.571.181 9.14.49 13.695.911 4.104.381 8.189.967 12.276 1.512 1.162.155 2.3.479 3.329.699 1.753 2.019 2.058 4.292 2.217 6.703.266 4.033-.66 7.939-.992 11.906-.209 2.497-.65 5.002-.58 7.492.102 3.545-.881 7.013-.37 10.594.647 4.525.855 9.113 1.497 13.64.46 3.246.382 6.466.31 9.708-.122 5.603-.331 11.209-.225 16.808.059 3.081.695 6.15 1.049 9.226.595 5.161.746 10.315-.412 15.427-.157.693-.499 1.344-.796 2.12-4.309-1.263-8.547-1.218-12.725-.299-3.097.68-6.171.63-9.245.325-3.538-.351-7.041-.311-10.591-.2-3.974.126-7.941.438-11.913.501-10.498.161-20.913 1.288-31.337 2.399-5.423.577-10.892.691-16.331 1.139-8.518.701-17.05 1.179-25.543 2.279-6.132.793-12.348.952-18.532 1.322-3.241.194-6.493.209-9.737.342-8.575.348-17.102.242-25.477-2.028-4.261-1.153-6.206-3.401-6.384-7.797-.054-1.32.443-2.996-.187-3.891-1.485-2.105-1.386-4.473-1.811-6.741-.377-2.02-.432-4.105-.564-6.167-.619-9.873-.794-19.751-.545-29.646.081-3.233-.425-6.481-.649-9.723-.386-5.59-1.393-11.132-1.236-16.768.129-4.601-.545-9.128-1.452-13.633-.674-3.348-1.009-6.741-.007-10.096.543-1.821 1.218-3.603 1.873-5.521zm35.338 27.816c-.251-1.481-.255-2.516-.636-3.383-.244-.555-1.048-1.185-1.602-1.185-.538-.002-1.474.695-1.554 1.192-.735 4.651-1.349 9.322-1.901 13.999-.039.314.68.996 1.068 1.013.453.018 1.231-.423 1.334-.81.264-.978.174-2.043.327-3.057.214-1.425-.144-2.996.987-4.205 2.476.305 2.474.303 3.904-1.538.421-.542.704-1.372 1.752-.795.087.523.279 1.104.259 1.678-.042 1.324-.259 2.641-.273 3.963-.013 1.155.083 2.324.268 3.462.105.643 1.43.85 1.844.288.329-.447.791-1.128.66-1.532-.619-1.919-.209-3.786-.007-5.68.192-1.789-.009-3.551-.833-5.179-.551-1.089-1.308-1.967-2.977-1.906l-2.618 3.675zm-14.201-4.621c-5.783-1.329-6.886-.702-8.052 3.939-.107.427-.225.856-.283 1.292-.15 1.128.172 2.054 1.275 2.545 1.881.839 3.786 1.627 5.657 2.486 1.992.915 2.897 2.222 2.589 3.608-.325 1.458-1.676 2.433-3.682 2.634-.913.092-1.607-.231-2.389-.799-1.251-.906-1.351-.767-3.132.891.963 1.739 2.614 2.447 4.412 2.344 1.868-.107 3.93-.311 5.504-1.192 1.637-.919 2.74-2.804 2.184-4.923-.65-2.471-1.777-4.688-4.469-5.59-1.255-.42-2.552-.756-3.727-1.34-.551-.274-1.279-1.137-1.182-1.564.168-.747.817-1.482 1.454-1.985.388-.307 1.232.006 1.685-.27.661-.405 1.157-1.085 2.156-2.078zm78.127 60.88c2.33.144 3.475 1.002 4.479 2.137.48.543.928 1.146 1.502 1.569.667.494 1.497.372 1.966-.266.29-.397.37-1.129.227-1.617-.148-.51-.634-.954-1.049-1.346-1.022-.967-2.09-1.887-3.394-3.056.645-.458 1.046-.664 1.345-.969 1.785-1.821 1.899-2.545.741-4.595-.286-.51-.608-1.013-.992-1.453-1.413-1.619-3.25-2.031-5.181-1.211-2.206.937-3.115 2.42-2.928 4.786.15 1.908.316 3.813.447 5.721.081 1.168.052 2.349.203 3.507.044.344.491.789.841.895.342.102.918-.05 1.177-.305.968-.956 1.376-2.126.617-3.797zm25.614-33.132c.301 1.895.469 3.022.663 4.144.126.717.216 1.458.477 2.129.135.346.645.817.92.776.515-.074 1.077-.39 1.443-.775.255-.27.36-.848.279-1.238-.447-2.159-.95-4.307-1.487-6.446-.14-.556-.44-1.085-.728-1.592-.575-1.007-1.777-1.152-2.577-.235-.669.767-1.21 1.651-1.772 2.507-.384.588-.491 1.427-1.569 1.464-.761-1.586-.532-3.812-2.594-4.71-2.319.902-2.659 1.007-2.742 1.773-.384 3.538-2.204 6.603-3.18 9.941 1.426.543 1.936.595 2.261.083.467-.736.939-1.495 1.243-2.307.536-1.425.948-2.897 1.452-4.479 1.698 1.342 1.014 4.205 3.793 4.355 1.679-1.122 2.112-3.353 4.116-5.392zm-82.31 9.555c.14.555.299 1.098.412 1.651.144.706.188 1.44.392 2.128.183.621 1.467.908 1.879.381.421-.538.916-1.261.879-1.873-.111-1.869-.34-3.751-.756-5.573-.423-1.85-1.077-3.653-1.739-5.435-.172-.464-.77-1.115-1.133-1.091-.804.055-1.225.778-1.133 1.597.177 1.582.436 3.155.669 4.789-1.726.767-3.289.312-4.85.126l-.381-4.327c-2.289.218-2.616.433-2.622 1.725-.011 2.943.007 5.886.018 8.828.002.59-.129 1.238.078 1.749.19.475.698 1.024 1.162 1.131.445.105 1.173-.172 1.493-.532.913-1.026 1.469-2.168.552-3.577-.342-.523-.36-1.257-.554-2.004 1.607 0 2.921-.022 4.233.013.419.011.835.17 1.399.294zm2.263 31.979c1.617.445 2.999.915 4.418 1.196 1.805.355 3.562.004 5.064-1.048.685-.479 1.364-1.207 1.65-1.97.924-2.464.079-5.13-2.01-6.662-.826-.604-1.768-1.054-2.668-1.555-.898-.503-1.868-.902-2.694-1.503-.418-.303-.824-.965-.794-1.438.028-.451.545-1.067.996-1.259 1.07-.457 2.25-.653 3.339-1.08.296-.116.665-.775.569-1.013-.188-.471-.719-1.198-1.033-1.161-1.43.168-2.864.47-4.242.897-2.007.623-2.483 2.353-2.681 4.183-.188 1.734.889 2.727 2.223 3.494 1.657.954 3.377 1.802 5.009 2.793 1.231.747 1.663 1.919 1.297 2.974-.329.945-1.659 1.765-2.877 1.616-.867-.107-1.705-.431-2.557-.66l-2.217-.595-.791 2.791zm10.812-36.227c1.053-1.179 1.91-1.987 2.583-2.928 1.125-1.569.94-3.418-.34-4.839-1.236-1.37-2.585-1.614-4.377-.946-1.777.664-2.842 2.02-3.745 3.566-.741 1.266-.466 2.444.074 3.765.427 1.046.294 2.312.48 3.471.163 1.009.36 2.024.674 2.995.111.34.639.8.931.769.517-.055 1.258-.323 1.443-.717.349-.752.371-1.654.532-2.508 2.93 1.653 2.94 1.647 4.458 3.958.447.677 1.075 1.233 1.766.706.49-.373.968-1.316.83-1.839-.246-.93-.822-1.882-1.519-2.558-1.033-1.002-2.291-1.771-3.791-2.893zm108.076-30.846c-2.659-1.514-4.824.414-6.897-.262-.43-1.294-.309-2.305.783-2.841 1.314-.645 2.733-1.072 4.074-1.664.785-.346 1.687-.682 1.554-2.083-3.668-1.052-6.245 1.397-9.327 2.841 0 1.998-.004 3.906.002 5.813.002.738-.017 1.479.046 2.211.251 2.86 2.328 5.411 5.402 5.396 2.454-.011 4.907-.697 7.346-1.166.235-.046.547-.723.477-1.024-.079-.329-.558-.795-.867-.799-1.467-.017-2.938.165-4.407.157-1.16-.004-2.361-.02-3.466-.322-1.251-.342-1.922-1.268-1.495-2.653 1.849-1.717 4.743-1.446 6.773-3.605zm-85.029 63.917c3.73.244 7.499-.102 11.23-.834.499-.098 1.136-1.017 1.171-1.588.046-.799-.737-1.189-1.567-1.131-1.024.07-2.066.348-3.058.218-.593-.078-1.546-.723-1.587-1.179-.238-2.725-1.033-5.486-.041-8.244 1.271-.309 2.411-.521 3.499-.891.301-.104.617-.678.606-1.026-.013-.353-.351-.808-.676-1.004-.346-.209-.857-.272-1.271-.213-2.618.373-5.236.752-7.832 1.251-.458.089-1.07.712-1.129 1.15-.048.368.536.972.979 1.209.604.323 1.343.399 2.154.616-.142 3.033 1.57 5.85.168 8.686-1.144.771-3.409.235-2.648 2.98zm-3.115-41.622c-4.473.773-8.663 1.351-12.787 2.344-.266.063-.588.259-.709.486-.19.351-.39.828-.294 1.17.096.349.543.854.839.856 1.428.009 2.858-.128 4.412-.222.371 1.318.617 2.466 1.018 3.556.698 1.897 1.097 3.614-1.17 4.832-.545.292-.196 1.747.394 1.858 2.6.494 5.234.902 7.836.19 1.022-.279 1.777-1.089 1.194-2.494l-4.728-.274c-.41-2.937-1.43-5.525-1.441-8.503 1.389-.24 2.537-.381 3.656-.647 1.304-.312 1.984-1.155 1.781-3.154zm73.583-13.707c1.279.46 2.021-.055 2.056-1.072.031-.823-.259-1.797-.735-2.471-1.249-1.771-2.677-3.414-4.257-5.386.246-.484.624-1.253 1.024-2.011.549-1.037 1.214-2.03 1.62-3.118.133-.357-.27-1.214-.634-1.375-.395-.176-1.105.081-1.539.36-.318.205-.403.76-.61 1.148-.745 1.403-1.497 2.8-2.389 4.47-.564-1.288-.922-2.248-1.393-3.15-.471-.9-1.064-.848-2.21-.028.181 2.011.43 3.878.499 5.754.07 1.919.371 3.712 1.349 5.159 2.635.187 1.853-2.715 3.546-3.124 2.795.447 2.666 3.196 3.673 4.845zm-27.995 40.582c-.462-.706-.527-.832-.617-.937-.857-1-1.988-1.2-3.198-.993-1.84.314-3.826-.129-5.511 1.02-.453.311-.482 1.272.013 1.505.902.423 1.849.75 2.805 1.128.142.438.347.843.395 1.264.262 2.248 1.225 4.575-.9 6.544-.44.407.242 1.438 1.022 1.603 3.409.719 6.692-.024 9.94-.958.283-.081.658-.813.554-1.067-.192-.473-.682-1.128-1.086-1.155-.998-.072-2.014.235-3.026.264-.979.028-1.964-.102-3.113-.174-.307-2.089-.615-3.958-.828-5.836-.044-.377.277-.795.41-1.142l3.141-1.067zm-71.682-45.197c-.275-.614-.534-.996-.608-1.412-.072-.397.048-.83.103-1.471 1.175-.148 2.326-.226 3.438-.475.285-.063.619-.664.623-1.02.004-.36-.318-.983-.595-1.043-1.859-.409-3.751-.739-5.458.468-2.101 4.227.443 8.028.661 11.882 2.378 1.752 4.795 2.044 7.328 1.425.443-.107 1.011-.769 1.037-1.203.02-.353-.63-.983-1.073-1.081-.99-.216-2.055-.089-3.06-.27-1.099-.198-1.833-.872-1.851-2.094.085-.129.139-.318.253-.366 1.33-.558 2.668-1.096 4-1.638-.011-1.499-.205-1.958-.944-1.943-1.166.026-2.33.14-3.854.242zm17.137 55.312c1.386-.61 2.559-1.179 3.769-1.653 2.269-.891 3.165-3.832 2.627-5.985-.19-.769-.826-1.747-1.504-2.017-2.55-1.013-5.177-1.205-7.544.556-.347.257-.349.976-.512 1.482.515.152 1.04.458 1.543.427 1.45-.094 2.89-.403 4.34-.471.811-.041 1.465.627 1.432 1.375-.028.647-.412 1.479-.916 1.861-1.094.832-2.492.66-3.51-.447-.549-.599-.926-1.089-1.957-.641-.445 3.257-.196 6.623-.004 9.982.018.309.58.837.865.823.515-.028 1.101-.294 1.487-.645.257-.237.323-.802.294-1.207-.087-1.15-.266-2.29-.41-3.44zm65.361-28.108c.599 1.124 1.378 1.242 2.189.586.558-.451.909-1.152 1.443-1.641.804-.739 1.729-1.046 2.738-.397 1.528 4.37 1.606 4.446 3.915 3.723-.333-1.521-.828-3.044-.964-4.599-.188-2.166-.065-4.361-.166-6.538-.048-1.006-.283-2.007-.504-2.995-.05-.224-.405-.534-.613-.531-.41.007-1.016.081-1.186.351-.621.983-1.053 2.083-1.633 3.096-1.733 3.013-3.501 6.008-5.218 8.945zm-1.14-26.858c-.826.445-1.487.732-2.062 1.141-.31.222-.741.804-.652.959.255.447.709 1.02 1.151 1.085 3.135.455 5.983-.815 8.937-1.42-.373-2.368-.419-2.442-1.857-2.32-.833.07-1.655.235-2.692.388-.323-1.915-1.371-3.429-.898-5.24 1.323-.499 2.581-.872 3.725-1.47.333-.174.575-1.078.418-1.471-.157-.396-.915-.861-1.325-.793-2.598.434-5.181.974-7.751 1.56-.687.157-1.33.566-1.944.941-.194.116-.368.553-.297.754.133.377.423.956.693.982 1.11.113 2.237.048 3.597.048l.957 4.856zm-104.939 33.862c-1.371.152-1.957.261-2.544.274-1.615.037-2.577-.758-2.598-2.344-.035-2.924.451-5.621 3.725-6.764.859-.299 1.007-1.03.809-1.793-.249-.972-.988-1.495-1.957-1.427-.543.037-1.206.283-1.574.665-2.54 2.641-4.072 5.767-4.068 9.496.002 2.37 1.384 4.364 3.644 5.011 2.202.63 4.394.335 6.306-1.05.288-.209.562-.891.43-1.128-.235-.427-.737-.845-1.206-.967-.54-.142-1.164.041-.966.026zm62.819-4.2c-.865 1.135-1.659 1.421-2.838.965-2.049-.797-2.714-.632-2.93.327-.318 1.423.903 1.778 1.735 2.2.722.366 1.705.553 2.485.39 1.131-.237 2.223-.782 3.256-1.335 1.253-.673 1.724-2.244.976-3.403-.551-.85-1.279-1.634-2.073-2.263-.8-.632-1.822-.972-2.668-1.553-.748-.516-1.347-1.198-.649-2.231 1.088-.336 2.219-.625 3.289-1.063.249-.102.375-.706.395-1.087.011-.214-.272-.573-.493-.647-2.208-.728-5.079.355-6.166 2.285-.77 1.368-.499 2.93.839 3.921.939.697 2.053 1.157 3.015 1.824.676.47 1.229 1.113 1.827 1.669zm49.991 12.265h-11.23c-.294 0-.589-.011-.883.017-.931.091-1.567.821-1.519 1.813.039.83.48 1.338 1.345 1.431.833.091 1.663.203 2.714.333.261 1.813.429 3.401.735 4.961.192.987.491 1.978.924 2.88.347.728 1.168 1.033 1.853.549.364-.257.687-1.094.536-1.477-.924-2.338-1.227-4.738-1.238-7.455 1.94-.098 3.697-.122 5.436-.318.473-.054 1.046-.551 1.28-.996.218-.412.046-1.03.046-1.738zm9.077-22.64c.673-.353 1.277-.76 1.942-.996.739-.264 1.386-.538 1.351-1.453-.03-.769-.97-1.211-2.077-.983-.576.12-1.19.189-1.707.442-2.356 1.155-3.025 4.457-1.264 6.342.697.745 1.591 1.303 2.346 1.998 1.58 1.451 1.275 3.346-.713 4.224-1.153.51-2.374.865-3.786 1.37.575 1.381.837 2.51 2.263 2.73l3.359-2.144c3.274-2.094 3.542-5.884.576-8.416-.867-.739-2.128-1.115-2.291-3.113zm-49.416 2.898c.286 2.233.475 4.122.793 5.989.118.693.458 1.388.859 1.972.203.299.859.586 1.138.468.488-.207 1.109-.68 1.192-1.131.122-.66-.063-1.447-.323-2.096-.745-1.852-.669-3.708-.436-5.63 1.146-.299 2.201-.407 3.074-.861.543-.285.992-1.052 1.149-1.684.163-.654-1.035-1.324-2.019-1.224-.436.044-.863.163-1.297.235-1.593.264-3.185.531-4.78.78-.722.111-1.508.05-2.152.325-.451.192-.909.784-1.012 1.27-.176.826.429 1.407 1.194 1.558.685.137 1.421.03 2.622.03zm16.411-19.041c0-1.603.011-2.61-.002-3.619-.026-2.063-.002-4.128-.15-6.181-.03-.405-.728-1.048-1.131-1.057-.418-.009-1.186.588-1.219.97-.294 3.364-.488 6.738-.645 10.111-.057 1.238.907 2.405 2.136 2.375 2.339-.057 4.686-.266 7.006-.582.719-.098 1.258-.895.878-1.706-.212-.451-.756-.908-1.234-1.028-.523-.133-1.14.128-1.718.207-1.147.153-2.295.299-3.921.51zm-26.707-7.061c1.046-.458 1.417-.76 1.787-.758.898.004 1.447-.434 1.51-1.237.039-.51-.17-1.198-.523-1.549-.743-.736-1.617-.455-2.398.091-1.521 1.059-2.369 2.529-2.685 3.911.891 3.453 5.552 2.952 5.835 6.767-.767.133-1.517.116-2.106.414-.434.22-.924.863-.907 1.299.018.458.523 1.054.972 1.298.467.253 1.175.331 1.691.183 3.032-.869 3.921-3.089 2.243-5.752-.608-.967-1.495-1.784-2.359-2.551-.743-.656-1.635-1.146-3.058-2.117zm-11.732-4.152c-1.245-.309-1.879.266-2.043 1.229-.321 1.885-.569 3.786-.745 5.69-.628 6.841-.717 6.477 6.219 7.612.144.022.297.043.44.02 1.218-.183 1.849-.802 1.485-2.383l-5.674-1.706c-.58-3.612 1.441-7.052.318-10.462zm-6.999 13.211c.249-1.468-.242-2.301-1.563-2.198-1.436.113-2.851.479-4.209.723-.95-1.233-.804-2.37-.652-3.56.222-1.754.375-3.523.397-5.289.006-.368-.636-.861-1.085-1.063-.183-.083-.859.397-.946.721-.94 3.459-1.066 6.987-.623 10.527.124.994.981 1.451 1.951 1.455 2.359.007 4.643-.375 6.729-1.316z" fill="#fff"/><path fill="#fff" d="M51.5 53.5h82v45h-82z"/><path d="M40.763 34.86l2.618-3.675c1.668-.061 2.426.817 2.977 1.906.824 1.629 1.025 3.39.833 5.179-.201 1.895-.612 3.762.007 5.68.131.405-.331 1.085-.66 1.532-.414.562-1.739.355-1.844-.288-.185-1.139-.281-2.307-.268-3.462.015-1.322.231-2.64.273-3.963.02-.575-.172-1.155-.259-1.678-1.048-.577-1.33.253-1.752.795-1.43 1.841-1.428 1.843-3.904 1.538-1.131 1.209-.772 2.78-.987 4.205-.153 1.015-.063 2.08-.327 3.057-.103.386-.881.828-1.334.81-.388-.017-1.107-.699-1.068-1.013.552-4.677 1.166-9.348 1.901-13.999.079-.497 1.016-1.194 1.554-1.192.554 0 1.358.63 1.602 1.185.381.867.384 1.902.636 3.383" fill="#000"/><path d="M26.562 30.238c-1 .993-1.495 1.673-2.156 2.078-.453.275-1.297-.037-1.685.27-.637.503-1.286 1.238-1.454 1.985-.096.427.632 1.29 1.182 1.564 1.175.584 2.472.921 3.727 1.34 2.692.902 3.819 3.118 4.469 5.59.556 2.118-.547 4.004-2.184 4.923-1.574.882-3.636 1.085-5.504 1.192-1.798.104-3.45-.604-4.412-2.344 1.781-1.658 1.881-1.797 3.132-.891.782.567 1.476.891 2.389.799 2.007-.201 3.357-1.176 3.682-2.634.309-1.386-.597-2.693-2.589-3.608-1.872-.86-3.777-1.647-5.657-2.486-1.103-.492-1.425-1.418-1.275-2.545.057-.436.176-.865.283-1.292 1.166-4.642 2.269-5.268 8.052-3.939" fill="#000"/><path d="M104.689 91.118c.759 1.671.351 2.841-.617 3.797-.259.255-.835.407-1.177.305-.349-.105-.796-.551-.841-.895-.152-1.157-.122-2.338-.203-3.507-.131-1.908-.297-3.813-.447-5.721-.187-2.366.722-3.849 2.928-4.786 1.931-.821 3.767-.409 5.181 1.211.384.44.706.943.992 1.453 1.158 2.05 1.044 2.775-.741 4.595-.299.305-.7.51-1.345.969 1.304 1.168 2.372 2.089 3.394 3.056.416.392.902.836 1.049 1.346.142.488.063 1.22-.227 1.617-.469.638-1.299.76-1.966.266-.575-.423-1.022-1.026-1.502-1.569-1.003-1.135-2.149-1.993-4.479-2.137zm-.58-3.272c1.65-.678 2.607-.972 3.462-1.449 1.188-.66 1.251-1.921.244-2.845-1.317-1.209-3.335-.83-3.819.854-.244.856.039 1.86.113 3.44z" fill="#000"/><path d="M130.302 57.986c-2.005 2.039-2.437 4.27-4.116 5.392-2.779-.15-2.095-3.013-3.793-4.355-.504 1.582-.916 3.054-1.452 4.479-.305.811-.776 1.571-1.243 2.307-.325.512-.835.46-2.261-.083.976-3.338 2.795-6.403 3.18-9.941.083-.765.423-.871 2.742-1.773 2.062.898 1.833 3.124 2.594 4.71 1.077-.037 1.184-.876 1.569-1.464.562-.856 1.103-1.739 1.772-2.507.8-.917 2.003-.773 2.577.235.288.506.588 1.035.728 1.592.538 2.139 1.04 4.287 1.487 6.446.081.39-.024.969-.279 1.238-.366.384-.928.701-1.443.775-.275.041-.785-.431-.92-.776-.261-.671-.351-1.412-.477-2.129-.194-1.122-.362-2.25-.663-4.144" fill="#000"/><path d="M47.993 67.541c-.564-.124-.979-.283-1.399-.294-1.312-.035-2.625-.013-4.233-.013.194.747.212 1.481.554 2.004.916 1.409.36 2.551-.552 3.577-.32.36-1.048.638-1.493.532-.464-.107-.972-.656-1.162-1.131-.207-.51-.076-1.159-.078-1.749-.011-2.943-.03-5.886-.018-8.828.006-1.292.333-1.507 2.622-1.725l.381 4.327c1.561.187 3.124.641 4.85-.126-.233-1.634-.491-3.207-.669-4.789-.092-.819.329-1.542 1.133-1.597.362-.024.961.627 1.133 1.091.661 1.782 1.316 3.584 1.739 5.435.416 1.823.645 3.704.756 5.573.037.612-.458 1.335-.879 1.873-.412.527-1.696.24-1.879-.381-.203-.688-.248-1.421-.392-2.128-.113-.553-.272-1.096-.412-1.651" fill="#000"/><path d="M50.256 99.52l.791-2.791 2.217.595c.852.229 1.691.553 2.557.66 1.218.15 2.548-.671 2.877-1.616.366-1.055-.067-2.227-1.297-2.974-1.631-.991-3.352-1.839-5.009-2.793-1.334-.767-2.411-1.76-2.223-3.494.198-1.83.674-3.56 2.681-4.183 1.378-.427 2.812-.728 4.242-.897.314-.037.844.689 1.033 1.161.096.238-.273.897-.569 1.013-1.088.427-2.269.623-3.339 1.08-.451.192-.968.808-.996 1.259-.03.473.377 1.135.794 1.438.826.601 1.796 1 2.694 1.503.9.501 1.842.95 2.668 1.555 2.09 1.532 2.934 4.198 2.01 6.662-.286.763-.964 1.492-1.65 1.97-1.502 1.052-3.259 1.403-5.064 1.048-1.419-.281-2.801-.75-4.418-1.196" fill="#000"/><path d="M61.068 63.293c1.5 1.122 2.758 1.891 3.791 2.893.697.677 1.273 1.629 1.519 2.558.139.523-.34 1.466-.83 1.839-.691.527-1.319-.03-1.766-.706-1.519-2.311-1.528-2.305-4.458-3.958-.161.854-.183 1.756-.532 2.508-.185.394-.926.662-1.443.717-.292.031-.82-.429-.931-.769-.314-.97-.512-1.985-.674-2.995-.187-1.159-.054-2.425-.48-3.471-.54-1.322-.815-2.499-.074-3.765.903-1.545 1.968-2.902 3.745-3.566 1.792-.667 3.141-.423 4.377.946 1.28 1.421 1.465 3.27.34 4.839-.673.941-1.53 1.749-2.583 2.928zm-2.489-1.048c1.249-1.238 2.239-2.083 3.028-3.087.246-.312.133-1.218-.159-1.558-.29-.34-1.096-.555-1.528-.405-1.99.693-2.431 2.067-1.341 5.05z" fill="#000"/><path d="M169.145 32.447c-2.031 2.159-4.924 1.887-6.773 3.605-.427 1.385.244 2.311 1.495 2.653 1.105.301 2.306.318 3.466.322 1.469.007 2.94-.174 4.407-.157.309.004.787.47.867.799.07.301-.242.978-.477 1.024-2.439.47-4.892 1.155-7.346 1.166-3.074.015-5.151-2.536-5.402-5.396-.063-.732-.044-1.473-.046-2.211-.006-1.908-.002-3.815-.002-5.813 3.082-1.444 5.659-3.893 9.327-2.841.133 1.401-.769 1.738-1.554 2.083-1.341.592-2.76 1.019-4.074 1.664-1.092.536-1.214 1.547-.783 2.841 2.073.677 4.238-1.251 6.897.262" fill="#000"/><path d="M84.115 96.364c-.761-2.745 1.504-2.209 2.648-2.98 1.402-2.836-.31-5.653-.168-8.686-.811-.216-1.55-.292-2.154-.616-.443-.237-1.027-.841-.979-1.209.059-.438.671-1.061 1.129-1.15 2.596-.499 5.214-.878 7.832-1.251.414-.059.926.004 1.271.213.325.196.663.651.676 1.004.011.348-.305.922-.606 1.026-1.088.37-2.228.582-3.499.891-.992 2.758-.198 5.52.041 8.244.041.457.994 1.102 1.587 1.179.992.129 2.034-.148 3.058-.218.83-.057 1.613.333 1.567 1.131-.035.571-.673 1.49-1.171 1.588-3.73.732-7.499 1.078-11.23.834" fill="#000"/><path d="M81 54.742c.203 1.998-.477 2.841-1.781 3.154-1.12.266-2.267.407-3.656.647.011 2.978 1.031 5.566 1.441 8.503l4.728.274c.584 1.405-.172 2.214-1.194 2.494-2.601.712-5.236.303-7.836-.19-.589-.111-.939-1.566-.394-1.858 2.267-1.218 1.868-2.935 1.17-4.832-.401-1.091-.647-2.239-1.018-3.556-1.554.094-2.984.231-4.412.222-.296-.002-.743-.506-.839-.856-.096-.342.103-.819.294-1.17.122-.227.443-.423.709-.486 4.124-.993 8.314-1.571 12.787-2.344" fill="#000"/><path d="M154.584 41.035c-1.007-1.649-.878-4.398-3.675-4.845-1.691.409-.909 3.311-3.544 3.124-.977-1.447-1.279-3.24-1.349-5.159-.068-1.876-.318-3.743-.499-5.754 1.146-.821 1.739-.872 2.21.028.471.902.83 1.861 1.393 3.15.892-1.669 1.644-3.067 2.389-4.47.207-.388.292-.943.61-1.148.434-.279 1.144-.536 1.539-.36.364.161.767 1.019.634 1.375-.406 1.089-1.072 2.081-1.62 3.118-.399.758-.778 1.527-1.024 2.011 1.58 1.972 3.008 3.616 4.257 5.386.477.675.767 1.649.735 2.471-.035 1.017-.778 1.532-2.056 1.072" fill="#000"/><path d="M126.588 81.617l-3.141 1.067c-.133.348-.455.765-.41 1.142.212 1.878.521 3.747.828 5.836 1.149.072 2.134.201 3.113.174 1.012-.03 2.029-.336 3.026-.264.405.028.894.682 1.086 1.155.103.253-.272.985-.554 1.067-3.248.933-6.531 1.677-9.94.958-.78-.165-1.461-1.196-1.022-1.603 2.125-1.969 1.162-4.296.9-6.544-.048-.421-.253-.826-.395-1.264-.955-.377-1.903-.704-2.805-1.128-.495-.233-.466-1.194-.013-1.505 1.685-1.15 3.671-.706 5.511-1.02 1.21-.207 2.341-.007 3.198.993.091.105.155.231.617.937" fill="#000"/><path d="M54.906 36.42c1.524-.102 2.688-.216 3.854-.242.739-.015.933.444.944 1.943-1.332.542-2.67 1.08-4 1.638-.115.048-.168.237-.253.366.018 1.222.752 1.897 1.851 2.094 1.005.181 2.069.054 3.06.27.443.098 1.094.728 1.073 1.081-.026.434-.593 1.096-1.037 1.203-2.533.619-4.95.327-7.328-1.425-.218-3.854-2.762-7.655-.661-11.882 1.707-1.207 3.599-.876 5.458-.468.277.059.599.682.595 1.043-.004.357-.338.958-.623 1.02-1.112.25-2.263.327-3.438.475-.055.641-.176 1.074-.103 1.471.074.416.333.799.608 1.412" fill="#000"/><path d="M72.043 91.732c.144 1.15.323 2.29.41 3.44.03.405-.037.97-.294 1.207-.386.351-.972.617-1.487.645-.285.015-.846-.514-.865-.823-.192-3.359-.442-6.725.004-9.982 1.031-.447 1.408.043 1.957.641 1.018 1.107 2.417 1.279 3.51.447.504-.383.889-1.214.916-1.861.033-.749-.621-1.416-1.432-1.375-1.45.068-2.89.377-4.34.471-.503.031-1.027-.275-1.543-.427.163-.506.164-1.226.512-1.482 2.367-1.762 4.994-1.569 7.544-.556.678.27 1.314 1.248 1.504 2.017.538 2.153-.358 5.094-2.627 5.985-1.21.473-2.383 1.043-3.769 1.653" fill="#000"/><path d="M137.404 63.624c1.716-2.937 3.485-5.932 5.218-8.945.58-1.013 1.012-2.113 1.633-3.096.17-.27.776-.344 1.186-.351.209-.004.564.307.613.531.222.987.456 1.989.504 2.995.102 2.178-.022 4.372.166 6.538.137 1.555.632 3.078.964 4.599-2.31.723-2.387.647-3.915-3.723-1.009-.649-1.934-.342-2.738.397-.534.49-.885 1.19-1.443 1.641-.811.656-1.591.538-2.189-.586" fill="#000"/><path d="M136.264 36.765l-.957-4.856c-1.36 0-2.487.065-3.597-.048-.27-.026-.56-.604-.693-.982-.07-.201.103-.638.297-.754.613-.375 1.256-.784 1.944-.941 2.57-.586 5.153-1.126 7.751-1.56.41-.068 1.168.397 1.325.793.157.394-.085 1.298-.418 1.471-1.144.597-2.402.97-3.725 1.47-.473 1.812.575 3.325.898 5.24 1.037-.153 1.859-.318 2.692-.388 1.437-.122 1.484-.048 1.857 2.32-2.954.604-5.802 1.874-8.937 1.42-.442-.065-.896-.638-1.151-1.085-.089-.155.342-.738.652-.959.575-.409 1.236-.695 2.062-1.141" fill="#000"/><path d="M31.325 70.628c-.198.015.427-.168.966-.026.469.122.972.54 1.206.967.131.237-.142.919-.43 1.128-1.912 1.385-4.104 1.68-6.306 1.05-2.26-.647-3.642-2.641-3.644-5.011-.004-3.728 1.528-6.854 4.068-9.496.368-.383 1.031-.628 1.574-.665.968-.068 1.707.455 1.957 1.427.198.763.05 1.494-.809 1.793-3.274 1.142-3.76 3.839-3.725 6.764.02 1.586.983 2.381 2.598 2.344.588-.013 1.173-.122 2.544-.274" fill="#000"/><path d="M94.144 66.428c-.599-.556-1.151-1.2-1.827-1.669-.963-.667-2.077-1.128-3.015-1.824-1.338-.991-1.609-2.553-.839-3.921 1.086-1.93 3.958-3.013 6.166-2.285.222.074.504.433.493.647-.02.381-.146.985-.395 1.087-1.07.438-2.201.726-3.289 1.063-.698 1.033-.1 1.715.649 2.231.846.58 1.868.921 2.668 1.553.794.628 1.522 1.412 2.073 2.263.748 1.159.277 2.73-.976 3.403-1.033.553-2.125 1.098-3.256 1.335-.78.163-1.763-.024-2.485-.39-.831-.421-2.053-.776-1.735-2.2.216-.959.881-1.124 2.93-.327 1.179.457 1.973.17 2.838-.965" fill="#000"/><path d="M144.135 78.693c0 .708.172 1.325-.046 1.738-.235.445-.807.943-1.28.996-1.739.196-3.496.22-5.436.318.011 2.717.314 5.117 1.238 7.455.152.383-.172 1.22-.536 1.477-.685.484-1.506.179-1.853-.549-.432-.902-.732-1.893-.924-2.88-.307-1.56-.475-3.148-.735-4.961-1.051-.129-1.881-.242-2.714-.333-.865-.092-1.306-.601-1.345-1.431-.048-.993.588-1.723 1.519-1.813.294-.028.589-.017.883-.017h11.23" fill="#000"/><path d="M153.213 56.053c.163 1.998 1.425 2.373 2.291 3.113 2.965 2.532 2.698 6.322-.576 8.416-1.114.714-2.23 1.423-3.359 2.144-1.426-.22-1.689-1.349-2.263-2.73 1.412-.505 2.633-.86 3.786-1.37 1.988-.878 2.293-2.773.713-4.224-.756-.695-1.65-1.253-2.346-1.998-1.761-1.885-1.092-5.187 1.264-6.342.517-.253 1.131-.322 1.707-.442 1.107-.227 2.047.214 2.077.983.035.915-.612 1.189-1.351 1.453-.665.237-1.269.643-1.942.996" fill="#000"/><path d="M103.796 58.951c-1.201 0-1.936.107-2.622-.03-.765-.152-1.369-.732-1.194-1.558.103-.486.562-1.078 1.012-1.27.645-.275 1.43-.214 2.152-.325 1.594-.25 3.187-.516 4.78-.78.434-.072.861-.19 1.297-.235.985-.1 2.182.569 2.019 1.224-.157.632-.606 1.399-1.149 1.684-.874.455-1.929.562-3.074.861-.233 1.922-.309 3.778.436 5.63.261.649.445 1.436.323 2.096-.083.451-.704.924-1.192 1.131-.279.118-.935-.168-1.138-.468-.401-.584-.741-1.279-.859-1.972-.318-1.867-.506-3.756-.793-5.989" fill="#000"/><path d="M120.207 39.91c1.626-.211 2.773-.357 3.921-.51.578-.079 1.195-.34 1.718-.207.479.12 1.022.577 1.234 1.028.381.811-.159 1.608-.878 1.706-2.321.316-4.667.525-7.006.582-1.229.03-2.193-1.137-2.136-2.375.157-3.373.351-6.747.645-10.111.033-.383.802-.98 1.219-.97.403.009 1.101.653 1.131 1.057.148 2.054.124 4.118.15 6.181.013 1.009.002 2.017.002 3.619" fill="#000"/><path d="M93.499 32.848c1.423.97 2.315 1.46 3.058 2.117.865.767 1.752 1.584 2.359 2.551 1.678 2.664.789 4.884-2.243 5.752-.515.148-1.223.07-1.691-.183-.449-.244-.953-.839-.972-1.298-.017-.436.473-1.08.907-1.299.589-.298 1.34-.281 2.106-.414-.283-3.815-4.944-3.314-5.835-6.767.316-1.383 1.164-2.852 2.685-3.911.782-.545 1.655-.826 2.398-.091.353.351.562 1.039.523 1.549-.063.802-.612 1.24-1.51 1.237-.37-.002-.741.299-1.787.758" fill="#000"/><path d="M81.767 28.697c1.123 3.41-.898 6.85-.318 10.462l5.674 1.706c.364 1.58-.268 2.2-1.485 2.383-.142.022-.296.002-.44-.02-6.936-1.135-6.847-.771-6.219-7.612.176-1.904.423-3.804.745-5.69.164-.963.798-1.538 2.043-1.229" fill="#000"/><path d="M74.768 41.908c-2.086.941-4.37 1.324-6.729 1.316-.97-.004-1.827-.46-1.951-1.455-.443-3.54-.318-7.069.623-10.527.087-.323.763-.804.946-.721.449.201 1.09.695 1.085 1.063-.022 1.765-.176 3.534-.397 5.289-.152 1.19-.297 2.327.652 3.56 1.358-.244 2.773-.61 4.209-.723 1.321-.104 1.813.73 1.563 2.198" fill="#000"/><path d="M104.108 87.846c-.074-1.58-.357-2.584-.113-3.44.484-1.684 2.502-2.063 3.819-.854 1.007.924.944 2.185-.244 2.845-.855.477-1.813.771-3.462 1.449"/><path d="M58.579 62.245c-1.09-2.983-.649-4.357 1.341-5.05.432-.15 1.238.065 1.528.405.292.34.405 1.246.159 1.558-.789 1.004-1.779 1.848-3.028 3.087"/></g></g></svg>