<?xml version="1.0" encoding="UTF-8" standalone="no"?>
<svg width="193px" height="122px" viewBox="0 0 193 122" version="1.1" xmlns="http://www.w3.org/2000/svg" xmlns:xlink="http://www.w3.org/1999/xlink" xmlns:sketch="http://www.bohemiancoding.com/sketch/ns">
    <!-- Generator: Sketch 3.1.1 (8761) - http://www.bohemiancoding.com/sketch -->
    <title>smells-like</title>
    <desc>Created with Sketch.</desc>
    <defs></defs>
    <g id="Page-1" stroke="none" stroke-width="1" fill="none" fill-rule="evenodd" sketch:type="MSPage">
        <g id="Desktop-2" sketch:type="MSArtboardGroup" transform="translate(-303.000000, -502.000000)">
            <rect id="Rectangle-1" opacity="0.869927705" sketch:type="MSShapeGroup" x="0" y="0" width="1024" height="1024"></rect>
            <g id="Group" sketch:type="MSLayerGroup" transform="translate(67.500000, 501.500000)">
                <g id="Imported-Layers" transform="translate(236.000000, 1.000000)" sketch:type="MSShapeGroup">
                    <path d="M4.33777143,107.546697 C5.8288,103.182424 4.35809524,99.2765758 4.22137143,95.3226667 C4.03291429,89.8714848 3.59872381,84.427697 3.48786667,78.9765152 C3.3844,73.81 3.80011429,68.6268485 3.55622857,63.4714242 C3.26245714,57.2882424 2.48830476,51.1272424 1.97466667,44.953303 C1.81577143,43.0438182 1.7067619,41.1158485 1.78990476,39.2045152 C1.9783619,34.8993939 1.89891429,30.5850303 0.829142857,26.4259394 C-0.854038095,19.886 -0.246171429,13.5771212 1.76958095,7.24236364 C2.30169524,5.56763636 3.24213333,4.7210303 4.8292381,4.54542424 C6.43851429,4.36981818 8.0699619,4.37906061 9.69032381,4.31621212 C12.1956952,4.22009091 14.699219,4.13321212 17.2027429,4.04078788 C17.7921333,4.02045455 18.385219,3.93727273 18.9709143,3.97978788 C23.3553143,4.30512121 27.7415619,4.636 32.1241143,5.00569697 C35.666,5.30515152 39.1968,5.29775758 42.7072762,4.71548485 C52.6049714,3.07218182 62.5968952,2.379 72.5943619,1.73018182 C74.5029524,1.60633333 76.3986095,1.27730303 78.3035048,1.09060606 C81.6735619,0.763424242 85.0288381,0.513878788 88.4395429,0.565636364 C96.3898476,0.687636364 104.345695,0.399272727 112.299695,0.421454545 C116.279467,0.43069697 120.270324,0.619242424 124.235314,0.966757576 C133.663714,1.7930303 143.101352,0.848454545 152.527905,1.24772727 C156.951105,1.43627273 161.374305,1.62112121 165.790114,1.91872727 C170.344495,2.22557576 174.904419,2.562 179.436629,3.09251515 C182.49259,3.44927273 185.506057,4.16278788 188.379105,4.68960606 C191.104343,9.41433333 190.803181,14.3442424 190.280305,19.1299697 C189.491371,26.3335152 189.079352,33.5407576 188.794819,40.7720303 C188.597124,45.8368788 189.530171,50.7760303 190.189771,55.7521515 C190.441048,57.6468485 190.701562,59.5600303 190.707105,61.4676667 C190.731124,67.9687879 190.566686,74.4717576 190.629505,80.9728788 C190.657219,84.0653939 191.093257,87.1523636 191.239219,90.2467273 C191.490495,95.5555758 191.811981,100.868121 191.784267,106.17697 C191.773181,108.175182 190.87339,110.167848 190.43181,111.951636 C189.216076,113.129121 187.980019,113.469242 186.607238,113.478485 C184.245981,113.49697 181.886571,113.541333 179.525314,113.565364 C179.23339,113.569061 178.780724,113.622667 178.669867,113.465545 C177.092,111.225182 175.044838,112.543152 173.454038,113.092152 C171.833676,113.652242 170.283524,113.729879 168.698267,113.657788 C166.19659,113.543182 163.706,113.208606 161.209867,112.986788 C160.474514,112.922091 159.733619,112.872182 159.000114,112.899909 C151.201314,113.177182 143.389581,113.280697 135.60741,113.813061 C127.232152,114.387939 118.890152,115.443424 110.522286,116.144 C105.677829,116.550667 100.807505,116.615364 95.9556571,116.942545 C93.4650667,117.112606 90.9911048,117.528515 88.5079048,117.824273 C87.7762476,117.911152 87.0427429,118.029455 86.3092381,118.035 C80.2453524,118.088606 74.2627619,119.007303 68.243219,119.589576 C60.4702857,120.341909 52.6714857,121.022152 44.8283429,120.794788 C39.9635619,120.654303 35.084,120.93897 30.2229143,120.765212 C26.843619,120.643212 23.4772571,120.088667 20.1108952,119.676455 C18.7953905,119.515636 17.5039048,119.138545 16.1865524,118.988818 C11.3901333,118.447212 8.41177143,115.724394 6.90041905,111.275091 C6.42927619,109.88503 6.20017143,108.400697 4.33777143,107.546697 L4.33777143,107.546697 Z M4.92531429,6.54363636 C4.26940952,8.46236364 3.59502857,10.244303 3.05182857,12.0650606 C2.05041905,15.4200606 2.3848381,18.8138788 3.05921905,22.1614848 C3.9664,26.6662424 4.64078095,31.1931818 4.51144762,35.7940606 C4.3544,41.4300909 5.36135238,46.9718485 5.74750476,52.5616667 C5.97106667,55.8039091 6.47731429,59.051697 6.39601905,62.284697 C6.14659048,72.1796364 6.32211429,82.0579394 6.94106667,91.930697 C7.07224762,93.9917576 7.12767619,96.0768485 7.50459048,98.0972424 C7.92954286,100.365333 7.82977143,102.733242 9.31525714,104.838667 C9.94529524,105.733333 9.44828571,107.409909 9.50186667,108.729727 C9.6792381,113.125424 11.624781,115.373182 15.8853905,116.526636 C24.2606476,118.796576 32.7874095,118.901939 41.3622095,118.554424 C44.6066286,118.421333 47.8584381,118.406545 51.0991619,118.212455 C57.2831429,117.842758 63.4985333,117.683788 69.630781,116.890788 C78.1242857,115.790939 86.6565905,115.312182 95.1741143,114.611606 C100.613505,114.164273 106.082457,114.049667 111.505219,113.472939 C121.929486,112.362 132.344514,111.234424 142.842686,111.073606 C146.815067,111.010758 150.781905,110.698364 154.756133,110.572667 C158.30541,110.461758 161.808495,110.421091 165.346686,110.772303 C168.421124,111.077303 171.495562,111.127212 174.592171,110.44697 C178.769638,109.528273 183.008076,109.483909 187.316724,110.746424 C187.61419,109.970061 187.956,109.319394 188.113048,108.626212 C189.271505,103.513303 189.12,98.3597273 188.525067,93.1987576 C188.170324,90.1228788 187.534743,87.0543939 187.475619,83.9729697 C187.370305,78.3739091 187.579086,72.7674545 187.701029,67.164697 C187.773086,63.9224545 187.850686,60.7023939 187.390629,57.4564545 C186.749505,52.9295152 186.540724,48.3415758 185.894057,43.8164848 C185.382267,40.2359697 186.3652,36.7682121 186.263581,33.2228182 C186.193371,30.7329091 186.634952,28.2282121 186.843733,25.7309091 C187.176305,21.7640606 188.101962,17.8582121 187.835905,13.8248182 C187.67701,11.4143939 187.372152,9.14075758 185.618762,7.12221212 C184.589638,6.90224242 183.451505,6.57875758 182.289352,6.42348485 C178.202419,5.87818182 174.117333,5.29221212 170.013771,4.91142424 C165.45939,4.4899697 160.890229,4.18127273 156.319219,4.00012121 C151.471067,3.80787879 146.608133,3.95575758 141.789543,3.22560606 C140.462952,3.02412121 139.217657,3.05924242 137.887371,3.48254545 C134.892381,4.43451515 131.799467,4.50106061 128.689924,3.98533333 C127.525924,3.79309091 126.345295,3.64890909 125.168362,3.60639394 C118.250876,3.355 111.33339,3.04075758 104.41221,2.94648485 C99.1021524,2.87439394 93.764381,3.45851515 88.4838857,3.09066667 C82.9724381,2.70618182 77.6476,3.99827273 72.200819,4.07590909 C67.7942476,4.14060606 63.3895238,4.81715152 59.0014286,5.36430303 C53.1555619,6.09260606 47.2173143,6.15175758 41.4786095,7.70633333 C40.6360952,7.93554545 39.715981,8.00209091 38.8402095,7.96327273 C32.5121143,7.68415152 26.1877143,7.37175758 19.8633143,7.04457576 C15.4604381,6.81721212 11.0594095,6.53809091 6.65468571,6.31627273 C6.09300952,6.28854545 5.5184,6.46045455 4.92531429,6.54363636 L4.92531429,6.54363636 Z" id="Fill-1" fill="#000000"></path>
                    <path d="M4.92531429,6.54363636 C5.5184,6.46045455 6.09300952,6.28854545 6.65468571,6.31627273 C11.0594095,6.53809091 15.4604381,6.81721212 19.8633143,7.04457576 C26.1877143,7.37175758 32.5121143,7.68415152 38.8402095,7.96327273 C39.715981,8.00209091 40.6360952,7.93554545 41.4786095,7.70633333 C47.2173143,6.15175758 53.1555619,6.09260606 59.0014286,5.36430303 C63.3895238,4.81715152 67.7942476,4.14060606 72.200819,4.07590909 C77.6476,3.99827273 82.9724381,2.70618182 88.4838857,3.09066667 C93.764381,3.45851515 99.1021524,2.87439394 104.41221,2.94648485 C111.33339,3.04075758 118.250876,3.355 125.168362,3.60639394 C126.345295,3.64890909 127.525924,3.79309091 128.689924,3.98533333 C131.799467,4.50106061 134.892381,4.43451515 137.887371,3.48254545 C139.217657,3.05924242 140.462952,3.02412121 141.789543,3.22560606 C146.608133,3.95575758 151.471067,3.80787879 156.319219,4.00012121 C160.890229,4.18127273 165.45939,4.4899697 170.013771,4.91142424 C174.117333,5.29221212 178.202419,5.87818182 182.289352,6.42348485 C183.451505,6.57875758 184.589638,6.90224242 185.618762,7.12221212 C187.372152,9.14075758 187.67701,11.4143939 187.835905,13.8248182 C188.101962,17.8582121 187.176305,21.7640606 186.843733,25.7309091 C186.634952,28.2282121 186.193371,30.7329091 186.263581,33.2228182 C186.3652,36.7682121 185.382267,40.2359697 185.894057,43.8164848 C186.540724,48.3415758 186.749505,52.9295152 187.390629,57.4564545 C187.850686,60.7023939 187.773086,63.9224545 187.701029,67.164697 C187.579086,72.7674545 187.370305,78.3739091 187.475619,83.9729697 C187.534743,87.0543939 188.170324,90.1228788 188.525067,93.1987576 C189.12,98.3597273 189.271505,103.513303 188.113048,108.626212 C187.956,109.319394 187.61419,109.970061 187.316724,110.746424 C183.008076,109.483909 178.769638,109.528273 174.592171,110.44697 C171.495562,111.127212 168.421124,111.077303 165.346686,110.772303 C161.808495,110.421091 158.30541,110.461758 154.756133,110.572667 C150.781905,110.698364 146.815067,111.010758 142.842686,111.073606 C132.344514,111.234424 121.929486,112.362 111.505219,113.472939 C106.082457,114.049667 100.613505,114.164273 95.1741143,114.611606 C86.6565905,115.312182 78.1242857,115.790939 69.630781,116.890788 C63.4985333,117.683788 57.2831429,117.842758 51.0991619,118.212455 C47.8584381,118.406545 44.6066286,118.421333 41.3622095,118.554424 C32.7874095,118.901939 24.2606476,118.796576 15.8853905,116.526636 C11.624781,115.373182 9.6792381,113.125424 9.50186667,108.729727 C9.44828571,107.409909 9.94529524,105.733333 9.31525714,104.838667 C7.82977143,102.733242 7.92954286,100.365333 7.50459048,98.0972424 C7.12767619,96.0768485 7.07224762,93.9917576 6.94106667,91.930697 C6.32211429,82.0579394 6.14659048,72.1796364 6.39601905,62.284697 C6.47731429,59.051697 5.97106667,55.8039091 5.74750476,52.5616667 C5.36135238,46.9718485 4.3544,41.4300909 4.51144762,35.7940606 C4.64078095,31.1931818 3.9664,26.6662424 3.05921905,22.1614848 C2.3848381,18.8138788 2.05041905,15.4200606 3.05182857,12.0650606 C3.59502857,10.244303 4.26940952,8.46236364 4.92531429,6.54363636 L4.92531429,6.54363636 Z M40.2628762,34.3596364 C40.0116,32.879 40.0079048,31.8438485 39.6272952,30.9769091 C39.3834095,30.4223636 38.5796952,29.7920303 38.0254095,29.7920303 C37.4877524,29.7901818 36.5510095,30.4870606 36.4715619,30.984303 C35.7362095,35.6350909 35.1228,40.3062121 34.5703619,44.9828788 C34.5315619,45.2971212 35.2502857,45.9792121 35.6382857,45.9958485 C36.0909524,46.0143333 36.8688,45.5725455 36.9722667,45.1862121 C37.2364762,44.2083636 37.1459429,43.1436364 37.2992952,42.1288182 C37.513619,40.7036364 37.155181,39.1324242 38.2859238,37.9235152 C40.7617333,38.2285152 40.7598857,38.2266667 42.1899429,36.3855758 C42.6112,35.8439697 42.8938857,35.014 43.9414857,35.5907273 C44.0283238,36.1138485 44.2204762,36.6942727 44.2001524,37.2691515 C44.1576571,38.5926667 43.9414857,39.9106364 43.9267048,41.232303 C43.9137714,42.3876061 44.0098476,43.5558485 44.1946095,44.6945152 C44.2999238,45.3377879 45.6246667,45.5448182 46.0385333,44.9828788 C46.3674095,44.5355455 46.8293143,43.855303 46.6981333,43.4504848 C46.079181,41.5317576 46.4893524,39.6647879 46.6907429,37.7700909 C46.8828952,35.9807576 46.6815048,34.2191515 45.8574667,32.5906364 C45.3068762,31.5018788 44.5493524,30.6238485 42.8809524,30.6848485 C42.1659238,31.6867273 41.3640571,32.814303 40.2628762,34.3596364 L40.2628762,34.3596364 Z M26.0620762,29.7384242 C20.2790286,28.4093636 19.176,29.036 18.0101524,33.6775455 C17.9029905,34.1045455 17.7847429,34.5333939 17.7274667,34.9696364 C17.5778095,36.0972121 17.8992952,37.023303 19.0023238,37.515 C20.8832,38.3542121 22.7880952,39.1416667 24.6597333,40.0012121 C26.6514667,40.9162121 27.5568,42.2230909 27.2482476,43.6094545 C26.9230667,45.0679091 25.5724571,46.0420606 23.5659429,46.2435455 C22.653219,46.3359697 21.9585143,46.0124848 21.1769714,45.445 C19.9261333,44.5392424 19.8263619,44.6778788 18.0452571,46.3359697 C19.0078667,48.0753939 20.6596381,48.7833636 22.4573714,48.6798485 C24.3253143,48.5726364 26.3872571,48.369303 27.9614286,47.4875758 C29.598419,46.5688788 30.7014476,44.6834242 30.1453143,42.5650606 C29.4949524,40.0936364 28.3679048,37.877303 25.6759238,36.9752424 C24.4213905,36.5556364 23.1243619,36.2192121 21.9492762,35.6350909 C21.3986857,35.3615152 20.6707238,34.4982727 20.7668,34.0712727 C20.9349333,33.3244848 21.5834476,32.5887879 22.2208762,32.086 C22.6088762,31.7791515 23.4532381,32.0915455 23.9059048,31.8161212 C24.5673524,31.411303 25.0625143,30.7310606 26.0620762,29.7384242 L26.0620762,29.7384242 Z M104.188648,90.6182727 C106.518495,90.7624545 107.664019,91.6201515 108.667276,92.7551212 C109.147657,93.2985758 109.594781,93.9011818 110.16939,94.3244848 C110.836381,94.8180303 111.665962,94.6960303 112.135257,94.058303 C112.425333,93.6608788 112.504781,92.9288788 112.362514,92.4408788 C112.214705,91.930697 111.728781,91.4870606 111.313067,91.0951818 C110.291333,90.1284242 109.22341,89.2078788 107.91899,88.0396364 C108.56381,87.5812121 108.964743,87.3760303 109.264057,87.0710303 C111.048857,85.2502727 111.16341,84.5256667 110.004952,82.475697 C109.718571,81.9655152 109.397086,81.4627273 109.012781,81.0227879 C107.599352,79.4035152 105.762819,78.991303 103.832057,79.8120303 C101.626,80.7492121 100.716971,82.231697 100.903581,84.5977576 C101.053238,86.5053939 101.219524,88.4111818 101.350705,90.3188182 C101.432,91.4870606 101.402438,92.6682424 101.553943,93.8253939 C101.598286,94.1692121 102.04541,94.614697 102.39461,94.7200606 C102.736419,94.8217273 103.312876,94.6701515 103.571543,94.4150606 C104.539695,93.4593939 104.948019,92.289303 104.188648,90.6182727 L104.188648,90.6182727 Z M129.80219,57.4860303 C130.103352,59.3807273 130.271486,60.508303 130.465486,61.6303333 C130.591124,62.3475455 130.681657,63.0887879 130.942171,63.7597879 C131.077048,64.1054545 131.58699,64.5768182 131.862286,64.5361515 C132.377771,64.4622121 132.939448,64.1461212 133.305276,63.7616364 C133.560248,63.4917576 133.665562,62.9131818 133.584267,62.5231515 C133.137143,60.3641212 132.63459,58.2161818 132.096933,56.0774848 C131.956514,55.5210909 131.6572,54.9924242 131.368971,54.4859394 C130.794362,53.4785152 129.591562,53.3343333 128.791543,54.2511818 C128.122705,55.018303 127.581352,55.9018788 127.019676,56.7577273 C126.635371,57.3455455 126.52821,58.1847576 125.451048,58.2217273 C124.689829,56.6357273 124.918933,54.4101515 122.85699,53.5117879 C120.538229,54.4138485 120.198267,54.5192121 120.115124,55.2844848 C119.730819,58.8224848 117.910914,61.8872727 116.935371,65.2256364 C118.361733,65.7690909 118.871676,65.8208485 119.196857,65.3088182 C119.664305,64.5731212 120.135448,63.8133939 120.440305,63.0019091 C120.976114,61.5767273 121.388133,60.1053333 121.892533,58.5230303 C123.590495,59.8650303 122.906876,62.7283333 125.685695,62.8780606 C127.365181,61.7560303 127.797524,59.5249091 129.80219,57.4860303 L129.80219,57.4860303 Z M47.4926095,67.0408485 C47.6330286,67.5953939 47.7919238,68.1388485 47.9046286,68.6915455 C48.0487429,69.3976667 48.0930857,70.1315152 48.2963238,70.8191515 C48.4792381,71.4402424 49.7633333,71.7267576 50.1753524,71.1999394 C50.5966095,70.6620303 51.0917714,69.9392727 51.054819,69.3274242 C50.9439619,67.4586061 50.7148571,65.5768485 50.2991429,63.7542424 C49.8760381,61.9039091 49.221981,60.1016364 48.5605333,58.319697 C48.3887048,57.8557273 47.7900762,57.2050606 47.4279429,57.2290909 C46.6242286,57.2845455 46.2029714,58.007303 46.2953524,58.8261818 C46.4727238,60.4084848 46.7313905,61.9815455 46.9641905,63.6156061 C45.2385143,64.3827273 43.6754286,63.928 42.1141905,63.741303 C41.9811619,62.223697 41.8573714,60.817 41.733581,59.414 C39.444381,59.6321212 39.1173524,59.8465455 39.1118095,61.1386364 C39.1007238,64.0814242 39.1192,67.0242121 39.1302857,69.967 C39.1321333,70.5566667 39.0009524,71.2054848 39.2078857,71.7156667 C39.3981905,72.1907273 39.9062857,72.7397273 40.3700381,72.8469394 C40.8153143,72.952303 41.5432762,72.6750303 41.8629143,72.3145758 C42.7756381,71.2886667 43.3317714,70.146303 42.4153524,68.7377576 C42.0735429,68.2146364 42.0550667,67.4807879 41.8610667,66.734 C43.4684952,66.734 44.7821524,66.7118182 46.0939619,66.7469394 C46.5133714,66.7580303 46.9290857,66.917 47.4926095,67.0408485 L47.4926095,67.0408485 Z M49.7559429,99.0196364 C51.3726095,99.4651212 52.7546286,99.9346364 54.1736,100.215606 C55.9787238,100.570515 57.7358095,100.219303 59.2379238,99.1675152 C59.9233905,98.6887576 60.6014667,97.9604545 60.8878476,97.1970303 C61.8116571,94.733 60.9672952,92.0674848 58.8776381,90.5350909 C58.0517524,89.9306364 57.1094667,89.4814545 56.2096762,88.9805152 C55.3117333,88.4777273 54.3417333,88.0784545 53.5158476,87.477697 C53.0982857,87.1745455 52.6918095,86.5127879 52.7213714,86.0395758 C52.7490857,85.5885455 53.266419,84.973 53.7172381,84.7807576 C54.7870095,84.3241818 55.9676381,84.1282424 57.0558857,83.7012424 C57.3515048,83.5847879 57.7210286,82.9267273 57.6249524,82.6882727 C57.4364952,82.2169091 56.9062286,81.4904545 56.5921333,81.5274242 C55.1620762,81.6956364 53.7283238,81.9969394 52.35,82.4239394 C50.3434857,83.0468788 49.8668,84.7770606 49.6691048,86.6070606 C49.4806476,88.3409394 50.5578095,89.3335758 51.8917905,90.100697 C53.5491048,91.0545152 55.2692381,91.9029697 56.9006857,92.8937576 C58.1312,93.6405455 58.5635429,94.8124848 58.1977143,95.8679697 C57.8688381,96.8125455 56.5385524,97.6332727 55.3209714,97.4835455 C54.4544381,97.3763333 53.615619,97.0528485 52.7638667,96.8236364 C52.0968762,96.6461818 51.4317333,96.4668788 50.5467238,96.2284242 C50.2455619,97.2931515 50.022,98.0806061 49.7559429,99.0196364 L49.7559429,99.0196364 Z M60.5682095,62.7930303 C61.6213524,61.613697 62.4786476,60.8059091 63.151181,59.8650303 C64.276381,58.2956667 64.091619,56.4471818 62.811219,55.025697 C61.5751619,53.6559697 60.2264,53.4119697 58.4342095,54.0792727 C56.6568,54.7428788 55.5925714,56.0996667 54.6890857,57.645 C53.9481905,58.9112121 54.2234857,60.088697 54.7629905,61.4103636 C55.1897905,62.4566061 55.0567619,63.7228182 55.2433714,64.8818182 C55.4059619,65.8910909 55.6036571,66.9059091 55.9177524,67.8763636 C56.0286095,68.2164848 56.5570286,68.6767576 56.8489524,68.6453333 C57.3662857,68.5898788 58.107181,68.3218485 58.2919429,67.9281212 C58.6411429,67.1757879 58.6633143,66.2737273 58.8240571,65.4197273 C61.754381,67.0722727 61.763619,67.0667273 63.2823619,69.3773333 C63.7294857,70.0538788 64.3576762,70.6102727 65.0486857,70.0834545 C65.5383048,69.7100606 66.0168381,68.7673333 65.8782667,68.2442121 C65.6325333,67.3144242 65.0560762,66.3624545 64.3595238,65.6859091 C63.3267048,64.6840303 62.0684762,63.9150606 60.5682095,62.7930303 L60.5682095,62.7930303 Z M168.644686,31.9473636 C165.985962,30.4334545 163.820552,32.3614242 161.747524,31.6848788 C161.317029,30.3909394 161.438971,29.3798182 162.530914,28.8437576 C163.844571,28.1986364 165.263543,27.7716364 166.604914,27.1801212 C167.390152,26.8344545 168.29179,26.4980303 168.158762,25.0968788 C164.491238,24.0450909 161.91381,26.4943333 158.831981,27.938 C158.831981,29.9362121 158.828286,31.8438485 158.833829,33.7514848 C158.835676,34.4890303 158.8172,35.2302727 158.880019,35.9622727 C159.131295,38.8218788 161.208019,41.3727879 164.282457,41.358 C166.736095,41.3469091 169.189733,40.6611212 171.62859,40.1916061 C171.863238,40.1453939 172.175486,39.4688485 172.105276,39.1675455 C172.025829,38.8385152 171.547295,38.372697 171.238743,38.369 C169.771733,38.3523636 168.301029,38.5335152 166.832171,38.5261212 C165.671867,38.5224242 164.470914,38.5057879 163.366038,38.2044848 C162.1152,37.8625152 161.444514,36.9364242 161.871314,35.5519091 C163.720781,33.8346667 166.614152,34.1063939 168.644686,31.9473636 L168.644686,31.9473636 Z M83.6154095,95.8642727 C87.3457524,96.1082727 91.1148952,95.7626061 94.8452381,95.0306061 C95.3440952,94.9326364 95.9815238,94.0139394 96.0166286,93.4427576 C96.062819,92.6442121 95.2794286,92.2541818 94.4498476,92.3114848 C93.4262667,92.3817273 92.3842095,92.659 91.3920381,92.5296061 C90.7989524,92.4519697 89.845581,91.8068485 89.8049333,91.3502727 C89.5665905,88.6256061 88.7721143,85.8639697 89.7642857,83.1060303 C91.0354476,82.7973333 92.1754286,82.5847576 93.2636762,82.2150606 C93.5648381,82.1115455 93.880781,81.5366667 93.8696952,81.1891515 C93.8567619,80.8360909 93.5186476,80.3813636 93.1934667,80.1854242 C92.8479619,79.9765455 92.3361714,79.913697 91.9223048,79.9728485 C89.3042286,80.3462424 86.6861524,80.7251818 84.0902476,81.2242727 C83.6320381,81.313 83.0204762,81.9359394 82.9613524,82.3740303 C82.9133143,82.7418788 83.4971619,83.3463333 83.9405905,83.5829394 C84.5447619,83.9064242 85.2838095,83.9822121 86.0949143,84.1984848 C85.9526476,87.2318485 87.6653905,90.0489394 86.2630476,92.8845152 C85.1193714,93.6553333 82.8541905,93.1192727 83.6154095,95.8642727 L83.6154095,95.8642727 Z M80.5003238,54.2419394 C76.0272381,55.0146061 71.8368381,55.5931818 67.7129524,56.5858182 C67.4468952,56.6486667 67.1254095,56.8446061 67.0034667,57.0719697 C66.8131619,57.4231818 66.613619,57.9000909 66.7096952,58.2420606 C66.8057714,58.5914242 67.2528952,59.0960606 67.5485143,59.0979091 C68.9767238,59.1071515 70.406781,58.9703636 71.9606286,58.8760909 C72.332,60.1940606 72.5777333,61.3419697 72.9786667,62.4325758 C73.6770667,64.3291212 74.0761524,66.0463636 71.8091238,67.2645152 C71.2640762,67.5565758 71.6132762,69.0113333 72.2026667,69.1222424 C74.8022667,69.6157879 77.4369714,70.024303 80.038419,69.3126364 C81.0601524,69.0335152 81.8158286,68.2238788 81.231981,66.8190303 C79.7354095,66.7321515 78.1834095,66.6434242 76.5039238,66.5454545 C76.0937524,63.6082121 75.0738667,61.0203333 75.062781,58.0424242 C76.4521905,57.8021212 77.5995619,57.6616364 78.719219,57.3954545 C80.0236381,57.0830606 80.7035619,56.2401515 80.5003238,54.2419394 L80.5003238,54.2419394 Z M154.0836,40.5354242 C155.362152,40.995697 156.104895,40.4799697 156.14,39.463303 C156.17141,38.6407273 155.881333,37.6665758 155.404648,36.9918788 C154.155657,35.2210303 152.727448,33.5777273 151.147733,31.6053939 C151.393467,31.1210909 151.772229,30.3521212 152.171314,29.5942424 C152.720057,28.5572424 153.3852,27.5646061 153.791676,26.4758485 C153.924705,26.1190909 153.521924,25.2613939 153.157943,25.1005758 C152.762552,24.9249697 152.053067,25.1819091 151.618876,25.4610303 C151.301086,25.6662121 151.216095,26.2207576 151.009162,26.6089394 C150.264571,28.0119394 149.51259,29.4093939 148.62019,31.0785758 C148.056667,29.7901818 147.698229,28.8308182 147.227086,27.9287576 C146.755943,27.0285455 146.162857,27.080303 145.017333,27.9010303 C145.1984,29.9121818 145.447829,31.7791515 145.51619,33.6553636 C145.5864,35.5740909 145.887562,37.3671212 146.864952,38.8144848 C149.499657,39.0011818 148.718114,36.0990606 150.410533,35.6905455 C153.205981,36.1378788 153.076648,38.8865758 154.0836,40.5354242 L154.0836,40.5354242 Z M126.088476,81.1170606 C125.626571,80.4109394 125.561905,80.2852424 125.471371,80.1798788 C124.614076,79.1798485 123.483333,78.9802121 122.273143,79.1872424 C120.432914,79.5014848 118.446724,79.0578485 116.761695,80.2076061 C116.309029,80.5181515 116.279467,81.4793636 116.774629,81.7122727 C117.676267,82.1355758 118.624095,82.4627576 119.579314,82.8398485 C119.721581,83.2779394 119.926667,83.6827576 119.974705,84.1042121 C120.237067,86.3519697 121.199676,88.6792121 119.074914,90.6478485 C118.635181,91.0545152 119.316952,92.0859697 120.096648,92.2504848 C123.505505,92.9695455 126.788724,92.2264545 130.036838,91.2929697 C130.319524,91.2116364 130.69459,90.4796364 130.591124,90.2263939 C130.398971,89.7531818 129.909352,89.0988182 129.504724,89.0710909 C128.50701,88.999 127.490819,89.3058485 126.478324,89.3354242 C125.499086,89.3631515 124.514305,89.2337576 123.365086,89.1616667 C123.058381,87.0728788 122.749829,85.2040606 122.537352,83.326 C122.49301,82.9489091 122.814495,82.5311515 122.947524,82.1836364 C123.941543,81.8453636 124.850571,81.5366667 126.088476,81.1170606 L126.088476,81.1170606 Z M54.4064,35.9197576 C54.1311048,35.3060606 53.8724381,34.9234242 53.7985333,34.5075152 C53.7264762,34.1100909 53.8465714,33.6775455 53.902,33.0361212 C55.0770857,32.8882424 56.2281524,32.8106061 57.340419,32.5610606 C57.6249524,32.4982121 57.9593714,31.8974545 57.9630667,31.540697 C57.9667619,31.1802424 57.6452762,30.557303 57.3681333,30.4981515 C55.5094286,30.0896364 53.6174667,29.7587576 51.9102667,30.9658182 C49.8095238,35.193303 52.3536952,38.9937879 52.5717143,42.8478788 C54.9496,44.6002424 57.3662857,44.892303 59.8993714,44.2730606 C60.3428,44.1658485 60.910019,43.5040909 60.9358857,43.069697 C60.9562095,42.7166364 60.3058476,42.086303 59.862419,41.9883333 C58.8720952,41.7720606 57.8078667,41.8996061 56.8027619,41.7184545 C55.7034286,41.5206667 54.9699238,40.8459697 54.9514476,39.6241212 C55.0364381,39.4947273 55.090019,39.3061818 55.2045714,39.2581212 C56.5348571,38.6998788 57.8725333,38.1619697 59.2046667,37.6203636 C59.193581,36.1212424 58.999581,35.6628182 58.2605333,35.6776061 C57.0946857,35.7034848 55.9306857,35.8180909 54.4064,35.9197576 L54.4064,35.9197576 Z M71.5430667,91.2319697 C72.928781,90.6219697 74.102019,90.0526364 75.3122095,89.5794242 C77.5810857,88.6884545 78.477181,85.7475152 77.9395238,83.5940303 C77.749219,82.8250606 77.1136381,81.8472121 76.4355619,81.5773333 C73.8858476,80.5643636 71.2585333,80.3721212 68.8917333,82.1337273 C68.544381,82.3906667 68.5425333,83.1097273 68.3799429,83.6162121 C68.8954286,83.7677879 69.4201524,84.0746364 69.9227048,84.0432121 C71.3730857,83.9489394 72.812381,83.6402424 74.2627619,83.5718485 C75.0738667,83.5311818 75.7279238,84.1984848 75.6946667,84.9471212 C75.6669524,85.5940909 75.2826476,86.4259091 74.7782476,86.8085455 C73.6844571,87.6403636 72.2858095,87.4684545 71.2677714,86.3612121 C70.7190286,85.762303 70.3421143,85.2724545 69.3111429,85.7197879 C68.8658667,88.9768182 69.1152952,92.3429091 69.3074476,95.7016061 C69.3259238,96.010303 69.8876,96.5389697 70.1721333,96.5241818 C70.687619,96.4964545 71.2733143,96.2302727 71.6594667,95.8790606 C71.9162857,95.6424545 71.9828,95.0768182 71.9532381,94.672 C71.8664,93.5222424 71.687181,92.3817273 71.5430667,91.2319697 L71.5430667,91.2319697 Z M136.904438,63.1239091 C137.503067,64.2477879 138.282762,64.3660909 139.093867,63.7098788 C139.651848,63.2588485 140.002895,62.5582727 140.536857,62.0684242 C141.340571,61.3290303 142.266229,61.0221818 143.275029,61.671 C144.80301,66.0408182 144.88061,66.1166061 147.190133,65.3938485 C146.857562,63.8725455 146.3624,62.3493939 146.225676,60.7948182 C146.037219,58.6283939 146.16101,56.4342424 146.05939,54.2567273 C146.011352,53.2511515 145.776705,52.2492727 145.55499,51.2621818 C145.505105,51.0385152 145.150362,50.7279697 144.941581,50.7316667 C144.53141,50.7390606 143.92539,50.813 143.75541,51.0828788 C143.13461,52.0662727 142.702267,53.1661212 142.122114,54.1790909 C140.389048,57.1921212 138.620876,60.1866667 136.904438,63.1239091 L136.904438,63.1239091 Z M135.764457,36.2654242 C134.938571,36.7109091 134.277124,36.9974242 133.702514,37.4059394 C133.392114,37.6277576 132.961619,38.2100303 133.050305,38.365303 C133.305276,38.8126364 133.75979,39.3856667 134.201371,39.4503636 C137.336781,39.9050909 140.183962,38.6351818 143.138305,38.0307273 C142.765086,35.6628182 142.718895,35.5888788 141.281448,35.7108788 C140.448171,35.7811212 139.625981,35.9456364 138.589467,36.0990606 C138.266133,34.1840303 137.218533,32.6701212 137.691524,30.8586061 C139.014419,30.3595152 140.272648,29.9861212 141.416324,29.3890606 C141.748895,29.215303 141.990933,28.3113939 141.833886,27.9176667 C141.676838,27.5220909 140.919314,27.0562727 140.509143,27.1246667 C137.91139,27.5590606 135.328419,28.0988182 132.758381,28.6847879 C132.071067,28.8419091 131.428095,29.2504242 130.814686,29.6256667 C130.620686,29.7421212 130.44701,30.1783636 130.517219,30.3798485 C130.650248,30.7569394 130.940324,31.3355152 131.210076,31.3613939 C132.320495,31.4741515 133.447543,31.4094545 134.80739,31.4094545 C135.134419,33.0693939 135.439276,34.6147273 135.764457,36.2654242 L135.764457,36.2654242 Z M30.8252381,70.1278182 C29.4543048,70.2793939 28.8686095,70.3884545 28.2810667,70.4013939 C26.6662476,70.4383636 25.7036381,69.6435152 25.6833143,68.0575152 C25.6482095,65.1332121 26.1341333,62.4362727 29.4081143,61.2939091 C30.2672571,60.9944545 30.4150667,60.264303 30.2173714,59.5008788 C29.9679429,58.5285758 29.2288952,58.0054545 28.2607429,58.0738485 C27.7175429,58.1108182 27.0542476,58.3566667 26.6865714,58.739303 C24.1460952,61.3807879 22.614419,64.5065758 22.6181143,68.2349697 C22.6199619,70.6047273 24.001981,72.5992424 26.261619,73.2462121 C28.463981,73.8765455 30.6552571,73.5807879 32.5675429,72.1962727 C32.8557714,71.9873939 33.129219,71.305303 32.9980381,71.068697 C32.7633905,70.641697 32.2608381,70.2239394 31.7915429,70.1019394 C31.2520381,69.9596061 30.6275429,70.1426061 30.8252381,70.1278182 L30.8252381,70.1278182 Z M93.6442857,65.9280606 C92.7796,67.0630303 91.9851238,67.3495455 90.8063429,66.8929697 C88.7573333,66.0962727 88.0921905,66.2607879 87.876019,67.2201515 C87.5582286,68.6434848 88.7795048,68.9983939 89.6109333,69.4198485 C90.3333524,69.7858485 91.3162857,69.9725455 92.095981,69.8098788 C93.2267238,69.5732727 94.3186667,69.0279697 95.3514857,68.4752727 C96.6041714,67.8024242 97.0753143,66.2312121 96.3270286,65.0722121 C95.7764381,64.2219091 95.0484762,63.4381515 94.254,62.8096667 C93.453981,62.1774848 92.4322476,61.8373636 91.5860381,61.2569394 C90.8377524,60.7412121 90.2391238,60.0591212 90.9375238,59.0258182 C92.0257714,58.6893939 93.1565143,58.4010303 94.2262857,57.9629394 C94.4757143,57.8612727 94.6013524,57.2568182 94.6216762,56.8760303 C94.6327619,56.6616061 94.3500762,56.303 94.1283619,56.2290606 C91.9204571,55.5007576 89.0492571,56.5839697 87.9628571,58.5137879 C87.1924,59.8816667 87.464,61.4436364 88.8016762,62.4344242 C89.7402667,63.131303 90.854381,63.5915758 91.8169905,64.2588788 C92.493219,64.7283939 93.0456571,65.3716667 93.6442857,65.9280606 L93.6442857,65.9280606 Z M143.635314,78.1927576 L132.405486,78.1927576 C132.111714,78.1927576 131.816095,78.1816667 131.522324,78.2093939 C130.591124,78.2999697 129.955543,79.0301212 130.003581,80.0227576 C130.042381,80.8527273 130.483962,81.3610606 131.348648,81.4534848 C132.181924,81.5440606 133.011505,81.6568182 134.0628,81.7862121 C134.323314,83.5995758 134.491448,85.1874242 134.798152,86.7475455 C134.990305,87.7346364 135.289619,88.7254242 135.721962,89.6274848 C136.069314,90.3557879 136.889657,90.6607879 137.575124,90.1764848 C137.939105,89.9195455 138.262438,89.0821818 138.110933,88.6995455 C137.187124,86.3612121 136.884114,83.9618788 136.873029,81.2446061 C138.813029,81.1466364 140.570114,81.1226061 142.308724,80.9266667 C142.781714,80.8730606 143.354476,80.3758182 143.589124,79.9303333 C143.807143,79.5181212 143.635314,78.9007273 143.635314,78.1927576 L143.635314,78.1927576 Z M152.712667,55.5525152 C153.3852,55.1994545 153.989371,54.7927879 154.654514,54.5561818 C155.393562,54.2918485 156.040229,54.0182727 156.005124,53.1032727 C155.975562,52.334303 155.035124,51.8925152 153.9284,52.1198788 C153.351943,52.2400303 152.738533,52.3084242 152.2212,52.5616667 C149.865486,53.7169697 149.196648,57.0183636 150.957429,58.9038182 C151.653981,59.6487576 152.548229,60.207 153.303905,60.9020303 C154.883619,62.3530909 154.578762,64.2477879 152.590724,65.1258182 C151.43781,65.636 150.216533,65.9909091 148.804952,66.4955455 C149.379562,67.8763636 149.641924,69.0057879 151.068286,69.2257576 C152.197181,68.5048485 153.313143,67.7950303 154.427257,67.0815152 C157.701238,64.9871818 157.969143,61.1977879 155.003714,58.6653636 C154.137181,57.9259697 152.875257,57.5507273 152.712667,55.5525152 L152.712667,55.5525152 Z M103.296248,58.4509394 C103.582629,60.6839091 103.771086,62.5730606 104.088876,64.4400303 C104.207124,65.1332121 104.547086,65.8282424 104.948019,66.4123636 C105.151257,66.7118182 105.807162,66.9983333 106.086152,66.8800303 C106.573924,66.673 107.194724,66.1997879 107.277867,65.7487576 C107.39981,65.0888485 107.215048,64.3013939 106.954533,63.6525758 C106.209943,61.8003939 106.285695,59.9445152 106.518495,58.0220909 C107.664019,57.7226364 108.71901,57.6154242 109.592933,57.160697 C110.136133,56.8760303 110.585105,56.1089091 110.742152,55.4767273 C110.904743,54.8223636 109.707486,54.1532121 108.722705,54.2530303 C108.286667,54.2973939 107.859867,54.415697 107.425676,54.4877879 C105.833029,54.7521212 104.240381,55.018303 102.645886,55.2678485 C101.923467,55.3787576 101.138229,55.3177576 100.49341,55.5931818 C100.04259,55.7854242 99.584381,56.3769394 99.4809143,56.8630909 C99.3053905,57.6893636 99.9095619,58.2697879 100.674476,58.4213636 C101.359943,58.5581515 102.095295,58.4509394 103.296248,58.4509394 L103.296248,58.4509394 Z M119.7068,39.409697 C119.7068,37.8070606 119.717886,36.7996364 119.704952,35.7903636 C119.679086,33.7274545 119.703105,31.662697 119.555295,29.6090303 C119.525733,29.2042121 118.827333,28.5609394 118.424552,28.551697 C118.00699,28.5424545 117.238381,29.1395152 117.205124,29.5221515 C116.911352,32.8863939 116.717352,36.2598788 116.560305,39.6333636 C116.503029,40.8718485 117.467486,42.0382424 118.696152,42.0086667 C121.035238,41.9513636 123.381714,41.7424848 125.702324,41.4263939 C126.421048,41.3284242 126.960552,40.5317273 126.579943,39.7202424 C126.367467,39.2692121 125.824267,38.8126364 125.345733,38.6924848 C124.822857,38.5593939 124.205752,38.8200303 123.627448,38.8995152 C122.480076,39.0529394 121.332705,39.1989697 119.7068,39.409697 L119.7068,39.409697 Z M92.9994667,32.3484848 C94.045219,31.8900606 94.4165905,31.5887576 94.7861143,31.5906061 C95.6840571,31.594303 96.2328,31.1562121 96.295619,30.3539697 C96.334419,29.8437879 96.1256381,29.1561515 95.7727429,28.8049394 C95.03,28.0692424 94.1560762,28.3502121 93.3745333,28.8955152 C91.8539429,29.954697 91.0058857,31.4242424 90.6899429,32.8069091 C91.5804952,36.2598788 96.2420381,35.7589394 96.5247238,39.5742121 C95.7579619,39.707303 95.0078286,39.6906667 94.4184381,39.9882727 C93.9842476,40.2082424 93.4946286,40.8515152 93.5112571,41.2877576 C93.5297333,41.7461818 94.0341333,42.3413939 94.4831048,42.5853939 C94.9505524,42.8386364 95.6581905,42.9162727 96.1736762,42.7683939 C99.205619,41.8996061 100.094324,39.6795758 98.4166857,37.0159091 C97.808819,36.0491515 96.9219619,35.2321212 96.0572762,34.465 C95.3145333,33.8087879 94.4221333,33.3189394 92.9994667,32.3484848 L92.9994667,32.3484848 Z M81.2670857,28.1967879 C80.0217905,27.8880909 79.3880571,28.4629697 79.223619,29.4260303 C78.9021333,31.3114848 78.6545524,33.2117273 78.4790286,35.1156667 C77.8508381,41.9569091 77.7621524,41.5927576 84.6981143,42.7277273 C84.8422286,42.7499091 84.995581,42.7702424 85.1378476,42.7480606 C86.3554286,42.5650606 86.9873143,41.9458182 86.6233333,40.3653636 C84.8477714,39.8311515 82.9410286,39.2581212 80.9492952,38.6592121 C80.3691429,35.0472727 82.3904381,31.6072424 81.2670857,28.1967879 L81.2670857,28.1967879 Z M74.2683048,41.4079091 C74.5177333,39.9402121 74.0262667,39.1065455 72.705219,39.2100606 C71.269619,39.3228182 69.8543429,39.6888182 68.4963429,39.9328182 C67.5466667,38.6998788 67.6926286,37.5630606 67.8441333,36.3726364 C68.0658476,34.6184242 68.2192,32.8494242 68.2413714,31.0841212 C68.2469143,30.7162727 67.6057905,30.2227273 67.156819,30.0212424 C66.9739048,29.9380606 66.2976762,30.4186667 66.2108381,30.7421515 C65.2704,34.2006667 65.1447619,37.7294242 65.5881905,41.2692727 C65.711981,42.2637576 66.5692762,42.7203333 67.5392762,42.7240303 C69.8986857,42.7314242 72.1823429,42.3487879 74.2683048,41.4079091 L74.2683048,41.4079091 Z" id="Fill-2"></path>
                    <path d="M40.2628762,34.3596364 C41.3640571,32.814303 42.1659238,31.6867273 42.8809524,30.6848485 C44.5493524,30.6238485 45.3068762,31.5018788 45.8574667,32.5906364 C46.6815048,34.2191515 46.8828952,35.9807576 46.6907429,37.7700909 C46.4893524,39.6647879 46.079181,41.5317576 46.6981333,43.4504848 C46.8293143,43.855303 46.3674095,44.5355455 46.0385333,44.9828788 C45.6246667,45.5448182 44.2999238,45.3377879 44.1946095,44.6945152 C44.0098476,43.5558485 43.9137714,42.3876061 43.9267048,41.232303 C43.9414857,39.9106364 44.1576571,38.5926667 44.2001524,37.2691515 C44.2204762,36.6942727 44.0283238,36.1138485 43.9414857,35.5907273 C42.8938857,35.014 42.6112,35.8439697 42.1899429,36.3855758 C40.7598857,38.2266667 40.7617333,38.2285152 38.2859238,37.9235152 C37.155181,39.1324242 37.513619,40.7036364 37.2992952,42.1288182 C37.1459429,43.1436364 37.2364762,44.2083636 36.9722667,45.1862121 C36.8688,45.5725455 36.0909524,46.0143333 35.6382857,45.9958485 C35.2502857,45.9792121 34.5315619,45.2971212 34.5703619,44.9828788 C35.1228,40.3062121 35.7362095,35.6350909 36.4715619,30.984303 C36.5510095,30.4870606 37.4877524,29.7901818 38.0254095,29.7920303 C38.5796952,29.7920303 39.3834095,30.4223636 39.6272952,30.9769091 C40.0079048,31.8438485 40.0116,32.879 40.2628762,34.3596364" id="Fill-3" fill="#000000"></path>
                    <path d="M26.0620762,29.7384242 C25.0625143,30.7310606 24.5673524,31.411303 23.9059048,31.8161212 C23.4532381,32.0915455 22.6088762,31.7791515 22.2208762,32.086 C21.5834476,32.5887879 20.9349333,33.3244848 20.7668,34.0712727 C20.6707238,34.4982727 21.3986857,35.3615152 21.9492762,35.6350909 C23.1243619,36.2192121 24.4213905,36.5556364 25.6759238,36.9752424 C28.3679048,37.877303 29.4949524,40.0936364 30.1453143,42.5650606 C30.7014476,44.6834242 29.598419,46.5688788 27.9614286,47.4875758 C26.3872571,48.369303 24.3253143,48.5726364 22.4573714,48.6798485 C20.6596381,48.7833636 19.0078667,48.0753939 18.0452571,46.3359697 C19.8263619,44.6778788 19.9261333,44.5392424 21.1769714,45.445 C21.9585143,46.0124848 22.653219,46.3359697 23.5659429,46.2435455 C25.5724571,46.0420606 26.9230667,45.0679091 27.2482476,43.6094545 C27.5568,42.2230909 26.6514667,40.9162121 24.6597333,40.0012121 C22.7880952,39.1416667 20.8832,38.3542121 19.0023238,37.515 C17.8992952,37.023303 17.5778095,36.0972121 17.7274667,34.9696364 C17.7847429,34.5333939 17.9029905,34.1045455 18.0101524,33.6775455 C19.176,29.036 20.2790286,28.4093636 26.0620762,29.7384242" id="Fill-4" fill="#000000"></path>
                    <path d="M104.188648,90.6182727 C104.948019,92.289303 104.539695,93.4593939 103.571543,94.4150606 C103.312876,94.6701515 102.736419,94.8217273 102.39461,94.7200606 C102.04541,94.614697 101.598286,94.1692121 101.553943,93.8253939 C101.402438,92.6682424 101.432,91.4870606 101.350705,90.3188182 C101.219524,88.4111818 101.053238,86.5053939 100.903581,84.5977576 C100.716971,82.231697 101.626,80.7492121 103.832057,79.8120303 C105.762819,78.991303 107.599352,79.4035152 109.012781,81.0227879 C109.397086,81.4627273 109.718571,81.9655152 110.004952,82.475697 C111.16341,84.5256667 111.048857,85.2502727 109.264057,87.0710303 C108.964743,87.3760303 108.56381,87.5812121 107.91899,88.0396364 C109.22341,89.2078788 110.291333,90.1284242 111.313067,91.0951818 C111.728781,91.4870606 112.214705,91.930697 112.362514,92.4408788 C112.504781,92.9288788 112.425333,93.6608788 112.135257,94.058303 C111.665962,94.6960303 110.836381,94.8180303 110.16939,94.3244848 C109.594781,93.9011818 109.147657,93.2985758 108.667276,92.7551212 C107.664019,91.6201515 106.518495,90.7624545 104.188648,90.6182727 L104.188648,90.6182727 Z M103.608495,87.3464545 C105.258419,86.6680606 106.215486,86.3741515 107.070933,85.8972424 C108.258952,85.2373333 108.321771,83.9766667 107.314819,83.0524242 C105.997467,81.8435152 103.979867,82.2224545 103.49579,83.9064242 C103.251905,84.7622727 103.53459,85.766 103.608495,87.3464545 L103.608495,87.3464545 Z" id="Fill-5" fill="#000000"></path>
                    <path d="M129.80219,57.4860303 C127.797524,59.5249091 127.365181,61.7560303 125.685695,62.8780606 C122.906876,62.7283333 123.590495,59.8650303 121.892533,58.5230303 C121.388133,60.1053333 120.976114,61.5767273 120.440305,63.0019091 C120.135448,63.8133939 119.664305,64.5731212 119.196857,65.3088182 C118.871676,65.8208485 118.361733,65.7690909 116.935371,65.2256364 C117.910914,61.8872727 119.730819,58.8224848 120.115124,55.2844848 C120.198267,54.5192121 120.538229,54.4138485 122.85699,53.5117879 C124.918933,54.4101515 124.689829,56.6357273 125.451048,58.2217273 C126.52821,58.1847576 126.635371,57.3455455 127.019676,56.7577273 C127.581352,55.9018788 128.122705,55.018303 128.791543,54.2511818 C129.591562,53.3343333 130.794362,53.4785152 131.368971,54.4859394 C131.6572,54.9924242 131.956514,55.5210909 132.096933,56.0774848 C132.63459,58.2161818 133.137143,60.3641212 133.584267,62.5231515 C133.665562,62.9131818 133.560248,63.4917576 133.305276,63.7616364 C132.939448,64.1461212 132.377771,64.4622121 131.862286,64.5361515 C131.58699,64.5768182 131.077048,64.1054545 130.942171,63.7597879 C130.681657,63.0887879 130.591124,62.3475455 130.465486,61.6303333 C130.271486,60.508303 130.103352,59.3807273 129.80219,57.4860303" id="Fill-6" fill="#000000"></path>
                    <path d="M47.4926095,67.0408485 C46.9290857,66.917 46.5133714,66.7580303 46.0939619,66.7469394 C44.7821524,66.7118182 43.4684952,66.734 41.8610667,66.734 C42.0550667,67.4807879 42.0735429,68.2146364 42.4153524,68.7377576 C43.3317714,70.146303 42.7756381,71.2886667 41.8629143,72.3145758 C41.5432762,72.6750303 40.8153143,72.952303 40.3700381,72.8469394 C39.9062857,72.7397273 39.3981905,72.1907273 39.2078857,71.7156667 C39.0009524,71.2054848 39.1321333,70.5566667 39.1302857,69.967 C39.1192,67.0242121 39.1007238,64.0814242 39.1118095,61.1386364 C39.1173524,59.8465455 39.444381,59.6321212 41.733581,59.414 C41.8573714,60.817 41.9811619,62.223697 42.1141905,63.741303 C43.6754286,63.928 45.2385143,64.3827273 46.9641905,63.6156061 C46.7313905,61.9815455 46.4727238,60.4084848 46.2953524,58.8261818 C46.2029714,58.007303 46.6242286,57.2845455 47.4279429,57.2290909 C47.7900762,57.2050606 48.3887048,57.8557273 48.5605333,58.319697 C49.221981,60.1016364 49.8760381,61.9039091 50.2991429,63.7542424 C50.7148571,65.5768485 50.9439619,67.4586061 51.054819,69.3274242 C51.0917714,69.9392727 50.5966095,70.6620303 50.1753524,71.1999394 C49.7633333,71.7267576 48.4792381,71.4402424 48.2963238,70.8191515 C48.0930857,70.1315152 48.0487429,69.3976667 47.9046286,68.6915455 C47.7919238,68.1388485 47.6330286,67.5953939 47.4926095,67.0408485" id="Fill-7" fill="#000000"></path>
                    <path d="M49.7559429,99.0196364 C50.022,98.0806061 50.2455619,97.2931515 50.5467238,96.2284242 C51.4317333,96.4668788 52.0968762,96.6461818 52.7638667,96.8236364 C53.615619,97.0528485 54.4544381,97.3763333 55.3209714,97.4835455 C56.5385524,97.6332727 57.8688381,96.8125455 58.1977143,95.8679697 C58.5635429,94.8124848 58.1312,93.6405455 56.9006857,92.8937576 C55.2692381,91.9029697 53.5491048,91.0545152 51.8917905,90.100697 C50.5578095,89.3335758 49.4806476,88.3409394 49.6691048,86.6070606 C49.8668,84.7770606 50.3434857,83.0468788 52.35,82.4239394 C53.7283238,81.9969394 55.1620762,81.6956364 56.5921333,81.5274242 C56.9062286,81.4904545 57.4364952,82.2169091 57.6249524,82.6882727 C57.7210286,82.9267273 57.3515048,83.5847879 57.0558857,83.7012424 C55.9676381,84.1282424 54.7870095,84.3241818 53.7172381,84.7807576 C53.266419,84.973 52.7490857,85.5885455 52.7213714,86.0395758 C52.6918095,86.5127879 53.0982857,87.1745455 53.5158476,87.477697 C54.3417333,88.0784545 55.3117333,88.4777273 56.2096762,88.9805152 C57.1094667,89.4814545 58.0517524,89.9306364 58.8776381,90.5350909 C60.9672952,92.0674848 61.8116571,94.733 60.8878476,97.1970303 C60.6014667,97.9604545 59.9233905,98.6887576 59.2379238,99.1675152 C57.7358095,100.219303 55.9787238,100.570515 54.1736,100.215606 C52.7546286,99.9346364 51.3726095,99.4651212 49.7559429,99.0196364" id="Fill-8" fill="#000000"></path>
                    <path d="M60.5682095,62.7930303 C62.0684762,63.9150606 63.3267048,64.6840303 64.3595238,65.6859091 C65.0560762,66.3624545 65.6325333,67.3144242 65.8782667,68.2442121 C66.0168381,68.7673333 65.5383048,69.7100606 65.0486857,70.0834545 C64.3576762,70.6102727 63.7294857,70.0538788 63.2823619,69.3773333 C61.763619,67.0667273 61.754381,67.0722727 58.8240571,65.4197273 C58.6633143,66.2737273 58.6411429,67.1757879 58.2919429,67.9281212 C58.107181,68.3218485 57.3662857,68.5898788 56.8489524,68.6453333 C56.5570286,68.6767576 56.0286095,68.2164848 55.9177524,67.8763636 C55.6036571,66.9059091 55.4059619,65.8910909 55.2433714,64.8818182 C55.0567619,63.7228182 55.1897905,62.4566061 54.7629905,61.4103636 C54.2234857,60.088697 53.9481905,58.9112121 54.6890857,57.645 C55.5925714,56.0996667 56.6568,54.7428788 58.4342095,54.0792727 C60.2264,53.4119697 61.5751619,53.6559697 62.811219,55.025697 C64.091619,56.4471818 64.276381,58.2956667 63.151181,59.8650303 C62.4786476,60.8059091 61.6213524,61.613697 60.5682095,62.7930303 L60.5682095,62.7930303 Z M58.0794667,61.7449394 C59.3284571,60.5064545 60.318781,59.661697 61.1077143,58.6579697 C61.3534476,58.3455758 61.2407429,57.4398182 60.948819,57.099697 C60.6587429,56.7595758 59.853181,56.5451515 59.4208381,56.6948788 C57.4309524,57.3880606 56.9893714,58.7614848 58.0794667,61.7449394 L58.0794667,61.7449394 Z" id="Fill-9" fill="#000000"></path>
                    <path d="M168.644686,31.9473636 C166.614152,34.1063939 163.720781,33.8346667 161.871314,35.5519091 C161.444514,36.9364242 162.1152,37.8625152 163.366038,38.2044848 C164.470914,38.5057879 165.671867,38.5224242 166.832171,38.5261212 C168.301029,38.5335152 169.771733,38.3523636 171.238743,38.369 C171.547295,38.372697 172.025829,38.8385152 172.105276,39.1675455 C172.175486,39.4688485 171.863238,40.1453939 171.62859,40.1916061 C169.189733,40.6611212 166.736095,41.3469091 164.282457,41.358 C161.208019,41.3727879 159.131295,38.8218788 158.880019,35.9622727 C158.8172,35.2302727 158.835676,34.4890303 158.833829,33.7514848 C158.828286,31.8438485 158.831981,29.9362121 158.831981,27.938 C161.91381,26.4943333 164.491238,24.0450909 168.158762,25.0968788 C168.29179,26.4980303 167.390152,26.8344545 166.604914,27.1801212 C165.263543,27.7716364 163.844571,28.1986364 162.530914,28.8437576 C161.438971,29.3798182 161.317029,30.3909394 161.747524,31.6848788 C163.820552,32.3614242 165.985962,30.4334545 168.644686,31.9473636" id="Fill-10" fill="#000000"></path>
                    <path d="M83.6154095,95.8642727 C82.8541905,93.1192727 85.1193714,93.6553333 86.2630476,92.8845152 C87.6653905,90.0489394 85.9526476,87.2318485 86.0949143,84.1984848 C85.2838095,83.9822121 84.5447619,83.9064242 83.9405905,83.5829394 C83.4971619,83.3463333 82.9133143,82.7418788 82.9613524,82.3740303 C83.0204762,81.9359394 83.6320381,81.313 84.0902476,81.2242727 C86.6861524,80.7251818 89.3042286,80.3462424 91.9223048,79.9728485 C92.3361714,79.913697 92.8479619,79.9765455 93.1934667,80.1854242 C93.5186476,80.3813636 93.8567619,80.8360909 93.8696952,81.1891515 C93.880781,81.5366667 93.5648381,82.1115455 93.2636762,82.2150606 C92.1754286,82.5847576 91.0354476,82.7973333 89.7642857,83.1060303 C88.7721143,85.8639697 89.5665905,88.6256061 89.8049333,91.3502727 C89.845581,91.8068485 90.7989524,92.4519697 91.3920381,92.5296061 C92.3842095,92.659 93.4262667,92.3817273 94.4498476,92.3114848 C95.2794286,92.2541818 96.062819,92.6442121 96.0166286,93.4427576 C95.9815238,94.0139394 95.3440952,94.9326364 94.8452381,95.0306061 C91.1148952,95.7626061 87.3457524,96.1082727 83.6154095,95.8642727" id="Fill-11" fill="#000000"></path>
                    <path d="M80.5003238,54.2419394 C80.7035619,56.2401515 80.0236381,57.0830606 78.719219,57.3954545 C77.5995619,57.6616364 76.4521905,57.8021212 75.062781,58.0424242 C75.0738667,61.0203333 76.0937524,63.6082121 76.5039238,66.5454545 C78.1834095,66.6434242 79.7354095,66.7321515 81.231981,66.8190303 C81.8158286,68.2238788 81.0601524,69.0335152 80.038419,69.3126364 C77.4369714,70.024303 74.8022667,69.6157879 72.2026667,69.1222424 C71.6132762,69.0113333 71.2640762,67.5565758 71.8091238,67.2645152 C74.0761524,66.0463636 73.6770667,64.3291212 72.9786667,62.4325758 C72.5777333,61.3419697 72.332,60.1940606 71.9606286,58.8760909 C70.406781,58.9703636 68.9767238,59.1071515 67.5485143,59.0979091 C67.2528952,59.0960606 66.8057714,58.5914242 66.7096952,58.2420606 C66.613619,57.9000909 66.8131619,57.4231818 67.0034667,57.0719697 C67.1254095,56.8446061 67.4468952,56.6486667 67.7129524,56.5858182 C71.8368381,55.5931818 76.0272381,55.0146061 80.5003238,54.2419394" id="Fill-12" fill="#000000"></path>
                    <path d="M154.0836,40.5354242 C153.076648,38.8865758 153.205981,36.1378788 150.408686,35.6905455 C148.718114,36.0990606 149.499657,39.0011818 146.864952,38.8144848 C145.887562,37.3671212 145.5864,35.5740909 145.51619,33.6553636 C145.447829,31.7791515 145.1984,29.9121818 145.017333,27.9010303 C146.162857,27.080303 146.755943,27.0285455 147.227086,27.9287576 C147.698229,28.8308182 148.056667,29.7901818 148.62019,31.0785758 C149.51259,29.4093939 150.264571,28.0119394 151.009162,26.6089394 C151.216095,26.2207576 151.301086,25.6662121 151.618876,25.4610303 C152.053067,25.1819091 152.762552,24.9249697 153.157943,25.1005758 C153.521924,25.2613939 153.924705,26.1190909 153.791676,26.4758485 C153.3852,27.5646061 152.720057,28.5572424 152.171314,29.5942424 C151.772229,30.3521212 151.393467,31.1210909 151.147733,31.6053939 C152.727448,33.5777273 154.155657,35.2210303 155.404648,36.9918788 C155.881333,37.6665758 156.17141,38.6407273 156.14,39.463303 C156.104895,40.4799697 155.362152,40.995697 154.0836,40.5354242" id="Fill-13" fill="#000000"></path>
                    <path d="M126.088476,81.1170606 C124.850571,81.5366667 123.941543,81.8453636 122.947524,82.1836364 C122.814495,82.5311515 122.49301,82.9489091 122.537352,83.326 C122.749829,85.2040606 123.058381,87.0728788 123.365086,89.1616667 C124.514305,89.2337576 125.499086,89.3631515 126.478324,89.3354242 C127.490819,89.3058485 128.50701,88.999 129.504724,89.0710909 C129.909352,89.0988182 130.398971,89.7531818 130.591124,90.2263939 C130.69459,90.4796364 130.319524,91.2116364 130.036838,91.2929697 C126.788724,92.2264545 123.505505,92.9695455 120.096648,92.2504848 C119.316952,92.0859697 118.635181,91.0545152 119.074914,90.6478485 C121.199676,88.6792121 120.237067,86.3519697 119.974705,84.1042121 C119.926667,83.6827576 119.721581,83.2779394 119.579314,82.8398485 C118.624095,82.4627576 117.676267,82.1355758 116.774629,81.7122727 C116.279467,81.4793636 116.309029,80.5181515 116.761695,80.2076061 C118.446724,79.0578485 120.432914,79.5014848 122.273143,79.1872424 C123.483333,78.9802121 124.614076,79.1798485 125.471371,80.1798788 C125.561905,80.2852424 125.626571,80.4109394 126.088476,81.1170606" id="Fill-14" fill="#000000"></path>
                    <path d="M54.4064,35.9197576 C55.9306857,35.8180909 57.0946857,35.7034848 58.2605333,35.6776061 C58.999581,35.6628182 59.193581,36.1212424 59.2046667,37.6203636 C57.8725333,38.1619697 56.5348571,38.6998788 55.2045714,39.2581212 C55.090019,39.3061818 55.0364381,39.4947273 54.9514476,39.6241212 C54.9699238,40.8459697 55.7034286,41.5206667 56.8027619,41.7184545 C57.8078667,41.8996061 58.8720952,41.7720606 59.862419,41.9883333 C60.3058476,42.086303 60.9562095,42.7166364 60.9358857,43.069697 C60.910019,43.5040909 60.3428,44.1658485 59.8993714,44.2730606 C57.3662857,44.892303 54.9496,44.6002424 52.5717143,42.8478788 C52.3536952,38.9937879 49.8095238,35.193303 51.9102667,30.9658182 C53.6174667,29.7587576 55.5094286,30.0896364 57.3681333,30.4981515 C57.6452762,30.557303 57.9667619,31.1802424 57.9630667,31.540697 C57.9593714,31.8974545 57.6249524,32.4982121 57.340419,32.5610606 C56.2281524,32.8106061 55.0770857,32.8882424 53.902,33.0361212 C53.8465714,33.6775455 53.7264762,34.1100909 53.7985333,34.5075152 C53.8724381,34.9234242 54.1311048,35.3060606 54.4064,35.9197576" id="Fill-15" fill="#000000"></path>
                    <path d="M71.5430667,91.2319697 C71.687181,92.3817273 71.8664,93.5222424 71.9532381,94.672 C71.9828,95.0768182 71.9162857,95.6424545 71.6594667,95.8790606 C71.2733143,96.2302727 70.687619,96.4964545 70.1721333,96.5241818 C69.8876,96.5389697 69.3259238,96.010303 69.3074476,95.7016061 C69.1152952,92.3429091 68.8658667,88.9768182 69.3111429,85.7197879 C70.3421143,85.2724545 70.7190286,85.762303 71.2677714,86.3612121 C72.2858095,87.4684545 73.6844571,87.6403636 74.7782476,86.8085455 C75.2826476,86.4259091 75.6669524,85.5940909 75.6946667,84.9471212 C75.7279238,84.1984848 75.0738667,83.5311818 74.2627619,83.5718485 C72.812381,83.6402424 71.3730857,83.9489394 69.9227048,84.0432121 C69.4201524,84.0746364 68.8954286,83.7677879 68.3799429,83.6162121 C68.5425333,83.1097273 68.544381,82.3906667 68.8917333,82.1337273 C71.2585333,80.3721212 73.8858476,80.5643636 76.4355619,81.5773333 C77.1136381,81.8472121 77.749219,82.8250606 77.9395238,83.5940303 C78.477181,85.7475152 77.5810857,88.6884545 75.3122095,89.5794242 C74.102019,90.0526364 72.928781,90.6219697 71.5430667,91.2319697" id="Fill-16" fill="#000000"></path>
                    <path d="M136.904438,63.1239091 C138.620876,60.1866667 140.389048,57.1921212 142.122114,54.1790909 C142.702267,53.1661212 143.13461,52.0662727 143.75541,51.0828788 C143.92539,50.813 144.53141,50.7390606 144.941581,50.7316667 C145.150362,50.7279697 145.505105,51.0385152 145.55499,51.2621818 C145.776705,52.2492727 146.011352,53.2511515 146.05939,54.2567273 C146.16101,56.4342424 146.037219,58.6283939 146.225676,60.7948182 C146.3624,62.3493939 146.857562,63.8725455 147.190133,65.3938485 C144.88061,66.1166061 144.80301,66.0408182 143.275029,61.671 C142.266229,61.0221818 141.340571,61.3290303 140.536857,62.0684242 C140.002895,62.5582727 139.651848,63.2588485 139.093867,63.7098788 C138.282762,64.3660909 137.503067,64.2477879 136.904438,63.1239091" id="Fill-17" fill="#000000"></path>
                    <path d="M135.764457,36.2654242 C135.439276,34.6147273 135.134419,33.0693939 134.80739,31.4094545 C133.447543,31.4094545 132.320495,31.4741515 131.210076,31.3613939 C130.940324,31.3355152 130.650248,30.7569394 130.517219,30.3798485 C130.44701,30.1783636 130.620686,29.7421212 130.814686,29.6256667 C131.428095,29.2504242 132.071067,28.8419091 132.758381,28.6847879 C135.328419,28.0988182 137.91139,27.5590606 140.509143,27.1246667 C140.919314,27.0562727 141.676838,27.5220909 141.833886,27.9176667 C141.990933,28.3113939 141.748895,29.215303 141.416324,29.3890606 C140.272648,29.9861212 139.014419,30.3595152 137.691524,30.8586061 C137.218533,32.6701212 138.266133,34.1840303 138.589467,36.0990606 C139.625981,35.9456364 140.448171,35.7811212 141.281448,35.7108788 C142.718895,35.5888788 142.765086,35.6628182 143.138305,38.0307273 C140.183962,38.6351818 137.336781,39.9050909 134.201371,39.4503636 C133.75979,39.3856667 133.305276,38.8126364 133.050305,38.365303 C132.961619,38.2100303 133.392114,37.6277576 133.702514,37.4059394 C134.277124,36.9974242 134.938571,36.7109091 135.764457,36.2654242" id="Fill-18" fill="#000000"></path>
                    <path d="M30.8252381,70.1278182 C30.6275429,70.1426061 31.2520381,69.9596061 31.7915429,70.1019394 C32.2608381,70.2239394 32.7633905,70.641697 32.9980381,71.068697 C33.129219,71.305303 32.8557714,71.9873939 32.5675429,72.1962727 C30.6552571,73.5807879 28.463981,73.8765455 26.261619,73.2462121 C24.001981,72.5992424 22.6199619,70.6047273 22.6181143,68.2349697 C22.614419,64.5065758 24.1460952,61.3807879 26.6865714,58.739303 C27.0542476,58.3566667 27.7175429,58.1108182 28.2607429,58.0738485 C29.2288952,58.0054545 29.9679429,58.5285758 30.2173714,59.5008788 C30.4150667,60.264303 30.2672571,60.9944545 29.4081143,61.2939091 C26.1341333,62.4362727 25.6482095,65.1332121 25.6833143,68.0575152 C25.7036381,69.6435152 26.6662476,70.4383636 28.2810667,70.4013939 C28.8686095,70.3884545 29.4543048,70.2793939 30.8252381,70.1278182" id="Fill-19" fill="#000000"></path>
                    <path d="M93.6442857,65.9280606 C93.0456571,65.3716667 92.493219,64.7283939 91.8169905,64.2588788 C90.854381,63.5915758 89.7402667,63.131303 88.8016762,62.4344242 C87.464,61.4436364 87.1924,59.8816667 87.9628571,58.5137879 C89.0492571,56.5839697 91.9204571,55.5007576 94.1283619,56.2290606 C94.3500762,56.303 94.6327619,56.6616061 94.6216762,56.8760303 C94.6013524,57.2568182 94.4757143,57.8612727 94.2262857,57.9629394 C93.1565143,58.4010303 92.0257714,58.6893939 90.9375238,59.0258182 C90.2391238,60.0591212 90.8377524,60.7412121 91.5860381,61.2569394 C92.4322476,61.8373636 93.453981,62.1774848 94.254,62.8096667 C95.0484762,63.4381515 95.7764381,64.2219091 96.3270286,65.0722121 C97.0753143,66.2312121 96.6041714,67.8024242 95.3514857,68.4752727 C94.3186667,69.0279697 93.2267238,69.5732727 92.095981,69.8098788 C91.3162857,69.9725455 90.3333524,69.7858485 89.6109333,69.4198485 C88.7795048,68.9983939 87.5582286,68.6434848 87.876019,67.2201515 C88.0921905,66.2607879 88.7573333,66.0962727 90.8063429,66.8929697 C91.9851238,67.3495455 92.7796,67.0630303 93.6442857,65.9280606" id="Fill-20" fill="#000000"></path>
                    <path d="M143.635314,78.1927576 C143.635314,78.9007273 143.807143,79.5181212 143.589124,79.9303333 C143.354476,80.3758182 142.781714,80.8730606 142.308724,80.9266667 C140.570114,81.1226061 138.813029,81.1466364 136.873029,81.2446061 C136.884114,83.9618788 137.187124,86.3612121 138.110933,88.6995455 C138.262438,89.0821818 137.939105,89.9195455 137.575124,90.1764848 C136.889657,90.6607879 136.069314,90.3557879 135.721962,89.6274848 C135.289619,88.7254242 134.990305,87.7346364 134.798152,86.7475455 C134.491448,85.1874242 134.323314,83.5995758 134.0628,81.7862121 C133.011505,81.6568182 132.181924,81.5440606 131.348648,81.4534848 C130.483962,81.3610606 130.042381,80.8527273 130.003581,80.0227576 C129.955543,79.0301212 130.591124,78.2999697 131.522324,78.2093939 C131.816095,78.1816667 132.111714,78.1927576 132.405486,78.1927576 L143.635314,78.1927576" id="Fill-21" fill="#000000"></path>
                    <path d="M152.712667,55.5525152 C152.875257,57.5507273 154.137181,57.9259697 155.003714,58.6653636 C157.969143,61.1977879 157.701238,64.9871818 154.427257,67.0815152 C153.313143,67.7950303 152.197181,68.5048485 151.068286,69.2257576 C149.641924,69.0057879 149.379562,67.8763636 148.804952,66.4955455 C150.216533,65.9909091 151.43781,65.636 152.590724,65.1258182 C154.578762,64.2477879 154.883619,62.3530909 153.303905,60.9020303 C152.548229,60.207 151.653981,59.6487576 150.957429,58.9038182 C149.196648,57.0183636 149.865486,53.7169697 152.2212,52.5616667 C152.738533,52.3084242 153.351943,52.2400303 153.9284,52.1198788 C155.035124,51.8925152 155.975562,52.334303 156.005124,53.1032727 C156.040229,54.0182727 155.393562,54.2918485 154.654514,54.5561818 C153.989371,54.7927879 153.3852,55.1994545 152.712667,55.5525152" id="Fill-22" fill="#000000"></path>
                    <path d="M103.296248,58.4509394 C102.095295,58.4509394 101.359943,58.5581515 100.674476,58.4213636 C99.9095619,58.2697879 99.3053905,57.6893636 99.4809143,56.8630909 C99.584381,56.3769394 100.04259,55.7854242 100.49341,55.5931818 C101.138229,55.3177576 101.923467,55.3787576 102.645886,55.2678485 C104.240381,55.018303 105.833029,54.7521212 107.425676,54.4877879 C107.859867,54.415697 108.286667,54.2973939 108.722705,54.2530303 C109.707486,54.1532121 110.904743,54.8223636 110.742152,55.4767273 C110.585105,56.1089091 110.136133,56.8760303 109.592933,57.160697 C108.71901,57.6154242 107.664019,57.7226364 106.518495,58.0220909 C106.285695,59.9445152 106.209943,61.8003939 106.954533,63.6525758 C107.215048,64.3013939 107.39981,65.0888485 107.277867,65.7487576 C107.194724,66.1997879 106.573924,66.673 106.086152,66.8800303 C105.807162,66.9983333 105.151257,66.7118182 104.948019,66.4123636 C104.547086,65.8282424 104.207124,65.1332121 104.088876,64.4400303 C103.771086,62.5730606 103.582629,60.6839091 103.296248,58.4509394" id="Fill-23" fill="#000000"></path>
                    <path d="M119.7068,39.409697 C121.332705,39.1989697 122.480076,39.0529394 123.627448,38.8995152 C124.205752,38.8200303 124.822857,38.5593939 125.345733,38.6924848 C125.824267,38.8126364 126.367467,39.2692121 126.579943,39.7202424 C126.960552,40.5317273 126.421048,41.3284242 125.702324,41.4263939 C123.381714,41.7424848 121.035238,41.9513636 118.696152,42.0086667 C117.467486,42.0382424 116.503029,40.8718485 116.560305,39.6333636 C116.717352,36.2598788 116.911352,32.8863939 117.205124,29.5221515 C117.238381,29.1395152 118.00699,28.5424545 118.424552,28.551697 C118.827333,28.5609394 119.525733,29.2042121 119.555295,29.6090303 C119.703105,31.662697 119.679086,33.7274545 119.704952,35.7903636 C119.717886,36.7996364 119.7068,37.8070606 119.7068,39.409697" id="Fill-24" fill="#000000"></path>
                    <path d="M92.9994667,32.3484848 C94.4221333,33.3189394 95.3145333,33.8087879 96.0572762,34.465 C96.9219619,35.2321212 97.808819,36.0491515 98.4166857,37.0159091 C100.094324,39.6795758 99.205619,41.8996061 96.1736762,42.7683939 C95.6581905,42.9162727 94.9505524,42.8386364 94.4831048,42.5853939 C94.0341333,42.3413939 93.5297333,41.7461818 93.5112571,41.2877576 C93.4946286,40.8515152 93.9842476,40.2082424 94.4184381,39.9882727 C95.0078286,39.6906667 95.7579619,39.707303 96.5247238,39.5742121 C96.2420381,35.7589394 91.5804952,36.2598788 90.6899429,32.8069091 C91.0058857,31.4242424 91.8539429,29.954697 93.3745333,28.8955152 C94.1560762,28.3502121 95.03,28.0692424 95.7727429,28.8049394 C96.1256381,29.1561515 96.334419,29.8437879 96.295619,30.3539697 C96.2328,31.1562121 95.6840571,31.594303 94.7861143,31.5906061 C94.4165905,31.5887576 94.045219,31.8900606 92.9994667,32.3484848" id="Fill-25" fill="#000000"></path>
                    <path d="M81.2670857,28.1967879 C82.3904381,31.6072424 80.3691429,35.0472727 80.9492952,38.6592121 C82.9410286,39.2581212 84.8477714,39.8311515 86.6233333,40.3653636 C86.9873143,41.9458182 86.3554286,42.5650606 85.1378476,42.7480606 C84.995581,42.7702424 84.8422286,42.7499091 84.6981143,42.7277273 C77.7621524,41.5927576 77.8508381,41.9569091 78.4790286,35.1156667 C78.6545524,33.2117273 78.9021333,31.3114848 79.223619,29.4260303 C79.3880571,28.4629697 80.0217905,27.8880909 81.2670857,28.1967879" id="Fill-26" fill="#000000"></path>
                    <path d="M74.2683048,41.4079091 C72.1823429,42.3487879 69.8986857,42.7314242 67.5392762,42.7240303 C66.5692762,42.7203333 65.711981,42.2637576 65.5881905,41.2692727 C65.1447619,37.7294242 65.2704,34.2006667 66.2108381,30.7421515 C66.2976762,30.4186667 66.9739048,29.9380606 67.156819,30.0212424 C67.6057905,30.2227273 68.2469143,30.7162727 68.2413714,31.0841212 C68.2192,32.8494242 68.0658476,34.6184242 67.8441333,36.3726364 C67.6926286,37.5630606 67.5466667,38.6998788 68.4963429,39.9328182 C69.8543429,39.6888182 71.269619,39.3228182 72.705219,39.2100606 C74.0262667,39.1065455 74.5177333,39.9402121 74.2683048,41.4079091" id="Fill-27" fill="#000000"></path>
                    <path d="M103.608495,87.3464545 C103.53459,85.766 103.251905,84.7622727 103.49579,83.9064242 C103.979867,82.2224545 105.997467,81.8435152 107.314819,83.0524242 C108.321771,83.9766667 108.258952,85.2373333 107.070933,85.8972424 C106.215486,86.3741515 105.258419,86.6680606 103.608495,87.3464545" id="Fill-28"></path>
                    <path d="M58.0794667,61.7449394 C56.9893714,58.7614848 57.4309524,57.3880606 59.4208381,56.6948788 C59.853181,56.5451515 60.6587429,56.7595758 60.948819,57.099697 C61.2407429,57.4398182 61.3534476,58.3455758 61.1077143,58.6579697 C60.318781,59.661697 59.3284571,60.5064545 58.0794667,61.7449394" id="Fill-29"></path>
                </g>
            </g>
        </g>
    </g>
</svg>