<svg width="148" height="66" viewBox="0 0 148 66" xmlns="http://www.w3.org/2000/svg" xmlns:sketch="http://www.bohemiancoding.com/sketch/ns"><title>toolbar</title><desc>Created with Sketch.</desc><g sketch:type="MSPage" fill="#000"><g sketch:type="MSLayerGroup"><path d="M145.353 64.333l-.77.354c-.095.044-.193.138-.28.13-.87-.086-1.736-.211-2.607-.279-.407-.031-.861-.053-1.227.076-.824.29-1.57.597-2.545.465-1.1-.15-2.243-.016-3.368-.011-.659.004-1.324.037-1.979-.016-1.968-.161-3.932-.359-5.898-.536-.396-.036-.8-.016-1.192-.07-1.512-.213-3.017-.466-4.531-.664-.777-.101-1.568-.111-2.351-.172-1.3-.102-2.596-.23-3.897-.315-.846-.055-1.756-.239-2.532-.04-1.746.447-3.384-.138-5.071-.22-.827-.04-1.657-.029-2.485-.029-.914 0-1.828.017-2.742.021-.564.002-1.128-.025-1.691-.01-2.176.056-4.362.02-6.521.212-3.321.294-6.623.657-9.982.385-1.865-.151-3.744-.115-5.616-.194-2.003-.084-4.008-.162-6.006-.318-3.252-.253-6.497-.596-9.749-.843-1.085-.084-2.219.168-3.268-.027-1.064-.198-2.106-.068-3.155-.187-1.617-.183-3.249-.251-4.871-.393-1.867-.162-3.685.179-5.521.342l-4.202.359c-1.249.11-2.495.242-3.745.344-1.146.094-2.3.275-3.44.217-1.822-.092-3.577.245-5.362.391-1.211.1-2.436.093-3.654.102-1.998.014-3.991-.373-6.003.019-.689.134-1.477-.124-2.22-.198-.808-.08-1.618-.146-2.425-.232-1.348-.144-2.72-.198-4.034-.478-1.469-.313-2.593-1.076-3.513-2.285-.858-1.127-.928-2.284-1.09-3.502-.098-.733-.157-1.506-.463-2.175-.466-1.017-.097-2.009-.164-3.008-.071-1.059-.058-2.123-.016-3.182.025-.647.183-1.287.259-1.932.042-.36.038-.724.053-1.087.094-2.123.19-4.245.276-6.37.015-.38.012-.764-.03-1.143-.016-.138-.171-.265-.26-.392.074-.12.293-.316.302-.521.077-1.799-.035-3.619.204-5.397.301-2.233-.052-4.449.023-6.671.027-.816-.22-1.639-.245-2.461-.037-1.191.032-2.383.024-3.576-.006-.993-.031-1.987-.108-2.978-.026-.335-.255-.656-.357-.992-.088-.293-.173-.599-.18-.9-.026-.967-.045-1.936-.009-2.901.021-.561.169-1.116.237-1.677.238-1.952.464-3.906.704-5.858.016-.131.075-.313.181-.37 1.065-.577 2.217-.907 3.47-.976 1.174-.065 2.347-.246 3.521-.227.696.011 1.521-.163 2.093.471.071.078.232.119.354.125.901.037 1.809.008 2.704.1 1.667.17 3.325.431 4.992.609.807.085 1.63.129 2.438.084 1.772-.098 3.536-.299 5.308-.394 2.206-.12 4.415-.194 6.625-.251 1.127-.028 2.261.07 3.387.026 1.142-.044 2.276-.222 3.418-.284.7-.038 1.409.066 2.111.048 1.441-.038 2.882-.106 4.321-.179 1.214-.061 2.425-.183 3.64-.212 1.875-.045 3.75-.043 5.626-.042 1.863.003 3.728.054 5.59.038 1.238-.011 2.487-.031 3.711-.176 1.531-.182 3.037-.513 4.561-.749 1.02-.158 2.046-.328 3.077-.382 1.981-.103 3.968-.202 5.951-.169 2.999.051 5.998.208 8.996.334 1.572.066 3.143.177 4.715.238 1.288.05 2.58.029 3.867.094 1.144.058 2.283.238 3.427.279 1.53.054 3.062-.005 4.591.04 1.751.05 3.502.202 5.253.23 1.499.024 2.999-.065 4.499-.102l.331.006c1.959.054 3.919.099 5.878.172.278.01.545.188.828.23 1.148.175 2.297.367 3.454.467.443.039.93-.312 1.305.193.023.031.198-.033.302-.048 2.229-.344 4.409-.335 6.469.722.35.179.782.218 1.158.363.403.156.829.254.939.789.045.223.536.387.841.553.883.486 1.821.902 2.641 1.462.368.252.644.761.724 1.188.245 1.313.397 2.641.542 3.967.115 1.046.189 2.095.241 3.145.038.784-.026 1.571.02 2.354.06 1.02.219 2.037.271 3.056.061 1.191.029 2.386.081 3.577.041.96.159 1.917.219 2.876.065 1.065.101 2.132.152 3.198.034.742.082 1.483.107 2.225.035 1.07.039 2.141.085 3.211.028.641.114 1.279.165 1.919.082 1.021.202 2.042.221 3.064.018.982-.215 1.979-.069 2.939.094.615.284 1.219.244 1.854-.05.773-.087 1.546-.11 2.32-.025.902-.032 1.805-.039 2.708-.009.996.019 1.993-.023 2.988-.049 1.203-.169 2.402-.233 3.605-.056 1.056.007 2.124-.134 3.168-.163 1.223.055 2.395.289 3.581.05.252-.018.521-.031.77zm-4.51-49.972l.063-.006c-.066-.474-.111-.952-.204-1.423-.214-1.079-.505-2.148-.663-3.232-.126-.874-.438-1.413-1.332-1.627-2.051-.49-4.098-.753-6.154.015-.375.141-.933.029-1.346-.115-.174-.061-.153-.521-.288-.769-.084-.156-.287-.357-.447-.367-.918-.057-1.839-.08-2.76-.082-1.23-.003-2.46.054-3.689.033-1.872-.031-3.744-.125-5.616-.16-1.71-.033-3.423.037-5.13-.046-2.887-.14-5.768-.386-8.653-.551-2.534-.143-5.073-.216-7.607-.357-1.057-.058-2.107-.227-3.162-.317-1.741-.149-3.482-.337-5.227-.39-1.519-.048-3.042.061-4.563.111-.607.02-1.215.059-1.82.107-1.252.101-2.5.243-3.755.313-1.435.081-2.874.119-4.311.146-1.384.027-2.769.01-4.153.025-.899.009-1.8.02-2.698.071-1.403.078-2.804.212-4.209.278-.614.029-1.237-.072-1.855-.075-1.765-.007-3.528.013-5.292.012-1.351.001-2.702-.043-4.052-.012-1.609.039-3.215.203-4.823.194-1.705-.01-3.41-.158-5.115-.249-.242-.013-.484-.032-.725-.061-1.049-.124-2.097-.333-3.148-.359-1.288-.032-2.578.112-3.87.131-1.255.019-2.514-.055-3.771-.034-1.782.03-3.564.157-5.346.155-2.467-.002-4.937-.152-7.403-.114-2.192.034-4.378.256-6.57.357-.992.046-1.562.724-2.311 1.131-.156.085-.273.319-.296.497-.097.744-.175 1.492-.216 2.242-.046.837-.045 1.676-.058 2.514-.001.113.039.227.067.34.084.332.224.661.243.994.028.482-.016.943.303 1.398.272.388.252.91-.175 1.188-.512.335-.426.773-.436 1.203-.015.573.014 1.148.036 1.721.039 1.054.066 2.108.137 3.16.081 1.217.227 2.431.296 3.649.053.919.03 1.842.043 2.762.014 1.028.234 2.099-.002 3.075-.38 1.573-.111 3.15-.277 4.719-.168 1.594-.033 3.218-.022 4.828.003.354.078.708.063 1.059-.034.83-.097 1.658-.163 2.485-.034.421-.142.84-.139 1.26.009.915.079 1.829.104 2.745.021.779-.014 1.561.033 2.34.049.827.177 1.651.244 2.478.027.33-.109.694.002.99.118.313.395 1.218.277 1.512-.291.721-.062 1.377.71 1.735 1.084.503 2.183.992 3.313 1.403 1.886.684 3.875.733 5.867.707 2.136-.027 4.274-.014 6.407-.086 1.267-.042 2.528-.209 3.79-.331l2.334-.252c.643-.06 1.289-.097 1.935-.138 1.088-.069 2.177-.139 3.265-.194.587-.03 1.186.029 1.762-.053 1.263-.179 2.507-.488 3.776-.62 1.473-.154 2.964-.173 4.447-.252.84-.044 1.681-.088 2.521-.138 1.383-.083 2.739-.448 4.151-.242.801.117 1.612.221 2.42.242 1.739.044 3.486-.042 5.222.06 2.132.125 4.244-.168 6.39.035 2.791.263 5.611.22 8.416.365 2.643.137 5.282.35 7.923.523l3.947.232c.622.04 1.24.148 1.861.156.649.008 1.299-.098 1.949-.097 1.24.001 2.48.033 3.719.07.975.031 1.951.073 2.923.142.735.052 1.466.172 2.202.23.951.074 1.904.13 2.858.164 1.166.042 2.332.06 3.499.068.441.003.887-.11 1.319-.067.555.056 1.094.274 1.647.32 1.438.117 2.88.183 4.321.258l5.446.263c1.044.052 2.089.112 3.133.184 1.17.081 2.34.22 3.511.261 1.131.04 2.267-.047 3.399-.017 1.522.039 3.043.176 4.565.195.885.01 1.767-.154 2.654-.195.554-.026 1.155-.076 1.655.089.354.118.655.205 1.016.154 1.481-.21 2.515-1.251 2.626-2.096.084-.634.112-1.277.118-1.917.011-1.144-.061-2.291-.007-3.432.043-.928.229-1.849.332-2.775.034-.304.006-.614-.001-.921-.029-1.291-.034-2.582-.1-3.872-.055-1.06-.206-2.116-.268-3.175-.037-.638.024-1.278.028-1.918.012-2.32.04-4.64.015-6.96-.009-.771-.164-1.54-.236-2.311-.045-.48-.099-.963-.08-1.442.029-.688.182-1.374.175-2.06-.012-.981-.132-1.963-.187-2.946-.044-.807-.031-1.616-.097-2.421-.103-1.25-.304-2.497-.367-3.749-.056-1.153.051-2.311.016-3.466-.015-.538-.195-1.073-.301-1.608z" sketch:type="MSShapeGroup"/><path d="M144.892 14.349c.037 1.242-.078 2.488-.018 3.728.067 1.347.283 2.688.394 4.033.071.866.056 1.736.104 2.604.059 1.057.188 2.113.201 3.168.008.738-.157 1.476-.188 2.216-.021.515.038 1.034.086 1.55.078.829.245 1.657.254 2.486.026 2.495-.004 4.99-.017 7.486-.004.688-.069 1.376-.03 2.063.067 1.139.23 2.275.288 3.415.071 1.387.566 1.58.598 2.968.008.33.205 2.214.248 2.544.269 2.06.257 2.173.211 3.171-.058 1.227-1.285 1.916-1.296 3.147-.006.688.662 2.87.572 3.552-.12.908 1.497 1.621-.096 1.847-.388.055-4.139-1.121-4.519-1.248-.538-.178-1.184-.124-1.78-.096-.953.044-1.903.221-2.854.21-1.636-.019-3.272-.167-4.909-.209-1.217-.032-2.439.062-3.656.019-1.26-.044-2.517-.194-3.776-.281-1.122-.078-2.246-.142-3.369-.198l-5.858-.283c-1.55-.081-3.101-.152-4.647-.277-.596-.049-1.174-.284-1.772-.344-.465-.047-.944.075-1.418.072-1.254-.008-2.509-.028-3.763-.073-1.025-.036-2.05-.097-3.074-.176-.792-.062-1.577-.191-2.368-.247-1.046-.074-2.096-.12-3.144-.153-1.333-.04-2.667-.074-4-.076-.699-.001-1.399.112-2.097.104-.668-.009-1.333-.124-2.002-.168l-4.245-.25c-2.841-.186-5.679-.415-8.522-.562-3.016-.156-6.05-.109-9.051-.392-2.308-.218-4.58.097-6.872-.038-1.867-.11-3.746-.017-5.616-.065-.87-.023-1.742-.135-2.603-.26-1.518-.222-2.977.17-4.464.26-.904.054-1.808.101-2.712.149-1.595.085-3.199.106-4.783.271-1.365.142-2.702.475-4.061.667-.619.087-1.264.025-1.895.056-1.171.059-2.341.135-3.512.208-.695.044-1.389.084-2.081.148l-2.511.271c-1.357.131-2.713.31-4.076.356-2.294.078-4.593.064-6.891.093-2.143.027-4.283-.025-6.311-.76-1.215-.441-2.397-.967-3.563-1.508-.83-.385-1.076-1.09-.763-1.866.127-.317-.171-1.29-.298-1.626-.119-.319-.379 7.845-.408 7.49-.073-.889-1.044-6.314-1.097-7.203-.051-.838 1.227-5.695 1.204-6.533-.027-.985-.103-1.968-.112-2.952-.004-.452.113-.902.149-1.355.07-.889.138-1.78.175-2.672.016-.377-.065-.759-.068-1.139-.012-1.732-.157-3.478.024-5.193.178-1.688-.111-3.383.298-5.075.254-1.05.017-2.201.002-3.307-.014-.99.01-1.982-.047-2.971-.075-1.31-.232-2.615-.319-3.924-.076-1.132-.105-2.266-.147-3.399-.023-.616-.055-1.234-.038-1.851.011-.463-.081-.934.469-1.294.459-.299.481-.861.188-1.278-.343-.49-.295-.985-.326-1.504-.021-.359-.171-.712-.261-1.069-.029-.121-.073-.244-.072-.366.014-.902.013-1.804.062-2.704.044-.806.128-1.61.233-2.411.025-.192.151-.444.319-.535.806-.437 1.419-1.167 2.486-1.216 2.358-.109 4.708-.347 7.066-.384 2.652-.041 5.308.12 7.962.122 1.917.002 3.833-.134 5.75-.167 1.351-.022 2.706.057 4.056.037 1.389-.02 2.777-.175 4.162-.141 1.131.029 2.257.253 3.386.386.259.031.519.052.779.065 1.834.098 3.667.258 5.501.268 1.73.01 3.457-.166 5.187-.208 1.452-.034 2.906.013 4.358.012 1.897.001 3.794-.02 5.692-.013.665.002 1.335.111 1.995.08 1.511-.071 3.018-.215 4.527-.299.966-.054 1.935-.066 2.902-.076 1.488-.016 2.978.002 4.466-.027 1.546-.029 3.094-.071 4.636-.157 1.349-.076 2.692-.228 4.038-.337.651-.051 1.305-.093 1.958-.115 1.635-.054 3.274-.171 4.907-.119 1.876.058 3.75.26 5.622.42 1.135.097 2.264.278 3.401.341 2.726.152 5.456.23 8.182.384 3.103.177 6.202.441 9.307.592 1.835.089 3.678.014 5.517.049 2.013.038 4.026.138 6.04.172 1.322.022 2.645-.039 3.968-.036.99.002 1.981.027 2.969.088.172.011.391.227.481.395.145.267.122.762.31.827.444.155 1.044.275 1.447.124 2.212-.826 4.413-.544 6.619-.016.962.23 1.297.81 1.433 1.75.169 1.166.482 2.316.713 3.476.1.506.148 1.02.219 1.53.046.582.239 1.158.255 1.736z" sketch:type="MSShapeGroup"/></g><path sketch:type="MSShapeGroup" d="M2 54h145v10h-145z"/></g></svg>