<svg width="10" height="10" viewBox="0 0 10 10" xmlns="http://www.w3.org/2000/svg" xmlns:sketch="http://www.bohemiancoding.com/sketch/ns"><title>up-tempo</title><desc>Created with Sketch.</desc><path d="M1.45 6.535c.467-.63.861-1.08 1.162-1.586.438-.736.804-1.514 1.208-2.27l.581-1.022c.342-.614 1.235-.617 1.676-.028.529.706 1.106 1.376 1.626 2.087.224.308.357.682.535 1.023.281.536.487 1.137.867 1.591.699.835.553 1.697-.468 2.172-.317.147-.618.341-.948.44-.262.079-.558.059-.838.059-1.043 0-2.088-.054-3.127.004-.438.024-.86.283-1.295.419-.72.225-1.212-.312-1.79-.558-.039-.016-.081-.112-.067-.152.155-.45.196-1.055.514-1.304.442-.346.431-.651.364-.875" fill="#fff" sketch:type="MSShapeGroup"/></svg>