<?xml version="1.0" encoding="UTF-8" standalone="no"?>
<svg width="194px" height="59px" viewBox="0 0 194 59" version="1.1" xmlns="http://www.w3.org/2000/svg" xmlns:xlink="http://www.w3.org/1999/xlink" xmlns:sketch="http://www.bohemiancoding.com/sketch/ns">
    <!-- Generator: Sketch 3.1.1 (8761) - http://www.bohemiancoding.com/sketch -->
    <title>wrap-beat</title>
    <desc>Created with Sketch.</desc>
    <defs></defs>
    <g id="Page-1" stroke="none" stroke-width="1" fill="none" fill-rule="evenodd" sketch:type="MSPage">
        <g id="Desktop-2" sketch:type="MSArtboardGroup" transform="translate(-47.000000, -310.000000)">
            <rect id="Rectangle-1" opacity="0.869927705" sketch:type="MSShapeGroup" x="0" y="0" width="1024" height="1024"></rect>
            <g id="wrap-beat" sketch:type="MSLayerGroup" transform="translate(47.500000, 310.500000)">
                <path d="M187.098148,0.0980357143 C188.451341,3.00425 189.758477,5.8255 191.07658,8.64457143 C192.217034,11.08675 192.47583,13.6770714 192.247739,16.3109643 C191.565659,24.1363929 191.581011,31.9552857 192.223614,39.7850714 C192.478023,42.8938929 192.46267,46.0245 192.581102,49.1442143 C192.677602,51.6953214 192.293795,52.1680714 189.96683,52.8652143 C186.918307,53.7802143 183.78425,53.7802143 180.652386,54.0111429 C172.796409,54.5862857 164.953591,55.3139286 157.104193,55.9718571 C156.231307,56.0459286 155.347455,56.1483214 154.478955,56.0960357 C141.850614,55.3204643 129.244205,56.2202143 116.714557,57.3661429 C105.307818,58.4118571 93.9537159,57.9870357 82.5711023,57.9717857 C82.3956477,57.9696071 82.2201932,58.0066429 82.0469318,57.9935714 C69.8243295,57.0742143 57.5556705,57.5317143 45.330875,56.74525 C44.2891136,56.6798929 43.2276136,56.6276071 42.1924318,56.7387143 C35.7598295,57.4249643 29.3031023,57.5295357 22.8441818,57.6079643 C21.9756818,57.6210357 21.1006023,57.767 20.240875,57.9260357 C13.6854545,59.1264286 7.64981818,58.33125 2.49584091,53.1397143 C2.50680682,53.1615 2.23704545,52.84125 2.25020455,52.5318929 C2.61207955,43.7892857 1.158,35.1752143 0.436443182,26.5066786 C0.221511364,23.9207143 0.328977273,21.3086071 0.280727273,18.7095714 C0.232477273,16.1715357 1.21940909,13.8883929 2.45855682,11.8165714 C3.62094318,9.87328571 5.29653409,8.32214286 7.81869318,7.98446429 C10.2333864,7.65985714 12.5735114,6.98014286 15.0825114,7.16967857 C16.7975795,7.30039286 18.600375,7.08471429 20.2781591,6.67296429 C21.6752159,6.32657143 22.9033977,6.13267857 24.3465114,6.54878571 C25.4650341,6.87339286 26.8094545,6.86467857 27.9564886,6.59453571 C36.2050455,4.64907143 44.5939659,4.80592857 52.9697273,4.87782143 C57.5227727,4.91703571 62.073625,5.23510714 66.6288636,5.37671429 C74.1514773,5.61417857 81.6784773,5.80153571 89.2032841,6.02375 C93.412,6.14792857 97.5680795,5.69042857 101.757057,5.31353571 C109.755591,4.59678571 117.734386,3.57285714 125.811875,3.59682143 C131.919886,3.61425 138.032284,2.90403571 144.142489,2.51842857 C146.756761,2.35285714 149.371034,2.20471429 151.985307,2.02171429 C156.696261,1.69710714 161.409409,1.35507143 166.120364,1.01303571 C172.406023,0.555535714 178.689489,0.0806071429 184.975148,-0.352928571 C185.473,-0.387785714 185.988398,-0.148142857 187.098148,0.0980357143 L187.098148,0.0980357143 Z M188.128943,50.09625 C188.284659,48.0636429 188.493011,46.6976786 188.473273,45.3338929 C188.335102,35.4213929 187.911818,25.51325 188.628989,15.5985714 C188.914102,11.6335714 187.727591,8.05417857 184.679068,5.24164286 C184.196568,4.79721429 183.907068,4.148 183.422375,3.43996429 C178.114875,3.72753571 172.881943,3.965 167.655591,4.30485714 C162.764795,4.62075 157.887159,5.28521429 152.996364,5.36364286 C146.517705,5.47039286 140.078523,5.89739286 133.648114,6.63375 C131.917693,6.832 130.158761,6.76664286 128.412989,6.84942857 C122.998023,7.11085714 117.552352,7.11957143 112.17467,7.70996429 C102.774693,8.74478571 93.3769091,9.51382143 83.9199091,9.23060714 C73.4452727,8.91689286 62.9772159,8.37225 52.5003864,8.16746429 C43.8000341,7.99535714 35.0733636,7.82325 26.4980227,9.83625 C25.3180909,10.1151071 24.0723636,10.1281786 22.8529545,10.2153214 C18.6639773,10.5203214 14.475,10.7948214 10.2882159,11.0932857 C7.55989773,11.2871786 5.61673864,12.52025 4.98290909,15.2892143 C4.59910227,16.9710714 4.09686364,18.6834286 4.09028409,20.3848929 C4.06177273,27.3454286 4.86886364,34.2471429 5.814125,41.1401429 C6.12117045,43.3666429 6.12336364,45.6367143 6.22205682,47.8893571 C6.2725,49.0875714 6.23082955,50.2879643 6.23082955,51.3402143 C7.68490909,52.1658929 9.08854545,52.2791786 9.89125,53.7170357 C10.8123864,55.3683929 12.6743977,55.73875 14.4771932,55.7343929 C15.6944091,55.7300357 16.9072386,55.4577143 18.1266477,55.3531429 C22.8266364,54.9522857 27.526625,54.5536071 32.2288068,54.1810714 C37.0823182,53.7932857 41.92925,53.51225 46.8134659,53.7105 C59.5690114,54.229 72.3399091,54.1178929 85.0998409,54.8041429 C93.3067273,55.2463929 101.603534,55.3335357 109.781909,54.6451071 C119.034943,53.8651786 128.277011,53.1680357 137.55417,52.9283929 C142.09625,52.8129286 146.640523,52.8020357 151.182602,52.7628214 C152.581852,52.7519286 153.989875,52.9131429 155.380352,52.8085714 C162.181409,52.2900714 168.97808,51.7018571 175.779136,51.1572143 C178.733352,50.9219286 181.705114,50.7825 183.810568,48.4601429 C185.181307,48.9786429 186.273511,49.3925714 188.128943,50.09625 L188.128943,50.09625 Z" id="Fill-1" fill="#000000" sketch:type="MSShapeGroup"></path>
                <path d="M188.128943,50.09625 C186.273511,49.3925714 185.181307,48.9786429 183.810568,48.4601429 C181.705114,50.7825 178.733352,50.9219286 175.779136,51.1572143 C168.97808,51.7018571 162.181409,52.2900714 155.380352,52.8085714 C153.989875,52.9131429 152.581852,52.7519286 151.182602,52.7628214 C146.640523,52.8020357 142.09625,52.8129286 137.55417,52.9283929 C128.277011,53.1680357 119.034943,53.8651786 109.781909,54.6451071 C101.603534,55.3335357 93.3067273,55.2463929 85.0998409,54.8041429 C72.3399091,54.1178929 59.5690114,54.229 46.8134659,53.7105 C41.92925,53.51225 37.0823182,53.7932857 32.2288068,54.1810714 C27.526625,54.5536071 22.8266364,54.9522857 18.1266477,55.3531429 C16.9072386,55.4577143 15.6944091,55.7300357 14.4771932,55.7343929 C12.6743977,55.73875 10.8123864,55.3683929 9.89125,53.7170357 C9.08854545,52.2791786 7.68490909,52.1658929 6.23082955,51.3402143 C6.23082955,50.2879643 6.2725,49.0875714 6.22205682,47.8893571 C6.12336364,45.6367143 6.12117045,43.3666429 5.814125,41.1401429 C4.86886364,34.2471429 4.06177273,27.3454286 4.09028409,20.3848929 C4.09686364,18.6834286 4.59910227,16.9710714 4.98290909,15.2892143 C5.61673864,12.52025 7.55989773,11.2871786 10.2882159,11.0932857 C14.475,10.7948214 18.6639773,10.5203214 22.8529545,10.2153214 C24.0723636,10.1281786 25.3180909,10.1151071 26.4980227,9.83625 C35.0733636,7.82325 43.8000341,7.99535714 52.5003864,8.16746429 C62.9772159,8.37225 73.4452727,8.91689286 83.9199091,9.23060714 C93.3769091,9.51382143 102.774693,8.74478571 112.17467,7.70996429 C117.552352,7.11957143 122.998023,7.11085714 128.412989,6.84942857 C130.158761,6.76664286 131.917693,6.832 133.648114,6.63375 C140.078523,5.89739286 146.517705,5.47039286 152.996364,5.36364286 C157.887159,5.28521429 162.764795,4.62075 167.655591,4.30485714 C172.881943,3.965 178.114875,3.72753571 183.422375,3.43996429 C183.907068,4.148 184.196568,4.79721429 184.679068,5.24164286 C187.727591,8.05417857 188.914102,11.6335714 188.628989,15.5985714 C187.911818,25.51325 188.335102,35.4213929 188.473273,45.3338929 C188.493011,46.6976786 188.284659,48.0636429 188.128943,50.09625 L188.128943,50.09625 Z M100.886364,25.6918929 C102.57292,29.7157143 103.057614,33.9900714 102.770307,38.3668214 C102.735216,38.8809643 102.671614,39.4125357 102.754955,39.9136071 C103.000591,41.3993929 105.038057,42.89825 106.250886,42.1923929 C108.45942,40.9070357 110.985966,41.1815357 113.255909,40.3340714 C116.13775,39.2556786 117.490943,37.4953929 117.466818,34.4475714 C117.449273,32.4650714 116.944841,30.6699286 115.028,29.5762857 C114.288898,29.1536429 113.619977,28.6155357 112.858943,28.0905 C113.589273,25.6483214 115.631125,23.3216071 113.157216,20.69425 C111.549614,20.69425 109.808227,20.5548214 108.099739,20.7334643 C106.386864,20.9121071 104.70908,21.4088214 103.11683,21.7465 C102.33167,23.1320714 101.65617,24.3302857 100.886364,25.6918929 L100.886364,25.6918929 Z M29.8163068,39.833 C29.2109886,38.43 28.7920909,37.5258929 28.4302159,36.5978214 C27.9257841,35.3059286 27.5595227,33.9530357 26.9585909,32.71125 C26.2918636,31.3365714 25.1294773,30.8180714 23.9868295,31.15575 C22.82225,31.4999643 22.3441364,32.3561429 22.2586023,33.4911786 C22.195,34.35825 22.2607955,35.2558214 22.0524432,36.0858571 C21.7673295,37.2143571 21.27825,38.2905714 20.675125,39.93975 C19.6596818,36.5019643 18.8679432,33.68725 17.9840909,30.9030357 C17.7296818,30.0991429 17.3546477,29.23425 16.766875,28.6721786 C16.4335114,28.34975 15.4136818,28.3366786 14.9618864,28.6068214 C13.7337045,29.3431786 13.4463977,30.4716786 14.3434091,31.7156429 C15.9334659,33.9225357 16.5453636,36.4061071 16.9971591,38.9898929 C17.297625,40.7000714 17.635375,42.4058929 18.0038295,44.103 C18.1485795,44.7631071 18.3744773,45.4210357 18.6617841,46.0332143 C18.9995341,46.7499643 20.5325682,46.9220714 20.9032159,46.2554286 C21.7453977,44.7413214 22.5239773,43.1836429 23.2389545,41.6063571 C23.7784773,40.4103214 24.1798295,39.1532857 24.9364773,37.1446429 C26.0133295,39.7763571 26.68225,41.7043929 27.5968068,43.50825 C28.0113182,44.3273929 28.9105227,44.9025357 29.5926023,45.5909643 C31.4984773,43.9112857 32.3625909,42.1008929 32.81,39.9789643 C33.3802273,37.2622857 34.1105568,34.5761071 34.8672045,31.903 C35.2904886,30.4019643 35.9396705,28.9641071 36.4199773,27.4783214 C36.7489545,26.4631071 36.0032727,25.1995357 35.0623977,25.0230714 C34.1500341,24.8553214 32.9744886,25.6940714 32.8034205,26.7267143 C32.6630568,27.5807143 32.6257727,28.4543214 32.5621705,29.3213929 C32.303375,32.7831429 31.338375,36.0553571 29.8163068,39.833 L29.8163068,39.833 Z M127.195773,36.478 C128.377898,37.7459286 129.432818,38.87225 130.777239,40.3122857 C132.229125,40.3122857 133.963932,40.4081429 135.683386,40.2905 C138.157295,40.1183929 140.499614,39.4299643 142.47567,37.8635714 C143.238898,37.2601071 143.469182,36.478 142.589716,35.7176786 C135.580307,37.77425 135.580307,37.77425 130.775045,36.0597143 L130.775045,32.0119286 C132.623898,31.6285 134.317034,31.2908214 136.003591,30.9248214 C136.674705,30.7810357 137.451091,30.7331071 137.959909,30.3540357 C138.413898,30.012 138.688045,29.2930714 138.784545,28.7005 C138.817443,28.4978929 138.054216,27.9249286 137.672602,27.9401786 C135.260102,28.04475 132.854182,28.2691429 130.198239,28.47175 C129.573182,26.6025357 129.154284,24.8291786 129.481068,22.61575 C131.250966,22.1538929 132.915591,21.7508571 134.558284,21.2802857 C136.391784,20.7530714 138.225284,20.2106071 140.012727,19.5526786 C140.328545,19.4372143 140.639977,18.6768929 140.55883,18.2978214 C140.482068,17.94925 139.841659,17.4372857 139.506102,17.4765 C136.918148,17.7771429 134.352125,18.2673214 131.76417,18.5570714 C128.557739,18.9143571 126.103568,20.1605 125.048648,23.79 C127.555455,27.5523929 127.219898,32.1056071 127.195773,36.478 L127.195773,36.478 Z M43.3613977,38.3385 C46.4932614,38.9877143 48.443,40.6020357 49.9255909,42.8742857 C50.397125,43.59975 50.9191023,44.2990714 51.48275,44.9591786 C51.6779432,45.1879286 52.06175,45.2554643 52.6736477,45.5473929 C53.2416818,44.9047143 53.871125,44.1945 54.3821364,43.6171786 C52.8754205,39.528 49.5220455,37.5062857 46.5941477,35.0967857 C47.5218636,33.2667857 48.4122955,31.7744643 49.0483182,30.17975 C49.7589091,28.3955 50.1953523,26.5241071 48.5943295,24.7965 C47.3442159,24.7965 46.1072614,24.6396429 44.9251364,24.827 C41.6485227,25.3498571 40.0102159,27.8290714 40.28875,31.0838571 C40.5102614,33.6523929 40.3808636,36.2536071 40.3633182,38.84175 C40.3501591,40.7414643 40.2141818,42.6411786 40.2668182,44.5387143 C40.2777841,44.9003571 40.8743295,45.4558929 41.277875,45.5365 C41.6967727,45.6192857 42.3854318,45.36875 42.6508068,45.0288929 C43.8921477,43.44725 43.9996136,42.2076429 43.3613977,38.3385 L43.3613977,38.3385 Z M67.8570455,42.4276786 C68.1224205,42.0181071 68.46675,41.7348929 68.4689432,41.4473214 C68.515,36.5695 68.2715568,31.70475 66.9117841,26.9859643 C66.53675,25.6788214 65.7559773,24.4631786 65.0278409,23.2889286 C64.4795455,22.40225 62.725,22.5939643 62.4091818,23.5765 C61.8279886,25.3890714 61.3103977,27.2343214 60.9200114,29.097 C60.0624773,33.19925 59.0031705,37.2078214 56.6104091,40.7545357 C56.2660795,41.2686786 56.2002841,41.968 56.0555341,42.4211429 C57.3385455,43.8895 58.5097045,43.8088929 59.2926705,42.5453214 C60.2796023,40.9506071 60.9748409,39.17725 61.8279886,37.4126071 C62.9772159,37.3625 63.9531818,37.3189286 64.7164091,37.28625 C66.0739886,39.0748571 64.0474886,42.5366071 67.8570455,42.4276786 L67.8570455,42.4276786 Z M155.266307,31.9705357 C156.0405,33.6088214 156.66117,34.99875 157.362989,36.3451071 C157.490193,36.5869286 158.016557,36.8418214 158.249034,36.7655714 C158.716182,36.6108929 159.334659,36.3124286 159.475023,35.9246429 C159.694341,35.3211786 159.729432,34.5521429 159.560557,33.9268929 C158.665739,30.5784286 157.83233,27.2038214 156.669943,23.9446786 C156.04708,22.1952857 154.884693,20.6114643 153.821,19.0516071 C153.220068,18.1671071 151.651943,18.4198214 151.193568,19.3849286 C150.901875,19.9992857 150.625534,20.6550357 150.53342,21.3195 C150.026795,24.9468214 149.004773,28.4129286 147.583591,31.7897143 C146.92783,33.3452143 146.530864,35.0096429 146.043977,36.5368214 C147.101091,37.6609643 148.173557,37.8592143 148.879761,36.85925 C149.662727,35.7503571 150.031182,34.3604286 150.623341,33.1099286 C150.757125,32.8288929 151.061977,32.6262857 151.426045,32.2450357 C152.645455,32.1578929 154.005227,32.0620357 155.266307,31.9705357 L155.266307,31.9705357 Z M78.3229091,30.9161071 C77.6912727,29.3126786 77.2307045,27.83125 76.5047614,26.4914286 C76.2810568,26.0753214 75.2524545,25.7594286 74.7524091,25.9141071 C74.280875,26.0600714 73.6229205,26.9903214 73.7325795,27.3933571 C74.6559091,30.7766786 74.7436364,34.2297143 74.8686477,37.6892857 C74.8796136,38.0313214 74.9432159,38.3798929 75.0419091,38.7088571 C75.3094773,39.5781071 75.7503068,40.3449643 76.8030341,40.2817857 C77.8053182,40.2207857 78.4281818,39.4713571 78.4676591,38.5955714 C78.5202955,37.4213214 78.2549205,36.2318214 78.1057841,34.87675 C79.5774091,34.2340714 81.0161364,33.672 82.3956477,32.9879286 C85.0822955,31.6568214 85.9968523,29.9248571 85.3191591,27.0905357 C84.5405795,23.8270357 83.3562614,21.7138214 79.3449318,21.8488929 C78.6562727,21.8728571 77.9632273,21.6724286 77.2679886,21.6375714 C76.2459659,21.5874643 75.4125568,22.2148929 75.4937045,23.0797857 C75.5551136,23.7486071 76.3249205,24.6374643 76.9938409,24.9010714 C78.0970114,25.3367857 79.3800227,25.3019286 80.5687273,25.5546429 C82.025,25.864 82.4000341,27.12975 82.579875,28.3061786 C82.7575227,29.47825 81.8890227,30.256 80.8450682,30.5958571 C80.0621023,30.8529286 79.1826364,30.8180714 78.3229091,30.9161071 L78.3229091,30.9161071 Z M165.852795,22.8052857 C166.874818,26.3825 167.210375,29.6503571 167.429693,32.9530714 C167.53058,34.4824286 167.923159,36.0074286 168.33767,37.4932143 C168.429784,37.8221786 169.182045,38.1751071 169.609716,38.1511429 C170.013261,38.1293571 170.664636,37.6675 170.721659,37.3211071 C170.881761,36.3320357 170.881761,35.2950357 170.787455,34.2928929 C170.427773,30.5196071 170.004489,26.7550357 169.579011,22.7421071 C170.958523,22.4153214 172.105557,22.1190357 173.261364,21.8815714 C174.28558,21.67025 175.3405,21.5918214 176.351557,21.3369286 C177.478852,21.0558929 177.66308,20.3609286 177.211284,18.6768929 C172.498136,18.5657857 167.795955,18.4285357 163.095966,18.3631786 C162.170443,18.3501071 161.40283,18.8228571 161.301943,19.8794643 C161.207636,20.8445714 161.633114,21.6201429 162.532318,21.9491071 C163.501705,22.3042143 164.53908,22.4763214 165.852795,22.8052857 L165.852795,22.8052857 Z" id="Fill-2" sketch:type="MSShapeGroup"></path>
                <path d="M100.886364,25.6918929 C101.65617,24.3302857 102.33167,23.1320714 103.11683,21.7465 C104.70908,21.4088214 106.386864,20.9121071 108.099739,20.7334643 C109.808227,20.5548214 111.549614,20.69425 113.157216,20.69425 C115.631125,23.3216071 113.589273,25.6483214 112.858943,28.0905 C113.619977,28.6155357 114.288898,29.1536429 115.028,29.5762857 C116.944841,30.6699286 117.449273,32.4650714 117.466818,34.4475714 C117.490943,37.4953929 116.13775,39.2556786 113.255909,40.3340714 C110.985966,41.1815357 108.45942,40.9070357 106.250886,42.1923929 C105.038057,42.89825 103.000591,41.3993929 102.754955,39.9136071 C102.671614,39.4125357 102.735216,38.8809643 102.770307,38.3668214 C103.057614,33.9900714 102.57292,29.7157143 100.886364,25.6918929 L100.886364,25.6918929 Z M106.715841,38.0661786 C108.911216,37.8112857 110.589,37.6544286 112.255818,37.4147857 C113.68358,37.2078214 114.234068,36.15775 114.459966,34.8854643 C114.707795,33.5020714 114.264773,32.4868571 112.966409,31.9356786 C111.538648,31.3300357 110.005614,30.9618571 108.575659,30.3583929 C107.634784,29.9618929 106.73558,29.3736786 106.935159,28.1253571 C107.751023,26.1820714 111.235989,26.9707143 111.051761,23.9555714 C108.843227,23.4174643 107.031659,24.1538214 105.22667,25.48275 C105.202545,29.7244286 105.829795,33.7613214 106.715841,38.0661786 L106.715841,38.0661786 Z" id="Fill-3" fill="#000000" sketch:type="MSShapeGroup"></path>
                <path d="M29.8163068,39.833 C31.338375,36.0553571 32.303375,32.7831429 32.5621705,29.3213929 C32.6257727,28.4543214 32.6630568,27.5807143 32.8034205,26.7267143 C32.9744886,25.6940714 34.1500341,24.8553214 35.0623977,25.0230714 C36.0032727,25.1995357 36.7489545,26.4631071 36.4199773,27.4783214 C35.9396705,28.9641071 35.2904886,30.4019643 34.8672045,31.903 C34.1105568,34.5761071 33.3802273,37.2622857 32.81,39.9789643 C32.3625909,42.1008929 31.4984773,43.9112857 29.5926023,45.5909643 C28.9105227,44.9025357 28.0113182,44.3273929 27.5968068,43.50825 C26.68225,41.7043929 26.0133295,39.7763571 24.9364773,37.1446429 C24.1798295,39.1532857 23.7784773,40.4103214 23.2389545,41.6063571 C22.5239773,43.1836429 21.7453977,44.7413214 20.9032159,46.2554286 C20.5325682,46.9220714 18.9995341,46.7499643 18.6617841,46.0332143 C18.3744773,45.4210357 18.1485795,44.7631071 18.0038295,44.103 C17.635375,42.4058929 17.297625,40.7000714 16.9971591,38.9898929 C16.5453636,36.4061071 15.9334659,33.9225357 14.3434091,31.7156429 C13.4463977,30.4716786 13.7337045,29.3431786 14.9618864,28.6068214 C15.4136818,28.3366786 16.4335114,28.34975 16.766875,28.6721786 C17.3546477,29.23425 17.7296818,30.0991429 17.9840909,30.9030357 C18.8679432,33.68725 19.6596818,36.5019643 20.675125,39.93975 C21.27825,38.2905714 21.7673295,37.2143571 22.0524432,36.0858571 C22.2607955,35.2558214 22.195,34.35825 22.2586023,33.4911786 C22.3441364,32.3561429 22.82225,31.4999643 23.9868295,31.15575 C25.1294773,30.8180714 26.2918636,31.3365714 26.9585909,32.71125 C27.5595227,33.9530357 27.9257841,35.3059286 28.4302159,36.5978214 C28.7920909,37.5258929 29.2109886,38.43 29.8163068,39.833" id="Fill-4" fill="#000000" sketch:type="MSShapeGroup"></path>
                <path d="M127.195773,36.478 C127.219898,32.1056071 127.555455,27.5523929 125.048648,23.79 C126.103568,20.1605 128.557739,18.9143571 131.76417,18.5570714 C134.352125,18.2673214 136.918148,17.7771429 139.506102,17.4765 C139.841659,17.4372857 140.482068,17.94925 140.55883,18.2978214 C140.639977,18.6768929 140.328545,19.4372143 140.012727,19.5526786 C138.225284,20.2106071 136.391784,20.7530714 134.558284,21.2802857 C132.915591,21.7508571 131.250966,22.1538929 129.481068,22.61575 C129.154284,24.8291786 129.573182,26.6025357 130.198239,28.47175 C132.854182,28.2691429 135.260102,28.04475 137.672602,27.9401786 C138.054216,27.9249286 138.817443,28.4978929 138.784545,28.7005 C138.688045,29.2930714 138.413898,30.012 137.959909,30.3540357 C137.451091,30.7331071 136.674705,30.7810357 136.003591,30.9248214 C134.317034,31.2908214 132.623898,31.6285 130.775045,32.0119286 L130.775045,36.0597143 C135.580307,37.77425 135.580307,37.77425 142.589716,35.7176786 C143.469182,36.478 143.238898,37.2601071 142.47567,37.8635714 C140.499614,39.4299643 138.157295,40.1183929 135.683386,40.2905 C133.963932,40.4081429 132.229125,40.3122857 130.777239,40.3122857 C129.432818,38.87225 128.377898,37.7459286 127.195773,36.478" id="Fill-5" fill="#000000" sketch:type="MSShapeGroup"></path>
                <path d="M43.3613977,38.3385 C43.9996136,42.2076429 43.8921477,43.44725 42.6508068,45.0288929 C42.3854318,45.36875 41.6967727,45.6192857 41.277875,45.5365 C40.8743295,45.4558929 40.2777841,44.9003571 40.2668182,44.5387143 C40.2141818,42.6411786 40.3501591,40.7414643 40.3633182,38.84175 C40.3808636,36.2536071 40.5102614,33.6523929 40.28875,31.0838571 C40.0102159,27.8290714 41.6485227,25.3498571 44.9251364,24.827 C46.1072614,24.6396429 47.3442159,24.7965 48.5943295,24.7965 C50.1953523,26.5241071 49.7589091,28.3955 49.0483182,30.17975 C48.4122955,31.7744643 47.5218636,33.2667857 46.5941477,35.0967857 C49.5220455,37.5062857 52.8754205,39.528 54.3821364,43.6171786 C53.871125,44.1945 53.2416818,44.9047143 52.6736477,45.5473929 C52.06175,45.2554643 51.6779432,45.1879286 51.48275,44.9591786 C50.9191023,44.2990714 50.397125,43.59975 49.9255909,42.8742857 C48.443,40.6020357 46.4932614,38.9877143 43.3613977,38.3385 L43.3613977,38.3385 Z M46.4472045,28.1536786 C43.6530909,28.8442857 43.3153409,29.7331429 44.3461364,33.2362857 C45.5787045,31.76575 46.3748295,30.3910714 46.4472045,28.1536786 L46.4472045,28.1536786 Z" id="Fill-6" fill="#000000" sketch:type="MSShapeGroup"></path>
                <path d="M67.8570455,42.4276786 C64.0474886,42.5366071 66.0739886,39.0748571 64.7164091,37.28625 C63.9531818,37.3189286 62.9772159,37.3625 61.8279886,37.4126071 C60.9748409,39.17725 60.2796023,40.9506071 59.2926705,42.5453214 C58.5097045,43.8088929 57.3385455,43.8895 56.0555341,42.4211429 C56.2002841,41.968 56.2660795,41.2686786 56.6104091,40.7545357 C59.0031705,37.2078214 60.0624773,33.19925 60.9200114,29.097 C61.3103977,27.2343214 61.8279886,25.3890714 62.4091818,23.5765 C62.725,22.5939643 64.4795455,22.40225 65.0278409,23.2889286 C65.7559773,24.4631786 66.53675,25.6788214 66.9117841,26.9859643 C68.2715568,31.70475 68.515,36.5695 68.4689432,41.4473214 C68.46675,41.7348929 68.1224205,42.0181071 67.8570455,42.4276786 L67.8570455,42.4276786 Z M63.4816477,33.4585 C65.37875,31.9356786 65.3984886,31.7396071 63.4816477,30.3562143 L63.4816477,33.4585 L63.4816477,33.4585 Z" id="Fill-7" fill="#000000" sketch:type="MSShapeGroup"></path>
                <path d="M155.266307,31.9705357 C154.005227,32.0620357 152.645455,32.1578929 151.426045,32.2450357 C151.061977,32.6262857 150.757125,32.8288929 150.623341,33.1099286 C150.031182,34.3604286 149.662727,35.7503571 148.879761,36.85925 C148.173557,37.8592143 147.101091,37.6609643 146.043977,36.5368214 C146.530864,35.0096429 146.92783,33.3452143 147.583591,31.7897143 C149.004773,28.4129286 150.026795,24.9468214 150.53342,21.3195 C150.625534,20.6550357 150.901875,19.9992857 151.193568,19.3849286 C151.651943,18.4198214 153.220068,18.1671071 153.821,19.0516071 C154.884693,20.6114643 156.04708,22.1952857 156.669943,23.9446786 C157.83233,27.2038214 158.665739,30.5784286 159.560557,33.9268929 C159.729432,34.5521429 159.694341,35.3211786 159.475023,35.9246429 C159.334659,36.3124286 158.716182,36.6108929 158.249034,36.7655714 C158.016557,36.8418214 157.490193,36.5869286 157.362989,36.3451071 C156.66117,34.99875 156.0405,33.6088214 155.266307,31.9705357 L155.266307,31.9705357 Z M153.20033,23.6462143 C152.693705,25.62 152.355955,26.5393571 152.248489,27.4848571 C152.158568,28.28875 152.744148,28.7876429 153.5315,28.5763214 C153.899955,28.4782857 154.428511,27.8465 154.380261,27.5349643 C154.226739,26.5655 153.831966,25.6308929 153.20033,23.6462143 L153.20033,23.6462143 Z" id="Fill-8" fill="#000000" sketch:type="MSShapeGroup"></path>
                <path d="M78.3229091,30.9161071 C79.1826364,30.8180714 80.0621023,30.8529286 80.8450682,30.5958571 C81.8890227,30.256 82.7575227,29.47825 82.579875,28.3061786 C82.4000341,27.12975 82.025,25.864 80.5687273,25.5546429 C79.3800227,25.3019286 78.0970114,25.3367857 76.9938409,24.9010714 C76.3249205,24.6374643 75.5551136,23.7486071 75.4937045,23.0797857 C75.4125568,22.2148929 76.2459659,21.5874643 77.2679886,21.6375714 C77.9632273,21.6724286 78.6562727,21.8728571 79.3449318,21.8488929 C83.3562614,21.7138214 84.5405795,23.8270357 85.3191591,27.0905357 C85.9968523,29.9248571 85.0822955,31.6568214 82.3956477,32.9879286 C81.0161364,33.672 79.5774091,34.2340714 78.1057841,34.87675 C78.2549205,36.2318214 78.5202955,37.4213214 78.4676591,38.5955714 C78.4281818,39.4713571 77.8053182,40.2207857 76.8030341,40.2817857 C75.7503068,40.3449643 75.3094773,39.5781071 75.0419091,38.7088571 C74.9432159,38.3798929 74.8796136,38.0313214 74.8686477,37.6892857 C74.7436364,34.2297143 74.6559091,30.7766786 73.7325795,27.3933571 C73.6229205,26.9903214 74.280875,26.0600714 74.7524091,25.9141071 C75.2524545,25.7594286 76.2810568,26.0753214 76.5047614,26.4914286 C77.2307045,27.83125 77.6912727,29.3126786 78.3229091,30.9161071" id="Fill-9" fill="#000000" sketch:type="MSShapeGroup"></path>
                <path d="M165.852795,22.8052857 C164.53908,22.4763214 163.501705,22.3042143 162.532318,21.9491071 C161.633114,21.6201429 161.207636,20.8445714 161.301943,19.8794643 C161.40283,18.8228571 162.170443,18.3501071 163.095966,18.3631786 C167.795955,18.4285357 172.498136,18.5657857 177.211284,18.6768929 C177.66308,20.3609286 177.478852,21.0558929 176.351557,21.3369286 C175.3405,21.5918214 174.28558,21.67025 173.261364,21.8815714 C172.105557,22.1190357 170.958523,22.4153214 169.579011,22.7421071 C170.004489,26.7550357 170.427773,30.5196071 170.787455,34.2928929 C170.881761,35.2950357 170.881761,36.3320357 170.721659,37.3211071 C170.664636,37.6675 170.013261,38.1293571 169.609716,38.1511429 C169.182045,38.1751071 168.429784,37.8221786 168.33767,37.4932143 C167.923159,36.0074286 167.53058,34.4824286 167.429693,32.9530714 C167.210375,29.6503571 166.874818,26.3825 165.852795,22.8052857" id="Fill-10" fill="#000000" sketch:type="MSShapeGroup"></path>
            </g>
        </g>
    </g>
</svg>