<svg width="194" height="59" viewBox="0 0 194 59" xmlns="http://www.w3.org/2000/svg" xmlns:sketch="http://www.bohemiancoding.com/sketch/ns"><title>wrap-beat-hover</title><desc>Created with Sketch.</desc><g sketch:type="MSArtboardGroup" fill="none"><path opacity=".87" sketch:type="MSShapeGroup" d="M-47-310h1024v1024h-1024z"/><g sketch:type="MSLayerGroup"><path d="M187.598.598c1.353 2.906 2.66 5.727 3.978 8.547 1.14 2.442 1.399 5.032 1.171 7.666-.682 7.825-.667 15.644-.024 23.474.254 3.109.239 6.239.357 9.359.097 2.551-.287 3.024-2.614 3.721-3.049.915-6.183.915-9.314 1.146-7.856.575-15.699 1.303-23.548 1.961-.873.074-1.757.176-2.625.124-12.628-.776-25.235.124-37.764 1.27-11.407 1.046-22.761.621-34.143.606l-.524.022c-12.223-.919-24.491-.462-36.716-1.248-1.042-.065-2.103-.118-3.138-.007-6.433.686-12.889.791-19.348.869-.869.013-1.744.159-2.603.318-6.555 1.2-12.591.405-17.745-4.786.011.022-.259-.298-.246-.608.362-8.743-1.092-17.357-1.814-26.025-.215-2.586-.107-5.198-.156-7.797-.048-2.538.939-4.821 2.178-6.893 1.162-1.943 2.838-3.494 5.36-3.832 2.415-.325 4.755-1.004 7.264-.815 1.715.131 3.518-.085 5.196-.497 1.397-.346 2.625-.54 4.068-.124 1.119.325 2.463.316 3.61.046 8.249-1.945 16.637-1.789 25.013-1.717 4.553.039 9.104.357 13.659.499 7.523.237 15.05.425 22.574.647 4.209.124 8.365-.333 12.554-.71 7.999-.717 15.977-1.741 24.055-1.717 6.108.017 12.22-.693 18.331-1.078 2.614-.166 5.229-.314 7.843-.497 4.711-.325 9.424-.667 14.135-1.009 6.286-.457 12.569-.932 18.855-1.366.498-.035 1.013.205 2.123.451zm1.031 49.998c.156-2.033.364-3.399.344-4.762-.138-9.913-.561-19.821.156-29.735.285-3.965-.901-7.544-3.95-10.357-.482-.444-.772-1.094-1.257-1.802-5.307.288-10.54.525-15.767.865-4.891.316-9.768.98-14.659 1.059-6.479.107-12.918.534-19.348 1.27-1.73.198-3.489.133-5.235.216-5.415.261-10.861.27-16.238.861-9.4 1.035-18.798 1.804-28.255 1.521-10.475-.314-20.943-.858-31.42-1.063-8.7-.172-17.427-.344-26.002 1.669-1.18.279-2.426.292-3.645.379-4.189.305-8.378.579-12.565.878-2.728.194-4.671 1.427-5.305 4.196-.384 1.682-.886 3.394-.893 5.096-.029 6.961.779 13.862 1.724 20.755.307 2.227.309 4.497.408 6.749.05 1.198.009 2.399.009 3.451 1.454.826 2.858.939 3.66 2.377.921 1.651 2.783 2.022 4.586 2.017 1.217-.004 2.43-.277 3.649-.381 4.7-.401 9.4-.8 14.102-1.172 4.854-.388 9.7-.669 14.585-.471 12.756.518 25.526.407 38.286 1.094 8.207.442 16.504.529 24.682-.159 9.253-.78 18.495-1.477 27.772-1.717 4.542-.115 9.086-.126 13.628-.166 1.399-.011 2.807.15 4.198.046 6.801-.518 13.598-1.107 20.399-1.651 2.954-.235 5.926-.375 8.031-2.697 1.371.518 2.463.932 4.318 1.636z" fill="#000" sketch:type="MSShapeGroup"/><path d="M188.629 50.596c-1.855-.704-2.948-1.118-4.318-1.636-2.105 2.322-5.077 2.462-8.031 2.697-6.801.545-13.598 1.133-20.399 1.651-1.39.105-2.798-.057-4.198-.046-4.542.039-9.086.05-13.628.166-9.277.24-18.519.937-27.772 1.717-8.178.688-16.475.601-24.682.159-12.76-.686-25.531-.575-38.286-1.094-4.884-.198-9.731.083-14.585.471-4.702.373-9.402.771-14.102 1.172-1.219.105-2.432.377-3.649.381-1.803.004-3.665-.366-4.586-2.017-.803-1.438-2.206-1.551-3.66-2.377 0-1.052.042-2.253-.009-3.451-.099-2.253-.101-4.523-.408-6.749-.945-6.893-1.752-13.795-1.724-20.755.007-1.701.509-3.414.893-5.096.634-2.769 2.577-4.002 5.305-4.196 4.187-.298 8.376-.573 12.565-.878 1.219-.087 2.465-.1 3.645-.379 8.575-2.013 17.302-1.841 26.002-1.669 10.477.205 20.945.749 31.42 1.063 9.457.283 18.855-.486 28.255-1.521 5.378-.59 10.823-.599 16.238-.861 1.746-.083 3.505-.017 5.235-.216 6.43-.736 12.87-1.163 19.348-1.27 4.891-.078 9.768-.743 14.659-1.059 5.226-.34 10.459-.577 15.767-.865.485.708.774 1.357 1.257 1.802 3.049 2.813 4.235 6.392 3.95 10.357-.717 9.915-.294 19.823-.156 29.735.02 1.364-.189 2.73-.344 4.762zm-87.243-24.404c1.687 4.024 2.171 8.298 1.884 12.675-.035.514-.099 1.046-.015 1.547.246 1.486 2.283 2.985 3.496 2.279 2.209-1.285 4.735-1.011 7.005-1.858 2.882-1.078 4.235-2.839 4.211-5.886-.018-1.983-.522-3.778-2.439-4.871-.739-.423-1.408-.961-2.169-1.486.73-2.442 2.772-4.769.298-7.396-1.608 0-3.349-.139-5.057.039-1.713.179-3.391.675-4.983 1.013l-2.23 3.945zm-71.07 14.141c-.605-1.403-1.024-2.307-1.386-3.235-.504-1.292-.871-2.645-1.472-3.887-.667-1.375-1.829-1.893-2.972-1.555-1.165.344-1.643 1.2-1.728 2.335-.064.867.002 1.765-.206 2.595-.285 1.129-.774 2.205-1.377 3.854-1.015-3.438-1.807-6.252-2.691-9.037-.254-.804-.629-1.669-1.217-2.231-.333-.322-1.353-.335-1.805-.065-1.228.736-1.515 1.865-.618 3.109 1.59 2.207 2.202 4.69 2.654 7.274.3 1.71.638 3.416 1.007 5.113.145.66.371 1.318.658 1.93.338.717 1.871.889 2.241.222.842-1.514 1.621-3.072 2.336-4.649.54-1.196.941-2.453 1.698-4.462 1.077 2.632 1.746 4.56 2.66 6.364.415.819 1.314 1.394 1.996 2.083 1.906-1.68 2.77-3.49 3.217-5.612.57-2.717 1.301-5.403 2.057-8.076.423-1.501 1.072-2.939 1.553-4.425.329-1.015-.417-2.279-1.358-2.455-.912-.168-2.088.671-2.259 1.704-.14.854-.178 1.728-.241 2.595-.259 3.462-1.224 6.734-2.746 10.512zm97.379-3.355l3.581 3.834c1.452 0 3.187.096 4.906-.022 2.474-.172 4.816-.861 6.792-2.427.763-.603.994-1.386.114-2.146-7.009 2.057-7.009 2.057-11.815.342v-4.048c1.849-.383 3.542-.721 5.229-1.087.671-.144 1.447-.192 1.956-.571.454-.342.728-1.061.825-1.654.033-.203-.73-.776-1.112-.76-2.413.105-4.818.329-7.474.532-.625-1.869-1.044-3.643-.717-5.856 1.77-.462 3.435-.865 5.077-1.335 1.834-.527 3.667-1.07 5.454-1.728.316-.115.627-.876.546-1.255-.077-.349-.717-.861-1.053-.821-2.588.301-5.154.791-7.742 1.081-3.206.357-5.661 1.603-6.716 5.233 2.507 3.762 2.171 8.316 2.147 12.688zm-83.834 1.861c3.132.649 5.082 2.264 6.564 4.536.472.725.994 1.425 1.557 2.085.195.229.579.296 1.191.588l1.708-1.93c-1.507-4.089-4.86-6.111-7.788-8.52.928-1.83 1.818-3.322 2.454-4.917.711-1.784 1.147-3.656-.454-5.383-1.25 0-2.487-.157-3.669.03-3.277.523-4.915 3.002-4.636 6.257.222 2.569.092 5.17.075 7.758-.013 1.9-.149 3.799-.096 5.697.011.362.608.917 1.011.998.419.083 1.108-.168 1.373-.508 1.241-1.582 1.349-2.821.711-6.69zm24.496 4.089c.265-.41.61-.693.612-.98.046-4.878-.197-9.743-1.557-14.461-.375-1.307-1.156-2.523-1.884-3.697-.548-.887-2.303-.695-2.619.288-.581 1.813-1.099 3.658-1.489 5.521-.858 4.102-1.917 8.111-4.31 11.658-.344.514-.41 1.213-.555 1.667 1.283 1.468 2.454 1.388 3.237.124.987-1.595 1.682-3.368 2.535-5.133l2.888-.126c1.358 1.789-.669 5.25 3.141 5.141zm87.409-10.457c.774 1.638 1.395 3.028 2.097 4.375.127.242.654.497.886.42.467-.155 1.086-.453 1.226-.841.219-.603.254-1.373.086-1.998-.895-3.348-1.728-6.723-2.891-9.982-.623-1.749-1.785-3.333-2.849-4.893-.601-.884-2.169-.632-2.627.333-.292.614-.568 1.27-.66 1.935-.507 3.627-1.529 7.093-2.95 10.47-.656 1.556-1.053 3.22-1.54 4.747 1.057 1.124 2.13 1.322 2.836.322.783-1.109 1.151-2.499 1.744-3.749.134-.281.439-.484.803-.865 1.219-.087 2.579-.183 3.84-.275zm-76.943-1.054c-.632-1.603-1.092-3.085-1.818-4.425-.224-.416-1.252-.732-1.752-.577-.472.146-1.129 1.076-1.02 1.479.923 3.383 1.011 6.836 1.136 10.296.011.342.075.691.173 1.02.268.869.708 1.636 1.761 1.573 1.002-.061 1.625-.81 1.665-1.686.053-1.174-.213-2.364-.362-3.719 1.472-.643 2.91-1.205 4.29-1.889 2.687-1.331 3.601-3.063 2.924-5.897-.779-3.264-1.963-5.377-5.974-5.242-.689.024-1.382-.176-2.077-.211-1.022-.05-1.855.577-1.774 1.442.061.669.831 1.558 1.5 1.821 1.103.436 2.386.401 3.575.654 1.456.309 1.831 1.575 2.011 2.752.178 1.172-.691 1.95-1.735 2.29-.783.257-1.662.222-2.522.32zm87.53-8.111c1.022 3.577 1.358 6.845 1.577 10.148.101 1.529.493 3.054.908 4.54.092.329.844.682 1.272.658.404-.022 1.055-.484 1.112-.83.16-.989.16-2.026.066-3.028-.36-3.773-.783-7.538-1.208-11.551 1.38-.327 2.527-.623 3.682-.861 1.024-.211 2.079-.29 3.09-.545 1.127-.281 1.312-.976.86-2.66-4.713-.111-9.415-.248-14.115-.314-.926-.013-1.693.46-1.794 1.516-.094.965.331 1.741 1.23 2.07.969.355 2.007.527 3.32.856z" fill="#fff" sketch:type="MSShapeGroup"/><path d="M101.386 26.192c.77-1.362 1.445-2.56 2.23-3.945 1.592-.338 3.27-.834 4.983-1.013 1.708-.179 3.45-.039 5.057-.039 2.474 2.627.432 4.954-.298 7.396.761.525 1.43 1.063 2.169 1.486 1.917 1.094 2.421 2.889 2.439 4.871.024 3.048-1.329 4.808-4.211 5.886-2.27.847-4.796.573-7.005 1.858-1.213.706-3.25-.793-3.496-2.279-.083-.501-.02-1.033.015-1.547.287-4.377-.197-8.651-1.884-12.675zm5.829 12.374c2.195-.255 3.873-.412 5.54-.651 1.428-.207 1.978-1.257 2.204-2.529.248-1.383-.195-2.399-1.494-2.95-1.428-.606-2.961-.974-4.391-1.577-.941-.396-1.84-.985-1.641-2.233.816-1.943 4.301-1.155 4.117-4.17-2.209-.538-4.02.198-5.825 1.527-.024 4.242.603 8.279 1.489 12.583z" fill="#000" sketch:type="MSShapeGroup"/><path d="M30.316 40.333c1.522-3.778 2.487-7.05 2.746-10.512.064-.867.101-1.741.241-2.595.171-1.033 1.347-1.871 2.259-1.704.941.176 1.687 1.44 1.358 2.455-.48 1.486-1.129 2.924-1.553 4.425-.757 2.673-1.487 5.359-2.057 8.076-.447 2.122-1.312 3.932-3.217 5.612-.682-.688-1.581-1.264-1.996-2.083-.915-1.804-1.583-3.732-2.66-6.364-.757 2.009-1.158 3.266-1.698 4.462-.715 1.577-1.494 3.135-2.336 4.649-.371.667-1.904.495-2.241-.222-.287-.612-.513-1.27-.658-1.93-.368-1.697-.706-3.403-1.007-5.113-.452-2.584-1.064-5.067-2.654-7.274-.897-1.244-.61-2.372.618-3.109.452-.27 1.472-.257 1.805.065.588.562.963 1.427 1.217 2.231.884 2.784 1.676 5.599 2.691 9.037.603-1.649 1.092-2.725 1.377-3.854.208-.83.143-1.728.206-2.595.086-1.135.564-1.991 1.728-2.335 1.143-.338 2.305.181 2.972 1.555.601 1.242.967 2.595 1.472 3.887.362.928.781 1.832 1.386 3.235" fill="#000" sketch:type="MSShapeGroup"/><path d="M127.696 36.978c.024-4.372.36-8.926-2.147-12.688 1.055-3.63 3.509-4.876 6.716-5.233 2.588-.29 5.154-.78 7.742-1.081.336-.039.976.473 1.053.821.081.379-.23 1.139-.546 1.255-1.787.658-3.621 1.2-5.454 1.728-1.643.471-3.307.874-5.077 1.335-.327 2.213.092 3.987.717 5.856 2.656-.203 5.062-.427 7.474-.532.382-.015 1.145.558 1.112.76-.097.593-.371 1.311-.825 1.654-.509.379-1.285.427-1.956.571-1.687.366-3.38.704-5.229 1.087v4.048c4.805 1.715 4.805 1.715 11.815-.342.879.76.649 1.542-.114 2.146-1.976 1.566-4.318 2.255-6.792 2.427-1.719.118-3.454.022-4.906.022l-3.581-3.834" fill="#000" sketch:type="MSShapeGroup"/><path d="M43.861 38.839c.638 3.869.531 5.109-.711 6.69-.265.34-.954.59-1.373.508-.404-.081-1-.636-1.011-.998-.053-1.898.083-3.797.096-5.697.018-2.588.147-5.189-.075-7.758-.279-3.255 1.36-5.734 4.636-6.257 1.182-.187 2.419-.03 3.669-.03 1.601 1.728 1.165 3.599.454 5.383-.636 1.595-1.526 3.087-2.454 4.917 2.928 2.41 6.281 4.431 7.788 8.52l-1.708 1.93c-.612-.292-.996-.359-1.191-.588-.564-.66-1.086-1.359-1.557-2.085-1.483-2.272-3.432-3.887-6.564-4.536zm3.086-10.185c-2.794.691-3.132 1.579-2.101 5.083 1.233-1.471 2.029-2.845 2.101-5.083z" fill="#000" sketch:type="MSShapeGroup"/><path d="M68.357 42.928c-3.81.109-1.783-3.353-3.141-5.141l-2.888.126c-.853 1.765-1.548 3.538-2.535 5.133-.783 1.264-1.954 1.344-3.237-.124.145-.453.211-1.152.555-1.667 2.393-3.547 3.452-7.555 4.31-11.658.39-1.863.908-3.708 1.489-5.521.316-.983 2.07-1.174 2.619-.288.728 1.174 1.509 2.39 1.884 3.697 1.36 4.719 1.603 9.584 1.557 14.461-.002.288-.347.571-.612.98zm-4.375-8.969c1.897-1.523 1.917-1.719 0-3.102v3.102z" fill="#000" sketch:type="MSShapeGroup"/><path d="M155.766 32.471l-3.84.275c-.364.381-.669.584-.803.865-.592 1.25-.961 2.64-1.744 3.749-.706 1-1.779.802-2.836-.322.487-1.527.884-3.192 1.54-4.747 1.421-3.377 2.443-6.843 2.95-10.47.092-.664.368-1.32.66-1.935.458-.965 2.026-1.218 2.627-.333 1.064 1.56 2.226 3.144 2.849 4.893 1.162 3.259 1.996 6.634 2.891 9.982.169.625.134 1.394-.086 1.998-.14.388-.759.686-1.226.841-.232.076-.759-.179-.886-.42-.702-1.346-1.322-2.736-2.097-4.375zm-2.066-8.324c-.507 1.974-.844 2.893-.952 3.839-.09.804.496 1.303 1.283 1.091.368-.098.897-.73.849-1.041-.154-.969-.548-1.904-1.18-3.889z" fill="#000" sketch:type="MSShapeGroup"/><path d="M78.823 31.416c.86-.098 1.739-.063 2.522-.32 1.044-.34 1.912-1.118 1.735-2.29-.18-1.176-.555-2.442-2.011-2.752-1.189-.253-2.472-.218-3.575-.654-.669-.264-1.439-1.152-1.5-1.821-.081-.865.752-1.492 1.774-1.442.695.035 1.388.235 2.077.211 4.011-.135 5.196 1.978 5.974 5.242.678 2.834-.237 4.566-2.924 5.897-1.38.684-2.818 1.246-4.29 1.889.149 1.355.415 2.545.362 3.719-.039.876-.662 1.625-1.665 1.686-1.053.063-1.494-.704-1.761-1.573-.099-.329-.162-.678-.173-1.02-.125-3.46-.213-6.913-1.136-10.296-.11-.403.548-1.333 1.02-1.479.5-.155 1.529.161 1.752.577.726 1.34 1.187 2.821 1.818 4.425" fill="#000" sketch:type="MSShapeGroup"/><path d="M166.353 23.305c-1.314-.329-2.351-.501-3.32-.856-.899-.329-1.325-1.105-1.23-2.07.101-1.057.869-1.529 1.794-1.516 4.7.065 9.402.203 14.115.314.452 1.684.268 2.379-.86 2.66-1.011.255-2.066.333-3.09.545-1.156.237-2.303.534-3.682.861.425 4.013.849 7.778 1.208 11.551.094 1.002.094 2.039-.066 3.028-.057.346-.708.808-1.112.83-.428.024-1.18-.329-1.272-.658-.415-1.486-.807-3.011-.908-4.54-.219-3.303-.555-6.571-1.577-10.148" fill="#000" sketch:type="MSShapeGroup"/><path d="M107.216 38.566c-.886-4.305-1.513-8.342-1.489-12.583 1.805-1.329 3.617-2.065 5.825-1.527.184 3.015-3.301 2.227-4.117 4.17-.2 1.248.7 1.837 1.641 2.233 1.43.603 2.963.972 4.391 1.577 1.298.551 1.741 1.566 1.494 2.95-.226 1.272-.776 2.322-2.204 2.529-1.667.24-3.345.396-5.54.651" fill="#fff" sketch:type="MSShapeGroup"/><path d="M46.947 28.654c-.072 2.237-.868 3.612-2.101 5.083-1.031-3.503-.693-4.392 2.101-5.083" fill="#fff" sketch:type="MSShapeGroup"/><path d="M63.982 33.959v-3.102c1.917 1.383 1.897 1.579 0 3.102" fill="#fff" sketch:type="MSShapeGroup"/><path d="M153.7 24.146c.632 1.985 1.026 2.919 1.18 3.889.048.312-.48.943-.849 1.041-.787.211-1.373-.288-1.283-1.091.107-.945.445-1.865.952-3.839" fill="#fff" sketch:type="MSShapeGroup"/></g></g></svg>