<?xml version="1.0" encoding="UTF-8" standalone="no"?>
<svg width="206px" height="105px" viewBox="0 0 206 105" version="1.1" xmlns="http://www.w3.org/2000/svg" xmlns:xlink="http://www.w3.org/1999/xlink" xmlns:sketch="http://www.bohemiancoding.com/sketch/ns">
    <!-- Generator: Sketch 3.1.1 (8761) - http://www.bohemiancoding.com/sketch -->
    <title>youll-shoot</title>
    <desc>Created with Sketch.</desc>
    <defs></defs>
    <g id="Page-1" stroke="none" stroke-width="1" fill="none" fill-rule="evenodd" sketch:type="MSPage">
        <g id="Group" sketch:type="MSLayerGroup">
            <path d="M148.284764,98.2207849 L148.284764,100.059723 C147.455404,100.059723 146.710631,100.173493 146.013308,100.041106 C142.083133,99.2984975 138.16121,99.6087794 134.210404,99.8735534 C130.932164,100.094888 127.629166,100.016283 124.338547,99.9294041 C117.804759,99.7577148 111.403009,100.916101 104.962061,101.693874 C101.945832,102.057938 98.908972,102.233765 95.8886168,102.558526 C90.9165841,103.096349 85.958993,103.787243 80.9766449,104.213364 C77.865514,104.480206 74.7234369,104.424355 71.5937383,104.442972 C62.705972,104.492617 53.8182056,104.507097 44.9283762,104.53192 C40.6722336,104.542262 36.4160911,104.548468 32.1578855,104.540194 C25.3600234,104.527783 18.5621612,104.507097 11.7642991,104.480206 C11.1061752,104.478137 10.4459883,104.420218 9.78786449,104.372642 C7.45245327,104.203021 7.25852336,104.002372 7.09347664,101.4291 C5.96703271,101.48702 4.83646262,101.569761 3.70382944,101.60079 C1.878,101.654572 1.32921963,101.23052 1.09609112,99.4122675 C0.961990654,98.3531718 1.04864019,97.267185 0.986747664,96.1977466 C0.939296729,95.3910135 0.823764019,94.5904861 0.718546729,93.7899587 C0.677285047,93.4672654 0.440030374,93.0928585 0.539058411,92.8425644 C1.46332009,90.5402724 0.241974299,88.2524602 0.48335514,86.0308414 C0.850584112,82.6322198 -0.123191589,79.2108442 1.25082243,75.7811944 C2.21015654,73.3858178 1.92751402,70.6056915 1.26113785,67.9931175 C1.08783879,67.3146343 0.939296729,66.4189538 1.23431776,65.8666519 C2.41646495,63.6533073 2.32775234,61.2269025 2.4886729,58.8853081 C2.63515187,56.7671166 2.16683178,54.6137599 2.17095794,52.4769516 C2.17508411,49.9243654 2.38551869,47.3717793 2.51961916,44.8191931 C2.70735981,41.2033741 2.97762383,37.5896237 3.08077804,33.9738047 C3.17774299,30.6062113 2.98587617,27.2303437 3.13441822,23.868956 C3.29121262,20.2717539 3.58829673,16.6704148 4.05249065,13.1001038 C4.23610514,11.6872867 5.30890888,10.5847515 6.8252757,10.2827438 C8.82027804,9.88971995 10.9060561,9.85455466 12.6472991,8.58239868 C12.8267874,8.45001171 13.1548178,8.3424473 13.3363692,8.41484643 C15.1663248,9.15331746 16.8972523,8.44380607 18.6673785,8.13352413 C20.4436939,7.82324218 20.6871379,8.06939919 20.8790047,10.2703325 C24.2108855,10.1110544 27.5613341,9.96832471 30.9097196,9.78836118 C33.4473131,9.65183712 35.9828435,9.47394214 38.5183738,9.30432134 C45.1511893,8.85751534 51.7840047,8.38795532 58.4168201,7.96390333 C61.1029556,7.79428253 63.7973435,7.7839398 66.4793528,7.58329081 C71.7175234,7.19233555 76.9453785,6.69381589 82.1835491,6.30286063 C83.064486,6.23666715 83.9701799,6.4890298 84.8655584,6.58832003 C89.1897827,7.07442841 93.5098808,7.59983918 97.8402944,8.01354844 C98.8800888,8.11283866 99.9570187,7.74877451 101.017444,7.76325434 C103.070213,7.78807689 105.125044,8.05698791 107.173687,7.99906862 C113.158694,7.82531072 119.154016,7.71154068 125.120456,7.25232339 C131.2375,6.78069483 137.327724,5.96155049 143.420012,5.22721655 C146.112336,4.90245478 148.769589,4.27154815 151.463977,4.02125404 C156.693895,3.53514566 161.859857,2.46157012 167.172299,2.7242755 C171.199439,2.9207874 175.263715,2.84218264 179.284666,2.54431197 C181.834638,2.35607426 184.434124,2.29194932 186.930456,1.33214383 C188.310659,0.802595972 189.942558,0.91016038 191.465114,0.777773416 C192.529666,0.684688832 193.60247,0.661934822 194.671147,0.626769535 C196.257659,0.570918784 197.844171,0.531616404 199.160418,0.492314024 C200.041355,1.76240146 200.823264,2.6394651 201.303963,3.65925844 C201.698012,4.4928826 201.858932,5.49199048 201.902257,6.42697341 C202.030168,9.132632 201.887815,11.8569075 202.133322,14.5480863 C202.803825,21.9224539 203.651752,29.2802731 204.353201,36.6505037 C204.569825,38.9486586 204.609023,41.2716362 204.604897,43.5822024 C204.596645,49.1734831 204.493491,54.7647638 204.470797,60.358113 C204.452229,65.3743379 204.408904,70.3946998 204.534752,75.4088561 C204.61315,78.5385666 204.926738,81.6662087 205.236201,84.7855765 C205.562168,88.0456055 206.146021,91.2870176 206.335825,94.5553208 C206.416285,95.9784807 206.086192,97.6084952 205.390932,98.8289375 C204.930864,99.6377391 203.540346,100.074202 202.481984,100.343113 C201.140979,100.684424 199.717451,100.763028 198.324869,100.820948 C195.304514,100.94506 192.27797,101.091927 189.257614,101.023665 C187.217224,100.976089 185.178897,100.605819 183.146759,100.330702 C178.354215,99.6832471 173.565797,98.9985583 168.771189,98.3469662 C167.551907,98.183551 166.324371,98.047027 165.096836,97.9725593 C159.522383,97.6312492 153.952056,97.5009307 148.284764,98.2207849 L148.284764,98.2207849 Z M5.79373364,97.2754592 C8.0198014,97.7015797 9.90752336,98.4731475 11.7189112,98.3221436 C15.1395047,98.0366842 18.5435935,97.5960839 21.9806916,97.354064 C25.2919416,97.1182497 28.5660561,97.2402939 31.7390794,97.8815433 C35.3701075,98.6179458 38.964,99.0337236 42.6404159,98.762744 C46.2343084,98.4979701 49.8447056,98.3304178 53.411778,97.8587893 C59.9950794,96.9920684 66.6175794,97.2940761 73.2153224,96.9341491 C74.6883645,96.8534757 76.221236,96.4066697 77.6179439,96.683855 C81.5831916,97.4740396 85.5463762,96.3549561 89.5343178,96.9817256 C91.9027383,97.354064 94.4176379,96.7004033 96.8727079,96.6300727 C101.894255,96.4894116 106.829152,95.7054325 111.776428,94.900768 C115.417771,94.3091638 119.106565,93.9864706 122.780918,93.6120637 C124.815119,93.4031405 126.869951,93.1714633 128.908278,93.2355882 C134.486857,93.405209 140.059248,93.7444506 145.637827,93.9802649 C147.690596,94.0671439 149.75368,93.9657851 151.802322,94.1085148 C154.752533,94.3133009 157.684175,94.786998 160.634386,94.9193849 C166.454346,95.1779532 172.282558,95.2606951 178.106645,95.4551384 C180.068638,95.5213319 182.030631,95.6723358 183.986435,95.8419566 C188.486021,96.2349804 192.981481,96.6673066 197.479005,97.0686046 C197.883369,97.1037699 198.300112,97.0520562 198.708603,97.0086167 C200.247664,96.8452016 201.198745,95.7447349 201.900194,94.5946232 C202.517056,93.583104 201.246196,93.0866529 200.777876,92.3730044 C200.561252,92.0441056 200.470477,91.6324648 200.301304,91.2084128 C200.843895,90.5402724 201.353477,89.9072972 201.68357,89.4997936 C201.582479,87.350574 201.506145,85.4185517 201.392675,83.488598 C201.285395,81.6868941 201.112096,79.8913959 201.015131,78.0896921 C200.893409,75.874279 200.920229,73.6464546 200.703605,71.4413842 C200.307493,67.4077189 200.449846,63.3906019 200.701542,59.3631423 C200.88722,56.405121 201.217313,53.4284829 201.060519,50.4849415 C200.732488,44.3496331 199.554467,38.2660384 199.995967,32.0831534 C200.006283,31.9176697 200.010409,31.7459804 199.979463,31.5867023 C198.875713,26.1981391 199.329591,20.6047899 197.848297,15.2638033 C197.807035,15.1127994 197.82354,14.9307673 197.864801,14.7756264 C198.735423,11.5073232 197.278886,8.49345119 196.990054,5.28513585 C193.713876,5.73814749 190.590367,6.21805023 187.452416,6.58625148 C185.385206,6.8282714 183.305617,7.30403705 181.228091,6.40628795 C180.588535,6.13117129 179.759175,6.20563896 179.02678,6.25942116 C176.897678,6.42076777 174.770638,6.63589659 172.647724,6.85723105 C168.816577,7.25232339 164.989556,7.69706085 161.156346,8.06112501 C158.129801,8.34865294 155.059932,8.3424473 152.070523,8.83889842 C148.284764,9.46980505 144.552645,9.25260768 140.787516,8.90716045 C139.817867,8.81614441 138.827586,8.80993877 137.855874,8.89061208 C132.865273,9.31052698 127.878799,9.76147008 122.890262,10.2206874 C121.258362,10.3716912 119.568696,10.3654856 118.015194,10.8143602 C114.161353,11.9313752 110.272439,11.8507019 106.344327,11.6272989 C105.199315,11.5631739 104.037799,11.6190247 102.89485,11.7307262 C98.9914953,12.1092702 95.0943294,12.5436649 91.1930374,12.9346201 C90.8815117,12.9656483 90.5555444,12.8043017 90.2316402,12.7774106 C88.5151542,12.6243382 86.7801005,12.2726853 85.0821822,12.4030037 C83.2976145,12.5415963 81.6512734,12.3099191 80.0069953,11.7183149 C79.8605164,11.6645327 79.678965,11.7059036 79.5139182,11.7059036 C77.2878505,11.7059036 75.0597196,11.676944 72.8315888,11.722452 C71.9362103,11.7390004 70.9933808,12.1568467 70.1619579,11.9768832 C67.3994883,11.3832104 64.6370187,11.5817908 61.8745491,11.7079722 C56.7168388,11.945855 51.5673808,12.3057821 46.4096706,12.506431 C44.6189136,12.5746931 42.815778,12.2395886 41.0188318,12.2395886 C39.2156963,12.2395886 37.4125607,12.4423061 35.6094252,12.5312536 C30.9344766,12.7608622 26.2388972,12.7877533 21.5907687,13.263519 C18.459007,13.5862122 15.4056425,13.7123935 12.2800701,13.2738617 C9.8126215,12.9263459 7.25027103,15.2431178 7.12854907,17.7584701 C6.93461916,21.7859298 6.69117523,25.8195952 6.76957243,29.8449863 C6.87272664,35.2045898 7.27709112,40.5600562 7.5267243,45.9175912 C7.66701402,48.9583543 7.84237617,51.9991174 7.8506285,55.0378119 C7.85888084,57.7517447 7.72065421,60.4718831 7.52466121,63.1796102 C7.44626402,64.284214 7.01714252,65.359858 6.79226636,66.4582561 C6.31982009,68.7729595 5.87832009,71.0917999 5.43682009,73.3382412 C6.22698131,73.7374706 6.78401402,74.0167244 7.32454206,74.2897725 C6.78195093,75.8680733 6.28268458,77.32433 5.75659813,78.8529857 C5.28621495,79.1032798 4.72092991,79.403219 4.2278528,79.6659244 C4.17008645,79.9575894 4.10406776,80.1230731 4.11438318,80.2823512 C4.38258411,84.3077423 4.65284813,88.3331335 4.94993224,92.3564561 C4.97262617,92.6522582 5.24701636,92.9232377 5.32747664,93.2252455 C5.50902804,93.8913174 5.69470561,94.563595 5.77722897,95.2462153 C5.8515,95.8626421 5.79373364,96.4976858 5.79373364,97.2754592 L5.79373364,97.2754592 Z M58.2827196,101.18708 C57.6617313,100.221069 56.8530023,100.444472 56.2774019,100.512734 C54.2493902,100.752686 52.2461355,101.276028 50.2139977,101.41462 C45.7123481,101.718697 41.1983201,101.846947 36.6884182,102.066212 C36.1086916,102.093104 35.5351542,102.229628 34.9595537,102.314438 C35.8714369,102.554389 36.7399953,102.3827 37.6023645,102.415797 C38.5678879,102.453031 39.5313481,102.815026 40.4886192,102.794341 C43.4223248,102.72401 46.3622196,102.635063 49.2835467,102.36822 C52.2110631,102.101378 55.1179486,101.613201 58.2827196,101.18708 L58.2827196,101.18708 Z M111.182259,97.7719103 C111.207016,97.9994504 111.231773,98.2290591 111.258593,98.4565991 C114.371787,97.9808335 117.484981,97.5029993 120.600238,97.0272336 C120.567229,96.8100363 120.53422,96.5928389 120.50121,96.3756415 C117.394206,96.8410645 114.289264,97.3064874 111.182259,97.7719103 L111.182259,97.7719103 Z M17.576007,101.944168 C17.576007,101.832467 17.5739439,101.718697 17.5739439,101.606995 L14.7887804,101.606995 C14.7887804,101.718697 14.7908435,101.832467 14.7908435,101.944168 L17.576007,101.944168 L17.576007,101.944168 Z" id="Fill-1" fill="#000000" sketch:type="MSShapeGroup"></path>
            <path d="M5.79373364,97.2754592 C5.79373364,96.4976858 5.8515,95.8626421 5.77722897,95.2462153 C5.69470561,94.563595 5.50902804,93.8913174 5.32747664,93.2252455 C5.24701636,92.9232377 4.97262617,92.6522582 4.94993224,92.3564561 C4.65284813,88.3331335 4.38258411,84.3077423 4.11438318,80.2823512 C4.10406776,80.1230731 4.17008645,79.9575894 4.2278528,79.6659244 C4.72092991,79.403219 5.28621495,79.1032798 5.75659813,78.8529857 C6.28268458,77.32433 6.78195093,75.8680733 7.32454206,74.2897725 C6.78401402,74.0167244 6.22698131,73.7374706 5.43682009,73.3382412 C5.87832009,71.0917999 6.31982009,68.7729595 6.79226636,66.4582561 C7.01714252,65.359858 7.44626402,64.284214 7.52466121,63.1796102 C7.72065421,60.4718831 7.85888084,57.7517447 7.8506285,55.0378119 C7.84237617,51.9991174 7.66701402,48.9583543 7.5267243,45.9175912 C7.27709112,40.5600562 6.87272664,35.2045898 6.76957243,29.8449863 C6.69117523,25.8195952 6.93461916,21.7859298 7.12854907,17.7584701 C7.25027103,15.2431178 9.8126215,12.9263459 12.2800701,13.2738617 C15.4056425,13.7123935 18.459007,13.5862122 21.5907687,13.263519 C26.2388972,12.7877533 30.9344766,12.7608622 35.6094252,12.5312536 C37.4125607,12.4423061 39.2156963,12.2395886 41.0188318,12.2395886 C42.815778,12.2395886 44.6189136,12.5746931 46.4096706,12.506431 C51.5673808,12.3057821 56.7168388,11.945855 61.8745491,11.7079722 C64.6370187,11.5817908 67.3994883,11.3832104 70.1619579,11.9768832 C70.9933808,12.1568467 71.9362103,11.7390004 72.8315888,11.722452 C75.0597196,11.676944 77.2878505,11.7059036 79.5139182,11.7059036 C79.678965,11.7059036 79.8605164,11.6645327 80.0069953,11.7183149 C81.6512734,12.3099191 83.2976145,12.5415963 85.0821822,12.4030037 C86.7801005,12.2726853 88.5151542,12.6243382 90.2316402,12.7774106 C90.5555444,12.8043017 90.8815117,12.9656483 91.1930374,12.9346201 C95.0943294,12.5436649 98.9914953,12.1092702 102.89485,11.7307262 C104.037799,11.6190247 105.199315,11.5631739 106.344327,11.6272989 C110.272439,11.8507019 114.161353,11.9313752 118.015194,10.8143602 C119.568696,10.3654856 121.258362,10.3716912 122.890262,10.2206874 C127.878799,9.76147008 132.865273,9.31052698 137.855874,8.89061208 C138.827586,8.80993877 139.817867,8.81614441 140.787516,8.90716045 C144.552645,9.25260768 148.284764,9.46980505 152.070523,8.83889842 C155.059932,8.3424473 158.129801,8.34865294 161.156346,8.06112501 C164.989556,7.69706085 168.816577,7.25232339 172.647724,6.85723105 C174.770638,6.63589659 176.897678,6.42076777 179.02678,6.25942116 C179.759175,6.20563896 180.588535,6.13117129 181.228091,6.40628795 C183.305617,7.30403705 185.385206,6.8282714 187.452416,6.58625148 C190.590367,6.21805023 193.713876,5.73814749 196.990054,5.28513585 C197.278886,8.49345119 198.735423,11.5073232 197.864801,14.7756264 C197.82354,14.9307673 197.807035,15.1127994 197.848297,15.2638033 C199.329591,20.6047899 198.875713,26.1981391 199.979463,31.5867023 C200.010409,31.7459804 200.006283,31.9176697 199.995967,32.0831534 C199.554467,38.2660384 200.732488,44.3496331 201.060519,50.4849415 C201.217313,53.4284829 200.88722,56.405121 200.701542,59.3631423 C200.449846,63.3906019 200.307493,67.4077189 200.703605,71.4413842 C200.920229,73.6464546 200.893409,75.874279 201.015131,78.0896921 C201.112096,79.8913959 201.285395,81.6868941 201.392675,83.488598 C201.506145,85.4185517 201.582479,87.350574 201.68357,89.4997936 C201.353477,89.9072972 200.843895,90.5402724 200.301304,91.2084128 C200.470477,91.6324648 200.561252,92.0441056 200.777876,92.3730044 C201.246196,93.0866529 202.517056,93.583104 201.900194,94.5946232 C201.198745,95.7447349 200.247664,96.8452016 198.708603,97.0086167 C198.300112,97.0520562 197.883369,97.1037699 197.479005,97.0686046 C192.981481,96.6673066 188.486021,96.2349804 183.986435,95.8419566 C182.030631,95.6723358 180.068638,95.5213319 178.106645,95.4551384 C172.282558,95.2606951 166.454346,95.1779532 160.634386,94.9193849 C157.684175,94.786998 154.752533,94.3133009 151.802322,94.1085148 C149.75368,93.9657851 147.690596,94.0671439 145.637827,93.9802649 C140.059248,93.7444506 134.486857,93.405209 128.908278,93.2355882 C126.869951,93.1714633 124.815119,93.4031405 122.780918,93.6120637 C119.106565,93.9864706 115.417771,94.3091638 111.776428,94.900768 C106.829152,95.7054325 101.894255,96.4894116 96.8727079,96.6300727 C94.4176379,96.7004033 91.9027383,97.354064 89.5343178,96.9817256 C85.5463762,96.3549561 81.5831916,97.4740396 77.6179439,96.683855 C76.221236,96.4066697 74.6883645,96.8534757 73.2153224,96.9341491 C66.6175794,97.2940761 59.9950794,96.9920684 53.411778,97.8587893 C49.8447056,98.3304178 46.2343084,98.4979701 42.6404159,98.762744 C38.964,99.0337236 35.3701075,98.6179458 31.7390794,97.8815433 C28.5660561,97.2402939 25.2919416,97.1182497 21.9806916,97.354064 C18.5435935,97.5960839 15.1395047,98.0366842 11.7189112,98.3221436 C9.90752336,98.4731475 8.0198014,97.7015797 5.79373364,97.2754592 L5.79373364,97.2754592 Z M157.255054,57.3773378 C155.866598,60.2753712 155.658227,63.0989369 156.42982,66.1190145 C157.558327,70.5415666 160.824189,72.4529034 164.929727,70.5415666 C168.152264,69.0418705 170.844589,66.9464331 170.986942,62.856917 C171.038519,61.3882491 171.391306,59.9278554 171.628561,58.3123207 C172.82515,57.9958331 174.077442,57.6648657 175.575241,57.2677048 C175.826937,58.2068249 176.084822,58.9639128 176.227175,59.7396177 C176.740883,62.5611149 177.167942,65.3991604 177.741479,68.2061778 C177.883832,68.9053464 178.455306,69.5134991 178.820472,70.1506113 C180.786591,69.1225438 180.786591,69.1225438 181.609762,66.987804 C178.678119,63.9532465 179.532236,60.1905608 179.356874,56.6843748 C182.523708,55.734912 185.422341,54.864054 188.320974,53.993196 C188.399371,53.970442 188.475706,53.9414824 188.554103,53.9145913 C189.911612,53.4181401 190.441825,52.5762418 190.014766,51.5936823 C189.678484,50.8159089 188.568544,50.5035584 187.402902,51.1075739 C183.309743,53.2278339 178.845229,53.7511761 174.384841,54.4089738 C172.233044,54.7254614 170.141077,55.443247 167.826297,56.0286456 C168.232724,57.2015114 168.694855,58.0889177 168.820703,59.0197636 C168.960993,60.0581738 168.880533,61.1482977 168.742306,62.1949822 C168.331752,65.2667735 166.524491,67.2256868 163.504136,67.9993231 C161.544206,68.5019799 160.027839,67.7386863 159.557456,65.7549504 C159.144839,64.0111658 158.85807,62.2508329 159.559519,60.4181009 C160.440456,58.1158088 160.005145,57.5986723 157.255054,57.3773378 L157.255054,57.3773378 Z M65.6891916,63.3471625 C67.0693949,61.5371844 68.4578505,60.0188714 69.4749509,58.2812925 C70.3125631,56.8539956 69.7369626,55.4784123 68.2288481,54.8206145 C67.1168458,54.3345062 65.8831215,53.9580307 64.6824065,53.8835631 C61.8745491,53.7077366 58.9160864,56.6367982 58.9800421,59.4686381 C59.0563762,62.8300259 59.2399907,66.1914137 59.396785,69.5528014 C59.4607407,70.8932194 60.3066051,71.3855335 61.5630234,70.96355 C63.2093645,70.4112482 62.9844883,68.9487859 63.0732009,67.7614403 C62.4790327,66.4479134 61.8518551,65.1199067 61.6744299,63.7339806 C61.5093832,62.4576876 61.6888715,61.0883099 61.9694509,59.8161539 C62.462528,57.5800553 63.8530467,56.6616208 65.8294813,57.0194793 C67.0198808,57.2366766 67.3293435,57.9772162 66.4855421,58.8335944 C65.625236,59.706521 64.6555864,60.4780887 63.6941893,61.2413823 C62.1200561,62.4928528 61.9921449,64.6193185 63.6157921,65.8170068 C65.4581262,67.1760417 67.3788575,68.460609 69.3903645,69.5424587 C70.2568598,70.0078816 71.4513855,70.0347727 72.4726121,69.9540994 C72.9326799,69.9168656 73.4649556,69.1908058 73.6939579,68.6591894 C73.7723551,68.4771573 73.0791589,67.7138638 72.639722,67.5980252 C69.8236121,66.8595541 67.7811589,64.9337375 65.6891916,63.3471625 L65.6891916,63.3471625 Z M90.3781192,63.9201498 C92.0327126,63.7546661 93.7058738,63.4547269 95.376972,63.4630011 C96.726229,63.4692067 96.8830234,62.6645422 96.8479509,61.7564504 C96.8273201,61.247588 96.3920093,60.7552739 96.1857009,60.3394961 C93.6233505,60.5235967 91.2095421,60.6994232 88.7874813,60.8731811 C88.3769276,59.3921019 88.0550864,58.2275103 87.6837313,56.8870923 C88.5708575,56.6326611 89.2578645,56.4175323 89.9531238,56.2396373 C91.3003178,55.8962586 92.6722687,55.6314847 93.9988318,55.2177754 C94.9581659,54.9199048 95.4863154,54.1504055 95.2325561,53.1306122 C94.9561028,52.0094601 94.1968879,51.8646619 93.1323364,52.2080405 C91.9831986,52.5783103 90.7309065,52.630024 89.590021,53.0189107 C88.1334836,53.5132933 86.6748832,54.0842121 85.3441939,54.8454371 C83.4915444,55.9024643 83.3368131,56.4589032 84.4962664,58.1530427 C85.8207664,60.0933391 86.2808341,62.2425587 86.2127523,64.4724517 C86.1756168,65.6494545 86.2911495,66.8595541 87.184465,67.3104972 C88.2118808,67.8297023 88.828743,68.6529838 89.6436612,69.3231928 C89.7880771,69.4410999 90.1140444,69.3583581 90.3533621,69.3397412 C92.8043061,69.1473664 95.2614393,69.0046367 97.7020678,68.7274514 C98.933729,68.5867903 100.074614,68.1192988 100.483105,66.7499212 C99.2473178,65.7115109 99.2514439,65.7218536 98.3643178,65.916297 C97.6546168,66.071438 96.9428528,66.2844982 96.2248995,66.3155264 C93.9204346,66.4127481 91.6139065,66.4396392 89.3280093,66.4913529 C89.6436612,65.7197851 90.0026379,64.8406529 90.3781192,63.9201498 L90.3781192,63.9201498 Z M114.481131,21.7176678 C114.415112,24.2661169 116.686568,26.4691187 115.855145,29.230628 C113.994243,29.4147287 112.141593,29.5988293 110.21261,29.7891355 C109.432764,28.2770282 109.397692,26.6635621 109.709217,25.0273419 C109.913463,23.9558349 109.399755,23.1718559 108.555953,22.8284772 C108.097949,22.6402395 107.2624,22.9381101 106.802332,23.2876945 C106.138019,23.7944883 105.923458,24.5412335 106.230857,25.4762165 C107.398563,29.007225 107.485213,32.6747577 107.299535,36.3402217 C107.210822,38.1336514 107.305724,38.4066995 108.978886,38.9093563 C109.515287,38.3487802 109.956787,37.8461235 110.441612,37.3889747 C110.798526,37.0518017 111.244152,36.8056447 111.592813,36.462266 C112.442804,35.6203676 112.275694,34.6626307 111.186386,34.1620425 C110.856292,34.00897 110.464306,33.9903531 109.892832,33.8641718 C110.191979,33.3553094 110.3529,32.7719793 110.577776,32.7471568 C112.576904,32.5237538 114.51414,31.5556741 116.595792,32.0997018 C117.185834,33.9345024 115.613764,36.4146894 118.285458,37.5296359 C118.572227,37.3124385 118.770283,37.1738459 118.95596,37.0207735 C119.20972,36.8118503 119.440785,36.5739675 119.702797,36.3774556 C121.091252,35.3349082 121.043801,35.3700735 120.179369,33.986216 C119.762626,33.3180756 119.436659,32.5258223 119.312874,31.752186 C118.869311,28.9906767 118.580479,26.2064133 118.134853,23.4469725 C117.736678,20.9895395 116.948579,20.6296124 114.481131,21.7176678 L114.481131,21.7176678 Z M153.617836,59.752029 C153.743685,55.3212028 150.533526,54.1173088 147.566811,54.6199656 C143.754231,55.2674206 140.884481,57.5200675 138.893605,60.8793867 C137.703206,62.8858766 137.884757,65.7404706 139.40525,67.7738516 C140.878292,69.7389706 143.477778,70.7360099 145.743044,70.0058131 C150.351974,68.5205968 153.747811,65.1943743 153.617836,59.752029 L153.617836,59.752029 Z M128.627699,65.5811925 C125.974572,65.1674832 123.985759,67.4304729 121.458481,66.9547073 C121.336759,66.4789416 121.200596,65.9473252 121.103631,65.560507 C120.552787,64.7972134 118.90232,66.2679499 119.038484,64.7103345 C121.516248,63.1920215 124.47471,63.6698557 126.74204,61.7130109 C124.196194,59.3031544 121.493554,61.6612972 118.906446,61.2041485 L118.906446,58.0827121 C121.85872,56.6761006 124.936841,55.2115698 128.147,53.6829141 C127.854042,53.0168422 127.614724,52.4707459 127.268126,51.6846983 C124.790362,52.5596934 122.490023,53.4015918 120.171117,54.1772966 C119.331442,54.4586189 118.452568,54.6799534 117.575757,54.7647638 C115.729297,54.9447273 115.306364,55.6687185 115.692161,57.5200675 C116.0924,59.4355414 116.238879,61.4027289 116.480259,63.3512996 C116.610234,64.4062582 116.498827,65.5439587 116.857804,66.5099698 C117.990437,69.5672813 119.970998,71.1579934 122.950091,69.8093012 C123.620593,69.5072934 124.410755,69.399729 124.994607,68.9880883 C126.253089,68.1006819 128.074792,67.8007427 128.627699,65.5811925 L128.627699,65.5811925 Z M21.7331215,61.2393138 C20.8645631,60.1905608 20.1940607,59.1645618 19.3089977,58.3826513 C18.5745397,57.7351963 18.2547617,57.0174107 18.0793995,56.1175931 C17.7493061,54.4317278 17.0684883,53.8111639 15.465472,53.9497565 C14.8094112,54.0056073 13.9738621,54.3324376 13.6313902,54.8247516 C13.406514,55.1474449 13.7881846,56.0803593 14.1327196,56.5768104 C15.2075864,58.1302887 16.3216519,59.6692871 17.5574393,61.0945155 C18.9397056,62.6872962 19.3337547,64.5241653 19.2636098,66.5223811 C19.2099696,68.0572424 19.0820584,69.5900353 18.9644626,71.1228281 C18.8571822,72.5170283 19.4286565,73.4830394 20.4498832,73.5740555 C21.5391916,73.6712772 22.3706145,72.637004 22.3664883,71.2179812 C22.3602991,68.7812337 22.3644252,66.3444861 22.3644252,63.7918999 C24.4852757,63.7794887 24.786486,62.3708086 25.2073551,60.9931568 C25.9294346,58.6370825 26.6659556,56.2810082 27.5303879,53.9745791 C27.9553832,52.8451528 27.8996799,51.9391295 27.2291776,51.0951626 C25.4198528,51.134465 24.7844229,52.1728753 24.344986,53.6767084 C23.6146542,56.1734438 22.6573832,58.6039858 21.7331215,61.2393138 L21.7331215,61.2393138 Z M162.713974,29.2347651 C162.895526,31.7728715 163.077077,34.0813692 163.93532,36.3257419 C167.316715,34.4930099 167.24657,34.0524095 166.452283,31.9652463 C165.40011,29.1995998 165.936512,26.3305261 165.34028,23.5855651 C168.505051,22.1479254 171.696643,22.7953804 174.613843,22.4168365 C175.218327,20.7144228 174.603528,19.7918512 173.627689,19.2623033 C169.272519,19.9118269 165.131909,20.5096368 160.999551,21.1529547 C159.21911,21.4301399 157.422164,21.680434 155.693299,22.1624053 C154.424502,22.5140581 154.263582,23.3332025 154.9444,24.4646973 C155.569514,25.5072447 156.411252,25.5817123 157.481993,25.1742087 C158.837439,24.6591407 160.238273,24.2640483 161.86811,23.736569 C161.89493,25.0956039 162.821255,26.216756 161.160472,26.8993763 C160.706593,27.0855455 160.34968,27.5054604 159.947379,27.8178109 C160.351743,28.291508 160.681836,28.8789752 161.183166,29.1954627 C161.521512,29.408523 162.101238,29.2347651 162.713974,29.2347651 L162.713974,29.2347651 Z M40.7630093,34.5467921 C40.7217477,33.940708 40.7176215,32.9478058 40.5773318,31.9735205 C40.2080397,29.4105916 38.7288084,28.3349475 36.1788364,28.7010802 C35.9539603,28.7321084 35.6795701,28.8851808 35.5186495,28.8024389 C33.9424533,28.0143228 33.2471939,29.1354749 32.6262056,30.1945706 C31.8876215,31.4584524 31.1057126,32.7409511 30.6538972,34.118603 C29.6512383,37.177983 29.4634977,40.2456372 31.6194206,42.9761183 C32.0526682,43.5263516 32.6654042,44.076585 33.3070234,44.2896452 C35.555785,45.038459 38.400778,43.6918354 39.5004019,41.5922608 C40.6041519,39.4844121 40.9032991,37.2565878 40.7630093,34.5467921 L40.7630093,34.5467921 Z M48.7615864,41.0006566 C48.3283388,40.1546211 47.7898738,39.5444 47.7176659,38.8845337 C47.4597804,36.5512135 46.566465,34.2303045 47.5423037,31.8369964 C47.7754322,31.2640091 47.7651168,30.4986469 47.6124486,29.8842887 C47.4535911,29.2368337 47.1090561,28.3059878 46.6345467,28.1508469 C46.124965,27.9874317 45.1883248,28.4218264 44.7736449,28.8913864 C44.361028,29.3609465 44.2805678,30.188365 44.2042336,30.8751224 C44.1423411,31.4170815 44.4703715,32.0252341 44.3424603,32.5299594 C43.6389486,35.2769889 44.3280187,37.9557564 44.7922126,40.6014271 C45.3513084,43.7952627 49.0297874,45.1274065 51.5797593,43.1560819 C52.380236,42.5375865 52.9805935,41.6191519 53.5561939,40.7586367 C54.5897991,39.2134326 54.9178294,37.4551682 54.9384603,35.6058878 C54.957028,34.1248086 54.8724416,32.5899473 55.2355444,31.1833358 C55.619278,29.6919139 55.3366355,28.4838828 54.7383411,27.1869043 L52.0439533,27.1869043 C51.9531776,28.0639679 51.6622827,28.8913864 51.8314556,29.6112406 C52.3472266,31.8080367 52.1244136,33.9841475 51.9614299,36.1788751 C51.8087617,38.2163932 50.8679953,39.7160893 48.7615864,41.0006566 L48.7615864,41.0006566 Z M35.7538411,56.4092581 C35.3040888,57.9296397 35.7909766,58.8377315 37.0556472,59.5865453 C38.5699509,60.4822258 39.4199416,61.9343453 39.1764977,63.7422548 C39.0031986,65.0288906 38.5905818,66.2927724 38.1985958,67.5401059 C37.8891332,68.5205968 36.044736,69.7637932 35.1411051,69.5652127 C34.0146612,69.3190557 33.1832383,68.5826532 33.0986519,67.3828963 C33.0305701,66.4396392 32.9996238,65.3805435 33.3586005,64.5489879 C33.961021,63.1444449 34.8873458,61.8805631 35.6733808,60.5628991 C34.5531262,58.6308769 33.4060514,58.1509741 32.6097009,59.4127874 C30.9901799,61.986059 29.4614346,64.6627579 29.863736,67.9165813 C30.1546308,70.2581757 32.7541168,72.9183263 34.8625888,73.0548503 C36.7688785,73.1768946 40.166778,70.785655 40.6742967,68.8515642 C41.1137336,67.1822473 41.3117897,65.446737 41.7904252,63.7898314 C42.2525561,62.1929136 41.8151822,60.8855924 40.9115514,59.6320533 C40.4308528,58.9639128 39.8903248,58.3371433 39.4426355,57.6462488 C38.5699509,56.2975566 37.4270023,55.7907628 35.7538411,56.4092581 L35.7538411,56.4092581 Z M129.617979,24.6115641 C129.058883,24.6115641 128.638014,24.6674149 128.235713,24.6012214 C126.226269,24.270254 124.910021,25.3107328 123.954813,26.8704167 C122.454951,29.3195755 122.566357,31.9714519 123.65154,34.4681873 C124.792425,37.0890355 127.078322,37.9516193 129.943946,37.5875552 C132.157636,37.3083014 133.803977,36.1023389 135.188306,34.6129856 C136.972874,32.6975117 137.992037,28.0991332 135.060395,25.9312967 C133.414054,24.7129229 131.557278,24.0985646 129.617979,24.6115641 L129.617979,24.6115641 Z M16.9323248,23.9434236 C16.7610888,25.3396924 16.9756495,26.5125582 17.6936028,27.7392061 C18.5064579,29.1230636 19.0779322,30.6889532 19.5214953,32.2424315 C20.2807103,34.9005135 19.7443084,37.5854866 19.31725,40.237363 C19.1336355,41.3833377 19.7525607,42.7465097 20.6974533,42.9326789 C21.8816636,43.164356 22.7089603,42.3886512 22.8306822,40.8806809 C22.8925748,40.1422099 22.84925,39.3954646 22.9111425,38.6590622 C23.0617477,36.8801123 23.2329836,35.2294124 24.5471682,33.6904139 C26.0098949,31.9797261 26.993986,29.8429177 28.1121776,27.8509076 C28.9270958,26.4008567 28.663021,25.1452491 27.5757757,24.6591407 C26.7443528,24.2868023 25.8737313,24.8328986 25.1660935,26.2270988 C24.6461963,27.2530978 24.2273902,28.3349475 23.657979,29.3299183 C23.414535,29.7519017 22.898764,30.0166756 22.3417313,30.4945098 C21.7021752,28.4652659 20.9553388,26.7400983 20.64175,24.9383944 C20.2868995,22.9070819 20.1342313,22.6464451 18.2650771,23.3145856 C17.8111986,23.4759322 17.3882664,23.7241577 16.9323248,23.9434236 L16.9323248,23.9434236 Z M146.401168,24.516411 C144.614537,23.827585 143.102297,25.387269 141.711778,26.4298163 C139.788984,27.8715931 139.370178,32.2176089 140.48218,34.4392277 C141.637507,36.7497939 144.437112,38.5908001 146.560026,38.2805182 C149.557687,37.8419864 151.948801,36.4043467 153.372329,33.6242204 C155.348764,29.7560388 153.663224,25.9126797 149.471037,24.8101446 C148.612794,24.584673 147.684407,24.630181 146.401168,24.516411 L146.401168,24.516411 Z M89.2723061,40.6986488 C91.0754416,40.5993586 92.9899836,40.7731165 94.7477313,40.3263105 C97.1017103,39.7264321 98.7583668,37.9971273 99.4041121,35.614162 C100.08493,33.1029467 98.7315467,30.8502998 96.2414042,29.9256596 C95.3955397,29.6133091 94.5022243,29.3795634 93.7203154,28.9472372 C92.7898645,28.4342377 92.7362243,27.5633797 93.4830607,26.7649208 C93.7574509,26.4691187 94.1102383,26.2477842 94.4774673,25.9519821 C95.0819509,26.2726068 95.647236,26.5704775 96.1671332,26.8476627 C97.4648131,26.3284575 97.8609252,25.4741479 97.4359299,24.2454314 C97.0253762,23.0539487 95.991771,22.8677796 95.0118061,23.0394689 C93.8152173,23.2463235 92.6186285,23.6290046 91.5086893,24.1316614 C89.0041051,25.2672933 88.5316589,28.3349475 90.3863715,30.4014253 C91.135271,31.2350494 91.8965491,31.8163109 93.0374346,32.0293712 C93.9039299,32.1907178 94.7044065,32.6995802 95.5358294,33.0533016 C96.4394603,33.4359827 96.6519579,34.1620425 96.5921285,35.0701343 C96.4786589,36.8139188 96.0330327,37.223491 93.5222593,37.7944098 C93.1735981,37.1883257 92.827,36.5822417 92.4907173,35.996843 C89.2434229,37.3682893 88.8163645,37.957825 89.2723061,40.6986488 L89.2723061,40.6986488 Z M44.1258364,58.3661029 C43.9215911,60.3891412 43.7111565,62.0936234 43.5853084,63.8022427 C43.3686846,66.7602639 44.3197664,69.3190557 46.5561495,71.2572836 C47.1585701,71.7785573 48.1942383,72.1053876 48.9885257,72.0391941 C51.6045164,71.8157911 53.3787687,70.3326434 53.950243,67.7428234 C54.6351869,64.6317297 55.0704977,61.4730595 54.9137033,58.4302279 C53.6531589,57.0505075 52.4710117,57.3132129 51.0722407,58.1509741 C51.1465117,58.817046 51.0412944,59.6155049 51.3383785,60.2091777 C52.6525631,62.8424372 51.7035444,65.3184871 50.7710304,67.6952468 C50.2036822,69.1452978 48.5119533,69.0563503 47.647521,67.7159323 C47.3855093,67.3084287 47.2163364,66.832663 47.057479,66.3693086 C46.3539673,64.3276534 46.6551776,62.341849 47.3174276,60.3394961 C47.7857477,58.926679 47.3875724,58.3764457 45.9124673,58.2275103 C45.3698762,58.1737281 44.8107804,58.3081836 44.1258364,58.3661029 L44.1258364,58.3661029 Z M107.505843,68.8370844 C109.663829,69.0398019 110.404477,68.5495565 110.330206,66.7437155 C110.272439,65.3764064 109.816498,64.0235771 109.57718,62.8610541 C110.020743,61.6737085 110.418918,60.6249555 110.806778,59.5720654 C111.53711,57.5883295 111.879582,55.4597954 113.24328,53.7160108 C113.909657,52.8637697 114.245939,51.827428 113.284542,50.8593483 C111.984799,50.7352356 111.357621,51.4075131 110.850103,52.5121169 C109.95885,54.4503448 108.906678,56.314105 107.689458,58.657768 C106.635222,57.0649873 105.727465,55.8300652 104.970313,54.5061955 C104.270928,53.2816161 103.470451,52.361113 101.952021,52.4438548 C100.965867,54.1359257 101.019507,55.0233321 102.39971,56.3285848 C105.056963,58.8460057 106.267993,62.1391314 107.307787,65.492245 C107.631692,66.5368609 107.454266,67.7386863 107.505843,68.8370844 L107.505843,68.8370844 Z M67.1436659,22.8119288 C64.0242827,22.5885258 63.663243,23.0022351 64.2099603,25.6127405 C64.8618949,28.738314 65.2600701,31.8887101 65.0723294,35.1052996 C64.9609229,37.0352533 65.0537617,38.9776183 65.0537617,41.0730557 C65.6974439,41.3068014 66.4999836,41.5984665 67.4056776,41.9273653 C68.1091893,40.8682696 68.7714393,39.8753674 69.4728879,38.8183402 C68.5795724,37.7882042 67.6883201,36.9256203 67.8739977,35.3742106 C68.3794533,31.2060898 67.7770327,27.0772713 67.1436659,22.8119288 L67.1436659,22.8119288 Z M76.6008435,40.8641325 C74.5377593,34.7495096 74.9978271,28.8789752 75.1855678,23.0291262 C73.083285,21.9141797 72.2415467,22.3113406 72.3013762,24.5288223 C72.3735841,27.242755 72.7016145,29.9546192 72.6974883,32.6664835 C72.6933621,34.8467313 73.0502757,37.0352533 72.4746752,39.2361866 C72.2993131,39.9063956 72.8109579,41.0234106 73.3700537,41.5529585 C74.0426192,42.1921393 75.0617827,42.0039016 75.8663855,41.3854062 C76.1283972,41.1847572 76.4048505,41.0027251 76.6008435,40.8641325 L76.6008435,40.8641325 Z M59.9084299,25.4265714 C58.7489766,25.4472568 57.7834533,26.7256184 58.2001963,27.8591818 C58.5694883,28.8582897 59.0852593,29.8139581 59.6340397,30.7303241 C60.1353692,31.5701539 61.0699463,31.7335691 61.6847453,30.995098 C62.2232103,30.3497116 62.9370374,29.3071642 62.7451706,28.7093544 C62.3449322,27.466158 62.0086495,25.9292281 60.3994439,25.4741479 C60.2447126,25.4286399 60.0734766,25.4410512 59.9084299,25.4265714 L59.9084299,25.4265714 Z" id="Fill-30" sketch:type="MSShapeGroup"></path>
            <path d="M58.2827196,101.18708 C55.1179486,101.613201 52.2110631,102.101378 49.2835467,102.36822 C46.3622196,102.635063 43.4223248,102.72401 40.4886192,102.794341 C39.5313481,102.815026 38.5678879,102.453031 37.6023645,102.415797 C36.7399953,102.3827 35.8714369,102.554389 34.9595537,102.314438 C35.5351542,102.229628 36.1086916,102.093104 36.6884182,102.066212 C41.1983201,101.846947 45.7123481,101.718697 50.2139977,101.41462 C52.2461355,101.276028 54.2493902,100.752686 56.2774019,100.512734 C56.8530023,100.444472 57.6617313,100.221069 58.2827196,101.18708" id="Fill-31" sketch:type="MSShapeGroup"></path>
            <path d="M111.182259,97.7719103 C114.289264,97.3064874 117.394206,96.8410645 120.50121,96.3756415 C120.53422,96.5928389 120.567229,96.8100363 120.600238,97.0272336 C117.484981,97.5029993 114.371787,97.9808335 111.258593,98.4565991 C111.231773,98.2290591 111.207016,97.9994504 111.182259,97.7719103" id="Fill-32" sketch:type="MSShapeGroup"></path>
            <path d="M17.576007,101.944168 L14.7908435,101.944168 C14.7908435,101.832467 14.7887804,101.718697 14.7887804,101.606995 L17.5739439,101.606995 C17.5739439,101.718697 17.576007,101.832467 17.576007,101.944168" id="Fill-33" sketch:type="MSShapeGroup"></path>
            <path d="M157.255054,57.3773378 C160.005145,57.5986723 160.440456,58.1158088 159.559519,60.4181009 C158.85807,62.2508329 159.144839,64.0111658 159.557456,65.7549504 C160.027839,67.7386863 161.544206,68.5019799 163.504136,67.9993231 C166.524491,67.2256868 168.331752,65.2667735 168.742306,62.1949822 C168.880533,61.1482977 168.960993,60.0581738 168.820703,59.0197636 C168.694855,58.0889177 168.232724,57.2015114 167.826297,56.0286456 C170.141077,55.443247 172.233044,54.7254614 174.384841,54.4089738 C178.845229,53.7511761 183.309743,53.2278339 187.402902,51.1075739 C188.568544,50.5035584 189.678484,50.8159089 190.014766,51.5936823 C190.441825,52.5762418 189.911612,53.4181401 188.554103,53.9145913 C188.475706,53.9414824 188.399371,53.970442 188.320974,53.993196 C185.422341,54.864054 182.523708,55.734912 179.356874,56.6843748 C179.532236,60.1905608 178.678119,63.9532465 181.609762,66.987804 C180.786591,69.1225438 180.786591,69.1225438 178.820472,70.1506113 C178.455306,69.5134991 177.883832,68.9053464 177.741479,68.2061778 C177.167942,65.3991604 176.740883,62.5611149 176.227175,59.7396177 C176.084822,58.9639128 175.826937,58.2068249 175.575241,57.2677048 C174.077442,57.6648657 172.82515,57.9958331 171.628561,58.3123207 C171.391306,59.9278554 171.038519,61.3882491 170.986942,62.856917 C170.844589,66.9464331 168.152264,69.0418705 164.929727,70.5415666 C160.824189,72.4529034 157.558327,70.5415666 156.42982,66.1190145 C155.658227,63.0989369 155.866598,60.2753712 157.255054,57.3773378" id="Fill-67" fill="#000000" sketch:type="MSShapeGroup"></path>
            <path d="M65.6891916,63.3471625 C67.7811589,64.9337375 69.8236121,66.8595541 72.639722,67.5980252 C73.0791589,67.7138638 73.7723551,68.4771573 73.6939579,68.6591894 C73.4649556,69.1908058 72.9326799,69.9168656 72.4726121,69.9540994 C71.4513855,70.0347727 70.2568598,70.0078816 69.3903645,69.5424587 C67.3788575,68.460609 65.4581262,67.1760417 63.6157921,65.8170068 C61.9921449,64.6193185 62.1200561,62.4928528 63.6941893,61.2413823 C64.6555864,60.4780887 65.625236,59.706521 66.4855421,58.8335944 C67.3293435,57.9772162 67.0198808,57.2366766 65.8294813,57.0194793 C63.8530467,56.6616208 62.462528,57.5800553 61.9694509,59.8161539 C61.6888715,61.0883099 61.5093832,62.4576876 61.6744299,63.7339806 C61.8518551,65.1199067 62.4790327,66.4479134 63.0732009,67.7614403 C62.9844883,68.9487859 63.2093645,70.4112482 61.5630234,70.96355 C60.3066051,71.3855335 59.4607407,70.8932194 59.396785,69.5528014 C59.2399907,66.1914137 59.0563762,62.8300259 58.9800421,59.4686381 C58.9160864,56.6367982 61.8745491,53.7077366 64.6824065,53.8835631 C65.8831215,53.9580307 67.1168458,54.3345062 68.2288481,54.8206145 C69.7369626,55.4784123 70.3125631,56.8539956 69.4749509,58.2812925 C68.4578505,60.0188714 67.0693949,61.5371844 65.6891916,63.3471625" id="Fill-68" fill="#000000" sketch:type="MSShapeGroup"></path>
            <path d="M90.3781192,63.9201498 C90.0026379,64.8406529 89.6436612,65.7197851 89.3280093,66.4913529 C91.6139065,66.4396392 93.9204346,66.4127481 96.2248995,66.3155264 C96.9428528,66.2844982 97.6546168,66.071438 98.3643178,65.916297 C99.2514439,65.7218536 99.2473178,65.7115109 100.483105,66.7499212 C100.074614,68.1192988 98.933729,68.5867903 97.7020678,68.7274514 C95.2614393,69.0046367 92.8043061,69.1473664 90.3533621,69.3397412 C90.1140444,69.3583581 89.7880771,69.4410999 89.6436612,69.3231928 C88.828743,68.6529838 88.2118808,67.8297023 87.184465,67.3104972 C86.2911495,66.8595541 86.1756168,65.6494545 86.2127523,64.4724517 C86.2808341,62.2425587 85.8207664,60.0933391 84.4962664,58.1530427 C83.3368131,56.4589032 83.4915444,55.9024643 85.3441939,54.8454371 C86.6748832,54.0842121 88.1334836,53.5132933 89.590021,53.0189107 C90.7309065,52.630024 91.9831986,52.5783103 93.1323364,52.2080405 C94.1968879,51.8646619 94.9561028,52.0094601 95.2325561,53.1306122 C95.4863154,54.1504055 94.9581659,54.9199048 93.9988318,55.2177754 C92.6722687,55.6314847 91.3003178,55.8962586 89.9531238,56.2396373 C89.2578645,56.4175323 88.5708575,56.6326611 87.6837313,56.8870923 C88.0550864,58.2275103 88.3769276,59.3921019 88.7874813,60.8731811 C91.2095421,60.6994232 93.6233505,60.5235967 96.1857009,60.3394961 C96.3920093,60.7552739 96.8273201,61.247588 96.8479509,61.7564504 C96.8830234,62.6645422 96.726229,63.4692067 95.376972,63.4630011 C93.7058738,63.4547269 92.0327126,63.7546661 90.3781192,63.9201498" id="Fill-69" fill="#000000" sketch:type="MSShapeGroup"></path>
            <path d="M114.481131,21.7176678 C116.948579,20.6296124 117.736678,20.9895395 118.134853,23.4469725 C118.580479,26.2064133 118.869311,28.9906767 119.312874,31.752186 C119.436659,32.5258223 119.762626,33.3180756 120.179369,33.986216 C121.043801,35.3700735 121.091252,35.3349082 119.702797,36.3774556 C119.440785,36.5739675 119.20972,36.8118503 118.95596,37.0207735 C118.770283,37.1738459 118.572227,37.3124385 118.285458,37.5296359 C115.613764,36.4146894 117.185834,33.9345024 116.595792,32.0997018 C114.51414,31.5556741 112.576904,32.5237538 110.577776,32.7471568 C110.3529,32.7719793 110.191979,33.3553094 109.892832,33.8641718 C110.464306,33.9903531 110.856292,34.00897 111.186386,34.1620425 C112.275694,34.6626307 112.442804,35.6203676 111.592813,36.462266 C111.244152,36.8056447 110.798526,37.0518017 110.441612,37.3889747 C109.956787,37.8461235 109.515287,38.3487802 108.978886,38.9093563 C107.305724,38.4066995 107.210822,38.1336514 107.299535,36.3402217 C107.485213,32.6747577 107.398563,29.007225 106.230857,25.4762165 C105.923458,24.5412335 106.138019,23.7944883 106.802332,23.2876945 C107.2624,22.9381101 108.097949,22.6402395 108.555953,22.8284772 C109.399755,23.1718559 109.913463,23.9558349 109.709217,25.0273419 C109.397692,26.6635621 109.432764,28.2770282 110.21261,29.7891355 C112.141593,29.5988293 113.994243,29.4147287 115.855145,29.230628 C116.686568,26.4691187 114.415112,24.2661169 114.481131,21.7176678" id="Fill-70" fill="#000000" sketch:type="MSShapeGroup"></path>
            <path d="M153.617836,59.752029 C153.747811,65.1943743 150.351974,68.5205968 145.743044,70.0058131 C143.477778,70.7360099 140.878292,69.7389706 139.40525,67.7738516 C137.884757,65.7404706 137.703206,62.8858766 138.893605,60.8793867 C140.884481,57.5200675 143.754231,55.2674206 147.566811,54.6199656 C150.533526,54.1173088 153.743685,55.3212028 153.617836,59.752029 L153.617836,59.752029 Z M151.142136,60.2112463 C151.142136,60.0374884 151.152451,59.7892628 151.140072,59.5431058 C151.034855,57.6627972 150.343722,57.2718419 148.651993,58.0827121 C148.253818,58.2730184 147.762804,58.457119 147.354313,58.3950626 C145.237589,58.0744379 143.762484,59.0197636 142.456551,60.5691048 C141.303287,61.9364139 140.742129,63.5395373 141.385811,65.1033583 C142.017114,66.6340826 143.655203,67.2774005 145.287103,67.188453 C146.279446,67.1346708 147.393512,66.7747437 148.189862,66.1914137 C150.131224,64.7661852 151.008035,62.6831591 151.142136,60.2112463 L151.142136,60.2112463 Z" id="Fill-71" fill="#000000" sketch:type="MSShapeGroup"></path>
            <path d="M128.627699,65.5811925 C128.074792,67.8007427 126.253089,68.1006819 124.994607,68.9880883 C124.410755,69.399729 123.620593,69.5072934 122.950091,69.8093012 C119.970998,71.1579934 117.990437,69.5672813 116.857804,66.5099698 C116.498827,65.5439587 116.610234,64.4062582 116.480259,63.3512996 C116.238879,61.4027289 116.0924,59.4355414 115.692161,57.5200675 C115.306364,55.6687185 115.729297,54.9447273 117.575757,54.7647638 C118.452568,54.6799534 119.331442,54.4586189 120.171117,54.1772966 C122.490023,53.4015918 124.790362,52.5596934 127.268126,51.6846983 C127.614724,52.4707459 127.854042,53.0168422 128.147,53.6829141 C124.936841,55.2115698 121.85872,56.6761006 118.906446,58.0827121 L118.906446,61.2041485 C121.493554,61.6612972 124.196194,59.3031544 126.74204,61.7130109 C124.47471,63.6698557 121.516248,63.1920215 119.038484,64.7103345 C118.90232,66.2679499 120.552787,64.7972134 121.103631,65.560507 C121.200596,65.9473252 121.336759,66.4789416 121.458481,66.9547073 C123.985759,67.4304729 125.974572,65.1674832 128.627699,65.5811925" id="Fill-72" fill="#000000" sketch:type="MSShapeGroup"></path>
            <path d="M21.7331215,61.2393138 C22.6573832,58.6039858 23.6146542,56.1734438 24.344986,53.6767084 C24.7844229,52.1728753 25.4198528,51.134465 27.2291776,51.0951626 C27.8996799,51.9391295 27.9553832,52.8451528 27.5303879,53.9745791 C26.6659556,56.2810082 25.9294346,58.6370825 25.2073551,60.9931568 C24.786486,62.3708086 24.4852757,63.7794887 22.3644252,63.7918999 C22.3644252,66.3444861 22.3602991,68.7812337 22.3664883,71.2179812 C22.3706145,72.637004 21.5391916,73.6712772 20.4498832,73.5740555 C19.4286565,73.4830394 18.8571822,72.5170283 18.9644626,71.1228281 C19.0820584,69.5900353 19.2099696,68.0572424 19.2636098,66.5223811 C19.3337547,64.5241653 18.9397056,62.6872962 17.5574393,61.0945155 C16.3216519,59.6692871 15.2075864,58.1302887 14.1327196,56.5768104 C13.7881846,56.0803593 13.406514,55.1474449 13.6313902,54.8247516 C13.9738621,54.3324376 14.8094112,54.0056073 15.465472,53.9497565 C17.0684883,53.8111639 17.7493061,54.4317278 18.0793995,56.1175931 C18.2547617,57.0174107 18.5745397,57.7351963 19.3089977,58.3826513 C20.1940607,59.1645618 20.8645631,60.1905608 21.7331215,61.2393138" id="Fill-73" fill="#000000" sketch:type="MSShapeGroup"></path>
            <path d="M162.713974,29.2347651 C162.101238,29.2347651 161.521512,29.408523 161.183166,29.1954627 C160.681836,28.8789752 160.351743,28.291508 159.947379,27.8178109 C160.34968,27.5054604 160.706593,27.0855455 161.160472,26.8993763 C162.821255,26.216756 161.89493,25.0956039 161.86811,23.736569 C160.238273,24.2640483 158.837439,24.6591407 157.481993,25.1742087 C156.411252,25.5817123 155.569514,25.5072447 154.9444,24.4646973 C154.263582,23.3332025 154.424502,22.5140581 155.693299,22.1624053 C157.422164,21.680434 159.21911,21.4301399 160.999551,21.1529547 C165.131909,20.5096368 169.272519,19.9118269 173.627689,19.2623033 C174.603528,19.7918512 175.218327,20.7144228 174.613843,22.4168365 C171.696643,22.7953804 168.505051,22.1479254 165.34028,23.5855651 C165.936512,26.3305261 165.40011,29.1995998 166.452283,31.9652463 C167.24657,34.0524095 167.316715,34.4930099 163.93532,36.3257419 C163.077077,34.0813692 162.895526,31.7728715 162.713974,29.2347651" id="Fill-74" fill="#000000" sketch:type="MSShapeGroup"></path>
            <path d="M40.7630093,34.5467921 C40.9032991,37.2565878 40.6041519,39.4844121 39.5004019,41.5922608 C38.400778,43.6918354 35.555785,45.038459 33.3070234,44.2896452 C32.6654042,44.076585 32.0526682,43.5263516 31.6194206,42.9761183 C29.4634977,40.2456372 29.6512383,37.177983 30.6538972,34.118603 C31.1057126,32.7409511 31.8876215,31.4584524 32.6262056,30.1945706 C33.2471939,29.1354749 33.9424533,28.0143228 35.5186495,28.8024389 C35.6795701,28.8851808 35.9539603,28.7321084 36.1788364,28.7010802 C38.7288084,28.3349475 40.2080397,29.4105916 40.5773318,31.9735205 C40.7176215,32.9478058 40.7217477,33.940708 40.7630093,34.5467921 L40.7630093,34.5467921 Z M36.7007967,31.5391257 C33.3998621,33.3635836 33.028507,36.1664638 33.2781402,39.2920373 C33.3689159,40.4297378 34.0765537,40.9861768 34.9079766,41.1785516 C35.7889136,41.3833377 36.6863551,41.0027251 37.0907196,40.0036173 C37.2743341,39.5464685 37.5837967,39.0996625 37.6229953,38.628034 C37.7777266,36.7787536 37.9510257,34.9170619 37.885007,33.0677815 C37.8643762,32.5216852 37.0804042,32.0024801 36.7007967,31.5391257 L36.7007967,31.5391257 Z" id="Fill-75" fill="#000000" sketch:type="MSShapeGroup"></path>
            <path d="M48.7615864,41.0006566 C50.8679953,39.7160893 51.8087617,38.2163932 51.9614299,36.1788751 C52.1244136,33.9841475 52.3472266,31.8080367 51.8314556,29.6112406 C51.6622827,28.8913864 51.9531776,28.0639679 52.0439533,27.1869043 L54.7383411,27.1869043 C55.3366355,28.4838828 55.619278,29.6919139 55.2355444,31.1833358 C54.8724416,32.5899473 54.957028,34.1248086 54.9384603,35.6058878 C54.9178294,37.4551682 54.5897991,39.2134326 53.5561939,40.7586367 C52.9805935,41.6191519 52.380236,42.5375865 51.5797593,43.1560819 C49.0297874,45.1274065 45.3513084,43.7952627 44.7922126,40.6014271 C44.3280187,37.9557564 43.6389486,35.2769889 44.3424603,32.5299594 C44.4703715,32.0252341 44.1423411,31.4170815 44.2042336,30.8751224 C44.2805678,30.188365 44.361028,29.3609465 44.7736449,28.8913864 C45.1883248,28.4218264 46.124965,27.9874317 46.6345467,28.1508469 C47.1090561,28.3059878 47.4535911,29.2368337 47.6124486,29.8842887 C47.7651168,30.4986469 47.7754322,31.2640091 47.5423037,31.8369964 C46.566465,34.2303045 47.4597804,36.5512135 47.7176659,38.8845337 C47.7898738,39.5444 48.3283388,40.1546211 48.7615864,41.0006566" id="Fill-76" fill="#000000" sketch:type="MSShapeGroup"></path>
            <path d="M35.7538411,56.4092581 C37.4270023,55.7907628 38.5699509,56.2975566 39.4426355,57.6462488 C39.8903248,58.3371433 40.4308528,58.9639128 40.9115514,59.6320533 C41.8151822,60.8855924 42.2525561,62.1929136 41.7904252,63.7898314 C41.3117897,65.446737 41.1137336,67.1822473 40.6742967,68.8515642 C40.166778,70.785655 36.7688785,73.1768946 34.8625888,73.0548503 C32.7541168,72.9183263 30.1546308,70.2581757 29.863736,67.9165813 C29.4614346,64.6627579 30.9901799,61.986059 32.6097009,59.4127874 C33.4060514,58.1509741 34.5531262,58.6308769 35.6733808,60.5628991 C34.8873458,61.8805631 33.961021,63.1444449 33.3586005,64.5489879 C32.9996238,65.3805435 33.0305701,66.4396392 33.0986519,67.3828963 C33.1832383,68.5826532 34.0146612,69.3190557 35.1411051,69.5652127 C36.044736,69.7637932 37.8891332,68.5205968 38.1985958,67.5401059 C38.5905818,66.2927724 39.0031986,65.0288906 39.1764977,63.7422548 C39.4199416,61.9343453 38.5699509,60.4822258 37.0556472,59.5865453 C35.7909766,58.8377315 35.3040888,57.9296397 35.7538411,56.4092581" id="Fill-77" fill="#000000" sketch:type="MSShapeGroup"></path>
            <path d="M129.617979,24.6115641 C131.557278,24.0985646 133.414054,24.7129229 135.060395,25.9312967 C137.992037,28.0991332 136.972874,32.6975117 135.188306,34.6129856 C133.803977,36.1023389 132.157636,37.3083014 129.943946,37.5875552 C127.078322,37.9516193 124.792425,37.0890355 123.65154,34.4681873 C122.566357,31.9714519 122.454951,29.3195755 123.954813,26.8704167 C124.910021,25.3107328 126.226269,24.270254 128.235713,24.6012214 C128.638014,24.6674149 129.058883,24.6115641 129.617979,24.6115641 L129.617979,24.6115641 Z M127.189729,28.0163913 C126.017897,29.2885473 125.689867,30.6910217 125.881734,32.2279517 C126.067411,33.7048937 126.950411,34.6688363 128.324425,34.9956666 C131.322086,35.7093151 134.65603,32.9726283 134.515741,29.9173854 C134.460037,28.7321084 132.640397,27.0669286 131.633612,27.3379082 C131.338591,27.8591818 131.025002,28.4114837 130.637143,29.0982411 C129.432301,28.7196971 128.297605,28.3639071 127.189729,28.0163913 L127.189729,28.0163913 Z" id="Fill-78" fill="#000000" sketch:type="MSShapeGroup"></path>
            <path d="M16.9323248,23.9434236 C17.3882664,23.7241577 17.8111986,23.4759322 18.2650771,23.3145856 C20.1342313,22.6464451 20.2868995,22.9070819 20.64175,24.9383944 C20.9553388,26.7400983 21.7021752,28.4652659 22.3417313,30.4945098 C22.898764,30.0166756 23.414535,29.7519017 23.657979,29.3299183 C24.2273902,28.3349475 24.6461963,27.2530978 25.1660935,26.2270988 C25.8737313,24.8328986 26.7443528,24.2868023 27.5757757,24.6591407 C28.663021,25.1452491 28.9270958,26.4008567 28.1121776,27.8509076 C26.993986,29.8429177 26.0098949,31.9797261 24.5471682,33.6904139 C23.2329836,35.2294124 23.0617477,36.8801123 22.9111425,38.6590622 C22.84925,39.3954646 22.8925748,40.1422099 22.8306822,40.8806809 C22.7089603,42.3886512 21.8816636,43.164356 20.6974533,42.9326789 C19.7525607,42.7465097 19.1336355,41.3833377 19.31725,40.237363 C19.7443084,37.5854866 20.2807103,34.9005135 19.5214953,32.2424315 C19.0779322,30.6889532 18.5064579,29.1230636 17.6936028,27.7392061 C16.9756495,26.5125582 16.7610888,25.3396924 16.9323248,23.9434236" id="Fill-79" fill="#000000" sketch:type="MSShapeGroup"></path>
            <path d="M146.401168,24.516411 C147.684407,24.630181 148.612794,24.584673 149.471037,24.8101446 C153.663224,25.9126797 155.348764,29.7560388 153.372329,33.6242204 C151.948801,36.4043467 149.557687,37.8419864 146.560026,38.2805182 C144.437112,38.5908001 141.637507,36.7497939 140.48218,34.4392277 C139.370178,32.2176089 139.788984,27.8715931 141.711778,26.4298163 C143.102297,25.387269 144.614537,23.827585 146.401168,24.516411 L146.401168,24.516411 Z M146.925192,35.4011017 C150.116783,35.6762184 151.593951,33.3822005 151.837395,30.5544977 C152.002442,28.6307496 149.36582,26.5911629 147.587442,27.1889728 C146.450682,27.5695853 145.330428,28.0060486 144.228741,28.4797457 C143.886269,28.6266125 143.54586,28.9265517 143.349867,29.2451079 C142.423542,30.7551467 142.763951,32.3355161 143.54586,33.694551 C144.206047,34.8446627 145.363437,35.5893394 146.925192,35.4011017 L146.925192,35.4011017 Z" id="Fill-80" fill="#000000" sketch:type="MSShapeGroup"></path>
            <path d="M89.2723061,40.6986488 C88.8163645,37.957825 89.2434229,37.3682893 92.4907173,35.996843 C92.827,36.5822417 93.1735981,37.1883257 93.5222593,37.7944098 C96.0330327,37.223491 96.4786589,36.8139188 96.5921285,35.0701343 C96.6519579,34.1620425 96.4394603,33.4359827 95.5358294,33.0533016 C94.7044065,32.6995802 93.9039299,32.1907178 93.0374346,32.0293712 C91.8965491,31.8163109 91.135271,31.2350494 90.3863715,30.4014253 C88.5316589,28.3349475 89.0041051,25.2672933 91.5086893,24.1316614 C92.6186285,23.6290046 93.8152173,23.2463235 95.0118061,23.0394689 C95.991771,22.8677796 97.0253762,23.0539487 97.4359299,24.2454314 C97.8609252,25.4741479 97.4648131,26.3284575 96.1671332,26.8476627 C95.647236,26.5704775 95.0819509,26.2726068 94.4774673,25.9519821 C94.1102383,26.2477842 93.7574509,26.4691187 93.4830607,26.7649208 C92.7362243,27.5633797 92.7898645,28.4342377 93.7203154,28.9472372 C94.5022243,29.3795634 95.3955397,29.6133091 96.2414042,29.9256596 C98.7315467,30.8502998 100.08493,33.1029467 99.4041121,35.614162 C98.7583668,37.9971273 97.1017103,39.7264321 94.7477313,40.3263105 C92.9899836,40.7731165 91.0754416,40.5993586 89.2723061,40.6986488" id="Fill-81" fill="#000000" sketch:type="MSShapeGroup"></path>
            <path d="M44.1258364,58.3661029 C44.8107804,58.3081836 45.3698762,58.1737281 45.9124673,58.2275103 C47.3875724,58.3764457 47.7857477,58.926679 47.3174276,60.3394961 C46.6551776,62.341849 46.3539673,64.3276534 47.057479,66.3693086 C47.2163364,66.832663 47.3855093,67.3084287 47.647521,67.7159323 C48.5119533,69.0563503 50.2036822,69.1452978 50.7710304,67.6952468 C51.7035444,65.3184871 52.6525631,62.8424372 51.3383785,60.2091777 C51.0412944,59.6155049 51.1465117,58.817046 51.0722407,58.1509741 C52.4710117,57.3132129 53.6531589,57.0505075 54.9137033,58.4302279 C55.0704977,61.4730595 54.6351869,64.6317297 53.950243,67.7428234 C53.3787687,70.3326434 51.6045164,71.8157911 48.9885257,72.0391941 C48.1942383,72.1053876 47.1585701,71.7785573 46.5561495,71.2572836 C44.3197664,69.3190557 43.3686846,66.7602639 43.5853084,63.8022427 C43.7111565,62.0936234 43.9215911,60.3891412 44.1258364,58.3661029" id="Fill-82" fill="#000000" sketch:type="MSShapeGroup"></path>
            <path d="M107.505843,68.8370844 C107.454266,67.7386863 107.631692,66.5368609 107.307787,65.492245 C106.267993,62.1391314 105.056963,58.8460057 102.39971,56.3285848 C101.019507,55.0233321 100.965867,54.1359257 101.952021,52.4438548 C103.470451,52.361113 104.270928,53.2816161 104.970313,54.5061955 C105.727465,55.8300652 106.635222,57.0649873 107.689458,58.657768 C108.906678,56.314105 109.95885,54.4503448 110.850103,52.5121169 C111.357621,51.4075131 111.984799,50.7352356 113.284542,50.8593483 C114.245939,51.827428 113.909657,52.8637697 113.24328,53.7160108 C111.879582,55.4597954 111.53711,57.5883295 110.806778,59.5720654 C110.418918,60.6249555 110.020743,61.6737085 109.57718,62.8610541 C109.816498,64.0235771 110.272439,65.3764064 110.330206,66.7437155 C110.404477,68.5495565 109.663829,69.0398019 107.505843,68.8370844" id="Fill-83" fill="#000000" sketch:type="MSShapeGroup"></path>
            <path d="M67.1436659,22.8119288 C67.7770327,27.0772713 68.3794533,31.2060898 67.8739977,35.3742106 C67.6883201,36.9256203 68.5795724,37.7882042 69.4728879,38.8183402 C68.7714393,39.8753674 68.1091893,40.8682696 67.4056776,41.9273653 C66.4999836,41.5984665 65.6974439,41.3068014 65.0537617,41.0730557 C65.0537617,38.9776183 64.9609229,37.0352533 65.0723294,35.1052996 C65.2600701,31.8887101 64.8618949,28.738314 64.2099603,25.6127405 C63.663243,23.0022351 64.0242827,22.5885258 67.1436659,22.8119288" id="Fill-84" fill="#000000" sketch:type="MSShapeGroup"></path>
            <path d="M76.6008435,40.8641325 C76.4048505,41.0027251 76.1283972,41.1847572 75.8663855,41.3854062 C75.0617827,42.0039016 74.0426192,42.1921393 73.3700537,41.5529585 C72.8109579,41.0234106 72.2993131,39.9063956 72.4746752,39.2361866 C73.0502757,37.0352533 72.6933621,34.8467313 72.6974883,32.6664835 C72.7016145,29.9546192 72.3735841,27.242755 72.3013762,24.5288223 C72.2415467,22.3113406 73.083285,21.9141797 75.1855678,23.0291262 C74.9978271,28.8789752 74.5377593,34.7495096 76.6008435,40.8641325" id="Fill-85" fill="#000000" sketch:type="MSShapeGroup"></path>
            <path d="M59.9084299,25.4265714 C60.0734766,25.4410512 60.2447126,25.4286399 60.3994439,25.4741479 C62.0086495,25.9292281 62.3449322,27.466158 62.7451706,28.7093544 C62.9370374,29.3071642 62.2232103,30.3497116 61.6847453,30.995098 C61.0699463,31.7335691 60.1353692,31.5701539 59.6340397,30.7303241 C59.0852593,29.8139581 58.5694883,28.8582897 58.2001963,27.8591818 C57.7834533,26.7256184 58.7489766,25.4472568 59.9084299,25.4265714" id="Fill-86" fill="#000000" sketch:type="MSShapeGroup"></path>
            <path d="M151.142136,60.2112463 C151.008035,62.6831591 150.131224,64.7661852 148.189862,66.1914137 C147.393512,66.7747437 146.279446,67.1346708 145.287103,67.188453 C143.655203,67.2774005 142.017114,66.6340826 141.385811,65.1033583 C140.742129,63.5395373 141.303287,61.9364139 142.456551,60.5691048 C143.762484,59.0197636 145.237589,58.0744379 147.354313,58.3950626 C147.762804,58.457119 148.253818,58.2730184 148.651993,58.0827121 C150.343722,57.2718419 151.034855,57.6627972 151.140072,59.5431058 C151.152451,59.7892628 151.142136,60.0374884 151.142136,60.2112463" id="Fill-224" sketch:type="MSShapeGroup"></path>
            <path d="M36.7007967,31.5391257 C37.0804042,32.0024801 37.8643762,32.5216852 37.885007,33.0677815 C37.9510257,34.9170619 37.7777266,36.7787536 37.6229953,38.628034 C37.5837967,39.0996625 37.2743341,39.5464685 37.0907196,40.0036173 C36.6863551,41.0027251 35.7889136,41.3833377 34.9079766,41.1785516 C34.0765537,40.9861768 33.3689159,40.4297378 33.2781402,39.2920373 C33.028507,36.1664638 33.3998621,33.3635836 36.7007967,31.5391257" id="Fill-225" sketch:type="MSShapeGroup"></path>
            <path d="M127.189729,28.0163913 C128.297605,28.3639071 129.432301,28.7196971 130.637143,29.0982411 C131.025002,28.4114837 131.338591,27.8591818 131.633612,27.3379082 C132.640397,27.0669286 134.460037,28.7321084 134.515741,29.9173854 C134.65603,32.9726283 131.322086,35.7093151 128.324425,34.9956666 C126.950411,34.6688363 126.067411,33.7048937 125.881734,32.2279517 C125.689867,30.6910217 126.017897,29.2885473 127.189729,28.0163913" id="Fill-226" sketch:type="MSShapeGroup"></path>
            <path d="M146.925192,35.4011017 C145.363437,35.5893394 144.206047,34.8446627 143.54586,33.694551 C142.763951,32.3355161 142.423542,30.7551467 143.349867,29.2451079 C143.54586,28.9265517 143.886269,28.6266125 144.228741,28.4797457 C145.330428,28.0060486 146.450682,27.5695853 147.587442,27.1889728 C149.36582,26.5911629 152.002442,28.6307496 151.837395,30.5544977 C151.593951,33.3822005 150.116783,35.6762184 146.925192,35.4011017" id="Fill-227" sketch:type="MSShapeGroup"></path>
        </g>
    </g>
</svg>