<svg width="206" height="105" viewBox="0 0 206 105" xmlns="http://www.w3.org/2000/svg" xmlns:sketch="http://www.bohemiancoding.com/sketch/ns"><title>youll-shoot</title><desc>Created with Sketch.</desc><g sketch:type="MSLayerGroup" fill="none"><path d="M148.285 98.221v1.839c-.829 0-1.574.114-2.271-.019-3.93-.743-7.852-.432-11.803-.168-3.278.221-6.581.143-9.872.056-6.534-.172-12.936.987-19.376 1.764-3.016.364-6.053.54-9.073.865-4.972.538-9.93 1.229-14.912 1.655-3.111.267-6.253.211-9.383.23-8.888.05-17.776.064-26.665.089-4.256.01-8.512.017-12.77.008-6.798-.012-13.596-.033-20.394-.06-.658-.002-1.318-.06-1.976-.108-2.335-.17-2.529-.37-2.694-2.944-1.126.058-2.257.141-3.39.172-1.826.054-2.375-.37-2.608-2.189-.134-1.059-.047-2.145-.109-3.215-.047-.807-.163-1.607-.268-2.408-.041-.323-.279-.697-.179-.947.924-2.302-.297-4.59-.056-6.812.367-3.399-.607-6.82.767-10.25.959-2.395.677-5.176.01-7.788-.173-.678-.322-1.574-.027-2.126 1.182-2.213 1.093-4.64 1.254-6.981.146-2.118-.322-4.272-.318-6.408.004-2.553.215-5.105.349-7.658.188-3.616.458-7.23.561-10.845.097-3.368-.095-6.743.054-10.105.157-3.597.454-7.199.918-10.769.184-1.413 1.256-2.515 2.773-2.817 1.995-.393 4.081-.428 5.822-1.7.179-.132.508-.24.689-.168 1.83.738 3.561.029 5.331-.281 1.776-.31 2.02-.064 2.212 2.137 3.332-.159 6.682-.302 10.031-.482 2.538-.137 5.073-.314 7.609-.484 6.633-.447 13.266-.916 19.898-1.34 2.686-.17 5.381-.18 8.063-.381l15.704-1.28c.881-.066 1.787.186 2.682.285 4.324.486 8.644 1.012 12.975 1.425 1.04.099 2.117-.265 3.177-.25 2.053.025 4.108.294 6.156.236 5.985-.174 11.98-.288 17.947-.747 6.117-.472 12.207-1.291 18.3-2.025 2.692-.325 5.35-.956 8.044-1.206 5.23-.486 10.396-1.56 15.708-1.297 4.027.197 8.091.118 12.112-.18 2.55-.188 5.149-.252 7.646-1.212 1.38-.53 3.012-.422 4.535-.554 1.065-.093 2.137-.116 3.206-.151 1.587-.056 3.173-.095 4.489-.134.881 1.27 1.663 2.147 2.144 3.167.394.834.555 1.833.598 2.768.128 2.706-.014 5.43.231 8.121.671 7.374 1.518 14.732 2.22 22.102.217 2.298.256 4.621.252 6.932-.008 5.591-.111 11.183-.134 16.776-.019 5.016-.062 10.037.064 15.051.078 3.13.392 6.257.701 9.377.326 3.26.91 6.501 1.1 9.77.08 1.423-.25 3.053-.945 4.274-.46.809-1.851 1.245-2.909 1.514-1.341.341-2.765.42-4.157.478-3.02.124-6.047.271-9.067.203-2.04-.048-4.079-.418-6.111-.693-4.793-.647-9.581-1.332-14.376-1.984-1.219-.163-2.447-.3-3.674-.374-5.574-.341-11.145-.472-16.812.248zm-142.491-.945c2.226.426 4.114 1.198 5.925 1.047 3.421-.285 6.825-.726 10.262-.968 3.311-.236 6.585-.114 9.758.527 3.631.736 7.225 1.152 10.901.881 3.594-.265 7.204-.432 10.771-.904 6.583-.867 13.206-.565 19.804-.925 1.473-.081 3.006-.527 4.403-.25 3.965.79 7.928-.329 11.916.298 2.368.372 4.883-.281 7.338-.352 5.022-.141 9.956-.925 14.904-1.729 3.641-.592 7.33-.914 11.004-1.289 2.034-.209 4.089-.441 6.127-.376 5.579.17 11.151.509 16.73.745 2.053.087 4.116-.014 6.164.128 2.95.205 5.882.678 8.832.811 5.82.259 11.648.341 17.472.536 1.962.066 3.924.217 5.88.387 4.5.393 8.995.825 13.493 1.227.404.035.821-.017 1.23-.06 1.539-.163 2.49-1.264 3.192-2.414.617-1.012-.654-1.508-1.122-2.222-.217-.329-.307-.741-.477-1.165l1.382-1.709c-.101-2.149-.177-4.081-.291-6.011-.107-1.802-.281-3.597-.378-5.399-.122-2.215-.095-4.443-.312-6.648-.396-4.034-.254-8.051-.002-12.078.186-2.958.516-5.935.359-8.878-.328-6.135-1.506-12.219-1.065-18.402.01-.165.014-.337-.017-.496-1.104-5.389-.65-10.982-2.131-16.323-.041-.151-.025-.333.017-.488.871-3.268-.586-6.282-.875-9.49-3.276.453-6.4.933-9.538 1.301-2.067.242-4.147.718-6.224-.18-.64-.275-1.469-.201-2.201-.147-2.129.161-4.256.376-6.379.598-3.831.395-7.658.84-11.491 1.204-3.027.288-6.096.281-9.086.778-3.786.631-7.518.414-11.283.068-.97-.091-1.96-.097-2.932-.017-4.991.42-9.977.871-14.966 1.33-1.632.151-3.322.145-4.875.594-3.854 1.117-7.743 1.036-11.671.813-1.145-.064-2.307-.008-3.449.103-3.903.379-7.801.813-11.702 1.204-.312.031-.637-.13-.961-.157-1.716-.153-3.452-.505-5.149-.374-1.785.139-3.431-.093-5.075-.685-.146-.054-.328-.012-.493-.012-2.226 0-4.454-.029-6.682.017-.895.017-1.838.434-2.67.254-2.762-.594-5.525-.395-8.287-.269-5.158.238-10.307.598-15.465.798-1.791.068-3.594-.267-5.391-.267-1.803 0-3.606.203-5.409.292-4.675.23-9.371.256-14.019.732-3.132.323-6.185.449-9.311.01-2.467-.348-5.03 1.969-5.152 4.485-.194 4.027-.437 8.061-.359 12.087.103 5.36.508 10.715.757 16.073.14 3.041.316 6.082.324 9.12.008 2.714-.13 5.434-.326 8.142-.078 1.105-.508 2.18-.732 3.279-.472 2.315-.914 4.634-1.355 6.88l1.888.952-1.568 4.563-1.529.813c-.058.292-.124.457-.113.616.268 4.025.538 8.051.836 12.074.023.296.297.567.378.869.182.666.367 1.338.45 2.021.074.616.017 1.251.017 2.029zm52.489 3.912c-.621-.966-1.43-.743-2.005-.674-2.028.24-4.031.763-6.063.902-4.502.304-9.016.432-13.526.652-.58.027-1.153.163-1.729.248.912.24 1.78.068 2.643.101.966.037 1.929.399 2.886.379 2.934-.07 5.874-.159 8.795-.426 2.928-.267 5.834-.755 8.999-1.181zm52.9-3.415l.076.685c3.113-.476 6.226-.954 9.342-1.429l-.099-.652-9.319 1.396zm-93.606 4.172l-.002-.337h-2.785l.002.337h2.785z" fill="#000" sketch:type="MSShapeGroup"/><path d="M5.794 97.275c0-.778.058-1.413-.017-2.029-.083-.683-.268-1.355-.45-2.021-.08-.302-.355-.573-.378-.869-.297-4.023-.567-8.049-.836-12.074-.01-.159.056-.325.113-.616l1.529-.813 1.568-4.563-1.888-.952c.441-2.246.883-4.565 1.355-6.88.225-1.098.654-2.174.732-3.279.196-2.708.334-5.428.326-8.142-.008-3.039-.184-6.079-.324-9.12-.25-5.358-.654-10.713-.757-16.073-.078-4.025.165-8.059.359-12.087.122-2.515 2.684-4.832 5.152-4.485 3.126.439 6.179.312 9.311-.01 4.648-.476 9.344-.503 14.019-.732 1.803-.089 3.606-.292 5.409-.292 1.797 0 3.6.335 5.391.267 5.158-.201 10.307-.561 15.465-.798 2.762-.126 5.525-.325 8.287.269.831.18 1.774-.238 2.67-.254 2.228-.046 4.456-.017 6.682-.017.165 0 .347-.041.493.012 1.644.592 3.291.823 5.075.685 1.698-.13 3.433.221 5.149.374.324.027.65.188.961.157 3.901-.391 7.798-.825 11.702-1.204 1.143-.112 2.304-.168 3.449-.103 3.928.223 7.817.304 11.671-.813 1.554-.449 3.243-.443 4.875-.594 4.989-.459 9.975-.91 14.966-1.33.972-.081 1.962-.074 2.932.017 3.765.345 7.497.563 11.283-.068 2.989-.496 6.059-.49 9.086-.778 3.833-.364 7.66-.809 11.491-1.204 2.123-.221 4.25-.436 6.379-.598.732-.054 1.562-.128 2.201.147 2.078.898 4.157.422 6.224.18 3.138-.368 6.261-.848 9.538-1.301.289 3.208 1.745 6.222.875 9.49-.041.155-.058.337-.017.488 1.481 5.341 1.027 10.934 2.131 16.323.031.159.027.331.017.496-.442 6.183.737 12.266 1.065 18.402.157 2.944-.173 5.92-.359 8.878-.252 4.027-.394 8.045.002 12.078.217 2.205.19 4.433.312 6.648.097 1.802.27 3.597.378 5.399.113 1.93.19 3.862.291 6.011l-1.382 1.709c.169.424.26.836.477 1.165.468.714 1.739 1.21 1.122 2.222-.701 1.15-1.653 2.251-3.192 2.414-.408.043-.825.095-1.23.06-4.498-.401-8.993-.834-13.493-1.227-1.956-.17-3.918-.321-5.88-.387-5.824-.194-11.652-.277-17.472-.536-2.95-.132-5.882-.606-8.832-.811-2.049-.143-4.112-.041-6.164-.128-5.579-.236-11.151-.575-16.73-.745-2.038-.064-4.093.168-6.127.376-3.674.374-7.363.697-11.004 1.289-4.947.805-9.882 1.589-14.904 1.729-2.455.07-4.97.724-7.338.352-3.988-.627-7.951.492-11.916-.298-1.397-.277-2.93.17-4.403.25-6.598.36-13.22.058-19.804.925-3.567.472-7.177.639-10.771.904-3.676.271-7.27-.145-10.901-.881-3.173-.641-6.447-.763-9.758-.527-3.437.242-6.841.683-10.262.968-1.811.151-3.699-.621-5.925-1.047zm151.461-39.898c-1.388 2.898-1.597 5.722-.825 8.742 1.129 4.423 4.394 6.334 8.5 4.423 3.223-1.5 5.915-3.595 6.057-7.685.052-1.469.404-2.929.642-4.545 1.197-.316 2.449-.647 3.947-1.045.252.939.51 1.696.652 2.472.514 2.821.941 5.66 1.514 8.467.142.699.714 1.307 1.079 1.944 1.966-1.028 1.966-1.028 2.789-3.163-2.932-3.035-2.078-6.797-2.253-10.303 3.167-.949 6.065-1.82 8.964-2.691l.233-.079c1.358-.496 1.888-1.338 1.461-2.321-.336-.778-1.446-1.09-2.612-.486-4.093 2.12-8.558 2.644-13.018 3.301-2.152.316-4.244 1.034-6.559 1.62.406 1.173.869 2.06.994 2.991.14 1.038.06 2.129-.078 3.175-.411 3.072-2.218 5.031-5.238 5.804-1.96.503-3.476-.261-3.947-2.244-.413-1.744-.699-3.504.002-5.337.881-2.302.446-2.819-2.304-3.041zm-91.566 5.97c1.38-1.81 2.769-3.328 3.786-5.066.838-1.427.262-2.803-1.246-3.461-1.112-.486-2.346-.863-3.546-.937-2.808-.176-5.766 2.753-5.702 5.585.076 3.361.26 6.723.417 10.084.064 1.34.91 1.833 2.166 1.411 1.646-.552 1.421-2.015 1.51-3.202-.594-1.314-1.221-2.642-1.399-4.027-.165-1.276.014-2.646.295-3.918.493-2.236 1.884-3.155 3.86-2.797 1.19.217 1.5.958.656 1.814-.86.873-1.83 1.644-2.791 2.408-1.574 1.251-1.702 3.378-.078 4.576 1.842 1.359 3.763 2.644 5.775 3.725.866.465 2.061.492 3.082.412.46-.037.992-.763 1.221-1.295.078-.182-.615-.945-1.054-1.061-2.816-.738-4.859-2.664-6.951-4.251zm24.689.573c1.655-.165 3.328-.465 4.999-.457 1.349.006 1.506-.798 1.471-1.707-.021-.509-.456-1.001-.662-1.417l-7.398.534-1.104-3.986c.887-.254 1.574-.47 2.269-.647 1.347-.343 2.719-.608 4.046-1.022.959-.298 1.487-1.067 1.234-2.087-.276-1.121-1.036-1.266-2.1-.923-1.149.37-2.401.422-3.542.811-1.457.494-2.915 1.065-4.246 1.827-1.853 1.057-2.007 1.613-.848 3.308 1.325 1.94 1.785 4.09 1.716 6.319-.037 1.177.078 2.387.972 2.838 1.027.519 1.644 1.342 2.459 2.013.144.118.47.035.71.017 2.451-.192 4.908-.335 7.349-.612 1.232-.141 2.373-.608 2.781-1.978-1.236-1.038-1.232-1.028-2.119-.834-.71.155-1.421.368-2.139.399-2.304.097-4.611.124-6.897.176l1.05-2.571zm24.103-42.202c-.066 2.548 2.205 4.751 1.374 7.513l-5.643.559c-.78-1.512-.815-3.126-.503-4.762.204-1.072-.309-1.855-1.153-2.199-.458-.188-1.294.11-1.754.459-.664.507-.879 1.254-.571 2.189 1.168 3.531 1.254 7.199 1.069 10.864-.089 1.793.006 2.066 1.679 2.569.536-.561.978-1.063 1.463-1.52.357-.337.803-.583 1.151-.927.85-.842.683-1.8-.406-2.3-.33-.153-.722-.172-1.294-.298.299-.509.46-1.092.685-1.117 1.999-.223 3.936-1.191 6.018-.647.59 1.835-.982 4.315 1.69 5.43l.671-.509c.254-.209.485-.447.747-.643 1.388-1.043 1.341-1.007.477-2.391-.417-.668-.743-1.46-.866-2.234-.444-2.762-.732-5.546-1.178-8.305-.398-2.457-1.186-2.817-3.654-1.729zm39.137 38.034c.126-4.431-3.084-5.635-6.051-5.132-3.813.647-6.682 2.9-8.673 6.259-1.19 2.006-1.009 4.861.512 6.894 1.473 1.965 4.073 2.962 6.338 2.232 4.609-1.485 8.005-4.811 7.875-10.254zm-24.99 5.829c-2.653-.414-4.642 1.849-7.169 1.374l-.355-1.394c-.551-.763-2.201.707-2.065-.85 2.478-1.518 5.436-1.04 7.704-2.997-2.546-2.41-5.248-.052-7.836-.509v-3.121c2.952-1.407 6.03-2.871 9.241-4.4l-.879-1.998c-2.478.875-4.778 1.717-7.097 2.493-.84.281-1.719.503-2.595.587-1.846.18-2.269.904-1.884 2.755.4 1.915.547 3.883.788 5.831.13 1.055.019 2.193.378 3.159 1.133 3.057 3.113 4.648 6.092 3.299.671-.302 1.461-.41 2.045-.821 1.258-.887 3.08-1.187 3.633-3.407zm-106.895-4.342c-.869-1.049-1.539-2.075-2.424-2.857-.734-.647-1.054-1.365-1.23-2.265-.33-1.686-1.011-2.306-2.614-2.168-.656.056-1.492.383-1.834.875-.225.323.157 1.256.501 1.752 1.075 1.553 2.189 3.092 3.425 4.518 1.382 1.593 1.776 3.43 1.706 5.428-.054 1.535-.182 3.068-.299 4.6-.107 1.394.464 2.36 1.485 2.451 1.089.097 1.921-.937 1.917-2.356-.006-2.437-.002-4.873-.002-7.426 2.121-.012 2.422-1.421 2.843-2.799.722-2.356 1.459-4.712 2.323-7.019.425-1.129.369-2.035-.301-2.879-1.809.039-2.445 1.078-2.884 2.582-.73 2.497-1.688 4.927-2.612 7.563zm140.981-32.005c.182 2.538.363 4.847 1.221 7.091 3.381-1.833 3.311-2.273 2.517-4.36-1.052-2.766-.516-5.635-1.112-8.38 3.165-1.438 6.356-.79 9.274-1.169.604-1.702-.01-2.625-.986-3.155-4.355.65-8.496 1.247-12.628 1.891-1.78.277-3.577.527-5.306 1.009-1.269.352-1.43 1.171-.749 2.302.625 1.043 1.467 1.117 2.538.71 1.355-.515 2.756-.91 4.386-1.438.027 1.359.953 2.48-.708 3.163-.454.186-.811.606-1.213.918.404.474.734 1.061 1.236 1.378.338.213.918.039 1.531.039zm-121.951 5.312c-.041-.606-.045-1.599-.186-2.573-.369-2.563-1.849-3.639-4.398-3.272-.225.031-.499.184-.66.101-1.576-.788-2.271.333-2.892 1.392-.739 1.264-1.52 2.546-1.972 3.924-1.003 3.059-1.19 6.127.966 8.858.433.55 1.046 1.1 1.688 1.314 2.249.749 5.094-.598 6.193-2.697 1.104-2.108 1.403-4.336 1.263-7.045zm7.999 6.454c-.433-.846-.972-1.456-1.044-2.116-.258-2.333-1.151-4.654-.175-7.048.233-.573.223-1.338.07-1.953-.159-.647-.503-1.578-.978-1.733-.51-.163-1.446.271-1.861.741-.413.47-.493 1.297-.569 1.984-.062.542.266 1.15.138 1.655-.704 2.747-.014 5.426.45 8.071.559 3.194 4.238 4.526 6.788 2.555.8-.618 1.401-1.537 1.976-2.397 1.034-1.545 1.362-3.303 1.382-5.153.019-1.481-.066-3.016.297-4.423.384-1.491.101-2.699-.497-3.996h-2.694c-.091.877-.382 1.704-.212 2.424.516 2.197.293 4.373.13 6.568-.153 2.038-1.093 3.537-3.2 4.822zm-13.008 15.409c-.45 1.52.037 2.428 1.302 3.177 1.514.896 2.364 2.348 2.121 4.156-.173 1.287-.586 2.551-.978 3.798-.309.98-2.154 2.224-3.057 2.025-1.126-.246-1.958-.983-2.042-2.182-.068-.943-.099-2.002.26-2.834.602-1.405 1.529-2.668 2.315-3.986-1.12-1.932-2.267-2.412-3.064-1.15-1.62 2.573-3.148 5.25-2.746 8.504.291 2.342 2.89 5.002 4.999 5.138 1.906.122 5.304-2.269 5.812-4.203.439-1.669.637-3.405 1.116-5.062.462-1.597.025-2.904-.879-4.158-.481-.668-1.021-1.295-1.469-1.986-.873-1.349-2.016-1.855-3.689-1.237zm93.864-31.798c-.559 0-.98.056-1.382-.01-2.009-.331-3.326.71-4.281 2.269-1.5 2.449-1.388 5.101-.303 7.598 1.141 2.621 3.427 3.483 6.292 3.119 2.214-.279 3.86-1.485 5.244-2.975 1.785-1.915 2.804-6.514-.128-8.682-1.646-1.218-3.503-1.833-5.442-1.32zm-112.686-.668c-.171 1.396.043 2.569.761 3.796.813 1.384 1.384 2.95 1.828 4.503.759 2.658.223 5.343-.204 7.995-.184 1.146.435 2.509 1.38 2.695 1.184.232 2.012-.544 2.133-2.052l.08-2.222c.151-1.779.322-3.43 1.636-4.969 1.463-1.711 2.447-3.847 3.565-5.84.815-1.45.551-2.706-.536-3.192-.831-.372-1.702.174-2.41 1.568-.52 1.026-.939 2.108-1.508 3.103-.243.422-.759.687-1.316 1.165-.64-2.029-1.386-3.754-1.7-5.556-.355-2.031-.508-2.292-2.377-1.624-.454.161-.877.41-1.333.629zm129.469.573c-1.787-.689-3.299.871-4.689 1.913-1.923 1.442-2.342 5.788-1.23 8.009 1.155 2.311 3.955 4.152 6.078 3.841 2.998-.439 5.389-1.876 6.812-4.656 1.976-3.868.291-7.712-3.901-8.814-.858-.225-1.787-.18-3.07-.294zm-57.129 16.182c1.803-.099 3.718.074 5.475-.372 2.354-.6 4.011-2.329 4.656-4.712.681-2.511-.673-4.764-3.163-5.689-.846-.312-1.739-.546-2.521-.978-.93-.513-.984-1.384-.237-2.182.274-.296.627-.517.994-.813l1.69.896c1.298-.519 1.694-1.374 1.269-2.602-.411-1.191-1.444-1.378-2.424-1.206-1.197.207-2.393.59-3.503 1.092-2.505 1.136-2.977 4.203-1.122 6.27.749.834 1.51 1.415 2.651 1.628.866.161 1.667.67 2.498 1.024.904.383 1.116 1.109 1.056 2.017-.113 1.744-.559 2.153-3.07 2.724l-1.032-1.798c-3.247 1.371-3.674 1.961-3.218 4.702zm-45.146 17.667c-.204 2.023-.415 3.728-.541 5.436-.217 2.958.734 5.517 2.971 7.455.602.521 1.638.848 2.432.782 2.616-.223 4.39-1.707 4.962-4.296.685-3.111 1.12-6.27.963-9.313-1.261-1.38-2.443-1.117-3.841-.279.074.666-.031 1.465.266 2.058 1.314 2.633.365 5.109-.567 7.486-.567 1.45-2.259 1.361-3.124.021-.262-.408-.431-.883-.59-1.347-.704-2.042-.402-4.027.26-6.03.468-1.413.07-1.963-1.405-2.112-.543-.054-1.102.081-1.787.139zm63.38 10.471c2.158.203 2.899-.288 2.824-2.093-.058-1.367-.514-2.72-.753-3.883.444-1.187.842-2.236 1.23-3.289.73-1.984 1.073-4.112 2.437-5.856.666-.852 1.003-1.889.041-2.857-1.3-.124-1.927.548-2.434 1.653-.891 1.938-1.943 3.802-3.161 6.146-1.054-1.593-1.962-2.828-2.719-4.152-.699-1.225-1.5-2.145-3.018-2.062-.986 1.692-.933 2.579.448 3.885 2.657 2.517 3.868 5.811 4.908 9.164.324 1.045.146 2.246.198 3.345zm-40.362-46.025c-3.119-.223-3.48.19-2.934 2.801.652 3.126 1.05 6.276.862 9.493-.111 1.93-.019 3.872-.019 5.968l2.352.854 2.067-3.109c-.893-1.03-1.785-1.893-1.599-3.444.505-4.168-.097-8.297-.73-12.562zm9.457 18.052c-2.063-6.115-1.603-11.985-1.415-17.835-2.102-1.115-2.944-.718-2.884 1.5.072 2.714.4 5.426.396 8.138-.004 2.18.353 4.369-.223 6.57-.175.67.336 1.787.895 2.317.673.639 1.692.451 2.496-.168.262-.201.538-.383.734-.521zm-16.692-15.438c-1.159.021-2.125 1.299-1.708 2.433.369.999.885 1.955 1.434 2.871.501.84 1.436 1.003 2.051.265.538-.645 1.252-1.688 1.06-2.286-.4-1.243-.737-2.78-2.346-3.235-.155-.046-.326-.033-.491-.048z" sketch:type="MSShapeGroup"/><path d="M58.283 101.187c-3.165.426-6.072.914-8.999 1.181-2.921.267-5.861.356-8.795.426-.957.021-1.921-.341-2.886-.379-.862-.033-1.731.139-2.643-.101.576-.085 1.149-.221 1.729-.248 4.51-.219 9.024-.348 13.526-.652 2.032-.139 4.035-.662 6.063-.902.576-.068 1.384-.292 2.005.674" sketch:type="MSShapeGroup"/><path d="M111.182 97.772l9.319-1.396.099.652c-3.115.476-6.228.954-9.342 1.429l-.076-.685" sketch:type="MSShapeGroup"/><path d="M17.576 101.944h-2.785l-.002-.337h2.785l.002.337" sketch:type="MSShapeGroup"/><path d="M157.255 57.377c2.75.221 3.185.738 2.304 3.041-.701 1.833-.415 3.593-.002 5.337.47 1.984 1.987 2.747 3.947 2.244 3.02-.774 4.828-2.733 5.238-5.804.138-1.047.219-2.137.078-3.175-.126-.931-.588-1.818-.994-2.991 2.315-.585 4.407-1.303 6.559-1.62 4.46-.658 8.925-1.181 13.018-3.301 1.166-.604 2.276-.292 2.612.486.427.983-.103 1.824-1.461 2.321l-.233.079c-2.899.871-5.797 1.742-8.964 2.691.175 3.506-.679 7.269 2.253 10.303-.823 2.135-.823 2.135-2.789 3.163-.365-.637-.937-1.245-1.079-1.944-.574-2.807-1.001-5.645-1.514-8.467-.142-.776-.4-1.533-.652-2.472l-3.947 1.045c-.237 1.616-.59 3.076-.642 4.545-.142 4.09-2.835 6.185-6.057 7.685-4.106 1.911-7.371 0-8.5-4.423-.772-3.02-.563-5.844.825-8.742" fill="#000" sketch:type="MSShapeGroup"/><path d="M65.689 63.347c2.092 1.587 4.134 3.512 6.951 4.251.439.116 1.133.879 1.054 1.061-.229.532-.761 1.258-1.221 1.295-1.021.081-2.216.054-3.082-.412-2.012-1.082-3.932-2.366-5.775-3.725-1.624-1.198-1.496-3.324.078-4.576.961-.763 1.931-1.535 2.791-2.408.844-.856.534-1.597-.656-1.814-1.976-.358-3.367.561-3.86 2.797-.281 1.272-.46 2.642-.295 3.918.177 1.386.805 2.714 1.399 4.027-.089 1.187.136 2.65-1.51 3.202-1.256.422-2.102-.07-2.166-1.411-.157-3.361-.34-6.723-.417-10.084-.064-2.832 2.895-5.761 5.702-5.585 1.201.074 2.434.451 3.546.937 1.508.658 2.084 2.033 1.246 3.461-1.017 1.738-2.406 3.256-3.786 5.066" fill="#000" sketch:type="MSShapeGroup"/><path d="M90.378 63.92l-1.05 2.571c2.286-.052 4.592-.079 6.897-.176.718-.031 1.43-.244 2.139-.399.887-.194.883-.205 2.119.834-.408 1.369-1.549 1.837-2.781 1.978-2.441.277-4.898.42-7.349.612-.239.019-.565.101-.71-.017-.815-.67-1.432-1.493-2.459-2.013-.893-.451-1.009-1.661-.972-2.838.068-2.23-.392-4.379-1.716-6.319-1.159-1.694-1.005-2.251.848-3.308 1.331-.761 2.789-1.332 4.246-1.827 1.141-.389 2.393-.441 3.542-.811 1.065-.343 1.824-.199 2.1.923.254 1.02-.274 1.789-1.234 2.087-1.327.414-2.699.678-4.046 1.022-.695.178-1.382.393-2.269.647l1.104 3.986 7.398-.534c.206.416.642.908.662 1.417.035.908-.122 1.713-1.471 1.707-1.671-.008-3.344.292-4.999.457" fill="#000" sketch:type="MSShapeGroup"/><path d="M114.481 21.718c2.467-1.088 3.256-.728 3.654 1.729.446 2.759.734 5.544 1.178 8.305.124.774.45 1.566.866 2.234.864 1.384.912 1.349-.477 2.391-.262.197-.493.434-.747.643l-.671.509c-2.672-1.115-1.1-3.595-1.69-5.43-2.082-.544-4.019.424-6.018.647-.225.025-.386.608-.685 1.117.571.126.963.145 1.294.298 1.089.501 1.256 1.458.406 2.3-.349.343-.794.59-1.151.927-.485.457-.926.96-1.463 1.52-1.673-.503-1.768-.776-1.679-2.569.186-3.665.099-7.333-1.069-10.864-.307-.935-.093-1.682.571-2.189.46-.35 1.296-.647 1.754-.459.844.343 1.358 1.127 1.153 2.199-.312 1.636-.276 3.25.503 4.762 1.929-.19 3.782-.374 5.643-.559.831-2.762-1.44-4.965-1.374-7.513" fill="#000" sketch:type="MSShapeGroup"/><path d="M153.618 59.752c.13 5.442-3.266 8.769-7.875 10.254-2.265.73-4.865-.267-6.338-2.232-1.52-2.033-1.702-4.888-.512-6.894 1.991-3.359 4.861-5.612 8.673-6.259 2.967-.503 6.177.701 6.051 5.132zm-2.476.459c0-.174.01-.422-.002-.668-.105-1.88-.796-2.271-2.488-1.46-.398.19-.889.374-1.298.312-2.117-.321-3.592.625-4.898 2.174-1.153 1.367-1.714 2.97-1.071 4.534.631 1.531 2.269 2.174 3.901 2.085.992-.054 2.106-.414 2.903-.997 1.941-1.425 2.818-3.508 2.952-5.98z" fill="#000" sketch:type="MSShapeGroup"/><path d="M128.628 65.581c-.553 2.22-2.375 2.519-3.633 3.407-.584.412-1.374.519-2.045.821-2.979 1.349-4.96-.242-6.092-3.299-.359-.966-.248-2.104-.378-3.159-.241-1.949-.388-3.916-.788-5.831-.386-1.851.037-2.575 1.884-2.755.877-.085 1.756-.306 2.595-.587 2.319-.776 4.619-1.618 7.097-2.493l.879 1.998-9.241 4.4v3.121c2.587.457 5.29-1.901 7.836.509-2.267 1.957-5.226 1.479-7.704 2.997-.136 1.558 1.514.087 2.065.85l.355 1.394c2.527.476 4.516-1.787 7.169-1.374" fill="#000" sketch:type="MSShapeGroup"/><path d="M21.733 61.239c.924-2.635 1.882-5.066 2.612-7.563.439-1.504 1.075-2.542 2.884-2.582.671.844.726 1.75.301 2.879-.864 2.306-1.601 4.663-2.323 7.019-.421 1.378-.722 2.786-2.843 2.799 0 2.553-.004 4.989.002 7.426.004 1.419-.827 2.453-1.917 2.356-1.021-.091-1.593-1.057-1.485-2.451.118-1.533.246-3.066.299-4.6.07-1.998-.324-3.835-1.706-5.428-1.236-1.425-2.35-2.964-3.425-4.518-.345-.496-.726-1.429-.501-1.752.342-.492 1.178-.819 1.834-.875 1.603-.139 2.284.482 2.614 2.168.175.9.495 1.618 1.23 2.265.885.782 1.556 1.808 2.424 2.857" fill="#000" sketch:type="MSShapeGroup"/><path d="M162.714 29.235c-.613 0-1.192.174-1.531-.039-.501-.316-.831-.904-1.236-1.378.402-.312.759-.732 1.213-.918 1.661-.683.734-1.804.708-3.163-1.63.527-3.031.923-4.386 1.438-1.071.408-1.912.333-2.538-.71-.681-1.131-.52-1.951.749-2.302 1.729-.482 3.526-.732 5.306-1.009 4.132-.643 8.273-1.241 12.628-1.891.976.53 1.591 1.452.986 3.155-2.917.379-6.109-.269-9.274 1.169.596 2.745.06 5.614 1.112 8.38.794 2.087.864 2.528-2.517 4.36-.858-2.244-1.04-4.553-1.221-7.091" fill="#000" sketch:type="MSShapeGroup"/><path d="M40.763 34.547c.14 2.71-.159 4.938-1.263 7.045-1.1 2.1-3.945 3.446-6.193 2.697-.642-.213-1.254-.763-1.688-1.314-2.156-2.73-1.968-5.798-.966-8.858.452-1.378 1.234-2.66 1.972-3.924.621-1.059 1.316-2.18 2.892-1.392.161.083.435-.07.66-.101 2.55-.366 4.029.71 4.398 3.272.14.974.144 1.967.186 2.573zm-4.062-3.008c-3.301 1.824-3.672 4.627-3.423 7.753.091 1.138.798 1.694 1.63 1.887.881.205 1.778-.176 2.183-1.175.184-.457.493-.904.532-1.376.155-1.849.328-3.711.262-5.56-.021-.546-.805-1.065-1.184-1.529z" fill="#000" sketch:type="MSShapeGroup"/><path d="M48.762 41.001c2.106-1.285 3.047-2.784 3.2-4.822.163-2.195.386-4.371-.13-6.568-.169-.72.122-1.547.212-2.424h2.694c.598 1.297.881 2.505.497 3.996-.363 1.407-.279 2.941-.297 4.423-.021 1.849-.349 3.608-1.382 5.153-.576.861-1.176 1.779-1.976 2.397-2.55 1.971-6.228.639-6.788-2.555-.464-2.646-1.153-5.324-.45-8.071.128-.505-.2-1.113-.138-1.655.076-.687.157-1.514.569-1.984.415-.47 1.351-.904 1.861-.741.475.155.819 1.086.978 1.733.153.614.163 1.38-.07 1.953-.976 2.393-.083 4.714.175 7.048.072.66.611 1.27 1.044 2.116" fill="#000" sketch:type="MSShapeGroup"/><path d="M35.754 56.409c1.673-.618 2.816-.112 3.689 1.237.448.691.988 1.318 1.469 1.986.904 1.254 1.341 2.561.879 4.158-.479 1.657-.677 3.392-1.116 5.062-.508 1.934-3.905 4.325-5.812 4.203-2.108-.137-4.708-2.797-4.999-5.138-.402-3.254 1.126-5.931 2.746-8.504.796-1.262 1.943-.782 3.064 1.15-.786 1.318-1.712 2.582-2.315 3.986-.359.832-.328 1.891-.26 2.834.085 1.2.916 1.936 2.042 2.182.904.199 2.748-1.045 3.057-2.025.392-1.247.805-2.511.978-3.798.243-1.808-.607-3.26-2.121-4.156-1.265-.749-1.752-1.657-1.302-3.177" fill="#000" sketch:type="MSShapeGroup"/><path d="M129.618 24.612c1.939-.513 3.796.101 5.442 1.32 2.932 2.168 1.912 6.766.128 8.682-1.384 1.489-3.031 2.695-5.244 2.975-2.866.364-5.152-.499-6.292-3.119-1.085-2.497-1.197-5.149.303-7.598.955-1.56 2.271-2.6 4.281-2.269.402.066.823.01 1.382.01zm-2.428 3.405c-1.172 1.272-1.5 2.675-1.308 4.212.186 1.477 1.069 2.441 2.443 2.768 2.998.714 6.332-2.023 6.191-5.078-.056-1.185-1.875-2.85-2.882-2.579l-.996 1.76-3.447-1.082z" fill="#000" sketch:type="MSShapeGroup"/><path d="M16.932 23.943c.456-.219.879-.467 1.333-.629 1.869-.668 2.022-.408 2.377 1.624.314 1.802 1.06 3.527 1.7 5.556.557-.478 1.073-.743 1.316-1.165.569-.995.988-2.077 1.508-3.103.708-1.394 1.578-1.94 2.41-1.568 1.087.486 1.351 1.742.536 3.192-1.118 1.992-2.102 4.129-3.565 5.84-1.314 1.539-1.485 3.19-1.636 4.969l-.08 2.222c-.122 1.508-.949 2.284-2.133 2.052-.945-.186-1.564-1.549-1.38-2.695.427-2.652.963-5.337.204-7.995-.444-1.553-1.015-3.119-1.828-4.503-.718-1.227-.933-2.4-.761-3.796" fill="#000" sketch:type="MSShapeGroup"/><path d="M146.401 24.516c1.283.114 2.212.068 3.07.294 4.192 1.103 5.878 4.946 3.901 8.814-1.424 2.78-3.815 4.218-6.812 4.656-2.123.31-4.923-1.531-6.078-3.841-1.112-2.222-.693-6.568 1.23-8.009 1.391-1.043 2.903-2.602 4.689-1.913zm.524 10.885c3.192.275 4.669-2.019 4.912-4.847.165-1.924-2.472-3.963-4.25-3.366-1.137.381-2.257.817-3.359 1.291-.342.147-.683.447-.879.765-.926 1.51-.586 3.09.196 4.449.66 1.15 1.818 1.895 3.379 1.707z" fill="#000" sketch:type="MSShapeGroup"/><path d="M89.272 40.699c-.456-2.741-.029-3.33 3.218-4.702l1.032 1.798c2.511-.571 2.956-.98 3.07-2.724.06-.908-.153-1.634-1.056-2.017-.831-.354-1.632-.863-2.498-1.024-1.141-.213-1.902-.794-2.651-1.628-1.855-2.066-1.382-5.134 1.122-6.27 1.11-.503 2.307-.885 3.503-1.092.98-.172 2.014.014 2.424 1.206.425 1.229.029 2.083-1.269 2.602l-1.69-.896c-.367.296-.72.517-.994.813-.747.798-.693 1.669.237 2.182.782.432 1.675.666 2.521.978 2.49.925 3.844 3.177 3.163 5.689-.646 2.383-2.302 4.112-4.656 4.712-1.758.447-3.672.273-5.475.372" fill="#000" sketch:type="MSShapeGroup"/><path d="M44.126 58.366c.685-.058 1.244-.192 1.787-.139 1.475.149 1.873.699 1.405 2.112-.662 2.002-.963 3.988-.26 6.03.159.463.328.939.59 1.347.864 1.34 2.556 1.429 3.124-.021.933-2.377 1.882-4.853.567-7.486-.297-.594-.192-1.392-.266-2.058 1.399-.838 2.581-1.1 3.841.279.157 3.043-.279 6.202-.963 9.313-.571 2.59-2.346 4.073-4.962 4.296-.794.066-1.83-.261-2.432-.782-2.236-1.938-3.187-4.497-2.971-7.455.126-1.709.336-3.413.541-5.436" fill="#000" sketch:type="MSShapeGroup"/><path d="M107.506 68.837c-.052-1.098.126-2.3-.198-3.345-1.04-3.353-2.251-6.646-4.908-9.164-1.38-1.305-1.434-2.193-.448-3.885 1.518-.083 2.319.838 3.018 2.062.757 1.324 1.665 2.559 2.719 4.152 1.217-2.344 2.269-4.207 3.161-6.146.508-1.105 1.135-1.777 2.434-1.653.961.968.625 2.004-.041 2.857-1.364 1.744-1.706 3.872-2.437 5.856-.388 1.053-.786 2.102-1.23 3.289.239 1.163.695 2.515.753 3.883.074 1.806-.666 2.296-2.824 2.093" fill="#000" sketch:type="MSShapeGroup"/><path d="M67.144 22.812c.633 4.265 1.236 8.394.73 12.562-.186 1.551.706 2.414 1.599 3.444l-2.067 3.109-2.352-.854c0-2.095-.093-4.038.019-5.968.188-3.217-.21-6.367-.862-9.493-.547-2.611-.186-3.024 2.934-2.801" fill="#000" sketch:type="MSShapeGroup"/><path d="M76.601 40.864c-.196.139-.472.321-.734.521-.805.618-1.824.807-2.496.168-.559-.53-1.071-1.647-.895-2.317.576-2.201.219-4.389.223-6.57.004-2.712-.324-5.424-.396-8.138-.06-2.217.782-2.615 2.884-1.5-.188 5.85-.648 11.72 1.415 17.835" fill="#000" sketch:type="MSShapeGroup"/><path d="M59.908 25.427c.165.014.336.002.491.048 1.609.455 1.945 1.992 2.346 3.235.192.598-.522 1.64-1.06 2.286-.615.738-1.549.575-2.051-.265-.549-.916-1.065-1.872-1.434-2.871-.417-1.134.549-2.412 1.708-2.433" fill="#000" sketch:type="MSShapeGroup"/><path d="M151.142 60.211c-.134 2.472-1.011 4.555-2.952 5.98-.796.583-1.91.943-2.903.997-1.632.089-3.27-.554-3.901-2.085-.644-1.564-.083-3.167 1.071-4.534 1.306-1.549 2.781-2.495 4.898-2.174.408.062.9-.122 1.298-.312 1.692-.811 2.383-.42 2.488 1.46.012.246.002.494.002.668" sketch:type="MSShapeGroup"/><path d="M36.701 31.539c.38.463 1.164.983 1.184 1.529.066 1.849-.107 3.711-.262 5.56-.039.472-.349.918-.532 1.376-.404.999-1.302 1.38-2.183 1.175-.831-.192-1.539-.749-1.63-1.887-.25-3.126.122-5.928 3.423-7.753" sketch:type="MSShapeGroup"/><path d="M127.19 28.016l3.447 1.082.996-1.76c1.007-.271 2.826 1.394 2.882 2.579.14 3.055-3.194 5.792-6.191 5.078-1.374-.327-2.257-1.291-2.443-2.768-.192-1.537.136-2.939 1.308-4.212" sketch:type="MSShapeGroup"/><path d="M146.925 35.401c-1.562.188-2.719-.556-3.379-1.707-.782-1.359-1.122-2.939-.196-4.449.196-.319.536-.618.879-.765 1.102-.474 2.222-.91 3.359-1.291 1.778-.598 4.415 1.442 4.25 3.366-.243 2.828-1.721 5.122-4.912 4.847" sketch:type="MSShapeGroup"/></g></svg>