<?xml version="1.0" encoding="UTF-8" standalone="no"?>
<svg width="129px" height="57px" viewBox="0 0 129 57" version="1.1" xmlns="http://www.w3.org/2000/svg" xmlns:xlink="http://www.w3.org/1999/xlink" xmlns:sketch="http://www.bohemiancoding.com/sketch/ns">
    <!-- Generator: Sketch 3.1.1 (8761) - http://www.bohemiancoding.com/sketch -->
    <title>How To hover</title>
    <desc>Created with Sketch.</desc>
    <defs></defs>
    <g id="Page-1" stroke="none" stroke-width="1" fill="none" fill-rule="evenodd" sketch:type="MSPage">
        <g id="Imported-Layers" sketch:type="MSLayerGroup" transform="translate(-124.000000, -25.000000)">
            <g id="Group" transform="translate(125.000000, 27.000000)" sketch:type="MSShapeGroup">
                <path d="M75.6902642,51.4135352 C75.5888302,51.2846197 75.3859623,51.0140563 75.1751698,50.7514507 C74.701283,50.1657606 74.1069434,49.987507 73.3446038,50.0177465 C72.3302642,50.0591268 71.3048302,49.8522254 70.2904906,49.9031549 C68.5661132,49.9906901 66.8480755,50.1991831 65.125283,50.3456056 C64.6862642,50.3838028 64.2424906,50.4076761 63.8018868,50.3885775 C62.8588679,50.3456056 61.9190189,50.2405634 60.976,50.2150986 C59.8301132,50.1848592 58.6826415,50.2087324 57.5367547,50.2087324 C55.0230943,50.2087324 52.509434,50.2548873 49.9989434,50.1928169 C48.3126038,50.1498451 46.6310189,49.8967887 44.9446792,49.8490423 C43.6830943,49.8156197 42.4183396,49.9827324 41.1535849,50.0177465 C40.1677736,50.0448028 39.1803774,50.001831 38.194566,49.9986479 C37.002717,49.9954648 35.8124528,50.0145634 34.6221887,49.9970563 C33.8392453,49.9859155 33.0563019,49.9461268 32.2765283,49.8856479 C30.904,49.7806056 29.5362264,49.6198592 28.1621132,49.5323239 C25.4852075,49.3620282 22.806717,49.2028732 20.1266415,49.0850986 C18.7715472,49.0262113 17.4101132,49.0739577 16.0518491,49.0596338 C14.0453585,49.0389437 12.0356981,49.0373521 10.0307925,48.9609577 C9.33660377,48.9339014 8.65192453,48.6076338 7.96090566,48.5996761 C6.82135849,48.5853521 5.65011321,48.5789859 4.54701887,48.822493 C3.09524528,49.1439859 2.36618868,48.7986197 2.06822642,47.3312113 C2.02860377,47.1402254 1.91449057,46.9062676 1.76075472,46.806 C0.304226415,45.8574366 0.076,45.1969437 0.356528302,43.4876197 C0.478566038,42.7443662 0.297886792,41.9533662 0.258264151,41.1830563 C0.250339623,41.0127606 0.269358491,40.8424648 0.264603774,40.6705775 C0.19645283,38.4503662 0.270943396,36.2126479 0.00943396226,34.0163099 C-0.171245283,32.5059296 0.134641509,31.0767183 0.16,29.6109014 C0.175849057,28.7641972 -0.202943396,27.8251831 0.0522264151,27.0867042 C0.503924528,25.770493 -0.101509434,24.5831972 -0.0555471698,23.3306479 C0.00467924528,21.7056761 -0.279018868,20.0711549 -0.323396226,18.4382254 C-0.347169811,17.5628732 -0.158566038,16.6859296 -0.104679245,15.8058028 C-0.0809056604,15.4286056 -0.158566038,15.0434507 -0.193433962,14.6073662 C-0.144301887,14.3511268 -0.012754717,14.004169 -0.0206792453,13.6619859 C-0.0603018868,12.1181831 -0.160150943,10.5743803 -0.198188679,9.02898592 C-0.229886792,7.72073239 -0.130037736,6.40452113 -0.231471698,5.10422535 C-0.29645283,4.24956338 0.0775849057,3.73867606 0.635471698,3.23733803 C0.958792453,2.94608451 1.16166038,2.70098592 1.02218868,2.11847887 C0.914415094,1.67602817 1.41049057,1.08715493 1.63554717,0.568309859 C2.76241509,0.799084507 3.74981132,1.01712676 4.64845283,0.156098592 C4.76415094,0.0462816901 5.92271698,-0.420042254 6.00671698,0.743380282 C7.60430189,0.743380282 9.1194717,0.773619718 10.6314717,0.737014085 C13.3670189,0.671760563 16.0708679,0.928 18.7873962,1.25904225 C21.429434,1.57894366 24.1126792,1.68398592 26.7769057,1.66170423 C29.4141887,1.64101408 32.046717,1.31952113 34.6824151,1.18264789 C35.5176604,1.13967606 36.364,1.31792958 37.2024151,1.30519718 C38.6034717,1.28450704 40.0029434,1.16832394 41.4024151,1.13649296 C42.748,1.10466197 44.0935849,1.12694366 45.4375849,1.12535211 C47.6944906,1.12376056 49.9529811,1.16832394 52.2083019,1.10466197 C54.474717,1.03940845 56.7379623,0.784760563 59.0043774,0.765661972 C61.7224906,0.741788732 64.4437736,0.864338028 67.1618868,0.953464789 C67.8624151,0.975746479 68.5566038,1.1444507 69.2571321,1.18264789 C70.4981132,1.25267606 71.7422642,1.23516901 72.9800755,1.32588732 C75.0673962,1.47708451 77.1483774,1.7094507 79.237283,1.85905634 C81.573434,2.02457746 83.9143396,2.12325352 86.2504906,2.27604225 C87.7735849,2.37630986 89.2919245,2.54660563 90.813434,2.64369014 C92.3000755,2.73759155 93.7914717,2.74714085 95.2781132,2.85059155 C98.5018113,3.0781831 101.723925,3.35670423 104.947623,3.58429577 C107.188679,3.74504225 109.431321,3.91215493 111.677132,3.96626761 C112.759623,3.99332394 113.846868,3.72116901 114.935698,3.67819718 C115.403245,3.66069014 115.875547,3.93921127 116.354189,3.979 C117.829736,4.10314085 119.313208,4.14292958 120.788755,4.27980282 C121.986943,4.38961972 122.483019,5.22995775 122.315019,6.45385915 C122.224679,7.10480282 122.421208,7.79076056 122.395849,8.45761972 C122.381585,8.87460563 122.089962,9.29 122.105811,9.69902817 C122.159698,10.9929577 122.286491,12.2868873 122.406943,13.5776338 C122.608226,15.7405493 122.819019,17.9018732 123.039321,20.0631972 C123.215245,21.7741127 123.476755,23.478662 123.575019,25.1943521 C123.651094,26.5264789 123.506868,27.8697465 123.510038,29.209831 C123.514792,30.8666338 123.605132,32.5234366 123.592453,34.1802394 C123.582943,35.5712535 123.378491,36.9670423 123.445057,38.3516901 C123.514792,39.8015915 123.495774,41.3931408 124.101208,42.6329577 C124.532302,43.5178592 124.489509,44.369338 124.652755,45.1937606 C124.838189,46.128 124.640075,47.2022958 124.361132,48.1413099 C124.205811,48.663338 123.495774,48.9959718 123.123321,49.4813944 C122.592377,50.1753099 122.001208,49.5928028 121.457585,49.6676056 C119.615925,49.9222535 117.788528,49.2585775 115.91834,49.7678732 C114.812075,50.0702676 113.571094,49.8713239 112.388755,49.9015634 C110.864075,49.938169 109.339396,49.9763662 107.814717,50.0177465 C105.481736,50.0798169 103.148755,50.1928169 100.815774,50.1864507 C99.7348679,50.1848592 98.6555472,49.9397606 97.5730566,49.8363099 C97.3036226,49.8108451 97.0230943,49.9461268 96.7473208,49.9445352 C95.6077736,49.9397606 94.4682264,49.9158873 93.3286792,49.8872394 C92.5283019,49.8681408 91.7295094,49.8379014 90.930717,49.8012958 C89.9623396,49.7567324 88.9939623,49.6994366 88.024,49.648507 C87.9304906,49.6437324 87.8243019,49.6103099 87.7418868,49.6405493 C86.5373585,50.0670845 85.3470943,49.7694648 84.1330566,49.6771549 C83.1409057,49.6023521 82.1186415,49.8776901 81.1138113,50.0272958 C79.9790189,50.1944085 78.8378868,50.3456056 77.7221132,50.6018451 C77.0786415,50.7498592 76.4779623,51.0904507 75.6902642,51.4135352 L75.6902642,51.4135352 Z M4.59932075,12.5335775 C4.67064151,12.5303944 4.74037736,12.5256197 4.81169811,12.5208451 C4.66430189,12.9282817 4.44083019,13.3245775 4.38535849,13.7431549 C4.22369811,14.971831 4.33622642,16.2132394 4.23479245,17.457831 C4.06679245,19.5379859 4.34098113,21.6515634 4.37267925,23.7524085 C4.40437736,25.918507 4.37743396,28.0846056 4.35683019,30.2507042 C4.35049057,30.7695493 4.20467925,31.2883944 4.2189434,31.8040563 C4.25222642,32.9276901 4.36792453,34.0497324 4.40913208,35.1733662 C4.44083019,36.0168873 4.26490566,36.893831 4.43290566,37.7039296 C4.90837736,39.976662 5.07796226,42.254169 4.96226415,44.5682817 C4.95116981,44.7831408 5.26656604,45.192169 5.45675472,45.2080845 C6.24128302,45.273338 7.03690566,45.2367324 7.82777358,45.2128592 C9.03230189,45.1778451 10.2415849,45.0234648 11.4366038,45.0966761 C13.5841509,45.2303662 15.7221887,45.5375352 17.8697358,45.6903239 C19.3912453,45.7985493 20.9238491,45.7651268 22.4516981,45.8096901 C24.4391698,45.8669859 26.4266415,45.9672535 28.4156981,45.9959014 C29.3349434,46.0086338 30.2573585,45.8192394 31.173434,45.8478873 C33.7520755,45.9306479 36.3275472,46.1089014 38.9061887,46.1837042 C39.9791698,46.2139437 41.0600755,45.997493 42.1314717,46.032507 C43.6609057,46.0850282 45.184,46.3142113 46.7118491,46.371507 C47.6564528,46.4065211 48.6089811,46.2012113 49.5567547,46.2123521 C51.550566,46.2330423 53.5443774,46.3635493 55.5381887,46.3778732 C57.1595472,46.3906056 58.7840755,46.3396761 60.4038491,46.241 C61.3468679,46.1837042 62.0410566,45.2351408 63.2804528,45.8892676 C64.2456604,46.4001549 65.6245283,46.2139437 66.8132075,46.1789296 C69.1319245,46.1089014 71.4458868,46.3969718 73.7741132,46.0436479 C75.7568302,45.7428451 77.7870943,45.7587606 79.7951698,45.6218873 C80.3847547,45.5820986 80.9711698,45.4850141 81.5607547,45.4388592 C83.505434,45.2844789 85.453283,45.1539718 87.3979623,44.9884507 C89.301434,44.8277042 91.2017358,44.627169 93.1036226,44.4568732 C94.3477736,44.3454648 95.5998491,44.3056761 96.8360755,44.1417465 C97.8773585,44.0048732 98.8980377,43.7136197 99.934566,43.5305915 C101.682717,43.2202394 103.443547,42.9671831 105.188528,42.6345493 C105.877962,42.5024507 106.537283,42.2159718 107.212453,42.0122535 C107.467623,41.9342676 107.729132,41.8594648 107.992226,41.834 C109.054113,41.7305493 110.154038,41.7942113 111.171547,41.5300141 C113.716906,40.8695211 116.205208,39.9543803 118.893208,40.089662 C119.501811,40.1199014 119.655547,39.8286479 119.603245,39.2700141 C119.51766,38.3914789 119.406717,37.5049859 119.438415,36.6264507 C119.519245,34.3791831 119.739547,32.1350986 119.777585,29.8862394 C119.810868,27.9556901 119.677736,26.0235493 119.603245,24.0914085 C119.555698,22.8897887 119.509736,21.688169 119.409887,20.4897324 C119.178491,17.7108873 118.894792,14.9352254 118.672906,12.1531972 C118.573057,10.9054225 118.574642,9.64809859 118.531849,8.44647887 C117.398642,8.2761831 116.482566,8.06769014 115.556981,8.01835211 C114.287472,7.94832394 113.006868,8.07246479 111.742113,7.98015493 C109.52166,7.8178169 107.309132,7.55680282 105.093434,7.33398592 C103.606792,7.18438028 102.123321,6.99339437 100.635094,6.88835211 C99.2942642,6.7944507 97.9470943,6.8135493 96.6046792,6.74192958 C95.6093585,6.68940845 94.6187925,6.54298592 93.6218868,6.48728169 C92.2319245,6.40770423 90.8403774,6.352 89.4488302,6.32653521 C88.1222642,6.30266197 86.7956981,6.3488169 85.4691321,6.32494366 C84.6164528,6.31061972 83.7637736,6.22467606 82.9110943,6.17692958 C82.5386415,6.15783099 82.1550943,6.20239437 81.7937358,6.1323662 C81.2723019,6.03209859 80.7730566,5.77267606 80.2532075,5.72492958 C78.9979623,5.61033803 77.7332075,5.60556338 76.4779623,5.50847887 C75.8075472,5.45595775 75.1498113,5.27611268 74.4793962,5.20926761 C74.0673208,5.16629577 73.6441509,5.24905634 73.2257358,5.24109859 C72.0893585,5.22040845 70.954566,5.17266197 69.8181887,5.14878873 C69.0209811,5.13287324 68.2237736,5.14878873 67.4249811,5.13128169 C66.4962264,5.11059155 65.5658868,5.06602817 64.6355472,5.03897183 C63.9239245,5.01828169 63.1330566,5.20608451 62.5117736,4.95939437 C60.6843774,4.23205634 58.8157736,4.72066197 56.9756981,4.60129577 C55.7790943,4.52330986 54.5603019,4.90209859 53.3510189,4.91960563 C51.7233208,4.94347887 50.0940377,4.80023944 48.4663396,4.75885915 C47.3046038,4.73021127 46.141283,4.70315493 44.982717,4.76840845 C43.9588679,4.82570423 42.9461132,5.07716901 41.9238491,5.12014085 C41.0822642,5.15515493 40.2343396,4.97690141 39.388,4.95780282 C38.833283,4.94507042 38.2769811,5.08035211 37.7222642,5.08512676 C37.2594717,5.08830986 36.7950943,4.94347887 36.3338868,4.95621127 C35.104,4.9896338 33.877283,5.08353521 32.6473962,5.13287324 C30.718566,5.2124507 28.7881509,5.25860563 26.8593208,5.35569014 C26.4139623,5.37956338 25.9670189,5.6676338 25.5375094,5.62943662 C24.3060377,5.52121127 23.0856604,5.29361972 21.8557736,5.14719718 C21.5673208,5.1121831 21.2487547,5.28566197 20.9650566,5.23950704 C19.3278491,4.97212676 17.7049057,4.62039437 16.0629434,4.39757746 C15.3671698,4.30367606 14.6349434,4.51694366 13.9249057,4.48670423 C12.2845283,4.41826761 10.6473208,4.27343662 9.0085283,4.18430986 C7.68671698,4.11269014 6.36332075,4.03470423 5.04150943,4.05380282 C4.68332075,4.05857746 4.20784906,4.3148169 3.9954717,4.60766197 C3.2125283,5.6835493 3.50415094,7.01885915 3.74030189,8.09474648 C3.97645283,9.177 4.13018868,10.2274225 4.18883019,11.3224085 C4.21101887,11.7314366 4.45667925,12.1309155 4.59932075,12.5335775 L4.59932075,12.5335775 Z" id="Fill-1" fill="#000000"></path>
                <path d="M15.7221887,14.9240845 C16.1421887,15.1850986 16.4179623,15.4572535 16.741283,15.5400141 C17.4782642,15.7294085 17.5004528,16.2387042 17.4671698,16.8371268 C17.3641509,18.7613099 16.9473208,20.6759437 17.4766792,22.6160423 C17.6113962,23.1110141 17.3562264,23.7142113 17.2579623,24.4272254 L19.2501887,24.4272254 C20.7447547,24.4288169 22.2424906,24.3810704 23.7338868,24.4558732 C24.4470943,24.4908873 24.5659623,24.432 24.3757736,23.6744225 C24.0128302,22.2292958 23.881283,20.7268732 23.5516226,19.2721972 C23.3487547,18.3825211 22.9794717,17.5246761 22.6339623,16.6716056 C22.3946415,16.0811408 22.2900377,15.5702535 22.8114717,15.0593662 C23.3994717,14.4832254 23.7925283,13.5680845 24.8845283,14.0057606 C24.9701132,14.0407746 25.0667925,14.117169 25.1428679,14.099662 C26.4139623,13.8195493 26.5518491,14.8301831 26.8434717,15.6307324 C26.8878491,15.7516901 26.6596226,15.9506338 26.6263396,16.1272958 C26.5914717,16.3055493 26.5819623,16.6318169 26.6643774,16.6700141 C27.9925283,17.2748028 27.0843774,18.5766901 27.5360755,19.4663662 C27.8419623,20.0679718 27.930717,20.784169 28.0828679,21.4573944 C28.1922264,21.9428169 28.2572075,22.4393803 28.3206038,22.9327606 C28.3950943,23.5216338 28.4569057,24.1136901 28.5076226,24.7057465 C28.6455094,26.3163944 28.7469434,27.9318169 28.9196981,29.5392817 C29.0036981,30.3239155 29.2461887,31.0894507 29.3571321,31.872493 C29.5457358,33.1807465 29.7692075,34.4921831 29.8215094,35.8083944 C29.8690566,37.0482113 29.2763019,37.6689155 28.1082264,38.0126901 C27.8181887,38.0970423 27.5630189,38.3071268 27.3141887,38.4471831 C26.9258868,37.9840423 26.4932075,37.5288592 26.1397736,37.0179718 C25.9178868,36.7012535 25.7324528,36.3113239 25.6769811,35.9325352 C25.461434,34.4826338 25.2696604,33.0279577 25.1381132,31.5669155 C25.057283,30.678831 25.1206792,29.7796056 25.0810566,28.8851549 C25.0667925,28.5557042 24.9463396,28.2310282 24.9019623,28.0320845 C22.3978113,27.7758451 20.0220377,28.4299718 17.6034717,27.9493239 C17.8190189,30.3987183 17.4497358,32.7398873 18.6764528,34.8518732 C18.5797736,34.941 18.3293585,35.0587746 18.2992453,35.216338 C18.0504151,36.5946197 17.0138868,37.1643944 15.868,37.5336338 C15.1896604,37.7516761 14.5033962,37.6275352 14.3670943,36.6932958 C14.3623396,36.6662394 14.3338113,36.636 14.3100377,36.618493 C12.7742642,35.4232394 13.9201509,33.9080845 13.8424906,32.5457183 C13.7442264,30.8077465 13.8424906,29.0490845 13.6110943,27.3333944 C13.5397736,26.8002254 13.6649811,26.3736901 13.6586415,25.901 C13.6380377,24.3110423 13.5350189,22.7242676 13.4621132,21.1359014 C13.4367547,20.5677183 13.2782642,19.9708873 13.4034717,19.4393099 C13.6301132,18.474831 12.7584151,17.6615493 13.1895094,16.6302254 C13.3353208,16.2800845 13.381283,16.0413521 13.7331321,15.8821972 C14.4273208,15.568662 15.1088302,15.2217042 15.7221887,14.9240845" id="Fill-19" fill="#000000"></path>
                <path d="M64.2504151,34.7293239 C62.841434,32.9276901 61.546566,31.2677042 60.0535849,29.3578451 C59.8713208,30.4305493 59.8015849,31.2517887 59.5781132,32.0284648 C59.3546415,32.8067324 59.1707925,33.7950845 58.6129057,34.2295775 C57.9741887,34.7277324 56.9519245,34.7802535 56.0802264,34.909169 C55.4066415,35.0094366 54.7076981,34.9298592 53.9326792,34.9298592 C53.8946415,34.8311831 53.8787925,34.5351549 53.7377358,34.4539859 C51.4649811,33.1425493 51.1559245,30.7377183 50.6154717,28.5525211 C50.0528302,26.2766056 49.8135094,23.9211127 49.434717,21.5990423 C49.4188679,21.5051408 49.4236226,21.4080563 49.4030189,21.317338 C49.0828679,19.8594789 49.7913208,18.5766901 51.1638491,18.1326479 C51.8057358,17.9257465 52.9262642,18.4859718 53.0276981,19.1512394 C53.2083774,20.3242113 53.2733585,21.5162817 53.4366038,22.6940282 C53.6331321,24.1073239 53.8122264,25.5285775 54.1276226,26.9164085 C54.3891321,28.065507 54.8138868,29.1795915 55.2196226,30.2889014 C55.3226415,30.5706056 55.6285283,30.7759155 55.8409057,31.0162394 C55.9597736,30.9748592 56.0802264,30.9318873 56.1975094,30.8889155 C56.4162264,28.6655211 56.6127547,26.4373521 56.8647547,24.2171408 C56.9646038,23.3481549 57.5811321,22.7242676 58.1881509,22.1735915 C58.3862642,21.995338 58.858566,22.1194789 59.2056604,22.1147042 C59.598717,22.108338 59.9901887,22.1131127 60.4307925,22.1131127 C61.3151698,24.043662 62.3231698,26.0299155 63.8018868,27.7487887 C64.285283,28.3106056 64.5578868,29.0490845 64.9889811,29.661831 C65.1855094,29.9419437 65.6910943,30.3541549 65.7830189,30.2936761 C66.2188679,30.0040141 66.7117736,29.6363662 66.906717,29.178 C67.7245283,27.2426761 67.6373585,25.1497887 67.7514717,23.1062394 C67.8037736,22.1735915 67.645283,21.2218451 67.510566,20.2891972 C67.3869434,19.4440845 68.3664151,17.6138028 69.1271698,17.4037183 C69.8356226,17.2079577 71.2255849,17.973493 71.5108679,18.6960563 C71.6360755,19.0143662 71.8230943,19.3056197 71.9578113,19.6207465 C72.0196226,19.767169 72.1036226,20.0043099 72.0370566,20.0902535 C71.0781887,21.3221127 71.4189434,22.7433662 71.4601509,24.1057324 C71.526717,26.3084366 71.2144906,28.4060986 70.3744906,30.4735211 C69.7563774,31.9902676 68.6247547,33.0184085 67.4867925,34.0003944 C66.5596226,34.8009437 65.2552453,34.8948451 64.2504151,34.7293239" id="Fill-20" fill="#000000"></path>
                <path d="M32.8993962,31.8947746 C32.8993962,31.5748732 32.9992453,31.2247324 32.8819623,30.9732676 C32.1386415,29.3610282 32.4350189,27.6851268 32.5824151,26.0394648 C32.718717,24.527493 33.0356981,23.0330282 33.2845283,21.5321972 C33.306717,21.4032817 33.4287547,21.2950563 33.490566,21.1693239 C33.742566,20.6504789 34.0310189,20.1459577 34.2275472,19.6064225 C34.6427925,18.4636901 35.7553962,18.1565211 36.616,17.570831 C37.2848302,17.1156479 38.0487547,16.7400423 38.8237736,16.5331408 C39.1883019,16.4360563 39.7683774,16.2562113 40.1566792,16.942169 C40.7082264,17.9146056 41.3818113,18.7788169 42.6259623,19.1560141 C43.4580377,19.4074789 44.125283,20.2128028 44.8590943,20.7793944 C44.9763774,20.8717042 45.0476981,21.1152113 45.1491321,21.1199859 C46.1349434,21.1629577 46.2379623,22.1417606 46.7166038,22.6717465 C47.9369811,24.0261549 47.9781887,25.8914507 48.4314717,27.5578028 C48.5883774,28.1403099 48.3379623,28.9169859 48.0716981,29.5154085 C47.5233208,30.7472676 47.0700377,32.1494225 46.158717,33.0629718 C44.3883774,34.8375493 42.1726792,35.7877042 39.5274717,35.4168732 C38.1359245,35.2211127 36.8046038,34.9394085 35.6143396,34.1802394 C34.9217358,33.7377887 34.1070943,33.454493 33.7679245,32.5473099 C33.6538113,32.2433239 33.1624906,32.0809859 32.8993962,31.8947746 L32.8993962,31.8947746 Z M38.5495849,19.7321549 C37.8791698,20.9369577 37.0708679,21.9046197 36.7871698,23.0091549 C36.3227925,24.8282958 35.6761509,26.6585775 36.2736604,28.6464225 C36.6318491,29.8400845 37.2024151,30.8141127 38.2912453,31.2565634 C39.2358491,31.6417183 40.3215094,31.8311127 41.3469434,31.8358873 C42.9556226,31.8422535 44.1300377,30.6358592 44.2885283,29.001338 C44.361434,28.2517183 44.3186415,27.4877746 44.2964528,26.7317887 C44.2473208,25.1354648 43.5531321,23.9115634 42.1489057,23.1269296 C41.4467925,22.7338169 40.7335849,22.3629859 40.0330566,21.9650986 C39.8555472,21.864831 39.6669434,21.7295493 39.5655094,21.5608451 C39.2326792,21.0117606 38.9378868,20.4403944 38.5495849,19.7321549 L38.5495849,19.7321549 Z" id="Fill-21" fill="#000000"></path>
                <path d="M104.801811,16.151169 C105.992075,16.2721268 107.298038,16.1288873 108.336151,16.5920282 C109.321962,17.0312958 110.452,17.5549155 111.013057,18.7278873 C111.322113,19.3724648 111.884755,19.8976761 112.345962,20.4674507 C113.13683,21.444662 112.992604,22.6049014 112.938717,23.722169 C112.88483,24.8187465 112.572604,25.9169155 112.616981,27.0039437 C112.680377,28.5413803 111.860981,29.4565211 110.79117,30.3016338 C110.128679,30.823662 109.513736,31.4093521 108.825887,31.8947746 C108.543774,32.0937183 108.117434,32.0746197 107.773509,32.2003521 C105.877962,32.8958592 103.882566,33.0406901 102.056755,32.3340423 C100.929887,31.8963662 99.7935094,31.1547042 99.1278491,29.8321268 C98.6571321,28.8978873 98.002566,28.0607324 97.8932075,26.9832535 C97.8424906,26.4755493 97.8203019,25.9264648 97.953434,25.4442254 C98.2228679,24.4686056 98.4479245,23.4213662 98.9899623,22.6017183 C99.5541887,21.7470563 100.501962,21.155 101.216755,20.3846901 C101.46717,20.1157183 101.711245,19.6080141 101.62883,19.2992535 C101.202491,17.715662 102.235849,16.2164225 103.844528,16.2132394 L104.795472,16.2132394 C104.797057,16.1925493 104.800226,16.1718592 104.801811,16.151169 L104.801811,16.151169 Z M105.356528,19.5157042 C105.424679,19.9024507 105.546717,20.2589577 105.530868,20.6106901 C105.519774,20.8828451 105.413585,21.2759577 105.218642,21.3953239 C103.774792,22.2690845 102.833358,23.591662 101.941057,24.9635775 C101.763547,25.2373239 101.533736,25.593831 101.574943,25.8739437 C101.784151,27.257 102.628906,28.2771831 103.858792,28.7785211 C105.461132,29.4310563 106.998491,28.8947042 108.424906,28.0416338 C108.551698,27.966831 108.738717,27.8315493 108.738717,27.7249155 C108.733962,26.0076338 109.550189,24.382662 109.041434,22.5635211 C108.779925,21.6276901 108.616679,21.1995634 107.634038,21.4382958 C107.954189,20.1316338 107.665736,20.1777887 105.356528,19.5157042 L105.356528,19.5157042 Z" id="Fill-22" fill="#000000"></path>
                <path d="M91.4553208,19.6700845 C90.5408302,21.8711972 91.4695849,23.8924648 91.5567547,25.9471549 C91.636,27.8013099 91.7073208,29.661831 91.6375849,31.5143944 C91.5979623,32.5457183 90.7738113,33.2014366 89.737283,33.1902958 C89.0399245,33.182338 88.3441509,32.988169 87.7196981,32.889493 C87.7450566,32.4995634 87.772,32.2035352 87.7830943,31.907507 C87.8163774,31.0464789 87.8845283,30.1838592 87.8639245,29.3244225 C87.8464906,28.6161831 87.7244528,27.9111268 87.4803774,27.2665493 C87.6008302,27.0214507 87.8417358,26.7668028 87.822717,26.5328451 C87.670566,24.6293521 87.4502642,22.7290423 87.2933585,20.8255493 C87.2458113,20.2446338 87.1982642,20.0998028 86.478717,20.1666479 C84.7860377,20.3210282 83.068,20.233493 81.3626415,20.2128028 C80.8935094,20.2080282 80.4180377,20.2207606 80.3815849,19.4536338 C80.362566,19.0637042 79.8981887,18.6944648 79.6541132,18.3427324 C79.7238491,18.2217746 79.7492075,18.1628873 79.7856604,18.1135493 C80.8855849,16.6572817 82.2707925,16.2164225 84.0918491,16.5410986 C85.2393208,16.7448169 86.4723774,16.4917606 87.6642264,16.4121831 C89.049434,16.3214648 90.4362264,16.2227887 91.8166792,16.0763662 C92.7913962,15.9713239 93.7629434,15.8089859 94.7218113,15.5989014 C94.9183396,15.554338 95.0435472,15.1850986 95.1719245,15.0084366 L96.541283,15.0084366 C96.5460377,15.667338 96.9977358,15.7819296 97.6301132,15.8551408 C98.5652075,15.9633662 99.3750943,16.2928169 99.766566,17.3496056 C100.064528,18.1517465 99.6413585,18.4223099 99.1088302,18.6610423 C98.557283,18.9077324 97.9756226,19.1416901 97.3844528,19.2324085 C96.7758491,19.3279014 96.1149434,19.347 95.517434,19.216493 C94.222566,18.9347887 93.0323019,19.2706056 91.8293585,19.6382535 C91.6835472,19.6828169 91.518717,19.6653099 91.4553208,19.6700845" id="Fill-23" fill="#000000"></path>
                <g id="bg" transform="translate(3.000000, 4.000000)" fill="#FFFFFF">
                    <path d="M1.59932075,8.53357746 C1.45667925,8.13091549 1.21101887,7.73143662 1.18883019,7.32240845 C1.13018868,6.22742254 0.97645283,5.177 0.740301887,4.09474648 C0.504150943,3.01885915 0.212528302,1.6835493 0.995471698,0.607661972 C1.20784906,0.314816901 1.68332075,0.0585774648 2.04150943,0.0538028169 C3.36332075,0.0347042254 4.68671698,0.112690141 6.0085283,0.184309859 C7.64732075,0.27343662 9.2845283,0.418267606 10.9249057,0.486704225 C11.6349434,0.516943662 12.3671698,0.303676056 13.0629434,0.397577465 C14.7049057,0.620394366 16.3278491,0.972126761 17.9650566,1.23950704 C18.2487547,1.28566197 18.5673208,1.1121831 18.8557736,1.14719718 C20.0856604,1.29361972 21.3060377,1.52121127 22.5375094,1.62943662 C22.9670189,1.6676338 23.4139623,1.37956338 23.8593208,1.35569014 C25.7881509,1.25860563 27.718566,1.2124507 29.6473962,1.13287324 C30.877283,1.08353521 32.104,0.989633803 33.3338868,0.956211268 C33.7950943,0.943478873 34.2594717,1.08830986 34.7222642,1.08512676 C35.2769811,1.08035211 35.833283,0.945070423 36.388,0.957802817 C37.2343396,0.976901408 38.0822642,1.15515493 38.9238491,1.12014085 C39.9461132,1.07716901 40.9588679,0.825704225 41.982717,0.768408451 C43.141283,0.70315493 44.3046038,0.730211268 45.4663396,0.758859155 C47.0940377,0.800239437 48.7233208,0.943478873 50.3510189,0.919605634 C51.5603019,0.902098592 52.7790943,0.523309859 53.9756981,0.601295775 C55.8157736,0.720661972 57.6843774,0.232056338 59.5117736,0.959394366 C60.1330566,1.20608451 60.9239245,1.01828169 61.6355472,1.03897183 C62.5658868,1.06602817 63.4962264,1.11059155 64.4249811,1.13128169 C65.2237736,1.14878873 66.0209811,1.13287324 66.8181887,1.14878873 C67.954566,1.17266197 69.0893585,1.22040845 70.2257358,1.24109859 C70.6441509,1.24905634 71.0673208,1.16629577 71.4793962,1.20926761 C72.1498113,1.27611268 72.8075472,1.45595775 73.4779623,1.50847887 C74.7332075,1.60556338 75.9979623,1.61033803 77.2532075,1.72492958 C77.7730566,1.77267606 78.2723019,2.03209859 78.7937358,2.1323662 C79.1550943,2.20239437 79.5386415,2.15783099 79.9110943,2.17692958 C80.7637736,2.22467606 81.6164528,2.31061972 82.4691321,2.32494366 C83.7956981,2.3488169 85.1222642,2.30266197 86.4488302,2.32653521 C87.8403774,2.352 89.2319245,2.40770423 90.6218868,2.48728169 C91.6187925,2.54298592 92.6093585,2.68940845 93.6046792,2.74192958 C94.9470943,2.8135493 96.2942642,2.7944507 97.6350943,2.88835211 C99.1233208,2.99339437 100.606792,3.18438028 102.093434,3.33398592 C104.309132,3.55680282 106.52166,3.8178169 108.742113,3.98015493 C110.006868,4.07246479 111.287472,3.94832394 112.556981,4.01835211 C113.482566,4.06769014 114.398642,4.2761831 115.531849,4.44647887 C115.574642,5.64809859 115.573057,6.90542254 115.672906,8.15319718 C115.894792,10.9352254 116.178491,13.7108873 116.409887,16.4897324 C116.509736,17.688169 116.555698,18.8897887 116.603245,20.0914085 C116.677736,22.0235493 116.810868,23.9556901 116.777585,25.8862394 C116.739547,28.1350986 116.519245,30.3791831 116.438415,32.6264507 C116.406717,33.5049859 116.51766,34.3914789 116.603245,35.2700141 C116.655547,35.8286479 116.501811,36.1199014 115.893208,36.089662 C113.205208,35.9543803 110.716906,36.8695211 108.171547,37.5300141 C107.154038,37.7942113 106.054113,37.7305493 104.992226,37.834 C104.729132,37.8594648 104.467623,37.9342676 104.212453,38.0122535 C103.537283,38.2159718 102.877962,38.5024507 102.188528,38.6345493 C100.443547,38.9671831 98.682717,39.2202394 96.934566,39.5305915 C95.8980377,39.7136197 94.8773585,40.0048732 93.8360755,40.1417465 C92.5998491,40.3056761 91.3477736,40.3454648 90.1036226,40.4568732 C88.2017358,40.627169 86.301434,40.8277042 84.3979623,40.9884507 C82.453283,41.1539718 80.505434,41.2844789 78.5607547,41.4388592 C77.9711698,41.4850141 77.3847547,41.5820986 76.7951698,41.6218873 C74.7870943,41.7587606 72.7568302,41.7428451 70.7741132,42.0436479 C68.4458868,42.3969718 66.1319245,42.1089014 63.8132075,42.1789296 C62.6245283,42.2139437 61.2456604,42.4001549 60.2804528,41.8892676 C59.0410566,41.2351408 58.3468679,42.1837042 57.4038491,42.241 C55.7840755,42.3396761 54.1595472,42.3906056 52.5381887,42.3778732 C50.5443774,42.3635493 48.550566,42.2330423 46.5567547,42.2123521 C45.6089811,42.2012113 44.6564528,42.4065211 43.7118491,42.371507 C42.184,42.3142113 40.6609057,42.0850282 39.1314717,42.032507 C38.0600755,41.997493 36.9791698,42.2139437 35.9061887,42.1837042 C33.3275472,42.1089014 30.7520755,41.9306479 28.173434,41.8478873 C27.2573585,41.8192394 26.3349434,42.0086338 25.4156981,41.9959014 C23.4266415,41.9672535 21.4391698,41.8669859 19.4516981,41.8096901 C17.9238491,41.7651268 16.3912453,41.7985493 14.8697358,41.6903239 C12.7221887,41.5375352 10.5841509,41.2303662 8.43660377,41.0966761 C7.24158491,41.0234648 6.03230189,41.1778451 4.82777358,41.2128592 C4.03690566,41.2367324 3.24128302,41.273338 2.45675472,41.2080845 C2.26656604,41.192169 1.95116981,40.7831408 1.96226415,40.5682817 C2.07796226,38.254169 1.90837736,35.976662 1.43290566,33.7039296 C1.26490566,32.893831 1.44083019,32.0168873 1.40913208,31.1733662 C1.36792453,30.0497324 1.25222642,28.9276901 1.2189434,27.8040563 C1.20467925,27.2883944 1.35049057,26.7695493 1.35683019,26.2507042 C1.37743396,24.0846056 1.40437736,21.918507 1.37267925,19.7524085 C1.34098113,17.6515634 1.06679245,15.5379859 1.23479245,13.457831 C1.33622642,12.2132394 1.22369811,10.971831 1.38535849,9.74315493 C1.44083019,9.32457746 1.66430189,8.92828169 1.81169811,8.52084507 C1.74037736,8.52561972 1.67064151,8.53039437 1.59932075,8.53357746 L1.59932075,8.53357746 Z M12.7221887,10.9240845 C12.1088302,11.2217042 11.4273208,11.568662 10.7331321,11.8821972 C10.381283,12.0413521 10.3353208,12.2800845 10.1895094,12.6302254 C9.75841509,13.6615493 10.6301132,14.474831 10.4034717,15.4393099 C10.2782642,15.9708873 10.4367547,16.5677183 10.4621132,17.1359014 C10.5350189,18.7242676 10.6380377,20.3110423 10.6586415,21.901 C10.6649811,22.3736901 10.5397736,22.8002254 10.6110943,23.3333944 C10.8424906,25.0490845 10.7442264,26.8077465 10.8424906,28.5457183 C10.9201509,29.9080845 9.77426415,31.4232394 11.3100377,32.618493 C11.3338113,32.636 11.3623396,32.6662394 11.3670943,32.6932958 C11.5033962,33.6275352 12.1896604,33.7516761 12.868,33.5336338 C14.0138868,33.1643944 15.0504151,32.5946197 15.2992453,31.216338 C15.3293585,31.0587746 15.5797736,30.941 15.6764528,30.8518732 C14.4497358,28.7398873 14.8190189,26.3987183 14.6034717,23.9493239 C17.0220377,24.4299718 19.3978113,23.7758451 21.9019623,24.0320845 C21.9463396,24.2310282 22.0667925,24.5557042 22.0810566,24.8851549 C22.1206792,25.7796056 22.057283,26.678831 22.1381132,27.5669155 C22.2696604,29.0279577 22.461434,30.4826338 22.6769811,31.9325352 C22.7324528,32.3113239 22.9178868,32.7012535 23.1397736,33.0179718 C23.4932075,33.5288592 23.9258868,33.9840423 24.3141887,34.4471831 C24.5630189,34.3071268 24.8181887,34.0970423 25.1082264,34.0126901 C26.2763019,33.6689155 26.8690566,33.0482113 26.8215094,31.8083944 C26.7692075,30.4921831 26.5457358,29.1807465 26.3571321,27.872493 C26.2461887,27.0894507 26.0036981,26.3239155 25.9196981,25.5392817 C25.7469434,23.9318169 25.6455094,22.3163944 25.5076226,20.7057465 C25.4569057,20.1136901 25.3950943,19.5216338 25.3206038,18.9327606 C25.2572075,18.4393803 25.1922264,17.9428169 25.0828679,17.4573944 C24.930717,16.784169 24.8419623,16.0679718 24.5360755,15.4663662 C24.0843774,14.5766901 24.9925283,13.2748028 23.6643774,12.6700141 C23.5819623,12.6318169 23.5914717,12.3055493 23.6263396,12.1272958 C23.6596226,11.9506338 23.8878491,11.7516901 23.8434717,11.6307324 C23.5518491,10.8301831 23.4139623,9.8195493 22.1428679,10.099662 C22.0667925,10.117169 21.9701132,10.0407746 21.8845283,10.0057606 C20.7925283,9.56808451 20.3994717,10.4832254 19.8114717,11.0593662 C19.2900377,11.5702535 19.3946415,12.0811408 19.6339623,12.6716056 C19.9794717,13.5246761 20.3487547,14.3825211 20.5516226,15.2721972 C20.881283,16.7268732 21.0128302,18.2292958 21.3757736,19.6744225 C21.5659623,20.432 21.4470943,20.4908873 20.7338868,20.4558732 C19.2424906,20.3810704 17.7447547,20.4288169 16.2501887,20.4272254 L14.2579623,20.4272254 C14.3562264,19.7142113 14.6113962,19.1110141 14.4766792,18.6160423 C13.9473208,16.6759437 14.3641509,14.7613099 14.4671698,12.8371268 C14.5004528,12.2387042 14.4782642,11.7294085 13.741283,11.5400141 C13.4179623,11.4572535 13.1421887,11.1850986 12.7221887,10.9240845 L12.7221887,10.9240845 Z M61.2504151,30.7293239 C62.2552453,30.8948451 63.5596226,30.8009437 64.4867925,30.0003944 C65.6247547,29.0184085 66.7563774,27.9902676 67.3744906,26.4735211 C68.2144906,24.4060986 68.526717,22.3084366 68.4601509,20.1057324 C68.4189434,18.7433662 68.0781887,17.3221127 69.0370566,16.0902535 C69.1036226,16.0043099 69.0196226,15.767169 68.9578113,15.6207465 C68.8230943,15.3056197 68.6360755,15.0143662 68.5108679,14.6960563 C68.2255849,13.973493 66.8356226,13.2079577 66.1271698,13.4037183 C65.3664151,13.6138028 64.3869434,15.4440845 64.510566,16.2891972 C64.645283,17.2218451 64.8037736,18.1735915 64.7514717,19.1062394 C64.6373585,21.1497887 64.7245283,23.2426761 63.906717,25.178 C63.7117736,25.6363662 63.2188679,26.0040141 62.7830189,26.2936761 C62.6910943,26.3541549 62.1855094,25.9419437 61.9889811,25.661831 C61.5578868,25.0490845 61.285283,24.3106056 60.8018868,23.7487887 C59.3231698,22.0299155 58.3151698,20.043662 57.4307925,18.1131127 C56.9901887,18.1131127 56.598717,18.108338 56.2056604,18.1147042 C55.858566,18.1194789 55.3862642,17.995338 55.1881509,18.1735915 C54.5811321,18.7242676 53.9646038,19.3481549 53.8647547,20.2171408 C53.6127547,22.4373521 53.4162264,24.6655211 53.1975094,26.8889155 C53.0802264,26.9318873 52.9597736,26.9748592 52.8409057,27.0162394 C52.6285283,26.7759155 52.3226415,26.5706056 52.2196226,26.2889014 C51.8138868,25.1795915 51.3891321,24.065507 51.1276226,22.9164085 C50.8122264,21.5285775 50.6331321,20.1073239 50.4366038,18.6940282 C50.2733585,17.5162817 50.2083774,16.3242113 50.0276981,15.1512394 C49.9262642,14.4859718 48.8057358,13.9257465 48.1638491,14.1326479 C46.7913208,14.5766901 46.0828679,15.8594789 46.4030189,17.317338 C46.4236226,17.4080563 46.4188679,17.5051408 46.434717,17.5990423 C46.8135094,19.9211127 47.0528302,22.2766056 47.6154717,24.5525211 C48.1559245,26.7377183 48.4649811,29.1425493 50.7377358,30.4539859 C50.8787925,30.5351549 50.8946415,30.8311831 50.9326792,30.9298592 C51.7076981,30.9298592 52.4066415,31.0094366 53.0802264,30.909169 C53.9519245,30.7802535 54.9741887,30.7277324 55.6129057,30.2295775 C56.1707925,29.7950845 56.3546415,28.8067324 56.5781132,28.0284648 C56.8015849,27.2517887 56.8713208,26.4305493 57.0535849,25.3578451 C58.546566,27.2677042 59.841434,28.9276901 61.2504151,30.7293239 L61.2504151,30.7293239 Z M29.8993962,27.8947746 C30.1624906,28.0809859 30.6538113,28.2433239 30.7679245,28.5473099 C31.1070943,29.454493 31.9217358,29.7377887 32.6143396,30.1802394 C33.8046038,30.9394085 35.1359245,31.2211127 36.5274717,31.4168732 C39.1726792,31.7877042 41.3883774,30.8375493 43.158717,29.0629718 C44.0700377,28.1494225 44.5233208,26.7472676 45.0716981,25.5154085 C45.3379623,24.9169859 45.5883774,24.1403099 45.4314717,23.5578028 C44.9781887,21.8914507 44.9369811,20.0261549 43.7166038,18.6717465 C43.2379623,18.1417606 43.1349434,17.1629577 42.1491321,17.1199859 C42.0476981,17.1152113 41.9763774,16.8717042 41.8590943,16.7793944 C41.125283,16.2128028 40.4580377,15.4074789 39.6259623,15.1560141 C38.3818113,14.7788169 37.7082264,13.9146056 37.1566792,12.942169 C36.7683774,12.2562113 36.1883019,12.4360563 35.8237736,12.5331408 C35.0487547,12.7400423 34.2848302,13.1156479 33.616,13.570831 C32.7553962,14.1565211 31.6427925,14.4636901 31.2275472,15.6064225 C31.0310189,16.1459577 30.742566,16.6504789 30.490566,17.1693239 C30.4287547,17.2950563 30.306717,17.4032817 30.2845283,17.5321972 C30.0356981,19.0330282 29.718717,20.527493 29.5824151,22.0394648 C29.4350189,23.6851268 29.1386415,25.3610282 29.8819623,26.9732676 C29.9992453,27.2247324 29.8993962,27.5748732 29.8993962,27.8947746 L29.8993962,27.8947746 Z M101.801811,12.151169 C101.800226,12.1718592 101.797057,12.1925493 101.795472,12.2132394 L100.844528,12.2132394 C99.2358491,12.2164225 98.2024906,13.715662 98.6288302,15.2992535 C98.7112453,15.6080141 98.4671698,16.1157183 98.2167547,16.3846901 C97.5019623,17.155 96.5541887,17.7470563 95.9899623,18.6017183 C95.4479245,19.4213662 95.2228679,20.4686056 94.953434,21.4442254 C94.8203019,21.9264648 94.8424906,22.4755493 94.8932075,22.9832535 C95.002566,24.0607324 95.6571321,24.8978873 96.1278491,25.8321268 C96.7935094,27.1547042 97.9298868,27.8963662 99.0567547,28.3340423 C100.882566,29.0406901 102.877962,28.8958592 104.773509,28.2003521 C105.117434,28.0746197 105.543774,28.0937183 105.825887,27.8947746 C106.513736,27.4093521 107.128679,26.823662 107.79117,26.3016338 C108.860981,25.4565211 109.680377,24.5413803 109.616981,23.0039437 C109.572604,21.9169155 109.88483,20.8187465 109.938717,19.722169 C109.992604,18.6049014 110.13683,17.444662 109.345962,16.4674507 C108.884755,15.8976761 108.322113,15.3724648 108.013057,14.7278873 C107.452,13.5549155 106.321962,13.0312958 105.336151,12.5920282 C104.298038,12.1288873 102.992075,12.2721268 101.801811,12.151169 L101.801811,12.151169 Z M88.4553208,15.6700845 C88.518717,15.6653099 88.6835472,15.6828169 88.8293585,15.6382535 C90.0323019,15.2706056 91.222566,14.9347887 92.517434,15.216493 C93.1149434,15.347 93.7758491,15.3279014 94.3844528,15.2324085 C94.9756226,15.1416901 95.557283,14.9077324 96.1088302,14.6610423 C96.6413585,14.4223099 97.0645283,14.1517465 96.766566,13.3496056 C96.3750943,12.2928169 95.5652075,11.9633662 94.6301132,11.8551408 C93.9977358,11.7819296 93.5460377,11.667338 93.541283,11.0084366 L92.1719245,11.0084366 C92.0435472,11.1850986 91.9183396,11.554338 91.7218113,11.5989014 C90.7629434,11.8089859 89.7913962,11.9713239 88.8166792,12.0763662 C87.4362264,12.2227887 86.049434,12.3214648 84.6642264,12.4121831 C83.4723774,12.4917606 82.2393208,12.7448169 81.0918491,12.5410986 C79.2707925,12.2164225 77.8855849,12.6572817 76.7856604,14.1135493 C76.7492075,14.1628873 76.7238491,14.2217746 76.6541132,14.3427324 C76.8981887,14.6944648 77.362566,15.0637042 77.3815849,15.4536338 C77.4180377,16.2207606 77.8935094,16.2080282 78.3626415,16.2128028 C80.068,16.233493 81.7860377,16.3210282 83.478717,16.1666479 C84.1982642,16.0998028 84.2458113,16.2446338 84.2933585,16.8255493 C84.4502642,18.7290423 84.670566,20.6293521 84.822717,22.5328451 C84.8417358,22.7668028 84.6008302,23.0214507 84.4803774,23.2665493 C84.7244528,23.9111268 84.8464906,24.6161831 84.8639245,25.3244225 C84.8845283,26.1838592 84.8163774,27.0464789 84.7830943,27.907507 C84.772,28.2035352 84.7450566,28.4995634 84.7196981,28.889493 C85.3441509,28.988169 86.0399245,29.182338 86.737283,29.1902958 C87.7738113,29.2014366 88.5979623,28.5457183 88.6375849,27.5143944 C88.7073208,25.661831 88.636,23.8013099 88.5567547,21.9471549 C88.4695849,19.8924648 87.5408302,17.8711972 88.4553208,15.6700845 L88.4553208,15.6700845 Z" id="Fill-17"></path>
                    <path d="M35.5495849,15.7321549 C35.9378868,16.4403944 36.2326792,17.0117606 36.5655094,17.5608451 C36.6669434,17.7295493 36.8555472,17.864831 37.0330566,17.9650986 C37.7335849,18.3629859 38.4467925,18.7338169 39.1489057,19.1269296 C40.5531321,19.9115634 41.2473208,21.1354648 41.2964528,22.7317887 C41.3186415,23.4877746 41.361434,24.2517183 41.2885283,25.001338 C41.1300377,26.6358592 39.9556226,27.8422535 38.3469434,27.8358873 C37.3215094,27.8311127 36.2358491,27.6417183 35.2912453,27.2565634 C34.2024151,26.8141127 33.6318491,25.8400845 33.2736604,24.6464225 C32.6761509,22.6585775 33.3227925,20.8282958 33.7871698,19.0091549 C34.0708679,17.9046197 34.8791698,16.9369577 35.5495849,15.7321549" id="Fill-29"></path>
                    <path d="M102.356528,15.5157042 C104.665736,16.1777887 104.954189,16.1316338 104.634038,17.4382958 C105.616679,17.1995634 105.779925,17.6276901 106.041434,18.5635211 C106.550189,20.382662 105.733962,22.0076338 105.738717,23.7249155 C105.738717,23.8315493 105.551698,23.966831 105.424906,24.0416338 C103.998491,24.8947042 102.461132,25.4310563 100.858792,24.7785211 C99.6289057,24.2771831 98.7841509,23.257 98.5749434,21.8739437 C98.5337358,21.593831 98.7635472,21.2373239 98.9410566,20.9635775 C99.8333585,19.591662 100.774792,18.2690845 102.218642,17.3953239 C102.413585,17.2759577 102.519774,16.8828451 102.530868,16.6106901 C102.546717,16.2589577 102.424679,15.9024507 102.356528,15.5157042" id="Fill-30"></path>
                </g>
            </g>
        </g>
    </g>
</svg>