<svg width="129" height="57" viewBox="0 0 129 57" xmlns="http://www.w3.org/2000/svg" xmlns:sketch="http://www.bohemiancoding.com/sketch/ns"><title>how-to</title><desc>Created with Sketch.</desc><g sketch:type="MSShapeGroup" fill="#000"><path d="M76.69 53.414l-.515-.662c-.474-.586-1.068-.764-1.831-.734-1.014.041-2.04-.166-3.054-.115-1.724.088-3.442.296-5.165.442-.439.038-.883.062-1.323.043-.943-.043-1.883-.148-2.826-.173-1.146-.03-2.293-.006-3.439-.006-2.514 0-5.027.046-7.538-.016-1.686-.043-3.368-.296-5.054-.344-1.262-.033-2.526.134-3.791.169-.986.027-1.973-.016-2.959-.019-1.192-.003-2.382.016-3.572-.002-.783-.011-1.566-.051-2.346-.111-1.373-.105-2.74-.266-4.114-.353-2.677-.17-5.355-.329-8.035-.447-1.355-.059-2.717-.011-4.075-.025-2.006-.021-4.016-.022-6.021-.099-.694-.027-1.379-.353-2.07-.361-1.14-.014-2.311-.021-3.414.223-1.452.321-2.181-.024-2.479-1.491-.04-.191-.154-.425-.307-.525-1.457-.949-1.685-1.609-1.404-3.318.122-.743-.059-1.534-.098-2.305l.006-.512c-.068-2.22.006-4.458-.255-6.654-.181-1.51.125-2.94.151-4.405.016-.847-.363-1.786-.108-2.524.452-1.316-.154-2.504-.108-3.756.06-1.625-.223-3.259-.268-4.892-.024-.875.165-1.752.219-2.632.024-.377-.054-.762-.089-1.198.049-.256.181-.603.173-.945l-.178-4.633c-.032-1.308.068-2.624-.033-3.925-.065-.855.309-1.366.867-1.867.323-.291.526-.536.387-1.119-.108-.442.388-1.031.613-1.55 1.127.231 2.114.449 3.013-.412.116-.11 1.274-.576 1.358.587 1.598 0 3.113.03 4.625-.006 2.736-.065 5.439.191 8.156.522 2.642.32 5.325.425 7.99.403 2.637-.021 5.27-.342 7.906-.479.835-.043 1.682.135 2.52.123 1.401-.021 2.801-.137 4.2-.169 1.346-.032 2.691-.01 4.035-.011 2.257-.002 4.515.043 6.771-.021 2.266-.065 4.53-.32 6.796-.339 2.718-.024 5.439.099 8.158.188.701.022 1.395.191 2.095.229 1.241.07 2.485.053 3.723.143 2.087.151 4.168.384 6.257.533 2.336.166 4.677.264 7.013.417 1.523.1 3.041.271 4.563.368 1.487.094 2.978.103 4.465.207l9.67.734c2.241.161 4.484.328 6.73.382 1.082.027 2.17-.245 3.259-.288.468-.018.94.261 1.418.301 1.476.124 2.959.164 4.435.301 1.198.11 1.694.95 1.526 2.174-.09.651.106 1.337.081 2.004-.014.417-.306.832-.29 1.241.054 1.294.181 2.588.301 3.879.201 2.163.412 4.324.632 6.486.176 1.711.437 3.415.536 5.131.076 1.332-.068 2.675-.065 4.015.005 1.657.095 3.314.082 4.97-.01 1.391-.214 2.787-.147 4.171.07 1.45.051 3.041.656 4.281.431.885.388 1.736.552 2.561.185.934-.013 2.009-.292 2.948-.155.522-.865.855-1.238 1.34-.531.694-1.122.111-1.666.186-1.842.255-3.669-.409-5.539.1-1.106.302-2.347.103-3.53.134-1.525.037-3.049.075-4.574.116-2.333.062-4.666.175-6.999.169-1.081-.002-2.16-.247-3.243-.35-.269-.025-.55.11-.826.108-1.14-.005-2.279-.029-3.419-.057-.8-.019-1.599-.049-2.398-.086-.968-.045-1.937-.102-2.907-.153-.094-.005-.2-.038-.282-.008-1.205.427-2.395.129-3.609.037-.992-.075-2.014.201-3.019.35-1.135.167-2.276.318-3.392.575-.643.148-1.244.489-2.032.812zm-71.091-38.88l.212-.013c-.147.407-.371.804-.426 1.222-.162 1.229-.049 2.47-.151 3.715-.168 2.08.106 4.194.138 6.295.032 2.166.005 4.332-.016 6.498-.006.519-.152 1.038-.138 1.553.033 1.124.149 2.246.19 3.369.032.844-.144 1.72.024 2.531.475 2.273.645 4.55.529 6.864-.011.215.304.624.494.64.785.065 1.58.029 2.371.005 1.205-.035 2.414-.189 3.609-.116 2.148.134 4.286.441 6.433.594 1.522.108 3.054.075 4.582.119 1.987.057 3.975.158 5.964.186.919.013 1.842-.177 2.758-.148 2.579.083 5.154.261 7.733.336 1.073.03 2.154-.186 3.225-.151 1.529.053 3.053.282 4.58.339.945.035 1.897-.17 2.845-.159 1.994.021 3.988.151 5.981.166 1.621.013 3.246-.038 4.866-.137.943-.057 1.637-1.006 2.877-.352.965.511 2.344.325 3.533.29 2.319-.07 4.633.218 6.961-.135 1.983-.301 4.013-.285 6.021-.422.59-.04 1.176-.137 1.766-.183 1.945-.154 3.893-.285 5.837-.45 1.903-.161 3.804-.361 5.706-.532 1.244-.111 2.496-.151 3.732-.315 1.041-.137 2.062-.428 3.098-.611 1.748-.31 3.509-.563 5.254-.896.689-.132 1.349-.419 2.024-.622.255-.078.517-.153.78-.178 1.062-.103 2.162-.04 3.179-.304 2.545-.66 5.034-1.576 7.722-1.44.609.03.762-.261.71-.82-.086-.879-.197-1.765-.165-2.644.081-2.247.301-4.491.339-6.74.033-1.931-.1-3.863-.174-5.795-.048-1.202-.094-2.403-.193-3.602-.231-2.779-.515-5.555-.737-8.337-.1-1.248-.098-2.505-.141-3.707-1.133-.17-2.049-.379-2.975-.428-1.27-.07-2.55.054-3.815-.038-2.22-.162-4.433-.423-6.649-.646-1.487-.15-2.97-.341-4.458-.446-1.341-.094-2.688-.075-4.03-.146-.995-.053-1.986-.199-2.983-.255-1.39-.08-2.782-.135-4.173-.161l-3.98-.002c-.853-.014-1.705-.1-2.558-.148-.372-.019-.756.025-1.117-.045-.521-.1-1.021-.36-1.541-.407-1.255-.115-2.52-.119-3.775-.216-.67-.053-1.328-.232-1.999-.299-.412-.043-.835.04-1.254.032-1.136-.021-2.271-.068-3.408-.092l-2.393-.018c-.929-.021-1.859-.065-2.789-.092-.712-.021-1.502.167-2.124-.08-1.827-.727-3.696-.239-5.536-.358-1.197-.078-2.415.301-3.625.318-1.628.024-3.257-.119-4.885-.161-1.162-.029-2.325-.056-3.484.01-1.024.057-2.037.309-3.059.352-.842.035-1.69-.143-2.536-.162-.555-.013-1.111.123-1.666.127-.463.003-.927-.142-1.388-.129-1.23.033-2.457.127-3.686.177-1.929.08-3.859.126-5.788.223-.445.024-.892.312-1.322.274-1.231-.108-2.452-.336-3.682-.482-.288-.035-.607.138-.891.092-1.637-.267-3.26-.619-4.902-.842-.696-.094-1.428.119-2.138.089-1.64-.068-3.278-.213-4.916-.302-1.322-.072-2.645-.15-3.967-.131-.358.005-.834.261-1.046.554-.783 1.076-.491 2.411-.255 3.487.236 1.082.39 2.133.449 3.228.022.409.268.809.41 1.211z"/><path d="M16.722 16.924c.42.261.696.533 1.019.616.737.189.759.699.726 1.297-.103 1.924-.52 3.839.01 5.779.135.495-.12 1.098-.219 1.811h1.992c1.495.002 2.992-.046 4.484.029.713.035.832-.024.642-.781-.363-1.445-.494-2.948-.824-4.402-.203-.89-.572-1.748-.918-2.601-.239-.59-.344-1.101.178-1.612.588-.576.981-1.491 2.073-1.054.086.035.182.111.258.094 1.271-.28 1.409.731 1.701 1.531.044.121-.184.32-.217.497-.035.178-.044.505.038.543 1.328.605.42 1.907.872 2.796.306.602.395 1.318.547 1.991.109.485.174.982.238 1.475.074.589.136 1.181.187 1.773.138 1.611.239 3.226.412 4.834.084.785.326 1.55.437 2.333.189 1.308.412 2.62.464 3.936.048 1.24-.545 1.861-1.713 2.204-.29.084-.545.294-.794.434-.388-.463-.821-.918-1.174-1.429-.222-.317-.407-.707-.463-1.085-.216-1.45-.407-2.905-.539-4.366-.081-.888-.017-1.787-.057-2.682-.014-.329-.135-.654-.179-.853-2.504-.256-4.88.398-7.298-.083.216 2.449-.154 4.791 1.073 6.903-.097.089-.347.207-.377.364-.249 1.378-1.285 1.948-2.431 2.317-.678.218-1.365.094-1.501-.84l-.057-.075c-1.536-1.195-.39-2.71-.468-4.073-.098-1.738 0-3.497-.231-5.212-.071-.533.054-.96.048-1.432-.021-1.59-.124-3.177-.197-4.765-.025-.568-.184-1.165-.059-1.697.227-.964-.645-1.778-.214-2.809.146-.35.192-.589.544-.748.694-.314 1.376-.66 1.989-.958"/><path d="M65.25 36.729l-4.197-5.371c-.182 1.073-.252 1.894-.475 2.671-.223.778-.407 1.767-.965 2.201-.639.498-1.661.551-2.533.68-.674.1-1.373.021-2.148.021-.038-.099-.054-.395-.195-.476-2.273-1.311-2.582-3.716-3.122-5.901-.563-2.276-.802-4.631-1.181-6.953l-.032-.282c-.32-1.458.388-2.741 1.761-3.185.642-.207 1.762.353 1.864 1.019.181 1.173.246 2.365.409 3.543.197 1.413.376 2.835.691 4.222.262 1.149.686 2.263 1.092 3.372.103.282.409.487.621.727l.357-.127c.219-2.223.415-4.452.667-6.672.1-.869.716-1.493 1.323-2.044.198-.178.67-.054 1.018-.059l1.225-.002c.884 1.931 1.892 3.917 3.371 5.636.483.562.756 1.3 1.187 1.913.197.28.702.692.794.632.436-.29.929-.657 1.124-1.116.818-1.935.731-4.028.845-6.072.052-.933-.106-1.884-.241-2.817-.124-.845.856-2.675 1.617-2.885.708-.196 2.098.57 2.384 1.292.125.318.312.61.447.925.062.146.146.384.079.47-.959 1.232-.618 2.653-.577 4.015.067 2.203-.246 4.3-1.086 6.368-.618 1.517-1.75 2.545-2.888 3.527-.927.801-2.232.894-3.236.729"/><path d="M33.899 33.895c0-.32.1-.67-.017-.922-.743-1.612-.447-3.288-.3-4.934.136-1.512.453-3.006.702-4.507.022-.129.144-.237.206-.363.252-.519.54-1.023.737-1.563.415-1.143 1.528-1.45 2.388-2.036.669-.455 1.433-.831 2.208-1.038.365-.097.945-.277 1.333.409.552.972 1.225 1.837 2.469 2.214.832.251 1.499 1.057 2.233 1.623.117.092.189.336.29.341.986.043 1.089 1.022 1.567 1.552 1.22 1.354 1.262 3.22 1.715 4.886.157.583-.094 1.359-.36 1.958-.548 1.232-1.002 2.634-1.913 3.548-1.77 1.775-3.986 2.725-6.631 2.354-1.392-.196-2.723-.477-3.913-1.237-.693-.442-1.507-.726-1.846-1.633-.114-.304-.605-.466-.869-.653zm5.65-12.163c-.67 1.205-1.479 2.172-1.762 3.277-.464 1.819-1.111 3.649-.514 5.637.358 1.194.929 2.168 2.018 2.61.945.385 2.03.575 3.056.579 1.609.006 2.783-1.2 2.942-2.835.073-.75.03-1.514.008-2.27-.049-1.596-.743-2.82-2.148-3.605-.702-.393-1.415-.764-2.116-1.162-.178-.1-.366-.236-.468-.404-.333-.549-.628-1.12-1.016-1.829z"/><path d="M105.802 18.151c1.19.121 2.496-.022 3.534.441.986.439 2.116.963 2.677 2.136.309.645.872 1.17 1.333 1.74.791.977.647 2.137.593 3.255-.054 1.097-.366 2.195-.322 3.282.063 1.537-.756 2.453-1.826 3.298-.662.522-1.277 1.108-1.965 1.593-.282.199-.708.18-1.052.306-1.896.696-3.891.84-5.717.134-1.127-.438-2.263-1.179-2.929-2.502-.471-.934-1.125-1.771-1.235-2.849-.051-.508-.073-1.057.06-1.539.269-.976.494-2.023 1.037-2.843.564-.855 1.512-1.447 2.227-2.217.25-.269.494-.777.412-1.085-.426-1.584.607-3.083 2.216-3.086h.951l.006-.062zm.555 3.365c.068.387.19.743.174 1.095-.011.272-.117.665-.312.785-1.444.874-2.385 2.196-3.278 3.568-.178.274-.407.63-.366.91.209 1.383 1.054 2.403 2.284 2.905 1.602.653 3.14.116 4.566-.737.127-.075.314-.21.314-.317-.005-1.717.811-3.342.303-5.161-.262-.936-.425-1.364-1.407-1.125.32-1.307.032-1.261-2.278-1.923z"/><path d="M92.455 21.67c-.914 2.201.014 4.222.101 6.277.079 1.854.151 3.715.081 5.567-.04 1.031-.864 1.687-1.9 1.676-.697-.008-1.393-.202-2.018-.301l.063-.982c.033-.861.101-1.724.081-2.583-.017-.708-.139-1.413-.384-2.058.12-.245.361-.5.342-.734-.152-1.903-.372-3.804-.529-5.707-.048-.581-.095-.726-.815-.659-1.693.154-3.411.067-5.116.046-.469-.005-.945.008-.981-.759-.019-.39-.483-.759-.727-1.111l.132-.229c1.1-1.456 2.485-1.897 4.306-1.572 1.147.204 2.381-.049 3.572-.129 1.385-.091 2.772-.189 4.152-.336.975-.105 1.946-.267 2.905-.477.197-.045.322-.414.45-.59h1.369c.005.659.456.773 1.089.847.935.108 1.745.438 2.136 1.494.298.802-.125 1.073-.658 1.311-.552.247-1.133.481-1.724.571-.609.095-1.27.115-1.867-.016-1.295-.282-2.485.054-3.688.422-.146.045-.311.027-.374.032"/></g></svg>