<?xml version="1.0" encoding="UTF-8" standalone="no"?>
<svg width="125px" height="112px" viewBox="0 0 125 112" version="1.1" xmlns="http://www.w3.org/2000/svg" xmlns:xlink="http://www.w3.org/1999/xlink" xmlns:sketch="http://www.bohemiancoding.com/sketch/ns">
    <!-- Generator: Sketch 3.1.1 (8761) - http://www.bohemiancoding.com/sketch -->
    <title>Start hover</title>
    <desc>Created with Sketch.</desc>
    <defs></defs>
    <g id="Page-1" stroke="none" stroke-width="1" fill="none" fill-rule="evenodd" sketch:type="MSPage">
        <g id="Imported-Layers" sketch:type="MSLayerGroup" transform="translate(3.000000, 0.000000)">
            <g id="Group" sketch:type="MSShapeGroup">
                <path d="M113.149585,69.6902535 C112.399925,69.8303099 112.300075,70.2297887 112.152679,70.9443944 C111.983094,71.7624507 111.280981,72.5645915 110.618491,73.1582394 C110.089132,73.6309296 109.169887,73.5067887 108.665887,74.2691408 C108.482038,74.547662 107.810038,74.5285634 107.352,74.5938169 C106.039698,74.7800282 104.727396,74.985338 103.40717,75.0967465 C100.863396,75.3131972 98.3148679,75.4723521 95.7679245,75.6490141 C93.6885283,75.7922535 91.6059623,75.8972958 89.5281509,76.0707746 C87.8529057,76.2124225 86.1855849,76.4463803 84.5119245,76.6071268 C84.0697358,76.6500986 83.613283,76.5307324 83.1695094,76.5657465 C82.6766038,76.6055352 82.1916226,76.7360423 81.7034717,76.8267606 C81.7240755,76.9031549 81.7446792,76.9795493 81.7668679,77.0559437 C81.3167547,76.9922817 80.8666415,76.9270282 80.337283,76.8506338 C80.321434,76.8092535 80.2596226,76.6389577 80.2184151,76.5259577 C78.8823396,76.6246338 77.5874717,76.7328592 76.289434,76.8060704 C75.8393208,76.8315352 75.3686038,76.8379014 74.9343396,76.7376338 C73.4920755,76.4002254 72.1512453,77.3822113 70.6297358,76.8967887 C69.6772075,76.5943944 68.5154717,77.0145634 67.4488302,77.0050141 C65.285434,76.9843239 63.1220377,76.8760986 60.9602264,76.8315352 C59.5575849,76.8028873 58.1533585,76.8506338 56.750717,76.8203944 C54.9787925,76.7821972 53.2084528,76.6564648 51.4381132,76.6516901 C49.9562264,76.6469155 48.4711698,76.7328592 46.9908679,76.8267606 C45.4519245,76.9238451 43.9177358,77.1211972 42.3772075,77.1896338 C41.5593962,77.2262394 40.7320755,77.0050141 39.9126792,77.0368451 C38.9221132,77.0766338 37.9394717,77.3280986 36.9473208,77.3647042 C35.9615094,77.4013099 34.9677736,77.2883099 33.9772075,77.2389718 C32.5317736,77.1689437 31.0863396,77.0352535 29.6409057,77.0463944 C28.6931321,77.0543521 27.7485283,77.372662 26.8023396,77.3774366 C25.0510189,77.3869859 23.2981132,77.3042254 21.5515472,77.1848592 C20.5895094,77.1196056 19.6433208,76.8585915 18.6828679,76.7774225 C18.3674717,76.7519577 18.0298868,77.0145634 17.6257358,77.1753099 C17.5243019,76.987507 17.3975094,76.7535493 17.3309434,76.631 C16.7730566,76.4909437 16.3007547,76.3843099 15.8363774,76.2522113 C15.0439245,76.0262113 14.2657358,75.7476901 13.4653585,75.5630704 C13.0104906,75.4564366 12.4510189,75.6299155 12.0643019,75.4325634 C11.3526792,75.0696901 10.7440755,74.5110563 10.0752453,74.0590563 C8.16384906,72.7651268 8.89449057,70.7884225 8.79939623,69.0409014 C8.67735849,66.8047746 9.48883019,64.6768732 9.66475472,62.4869014 C9.80422642,60.7552958 9.43335849,58.985493 9.33192453,57.2284225 C9.29388679,56.5790704 9.00226415,55.9854225 9.4634717,55.2453521 C9.87237736,54.5896338 9.81849057,53.6251549 9.912,52.7911831 C10.0657358,51.4192676 10.2670189,50.044169 10.2717736,48.6690704 C10.2749434,47.6234225 9.99124528,46.5777746 9.85811321,45.5305352 C9.74716981,44.6551831 9.62830189,43.779831 9.58392453,42.8997042 C9.48407547,40.8991268 9.2685283,38.8826338 9.4365283,36.9011549 C9.49833962,36.1579014 9.54430189,35.4194225 9.56173585,34.6666197 C9.576,33.998169 9.82166038,33.4602254 10.4952453,33.0241408 C10.9453585,32.7328873 11.0832453,31.9450704 11.3447547,31.3705211 C11.441434,31.1604366 11.490566,30.929662 11.5333585,30.7959718 C13.1119245,30.7959718 14.6064906,30.6781972 16.0725283,30.8309859 C17.4498113,30.9742254 18.7367547,30.4171831 20.1679245,30.703662 C21.621283,30.9933239 23.1982642,30.6941127 24.7181887,30.5890704 C25.0843019,30.5636056 25.434566,30.2882676 25.8466415,30.1036479 C25.9163774,30.3216901 25.9861132,30.5413239 26.0083019,30.608169 C28.1859623,30.608169 30.3208302,30.5922535 32.4556981,30.6129437 C35.4844528,30.6415915 38.5116226,30.7641408 41.5372075,30.721169 C43.932,30.6877465 46.3220377,30.4569718 48.7168302,30.332831 C49.8611321,30.2739437 51.0101887,30.2850845 52.1544906,30.219831 C53.8741132,30.1195634 55.590566,29.979507 57.3086038,29.8569577 C58.2468679,29.7901127 59.1851321,29.7328169 60.1218113,29.6516479 C62.2709434,29.4686197 64.4169057,29.2139718 66.5707925,29.1057465 C67.8181132,29.0436761 69.0781132,29.252169 70.3333585,29.2585352 C71.3683019,29.2633099 72.4064151,29.1773662 73.4381887,29.0770986 C73.7298113,29.0484507 74.0024151,28.8288169 74.3083019,28.6855775 C74.6490566,29.7566901 75.5366038,28.9911549 76.1800755,29.0500423 C77.9060377,29.2107887 79.6446792,29.2585352 81.378566,29.3142394 C82.0109434,29.3349296 82.6464906,29.2696761 83.277283,29.2107887 C84.269434,29.1200704 85.2695094,28.8526901 86.2473962,28.9243099 C88.3378868,29.0786901 90.4109434,29.0707324 92.4015849,28.4213803 C94.130717,27.8563803 95.8123019,28.1460423 97.5382642,28.2654085 C99.0898868,28.3736338 100.658943,28.2192535 102.220075,28.1778732 C102.312,28.1762817 102.415019,28.1158028 102.492679,28.1428592 C104.589509,28.8701972 106.955774,28.3545352 108.949585,29.4829437 C110.166792,30.1720845 111.147849,31.1126901 111.704151,32.4957465 C112.392,34.2130282 112.243019,36.0114789 112.447472,37.776507 C112.501358,38.2491972 112.723245,38.7027887 112.881736,39.1595634 C112.911849,39.2486901 113.064,39.3155352 113.062415,39.3919296 C113.059245,40.8131831 112.999019,42.2376197 113.043396,43.6572817 C113.06717,44.4100845 113.295396,45.153338 113.373057,45.9077324 C113.425358,46.4122535 113.377811,46.929507 113.369887,47.4403944 C113.366717,47.6361549 113.311245,47.8366901 113.342943,48.024493 C113.392075,48.3221127 113.577509,48.6149577 113.560075,48.8998451 C113.392075,51.6436761 113.285887,54.3970563 112.972075,57.1249718 C112.761283,58.953662 112.076604,60.7314225 111.907019,62.5601127 C111.704151,64.734169 111.949811,66.9241408 112.651925,69.0218028 C112.726415,69.2462113 112.945132,69.4228732 113.149585,69.6902535 L113.149585,69.6902535 Z M107.732377,34.2480423 C107.182415,34.1891549 106.382038,34.192338 105.633962,34.0013521 C104.017358,33.5891408 102.733585,35.0613239 100.966415,34.5520282 C99.4686792,34.1207183 97.7189434,34.5408873 96.0833208,34.6300141 C95.4350943,34.6650282 94.7963774,34.8448732 94.1481509,34.9133099 C92.718566,35.064507 91.2889811,35.2507183 89.8546415,35.2936901 C88.9956226,35.3207465 88.1302642,35.0247183 87.2664906,35.0183521 C85.8194717,35.0088028 84.369283,35.1838732 82.9238491,35.1504507 C81.3928302,35.1154366 79.866566,34.8878451 78.3355472,34.8257746 C77.3909434,34.7859859 76.4415849,34.9101268 75.4938113,34.9419577 C74.6284528,34.9690141 73.7599245,34.9292254 72.8977358,34.9912958 C71.5901887,35.0867887 70.290566,35.3127887 68.9830189,35.3605352 C67.2190189,35.4257887 65.4486792,35.3748592 63.6815094,35.3732676 C62.6323019,35.3732676 61.5815094,35.3955493 60.5323019,35.368493 C59.3309434,35.336662 58.1169057,35.1122535 56.9329811,35.2300282 C53.7362264,35.5499296 50.5521509,35.9350845 47.3332075,35.5849437 C46.9686792,35.5451549 46.5883019,35.6390563 46.2158491,35.6868028 C45.5692075,35.7695634 44.9209811,35.9430423 44.2759245,35.9382676 C42.890717,35.9287183 41.5039245,35.8332254 40.1203019,35.7616056 C39.4055094,35.725 38.6923019,35.6310986 37.9775094,35.629507 C37.3102642,35.6263239 36.6430189,35.725 35.9757736,35.7504648 C35.2546415,35.7807042 34.5335094,35.7631972 33.8123774,35.7902535 C32.2369811,35.8491408 30.7392453,36.4411972 29.1242264,36.3648028 C26.8276981,36.2565775 24.5232453,36.353662 22.2219623,36.3234225 C21.7797736,36.3170563 21.3439245,36.1006056 20.8969811,36.0305775 C20.1901132,35.9223521 19.4721509,35.7616056 18.765283,35.7902535 C17.5195472,35.8427746 16.2817358,36.0592254 15.0375849,36.1340282 C14.1706415,36.1849577 13.6666415,36.321831 13.4495094,37.402493 C13.2910189,38.1919014 13.322717,38.9192394 13.3607547,39.6656761 C13.4384151,41.230169 13.3956226,42.8471831 13.7870943,44.3400563 C14.3497358,46.4854648 14.4131321,48.6197324 14.3323019,50.7890141 C14.3227925,51.0659437 14.0438491,51.4192676 14.1421132,51.5975211 C14.5953962,52.4251268 14.0089811,53.1110845 13.944,53.8591127 C13.7966038,55.549338 13.3781887,57.2920845 13.6333585,58.9234225 C13.9741132,61.086338 13.473283,63.1473944 13.473283,65.2561972 C13.473283,67.0403239 12.5413585,68.721 12.9201509,70.5974366 C13.0960755,71.464831 13.3544151,71.9470704 14.2213585,72.0584789 C14.397283,72.0807606 14.6413585,72.1125915 14.7237736,72.2319577 C15.2436226,72.9783944 16.0883774,72.9147324 16.7968302,72.9783944 C18.5402264,73.1311831 20.2978868,73.128 22.0507925,73.2012113 C23.1792453,73.2473662 24.3076981,73.3810563 25.434566,73.3683239 C27.7469434,73.3460423 30.0561509,73.2139437 32.3685283,73.1996197 C33.8266415,73.1900704 35.2910943,73.4112958 36.7460377,73.3476338 C38.4862642,73.272831 40.2153962,72.9386056 41.9556226,72.8335634 C43.7180377,72.7285211 45.4899623,72.7858169 47.2555472,72.7317042 C48.8452075,72.6839577 50.4348679,72.5232113 52.0229434,72.5232113 C53.7029434,72.5248028 55.3813585,72.6664507 57.0613585,72.7269296 C57.4829434,72.7428451 57.9108679,72.6330282 58.329283,72.6632676 C59.6368302,72.757169 60.9380377,72.9497465 62.244,72.9879437 C63.2884528,73.0197746 64.3360755,72.8765352 65.3821132,72.8271972 C65.8068679,72.806507 66.2332075,72.8224225 66.6579623,72.8367465 C68.2729811,72.8860845 69.8990943,73.0913944 71.4982642,72.9592958 C73.5015849,72.7937746 75.4399245,72.2128592 77.514566,72.3895211 C79.8063396,72.5852817 82.1282264,72.4356761 84.4358491,72.4340845 C85.2393962,72.4340845 86.0476981,72.4866056 86.8449057,72.418169 C88.6390189,72.2653803 90.4267925,72.0250563 92.2224906,71.8706761 C93.4777358,71.7608592 94.7424906,71.7735915 95.9977358,71.659 C97.2165283,71.5475915 98.4226415,71.2770282 99.641434,71.1958592 C101.128075,71.0987746 102.621057,71.1242394 104.110868,71.0971831 C104.23766,71.0955915 104.370792,71.1194648 104.491245,71.0908169 C105.786113,70.7788732 107.107925,70.5385493 108.355245,70.0929155 C108.737208,69.9576338 109.207925,69.1920986 109.133434,68.8149014 C108.913132,67.6992254 108.184075,66.6456197 108.127019,65.5426761 C108.035094,63.7219437 108.263321,61.8757465 108.45034,60.0502394 C108.575547,58.8422535 108.887774,57.6549577 109.071623,56.4517465 C109.157208,55.8931127 109.136604,55.3169718 109.173057,54.7503803 C109.238038,53.7110986 109.420302,52.6654507 109.345811,51.6373099 C109.285585,50.8001549 109.250717,49.9980141 109.37434,49.1624507 C109.466264,48.5465211 109.534415,47.8096338 109.282415,47.2860141 C108.768906,46.2180845 108.987623,45.153338 108.948,44.0774507 C108.935321,43.7193521 108.688075,43.3692113 108.588226,43.1145634 C108.535925,42.4827183 108.486792,41.9002113 108.442415,41.3192958 C108.314038,39.6147465 108.201509,37.9101972 108.050943,36.2104225 C107.995472,35.5833521 107.851245,34.9626479 107.732377,34.2480423 L107.732377,34.2480423 Z" id="Fill-2" fill="#000000"></path>
                <path d="M74.0563019,86.2391831 C74.121283,85.494338 74.1783396,84.8418028 74.2274717,84.2879437 C74.6173585,84.0794507 74.9264151,83.8248028 75.2766792,83.7436338 C75.8218868,83.6179014 76.5636226,83.3632535 76.9091321,83.6083521 C77.3687547,83.9330282 77.7269434,84.6699155 77.7792453,85.2603803 C77.9440755,87.122493 77.9472453,88.9989296 78.0138113,90.8705915 C78.0740377,92.5687746 78.1310943,94.2669577 78.2024151,95.9635493 C78.3228679,98.9270141 78.4116226,101.893662 78.6018113,104.852352 C78.6763019,105.995085 78.9330566,107.137817 79.2262642,108.248718 C79.3483019,108.713451 79.7778113,109.095423 80.1074717,109.571296 L80.1074717,111.805831 C79.5606792,111.638718 79.1390943,111.555958 78.7603019,111.380887 C78.4179623,111.224915 77.9916226,111.041887 77.8267925,110.745859 C76.6523774,108.640239 75.9518491,106.41207 75.8884528,103.951535 C75.8092075,100.902127 75.533434,97.8590845 75.3448302,94.8128592 C75.2164528,92.7231549 75.1704906,90.6239014 74.9248302,88.5485211 C74.826566,87.7129577 75.146717,86.5606761 74.0563019,86.2391831" id="Fill-3" fill="#000000"></path>
                <path d="M107.854415,79.0660704 C108.567623,79.6390282 109.407623,80.1228592 109.976604,80.8263239 C110.502792,81.4788592 110.719925,82.3780845 111.109811,83.1483944 C111.815094,84.5457746 112.617057,85.897 113.249434,87.3262113 C113.904,88.8095352 114.377887,90.3724366 114.984906,91.8780423 C115.549132,93.2786056 116.170415,94.6568873 116.794868,96.0335775 C117.712528,98.051662 118.639698,100.066563 119.600151,102.065549 C119.855321,102.598718 120.389434,103.049127 120.021736,103.706437 C119.863245,103.989732 119.566868,104.403535 119.344981,104.397169 C118.93766,104.384437 118.363925,104.218915 118.165811,103.91493 C117.107094,102.291549 116.064226,100.645887 115.168755,98.9270141 C114.287547,97.2367887 113.604453,95.4431127 112.802491,93.7099155 C112.198642,92.4000704 111.550415,91.1109155 110.910113,89.8185775 C109.872,87.7177324 108.830717,85.6168873 107.772,83.5255915 C107.619849,83.2247887 107.382113,82.9605915 107.155472,82.7043521 C106.220377,81.6459718 106.221962,80.7085493 107.174491,79.7568028 C107.364679,79.5658169 107.553283,79.3716479 107.854415,79.0660704" id="Fill-4" fill="#000000"></path>
                <path d="M36.7159245,103.238521 C36.9298868,101.567394 37.1818868,99.5715915 37.4433962,97.5757887 C37.6446792,96.0288028 37.8554717,94.4834085 38.0710189,92.9380141 C38.1883019,92.1056338 38.3626415,91.2796197 38.4403019,90.4440563 C38.5433208,89.3442958 38.5338113,88.2318028 38.6590189,87.1352254 C38.7255849,86.557493 38.925283,85.9113239 39.6400755,85.8269718 C40.4182642,85.734662 41.1473208,85.7585352 41.7067925,86.5686338 C42.5293585,87.7622958 41.7765283,88.835 41.6069434,89.9363521 C41.2408302,92.3332254 40.7352453,94.7078169 40.3627925,97.1046901 C39.9966792,99.4585915 39.6638491,101.823634 39.4419623,104.195042 C39.3706415,104.968535 39.7335849,105.773859 39.8128302,106.572817 C39.8366038,106.819507 39.6432453,107.239676 39.4372075,107.331986 C38.5544151,107.733056 37.0915472,106.951606 36.9489057,106.009408 C36.8268679,105.205676 36.8062642,104.384437 36.7159245,103.238521" id="Fill-5" fill="#000000"></path>
                <path d="M86.8464906,-0.207408451 C88.1635472,-0.237647887 88.6358491,0.254140845 88.4662642,1.12153521 C87.9194717,3.91629577 87.3821887,6.71423944 86.838566,9.51059155 C86.3979623,11.7737746 85.9129811,14.0305915 85.5262642,16.3033239 C85.3123019,17.5606479 85.3329057,18.8577606 85.1110189,20.113493 C84.9937358,20.7692113 84.738566,21.5570282 84.269434,21.9612817 C83.4896604,22.634507 82.6956226,21.9628732 82.0046038,21.5156479 C81.4879245,21.179831 81.3658868,20.7517042 81.597283,20.0657465 C82.1900377,18.3198169 82.6876981,16.5372817 83.1203774,14.7436056 C83.9413585,11.3504225 84.705283,7.94291549 85.4596981,4.5338169 C85.7481509,3.23192958 85.9034717,1.89821127 86.2141132,0.601098592 C86.3028679,0.233450704 86.721283,-0.0546197183 86.8464906,-0.207408451" id="Fill-6" fill="#000000"></path>
                <path d="M44.9162264,18.0922254 C44.9162264,14.0862958 44.9701132,10.0803662 44.8876981,6.07602817 C44.8591698,4.6563662 44.4217358,3.24784507 44.3393208,1.825 C44.3139623,1.37459155 44.7307925,0.747521127 45.1301887,0.464225352 C45.6072453,0.123633803 46.6501132,0.85256338 46.7467925,1.52897183 C46.8704151,2.3868169 46.8276226,3.27808451 47.0241509,4.11523944 C47.9053585,7.88721127 47.4552453,11.7132958 47.5867925,15.515507 C47.610566,16.1998732 47.5455849,16.9924648 47.8593962,17.5399577 C48.3633962,18.4137183 47.393434,18.8084225 47.4742642,19.4832394 C46.854566,19.5532676 46.2110943,19.7585775 45.6215094,19.6551268 C45.057283,19.5580423 44.688,19.0455634 44.7260377,18.3787042 C44.7307925,18.2832113 44.7276226,18.1877183 44.7276226,18.0922254 L44.9162264,18.0922254" id="Fill-7" fill="#000000"></path>
                <path d="M114.346189,8.26759155 C114.222566,8.08774648 114.087849,7.88880282 113.785132,7.44635211 C114.645736,7.28560563 115.362113,7.15032394 115.962792,7.03732394 C116.901057,8.11639437 116.352679,8.90580282 115.813811,9.71749296 C114.975396,10.978 114.173434,12.2623803 113.342943,13.527662 C112.320679,15.0841972 111.271472,16.6232254 110.257132,18.1861268 C109.314113,19.6408028 108.396453,21.1113944 107.481962,22.585169 C107.234717,22.9846479 105.462792,23.439831 105.084,23.0833239 C104.473811,22.5103662 104.74166,21.9660563 105.177509,21.3294366 C105.936679,20.2201268 106.502491,18.9803099 107.228377,17.8455352 C107.881358,16.8269437 108.640528,15.8767887 109.350566,14.8948028 C110.019396,13.9685211 110.667623,13.0263239 111.358642,12.1159577 C112.327019,10.8363521 113.325509,9.57902817 114.346189,8.26759155" id="Fill-8" fill="#000000"></path>
                <path d="M8.46973585,18.2227324 C8.39207547,18.7543099 8.30649057,19.3415915 8.20188679,20.0641549 C8.07033962,20.1055352 7.75811321,20.2185352 7.43796226,20.3028873 C5.81660377,20.7294225 5.67871698,20.614831 4.92430189,19.0121408 C4.26815094,17.6179437 3.62309434,16.2173803 3.01290566,14.802493 C2.06671698,12.6045634 1.15222642,10.3923099 0.225056604,8.18801408 C0.128377358,7.95883099 0.0316981132,7.72964789 -0.0633962264,7.50046479 C-0.465962264,6.53916901 -0.0491320755,5.9025493 0.925584906,5.328 C1.38520755,6.20494366 1.83849057,7.09461972 2.31554717,7.97156338 C3.39328302,9.95940845 4.48528302,11.9377042 5.56460377,13.9239577 C5.91962264,14.5780845 6.19064151,15.2863239 6.6090566,15.8942958 C7.16060377,16.6948451 7.81992453,17.4205915 8.46973585,18.2227324" id="Fill-9" fill="#000000"></path>
                <path d="M3.75939623,95.8569155 C3.19992453,95.7200423 2.87501887,95.6086338 2.54218868,95.5640704 C1.71169811,95.4510704 1.59283019,95.0611408 1.94467925,94.3369859 C2.77833962,92.613338 3.56445283,90.8674085 4.37592453,89.1326197 C5.03524528,87.7240986 5.69298113,86.3155775 6.36815094,84.9150141 C6.82460377,83.9680423 7.20973585,82.9653662 7.80883019,82.1154789 C8.3730566,81.3165211 9.11796226,81.4533944 9.95637736,82.3064648 C10.6046038,82.9669577 10.5079245,83.3170986 9.85811321,84.120831 C9.34618868,84.7526761 8.86913208,85.5038873 8.67260377,86.2789718 C8.29222642,87.7782113 7.27788679,88.8907042 6.61698113,90.208507 C5.79758491,91.8414366 5.14777358,93.5603099 4.38701887,95.2234789 C4.26181132,95.4972254 3.93849057,95.6818451 3.75939623,95.8569155" id="Fill-10" fill="#000000"></path>
                <path d="M66.4344906,12.9738028 C65.5453585,15.4088732 64.6387925,17.8996479 63.7290566,20.3920141 C63.3550189,20.3585915 63.0412075,20.2296761 62.9033208,20.3347183 C62.1029434,20.9442817 61.9301887,19.7458451 61.3358491,19.8254225 C61.337434,19.4195775 61.2249057,18.969169 61.3612075,18.6158451 C62.1219623,16.6470986 62.933434,14.6958592 63.7512453,12.7493944 C64.1791698,11.7292113 64.9779623,11.6273521 65.7355472,12.4422254 C65.9336604,12.6539014 66.2015094,12.8003239 66.4344906,12.9738028" id="Fill-11" fill="#000000"></path>
                <path d="M22.4660377,84.7606338 C22.7861887,85.1394225 23.1079245,85.5166197 23.4296604,85.8954085 C23.6388679,85.7633099 23.8464906,85.6296197 24.0556981,85.4975211 C23.52,86.9060423 22.9700377,88.3081972 22.4596981,89.7246761 C22.2853585,90.2116901 22.0492075,90.7639577 22.1284528,91.2382394 C22.3218113,92.4032535 21.7623396,92.9268732 20.7828679,93.2260845 C19.722566,92.5178451 19.9238491,91.4101268 20.0268679,90.4297324 C20.2075472,88.7029014 20.5831698,86.9983521 20.7892075,85.2747042 C20.8684528,84.6189859 21.2107925,84.6603662 21.6640755,84.6476338 C22.0555472,84.6380845 22.4470189,84.5489577 22.8384906,84.4948451 C22.7148679,84.5823803 22.5896604,84.671507 22.4660377,84.7606338" id="Fill-12" fill="#000000"></path>
                <path d="M55.3544151,91.8812254 C55.0976604,91.8350704 54.9153962,91.8016479 54.8995472,91.7984648 C54.7711698,90.6414085 54.7267925,89.5575634 54.5144151,88.5087324 C54.246566,87.1734225 54.4811321,86.4763239 55.5208302,86.2169014 C56.3988679,85.9972676 57.4781887,86.4253944 57.7682264,87.7145493 C58.145434,89.4 57.5986415,90.9883662 57.3941887,92.6117465 C57.3799245,92.7295211 56.9789434,92.8472958 56.7459623,92.8775352 C56.2910943,92.934831 55.826717,92.9555211 55.3702642,92.9284648 C55.2672453,92.9220986 55.1024151,92.6547183 55.104,92.5098873 C55.1071698,92.320493 55.2482264,92.1310986 55.3544151,91.8812254" id="Fill-13" fill="#000000"></path>
                <path d="M103.478491,15.5823521 C102.367472,16.2635352 103.48483,16.6518732 103.576755,17.030662 C102.936453,18.0699437 102.326264,19.0312394 101.744604,20.0100423 C101.427623,20.5432113 100.444981,20.9267746 99.9140377,20.6816761 C99.0122264,20.2678732 98.649283,19.6073803 98.9377358,18.8322958 C99.3022642,17.8582676 99.6889811,16.8906056 100.082038,15.9277183 C100.348302,15.2735915 101.868226,14.7165493 102.516453,15.0300845 C102.814415,15.1749155 103.091774,15.3595352 103.478491,15.5823521" id="Fill-14" fill="#000000"></path>
                <path d="M92.8073208,84.5330423 C91.9372075,85.3351831 92.6836981,86.2264507 92.6995472,87.0636056 C92.7106415,87.6795352 93.1100377,88.2970563 92.2256604,88.6026338 C91.6075472,88.8159014 90.4870189,88.4084648 90.1621132,87.8195915 C89.6184906,86.832831 89.0748679,85.8444789 88.5803774,84.8322535 C88.4789434,84.6253521 88.4947925,84.2258732 88.6310943,84.0619437 C89.0257358,83.587662 89.5043774,83.1834085 89.9608302,82.764831 C90.0432453,82.6884366 90.2793962,82.6295493 90.2841509,82.637507 C90.7897358,83.7086197 92.0544906,83.767507 92.8073208,84.5330423" id="Fill-15" fill="#000000"></path>
                <path d="M23.016,15.4677606 C23.3329811,15.0682817 23.6436226,14.6926761 23.9384151,14.3027465 C24.1523774,14.0178592 24.3726792,13.4528592 24.5438491,13.4703662 C25.0969811,13.527662 25.6485283,13.753662 26.1588679,14.0003521 C26.4710943,14.1515493 26.7072453,14.463493 27.0543396,14.7690704 C26.9164528,14.8279577 26.6533585,14.9393662 26.4172075,15.0396338 C26.5550943,15.9595493 26.7484528,16.9192535 26.8324528,17.8900986 C26.8926792,18.6031127 25.8846792,19.4020704 25.1223396,19.3384085 C24.3029434,19.2699718 23.6911698,18.4948873 23.7767547,17.676831 C23.8179623,17.2853099 23.7672453,16.885831 23.8132075,16.4959014 C23.8956226,15.8226761 23.6943396,15.4088732 23.016,15.4677606" id="Fill-16" fill="#000000"></path>
                <path d="M70.5219623,47.138 C70.6978868,46.6732676 70.8167547,46.1751127 71.0655849,45.7517606 C71.3144151,45.3268169 71.6171321,44.814338 72.0276226,44.6265352 C73.0958491,44.1395211 74.2147925,43.7082113 75.3575094,43.4551549 C75.9883019,43.313507 76.7791698,43.4137746 77.3719245,43.6859296 C78.7175094,44.3050423 80.0504151,45.0021408 81.2707925,45.8392958 C83.3929811,47.2955634 83.8161509,50.4436479 82.2201509,52.449 C81.8270943,52.9439718 81.2692075,53.3148028 80.7636226,53.7126901 C80.2580377,54.112169 79.7223396,54.4734507 79.1343396,54.8999859 C80.0567547,55.5222817 81.0536604,56.065 81.8889057,56.7955211 C82.8636226,57.6438169 84.1632453,58.1117324 84.6117736,59.6109718 C84.9778868,60.828507 85.8273962,61.8948451 86.4233208,63.0487183 C86.5960755,63.3813521 86.6325283,63.7840141 86.7323774,64.1548451 C86.8322264,64.1405211 86.9320755,64.1261972 87.0319245,64.1118732 L87.0319245,66.4769155 C86.469283,66.6535775 85.7956981,67.0053099 85.0983396,67.0562394 C83.7923774,67.1533239 82.8842264,66.1920282 82.7542642,64.8599014 C82.6766038,64.056169 82.6100377,63.2206056 82.3358491,62.4757606 C82.0933585,61.810493 81.6099623,61.2200282 81.1630189,60.6502535 C80.1502642,59.3626901 78.8110189,58.5239437 77.3101132,57.9016479 C76.5763019,57.5960704 75.8916226,57.1695352 75.1831698,56.7987042 C75.0738113,56.8910141 74.9660377,56.9817324 74.8566792,57.0740423 C75.246566,58.4443662 75.6364528,59.8146901 76.0279245,61.1834225 C76.2133585,61.8295915 76.4542642,62.4630282 76.5826415,63.1187465 C76.7744151,64.1007324 75.1340377,66.0440141 74.2163774,65.7782254 C73.6236226,65.606338 72.9024906,64.9442535 72.744,64.3617465 C72.2241509,62.4582535 71.8960755,60.4958732 71.5743396,58.5446338 C71.4110943,57.5546901 71.4396226,56.534507 71.3476981,55.531831 C71.2526038,54.5052817 71.0830189,53.4850986 71.0085283,52.4569577 C70.9435472,51.5975211 71.0655849,50.7173944 70.9276981,49.8738732 C70.7755472,48.9396338 70.4236981,48.0372254 70.157434,47.120493 C70.2794717,47.1252676 70.4015094,47.1316338 70.5219623,47.138 L70.5219623,47.138 Z M74.7647547,52.7848169 C75.0991698,52.819831 75.6221887,53.0346901 75.9962264,52.8819014 C77.2181887,52.3805634 78.4132075,51.7980563 79.2135849,50.6441831 C79.8760755,49.6860704 79.4988679,47.8096338 78.4021132,47.4738169 C77.4099623,47.1714225 76.3179623,47.0727465 75.2782642,47.1125352 C74.8027925,47.1300423 74.1529811,47.508831 74.256,48.3205211 C74.4430189,49.7720141 74.5904151,51.2282817 74.7647547,52.7848169 L74.7647547,52.7848169 Z" id="Fill-24" fill="#000000"></path>
                <path d="M62.8779623,59.1223662 C61.3960755,59.2258169 59.8967547,59.3324507 58.2215094,59.4502254 C57.8553962,61.5160563 57.456,63.7744648 57.0423396,66.1076761 C55.7553962,66.9925775 54.3543396,66.7856761 52.836,65.6318028 C53.3954717,63.9097465 54.0547925,62.0524085 54.5920755,60.1600563 C54.9455094,58.9138732 55.0675472,57.6024366 55.3924528,56.3451127 C55.8235472,54.6755775 56.3101132,53.0187746 56.8521509,51.382662 C57.3656604,49.8293099 58.0281509,48.3237042 58.5321509,46.767169 C58.7191698,46.1910282 58.9442264,45.8854507 59.5496604,45.782 C60.4562264,45.6276197 61.3406038,44.8620845 62.2630189,45.6483099 C62.7194717,46.0366479 63.2884528,46.4711408 63.4485283,46.9947606 C64.0428679,48.9603239 64.5230943,50.9609014 64.9747925,52.964662 C65.1649811,53.8129577 65.1095094,54.7169577 65.3044528,55.5620704 C65.3805283,55.8947042 65.8591698,56.1191127 66.1064151,56.4310563 C66.3853585,56.7811972 66.6088302,57.1727183 66.8370566,57.5180845 C65.9320755,58.568507 65.9130566,58.8677183 66.5977358,59.9292817 C66.7166038,60.1107183 66.9242264,60.3526338 66.8798491,60.5022394 C66.5834717,61.4826338 67.1984151,62.1526761 67.6358491,62.8736479 C67.9132075,63.3272394 67.6818113,64.1086901 68.4853585,64.2232817 C68.3458868,64.7182535 68.2682264,65.2450563 68.0447547,65.6986479 C67.8735849,66.0471972 67.5169811,66.3034366 67.2015849,66.6472113 C66.5834717,66.5453521 65.8591698,66.5151127 65.2030189,66.2859296 C64.848,66.1617887 64.4517736,65.7448028 64.3455849,65.380338 C63.906566,63.8906479 63.5626415,62.3707183 63.2044528,60.8587465 C63.0681509,60.2873803 62.9857358,59.7048732 62.8779623,59.1223662 L62.8779623,59.1223662 Z M59.0726038,56.0077042 C59.925283,56.0077042 60.6163019,56.0411268 61.302566,55.9949718 C61.7368302,55.9663239 61.9983396,55.789662 61.8699623,55.2087465 C61.6639245,54.2729155 61.6147925,53.3020704 61.4531321,52.353507 C61.3643774,51.8330704 61.1821132,51.3269577 61.0410566,50.8128873 C60.9079245,50.8192535 60.7747925,50.8256197 60.6416604,50.8303944 C60.1376604,52.4935634 59.6336604,54.1567324 59.0726038,56.0077042 L59.0726038,56.0077042 Z" id="Fill-25" fill="#000000"></path>
                <path d="M21.6022642,51.0675352 C23.0080755,52.0383803 24.2015094,52.8468873 25.3790943,53.6808592 C26.6311698,54.5721268 27.9735849,55.3758592 29.0671698,56.4374225 C29.6107925,56.9674085 30.4127547,57.4353239 30.5363774,58.4109437 C30.6029434,58.9377465 31.0213585,59.4152113 31.2559245,59.9276901 C31.7726038,61.054507 31.9929057,62.2274789 31.5935094,63.4370563 C31.4635472,63.8285775 31.2638491,64.232831 30.9880755,64.5320423 C30.3033962,65.2737042 29.6488302,66.1140423 28.8040755,66.6137887 C28.1289057,67.0132676 27.198566,67.0053099 26.3712453,67.1119437 C25.1968302,67.2631408 24.0144906,67.4254789 22.8321509,67.446169 C21.8352453,67.4636761 20.8082264,67.396831 19.8446038,67.1612817 C19.0188679,66.9575634 18.0647547,66.7888592 17.6796226,65.765493 C17.6162264,65.5967887 17.2326792,65.5474507 17.0250566,65.4551408 C17.2786415,63.233338 18.4229434,62.3054648 20.664,63.0566761 C20.8478491,63.7123944 21.5895849,64.0943662 22.7021887,64.0275211 C23.6927547,63.9686338 24.6880755,63.9495352 25.6691321,63.8253944 C26.5360755,63.717169 27.3966792,63.378169 27.7437736,62.5362394 C27.954566,62.022169 28.0306415,61.1611408 27.7421887,60.7839437 C26.8118491,59.568 25.872,58.0401127 24.5803019,57.5180845 C23.3551698,57.0215211 22.478717,56.1254789 21.4136604,55.517507 C19.7764528,54.5832676 18.3278491,53.0681127 17.9807547,51.0357042 C17.8682264,50.383169 17.6812075,49.4950845 18.5830189,48.8059437 C19.5355472,48.0786056 20.1346415,46.9040423 20.9904906,46.025507 C21.6292075,45.3681972 22.4010566,44.8159296 23.3884528,44.7411268 C24.3964528,44.6647324 25.4044528,44.5962958 26.409283,44.5008028 C27.8452075,44.3639296 29.1765283,45.8743099 28.8230943,47.2589577 C28.4728302,48.6292817 27.4410566,49.1338028 26.1382642,48.5735775 C25.452,48.2775493 23.5659623,48.6579296 23.0413585,49.2452113 C22.5864906,49.754507 22.1902642,50.3163239 21.6022642,51.0675352" id="Fill-26" fill="#000000"></path>
                <path d="M40.2423396,63.9972817 C40.3485283,63.540507 40.5450566,63.1139718 40.5260377,62.6985775 C40.4356981,60.6295634 40.353283,58.5557746 40.1393208,56.4963099 C39.9871698,55.0193521 39.5861887,53.5710423 39.3864906,52.0988592 C39.2406792,51.0309296 39.2422642,49.9423099 39.1709434,48.7136338 L32.4826415,48.7136338 C31.8661132,47.8446479 31.2765283,47.0138592 30.6473208,46.1289577 C31.5079245,44.9575775 32.6538113,44.376662 34.1721509,44.5724225 C35.6841509,44.7681831 37.1961509,45.0482958 38.7144906,45.0992254 C41.3327547,45.185169 43.9573585,45.104 46.5787925,45.1326479 C47.7421132,45.1453803 48.9117736,45.1931268 50.0655849,45.33 C51.609283,45.5130282 52.5570566,47.3703662 51.761434,48.6404225 C51.5649057,48.9539577 51.1005283,49.2929577 50.7629434,49.2913662 C49.4553962,49.2834085 48.1510189,49.1210704 46.8434717,49.0558169 C45.6912453,48.9985211 44.537434,48.9714648 43.3852075,49.0017042 C43.2552453,49.0048873 43.0095849,49.4919014 43.0349434,49.7290423 C43.176,50.9990986 43.377283,52.2627887 43.5753962,53.5248873 C43.8226415,55.0925634 44.1301132,56.6522817 44.3313962,58.2247324 C44.469283,59.3181268 44.4661132,60.4306197 44.537434,61.5319718 C44.5818113,62.2227042 44.586566,62.9245775 44.7181132,63.5978028 C45.006566,65.0843099 44.1190189,66.4164366 42.6070189,66.4944225 C42.1664151,66.5167042 41.7115472,66.0058169 41.2487547,65.9755775 C40.3580377,65.9198732 40.605283,65.3214507 40.5307925,64.8217042 C40.4816604,64.5018028 40.3168302,64.1994085 40.2423396,63.9972817" id="Fill-27" fill="#000000"></path>
                <path d="M91.6535094,47.1125352 C90.2952453,47.2080282 88.872,47.3926479 87.4566792,47.3512676 C87.0556981,47.3401268 86.2664151,47.2891972 86.1237736,46.5204789 C86.1079245,46.4313521 85.9224906,46.2881127 85.848,46.3056197 C85.0143396,46.509338 85.2362264,45.8122394 85.1141887,45.4366338 C85.0349434,45.1915352 85.0396981,44.9209718 85.0111698,44.6933803 C85.4818868,44.1904507 85.9763774,43.6620563 86.5421887,43.0588592 L87.5533585,43.0588592 C87.6183396,43.1034225 87.8085283,43.3469296 88.0098113,43.3580704 C89.090717,43.4137746 90.1747925,43.3962676 91.2556981,43.4344648 C91.7501887,43.4535634 92.2446792,43.6047606 92.7328302,43.5840704 C95.3542642,43.4806197 97.9741132,43.3612535 100.590792,43.183 C100.87766,43.1639014 101.136,42.7437324 101.516377,42.4142817 C101.925283,42.4381549 102.30883,43.426507 103.153585,42.7978451 C103.275623,42.7071268 103.843019,43.2020986 104.191698,43.4440141 C104.367623,43.5665634 104.518189,43.7273099 104.759094,43.942169 C104.610113,44.2700282 104.435774,44.6535915 104.261434,45.0371549 C104.313736,45.0371549 104.366038,45.0355634 104.41834,45.0355634 C104.392981,45.4414085 104.446868,45.877493 104.308981,46.2403662 C104.231321,46.4409014 103.844604,46.5793662 103.573585,46.636662 C103.07117,46.7448873 102.552906,46.7703521 101.907849,46.8467465 C101.483094,46.0907606 100.559094,46.4854648 99.725434,46.541169 C98.397283,46.6318873 97.0691321,46.7385211 95.5777358,46.8499296 C95.5951698,47.0711549 95.6189434,47.3735493 95.6443019,47.6759437 C95.6966038,48.2870986 95.76,48.896662 95.7980377,49.5078169 C95.8392453,50.1969577 95.894717,50.8876901 95.8788679,51.576831 C95.8408302,53.0903944 95.6807547,54.6055493 95.7235472,56.114338 C95.7663396,57.6549577 95.9676226,59.1923944 96.1514717,60.7250563 C96.2418113,61.4730845 96.4684528,62.2051972 96.6015849,62.9484507 C96.8377358,64.2630704 96.3384906,65.0158732 95.0356981,65.3644225 C94.8613585,65.412169 94.6822642,65.4535493 94.5142642,65.5188028 C94.4286792,65.5522254 94.3621132,65.6318028 94.4128302,65.5936056 C93.7598491,65.087493 93.1401509,64.6100282 92.6361509,64.218507 C92.3746415,58.455507 92.5188679,52.7545775 91.6535094,47.1125352" id="Fill-28" fill="#000000"></path>
                <g id="bg" transform="translate(13.000000, 34.000000)" fill="#FFFFFF">
                    <path d="M94.7323774,0.248042254 C94.8512453,0.962647887 94.9954717,1.58335211 95.0509434,2.21042254 C95.2015094,3.91019718 95.3140377,5.61474648 95.4424151,7.31929577 C95.4867925,7.90021127 95.5359245,8.48271831 95.5882264,9.11456338 C95.6880755,9.36921127 95.9353208,9.71935211 95.948,10.0774507 C95.9876226,11.153338 95.7689057,12.2180845 96.2824151,13.2860141 C96.5344151,13.8096338 96.4662642,14.5465211 96.3743396,15.1624507 C96.250717,15.9980141 96.2855849,16.8001549 96.3458113,17.6373099 C96.4203019,18.6654507 96.2380377,19.7110986 96.1730566,20.7503803 C96.1366038,21.3169718 96.1572075,21.8931127 96.0716226,22.4517465 C95.8877736,23.6549577 95.5755472,24.8422535 95.4503396,26.0502394 C95.2633208,27.8757465 95.0350943,29.7219437 95.1270189,31.5426761 C95.1840755,32.6456197 95.9131321,33.6992254 96.133434,34.8149014 C96.2079245,35.1920986 95.7372075,35.9576338 95.3552453,36.0929155 C94.1079245,36.5385493 92.7861132,36.7788732 91.4912453,37.0908169 C91.3707925,37.1194648 91.2376604,37.0955915 91.1108679,37.0971831 C89.6210566,37.1242394 88.1280755,37.0987746 86.641434,37.1958592 C85.4226415,37.2770282 84.2165283,37.5475915 82.9977358,37.659 C81.7424906,37.7735915 80.4777358,37.7608592 79.2224906,37.8706761 C77.4267925,38.0250563 75.6390189,38.2653803 73.8449057,38.418169 C73.0476981,38.4866056 72.2393962,38.4340845 71.4358491,38.4340845 C69.1282264,38.4356761 66.8063396,38.5852817 64.514566,38.3895211 C62.4399245,38.2128592 60.5015849,38.7937746 58.4982642,38.9592958 C56.8990943,39.0913944 55.2729811,38.8860845 53.6579623,38.8367465 C53.2332075,38.8224225 52.8068679,38.806507 52.3821132,38.8271972 C51.3360755,38.8765352 50.2884528,39.0197746 49.244,38.9879437 C47.9380377,38.9497465 46.6368302,38.757169 45.329283,38.6632676 C44.9108679,38.6330282 44.4829434,38.7428451 44.0613585,38.7269296 C42.3813585,38.6664507 40.7029434,38.5248028 39.0229434,38.5232113 C37.4348679,38.5232113 35.8452075,38.6839577 34.2555472,38.7317042 C32.4899623,38.7858169 30.7180377,38.7285211 28.9556226,38.8335634 C27.2153962,38.9386056 25.4862642,39.272831 23.7460377,39.3476338 C22.2910943,39.4112958 20.8266415,39.1900704 19.3685283,39.1996197 C17.0561509,39.2139437 14.7469434,39.3460423 12.434566,39.3683239 C11.3076981,39.3810563 10.1792453,39.2473662 9.05079245,39.2012113 C7.29788679,39.128 5.54022642,39.1311831 3.79683019,38.9783944 C3.08837736,38.9147324 2.24362264,38.9783944 1.72377358,38.2319577 C1.64135849,38.1125915 1.39728302,38.0807606 1.22135849,38.0584789 C0.354415094,37.9470704 0.0960754717,37.464831 -0.0798490566,36.5974366 C-0.458641509,34.721 0.473283019,33.0403239 0.473283019,31.2561972 C0.473283019,29.1473944 0.974113208,27.086338 0.633358491,24.9234225 C0.378188679,23.2920845 0.796603774,21.549338 0.944,19.8591127 C1.00898113,19.1110845 1.59539623,18.4251268 1.14211321,17.5975211 C1.04384906,17.4192676 1.32279245,17.0659437 1.33230189,16.7890141 C1.41313208,14.6197324 1.34973585,12.4854648 0.78709434,10.3400563 C0.395622642,8.8471831 0.438415094,7.23016901 0.360754717,5.66567606 C0.322716981,4.91923944 0.291018868,4.19190141 0.449509434,3.40249296 C0.666641509,2.32183099 1.17064151,2.18495775 2.03758491,2.13402817 C3.28173585,2.05922535 4.51954717,1.84277465 5.76528302,1.79025352 C6.47215094,1.76160563 7.19011321,1.92235211 7.89698113,2.03057746 C8.34392453,2.10060563 8.77977358,2.31705634 9.22196226,2.32342254 C11.5232453,2.35366197 13.8276981,2.25657746 16.1242264,2.36480282 C17.7392453,2.44119718 19.2369811,1.84914085 20.8123774,1.79025352 C21.5335094,1.76319718 22.2546415,1.78070423 22.9757736,1.75046479 C23.6430189,1.725 24.3102642,1.62632394 24.9775094,1.62950704 C25.6923019,1.63109859 26.4055094,1.725 27.1203019,1.76160563 C28.5039245,1.83322535 29.890717,1.92871831 31.2759245,1.93826761 C31.9209811,1.94304225 32.5692075,1.76956338 33.2158491,1.68680282 C33.5883019,1.63905634 33.9686792,1.54515493 34.3332075,1.58494366 C37.5521509,1.93508451 40.7362264,1.54992958 43.9329811,1.23002817 C45.1169057,1.11225352 46.3309434,1.33666197 47.5323019,1.36849296 C48.5815094,1.3955493 49.6323019,1.37326761 50.6815094,1.37326761 C52.4486792,1.37485915 54.2190189,1.42578873 55.9830189,1.36053521 C57.290566,1.31278873 58.5901887,1.08678873 59.8977358,0.991295775 C60.7599245,0.929225352 61.6284528,0.969014085 62.4938113,0.941957746 C63.4415849,0.910126761 64.3909434,0.785985915 65.3355472,0.825774648 C66.866566,0.88784507 68.3928302,1.11543662 69.9238491,1.1504507 C71.369283,1.18387324 72.8194717,1.00880282 74.2664906,1.01835211 C75.1302642,1.02471831 75.9956226,1.32074648 76.8546415,1.29369014 C78.2889811,1.25071831 79.718566,1.06450704 81.1481509,0.913309859 C81.7963774,0.844873239 82.4350943,0.665028169 83.0833208,0.630014085 C84.7189434,0.540887324 86.4686792,0.12071831 87.9664151,0.552028169 C89.7335849,1.06132394 91.0173585,-0.410859155 92.6339623,0.00135211268 C93.3820377,0.192338028 94.1824151,0.18915493 94.7323774,0.248042254 L94.7323774,0.248042254 Z M57.5219623,13.138 C57.4015094,13.1316338 57.2794717,13.1252676 57.157434,13.120493 C57.4236981,14.0372254 57.7755472,14.9396338 57.9276981,15.8738732 C58.0655849,16.7173944 57.9435472,17.5975211 58.0085283,18.4569577 C58.0830189,19.4850986 58.2526038,20.5052817 58.3476981,21.531831 C58.4396226,22.534507 58.4110943,23.5546901 58.5743396,24.5446338 C58.8960755,26.4958732 59.2241509,28.4582535 59.744,30.3617465 C59.9024906,30.9442535 60.6236226,31.606338 61.2163774,31.7782254 C62.1340377,32.0440141 63.7744151,30.1007324 63.5826415,29.1187465 C63.4542642,28.4630282 63.2133585,27.8295915 63.0279245,27.1834225 C62.6364528,25.8146901 62.246566,24.4443662 61.8566792,23.0740423 C61.9660377,22.9817324 62.0738113,22.8910141 62.1831698,22.7987042 C62.8916226,23.1695352 63.5763019,23.5960704 64.3101132,23.9016479 C65.8110189,24.5239437 67.1502642,25.3626901 68.1630189,26.6502535 C68.6099623,27.2200282 69.0933585,27.810493 69.3358491,28.4757606 C69.6100377,29.2206056 69.6766038,30.056169 69.7542642,30.8599014 C69.8842264,32.1920282 70.7923774,33.1533239 72.0983396,33.0562394 C72.7956981,33.0053099 73.469283,32.6535775 74.0319245,32.4769155 L74.0319245,30.1118732 C73.9320755,30.1261972 73.8322264,30.1405211 73.7323774,30.1548451 C73.6325283,29.7840141 73.5960755,29.3813521 73.4233208,29.0487183 C72.8273962,27.8948451 71.9778868,26.828507 71.6117736,25.6109718 C71.1632453,24.1117324 69.8636226,23.6438169 68.8889057,22.7955211 C68.0536604,22.065 67.0567547,21.5222817 66.1343396,20.8999859 C66.7223396,20.4734507 67.2580377,20.112169 67.7636226,19.7126901 C68.2692075,19.3148028 68.8270943,18.9439718 69.2201509,18.449 C70.8161509,16.4436479 70.3929811,13.2955634 68.2707925,11.8392958 C67.0504151,11.0021408 65.7175094,10.3050423 64.3719245,9.68592958 C63.7791698,9.41377465 62.9883019,9.31350704 62.3575094,9.45515493 C61.2147925,9.70821127 60.0958491,10.1395211 59.0276226,10.6265352 C58.6171321,10.814338 58.3144151,11.3268169 58.0655849,11.7517606 C57.8167547,12.1751127 57.6978868,12.6732676 57.5219623,13.138 L57.5219623,13.138 Z M49.8779623,25.1223662 C49.9857358,25.7048732 50.0681509,26.2873803 50.2044528,26.8587465 C50.5626415,28.3707183 50.906566,29.8906479 51.3455849,31.380338 C51.4517736,31.7448028 51.848,32.1617887 52.2030189,32.2859296 C52.8591698,32.5151127 53.5834717,32.5453521 54.2015849,32.6472113 C54.5169811,32.3034366 54.8735849,32.0471972 55.0447547,31.6986479 C55.2682264,31.2450563 55.3458868,30.7182535 55.4853585,30.2232817 C54.6818113,30.1086901 54.9132075,29.3272394 54.6358491,28.8736479 C54.1984151,28.1526761 53.5834717,27.4826338 53.8798491,26.5022394 C53.9242264,26.3526338 53.7166038,26.1107183 53.5977358,25.9292817 C52.9130566,24.8677183 52.9320755,24.568507 53.8370566,23.5180845 C53.6088302,23.1727183 53.3853585,22.7811972 53.1064151,22.4310563 C52.8591698,22.1191127 52.3805283,21.8947042 52.3044528,21.5620704 C52.1095094,20.7169577 52.1649811,19.8129577 51.9747925,18.964662 C51.5230943,16.9609014 51.0428679,14.9603239 50.4485283,12.9947606 C50.2884528,12.4711408 49.7194717,12.0366479 49.2630189,11.6483099 C48.3406038,10.8620845 47.4562264,11.6276197 46.5496604,11.782 C45.9442264,11.8854507 45.7191698,12.1910282 45.5321509,12.767169 C45.0281509,14.3237042 44.3656604,15.8293099 43.8521509,17.382662 C43.3101132,19.0187746 42.8235472,20.6755775 42.3924528,22.3451127 C42.0675472,23.6024366 41.9455094,24.9138732 41.5920755,26.1600563 C41.0547925,28.0524085 40.3954717,29.9097465 39.836,31.6318028 C41.3543396,32.7856761 42.7553962,32.9925775 44.0423396,32.1076761 C44.456,29.7744648 44.8553962,27.5160563 45.2215094,25.4502254 C46.8967547,25.3324507 48.3960755,25.2258169 49.8779623,25.1223662 L49.8779623,25.1223662 Z M8.60226415,17.0675352 C9.19026415,16.3163239 9.58649057,15.754507 10.0413585,15.2452113 C10.5659623,14.6579296 12.452,14.2775493 13.1382642,14.5735775 C14.4410566,15.1338028 15.4728302,14.6292817 15.8230943,13.2589577 C16.1765283,11.8743099 14.8452075,10.3639296 13.409283,10.5008028 C12.4044528,10.5962958 11.3964528,10.6647324 10.3884528,10.7411268 C9.4010566,10.8159296 8.62920755,11.3681972 7.99049057,12.025507 C7.13464151,12.9040423 6.53554717,14.0786056 5.58301887,14.8059437 C4.68120755,15.4950845 4.86822642,16.383169 4.98075472,17.0357042 C5.32784906,19.0681127 6.77645283,20.5832676 8.41366038,21.517507 C9.47871698,22.1254789 10.3551698,23.0215211 11.5803019,23.5180845 C12.872,24.0401127 13.8118491,25.568 14.7421887,26.7839437 C15.0306415,27.1611408 14.954566,28.022169 14.7437736,28.5362394 C14.3966792,29.378169 13.5360755,29.717169 12.6691321,29.8253944 C11.6880755,29.9495352 10.6927547,29.9686338 9.70218868,30.0275211 C8.58958491,30.0943662 7.84784906,29.7123944 7.664,29.0566761 C5.4229434,28.3054648 4.27864151,29.233338 4.0250566,31.4551408 C4.23267925,31.5474507 4.61622642,31.5967887 4.67962264,31.765493 C5.06475472,32.7888592 6.01886792,32.9575634 6.84460377,33.1612817 C7.80822642,33.396831 8.83524528,33.4636761 9.83215094,33.446169 C11.0144906,33.4254789 12.1968302,33.2631408 13.3712453,33.1119437 C14.198566,33.0053099 15.1289057,33.0132676 15.8040755,32.6137887 C16.6488302,32.1140423 17.3033962,31.2737042 17.9880755,30.5320423 C18.2638491,30.232831 18.4635472,29.8285775 18.5935094,29.4370563 C18.9929057,28.2274789 18.7726038,27.054507 18.2559245,25.9276901 C18.0213585,25.4152113 17.6029434,24.9377465 17.5363774,24.4109437 C17.4127547,23.4353239 16.6107925,22.9674085 16.0671698,22.4374225 C14.9735849,21.3758592 13.6311698,20.5721268 12.3790943,19.6808592 C11.2015094,18.8468873 10.0080755,18.0383803 8.60226415,17.0675352 L8.60226415,17.0675352 Z M27.2423396,29.9972817 C27.3168302,30.1994085 27.4816604,30.5018028 27.5307925,30.8217042 C27.605283,31.3214507 27.3580377,31.9198732 28.2487547,31.9755775 C28.7115472,32.0058169 29.1664151,32.5167042 29.6070189,32.4944225 C31.1190189,32.4164366 32.006566,31.0843099 31.7181132,29.5978028 C31.586566,28.9245775 31.5818113,28.2227042 31.537434,27.5319718 C31.4661132,26.4306197 31.469283,25.3181268 31.3313962,24.2247324 C31.1301132,22.6522817 30.8226415,21.0925634 30.5753962,19.5248873 C30.377283,18.2627887 30.176,16.9990986 30.0349434,15.7290423 C30.0095849,15.4919014 30.2552453,15.0048873 30.3852075,15.0017042 C31.537434,14.9714648 32.6912453,14.9985211 33.8434717,15.0558169 C35.1510189,15.1210704 36.4553962,15.2834085 37.7629434,15.2913662 C38.1005283,15.2929577 38.5649057,14.9539577 38.761434,14.6404225 C39.5570566,13.3703662 38.609283,11.5130282 37.0655849,11.33 C35.9117736,11.1931268 34.7421132,11.1453803 33.5787925,11.1326479 C30.9573585,11.104 28.3327547,11.185169 25.7144906,11.0992254 C24.1961509,11.0482958 22.6841509,10.7681831 21.1721509,10.5724225 C19.6538113,10.376662 18.5079245,10.9575775 17.6473208,12.1289577 C18.2765283,13.0138592 18.8661132,13.8446479 19.4826415,14.7136338 L26.1709434,14.7136338 C26.2422642,15.9423099 26.2406792,17.0309296 26.3864906,18.0988592 C26.5861887,19.5710423 26.9871698,21.0193521 27.1393208,22.4963099 C27.353283,24.5557746 27.4356981,26.6295634 27.5260377,28.6985775 C27.5450566,29.1139718 27.3485283,29.540507 27.2423396,29.9972817 L27.2423396,29.9972817 Z M78.6535094,13.1125352 C79.5188679,18.7545775 79.3746415,24.455507 79.6361509,30.218507 C80.1401509,30.6100282 80.7598491,31.087493 81.4128302,31.5936056 C81.3621132,31.6318028 81.4286792,31.5522254 81.5142642,31.5188028 C81.6822642,31.4535493 81.8613585,31.412169 82.0356981,31.3644225 C83.3384906,31.0158732 83.8377358,30.2630704 83.6015849,28.9484507 C83.4684528,28.2051972 83.2418113,27.4730845 83.1514717,26.7250563 C82.9676226,25.1923944 82.7663396,23.6549577 82.7235472,22.114338 C82.6807547,20.6055493 82.8408302,19.0903944 82.8788679,17.576831 C82.894717,16.8876901 82.8392453,16.1969577 82.7980377,15.5078169 C82.76,14.896662 82.6966038,14.2870986 82.6443019,13.6759437 C82.6189434,13.3735493 82.5951698,13.0711549 82.5777358,12.8499296 C84.0691321,12.7385211 85.397283,12.6318873 86.725434,12.541169 C87.5590943,12.4854648 88.4830943,12.0907606 88.9078491,12.8467465 C89.5529057,12.7703521 90.0711698,12.7448873 90.5735849,12.636662 C90.8446038,12.5793662 91.2313208,12.4409014 91.3089811,12.2403662 C91.4468679,11.877493 91.3929811,11.4414085 91.4183396,11.0355634 C91.3660377,11.0355634 91.3137358,11.0371549 91.261434,11.0371549 C91.4357736,10.6535915 91.6101132,10.2700282 91.7590943,9.94216901 C91.5181887,9.72730986 91.3676226,9.56656338 91.1916981,9.44401408 C90.8430189,9.20209859 90.2756226,8.70712676 90.1535849,8.79784507 C89.3088302,9.42650704 88.925283,8.43815493 88.5163774,8.41428169 C88.136,8.74373239 87.8776604,9.16390141 87.5907925,9.183 C84.9741132,9.36125352 82.3542642,9.48061972 79.7328302,9.58407042 C79.2446792,9.60476056 78.7501887,9.45356338 78.2556981,9.43446479 C77.1747925,9.39626761 76.090717,9.41377465 75.0098113,9.35807042 C74.8085283,9.34692958 74.6183396,9.10342254 74.5533585,9.05885915 L73.5421887,9.05885915 C72.9763774,9.66205634 72.4818868,10.1904507 72.0111698,10.6933803 C72.0396981,10.9209718 72.0349434,11.1915352 72.1141887,11.4366338 C72.2362264,11.8122394 72.0143396,12.509338 72.848,12.3056197 C72.9224906,12.2881127 73.1079245,12.4313521 73.1237736,12.5204789 C73.2664151,13.2891972 74.0556981,13.3401268 74.4566792,13.3512676 C75.872,13.3926479 77.2952453,13.2080282 78.6535094,13.1125352 L78.6535094,13.1125352 Z" id="Fill-18"></path>
                    <path d="M61.7647547,18.7848169 C61.5904151,17.2282817 61.4430189,15.7720141 61.256,14.3205211 C61.1529811,13.508831 61.8027925,13.1300423 62.2782642,13.1125352 C63.3179623,13.0727465 64.4099623,13.1714225 65.4021132,13.4738169 C66.4988679,13.8096338 66.8760755,15.6860704 66.2135849,16.6441831 C65.4132075,17.7980563 64.2181887,18.3805634 62.9962264,18.8819014 C62.6221887,19.0346901 62.0991698,18.819831 61.7647547,18.7848169" id="Fill-31"></path>
                    <path d="M46.0726038,22.0077042 C46.6336604,20.1567324 47.1376604,18.4935634 47.6416604,16.8303944 C47.7747925,16.8256197 47.9079245,16.8192535 48.0410566,16.8128873 C48.1821132,17.3269577 48.3643774,17.8330704 48.4531321,18.353507 C48.6147925,19.3020704 48.6639245,20.2729155 48.8699623,21.2087465 C48.9983396,21.789662 48.7368302,21.9663239 48.302566,21.9949718 C47.6163019,22.0411268 46.925283,22.0077042 46.0726038,22.0077042" id="Fill-32"></path>
                </g>
            </g>
        </g>
    </g>
</svg>