<svg width="125" height="112" viewBox="0 0 125 112" xmlns="http://www.w3.org/2000/svg" xmlns:sketch="http://www.bohemiancoding.com/sketch/ns"><title>start</title><desc>Created with Sketch.</desc><g sketch:type="MSShapeGroup" fill="#000"><path d="M116.15 69.69c-.75.14-.85.54-.997 1.254-.17.818-.872 1.62-1.534 2.214-.529.473-1.449.349-1.953 1.111-.184.279-.856.259-1.314.325-1.312.186-2.625.392-3.945.503-2.544.216-5.092.376-7.639.552-2.079.143-4.162.248-6.24.422-1.675.142-3.343.376-5.016.536-.442.043-.899-.076-1.342-.041-.493.04-.978.17-1.466.261l.063.229-1.43-.205-.119-.325c-1.336.099-2.631.207-3.929.28-.45.025-.921.032-1.355-.068-1.442-.337-2.783.645-4.305.159-.953-.302-2.114.118-3.181.108-2.163-.021-4.327-.129-6.489-.173l-4.21-.011c-1.772-.038-3.542-.164-5.313-.169-1.482-.005-2.967.081-4.447.175-1.539.097-3.073.294-4.614.363-.818.037-1.645-.185-2.465-.153-.991.04-1.973.291-2.965.328-.986.037-1.98-.076-2.97-.126-1.445-.07-2.891-.204-4.336-.193-.948.008-1.892.326-2.839.331-1.751.01-3.504-.073-5.251-.193-.962-.065-1.908-.326-2.869-.407-.315-.025-.653.237-1.057.398l-.295-.544c-.558-.14-1.03-.247-1.495-.379-.792-.226-1.571-.505-2.371-.689-.455-.107-1.014.067-1.401-.131-.712-.363-1.32-.922-1.989-1.374-1.911-1.294-1.181-3.271-1.276-5.018-.122-2.236.689-4.364.865-6.554.139-1.732-.231-3.501-.333-5.258-.038-.649-.33-1.243.132-1.983.409-.656.355-1.62.449-2.454.154-1.372.355-2.747.36-4.122.003-1.046-.281-2.091-.414-3.139-.111-.875-.23-1.751-.274-2.631-.1-2.001-.315-4.017-.147-5.999.062-.743.108-1.482.125-2.235.014-.668.26-1.206.934-1.642.45-.291.588-1.079.85-1.654.097-.21.146-.441.189-.575 1.579 0 3.073-.118 4.539.035 1.377.143 2.664-.414 4.095-.127 1.453.29 3.03-.01 4.55-.115.366-.025.716-.301 1.128-.485l.162.505c2.178 0 4.313-.016 6.447.005 3.029.029 6.056.151 9.082.108 2.395-.033 4.785-.264 7.18-.388 1.144-.059 2.293-.048 3.438-.113 1.72-.1 3.436-.24 5.154-.363.938-.067 1.877-.124 2.813-.205 2.149-.183 4.295-.438 6.449-.546 1.247-.062 2.507.146 3.763.153 1.035.005 2.073-.081 3.105-.181.292-.029.564-.248.87-.392.341 1.071 1.228.306 1.872.364 1.726.161 3.465.208 5.198.264.632.021 1.268-.045 1.899-.103.992-.091 1.992-.358 2.97-.286 2.09.154 4.164.146 6.154-.503 1.729-.565 3.411-.275 5.137-.156 1.552.108 3.121-.046 4.682-.088l.273-.035c2.097.727 4.463.212 6.457 1.34 1.217.689 2.198 1.63 2.755 3.013.688 1.717.539 3.516.743 5.281.054.473.276.926.434 1.383l.181.232c-.003 1.421-.063 2.846-.019 4.265.024.753.252 1.496.33 2.25.052.505.005 1.022-.003 1.533-.003.196-.059.396-.027.584.049.298.235.59.217.875-.168 2.744-.274 5.497-.588 8.225-.211 1.829-.895 3.606-1.065 5.435-.203 2.174.043 4.364.745 6.462.074.224.293.401.498.668zm-5.417-35.442c-.55-.059-1.35-.056-2.098-.247-1.617-.412-2.9 1.06-4.668.551-1.498-.431-3.247-.011-4.883.078-.648.035-1.287.215-1.935.283-1.43.151-2.859.337-4.294.38-.859.027-1.724-.269-2.588-.275-1.447-.01-2.897.166-4.343.132-1.531-.035-3.057-.263-4.588-.325-.945-.04-1.894.084-2.842.116-.865.027-1.734-.013-2.596.049-1.308.095-2.607.321-3.915.369-1.764.065-3.534.014-5.302.013-1.049 0-2.1.022-3.149-.005-1.201-.032-2.415-.256-3.599-.138-3.197.32-6.381.705-9.6.355-.365-.04-.745.054-1.117.102-.647.083-1.295.256-1.94.251-1.385-.01-2.772-.105-4.156-.177-.715-.037-1.428-.131-2.143-.132-.667-.003-1.334.095-2.002.121l-2.163.04c-1.575.059-3.073.651-4.688.575-2.297-.108-4.601-.011-6.902-.041-.442-.006-.878-.223-1.325-.293-.707-.108-1.425-.269-2.132-.24-1.246.053-2.484.269-3.728.344-.867.051-1.371.188-1.588 1.268-.158.789-.127 1.517-.089 2.263.078 1.564.035 3.182.426 4.674.563 2.145.626 4.28.545 6.449-.01.277-.288.63-.19.809.453.828-.133 1.514-.198 2.262-.147 1.69-.566 3.433-.311 5.064.341 2.163-.16 4.224-.16 6.333 0 1.784-.932 3.465-.553 5.341.176.867.434 1.35 1.301 1.461.176.022.42.054.502.173.52.746 1.365.683 2.073.746 1.743.153 3.501.15 5.254.223 1.128.046 2.257.18 3.384.167 2.312-.022 4.622-.154 6.934-.169 1.458-.01 2.923.212 4.378.148 1.74-.075 3.469-.409 5.21-.514 1.762-.105 3.534-.048 5.3-.102 1.59-.048 3.179-.208 4.767-.208 1.68.002 3.358.143 5.038.204.422.016.85-.094 1.268-.064 1.308.094 2.609.286 3.915.325 1.044.032 2.092-.111 3.138-.161.425-.021.851-.005 1.276.01 1.615.049 3.241.255 4.84.123 2.003-.166 3.942-.746 6.016-.57 2.292.196 4.614.046 6.921.045.804 0 1.612.053 2.409-.016l5.378-.547c1.255-.11 2.52-.097 3.775-.212 1.219-.111 2.425-.382 3.644-.463 1.487-.097 2.98-.072 4.469-.099.127-.002.26.022.38-.006 1.295-.312 2.617-.552 3.864-.998.382-.135.853-.901.778-1.278-.22-1.116-.949-2.169-1.006-3.272-.092-1.821.136-3.667.323-5.492.125-1.208.437-2.395.621-3.598.086-.559.065-1.135.101-1.701.065-1.039.247-2.085.173-3.113-.06-.837-.095-1.639.029-2.475.092-.616.16-1.353-.092-1.876-.514-1.068-.295-2.133-.334-3.209-.013-.358-.26-.708-.36-.963l-.146-1.795c-.128-1.705-.241-3.409-.391-5.109-.055-.627-.2-1.248-.319-1.962z"/><path d="M77.056 86.239l.171-1.951c.39-.208.699-.463 1.049-.544.545-.126 1.287-.38 1.632-.135.46.325.818 1.062.87 1.652.165 1.862.168 3.739.235 5.61.06 1.698.117 3.396.189 5.093.12 2.963.209 5.93.399 8.889.074 1.143.331 2.285.624 3.396.122.465.552.847.881 1.323v2.235c-.547-.167-.968-.25-1.347-.425-.342-.156-.769-.339-.934-.635-1.174-2.106-1.875-4.334-1.938-6.794-.079-3.049-.355-6.092-.544-9.139-.128-2.09-.174-4.189-.42-6.264-.098-.836.222-1.988-.869-2.309"/><path d="M110.854 79.066c.713.573 1.553 1.057 2.122 1.76.526.653.743 1.552 1.133 2.322.705 1.397 1.507 2.749 2.14 4.178.655 1.483 1.128 3.046 1.735 4.552.564 1.401 1.186 2.779 1.81 4.156.918 2.018 1.845 4.033 2.805 6.032.255.533.789.984.422 1.641-.158.283-.455.697-.677.691-.407-.013-.981-.178-1.179-.482-1.059-1.623-2.102-3.269-2.997-4.988-.881-1.69-1.564-3.484-2.366-5.217-.604-1.31-1.252-2.599-1.892-3.891-1.038-2.101-2.079-4.202-3.138-6.293-.152-.301-.39-.565-.617-.821-.935-1.058-.934-1.996.019-2.948l.68-.691"/><path d="M39.716 103.239c.214-1.671.466-3.667.727-5.663.201-1.547.412-3.092.628-4.638.117-.832.292-1.658.369-2.494.103-1.1.094-2.212.219-3.309.067-.578.266-1.224.981-1.308.778-.092 1.507-.068 2.067.742.823 1.194.07 2.266-.1 3.368-.366 2.397-.872 4.771-1.244 7.168-.366 2.354-.699 4.719-.921 7.09-.071.773.292 1.579.371 2.378.024.247-.17.667-.376.759-.883.401-2.346-.38-2.488-1.323-.122-.804-.143-1.625-.233-2.771"/><path d="M89.846-.207c1.317-.03 1.789.462 1.62 1.329-.547 2.795-1.084 5.593-1.628 8.389-.441 2.263-.926 4.52-1.312 6.793-.214 1.257-.193 2.554-.415 3.81-.117.656-.372 1.444-.842 1.848-.78.673-1.574.002-2.265-.446-.517-.336-.639-.764-.407-1.45.593-1.746 1.09-3.528 1.523-5.322.821-3.393 1.585-6.801 2.339-10.21.288-1.302.444-2.636.754-3.933.089-.368.507-.656.632-.809"/><path d="M47.916 18.092c0-4.006.054-8.012-.029-12.016-.029-1.42-.466-2.828-.548-4.251-.025-.45.391-1.077.791-1.361.477-.341 1.52.388 1.617 1.065.124.858.081 1.749.277 2.586.881 3.772.431 7.598.563 11.4.024.684-.041 1.477.273 2.024.504.874-.466 1.268-.385 1.943-.62.07-1.263.275-1.853.172-.564-.097-.934-.61-.895-1.276l.002-.286h.189"/><path d="M117.346 8.268l-.561-.821 2.178-.409c.938 1.079.39 1.868-.149 2.68-.838 1.261-1.64 2.545-2.471 3.81-1.022 1.557-2.071 3.096-3.086 4.658-.943 1.455-1.861 2.925-2.775 4.399-.247.399-2.019.855-2.398.498-.61-.573-.342-1.117.094-1.754.759-1.109 1.325-2.349 2.051-3.484.653-1.019 1.412-1.969 2.122-2.951.669-.926 1.317-1.868 2.008-2.779.968-1.28 1.967-2.537 2.988-3.848"/><path d="M11.47 18.223l-.268 1.841c-.132.041-.444.154-.764.239-1.621.427-1.759.312-2.514-1.291-.656-1.394-1.301-2.795-1.911-4.21-.946-2.198-1.861-4.41-2.788-6.614l-.288-.688c-.403-.961.014-1.598.989-2.172.46.877.913 1.767 1.39 2.644 1.078 1.988 2.17 3.966 3.249 5.952.355.654.626 1.362 1.044 1.97.552.801 1.211 1.526 1.861 2.328"/><path d="M6.759 95.857c-.559-.137-.884-.248-1.217-.293-.83-.113-.949-.503-.598-1.227.834-1.724 1.62-3.47 2.431-5.204.659-1.409 1.317-2.817 1.992-4.218.456-.947.842-1.95 1.441-2.8.564-.799 1.309-.662 2.148.191.648.66.552 1.011-.098 1.814-.512.632-.989 1.383-1.186 2.158-.38 1.499-1.395 2.612-2.056 3.93-.819 1.633-1.469 3.352-2.23 5.015-.125.274-.449.458-.628.633"/><path d="M69.434 12.974l-2.705 7.418c-.374-.033-.688-.162-.826-.057-.8.61-.973-.589-1.567-.509.002-.406-.111-.856.025-1.21.761-1.969 1.572-3.92 2.39-5.866.428-1.02 1.227-1.122 1.984-.307.198.212.466.358.699.532"/><path d="M25.466 84.761l.964 1.135.626-.398c-.536 1.409-1.086 2.811-1.596 4.227-.174.487-.41 1.039-.331 1.514.193 1.165-.366 1.689-1.346 1.988-1.06-.708-.859-1.816-.756-2.796.181-1.727.556-3.431.762-5.155.079-.656.422-.614.875-.627.391-.01.783-.099 1.174-.153l-.372.266"/><path d="M58.354 91.881l-.455-.083c-.128-1.157-.173-2.241-.385-3.29-.268-1.335-.033-2.032 1.006-2.292.878-.22 1.957.208 2.247 1.498.377 1.685-.17 3.274-.374 4.897-.014.118-.415.236-.648.266-.455.057-.919.078-1.376.051-.103-.006-.268-.274-.266-.419.003-.189.144-.379.25-.629"/><path d="M106.478 15.582c-1.111.681.006 1.07.098 1.448-.64 1.039-1.25 2.001-1.832 2.979-.317.533-1.3.917-1.831.672-.902-.414-1.265-1.074-.976-1.849.365-.974.751-1.942 1.144-2.905.266-.654 1.786-1.211 2.434-.898.298.145.575.329.962.552"/><path d="M95.807 84.533c-.87.802-.124 1.693-.108 2.531.011.616.41 1.233-.474 1.539-.618.213-1.739-.194-2.064-.783-.544-.987-1.087-1.975-1.582-2.987-.101-.207-.086-.606.051-.77.395-.474.873-.879 1.33-1.297.082-.076.319-.135.323-.127.506 1.071 1.77 1.13 2.523 1.896"/><path d="M26.016 15.468c.317-.399.628-.775.922-1.165.214-.285.434-.85.605-.832.553.057 1.105.283 1.615.53.312.151.548.463.895.769l-.637.271c.138.92.331 1.88.415 2.85.06.713-.948 1.512-1.71 1.448-.819-.068-1.431-.844-1.346-1.662l.036-1.181c.082-.673-.119-1.087-.797-1.028"/><path d="M73.522 47.138c.176-.465.295-.963.544-1.386.249-.425.552-.937.962-1.125 1.068-.487 2.187-.918 3.33-1.171.631-.142 1.422-.041 2.014.231 1.346.619 2.678 1.316 3.899 2.153 2.122 1.456 2.545 4.604.949 6.61-.393.495-.951.866-1.457 1.264-.506.399-1.041.761-1.629 1.187.922.622 1.919 1.165 2.755 1.896.975.848 2.274 1.316 2.723 2.815.366 1.218 1.216 2.284 1.812 3.438.173.333.209.735.309 1.106l.3-.043v2.365c-.563.177-1.236.528-1.934.579-1.306.097-2.214-.864-2.344-2.196-.078-.804-.144-1.639-.418-2.384-.242-.665-.726-1.256-1.173-1.826-1.013-1.288-2.352-2.126-3.853-2.749-.734-.306-1.418-.732-2.127-1.103l-.326.275 1.171 4.109c.185.646.426 1.28.555 1.935.192.982-1.449 2.925-2.366 2.659-.593-.172-1.314-.834-1.472-1.416-.52-1.903-.848-3.866-1.17-5.817-.163-.99-.135-2.01-.227-3.013-.095-1.027-.265-2.047-.339-3.075-.065-.859.057-1.74-.081-2.583-.152-.934-.504-1.837-.77-2.753l.365.018zm4.243 5.647c.334.035.857.25 1.231.097 1.222-.501 2.417-1.084 3.217-2.238.662-.958.285-2.835-.811-3.17-.992-.302-2.084-.401-3.124-.361-.475.018-1.125.396-1.022 1.208.187 1.451.334 2.908.509 4.464z"/><path d="M65.878 59.122l-4.656.328-1.179 6.657c-1.287.885-2.688.678-4.206-.476.559-1.722 1.219-3.579 1.756-5.472.353-1.246.475-2.558.8-3.815.431-1.67.918-3.326 1.46-4.962.514-1.553 1.176-3.059 1.68-4.615.187-.576.412-.882 1.018-.985.907-.154 1.791-.92 2.713-.134.456.388 1.025.823 1.186 1.346.594 1.966 1.075 3.966 1.526 5.97.19.848.135 1.752.33 2.597.076.333.555.557.802.869.279.35.502.742.731 1.087-.905 1.05-.924 1.35-.239 2.411.119.181.326.423.282.573-.296.98.319 1.65.756 2.371.277.454.046 1.235.85 1.35-.139.495-.217 1.022-.441 1.475-.171.349-.528.605-.843.949-.618-.102-1.342-.132-1.999-.361-.355-.124-.751-.541-.857-.906-.439-1.49-.783-3.01-1.141-4.522-.136-.571-.219-1.154-.326-1.736zm-3.805-3.115c.853 0 1.544.033 2.23-.013.434-.029.696-.205.567-.786-.206-.936-.255-1.907-.417-2.855-.089-.52-.271-1.027-.412-1.541l-.399.018-1.569 5.177z"/><path d="M24.602 51.068c1.406.971 2.599 1.779 3.777 2.613 1.252.891 2.594 1.695 3.688 2.757.544.53 1.346.998 1.469 1.974.067.527.485 1.004.72 1.517.517 1.127.737 2.3.338 3.509-.13.392-.33.796-.605 1.095-.685.742-1.339 1.582-2.184 2.082-.675.399-1.606.392-2.433.498-1.174.151-2.357.314-3.539.334-.997.018-2.024-.049-2.988-.285-.826-.204-1.78-.372-2.165-1.396-.063-.169-.447-.218-.655-.31.254-2.222 1.398-3.15 3.639-2.398.184.656.926 1.038 2.038.971.991-.059 1.986-.078 2.967-.202.867-.108 1.728-.447 2.075-1.289.211-.514.287-1.375-.002-1.752-.93-1.216-1.87-2.744-3.162-3.266-1.225-.497-2.102-1.393-3.167-2.001-1.637-.934-3.086-2.449-3.433-4.482-.113-.653-.3-1.541.602-2.23.953-.727 1.552-1.902 2.407-2.78.639-.657 1.411-1.21 2.398-1.284 1.008-.076 2.016-.145 3.021-.24 1.436-.137 2.767 1.374 2.414 2.758-.35 1.37-1.382 1.875-2.685 1.315-.686-.296-2.572.084-3.097.672-.455.509-.851 1.071-1.439 1.822"/><path d="M43.242 63.997c.106-.457.303-.883.284-1.299-.09-2.069-.173-4.143-.387-6.202-.152-1.477-.553-2.925-.753-4.397-.146-1.068-.144-2.157-.216-3.385h-6.688l-1.835-2.585c.861-1.171 2.006-1.752 3.525-1.557 1.512.196 3.024.476 4.542.527 2.618.086 5.243.005 7.864.033 1.163.013 2.333.06 3.487.197 1.544.183 2.491 2.04 1.696 3.31-.197.314-.661.653-.998.651-1.308-.008-2.612-.17-3.919-.236-1.152-.057-2.306-.084-3.458-.054-.13.003-.376.49-.35.727.141 1.27.342 2.534.54 3.796.247 1.568.555 3.127.756 4.7.138 1.093.135 2.206.206 3.307.044.691.049 1.393.181 2.066.288 1.487-.599 2.819-2.111 2.897-.441.022-.895-.489-1.358-.519-.891-.056-.643-.654-.718-1.154-.049-.32-.214-.622-.288-.824"/><path d="M94.654 47.113c-1.358.095-2.782.28-4.197.239-.401-.011-1.19-.062-1.333-.831-.016-.089-.201-.232-.276-.215-.834.204-.612-.493-.734-.869-.079-.245-.074-.516-.103-.743l1.531-1.635h1.011c.065.045.255.288.456.299 1.081.056 2.165.038 3.246.076.494.019.989.17 1.477.15 2.621-.103 5.241-.223 7.858-.401.287-.019.545-.439.926-.769.409.024.792 1.012 1.637.384.122-.091.689.404 1.038.646.176.123.326.283.567.498l-.498 1.095.157-.002c-.025.406.029.842-.109 1.205-.078.201-.464.339-.735.396-.502.108-1.021.134-1.666.21-.425-.756-1.349-.361-2.182-.306-1.328.091-2.656.197-4.148.309l.067.826c.052.611.116 1.221.154 1.832.041.689.097 1.38.081 2.069-.038 1.514-.198 3.029-.155 4.538.043 1.541.244 3.078.428 4.611.09.748.317 1.48.45 2.223.236 1.315-.263 2.067-1.566 2.416-.174.048-.353.089-.521.154l-.101.075-1.777-1.375c-.262-5.763-.117-11.464-.983-17.106"/></g></svg>