<svg width="249" height="26" viewBox="0 0 249 26" xmlns="http://www.w3.org/2000/svg" xmlns:sketch="http://www.bohemiancoding.com/sketch/ns"><title>change-bg</title><desc>Created with Sketch.</desc><g sketch:type="MSLayerGroup" fill="#000"><path d="M55.859 19.924c.812-1.537.887-3.036.693-4.626-.12-.998.147-2.037.186-3.06.056-1.505-.126-3.048.158-4.504.178-.911.133-1.808.296-2.674.148-.786.276-1.792 1.379-2.095.353-.097.664-.757 1.023-.176.258.416.437 1.032.336 1.489-.181.811-.64 1.554-.898 2.354-.09.277.13.64.111.958-.064 1.052-.2 2.102-.258 3.155-.089 1.617-.13 3.236-.201 4.855-.068 1.598-.014 3.214-.66 4.732-.32.751-.613 1.513-.952 2.256-.312.687-1.572.798-1.886.118-.43-.933-1.585-1.459-1.478-2.676-1.302-1.414-1.729-3.257-2.408-4.975l-.134-.706c-.107-.296-.271-.57-.41-.853l-.371.118c.041.344.133.691.115 1.031-.123 2.383-.273 4.764-.406 7.146-.016.295.028.594.054.889.082.905-.428 1.351-1.307 1.135-.801-.196-.801-.196-1.294-1.034l.433-2.625c.058-.349.16-.694.175-1.044.07-1.525.127-3.051.165-4.579.061-2.316.255-4.621-.427-6.922-.28-.947-.068-2.054-.009-3.084.028-.49 1.671-.737 1.996-.246.552.838 1.079 1.725 1.419 2.664.551 1.525.961 3.102 1.388 4.668.132.483.071 1.016.189 1.505.195.806.379 1.633.725 2.379.689 1.487 1.485 2.925 2.258 4.426" sketch:type="MSShapeGroup"/><path d="M26.096 14.52c-.523-3.393-.992-6.444-1.48-9.489-.01-.063-.26-.087-.414-.133.073-.205.115-.379.192-.536.118-.246.23-.658.397-.686.701-.117 1.567-.637 2.037.309.237.478.188 1.102.257 1.663.249 2.045.502 4.089.739 6.135.141 1.217.211 2.445.392 3.655.247 1.665.581 3.32.857 4.982.078.469.001.98.153 1.418.22.634.581 1.218.878 1.817-.785.873-1.536 1.112-2.459.612-.309-.166-.541-.68-.603-1.068-.336-2.047-.59-4.107-.924-6.153-.04-.251-.414-.662-.594-.641-1.771.199-3.533.472-5.561.764.275 1.581.415 3.346.947 4.985.224.691.72 1.333.734 2.166l-1.772.855c-.581.284-1.015.173-1.105-.513-.259-1.955-.568-3.91-.701-5.876-.211-3.06-.284-6.129-.433-9.194-.057-1.165-.142-2.331-.246-3.493-.025-.28-.177-.547-.279-.85.972-1.388 1.749-1.231 2.465-.731.147.103.273.386.245.562-.34 2.151.054 4.283.116 6.424.02.741-.041 1.485-.067 2.227-.024.645.282 1.017.928.999 1.697-.05 3.39-.133 5.301-.211" sketch:type="MSShapeGroup"/><path d="M110.591 12.622c.573.246 1.064.603 1.581.644.824.067 1.167.556 1.514 1.176.377.673.933 1.266 1.206 1.973.246.632.233 1.372.3 2.068.128 1.329-.816 2.092-1.685 2.756-1.52 1.165-3.362 1.054-5.155.941-.478-.03-.966-.183-.939-.857.004-.123-.098-.316-.205-.37-1.141-.578-1.081-1.539-1.013-2.625.048-.773-.283-1.565-.4-2.354-.213-1.44-.413-2.883-.58-4.328-.184-1.61-.562-3.245-.423-4.83.147-1.685 1.381-2.857 2.876-3.662.444-.241.863-.531 1.319-.739.23-.103.523-.12.781-.101 2.293.172 4.548 2.308 4.628 4.594.025.71-.479 1.478-.859 2.154-.36.643-.852 1.217-1.327 1.789-.461.554-.972 1.066-1.62 1.769zm-3.057-.255c.941-.584 1.725-.974 2.389-1.511.637-.514 1.397-1.09 1.655-1.801.297-.826 1.665-1.606.454-2.708.233-.885-.703-.665-1.029-.947-.957-.829-1.413-.682-2.398.158-.392.334-.799.606-.682 1.226.027.143-.09.34-.189.475-1.174 1.588-.383 3.206-.2 5.108zm1.448 6.839l-.173.195c.793.29 1.467.996 2.431.696.705-.219 1.505-.209 1.781-1.195.386-1.384-.333-2.784-1.502-3.352-1.109-.54-2.381-.739-3.607-1.096.032.528.007.918.086 1.286.163.765.37 1.52.579 2.275.112.403.269.794.404 1.191z" sketch:type="MSShapeGroup"/><path d="M44.499 23.536c-.373.231-.716.458-1.071.659-.52.297-1.283-.001-1.438-.549-.371-1.302-.763-2.601-1.105-3.912-.164-.631-.195-1.295-.365-1.924-.065-.242-.368-.623-.522-.605-1.236.146-2.461.373-3.693.575-.354 1.3-.8 2.807-1.165 4.333-.139.579-.056 1.205-.139 1.801-.101.723-.858.467-1.276.725-.117.072-.746-.328-.797-.578-.12-.614-.13-1.283-.02-1.9.213-1.21.547-2.398.812-3.599.286-1.301.56-2.606.823-3.913.129-.642.241-1.289.327-1.938.329-2.528.647-5.059.963-7.589.046-.37-.079-.875.119-1.084.295-.311.858-.639 1.217-.559.642.143 1.444.25 1.654 1.139.069.29.193.61.391.825 1.119 1.208 1.314 2.765 1.669 4.265.36 1.529.761 3.048 1.092 4.583.285 1.328.408 2.7.77 4.005.303 1.09.859 2.108 1.278 3.166.113.284.131.608.201.911l.277 1.162zm-7.793-8.241c.591.021 1.347.067 2.104.069 1.13.003 1.258-.201.798-1.194l-.026-.178c-.314-1.543-.59-3.095-.964-4.623-.161-.655-.528-1.259-.801-1.888l-.148.063c-.318 2.572-.638 5.146-.962 7.75z" sketch:type="MSShapeGroup"/><path d="M70.493 16.442c-.921.145-1.721.744-2.487-.032l-.585-.417c.156-.507-.159-1.272.676-1.44.579-.115 1.165-.234 1.752-.283 1.72-.144 3.441-.27 5.165-.365.38-.022.767.115 1.18.183-1.243 2.218-1.306 2.268-2.889 2.371-.036 1.037-.077 2.079-.108 3.122-.036 1.194-1.061 1.745-1.681 2.546-.457.591-1.005 1.236-1.657 1.515-.59.252-1.061.883-1.897.679-.57-.14-1.252-.045-1.83.128-.641.194-1.02.002-1.411-.455-.269-.316-.621-.56-.928-.843-.087-.081-.233-.225-.209-.277.47-1.075-.522-1.863-.541-2.875-.024-1.362-.357-2.698-.023-4.087.196-.813.04-1.704.147-2.546.19-1.513.22-3.109.763-4.495.568-1.454 1.558-2.785 2.965-3.671.699-.44 1.22.049 1.685.416.216.171.369.729.25.949-.216.399-.601.791-1.011.986-1.68.795-2.187 2.266-2.312 3.924-.156 2.052-.302 4.111-.281 6.164.014 1.433.049 2.933 1.009 4.163.128.163.363.403.497.374.877-.195 1.813-.235 2.436-1.085.372-.507.895-.906 1.363-1.336.513-.471.716-.903.286-1.613-.275-.455-.223-1.107-.324-1.699" sketch:type="MSShapeGroup"/><path d="M248.492 8.765c.101 2.055-.732 3.869-1.741 5.493-1.137 1.83-3.157 2.509-5.217 2.901-.467.089-.954.079-1.424.16-1.656.288-1.851.164-2.3-1.484-.058-.215-.152-.562-.288-.592-1.809-.411-1.599-1.954-1.735-3.21-.116-1.062.108-2.157.055-3.232-.057-1.227-.24-2.45-.402-3.671-.04-.305-.156-.626-.325-.882-.514-.782-.028-1.514.231-2.127.589-1.392 1.742-2.172 3.31-2.053 1.643.126 3.327.162 4.904.579 1.386.366 2.404 1.389 3.425 2.537 1.536 1.729 1.336 3.644 1.509 5.581zm-10.495-.263l-.166.012c.031.722-.019 1.459.11 2.164.224 1.218.544 2.42.862 3.618.039.146.306.252.487.334.138.061.339.009.456.089 1.503 1.04 3.249.777 4.579-.487 1.936-1.842 2.517-4.141 2.531-6.669.012-1.848-1.981-4.22-3.742-4.821-1.57-.537-3.143-.189-4.71-.298-.155-.01-.449.188-.468.317-.113.839-.243 1.686-.225 2.527.025 1.072.184 2.142.285 3.214z" sketch:type="MSShapeGroup"/><path d="M148.519 12.05c1.673-3.546 3.002-6.953 3.605-10.642 1.674.335 1.91 1.64 2.289 2.891-2.254 1.367-1.999 3.887-2.829 5.952 3.247.556 5.091 2.538 6.074 5.483.249.746.596 1.454 1.536 1.532-.506 1.416-1.192 1.873-2.494 1.682-.619-.09-1.261-1.37-.972-1.909.064-.12.085-.303.044-.43-.475-1.425-1.274-2.72-2.5-3.505-.649-.414-1.929-.52-2.541-.141-.756.467-1.227 1.536-1.589 2.439-.148.371.331.979.485 1.494.088.3.245.794.114.908-.521.459-1.105.917-1.747 1.138-.279.095-.834-.174-.872-.879-.083-1.579-.313-3.154-.53-4.724-.215-1.559-.472-3.112-.737-4.662-.238-1.403-.507-2.801-.769-4.202-.156-.836.37-1.167 1.034-1.233.628-.062 1.084.117 1.2.966.217 1.584.677 3.131.944 4.711.144.851.094 1.733.137 2.6l.117.53" sketch:type="MSShapeGroup"/><path d="M179.672 5.11c.404 1.747.87 3.704 1.311 5.667.192.859.309 1.736.512 2.594.107.453.397.869.463 1.322.048.319-.056.737-.248.997-.315.426-.708.845-1.161 1.098-.236.132-.877.01-.981-.185-.295-.556-.698-1.311-.529-1.803.271-.777.275-1.431.108-2.2-.27-1.247-.394-2.526-.628-3.781l-.983-4.863c-.083-.443-.109-.932-.013-1.368.181-.82.972-.908 1.775-.244 1.776-1.582 5.318-1.181 6.39.728l.173.497c.439.799 1.13 1.535.383 2.539-.551.741-1.022 1.543-1.537 2.312-.263.393-.547.772-.88 1.237.66.608 1.372 1.24 2.056 1.898.696.669 1.358 1.374 2.049 2.049.277.27.572.691.888.718 1.132.099 1.013 1.067 1.063 1.676.027.319-.718.815-1.205 1.028-.329.144-.817-.041-1.227-.122-.184-.037-.46-.147-.504-.284-.407-1.275-1.194-2.185-2.278-2.986-1.019-.752-1.84-1.778-2.719-2.711-.492-.52-.483-1.797.007-2.274.496-.484 1.038-.919 1.559-1.377 1.259-1.104.992-2.517-.533-3.201-.571-.255-1.055-.683-1.695-.276-.238.153-.424.384-.644.566-.254.209-.521.402-.971.749" sketch:type="MSShapeGroup"/><path d="M81.937 10.619c1.168.186 2.324.453 3.531-.036.691-.279 1.469-.374 2.094.419-.313.428-.536 1.059-.96 1.254-2.332 1.077-2.997 1.168-4.525.847.13 1.292.248 2.533.381 3.77.059.561.143 1.119.223 1.678.193 1.354 1.532 2.34 2.88 2.094 1.167-.214 2.322-.492 3.493-.673.326-.05.689.146 1.036.23-.186.501-.227 1.221-.585 1.461-1.225.823-2.677 1.103-4.134 1.163-.803.031-1.614-.195-2.421-.207-.377-.004-.757.227-1.217.377-.17-.068-.489-.15-.75-.32-.159-.102-.311-.334-.326-.519-.131-1.696-.231-3.396-.337-5.095-.108-1.706-.179-3.416-.33-5.117-.105-1.183-.311-2.358-.491-3.535l-.386-2.192c-.109-.706-.06-1.368.641-1.802.096-.059.156-.232.174-.36.12-.869.735-1.39 1.607-1.468.974-.088 1.945-.237 2.91-.401.761-.129 1.352.229 1.528.986.04.172.149.338.154.508.01.331.088.776-.086.969-.19.208-.633.231-.972.249-.932.053-1.866.064-2.8.086-.693.015-.84.438-.783 1.026.149 1.514.297 3.028.45 4.605" sketch:type="MSShapeGroup"/><path d="M11.587 6.515c-.544.277-.544.277-.715 1.569l-1.312.222c-.713-.366-.797-1.261-.947-2.149-.138-.825-1.128-1.195-1.855-.74l-.171.057c-1.941.244-2.074 1.968-2.582 3.302-.42 1.101-.745 2.291-.824 3.46-.151 2.263-.525 4.571.423 6.768.379.874.74 1.771 1.252 2.566.525.817 2.742 2.038 3.965 1.561.926-.361 1.963-.425 2.94-.662.694-.169.975.322 1.155.771.189.47-.175.725-.568 1.052-1.694 1.399-3.665 1.377-5.599 1.066-1.631-.264-2.929-1.177-3.964-2.632-1.257-1.769-1.537-3.803-2.067-5.77-.196-.734.126-1.596.117-2.398-.026-2.225.519-4.349 1.175-6.432.44-1.394 1.14-2.702 2.536-3.453.426-.229.809-.537 1.227-.785 1.768-1.049 3.74-.7 4.906.913.357.496.581 1.087.908 1.714" sketch:type="MSShapeGroup"/><path d="M167.382 1.653c-.039.375-.052.666-.105.95-.038.206-.073.519-.206.586-1.773.88-2.3 2.547-2.73 4.27-.485 1.951-.419 3.878.271 5.781.321.885.502 1.828.903 2.671.394.829 1.62 1.137 2.488.831.413-.146.866-.169 1.288-.289 1.504-.423 2.089-1.465 1.705-3.013-.043-.169-.113-.332-.193-.562-.211-.007-.469-.083-.677-.012-.698.242-1.338.186-1.673-.504-.372-.763-.045-1.363.732-1.683.38-.156.848-.182 1.143-.429.26-.218.333-.659.391-.788.533.263.963.515 1.425.682.201.074.473-.075.703-.045.671.086 1.528-.061 1.438 1.085-.011.14.25.303.482.566l-2.053.704c.552 1.347.445 2.66-.185 3.845-.36.676-.954 1.39-1.622 1.702-1.436.672-2.929 1.251-4.612 1.125-1.342-.102-2.149-.907-2.795-1.878-1.256-1.888-1.462-4.144-1.979-6.285-.069-.287-.059-.613-.005-.906.282-1.528.442-3.101.94-4.558.342-1.002 1.154-1.843 1.775-2.745.284-.411.616-.786.914-1.189.422-.572 1.359-.536 2.238.086" sketch:type="MSShapeGroup"/><path d="M119.819 21.575l-1.144-.907c.554-2.64 1.096-5.27 1.661-7.895.093-.427.289-.831.435-1.247.057-.164.183-.349.15-.498-.406-1.872.413-3.589.657-5.377.069-.505.239-1.075.08-1.515-.263-.744.223-.983.645-1.177 1.528-.701 1.491-.66 2.005 1.026.281.923.796 1.773 1.142 2.68.185.485.241 1.019.343 1.533.323 1.627.639 3.255.955 4.87 1.292.731 1.238.723 1.014 2.319-.071.514.136 1.125.379 1.608.306.605.773 1.129 1.181 1.68.185.247.611.579.555.696-.311.655-.575 1.47-1.571 1.317-1.132-.175-1.704-.877-1.804-2.061-.06-.709-.182-1.418-.332-2.115-.143-.662-1.252-.804-2.087-.283-.229.141-.427.424-.658.446-.399.041-.813-.07-1.221-.117l.184-.919c.265-1.166 1.39-1.32 2.201-1.81.365-.219.423-.299.325-.72-.428-1.865-.774-3.749-1.176-5.62-.046-.213-.253-.393-.516-.78-.149.635-.286 1.097-.362 1.566-.387 2.413-.336 4.891-1.207 7.232-.228.615-.045 1.378-.239 2.014-.404 1.324-.931 2.612-1.42 3.908-.034.09-.171.142-.177.146" sketch:type="MSShapeGroup"/><path d="M231.198 3.454c-.542 1.184-1.32 2.24-.953 3.631.059.225.024.489-.024.725-.213 1.076-.29 2.072.052 3.215.236.784-.408 1.839-.686 2.767-.142.48-.499.952-.477 1.413.035.73-.31.823-.845.758-.618-.075-1.176-.143-1.622-.785-.364-.525-1.08-.821-1.669-1.171-1.382-.82-2.298-2.062-3.084-3.409-.195-.335-.199-.781-.292-1.176l-.307-.046c-.092.541-.213 1.081-.273 1.626-.129 1.151-.153 2.317-.358 3.453-.179.991-.747 1.248-1.765 1.037-.264-.055-.54-.057-.846-.086.092-.267.245-.516.257-.773.083-1.812.875-3.484 1.037-5.269.1-1.114.37-2.223-.098-3.381-.211-.527.016-1.319.244-1.915.246-.648 1.599-.557 1.936.071.331.617.712 1.212.979 1.856.406.973.61 2.045 1.115 2.955.888 1.592 1.804 3.201 3.539 4.094.821.424.948-.256.988-.677.178-1.858.289-3.723.369-5.588.043-.998-.014-2.002-.047-3.001-.025-.772.522-1.078 1.094-1.248.532-.158 1.08-.083 1.338.585.063.165.301.262.399.342" sketch:type="MSShapeGroup"/><path d="M201.721 10.606c.147 2.843-1.958 3.9-3.945 5.015-1.908 1.072-3.738.547-5.509-.417-.203-.111-.38-.314-.509-.513-1.17-1.824-1.635-3.764-1.402-5.975.226-2.158.935-3.938 2.65-5.283l.164-.212c.186-.128 2.958.174 3.167.289.585.325 1.153.751 1.785.908 2.094.523 2.877 2.143 3.401 3.952.204.705.14 1.488.197 2.235zm-1.91-.169c.227-1.777-.143-3.299-1.71-4.001-1.245-.559-2.686-.684-4.049-.965-.121-.026-.343.2-.445.356-1.266 1.948-1.438 4.072-.607 6.165.394.992 1.208 1.792 2.521 1.969.901.121 1.541-.252 2.25-.545 1.366-.563 2.394-1.399 2.04-2.98z" sketch:type="MSShapeGroup"/><path d="M206.829 3.706c-.034.97-.108 1.793-.079 2.614.036 1.056.072 2.126.264 3.16.227 1.217.514 2.443.97 3.587.457 1.152 1.382 1.908 2.705 1.913 1.318.005 2.341-.383 3.066-1.703.998-1.814.82-3.736.687-5.585-.064-.869-.13-2.019-1.026-2.84-.314-.288.001-1.334.152-2.005.027-.119.764-.261.998-.114.494.313 1.297.908 1.226 1.217-.311 1.362.567 2.494.513 3.775-.071 1.671.283 3.462-.211 4.984-.658 2.021-1.888 3.892-4.245 4.506-1.935.504-4.406-.497-5.567-2.308-.43-.67-.93-1.336-1.172-2.077-.254-.777-.135-1.674-.361-2.465-.426-1.489.055-2.956-.049-4.431-.039-.532-.101-1.069-.058-1.596.068-.851.875-1.263 1.682-.9.217.096.42.224.505.269" sketch:type="MSShapeGroup"/><path d="M138.086 3.681c.236.648.743 1.233.488 2.052-.23.739-.638 1.006-1.412.743-.931-.316-1.398.169-1.901 1.006-.965 1.609-.597 3.369-.892 5.046-.245 1.392.125 2.629.631 3.846.39.937 2.684 2.342 3.723 1.959 1.007-.372 1.997-.799 3.028-1.083.375-.104 1.073.003 1.219.252.214.366.409.828-.135 1.431-2.009 2.22-4.422 1.909-6.845 1.268-2.589-.684-3.641-2.624-3.902-5.208-.221-2.207.095-4.365.287-6.535.047-.523.419-1.026.686-1.514.725-1.328 1.775-2.366 3.111-3.028.522-.258 1.217-.162 1.913-.236" sketch:type="MSShapeGroup"/></g></svg>