<svg width="114" height="118" viewBox="0 0 114 118" xmlns="http://www.w3.org/2000/svg" xmlns:sketch="http://www.bohemiancoding.com/sketch/ns"><title>done</title><desc>Created with Sketch.</desc><g sketch:type="MSLayerGroup" fill="#000"><path d="M103.881 84.672c-.37-.098-.589-.222-.792-.199-1.976.217-3.953.458-5.927.696-.806.098-1.619.322-2.415.277-.673-.039-1.335-.359-1.983-.599-.293-.107-.547-.472-.809-.462-1.697.068-3.387.209-5.081.324-1.586.109-3.176.328-4.759.289-2.282-.055-4.557-.353-6.838-.449-2.879-.121-5.789-.402-8.637-.121-2.039.201-4.014-.096-6.019-.033-2.919.094-5.871-.336-8.762-.066-1.644.154-3.019-.24-4.521-.535-.926-.181-1.939.117-2.91.111l-1.889-.238c-2.336-.016-4.67.01-7.003.041-1.147.016-2.34-.109-3.429.158-2.821.687-5.658.228-8.466.195-2.804-.033-5.599-.679-8.399-1.044-1.076-.14-2.165-.205-3.234-.384-1.345-.226-2.66-.564-3.445-1.83-.107-.17-.322-.363-.297-.515.255-1.428-.811-2.39-1.222-3.576-.422-1.213-.437-2.558-.625-3.847l.079-.086c-.178-1.362-.387-2.721-.533-4.085-.054-.517.113-1.057.05-1.572-.315-2.517-.338-5.142-1.139-7.507-.514-1.516-.263-3.147-1.066-4.569-.138-.242.265-.737.297-1.122.171-2.21-.075-4.389-.309-6.592-.242-2.269-.071-4.602.121-6.89.125-1.477.675-2.915.928-4.389.278-1.615.491-1.771 2.175-2.093 1.995-.38 4.009-.164 6.009-.388 2.066-.232 4.156-.285 6.234-.429.813-.057 1.63-.242 2.438-.209 2.204.092 4.404.295 6.608.394.639.029 1.285-.181 1.933-.228 1.661-.119 3.322-.275 4.985-.295 1.736-.021 3.474.049 5.206.17 1.843.129 3.65.437 5.524-.043.911-.232 1.981.094 2.973.211 2.217.263 4.427.361 6.65.014.364-.055.779.265 1.166.254.292-.008.579-.263.884-.416.99 1.067 2.353 1.186 3.247.583 1.511.164 2.612.3 3.715.396.869.078 1.747.191 2.612.142 1.579-.092 3.153-.355 4.734-.429.869-.039 1.791.363 2.622.213 2.912-.525 5.804-.025 8.704-.029l.838-.131c1.903-.055 3.811-.053 5.712-.152 2.889-.15 5.833-.092 8.633-.679 1.222-.254 1.939-.254 2.848.406.261.191.817.265 1.089.123 1.287-.679 2.265-.144 3.263.595.315.232.746.314.829.347.111.944-.01 1.832.341 2.468.52.948.591 1.842.608 2.879.023 1.334.414 2.659.602 3.995.086.595.027 1.208.098 1.806.267 2.273.587 4.53.123 6.832-.125.626.188 1.338.47 1.992-.704 1.738-.512 3.457.378 5.158.109.207.203.433.249.661.361 1.808.869 3.607.99 5.433.056.835 1.091 1.787-.067 2.69-.18.142.328.968.251 1.434-.336 2.039-.349 4.282-1.293 6.026-.877 1.629-.965 3.357-1.617 4.975-.623 1.545-1.323 2.805-3.04 3.318-.307.092-.529.472-.689.626zm-96.757-40.831c.292 1.075.689 2.019.783 2.989.136 1.399.033 2.821.069 4.233.044 1.725.031 3.459.213 5.172.163 1.535.641 3.039.829 4.573.359 2.936.61 5.886.911 8.831.069.671-.061 1.514.305 1.966.485.601.497 1.153.608 1.818.107.636-.219 1.451.811 1.961.43.215.226 1.572.403 2.39.102.47.286 1.19.608 1.299 1.166.396 2.396.722 3.623.819 2.302.181 4.695-.15 6.907.347 2.376.531 4.644.236 6.968.164 1.477-.047 2.965.043 4.429-.111 1.981-.207 3.909-.665 5.95-.302 1.218.217 2.528-.111 3.784-.012 1.442.113 2.86.519 4.302.63 2.177.164 4.367.199 6.552.261.861.025 1.724-.025 2.587-.041 2.378-.045 4.753-.131 7.129-.127 2.066.002 4.133.123 6.197.15.455.006.917-.256 1.364-.222 2.142.16 4.289.62 6.414.519 2.43-.115 4.849.591 7.329-.295 1.596-.57 3.477-.404 5.234-.499 2.304-.123 4.613-.269 6.916-.232 2.068.035 1.882-.021 2.233 1.931.953-.544 1.897-.952 2.662-1.574.374-.302.372-1.02.604-1.522 1.389-3.028 2.39-6.167 2.67-9.487.09-1.073.086-2.191-.113-3.244-.439-2.3-1.038-4.571-1.557-6.857-.675-2.969-.595-5.977-.451-8.989.042-.851.09-1.707.042-2.556-.1-1.828-.428-3.66-.351-5.478.077-1.816-.926-3.229-1.406-4.83-.054-.176-.468-.355-.715-.353-1.872.012-3.744.062-5.616.117-1.68.051-3.36.129-5.039.195-.531.023-1.061.059-1.592.074-2.336.068-4.672.119-7.005.195-1.091.037-2.181.199-3.268.16-1.287-.045-2.595-.474-3.848-.334-2.825.316-5.624.49-8.478.332-3.441-.189-6.926.31-10.315-.683-.117-.033-.249-.029-.372-.031-2.465-.027-4.931-.037-7.394-.08-1.736-.031-3.47-.158-5.204-.152-2.908.008-5.812.119-8.719.121-1.49 0-2.977-.217-4.465-.205-2.862.023-5.727.135-8.589.217-.859.025-1.843-.185-2.549.156-1.644.794-3.289.802-5.016.599-1.051-.125-1.799-.94-2.998-.888-2.344.098-4.849 2.725-4.158 4.873.29.901.353 1.514-.217 2.013z" sketch:type="MSShapeGroup"/><path d="M16.52 116.523c-2.405 1.256-2.658 1.184-4.273-.455.361-1.522.602-2.95 1.049-4.315.516-1.582 1.27-3.088 1.82-4.659.643-1.849 1.686-3.523 1.912-5.572.163-1.483 1.254-2.846 1.623-4.335.349-1.401.338-2.895.407-4.352.056-1.206-.293-2.513.081-3.595.349-1.009 1.375-1.814 2.173-2.645.754-.784 1.607-.663 2.403-.014.439.357.846.749 1.425 1.264-.403.449-.917.872-1.226 1.41-.349.609-.572 1.307-.75 1.99-.501 1.945-.972 3.896-1.417 5.854-.253 1.112-.341 2.269-.671 3.357-.687 2.263-1.446 4.508-2.256 6.732-.451 1.239-1.134 2.401-1.567 3.644-.198.572.017 1.272-.071 1.898-.169 1.219-.418 2.427-.662 3.796" sketch:type="MSShapeGroup"/><path d="M64.145 1.928c.422.572.746 1.069 1.128 1.518.859 1.005-.025 1.906-.136 2.854-.159 1.362-.33 2.725-.47 4.091-.15 1.469-.322 2.94-.389 4.413-.081 1.814-.109 3.632-.075 5.445.021 1.198.148 2.401.311 3.591.065.482.351.938.608 1.582-.681.628-1.49 1.586-2.507 2.224-.562.353-1.805.492-2.15.152-.497-.49-.681-1.529-.602-2.294.228-2.156.673-4.292 1.001-6.44.188-1.239.357-2.487.462-3.736.153-1.851.267-3.705.343-5.56.042-.962-.04-1.929-.058-2.893-.025-1.313-.092-2.628-.046-3.939.033-.981.393-1.619 1.586-.997.276.144.708-.002.995-.01" sketch:type="MSShapeGroup"/><path d="M95.152 93.667l1.465-2.969c1.826.047 2.591.991 3.126 2.179.157.347.318.778.247 1.122-.397 1.931.236 3.724.627 5.558.683 3.195 1.323 6.399 1.976 9.6.144.702.272 1.407.405 2.111 1.089-.154 1.772.854 1.36 2.144-.253.794-.554 1.654-1.097 2.251-.382.416-1.201.521-1.847.603-.357.045-.758-.246-1.32-.449-.364-7.524-1.943-14.932-4.454-22.14l-.487-.01" sketch:type="MSShapeGroup"/><path d="M47.042 111.531c.123.794.307 1.44.282 2.076-.01.265-.424.583-.725.753-.637.357-1.304.796-1.997.88-.451.055-1.053-.382-1.427-.753-.161-.162.073-.714.136-1.089.092-.568.284-1.137.274-1.703-.056-3.131-.13-6.26-.257-9.389-.127-3.112.194-6.268-.748-9.309-.155-.497-.712-.874-1.137-1.366l.735-.117c-.004-.425-.044-.858 0-1.282.077-.79-.019-1.732 1.243-1.711 1.203.021 1.824.611 2.041 1.762.115.607.501 1.159.654 1.764.111.447.042.94.052 1.412.05 2.329.136 4.659.14 6.988.006 2.571-.142 5.146-.05 7.712.031.858.497 1.75.944 2.526.389.675.499.613-.161.845" sketch:type="MSShapeGroup"/><path d="M35.71 3.801c-.541 3.867-.643 7.741-.343 11.656.205 2.649-.052 5.33-.077 8-.008.843.025 1.691.102 2.53.088.968-.754 1.933-1.809 1.996-.754.045-1.368-.769-1.389-1.769-.05-2.37-.15-4.739-.178-7.109-.006-.657.253-1.315.253-1.974.002-2.13-.052-4.261-.102-6.393-.027-1.163-.161-2.329-.107-3.488.027-.56.215-1.307.612-1.611.692-.525.558-1.038.416-1.67-.215-.962-.462-1.927-.554-2.903-.031-.345.272-.919.57-1.04.336-.135.846.09 1.266.211 2.047.593 1.59 2.117 1.339 3.564" sketch:type="MSShapeGroup"/><path d="M74.989 112.819l-1.13.039c-1.473.047-2.862-1.327-2.582-2.665.098-.47.715-.841.796-1.307.144-.825.123-1.691.058-2.532-.194-2.507-.301-5.033-.708-7.509-.435-2.639-1.237-5.218-1.757-7.846-.366-1.847.903-3.119 2.407-2.591 1.222.431 2.106 1.988 1.697 3.227-.495 1.502.163 2.877.295 4.311.184 1.99.217 3.993.378 5.987.123 1.498.28 2.998.543 4.477.175 1.001.746 1.955.806 2.95.069 1.178-.219 2.376-.353 3.566l-.449-.107" sketch:type="MSShapeGroup"/><path d="M91.584 5.529c1.187 1.446 1.523 2.934.616 4.469-.28.505-.679.981-.821 1.52-.399 1.522-.744 3.063-1.017 4.614-.221 1.256-.253 2.542-.466 3.8-.332 1.951-.752 3.89-1.118 5.835-.092.486-.015 1.024-.196 1.467-.579 1.412-1.293 1.719-2.587 1.233-.681-.256-1.266-1.957-.928-2.758 1.312-3.106 1.887-6.393 2.509-9.67.332-1.744.746-3.472 1.068-5.215.084-.46-.008-.958-.071-1.432-.318-2.362-.023-3.328 2.515-3.685.155-.021.301-.107.495-.178" sketch:type="MSShapeGroup"/><path d="M8.783 7.689l-.042-.047c.587.917 1.849 2.087 1.613 2.696-.441 1.139-.255 2.033-.031 3.055.238 1.092.376 2.206.658 3.287.416 1.602.921 3.182 1.387 4.774.353 1.204.593 2.454 1.082 3.601.506 1.186-.458 1.531-1.047 1.982-.51.394-1.258.49-2.052.769l-.221-1.479-.806-.443c.061-.527.209-.968.14-1.373-.602-3.529-1.22-7.058-1.893-10.575-.123-.64-.38-1.358-.819-1.818-.94-.987-.846-2.091-.564-3.197.088-.343.639-.636 1.04-.821.458-.207.984-.269 1.554-.412" sketch:type="MSShapeGroup"/><path d="M107.266 19.447c-.441.714-.721 1.481-1.258 1.98-1.669 1.541-2.883 3.316-3.535 5.48-.24.796-2.185 1.453-3.128.987-.926-.458-1.172-1.334-.742-2.284.238-.519.579-.999.913-1.471 1.093-1.553 2.309-3.035 3.274-4.657.644-1.079 2.938-1.826 3.922-.989.249.211.349.589.554.954" sketch:type="MSShapeGroup"/><path d="M5.965 90.205l-.687-.931c.303-.458.533-.882.84-1.245.184-.213.493-.466.74-.462.792.016 1.59.092 2.363.246.798.16 1.277 1.82.74 2.548-.497.677-1.072 1.299-1.59 1.959-.14.181-.263.414-.288.636-.056.46.136 1.194-.09 1.34-.623.4-1.394.685-2.135.778-1.314.166-1.849-.599-1.887-1.906-.04-1.463.859-2.195 1.995-2.963" sketch:type="MSShapeGroup"/><path d="M75.663 18.924c.242.363.414.691.65.962 1.295 1.492 1.258 1.756.397 3.562-.309.642-.017 1.545-.255 2.243-.236.693-.662 1.549-1.256 1.836-.547.265-1.523.045-2.131-.283-.522-.281-.959-.837-.514-1.744.341-.698.048-1.676.134-2.52.188-1.865 1.076-3.279 2.975-4.056" sketch:type="MSShapeGroup"/><path d="M109.456 89.225c.683-.004 1.203.162 1.519 1.153.476 1.494 1.335 2.87 2.056 4.282.481.94.013 1.797-.625 2.199-1.16.737-2.34.363-2.875-.589-.343-.609-.635-1.114-.593-1.953.038-.753-.763-1.713-1.45-2.277-.531-.435-.8-.62-.366-1.202.119-.162.24-.33.32-.513.541-1.26.537-1.26 2.014-1.1" sketch:type="MSShapeGroup"/><path d="M82.665 89.329c1.168-.203 2.361-.689 3.42-.49.585.111 1.028 1.338 1.375 2.13.242.552.167 1.233.322 1.834.249.975-1.103 2.712-2.233 2.731-.572.008-1.157-.119-1.722-.244-.967-.213-1.373-.689-1.206-1.793.188-1.254.042-2.556.044-4.167" sketch:type="MSShapeGroup"/><path d="M-.984 22.966c.167-1.451 1.297-2.255 2.944-2.405 1.084-.101 1.318.636 1.462 1.444.13.73.165 1.485.374 2.191.171.579.623 1.079.8 1.658.313 1.022-.023 1.744-1.21 1.89-.637.078-1.279.224-1.91.191-.234-.012-.66-.482-.631-.693.215-1.49-1.203-2.302-1.465-3.582-.067-.33-.326-.622-.366-.693" sketch:type="MSShapeGroup"/><path d="M23.736 17.847c-.336.523-.761.89-.798 1.295-.153 1.611-.274 3.238-.232 4.852.031 1.211-.293 1.84-1.389 1.935-.972.082-2.073-.798-1.991-1.713.18-2.048.384-4.095.717-6.122.075-.464.687-.854 1.078-1.25.809-.823.788.279 1.168.476.462.24.984.363 1.448.527" sketch:type="MSShapeGroup"/><path d="M56.67 94.672c-.38-.314-.74-.593-1.076-.897-.944-.849-.47-1.871-.324-2.844l.284-.917c.142-.897.038-1.986 1.402-1.998 1.638-.014 2.125.449 2.177 2.136.033 1.098-.104 2.197-.159 3.297-.036.759-.445.925-1.168.868-.38-.029-.788.238-1.137.355" sketch:type="MSShapeGroup"/><path d="M50.001 24.924c-.042.363-.121.728-.115 1.094.013.812-.286 1.461-1.116 1.627-1.028.205-2.227-.482-2.261-1.449-.05-1.449.067-2.936.414-4.337.081-.33 1.519-.708 2.052-.468.738.336 1.615 1.018 1.191 2.201-.148.412-.115.886-.165 1.332" sketch:type="MSShapeGroup"/><path d="M30.326 90.138c.965.183 1.945-.866 2.816.232.265.332.643.605.811.975.631 1.393.334 3.519-.827 4.352-.556.398-1.529.273-2.313.269-.088 0-.242-.763-.242-1.172l.084-3.779c.002-.261-.19-.523-.328-.876" sketch:type="MSShapeGroup"/><path d="M18.037 67.599c-.021-1.961.033-3.792-.079-5.609-.138-2.189-.405-4.368-.648-6.549-.119-1.059-.303-2.113-.47-3.168-.023-.154-.073-.341-.18-.441-.662-.609-1.086-1.128-.516-2.154.692-1.243 1.736-1.526 2.973-1.687 2.317-.3 4.538.146 6.638 1.011 1.329.548 2.779 1.186 3.704 2.197 1.274 1.393 2.154 3.147 3.109 4.801.537.929.944 1.943 1.289 2.961.171.507.159 1.118.075 1.66-.261 1.695-.368 3.465-.986 5.033-.393.997-1.49 1.834-2.451 2.487-2.077 1.41-4.463 1.937-6.987 1.892-.261-.006-.527.166-.79.256-1.709.597-4.139-.552-4.569-2.165l-.113-.525zm1.88-15.909c.738 5.029 1.462 9.99 2.217 15.129 1.956-.226 3.742-.347 5.489-.677.621-.117 1.337-.622 1.669-1.155.729-1.174 1.414-2.433 1.015-3.927-.303-1.133-.332-2.429-.936-3.375-1.176-1.847-2.321-3.771-4.433-4.881-1.531-.806-2.983-1.635-5.021-1.114z" sketch:type="MSShapeGroup"/><path d="M63.324 57.745c-.15.3-.414.599-.443.919-.224 2.513-.8 4.953-1.521 7.368-.046.156.341.398.38.624.15.841.579 1.849.267 2.503-.443.927-1.634.962-2.653.765-.994-.193-1.761-.761-2.05-1.711-.109-.355.228-.829.324-1.256.526-2.331 1.074-4.655 1.544-6.994.328-1.629.395-3.322.861-4.906.359-1.227.842-2.345.733-3.697-.069-.841.859-.812 1.536-.65 1.644.392 2.574 1.477 3.403 2.909 1.009 1.744 1.901 3.49 2.459 5.423.15.519.627.95 1.097 1.34.006-2.097.213-3.995 1.289-5.794.353-.591.075-1.516.207-2.269.201-1.133.366-2.306.817-3.348.284-.659 1.078-.71 1.78-.22.282.195.679.234 1.04.349l.073.074c1.546 2.128-.783 3.712-.829 5.632-.029 1.229-.265 2.456-.449 3.679-.084.554-.357 1.087-.384 1.639-.1 1.998-.119 4.001-.196 5.999-.038.995-.125 2.093-1.323 2.359-1.063.238-2.096.318-3.151-.556-.725-.599-.575-1.073-.585-1.715-.006-.378-.069-.81-.267-1.118-.585-.905-1.366-1.701-1.847-2.649-.395-.782-.541-1.711-.673-2.591-.136-.921-.297-1.754-1.44-2.107" sketch:type="MSShapeGroup"/><path d="M54.219 61.151c-.982 2.208-1.072 4.378-2.894 5.878-1.755 1.446-3.955 2.236-6.251 2.126-2.749-.135-4.419-1.937-6.199-3.599-.161-.152-.109-.521-.155-.79-.052-.308-.056-.634-.167-.919-.301-.778-.836-1.518-.93-2.312-.134-1.145-.019-2.329.102-3.484.109-1.005.382-1.994.564-2.991.165-.895.021-1.764 1.168-2.39.723-.392.938-1.658 1.425-2.509.153-.263.424-.605.683-.644 2.19-.339 4.35-.778 6.339.88.683.566 1.874.521 2.804.833.539.183 1.373.433 1.469.804.299 1.151 1.157 2.031 1.168 3.379.015 1.992.581 3.98.873 5.739zm-12.818-3.01c-.493 2.444.777 4.366 1.951 6.26.284.458 1.168.538 1.751.841 1.143.593 3.882.164 4.394-.936.629-1.352 1.103-2.835 1.289-4.305.127-1.007-.42-2.08-.549-3.137-.297-2.405-.464-2.653-2.737-3.307-.547-.158-1.116-.433-1.653-.392-1.057.08-2.453-.312-3.034.782-.683 1.288-.959 2.786-1.412 4.194z" sketch:type="MSShapeGroup"/><path d="M81.133 67.583c-.522 1.652-1.857 2.099-3.201 1.141-.188-.133-.464-.353-.451-.517.121-1.779-.153-3.572.341-5.347.299-1.073.303-2.228.416-3.346.115-1.145.238-2.288.293-3.435.054-1.116-.006-2.238.056-3.355.017-.33.228-.681.441-.956.163-.213.593-.267.687-.484.687-1.58 2.104-1.235 3.387-1.338.917-.072 1.82-.285 2.731-.431.997-.158 1.993-.312 2.956-.462 1.5 1.931 1.379 3.279-.549 3.765-.813.203-1.713.043-2.555.162-.997.14-1.985.365-2.954.636-.207.057-.378.451-.449.718-.155.579-.232 1.176-.372 1.927 1.233-.025 2.516-.035 3.796-.076 2.302-.074 2.783.316 3.153 2.928-2.116.232-4.218.494-6.328.671-.692.057-1.034.146-.767.917.088.248-.031.566-.054.851-.069.843-.466 1.883-.102 2.468.305.488 1.494.466 2.298.636 1.73.365 3.454.763 5.198 1.038.848.131 1.793.203 2.593-.031 1.55-.453 1.302.702 1.44 1.412.213 1.1-.512 2.14-1.452 2.105-.911-.035-1.811-.25-2.718-.386-.986-.148-1.976-.285-2.961-.445-1.348-.215-2.689-.453-4.034-.675-.244-.041-.493-.055-.836-.092" sketch:type="MSShapeGroup"/></g></svg>