<svg width="115" height="47" viewBox="0 0 115 47" xmlns="http://www.w3.org/2000/svg" xmlns:sketch="http://www.bohemiancoding.com/sketch/ns"><title>next-bg</title><desc>Created with Sketch.</desc><g sketch:type="MSLayerGroup" fill="#000"><path d="M3.419 46.161c-.322-.131-.617-.209-.868-.361-.715-.433-1.451-.84-1.189-1.923.07-.294.322-.826-.339-.924.088-.258.256-.519.249-.776-.029-1.175.074-2.396-.218-3.508-.276-1.048.185-1.982.044-2.979-.116-.821.017-1.678-.102-2.498-.086-.595-.406-1.157-.646-1.797.607-.352.58-1.014.516-1.776-.118-1.446-.1-2.902-.173-4.353-.01-.194-.206-.38-.357-.638.379-1.156.944-2.385.633-3.818-.101-.462.165-.994.226-1.499.316-2.653-.276-5.216-.711-7.808-.187-1.113-.037-2.302.091-3.443.107-.945.469-1.861.593-2.805.055-.42-.198-.879-.298-1.27l1.031-.816c.094-.074.188-.186.292-.2 1.554-.2 3.091-.602 4.684-.397.403.051.822-.046 1.233-.055.876-.023 1.78.106 2.619-.076 2.207-.482 4.416-.407 6.648-.388 3.177.026 6.358-.101 9.536-.218 2.883-.106 5.762-.32 8.644-.428 2.02-.076 4.045-.012 6.065-.095 1.338-.054 2.671-.255 4.007-.393.178-.018.352-.084.529-.082 1.45.007 2.901-.021 4.348.051 1.275.063 2.544.338 3.816.347 2.108.012 4.217-.118 6.324-.179.174-.005.439-.003.513.1.873 1.231 2.207.715 3.337.858 1.413.177 2.849.159 4.273.236.14.007.329.179.405.131 1.141-.724 2.333.097 3.506-.141 1.198-.241 2.441-.255 3.663-.374 1.571-.152 3.138-.365 4.712-.445 1.086-.055 2.183.104 3.274.108 1.961.007 3.92-.049 5.881-.03.337.004.666.358 1.005.374.747.033 1.499-.044 2.247-.083.358-.02.714-.08 1.072-.082 1.177-.006 2.354 0 3.532.013.5.006.998.034 1.496.06 1.464.073 2.93.124 4.391.241.618.049 1.225.233 1.834.373.751.175 1.529.599 2.241.503 1.218-.162 2.582.435 3.682-.614.157-.151.895-.039.933.085.245.803 1.468 1.082 1.149 2.159l-.35 1.226c.062.124.287.392.32.682.15 1.336.3 2.675.338 4.017.021.741-.271 1.491-.258 2.235.033 1.759.204 3.514.242 5.273.022 1.093-.177 2.193-.133 3.284.071 1.77-.216 3.532.192 5.32.33 1.441.107 3.01.416 4.459.284 1.337-.605 2.469-.34 3.746.099.469.115.955.186 1.431.181 1.231.45 2.455.541 3.693.097 1.319-1.157 2.933-2.435 3.419-.386.146-.702.466-1.075.66-1.369.713-2.843.191-4.26.335-1.629.167-3.252.382-4.881.552-.803.083-1.612.118-2.418.163-3.359.19-6.719.357-10.077.576l-2.431.392c-.788.052-1.591-.124-2.379-.08-1.845.102-3.684.317-5.53.407-.952.047-1.911-.124-2.867-.113-.924.011-1.847.169-2.771.185-.854.017-1.734-.215-2.562-.085-2.99.47-5.985.343-8.981.227-1.211-.046-2.413-.28-3.625-.363-1.484-.1-2.97-.152-4.457-.186-1.018-.024-2.038.01-3.057.027-2.369.039-4.737.1-7.107.117-1.677.01-3.355-.045-5.033-.056-1.022-.007-2.072.158-3.062-.017-1.336-.234-2.787.055-4.018-.833-.226-.164-.765.174-1.154.152-1.384-.075-2.764-.264-4.148-.295-1.072-.022-2.148.131-3.221.202-.986.065-1.973.116-2.957.19-2.208.167-4.412.353-6.619.513-.451.031-.958.112-1.352-.047-1.454-.59-2.932-.495-4.442-.405-1.026.061-2.065-.085-3.099-.137-1.017-.051-1.017-.05-1.509.77zm13-5.861c.559.029 1 .022 1.434.081 2.081.282 4.163.566 6.238.886 1.459.224 2.91.51 4.364.766 1.522.265 3.041.578 4.572.774 1.067.135 2.156.114 3.237.147 2.127.068 4.254.189 6.381.167 2.854-.028 5.707-.198 8.562-.256 1.617-.035 3.239.069 4.857.042 2.053-.034 4.103-.137 6.155-.214l.449-.042c1.429.03 2.86.069 4.291.097.603.012 1.205.009 1.808-.004 1.065-.022 2.135-.142 3.191-.067 1.158.082 2.304.469 3.458.487 2.31.035 4.624-.072 6.934-.16 1.564-.061 3.125-.195 4.687-.287 1.205-.072 2.409-.174 3.614-.184 1.049-.01 2.1.167 3.145.129 2.083-.078 4.165-.209 6.242-.389 1.768-.155 3.53-.398 5.293-.624.884-.113 1.813-.519 2.63-.35.954.199 1.742.025 2.605-.225 1.154-.334 1.333-.862.584-1.888-.138-.192-.275-.48-.234-.69.154-.789.508-1.556.557-2.348.111-1.786.13-3.583.092-5.374-.019-.917-.291-1.825-.36-2.745-.065-.883-.007-1.774-.017-2.661-.024-2.022-.291-4.08-.006-6.057.206-1.441-.102-2.756-.157-4.126-.062-1.565-.271-3.136-.189-4.691.078-1.431.309-2.834.052-4.28-.19-1.072-.392-1.287-1.477-1.168-1.07.117-2.172.293-3.22.153-1.394-.189-2.798-.12-4.199-.483-1.365-.353-2.856-.257-4.292-.274-1.675-.02-3.349.044-5.024.082-1.585.035-3.169.13-4.753.108-.962-.013-1.924-.309-2.881-.281-1.999.061-3.994.29-5.993.379-2.911.129-5.823.208-8.736.284-1.364.036-2.729.004-4.094.023-1.321.018-2.642.101-3.96.084-1.377-.017-2.756-.215-4.126-.152-1.353.062-2.693.44-4.047.516-.972.053-2.048.2-2.786-.809-.161-.217-.599-.294-.919-.321-1-.086-2.019-.024-3.003-.191-1.778-.302-3.528-.556-5.361-.474-3.276.147-6.562.061-9.844.078-1.055.006-2.108.017-3.163.049-1.96.063-3.922.113-5.879.233-.686.042-1.368.246-2.038.427-.425.112-.825.453-1.237.455-1.224.005-2.449-.111-3.674-.173-.114-.006-.319.005-.332.05-.264.943-.98.622-1.572.549-1.119-.138-2.233-.458-3.35-.458-1.841-.003-3.679.19-5.52.3-.903.054-1.324.438-1.345 1.331-.024 1.026.039 2.054.007 3.078-.051 1.531-.222 3.063-.198 4.592.009.645.373 1.288.596 1.925.579 1.65.836 3.345.852 5.091.022 2.53.096 5.06.123 7.591.005.347-.181.693-.205 1.043-.103 1.422-.061 2.862-.29 4.26-.373 2.282-.376 4.554-.25 6.879 1.003.052 1.949.083 2.893.154 2.276.167 4.548.403 6.826.506.873.039 1.871-.028 1.998-1.346z" sketch:type="MSShapeGroup"/><path d="M28.482 14.871l2.817 2.259c-.993.393-1.246.994-1.168 1.803.031.308-.031.63-.076.942-.274 1.86-.704 3.712-.795 5.582-.124 2.533-1.035 4.837-1.724 7.211-.068.232-.347.403-.52.594-.9-.239-1.797-.403-2.165-1.412-.843-2.309-1.676-4.624-2.563-6.917-.359-.927-.848-1.803-1.489-2.683-.042.799-.135 1.599-.114 2.397.047 1.901-.394 3.71-.898 5.517-.249.889-.471 1.789-.628 2.697-.12.694-.602.886-1.147.919-.567.035-1.342.168-1.315-.766.019-.654.179-1.311.342-1.948.272-1.064.726-2.096.875-3.172.333-2.41.535-4.838.761-7.263.041-.437-.115-.893-.082-1.332.025-.306.211-.601.339-.895.211-.481.434-.956.654-1.439.322.101.669.151.947.313.339.199.712.438.911.759.91 1.462 1.772 2.954 2.626 4.45.163.286.197.645.309.964.528 1.504 1.069 3.003 1.594 4.51.078.222.093.467.193 1.004.209-.511.406-.808.452-1.127.368-2.597.719-5.197 1.05-7.797l.388-3.599c.06-.455.237-.896.425-1.57" sketch:type="MSShapeGroup"/><path d="M83.158 23.424c.51.1.931.213 1.357.254.256.024.521-.083.784-.101l6.261-.419c1.487-.103 2.97-.232 4.458-.305.494-.026.992.091 1.49.12.258.015.519-.023.914-.044-.994-1.364-1.708-2.734-3.073-3.524-.333-.193-.727-.282-1.101-.392-.591-.174-1.114-.385-1.189-1.127-.024-.244-.174-.49-.312-.706-.333-.521-.192-1.582.272-1.897.444-.3 1.85-.235 1.994.194.469 1.403 1.738 2.095 2.602 3.139 1.091 1.318 2.19 2.631 3.35 3.887.29.316.825.405 1.374.655-.381 1.165-.789 2.271-1.095 3.405-.185.692-.527.608-1.04.334-1.14 1.446-2.286 2.893-3.423 4.343-.537.685-.533.69.036 2.143l-2.05.217-.024-.249-.678.649c-.291-.552-.66-1.019-.779-1.541-.137-.61.025-1.096.709-1.538.903-.582 1.685-1.423 2.157-2.464.074-.166.209-.304.304-.462.441-.736.886-1.471 1.283-2.232.012-.024-.504-.475-.759-.461-1.828.099-3.651.285-5.478.409-2.246.152-4.495.264-6.743.403-1.359.083-1.86-.51-1.54-1.826.039-.164-.021-.352-.06-.863" sketch:type="MSShapeGroup"/><path d="M42.056 25.299c.001.235-.089.548.024.743.424.73-.17.96-.59 1.038-1.608.296-3.236.486-4.852.74-.207.033-.547.182-.565.311-.108.814.04 1.515.446 2.322.911 1.812 2.37.85 3.542.876 1.219.027 1.224-.184 1.381-.681l1.649.702c.098 1.252-.793 1.768-1.459 2.414-.124.119-.386.119-.586.131-1.627.105-3.253.246-4.881.269-.558.009-1.122-.284-1.573-.409-.18-.849-.441-1.549-.451-2.252-.016-1.037.209-2.077.222-3.118.027-2.334.002-4.669-.033-7.003-.015-.918-.191-1.837-.158-2.753.039-1.131.623-1.575 1.798-1.871.913-.229 1.853-.531 2.629-1.034.446-.291.641-.222 1.016-.051.671.307 1.363.575 2.06.819.624.217.814.691.601 1.214-.234.577-.444 1.207-1.434.882-1.23-.406-2.506-.159-3.588.579-.318.217-.561.728-.604 1.129-.133 1.271-.148 2.554-.228 3.83-.041.673.2 1.054.917.967.793-.099 1.589-.197 2.37-.356.872-.174 1.731-.432 2.35.56" sketch:type="MSShapeGroup"/><path d="M46.556 16.256c.479-.184.775-.314 1.082-.414.811-.266 1.334.021 1.661.827.643 1.584 1.315 3.158 1.972 4.737.238.571-.3 1.499.909 1.645l1.461-3.629 1.215-1.291 1.773.772-.242.227c.133.257.336.504.376.775.039.268-.031.778-.15.809-1.157.3-1.188 1.503-1.794 2.227-.668.799-1.116 1.818-1.504 2.802-.174.437.032 1.024.069 1.544l.063.162c.573 1.294 1.135 2.591 1.729 3.872.07.152.322.218.427.285-.077.161-.285.414-.228.509.601 1.008-.353 1.426-.828 1.795-.842.654-1.647.294-1.937-.756-.305-1.1-.496-2.232-.772-3.34-.066-.26-.277-.483-.487-.834-.591.966-1.085 1.816-1.623 2.639-.405.617-.816 1.246-1.321 1.778-.514.541-1.139.432-1.68-.039-.27-.234-.497-.517-.74-.776 1.276-1.758 2.589-3.562 3.899-5.37.391-.54.618-.981.263-1.769-.645-1.432-.945-3.015-1.499-4.494-.371-.987-.956-1.894-1.401-2.857-.274-.591-.465-1.221-.694-1.836" sketch:type="MSShapeGroup"/><path d="M69.566 34.152l-1.126.462c-.352.328-.59.733-.913.818-.813.216-1.052-.401-1.081-1.036-.05-1.118-.007-2.241-.029-3.36-.034-1.572-.066-3.145-.146-4.715-.105-2.031-.253-4.061-.387-6.091-.03-.444-.043-.895-.143-1.325-.032-.142-.328-.336-.48-.317-1.763.23-3.518.566-5.287.694-.341.025-.806-.68-1.086-1.13-.167-.268-.086-.691-.129-1.203.926-.136 1.69-.916 2.864-.561.674.204 1.484.042 2.219-.055 1.794-.238 3.574-.597 5.373-.778.74-.074 1.512.202 2.273.271.375.033.771.003 1.138-.08 1.402-.315 1.399-.327 2.816.287-.275.682-1.372 1.411.214 2.041l-.173.252c-1.261-.017-2.523-.015-3.782-.056-1.267-.042-2.534-.126-3.777-.19.152.747.34 1.254.344 1.764.016 1.663-.05 3.328-.054 4.993-.001.656.076 1.314.118 1.972.024.387.143.795.06 1.159-.387 1.696.301 3.299.396 4.951.021.361.43.7.78 1.233" sketch:type="MSShapeGroup"/></g></svg>