<svg width="114" height="48" viewBox="0 0 114 48" xmlns="http://www.w3.org/2000/svg" xmlns:sketch="http://www.bohemiancoding.com/sketch/ns"><title>prev-bg-hover</title><desc>Created with Sketch.</desc><g sketch:type="MSLayerGroup" fill="none"><path d="M3.194 44.345c1.04-.558 1.429-1.2.938-2.314-.792-1.791-.506-3.56-.22-5.315.271-1.655-.018-3.226-.208-4.834-.145-1.22-.144-2.455-.262-3.679-.062-.652-.192-1.308-.386-1.933-.069-.222-.417-.359-.522-.443l-.163-2.857c-.011-.167-.059-.335-.042-.498.147-1.424.371-2.844.429-4.271.025-.624-.174-1.32-.472-1.876-.247-.46-.422-.788-.185-1.304.094-.202.014-.678-.138-.765-.473-.272-1.083-.364-.881-1.141-.898-.512-.365-1.322-.334-1.967.04-.838.547-1.69.448-2.486-.124-1.021.475-1.774.575-2.676.107-.957.143-1.921.219-2.88.009-.102.064-.22.135-.294.698-.716 1.356-1.528 2.489-1.492 3.495.113 6.989.257 10.485.362 1.751.052 3.503.043 5.254.058.137.001.308.02.41-.048.684-.456 1.336-.569 2.204-.376.906.201 1.91-.009 2.869-.084 2.276-.178 4.536-.565 6.839-.35.93.086 1.878-.054 2.817-.03.681.019 1.358.169 2.04.206.321.017.754.016.953-.172.592-.556 1.251-.497 1.966-.476 2.044.062 4.094.175 6.132.072 2.437-.124 4.861-.108 7.295.015 2.408.122 4.822.154 7.235.171 2.046.016 4.092-.038 6.138-.078.356-.008.713-.093 1.066-.16.866-.159 1.244.174 1.202 1.014 1.49-.06 2.983-.184 4.475-.159 1.119.019 2.234.326 3.352.332 1.656.011 3.314-.159 4.973-.199.939-.024 1.883.041 2.821.097 1.439.085 2.872.237 4.312.29 2.421.089 4.844.125 7.266.172.302.006.606-.051.905-.104 2.32-.411 4.665-.265 7.001-.372.846-.04 1.686-.235 2.617-.372l.997 1.062c.914-.416 1.604-.291 2.108.47.086.131.15.3.158.454.052 1.056.071 2.114.129 3.168.075 1.377.177 2.752.263 4.128.023.361.053.724.043 1.085-.015.615.136 1.074.766 1.36.863.39.362 1.264.488 1.889.17.848-.015 1.767-.019 2.654-.004.864.026 1.73.048 2.596.005.209-.046.515.068.612.78.665.375 1.509.412 2.291.07 1.469.183 2.934.26 4.402.012.229-.091.464-.109.698-.078.994-.144 1.988-.213 2.983-.087 1.242-.224 2.485-.243 3.729-.012.762.062 1.581 1.071 1.806l-.728.036c-.225.897-.507 1.778-.653 2.679-.137.845-.186 1.716-.168 2.575.024 1.118-.79 2.04-1.888 2.002-.451-.016-.902-.06-1.387-.094-.462 1.143-1.331 1.453-2.514 1.38-1.304-.079-2.621.056-3.932.035-1.779-.027-3.56-.18-5.337-.151-1.15.019-2.293.288-3.443.396-.584.056-1.181-.04-1.765.007-2.234.181-4.467.365-6.696.597-2.333.244-4.66.566-6.994.807-1.654.171-3.316.271-4.976.389-1.44.102-2.881.191-4.323.27-1.721.095-3.442.202-5.164.253-2.119.062-4.241.073-6.362.099-1.354.017-2.71.054-4.063.02-1.973-.049-3.945-.146-5.916-.24-.995-.047-1.987-.192-2.979-.193-1.809 0-3.621.145-5.427.091-1.348-.041-2.688-.301-4.032-.455-.257-.029-.519-.017-.779-.028-2.486-.092-5.005.03-7.444-.362-1.483-.238-2.897-.068-4.341-.114-.185-.006-.371.08-.561.11-.395.06-.746.517-1.185-.158-.21-.324-1.057-.413-1.57-.329-1.394.229-2.74-.181-4.11-.152-.226.004-.473-.073-.673-.005-1.862.635-3.766.194-5.648.233-.708.016-1.419-.119-2.128-.119-.237 0-.467.229-.713.309-.293.096-.603.145-.905.215-.026-.232-.019-.473-.086-.692-.071-.235-.168-.489-.331-.662-.293-.312-.643-.569-1.051-.919zm11.167-38.748c-.774-.103-1.593.059-1.845-.916-.023-.091-.356-.161-.534-.144-1.276.123-2.31-.838-3.615-.739-.859.066-1.743-.277-2.621-.343-.731-.054-1.309.435-1.417 1.068-.075.445-.1.954-.11 1.424-.033 1.555.069 3.113.132 4.67.035.891.074 1.782.149 2.67.062.729.213 1.451.261 2.181l-.013 1.846c.198 2.696.592 5.364.323 8.102-.169 1.728.186 3.512.347 5.265.124 1.351.414 2.691.448 4.041.053 2.111-.034 4.226-.085 6.34-.037 1.532 1.165 2.618 2.681 2.582 1.532-.035 3.039-.417 4.593-.185 1.129.169 2.29.119 3.436.171 1.491.066 2.982.131 4.472.206 1.42.07 2.835-.133 4.267.123.948.17 2.073-.303 2.917.026 1.859.727 3.757.655 5.657.775.817.052 1.64.02 2.46.014.987-.01 1.975-.07 2.961-.042 1.454.041 2.908.218 4.358.191 1.299-.024 2.59-.307 3.89-.369 1.923-.091 3.851-.099 5.778-.119 1.037-.011 2.075.066 3.109.032 1.895-.063 3.789-.174 5.682-.283.171-.011.467-.132.481-.233.165-1.154 1.25-.882 1.787-.9 2.883-.096 5.773.014 8.661.03.947.005 1.896-.025 2.839-.1 1.403-.112 2.799-.336 4.203-.407 1.205-.06 2.417.062 3.626.043 1.53-.023 3.058-.105 4.586-.164 1.531-.059 3.061-.125 4.591-.178 1.14-.039 2.278-.065 3.419-.092 1.444-.036 2.927.127 4.322-.154 1.684-.341 3.344-.458 5.041-.405.953.03 1.91.053 2.863.028 1.007-.026 1.23-.279 1.311-1.304.132-1.663.311-3.322.522-4.977.063-.495.236-.986.235-1.477-.006-1.753-.033-3.507-.116-5.256-.063-1.326-.27-2.644-.327-3.97-.04-.964.055-1.934.094-2.903.017-.418.077-.837.058-1.253-.024-.524-.108-1.046-.172-1.567l-.087-.176-.797.262.051-.713c.088-.776.275-1.554.251-2.327-.025-.79-.227-1.579-.41-2.353-.046-.196-.34-.322-.486-.508-.146-.183-.3-.39-.351-.61-.039-.167.127-.374.116-.557-.162-2.437-.33-4.874-.535-7.308-.012-.146-.346-.365-.541-.377-.944-.063-1.895-.133-2.837-.077-1.435.084-2.863.34-4.299.39-1.597.056-3.205.022-4.801-.081-1.727-.113-3.439.3-5.198-.2-1.363-.388-2.872-.326-4.318-.347-2.086-.028-4.173.032-6.259.085-3.228.082-6.455.371-9.682-.023-.166-.02-.337-.009-.506-.004-.934.035-1.871.144-2.799.091-1.234-.071-2.457-.32-3.689-.398-2.22-.14-4.444-.218-6.667-.304-.677-.026-1.358.024-2.036.011-1.089-.022-2.176-.1-3.264-.094-.807.006-1.511.284-1.843 1.14-.291-.219-.518-.533-.767-.551-.619-.043-.664-.281-.48-.791.068-.188-.052-.445-.086-.672l-.268.056-.172 1.28c-.477-.129-1.137-.402-1.196-.307-.338.554-.687.254-1.081.173-.71-.145-1.429-.298-2.149-.318-1.28-.039-2.563.013-3.844.037-1.357.027-2.753-.399-4.056.367-.129.075-.417-.177-.613-.15-.388.055-.764.202-1.144.31-.353.16-.982-.042-1.117.135-.609.799-1.28.751-2.085.446-.214-.082-.494.005-.742.015-.777.029-1.668.316-2.309.034-1.456-.639-2.828-.258-4.24-.067-.189.025-.371.089-.557.136.422.17.816.233 1.207.218.741-.028 1.479-.132 2.218-.128.188.002.375.293.561.451-.185.126-.356.287-.56.365-.221.085-.473.092-.665.125l.128.661-9.937-.414-.747.741-.016-1.018z" fill="#000" sketch:type="MSShapeGroup"/><path d="M14.361 5.597l.016 1.018.747-.741 9.937.414-.128-.661c.192-.033.444-.04.665-.125.204-.078.375-.239.56-.365-.186-.158-.373-.449-.561-.451-.738-.004-1.477.101-2.218.128-.391.015-.785-.048-1.207-.218.186-.047.368-.111.557-.136 1.411-.191 2.783-.572 4.24.067.641.282 1.531-.005 2.309-.034.249-.01.528-.096.742-.015.805.305 1.476.353 2.085-.446.134-.177.764.025 1.117-.135.38-.108.756-.255 1.144-.31.196-.027.485.224.613.15 1.303-.766 2.699-.34 4.056-.367 1.282-.024 2.564-.076 3.844-.037.72.021 1.439.173 2.149.318.394.082.743.382 1.081-.173.059-.095.719.178 1.196.307l.172-1.28.268-.056c.034.227.155.484.086.672-.183.51-.139.747.48.791.248.017.476.332.767.551.332-.856 1.036-1.134 1.843-1.14 1.088-.006 2.175.072 3.264.094.678.013 1.359-.037 2.036-.011 2.222.086 4.447.164 6.667.304 1.232.078 2.455.327 3.689.398.928.054 1.865-.055 2.799-.091.169-.005.34-.016.506.004 3.227.394 6.454.105 9.682.023 2.086-.052 4.173-.113 6.259-.085 1.446.02 2.954-.041 4.318.347 1.76.5 3.471.087 5.198.2 1.596.103 3.204.137 4.801.081 1.435-.05 2.864-.306 4.299-.39.942-.056 1.893.013 2.837.077.195.012.528.232.541.377.205 2.434.373 4.871.535 7.308.011.183-.155.39-.116.557.051.219.205.426.351.61.146.186.44.312.486.508.184.774.385 1.563.41 2.353.024.773-.163 1.551-.251 2.327l-.051.713.797-.262.087.176c.064.521.148 1.043.172 1.567.019.416-.042.835-.058 1.253-.04.968-.135 1.939-.094 2.903.057 1.326.264 2.644.327 3.97.083 1.75.11 3.504.116 5.256.001.491-.172.982-.235 1.477-.211 1.655-.39 3.314-.522 4.977-.08 1.025-.304 1.278-1.311 1.304-.953.025-1.91.002-2.863-.028-1.697-.054-3.357.064-5.041.405-1.395.281-2.877.118-4.322.154-1.14.028-2.279.053-3.419.092-1.53.053-3.06.119-4.591.178-1.528.059-3.056.141-4.586.164-1.209.019-2.421-.103-3.626-.043-1.404.07-2.801.295-4.203.407-.944.076-1.893.106-2.839.1-2.888-.015-5.778-.126-8.661-.03-.537.018-1.622-.254-1.787.9-.014.101-.31.222-.481.233-1.893.109-3.786.22-5.682.283-1.034.034-2.072-.043-3.109-.032-1.926.02-3.855.028-5.778.119-1.3.062-2.591.345-3.89.369-1.451.027-2.904-.15-4.358-.191-.986-.028-1.974.032-2.961.042-.82.006-1.643.038-2.46-.014-1.9-.119-3.799-.048-5.657-.775-.844-.329-1.969.144-2.917-.026-1.432-.257-2.847-.053-4.267-.123-1.49-.075-2.981-.14-4.472-.206-1.146-.052-2.306-.003-3.436-.171-1.554-.233-3.061.15-4.593.185-1.516.036-2.718-1.05-2.681-2.582.05-2.114.138-4.229.085-6.34-.034-1.35-.324-2.691-.448-4.041-.161-1.754-.516-3.538-.347-5.265.269-2.739-.125-5.406-.323-8.102l.013-1.846c-.048-.73-.199-1.452-.261-2.181-.075-.888-.113-1.779-.149-2.67-.062-1.556-.164-3.114-.132-4.67.01-.469.035-.979.11-1.424.108-.633.687-1.122 1.417-1.068.879.066 1.762.409 2.621.343 1.305-.099 2.339.863 3.615.739.178-.017.511.053.534.144.252.975 1.071.814 1.845.916zm43.169 29.281l-.077-.069-.118-.971c-.037-.356-.14-.726-.081-1.065.15-.844.246-1.65.032-2.522-.145-.587.033-1.26.108-1.889.014-.114.247-.306.351-.289.876.14 1.821.156 2.603.516 2.124.978 3.518 2.695 4.39 4.857.377.934.772 1.866 1.249 2.75.331.615.992.876 1.631.63.599-.231.863-.746.68-1.484-.122-.483 0-1.027.01-1.452-.284-.301-.658-.587-.891-.96-.923-1.475-1.227-3.338-2.722-4.448-1.029-.764-2.11-1.46-3.178-2.171-.269-.181-.577-.302-.99-.514.601-.563 1.078-1.08 1.625-1.505.769-.598 1.315-1.328 1.586-2.259.155-.53.349-1.06.412-1.604.119-1.007.613-1.946.209-3.054-.341-.936-.652-1.741-1.406-2.495-.721-.721-1.467-1.139-2.383-1.272-1.429-.207-2.74.116-3.89 1.075-.55.46-1.22.775-2.041 1.283.341 2.549.787 5.393.283 8.236-.499 2.812.315 5.712-.494 8.482.114.4.27.885.1 1.188-.413.736-.215 1.447.153 1.977.404.582 1.036 1.092 1.901.97.359-.05.725-.063 1.319-.111l-.371-1.829zm-34.804-1.158l-1.783-1.439-.19-.162c-1.47-.925-2.946-1.842-4.406-2.781-.132-.083-.232-.303-.236-.461 0-.077.248-.186.399-.232.156-.047.332-.063.495-.046 3.033.311 6.035-.02 9.049-.327.661-.069 1.648-.433 2.154.561.019.038.303-.034.447-.094l.816-.374c.839-.327 1.214-1.45.553-2.041-.484-.432-1.208-.79-1.842-.819-1.179-.053-2.376.119-3.556.27-2.622.336-5.249.359-7.882.222-.134-.007-.257-.22-.359-.313 1.348-1.053 2.656-2.03 3.914-3.071.93-.77 1.828-1.583 3.015-1.92 1.203-.343 1.364-.627.858-1.79-.571.705-.62.716-1.85.444-.233-.9.733-.541 1.007-.974-.092-.082-.214-.256-.278-.237-1.027.313-2.241.417-3.006 1.056-.606.508-1.26.809-1.887 1.217-1.312.852-2.636 1.709-3.825 2.718-.549.466-1.568.907-1.043 2.041.049.106-.209.367-.344.541-.697.887-1.407 1.766-2.1 2.657-.355.456-.121 1.105.402 1.387.837.452 1.795.526 2.618 1.132 1.568 1.152 3.295 2.088 4.946 3.13l.443.497c.434.262.905.461 1.351.703.534.29 1.047.81 1.59.837.479.024.997-.475 1.455-.802.042-.03-.177-.545-.371-.739-.123-.124-.422-.069-.724-.105l.17-.685zm28.716-13.31c-.081-.443-.205-.854-.223-1.271-.049-1.142-.337-2.21-1.03-3.118-.234-.305-.745-.393-.995-.692-.707-.848-1.658-1.265-2.629-1.671-.249-.104-.483-.292-.738-.324-.877-.107-1.904-.481-2.611-.163-1.098.492-2.164 1.267-2.538 2.639-.107.396-.615.607-.402 1.219.368 1.057.314 2.151-.013 3.244-.141.471-.108 1.001-.118 1.505-.008.441.073.885.049 1.325-.075 1.334-.224 2.665-.259 4-.025.941.21 1.898.118 2.827-.199 2.032-.534 4.052-.82 6.126.058.021.198.042.301.118.39.283.703.63 1.287.268.402-.25.943-.269 1.409-.428.086-.029.141-.232.161-.361.122-.794.256-1.587.336-2.385.067-.647.327-1.474.038-1.916-.609-.934-.144-1.808-.202-2.698-.008-.133.116-.343.237-.405.753-.387 1.517-.754 2.289-1.103.451-.203 1.044-.238 1.366-.559 1.333-1.326 2.587-2.734 3.871-4.11l.107-.129c.357-.679.711-1.36 1.011-1.938zm18.297-3.216c.244.425.563.72.548.998-.083 1.61.1 3.176.324 4.774.223 1.592-.018 3.255-.12 4.883-.065 1.029-.317 2.048-.35 3.077-.023.711.338 1.452.236 2.138-.086.586.068.985.361 1.377.531.713 1.059 1.5 2.136 1.299.487-.089.948-.301 1.432-.408.801-.178 1.752-.662 2.385-.399 1.331.551 2.409.153 3.569-.292.253-.097.573-.247.792-.169.941.33 1.205-.398 1.558-.95.361-.563-.002-1.065-.351-1.425-.233-.241-.622-.315-1.045.049-.475.408-1.146.588-1.712.86l-.488-.453-5.158.46c-.112-.324-.148-.519-.24-.681-.481-.857-.58-1.695-.221-2.665.159-.433-.127-1.033-.243-1.751l2.197-.505-.047.204c.376.103.763.322 1.123.285.878-.092 1.343-.762 1.34-1.746-.005-1.26-.736-1.815-1.9-1.43-.94.31-1.874.642-2.895.994l-.055-.693c-.025-1.51.057-3.032-.105-4.526-.102-.944.168-1.604.952-1.876 1.119-.387 2.309-.566 3.469-.834l-.092.327c.328.208.682.609.982.573.377-.043.894-.376 1.024-.711.167-.437.038-1-.006-1.504-.069-.792-.978-1.416-1.703-1.233-1.585.404-3.177.785-4.771 1.178-.214-.651-.977-.987-1.551-.55-.542.412-.991.947-1.374 1.325zm31.205-1.364c-1.24-.81-2.834-.346-2.643 1.08.037.277-.106.597-.227.872-.504 1.125-1.011 2.251-1.555 3.357-1.146 2.328-2.309 4.646-3.475 6.964-.364.724-.755 1.434-1.229 2.331-.149-.482-.281-.761-.316-1.052-.166-1.346-.166-2.731-.482-4.04-.644-2.664-1.462-5.284-2.187-7.928-.108-.397-.102-.824-.148-1.227-.973-1.207-2.005-1.048-3.052.304.299.553.708 1.249 1.057 1.974.31.647.637 1.303.81 1.992.239.955.337 1.946.505 2.919.276 1.604.582 3.204.833 4.812.22 1.411.45 2.827.541 4.25.043.676.04 1.282.414 1.901.626 1.035 1.95 1.107 2.619.053.269-.423.377-1.054.748-1.285 1.093-.683 1.575-1.823 2.075-2.838.841-1.707 1.308-3.589 2.344-5.229.982-1.557 1.889-3.162 2.806-4.759.27-.47.474-.979.693-1.478.317-.723-.391-.896-.741-1.283l.502-.529c-.428-.419-.723-.846.108-1.162z" fill="#fff" sketch:type="MSShapeGroup"/><path d="M57.529 34.878l.371 1.829c-.594.048-.96.06-1.319.111-.865.123-1.497-.388-1.901-.97-.368-.53-.566-1.241-.153-1.977.17-.303.014-.788-.1-1.188.81-2.77-.005-5.67.494-8.482.504-2.843.059-5.687-.283-8.236.821-.508 1.491-.823 2.041-1.283 1.15-.959 2.462-1.281 3.89-1.075.916.132 1.662.551 2.383 1.272.754.754 1.064 1.56 1.406 2.495.404 1.108-.09 2.047-.209 3.054-.062.544-.257 1.074-.412 1.604-.271.931-.817 1.661-1.586 2.259-.547.425-1.024.942-1.625 1.505.413.212.721.333.99.514 1.067.711 2.148 1.407 3.178 2.171 1.494 1.11 1.799 2.973 2.722 4.448.233.373.607.659.891.96-.01.425-.132.969-.01 1.452.184.738-.081 1.254-.68 1.484-.64.246-1.3-.015-1.631-.63-.477-.884-.872-1.816-1.249-2.75-.872-2.163-2.265-3.879-4.39-4.857-.783-.36-1.727-.377-2.603-.516-.104-.017-.337.175-.351.289-.075.629-.253 1.303-.108 1.889.214.873.118 1.678-.032 2.522-.059.339.044.709.081 1.065l.118.971.077.069zm-.124-18.181c.083.998.234 1.896.217 2.793-.033 1.622-.159 3.242-.257 4.861-.042.676.306.788.772.467.807-.558 1.673-1.094 2.318-1.815 1.296-1.453 1.908-3.151 1.535-5.172-.276-1.499-2.739-2.825-3.986-1.425-.148.166-.429.213-.599.292z" fill="#000" sketch:type="MSShapeGroup"/><path fill="#fff" sketch:type="MSShapeGroup" d="M8.98 15.987l24.95 1.75-1.4 19.96-24.95-1.75z"/><path d="M19.007 33.72l-.17.685c.302.035.601-.019.724.105.193.194.412.709.371.739-.458.327-.977.826-1.455.802-.542-.027-1.056-.547-1.59-.837-.447-.241-.917-.441-1.351-.703l-.443-.497c-1.651-1.042-3.378-1.978-4.946-3.13-.824-.606-1.781-.68-2.618-1.132-.523-.282-.757-.931-.402-1.387.693-.891 1.403-1.77 2.1-2.657.136-.174.393-.435.344-.541-.524-1.134.495-1.576 1.043-2.041 1.189-1.009 2.514-1.866 3.825-2.718.627-.408 1.282-.708 1.887-1.217.765-.639 1.979-.743 3.006-1.056.064-.02.186.155.278.237-.274.434-1.24.075-1.007.974 1.23.272 1.279.262 1.85-.444.505 1.163.345 1.447-.858 1.79-1.187.337-2.085 1.15-3.015 1.92-1.258 1.041-2.566 2.018-3.914 3.071.103.094.225.307.359.313 2.633.136 5.26.113 7.882-.222 1.18-.152 2.377-.323 3.556-.27.634.029 1.358.388 1.842.819.662.592.287 1.714-.553 2.041l-.816.374c-.145.059-.429.132-.447.094-.506-.994-1.492-.63-2.154-.561-3.014.307-6.016.637-9.049.327-.163-.017-.339-.001-.495.046-.151.046-.399.155-.399.232.003.158.104.378.236.461 1.461.939 2.936 1.856 4.406 2.781l.19.162 1.783 1.439" fill="#000" sketch:type="MSShapeGroup"/><path d="M51.441 20.411c-.3.578-.654 1.259-1.011 1.938l-.107.129c-1.283 1.377-2.537 2.784-3.871 4.11-.322.321-.915.356-1.366.559-.772.349-1.536.716-2.289 1.103-.121.063-.245.273-.237.405.058.89-.407 1.763.202 2.698.289.442.029 1.269-.038 1.916-.08.798-.214 1.591-.336 2.385-.02.129-.076.331-.161.361-.466.159-1.008.178-1.409.428-.584.362-.897.015-1.287-.268-.102-.075-.243-.097-.301-.118.286-2.074.62-4.094.82-6.126.092-.929-.143-1.886-.118-2.827.036-1.335.184-2.667.259-4 .024-.44-.057-.884-.049-1.325.01-.505-.022-1.034.118-1.505.328-1.093.382-2.187.013-3.244-.214-.611.294-.823.402-1.219.374-1.372 1.441-2.147 2.538-2.639.707-.318 1.734.056 2.611.163.256.032.489.22.738.324.971.406 1.921.823 2.629 1.671.25.299.761.387.995.692.693.908.981 1.976 1.03 3.118.018.417.142.828.223 1.271zm-9.16 5.611c1.152-.464 2.441-.381 3.255-1.454.233-.305.473-.604.722-.896.684-.804 1.572-1.507 2.02-2.427.687-1.406.235-3.654-1.237-4.51-.327-.19-.643-.419-.992-.548-.714-.263-1.44-.503-2.178-.674-.16-.037-.523.218-.577.401-.255.884-.99 1.708-.397 2.728.071.121-.008.333-.024.502-.152 1.661-.31 3.322-.457 4.983-.053.59-.084 1.181-.134 1.895z" fill="#000" sketch:type="MSShapeGroup"/><path d="M69.738 17.194c.384-.378.832-.913 1.374-1.325.574-.437 1.337-.101 1.551.55 1.594-.392 3.186-.773 4.771-1.178.725-.183 1.633.441 1.703 1.233.044.504.173 1.067.006 1.504-.13.335-.646.667-1.024.711-.3.036-.653-.365-.982-.573l.092-.327c-1.16.268-2.351.447-3.469.834-.785.272-1.055.931-.952 1.876.162 1.494.08 3.016.105 4.526l.055.693c1.021-.352 1.955-.684 2.895-.994 1.164-.386 1.895.17 1.9 1.43.003.984-.462 1.655-1.34 1.746-.36.037-.747-.182-1.123-.285l.047-.204-2.197.505c.115.718.402 1.318.243 1.751-.359.97-.26 1.808.221 2.665.092.163.128.357.24.681l5.158-.46.488.453c.566-.271 1.237-.451 1.712-.86.424-.364.813-.289 1.045-.049.349.36.712.862.351 1.425-.353.552-.617 1.28-1.558.95-.219-.078-.538.072-.792.169-1.16.445-2.238.843-3.569.292-.634-.263-1.585.221-2.385.399-.484.107-.945.319-1.432.408-1.077.201-1.605-.585-2.136-1.299-.293-.393-.448-.791-.361-1.377.102-.686-.259-1.427-.236-2.138.034-1.029.285-2.047.35-3.077.101-1.629.343-3.292.12-4.883-.224-1.598-.407-3.164-.324-4.774.015-.279-.304-.574-.548-.998" fill="#000" sketch:type="MSShapeGroup"/><path d="M100.943 15.83c-.832.317-.537.743-.108 1.162l-.502.529c.35.387 1.058.56.741 1.283-.219.499-.424 1.008-.693 1.478-.917 1.597-1.824 3.202-2.806 4.759-1.036 1.64-1.503 3.521-2.344 5.229-.499 1.014-.982 2.155-2.075 2.838-.371.231-.479.862-.748 1.285-.669 1.054-1.993.982-2.619-.053-.373-.618-.371-1.224-.414-1.901-.092-1.422-.321-2.838-.541-4.25-.252-1.608-.557-3.208-.833-4.812-.168-.973-.266-1.964-.505-2.919-.173-.689-.5-1.346-.81-1.992-.349-.725-.758-1.421-1.057-1.974 1.047-1.352 2.079-1.511 3.052-.304.045.404.04.831.148 1.227.725 2.644 1.543 5.264 2.187 7.928.316 1.309.316 2.693.482 4.04.035.291.167.57.316 1.052.474-.897.865-1.606 1.229-2.331 1.166-2.318 2.33-4.636 3.475-6.964.544-1.106 1.051-2.232 1.555-3.357.121-.274.264-.595.227-.872-.191-1.426 1.403-1.89 2.643-1.08" fill="#000" sketch:type="MSShapeGroup"/><path d="M57.406 16.697c.17-.079.451-.126.599-.292 1.246-1.399 3.709-.074 3.986 1.425.373 2.021-.24 3.719-1.535 5.172-.645.722-1.51 1.257-2.318 1.815-.466.321-.814.208-.772-.467.098-1.619.224-3.239.257-4.861.017-.896-.134-1.794-.217-2.793" fill="#fff" sketch:type="MSShapeGroup"/><path d="M42.281 26.022c.05-.714.082-1.305.134-1.895.148-1.661.305-3.323.457-4.983.016-.169.095-.381.024-.502-.593-1.02.142-1.844.397-2.728.054-.184.416-.438.577-.401.738.171 1.464.411 2.178.674.35.13.665.358.992.548 1.472.856 1.924 3.104 1.237 4.51-.449.92-1.336 1.623-2.02 2.427-.249.292-.489.592-.722.896-.814 1.073-2.102.99-3.255 1.454" fill="#fff" sketch:type="MSShapeGroup"/></g></svg>