<?xml version="1.0" encoding="UTF-8" standalone="no"?>
<svg width="173px" height="132px" viewBox="0 0 173 132" version="1.1" xmlns="http://www.w3.org/2000/svg" xmlns:xlink="http://www.w3.org/1999/xlink" xmlns:sketch="http://www.bohemiancoding.com/sketch/ns">
    <!-- Generator: Sketch 3.1.1 (8761) - http://www.bohemiancoding.com/sketch -->
    <title>be-careful</title>
    <desc>Created with Sketch.</desc>
    <defs></defs>
    <g id="Page-1" stroke="none" stroke-width="1" fill="none" fill-rule="evenodd" sketch:type="MSPage">
        <path d="M152.862488,89.9004298 C153.362488,90.1004298 153.762488,90.1004298 154.062488,90.4004298 C154.362488,90.7004298 154.262488,91.1004298 154.162488,91.5004298 L153.862488,92.5004298 C153.162488,94.7004298 150.862488,95.6004298 148.662488,94.7004298 C147.062488,93.4004298 145.762488,91.8004298 145.662488,89.7004298 C145.662488,88.9004298 145.962488,88.0004298 146.162488,87.2004298 C146.262488,86.8004298 146.462488,86.4004298 146.662488,86.1004298 C148.062488,84.5004298 149.862488,83.4004298 152.062488,83.5004298 C153.262488,83.5004298 154.462488,83.8004298 155.662488,84.2004298 C157.962488,85.0004298 159.662488,86.5004298 160.662488,88.7004298 C161.062488,89.6004298 161.462488,90.6004298 161.762488,91.6004298 C162.362488,93.3004298 162.162488,95.0004298 162.062488,96.7004298 C161.962488,98.2004298 161.662488,99.7004298 160.962488,101.00043 C160.062488,102.80043 159.062488,104.50043 157.162488,105.60043 C156.562488,106.00043 155.962488,106.40043 155.262488,106.80043 C154.962488,107.00043 154.662488,107.10043 154.362488,107.20043 C152.062488,108.00043 149.662488,108.10043 147.262488,107.40043 C145.962488,107.00043 144.762488,106.60043 143.762488,105.60043 C143.162488,105.00043 142.662488,104.30043 142.162488,103.60043 C140.662488,101.30043 139.362488,99.0004298 138.262488,96.5004298 C137.462488,94.5004298 136.562488,92.6004298 135.662488,90.7004298 L134.562488,87.4004298 L133.962488,85.7004298 C133.762488,86.8004298 133.662488,87.4004298 133.562488,88.1004298 C133.362488,90.0004298 133.262488,91.9004298 133.162488,93.8004298 L132.762488,97.2004298 C132.662488,97.7004298 132.662488,98.1004298 132.662488,98.6004298 C132.862488,101.20043 132.362488,103.80043 132.462488,106.40043 C132.462488,107.30043 132.562488,108.10043 132.562488,109.10043 C132.462488,109.20043 132.162488,109.40043 131.962488,109.40043 C131.162488,109.30043 130.362488,109.20043 129.562488,109.40043 C129.162488,109.50043 128.862488,109.10043 128.862488,108.60043 C128.862488,107.70043 128.962488,106.90043 129.062488,106.00043 C129.162488,105.10043 129.262488,104.20043 129.262488,103.30043 L129.562488,98.7004298 C129.662488,97.4004298 129.762488,96.2004298 129.762488,94.9004298 C129.762488,92.9004298 130.062488,91.0004298 130.462488,89.1004298 C130.562488,88.8004298 130.662488,88.5004298 130.662488,88.3004298 C130.762488,86.0004298 130.962488,83.7004298 130.862488,81.4004298 C130.762488,80.1004298 130.962488,78.8004298 131.062488,77.5004298 C131.362488,75.0004298 131.762488,72.6004298 131.762488,70.1004298 C131.762488,69.4004298 132.062488,68.6004298 132.162488,67.9004298 C132.262488,67.5004298 132.562488,67.3004298 132.962488,67.3004298 C136.562488,67.3004298 139.562488,68.6004298 141.462488,71.7004298 C142.162488,72.8004298 142.662488,74.2004298 142.462488,75.6004298 C142.362488,76.5004298 142.362488,77.3004298 142.362488,78.2004298 C142.262488,80.3004298 141.162488,81.9004298 139.462488,83.1004298 C138.662488,83.7004298 137.862488,84.2004298 136.962488,84.7004298 L136.362488,85.1004298 C136.362488,85.9004298 136.662488,86.5004298 136.962488,87.1004298 C137.962488,89.5004298 138.962488,91.9004298 139.862488,94.3004298 C140.562488,96.1004298 141.362488,97.8004298 142.162488,99.5004298 C143.362488,101.80043 145.162488,103.40043 147.562488,104.40043 C148.162488,104.60043 148.762488,104.80043 149.462488,104.70043 C150.562488,104.70043 151.662488,104.70043 152.762488,104.40043 C154.862488,103.90043 156.362488,102.60043 157.262488,100.70043 C157.862488,99.4004298 158.462488,98.1004298 158.362488,96.6004298 C158.362488,96.3004298 158.362488,96.0004298 158.462488,95.7004298 C159.062488,93.0004298 157.962488,90.7004298 156.662488,88.5004298 C155.662488,86.9004298 154.062488,86.2004298 152.162488,86.1004298 C150.762488,86.0004298 148.662488,87.4004298 148.162488,88.7004298 C148.062488,88.9004298 148.062488,89.0004298 148.062488,89.2004298 C148.162488,90.1004298 148.262488,90.9004298 148.462488,91.7004298 C148.762488,93.0004298 149.962488,93.5004298 151.162488,93.0004298 C151.562488,92.8004298 151.862488,92.6004298 151.962488,92.2004298 C152.462488,91.4004298 152.562488,90.8004298 152.862488,89.9004298 L152.862488,89.9004298 Z M135.362488,70.8004298 L134.562488,77.6004298 C134.462488,78.9004298 134.462488,80.2004298 134.362488,81.6004298 C134.362488,81.8004298 134.462488,82.0004298 134.462488,82.3004298 C135.562488,82.0004298 136.262488,81.3004298 137.062488,80.8004298 C137.862488,80.4004298 138.362488,79.7004298 138.662488,78.8004298 C138.962488,77.9004298 139.362488,77.1004298 139.462488,76.2004298 C139.562488,75.4004298 139.562488,74.6004298 139.462488,73.8004298 C139.262488,72.8004298 138.462488,72.1004298 137.762488,71.5004298 C137.062488,71.1004298 136.362488,70.7004298 135.362488,70.8004298 L135.362488,70.8004298 Z M31.6624878,118.10043 C31.8624878,116.40043 31.1624878,115.00043 30.9624878,113.40043 C30.9624878,113.30043 30.9624878,113.30043 30.8624878,113.20043 C30.6624878,112.50043 30.6624878,111.70043 30.3624878,111.10043 C30.0624878,110.50043 29.4624878,110.10043 28.9624878,109.60043 C26.9624878,107.70043 25.2624878,105.60043 23.1624878,103.90043 C22.5624878,103.40043 22.4624878,102.90043 23.0624878,102.30043 C23.5624878,101.90043 23.9624878,101.50043 24.5624878,101.00043 C25.4624878,102.10043 26.3624878,103.20043 27.2624878,104.20043 C28.1624878,105.20043 28.9624878,106.30043 30.0624878,107.40043 C30.5624878,106.40043 30.0624878,105.70043 30.0624878,104.90043 C30.1624878,104.10043 30.0624878,103.20043 29.9624878,102.30043 L29.9624878,97.5004298 L31.6624878,96.1004298 C31.9624878,95.9004298 32.4624878,96.0004298 32.5624878,96.3004298 C32.8624878,96.9004298 33.1624878,97.6004298 33.0624878,98.3004298 C32.8624878,103.40043 33.3624878,108.60043 33.6624878,113.70043 C33.6624878,114.70043 33.9624878,115.60043 34.1624878,116.70043 L35.0624878,116.70043 L38.2624878,116.00043 C38.9624878,115.80043 39.6624878,115.70043 40.2624878,115.50043 C42.4624878,114.70043 44.7624878,114.30043 47.1624878,113.90043 L50.7624878,113.30043 C54.2624878,112.70043 57.7624878,112.20043 61.3624878,111.60043 C63.3624878,111.30043 65.3624878,111.10043 67.3624878,110.90043 L69.5624878,110.60043 C73.6624878,110.20043 77.6624878,109.80043 81.7624878,109.70043 L87.1624878,109.70043 C88.6624878,109.70043 90.1624878,109.60043 91.6624878,109.50043 L93.8624878,109.60043 C94.4624878,109.60043 95.0624878,109.70043 95.5624878,109.70043 C97.4624878,109.60043 99.3624878,109.90043 101.162488,110.30043 C102.262488,110.60043 103.462488,110.70043 104.562488,110.80043 C105.762488,110.90043 106.762488,111.30043 107.862488,111.60043 C108.662488,111.90043 109.262488,112.60043 109.862488,113.50043 L108.962488,113.40043 L104.862488,112.10043 C104.462488,112.00043 104.062488,111.90043 103.662488,111.90043 C102.662488,111.80043 101.562488,111.60043 100.562488,111.60043 L96.0624878,111.40043 C94.7624878,111.30043 93.4624878,111.30043 92.0624878,111.20043 C90.5624878,111.10043 89.0624878,110.90043 87.5624878,111.40043 C87.3624878,111.50043 87.0624878,111.50043 86.8624878,111.40043 C84.7624878,111.30043 82.7624878,111.50043 80.6624878,111.80043 C78.4624878,112.10043 76.2624878,112.20043 74.1624878,112.50043 C70.7624878,112.90043 67.3624878,113.20043 64.0624878,113.80043 C62.2624878,114.10043 60.4624878,114.20043 58.7624878,114.50043 C55.6624878,115.10043 52.6624878,115.50043 49.5624878,115.90043 C49.3624878,115.90043 49.2624878,115.90043 49.0624878,116.00043 C44.1624878,117.00043 39.3624878,118.20043 34.7624878,119.90043 C34.6624878,119.90043 34.6624878,120.00043 34.6624878,120.00043 C34.3624878,120.40043 34.3624878,120.90043 34.4624878,121.30043 C34.5624878,122.60043 34.5624878,123.90043 34.2624878,125.30043 C34.1624878,126.00043 34.1624878,126.70043 34.1624878,127.40043 C34.1624878,129.10043 33.2624878,130.20043 31.7624878,131.10043 C30.3624878,131.90043 29.1624878,131.30043 27.8624878,131.00043 C27.6624878,131.00043 27.5624878,130.80043 27.4624878,130.70043 C26.6624878,129.70043 26.1624878,128.50043 25.8624878,127.30043 C25.6624878,126.50043 25.9624878,125.60043 26.1624878,124.80043 C26.5624878,122.90043 27.6624878,121.40043 29.2624878,120.20043 C29.8624878,119.40043 30.6624878,118.80043 31.6624878,118.10043 L31.6624878,118.10043 Z M31.4624878,122.00043 C30.4624878,123.10043 29.5624878,124.00043 28.9624878,125.20043 C28.3624878,126.20043 28.6624878,127.20043 29.2624878,128.10043 C29.6624878,128.70043 30.5624878,128.80043 30.9624878,128.10043 C31.2624878,127.70043 31.5624878,127.20043 31.5624878,126.70043 C31.6624878,125.50043 31.6624878,124.20043 31.6624878,122.90043 C31.6624878,122.70043 31.5624878,122.40043 31.4624878,122.00043 L31.4624878,122.00043 Z M28.2624878,71.5004298 L29.6624878,71.9004298 C31.1624878,72.1004298 32.3624878,73.0004298 33.4624878,73.8004298 C34.9624878,75.0004298 35.9624878,76.5004298 36.1624878,78.4004298 L36.7624878,81.6004298 C36.9624878,82.8004298 36.8624878,83.9004298 36.4624878,85.0004298 C36.0624878,86.1004298 35.6624878,87.2004298 35.2624878,88.2004298 C35.1624878,88.5004298 34.9624878,88.7004298 34.8624878,88.9004298 C33.7624878,90.6004298 32.4624878,91.9004298 30.7624878,93.0004298 C28.4624878,94.5004298 25.8624878,95.2004298 23.2624878,95.9004298 L22.5624878,96.0004298 C21.8624878,95.2004298 21.8624878,94.2004298 21.8624878,93.3004298 C21.6624878,90.8004298 21.5624878,88.2004298 21.4624878,85.7004298 C21.3624878,83.7004298 21.3624878,81.8004298 21.1624878,79.8004298 C20.9624878,77.6004298 20.8624878,75.4004298 20.4624878,73.3004298 C20.1624878,71.2004298 20.2624878,69.2004298 20.1624878,67.1004298 C20.0624878,65.3004298 20.0624878,63.5004298 19.9624878,61.8004298 C19.8624878,61.0004298 19.6624878,60.3004298 19.4624878,59.4004298 C19.6624878,59.3004298 19.9624878,59.1004298 20.2624878,59.0004298 L23.2624878,58.3004298 C24.0624878,58.1004298 24.7624878,57.9004298 25.5624878,57.6004298 C25.9624878,57.5004298 26.3624878,57.4004298 26.6624878,57.2004298 C28.8624878,56.4004298 30.6624878,57.2004298 32.4624878,58.5004298 C32.9624878,59.5004298 33.7624878,60.5004298 34.0624878,61.5004298 C34.2624878,62.3004298 34.1624878,63.3004298 33.5624878,64.1004298 C32.8624878,65.2004298 32.2624878,66.3004298 31.6624878,67.4004298 C31.1624878,68.3004298 30.3624878,68.9004298 29.6624878,69.5004298 C29.0624878,70.3004298 28.4624878,70.7004298 28.2624878,71.5004298 L28.2624878,71.5004298 Z M24.5624878,93.1004298 C24.9624878,93.0004298 25.0624878,93.0004298 25.1624878,93.0004298 C27.5624878,92.4004298 29.5624878,91.4004298 30.8624878,89.1004298 C30.9624878,88.9004298 31.2624878,88.7004298 31.3624878,88.4004298 C32.2624878,87.1004298 33.0624878,85.8004298 33.1624878,84.2004298 C33.2624878,82.9004298 33.2624878,81.6004298 33.1624878,80.2004298 C33.0624878,78.4004298 32.2624878,77.0004298 30.7624878,76.1004298 L29.4624878,75.3004298 C27.5624878,74.2004298 25.6624878,74.2004298 23.6624878,75.2004298 L23.6624878,76.0004298 L23.9624878,82.7004298 C24.0624878,83.9004298 24.0624878,85.1004298 24.0624878,86.3004298 C24.1624878,87.9004298 24.1624878,89.5004298 24.3624878,91.1004298 C24.3624878,91.7004298 24.4624878,92.4004298 24.5624878,93.1004298 L24.5624878,93.1004298 Z M23.3624878,71.0004298 L23.7624878,71.0004298 L27.9624878,68.3004298 C28.2624878,68.1004298 28.4624878,67.8004298 28.6624878,67.5004298 C29.0624878,66.9004298 29.3624878,66.3004298 29.6624878,65.7004298 C30.2624878,64.8004298 30.3624878,63.7004298 30.1624878,62.7004298 C30.0624878,62.2004298 29.8624878,61.7004298 29.4624878,61.4004298 C28.6624878,60.7004298 27.6624878,60.2004298 26.4624878,60.3004298 C25.5624878,60.4004298 24.6624878,60.5004298 23.7624878,60.7004298 C23.3624878,60.8004298 23.0624878,61.0004298 22.8624878,61.1004298 C22.9624878,64.5004298 22.8624878,67.8004298 23.3624878,71.0004298 L23.3624878,71.0004298 Z M19.7624878,41.3004298 C18.9624878,41.8004298 18.3624878,42.2004298 17.7624878,42.5004298 L15.5624878,43.9004298 C13.3624878,45.2004298 10.8624878,45.8004298 8.26248781,45.8004298 C5.16248781,45.7004298 2.66248781,44.3004298 0.762487814,41.8004298 L0.562487814,41.5004298 C0.362487814,40.0004298 -0.237512186,38.5004298 0.662487814,37.0004298 C1.06248781,36.4004298 1.26248781,35.7004298 1.66248781,35.2004298 C3.36248781,33.3004298 5.46248781,32.1004298 8.06248781,32.3004298 C8.76248781,32.3004298 9.56248781,32.8004298 10.2624878,33.3004298 C10.8624878,33.7004298 11.5624878,34.1004298 11.8624878,34.8004298 C12.2624878,35.8004298 12.4624878,36.9004298 12.2624878,38.0004298 C12.0624878,39.0004298 11.2624878,39.6004298 10.4624878,40.2004298 C9.86248781,40.6004298 9.16248781,40.6004298 8.46248781,40.5004298 C7.66248781,40.3004298 7.36248781,39.6004298 7.06248781,39.0004298 C7.56248781,38.4004298 7.96248781,38.6004298 8.46248781,38.6004298 C9.86248781,38.6004298 10.7624878,37.7004298 10.5624878,36.3004298 C10.5624878,36.1004298 10.4624878,35.9004298 10.2624878,35.7004298 C9.56248781,34.9004298 8.66248781,34.7004298 7.56248781,34.9004298 C5.56248781,35.4004298 4.66248781,36.9004298 4.26248781,38.7004298 C4.16248781,39.0004298 4.16248781,39.4004298 4.16248781,39.7004298 C3.96248781,42.0004298 5.56248781,43.0004298 7.16248781,43.2004298 C8.46248781,43.4004298 9.86248781,43.3004298 11.0624878,42.7004298 C12.6624878,41.9004298 14.3624878,41.1004298 15.8624878,40.0004298 C17.8624878,38.7004298 19.6624878,37.2004298 21.5624878,35.8004298 L23.3624878,34.5004298 L28.9624878,30.2004298 C30.2624878,29.3004298 31.4624878,28.4004298 32.8624878,27.6004298 C34.2624878,26.7004298 35.6624878,25.8004298 37.1624878,25.0004298 L40.6624878,23.1004298 C43.9624878,21.0004298 47.6624878,19.7004298 51.3624878,18.4004298 C53.5624878,17.6004298 55.8624878,17.0004298 58.2624878,16.8004298 C59.4624878,16.7004298 60.4624878,16.9004298 61.1624878,18.0004298 C60.8624878,18.6004298 60.3624878,18.9004298 59.6624878,19.0004298 C57.8624878,19.3004298 56.1624878,19.6004298 54.4624878,20.1004298 C52.1624878,20.7004298 49.8624878,21.4004298 47.6624878,22.6004298 C46.2624878,23.3004298 44.8624878,24.0004298 43.5624878,24.7004298 C42.5624878,25.2004298 41.6624878,25.8004298 40.7624878,26.4004298 C40.2624878,26.7004298 39.8624878,27.1004298 39.3624878,27.3004298 C36.7624878,28.6004298 34.4624878,30.3004298 31.9624878,31.8004298 C28.7624878,33.7004298 26.1624878,36.3004298 23.3624878,38.7004298 C22.6624878,39.2004298 22.4624878,39.9004298 22.5624878,40.7004298 L23.1624878,50.2004298 C23.1624878,50.5004298 23.2624878,50.9004298 23.3624878,51.2004298 C23.3624878,51.7004298 23.4624878,52.1004298 23.3624878,52.6004298 C23.1624878,53.8004298 22.4624878,54.3004298 21.2624878,53.9004298 C21.0624878,53.8004298 20.7624878,53.5004298 20.6624878,53.3004298 C20.5624878,53.0004298 20.6624878,52.7004298 20.6624878,52.5004298 C20.7624878,48.6004298 20.3624878,45.1004298 19.7624878,41.3004298 L19.7624878,41.3004298 Z M129.562488,40.5004298 C128.962488,40.2004298 128.862488,39.7004298 128.862488,39.2004298 C128.862488,37.7004298 128.862488,36.2004298 128.962488,34.7004298 L129.162488,33.2004298 C129.362488,31.3004298 129.762488,29.3004298 129.562488,27.4004298 C129.562488,26.8004298 129.862488,26.3004298 129.762488,25.7004298 C129.662488,23.8004298 130.262488,22.0004298 130.162488,20.0004298 C130.062488,18.5004298 130.462488,16.9004298 130.662488,15.4004298 C130.962488,13.2004298 131.062488,11.1004298 131.462488,8.90042976 C131.762488,7.40042976 131.862488,5.80042976 131.862488,4.30042976 C131.862488,3.80042976 131.762488,3.30042976 131.862488,2.70042976 C131.862488,2.20042976 132.062488,1.80042976 132.762488,1.70042976 C132.962488,2.00042976 133.162488,2.20042976 133.262488,2.50042976 L134.462488,7.20042976 C135.262488,10.5004298 135.962488,13.8004298 136.862488,17.4004298 C137.162488,17.0004298 137.362488,16.8004298 137.462488,16.6004298 L138.562488,13.3004298 C138.762488,12.6004298 138.962488,12.0004298 139.262488,11.4004298 C139.962488,10.2004298 140.362488,9.00042976 140.762488,7.70042976 L142.262488,3.60042976 C142.562488,2.90042976 143.062488,2.50042976 143.762488,2.30042976 C144.162488,2.20042976 144.662488,2.40042976 144.962488,2.90042976 C145.262488,3.60042976 145.662488,4.20042976 145.562488,5.00042976 C145.362488,6.50042976 145.262488,8.10042976 145.162488,9.60042976 C145.062488,10.9004298 144.962488,12.2004298 144.762488,13.6004298 C144.562488,15.4004298 144.362488,17.1004298 144.462488,18.9004298 C144.462488,20.1004298 144.262488,21.3004298 144.162488,22.5004298 C143.962488,25.0004298 143.662488,27.5004298 143.462488,30.1004298 C143.362488,31.6004298 143.262488,33.1004298 143.062488,34.6004298 L142.362488,37.8004298 C141.162488,38.1004298 140.262488,37.7004298 139.362488,36.9004298 C139.862488,35.7004298 139.962488,34.5004298 140.162488,33.3004298 C140.562488,30.4004298 140.962488,27.5004298 141.162488,24.6004298 L141.162488,23.9004298 C141.762488,21.5004298 141.662488,19.0004298 142.362488,16.6004298 C142.862488,15.1004298 142.762488,13.4004298 142.962488,11.8004298 L142.762488,11.8004298 C142.662488,11.8004298 142.662488,11.8004298 142.662488,11.9004298 C140.762488,15.4004298 139.462488,19.3004298 137.762488,22.9004298 C137.062488,23.2004298 136.562488,22.8004298 136.562488,22.3004298 C136.462488,21.0004298 135.662488,20.1004298 135.462488,18.9004298 C135.262488,17.8004298 134.762488,16.8004298 134.462488,15.8004298 C134.462488,15.7004298 134.262488,15.6004298 134.162488,15.5004298 C134.062488,15.6004298 133.962488,15.7004298 133.962488,15.8004298 C133.962488,17.8004298 133.562488,19.7004298 133.562488,21.6004298 C133.562488,23.4004298 133.562488,25.3004298 133.162488,27.1004298 C133.062488,27.4004298 133.062488,27.8004298 133.062488,28.1004298 C133.062488,31.0004298 132.462488,33.9004298 132.562488,36.9004298 C132.562488,37.6004298 132.462488,38.4004298 132.362488,39.1004298 C132.362488,39.6004298 132.062488,40.0004298 131.562488,40.1004298 C130.662488,40.3004298 130.062488,40.4004298 129.562488,40.5004298 L129.562488,40.5004298 Z M102.862488,46.2004298 L101.462488,46.0004298 C100.962488,45.9004298 100.662488,45.4004298 100.762488,45.0004298 C100.862488,43.1004298 100.362488,41.2004298 100.062488,39.4004298 C99.4624878,35.7004298 98.6624878,32.1004298 98.2624878,28.3004298 C98.1624878,27.5004298 97.9624878,26.7004298 97.7624878,26.0004298 L97.1624878,26.0004298 L96.1624878,26.3004298 C95.8624878,27.5004298 95.7624878,28.6004298 96.0624878,29.7004298 C96.2624878,30.7004298 96.4624878,31.6004298 96.3624878,32.6004298 C96.3624878,33.0004298 96.3624878,33.4004298 96.4624878,33.8004298 C97.1624878,37.7004298 97.1624878,41.6004298 97.3624878,45.5004298 C97.0624878,45.7004298 96.8624878,46.1004298 96.5624878,46.2004298 C94.7624878,46.8004298 94.2624878,46.3004298 94.1624878,44.9004298 C94.0624878,44.2004298 94.1624878,43.5004298 94.1624878,42.8004298 C93.9624878,40.5004298 93.7624878,38.2004298 93.6624878,35.9004298 C93.5624878,34.1004298 93.5624878,32.3004298 93.4624878,30.6004298 C93.3624878,28.8004298 93.1624878,26.9004298 92.9624878,25.1004298 C92.7624878,23.2004298 92.5624878,21.2004298 92.5624878,19.3004298 C92.4624878,16.5004298 92.4624878,13.7004298 92.2624878,10.9004298 L92.2624878,9.20042976 C94.5624878,7.20042976 96.7624878,6.90042976 99.8624878,7.30042976 L100.162488,7.50042976 C102.362488,9.10042976 102.762488,11.5004298 103.062488,13.7004298 L103.262488,16.8004298 C103.662488,19.4004298 102.562488,21.4004298 100.962488,23.3004298 L100.362488,23.9004298 C99.8624878,24.4004298 99.7624878,24.9004298 99.8624878,25.6004298 L101.162488,33.4004298 L102.062488,37.8004298 L102.962488,42.2004298 C103.062488,42.7004298 103.062488,43.1004298 103.262488,43.5004298 C103.762488,44.4004298 103.562488,45.2004298 102.862488,46.2004298 L102.862488,46.2004298 Z M95.1624878,10.1004298 C95.0624878,10.8004298 94.9624878,11.3004298 95.0624878,11.9004298 C95.1624878,13.7004298 95.1624878,15.6004298 95.3624878,17.4004298 C95.4624878,18.4004298 95.6624878,19.4004298 95.6624878,20.5004298 C95.6624878,21.0004298 95.7624878,21.5004298 95.8624878,22.0004298 L95.8624878,23.5004298 C96.4624878,23.8004298 96.8624878,23.4004298 97.1624878,23.1004298 C98.0624878,22.2004298 98.9624878,21.2004298 99.8624878,20.2004298 C100.462488,19.4004298 100.962488,18.6004298 100.862488,17.5004298 C100.762488,16.8004298 100.862488,16.0004298 100.962488,15.3004298 C101.162488,13.7004298 100.562488,12.4004298 99.9624878,11.0004298 C99.7624878,10.5004298 99.3624878,10.2004298 98.9624878,10.1004298 C97.7624878,9.90042976 96.5624878,9.60042976 95.1624878,10.1004298 L95.1624878,10.1004298 Z M62.3624878,86.5004298 C62.7624878,88.7004298 63.0624878,90.9004298 63.5624878,93.1004298 C63.9624878,95.2004298 64.7624878,97.3004298 65.7624878,99.5004298 C65.9624878,99.1004298 66.1624878,98.8004298 66.2624878,98.6004298 C66.5624878,95.4004298 67.1624878,92.3004298 67.6624878,89.2004298 C67.6624878,88.9004298 67.7624878,88.6004298 67.8624878,88.4004298 C67.9624878,88.1004298 68.0624878,87.7004298 68.4624878,87.6004298 C68.9624878,87.5004298 69.2624878,87.8004298 69.4624878,88.1004298 C69.7624878,88.5004298 70.0624878,89.0004298 70.2624878,89.4004298 L73.3624878,97.8004298 C73.5624878,98.3004298 73.6624878,98.8004298 74.2624878,99.1004298 C74.6624878,96.3004298 74.6624878,93.5004298 74.8624878,90.7004298 C75.0624878,87.9004298 75.0624878,85.2004298 74.8624878,82.4004298 C75.6624878,81.7004298 76.5624878,81.7004298 77.4624878,81.8004298 C77.9624878,81.8004298 78.1624878,82.3004298 78.2624878,82.8004298 C78.4624878,83.7004298 78.1624878,84.6004298 78.0624878,85.5004298 L77.7624878,88.2004298 C77.4624878,89.8004298 77.6624878,91.4004298 77.5624878,93.0004298 C77.3624878,95.6004298 77.2624878,98.2004298 77.1624878,100.80043 C77.0624878,102.40043 77.0624878,103.90043 77.0624878,105.50043 L77.0624878,106.20043 C76.9624878,107.30043 76.5624878,107.80043 75.4624878,107.70043 C75.2624878,107.70043 74.9624878,107.70043 74.7624878,107.60043 C73.5624878,106.70043 73.3624878,105.30043 72.7624878,104.10043 C71.6624878,101.90043 71.1624878,99.4004298 70.2624878,97.1004298 C70.1624878,97.0004298 70.0624878,96.8004298 69.9624878,96.6004298 L69.6624878,97.0004298 C69.5624878,98.2004298 69.4624878,99.4004298 69.4624878,100.60043 L69.2624878,104.40043 C69.2624878,104.90043 69.0624878,105.50043 69.1624878,105.90043 C69.3624878,107.00043 68.7624878,107.90043 68.6624878,108.90043 C68.6624878,109.10043 68.4624878,109.30043 68.2624878,109.40043 C67.1624878,109.80043 66.3624878,109.40043 65.9624878,108.30043 L65.3624878,105.80043 C64.9624878,104.30043 64.4624878,102.80043 63.9624878,101.40043 L63.1624878,98.4004298 C62.7624878,97.2004298 62.2624878,95.9004298 61.7624878,94.7004298 C60.9624878,92.6004298 60.0624878,90.5004298 59.2624878,88.5004298 C58.9624878,87.8004298 59.1624878,87.3004298 59.8624878,87.0004298 C60.5624878,86.7004298 61.3624878,86.4004298 62.3624878,86.5004298 L62.3624878,86.5004298 Z M160.462488,28.8004298 C160.962488,28.6004298 161.462488,28.5004298 161.862488,28.2004298 C162.362488,27.9004298 162.462488,27.4004298 162.262488,26.8004298 C162.062488,26.3004298 161.562488,26.0004298 160.962488,26.2004298 C159.862488,26.6004298 159.062488,27.2004298 158.662488,28.3004298 C158.162488,29.6004298 158.262488,31.0004298 158.562488,32.2004298 C158.862488,33.5004298 159.862488,34.2004298 161.162488,34.5004298 C162.262488,34.8004298 163.262488,34.3004298 163.862488,33.3004298 C164.462488,32.4004298 165.162488,31.6004298 165.562488,30.5004298 C165.962488,29.5004298 166.062488,28.5004298 166.062488,27.5004298 C166.062488,26.7004298 165.862488,25.8004298 165.562488,25.0004298 C165.262488,24.1004298 164.862488,23.2004298 164.262488,22.4004298 C162.662488,20.3004298 160.962488,18.2004298 159.162488,16.3004298 C157.862488,14.9004298 156.862488,13.3004298 156.062488,11.5004298 C155.862488,11.1004298 155.762488,10.7004298 155.762488,10.3004298 C155.962488,8.10042976 156.162488,5.90042976 157.062488,3.90042976 C157.262488,3.40042976 157.562488,3.00042976 157.962488,2.70042976 C160.262488,1.00042976 162.762488,0.400429757 165.562488,1.50042976 C167.062488,2.10042976 167.862488,3.10042976 168.462488,4.50042976 L168.962488,6.30042976 C169.162488,7.10042976 169.262488,7.90042976 169.362488,8.80042976 C169.162488,9.10042976 168.962488,9.50042976 168.662488,10.0004298 C167.762488,9.80042976 166.762488,10.6004298 165.862488,9.70042976 C165.862488,9.40042976 165.862488,9.00042976 165.962488,8.60042976 C166.062488,8.10042976 166.162488,7.60042976 166.162488,7.10042976 C166.162488,5.50042976 164.962488,4.00042976 163.362488,3.50042976 C162.162488,3.20042976 160.762488,3.90042976 160.262488,5.10042976 C159.262488,7.60042976 158.862488,10.1004298 160.062488,12.6004298 C160.862488,14.3004298 161.962488,15.9004298 163.162488,17.4004298 C164.962488,19.6004298 166.462488,22.0004298 167.562488,24.6004298 C168.162488,26.1004298 168.562488,27.7004298 168.562488,29.3004298 C168.562488,32.8004298 166.762488,35.3004298 163.762488,36.9004298 C163.562488,37.0004298 163.262488,37.1004298 162.962488,37.2004298 C161.462488,37.9004298 160.162488,37.9004298 158.762488,36.9004298 C158.362488,36.6004298 158.062488,36.2004298 157.762488,35.8004298 C156.962488,34.4004298 156.562488,32.8004298 156.462488,31.2004298 C156.362488,29.5004298 156.462488,27.9004298 157.262488,26.3004298 C157.662488,25.5004298 157.862488,24.7004298 158.162488,23.9004298 C158.562488,23.8004298 158.962488,23.7004298 159.262488,23.5004298 C159.962488,23.1004298 160.662488,23.2004298 161.262488,23.4004298 C162.062488,23.7004298 162.762488,24.2004298 163.562488,24.7004298 C164.062488,25.0004298 164.362488,25.5004298 164.362488,26.2004298 C164.362488,26.5004298 164.362488,26.8004298 164.462488,27.1004298 C164.662488,28.9004298 163.862488,30.1004298 162.362488,30.9004298 C161.462488,31.4004298 160.562488,30.9004298 160.462488,29.9004298 C160.262488,29.5004298 160.462488,29.2004298 160.462488,28.8004298 L160.462488,28.8004298 Z M91.7624878,46.1004298 C90.7624878,46.6004298 90.0624878,46.8004298 89.3624878,45.8004298 C89.8624878,43.9004298 89.4624878,41.9004298 89.2624878,39.9004298 C89.0624878,37.9004298 88.9624878,35.9004298 88.1624878,34.0004298 C87.0624878,33.9004298 86.1624878,34.2004298 85.1624878,34.3004298 C84.7624878,35.1004298 85.0624878,36.0004298 85.2624878,36.7004298 C85.6624878,37.9004298 85.8624878,39.0004298 86.0624878,40.2004298 C86.3624878,42.0004298 86.5624878,43.8004298 86.7624878,45.7004298 C86.8624878,46.6004298 86.6624878,46.9004298 85.8624878,47.1004298 C85.3624878,47.3004298 84.8624878,47.5004298 84.3624878,47.2004298 L83.4624878,40.4004298 C83.2624878,39.1004298 83.0624878,37.8004298 82.7624878,36.5004298 C81.8624878,33.1004298 80.9624878,29.6004298 80.2624878,26.1004298 C79.7624878,23.4004298 79.1624878,20.8004298 78.5624878,18.2004298 C78.3624878,17.3004298 78.3624878,16.4004298 78.2624878,15.4004298 C78.6624878,15.3004298 78.8624878,15.2004298 79.1624878,15.1004298 C79.4624878,15.0004298 79.6624878,14.9004298 80.0624878,14.8004298 C80.5624878,15.4004298 80.9624878,16.1004298 81.1624878,16.8004298 C81.7624878,19.0004298 82.2624878,21.2004298 82.5624878,23.5004298 C82.8624878,25.8004298 83.2624878,28.0004298 83.9624878,30.2004298 C84.1624878,30.7004298 84.2624878,31.2004298 84.3624878,31.7004298 L87.8624878,31.5004298 C88.2624878,30.7004298 87.9624878,30.1004298 87.9624878,29.4004298 C87.7624878,27.0004298 87.6624878,24.7004298 87.3624878,22.3004298 C87.2624878,20.8004298 87.0624878,19.3004298 86.8624878,17.8004298 L86.2624878,12.3004298 C86.2624878,11.9004298 86.3624878,11.4004298 86.4624878,11.0004298 C87.4624878,10.5004298 88.3624878,10.8004298 89.1624878,11.1004298 C89.6624878,11.3004298 90.0624878,11.8004298 90.0624878,12.5004298 C90.0624878,13.3004298 90.0624878,14.1004298 90.1624878,14.9004298 C90.3624878,17.9004298 90.5624878,20.9004298 90.6624878,23.8004298 L90.9624878,32.8004298 L91.1624878,35.7004298 C91.3624878,38.2004298 91.6624878,40.7004298 91.8624878,43.3004298 C91.8624878,44.4004298 91.9624878,45.2004298 91.7624878,46.1004298 L91.7624878,46.1004298 Z M113.262488,13.6004298 C113.162488,12.8004298 113.062488,12.1004298 112.862488,11.5004298 C112.562488,10.2004298 113.262488,9.40042976 114.162488,8.70042976 C114.462488,8.50042976 114.762488,8.40042976 115.162488,8.60042976 C115.462488,8.80042976 115.562488,9.10042976 115.562488,9.50042976 L115.462488,9.80042976 C114.962488,11.5004298 115.162488,12.1004298 116.962488,13.2004298 C118.762488,11.9004298 118.962488,10.1004298 118.562488,8.10042976 L117.762488,5.70042976 C116.962488,5.40042976 116.262488,5.00042976 115.362488,5.20042976 C114.262488,5.50042976 113.362488,6.00042976 112.762488,6.80042976 C112.262488,7.40042976 112.062488,8.20042976 111.862488,9.00042976 C111.362488,11.2004298 111.462488,13.3004298 112.262488,15.5004298 C112.362488,15.7004298 112.462488,15.9004298 112.462488,16.1004298 C112.562488,18.0004298 113.462488,19.5004298 114.162488,21.1004298 L115.662488,24.6004298 C116.162488,25.7004298 116.762488,26.9004298 117.362488,28.0004298 C118.162488,29.5004298 118.362488,31.1004298 118.462488,32.7004298 C118.562488,33.6004298 118.562488,34.4004298 118.562488,35.3004298 C118.562488,36.1004298 118.662488,36.9004298 118.562488,37.7004298 C118.562488,39.2004298 118.162488,40.5004298 117.262488,41.7004298 C116.562488,42.8004298 115.562488,43.2004298 114.362488,43.4004298 C112.162488,43.7004298 109.962488,41.9004298 109.662488,39.7004298 C109.562488,38.7004298 109.462488,37.8004298 109.262488,36.8004298 L109.162488,36.1004298 C109.262488,35.2004298 109.362488,34.3004298 109.462488,33.3004298 C109.562488,32.5004298 109.762488,32.3004298 110.562488,32.3004298 L111.062488,32.3004298 C111.662488,32.3004298 112.062488,32.7004298 112.062488,33.3004298 L111.962488,34.3004298 C111.862488,35.6004298 111.762488,36.9004298 111.962488,38.3004298 C112.062488,39.2004298 112.662488,39.9004298 113.062488,40.6004298 C113.462488,41.3004298 114.362488,41.2004298 114.762488,40.5004298 C115.062488,39.8004298 115.362488,39.1004298 115.562488,38.4004298 C115.862488,36.9004298 115.862488,35.3004298 115.562488,33.8004298 C114.962488,30.9004298 114.062488,28.0004298 112.962488,25.2004298 C112.462488,23.8004298 111.662488,22.5004298 111.062488,21.1004298 C110.862488,20.7004298 110.662488,20.4004298 110.562488,20.0004298 C109.962488,17.7004298 109.262488,15.4004298 108.862488,13.1004298 C108.562488,11.6004298 108.762488,10.1004298 109.062488,8.60042976 L109.362488,7.10042976 C109.562488,5.10042976 110.862488,4.10042976 112.462488,3.30042976 C113.162488,2.90042976 114.162488,2.70042976 114.962488,2.70042976 C117.462488,2.70042976 117.462488,2.80042976 118.862488,4.80042976 C120.062488,6.60042976 120.562488,8.50042976 120.362488,10.6004298 C120.062488,13.2004298 118.362488,14.9004298 115.562488,14.7004298 C115.062488,14.6004298 114.562488,14.5004298 114.162488,14.1004298 C113.862488,14.0004298 113.562488,13.8004298 113.262488,13.6004298 L113.262488,13.6004298 Z M92.1624878,74.6004298 C92.9624878,73.7004298 93.4624878,72.8004298 94.6624878,73.2004298 C95.0624878,73.6004298 95.2624878,74.0004298 95.2624878,74.5004298 L95.5624878,81.2004298 C95.6624878,82.9004298 95.7624878,84.6004298 95.8624878,86.4004298 C95.9624878,87.5004298 95.9624878,88.6004298 95.9624878,89.7004298 C95.9624878,90.0004298 96.0624878,90.2004298 96.1624878,90.5004298 C98.0624878,90.7004298 99.9624878,90.4004298 101.362488,89.8004298 C101.362488,89.6004298 101.462488,89.3004298 101.462488,89.0004298 L101.362488,76.4004298 L101.362488,74.3004298 C101.362488,73.7004298 101.362488,73.0004298 100.962488,72.5004298 C100.762488,72.3004298 100.762488,71.9004298 101.062488,71.7004298 C101.262488,71.6004298 101.562488,71.6004298 101.862488,71.6004298 C101.962488,71.6004298 102.062488,71.7004298 102.162488,71.8004298 C102.862488,72.2004298 103.562488,72.6004298 104.362488,73.0004298 C104.862488,73.6004298 104.962488,74.4004298 104.662488,75.3004298 C104.362488,76.3004298 104.462488,77.5004298 104.362488,78.5004298 L104.362488,79.5004298 C104.362488,79.8004298 104.162488,80.2004298 104.262488,80.5004298 C104.662488,82.1004298 104.162488,83.7004298 104.262488,85.3004298 C104.262488,86.9004298 104.262488,88.4004298 104.162488,90.0004298 C104.162488,91.0004298 104.062488,92.1004298 103.862488,93.1004298 L103.262488,98.6004298 C103.062488,100.00043 103.262488,101.50043 103.262488,102.90043 C103.262488,103.80043 103.262488,104.70043 102.662488,105.60043 C102.162488,105.70043 101.562488,105.90043 100.862488,106.10043 L99.9624878,104.60043 C100.362488,103.70043 100.462488,102.90043 100.462488,101.90043 C100.562488,99.0004298 100.762488,96.0004298 100.962488,93.1004298 C100.962488,93.0004298 100.862488,92.9004298 100.862488,92.7004298 C99.3624878,92.4004298 97.8624878,92.8004298 96.2624878,93.0004298 C96.2624878,93.5004298 96.1624878,94.0004298 96.2624878,94.4004298 L96.6624878,98.3004298 L97.0624878,101.20043 L97.2624878,103.40043 C97.2624878,103.90043 96.8624878,104.20043 96.3624878,104.20043 C95.4624878,104.10043 94.9624878,103.70043 94.9624878,102.80043 L94.4624878,96.6004298 L93.7624878,87.6004298 L93.6624878,86.9004298 C93.5624878,83.8004298 93.1624878,80.8004298 92.8624878,77.8004298 C92.8624878,76.9004298 92.7624878,75.7004298 92.1624878,74.6004298 L92.1624878,74.6004298 Z M78.2624878,29.6004298 C77.6624878,29.7004298 77.0624878,29.8004298 76.5624878,30.0004298 C75.8624878,29.8004298 75.7624878,29.2004298 75.6624878,28.6004298 C75.3624878,27.2004298 75.0624878,25.8004298 74.6624878,24.4004298 C74.3624878,23.3004298 73.8624878,22.3004298 72.8624878,21.5004298 C71.5624878,20.6004298 69.5624878,21.3004298 69.2624878,22.8004298 C69.1624878,23.4004298 69.0624878,24.0004298 69.1624878,24.5004298 C69.4624878,28.3004298 69.6624878,32.2004298 70.4624878,36.0004298 C70.8624878,38.0004298 71.2624878,40.1004298 71.8624878,42.1004298 C72.2624878,43.5004298 72.8624878,44.8004298 73.4624878,46.1004298 C73.8624878,46.9004298 74.4624878,47.4004298 75.4624878,47.6004298 C76.3624878,47.8004298 77.0624878,47.5004298 77.6624878,46.8004298 C78.2624878,46.1004298 78.6624878,45.3004298 78.6624878,44.3004298 C78.6624878,42.5004298 78.5624878,40.7004298 77.9624878,39.0004298 C77.7624878,38.4004298 77.6624878,37.8004298 77.8624878,37.1004298 L78.4624878,36.9004298 C79.8624878,36.3004298 80.0624878,36.9004298 80.4624878,38.0004298 C80.7624878,38.8004298 80.9624878,39.7004298 81.0624878,40.5004298 C81.2624878,41.8004298 81.3624878,43.0004298 81.4624878,44.3004298 C81.4624878,44.8004298 81.4624878,45.3004298 81.3624878,45.8004298 C81.2624878,46.4004298 81.0624878,47.0004298 80.4624878,47.4004298 C79.9624878,47.7004298 79.6624878,48.2004298 79.3624878,48.7004298 C78.8624878,49.5004298 78.1624878,49.7004298 77.3624878,49.7004298 L75.6624878,49.7004298 C73.3624878,49.7004298 71.7624878,48.5004298 70.6624878,46.6004298 C69.5624878,44.8004298 68.9624878,42.8004298 68.4624878,40.8004298 C67.8624878,38.5004298 67.2624878,36.2004298 66.7624878,33.9004298 C66.3624878,32.1004298 66.2624878,30.3004298 66.0624878,28.4004298 L66.0624878,27.7004298 C65.5624878,26.0004298 65.9624878,24.4004298 66.1624878,22.7004298 C66.3624878,21.1004298 67.1624878,20.1004298 68.5624878,19.3004298 C70.1624878,18.4004298 71.7624878,18.2004298 73.5624878,18.5004298 C74.3624878,18.6004298 74.8624878,19.0004298 75.2624878,19.5004298 C75.7624878,20.2004298 76.2624878,20.9004298 76.5624878,21.7004298 C76.9624878,23.3004298 77.4624878,24.8004298 77.9624878,26.3004298 C78.1624878,26.9004298 78.3624878,27.5004298 78.4624878,28.1004298 C78.3624878,28.9004298 78.2624878,29.2004298 78.2624878,29.6004298 L78.2624878,29.6004298 Z M58.4624878,33.4004298 C58.1624878,32.3004298 57.9624878,31.3004298 57.6624878,30.3004298 C57.4624878,29.3004298 56.8624878,28.7004298 55.8624878,28.4004298 C54.1624878,29.6004298 53.7624878,31.5004298 54.9624878,33.0004298 C55.3624878,33.5004298 55.7624878,34.0004298 56.2624878,34.4004298 C57.2624878,35.2004298 58.2624878,36.0004298 59.1624878,36.8004298 C59.5624878,37.1004298 59.9624878,37.5004298 60.1624878,38.0004298 L61.6624878,41.3004298 C62.3624878,43.2004298 62.2624878,45.0004298 61.2624878,46.8004298 C61.1624878,47.0004298 60.9624878,47.3004298 60.7624878,47.5004298 C58.9624878,49.5004298 56.7624878,50.7004298 53.9624878,50.7004298 C52.4624878,50.7004298 51.1624878,50.5004298 49.8624878,49.7004298 C48.9624878,49.2004298 48.3624878,48.5004298 48.0624878,47.5004298 C47.5624878,45.8004298 47.2624878,44.0004298 47.7624878,42.2004298 C48.0624878,41.2004298 48.5624878,40.3004298 49.2624878,39.5004298 C49.5624878,39.1004298 50.0624878,38.9004298 50.6624878,38.9004298 L52.0624878,38.9004298 C53.4624878,38.9004298 54.4624878,39.7004298 55.2624878,40.7004298 C55.3624878,40.8004298 55.3624878,41.0004298 55.4624878,41.3004298 C55.1624878,41.7004298 54.7624878,42.1004298 54.2624878,42.6004298 C53.9624878,42.2004298 53.7624878,41.9004298 53.4624878,41.6004298 C53.0624878,41.1004298 52.5624878,40.9004298 51.9624878,41.1004298 C51.2624878,41.3004298 50.6624878,41.8004298 50.7624878,42.6004298 C50.8624878,43.7004298 51.0624878,44.8004298 51.2624878,45.8004298 C51.3624878,46.4004298 51.7624878,47.0004298 52.3624878,47.3004298 C53.3624878,47.2004298 54.3624878,47.1004298 55.4624878,46.9004298 C56.5624878,46.7004298 57.4624878,46.1004298 58.1624878,45.2004298 C58.4624878,44.8004298 58.6624878,44.3004298 58.7624878,43.8004298 C58.8624878,43.3004298 58.7624878,42.8004298 58.7624878,42.2004298 C58.7624878,40.2004298 57.8624878,38.7004298 56.1624878,37.7004298 L53.4624878,35.8004298 C51.4624878,34.3004298 50.8624878,32.4004298 51.2624878,30.0004298 L51.4624878,29.0004298 C51.5624878,28.1004298 51.8624878,27.3004298 52.5624878,26.7004298 C52.9624878,26.3004298 53.2624878,25.6004298 53.8624878,25.3004298 C55.2624878,24.3004298 57.5624878,24.6004298 58.7624878,25.8004298 C59.9624878,27.0004298 60.3624878,28.4004298 60.3624878,30.0004298 C60.3624878,31.2004298 60.2624878,32.3004298 59.2624878,33.2004298 C58.9624878,33.4004298 58.6624878,33.4004298 58.4624878,33.4004298 L58.4624878,33.4004298 Z M117.462488,97.9004298 L117.762488,92.9004298 L117.962488,89.1004298 C118.062488,87.8004298 118.162488,86.5004298 118.262488,85.1004298 L118.462488,82.7004298 C118.562488,81.7004298 118.762488,80.8004298 118.962488,79.8004298 C119.362488,78.4004298 119.562488,77.0004298 120.262488,75.7004298 C121.062488,74.2004298 122.262488,73.3004298 123.862488,73.0004298 C124.462488,72.9004298 125.262488,73.0004298 125.862488,73.3004298 C126.962488,73.9004298 128.062488,74.5004298 128.262488,76.0004298 C128.462488,77.8004298 128.562488,79.7004298 128.462488,81.5004298 L128.362488,82.5004298 C128.562488,83.9004298 128.362488,85.4004298 128.162488,86.8004298 L126.462488,100.00043 C126.262488,101.60043 125.962488,103.20043 125.262488,104.70043 C124.962488,105.40043 124.562488,105.90043 123.962488,106.30043 C122.362488,107.30043 121.762488,107.40043 120.162488,106.60043 C118.162488,105.50043 117.662488,103.70043 117.462488,101.70043 C117.362488,100.40043 117.462488,99.2004298 117.462488,97.9004298 L117.462488,97.9004298 Z M119.562488,103.40043 L120.762488,104.40043 C121.862488,105.10043 122.562488,104.80043 122.962488,103.60043 L122.962488,103.40043 C123.562488,101.10043 124.162488,98.7004298 124.362488,96.3004298 C124.362488,95.8004298 124.462488,95.3004298 124.562488,94.8004298 C124.862488,92.6004298 125.262488,90.4004298 125.462488,88.1004298 C125.662488,85.3004298 125.962488,82.5004298 125.962488,79.7004298 L125.962488,78.8004298 C126.262488,77.7004298 125.962488,76.8004298 125.462488,75.9004298 C124.962488,75.8004298 124.462488,75.7004298 123.862488,75.6004298 L123.262488,76.3004298 C123.362488,76.4004298 123.362488,76.5004298 123.362488,76.5004298 L124.062488,77.2004298 C124.462488,77.6004298 124.462488,78.0004298 124.262488,78.4004298 C123.662488,79.4004298 122.562488,79.4004298 121.862488,78.5004298 C121.662488,78.2004298 121.762488,77.7004298 121.162488,77.6004298 C120.262488,80.2004298 120.162488,83.0004298 120.062488,85.7004298 C119.862488,88.8004298 120.062488,91.9004298 120.062488,95.0004298 L120.062488,96.7004298 L119.662488,102.20043 C119.562488,102.70043 119.562488,103.00043 119.562488,103.40043 L119.562488,103.40043 Z M113.762488,70.7004298 C113.362488,71.3004298 113.362488,72.0004298 113.362488,72.6004298 L113.262488,80.7004298 L113.162488,82.4004298 C113.762488,82.8004298 114.362488,82.7004298 114.862488,82.7004298 C115.362488,82.6004298 115.862488,82.4004298 116.462488,82.3004298 C116.662488,82.7004298 116.862488,83.1004298 116.862488,83.4004298 C116.862488,83.9004298 116.762488,84.4004298 116.662488,84.9004298 C116.562488,85.6004298 116.262488,85.8004298 115.562488,85.8004298 L113.162488,85.8004298 C112.662488,86.6004298 112.762488,87.4004298 112.662488,88.2004298 L112.662488,91.3004298 C112.662488,93.3004298 112.562488,95.2004298 112.962488,97.2004298 L113.062488,99.3004298 C113.162488,102.20043 113.362488,105.00043 113.462488,108.00043 C112.662488,108.60043 111.862488,108.20043 111.062488,107.90043 C110.462488,107.60043 110.162488,107.10043 110.162488,106.40043 C109.962488,104.30043 109.962488,102.20043 109.962488,100.00043 C110.062488,96.6004298 110.362488,93.2004298 110.162488,89.8004298 C110.062488,89.0004298 110.362488,88.2004298 110.362488,87.4004298 C110.562488,84.8004298 110.262488,82.2004298 110.062488,79.6004298 C109.862488,77.5004298 109.862488,75.3004298 109.762488,73.2004298 C109.662488,71.6004298 110.062488,70.0004298 109.862488,68.4004298 C110.762488,68.0004298 111.562488,67.9004298 112.462488,67.8004298 C114.462488,67.7004298 116.462488,67.6004298 118.462488,67.4004298 C120.562488,67.3004298 122.662488,67.1004298 124.862488,67.0004298 C125.862488,66.9004298 126.162488,67.1004298 126.362488,68.0004298 C126.462488,68.3004298 126.462488,68.7004298 126.462488,69.0004298 C126.062488,69.4004298 125.762488,69.7004298 125.262488,69.7004298 C122.262488,69.7004298 119.262488,70.1004298 116.262488,70.4004298 C115.762488,70.5004298 115.262488,70.5004298 114.762488,70.5004298 C114.362488,70.5004298 114.062488,70.6004298 113.762488,70.7004298 L113.762488,70.7004298 Z M155.262488,35.4004298 C154.362488,36.0004298 153.762488,35.7004298 153.062488,35.4004298 C152.262488,34.3004298 152.662488,33.0004298 152.562488,31.9004298 C152.362488,30.1004298 152.462488,28.2004298 152.362488,26.4004298 C152.362488,25.1004298 152.362488,23.9004298 151.962488,22.6004298 L151.762488,22.4004298 C150.962488,22.2004298 150.162488,22.4004298 149.262488,22.4004298 C148.962488,23.7004298 148.762488,24.9004298 148.462488,26.1004298 C148.162488,27.4004298 147.862488,28.7004298 147.662488,30.0004298 C147.462488,31.2004298 147.362488,32.5004298 147.262488,33.8004298 C147.162488,35.1004298 146.962488,36.3004298 146.562488,37.5004298 C144.862488,38.2004298 144.862488,38.2004298 143.662488,36.9004298 C143.862488,36.1004298 144.162488,35.2004298 144.362488,34.3004298 C144.762488,32.0004298 145.162488,29.6004298 145.462488,27.3004298 L145.462488,27.1004298 L146.962488,18.8004298 C147.062488,18.1004298 147.162488,17.4004298 147.262488,16.8004298 L149.362488,7.30042976 C149.462488,6.90042976 149.562488,6.50042976 149.562488,6.10042976 C149.762488,4.40042976 150.362488,2.80042976 150.962488,1.10042976 C151.062488,0.700429757 151.362488,0.500429757 151.762488,0.500429757 C152.162488,0.500429757 152.462488,0.700429757 152.562488,1.00042976 C152.662488,1.40042976 152.862488,1.80042976 152.862488,2.20042976 C152.962488,3.30042976 153.162488,4.40042976 153.162488,5.50042976 C153.162488,9.30042976 153.562488,13.1004298 153.962488,16.9004298 L154.062488,17.9004298 C154.162488,20.8004298 154.262488,23.8004298 154.462488,26.7004298 C154.562488,29.1004298 154.862488,31.5004298 155.062488,33.9004298 C155.162488,34.4004298 155.262488,34.9004298 155.262488,35.4004298 L155.262488,35.4004298 Z M151.562488,9.30042976 C150.762488,12.9004298 149.762488,16.2004298 149.962488,19.7004298 C150.562488,20.0004298 151.162488,20.0004298 151.762488,19.8004298 C152.062488,18.4004298 152.162488,12.5004298 151.962488,10.3004298 C151.962488,10.0004298 151.862488,9.80042976 151.562488,9.30042976 L151.562488,9.30042976 Z M41.2624878,71.2004298 L43.2624878,70.8004298 C44.8624878,70.5004298 45.3624878,71.0004298 45.3624878,72.7004298 C44.1624878,73.4004298 42.7624878,73.4004298 41.3624878,73.6004298 C41.3624878,73.9004298 41.2624878,74.1004298 41.2624878,74.2004298 C41.7624878,77.5004298 41.5624878,80.9004298 41.7624878,84.2004298 C41.7624878,84.8004298 41.8624878,85.4004298 41.9624878,86.2004298 C42.3624878,86.1004298 42.5624878,86.0004298 42.7624878,85.8004298 C43.9624878,85.0004298 45.1624878,84.2004298 46.3624878,83.5004298 C46.6624878,83.3004298 47.0624878,83.1004298 47.4624878,82.9004298 C48.7624878,82.4004298 48.8624878,82.0004298 50.1624878,83.4004298 C50.1624878,84.1004298 49.7624878,84.5004298 49.1624878,84.8004298 C46.6624878,86.3004298 43.9624878,87.5004298 41.5624878,89.2004298 C41.4624878,89.3004298 41.2624878,89.4004298 41.0624878,89.4004298 C39.9624878,90.0004298 39.7624878,89.9004298 39.4624878,88.7004298 C39.3624878,88.1004298 39.2624878,87.6004298 39.2624878,87.0004298 C39.1624878,86.5004298 39.1624878,86.1004298 39.1624878,85.6004298 C38.7624878,82.6004298 38.5624878,79.5004298 38.4624878,76.5004298 C38.4624878,75.8004298 38.5624878,75.1004298 38.0624878,74.5004298 C37.9624878,74.4004298 37.9624878,74.1004298 37.9624878,73.8004298 C38.2624878,72.5004298 38.0624878,71.2004298 37.9624878,69.8004298 C37.7624878,67.4004298 37.3624878,65.0004298 37.0624878,62.6004298 L36.6624878,59.3004298 C36.5624878,58.3004298 36.4624878,57.4004298 35.7624878,56.6004298 C35.4624878,56.2004298 35.7624878,55.5004298 36.2624878,55.4004298 C36.5624878,55.3004298 36.9624878,55.3004298 37.2624878,55.4004298 C38.9624878,55.8004298 40.6624878,55.7004298 42.3624878,55.4004298 L43.8624878,55.2004298 C44.9624878,55.2004298 45.4624878,56.0004298 44.8624878,57.1004298 L44.2624878,58.0004298 C42.8624878,58.0004298 41.3624878,57.7004298 39.8624878,58.1004298 L39.8624878,63.1004298 C39.8624878,63.6004298 39.8624878,64.0004298 39.9624878,64.5004298 C40.2624878,65.7004298 40.4624878,67.0004298 40.4624878,68.3004298 C40.8624878,69.4004298 41.1624878,70.3004298 41.2624878,71.2004298 L41.2624878,71.2004298 Z M63.2624878,72.3004298 C63.4624878,73.7004298 63.5624878,74.8004298 63.7624878,76.0004298 C63.9624878,77.4004298 63.6624878,78.7004298 62.8624878,79.9004298 C61.9624878,81.3004298 60.5624878,81.6004298 59.1624878,81.6004298 C57.4624878,81.6004298 56.2624878,80.7004298 55.5624878,79.1004298 C55.0624878,77.8004298 54.4624878,76.5004298 54.1624878,75.0004298 C53.9624878,74.0004298 53.6624878,73.1004298 53.3624878,72.2004298 C52.5624878,69.5004298 52.5624878,66.7004298 52.0624878,64.0004298 C51.8624878,62.7004298 51.6624878,61.2004298 52.0624878,59.9004298 C52.3624878,58.6004298 52.7624878,57.3004298 53.1624878,56.0004298 C53.2624878,55.8004298 53.3624878,55.6004298 53.5624878,55.4004298 C55.0624878,54.5004298 56.4624878,53.2004298 58.4624878,54.0004298 C58.6624878,54.1004298 58.8624878,54.1004298 59.0624878,54.1004298 C59.5624878,54.7004298 60.0624878,55.3004298 60.5624878,55.8004298 C61.1624878,56.4004298 61.4624878,57.1004298 61.5624878,57.9004298 C61.6624878,58.7004298 61.7624878,59.5004298 61.7624878,60.3004298 C61.7624878,60.9004298 61.6624878,61.6004298 61.0624878,62.1004298 C60.4624878,62.1004298 59.8624878,62.5004298 59.0624878,62.2004298 C58.9624878,61.8004298 58.8624878,61.4004298 58.8624878,61.1004298 L58.7624878,59.2004298 C58.5624878,57.6004298 57.8624878,57.1004298 56.0624878,57.3004298 C54.5624878,59.3004298 53.9624878,61.5004298 54.2624878,64.0004298 C54.3624878,64.7004298 54.3624878,65.4004298 54.5624878,66.0004298 C55.2624878,68.8004298 56.0624878,71.7004298 56.8624878,74.5004298 C57.2624878,75.9004298 58.0624878,77.0004298 59.3624878,77.7004298 C59.5624878,77.8004298 59.8624878,77.8004298 60.2624878,77.9004298 C60.5624878,75.6004298 60.8624878,73.5004298 61.1624878,71.4004298 C62.2624878,70.9004298 62.6624878,71.9004298 63.2624878,72.3004298 L63.2624878,72.3004298 Z M137.662488,53.6004298 C136.662488,56.1004298 136.662488,58.9004298 135.262488,61.3004298 C134.962488,61.4004298 134.662488,61.5004298 134.262488,61.5004298 C133.362488,61.6004298 133.162488,61.3004298 132.962488,60.3004298 C132.562488,57.9004298 132.062488,55.5004298 131.562488,53.2004298 L129.662488,46.4004298 C129.762488,45.7004298 130.462488,45.5004298 131.062488,45.3004298 C131.462488,45.2004298 131.862488,45.3004298 132.162488,45.7004298 C132.462488,46.1004298 132.662488,46.6004298 132.862488,47.1004298 C133.762488,49.3004298 134.362488,51.6004298 134.762488,53.9004298 C134.762488,54.1004298 134.862488,54.3004298 135.062488,54.8004298 C135.262488,54.2004298 135.362488,54.0004298 135.462488,53.7004298 L136.262488,49.6004298 C136.362488,49.3004298 136.362488,49.0004298 136.562488,48.8004298 C136.862488,48.4004298 137.362488,48.3004298 137.762488,48.6004298 C138.062488,48.8004298 138.262488,49.1004298 138.462488,49.4004298 L140.262488,52.5004298 C140.362488,52.7004298 140.462488,53.0004298 140.662488,53.2004298 C141.262488,53.0004298 141.262488,52.5004298 141.362488,52.2004298 C141.662488,50.8004298 142.162488,49.6004298 142.862488,48.3004298 C143.362488,47.3004298 143.862488,46.3004298 144.262488,45.3004298 C144.462488,44.7004298 144.862488,44.4004298 145.462488,44.1004298 C145.962488,44.3004298 146.362488,44.5004298 146.462488,45.0004298 C146.562488,45.6004298 146.662488,46.3004298 146.262488,46.8004298 C145.162488,48.5004298 144.862488,50.5004298 144.162488,52.4004298 C143.562488,54.2004298 143.162488,56.1004298 142.862488,57.9004298 C142.662488,58.9004298 142.162488,59.9004298 141.762488,60.8004298 C141.662488,61.0004298 141.362488,61.1004298 141.162488,61.1004298 C140.962488,61.1004298 140.762488,60.9004298 140.562488,60.7004298 C140.462488,60.6004298 140.462488,60.5004298 140.462488,60.4004298 C139.962488,57.9004298 138.662488,55.8004298 137.962488,53.4004298 C137.862488,53.8004298 137.762488,53.7004298 137.662488,53.6004298 L137.662488,53.6004298 Z M120.062488,3.00042976 C121.462488,2.90042976 122.662488,3.00042976 123.862488,2.80042976 C125.662488,2.50042976 127.362488,2.40042976 129.162488,2.50042976 C130.062488,2.60042976 130.662488,3.00042976 130.962488,3.90042976 C131.062488,4.20042976 130.862488,4.60042976 130.462488,4.70042976 C130.062488,4.80042976 129.562488,4.70042976 129.062488,4.70042976 C128.062488,4.70042976 127.162488,4.40042976 126.062488,4.90042976 L125.762488,5.80042976 C125.562488,7.50042976 125.362488,9.20042976 125.362488,11.0004298 L125.262488,16.7004298 L124.962488,22.4004298 C124.862488,25.5004298 124.862488,28.5004298 124.662488,31.6004298 C124.462488,34.3004298 124.562488,37.0004298 124.562488,39.7004298 L124.762488,40.9004298 C124.862488,41.3004298 124.662488,41.7004298 124.262488,41.7004298 C123.662488,41.8004298 123.062488,41.9004298 122.562488,41.8004298 C121.462488,41.6004298 120.762488,41.4004298 121.262488,40.0004298 C121.462488,36.6004298 122.062488,33.3004298 122.062488,29.8004298 C122.062488,28.4004298 122.262488,26.9004298 122.362488,25.5004298 C122.462488,24.4004298 122.462488,23.2004298 122.462488,22.0004298 C122.462488,19.8004298 122.462488,17.6004298 122.862488,15.5004298 C122.962488,15.1004298 122.962488,14.6004298 122.962488,14.1004298 L122.962488,5.40042976 C122.262488,5.10042976 121.662488,5.30042976 120.962488,5.50042976 C120.462488,5.70042976 119.962488,5.70042976 119.462488,5.40042976 C119.262488,4.90042976 119.062488,4.50042976 119.262488,4.10042976 C119.562488,3.60042976 119.862488,3.20042976 120.062488,3.00042976 L120.062488,3.00042976 Z M91.3624878,85.2004298 C90.8624878,85.5004298 90.3624878,85.5004298 89.7624878,85.6004298 C89.6624878,85.1004298 89.3624878,84.7004298 89.4624878,84.4004298 C89.5624878,83.3004298 89.1624878,82.2004298 89.0624878,81.2004298 C88.9624878,80.5004298 88.6624878,79.8004298 88.3624878,79.1004298 C88.1624878,78.7004298 87.7624878,78.4004298 87.2624878,78.4004298 C86.7624878,78.5004298 86.2624878,78.7004298 86.0624878,79.3004298 C85.7624878,80.2004298 85.5624878,81.2004298 85.7624878,82.2004298 C86.1624878,84.1004298 86.6624878,86.0004298 87.6624878,87.7004298 L89.9624878,91.3004298 C91.1624878,93.4004298 92.4624878,95.4004298 92.7624878,97.9004298 L92.8624878,98.2004298 C92.9624878,100.20043 92.7624878,102.10043 91.9624878,103.90043 C91.4624878,105.00043 90.6624878,105.80043 89.4624878,106.10043 C88.0624878,106.40043 86.6624878,106.30043 85.5624878,105.30043 C84.6624878,104.50043 84.0624878,103.50043 83.7624878,102.40043 C83.5624878,101.90043 83.4624878,101.30043 83.5624878,100.70043 C83.5624878,99.4004298 83.9624878,98.1004298 84.3624878,96.8004298 C84.6624878,95.9004298 85.4624878,95.6004298 86.1624878,95.4004298 C86.3624878,95.4004298 86.5624878,95.4004298 86.6624878,95.5004298 C87.5624878,95.9004298 88.3624878,96.5004298 88.7624878,97.5004298 C89.1624878,98.5004298 88.8624878,99.4004298 87.9624878,100.10043 C87.2624878,99.9004298 87.0624878,99.4004298 87.0624878,98.8004298 C87.0624878,98.4004298 86.6624878,98.3004298 86.2624878,98.3004298 C85.6624878,98.3004298 85.3624878,98.6004298 85.3624878,99.1004298 C85.4624878,99.8004298 85.5624878,100.50043 85.7624878,101.10043 C85.9624878,101.70043 86.0624878,102.20043 86.3624878,102.70043 C86.9624878,103.70043 87.6624878,103.90043 88.6624878,103.40043 C89.1624878,103.20043 89.5624878,102.90043 89.9624878,102.60043 C90.4624878,102.20043 90.7624878,101.70043 90.7624878,101.00043 C90.7624878,99.2004298 90.5624878,97.5004298 89.7624878,95.8004298 L86.2624878,88.3004298 C85.9624878,87.6004298 85.5624878,87.0004298 85.1624878,86.3004298 L83.6624878,83.2004298 C83.1624878,82.0004298 83.4624878,80.8004298 83.4624878,79.6004298 C83.4624878,79.3004298 83.6624878,79.0004298 83.8624878,78.8004298 C84.4624878,78.1004298 85.0624878,77.4004298 85.7624878,76.8004298 C86.6624878,76.0004298 88.3624878,76.0004298 89.2624878,76.9004298 C90.3624878,77.9004298 91.0624878,79.2004298 91.3624878,80.6004298 C91.5624878,81.9004298 91.5624878,83.2004298 91.5624878,84.6004298 C91.5624878,84.8004298 91.3624878,85.1004298 91.3624878,85.2004298 L91.3624878,85.2004298 Z M90.1624878,71.6004298 C89.5624878,72.6004298 88.7624878,72.8004298 87.7624878,72.5004298 C87.0624878,72.3004298 86.3624878,72.0004298 85.7624878,71.5004298 C84.9624878,70.8004298 84.1624878,70.2004298 83.2624878,69.6004298 C82.4624878,69.0004298 81.9624878,68.2004298 81.4624878,67.3004298 C80.3624878,65.4004298 79.0624878,63.6004298 77.7624878,61.9004298 C77.0624878,61.7004298 76.4624878,61.8004298 75.8624878,62.3004298 C76.0624878,65.4004298 77.0624878,68.2004298 77.8624878,71.2004298 C77.6624878,72.3004298 76.8624878,72.6004298 75.8624878,72.7004298 C75.3624878,72.3004298 75.2624878,71.8004298 75.1624878,71.2004298 C74.6624878,67.6004298 74.0624878,63.9004298 73.4624878,60.3004298 C73.2624878,59.2004298 72.8624878,58.1004298 72.5624878,57.0004298 C72.1624878,55.6004298 71.7624878,54.2004298 72.2624878,52.7004298 C74.5624878,52.0004298 76.8624878,51.6004298 79.3624878,52.2004298 C80.1624878,52.4004298 80.6624878,52.8004298 81.1624878,53.4004298 C82.6624878,55.2004298 82.8624878,57.2004298 81.1624878,59.8004298 L80.2624878,60.9004298 L80.8624878,62.1004298 C82.3624878,64.5004298 84.0624878,66.8004298 86.1624878,68.7004298 C86.6624878,69.2004298 87.2624878,69.6004298 87.8624878,69.8004298 C88.9624878,70.0004298 89.5624878,70.6004298 90.1624878,71.6004298 L90.1624878,71.6004298 Z M74.6624878,54.3004298 C74.8624878,56.4004298 74.7624878,58.5004298 75.6624878,60.4004298 C76.7624878,59.8004298 77.8624878,59.3004298 78.8624878,58.7004298 C79.2624878,58.4004298 79.5624878,58.0004298 79.8624878,57.5004298 C80.4624878,56.4004298 80.0624878,55.1004298 79.0624878,54.4004298 C77.6624878,53.6004298 76.2624878,53.7004298 74.6624878,54.3004298 L74.6624878,54.3004298 Z M44.7624878,94.7004298 C45.5624878,94.4004298 46.2624878,94.1004298 46.9624878,93.8004298 C47.6624878,93.6004298 48.0624878,93.8004298 48.3624878,94.4004298 C48.5624878,94.8004298 48.6624878,95.3004298 48.6624878,95.7004298 C48.9624878,97.6004298 49.2624878,99.6004298 49.4624878,101.50043 C49.6624878,103.10043 50.2624878,104.50043 51.3624878,105.70043 L51.9624878,106.30043 C53.1624878,107.00043 54.2624878,106.50043 54.4624878,105.10043 C54.5624878,104.70043 54.4624878,104.20043 54.3624878,103.70043 C54.0624878,102.10043 53.6624878,100.40043 53.4624878,98.8004298 C53.0624878,96.6004298 52.6624878,94.4004298 52.3624878,92.2004298 C52.2624878,91.8004298 52.4624878,91.3004298 52.8624878,91.2004298 L54.3624878,90.9004298 C55.2624878,90.9004298 55.4624878,91.1004298 55.6624878,92.0004298 C55.7624878,93.1004298 55.8624878,94.2004298 56.0624878,95.3004298 C56.1624878,96.3004298 56.3624878,97.2004298 56.5624878,98.2004298 C57.0624878,100.20043 57.3624878,102.30043 57.6624878,104.30043 C57.7624878,105.10043 57.7624878,105.90043 57.4624878,106.70043 C57.1624878,107.60043 56.5624878,108.30043 55.6624878,108.60043 C54.5624878,109.00043 53.4624878,109.20043 52.3624878,109.40043 C51.1624878,109.60043 50.0624878,109.40043 49.0624878,108.80043 C48.0624878,108.10043 47.4624878,107.00043 47.1624878,105.80043 C46.8624878,104.60043 46.5624878,103.40043 46.3624878,102.30043 L44.7624878,95.6004298 L44.7624878,94.7004298 L44.7624878,94.7004298 Z M103.662488,4.90042976 C104.262488,4.60042976 104.662488,4.30042976 105.162488,4.20042976 C106.562488,3.90042976 107.562488,4.40042976 107.562488,6.00042976 L107.162488,18.6004298 C107.162488,20.1004298 107.362488,21.7004298 107.462488,23.2004298 C107.562488,24.5004298 107.562488,25.7004298 107.562488,27.0004298 C107.562488,27.9004298 107.562488,28.8004298 107.762488,29.7004298 C107.962488,30.9004298 107.862488,32.1004298 107.862488,33.3004298 C107.862488,34.3004298 107.762488,35.4004298 107.662488,36.4004298 C107.662488,37.3004298 107.662488,38.2004298 107.762488,39.2004298 L108.062488,42.6004298 C108.162488,43.2004298 108.262488,43.8004298 108.362488,44.5004298 C108.462488,45.3004298 108.062488,45.7004298 107.262488,45.4004298 C107.062488,45.3004298 106.862488,45.2004298 106.662488,45.2004298 C105.562488,45.2004298 105.462488,45.2004298 105.362488,44.2004298 L105.262488,43.2004298 C105.562488,39.4004298 105.362488,35.6004298 105.062488,31.8004298 C104.962488,30.6004298 104.862488,29.4004298 104.962488,28.2004298 C105.062488,26.4004298 104.762488,24.7004298 104.562488,22.9004298 L104.562488,22.0004298 C104.662488,18.4004298 104.462488,14.7004298 104.262488,11.1004298 C104.162488,9.90042976 104.062488,8.70042976 103.862488,7.50042976 C103.862488,6.70042976 103.762488,5.80042976 103.662488,4.90042976 L103.662488,4.90042976 Z M34.4624878,43.3004298 C33.0624878,43.4004298 31.9624878,44.3004298 30.6624878,44.9004298 C30.5624878,46.7004298 30.9624878,48.6004298 30.3624878,50.4004298 L28.3624878,50.8004298 C27.9624878,50.9004298 27.4624878,50.5004298 27.5624878,50.1004298 C27.9624878,48.4004298 27.6624878,46.8004298 27.6624878,45.1004298 L27.6624878,41.0004298 C27.6624878,39.6004298 27.8624878,38.3004298 27.5624878,36.9004298 C27.4624878,36.7004298 27.7624878,36.2004298 27.8624878,36.2004298 C28.5624878,36.0004298 29.2624878,35.6004298 30.0624878,35.7004298 L30.5624878,41.6004298 C32.1624878,41.7004298 33.4624878,41.1004298 34.7624878,40.4004298 C34.7624878,37.7004298 35.0624878,35.2004298 35.5624878,32.6004298 C35.7624878,31.7004298 36.4624878,31.0004298 37.3624878,30.8004298 C38.2624878,30.6004298 38.9624878,31.3004298 38.7624878,32.2004298 C38.1624878,34.3004298 37.8624878,36.4004298 37.8624878,38.5004298 C37.9624878,40.8004298 37.9624878,43.1004298 38.2624878,45.4004298 C38.3624878,46.4004298 38.3624878,47.3004298 38.3624878,48.3004298 C38.3624878,48.8004298 38.0624878,49.2004298 37.5624878,49.4004298 C35.5624878,50.2004298 34.6624878,49.6004298 34.6624878,47.4004298 C34.6624878,46.1004298 34.6624878,44.9004298 34.5624878,43.6004298 C34.6624878,43.5004298 34.5624878,43.4004298 34.4624878,43.3004298 L34.4624878,43.3004298 Z M69.1624878,66.1004298 C68.2624878,65.8004298 67.6624878,66.5004298 66.8624878,66.5004298 C66.8624878,68.2004298 66.8624878,69.8004298 67.1624878,71.4004298 L67.8624878,76.2004298 C67.0624878,76.5004298 66.5624878,77.0004298 65.7624878,77.0004298 C65.0624878,75.9004298 65.3624878,74.6004298 65.1624878,73.4004298 L64.6624878,67.4004298 C64.2624878,63.9004298 64.2624878,60.3004298 64.2624878,56.7004298 C64.2624878,55.7004298 64.1624878,54.7004298 64.1624878,53.8004298 C64.1624878,53.5004298 64.2624878,53.2004298 64.4624878,53.1004298 C64.7624878,52.8004298 65.1624878,53.0004298 65.4624878,53.2004298 C65.6624878,53.3004298 65.7624878,53.5004298 65.9624878,53.7004298 C66.8624878,54.9004298 67.7624878,56.1004298 68.2624878,57.5004298 C68.4624878,58.0004298 68.6624878,58.4004298 68.9624878,58.9004298 C70.4624878,61.3004298 71.5624878,63.9004298 72.3624878,66.6004298 C72.8624878,68.3004298 73.4624878,70.0004298 74.0624878,71.7004298 C74.3624878,72.4004298 74.4624878,73.1004298 74.1624878,73.9004298 C73.9624878,74.5004298 73.4624878,74.6004298 72.9624878,74.7004298 C72.4624878,74.7004298 72.0624878,74.5004298 71.8624878,74.0004298 C71.7624878,73.8004298 71.6624878,73.6004298 71.6624878,73.4004298 C71.4624878,72.2004298 70.9624878,71.1004298 70.4624878,70.0004298 C69.9624878,68.7004298 69.5624878,67.5004298 69.1624878,66.1004298 L69.1624878,66.1004298 Z M66.3624878,58.1004298 C66.2624878,59.6004298 66.5624878,63.4004298 66.8624878,64.2004298 C67.4624878,64.3004298 67.9624878,64.0004298 68.3624878,63.6004298 C68.1624878,61.9004298 67.4624878,60.4004298 66.8624878,58.9004298 C66.7624878,58.7004298 66.6624878,58.5004298 66.3624878,58.1004298 L66.3624878,58.1004298 Z M40.5624878,96.3004298 C41.6624878,96.9004298 42.6624878,97.6004298 43.3624878,98.7004298 C44.5624878,100.60043 44.8624878,102.60043 44.7624878,104.80043 L44.6624878,106.90043 C44.5624878,108.20043 44.1624878,109.40043 43.1624878,110.30043 L41.3624878,112.10043 C40.8624878,112.00043 40.4624878,111.80043 40.0624878,111.80043 C37.9624878,111.60043 36.6624878,110.40043 35.8624878,108.60043 C34.7624878,106.20043 34.5624878,103.60043 34.8624878,101.00043 C35.0624878,99.7004298 35.6624878,98.6004298 36.4624878,97.7004298 C37.0624878,97.1004298 37.6624878,96.7004298 38.5624878,96.6004298 C39.3624878,96.5004298 39.9624878,96.4004298 40.5624878,96.3004298 L40.5624878,96.3004298 Z M39.8624878,109.00043 C40.9624878,109.00043 41.1624878,108.10043 41.5624878,107.50043 C42.6624878,105.80043 42.7624878,103.90043 42.3624878,102.00043 C42.1624878,101.10043 41.6624878,100.30043 40.7624878,99.8004298 C40.4624878,99.7004298 40.0624878,99.6004298 39.7624878,99.8004298 C39.0624878,100.30043 38.3624878,100.90043 38.2624878,101.80043 C38.0624878,103.60043 38.0624878,105.40043 38.5624878,107.10043 C38.7624878,107.90043 39.1624878,108.60043 39.8624878,109.00043 L39.8624878,109.00043 Z M36.2624878,101.90043 L36.2624878,102.00043 L36.2624878,101.90043 L36.2624878,101.90043 Z M42.5624878,27.8004298 C43.2624878,27.6004298 43.7624878,27.4004298 44.3624878,27.2004298 C44.7624878,27.1004298 45.0624878,27.3004298 45.1624878,27.6004298 C45.2624878,27.9004298 45.3624878,28.3004298 45.3624878,28.6004298 C45.5624878,31.2004298 45.4624878,33.8004298 45.2624878,36.4004298 C45.1624878,37.8004298 45.1624878,39.2004298 45.0624878,40.5004298 C45.0624878,40.9004298 45.1624878,41.3004298 45.0624878,41.7004298 C44.7624878,43.4004298 45.0624878,45.0004298 45.2624878,46.7004298 C45.3624878,47.0004298 45.3624878,47.4004298 45.3624878,47.7004298 C45.3624878,48.5004298 44.8624878,49.1004298 44.1624878,49.3004298 C43.6624878,49.5004298 43.0624878,49.6004298 42.3624878,49.8004298 C42.1624878,49.4004298 41.8624878,49.1004298 41.8624878,48.7004298 C41.7624878,47.3004298 41.6624878,45.9004298 41.6624878,44.5004298 C41.6624878,42.0004298 41.5624878,39.5004298 41.7624878,37.1004298 C41.9624878,34.6004298 41.6624878,32.0004298 42.3624878,29.6004298 C42.5624878,29.1004298 42.4624878,28.5004298 42.5624878,27.8004298 L42.5624878,27.8004298 Z M152.362488,59.5004298 C151.862488,59.3004298 151.362488,59.2004298 150.962488,59.1004298 C150.462488,58.4004298 150.362488,57.7004298 150.562488,56.9004298 C150.662488,56.1004298 150.862488,55.2004298 150.562488,54.3004298 L149.062488,54.3004298 C148.662488,54.7004298 148.762488,55.3004298 148.762488,55.8004298 C148.662488,56.4004298 148.662488,57.1004298 148.662488,57.7004298 C148.662488,58.0004298 148.662488,58.0004298 147.862488,58.5004298 C147.262488,58.3004298 147.062488,57.9004298 146.962488,57.4004298 L146.962488,56.7004298 C147.062488,54.2004298 147.062488,51.8004298 147.462488,49.3004298 C147.562488,48.5004298 147.462488,47.6004298 147.462488,46.7004298 L147.562488,44.5004298 C147.562488,44.1004298 147.862488,43.9004298 148.262488,43.9004298 C148.462488,43.9004298 148.762488,44.1004298 148.962488,44.3004298 C149.262488,44.8004298 149.462488,45.3004298 149.362488,45.9004298 C149.262488,46.5004298 149.162488,47.2004298 149.162488,47.8004298 L148.962488,50.0004298 C148.962488,50.3004298 148.962488,50.7004298 149.062488,51.0004298 C149.762488,51.5004298 150.462488,51.3004298 151.062488,51.2004298 C151.562488,50.6004298 151.462488,49.9004298 151.562488,49.3004298 C151.662488,48.3004298 151.662488,47.3004298 151.862488,46.4004298 C152.062488,45.4004298 152.262488,44.5004298 152.662488,43.6004298 C152.962488,42.9004298 153.162488,42.8004298 154.162488,43.1004298 C154.462488,43.6004298 154.262488,44.2004298 154.162488,44.8004298 C153.462488,47.6004298 153.262488,50.4004298 153.262488,53.2004298 C153.262488,54.9004298 153.062488,56.5004298 153.262488,58.2004298 C153.262488,58.7004298 153.062488,59.1004298 152.362488,59.5004298 L152.362488,59.5004298 Z M102.862488,51.4004298 C103.462488,51.2004298 103.762488,51.1004298 104.162488,50.9004298 C104.962488,51.8004298 105.462488,52.7004298 105.262488,53.9004298 C105.062488,55.6004298 105.162488,57.4004298 105.362488,59.1004298 C105.462488,59.8004298 105.662488,60.4004298 106.162488,61.0004298 C106.562488,61.4004298 106.962488,61.4004298 107.362488,60.9004298 C107.862488,60.2004298 108.062488,59.4004298 108.062488,58.5004298 L107.862488,52.8004298 C107.862488,52.0004298 107.962488,51.3004298 108.862488,50.9004298 C109.262488,51.2004298 109.662488,51.5004298 110.162488,51.8004298 C110.362488,53.4004298 110.562488,55.0004298 110.562488,56.6004298 C110.662488,57.8004298 110.662488,59.0004298 110.462488,60.2004298 C110.362488,61.3004298 109.862488,62.4004298 109.062488,63.3004298 C108.262488,64.2004298 107.362488,64.2004298 106.362488,64.0004298 C105.762488,63.9004298 105.262488,63.6004298 104.762488,63.4004298 C104.062488,63.0004298 103.662488,62.5004298 103.362488,61.7004298 C102.962488,60.5004298 102.762488,59.2004298 102.762488,58.0004298 L102.762488,53.5004298 C102.862488,52.7004298 102.862488,52.1004298 102.862488,51.4004298 L102.862488,51.4004298 Z M162.162488,58.6004298 L161.262488,59.9004298 C160.862488,60.3004298 160.262488,60.3004298 159.962488,59.8004298 C159.762488,59.4004298 159.562488,59.0004298 159.462488,58.5004298 C159.162488,57.3004298 158.662488,56.2004298 158.662488,55.0004298 C158.662488,54.8004298 158.562488,54.7004298 158.462488,54.5004298 C157.962488,54.2004298 157.462488,54.2004298 156.962488,54.5004298 C156.662488,55.4004298 156.662488,56.3004298 156.762488,57.2004298 C156.862488,57.9004298 156.562488,58.4004298 156.262488,59.0004298 C155.862488,59.6004298 155.262488,59.5004298 154.862488,59.7004298 C154.462488,59.2004298 154.362488,58.7004298 154.462488,58.1004298 C154.762488,56.1004298 154.962488,54.0004298 155.662488,52.0004298 C156.162488,50.5004298 156.262488,48.9004298 156.562488,47.4004298 C156.762488,46.3004298 156.962488,45.3004298 157.262488,44.2004298 C157.362488,43.7004298 157.762488,43.6004298 158.162488,43.8004298 C158.662488,44.1004298 159.062488,44.5004298 159.262488,45.1004298 C159.762488,46.4004298 160.162488,47.7004298 160.262488,49.1004298 C160.362488,50.1004298 160.562488,51.2004298 160.762488,52.2004298 C160.962488,54.3004298 161.262488,56.5004298 162.162488,58.6004298 L162.162488,58.6004298 Z M157.162488,52.1004298 C157.562488,52.1004298 157.862488,52.2004298 158.362488,52.2004298 C158.462488,50.9004298 157.962488,49.9004298 157.862488,48.6004298 C157.362488,49.6004298 157.262488,50.1004298 157.162488,52.1004298 L157.162488,52.1004298 Z M127.062488,57.4004298 C127.262488,57.7004298 127.462488,57.9004298 127.562488,58.2004298 C127.962488,59.1004298 127.462488,59.9004298 126.462488,59.8004298 C124.862488,59.6004298 123.362488,59.9004298 121.862488,59.9004298 C120.262488,60.0004298 118.762488,60.2004298 117.262488,60.5004298 C116.462488,60.6004298 115.562488,60.9004298 114.762488,61.1004298 C114.462488,61.2004298 114.162488,61.2004298 113.862488,61.2004298 C113.262488,61.2004298 112.862488,60.8004298 112.962488,60.2004298 C112.962488,59.4004298 112.962488,58.6004298 113.062488,57.8004298 C113.262488,56.0004298 113.062488,54.1004298 112.962488,52.3004298 C112.962488,51.7004298 112.962488,51.0004298 113.162488,50.4004298 C113.462488,49.3004298 114.662488,49.1004298 115.462488,50.0004298 C115.662488,50.2004298 115.762488,50.4004298 115.862488,50.6004298 C115.862488,53.0004298 115.562488,55.5004298 115.962488,57.9004298 C117.862488,57.8004298 119.762488,57.7004298 121.562488,57.7004298 C123.362488,57.6004298 125.062488,57.5004298 127.062488,57.4004298 L127.062488,57.4004298 Z M93.6624878,52.7004298 C94.4624878,51.0004298 95.7624878,50.6004298 97.3624878,50.8004298 L99.5624878,50.8004298 C100.462488,50.8004298 100.962488,51.4004298 100.862488,52.3004298 L100.562488,53.8004298 C99.2624878,54.2004298 97.9624878,53.8004298 96.6624878,54.1004298 C96.5624878,54.7004298 96.5624878,55.3004298 96.8624878,56.0004298 C97.1624878,56.0004298 97.4624878,56.1004298 97.8624878,56.1004298 C99.0624878,56.2004298 99.4624878,56.6004298 99.3624878,57.9004298 C99.3624878,58.1004298 99.2624878,58.2004298 99.1624878,58.5004298 C98.4624878,58.6004298 97.7624878,58.8004298 96.9624878,59.0004298 C96.7624878,60.0004298 96.9624878,60.9004298 97.0624878,61.9004298 C97.2624878,63.0004298 97.4624878,64.1004298 97.5624878,65.1004298 C97.6624878,66.0004298 97.2624878,66.4004298 96.3624878,66.4004298 L95.6624878,66.4004298 C94.8624878,66.4004298 94.6624878,66.2004298 94.7624878,65.4004298 L94.8624878,65.1004298 C94.4624878,61.3004298 94.4624878,57.5004298 93.7624878,53.7004298 C93.7624878,53.2004298 93.6624878,52.9004298 93.6624878,52.7004298 L93.6624878,52.7004298 Z M167.762488,46.0004298 C167.262488,46.5004298 167.362488,47.0004298 167.362488,47.5004298 L166.862488,53.5004298 C166.762488,54.4004298 166.662488,55.2004298 166.762488,56.1004298 L166.762488,57.7004298 C166.762488,58.7004298 166.462488,59.5004298 165.562488,60.2004298 C165.262488,60.1004298 164.762488,60.0004298 164.362488,59.9004298 C164.262488,59.6004298 164.262488,59.4004298 164.262488,59.1004298 L164.862488,52.2004298 C164.962488,51.0004298 165.062488,47.1004298 164.962488,46.0004298 C164.562488,45.6004298 164.162488,45.7004298 163.662488,45.7004298 C163.062488,45.7004298 162.362488,45.7004298 161.762488,45.6004298 C161.262488,45.5004298 160.962488,45.1004298 160.962488,44.6004298 L161.062488,43.9004298 C161.262488,43.2004298 161.662488,42.8004298 162.462488,42.9004298 C163.562488,42.9004298 164.662488,42.9004298 165.762488,43.0004298 C166.762488,43.1004298 167.662488,43.2004298 168.662488,43.0004298 C170.062488,42.8004298 170.662488,43.5004298 170.362488,44.9004298 C170.162488,45.8004298 170.062488,46.0004298 169.162488,46.0004298 L167.762488,46.0004298 L167.762488,46.0004298 Z M86.6624878,56.1004298 C86.7624878,57.1004298 86.9624878,58.3004298 87.0624878,59.4004298 L89.3624878,59.4004298 C89.5624878,59.4004298 89.6624878,59.5004298 89.8624878,59.6004298 C89.6624878,60.9004298 89.0624878,61.8004298 87.5624878,61.9004298 C87.2624878,63.2004298 87.7624878,64.2004298 88.2624878,65.3004298 C88.7624878,65.3004298 89.1624878,65.4004298 89.6624878,65.3004298 C90.9624878,65.0004298 92.1624878,65.1004298 93.4624878,65.5004298 C93.3624878,65.8004298 93.2624878,66.1004298 93.0624878,66.5004298 C91.0624878,67.0004298 89.0624878,67.6004298 87.0624878,67.7004298 C86.3624878,67.0004298 85.9624878,66.3004298 85.8624878,65.4004298 L85.5624878,62.3004298 L84.9624878,56.3004298 L84.5624878,54.6004298 C84.4624878,54.3004298 84.5624878,53.9004298 84.5624878,53.5004298 C85.3624878,53.3004298 86.0624878,53.0004298 86.7624878,52.9004298 C88.0624878,52.6004298 89.4624878,52.3004298 90.9624878,52.0004298 C91.5624878,52.3004298 91.7624878,52.9004298 91.7624878,53.6004298 C91.7624878,54.4004298 91.4624878,54.8004298 90.6624878,54.9004298 L88.2624878,55.2004298 C87.7624878,55.4004298 87.1624878,55.5004298 86.6624878,56.1004298 L86.6624878,56.1004298 Z M82.8624878,106.20043 L81.1624878,106.20043 C80.7624878,104.30043 80.2624878,102.50043 80.3624878,100.60043 C80.4624878,99.3004298 80.2624878,98.0004298 80.2624878,96.6004298 C80.0624878,93.1004298 79.9624878,89.6004298 79.6624878,86.1004298 C79.5624878,84.6004298 79.2624878,83.1004298 79.1624878,81.7004298 C79.1624878,81.4004298 79.3624878,81.1004298 79.4624878,80.7004298 C80.2624878,81.1004298 80.8624878,81.4004298 81.6624878,81.7004298 C81.9624878,83.1004298 81.7624878,84.5004298 81.8624878,85.8004298 L82.0624878,91.5004298 C82.1624878,92.4004298 81.7624878,93.3004298 82.1624878,94.2004298 C81.9624878,95.8004298 82.5624878,97.3004298 82.7624878,98.8004298 C82.9624878,100.50043 83.1624878,102.10043 83.2624878,103.80043 C83.2624878,104.60043 83.2624878,105.30043 82.8624878,106.20043 L82.8624878,106.20043 Z M169.162488,35.2004298 C168.862488,34.8004298 168.762488,34.7004298 168.662488,34.5004298 C168.362488,33.9004298 168.362488,33.7004298 168.762488,33.3004298 L169.362488,32.7004298 C170.262488,31.6004298 170.662488,31.5004298 172.062488,32.0004298 L172.562488,32.3004298 C172.662488,32.7004298 172.762488,33.0004298 172.762488,33.4004298 C172.762488,33.6004298 172.762488,33.9004298 172.662488,34.0004298 C171.662488,35.3004298 171.362488,36.8004298 170.862488,38.2004298 C170.862488,38.3004298 170.762488,38.4004298 170.662488,38.5004298 C169.862488,38.7004298 169.162488,38.4004298 168.462488,38.0004298 C168.162488,37.9004298 168.162488,37.5004298 168.262488,37.1004298 C168.462488,36.6004298 168.762488,35.9004298 169.162488,35.2004298 L169.162488,35.2004298 Z" id="Shape" fill="#000000" sketch:type="MSShapeGroup"></path>
    </g>
</svg>