<?xml version="1.0" encoding="UTF-8" standalone="no"?>
<svg width="181px" height="128px" viewBox="0 0 181 128" version="1.1" xmlns="http://www.w3.org/2000/svg" xmlns:xlink="http://www.w3.org/1999/xlink" xmlns:sketch="http://www.bohemiancoding.com/sketch/ns">
    <!-- Generator: Sketch 3.1.1 (8761) - http://www.bohemiancoding.com/sketch -->
    <title>heres-to</title>
    <desc>Created with Sketch.</desc>
    <defs></defs>
    <g id="Page-1" stroke="none" stroke-width="1" fill="none" fill-rule="evenodd" sketch:type="MSPage">
        <g id="Imported-Layers" sketch:type="MSLayerGroup" fill="#000000">
            <path d="M40.28,22.911 C41.972,22.813 43.469,22.013 45.063,21.564 C46.366,21.196 47.631,20.695 48.917,20.264 C49.295,20.137 49.68,20.017 50.071,19.947 C51.309,19.724 53.115,20.773 53.476,21.986 C53.576,22.324 53.483,22.79 53.323,23.123 C52.706,24.41 52.175,25.776 51.341,26.913 C48.743,30.456 46.446,34.183 44.13,37.908 C42.619,40.338 40.89,42.637 38.965,44.773 C38.541,45.243 38.148,45.742 37.655,46.33 C37.83,47.05 37.941,47.838 38.211,48.566 C39.179,51.178 40.18,53.778 41.21,56.366 C41.651,57.475 42.22,58.532 42.678,59.634 C42.999,60.41 43.576,60.734 44.355,60.737 C45.551,60.741 46.749,60.736 47.944,60.674 C49.378,60.6 50.817,60.521 52.24,60.335 C53.673,60.148 54.916,60.673 56.163,61.197 C57.043,61.566 57.232,62.529 56.489,63.121 C55.243,64.112 53.982,65.131 52.592,65.887 C49.665,67.479 46.69,68.997 43.659,70.378 C40.554,71.793 37.543,73.39 34.48,74.883 C33.052,75.578 31.741,76.511 30.327,77.236 C28.538,78.153 27.346,78.226 25.005,77.774 C24.817,77.058 24.853,76.467 25.428,75.829 C27.347,73.7 29.216,71.532 31.358,69.61 C32.121,68.925 32.723,68.056 33.372,67.25 C34.971,65.263 36.818,63.512 38.779,61.715 C38.238,60.097 37.693,58.537 37.195,56.963 C36.667,55.293 36.187,53.608 35.679,51.931 C35.196,50.34 34.704,48.753 34.226,47.198 C31.121,45.389 27.734,44.522 24.329,43.688 C22.861,43.329 21.428,42.828 19.986,42.37 C18.468,41.888 16.99,41.197 15.437,40.927 C13.404,40.574 11.764,39.419 9.947,38.64 C8.26,37.917 8.111,35.141 9.851,34.361 C10.864,33.907 11.856,33.401 12.891,33.006 C16.685,31.557 20.484,30.123 24.298,28.728 C26.237,28.018 28.214,27.412 30.17,26.745 C31.293,26.362 32.407,25.95 33.514,25.555 C33.697,24.908 33.847,24.38 33.972,23.943 C33.855,23.687 33.83,23.486 33.719,23.408 C31.939,22.155 31.647,20.31 31.623,18.328 C31.61,17.299 31.91,16.434 32.711,15.789 C33.205,15.392 33.726,15.012 34.285,14.718 C35.059,14.31 35.88,13.991 36.864,13.552 C37.154,12.894 37.517,12.104 37.854,11.303 C38.441,9.909 38.956,8.482 39.607,7.12 C40.19,5.903 40.502,4.739 39.789,3.477 C39.678,3.281 39.696,3.012 39.647,2.738 C39.874,1.956 40.356,1.214 41.113,1.007 C42.008,0.762 43.024,0.707 43.94,0.857 C45.417,1.099 46.224,2.717 45.767,4.178 C45.311,5.637 45.21,5.716 43.158,6.188 C41.423,8.935 41.156,12.159 40.457,15.435 C40.612,15.796 40.786,16.327 41.055,16.805 C42.008,18.499 42.095,20.116 40.788,21.69 C40.498,22.038 40.128,22.417 40.324,22.967 C40.188,22.969 40.053,22.97 39.917,22.972 C39.964,23.064 40.012,23.155 40.059,23.246 C40.133,23.134 40.206,23.022 40.28,22.911 L40.28,22.911 Z M34.522,43.04 C36.954,40.271 38.742,37.027 41.244,34.34 C41.46,34.109 41.622,33.826 41.799,33.561 C43.659,30.774 45.524,27.99 47.365,25.191 C47.516,24.962 47.507,24.628 47.61,24.179 C43.506,25.46 39.59,26.682 35.673,27.904 C33.68,31.897 32.866,36.27 30.788,40.293 C30.069,40.016 29.429,39.77 28.684,39.484 C28.684,38.785 28.524,38.111 28.715,37.559 C29.258,35.99 29.945,34.47 30.575,32.931 C30.96,31.991 31.344,31.052 31.715,30.146 C31.046,29.458 30.437,29.896 29.885,30.093 C25.074,31.812 20.271,33.558 15.47,35.305 C15.127,35.43 14.648,35.414 14.585,36.146 C15.207,36.48 15.871,36.893 16.58,37.203 C17.969,37.812 19.384,38.359 20.786,38.939 C23.294,39.975 25.875,40.791 28.493,41.492 C30.417,42.008 32.351,42.484 34.522,43.04 L34.522,43.04 Z M48.912,63.736 C48.867,63.578 48.823,63.421 48.779,63.264 C46.668,63.642 44.558,64.019 42.449,64.403 C42.295,64.431 42.146,64.505 42.003,64.575 C39.096,66.019 37.011,68.356 34.802,71.02 C35.341,70.962 35.589,71.001 35.762,70.906 C36.811,70.329 37.837,69.712 38.881,69.126 C41.584,67.61 44.078,65.716 47.051,64.69 C47.704,64.465 48.293,64.059 48.912,63.736 L48.912,63.736 Z" id="Fill-1" sketch:type="MSShapeGroup"></path>
            <path d="M61.986,87.362 C62.389,88.783 62.569,89.932 63.274,90.966 C63.601,91.447 63.634,92.156 63.706,92.773 C63.771,93.33 63.369,93.652 62.88,93.793 C62.197,93.989 61.498,94.134 60.804,94.291 C59.319,94.625 58.477,94.118 58.302,92.615 C57.766,88.031 56.942,83.467 57.254,78.731 C59.531,76.133 62.522,75.233 65.831,75.913 C69.721,76.712 71.066,79.613 69.587,83.047 C69.431,83.409 69.221,83.749 68.978,84.209 C69.208,84.564 69.37,85.081 69.721,85.312 C72.53,87.166 75.563,88.589 78.889,89.13 C80.598,89.407 82.391,89.234 84.141,89.16 C85.398,89.107 86.646,88.863 87.902,88.737 C88.656,88.66 88.758,88.741 89.723,89.747 C89.485,90.275 89.2,90.835 88.975,91.419 C88.715,92.09 88.239,92.408 87.547,92.518 C85.739,92.806 83.932,93.102 82.132,93.431 C79.475,93.918 76.881,93.392 74.318,92.854 C73.351,92.652 72.488,91.933 71.593,91.422 C70.07,90.554 68.448,89.783 67.344,88.376 C66.493,87.29 65.433,87.017 64.176,87.117 C63.548,87.168 62.922,87.256 61.986,87.362 L61.986,87.362 Z M61.605,84.287 C63.56,84.062 64.803,83.01 66.153,82.256 C66.754,81.92 66.824,80.666 66.485,80.039 C66.16,79.44 65.37,78.976 64.677,79.123 C63.533,79.366 62.327,79.511 61.34,80.417 C61.425,81.649 61.506,82.832 61.605,84.287 L61.605,84.287 Z" id="Fill-2" sketch:type="MSShapeGroup"></path>
            <path d="M83.702,113.234 L82.218,113.234 C82.111,113.433 81.968,113.574 81.972,113.711 C82.057,116.252 82.146,118.793 82.264,121.333 C82.316,122.451 81.777,123.109 80.638,123.186 C79.922,123.235 79.203,123.3 78.487,123.282 C77.448,123.258 76.859,122.617 76.944,121.602 C77.122,119.463 77.385,117.331 77.519,115.19 C77.598,113.927 77.523,112.651 77.47,111.382 C77.407,109.867 77.292,108.361 77.585,106.848 C77.704,106.241 77.551,105.586 77.594,104.957 C77.63,104.432 77.772,103.915 77.864,103.407 C78.853,103.149 79.717,102.684 80.529,102.762 C82.177,102.921 83.82,102.6 85.485,103.025 C87.973,103.661 89.708,106.116 89.078,108.592 C88.903,109.278 88.546,109.918 88.225,110.693 C88.529,113.563 90.688,115.27 92.73,117.045 C93.206,117.459 93.787,117.751 94.294,118.133 C96.076,119.472 98.068,119.697 100.187,119.277 C100.891,119.137 101.592,118.979 102.298,118.849 C102.53,118.806 102.774,118.801 103.01,118.815 C103.967,118.875 104.39,119.716 103.894,120.506 C102.777,122.287 101.055,123.013 99.074,123.21 C98.29,123.288 97.482,123.189 96.691,123.113 C95.822,123.03 94.928,122.986 94.099,122.742 C91.783,122.06 89.602,121.07 88.066,119.111 C86.598,117.24 85.225,115.294 83.702,113.234 L83.702,113.234 Z M82.101,110.385 C83.811,110.216 84.932,109.364 85.799,108.109 C85.926,107.926 85.954,107.663 85.991,107.43 C86.15,106.427 85.739,105.735 84.75,105.46 C83.84,105.207 82.915,104.945 81.957,105.251 C81.475,106.971 81.483,107.421 82.101,110.385 L82.101,110.385 Z" id="Fill-3" sketch:type="MSShapeGroup"></path>
            <path d="M60.174,41.351 C58.851,41.586 57.544,41.326 56.437,42.164 C55.959,43.643 57.188,44.766 57.143,46.208 C56.593,47.424 55.429,47.856 54.165,48.229 C53.139,48.531 52.468,48.21 51.858,47.244 C52.397,44.11 51.67,40.899 51.558,37.664 C51.497,35.899 51.326,34.207 50.601,32.585 C50.386,32.104 50.688,31.394 51.191,31.198 C52.152,30.824 53.129,30.487 54.115,30.183 C54.792,29.973 55.727,30.479 56.012,31.284 C56.274,32.029 56.435,32.823 56.532,33.608 C56.699,34.949 56.781,36.3 56.9,37.662 C58.106,38.058 58.953,37.289 60.026,37.193 C60.202,34.135 59.419,31.189 60.103,28.32 C60.633,27.749 61.246,27.706 61.901,27.887 C62.569,28.071 63.055,28.456 63.129,29.189 C63.226,30.142 63.299,31.099 63.366,32.056 C63.636,35.877 63.727,39.714 64.345,43.505 C64.509,44.511 64.681,45.515 64.845,46.492 C64.014,47.192 63.135,47.327 62.276,47.409 C60.759,47.552 59.949,46.583 60.179,45.018 C60.26,44.47 60.347,43.916 60.345,43.365 C60.342,42.734 60.243,42.104 60.174,41.351" id="Fill-4" sketch:type="MSShapeGroup"></path>
            <path d="M60.909,108.365 C60.228,108.082 59.554,107.863 58.939,107.534 C57.143,106.574 55.836,106.759 54.453,108.186 C53.529,109.139 52.925,110.28 52.765,111.562 C52.398,114.5 52.15,117.427 53.32,120.305 C54.577,123.396 56.539,124.456 59.716,123.453 C61.324,122.945 62.807,122.188 64.036,120.972 C65.077,119.943 66.308,120.329 66.644,121.743 C66.779,122.313 66.654,122.825 66.372,123.349 C65.567,124.841 64.225,125.861 62.781,126.397 C59.935,127.453 56.955,128.091 53.881,127.171 C52.026,126.616 50.699,125.549 49.883,123.74 C48.157,119.915 47.727,115.923 48.163,111.806 C48.444,109.155 49.786,107.021 51.568,105.106 C52.352,104.264 53.417,104.197 54.396,103.956 C55.235,103.749 56.138,103.786 57.015,103.756 C58.631,103.699 59.89,104.628 61.199,105.37 C61.814,105.718 61.929,106.685 61.539,107.508 C61.409,107.781 61.178,108.006 60.909,108.365" id="Fill-5" sketch:type="MSShapeGroup"></path>
            <path d="M100.455,48.039 C101.771,49.573 102.159,51.273 102.192,53.066 C102.231,55.242 102.798,57.319 103.276,59.415 C103.365,59.802 103.534,60.18 103.556,60.569 C103.601,61.353 103.569,62.143 103.569,62.933 C102.666,63.878 101.639,63.571 100.698,63.138 C100.345,62.975 100.04,62.425 99.962,62.006 C99.788,61.067 99.761,60.101 99.691,59.144 C99.628,58.28 99.52,57.431 99.11,56.409 C98.627,56.92 98.26,57.299 97.904,57.687 C97.529,58.094 97.079,58.103 96.586,57.975 C95.579,57.715 95.097,56.844 94.534,56.159 C93.967,56.159 94.03,56.552 94.01,56.83 C93.913,58.185 93.795,59.54 93.777,60.897 C93.761,62.074 93.477,63.103 92.496,64.02 C91.297,64.089 89.955,64.642 88.745,63.553 C88.408,62.881 88.69,62.179 88.713,61.472 C88.812,58.526 88.82,55.577 88.944,52.633 C89.008,51.126 89.224,49.623 89.422,48.125 C89.502,47.524 89.937,47.084 90.529,47.022 C90.865,46.987 91.269,47.205 91.576,47.409 C91.897,47.623 92.107,48 92.419,48.231 C93.521,49.047 94.446,50.005 95.094,51.228 C95.273,51.567 95.575,51.842 95.821,52.147 C96.984,51.169 96.984,51.169 98.135,48.102 C98.945,47.624 99.774,47.735 100.455,48.039" id="Fill-6" sketch:type="MSShapeGroup"></path>
            <path d="M38.281,85.846 C37.519,87.843 38.1,89.833 38.069,91.798 C38.041,93.544 38.195,95.296 38.334,97.04 C38.436,98.308 38.609,99.574 38.817,100.83 C38.951,101.64 38.747,102.287 38.048,102.672 C37.021,103.237 35.877,103.209 34.802,102.907 C34.315,102.769 33.938,102.237 33.899,101.603 C33.738,98.987 33.524,96.374 33.406,93.756 C33.345,92.418 33.452,91.074 33.471,89.732 C33.476,89.342 33.435,88.951 33.413,88.526 C32.425,88.299 31.85,88.967 31.236,89.399 C29.977,90.285 28.593,90.863 27.137,91.295 C26.424,91.506 25.88,91.29 25.495,90.698 C25.365,90.498 25.276,90.272 25.169,90.057 C24.318,88.338 24.491,87.91 26.272,87.239 C29.034,86.199 31.726,85.013 34.301,83.556 C35.054,83.13 35.917,82.899 36.728,82.572 C38.863,81.712 40.88,80.624 42.835,79.414 C43.24,79.163 43.685,78.974 44.124,78.785 C44.64,78.563 45.188,78.325 45.701,78.743 C46.2,79.148 46.439,80.351 46.129,80.946 C45.686,81.793 45.219,82.6 44.206,82.962 C43.084,83.363 41.997,83.872 40.919,84.385 C39.996,84.824 38.919,85.005 38.281,85.846" id="Fill-7" sketch:type="MSShapeGroup"></path>
            <path d="M55.21,78.845 C54.636,80.899 54.859,82.877 54.999,84.861 C55.169,87.249 55.291,89.641 55.378,92.033 C55.407,92.826 55.3,93.63 55.187,94.42 C55.053,95.366 54.525,95.864 53.564,95.804 C52.871,95.761 52.153,95.566 51.519,95.278 C50.712,94.911 50.306,94.128 50.562,93.295 C50.88,92.26 50.899,91.303 50.536,90.217 C48.973,90.468 47.561,90.918 46.186,91.684 C46.186,92.343 45.967,93.089 46.23,93.578 C46.82,94.676 46.282,95.789 46.516,96.882 C46.67,97.602 46.051,98.268 45.333,98.412 C44.242,98.631 43.143,98.839 41.973,98.636 C41.824,98.339 41.587,98.07 41.56,97.782 C41.41,96.208 41.206,94.628 41.223,93.053 C41.243,91.143 41.467,89.236 41.6,87.328 C41.68,86.176 42.803,85.153 44,85.148 C44.842,85.145 45.708,85.943 45.931,86.98 C45.995,87.279 45.941,87.603 45.941,88.05 C46.382,88.103 46.775,88.248 47.122,88.174 C48.359,87.909 49.58,87.569 50.888,87.238 C50.921,84.432 51.169,81.747 50.762,79.059 C50.582,77.871 50.788,77.442 51.577,77.086 C52.573,76.636 53.282,76.728 53.964,77.431 C54.349,77.828 54.698,78.26 55.21,78.845" id="Fill-8" sketch:type="MSShapeGroup"></path>
            <path d="M142.98,109.165 C141.122,109.829 141.122,109.829 139.316,109.132 C139.18,106.316 139.935,103.434 139.421,100.103 C138.937,100.93 138.653,101.369 138.415,101.832 C137.941,102.755 137.524,103.71 137.009,104.608 C136.888,104.82 136.458,104.98 136.195,104.948 C135.939,104.918 135.594,104.662 135.496,104.42 C134.986,103.167 134.561,101.88 134.064,100.622 C133.936,100.299 133.65,100.037 133.324,99.594 C133.143,100.026 132.983,100.227 132.99,100.422 C133.059,102.405 132.44,104.344 132.837,106.377 C133.05,107.467 132.606,108.685 132.454,109.878 C132.068,109.991 131.774,110.11 131.469,110.162 C129.057,110.574 128.755,110.255 128.61,107.805 C128.485,105.707 129.053,103.692 129.14,101.618 C129.215,99.795 129.636,97.984 129.944,96.174 C130.021,95.716 130.187,95.247 130.423,94.849 C130.676,94.42 131.136,94.162 131.649,94.286 C132.584,94.512 133.437,94.798 133.928,95.819 C134.506,97.02 135.292,98.121 136.06,99.385 C137.295,98.298 137.949,97.034 138.663,95.818 C138.863,95.477 138.999,95.099 139.177,94.744 C139.754,93.593 140.189,93.332 141.198,93.521 C142.486,93.763 143.055,94.363 143.054,95.619 C143.052,98.254 143.001,100.888 142.983,103.523 C142.971,105.354 142.98,107.184 142.98,109.165" id="Fill-9" sketch:type="MSShapeGroup"></path>
            <path d="M160.79,101.005 C160.313,100.063 159.756,99.094 159.318,98.073 C158.043,95.101 159.087,93.781 161.236,92.434 C163.264,91.163 165.689,90.715 168.152,90.994 C168.871,91.076 169.291,91.479 169.255,92.001 C169.204,92.728 168.763,93.284 168.137,93.343 C167.742,93.381 167.34,93.361 166.941,93.35 C165.583,93.312 164.485,93.864 163.517,94.78 C162.729,95.526 162.598,96.329 163.416,97.028 C164.38,97.853 165.423,98.618 166.529,99.232 C167.662,99.86 168.753,100.55 169.529,101.547 C171.564,104.164 171.66,105.379 170.198,108.339 C169.434,109.886 168.207,110.995 166.577,111.668 C165.772,112.001 165.004,112.455 164.28,112.944 C163.319,113.593 162.21,113.741 161.135,113.993 C160.469,114.149 159.845,113.92 159.473,113.306 C158.945,112.439 158.465,111.543 158.022,110.762 C158.437,109.969 158.921,109.627 159.614,109.52 C160.638,109.361 161.649,109.107 162.675,108.963 C163.886,108.792 165.002,108.39 166.012,107.717 C166.733,107.237 167.047,106.588 166.889,105.667 C166.612,104.044 165.923,102.837 164.243,102.319 C163.178,101.991 162.153,101.53 160.79,101.005" id="Fill-10" sketch:type="MSShapeGroup"></path>
            <path d="M109.678,80.721 C108.085,79.857 106.815,81.453 105.296,80.94 C105.072,80.103 105.584,79.452 105.791,78.597 C107.238,78.471 108.65,78.238 110.06,78.257 C111.499,78.276 112.216,79.069 112.25,80.536 C112.291,82.281 112.413,84.035 111.877,85.754 C111.351,87.444 110.287,88.338 108.547,88.785 C105.505,89.566 103.066,88.359 100.707,86.764 C100.289,86.481 99.97,85.91 99.817,85.408 C99.563,84.579 99.392,83.701 99.347,82.835 C99.271,81.405 99.23,79.959 99.357,78.536 C99.425,77.778 99.744,76.964 100.177,76.33 C101.32,74.656 102.726,73.302 104.842,72.838 C105.75,72.638 106.571,72.068 107.459,71.74 C108.368,71.404 109.05,71.62 109.3,72.217 C109.752,73.295 109.393,74.543 108.482,74.884 C108.042,75.049 107.554,75.088 107.085,75.173 C104.985,75.555 103.717,76.814 103.077,78.828 C102.658,80.15 102.374,81.435 102.897,82.794 C103.472,84.286 104.438,84.988 105.978,84.932 C106.374,84.918 106.776,84.859 107.162,84.767 C109.465,84.214 110.022,83.33 109.678,80.721" id="Fill-11" sketch:type="MSShapeGroup"></path>
            <path d="M122.258,76.457 C122.334,75.088 122.427,73.746 122.473,72.403 C122.497,71.705 122.775,71.177 123.32,70.77 C124.154,70.148 125.218,70.381 125.778,71.26 C126.094,71.756 126.229,72.254 126.188,72.842 C125.964,76.029 125.773,79.218 125.544,82.405 C125.487,83.193 125.328,83.974 125.209,84.801 C124.865,84.92 124.551,85.143 124.279,85.1 C123.433,84.964 122.484,85.553 121.745,84.872 C120.907,84.099 121.689,83.238 121.74,82.412 C121.789,81.619 121.751,80.822 121.751,79.902 C120.564,79.539 119.362,79.433 118.068,79.995 C117.962,81.903 118.15,83.831 117.391,85.817 C116.922,85.794 116.387,85.821 115.872,85.732 C114.481,85.492 114.412,85.301 114.51,83.832 C114.6,82.479 114.649,81.113 114.568,79.762 C114.439,77.621 114.187,75.486 113.965,73.114 C114.244,72.834 114.678,72.4 114.984,72.094 C115.755,71.953 117.179,72.675 117.383,73.252 C117.621,73.922 117.775,74.626 117.911,75.326 C118.014,75.862 118.032,76.414 118.093,77.003 C118.9,77.303 119.57,76.995 120.25,76.852 C120.863,76.723 121.48,76.609 122.258,76.457" id="Fill-12" sketch:type="MSShapeGroup"></path>
            <path d="M110.604,97.973 C113.063,97.262 115.604,97.158 118.089,96.729 C120.5,96.313 122.88,95.74 125.333,95.612 C126.076,96.122 126.331,96.916 126.408,97.683 C126.477,98.363 126.235,99.074 126.1,99.967 C124.319,100.859 122.084,99.859 120.082,100.972 C119.972,101.971 120.017,103.06 120.147,104.155 C120.365,105.974 120.595,107.793 120.76,109.618 C120.839,110.487 120.794,111.37 120.779,112.246 C120.768,112.891 120.38,113.313 119.791,113.433 C119.255,113.542 118.669,113.587 118.142,113.481 C117.823,113.417 117.484,113.059 117.316,112.746 C117.137,112.413 117.114,111.98 117.084,111.586 C116.914,109.366 116.79,107.141 116.596,104.923 C116.479,103.588 116.263,102.262 116.072,100.782 C115.456,100.829 115.009,100.868 114.562,100.896 C113.929,100.937 113.278,101.079 112.668,100.976 C112.071,100.875 111.43,100.63 110.964,100.254 C110.37,99.774 110.278,99.026 110.604,97.973" id="Fill-13" sketch:type="MSShapeGroup"></path>
            <path d="M70.805,110.153 C71.361,109.112 71.072,108.228 70.878,107.407 C70.667,106.511 70.829,105.666 70.877,104.795 C70.925,103.945 71.427,103.527 72.163,103.268 C73.128,102.929 73.75,103.143 73.974,104.176 C74.294,105.649 74.582,107.162 74.597,108.661 C74.617,110.817 74.715,112.938 75.265,115.033 C75.444,115.718 75.632,116.506 75.088,117.084 C74.377,117.839 73.448,117.548 72.611,117.303 C71.962,117.114 71.521,116.662 71.476,115.922 C71.428,115.141 71.365,114.361 71.304,113.521 C69.87,113.314 68.763,114.034 67.47,114.298 C67.381,115.764 67.295,117.164 67.203,118.666 C66.851,118.834 66.517,119.085 66.15,119.152 C64.571,119.439 63.88,118.906 63.758,117.336 C63.641,115.826 63.572,114.312 63.453,112.802 C63.346,111.45 63.226,110.097 62.543,108.872 C62.234,108.319 62.348,107.744 62.754,107.321 C63.462,106.585 64.199,105.849 65.39,105.594 C66.616,107.056 65.859,109.057 66.855,110.703 C68.18,110.643 69.527,110.255 70.805,110.153" id="Fill-14" sketch:type="MSShapeGroup"></path>
            <path d="M149.431,94.106 C150.081,94.001 150.697,93.825 151.315,93.82 C152.169,93.814 152.821,94.227 153.234,95.021 C154.155,96.788 155.272,98.472 156.003,100.312 C156.909,102.591 157.506,104.994 158.276,107.47 C157.376,107.872 156.607,108.216 155.723,108.612 C155.307,108.368 154.84,108.094 154.252,107.749 C154.168,106.767 154.08,105.749 153.993,104.732 C152.785,103.953 151.551,103.96 150.135,104.213 C149.629,105.672 149.113,107.162 148.606,108.624 C147.562,109.077 146.591,109.361 145.516,108.713 C144.99,107.391 145.419,106.083 145.848,104.814 C146.84,101.877 147.906,98.965 148.925,96.037 C149.107,95.515 149.209,94.966 149.431,94.106 L149.431,94.106 Z M152.35,101.205 C152.131,100.42 152.006,99.97 151.813,99.28 C151.337,99.824 150.858,100.092 151.182,100.617 C151.329,100.856 151.757,100.921 152.35,101.205 L152.35,101.205 Z" id="Fill-15" sketch:type="MSShapeGroup"></path>
            <path d="M102.504,112.127 C102.635,112.024 102.746,111.907 102.881,111.836 C103.567,111.472 104.225,110.966 104.957,110.802 C105.944,110.582 106.006,111.872 106.728,112.168 C106.931,112.25 107.179,112.222 107.389,112.243 C107.939,111.036 107.939,111.036 107.905,109.456 C107.199,108.74 106.328,108.227 105.311,107.93 C104.858,107.797 104.421,107.598 103.994,107.395 C101.678,106.296 100.851,104.312 100.976,101.918 C101.015,101.186 101.477,100.406 101.927,99.778 C102.984,98.304 104.357,97.249 106.28,97.203 C107.389,97.177 108.481,97.94 108.904,98.948 C109.193,99.634 108.81,100.176 108.583,100.761 C108.103,101.996 107.457,102.177 106.48,101.318 C106.077,100.964 105.711,100.569 105.327,100.19 C104.37,100.931 104.377,101.776 104.79,102.626 C105.467,104.017 106.366,105.244 107.903,105.782 C108.999,106.166 109.88,106.789 110.547,107.737 C111.568,109.185 111.669,110.86 111.632,112.528 C111.622,113.009 111.263,113.66 110.861,113.924 C109.113,115.074 107.222,115.843 105.046,115.681 C103.938,115.599 103.418,114.779 102.763,114.099 C102.184,113.497 102.182,112.832 102.504,112.127" id="Fill-16" sketch:type="MSShapeGroup"></path>
            <path d="M82.014,35.428 C82.451,36.379 83.161,36.907 83.863,37.401 C84.561,37.893 84.85,38.609 85.307,39.354 C84.525,40.337 83.544,40.541 82.535,40.129 C81.827,39.839 81.222,39.266 80.62,38.761 C80.032,38.268 79.507,37.701 78.82,37.036 C78.475,38.242 78.147,39.149 78.85,40.182 C79.342,40.906 79.108,41.323 78.377,41.709 C77.75,42.039 77.139,42.403 76.498,42.702 C75.857,43 75.175,42.697 75.007,41.998 C74.863,41.392 74.798,40.753 74.799,40.128 C74.801,37.982 74.929,35.854 74.467,33.706 C74.19,32.418 74.397,31.008 74.513,29.663 C74.548,29.262 74.936,28.802 75.287,28.531 C76.996,27.217 78.916,27.044 80.921,27.699 C81.443,27.87 81.92,28.189 82.407,28.459 C84.623,29.687 85.015,32.171 83.294,34.065 C82.876,34.525 82.444,34.971 82.014,35.428 L82.014,35.428 Z M77.357,34.065 C79.417,33.723 80.178,33.349 80.892,32.418 C81.424,31.725 81.256,30.912 80.529,30.4 C79.396,29.6 78.362,29.751 77.357,30.581 L77.357,34.065 L77.357,34.065 Z" id="Fill-17" sketch:type="MSShapeGroup"></path>
            <path d="M145.111,51.649 C144.887,51.283 144.507,50.918 144.453,50.511 C144.384,49.983 144.475,49.376 144.693,48.891 C144.821,48.606 145.309,48.424 145.672,48.312 C147.029,47.894 148.401,47.524 149.927,47.09 C150.087,47.284 150.343,47.557 150.549,47.864 C150.627,47.98 150.615,48.178 150.597,48.333 C150.36,50.384 150.113,52.434 149.872,54.484 C149.77,55.357 149.305,55.978 148.508,56.306 C147.554,56.698 146.601,57.153 145.602,57.364 C143.968,57.708 142.615,57.108 141.672,55.709 C141.362,55.25 141.077,54.754 140.89,54.235 C140.003,51.77 139.925,49.201 140.43,46.689 C140.955,44.074 142.87,42.447 145.2,41.38 C145.788,41.111 146.613,41.236 147.303,41.345 C148.26,41.495 148.716,42.565 148.177,43.346 C147.781,43.921 147.366,44.502 146.519,44.579 C144.603,44.754 143.847,46.142 143.453,47.778 C143.112,49.19 143.01,50.631 143.565,52.025 C143.864,52.775 144.273,53.431 145.115,53.743 C146.329,54.192 147.317,53.771 147.778,52.527 C148.052,51.788 147.637,51.229 146.87,51.326 C146.554,51.366 146.247,51.467 145.934,51.528 C145.704,51.573 145.47,51.597 145.111,51.649" id="Fill-18" sketch:type="MSShapeGroup"></path>
            <path d="M110.264,25.558 C110.292,26.084 110.353,26.479 110.321,26.868 C110.289,27.257 110.163,27.639 110.042,28.189 C108.996,28.418 107.935,28.651 106.886,28.881 C106.699,29.45 107.165,29.564 107.458,29.786 C108.867,30.855 110.134,32.021 110.729,33.777 C111.629,36.436 110.052,38.996 107.219,39.281 C106.04,39.4 104.841,39.344 103.652,39.331 C102.862,39.322 102.314,38.907 101.971,38.193 C101.592,37.4 101.215,36.615 101.215,35.703 C101.215,35.083 101.443,34.653 102.027,34.379 C102.624,34.099 103.11,34.221 103.534,34.668 C103.751,34.896 103.866,35.268 104.119,35.405 C104.522,35.624 104.994,35.751 105.451,35.826 C105.951,35.909 106.386,35.321 106.127,34.879 C105.648,34.063 105.107,33.28 104.536,32.525 C104.304,32.218 103.927,32.019 103.612,31.776 C102.016,30.544 101.923,29.13 102.482,27.041 C102.523,26.889 102.554,26.683 102.663,26.608 C103.706,25.891 104.699,25.046 105.841,24.542 C106.774,24.131 107.867,24.222 108.814,24.864 C109.203,25.127 109.668,25.278 110.264,25.558" id="Fill-19" sketch:type="MSShapeGroup"></path>
            <path d="M86.338,74.946 C88.413,74.817 88.413,74.817 89.981,76.209 C89.916,77.525 89.784,78.869 89.807,80.21 C89.822,81.077 89.988,81.961 90.227,82.797 C90.479,83.678 91.513,84.058 92.383,83.711 C93.555,83.243 94.216,82.156 94.196,80.614 C94.174,79.019 94.154,77.421 94.037,75.831 C93.966,74.882 94.357,74.32 95.222,73.883 C95.618,74.029 96.133,74.104 96.487,74.383 C96.826,74.651 97.173,75.112 97.214,75.519 C97.507,78.41 97.099,81.243 96.372,84.041 C96.182,84.773 95.759,85.327 95.194,85.801 C93.158,87.507 90.912,87.766 88.501,86.743 C87.764,86.431 87.236,85.919 86.766,85.205 C85.695,83.576 85.421,81.872 85.702,79.994 C85.948,78.358 86.119,76.712 86.338,74.946" id="Fill-20" sketch:type="MSShapeGroup"></path>
            <path d="M171.103,46.645 C170.156,46.46 169.454,46.345 168.766,46.174 C168.552,46.121 168.375,45.918 168.07,45.707 C168.037,44.995 168.001,44.217 167.959,43.296 C168.62,43.214 169.157,43.056 169.676,43.101 C171.123,43.227 172.541,43.11 173.966,42.859 C175.531,42.584 177.107,42.368 178.684,42.17 C178.969,42.134 179.344,42.226 179.569,42.4 C180.39,43.035 180.624,44.604 180.026,45.449 C179.862,45.681 179.541,45.89 179.263,45.936 C178.718,46.026 178.151,45.981 177.594,46.016 C176.691,46.074 176.085,46.514 175.938,47.442 C175.676,49.093 175.416,50.745 175.197,52.402 C175.062,53.43 175.042,54.474 174.901,55.5 C174.775,56.419 174.388,56.796 173.527,56.897 C172.895,56.97 172.251,56.993 171.616,56.967 C170.836,56.935 170.172,56.097 170.301,55.29 C170.414,54.587 170.517,53.849 170.815,53.217 C171.564,51.636 171.37,49.928 171.583,48.281 C171.646,47.789 171.29,47.242 171.103,46.645" id="Fill-21" sketch:type="MSShapeGroup"></path>
            <path d="M132.946,50.342 C133.045,52.127 133.119,53.462 133.215,55.178 C133.047,55.328 132.639,55.69 132.201,56.079 C131.757,55.905 131.398,55.747 131.027,55.622 C130.486,55.438 130.304,55.023 130.323,54.512 C130.415,52.125 130.514,49.739 130.629,47.353 C130.663,46.637 130.695,45.912 130.838,45.214 C130.985,44.497 131.322,43.854 132.284,43.632 C133.309,45.12 134.366,46.654 135.613,48.464 C135.582,46.098 135.556,44.073 135.529,42.048 C135.524,41.652 135.448,41.243 135.522,40.863 C135.724,39.839 137.118,39.242 137.988,39.87 C138.302,40.097 138.52,40.695 138.496,41.107 C138.426,42.285 138.173,43.451 138.057,44.629 C137.822,47.01 137.68,49.392 138.068,51.778 C138.156,52.323 138.159,52.902 138.079,53.447 C138.013,53.891 137.847,54.376 137.571,54.719 C137.298,55.057 136.849,55.409 136.445,55.451 C135.888,55.509 135.758,54.935 135.617,54.461 C135.189,53.019 134.709,51.598 132.946,50.342" id="Fill-22" sketch:type="MSShapeGroup"></path>
            <path d="M61.656,57.393 C60.266,57.604 58.949,57.804 57.523,58.021 C57.292,57.29 57.045,56.712 56.937,56.109 C56.805,55.377 57.31,54.682 58.058,54.534 C59.071,54.334 60.096,54.183 61.12,54.041 C63.172,53.756 65.231,53.542 67.218,52.876 C67.883,52.653 68.634,52.665 69.35,52.623 C69.656,52.606 69.985,52.686 70.279,52.792 C70.774,52.969 71.022,53.382 71.083,53.884 C71.149,54.431 70.851,54.824 70.371,54.999 C69.552,55.3 68.714,55.554 67.871,55.781 C67.106,55.986 66.325,56.129 65.453,56.322 C64.998,57.891 65.328,59.48 65.275,61.045 C65.222,62.62 65.177,64.195 65.129,65.743 C63.675,66.718 63.675,66.718 62.161,65.924 C61.454,63.156 62.329,60.259 61.656,57.393" id="Fill-23" sketch:type="MSShapeGroup"></path>
            <path d="M74.211,81.553 C74.018,79.835 74.937,78.297 76.007,76.921 C77.088,75.531 78.638,74.83 80.445,75.317 C82.065,75.754 83.311,76.718 83.754,78.431 C84.138,79.918 84.225,81.427 83.598,82.879 C83.382,83.38 83.14,83.967 82.73,84.266 C81.585,85.1 80.357,85.822 79.136,86.544 C78.886,86.691 78.515,86.703 78.21,86.677 C75.784,86.466 74.033,84.409 74.176,81.968 C74.181,81.888 74.189,81.809 74.211,81.553 L74.211,81.553 Z M80.342,83.495 C80.593,82.862 80.853,82.368 80.984,81.843 C81.285,80.638 80.921,79.651 79.859,78.965 C79.526,78.75 79.18,78.553 78.823,78.382 C77.771,77.88 76.698,78.621 76.758,79.795 C76.863,81.857 77.741,82.814 80.342,83.495 L80.342,83.495 Z" id="Fill-24" sketch:type="MSShapeGroup"></path>
            <path d="M74.792,54.127 C76.79,54.099 79.214,55.693 79.952,57.542 C80.287,58.379 80.254,59.257 80.053,60.136 C79.696,61.704 78.698,62.946 77.521,63.824 C75.119,65.616 71.774,64.447 70.518,62.094 C69.652,60.471 70.036,58.629 70.689,56.985 C71.324,55.388 72.791,54.654 74.36,54.16 C74.507,54.113 74.675,54.134 74.792,54.127 L74.792,54.127 Z M74.315,61.862 C74.857,61.581 75.389,61.401 75.802,61.071 C76.939,60.165 76.991,59.083 76.008,57.999 C75.596,57.545 75.074,57.417 74.49,57.593 C73.913,57.766 73.495,58.134 73.438,58.751 C73.343,59.779 73.244,60.827 74.315,61.862 L74.315,61.862 Z" id="Fill-25" sketch:type="MSShapeGroup"></path>
            <path d="M71.197,29.37 C71.127,29.992 71.057,30.612 70.973,31.357 C70.235,31.687 69.44,32.028 68.66,32.399 C68.242,32.599 68.139,32.964 68.272,33.399 C68.412,33.859 68.751,34.012 69.189,33.94 C69.501,33.889 69.8,33.763 70.11,33.692 C70.957,33.498 71.668,33.726 72.328,34.493 C71.774,36.098 70.728,37.295 69.022,37.93 C69.143,38.434 69.231,38.796 69.337,39.239 C70.205,39.014 70.959,38.784 71.727,38.63 C72.368,38.502 72.818,38.869 72.899,39.494 C73.063,40.751 72.853,41.138 71.717,41.741 C71.015,42.113 70.334,42.526 69.626,42.885 C69.123,43.14 68.604,43.237 68.011,43.095 C67.034,42.861 66.615,42.51 66.53,41.52 C66.434,40.413 66.468,39.29 66.323,38.191 C66.073,36.298 65.725,34.419 65.427,32.533 C65.365,32.141 65.306,31.743 65.308,31.349 C65.311,30.542 65.716,29.987 66.484,29.733 C67.389,29.433 68.303,29.157 69.214,28.874 C69.965,28.641 70.619,28.797 71.197,29.37" id="Fill-26" sketch:type="MSShapeGroup"></path>
            <path d="M89.409,30.472 C89.356,30.842 89.27,31.149 89.282,31.452 C89.294,31.757 89.403,32.058 89.462,32.326 C89.703,32.373 89.867,32.456 90.005,32.423 C92.109,31.927 92.109,31.924 93.214,33.977 C92.501,35.311 90.921,34.831 89.811,35.566 C89.693,36.233 89.743,36.912 90.321,37.621 C91.104,37.515 91.955,37.31 92.804,37.317 C93.312,37.322 94.001,37.519 94.27,37.881 C94.521,38.219 94.324,38.89 94.324,39.521 C93.869,39.635 93.499,39.737 93.125,39.821 C91.965,40.082 90.8,40.323 89.642,40.595 C88.036,40.971 87.146,40.234 87.047,38.527 C86.894,35.899 86.68,33.274 86.494,30.648 C86.46,30.171 86.408,29.693 86.411,29.215 C86.415,28.4 86.814,27.835 87.614,27.638 C88.772,27.354 89.933,27.063 91.109,26.876 C91.847,26.759 92.545,27.194 92.705,27.68 C92.987,28.541 92.583,29.518 91.751,29.881 C91.391,30.038 90.993,30.114 90.609,30.21 C90.229,30.304 89.844,30.378 89.409,30.472" id="Fill-27" sketch:type="MSShapeGroup"></path>
            <path d="M121.324,50.772 C121.821,51.466 122.401,52.314 123.019,53.132 C123.575,53.867 123.872,54.682 123.724,55.582 C123.669,55.917 123.387,56.363 123.101,56.471 C122.801,56.584 122.269,56.464 122.021,56.243 C121.618,55.884 121.35,55.367 121.049,54.901 C120.58,54.172 120.13,53.431 119.609,52.593 C118.932,52.855 118.371,53.072 117.707,53.328 C117.707,54.032 117.728,54.665 117.699,55.296 C117.684,55.61 117.661,55.979 117.492,56.216 C117.286,56.505 116.948,56.79 116.618,56.868 C116.403,56.918 115.939,56.65 115.865,56.43 C115.591,55.614 115.163,54.719 115.278,53.924 C115.656,51.31 115.556,48.685 115.703,46.068 C115.73,45.596 115.75,45.104 115.9,44.664 C116.053,44.212 116.408,43.759 116.941,43.884 C117.266,43.96 117.633,44.312 117.769,44.63 C117.948,45.049 117.976,45.558 117.966,46.025 C117.947,46.891 117.852,47.755 117.78,48.737 C118.811,48.568 119.302,47.832 119.836,47.193 C120.396,46.523 120.865,45.775 121.433,45.112 C121.9,44.566 122.507,44.475 122.912,44.778 C123.412,45.153 123.752,45.952 123.503,46.456 C123.224,47.017 122.859,47.552 122.449,48.028 C121.809,48.77 121.307,49.546 121.324,50.772" id="Fill-28" sketch:type="MSShapeGroup"></path>
            <path d="M113.553,58.462 C111.872,58.164 112.496,56.29 111.4,55.373 C110.589,55.45 109.66,55.539 108.592,55.641 C108.399,56.375 108.26,57.063 108.034,57.723 C107.78,58.464 107.491,59.2 107.137,59.898 C106.908,60.35 106.311,60.423 105.878,60.158 C104.819,59.51 104.598,58.768 104.961,57.574 C105.378,56.205 105.713,54.812 106.072,53.426 C106.431,52.037 106.745,50.636 107.141,49.258 C107.314,48.653 107.604,48.072 107.907,47.515 C108.505,46.415 109.503,46.38 110.096,47.421 C110.293,47.766 110.453,48.134 110.609,48.5 C111.79,51.281 113.027,54.034 114.533,56.659 C114.899,57.295 114.672,57.669 113.553,58.462 L113.553,58.462 Z M109.63,51.64 C109.504,52.163 109.293,52.533 109.878,52.632 C109.975,52.649 110.099,52.504 110.211,52.433 C110.048,52.211 109.885,51.988 109.63,51.64 L109.63,51.64 Z" id="Fill-29" sketch:type="MSShapeGroup"></path>
            <path d="M165.388,55.357 C161.955,56.933 161.633,55.474 161.951,52.912 C162.166,51.179 162.394,49.447 162.545,47.709 C162.683,46.13 162.803,44.557 162.379,42.971 C162.001,41.556 162.277,41.222 163.728,40.708 C164.027,40.602 164.329,40.503 164.632,40.41 C165.797,40.054 166.7,40.679 166.754,41.874 C166.757,41.953 166.772,42.033 166.764,42.111 C166.345,46.456 165.924,50.802 165.498,55.146 C165.491,55.219 165.426,55.287 165.388,55.357" id="Fill-30" sketch:type="MSShapeGroup"></path>
            <path d="M92.374,101.601 C92.514,101.492 92.57,101.431 92.64,101.396 C95.332,100.027 95.836,100.975 95.995,103.227 C96.096,104.65 96.327,106.066 96.547,107.477 C96.631,108.017 96.856,108.535 97.002,109.066 C97.378,110.434 97.8,111.793 98.096,113.178 C98.265,113.966 97.666,114.547 96.857,114.548 C96.541,114.548 96.224,114.495 95.908,114.473 C94.145,114.353 93.849,114.141 93.503,112.476 C93.31,111.55 93.26,110.596 93.11,109.659 C92.836,107.94 92.543,106.225 92.245,104.509 C92.083,103.576 91.821,102.644 92.374,101.601" id="Fill-31" sketch:type="MSShapeGroup"></path>
            <path d="M53.86,-0.308 C54.125,-0.221 54.406,-0.211 54.536,-0.066 C54.797,0.225 54.949,0.61 55.19,0.921 C56.33,2.389 56.185,3.648 55.065,5.193 C53.973,6.698 53.029,8.397 52.64,10.301 C52.529,10.841 52.372,11.385 52.142,11.884 C51.705,12.833 50.421,13.358 49.547,13.007 C48.78,12.698 48.351,11.571 48.672,10.562 C48.959,9.655 49.242,8.737 49.646,7.879 C50.524,6.015 51.468,4.181 52.405,2.345 C52.828,1.517 53.298,0.713 53.86,-0.308" id="Fill-32" sketch:type="MSShapeGroup"></path>
            <path d="M20.578,20.306 C20.686,21.279 19.703,22.018 18.943,21.77 C18.167,21.516 17.517,21.08 17.055,20.379 C16.353,19.314 15.592,18.285 14.925,17.198 C13.715,15.226 12.55,13.227 11.382,11.229 C11.142,10.818 10.916,10.381 10.786,9.927 C10.71,9.662 10.745,9.277 10.895,9.057 C11.137,8.702 11.547,8.635 11.951,8.872 C12.494,9.189 13.07,9.462 13.568,9.839 C14.671,10.673 15.453,11.815 16.04,13.024 C17.161,15.334 18.639,17.403 20.086,19.5 C20.306,19.818 20.49,20.161 20.578,20.306" id="Fill-33" sketch:type="MSShapeGroup"></path>
            <path d="M25.649,1.348 C26.457,2.176 26.915,3.083 27.228,4.07 C27.349,4.453 27.424,4.935 26.996,5.125 C26.285,5.441 26.376,5.992 26.492,6.525 C26.911,8.461 27.136,10.444 28.002,12.273 C28.258,12.813 28.257,13.475 28.384,14.136 C27.246,14.551 26.37,14.155 25.552,13.736 C25.266,13.59 25.068,13.106 24.991,12.743 C24.405,9.95 23.833,7.154 23.322,4.347 C23.213,3.753 23.374,3.111 23.412,2.461 C24.212,2.063 24.909,1.716 25.649,1.348" id="Fill-34" sketch:type="MSShapeGroup"></path>
            <path d="M125.77,55.462 C125.503,52.589 125.814,49.889 125.933,47.187 C125.975,46.231 126.068,45.278 126.142,44.324 C126.166,44.007 126.118,43.642 126.261,43.388 C126.436,43.075 126.735,42.752 127.057,42.622 C127.455,42.461 127.81,42.721 128.03,43.106 C128.523,43.966 128.637,44.921 128.649,45.878 C128.686,48.662 128.68,51.446 128.696,54.231 C128.704,55.684 128.267,56.083 126.811,55.87 C126.507,55.825 126.224,55.645 125.77,55.462" id="Fill-35" sketch:type="MSShapeGroup"></path>
            <path d="M10.898,25.927 C11.243,26.983 10.734,27.57 10.145,27.927 C9.732,28.177 9.014,28.264 8.58,28.079 C6.183,27.055 3.607,26.409 1.463,24.828 C1.272,24.688 1.051,24.587 0.863,24.443 C0.413,24.098 0.408,23.62 0.587,23.159 C0.78,22.663 1.208,22.418 1.729,22.514 C2.192,22.599 2.641,22.779 3.088,22.94 C5.026,23.636 6.967,24.326 8.896,25.048 C9.624,25.32 10.322,25.672 10.898,25.927" id="Fill-36" sketch:type="MSShapeGroup"></path>
            <path d="M96.588,29.196 C95.901,28.346 95.761,27.647 96.007,26.943 C96.293,26.124 96.666,25.331 97.055,24.553 C97.528,23.604 98.701,23.203 99.719,23.59 C100.709,23.966 100.911,24.622 100.258,25.402 C99.392,26.436 98.529,27.474 97.628,28.478 C97.38,28.755 97.003,28.916 96.588,29.196" id="Fill-37" sketch:type="MSShapeGroup"></path>
            <path d="M54.954,16.699 C54.771,16.527 54.424,16.319 54.251,16.013 C53.966,15.508 54.11,14.678 54.514,14.497 C55.811,13.915 57.126,13.371 58.455,12.865 C58.716,12.766 59.077,12.858 59.372,12.936 C59.857,13.064 60.099,13.696 59.8,14.086 C59.516,14.456 59.212,14.873 58.817,15.086 C57.775,15.648 56.681,16.116 55.602,16.608 C55.465,16.671 55.293,16.655 54.954,16.699" id="Fill-38" sketch:type="MSShapeGroup"></path>
            <path d="M5.114,35.724 C4.29,35.966 3.597,36.119 2.946,36.376 C2.318,36.625 1.733,36.981 1.13,37.29 C0.376,36.046 0.353,35.666 1.197,35.154 C1.932,34.707 2.725,34.315 3.541,34.054 C4.682,33.69 5.041,34.077 5.114,35.724" id="Fill-39" sketch:type="MSShapeGroup"></path>
        </g>
    </g>
</svg>