<svg xmlns="http://www.w3.org/2000/svg" viewBox="0 0 172.4 130.9" enable-background="new 0 0 172.4 130.9"><g><path d="M39.2 27.2c1.6-.1 3-.8 4.5-1.3 1.2-.3 2.4-.8 3.6-1.2l1.1-.3c1.2-.2 2.9.8 3.2 1.9.1.3 0 .8-.1 1.1-.6 1.2-1.1 2.5-1.9 3.6-2.4 3.3-4.6 6.8-6.8 10.3-1.4 2.3-3 4.4-4.8 6.4-.4.4-.8.9-1.2 1.5l.5 2.1c.9 2.4 1.8 4.9 2.8 7.3.4 1 .9 2 1.4 3.1.3.7.8 1 1.6 1 1.1 0 2.2 0 3.4-.1 1.3-.1 2.7-.1 4-.3 1.3-.2 2.5.3 3.7.8.8.3 1 1.2.3 1.8-1.2.9-2.4 1.9-3.7 2.6-2.7 1.5-5.5 2.9-8.4 4.2-2.9 1.3-5.7 2.8-8.6 4.2l-3.9 2.2c-1.7.9-2.8.9-5 .5-.2-.7-.1-1.2.4-1.8 1.8-2 3.6-4 5.6-5.8.7-.6 1.3-1.5 1.9-2.2 1.5-1.9 3.2-3.5 5.1-5.2l-1.5-4.5-1.4-4.7c-.5-1.5-.9-3-1.4-4.4-2.9-1.7-6.1-2.5-9.3-3.3-1.4-.3-2.7-.8-4.1-1.2-1.4-.5-2.8-1.1-4.3-1.4-1.9-.3-3.4-1.4-5.1-2.1-1.6-.7-1.7-3.3-.1-4 .9-.4 1.9-.9 2.9-1.3 3.6-1.4 7.1-2.7 10.7-4l5.5-1.9c1.1-.4 2.1-.7 3.1-1.1.2-.6.3-1.1.4-1.5-.1-.2-.1-.4-.2-.5-1.7-1.2-1.9-2.9-2-4.8 0-1 .3-1.8 1-2.4.5-.4 1-.7 1.5-1 .7-.4 1.5-.7 2.4-1.1.3-.6.6-1.4.9-2.1l1.6-3.9c.5-1.1.8-2.2.2-3.4-.1-.2-.1-.4-.1-.7.2-.7.7-1.4 1.4-1.6.8-.2 1.8-.3 2.7-.1 1.4.2 2.1 1.7 1.7 3.1-.4 1.4-.5 1.4-2.4 1.9-1.6 2.6-1.9 5.6-2.5 8.7.1.3.3.8.6 1.3.9 1.6 1 3.1-.3 4.6-.4.2-.8.6-.6 1-.1.1-.2.1-.3.1l.1.3c0-.2.1-.3.2-.4zm-5.4 18.9l6.3-8.2c.2-.2.4-.5.5-.7l5.2-7.8c.1-.2.1-.5.2-.9-3.8 1.2-7.5 2.3-11.2 3.5-1.9 3.7-2.6 7.8-4.6 11.6l-2-.8c0-.7-.2-1.3 0-1.8.5-1.5 1.2-2.9 1.7-4.3.4-.9.7-1.8 1.1-2.6-.6-.6-1.2-.2-1.7 0-4.5 1.6-9 3.2-13.5 4.9-.3.1-.8.1-.8.8.6.3 1.2.7 1.9 1 1.3.6 2.6 1.1 3.9 1.6 2.4 1 4.8 1.7 7.2 2.4 1.9.3 3.7.8 5.8 1.3zm13.5 19.4l-.1-.4c-2 .4-4 .7-5.9 1.1-.1 0-.3.1-.4.2-2.7 1.4-4.7 3.5-6.8 6l.9-.1c1-.5 1.9-1.1 2.9-1.7 2.5-1.4 4.9-3.2 7.7-4.2.5-.2 1.1-.6 1.7-.9zM59.5 87.7c.4 1.3.5 2.4 1.2 3.4.3.5.3 1.1.4 1.7.1.5-.3.8-.8 1l-1.9.5c-1.4.3-2.2-.2-2.3-1.6-.5-4.3-1.3-8.6-1-13 2.1-2.4 4.9-3.3 8-2.6 3.6.7 4.9 3.5 3.5 6.7-.1.3-.3.7-.6 1.1.2.3.4.8.7 1 2.6 1.7 5.5 3.1 8.6 3.6 1.6.3 3.3.1 4.9 0 1.2 0 2.3-.3 3.5-.4.7-.1.8 0 1.7.9-.2.5-.5 1-.7 1.6-.2.6-.7.9-1.3 1-1.7.3-3.4.5-5.1.9-2.5.5-4.9 0-7.3-.5-.9-.2-1.7-.9-2.6-1.3-1.4-.8-2.9-1.5-4-2.9-.8-1-1.8-1.3-3-1.2-.4-.1-1 0-1.9.1zm-.3-2.9c1.8-.2 3-1.2 4.3-1.9.6-.3.6-1.5.3-2.1-.3-.6-1-1-1.7-.9-1.1.2-2.2.4-3.1 1.2 0 1.2.1 2.3.2 3.7zM79.9 111.9h-1.4c-.1.2-.2.3-.2.4.1 2.4.2 4.8.3 7.1 0 1-.5 1.7-1.5 1.7l-2 .1c-1 0-1.5-.6-1.4-1.6.2-2 .4-4 .5-6 .1-1.2 0-2.4 0-3.6-.1-1.4-.2-2.8.1-4.3.1-.6 0-1.2 0-1.8 0-.5.2-1 .3-1.5.9-.2 1.7-.7 2.5-.6 1.5.1 3.1-.2 4.6.2 2.3.6 4 2.9 3.4 5.2-.2.6-.5 1.2-.8 2 .3 2.7 2.3 4.3 4.2 6 .4.4 1 .7 1.5 1 1.7 1.3 3.5 1.5 5.5 1.1l2-.4h.7c.9.1 1.3.8.8 1.6-1 1.7-2.7 2.4-4.5 2.5-.7.1-1.5 0-2.2-.1-.8-.1-1.7-.1-2.4-.3-2.2-.6-4.2-1.6-5.7-3.4-1.6-1.5-2.9-3.3-4.3-5.3zm-1.5-2.6c1.6-.2 2.7-1 3.5-2.1l.2-.6c.1-.9-.2-1.6-1.2-1.8-.9-.2-1.7-.5-2.6-.2-.5 1.5-.5 1.9.1 4.7zM57.8 44.5c-1.2.2-2.5 0-3.5.8-.4 1.4.7 2.4.7 3.8-.5 1.1-1.6 1.5-2.8 1.9-1 .3-1.6 0-2.2-.9.5-2.9-.2-5.9-.3-9-.1-1.7-.2-3.2-.9-4.8-.2-.5.1-1.1.6-1.3.9-.4 1.8-.7 2.7-1 .6-.2 1.5.3 1.8 1 .2.7.4 1.4.5 2.2.2 1.3.2 2.5.3 3.8 1.1.4 1.9-.3 2.9-.4.2-2.9-.6-5.6.1-8.3.5-.5 1.1-.6 1.7-.4.6.2 1.1.5 1.2 1.2.1.9.2 1.8.2 2.7.3 3.6.3 7.2.9 10.7l.5 2.8c-.8.7-1.6.8-2.4.9-1.4.1-2.2-.8-2-2.2.1-.5.2-1 .2-1.6 0-.6-.1-1.2-.2-1.9zM58.5 107.4c-.6-.3-1.3-.5-1.8-.8-1.7-.9-2.9-.7-4.2.6-.9.9-1.4 2-1.6 3.2-.3 2.8-.6 5.5.5 8.2 1.2 2.9 3 3.9 6 3 1.5-.5 2.9-1.2 4.1-2.3 1-1 2.1-.6 2.4.7.1.5 0 1-.3 1.5-.8 1.4-2 2.4-3.4 2.9-2.7 1-5.5 1.6-8.3.7-1.7-.5-3-1.5-3.7-3.2-1.6-3.6-2-7.3-1.6-11.2.3-2.5 1.5-4.5 3.2-6.3.7-.8 1.7-.9 2.7-1.1.8-.2 1.6-.2 2.5-.2 1.5-.1 2.7.8 3.9 1.5.6.3.7 1.2.3 2-.2.2-.4.4-.7.8zM95.6 50.8c1.2 1.4 1.6 3 1.6 4.7 0 2 .6 4 1 6l.3 1.1v2.2c-.8.9-1.8.6-2.7.2-.3-.2-.6-.7-.7-1.1l-.2-2.7c-.1-.8-.2-1.6-.5-2.6-.5.5-.8.8-1.1 1.2-.4.4-.8.4-1.2.3-.9-.2-1.4-1.1-1.9-1.7-.5 0-.5.4-.5.6-.1 1.3-.2 2.5-.2 3.8 0 1.1-.3 2.1-1.2 2.9-1.1.1-2.4.6-3.5-.4-.3-.6-.1-1.3 0-2l.2-8.3.4-4.2c.1-.6.5-1 1-1 .3 0 .7.2 1 .4l.8.8c1 .8 1.9 1.7 2.5 2.8l.7.9c1.1-.9 1.1-.9 2.2-3.8.6-.5 1.4-.4 2-.1zM37.3 86.3c-.7 1.9-.2 3.7-.2 5.6 0 1.6.1 3.3.2 4.9.1 1.2.3 2.4.5 3.6.1.8-.1 1.4-.7 1.7-1 .5-2 .5-3 .2-.5-.1-.8-.6-.8-1.2-.2-2.5-.4-4.9-.5-7.4-.1-1.3 0-2.5.1-3.8 0-.4 0-.7-.1-1.1-.9-.2-1.5.4-2 .8-1.2.8-2.5 1.4-3.8 1.8-.7.2-1.2 0-1.5-.6l-.3-.6c-.8-1.6-.6-2 1-2.6 2.6-1 5.1-2.1 7.5-3.5.7-.4 1.5-.6 2.3-.9 2-.8 3.9-1.8 5.7-3l1.2-.6c.5-.2 1-.4 1.5 0s.7 1.5.4 2.1c-.4.8-.9 1.6-1.8 1.9-1.1.4-2.1.9-3.1 1.3s-2 .6-2.6 1.4zM53.2 79.7c-.5 1.9-.3 3.8-.2 5.6.2 2.2.3 4.5.4 6.7 0 .7-.1 1.5-.2 2.2-.1.9-.6 1.4-1.5 1.3-.6 0-1.3-.2-1.9-.5-.8-.3-1.1-1.1-.9-1.9.3-1 .3-1.9 0-2.9-1.5.2-2.8.7-4.1 1.4 0 .6-.2 1.3 0 1.8.6 1 0 2.1.3 3.1.1.7-.4 1.3-1.1 1.4-1 .2-2.1.4-3.2.2-.1-.3-.4-.5-.4-.8-.1-1.5-.3-3-.3-4.4 0-1.8.2-3.6.4-5.4.1-1.1 1.1-2 2.3-2 .8 0 1.6.7 1.8 1.7.1.3 0 .6 0 1 .4 0 .8.2 1.1.1 1.2-.2 2.3-.6 3.5-.9 0-2.6.3-5.1-.1-7.7-.2-1.1 0-1.5.8-1.9.9-.4 1.6-.3 2.2.3.3.6.6 1 1.1 1.6zM135.5 108.1c-1.7.6-1.7.6-3.4 0-.1-2.6.6-5.3.1-8.5-.5.8-.7 1.2-.9 1.6-.4.9-.8 1.8-1.3 2.6-.1.2-.5.3-.8.3-.2 0-.6-.3-.7-.5-.5-1.2-.9-2.4-1.3-3.6-.1-.3-.4-.5-.7-1-.2.4-.3.6-.3.8.1 1.9-.5 3.7-.1 5.6.2 1-.2 2.2-.4 3.3-.4.1-.6.2-.9.3-2.3.4-2.5.1-2.7-2.2-.1-2 .4-3.9.5-5.8.1-1.7.5-3.4.8-5.1.1-.4.2-.9.4-1.2.2-.4.7-.6 1.1-.5.9.2 1.7.5 2.1 1.4.5 1.1 1.3 2.2 2 3.3 1.2-1 1.8-2.2 2.4-3.3l.5-1c.5-1.1.9-1.3 1.9-1.1 1.2.2 1.7.8 1.7 2l-.1 7.4c.1 1.7.1 3.4.1 5.2zM152.2 100.5l-1.4-2.7c-1.2-2.8-.2-4 1.8-5.3 1.9-1.2 4.2-1.6 6.5-1.4.7.1 1.1.5 1 .9 0 .7-.5 1.2-1 1.3h-1.1c-1.3 0-2.3.5-3.2 1.3-.7.7-.9 1.5-.1 2.1.9.8 1.9 1.5 2.9 2.1 1.1.6 2.1 1.2 2.8 2.2 1.9 2.5 2 3.6.6 6.4-.7 1.5-1.9 2.5-3.4 3.1-.8.3-1.5.7-2.2 1.2-.9.6-1.9.7-2.9 1-.6.1-1.2-.1-1.6-.6-.5-.8-.9-1.7-1.4-2.4.4-.7.8-1.1 1.5-1.2l2.9-.5c1.1-.2 2.2-.5 3.1-1.2.7-.5 1-1.1.8-1.9-.3-1.5-.9-2.7-2.5-3.1-.9-.4-1.8-.8-3.1-1.3zM104.3 81.5c-1.5-.8-2.7.7-4.1.2-.2-.8.3-1.4.5-2.2 1.4-.1 2.7-.3 4-.3 1.3 0 2 .8 2.1 2.1 0 1.6.2 3.3-.3 4.9-.5 1.6-1.5 2.4-3.1 2.8-2.9.7-5.1-.4-7.4-1.9-.4-.3-.7-.8-.8-1.3-.2-.8-.4-1.6-.4-2.4-.1-1.3-.1-2.7 0-4 .1-.7.4-1.5.8-2.1 1.1-1.6 2.4-2.8 4.4-3.3.9-.2 1.6-.7 2.5-1 .9-.3 1.5-.1 1.7.4.4 1 .1 2.2-.8 2.5-.4.2-.9.2-1.3.3-2 .4-3.2 1.5-3.8 3.4-.4 1.2-.7 2.4-.2 3.7.5 1.4 1.4 2.1 2.9 2 .4 0 .7-.1 1.1-.2 2-.4 2.5-1.2 2.2-3.6zM116.1 77.5c.1-1.3.2-2.5.2-3.8 0-.7.3-1.1.8-1.5.8-.6 1.8-.4 2.3.5.3.5.4.9.4 1.5l-.6 9-.3 2.2c-.3.1-.6.3-.9.3-.8-.1-1.7.4-2.4-.2-.8-.7-.1-1.5 0-2.3v-2.4c-1.1-.3-2.2-.4-3.5.1-.1 1.8.1 3.6-.6 5.5-.4 0-.9 0-1.4-.1-1.3-.2-1.4-.4-1.3-1.8.1-1.3.1-2.5.1-3.8-.1-2-.4-4-.6-6.2l1-1c.7-.1 2.1.5 2.2 1.1.2.6.4 1.3.5 1.9.1.5.1 1 .2 1.6.8.3 1.4 0 2-.1.5-.3 1.1-.4 1.9-.5zM105.1 97.6c2.3-.7 4.7-.8 7-1.2 2.3-.4 4.5-.9 6.8-1 .7.5.9 1.2 1 1.9.1.6-.2 1.3-.3 2.1-1.7.8-3.8-.1-5.6.9-.1.9-.1 2 .1 3l.6 5.1c.1.8 0 1.6 0 2.5 0 .6-.4 1-.9 1.1-.5.1-1.1.1-1.5 0-.3-.1-.6-.4-.8-.7-.2-.3-.2-.7-.2-1.1-.2-2.1-.3-4.2-.5-6.2-.1-1.3-.3-2.5-.5-3.9-.6 0-1 .1-1.4.1-.6 0-1.2.2-1.8.1-.6-.1-1.2-.3-1.6-.7-.6-.3-.7-1-.4-2zM67.8 109.1c.5-1 .3-1.8.1-2.6-.2-.8 0-1.6 0-2.4 0-.8.5-1.2 1.2-1.4.9-.3 1.5-.1 1.7.9.3 1.4.6 2.8.6 4.2 0 2 .1 4 .6 6 .2.6.3 1.4-.2 1.9-.7.7-1.5.4-2.3.2-.6-.2-1-.6-1.1-1.3 0-.7-.1-1.5-.2-2.3-1.3-.2-2.4.5-3.6.7l-.3 4.1c-.3.2-.6.4-1 .5-1.5.3-2.1-.2-2.2-1.7-.1-1.4-.2-2.8-.3-4.3-.1-1.3-.2-2.5-.9-3.7-.3-.5-.2-1.1.2-1.5.7-.7 1.4-1.4 2.5-1.6 1.2 1.4.4 3.2 1.4 4.8 1.3-.1 2.6-.4 3.8-.5zM141.5 94c.6-.1 1.2-.3 1.8-.3.8 0 1.4.4 1.8 1.1.9 1.7 1.9 3.2 2.6 5 .8 2.1 1.4 4.4 2.1 6.7l-2.4 1.1c-.4-.2-.8-.5-1.4-.8-.1-.9-.2-1.9-.2-2.8-1.1-.7-2.3-.7-3.6-.5-.5 1.4-1 2.8-1.4 4.1-1 .4-1.9.7-2.9.1-.5-1.2-.1-2.5.3-3.7.9-2.8 1.9-5.5 2.9-8.2.1-.5.2-1 .4-1.8zm2.8 6.7c-.2-.7-.3-1.2-.5-1.8-.4.5-.9.8-.6 1.3l1.1.5zM97.5 110.9c.1-.1.2-.2.4-.3.6-.3 1.3-.8 1.9-1 .9-.2 1 1 1.7 1.3.2.1.4.1.6.1.5-1.1.5-1.1.5-2.6-.7-.7-1.5-1.2-2.4-1.4-.4-.1-.8-.3-1.2-.5-2.2-1-2.9-2.9-2.8-5.1 0-.7.5-1.4.9-2 1-1.4 2.3-2.4 4.1-2.4 1 0 2.1.7 2.5 1.6.3.6-.1 1.2-.3 1.7-.4 1.2-1.1 1.3-2 .5-.4-.3-.7-.7-1.1-1.1-.9.7-.9 1.5-.5 2.3.6 1.3 1.5 2.5 2.9 3 1 .4 1.9.9 2.5 1.8 1 1.4 1.1 2.9 1 4.5 0 .5-.3 1.1-.7 1.3-1.6 1.1-3.4 1.8-5.5 1.6-1-.1-1.5-.8-2.1-1.5-.7-.5-.7-1.1-.4-1.8zM78.3 39c.4.9 1.1 1.4 1.7 1.9.7.5.9 1.1 1.4 1.8-.7.9-1.7 1.1-2.6.7-.7-.3-1.2-.8-1.8-1.3l-1.7-1.6c-.3 1.1-.6 2 0 3 .5.7.2 1.1-.4 1.4-.6.3-1.2.7-1.8.9-.6.3-1.2 0-1.4-.7-.1-.6-.2-1.2-.2-1.8 0-2 .1-4-.3-6-.3-1.2-.1-2.5 0-3.8 0-.4.4-.8.7-1.1 1.6-1.2 3.4-1.4 5.3-.8l1.4.7c2.1 1.2 2.4 3.5.8 5.3-.3.5-.7.9-1.1 1.4zm-4.4-1.3c1.9-.3 2.6-.7 3.3-1.5.5-.6.3-1.4-.3-1.9-1.1-.7-2-.6-3 .2v3.2zM137.5 54.2c-.2-.3-.6-.7-.6-1.1-.1-.5 0-1.1.2-1.5.1-.3.6-.4.9-.5 1.3-.4 2.6-.7 4-1.1l.6.7c.1.1.1.3 0 .4-.2 1.9-.5 3.8-.7 5.8-.1.8-.5 1.4-1.3 1.7-.9.4-1.8.8-2.7 1-1.5.3-2.8-.2-3.7-1.6-.3-.4-.6-.9-.7-1.4-.8-2.3-.9-4.7-.4-7.1.5-2.5 2.3-4 4.5-5 .6-.3 1.3-.1 2 0 .9.1 1.3 1.1.8 1.9-.4.5-.8 1.1-1.6 1.2-1.8.2-2.5 1.5-2.9 3-.3 1.3-.4 2.7.1 4 .3.7.7 1.3 1.5 1.6 1.1.4 2.1 0 2.5-1.1.3-.7-.1-1.2-.9-1.1-.3 0-.6.1-.9.2-.2-.1-.4-.1-.7 0zM104.8 29.7c0 .5.1.9.1 1.2 0 .4-.1.7-.3 1.2l-3 .6c-.2.5.3.6.5.8 1.3 1 2.5 2.1 3.1 3.7.8 2.5-.6 4.9-3.3 5.2-1.1.1-2.2.1-3.3 0-.7 0-1.3-.4-1.6-1.1-.4-.7-.7-1.5-.7-2.3 0-.6.2-1 .8-1.2.6-.3 1-.1 1.4.3.2.2.3.6.5.7.4.2.8.3 1.2.4.5.1.9-.5.6-.9-.4-.8-1-1.5-1.5-2.2-.2-.3-.6-.5-.9-.7-1.5-1.2-1.6-2.5-1.1-4.4 0-.1.1-.3.2-.4 1-.7 1.9-1.5 3-1.9.9-.4 1.9-.3 2.8.3.5.3.9.5 1.5.7zM82.4 76c1.9-.1 1.9-.1 3.4 1.2-.1 1.2-.2 2.5-.2 3.8 0 .8.2 1.6.4 2.4.2.8 1.2 1.2 2 .9 1.1-.4 1.7-1.5 1.7-2.9 0-1.5 0-3-.1-4.5-.1-.9.3-1.4 1.1-1.8.4.1.9.2 1.2.5.3.3.6.7.7 1.1.3 2.7-.1 5.4-.8 8-.2.7-.6 1.2-1.1 1.6-1.9 1.6-4 1.8-6.3.9-.7-.3-1.2-.8-1.6-1.4-1-1.5-1.3-3.1-1-4.9l.6-4.9zM161.9 49.5c-.9-.2-1.5-.3-2.2-.4-.2 0-.4-.2-.7-.4 0-.7-.1-1.4-.1-2.3.6-.1 1.1-.2 1.6-.2 1.4.1 2.7 0 4-.2 1.5-.3 2.9-.5 4.4-.6.3 0 .6.1.8.2.8.6 1 2.1.4 2.9-.2.2-.5.4-.7.5l-1.6.1c-.8.1-1.4.5-1.6 1.3-.2 1.5-.5 3.1-.7 4.7-.1 1-.1 1.9-.3 2.9-.1.9-.5 1.2-1.3 1.3-.6.1-1.2.1-1.8.1-.7 0-1.4-.8-1.2-1.6.1-.7.2-1.4.5-1.9.7-1.5.5-3.1.7-4.6.3-.7-.1-1.2-.2-1.8zM126.1 53c.1 1.7.2 2.9.3 4.5-.2.1-.5.5-1 .8-.4-.2-.8-.3-1.1-.4-.5-.2-.7-.6-.7-1l.3-6.7c0-.7.1-1.4.2-2 .1-.7.5-1.3 1.4-1.5 1 1.4 2 2.8 3.1 4.5 0-2.2-.1-4.1-.1-6 0-.4-.1-.8 0-1.1.2-1 1.5-1.5 2.3-.9.3.2.5.8.5 1.2l-.4 3.3c-.2 2.2-.4 4.5 0 6.7.1.5.1 1.1 0 1.6-.1.4-.2.9-.5 1.2-.3.3-.7.6-1.1.7-.5.1-.6-.5-.8-.9-.3-1.5-.8-2.9-2.4-4zM59.2 59.6c-1.3.2-2.5.4-3.9.6-.2-.7-.4-1.2-.5-1.8-.1-.7.4-1.3 1.1-1.5l2.9-.5c1.9-.3 3.9-.5 5.7-1.1.6-.2 1.3-.2 2-.2.3 0 .6.1.9.2.5.2.7.6.8 1 .1.5-.2.9-.7 1-.8.3-1.6.5-2.3.7-.7.2-1.4.3-2.3.5-.4 1.5-.1 3-.2 4.4 0 1.5-.1 3-.1 4.4-1.4.9-1.4.9-2.8.2-.8-2.5.1-5.2-.6-7.9zM71 82.2c-.2-1.6.7-3.1 1.7-4.3 1-1.3 2.5-2 4.2-1.5 1.5.4 2.7 1.3 3.1 2.9.4 1.4.4 2.8-.1 4.2-.2.5-.4 1-.8 1.3-1.1.8-2.2 1.5-3.4 2.1-.2.1-.6.1-.9.1-2.3-.2-3.9-2.1-3.8-4.4v-.4zm5.7 1.9c.2-.6.5-1.1.6-1.5.3-1.1-.1-2.1-1.1-2.7-.3-.2-.6-.4-1-.5-1-.5-2 .2-1.9 1.3.2 1.8 1 2.7 3.4 3.4zM71.5 56.5c1.9 0 4.1 1.5 4.8 3.2.3.8.3 1.6.1 2.4-.3 1.5-1.3 2.6-2.4 3.5-2.3 1.7-5.4.6-6.6-1.6-.8-1.5-.5-3.2.2-4.8.6-1.5 2-2.2 3.4-2.6.3-.1.4-.1.5-.1zm-.4 7.3c.5-.3 1-.4 1.4-.7 1.1-.9 1.1-1.9.2-2.9-.4-.4-.9-.5-1.4-.4-.5.2-.9.5-1 1.1-.1.9-.2 1.9.8 2.9zM68.2 33.3c-.1.6-.1 1.2-.2 1.9-.7.3-1.4.6-2.2 1-.4.2-.5.5-.4.9.1.4.4.6.9.5l.9-.2c.8-.2 1.5 0 2.1.8-.5 1.5-1.5 2.6-3.1 3.2.1.5.2.8.3 1.2.8-.2 1.5-.4 2.2-.6.6-.1 1 .2 1.1.8.2 1.2 0 1.5-1.1 2.1-.7.3-1.3.7-2 1.1-.5.2-1 .3-1.5.2-.9-.2-1.3-.5-1.4-1.5l-.2-3.1-.8-5.3c-.1-.4-.1-.7-.1-1.1 0-.8.4-1.3 1.1-1.5.8-.3 1.7-.5 2.6-.8.6-.3 1.2-.1 1.8.4zM85.2 34.3l-.1.9c0 .3.1.6.2.8.2 0 .4.1.5.1 2-.5 2-.5 3 1.5-.7 1.3-2.2.8-3.2 1.5-.1.6-.1 1.3.5 1.9.7-.1 1.5-.3 2.3-.3.5 0 1.1.2 1.4.5.2.3.1.9.1 1.5-.4.1-.8.2-1.1.3l-3.3.7c-1.5.4-2.3-.3-2.4-1.9-.1-2.5-.3-4.9-.5-7.4l-.1-1.3c0-.8.4-1.3 1.1-1.5 1.1-.3 2.2-.5 3.3-.7.7-.1 1.3.3 1.5.8.3.8-.1 1.7-.9 2.1-.3.1-.7.2-1.1.3-.4.1-.7.1-1.2.2zM115.2 53.4c.5.7 1 1.4 1.6 2.2.5.7.8 1.5.7 2.3-.1.3-.3.7-.6.8-.3.1-.8 0-1-.2-.4-.3-.6-.8-.9-1.3-.4-.7-.9-1.4-1.4-2.2-.6.2-1.2.4-1.8.7v1.8c0 .3 0 .6-.2.9-.2.3-.5.5-.8.6-.2 0-.6-.2-.7-.4-.3-.8-.7-1.6-.6-2.4.4-2.5.3-4.9.4-7.4 0-.4 0-.9.2-1.3.1-.4.5-.8 1-.7.3.1.6.4.8.7.2.4.2.9.2 1.3 0 .8-.1 1.6-.2 2.5 1-.2 1.4-.8 1.9-1.4.5-.6 1-1.3 1.5-2 .4-.5 1-.6 1.4-.3.5.4.8 1.1.6 1.6-.3.5-.6 1-1 1.5-.7.8-1.1 1.5-1.1 2.7zM107.9 60.6c-1.6-.3-1-2-2-2.9-.8.1-1.6.2-2.6.3l-.5 2c-.2.7-.5 1.4-.8 2-.2.4-.8.5-1.2.2-1-.6-1.2-1.3-.9-2.4.4-1.3.7-2.6 1-3.9.3-1.3.6-2.6 1-3.9.2-.6.4-1.1.7-1.6.6-1 1.5-1.1 2.1-.1l.5 1c1.1 2.6 2.3 5.2 3.7 7.7.3.5 0 .8-1 1.6zm-3.7-6.4c-.1.5-.3.8.2.9.1 0 .2-.1.3-.2-.1-.2-.3-.4-.5-.7zM156.5 57.7c-3.2 1.5-3.5.1-3.2-2.3.2-1.6.4-3.2.6-4.9.1-1.5.2-3-.2-4.4-.4-1.3-.1-1.6 1.3-2.1.3-.1.6-.2.8-.3 1.1-.3 1.9.3 2 1.4v.2l-1.2 12.2s-.1.1-.1.2zM88 101l.2-.2c2.5-1.3 3-.4 3.1 1.7.1 1.3.3 2.7.5 4l.4 1.5c.4 1.3.7 2.6 1 3.9.2.7-.4 1.3-1.2 1.3-.3 0-.6 0-.9-.1-1.7-.1-1.9-.3-2.3-1.9-.2-.9-.2-1.8-.4-2.6l-.8-4.8c.2-.9-.1-1.8.4-2.8zM51.9 5.5c.2.1.5.1.6.2l.6.9c1.1 1.4.9 2.6-.1 4s-1.9 3-2.3 4.8c-.1.5-.3 1-.5 1.5-.4.9-1.6 1.4-2.4 1.1-.7-.3-1.1-1.3-.8-2.3.3-.9.5-1.7.9-2.5.8-1.7 1.7-3.5 2.6-5.2.4-.8.9-1.6 1.4-2.5zM20.7 24.8c.1.9-.8 1.6-1.5 1.4-.7-.2-1.3-.6-1.8-1.3-.7-1-1.4-2-2-3-1.1-1.8-2.2-3.7-3.3-5.6l-.6-1.2c-.1-.2 0-.6.1-.8.2-.3.6-.4 1-.2l1.5.9c1 .8 1.8 1.9 2.3 3 1.1 2.2 2.4 4.1 3.8 6.1.2.2.4.6.5.7zM25.5 7c.8.8 1.2 1.6 1.5 2.6.1.4.2.8-.2 1-.7.3-.6.8-.5 1.3.4 1.8.6 3.7 1.4 5.4.2.5.2 1.1.4 1.7-1.1.4-1.9 0-2.7-.4-.3-.1-.5-.6-.5-.9-.5-2.6-1.1-5.2-1.6-7.9-.1-.6 0-1.2.1-1.8.7-.3 1.4-.6 2.1-1zM119.3 57.8c-.3-2.7 0-5.2.2-7.8 0-.9.1-1.8.2-2.7 0-.3 0-.6.1-.9.2-.3.4-.6.7-.7.4-.2.7.1.9.5.5.8.6 1.7.6 2.6v7.8c0 1.4-.4 1.7-1.8 1.5-.2 0-.4-.2-.9-.3zM11.6 30.1c.3 1-.2 1.5-.7 1.9-.4.2-1.1.3-1.5.1-2.2-1-4.7-1.6-6.7-3-.2-.1-.4-.2-.6-.4-.4-.3-.4-.8-.3-1.2.3-.5.7-.7 1.2-.6.4.1.9.2 1.3.4l5.4 2c.7.2 1.4.5 1.9.8zM92 33.1c-.6-.8-.8-1.5-.5-2.1.3-.8.6-1.5 1-2.2.4-.9 1.5-1.3 2.5-.9.9.4 1.1 1 .5 1.7-.8 1-1.6 1.9-2.5 2.9-.3.2-.6.4-1 .6zM52.9 21.4l-.7-.6c-.3-.5-.1-1.3.2-1.4 1.2-.5 2.5-1.1 3.7-1.5.2-.1.6 0 .9.1.5.1.7.7.4 1.1-.3.3-.6.7-.9.9-1 .5-2 1-3 1.4h-.6zM6.2 39.3c-.8.2-1.4.4-2 .6-.6.2-1.1.6-1.7.9-.7-1.2-.7-1.5.1-2 .7-.4 1.4-.8 2.2-1 1-.5 1.3-.1 1.4 1.5z"/></g></svg>