<svg xmlns="http://www.w3.org/2000/svg" viewBox="0 0 172.4 130.9" enable-background="new 0 0 172.4 130.9"><g><path d="M159.8 46.4c-.2 0-.4 0-.5-.1-.5-.3-1-.6-1.4-1.1-.8-1-1.9-1.5-3-2-1.2-.6-2.4-.7-3.7-.7-2 0-4 0-6 .2-3.9.4-7.9.7-11.7 1.7-.6.2-1.2.3-1.9.5-.9 2.2-1.5 4.4-1.2 6.8 0 .4.2.7.4 1.1.9 0 1.4-.5 1.7-1.1.6-1 1.2-1.9 1.6-3 .4-1 1.2-1.8 1.8-2.6.1-.2.5-.1.9-.2.2.8.4 1.6.5 2.4.3-.2.6-.5 1-.7l1.2-.6c.8-.3 1.1-.3 1.7.3.2.2.4.6.6.9.3-.2.5-.4.8-.5.4-.2.8-.5 1.3-.7 1.1-.4 1.9-.1 2.3 1.1.4 1.1.6 2.3.3 3.5-.2.8-.4 1.6-.1 2.5 1-.1 1.9-.4 2.4-1.3.8-1.5 2.3-2.3 3.8-2.7.6-.2 1.3 0 2 .1v1.5c0 .7-.1 1.4-.1 2 0 .5 0 1.1.5 1.5.1 0 .3.1.4 0 1.4-.5 2.7-1.1 3.8-2.1.1-.1.3-.2.3-.3.4-.8 1.1-1 2-1.2.1 1 .9 1.6.9 2.7 0 1 0 1.9-.3 3 1.2.2 2.3-.3 3.3-.5 1.1-.2 2.2-.5 3.2-.9 1-.3 2.1-.8 3.1-1.2 0 .6-.7.6-.8 1.1 0 .2.1.4.2.6l-3.2 1.5c-2 .9-4 1.1-6.2 1.1-.8 0-1.6 0-2.3.1-.8.2-1.4-.1-2.1-.5-.7-.5-1.3-1-1.7-1.8-1.7.7-2.7-.3-3.7-1.4-.8.4-1.3 1.1-2.3.9-.9-.1-1.5-.5-1.9-1.2-.9-.2-1.8.5-2.7.1-.6-.5-.7-1.1-.6-1.9.2-1.1.3-2.1.4-3.2v-.7c-.5-.3-.8-.2-1.1 0-1.1.7-1.9 1.7-2.3 2.9-.2.6-.5 1.2-.8 1.7-.1.2-.4.3-.6.3-.3 0-.6-.5-.5-.8 0-.2.1-.4.2-.5.4-1.2.6-2.4.6-3.7-.3-.3-.6-.2-.8 0-1.1.8-1.8 1.9-2.4 3.1-.2.4-.4.9-.7 1.3-.3.4-.8.5-1.1.3-.2-.2-.3-.5-.2-.9l.8-2.4c.1-.4.2-.9.2-1.3l-.1-.6c-.5.1-.7.4-.9.8l-1 1.8c-.5.9-1.1 1.7-2 2.3-.4.3-.8.5-1.3.6-.8.2-1.1.1-1.4-.8-.2-.6-.4-1.3-.6-2-.2.1-.3.2-.4.3-1.1 1.5-2.7 2.3-4.4 2.9-.8.3-1.5.2-2.1-.5l-.3-.3c-.4-.5-.9-.5-1.4-.3-1.3.5-1.3.4-2.2-.5l-.9.7c-1 .6-2 .3-2.5-.7-.3-.6-.5-1.2-.4-2 0-.4 0-.9-.1-1.3 0-.1-.3-.1-.5-.2-.1.2-.1.4-.1.5.2 1.1-.3 2.1-.7 3.1-.4 1.2-1.7 2-3 2-.7 0-1.5-.8-1.6-1.6l-.3-3.2c0-.4-.1-.9-.2-1.3-.1-.7-.1-.7-.9-1.5-.7.1-1.2.3-1.6 1-1.1 1.5-1.7 3.2-1.7 5v2.1c-.1.1-.2.3-.4.6-.2 0-.4 0-.5-.1-.4-.2-.5-.6-.6-1-.2-1.2-.6-2.5-.6-3.8l-.1-4.4v-1.9c0-1.2 0-2.4-.1-3.7-.2-1.7-.3-3.4-.1-5.1v-.7c-.1-.6.1-1 .3-1.5 1.6.5 2.1 1.2 1.9 2.7-.5 3.2-.1 6.3-.1 9.5 0 .2.1.4.2.7.3-.2.4-.3.6-.4l1.2-1c1.5-.9 3.3-.1 3.7 1.6.2.9.4 1.7.3 2.6-.1.9 0 1.9.3 2.8.1.2.1.5.3.7.2.4.5.5.8.3.3-.3.8-.5.9-.9.4-.8.6-1.6.8-2.5.1-.5 0-.9-.3-1.4-.4-.6-.5-1.3-.7-2 .3-.5.6-1 1.2-.9.6.1.8.7 1 1.1.1.3.2.6.3 1h1.6c.1.7.2 1.4.2 2 0 .5 0 1.1.1 1.6.1.4.2.7.7.9.8-.2 1.3-.8 1.5-1.6.2-1.2.7-2.3.8-3.6 0-.2.3-.3.5-.5l.9.9c.1.8-.2 1.7-.4 2.5-.2.7-.2 1.3.3 1.8.8-.1 1.3-.6 1.8-1 .7-.7 1.3-1.5 1.5-2.5l.2-.9c.1-.3.3-.6.5-.9 1.2.2 1.6 1.2 2.1 2s.7 1.8 1 2.7c1.4-1 2.3-2.3 2.5-3.9.1-.6.2-1.2.3-1.7v-.9c-.3 0-.6 0-.9-.1-.9-.1-1.8-.2-2.8-.3-.9-.1-1.7-.6-2.4-1-.5-.4-.6-.8-.3-1.4.3-.4.5-.5 1-.4l2 .6c1.2.4 2.5.5 3.7.3.1-.2.2-.3.2-.4.4-1.5.7-3 1.1-4.6l.4-.9c.2-1.1 1.1-1.5 2.1-1.8 0 0 .1 0 .2.1.2.9.1 1.8-.1 2.8l-1.1 3.9v.5c1.2-.1 2.4-.2 3.5-.4 1.7-.3 3.4-.6 5-.9 1.4-.2 2.8-.5 4.2-.5 1.8-.1 3.7 0 5.5.2 1.4.2 2.9.5 4.3 1 1.9.8 3.4 2 4.7 3.6-.2.4-.1.8-.4 1.2zm-37 5.5c.7.6 1.4.7 2.1.6.1 0 .4-.3.4-.4 0-.5 0-1.1-.2-1.6-.2-.6-.4-1.2-.9-1.6-.2.1-.3.1-.3.2-.3 1-.7 1.9-1.1 2.8zm27.3 2.9c.9 0 1 0 1.8-.9.6-.7.8-1.5.7-2.5-.4.1-.7.2-.9.3l-1.1.9c-.7.6-.9 1.4-.5 2.2zm7.1 1.3c.6.6 1.3.9 2 1.1.3.1.5-.1.5-.4.1-.8.5-1.6.2-2.4-1.2 0-1.9.9-2.7 1.7zm3.9-1.1v-.1.1zM22.3 50.5c.1-.2.2-.3.2-.4-.1-1.6.4-3 .9-4.4.4-1 1-2 2.2-2.4.7-.2 1.3-.2 2 .2 1 .6 1.8 1.3 2.2 2.3l1.2 2.8c.8 2.3 1.5 4.6 2.1 7 .4 1.4.8 2.8 1.1 4.3.3 1.9 1.1 3.6 2.1 5.3.3.5.7.8 1 1.2.6.6 1.3.9 2.1.9l1.3.1c.3.1.6.5.5.8-.1.4-.3.8-.4 1.3-1.5-.1-3-.4-4.4-1-1.4-.6-2.2-1.8-3-2.9-.3-.4-.5-.9-.8-1.4-.4-.7-.7-1.5-.9-2.3-.6-2.3-1-4.6-1.3-6.9-.3-1.7-.6-3.4-1-5-.2-.9-.6-1.9-1-2.8-.4-.5-.8-.9-1.4-1.2-.5-.2-1-.1-1.3.4-.1.1-.2.2-.2.4-.6 2-1.2 3.9-1 6 .2 1.9.7 3.7 1.5 5.5.8 1.7 1.5 3.5 2.2 5.3l.2.9c-.3.3-.6.5-1 .8l-.4-.2c-.6-.3-.8-.7-1-1.3l-2.2-5.6c-.2-.6-.4-1.3-.7-1.9-.7-1.9-1.6-3.5-3.2-4.8-.3-.3-.7-.5-1.1-.6-1.3-.3-2.1.2-2.3 1.5-.3 1.8-.2 3.5.6 5.2.4.9.7 1.8 1 2.8.8 2.7 2.1 5.1 3.3 7.7l.5 1.1c.3.8.3.8-.4 1.2-.8.5-1.5.2-1.8-.7l-.4-1.2-1.3-2.9c-.5-1.1-.9-2.2-1.4-3.2-.6-1.2-1.1-2.5-1.8-3.7-1.1-1.8-2.4-3.3-4.3-4.3-.3-.2-.7-.3-1-.2-1.7.2-3.3.7-4.4 2.3-.2.3-.7.6-.7.9l-.7 2.5v2.5l.8.7c1 .9 2.5.6 3-.6.3-.7.4-1.4 0-2.1.2-.8.5-1 .9-1.4.2.2.5.3.6.6.4.8.7 1.7.7 2.7 0 1.4-1.1 2.6-2.4 3-.8.2-1.5.4-2.3.5-.6.1-1.2 0-1.7-.3-.9-.5-1.5-1.3-2.2-2.1-.1 0-.1-.1-.1-.2-.3-1.2-.6-2.4-.3-3.6.4-1.5.9-2.9 1.7-4.2.4-.7 1-1.3 1.6-1.9.1-.1.2-.2.4-.2.6-.3 1.2-.6 1.8-.8.7-.3 1.4-.4 2.1-.4 1.5 0 2.9 0 4.3.6.4-.7.8-1.3 1-1.9.4-1.1 1.3-1.8 2.1-2.5.1-.1.3-.2.5-.2 1.5-.2 3-.1 4.3 1 .6.4 1.1.9 1.8 1.4zM75.7 56.1c-1 1.1-1.8 1.8-3.1 1.9-1.2.1-2.3.4-3.4-.1-.3.6-.7 1.1-.9 1.7-.4 1.3-1.5 1.7-2.6 2.1-.2.1-.5.1-.7.1-1.6.2-2.5-.4-3.1-1.9-.1-.2-.1-.4-.1-.6v-2.7c-.4-.3-.7 0-1 0l-.9.1c-.6 1.1-1.2 2.2-1.7 3.3-.5 1.1-1.4 1.9-2.4 2.5-1.2.7-2.5.5-3.7.2-.3-.1-.5-.4-.7-.7-.6-1-.6-2.1-.8-3.2-.1-.3-.1-.7-.2-1.1-.4.1-.7.2-1.1.2-.7.1-1.1.6-1.2 1.3-.3 1.6-1.3 2.9-2.3 4.2-.9 1-2.2 1.4-3.4 1.5-.6 0-1.3-.2-1.9-.6l-1.6-1c-.4.2-.7.3-1.1.4-.2 0-.5 0-.5-.1-.1-.2-.2-.5 0-.7.2-.3.6-.5.9-.8-.1-.3-.1-.6-.2-1-.3-1-.2-1.9 0-2.9.2-.9.7-1.5 1.3-2.1.1-.1.2-.2.4-.2 1-.3 2.2.5 2.2 1.5s-.3 1.9-.7 2.8c-.2.5-.5 1-.7 1.4.6 1 1.6 1 2.5 1.2.8.1 1.5-.2 2.1-.7 1.2-1.1 1.9-2.5 2-4.1-.3-.2-.8-.4-1-.7-.2-.3-.3-.7-.4-1l.4-1.8c.1-.5.3-.8.8-.9.3 0 .6 0 .8-.1.9.8.9 1.8 1.2 2.8.9.1 1.6-.3 2.2-.8.2-.2.3-.4.5-.5.4-.3.8-.1 1 .4l.2.6c-.7 1.2-.6 2.6-.4 4 .2 1 .8 1.3 1.7 1.1.9-.2 1.6-.6 2-1.5l1-2.3c.2-.6.3-1.3 0-2s-.2-1.5.2-2.3c.5-.2 1-.6 1.7-.6.9.7.8 1.8 1.1 2.8 1.3 0 2.3-.4 2.9-1.5.2-.4.4-.7.8-.8.5.2.7.4.6 1l-.5 2.7c-.1.8 0 1.7.3 2.4.4 1 1.4 1.4 2.4.8.7-.5 1.2-1.2 1.4-2 .2-1 .5-2 .3-3-.2-1.1-.1-2.3-.2-3.6.7-.2 1.3-.4 2-.4.4.8.4 1.5.4 2.3 0 .7.2 1.3.4 1.8.2.4.6.6 1.1.5 1.3-.3 2.3-1 3-2.1.2-.3.2-.7.2-1 0-.8 0-1.6-.1-2.3 0-1.1.2-2.2.6-3.3.1-.3.3-.6.5-.6.3-.1.6 0 1 0 .1 1.3.5 2.4.3 3.7-.1 1.3-.2 2.6.1 3.9.1.2.2.3.3.6.7-.5 1.3-.9 2-1.3.5-.4 1.1-.6 1.7-.8.5-.1 1-.3 1.5-.5.9-.3 1.7-.1 2.6.2.3.1.5.4.4.7-.1.3-.3.5-.6.5h-.4c-1.9-.4-3.4.4-4.9 1.5-.7.5-1.2 1.1-1.9 1.7-.1.7.1 1.3.3 1.9l.8 3.4c.2 1.4.2 2.9.3 4.4.1 1.1 0 2.1-.2 3.2-.4 1.9-1.3 3.4-3 4.3-.5.2-1 .4-1.5.5-.7.2-1.2-.1-1.8-.5-1.4-1.2-2.1-2.7-2-4.5.1-1.5.1-3 .5-4.5.3-1.1.7-2.2 1.4-3.2.9-1.3 1.4-2.9 2.4-4.2.2-.1.1-.5.2-1zm.7 2.9c-1.1 1.5-1.7 2.9-1.9 4.5 0 .2 0 .5-.2.7-.4.5-.3 1.1-.4 1.7l-.1 1.3c-.1.8 0 1.6.1 2.5.2.9.7 1.5 1.5 1.9.8.4 1.5.2 2-.5.8-.9.9-2.1.8-3.2 0-1.2-.2-2.3-.4-3.5-.1-.6-.1-1.2-.3-1.7-.2-1.2-.7-2.3-1.1-3.7zm-36.3.2c.6-.9.6-1.3.3-1.5h-.1c-.6.4-.4 1-.3 1.5h.1zM102 57.1c.2.6.3 1 .4 1.4-1.6 1.3-3.3 1.7-5.3 1.4-2.3-.3-4-1.6-5.6-3.2-1.4-1.5-2.2-3.2-2.6-5.1l-1-4.4c-.4-2.5-.1-4.8.8-7.2.6-1.6 1.6-2.8 2.9-3.8.9-.7 2-1 3.1-1.1.8-.1 1.5.2 2.1.8 1 .9 1.7 1.9 2.2 3.1.4 1 .5 2.1.4 3.2 0 .3-.2.6-.4.9-.2.4-.5.7-.8 1-1 1.1-2.6 1-3.5-.2-.7-1-.7-2-.4-3.1.2-.7.6-.8 1.5-.8.1.4-.3.8 0 1.2.2.3-.2.5-.4.7-.2.2-.1.5 0 .7.1.1.4.2.5.2.8-.1 1.3-.6 1.4-1.3.1-1.4.1-2.8-.9-4-.6-.7-1.2-.9-2.1-.6-1.2.4-2.1 1-2.6 2.2-.5 1.3-1.1 2.5-1.3 3.9 0 .2-.1.5-.2.7-.8 3.2-.3 6.3 1.2 9.2 1 1.9 2.5 3.4 4.6 4.1 1 .4 2.1.5 3.2.4.6 0 1.2-.1 1.8-.2.4-.2.7-.2 1-.1zM118.9 41.9c.5.3.8.7.8 1.2 0 .6-.2 1.1-.3 1.7-.1.2-.6.3-.8.1-.1-.1-.2-.2-.2-.3 0-.5-.1-1.1 0-1.6 0-.4.1-.8.5-1.1zM95.1 79.6c-.3.1-.5.2-.8.2-.5.1-1 .3-1.5.3-.6 0-1.2-.1-1.5-.7l-1.4 1.1c-.6.5-1.3.9-2.2 1l-2.1.4c-.2.8-.1 1.7 0 2.5l.7 3.9c.1.4.1.7.1 1.1 0 .2-.2.4-.3.5l-1.2.3c-.1 0-.3-.1-.4-.2-.3-.3-.5-.7-.4-1.2.1-.2.1-.5 0-.7-.2-1.6-.3-3.2-.2-4.9v-.4c-.3-.1-.4.2-.6.3-1.3 1.1-2.8 1.4-4.5 1.3h-.2c-.2 0-.4.2-.4.4 0 .3.1.7.2 1 .1.7.2 1.5.4 2.2.1.9.3 1.7.5 2.6 0 .2 0 .3.1.5-.5.1-.9.2-1.3.3-.3 0-.5-.1-.6-.4-.1-.5-.1-.9-.1-1.4l-.2-4.7c0-.3-.1-.6-.2-.8-.3-.1-.4.1-.5.2-.5.6-1 1.2-1.8 1.5-.6.2-.6.3-1.3.2-.2.4-.2.9-.6 1.2l-.6.4c-.4.1-.7.1-1 .1-.7-.6-.9-1.4-.8-2.3.1-1 .4-1.9 1-2.6.4-.5.9-.5 1.4-.5.2 0 .4.2.4.4.1.4.2.8.4 1.2.1.2.1.4.3.5.4.4.9.4 1.3.1.9-.7 1.6-1.6 1.6-2.8v-.7c0-.4.2-.5.7-.4h.2l.9-.5c.5-.4 1.1-.4 1.7-.3 1.2.3 1.7.9 1.6 1.9l-.1.9c0 .2-.1.4-.2.7 1.3-.2 1.9-1 2.4-2 .1-.2.1-.5.1-.8v-2.1c0-.2 0-.3.5-.6.3.2.4.7.9.7.1-.1.3-.2.4-.4.5-.5 1.1-.6 1.8-.5 1.2.1 1.8 1.4 1.1 2.4-.2.3-.4.6-.7 1 .4.1.7 0 .9-.2.9-.5 1.8-1 2.1-2.1.1-.2.1-.4 0-.7l-.3-2c.4-.5.9-.7 1.6-.6 0 1.2 0 2.5.3 3.7.6 0 1-.1 1.4-.5.3-.3.6-.7.8-1 .2-.3.3-.6.4-.9l.4-1.7c.2-.6.4-.7 1.1-.7.2.2.1.5 0 .8l-.4 3.3.1.3c.1-.1.2-.1.3-.1.6-.7 1.2-1.4 1.8-2.2.6-.8 1.1-1.7 1.3-2.7l.4-1.9c0-.2.1-.3.3-.3.2 0 .4.1.5.3l.1.3c0 2.2-.6 4.1-2 5.8-.8.9-1.6 1.7-2.4 2.7-.2.3-.4.6-.3.9.4 1.4.2 2.9.3 4.4.1 1.1 0 2.2-.3 3.3 0 .2-.1.5-.2.7-.2.5-.5.8-1.2.8h-1.1c-.5 0-.9-.3-1.1-.8-.1-.2-.3-.5-.3-.7-.1-.8-.4-1.6-.1-2.5.2-.5.2-1.1.3-1.6.3-.8.6-1.7 1-2.4s.8-1.4 1.4-2c.1-.6.2-.8-.1-1.1zm.3 2.4l-.3.3c-.4.7-.8 1.4-1.1 2.2-.5 1.2-.4 2.4-.1 3.7 0 .1.1.3.2.4.4.5.9.5 1.2 0 .3-.5.6-1.1.6-1.7.2-1.6 0-3.1-.3-4.6 0-.1-.1-.2-.2-.3zm-17.3 1.1c.2 0 .5.1.7 0 .6-.4 1.1-.9 1.4-1.6.1-.3 0-.7-.3-.8-.4-.2-1.3.1-1.4.5-.3.6-.6 1.2-.4 1.9zm7.6-2.9c1.6 0 1.9-.2 2-1.5-.4-.3-.8-.2-1.1 0-.5.3-.8.8-.9 1.5zm-13.7 3.6c-.5 1-.5 1.5-.1 2 .5-.5.5-1 .1-2zM69.6 91.5h-.3c-.3 0-.7.2-.9-.1-.2-.3-.4-.7-.4-1 0-1.3-.4-2.5-.6-3.7-.1-.6-.2-1.1-.3-1.8-.3.1-.6.2-.8.3-.7.4-1.4.8-2 1.1-1.4.8-2.8 1.6-4.1 2.4l-1.7 1.2-.7.6c.6 1.7 1.2 3.4 1.8 5.2l-1.2.9c-.2.2-.5.1-.7 0-.3-.2-.5-.5-.5-.8-.2-.7-.4-1.4-.6-2.2-.2-.6-.3-1.2-.5-1.9-.6.1-.8.6-1.3.8-.3 0-.4-.3-.6-.5-.2-.3-.2-.5.2-.8.3-.2.7-.4 1-.7l.4-.4-1.3-4.2c-.1-.4-.4-.8-.6-1.2.3-.4.7-.8 1.3-1.1.4.4.8.8.9 1.4l1.2 3.8c.2-.1.4-.1.5-.2l2.8-1.6 1.8-.9c1.4-.7 2.8-1.5 4.2-2.3l.3-.2-.1-3c0-1 0-2 .1-2.9.1-.7.4-1.3 1.2-1.4.6.3.8.8.9 1.4 0 .9 0 1.8.1 2.7.1 1.8.2 3.7.4 5.5.1.9.2 1.8.3 2.6l.3 1.7c.1.6 0 .9-.5 1.3zm-2.1-8.9v.4-.4zm.2 2.1v-.2c-.1.1-.1.1 0 .2zm-12.2 1.9zM134.7 61.7c.4 0 .7-.1.9 0 .3.1.4.5.4.9v2.5c0 1.4.4 2.8.9 4.2.2.6.5.9 1 .8.6-.1 1.2-.5 1.3-1l.4-2.2c.1-.8.3-1.6.6-2.3.2-.4.4-.9.4-1.3.1-.4.3-.8.6-1.1.2-.2.3-.5.7-.4.3.1.4.5.4.7 0 .8 0 1.6-.3 2.3-.3.9-.5 1.9-.6 2.8-.2 1.3-.5 2.6-.7 3.8l-.8 3.8c-.3 1.9-1.1 3.6-2 5.3-.8 1.5-1.9 2.6-3.1 3.7-.3.3-.5.6-.9.9-.4.3-.9.6-1.4.8-.6.3-1.2.5-1.7.9-.8.6-1.7.7-2.6.8-.7.1-1.4-.1-1.9-.7-.4-.4-.8-.9-1.1-1.4-.5-.8-.6-1.7-.4-2.5.2-1.2.7-2.2 1.4-3.2.4-.5.9-1 1.5-1.3.7-.4 1.4-.8 2-1.2.5-.3.9-.2 1.4.1 0 .4-.1.9-.1 1.4l-1 .5c-1.2.8-2.2 1.8-2.9 3-.7 1.2 0 3.2 2.1 3.2.3 0 .7-.1 1-.2 2-1.1 3.9-2.4 5.2-4.3 1-1.4 1.7-3 2.3-4.6.2-.7.4-1.4.6-2l.1-.5c.1-.7.2-1.5.3-2.3l-1-.1c-.6 0-1.1-.3-1.5-.7-.9-.9-1.1-2.1-1.3-3.3-.2-1.6-.3-3.3 0-4.9-.1-.4-.2-.6-.2-.9zM107.7 78.2h-1.4c-.6-1-.6-2.1-.7-3.2-.1-1.2 0-2.4 0-3.5-.2-2.8-.1-5.7-.6-8.5-.1-.5-.1-1.1-.1-1.6 0-.2.2-.4.3-.7.3 0 .7 0 1.1-.1l.2.3.6.8c1 1.2 1.8 2.5 2.3 4 .3.9.8 1.8 1.2 2.6.7 1.5 1.5 2.9 2.3 4.3 0 .1.2.1.3.2.1-.1.2-.1.2-.2.3-2.6.8-5.2 1.5-7.8.2-.8.4-1.6.7-2.4.6-1.5.8-3 1-4.5.1-.8.1-.8.9-.7h.4l.4.4.4.4c-.4.5-.5 1.2-.6 1.8l-.3 1.2c-.7 2.1-1.3 4.2-1.7 6.4l-.7 4.3c-.3 1.4-.6 2.9-1 4.3-.1.4-.6.6-1 .5-.4-.1-.6-.4-.8-.8l-1.4-2.8c-.9-1.8-1.8-3.5-2.8-5.2-.2-.5-.3-1-.9-1.4v.8l.3 7.4c.1 1.2 0 2.4-.1 3.7zM156.4 70.4c-.7-.3-1.2-.2-1.7.3-.4.3-.8.7-1.2.9-.9.5-1.4.5-2.2-.3-.1-.1-.1-.1-.2-.1h-.2c-.6.5-1.3.5-2 .2-.6-.3-1.1-.3-1.7 0-.3.1-.6.2-.8.2-.7.1-1.3.1-2-.2-.4-.2-.8-.4-1.3-.1-.2.1-.3.1-.7-.5.2-.3.5-.6.8-1v-1.4c0-1.4 1.2-2.5 2.7-2.2 1.3.2 1.6.6 1.3 1.9-.1.6-.3 1-.8 1.4-.3.2-.6.5-1 .9.7.2 1.2.1 1.7-.2.3-.3.7-.5.9-.8.7-.8 1.6-1.3 2.5-1.9 0 0 .1 0 .1-.1 1-.5 1.6-.6 2.2.7-.1.2-.1.5-.2.8-.2.4-.1.9-.1 1.4 0 .3.3.4.6.3.1 0 .2 0 .2-.1.4-.2.9-.5 1.4-.8-.1-.3-.2-.5-.3-.7-.4-1.1.3-2.2 1.5-2.4h.4c.8 0 1 .3 1 1.1 0 .4-.1.7-.2 1.1.6.2 1.4-.4 1.8.5-.5.7-1 1.5-1.1 2.3-.1.4-.1.8-.1 1.2 0 .5.3.8.7.9l1.1.2c.2 0 .4.1.7.1-.2.3-.3.6-.5.7-.5.3-1 .6-1.6.7-.9.2-1.8-.2-2.3-1-.5-.6-.6-1.5-.2-2.3.1-.6.4-1.1.8-1.7zm-5.5-1.3c-.6.3-1 .6-1.4 1.2.2.1.3.2.4.2.4 0 .7-.2.9-.5.3-.2.4-.5.1-.9zm-5.5-.5c.1-.1.2-.2.2-.3v-.3c-.1 0-.2 0-.3.1-.1.1-.1.2-.1.3l.2.2zM123.5 67.3c.4.3.5.6.4.9l-.3 1.1c-.3 1.1-.2 1.6.4 2.8.2.1.4 0 .6-.1.8-.7 1.2-1.6 1.2-2.7v-.6c0-.5.3-.8.8-.8.3.3.3.7.3 1.1l-.1 1.5c0 .6.2 1.1.7 1.5.4 0 .6-.2.7-.5.5-1 .8-2 .8-3.1 0-.5.1-.8.7-.9l.8 1.5c.1.1.1.3 0 .5-.1 1.3-.5 2.5-1.3 3.5-.9 1.1-2.2 1.2-3.2.2-.1-.1-.2-.3-.2-.4-2 1.5-3.1 1-3.9-.3l-.9.7c-.7.5-1.6.7-2.4.4-.6-.2-1.1-.2-1.6.2-.1.1-.2.1-.2.1-.1 0-.3 0-.3-.1-.1-.1-.2-.4-.1-.4.3-.4.6-.7.9-1l-.2-1.5c-.2-1.2.2-2.1.7-3.1.4-.7 1.8-.9 2.5-.3.6.4.8 1.1 1 1.7.1.2 0 .6-.2.8-.4.6-.8 1.3-1.3 1.9l-.3.5c.4.2.6.1.9-.1 1.1-.8 2-1.7 2.2-3.2 0-.7.1-1.4.9-1.8zm-4.9 3.8c.7-.7.8-1.4.8-2.2-.8.6-.9.9-.8 2.2zM165.3 73.3c-.9.2-1.5-.3-2.1-.9-.2-.2-.1-.6 0-.8 1.1-1.6 2.2-3.2 3.3-4.7.8-1.1 1.7-2.1 2.6-3.2.1-.2.2-.4.3-.7.3-.8.9-1 1.7-.5l.6.4v.9c-.5.4-.8.9-1 1.5-.3.9-.8 1.5-1.4 2.2-.6.7-1.3 1.4-1.9 2.2-.8 1-1.4 2.1-1.9 3.2 0 .1-.1.3-.2.4zM159.2 82.3c-.4-.3-.6-.6-.6-1 .1-.4.2-.9.4-1.3s.8-.4 1.1-.3c.4.2.6.7.4 1.2-.2.6-.6 1.1-1.3 1.4zM56.3 68.9c.6.6.9 1.3 1.7 1.6l.3.4.3.5c.1.1.2.1.2.2.7 0 1.3-.8 2.1-.4-.1.2-.2.4-.4.5-.5.4-1.1.7-1 1.5 0 .2-.3.4-.5.5-.4.1-.7.2-1.2.3-.1-.2-.2-.4-.2-.5.3-.7.1-1.2-.6-1.7-.5.2-1 .4-1.6.7-.4.2-.6.5-.4 1.2 0 .2.1.3.2.5-.7.5-1.3 1-1.9 1.5-.2.2-.5.1-.7-.1-.2-.2-.2-.4-.1-.7 0 0 0-.1.1-.1.9-.4 1-1.2 1.1-2.1.1-.8.3-1.5.5-2.3-.1-.1-.2-.2-.4-.2-.5-.4-.6-.8-.1-1 .8-.5 1.5-1.1 2.4-1.3l.6-.1c.2 0 .4.3.3.4l-.7.7zm-.4 1.5c-.2.1-.3.1-.3.2-.1.2 0 .4.2.4.1 0 .2-.1.2-.1l-.1-.5zM36.8 82.3c-.3.2-.7.4-1.2.7 0 .3 0 .6.1.9.1.3.4.4.2.8s-.4.7-.8.8l-1.2.4c-.3-.2-.3-.5-.1-.6.7-.6.7-1.3.6-2.2-.2-1.3-.2-2.6-.2-3.9 0-.5.1-.6.7-1.4.8.5 1.3 1.2 1.8 2l1 1.8c.2.4.5.7 1 .7.1 0 .2.2.4.4-.2.3-.4.6-.7.9-.3.3-.8.1-1-.2l-.4-.7c.1-.4 0-.4-.2-.4zm-.9-2.1h-.3v.7c0 .1.2.3.4.3s.3-.3.1-.6c0-.1-.1-.2-.2-.4zM39.3 78.5l-.5-.2c-.4-.2-.5-.7-.2-1 .3-.3.7-.6 1.1-1 .5-.1.8.3 1.1.6.3.3.7.6 1 .8.3.2.6.3 1 .5 0-1.1-.4-2-1.1-2.8.2-.4.4-.8.6-1.1.2-.3.6-.5 1-.4.3.1.5.4.3.6l-.6.8c.2 1.3.7 2.4 1.1 3.7l-.7 1.1c-.5-.3-1-.7-1.5-.9-.4-.2-.9-.4-1.5-.7 0 1 .3 1.7.5 2.5-.3.2-.5.4-.8.7-.4-.6-.4-1.2-.6-1.7 0-.3-.1-.9-.2-1.5zM44.7 80c0-.5-.1-.8 0-1 .3-.5.2-.9.1-1.4-.2-.9-.3-1.7-.4-2.6-.1-.5.1-.8.4-1.2.3-.3.5-.4.9-.4.9 0 1.8.2 2.6.5 1.4.6 1.8 2 .8 3.2-.6.8-1.4 1.2-2.2 1.7-.7.5-1.3.8-2.2 1.2zm.8-5.1c-.1 1.1 0 2.1.7 3 .9-.1 1.4-.6 2.1-1.1.5-.3.5-1.1 0-1.5-.8-.6-1.7-1-2.8-.4zM43.7 42.9c-.4 0-.7 0-1 .1-.1-.8.5-1 .9-1.3.4-.4.9-.6 1.4-.3-.1.6-.2 1.1-.2 1.7 0 .4.2.7.3 1.1 1-.1 1.7-.9 2.5-1.1v-2.6c-.1-.4-.4-.8-.1-1.1.4-.4.9-.7 1.6-.7.1 0 .3.1.3.2.1.1 0 .3 0 .4l-.6.5c-.3 3.2-.1 4.4 1.2 5.6-.2.2-.3.5-.5.6-.4.2-.8.3-1.3.4-.2-.6.3-1.2-.3-1.8-1 0-1.7.6-2.5 1.3.2.2.3.4.5.5l.7.5c-.7 1-.7 1-2.1 1.4.1-1.8-.4-3.5-.8-5.4zM76.3 40.5c-.9.4-1.7.9-2.7 1.1 0-.3 0-.5.1-.6.7-.7.7-1.4 0-2.2l-1.3-.1c-.6 0-.7.2-.9 1.1.3.1.6.2 1 .3l-.2.4c-.9.3-1.8.6-2.6 1-.2.1-.6-.2-.6-.5 0-.2.1-.5.2-.5.7-.3.8-.9 1-1.5l1.3-3.3.3-.7c.5-.9 1.2-.9 1.7.1.2.3.3.7.4 1.1.3 1 .6 2 .8 2.9.1.5.4.9 1 1l.5.4zm-3.5-3.8c-.1.2-.2.3-.2.4 0 .1.1.2.2.3h.2c0-.1.1-.3 0-.4 0-.1-.1-.2-.2-.3zM52.2 44.6c-.8.3-1.3.4-1.9.7-.1-.6-.1-1.1.1-1.5.5-1.5.9-3 1.2-4.5 0-.2.1-.4.2-.5.2-.4.7-.5 1-.2.3.2.6.5.8.8.8.9 1.7 1.8 2.4 2.7.4.6 1 .4 1.5.7v.3c-.5.6-1.3.8-2.1 1.2-.1-1-.3-1.7-1-2.2-.8.3-1.7.5-2.6.9-.3.4-.1.9.4 1.6zm.4-4.3c-.4.2-.4.6-.3 1.1.3 0 .7 0 1.1-.1-.1-.5-.3-.9-.8-1zM61.8 40.6c.2-.9.4-1.7.2-2.5l-.8-.2c-.1-.9.5-1.4 1.1-1.7.7-.4 1.5-.5 2.2-.7.5-.1 1 0 1.4.5-.2.2-.4.4-.6.5-.5.2-1 .2-1.6.4-.3.1-.7.2-.6.8.5.4 1.5-.2 1.9.8-.5.8-1.4.6-2 .8-.2.9-.1 1.1.5 1.1h1.9c.2.1.5.2.5.5s-.2.6-.5.6c-1.4-.1-2.8.3-4.2.5-.3 0-.5 0-.6-.3 0-.2.1-.5.3-.6.2-.3.5-.4.9-.5zM55.7 38.4c.2-.7.6-1 1.1-1.2.1-.1.4 0 .5.1.1.1.2.4.2.5-.5.7-.2 1.3.1 1.9.2.4.4.7.7 1.2.7-1 .9-2.1 1.4-3.1-.3-.2-.6-.3-.8-.4 0-.4.2-.7.6-.8.3-.1.6-.3 1-.1.4.2.2.6.2.9-.1.4-.2.7-.4 1.1-.4 1.1-1 2.2-1.1 3.5 0 .5-.4.9-1 1.1-.9-1.7-1.7-3.3-2.5-4.7z"/></g></svg>