<?xml version="1.0" encoding="UTF-8" standalone="no"?>
<svg width="172px" height="63px" viewBox="0 0 172 63" version="1.1" xmlns="http://www.w3.org/2000/svg" xmlns:xlink="http://www.w3.org/1999/xlink" xmlns:sketch="http://www.bohemiancoding.com/sketch/ns">
    <!-- Generator: Sketch 3.1.1 (8761) - http://www.bohemiancoding.com/sketch -->
    <title>merry-christmas</title>
    <desc>Created with Sketch.</desc>
    <defs></defs>
    <g id="Page-1" stroke="none" stroke-width="1" fill="none" fill-rule="evenodd" sketch:type="MSPage">
        <path d="M159.8,12.4 C159.6,12.4 159.4,12.4 159.3,12.3 C158.8,12 158.3,11.7 157.9,11.2 C157.1,10.2 156,9.7 154.9,9.2 C153.7,8.6 152.5,8.5 151.2,8.5 C149.2,8.5 147.2,8.5 145.2,8.7 C141.3,9.1 137.3,9.4 133.5,10.4 C132.9,10.6 132.3,10.7 131.6,10.9 C130.7,13.1 130.1,15.3 130.4,17.7 C130.4,18.1 130.6,18.4 130.8,18.8 C131.7,18.8 132.2,18.3 132.5,17.7 C133.1,16.7 133.7,15.8 134.1,14.7 C134.5,13.7 135.3,12.9 135.9,12.1 C136,11.9 136.4,12 136.8,11.9 C137,12.7 137.2,13.5 137.3,14.3 C137.6,14.1 137.9,13.8 138.3,13.6 L139.5,13 C140.3,12.7 140.6,12.7 141.2,13.3 C141.4,13.5 141.6,13.9 141.8,14.2 C142.1,14 142.3,13.8 142.6,13.7 C143,13.5 143.4,13.2 143.9,13 C145,12.6 145.8,12.9 146.2,14.1 C146.6,15.2 146.8,16.4 146.5,17.6 C146.3,18.4 146.1,19.2 146.4,20.1 C147.4,20 148.3,19.7 148.8,18.8 C149.6,17.3 151.1,16.5 152.6,16.1 C153.2,15.9 153.9,16.1 154.6,16.2 L154.6,17.7 C154.6,18.4 154.5,19.1 154.5,19.7 C154.5,20.2 154.5,20.8 155,21.2 C155.1,21.2 155.3,21.3 155.4,21.2 C156.8,20.7 158.1,20.1 159.2,19.1 C159.3,19 159.5,18.9 159.5,18.8 C159.9,18 160.6,17.8 161.5,17.6 C161.6,18.6 162.4,19.2 162.4,20.3 C162.4,21.3 162.4,22.2 162.1,23.3 C163.3,23.5 164.4,23 165.4,22.8 C166.5,22.6 167.6,22.3 168.6,21.9 C169.6,21.6 170.7,21.1 171.7,20.7 C171.7,21.3 171,21.3 170.9,21.8 C170.9,22 171,22.2 171.1,22.4 L167.9,23.9 C165.9,24.8 163.9,25 161.7,25 C160.9,25 160.1,25 159.4,25.1 C158.6,25.3 158,25 157.3,24.6 C156.6,24.1 156,23.6 155.6,22.8 C153.9,23.5 152.9,22.5 151.9,21.4 C151.1,21.8 150.6,22.5 149.6,22.3 C148.7,22.2 148.1,21.8 147.7,21.1 C146.8,20.9 145.9,21.6 145,21.2 C144.4,20.7 144.3,20.1 144.4,19.3 C144.6,18.2 144.7,17.2 144.8,16.1 L144.8,15.4 C144.3,15.1 144,15.2 143.7,15.4 C142.6,16.1 141.8,17.1 141.4,18.3 C141.2,18.9 140.9,19.5 140.6,20 C140.5,20.2 140.2,20.3 140,20.3 C139.7,20.3 139.4,19.8 139.5,19.5 C139.5,19.3 139.6,19.1 139.7,19 C140.1,17.8 140.3,16.6 140.3,15.3 C140,15 139.7,15.1 139.5,15.3 C138.4,16.1 137.7,17.2 137.1,18.4 C136.9,18.8 136.7,19.3 136.4,19.7 C136.1,20.1 135.6,20.2 135.3,20 C135.1,19.8 135,19.5 135.1,19.1 L135.9,16.7 C136,16.3 136.1,15.8 136.1,15.4 L136,14.8 C135.5,14.9 135.3,15.2 135.1,15.6 L134.1,17.4 C133.6,18.3 133,19.1 132.1,19.7 C131.7,20 131.3,20.2 130.8,20.3 C130,20.5 129.7,20.4 129.4,19.5 C129.2,18.9 129,18.2 128.8,17.5 C128.6,17.6 128.5,17.7 128.4,17.8 C127.3,19.3 125.7,20.1 124,20.7 C123.2,21 122.5,20.9 121.9,20.2 L121.6,19.9 C121.2,19.4 120.7,19.4 120.2,19.6 C118.9,20.1 118.9,20 118,19.1 L117.1,19.8 C116.1,20.4 115.1,20.1 114.6,19.1 C114.3,18.5 114.1,17.9 114.2,17.1 C114.2,16.7 114.2,16.2 114.1,15.8 C114.1,15.7 113.8,15.7 113.6,15.6 C113.5,15.8 113.5,16 113.5,16.1 C113.7,17.2 113.2,18.2 112.8,19.2 C112.4,20.4 111.1,21.2 109.8,21.2 C109.1,21.2 108.3,20.4 108.2,19.6 L107.9,16.4 C107.9,16 107.8,15.5 107.7,15.1 C107.6,14.4 107.6,14.4 106.8,13.6 C106.1,13.7 105.6,13.9 105.2,14.6 C104.1,16.1 103.5,17.8 103.5,19.6 L103.5,21.7 C103.4,21.8 103.3,22 103.1,22.3 C102.9,22.3 102.7,22.3 102.6,22.2 C102.2,22 102.1,21.6 102,21.2 C101.8,20 101.4,18.7 101.4,17.4 L101.3,13 L101.3,11.1 C101.3,9.9 101.3,8.7 101.2,7.4 C101,5.7 100.9,4 101.1,2.3 L101.1,1.6 C101,1 101.2,0.6 101.4,0.1 C103,0.6 103.5,1.3 103.3,2.8 C102.8,6 103.2,9.1 103.2,12.3 C103.2,12.5 103.3,12.7 103.4,13 C103.7,12.8 103.8,12.7 104,12.6 L105.2,11.6 C106.7,10.7 108.5,11.5 108.9,13.2 C109.1,14.1 109.3,14.9 109.2,15.8 C109.1,16.7 109.2,17.7 109.5,18.6 C109.6,18.8 109.6,19.1 109.8,19.3 C110,19.7 110.3,19.8 110.6,19.6 C110.9,19.3 111.4,19.1 111.5,18.7 C111.9,17.9 112.1,17.1 112.3,16.2 C112.4,15.7 112.3,15.3 112,14.8 C111.6,14.2 111.5,13.5 111.3,12.8 C111.6,12.3 111.9,11.8 112.5,11.9 C113.1,12 113.3,12.6 113.5,13 C113.6,13.3 113.7,13.6 113.8,14 L115.4,14 C115.5,14.7 115.6,15.4 115.6,16 C115.6,16.5 115.6,17.1 115.7,17.6 C115.8,18 115.9,18.3 116.4,18.5 C117.2,18.3 117.7,17.7 117.9,16.9 C118.1,15.7 118.6,14.6 118.7,13.3 C118.7,13.1 119,13 119.2,12.8 L120.1,13.7 C120.2,14.5 119.9,15.4 119.7,16.2 C119.5,16.9 119.5,17.5 120,18 C120.8,17.9 121.3,17.4 121.8,17 C122.5,16.3 123.1,15.5 123.3,14.5 L123.5,13.6 C123.6,13.3 123.8,13 124,12.7 C125.2,12.9 125.6,13.9 126.1,14.7 C126.6,15.5 126.8,16.5 127.1,17.4 C128.5,16.4 129.4,15.1 129.6,13.5 C129.7,12.9 129.8,12.3 129.9,11.8 L129.9,10.9 C129.6,10.9 129.3,10.9 129,10.8 C128.1,10.7 127.2,10.6 126.2,10.5 C125.3,10.4 124.5,9.9 123.8,9.5 C123.3,9.1 123.2,8.7 123.5,8.1 C123.8,7.7 124,7.6 124.5,7.7 L126.5,8.3 C127.7,8.7 129,8.8 130.2,8.6 C130.3,8.4 130.4,8.3 130.4,8.2 C130.8,6.7 131.1,5.2 131.5,3.6 L131.9,2.7 C132.1,1.6 133,1.2 134,0.9 C134,0.9 134.1,0.9 134.2,1 C134.4,1.9 134.3,2.8 134.1,3.8 L133,7.7 L133,8.2 C134.2,8.1 135.4,8 136.5,7.8 C138.2,7.5 139.9,7.2 141.5,6.9 C142.9,6.7 144.3,6.4 145.7,6.4 C147.5,6.3 149.4,6.4 151.2,6.6 C152.6,6.8 154.1,7.1 155.5,7.6 C157.4,8.4 158.9,9.6 160.2,11.2 C160,11.6 160.1,12 159.8,12.4 L159.8,12.4 Z M122.8,17.9 C123.5,18.5 124.2,18.6 124.9,18.5 C125,18.5 125.3,18.2 125.3,18.1 C125.3,17.6 125.3,17 125.1,16.5 C124.9,15.9 124.7,15.3 124.2,14.9 C124,15 123.9,15 123.9,15.1 C123.6,16.1 123.2,17 122.8,17.9 L122.8,17.9 Z M150.1,20.8 C151,20.8 151.1,20.8 151.9,19.9 C152.5,19.2 152.7,18.4 152.6,17.4 C152.2,17.5 151.9,17.6 151.7,17.7 L150.6,18.6 C149.9,19.2 149.7,20 150.1,20.8 L150.1,20.8 Z M157.2,22.1 C157.8,22.7 158.5,23 159.2,23.2 C159.5,23.3 159.7,23.1 159.7,22.8 C159.8,22 160.2,21.2 159.9,20.4 C158.7,20.4 158,21.3 157.2,22.1 L157.2,22.1 Z M161.1,21 L161.1,20.9 L161.1,21 L161.1,21 Z M22.3,16.5 C22.4,16.3 22.5,16.2 22.5,16.1 C22.4,14.5 22.9,13.1 23.4,11.7 C23.8,10.7 24.4,9.7 25.6,9.3 C26.3,9.1 26.9,9.1 27.6,9.5 C28.6,10.1 29.4,10.8 29.8,11.8 L31,14.6 C31.8,16.9 32.5,19.2 33.1,21.6 C33.5,23 33.9,24.4 34.2,25.9 C34.5,27.8 35.3,29.5 36.3,31.2 C36.6,31.7 37,32 37.3,32.4 C37.9,33 38.6,33.3 39.4,33.3 L40.7,33.4 C41,33.5 41.3,33.9 41.2,34.2 C41.1,34.6 40.9,35 40.8,35.5 C39.3,35.4 37.8,35.1 36.4,34.5 C35,33.9 34.2,32.7 33.4,31.6 C33.1,31.2 32.9,30.7 32.6,30.2 C32.2,29.5 31.9,28.7 31.7,27.9 C31.1,25.6 30.7,23.3 30.4,21 C30.1,19.3 29.8,17.6 29.4,16 C29.2,15.1 28.8,14.1 28.4,13.2 C28,12.7 27.6,12.3 27,12 C26.5,11.8 26,11.9 25.7,12.4 C25.6,12.5 25.5,12.6 25.5,12.8 C24.9,14.8 24.3,16.7 24.5,18.8 C24.7,20.7 25.2,22.5 26,24.3 C26.8,26 27.5,27.8 28.2,29.6 L28.4,30.5 C28.1,30.8 27.8,31 27.4,31.3 L27,31.1 C26.4,30.8 26.2,30.4 26,29.8 L23.8,24.2 C23.6,23.6 23.4,22.9 23.1,22.3 C22.4,20.4 21.5,18.8 19.9,17.5 C19.6,17.2 19.2,17 18.8,16.9 C17.5,16.6 16.7,17.1 16.5,18.4 C16.2,20.2 16.3,21.9 17.1,23.6 C17.5,24.5 17.8,25.4 18.1,26.4 C18.9,29.1 20.2,31.5 21.4,34.1 L21.9,35.2 C22.2,36 22.2,36 21.5,36.4 C20.7,36.9 20,36.6 19.7,35.7 L19.3,34.5 L18,31.6 C17.5,30.5 17.1,29.4 16.6,28.4 C16,27.2 15.5,25.9 14.8,24.7 C13.7,22.9 12.4,21.4 10.5,20.4 C10.2,20.2 9.8,20.1 9.5,20.2 C7.8,20.4 6.2,20.9 5.1,22.5 C4.9,22.8 4.4,23.1 4.4,23.4 L3.7,25.9 L3.7,28.4 L4.5,29.1 C5.5,30 7,29.7 7.5,28.5 C7.8,27.8 7.9,27.1 7.5,26.4 C7.7,25.6 8,25.4 8.4,25 C8.6,25.2 8.9,25.3 9,25.6 C9.4,26.4 9.7,27.3 9.7,28.3 C9.7,29.7 8.6,30.9 7.3,31.3 C6.5,31.5 5.8,31.7 5,31.8 C4.4,31.9 3.8,31.8 3.3,31.5 C2.4,31 1.8,30.2 1.1,29.4 C1,29.4 1,29.3 1,29.2 C0.7,28 0.4,26.8 0.7,25.6 C1.1,24.1 1.6,22.7 2.4,21.4 C2.8,20.7 3.4,20.1 4,19.5 C4.1,19.4 4.2,19.3 4.4,19.3 C5,19 5.6,18.7 6.2,18.5 C6.9,18.2 7.6,18.1 8.3,18.1 C9.8,18.1 11.2,18.1 12.6,18.7 C13,18 13.4,17.4 13.6,16.8 C14,15.7 14.9,15 15.7,14.3 C15.8,14.2 16,14.1 16.2,14.1 C17.7,13.9 19.2,14 20.5,15.1 C21.1,15.5 21.6,16 22.3,16.5 L22.3,16.5 Z M75.7,22.1 C74.7,23.2 73.9,23.9 72.6,24 C71.4,24.1 70.3,24.4 69.2,23.9 C68.9,24.5 68.5,25 68.3,25.6 C67.9,26.9 66.8,27.3 65.7,27.7 C65.5,27.8 65.2,27.8 65,27.8 C63.4,28 62.5,27.4 61.9,25.9 C61.8,25.7 61.8,25.5 61.8,25.3 L61.8,22.6 C61.4,22.3 61.1,22.6 60.8,22.6 L59.9,22.7 C59.3,23.8 58.7,24.9 58.2,26 C57.7,27.1 56.8,27.9 55.8,28.5 C54.6,29.2 53.3,29 52.1,28.7 C51.8,28.6 51.6,28.3 51.4,28 C50.8,27 50.8,25.9 50.6,24.8 C50.5,24.5 50.5,24.1 50.4,23.7 C50,23.8 49.7,23.9 49.3,23.9 C48.6,24 48.2,24.5 48.1,25.2 C47.8,26.8 46.8,28.1 45.8,29.4 C44.9,30.4 43.6,30.8 42.4,30.9 C41.8,30.9 41.1,30.7 40.5,30.3 L38.9,29.3 C38.5,29.5 38.2,29.6 37.8,29.7 C37.6,29.7 37.3,29.7 37.3,29.6 C37.2,29.4 37.1,29.1 37.3,28.9 C37.5,28.6 37.9,28.4 38.2,28.1 C38.1,27.8 38.1,27.5 38,27.1 C37.7,26.1 37.8,25.2 38,24.2 C38.2,23.3 38.7,22.7 39.3,22.1 C39.4,22 39.5,21.9 39.7,21.9 C40.7,21.6 41.9,22.4 41.9,23.4 C41.9,24.4 41.6,25.3 41.2,26.2 C41,26.7 40.7,27.2 40.5,27.6 C41.1,28.6 42.1,28.6 43,28.8 C43.8,28.9 44.5,28.6 45.1,28.1 C46.3,27 47,25.6 47.1,24 C46.8,23.8 46.3,23.6 46.1,23.3 C45.9,23 45.8,22.6 45.7,22.3 L46.1,20.5 C46.2,20 46.4,19.7 46.9,19.6 C47.2,19.6 47.5,19.6 47.7,19.5 C48.6,20.3 48.6,21.3 48.9,22.3 C49.8,22.4 50.5,22 51.1,21.5 C51.3,21.3 51.4,21.1 51.6,21 C52,20.7 52.4,20.9 52.6,21.4 L52.8,22 C52.1,23.2 52.2,24.6 52.4,26 C52.6,27 53.2,27.3 54.1,27.1 C55,26.9 55.7,26.5 56.1,25.6 L57.1,23.3 C57.3,22.7 57.4,22 57.1,21.3 C56.8,20.6 56.9,19.8 57.3,19 C57.8,18.8 58.3,18.4 59,18.4 C59.9,19.1 59.8,20.2 60.1,21.2 C61.4,21.2 62.4,20.8 63,19.7 C63.2,19.3 63.4,19 63.8,18.9 C64.3,19.1 64.5,19.3 64.4,19.9 L63.9,22.6 C63.8,23.4 63.9,24.3 64.2,25 C64.6,26 65.6,26.4 66.6,25.8 C67.3,25.3 67.8,24.6 68,23.8 C68.2,22.8 68.5,21.8 68.3,20.8 C68.1,19.7 68.2,18.5 68.1,17.2 C68.8,17 69.4,16.8 70.1,16.8 C70.5,17.6 70.5,18.3 70.5,19.1 C70.5,19.8 70.7,20.4 70.9,20.9 C71.1,21.3 71.5,21.5 72,21.4 C73.3,21.1 74.3,20.4 75,19.3 C75.2,19 75.2,18.6 75.2,18.3 C75.2,17.5 75.2,16.7 75.1,16 C75.1,14.9 75.3,13.8 75.7,12.7 C75.8,12.4 76,12.1 76.2,12.1 C76.5,12 76.8,12.1 77.2,12.1 C77.3,13.4 77.7,14.5 77.5,15.8 C77.4,17.1 77.3,18.4 77.6,19.7 C77.7,19.9 77.8,20 77.9,20.3 C78.6,19.8 79.2,19.4 79.9,19 C80.4,18.6 81,18.4 81.6,18.2 C82.1,18.1 82.6,17.9 83.1,17.7 C84,17.4 84.8,17.6 85.7,17.9 C86,18 86.2,18.3 86.1,18.6 C86,18.9 85.8,19.1 85.5,19.1 L85.1,19.1 C83.2,18.7 81.7,19.5 80.2,20.6 C79.5,21.1 79,21.7 78.3,22.3 C78.2,23 78.4,23.6 78.6,24.2 L79.4,27.6 C79.6,29 79.6,30.5 79.7,32 C79.8,33.1 79.7,34.1 79.5,35.2 C79.1,37.1 78.2,38.6 76.5,39.5 C76,39.7 75.5,39.9 75,40 C74.3,40.2 73.8,39.9 73.2,39.5 C71.8,38.3 71.1,36.8 71.2,35 C71.3,33.5 71.3,32 71.7,30.5 C72,29.4 72.4,28.3 73.1,27.3 C74,26 74.5,24.4 75.5,23.1 C75.7,23 75.6,22.6 75.7,22.1 L75.7,22.1 Z M76.4,25 C75.3,26.5 74.7,27.9 74.5,29.5 C74.5,29.7 74.5,30 74.3,30.2 C73.9,30.7 74,31.3 73.9,31.9 L73.8,33.2 C73.7,34 73.8,34.8 73.9,35.7 C74.1,36.6 74.6,37.2 75.4,37.6 C76.2,38 76.9,37.8 77.4,37.1 C78.2,36.2 78.3,35 78.2,33.9 C78.2,32.7 78,31.6 77.8,30.4 C77.7,29.8 77.7,29.2 77.5,28.7 C77.3,27.5 76.8,26.4 76.4,25 L76.4,25 Z M40.1,25.2 C40.7,24.3 40.7,23.9 40.4,23.7 L40.3,23.7 C39.7,24.1 39.9,24.7 40,25.2 L40.1,25.2 L40.1,25.2 Z M102,23.1 C102.2,23.7 102.3,24.1 102.4,24.5 C100.8,25.8 99.1,26.2 97.1,25.9 C94.8,25.6 93.1,24.3 91.5,22.7 C90.1,21.2 89.3,19.5 88.9,17.6 L87.9,13.2 C87.5,10.7 87.8,8.4 88.7,6 C89.3,4.4 90.3,3.2 91.6,2.2 C92.5,1.5 93.6,1.2 94.7,1.1 C95.5,1 96.2,1.3 96.8,1.9 C97.8,2.8 98.5,3.8 99,5 C99.4,6 99.5,7.1 99.4,8.2 C99.4,8.5 99.2,8.8 99,9.1 C98.8,9.5 98.5,9.8 98.2,10.1 C97.2,11.2 95.6,11.1 94.7,9.9 C94,8.9 94,7.9 94.3,6.8 C94.5,6.1 94.9,6 95.8,6 C95.9,6.4 95.5,6.8 95.8,7.2 C96,7.5 95.6,7.7 95.4,7.9 C95.2,8.1 95.3,8.4 95.4,8.6 C95.5,8.7 95.8,8.8 95.9,8.8 C96.7,8.7 97.2,8.2 97.3,7.5 C97.4,6.1 97.4,4.7 96.4,3.5 C95.8,2.8 95.2,2.6 94.3,2.9 C93.1,3.3 92.2,3.9 91.7,5.1 C91.2,6.4 90.6,7.6 90.4,9 C90.4,9.2 90.3,9.5 90.2,9.7 C89.4,12.9 89.9,16 91.4,18.9 C92.4,20.8 93.9,22.3 96,23 C97,23.4 98.1,23.5 99.2,23.4 C99.8,23.4 100.4,23.3 101,23.2 C101.4,23 101.7,23 102,23.1 L102,23.1 Z M118.9,7.9 C119.4,8.2 119.7,8.6 119.7,9.1 C119.7,9.7 119.5,10.2 119.4,10.8 C119.3,11 118.8,11.1 118.6,10.9 C118.5,10.8 118.4,10.7 118.4,10.6 C118.4,10.1 118.3,9.5 118.4,9 C118.4,8.6 118.5,8.2 118.9,7.9 L118.9,7.9 Z M95.1,45.6 C94.8,45.7 94.6,45.8 94.3,45.8 C93.8,45.9 93.3,46.1 92.8,46.1 C92.2,46.1 91.6,46 91.3,45.4 L89.9,46.5 C89.3,47 88.6,47.4 87.7,47.5 L85.6,47.9 C85.4,48.7 85.5,49.6 85.6,50.4 L86.3,54.3 C86.4,54.7 86.4,55 86.4,55.4 C86.4,55.6 86.2,55.8 86.1,55.9 L84.9,56.2 C84.8,56.2 84.6,56.1 84.5,56 C84.2,55.7 84,55.3 84.1,54.8 C84.2,54.6 84.2,54.3 84.1,54.1 C83.9,52.5 83.8,50.9 83.9,49.2 L83.9,48.8 C83.6,48.7 83.5,49 83.3,49.1 C82,50.2 80.5,50.5 78.8,50.4 L78.6,50.4 C78.4,50.4 78.2,50.6 78.2,50.8 C78.2,51.1 78.3,51.5 78.4,51.8 C78.5,52.5 78.6,53.3 78.8,54 C78.9,54.9 79.1,55.7 79.3,56.6 C79.3,56.8 79.3,56.9 79.4,57.1 C78.9,57.2 78.5,57.3 78.1,57.4 C77.8,57.4 77.6,57.3 77.5,57 C77.4,56.5 77.4,56.1 77.4,55.6 L77.2,50.9 C77.2,50.6 77.1,50.3 77,50.1 C76.7,50 76.6,50.2 76.5,50.3 C76,50.9 75.5,51.5 74.7,51.8 C74.1,52 74.1,52.1 73.4,52 C73.2,52.4 73.2,52.9 72.8,53.2 L72.2,53.6 C71.8,53.7 71.5,53.7 71.2,53.7 C70.5,53.1 70.3,52.3 70.4,51.4 C70.5,50.4 70.8,49.5 71.4,48.8 C71.8,48.3 72.3,48.3 72.8,48.3 C73,48.3 73.2,48.5 73.2,48.7 C73.3,49.1 73.4,49.5 73.6,49.9 C73.7,50.1 73.7,50.3 73.9,50.4 C74.3,50.8 74.8,50.8 75.2,50.5 C76.1,49.8 76.8,48.9 76.8,47.7 L76.8,47 C76.8,46.6 77,46.5 77.5,46.6 L77.7,46.6 L78.6,46.1 C79.1,45.7 79.7,45.7 80.3,45.8 C81.5,46.1 82,46.7 81.9,47.7 L81.8,48.6 C81.8,48.8 81.7,49 81.6,49.3 C82.9,49.1 83.5,48.3 84,47.3 C84.1,47.1 84.1,46.8 84.1,46.5 L84.1,44.4 C84.1,44.2 84.1,44.1 84.6,43.8 C84.9,44 85,44.5 85.5,44.5 C85.6,44.4 85.8,44.3 85.9,44.1 C86.4,43.6 87,43.5 87.7,43.6 C88.9,43.7 89.5,45 88.8,46 C88.6,46.3 88.4,46.6 88.1,47 C88.5,47.1 88.8,47 89,46.8 C89.9,46.3 90.8,45.8 91.1,44.7 C91.2,44.5 91.2,44.3 91.1,44 L90.8,42 C91.2,41.5 91.7,41.3 92.4,41.4 C92.4,42.6 92.4,43.9 92.7,45.1 C93.3,45.1 93.7,45 94.1,44.6 C94.4,44.3 94.7,43.9 94.9,43.6 C95.1,43.3 95.2,43 95.3,42.7 L95.7,41 C95.9,40.4 96.1,40.3 96.8,40.3 C97,40.5 96.9,40.8 96.8,41.1 L96.4,44.4 L96.5,44.7 C96.6,44.6 96.7,44.6 96.8,44.6 C97.4,43.9 98,43.2 98.6,42.4 C99.2,41.6 99.7,40.7 99.9,39.7 L100.3,37.8 C100.3,37.6 100.4,37.5 100.6,37.5 C100.8,37.5 101,37.6 101.1,37.8 L101.2,38.1 C101.2,40.3 100.6,42.2 99.2,43.9 C98.4,44.8 97.6,45.6 96.8,46.6 C96.6,46.9 96.4,47.2 96.5,47.5 C96.9,48.9 96.7,50.4 96.8,51.9 C96.9,53 96.8,54.1 96.5,55.2 C96.5,55.4 96.4,55.7 96.3,55.9 C96.1,56.4 95.8,56.7 95.1,56.7 L94,56.7 C93.5,56.7 93.1,56.4 92.9,55.9 C92.8,55.7 92.6,55.4 92.6,55.2 C92.5,54.4 92.2,53.6 92.5,52.7 C92.7,52.2 92.7,51.6 92.8,51.1 C93.1,50.3 93.4,49.4 93.8,48.7 C94.2,48 94.6,47.3 95.2,46.7 C95.3,46.1 95.4,45.9 95.1,45.6 L95.1,45.6 Z M95.4,48 L95.1,48.3 C94.7,49 94.3,49.7 94,50.5 C93.5,51.7 93.6,52.9 93.9,54.2 C93.9,54.3 94,54.5 94.1,54.6 C94.5,55.1 95,55.1 95.3,54.6 C95.6,54.1 95.9,53.5 95.9,52.9 C96.1,51.3 95.9,49.8 95.6,48.3 C95.6,48.2 95.5,48.1 95.4,48 L95.4,48 Z M78.1,49.1 C78.3,49.1 78.6,49.2 78.8,49.1 C79.4,48.7 79.9,48.2 80.2,47.5 C80.3,47.2 80.2,46.8 79.9,46.7 C79.5,46.5 78.6,46.8 78.5,47.2 C78.2,47.8 77.9,48.4 78.1,49.1 L78.1,49.1 Z M85.7,46.2 C87.3,46.2 87.6,46 87.7,44.7 C87.3,44.4 86.9,44.5 86.6,44.7 C86.1,45 85.8,45.5 85.7,46.2 L85.7,46.2 Z M72,49.8 C71.5,50.8 71.5,51.3 71.9,51.8 C72.4,51.3 72.4,50.8 72,49.8 L72,49.8 Z M69.6,57.5 L69.3,57.5 C69,57.5 68.6,57.7 68.4,57.4 C68.2,57.1 68,56.7 68,56.4 C68,55.1 67.6,53.9 67.4,52.7 C67.3,52.1 67.2,51.6 67.1,50.9 C66.8,51 66.5,51.1 66.3,51.2 C65.6,51.6 64.9,52 64.3,52.3 C62.9,53.1 61.5,53.9 60.2,54.7 L58.5,55.9 L57.8,56.5 C58.4,58.2 59,59.9 59.6,61.7 L58.4,62.6 C58.2,62.8 57.9,62.7 57.7,62.6 C57.4,62.4 57.2,62.1 57.2,61.8 C57,61.1 56.8,60.4 56.6,59.6 C56.4,59 56.3,58.4 56.1,57.7 C55.5,57.8 55.3,58.3 54.8,58.5 C54.5,58.5 54.4,58.2 54.2,58 C54,57.7 54,57.5 54.4,57.2 C54.7,57 55.1,56.8 55.4,56.5 L55.8,56.1 L54.5,51.9 C54.4,51.5 54.1,51.1 53.9,50.7 C54.2,50.3 54.6,49.9 55.2,49.6 C55.6,50 56,50.4 56.1,51 L57.3,54.8 C57.5,54.7 57.7,54.7 57.8,54.6 L60.6,53 L62.4,52.1 C63.8,51.4 65.2,50.6 66.6,49.8 L66.9,49.6 L66.8,46.6 C66.8,45.6 66.8,44.6 66.9,43.7 C67,43 67.3,42.4 68.1,42.3 C68.7,42.6 68.9,43.1 69,43.7 C69,44.6 69,45.5 69.1,46.4 C69.2,48.2 69.3,50.1 69.5,51.9 C69.6,52.8 69.7,53.7 69.8,54.5 L70.1,56.2 C70.2,56.8 70.1,57.1 69.6,57.5 L69.6,57.5 Z M67.5,48.6 L67.5,49 L67.5,48.6 L67.5,48.6 Z M67.7,50.7 L67.7,50.5 C67.6,50.6 67.6,50.6 67.7,50.7 L67.7,50.7 Z M134.7,27.7 C135.1,27.7 135.4,27.6 135.6,27.7 C135.9,27.8 136,28.2 136,28.6 L136,31.1 C136,32.5 136.4,33.9 136.9,35.3 C137.1,35.9 137.4,36.2 137.9,36.1 C138.5,36 139.1,35.6 139.2,35.1 L139.6,32.9 C139.7,32.1 139.9,31.3 140.2,30.6 C140.4,30.2 140.6,29.7 140.6,29.3 C140.7,28.9 140.9,28.5 141.2,28.2 C141.4,28 141.5,27.7 141.9,27.8 C142.2,27.9 142.3,28.3 142.3,28.5 C142.3,29.3 142.3,30.1 142,30.8 C141.7,31.7 141.5,32.7 141.4,33.6 C141.2,34.9 140.9,36.2 140.7,37.4 L139.9,41.2 C139.6,43.1 138.8,44.8 137.9,46.5 C137.1,48 136,49.1 134.8,50.2 C134.5,50.5 134.3,50.8 133.9,51.1 C133.5,51.4 133,51.7 132.5,51.9 C131.9,52.2 131.3,52.4 130.8,52.8 C130,53.4 129.1,53.5 128.2,53.6 C127.5,53.7 126.8,53.5 126.3,52.9 C125.9,52.5 125.5,52 125.2,51.5 C124.7,50.7 124.6,49.8 124.8,49 C125,47.8 125.5,46.8 126.2,45.8 C126.6,45.3 127.1,44.8 127.7,44.5 C128.4,44.1 129.1,43.7 129.7,43.3 C130.2,43 130.6,43.1 131.1,43.4 C131.1,43.8 131,44.3 131,44.8 L130,45.3 C128.8,46.1 127.8,47.1 127.1,48.3 C126.4,49.5 127.1,51.5 129.2,51.5 C129.5,51.5 129.9,51.4 130.2,51.3 C132.2,50.2 134.1,48.9 135.4,47 C136.4,45.6 137.1,44 137.7,42.4 C137.9,41.7 138.1,41 138.3,40.4 L138.4,39.9 C138.5,39.2 138.6,38.4 138.7,37.6 L137.7,37.5 C137.1,37.5 136.6,37.2 136.2,36.8 C135.3,35.9 135.1,34.7 134.9,33.5 C134.7,31.9 134.6,30.2 134.9,28.6 C134.8,28.2 134.7,28 134.7,27.7 L134.7,27.7 Z M107.7,44.2 L106.3,44.2 C105.7,43.2 105.7,42.1 105.6,41 C105.5,39.8 105.6,38.6 105.6,37.5 C105.4,34.7 105.5,31.8 105,29 C104.9,28.5 104.9,27.9 104.9,27.4 C104.9,27.2 105.1,27 105.2,26.7 C105.5,26.7 105.9,26.7 106.3,26.6 L106.5,26.9 L107.1,27.7 C108.1,28.9 108.9,30.2 109.4,31.7 C109.7,32.6 110.2,33.5 110.6,34.3 C111.3,35.8 112.1,37.2 112.9,38.6 C112.9,38.7 113.1,38.7 113.2,38.8 C113.3,38.7 113.4,38.7 113.4,38.6 C113.7,36 114.2,33.4 114.9,30.8 C115.1,30 115.3,29.2 115.6,28.4 C116.2,26.9 116.4,25.4 116.6,23.9 C116.7,23.1 116.7,23.1 117.5,23.2 L117.9,23.2 L118.3,23.6 L118.7,24 C118.3,24.5 118.2,25.2 118.1,25.8 L117.8,27 C117.1,29.1 116.5,31.2 116.1,33.4 L115.4,37.7 C115.1,39.1 114.8,40.6 114.4,42 C114.3,42.4 113.8,42.6 113.4,42.5 C113,42.4 112.8,42.1 112.6,41.7 L111.2,38.9 C110.3,37.1 109.4,35.4 108.4,33.7 C108.2,33.2 108.1,32.7 107.5,32.3 L107.5,33.1 L107.8,40.5 C107.9,41.7 107.8,42.9 107.7,44.2 L107.7,44.2 Z M156.4,36.4 C155.7,36.1 155.2,36.2 154.7,36.7 C154.3,37 153.9,37.4 153.5,37.6 C152.6,38.1 152.1,38.1 151.3,37.3 C151.2,37.2 151.2,37.2 151.1,37.2 L150.9,37.2 C150.3,37.7 149.6,37.7 148.9,37.4 C148.3,37.1 147.8,37.1 147.2,37.4 C146.9,37.5 146.6,37.6 146.4,37.6 C145.7,37.7 145.1,37.7 144.4,37.4 C144,37.2 143.6,37 143.1,37.3 C142.9,37.4 142.8,37.4 142.4,36.8 C142.6,36.5 142.9,36.2 143.2,35.8 L143.2,34.4 C143.2,33 144.4,31.9 145.9,32.2 C147.2,32.4 147.5,32.8 147.2,34.1 C147.1,34.7 146.9,35.1 146.4,35.5 C146.1,35.7 145.8,36 145.4,36.4 C146.1,36.6 146.6,36.5 147.1,36.2 C147.4,35.9 147.8,35.7 148,35.4 C148.7,34.6 149.6,34.1 150.5,33.5 C150.5,33.5 150.6,33.5 150.6,33.4 C151.6,32.9 152.2,32.8 152.8,34.1 C152.7,34.3 152.7,34.6 152.6,34.9 C152.4,35.3 152.5,35.8 152.5,36.3 C152.5,36.6 152.8,36.7 153.1,36.6 C153.2,36.6 153.3,36.6 153.3,36.5 C153.7,36.3 154.2,36 154.7,35.7 C154.6,35.4 154.5,35.2 154.4,35 C154,33.9 154.7,32.8 155.9,32.6 L156.3,32.6 C157.1,32.6 157.3,32.9 157.3,33.7 C157.3,34.1 157.2,34.4 157.1,34.8 C157.7,35 158.5,34.4 158.9,35.3 C158.4,36 157.9,36.8 157.8,37.6 C157.7,38 157.7,38.4 157.7,38.8 C157.7,39.3 158,39.6 158.4,39.7 L159.5,39.9 C159.7,39.9 159.9,40 160.2,40 C160,40.3 159.9,40.6 159.7,40.7 C159.2,41 158.7,41.3 158.1,41.4 C157.2,41.6 156.3,41.2 155.8,40.4 C155.3,39.8 155.2,38.9 155.6,38.1 C155.7,37.5 156,37 156.4,36.4 L156.4,36.4 Z M150.9,35.1 C150.3,35.4 149.9,35.7 149.5,36.3 C149.7,36.4 149.8,36.5 149.9,36.5 C150.3,36.5 150.6,36.3 150.8,36 C151.1,35.8 151.2,35.5 150.9,35.1 L150.9,35.1 Z M145.4,34.6 C145.5,34.5 145.6,34.4 145.6,34.3 L145.6,34 C145.5,34 145.4,34 145.3,34.1 C145.2,34.2 145.2,34.3 145.2,34.4 L145.4,34.6 L145.4,34.6 Z M123.5,33.3 C123.9,33.6 124,33.9 123.9,34.2 L123.6,35.3 C123.3,36.4 123.4,36.9 124,38.1 C124.2,38.2 124.4,38.1 124.6,38 C125.4,37.3 125.8,36.4 125.8,35.3 L125.8,34.7 C125.8,34.2 126.1,33.9 126.6,33.9 C126.9,34.2 126.9,34.6 126.9,35 L126.8,36.5 C126.8,37.1 127,37.6 127.5,38 C127.9,38 128.1,37.8 128.2,37.5 C128.7,36.5 129,35.5 129,34.4 C129,33.9 129.1,33.6 129.7,33.5 L130.5,35 C130.6,35.1 130.6,35.3 130.5,35.5 C130.4,36.8 130,38 129.2,39 C128.3,40.1 127,40.2 126,39.2 C125.9,39.1 125.8,38.9 125.8,38.8 C123.8,40.3 122.7,39.8 121.9,38.5 L121,39.2 C120.3,39.7 119.4,39.9 118.6,39.6 C118,39.4 117.5,39.4 117,39.8 C116.9,39.9 116.8,39.9 116.8,39.9 C116.7,39.9 116.5,39.9 116.5,39.8 C116.4,39.7 116.3,39.4 116.4,39.4 C116.7,39 117,38.7 117.3,38.4 L117.1,36.9 C116.9,35.7 117.3,34.8 117.8,33.8 C118.2,33.1 119.6,32.9 120.3,33.5 C120.9,33.9 121.1,34.6 121.3,35.2 C121.4,35.4 121.3,35.8 121.1,36 C120.7,36.6 120.3,37.3 119.8,37.9 L119.5,38.4 C119.9,38.6 120.1,38.5 120.4,38.3 C121.5,37.5 122.4,36.6 122.6,35.1 C122.6,34.4 122.7,33.7 123.5,33.3 L123.5,33.3 Z M118.6,37.1 C119.3,36.4 119.4,35.7 119.4,34.9 C118.6,35.5 118.5,35.8 118.6,37.1 L118.6,37.1 Z M165.3,39.3 C164.4,39.5 163.8,39 163.2,38.4 C163,38.2 163.1,37.8 163.2,37.6 C164.3,36 165.4,34.4 166.5,32.9 C167.3,31.8 168.2,30.8 169.1,29.7 C169.2,29.5 169.3,29.3 169.4,29 C169.7,28.2 170.3,28 171.1,28.5 L171.7,28.9 L171.7,29.8 C171.2,30.2 170.9,30.7 170.7,31.3 C170.4,32.2 169.9,32.8 169.3,33.5 C168.7,34.2 168,34.9 167.4,35.7 C166.6,36.7 166,37.8 165.5,38.9 C165.5,39 165.4,39.2 165.3,39.3 L165.3,39.3 Z M159.2,48.3 C158.8,48 158.6,47.7 158.6,47.3 C158.7,46.9 158.8,46.4 159,46 C159.2,45.6 159.8,45.6 160.1,45.7 C160.5,45.9 160.7,46.4 160.5,46.9 C160.3,47.5 159.9,48 159.2,48.3 L159.2,48.3 Z M56.3,34.9 C56.9,35.5 57.2,36.2 58,36.5 L58.3,36.9 L58.6,37.4 C58.7,37.5 58.8,37.5 58.8,37.6 C59.5,37.6 60.1,36.8 60.9,37.2 C60.8,37.4 60.7,37.6 60.5,37.7 C60,38.1 59.4,38.4 59.5,39.2 C59.5,39.4 59.2,39.6 59,39.7 C58.6,39.8 58.3,39.9 57.8,40 C57.7,39.8 57.6,39.6 57.6,39.5 C57.9,38.8 57.7,38.3 57,37.8 C56.5,38 56,38.2 55.4,38.5 C55,38.7 54.8,39 55,39.7 C55,39.9 55.1,40 55.2,40.2 C54.5,40.7 53.9,41.2 53.3,41.7 C53.1,41.9 52.8,41.8 52.6,41.6 C52.4,41.4 52.4,41.2 52.5,40.9 C52.5,40.9 52.5,40.8 52.6,40.8 C53.5,40.4 53.6,39.6 53.7,38.7 C53.8,37.9 54,37.2 54.2,36.4 C54.1,36.3 54,36.2 53.8,36.2 C53.3,35.8 53.2,35.4 53.7,35.2 C54.5,34.7 55.2,34.1 56.1,33.9 L56.7,33.8 C56.9,33.8 57.1,34.1 57,34.2 L56.3,34.9 L56.3,34.9 Z M55.9,36.4 C55.7,36.5 55.6,36.5 55.6,36.6 C55.5,36.8 55.6,37 55.8,37 C55.9,37 56,36.9 56,36.9 L55.9,36.4 L55.9,36.4 Z M36.8,48.3 C36.5,48.5 36.1,48.7 35.6,49 C35.6,49.3 35.6,49.6 35.7,49.9 C35.8,50.2 36.1,50.3 35.9,50.7 C35.7,51.1 35.5,51.4 35.1,51.5 L33.9,51.9 C33.6,51.7 33.6,51.4 33.8,51.3 C34.5,50.7 34.5,50 34.4,49.1 C34.2,47.8 34.2,46.5 34.2,45.2 C34.2,44.7 34.3,44.6 34.9,43.8 C35.7,44.3 36.2,45 36.7,45.8 L37.7,47.6 C37.9,48 38.2,48.3 38.7,48.3 C38.8,48.3 38.9,48.5 39.1,48.7 C38.9,49 38.7,49.3 38.4,49.6 C38.1,49.9 37.6,49.7 37.4,49.4 L37,48.7 C37.1,48.3 37,48.3 36.8,48.3 L36.8,48.3 Z M35.9,46.2 L35.6,46.2 L35.6,46.9 C35.6,47 35.8,47.2 36,47.2 C36.2,47.2 36.3,46.9 36.1,46.6 C36.1,46.5 36,46.4 35.9,46.2 L35.9,46.2 Z M39.3,44.5 L38.8,44.3 C38.4,44.1 38.3,43.6 38.6,43.3 C38.9,43 39.3,42.7 39.7,42.3 C40.2,42.2 40.5,42.6 40.8,42.9 C41.1,43.2 41.5,43.5 41.8,43.7 C42.1,43.9 42.4,44 42.8,44.2 C42.8,43.1 42.4,42.2 41.7,41.4 C41.9,41 42.1,40.6 42.3,40.3 C42.5,40 42.9,39.8 43.3,39.9 C43.6,40 43.8,40.3 43.6,40.5 L43,41.3 C43.2,42.6 43.7,43.7 44.1,45 L43.4,46.1 C42.9,45.8 42.4,45.4 41.9,45.2 C41.5,45 41,44.8 40.4,44.5 C40.4,45.5 40.7,46.2 40.9,47 C40.6,47.2 40.4,47.4 40.1,47.7 C39.7,47.1 39.7,46.5 39.5,46 C39.5,45.7 39.4,45.1 39.3,44.5 L39.3,44.5 Z M44.7,46 C44.7,45.5 44.6,45.2 44.7,45 C45,44.5 44.9,44.1 44.8,43.6 C44.6,42.7 44.5,41.9 44.4,41 C44.3,40.5 44.5,40.2 44.8,39.8 C45.1,39.5 45.3,39.4 45.7,39.4 C46.6,39.4 47.5,39.6 48.3,39.9 C49.7,40.5 50.1,41.9 49.1,43.1 C48.5,43.9 47.7,44.3 46.9,44.8 C46.2,45.3 45.6,45.6 44.7,46 L44.7,46 Z M45.5,40.9 C45.4,42 45.5,43 46.2,43.9 C47.1,43.8 47.6,43.3 48.3,42.8 C48.8,42.5 48.8,41.7 48.3,41.3 C47.5,40.7 46.6,40.3 45.5,40.9 L45.5,40.9 Z M43.7,8.9 C43.3,8.9 43,8.9 42.7,9 C42.6,8.2 43.2,8 43.6,7.7 C44,7.3 44.5,7.1 45,7.4 C44.9,8 44.8,8.5 44.8,9.1 C44.8,9.5 45,9.8 45.1,10.2 C46.1,10.1 46.8,9.3 47.6,9.1 L47.6,6.5 C47.5,6.1 47.2,5.7 47.5,5.4 C47.9,5 48.4,4.7 49.1,4.7 C49.2,4.7 49.4,4.8 49.4,4.9 C49.5,5 49.4,5.2 49.4,5.3 L48.8,5.8 C48.5,9 48.7,10.2 50,11.4 C49.8,11.6 49.7,11.9 49.5,12 C49.1,12.2 48.7,12.3 48.2,12.4 C48,11.8 48.5,11.2 47.9,10.6 C46.9,10.6 46.2,11.2 45.4,11.9 C45.6,12.1 45.7,12.3 45.9,12.4 L46.6,12.9 C45.9,13.9 45.9,13.9 44.5,14.3 C44.6,12.5 44.1,10.8 43.7,8.9 L43.7,8.9 Z M76.3,6.5 C75.4,6.9 74.6,7.4 73.6,7.6 C73.6,7.3 73.6,7.1 73.7,7 C74.4,6.3 74.4,5.6 73.7,4.8 L72.4,4.7 C71.8,4.7 71.7,4.9 71.5,5.8 C71.8,5.9 72.1,6 72.5,6.1 L72.3,6.5 C71.4,6.8 70.5,7.1 69.7,7.5 C69.5,7.6 69.1,7.3 69.1,7 C69.1,6.8 69.2,6.5 69.3,6.5 C70,6.2 70.1,5.6 70.3,5 L71.6,1.7 L71.9,1 C72.4,0.1 73.1,0.1 73.6,1.1 C73.8,1.4 73.9,1.8 74,2.2 C74.3,3.2 74.6,4.2 74.8,5.1 C74.9,5.6 75.2,6 75.8,6.1 L76.3,6.5 L76.3,6.5 Z M72.8,2.7 C72.7,2.9 72.6,3 72.6,3.1 C72.6,3.2 72.7,3.3 72.8,3.4 L73,3.4 C73,3.3 73.1,3.1 73,3 C73,2.9 72.9,2.8 72.8,2.7 L72.8,2.7 Z M52.2,10.6 C51.4,10.9 50.9,11 50.3,11.3 C50.2,10.7 50.2,10.2 50.4,9.8 C50.9,8.3 51.3,6.8 51.6,5.3 C51.6,5.1 51.7,4.9 51.8,4.8 C52,4.4 52.5,4.3 52.8,4.6 C53.1,4.8 53.4,5.1 53.6,5.4 C54.4,6.3 55.3,7.2 56,8.1 C56.4,8.7 57,8.5 57.5,8.8 L57.5,9.1 C57,9.7 56.2,9.9 55.4,10.3 C55.3,9.3 55.1,8.6 54.4,8.1 C53.6,8.4 52.7,8.6 51.8,9 C51.5,9.4 51.7,9.9 52.2,10.6 L52.2,10.6 Z M52.6,6.3 C52.2,6.5 52.2,6.9 52.3,7.4 C52.6,7.4 53,7.4 53.4,7.3 C53.3,6.8 53.1,6.4 52.6,6.3 L52.6,6.3 Z M61.8,6.6 C62,5.7 62.2,4.9 62,4.1 L61.2,3.9 C61.1,3 61.7,2.5 62.3,2.2 C63,1.8 63.8,1.7 64.5,1.5 C65,1.4 65.5,1.5 65.9,2 C65.7,2.2 65.5,2.4 65.3,2.5 C64.8,2.7 64.3,2.7 63.7,2.9 C63.4,3 63,3.1 63.1,3.7 C63.6,4.1 64.6,3.5 65,4.5 C64.5,5.3 63.6,5.1 63,5.3 C62.8,6.2 62.9,6.4 63.5,6.4 L65.4,6.4 C65.6,6.5 65.9,6.6 65.9,6.9 C65.9,7.2 65.7,7.5 65.4,7.5 C64,7.4 62.6,7.8 61.2,8 C60.9,8 60.7,8 60.6,7.7 C60.6,7.5 60.7,7.2 60.9,7.1 C61.1,6.8 61.4,6.7 61.8,6.6 L61.8,6.6 Z M55.7,4.4 C55.9,3.7 56.3,3.4 56.8,3.2 C56.9,3.1 57.2,3.2 57.3,3.3 C57.4,3.4 57.5,3.7 57.5,3.8 C57,4.5 57.3,5.1 57.6,5.7 C57.8,6.1 58,6.4 58.3,6.9 C59,5.9 59.2,4.8 59.7,3.8 C59.4,3.6 59.1,3.5 58.9,3.4 C58.9,3 59.1,2.7 59.5,2.6 C59.8,2.5 60.1,2.3 60.5,2.5 C60.9,2.7 60.7,3.1 60.7,3.4 C60.6,3.8 60.5,4.1 60.3,4.5 C59.9,5.6 59.3,6.7 59.2,8 C59.2,8.5 58.8,8.9 58.2,9.1 C57.3,7.4 56.5,5.8 55.7,4.4 L55.7,4.4 Z" id="Shape" fill="#000000" sketch:type="MSShapeGroup"></path>
    </g>
</svg>