<svg width="42" height="47" viewBox="0 0 42 47" xmlns="http://www.w3.org/2000/svg" xmlns:sketch="http://www.bohemiancoding.com/sketch/ns"><title>next-greeting</title><desc>Created with Sketch.</desc><g sketch:type="MSLayerGroup" fill="#000"><path d="M28.726 2.465c.326.097.628.158.909.274 4.466 1.854 6.901 5.507 8.622 9.805.979 2.442 1.834 4.954 3.06 7.264 1.066 2.008.837 3.97.83 6.082-.016 4.565-2.063 8.286-4.426 11.865-.911 1.379-2.389 2.424-3.724 3.473-2.385 1.872-4.871 3.611-7.776 4.608-1.541.529-3.091 1.09-4.759.534-.083-.029-.221-.079-.256-.043-1.197 1.18-2.282-.176-3.429-.185-1.213-.009-2.45-.283-3.631-.606-3.541-.974-6.538-2.846-8.795-5.795-.698-.911-1.309-1.899-1.87-2.905-1.771-3.172-2.635-6.672-3.578-10.149-.578-2.137.043-4.192.311-6.249.198-1.535 1.4-3.077 1.208-4.486-.23-1.691.61-2.69 1.269-3.823 1.411-2.428 2.615-5.028 5.08-6.697.648-.436 1.028-1.289 1.489-1.978.83-1.237 2.214-1.314 3.443-1.61 2.248-.545 4.554-.841 6.797-1.404 2.7-.681 5.339-.624 7.904.416.623.253 1.8.402 1.321 1.61zm-19.184 3.81c-.563.708-1.156 1.37-1.656 2.098-1.159 1.691-2.401 3.335-2.302 5.591.031.708-.297 1.476-.61 2.146-1.681 3.602-1.413 7.416-1.06 11.173.146 1.558 1.24 3.002 1.638 4.567.855 3.348 2.871 5.842 5.634 7.644 4.14 2.699 8.732 3.459 13.601 2.501 3.262-.642 5.744-2.661 8.226-4.653 1.681-1.347 3.258-2.835 3.953-4.99.711-2.202 1.622-4.368 2.032-6.624.308-1.709.56-3.669-.738-4.847.101-.66.335-1.171.214-1.574-1.136-3.744-2.669-7.3-5.598-10.018-1.447-1.341-2.565-2.953-4.363-4.047-1.843-1.124-3.501-2.333-5.738-2.265-1.003.032-2.128-.081-2.974.332-.922.452-1.584 1.44-2.194 2.03-1.235 0-2.394-.104-3.517.05-.454.061-.841.674-1.246 1.051-1.154 1.069-2.212.066-3.303-.165z" sketch:type="MSShapeGroup"/><path d="M25.496 19.48c-.287-1.353-.25-2.623-1.953-3.046-.46-.113-.795-1.36-.893-2.126-.121-.958.295-1.746 1.467-1.796.476-.019.95-.115 1.231-.15 2.264 2.49 2.348 6.36 5.528 7.999-.093 2.53-1.694 4.296-3.016 6.221-.748 1.09-1.166 2.476-2.082 3.366-.928.904-2.286 1.362-3.787 2.199l-.724-4.17c1.139-.745 2.333-1.292 3.198-2.166.627-.636.824-1.703 1.174-2.594.02-.049-.336-.365-.5-.352-3.05.251-6.156-.587-9.172.534-.912.339-1.913.505-2.887.608-1.52.159-2.174-1.029-1.888-2.545.419-2.229 2.277-1.504 3.415-1.686 2.611-.421 5.296-.39 7.954-.48.94-.031 1.888.113 2.936.183" sketch:type="MSShapeGroup"/></g></svg>