<svg width="42" height="47" viewBox="0 0 42 47" xmlns="http://www.w3.org/2000/svg" xmlns:sketch="http://www.bohemiancoding.com/sketch/ns"><title>next-greeting-hover</title><desc>Created with Sketch.</desc><g sketch:type="MSLayerGroup" fill="none"><path d="M28.726 2.465c.326.097.628.158.909.274 4.466 1.854 6.901 5.507 8.622 9.805.979 2.442 1.834 4.954 3.06 7.264 1.066 2.008.837 3.97.83 6.082-.016 4.565-2.063 8.286-4.426 11.865-.911 1.379-2.389 2.424-3.724 3.473-2.385 1.872-4.871 3.611-7.776 4.608-1.541.529-3.091 1.09-4.759.534-.083-.029-.221-.079-.256-.043-1.197 1.18-2.282-.176-3.429-.185-1.213-.009-2.45-.283-3.631-.606-3.541-.974-6.538-2.846-8.795-5.795-.698-.911-1.309-1.899-1.87-2.905-1.771-3.172-2.635-6.672-3.578-10.149-.578-2.137.043-4.192.311-6.249.198-1.535 1.4-3.077 1.208-4.486-.23-1.691.61-2.69 1.269-3.823 1.411-2.428 2.615-5.028 5.08-6.697.648-.436 1.028-1.289 1.489-1.978.83-1.237 2.214-1.314 3.443-1.61 2.248-.545 4.554-.841 6.797-1.404 2.7-.681 5.339-.624 7.904.416.623.253 1.8.402 1.321 1.61zm-19.184 3.81c-.563.708-1.156 1.37-1.656 2.098-1.159 1.691-2.401 3.335-2.302 5.591.031.708-.297 1.476-.61 2.146-1.681 3.602-1.413 7.416-1.06 11.173.146 1.558 1.24 3.002 1.638 4.567.855 3.348 2.871 5.842 5.634 7.644 4.14 2.699 8.732 3.459 13.601 2.501 3.262-.642 5.744-2.661 8.226-4.653 1.681-1.347 3.258-2.835 3.953-4.99.711-2.202 1.622-4.368 2.032-6.624.308-1.709.56-3.669-.738-4.847.101-.66.335-1.171.214-1.574-1.136-3.744-2.669-7.3-5.598-10.018-1.447-1.341-2.565-2.953-4.363-4.047-1.843-1.124-3.501-2.333-5.738-2.265-1.003.032-2.128-.081-2.974.332-.922.452-1.584 1.44-2.194 2.03-1.235 0-2.394-.104-3.517.05-.454.061-.841.674-1.246 1.051-1.154 1.069-2.212.066-3.303-.165z" fill="#000" sketch:type="MSShapeGroup"/><path fill="#fff" sketch:type="MSShapeGroup" d="M7 10h25v24h-25z"/><path d="M9.542 6.275c1.091.231 2.149 1.234 3.303.165.405-.378.792-.99 1.246-1.051 1.123-.154 2.281-.05 3.517-.05.61-.59 1.271-1.578 2.194-2.03.846-.414 1.971-.301 2.974-.332 2.236-.068 3.895 1.142 5.738 2.265 1.798 1.094 2.916 2.706 4.363 4.047 2.929 2.718 4.462 6.274 5.598 10.018.121.402-.113.913-.214 1.574 1.298 1.178 1.046 3.138.738 4.847-.41 2.256-1.321 4.422-2.032 6.624-.695 2.155-2.273 3.642-3.953 4.99-2.482 1.992-4.963 4.011-8.226 4.653-4.869.959-9.461.199-13.601-2.501-2.763-1.802-4.779-4.296-5.634-7.644-.398-1.565-1.492-3.009-1.638-4.567-.353-3.758-.621-7.572 1.06-11.173.313-.669.641-1.438.61-2.146-.099-2.256 1.143-3.9 2.302-5.591.499-.728 1.093-1.39 1.656-2.098zm15.485 12.444c-1.044.113-2.003.136-2.923.33-2.601.552-5.249.988-7.747 1.856-1.089.378-3.044-.014-3.069 2.254-.018 1.542.832 2.598 2.302 2.177.941-.271 1.897-.608 2.736-1.101 2.774-1.628 5.978-1.343 8.937-2.121.16-.041.565.208.553.26-.189.938-.198 2.023-.704 2.758-.7 1.011-1.78 1.757-2.772 2.688l1.438 3.979c1.332-1.085 2.59-1.773 3.346-2.824.747-1.035.918-2.473 1.465-3.676.968-2.125 2.236-4.142 1.888-6.649-3.416-1.06-4.172-4.856-6.833-6.914-.27.084-.72.26-1.186.362-1.145.253-1.417 1.101-1.132 2.023.229.737.776 1.906 1.249 1.938 1.751.12 1.935 1.377 2.453 2.659z" fill="#fff" sketch:type="MSShapeGroup"/><path d="M30.496 19.48c-.287-1.353-.25-2.623-1.953-3.046-.46-.113-.795-1.36-.893-2.126-.121-.958.295-1.746 1.467-1.796.476-.019.95-.115 1.231-.15 2.264 2.49 2.348 6.36 5.528 7.999-.093 2.53-1.694 4.296-3.016 6.221-.748 1.09-1.166 2.476-2.082 3.366-.928.904-2.286 1.362-3.787 2.199l-.724-4.17c1.139-.745 2.333-1.292 3.198-2.166.627-.636.824-1.703 1.174-2.594.02-.049-.336-.365-.5-.352-3.05.251-6.156-.587-9.172.534-.912.339-1.913.505-2.887.608-1.52.159-2.174-1.029-1.888-2.545.419-2.229 2.277-1.504 3.415-1.686 2.611-.421 5.296-.39 7.954-.48.94-.031 1.888.113 2.936.183" fill="#000" sketch:type="MSShapeGroup"/></g></svg>