<?xml version="1.0" encoding="UTF-8" standalone="no"?>
<svg width="193px" height="120px" viewBox="0 0 193 120" version="1.1" xmlns="http://www.w3.org/2000/svg" xmlns:xlink="http://www.w3.org/1999/xlink" xmlns:sketch="http://www.bohemiancoding.com/sketch/ns">
    <!-- Generator: Sketch 3.1.1 (8761) - http://www.bohemiancoding.com/sketch -->
    <title>or-whatever</title>
    <desc>Created with Sketch.</desc>
    <defs></defs>
    <g id="Page-1" stroke="none" stroke-width="1" fill="none" fill-rule="evenodd" sketch:type="MSPage">
        <g id="Imported-Layers" sketch:type="MSLayerGroup" fill="#000000">
            <path d="M112.764,55.044 C112.923,54.86 113.066,54.743 113.146,54.592 C113.68,53.584 114.243,52.588 114.711,51.55 C115.057,50.783 115.49,50.121 116.176,49.632 C117.103,49.371 117.982,49.698 118.873,49.858 C119.27,49.93 119.518,50.185 119.636,50.562 C119.716,50.821 119.799,51.083 119.841,51.35 C120.083,52.881 120.339,54.411 120.536,55.948 C120.663,56.941 120.682,57.947 120.779,58.944 C120.84,59.577 120.955,60.205 121.052,60.835 C121.056,60.862 121.127,60.879 121.24,60.941 C121.62,60.655 121.93,60.27 122.013,59.777 C122.275,58.236 122.94,56.824 123.384,55.342 C123.919,53.555 124.66,51.831 124.985,49.98 C125.054,49.589 125.349,49.333 125.76,49.328 C126.535,49.318 127.312,49.339 128.086,49.386 C128.485,49.41 128.749,49.668 128.857,50.057 C128.979,50.497 129.108,50.936 129.199,51.383 C129.455,52.632 129.692,53.886 129.94,55.137 C129.993,55.405 130.063,55.67 130.124,55.937 C130.556,57.846 130.976,59.758 131.426,61.664 C131.602,62.409 131.845,63.138 132.067,63.909 C130.961,64.65 129.789,64.163 128.64,64.412 C128.512,64.074 128.345,63.795 128.311,63.502 C128.269,63.149 128.395,62.777 128.349,62.426 C128.279,61.885 128.136,61.353 128.003,60.822 C127.926,60.514 127.809,60.216 127.699,59.879 C126.986,59.634 126.265,59.809 125.478,59.779 C125.376,60.139 125.265,60.475 125.186,60.819 C125.105,61.174 125.07,61.54 124.986,61.894 C124.612,63.466 124.609,63.453 123.029,63.341 C122.485,63.302 121.937,63.328 121.391,63.343 C121.264,63.346 121.102,63.387 121.019,63.472 C120.483,64.026 119.881,63.887 119.239,63.717 C118.624,63.554 117.989,63.468 117.361,63.353 C116.607,63.215 116.455,63.038 116.558,62.241 C116.729,60.925 116.791,59.606 116.745,58.281 C116.736,58.019 116.686,57.759 116.649,57.452 C115.814,58.258 114.963,59.854 114.667,61.12 C114.411,61.425 114.053,61.489 113.683,61.507 C113.41,61.519 113.135,61.496 112.863,61.512 C111.778,61.575 111.62,61.53 111.262,60.48 C110.953,59.572 110.572,58.702 110.162,57.84 C110.088,57.684 109.97,57.55 109.884,57.423 C109.792,57.442 109.74,57.438 109.717,57.462 C109.688,57.492 109.672,57.544 109.668,57.587 C109.586,58.404 109.448,59.221 109.441,60.039 C109.432,61.262 109.359,62.501 109.851,63.679 C110.005,64.049 109.8,64.401 109.442,64.363 C108.334,64.244 107.283,64.618 106.197,64.656 C105.56,64.678 105.559,64.664 104.99,63.87 C105.426,63.188 105.454,62.369 105.523,61.555 C105.627,60.33 105.721,59.103 105.821,57.881 C105.901,56.89 106.002,55.889 106.069,54.894 C106.136,53.895 106.222,52.888 105.958,51.895 C105.902,51.68 105.912,51.44 105.934,51.215 C105.982,50.713 106.294,50.312 106.778,50.276 C107.678,50.21 108.587,49.965 109.59,50.341 C110.603,51.841 111.667,53.419 112.764,55.044 L112.764,55.044 Z M126.903,56.879 C126.908,56.196 126.977,55.593 126.469,54.882 C126.326,55.497 126.194,55.927 126.133,56.367 C126.072,56.805 126.382,56.894 126.903,56.879 L126.903,56.879 Z" id="Fill-1" sketch:type="MSShapeGroup"></path>
            <path d="M72.928,63.296 C72.848,64.31 73.021,65.186 73.183,66.064 C73.29,66.648 73.411,67.231 73.473,67.819 C73.527,68.327 73.172,68.781 72.695,68.741 C72.001,68.682 71.35,68.761 70.698,68.983 C70.488,69.054 70.245,69.04 70.017,69.039 C69.394,69.036 69.046,68.769 69.016,68.159 C68.929,66.378 68.534,64.657 68.126,62.93 C67.887,61.915 67.927,60.83 67.641,59.833 C67.364,58.873 66.984,57.944 66.857,56.94 C66.823,56.67 66.716,56.409 66.679,56.139 C66.606,55.595 66.843,55.226 67.386,55.184 C68.28,55.116 69.045,54.726 69.826,54.354 C70.44,54.062 71.049,53.755 71.674,53.486 C72.858,52.977 74.117,52.793 75.39,52.704 C76.105,52.655 76.723,52.921 77.247,53.416 C78.021,54.147 78.612,54.993 79.022,55.982 C79.483,57.095 79.664,58.259 79.676,59.441 C79.682,59.973 79.474,60.51 79.344,61.039 C79.191,61.664 78.828,62.078 78.172,62.235 C77.83,62.316 77.486,62.453 77.235,62.835 C78.459,64.397 80.27,65.236 81.681,66.594 C82.008,65.298 81.99,65.271 81.745,64.313 C81.612,63.789 81.533,63.25 81.459,62.713 C81.156,60.505 80.879,58.294 80.561,56.088 C80.444,55.279 80.244,54.481 80.077,53.679 C79.935,52.993 80.148,52.637 80.847,52.512 C81.201,52.449 81.572,52.47 81.935,52.464 C82.39,52.455 82.845,52.478 83.298,52.45 C84.175,52.397 84.664,52.758 84.803,53.631 C84.939,54.485 85.064,55.341 85.171,56.2 C85.395,58.005 85.61,59.812 85.818,61.62 C85.917,62.477 85.991,63.338 86.081,64.196 C86.172,65.052 86.269,65.906 86.375,66.865 C86.201,66.931 85.967,67.088 85.726,67.101 C84.725,67.152 83.721,67.159 82.672,67.184 C82.735,68.128 82.277,68.651 81.452,68.923 C80.965,69.084 80.607,69.394 80.318,69.852 C80.01,70.341 79.417,70.304 79.055,69.843 C78.918,69.669 78.853,69.44 78.736,69.248 C78.619,69.058 78.516,68.823 78.341,68.713 C77.823,68.387 77.545,67.858 77.15,67.431 C76.657,66.898 76.139,66.389 75.626,65.875 C74.922,65.168 74.074,64.604 73.532,63.736 C73.416,63.549 73.228,63.42 72.928,63.296 L72.928,63.296 Z M71.773,57.816 C71.905,58.616 71.902,59.417 72.237,60.202 C72.857,60.068 73.431,59.958 73.997,59.818 C74.257,59.753 74.513,59.651 74.752,59.53 C75.106,59.351 75.275,59.048 75.253,58.644 C75.225,58.147 74.878,57.175 74.47,56.502 C73.575,56.78 72.717,57.155 71.773,57.816 L71.773,57.816 Z" id="Fill-2" sketch:type="MSShapeGroup"></path>
            <path d="M42.328,49.162 C42.398,49.658 42.409,49.973 42.488,50.27 C42.981,52.12 43.409,53.987 44.09,55.784 C44.33,56.417 44.49,57.088 44.614,57.756 C44.756,58.519 44.576,58.748 43.862,58.949 C43.03,59.184 42.202,59.432 41.37,59.666 C40.578,59.889 40.023,59.583 40.059,58.793 C40.125,57.371 39.561,56.105 39.14,54.829 C38.594,53.175 38.4,51.468 38.017,49.792 C37.734,48.554 37.325,47.345 36.974,46.122 C36.887,45.818 36.771,45.516 36.731,45.205 C36.633,44.437 36.569,43.665 36.496,42.894 C36.443,42.321 36.589,42.008 37.164,41.873 C37.866,41.709 38.596,41.599 39.314,41.604 C39.684,41.606 40.103,41.842 40.41,42.086 C40.832,42.423 41.181,42.857 41.541,43.268 C42.438,44.295 43.253,45.402 44.381,46.205 C44.488,46.281 44.615,46.328 44.812,46.429 C45.003,45.892 45.244,45.404 45.35,44.889 C45.698,43.195 45.997,41.491 46.315,39.791 C46.357,39.567 46.404,39.343 46.45,39.12 C46.521,38.78 46.719,38.541 47.048,38.432 C47.866,38.16 48.691,37.909 49.507,37.628 C49.964,37.47 50.299,37.638 50.554,37.902 C50.775,38.846 51.028,39.721 51.179,40.613 C51.692,43.643 52.809,46.487 53.822,49.364 C54.215,50.482 54.623,51.597 54.978,52.728 C55.144,53.256 55.323,53.749 55.672,54.194 C55.979,54.585 55.908,54.973 55.519,55.263 C55.193,55.506 54.824,55.695 54.465,55.89 C54.106,56.084 53.73,56.248 53.369,56.438 C52.682,56.8 52.105,56.545 51.932,55.793 C51.922,55.749 51.915,55.704 51.91,55.658 C51.66,53.611 51.004,51.675 50.316,49.745 C50.117,49.189 49.985,48.609 49.803,48.046 C49.735,47.837 49.612,47.648 49.432,47.283 C49.262,47.715 49.107,47.978 49.056,48.26 C48.866,49.291 48.736,50.334 48.535,51.363 C48.306,52.535 47.115,52.973 46.164,52.232 C45.449,51.675 44.789,51.047 44.084,50.476 C43.564,50.053 43.011,49.67 42.328,49.162" id="Fill-3" sketch:type="MSShapeGroup"></path>
            <path d="M92.45,61.871 C91.849,61.174 91.232,60.883 90.644,60.563 C89.844,60.128 89.048,59.676 88.215,59.314 C87.138,58.846 86.467,57.97 85.976,57.007 C85.563,56.197 85.588,55.273 86.079,54.407 C86.616,53.459 87.495,53.024 88.448,52.673 C88.659,52.595 88.924,52.626 89.108,52.515 C90.706,51.549 92.51,51.6 94.269,51.468 C95.22,51.397 96.181,51.462 97.137,51.447 C98.183,51.43 99.225,51.47 100.272,51.284 C101.299,51.101 102.353,51.066 103.396,50.977 C103.666,50.953 103.944,50.936 104.212,50.97 C104.935,51.063 105.3,51.443 105.226,52.162 C105.124,53.149 105.4,54.185 104.841,55.14 C104.058,55.744 103.2,55.091 102.298,55.155 C102.014,56.851 102.34,58.46 102.582,60.07 C102.824,61.682 103.08,63.292 103.326,64.876 C102.981,65.279 102.542,65.23 102.153,65.265 C101.337,65.34 100.517,65.371 99.698,65.402 C99.168,65.422 98.718,64.983 98.767,64.451 C98.925,62.768 98.747,61.113 98.462,59.457 C98.316,58.609 98.293,57.74 98.188,56.884 C98.14,56.484 98.123,56.053 97.659,55.725 C96.103,55.762 94.463,55.621 92.833,55.873 C92.523,55.92 92.204,55.985 91.922,56.115 C91.459,56.327 91.393,56.943 91.812,57.226 C92.338,57.581 92.885,57.916 93.457,58.187 C94.549,58.702 95.479,59.409 96.286,60.3 C97.198,61.306 97.386,62.54 96.519,63.797 C95.88,64.724 95.1,65.413 93.897,65.562 C92.361,65.752 90.839,66.053 89.309,66.292 C88.73,66.382 88.296,66.145 88.192,65.554 C88.051,64.754 87.984,63.931 87.984,63.119 C87.984,62.552 88.515,62.159 89.179,62.315 C90.281,62.574 91.23,62.115 92.45,61.871" id="Fill-4" sketch:type="MSShapeGroup"></path>
            <path d="M136.009,73.667 C136.517,72.471 137.009,71.652 137.214,70.708 C137.262,70.486 137.311,70.258 137.405,70.054 C137.602,69.627 138.038,69.435 138.536,69.493 C138.936,69.54 139.343,69.609 139.741,69.579 C140.384,69.53 140.934,69.62 141.222,70.23 C141.372,70.222 141.479,70.25 141.539,70.208 C142.239,69.721 142.995,69.556 143.855,69.616 C144.529,69.662 145.22,69.553 145.896,69.457 C146.772,69.333 147.617,69.399 148.453,69.661 C148.885,70.373 148.887,71.172 148.99,71.926 C149.03,72.217 148.694,72.559 148.532,72.873 C147.183,73.1 145.862,72.387 144.523,72.963 C144.396,73.427 144.385,73.904 144.618,74.443 C145.281,74.648 145.953,74.484 146.621,74.428 C147.076,74.39 147.518,74.335 147.966,74.526 C148.73,74.852 148.993,75.856 148.388,76.433 C148.108,76.7 147.709,76.9 147.33,76.994 C146.671,77.158 145.984,77.209 145.311,77.321 C145.001,77.373 144.666,77.403 144.4,77.548 C144.262,77.624 144.193,77.932 144.203,78.13 C144.209,78.244 144.439,78.444 144.561,78.439 C145.468,78.403 146.381,78.377 147.277,78.247 C148.336,78.092 148.926,78.695 148.58,79.726 C148.484,80.01 148.523,80.244 148.537,80.512 C148.577,81.292 148.177,81.694 147.405,81.706 C147.36,81.707 147.313,81.709 147.268,81.702 C145.586,81.422 143.923,81.571 142.269,81.923 C142.225,81.932 142.178,81.931 142.133,81.935 C140.689,82.064 140.351,81.145 140.415,80.084 C140.426,79.907 140.544,79.738 140.566,79.56 C140.654,78.838 140.729,78.114 140.8,77.39 C140.826,77.119 140.765,76.823 140.853,76.577 C141.262,75.433 141.133,74.229 141.284,73.057 C141.341,72.614 141.313,72.611 140.948,71.746 C140.032,72.559 139.368,73.519 138.956,74.638 C138.5,75.879 138.081,77.135 137.691,78.398 C137.532,78.914 137.503,79.469 137.396,80.002 C137.233,80.809 136.993,81.03 136.238,81.083 C135.693,81.121 135.147,81.151 134.601,81.171 C134.031,81.192 133.643,80.862 133.608,80.28 C133.575,79.736 133.583,79.188 133.61,78.644 C133.659,77.628 133.486,76.648 133.178,75.686 C132.732,74.297 132.291,72.906 131.836,71.519 C131.749,71.253 131.693,71.011 131.78,70.726 C131.942,70.195 132.223,69.924 132.739,69.927 C133.327,69.93 133.915,69.958 134.503,69.98 C135.021,69.999 135.18,70.186 135.27,70.738 C135.38,71.409 135.525,72.074 135.671,72.738 C135.716,72.944 135.814,73.139 136.009,73.667" id="Fill-5" sketch:type="MSShapeGroup"></path>
            <path d="M51.057,64.15 C50.475,64.5 49.964,64.76 49.561,65.232 C48.859,66.053 48.576,66.968 48.756,68.022 C48.909,68.917 49.038,69.822 49.273,70.697 C49.629,72.022 50.557,72.736 51.905,72.958 C52.531,73.061 52.984,72.857 53.303,72.341 C53.541,71.954 53.719,71.53 53.96,71.144 C54.22,70.726 54.62,70.526 55,70.734 C55.872,71.213 56.908,71.368 57.69,72.063 C57.806,72.948 57.526,73.692 56.988,74.354 C56.371,75.112 55.627,75.663 54.684,76.001 C53.423,76.453 52.144,76.751 50.811,76.752 C49.623,76.752 48.627,76.324 47.783,75.426 C46.868,74.455 46.067,73.397 45.391,72.271 C44.62,70.988 44.038,69.617 44.046,68.032 C44.051,67.025 44.042,66.028 44.217,65.037 C44.644,62.608 45.999,60.787 48.016,59.458 C48.488,59.147 49.131,59.098 49.695,58.927 C50.869,58.572 51.945,58.886 52.986,59.416 C53.907,59.885 54.597,60.588 55.075,61.506 C55.201,61.748 55.374,61.965 55.505,62.205 C55.824,62.788 55.64,63.668 55.09,64.038 C54.523,64.419 53.931,64.762 53.342,65.109 C52.855,65.397 52.374,65.354 51.942,64.996 C51.664,64.764 51.416,64.495 51.057,64.15" id="Fill-6" sketch:type="MSShapeGroup"></path>
            <path d="M77.9,43.065 C78.218,44.98 78.538,46.809 79.057,48.8 C78.904,49.268 78.508,49.522 77.774,49.371 C77.2,49.253 76.591,49.318 76.001,49.261 C75.567,49.219 75.368,48.972 75.167,48.528 C74.506,47.068 74.536,45.507 74.335,43.983 C74.044,41.766 73.824,39.54 73.56,37.319 C73.511,36.913 73.414,36.511 73.31,36.115 C73.072,35.208 73.129,34.395 73.956,33.785 C74.062,33.707 74.137,33.587 74.206,33.509 C74.326,33.471 74.413,33.417 74.498,33.42 C76.183,33.475 77.875,33.38 79.548,33.69 C80.231,33.816 80.871,34.041 81.454,34.417 C83.26,35.579 84.084,37.949 83.333,39.93 C83.143,40.431 82.818,40.88 82.555,41.352 C82.588,41.5 82.596,41.642 82.652,41.762 C83.478,43.54 84.313,45.314 85.139,47.092 C85.273,47.378 85.401,47.672 85.483,47.975 C85.554,48.235 85.338,48.548 85.079,48.607 C84.904,48.647 84.718,48.67 84.538,48.661 C84.07,48.637 83.645,48.757 83.212,48.93 C82.443,49.238 81.899,49.018 81.528,48.286 C81.384,48.003 81.292,47.694 81.174,47.397 C80.727,46.262 80.282,45.125 79.827,43.993 C79.742,43.782 79.648,43.56 79.501,43.392 C79.3,43.162 79.07,42.867 78.805,42.808 C78.551,42.751 78.237,42.958 77.9,43.065 L77.9,43.065 Z M77.331,40.089 C77.793,39.854 78.149,39.686 78.493,39.496 C79.13,39.145 79.302,38.564 79.241,37.888 C79.144,36.81 78.412,36.339 77.368,36.684 C77.25,36.724 77.157,36.838 77.044,36.923 C76.801,37.979 77.259,38.944 77.331,40.089 L77.331,40.089 Z" id="Fill-7" sketch:type="MSShapeGroup"></path>
            <path d="M90.299,78.683 C89.49,80.201 89.205,81.561 89.051,82.978 C88.265,83.281 87.482,83.068 86.729,83.154 C86.332,83.199 85.861,82.647 85.873,82.233 C85.901,81.293 85.569,80.447 85.313,79.571 C85.033,78.611 84.858,77.621 84.618,76.649 C84.498,76.163 84.328,75.689 84.191,75.207 C83.845,73.984 83.505,72.759 83.142,71.465 C83.261,71.335 83.382,71.126 83.564,71.021 C84.153,70.68 84.764,70.376 85.368,70.06 C85.711,69.881 86.21,70.059 86.223,70.441 C86.273,71.834 87.157,73.01 87.185,74.415 C87.195,74.934 87.483,75.447 87.633,75.925 C88.048,75.978 88.097,75.703 88.169,75.528 C88.529,74.642 88.921,73.761 89.181,72.844 C89.321,72.348 89.629,72.064 89.97,71.775 C90.28,71.512 90.719,71.63 90.875,72.007 C91.136,72.638 91.362,73.283 91.624,73.913 C91.782,74.29 91.967,74.658 92.167,75.016 C92.32,75.29 92.514,75.541 92.711,75.832 C93.202,75.665 93.323,75.235 93.428,74.885 C93.805,73.62 94.219,72.361 94.316,71.028 C94.394,69.969 94.888,69.582 95.936,69.717 C96.071,69.735 96.201,69.788 96.336,69.807 C97.649,69.993 97.65,69.992 97.561,71.343 C97.543,71.615 97.555,71.898 97.482,72.155 C96.68,74.992 96.603,77.919 96.387,80.828 C96.361,81.188 96.456,81.557 96.432,81.919 C96.412,82.229 96.33,82.543 96.225,82.838 C96.102,83.183 95.759,83.381 95.46,83.267 C94.599,82.939 93.778,83.027 92.924,83.266 C92.557,83.368 92.179,83.201 91.967,82.866 C91.678,82.408 91.382,81.939 91.189,81.436 C90.88,80.634 90.654,79.8 90.299,78.683" id="Fill-8" sketch:type="MSShapeGroup"></path>
            <path d="M89.008,36.519 C89.471,35.163 89.778,34.036 89.963,32.875 C90.013,32.56 90.03,32.237 90.105,31.928 C90.28,31.201 90.641,30.94 91.377,30.98 C92.148,31.022 92.92,31.061 93.689,31.121 C94.326,31.171 94.578,31.458 94.56,32.102 C94.553,32.325 94.536,32.573 94.436,32.763 C93.249,35.005 92.759,37.473 92.147,39.895 C91.59,42.103 91.054,44.32 90.8,46.592 C90.703,47.455 90.584,48.312 90.813,49.173 C90.858,49.345 90.864,49.534 90.853,49.713 C90.777,50.918 90.438,51.217 89.239,51.222 C88.651,51.225 88.061,51.271 87.475,51.329 C86.662,51.41 86.265,51.028 86.382,50.218 C86.466,49.633 86.554,49.046 86.677,48.468 C86.98,47.05 87.287,45.633 87.626,44.224 C87.814,43.438 87.756,42.772 87.337,42.017 C86.123,39.828 85.02,37.578 83.908,35.334 C83.649,34.81 83.501,34.225 83.349,33.654 C83.247,33.271 83.402,32.933 83.736,32.705 C84.186,32.396 84.643,32.098 85.099,31.799 C85.174,31.75 85.262,31.719 85.345,31.682 C86.087,31.349 86.521,31.518 86.874,32.273 C87.355,33.305 87.831,34.339 88.326,35.364 C88.482,35.687 88.69,35.985 89.008,36.519" id="Fill-9" sketch:type="MSShapeGroup"></path>
            <path d="M157.058,78.627 C157.875,79.841 158.851,80.85 159.88,81.812 C160.012,81.936 160.184,82.019 160.312,82.147 C161.098,82.934 160.886,83.437 160.176,83.934 C159.59,84.345 158.891,84.6 158.548,85.326 C158.419,85.599 157.818,85.608 157.552,85.382 C157.279,85.149 156.987,84.895 156.823,84.586 C155.987,83.004 154.806,81.684 153.73,80.329 C153.345,80.324 153.31,80.585 153.286,80.791 C153.217,81.379 153.195,81.973 153.136,82.562 C153.095,82.969 153.057,83.382 152.957,83.777 C152.819,84.314 152.231,84.633 151.786,84.364 C151.153,83.98 150.485,83.731 149.784,83.515 C149.303,83.366 149.015,82.759 149.189,82.283 C149.86,80.453 149.767,78.52 149.996,76.631 C150.138,75.456 150.292,74.283 150.445,73.109 C150.532,72.44 150.797,71.789 150.587,71.091 C150.54,70.934 150.643,70.736 150.665,70.555 C150.732,69.975 151.058,69.598 151.629,69.581 C152.489,69.554 153.372,69.51 154.207,69.671 C154.905,69.806 155.602,70.142 156.205,70.534 C157.774,71.557 158.485,73.098 158.548,74.935 C158.597,76.354 158.185,77.624 157.058,78.627 L157.058,78.627 Z M154.205,73.186 C153.729,73.755 153.527,74.372 153.572,75.072 C153.576,75.147 153.659,75.218 153.728,75.324 C154.109,75.276 154.517,75.275 154.798,74.839 C154.831,74.253 154.907,73.625 154.205,73.186 L154.205,73.186 Z" id="Fill-10" sketch:type="MSShapeGroup"></path>
            <path d="M62.603,37.028 C62.721,36.395 63.219,36.077 63.917,35.971 C66.046,35.649 68.113,35.909 70.062,36.793 C71.833,37.597 72.691,39.832 72.04,41.671 C71.844,42.226 71.608,42.767 71.365,43.378 C71.968,44.304 72.542,45.231 73.161,46.126 C73.708,46.916 74.194,47.713 74.41,48.675 C74.515,49.141 74.405,49.476 74.147,49.809 C73.82,50.229 73.35,50.414 72.849,50.502 C72.349,50.59 71.967,50.315 71.702,49.751 C70.707,47.623 69.226,45.851 67.616,44.175 C67.592,44.15 67.535,44.157 67.488,44.148 C67.225,44.196 67.268,44.403 67.306,44.57 C67.595,45.855 67.912,47.135 68.187,48.423 C68.347,49.174 68.445,49.937 68.552,50.581 C68.191,51.196 67.705,51.333 67.209,51.423 C66.629,51.529 66.043,51.605 65.458,51.681 C65.057,51.733 64.755,51.514 64.693,51.093 C64.568,50.237 64.446,49.379 64.367,48.518 C64.245,47.206 64.179,45.889 64.055,44.578 C63.94,43.361 63.851,42.135 63.621,40.937 C63.382,39.692 62.987,38.477 62.603,37.028 L62.603,37.028 Z M66.771,39.027 C66.542,39.695 66.63,40.324 66.989,40.934 C67.695,40.978 68.15,40.67 68.489,40.155 C68.029,39.141 67.724,38.94 66.771,39.027 L66.771,39.027 Z" id="Fill-11" sketch:type="MSShapeGroup"></path>
            <path d="M61.745,65.895 C61.546,66.61 61.666,67.261 61.931,67.913 C62.191,68.554 62.343,69.218 62.094,70.001 C61.917,70.093 61.69,70.239 61.444,70.334 C60.766,70.593 60.076,70.819 59.4,71.08 C58.708,71.348 58.168,70.938 58.185,70.164 C58.195,69.713 58.2,69.252 58.119,68.811 C57.947,67.875 57.719,66.948 57.511,66.018 C57.393,65.488 57.32,64.941 57.135,64.435 C56.88,63.74 56.754,63.029 56.698,62.302 C56.604,61.077 56.506,59.852 56.457,58.624 C56.422,57.756 56.555,57.628 57.371,57.357 C57.76,57.228 58.138,57.066 58.527,56.936 C59.16,56.726 59.583,56.995 59.705,57.663 C59.964,59.094 60.225,60.525 60.49,61.955 C60.531,62.175 60.596,62.39 60.667,62.678 C60.942,62.71 61.208,62.791 61.458,62.759 C62.039,62.683 62.614,62.552 63.275,62.427 C63.28,62.154 63.327,61.886 63.283,61.635 C63.078,60.467 62.863,59.301 62.458,58.18 C62.351,57.882 62.248,57.573 62.216,57.261 C62.174,56.859 62.206,56.449 62.206,55.955 C62.949,55.697 63.658,55.397 64.395,55.211 C65.154,55.02 65.76,55.461 65.875,56.236 C66.318,59.21 66.733,62.188 67.181,65.162 C67.296,65.923 67.491,66.672 67.649,67.427 C67.695,67.65 67.753,67.872 67.781,68.098 C67.848,68.626 67.669,68.98 67.189,69.208 C66.514,69.53 65.778,69.577 65.052,69.56 C64.679,69.55 64.395,69.272 64.202,68.933 C64.222,68.528 64.309,68.113 64.248,67.72 C64.129,66.962 63.927,66.216 63.753,65.437 C63.022,65.462 62.383,65.651 61.745,65.895" id="Fill-12" sketch:type="MSShapeGroup"></path>
            <path d="M141.163,52.042 C141.104,52.812 141.059,53.443 141.005,54.073 C140.968,54.501 140.855,54.69 140.31,55.271 C140.019,55.126 139.702,54.976 139.391,54.813 C138.975,54.594 138.538,54.503 138.07,54.565 C137.668,54.619 137.44,54.934 137.502,55.346 C137.568,55.78 137.754,56.141 138.183,56.298 C139.782,56.884 140.873,58.135 142.064,59.253 C143.215,60.334 143.332,61.743 143.159,63.181 C143.083,63.819 142.617,64.42 142.101,64.712 C140.878,65.404 139.578,65.984 138.153,66.165 C136.471,66.38 135.13,65.63 133.963,64.552 C133.436,64.065 133.037,63.427 132.628,62.825 C132.177,62.16 132.28,61.673 132.908,61.168 C133.266,60.881 133.633,60.612 134.117,60.577 C134.527,60.546 134.909,60.519 135.272,60.826 C135.991,61.434 136.891,61.64 137.789,61.821 C138.148,61.894 138.53,61.98 138.761,61.575 C138.972,61.205 138.848,60.636 138.493,60.34 C138.284,60.165 138.049,60.017 137.813,59.881 C136.579,59.17 135.463,58.312 134.565,57.202 C133.995,56.498 133.426,55.784 132.957,55.013 C132.683,54.562 132.492,53.995 132.468,53.472 C132.429,52.629 132.698,51.899 133.531,51.412 C134.546,50.819 135.59,50.459 136.765,50.493 C136.992,50.499 137.223,50.517 137.445,50.484 C139.001,50.251 140.195,50.86 141.163,52.042" id="Fill-13" sketch:type="MSShapeGroup"></path>
            <path d="M55.971,52.983 C55.88,52.364 55.768,51.699 55.685,51.029 C55.428,48.95 55.197,46.874 54.251,44.948 C53.979,44.394 53.919,43.732 53.783,43.115 C53.675,42.626 53.597,42.131 53.511,41.637 C53.404,41.029 53.569,40.467 53.843,39.828 C54.936,39.322 56.079,38.786 57.376,38.635 C57.866,38.577 58.333,38.34 58.817,38.212 C59.12,38.133 59.436,38.064 59.746,38.065 C60.144,38.068 60.43,38.285 60.552,38.686 C60.699,39.165 60.872,39.637 60.999,40.122 C61.265,41.139 60.93,41.676 59.898,41.912 C59.497,42.004 59.092,42.071 58.689,42.151 C58.136,42.26 57.684,42.548 57.286,42.895 C57.433,43.843 57.525,43.912 58.285,43.708 C58.768,43.578 59.248,43.423 59.74,43.341 C60.045,43.289 60.384,43.295 60.68,43.378 C60.985,43.465 61.214,43.688 61.254,44.066 C61.316,44.651 61.422,45.23 61.555,46.111 C61.516,46.56 61.049,46.914 60.345,47.027 C59.661,47.137 59.058,47.448 58.377,47.739 C58.484,48.095 58.57,48.378 58.671,48.715 C59.555,48.613 60.305,48.265 61.092,48.073 C61.491,47.976 61.875,47.811 62.276,47.735 C63.226,47.556 63.784,48.03 63.791,48.982 C63.793,49.34 63.828,49.702 63.791,50.056 C63.736,50.576 63.54,51.039 62.994,51.224 C62.564,51.37 62.127,51.524 61.681,51.589 C60.271,51.796 58.917,52.152 57.623,52.771 C57.159,52.993 56.65,53.32 55.971,52.983" id="Fill-14" sketch:type="MSShapeGroup"></path>
            <path d="M102.816,78.958 C102.16,78.879 101.679,78.899 101.229,79.256 C101.038,80.094 101.095,80.959 101.099,81.822 C101.103,82.585 100.831,82.92 100.106,83.025 C99.61,83.096 99.111,83.158 98.612,83.18 C97.947,83.211 97.545,82.724 97.814,82.115 C98.311,80.986 98.236,79.81 98.251,78.636 C98.263,77.594 98.248,76.551 98.26,75.508 C98.264,75.147 98.298,74.785 98.341,74.427 C98.423,73.752 98.587,73.085 98.476,72.395 C98.447,72.218 98.451,72.025 98.489,71.851 C98.789,70.473 98.874,70.382 100.327,70.498 C100.861,70.54 101.108,70.83 101.173,71.395 C101.336,72.796 101.544,74.195 101.396,75.614 C101.378,75.787 101.443,75.969 101.469,76.144 C102.043,76.474 102.625,76.377 103.225,76.351 C103.554,75.769 103.519,75.167 103.55,74.591 C103.598,73.726 103.559,72.857 103.613,71.993 C103.647,71.453 103.742,70.908 103.888,70.387 C104.039,69.848 104.502,69.602 105.051,69.666 C105.732,69.745 106.338,70.264 106.467,70.966 C106.548,71.41 106.568,71.876 106.536,72.327 C106.352,74.869 106.121,77.408 105.959,79.952 C105.901,80.852 106.002,81.762 106.011,82.667 C106.016,83.186 105.743,83.474 105.189,83.574 C104.699,83.663 104.206,83.734 103.716,83.817 C102.991,83.94 102.456,83.485 102.504,82.743 C102.542,82.152 102.648,81.566 102.698,80.976 C102.751,80.346 102.774,79.714 102.816,78.958" id="Fill-15" sketch:type="MSShapeGroup"></path>
            <path d="M70.109,76.907 C69.825,76.407 69.876,76.016 70.251,75.849 C70.824,75.595 71.226,75.207 71.533,74.685 C71.836,74.17 72.304,73.954 72.886,73.884 C73.564,73.801 74.231,73.634 74.908,73.55 C75.964,73.42 77.001,73.47 77.949,74.041 C78.827,74.572 79.299,75.618 79.08,76.607 C79.001,76.962 78.862,77.303 78.733,77.706 C78.851,77.859 78.959,78.067 79.127,78.202 C80.228,79.082 81.349,79.937 82.447,80.82 C82.724,81.043 82.972,81.319 83.177,81.611 C83.416,81.953 83.195,82.349 82.764,82.406 C82.631,82.424 82.487,82.44 82.36,82.407 C81.827,82.267 81.377,82.46 80.936,82.723 C80.741,82.839 80.543,82.959 80.331,83.036 C79.907,83.192 79.469,83.091 79.251,82.701 C78.701,81.719 77.775,81.104 77.023,80.322 C76.557,79.839 76.029,79.696 75.409,80.192 C75.324,80.99 75.582,81.775 75.737,82.573 C75.815,82.972 75.928,83.372 75.941,83.775 C75.958,84.296 75.679,84.627 75.164,84.756 C74.59,84.899 74.008,85.014 73.425,85.118 C73.026,85.19 72.691,85.017 72.549,84.644 C72.454,84.396 72.396,84.117 72.397,83.852 C72.401,82.76 72.405,81.668 72.053,80.616 C71.702,79.57 71.662,78.477 71.533,77.396 C71.446,76.674 71.272,76.586 70.534,76.793 C70.405,76.829 70.276,76.862 70.109,76.907 L70.109,76.907 Z M75.832,76.266 C75.146,76.248 75.146,76.248 75.231,76.871 C75.439,76.661 75.602,76.498 75.832,76.266 L75.832,76.266 Z" id="Fill-16" sketch:type="MSShapeGroup"></path>
            <path d="M111.997,78.247 C111.15,78.421 110.485,78.558 109.841,78.691 C109.344,79.188 109.398,79.814 109.38,80.388 C109.361,80.973 109.503,81.566 109.111,82.188 C108.605,82.214 108.068,82.256 107.531,82.266 C106.753,82.282 106.421,81.839 106.483,81.071 C106.694,78.472 107.331,75.952 107.851,73.41 C108.015,72.607 108.115,71.792 108.272,70.988 C108.333,70.679 108.475,70.386 108.573,70.106 C108.973,69.773 109.428,69.746 109.887,69.751 C110.205,69.755 110.523,69.79 110.841,69.802 C111.196,69.815 111.605,69.709 111.895,69.85 C112.348,70.07 112.303,70.622 112.4,71.06 C112.627,72.088 112.961,73.07 113.46,74.007 C114.391,75.753 114.92,77.635 115.22,79.587 C115.309,80.17 115.443,80.747 115.553,81.327 C115.644,81.805 115.424,82.156 114.979,82.236 C114.399,82.34 113.817,82.43 113.238,82.536 C112.405,82.688 111.993,82.359 112.122,81.516 C112.285,80.46 112.059,79.446 111.997,78.247 L111.997,78.247 Z M110.561,74.712 C110.487,75.114 110.423,75.465 110.354,75.841 C110.578,75.883 110.707,75.934 110.83,75.923 C110.953,75.911 111.07,75.837 111.193,75.788 C111.167,75.351 111.05,74.991 110.561,74.712 L110.561,74.712 Z" id="Fill-17" sketch:type="MSShapeGroup"></path>
            <path d="M127.574,73.724 C127.829,73.71 128.093,73.735 128.337,73.676 C129.024,73.511 129.699,73.682 130.375,73.734 C130.833,73.768 131.059,74.09 131.077,74.588 C131.088,74.906 131.077,75.225 131.08,75.544 C131.089,76.359 130.854,76.734 130.082,76.938 C129.649,77.053 129.182,77.039 128.732,77.093 C128.282,77.148 127.828,77.192 127.389,77.297 C127.301,77.318 127.229,77.589 127.232,77.743 C127.234,77.835 127.404,78.004 127.49,77.999 C127.895,77.973 128.297,77.892 128.702,77.843 C129.333,77.767 129.963,77.671 130.597,77.639 C131.157,77.611 131.453,77.901 131.475,78.441 C131.491,78.847 131.486,79.256 131.455,79.661 C131.412,80.238 130.971,80.657 130.384,80.704 C128.799,80.833 127.212,80.952 125.628,81.086 C125.312,81.113 124.993,81.165 124.691,81.255 C124.281,81.377 123.963,81.237 123.71,80.95 C123.497,80.708 123.319,80.401 123.549,80.081 C123.979,79.483 123.947,78.804 123.989,78.119 C124.086,76.526 124.242,74.936 124.354,73.344 C124.386,72.893 124.364,72.436 124.345,71.982 C124.306,71.075 124.596,70.57 125.462,70.368 C126.303,70.173 127.168,70.036 128.029,69.995 C128.661,69.964 129.291,69.952 129.923,69.872 C130.662,69.777 131.031,70.127 131.044,70.877 C131.048,71.146 130.977,71.417 130.984,71.685 C131.009,72.655 130.949,72.777 130.033,72.984 C129.368,73.135 128.686,73.214 128.012,73.33 C127.845,73.359 127.68,73.404 127.514,73.442 C127.534,73.536 127.554,73.63 127.574,73.724" id="Fill-18" sketch:type="MSShapeGroup"></path>
            <path d="M70.736,80.936 C70.693,81.251 70.705,81.586 70.598,81.878 C69.982,83.556 69.01,84.952 67.312,85.695 C65.826,86.345 64.265,85.899 63.309,84.6 C62.373,83.327 61.969,81.963 62.324,80.359 C62.539,79.384 62.608,78.394 63.161,77.508 C64.135,75.949 64.776,75.686 66.573,76.162 C68.18,76.589 69.29,77.611 70.055,79.029 C70.371,79.617 70.837,80.18 70.736,80.936 L70.736,80.936 Z M67.976,80.972 C67.958,79.927 67.522,79.334 66.816,78.915 C66.508,78.732 66.143,78.826 66.015,79.15 C65.703,79.946 65.388,80.746 65.147,81.566 C65.052,81.89 65.094,82.283 65.172,82.622 C65.29,83.131 65.801,83.344 66.224,83.045 C66.697,82.71 67.156,82.328 67.534,81.89 C67.785,81.6 67.882,81.176 67.976,80.972 L67.976,80.972 Z" id="Fill-19" sketch:type="MSShapeGroup"></path>
            <path d="M120.974,73.983 C121.135,76.011 120.887,77.873 121.112,79.733 C121.171,80.226 121.141,80.733 121.113,81.231 C121.1,81.475 120.889,81.715 120.665,81.647 C119.776,81.376 118.874,81.431 117.97,81.433 C117.898,81.434 117.827,81.332 117.689,81.226 C118.013,79.612 117.497,77.938 117.813,76.273 C117.83,76.185 117.853,76.072 117.815,76.003 C117.507,75.439 117.75,74.867 117.831,74.319 C117.341,73.99 116.891,74.252 116.458,74.278 C115.86,74.314 115.277,74.338 114.705,74.125 C114.259,73.959 114.077,73.748 114.106,73.325 C114.15,72.693 114.213,72.061 114.295,71.433 C114.357,70.952 114.739,70.646 115.263,70.653 C116.356,70.667 117.451,70.662 118.541,70.735 C119.82,70.821 121.093,70.805 122.369,70.719 C122.596,70.704 122.825,70.68 123.052,70.691 C123.411,70.707 123.637,70.928 123.655,71.3 C123.687,71.937 123.705,72.575 123.711,73.212 C123.714,73.598 123.437,73.907 123.031,73.932 C122.402,73.97 121.77,73.966 120.974,73.983" id="Fill-20" sketch:type="MSShapeGroup"></path>
            <path d="M135.163,114.715 C135.015,114.715 134.836,114.614 134.782,114.421 C134.446,113.228 134.135,112.027 133.836,110.823 C133.707,110.303 133.587,109.78 133.467,109.258 C133.321,108.616 133.174,107.975 133.01,107.338 C132.511,105.404 132.001,103.472 131.491,101.543 L130.93,99.418 C131.454,98.456 132.348,98.18 133.532,97.963 C133.831,98.264 134.033,98.598 134.16,99 C134.34,99.574 134.525,100.145 134.71,100.718 C135.082,101.871 135.454,103.025 135.796,104.187 C136.106,105.237 136.376,106.324 136.637,107.376 L136.85,108.227 C136.945,108.606 137.023,108.989 137.101,109.371 C137.261,110.152 137.426,110.959 137.736,111.745 C137.924,112.22 138.07,112.661 137.966,113.193 L137.304,113.568 C136.637,113.949 135.979,114.324 135.309,114.679 C135.264,114.703 135.215,114.715 135.163,114.715" id="Fill-21" sketch:type="MSShapeGroup"></path>
            <path d="M46.619,115.322 C46.614,115.322 46.565,115.32 46.446,115.253 C45.745,114.86 45.02,114.415 44.23,113.893 C44.094,113.804 44.046,113.6 44.126,113.449 L44.18,113.345 C44.533,112.675 44.898,111.982 45.31,111.349 C47.422,108.101 49.816,104.42 51.897,100.593 C52.213,100.01 52.625,99.411 53.155,98.763 C53.242,98.656 53.362,98.529 53.442,98.529 C53.524,98.529 53.669,98.587 53.872,98.701 C54.247,98.911 54.625,99.115 55.023,99.328 L55.376,99.519 C55.45,99.833 55.373,100.08 55.22,100.378 L54.624,101.543 C53.141,104.446 51.607,107.448 49.527,110.029 C48.664,111.099 48.158,112.327 47.669,113.515 L47.529,113.851 C47.361,114.255 47.127,114.673 46.832,115.094 C46.688,115.299 46.619,115.322 46.619,115.322" id="Fill-22" sketch:type="MSShapeGroup"></path>
            <path d="M89.546,120.017 C89.167,120.017 89.078,119.969 89.072,119.503 C89.054,118.111 89.056,116.719 89.069,115.327 C89.076,114.632 89.092,113.937 89.109,113.242 C89.138,111.987 89.168,110.69 89.139,109.409 C89.101,107.759 89.009,106.121 88.913,104.388 C88.876,103.727 88.838,103.055 88.803,102.366 L88.938,102.307 C89.279,102.156 89.624,102.002 89.981,101.879 C90.298,101.77 90.628,101.694 90.973,101.612 L91.248,101.546 C91.432,101.718 91.522,101.953 91.542,102.294 C91.601,103.306 91.667,104.317 91.734,105.328 C91.84,106.945 91.946,108.563 92.022,110.182 C92.046,110.715 92.008,111.25 91.965,111.817 C91.934,112.244 91.903,112.673 91.899,113.1 C91.893,113.881 91.903,114.661 91.913,115.441 C91.923,116.215 91.933,116.988 91.927,117.761 C91.922,118.339 91.866,118.972 91.754,119.694 C91.745,119.756 91.722,119.902 91.459,119.917 L90.999,119.944 C90.537,119.973 90.075,120 89.612,120.015 L89.546,120.017" id="Fill-23" sketch:type="MSShapeGroup"></path>
            <path d="M124.509,27.471 C124.409,27.241 124.407,26.927 124.502,26.5 C124.868,24.85 125.216,23.197 125.563,21.543 L126.091,19.046 C126.122,18.904 126.169,18.766 126.215,18.627 C126.246,18.532 126.278,18.438 126.306,18.342 L126.587,17.394 C127.126,15.587 127.683,13.719 128.001,11.807 C128.039,11.581 128.087,11.474 128.205,11.404 L128.548,11.524 C128.953,11.664 129.381,11.811 129.796,11.991 C130.554,12.318 130.774,12.802 130.557,13.662 C130.37,14.401 130.181,15.139 129.992,15.876 C129.276,18.662 128.536,21.544 127.992,24.43 C127.785,25.529 127.537,26.621 127.289,27.713 L127.245,27.905 C127.229,27.974 127.198,28.051 127.158,28.136 L124.509,27.471" id="Fill-24" sketch:type="MSShapeGroup"></path>
            <path d="M150.434,39.951 C150.379,39.951 150.321,39.943 150.262,39.929 C149.748,39.808 149.34,39.591 149.015,39.264 C148.718,38.967 148.712,38.78 148.751,38.622 L148.771,38.541 L148.763,38.458 C148.735,38.144 148.842,37.862 149.109,37.543 C149.754,36.771 150.38,35.984 151.007,35.197 C152.508,33.312 154.059,31.364 155.845,29.689 C156.411,29.158 156.911,28.559 157.395,27.981 C157.643,27.684 157.89,27.388 158.147,27.101 C158.362,26.86 158.559,26.675 158.749,26.535 C158.944,26.391 159.016,26.391 159.039,26.391 C159.119,26.391 159.255,26.451 159.457,26.574 C159.81,26.789 160.177,26.982 160.545,27.175 L160.833,27.327 C160.991,27.41 161.093,27.509 161.108,27.59 C161.123,27.672 161.062,27.798 160.944,27.93 C159.532,29.511 158.122,31.093 156.727,32.689 C155.261,34.365 153.805,36.051 152.363,37.747 C152.147,38.002 151.961,38.281 151.776,38.561 C151.669,38.724 151.562,38.886 151.447,39.042 L151.363,39.157 C151.188,39.398 151.021,39.626 150.83,39.795 C150.712,39.899 150.582,39.951 150.434,39.951" id="Fill-25" sketch:type="MSShapeGroup"></path>
            <path d="M8.466,92.935 L8.324,92.357 C8.153,91.658 7.978,90.944 7.798,90.232 C7.753,90.054 7.802,89.967 7.89,89.891 C8.244,89.586 8.601,89.312 8.95,89.079 C9.125,88.963 9.314,88.869 9.504,88.773 C9.973,88.538 10.504,88.27 10.868,87.715 C13.435,86.747 15.577,85.241 17.913,83.52 C18.775,82.886 19.524,82.372 20.451,82.124 L21.9,84.561 C21.809,84.703 21.716,84.844 21.617,84.916 C21.02,85.347 20.376,85.754 19.703,86.124 C19.226,86.385 18.74,86.628 18.253,86.871 C17.765,87.115 17.277,87.358 16.798,87.621 L16.342,87.869 C15.361,88.403 14.345,88.956 13.396,89.594 C12.958,89.888 12.533,90.201 12.109,90.514 C11.231,91.161 10.401,91.773 9.453,92.224 C9.223,92.334 9.074,92.517 8.955,92.664 C8.902,92.729 8.847,92.797 8.805,92.831 C8.686,92.928 8.598,92.94 8.534,92.94 C8.512,92.94 8.49,92.939 8.466,92.935" id="Fill-26" sketch:type="MSShapeGroup"></path>
            <path d="M179.683,61.546 C179.651,61.54 179.569,61.501 179.514,61.475 C179.474,61.457 179.43,61.436 179.384,61.416 L179.296,61.126 C179.182,60.755 179.071,60.397 178.987,60.033 C178.838,59.389 178.954,59.155 179.549,58.897 L181.519,58.042 C183.8,57.05 186.082,56.058 188.371,55.086 C189.394,54.652 190.459,54.258 191.489,53.878 L191.967,53.701 C192.021,53.681 192.076,53.671 192.131,53.671 C192.268,53.671 192.336,53.731 192.339,53.742 C192.506,54.351 192.694,55.072 192.818,55.795 C192.875,56.126 192.741,56.376 192.41,56.557 C192.137,56.707 191.834,56.847 191.484,56.984 L190.155,57.501 C187.453,58.55 184.659,59.635 181.988,60.914 C181.763,61.021 181.471,61.09 181.119,61.119 C180.606,61.16 180.127,61.198 179.681,61.536 L179.683,61.546" id="Fill-27" sketch:type="MSShapeGroup"></path>
            <path d="M182.503,107.722 C182.439,107.722 182.362,107.685 182.323,107.636 L179.651,104.209 C179.593,104.134 179.529,104.062 179.465,103.989 C179.368,103.878 179.276,103.774 179.229,103.681 C178.462,102.132 177.344,100.855 176.263,99.621 C175.842,99.14 175.42,98.66 175.02,98.163 C174.826,97.923 174.604,97.729 174.389,97.541 C174.047,97.243 173.752,96.985 173.643,96.61 C173.626,96.551 173.613,96.49 173.602,96.426 C173.683,96.401 173.764,96.377 173.845,96.353 C174.436,96.18 175.106,95.984 175.63,95.401 C175.655,95.373 175.71,95.368 175.74,95.368 C175.847,95.368 175.974,95.42 176.049,95.493 C176.234,95.674 176.428,95.846 176.622,96.018 C177.14,96.477 177.63,96.911 177.92,97.514 C178.146,97.984 178.468,98.385 178.78,98.773 C178.901,98.925 179.022,99.076 179.137,99.23 C179.789,100.113 180.488,100.976 181.164,101.81 C182.182,103.067 183.234,104.366 184.128,105.735 C184.181,105.817 184.218,105.91 184.255,106.002 C184.019,106.411 183.651,106.721 183.264,107.046 C183.007,107.263 182.752,107.479 182.527,107.723 L182.503,107.722" id="Fill-28" sketch:type="MSShapeGroup"></path>
            <path d="M11.856,54.146 C11.781,54.146 11.701,54.138 11.616,54.123 C11.15,54.041 10.687,53.946 10.224,53.851 C9.48,53.697 8.71,53.539 7.937,53.439 C6.94,53.311 5.939,53.061 4.971,52.82 C4.074,52.597 3.146,52.365 2.202,52.223 C1.668,52.143 1.134,51.952 0.569,51.75 C0.383,51.683 0.195,51.616 0.004,51.551 C-0.121,50.87 0.054,50.293 0.237,49.686 C0.266,49.592 0.294,49.499 0.321,49.405 C0.507,49.274 0.624,49.256 0.7,49.256 C0.786,49.256 0.881,49.282 0.99,49.336 C1.334,49.505 1.727,49.628 2.155,49.701 C4.908,50.173 7.663,50.634 10.42,51.081 C10.813,51.145 11.205,51.155 11.583,51.165 L11.874,51.174 C12.145,51.183 12.509,51.248 12.704,51.5 C12.901,51.757 12.87,52.136 12.808,52.409 C12.784,52.519 12.754,52.627 12.726,52.736 C12.672,52.934 12.621,53.132 12.588,53.333 C12.458,54.146 12.037,54.146 11.856,54.146" id="Fill-29" sketch:type="MSShapeGroup"></path>
            <path d="M29.213,20.163 C28.942,20.163 28.684,20.004 28.445,19.688 C28.127,19.268 27.842,18.822 27.557,18.377 L26.672,17.018 C26.1,16.149 25.529,15.279 24.984,14.394 C24.677,13.898 24.405,13.383 24.132,12.867 C23.997,12.612 23.863,12.357 23.724,12.104 C23.611,11.899 23.473,11.706 23.333,11.515 C23.12,11.224 22.933,10.968 22.872,10.674 C23.144,10.171 23.566,9.765 24.01,9.338 C24.233,9.124 24.46,8.905 24.68,8.665 C24.789,8.749 24.88,8.824 24.924,8.891 C25.614,9.94 26.295,10.995 26.976,12.051 C27.502,12.867 28.029,13.683 28.56,14.497 C28.957,15.106 29.369,15.705 29.781,16.305 L30.623,17.534 C30.806,17.797 30.991,18.059 31.148,18.337 C31.307,18.617 31.333,18.753 30.969,19.061 C30.627,19.351 30.28,19.639 29.912,19.896 C29.658,20.074 29.423,20.163 29.213,20.163" id="Fill-30" sketch:type="MSShapeGroup"></path>
            <path d="M80.275,12.853 C79.949,12.853 79.736,12.684 79.624,12.335 C79.518,12.003 79.401,11.675 79.285,11.346 C79.038,10.65 78.806,9.994 78.659,9.299 C78.372,7.953 78.018,6.518 77.577,4.912 L77.403,4.268 C77.182,3.449 76.954,2.602 76.669,1.779 C76.479,1.228 76.475,1.219 76.647,0.393 L78.501,-0.293 C78.724,-0.123 78.85,0.079 78.929,0.379 C79.618,2.978 80.335,5.568 81.052,8.158 L81.206,8.714 C81.442,9.572 81.686,10.459 81.988,11.319 C82.175,11.852 82.128,12.206 81.808,12.574 C81.702,12.597 81.594,12.62 81.485,12.644 C81.13,12.724 80.76,12.807 80.385,12.847 C80.348,12.851 80.311,12.853 80.275,12.853" id="Fill-31" sketch:type="MSShapeGroup"></path>
        </g>
    </g>
</svg>