<svg width="41" height="46" viewBox="0 0 41 46" xmlns="http://www.w3.org/2000/svg" xmlns:sketch="http://www.bohemiancoding.com/sketch/ns"><title>prev-greeting-hover</title><desc>Created with Sketch.</desc><g sketch:type="MSLayerGroup" fill="none"><path d="M40.562 29.736c-.43 3.369-.711 6.905-3.109 9.631-1.202 1.37-2.412 2.767-4.441 3.346-1.917.545-3.544 2.051-5.427 2.801-1.359.54-2.934.737-4.41.733-2.335-.007-4.698-.154-7-.529-2.837-.463-5.492-1.571-7.974-3.054-.189-.113-.36-.396-.529-.387-2.342.111-3.046-2.109-4.336-3.319-.979-.92-1.242-2.693-1.649-4.135-1.085-3.839-1.847-7.743-1.676-11.761.13-3.084.009-6.254.704-9.218.473-2.003.857-4.253 2.651-5.912 1.692-1.565 2.938-3.611 4.448-5.39.319-.373.909-.547 1.404-.733.691-.26 1.611-.242 2.077-.705 1.026-1.02 2.165-1.112 3.465-1.047.445.025.902-.409 1.366-.443.515-.038 1.049.129 1.568.231.459.09.911.303 1.368.312 2.381.043 4.795-.179 6.98 1.115.835.493 1.764.859 2.518 1.456.747.595 1.319 1.413 1.985 2.116.342.364.756.667 1.078 1.047.455.54.895 1.103 1.271 1.7 1.024 1.614 2.047 3.229 2.997 4.886.934 1.626 1.622 3.418 2.702 4.933 1.537 2.157 1.042 4.612 1.388 6.941.263 1.761.387 3.543.583 5.385zm-37.008-5.847c.083 1.503.081 3.215.301 4.897.153 1.169.547 2.315.943 3.434.45 1.277.351 2.892 1.973 3.529.068.027-.002.359.027.543.038.251.032.601.187.726.648.511 1.355.945 2.029 1.422 2.273 1.607 4.952 2.204 7.544 2.955 1.831.531 3.771 1.038 5.643.972 1.874-.066 3.784-.692 5.564-1.372 1.701-.651 3.287-1.632 4.862-2.573 1.87-1.117 3.247-2.91 3.733-4.881.657-2.652 1.229-5.415.698-8.254-.329-1.757-.054-3.656-.549-5.345-.652-2.234-1.791-4.327-2.731-6.475-.088-.197-.254-.362-.389-.536-1.616-2.073-3.06-4.321-4.903-6.163-1.602-1.601-3.647-3.242-6.001-2.971-2.896.332-5.899-.714-8.692.694-.072.036-.193.045-.263.011-1.514-.737-2.524.174-3.505 1.099-.999.945-2.045 1.858-2.907 2.921-.569.699-.752 1.702-1.276 2.449-1.494 2.127-1.42 4.694-1.962 7.063-.414 1.815-.234 3.769-.326 5.856z" fill="#000" sketch:type="MSShapeGroup"/><path fill="#fff" sketch:type="MSShapeGroup" d="M7 13h25v21h-25z"/><path d="M3.554 23.889c.092-2.087-.088-4.04.326-5.856.542-2.369.468-4.935 1.962-7.063.524-.746.707-1.75 1.276-2.449.862-1.063 1.908-1.976 2.907-2.921.981-.925 1.991-1.836 3.505-1.099.07.034.191.025.263-.011 2.792-1.409 5.796-.362 8.692-.694 2.354-.271 4.399 1.37 6.001 2.971 1.843 1.843 3.287 4.09 4.903 6.163.135.174.301.339.389.536.941 2.148 2.079 4.241 2.731 6.475.495 1.689.221 3.588.549 5.345.531 2.84-.041 5.602-.698 8.254-.486 1.971-1.863 3.764-3.733 4.881-1.575.941-3.161 1.922-4.862 2.573-1.78.681-3.69 1.307-5.564 1.372-1.872.066-3.812-.441-5.643-.972-2.592-.751-5.272-1.347-7.544-2.955-.675-.477-1.381-.911-2.029-1.422-.155-.124-.148-.475-.187-.726-.029-.183.041-.515-.027-.543-1.622-.638-1.523-2.252-1.973-3.529-.396-1.119-.79-2.265-.943-3.434-.221-1.682-.218-3.394-.302-4.897zm15.937-2.107c-.241-.733-.286-1.307-.583-1.678-.506-.635-1.087-1.314-1.791-1.65-.509-.246-1.494-.219-1.872.122-1.147 1.045-2.106 2.295-3.13 3.475-.466.536-.801 1.305-1.379 1.598-1.229.619-1.049 1.684-.905 2.6.063.416.913.701 1.397 1.06.191.145.362.321.522.5 1.476 1.65 2.527 3.604 4.493 4.913 1.904 1.268 2.279 1.492 3.654-.251.274-.348.758-.529 1.127-.773-.326-.432-.742-.83-.97-1.316-.511-1.092-.997-1.996-2.504-1.503-.423.138-1.028-.301-1.55-.473l-.009-.463c1.001-.124 1.998-.287 3.004-.364 2.671-.203 5.348-.319 8.01-.595.538-.054 1.215-.545 1.472-1.026.281-.534.155-1.284.211-2.01-1.044-.095-1.75-1.042-2.947-1.234-.797-.127-1.265-.099-1.858.285-.32.206-.671.436-1.033.493-1.922.301-3.848.577-5.778.794-.513.059-1.053-.124-1.579-.197l-.034-.337 4.032-1.969z" fill="#fff" sketch:type="MSShapeGroup"/><path d="M15.491 18.782l-4.032 1.969.034.337c.527.072 1.066.255 1.579.197 1.931-.217 3.857-.493 5.778-.794.362-.057.713-.287 1.033-.493.594-.384 1.062-.411 1.858-.285 1.197.192 1.903 1.139 2.947 1.234-.056.726.07 1.476-.211 2.01-.257.482-.934.972-1.472 1.026-2.662.276-5.339.391-8.01.595-1.006.077-2.002.24-3.004.364l.009.463c.522.172 1.127.61 1.55.473 1.508-.493 1.994.411 2.504 1.503.227.486.644.884.97 1.316-.369.244-.853.425-1.127.773-1.375 1.743-1.75 1.519-3.654.251-1.966-1.309-3.017-3.262-4.493-4.913-.16-.179-.331-.355-.522-.5-.484-.359-1.334-.644-1.397-1.06-.144-.916-.324-1.981.904-2.6.578-.294.913-1.063 1.379-1.598 1.024-1.18 1.982-2.43 3.13-3.475.378-.341 1.364-.369 1.872-.122.704.337 1.285 1.015 1.791 1.65.297.371.342.945.583 1.678" fill="#000" sketch:type="MSShapeGroup"/></g></svg>