<?xml version="1.0" encoding="UTF-8" standalone="no"?>
<svg width="312px" height="39px" viewBox="0 0 312 39" version="1.1" xmlns="http://www.w3.org/2000/svg" xmlns:xlink="http://www.w3.org/1999/xlink" xmlns:sketch="http://www.bohemiancoding.com/sketch/ns">
    <!-- Generator: Sketch 3.1.1 (8761) - http://www.bohemiancoding.com/sketch -->
    <title>credit</title>
    <desc>Created with Sketch.</desc>
    <defs></defs>
    <g id="Page-1" stroke="none" stroke-width="1" fill="none" fill-rule="evenodd" sketch:type="MSPage">
        <g id="Imported-Layers" sketch:type="MSLayerGroup">
            <path d="M80.74,24.089 C80.36,21.38 81.241,19.172 82.897,17.207 C83.472,16.525 84.228,16.497 84.796,17.034 C85.342,17.55 85.725,18.276 86.044,18.972 C86.162,19.228 85.894,19.662 85.802,20.014 C85.683,20.01 85.564,20.007 85.445,20.003 C85.261,19.531 85.121,19.037 84.884,18.594 C84.516,17.907 84.027,17.644 83.405,18.36 C82.286,19.648 81.702,21.145 81.834,22.844 C81.862,23.198 82.358,23.517 82.784,24.026 C82.81,23.938 82.742,24.172 82.609,24.63 C83.176,24.5 83.731,24.543 83.942,24.294 C84.747,23.347 85.589,22.38 86.145,21.282 C87.101,19.393 87.176,17.443 86.702,15.28 C85.929,11.754 85.606,8.129 85.126,4.542 C85.093,4.293 85.326,4.008 85.436,3.74 C85.672,3.946 86.064,4.118 86.119,4.365 C86.552,6.301 86.956,8.246 87.298,10.201 C87.812,13.133 88.031,16.142 88.825,18.993 C89.471,21.315 90.786,23.449 91.777,25.679 C91.901,25.96 91.856,26.315 91.89,26.636 C91.507,26.561 90.9,26.611 90.776,26.391 C89.978,24.971 89.262,23.503 88.571,22.027 C88.298,21.444 88.157,20.8 87.94,20.134 C87.302,21.365 86.777,22.562 86.084,23.651 C85.646,24.341 85.026,24.97 84.356,25.438 C83.918,25.744 83.036,26.006 82.711,25.778 C81.469,24.909 80.19,25.52 78.944,25.391 C77.673,25.26 76.431,24.85 75.174,24.57 C74.922,24.514 74.631,24.405 74.407,24.476 C71.64,25.342 69.201,24.305 67.882,21.725 C67.168,20.329 66.375,18.972 65.618,17.598 C65.482,17.607 65.345,17.615 65.209,17.624 C65.209,18.925 65.155,20.229 65.225,21.526 C65.285,22.638 65.107,23.735 65.848,24.835 C66.283,25.482 66.213,26.724 64.962,27.337 C64.186,26.053 64.184,24.655 64.198,23.301 C64.245,18.7 64.384,14.101 64.435,9.5 C64.441,8.93 64.202,8.322 63.95,7.792 C63.575,7.006 63.833,5.716 64.756,5.187 C66.187,4.368 67.648,3.544 69.194,2.993 C71.763,2.077 73.563,3.517 73.432,6.222 C73.266,9.658 71.41,12.247 69.142,14.601 C66.775,17.057 66.387,16.397 68.264,19.577 C68.962,20.758 69.731,21.949 70.695,22.906 C71.704,23.908 73.073,23.942 73.997,23.29 C72.482,21.119 73.247,18.922 74.054,16.751 C74.173,16.431 74.64,16.24 74.946,15.99 C75.199,16.303 75.657,16.607 75.672,16.93 C75.75,18.697 75.848,20.482 75.668,22.233 C75.584,23.045 75.731,23.431 76.379,23.738 C77.575,24.307 79.232,24.694 80.74,24.089 L80.74,24.089 Z M65.502,16.678 C66.564,15.637 67.717,14.582 68.783,13.444 C70.543,11.567 72.012,9.507 72.438,6.876 C72.787,4.728 71.693,3.678 69.574,4.135 C69.379,4.177 69.171,4.19 68.992,4.268 C67.403,4.966 65.559,5.471 65.516,7.677 C65.457,10.698 65.502,13.721 65.502,16.678 L65.502,16.678 Z M74.849,21.794 C74.907,20.65 74.965,19.505 75.023,18.36 C74.92,18.356 74.817,18.353 74.714,18.349 C74.287,19.484 74.112,20.625 74.849,21.794 L74.849,21.794 Z" id="Fill-1" fill="#000000" sketch:type="MSShapeGroup"></path>
            <path d="M1.879,28.122 C1.752,25.453 1.607,22.982 1.525,20.509 C1.388,16.385 1.299,12.26 1.173,8.136 C1.147,7.304 1.287,6.505 0.609,5.712 C0.11,5.129 1.259,3.365 2.267,2.826 C3.383,2.23 4.48,1.595 5.599,1.004 C7.205,0.156 8.889,-0.273 10.713,0.149 C13.217,0.727 13.844,2.984 13.185,4.965 C12.234,7.822 10.329,10.066 8.345,12.245 C7.443,13.235 6.441,14.143 5.636,15.204 C5.428,15.479 5.66,16.267 5.913,16.684 C7.148,18.719 8.46,20.707 9.736,22.717 C9.875,22.935 9.96,23.186 10.096,23.477 C9.255,23.917 8.818,23.671 8.405,22.955 C7.455,21.309 6.462,19.683 5.411,18.099 C4.874,17.287 4.177,16.582 3.549,15.826 C4.963,14.354 6.399,12.993 7.674,11.496 C9.01,9.927 10.242,8.262 11.414,6.567 C11.851,5.935 12.063,5.114 12.248,4.348 C12.692,2.51 11.358,1.117 9.47,1.155 C6.664,1.211 4.51,2.615 2.521,4.338 C2.136,4.672 1.995,5.473 2.009,6.052 C2.113,10.141 2.293,14.228 2.437,18.315 C2.503,20.177 2.486,22.043 2.623,23.899 C2.68,24.669 3.004,25.432 3.279,26.171 C3.533,26.853 3.119,27.701 1.879,28.122" id="Fill-2" fill="#000000" sketch:type="MSShapeGroup"></path>
            <path d="M39.354,26.163 C37.154,25.472 36.06,23.383 34.42,21.959 C33.754,22.308 33.095,22.764 32.365,23.017 C30.04,23.822 26.87,22.319 25.531,19.788 C23.6,16.138 23.606,12.388 25.337,8.67 C25.987,7.274 26.763,5.923 27.624,4.646 C28.001,4.086 28.733,3.766 29.304,3.336 C29.59,3.908 29.876,4.48 30.069,4.867 C30.83,4.867 31.886,4.548 32.409,4.94 C33.234,5.559 33.849,6.588 34.291,7.562 C35.619,10.488 36.262,13.586 36.157,16.811 C36.132,17.559 36.182,18.418 35.841,19.027 C34.848,20.8 35.921,21.827 36.992,22.913 C37.691,23.621 38.407,24.313 39.089,25.038 C39.315,25.278 39.457,25.598 39.637,25.881 C39.543,25.975 39.449,26.069 39.354,26.163 L39.354,26.163 Z M34.613,19.889 C34.824,18.764 35.084,17.854 35.15,16.93 C35.366,13.943 34.686,11.078 33.765,8.27 C32.889,5.598 31.806,5.148 29.737,6.612 C29.544,6.041 29.363,5.504 29.182,4.968 C29.062,4.921 28.942,4.874 28.822,4.827 C27.986,6.364 27.038,7.851 26.337,9.447 C24.635,13.317 24.677,17.064 27.561,20.439 C28.991,22.113 32.14,23.083 33.799,20.787 C33.094,19.729 32.334,18.672 31.68,17.552 C31.49,17.227 31.607,16.723 31.582,16.301 C31.923,16.467 32.383,16.544 32.584,16.814 C33.258,17.721 33.839,18.697 34.613,19.889 L34.613,19.889 Z" id="Fill-3" fill="#000000" sketch:type="MSShapeGroup"></path>
            <path d="M182.955,21.613 C182.162,22.117 181.8,22.122 181.327,21.412 C180.39,20.006 179.896,18.522 179.787,16.849 C179.76,16.42 179.422,15.866 179.06,15.652 C178.783,15.488 178.243,15.767 177.99,15.816 C178.3,17.119 178.616,18.197 178.802,19.298 C178.988,20.402 178.326,21.119 177.426,21.599 C176.122,22.293 174.724,22.755 173.239,22.463 C171.412,22.103 170.06,20.919 169.276,19.326 C168.626,18.005 168.165,16.504 168.018,15.042 C167.79,12.774 167.846,10.457 168.67,8.269 C169.266,6.685 170.163,5.283 171.627,4.341 C173.695,3.01 176.16,4.172 176.413,6.618 C176.488,7.339 176.892,8.181 175.87,8.871 C175.714,8.164 175.523,7.571 175.463,6.966 C175.358,5.9 174.702,5.263 173.794,5.002 C172.97,4.765 172.29,5.138 171.581,5.771 C169.309,7.797 169.121,10.501 168.972,13.195 C168.855,15.299 169.157,17.42 170.395,19.195 C172.004,21.502 174.407,22.082 177.018,20.785 C177.754,20.42 178.017,19.001 177.682,17.955 C177.242,16.58 176.254,15.948 174.881,15.76 C174.552,15.715 174.18,15.585 173.947,15.366 C173.759,15.19 173.656,14.805 173.701,14.545 C173.725,14.41 174.145,14.317 174.399,14.259 C174.587,14.215 174.826,14.192 174.991,14.27 C176.419,14.942 177.79,14.507 179.228,14.273 C179.686,14.198 180.734,15.157 180.8,15.726 C181.047,17.859 181.566,19.841 182.955,21.613" id="Fill-4" fill="#000000" sketch:type="MSShapeGroup"></path>
            <path d="M230.136,22.585 C229.398,22.238 228.767,22.016 228.216,21.668 C226.949,20.869 226.629,19.809 227.197,18.557 C227.797,17.234 229.256,16.397 230.476,16.759 C230.724,16.832 231.069,17.287 231.027,17.497 C230.911,18.074 230.614,18.614 230.273,19.453 C229.957,18.802 229.795,18.47 229.593,18.054 C228.797,18.238 228.26,18.699 228.234,19.534 C228.207,20.398 228.66,20.907 229.573,21.076 C230.306,21.211 230.994,21.576 231.722,21.761 C232.408,21.934 233.12,22.004 234.052,22.158 C233.661,22.454 233.427,22.631 233.118,22.865 C234.743,24.592 235.89,26.479 236.41,28.769 C237.063,31.641 235.978,33.918 234.166,35.928 C232.428,37.856 230.067,38.714 227.583,39.213 C226.141,39.502 224.015,38.005 223.427,36.406 C222.651,34.293 222.926,32.258 223.85,30.276 C225.291,27.189 227.012,24.319 230.136,22.585 L230.136,22.585 Z M235.586,30.676 C235.569,27.757 234.326,25.797 232.734,24.013 C231.769,22.932 231.126,22.765 229.984,23.718 C228.64,24.841 227.411,26.145 226.326,27.523 C224.887,29.35 224.005,31.473 223.877,33.838 C223.749,36.2 225.555,38.97 228.667,37.856 C229.223,37.657 229.807,37.529 230.348,37.299 C233.456,35.978 235.288,33.697 235.586,30.676 L235.586,30.676 Z" id="Fill-5" fill="#000000" sketch:type="MSShapeGroup"></path>
            <path d="M118.018,24.634 C118.551,23.963 119.155,24.098 119.456,24.917 C120.314,27.245 121.185,29.579 121.827,31.971 C122.124,33.078 122.093,34.367 121.846,35.494 C121.664,36.325 121.051,37.288 120.343,37.725 C119.283,38.379 118.24,37.689 117.346,36.945 C115.981,35.809 115.652,34.198 115.426,32.593 C115.262,31.431 115.347,30.233 115.33,29.051 C115.321,28.386 115.329,27.722 115.329,26.899 C114.943,27.22 114.671,27.491 114.357,27.7 C112.448,28.973 110.103,27.962 109.96,25.663 C109.776,22.701 110.488,19.98 112.848,17.901 C113.594,17.244 114.31,16.939 115.179,17.604 C115.877,18.139 116.04,19.399 115.448,20.409 C115.299,20.033 115.172,19.766 115.085,19.488 C114.75,18.419 114.208,18.245 113.334,18.936 C111.849,20.11 110.538,23.968 111.163,25.708 C111.369,26.279 111.934,26.983 112.454,27.102 C112.96,27.218 113.73,26.785 114.188,26.374 C115.017,25.63 115.204,24.496 115.067,22.653 C115.855,22.237 116.277,22.609 116.34,23.369 C116.443,24.618 116.472,25.876 116.471,27.131 C116.471,28.845 116.246,30.577 116.425,32.269 C116.608,33.99 117.079,35.705 118.912,36.578 C119.692,36.949 120.183,36.774 120.581,36.043 C121.301,34.719 121.097,33.308 120.824,31.967 C120.47,30.229 119.951,28.516 119.365,26.84 C119.093,26.061 118.496,25.396 118.018,24.634" id="Fill-6" fill="#000000" sketch:type="MSShapeGroup"></path>
            <path d="M99.331,18.497 C99.268,18.92 99.285,19.168 99.193,19.364 C98.447,20.947 98.657,22.224 100.052,23.192 C101.048,23.883 102.147,24.478 103.279,24.909 C105.033,25.577 106.595,24.842 107.418,23.149 C108.761,20.39 108.311,17.142 106.15,14.991 C104.735,13.583 102.846,13.23 100.927,13.032 C99.374,12.873 97.89,12.535 96.708,11.369 C95.45,10.127 95.188,9.066 96.5,7.961 C98.251,6.486 100.196,5.15 102.252,4.156 C104.047,3.287 106.224,5.275 105.935,7.271 C105.889,7.586 105.606,7.866 105.302,8.387 C105.002,7.451 104.853,6.798 104.586,6.199 C104.202,5.339 103.533,4.955 102.56,5.213 C100.587,5.736 98.96,6.817 97.578,8.287 C96.685,9.235 96.772,9.802 97.696,10.684 C98.698,11.639 99.935,11.818 101.199,11.917 C104.459,12.172 107.17,13.324 108.577,16.499 C109.669,18.961 109.509,22.743 107.461,24.926 C106.175,26.296 104.415,26.601 102.566,25.837 C100.452,24.963 98.611,23.823 97.963,21.445 C97.628,20.215 97.965,19.477 99.331,18.497" id="Fill-7" fill="#000000" sketch:type="MSShapeGroup"></path>
            <path d="M249.231,25.158 C249.037,22.536 248.851,20.031 248.655,17.37 C247.981,17.74 247.471,18.019 246.606,18.494 C246.698,17.902 246.723,17.511 246.828,17.143 C246.891,16.925 247.035,16.669 247.219,16.557 C248.938,15.518 248.594,13.893 248.443,12.328 C248.343,11.297 248.268,10.257 248.062,9.245 C247.903,8.468 247.556,7.728 247.188,6.669 C247.424,5.455 248.771,4.639 249.86,3.556 C251.98,1.447 253.981,2.499 255.136,4.445 C256.478,6.709 256.364,8.032 254.419,10.355 C253.325,11.661 252.132,12.896 250.884,14.055 C249.887,14.981 249.715,16.114 249.815,17.31 C249.977,19.229 250.273,21.138 250.49,23.053 C250.579,23.842 250.706,24.677 249.231,25.158 L249.231,25.158 Z M249.566,13.602 C251.078,12.224 252.716,10.858 254.179,9.325 C254.661,8.819 254.84,7.891 254.894,7.137 C255.013,5.492 253.515,3.659 252.162,3.605 C251.162,3.566 249.056,5.569 249.1,6.698 C249.193,9.095 249.416,11.487 249.566,13.602 L249.566,13.602 Z" id="Fill-8" fill="#000000" sketch:type="MSShapeGroup"></path>
            <path d="M23.68,3.25 C23.091,3.418 22.511,3.681 21.911,3.739 C18.837,4.037 16.535,5.757 14.469,7.826 C13.436,8.859 13.636,9.345 14.966,9.857 C16.632,10.499 18.356,11.028 19.951,11.816 C24.621,14.125 24.264,18.373 21.107,21.458 C20.139,22.405 18.869,23.091 17.645,23.712 C16.523,24.282 15.163,23.788 14.239,22.733 C13.279,21.638 13.049,20.323 13.663,19.205 C13.786,18.983 14.049,18.837 14.415,18.503 C14.359,19.227 14.311,19.666 14.294,20.107 C14.227,21.825 15.57,23.022 17.244,22.697 C19.245,22.307 21.906,19.677 22.287,17.466 C22.696,15.097 21.453,13.947 19.575,12.952 C17.881,12.054 15.971,11.553 14.137,10.932 C12.362,10.33 11.818,9.135 13.045,7.819 C15.582,5.101 18.352,2.651 22.392,2.546 C22.813,2.535 23.237,2.666 23.66,2.731 C23.666,2.904 23.673,3.077 23.68,3.25" id="Fill-9" fill="#000000" sketch:type="MSShapeGroup"></path>
            <path d="M303.543,27.472 C302.961,26.006 302.319,24.612 301.86,23.16 C301.444,21.845 301.263,20.457 300.889,19.126 C300.821,18.883 300.292,18.579 300.026,18.621 C299.413,18.719 298.845,19.099 298.233,19.197 C297.787,19.268 297.299,19.072 296.83,18.995 C297.139,18.649 297.396,18.223 297.772,17.982 C298.125,17.757 298.597,17.673 299.027,17.626 C300.309,17.487 300.526,16.923 300.245,15.66 C299.643,12.953 299.263,10.195 298.833,7.452 C298.77,7.049 298.927,6.612 298.978,6.222 C299.868,6.073 300.105,6.512 300.188,7.198 C300.575,10.38 300.983,13.56 301.377,16.688 C303.741,17.024 306.037,15.598 308.022,17.168 L308.022,17.56 C307.663,17.598 307.302,17.625 306.944,17.677 C305.475,17.888 304.001,18.078 302.544,18.358 C302.343,18.397 302.039,18.966 302.11,19.182 C302.818,21.336 302.958,23.685 304.436,25.587 C304.909,26.196 304.814,27.023 303.543,27.472" id="Fill-10" fill="#000000" sketch:type="MSShapeGroup"></path>
            <path d="M200.416,21.692 C200.295,20.046 200.297,18.848 200.084,17.69 C199.975,17.097 199.548,16.191 199.141,16.118 C198.609,16.022 197.734,16.459 197.401,16.94 C196.767,17.853 196.428,18.967 195.937,19.984 C195.703,20.468 195.4,20.92 195.067,21.49 C194.132,19.732 193.348,18.282 192.596,16.815 C192.515,16.658 192.615,16.407 192.631,16.2 C192.883,16.244 193.251,16.198 193.367,16.348 C193.967,17.125 194.502,17.952 195.099,18.818 C195.467,18.177 195.869,17.48 196.268,16.781 C196.462,16.441 196.565,15.959 196.857,15.783 C197.607,15.327 198.584,14.55 199.202,14.747 C199.969,14.992 200.557,16.03 201.045,16.834 C201.324,17.295 201.251,17.97 201.324,18.469 C202.001,17.757 202.569,16.863 203.379,16.364 C205.603,14.996 208.083,16.064 208.766,18.578 C208.996,19.421 209.181,20.283 209.286,21.149 C209.317,21.402 209.004,21.697 208.849,21.972 C208.582,21.763 208.151,21.599 208.078,21.337 C207.891,20.654 207.927,19.91 207.751,19.222 C207.485,18.181 206.964,17.28 205.792,17.051 C204.56,16.811 203.373,17.356 202.768,18.43 C202.364,19.147 202.074,19.932 201.639,20.628 C201.415,20.985 200.984,21.211 200.416,21.692" id="Fill-11" fill="#000000" sketch:type="MSShapeGroup"></path>
            <path d="M54.209,2.022 C53.591,4.45 53.049,6.691 52.449,8.916 C51.292,13.211 50.107,17.498 48.927,21.786 C48.264,24.195 47.528,26.587 46.945,29.015 C46.678,30.126 46.747,31.313 46.563,32.449 C46.5,32.841 46.131,33.182 45.901,33.547 C45.744,33.132 45.379,32.669 45.462,32.309 C46.392,28.254 47.356,24.205 48.381,20.172 C49.758,14.755 51.204,9.356 52.602,3.944 C52.77,3.295 52.783,2.606 52.954,1.958 C53.031,1.667 53.32,1.431 53.513,1.169 C53.765,1.478 54.017,1.787 54.209,2.022" id="Fill-12" fill="#000000" sketch:type="MSShapeGroup"></path>
            <path d="M270.69,25.267 C270.371,25.972 270.081,26.691 269.727,27.378 C268.436,29.889 268.734,32.776 270.702,34.76 C271.249,35.311 272.262,35.796 272.959,35.683 C273.558,35.586 274.203,34.674 274.496,33.981 C275.474,31.675 274.93,29.28 274.622,26.923 C274.227,23.889 273.289,20.995 272.234,18.135 C271.978,17.44 272.234,17.08 273.271,17.123 C274.014,20.086 274.871,23.095 275.503,26.151 C276.016,28.639 276.408,31.185 275.744,33.722 C275.566,34.403 275.282,35.087 274.902,35.677 C273.995,37.089 272.356,37.339 270.946,36.362 C267.91,34.258 267.142,30.3 269.149,27.06 C269.554,26.407 269.982,25.769 270.399,25.125 C270.496,25.172 270.593,25.22 270.69,25.267" id="Fill-13" fill="#000000" sketch:type="MSShapeGroup"></path>
            <path d="M138.922,22.664 C138.587,23.318 138.396,23.947 138.004,24.403 C136.924,25.658 135.202,25.569 133.836,24.269 C131.193,21.753 131.801,18.203 135.159,16.713 C135.436,16.59 135.949,16.664 136.189,16.853 C137.004,17.496 137.178,18.84 136.559,20.069 C136.261,19.217 136.017,18.521 135.771,17.817 C132.809,19.253 132.778,21.802 134.413,23.378 C135.738,24.656 137.15,24.408 137.692,22.686 C137.973,21.793 137.96,20.81 138.139,19.88 C138.217,19.474 138.444,19.097 138.603,18.707 C138.892,19.062 139.352,19.381 139.439,19.78 C139.743,21.184 140.067,22.552 141.039,23.676 C141.748,24.496 142.459,25.277 143.65,25.366 C143.879,25.383 144.093,25.606 144.336,25.747 C143.293,26.768 142.375,26.623 141.13,25.322 C140.747,24.921 140.365,24.517 140.011,24.091 C139.656,23.665 139.336,23.209 138.922,22.664" id="Fill-14" fill="#000000" sketch:type="MSShapeGroup"></path>
            <path d="M132.613,24.901 C132.512,26.007 131.593,26.383 130.653,25.808 C129.404,25.043 128.815,23.801 128.356,22.479 C128.306,22.335 128.28,22.181 128.214,22.045 C128.186,21.989 128.083,21.969 127.9,21.871 C127.646,22.487 127.403,23.095 127.146,23.698 C126.625,24.917 125.188,25.963 124.129,25.906 C123.135,25.851 121.952,24.689 121.547,23.377 C120.987,21.567 121.116,19.793 121.888,18.081 C122.004,17.823 122.409,17.695 122.68,17.506 C122.783,17.842 123.072,18.271 122.958,18.497 C122.301,19.806 122.104,21.167 122.6,22.514 C122.883,23.283 123.442,23.993 124.024,24.583 C124.184,24.745 125.12,24.518 125.286,24.231 C126.069,22.874 126.779,21.464 127.369,20.013 C127.643,19.338 127.54,18.519 127.694,17.784 C127.776,17.392 128.043,17.039 128.226,16.668 C128.429,17.071 128.803,17.472 128.806,17.876 C128.818,19.792 128.964,21.655 129.907,23.386 C130.481,24.44 131.154,25.25 132.613,24.901" id="Fill-15" fill="#000000" sketch:type="MSShapeGroup"></path>
            <path d="M153.062,21.687 C152.936,22.498 153.235,23.509 154.4,24.185 C156.014,25.122 157.958,24.767 160.619,23.123 C160.47,23.529 160.435,24.053 160.155,24.321 C158.592,25.813 156.711,26.253 154.666,25.588 C152.543,24.897 151.02,22.823 151.723,20.821 C152.283,19.226 153.104,17.398 154.895,16.571 C155.447,16.316 156.129,16.003 156.715,16.779 C157.343,17.611 157.028,18.448 156.543,18.949 C155.631,19.889 154.482,20.598 153.062,21.687 L153.062,21.687 Z M155.982,17.703 C155.867,17.582 155.752,17.461 155.636,17.339 C154.93,18.018 154.223,18.697 153.516,19.375 C153.619,19.483 153.721,19.591 153.824,19.699 C154.626,19.123 155.666,18.802 155.982,17.703 L155.982,17.703 Z" id="Fill-16" fill="#000000" sketch:type="MSShapeGroup"></path>
            <path d="M189.221,16.471 C189.699,17.536 190.011,18.728 190.702,19.629 C191.357,20.483 192.408,21.033 193.265,21.701 C192.015,22.552 191.732,22.422 188.983,19.647 C188.223,20.112 187.511,20.776 186.686,20.983 C185.887,21.182 184.855,21.144 184.134,20.788 C183.184,20.32 183.116,19.219 183.383,18.243 C183.621,17.371 183.899,16.485 184.326,15.696 C184.938,14.566 186.349,14.049 187.228,15.284 C187.479,15.636 187.784,15.95 188.065,16.281 C188.007,16.388 187.949,16.496 187.891,16.603 C187.588,16.47 187.219,16.406 186.994,16.191 C186.323,15.547 185.623,15.672 185.317,16.38 C184.906,17.331 184.611,18.406 184.596,19.432 C184.584,20.35 186.202,20.537 187.233,19.746 C187.997,19.161 188.611,18.478 188.585,17.405 C188.578,17.096 188.763,16.782 188.86,16.47 C188.981,16.471 189.101,16.471 189.221,16.471" id="Fill-17" fill="#000000" sketch:type="MSShapeGroup"></path>
            <path d="M286.893,21.988 C286.832,22.2 286.83,22.459 286.702,22.617 C285.263,24.406 281.976,24.804 280.073,23.437 C278.387,22.226 278.098,20.379 279.333,18.7 C279.683,18.223 279.944,17.608 280.408,17.311 C280.844,17.033 281.622,16.852 282.021,17.061 C282.563,17.347 282.547,18.058 282.089,18.594 C281.607,19.16 281.199,19.845 280.602,20.243 C279.826,20.76 279.95,21.208 280.384,21.799 C281.534,23.366 283.778,23.574 285.602,22.297 C285.927,22.069 286.297,21.905 286.646,21.712 C286.728,21.804 286.81,21.896 286.893,21.988" id="Fill-18" fill="#000000" sketch:type="MSShapeGroup"></path>
            <path d="M264.042,17.855 C264.086,16.634 264.742,16.154 266.119,16.618 C268.243,17.335 268.963,19.526 267.621,21.304 C267.242,21.806 266.767,22.26 266.263,22.638 C264.582,23.897 262.575,23.534 261.83,21.575 C261.035,19.484 261.403,17.313 262.332,15.225 C263.447,15.612 262.996,16.384 262.975,16.983 C262.939,17.996 262.736,19.012 262.776,20.02 C262.838,21.621 263.367,22.196 264.532,22.209 C265.729,22.222 267.112,20.963 267.223,19.766 C267.301,18.92 267.097,18.078 266.279,17.828 C265.594,17.62 264.781,17.831 264.042,17.855" id="Fill-19" fill="#000000" sketch:type="MSShapeGroup"></path>
            <path d="M218.369,19.579 C218.943,18.87 219.484,18.03 220.19,17.367 C221.265,16.359 222.22,16.436 222.896,17.744 C223.517,18.943 223.778,20.331 224.182,21.64 C224.413,22.389 225.016,23.187 223.665,23.946 C223.474,23.479 223.229,23.025 223.1,22.54 C222.786,21.36 222.626,20.128 222.215,18.986 C221.832,17.924 221.118,17.813 220.496,18.767 C219.869,19.727 219.587,20.906 219.078,21.951 C218.886,22.345 218.481,22.635 218.173,22.972 C217.979,22.638 217.715,22.324 217.609,21.964 C217.431,21.357 217.314,20.725 217.248,20.095 C217.207,19.701 217.305,19.293 217.34,18.891 C217.686,19.122 218.031,19.353 218.369,19.579" id="Fill-20" fill="#000000" sketch:type="MSShapeGroup"></path>
            <path d="M293.13,19.15 C292.79,19.13 292.47,19.209 292.355,19.09 C291.579,18.283 290.872,18.535 290.407,19.324 C289.939,20.117 289.917,21.044 290.755,21.666 C291.248,22.032 291.867,22.385 292.455,22.434 C294.18,22.579 295.927,22.697 297.536,21.761 C297.809,21.603 298.23,21.698 298.582,21.677 C298.389,22.006 298.276,22.489 297.988,22.641 C295.42,23.999 292.763,24.166 290.157,22.818 C289.28,22.363 288.707,21.513 288.819,20.353 C288.944,19.06 289.438,18.023 290.658,17.507 C291.719,17.057 292.857,17.801 293.13,19.15" id="Fill-21" fill="#000000" sketch:type="MSShapeGroup"></path>
            <path d="M259.078,16.633 C258.876,16.694 258.828,16.726 258.8,16.714 C256.354,15.625 255.176,16.399 255.1,19.161 C255.078,19.958 255.132,20.761 255.06,21.552 C255.003,22.183 254.807,22.801 254.673,23.425 L254.238,23.479 C254.094,23.139 253.87,22.811 253.821,22.459 C253.534,20.378 253.267,18.294 253.053,16.205 C253.025,15.934 253.423,15.361 253.489,15.381 C253.904,15.505 254.282,15.756 254.815,16.042 C255.485,15.23 256.409,14.225 257.882,15.009 C258.484,15.329 259.349,15.593 259.078,16.633" id="Fill-22" fill="#000000" sketch:type="MSShapeGroup"></path>
            <path d="M142.858,17.738 C144.68,17.396 144.327,19.207 145.027,19.936 C146.717,17.302 148.617,16.53 150.838,17.795 C149.275,18.373 147.425,18.036 146.522,19.64 C145.634,21.216 146.259,22.793 146.62,24.449 C146.246,24.602 145.899,24.744 145.572,24.878 C144.66,22.478 143.773,20.145 142.858,17.738" id="Fill-23" fill="#000000" sketch:type="MSShapeGroup"></path>
            <path d="M214.278,18.913 C214.354,19.812 214.407,20.715 214.524,21.609 C214.554,21.833 214.8,22.023 214.928,22.241 C215.107,22.547 215.379,22.857 215.397,23.177 C215.407,23.372 214.98,23.784 214.806,23.755 C214.406,23.689 213.845,23.51 213.695,23.207 C212.97,21.744 212.944,20.169 213.306,18.602 C213.35,18.409 213.801,18.194 214.054,18.204 C214.236,18.212 214.402,18.579 214.576,18.786 C214.476,18.828 214.377,18.871 214.278,18.913" id="Fill-24" fill="#000000" sketch:type="MSShapeGroup"></path>
            <path d="M311.301,22.681 C311.72,22.989 312.052,23.234 312.388,23.482 C312.016,24.685 311.404,24.319 310.698,23.782 C310.882,23.446 311.061,23.119 311.301,22.681" id="Fill-25" fill="#000000" sketch:type="MSShapeGroup"></path>
            <path d="M74.849,21.794 C74.112,20.625 74.287,19.484 74.714,18.349 C74.817,18.353 74.92,18.356 75.023,18.36 C74.965,19.505 74.907,20.65 74.849,21.794" id="Fill-27" fill="#FFFFFF" sketch:type="MSShapeGroup"></path>
        </g>
    </g>
</svg>