<?xml version="1.0" encoding="UTF-8" standalone="no"?>
<svg width="194px" height="25px" viewBox="0 0 194 25" version="1.1" xmlns="http://www.w3.org/2000/svg" xmlns:xlink="http://www.w3.org/1999/xlink" xmlns:sketch="http://www.bohemiancoding.com/sketch/ns">
    <!-- Generator: Sketch 3.1.1 (8761) - http://www.bohemiancoding.com/sketch -->
    <title>gaming</title>
    <desc>Created with Sketch.</desc>
    <defs></defs>
    <g id="Page-1" stroke="none" stroke-width="1" fill="none" fill-rule="evenodd" sketch:type="MSPage">
        <g id="Imported-Layers" sketch:type="MSLayerGroup" transform="translate(0.000000, 1.000000)">
            <path d="M39.2558489,9.05122388 C39.2558489,7.70614925 38.3635852,7.01408955 36.9101195,7.01408955 L33.9428401,7.01408955 L33.9428401,11.1087761 L36.9677399,11.1087761 C38.4229104,11.1087761 39.2558489,10.2945672 39.2558489,9.0920597 L39.2558489,9.05122388 L39.2558489,9.05122388 Z M39.1985694,18.4438209 L36.2889104,13.8798806 L33.9428401,13.8798806 L33.9428401,18.4438209 L30.9564675,18.4438209 L30.9564675,4.18137313 L37.1627627,4.18137313 C40.3612056,4.18137313 42.2807487,5.95450746 42.2807487,8.88823881 L42.2807487,8.92907463 C42.2807487,11.2312836 41.0983374,12.6780896 39.3724534,13.3504478 L42.6888647,18.4438209 L39.1985694,18.4438209 L39.1985694,18.4438209 Z" id="Fill-1" fill="#171816" sketch:type="MSShapeGroup"></path>
            <path d="M47.6541054,9.73397015 C46.432826,9.73397015 45.63671,10.6509851 45.4045237,12.056597 L49.844703,12.056597 C49.6715009,10.6710448 48.8951599,9.73397015 47.6541054,9.73397015 M52.6769666,13.9923582 L45.443051,13.9923582 C45.7338805,15.3979701 46.6646714,16.1319403 47.9838032,16.1319403 C48.9725554,16.1319403 49.6902531,15.8048955 50.5051213,15.0107463 L52.1917961,16.5800597 C51.2221371,17.8420299 49.8256098,18.6168358 47.944935,18.6168358 C44.8225237,18.6168358 42.5153216,16.3153433 42.5153216,12.9732537 L42.5153216,12.9324179 C42.5153216,9.81564179 44.6288647,7.24728358 47.6541054,7.24728358 C51.1256485,7.24728358 52.7154938,10.08 52.7154938,13.1774328 L52.7154938,13.2179104 C52.7154938,13.5234627 52.6957188,13.7068657 52.6769666,13.9923582" id="Fill-2" fill="#171816" sketch:type="MSShapeGroup"></path>
            <path d="M61.7162074,12.8915821 C61.7162074,11.0779701 60.5716415,9.87689552 59.1948893,9.87689552 C57.8174552,9.87689552 56.6541371,11.0582687 56.6541371,12.8915821 L56.6541371,12.9334925 C56.6541371,14.7463881 57.8174552,15.9481791 59.1948893,15.9481791 C60.5716415,15.9481791 61.7162074,14.7463881 61.7162074,12.9334925 L61.7162074,12.8915821 L61.7162074,12.8915821 Z M61.6769982,18.3725373 L61.6769982,16.8028657 C60.9596415,17.8223284 59.9708893,18.5763582 58.4383234,18.5763582 C56.0151986,18.5763582 53.7066327,16.5800597 53.7066327,12.9334925 L53.7066327,12.8915821 C53.7066327,9.24573134 55.9756485,7.24835821 58.4383234,7.24835821 C60.0090756,7.24835821 60.9790756,8.00238806 61.6769982,8.87820896 L61.6769982,3.49934328 L64.6245026,3.49934328 L64.6245026,18.3725373 L61.6769982,18.3725373 L61.6769982,18.3725373 Z" id="Fill-3" fill="#171816" sketch:type="MSShapeGroup"></path>
            <path d="M71.532471,18.5756418 C69.4768893,18.5756418 67.4022144,17.8230448 65.772478,16.2938507 L67.5375712,14.0743881 C68.7598735,15.1328955 70.0401371,15.8056119 71.5914552,15.8056119 C72.8117118,15.8056119 73.5498664,15.2962388 73.5498664,14.4612537 L73.5498664,14.4193433 C73.5498664,13.6255522 73.0837891,13.2179104 70.8147733,12.6071642 C68.0817258,11.8728358 66.3162917,11.0790448 66.3162917,8.24668657 L66.3162917,8.20549254 C66.3162917,5.61779104 68.294478,3.90698507 71.0670756,3.90698507 C73.0456028,3.90698507 74.7322777,4.55928358 76.1090299,5.7198806 L74.5577118,8.08370149 C73.3555255,7.20716418 72.1724323,6.67808955 71.0288893,6.67808955 C69.8839824,6.67808955 69.2825483,7.22758209 69.2825483,7.92035821 L69.2825483,7.96083582 C69.2825483,8.89826866 69.8645483,9.2038209 72.2119824,9.83570149 C74.9658278,10.5893731 76.5171459,11.6292537 76.5171459,14.1141493 L76.5171459,14.1553433 C76.5171459,16.9866269 74.4615641,18.5756418 71.532471,18.5756418" id="Fill-4" fill="#171816" sketch:type="MSShapeGroup"></path>
            <path d="M85.3422707,12.8915821 C85.3422707,11.0779701 84.1980457,9.87689552 82.8212935,9.87689552 C81.4438594,9.87689552 80.2812232,11.0582687 80.2812232,12.8915821 L80.2812232,12.9324179 C80.2812232,14.7463881 81.4438594,15.9471045 82.8212935,15.9471045 C84.1980457,15.9471045 85.3422707,14.7463881 85.3422707,12.9324179 L85.3422707,12.8915821 L85.3422707,12.8915821 Z M85.3044253,21.6318806 L85.3044253,16.8039403 C84.5860457,17.8230448 83.5972935,18.5756418 82.0660914,18.5756418 C79.64058,18.5756418 77.332696,16.5800597 77.332696,12.9324179 L77.332696,12.8915821 C77.332696,9.24465672 79.6017118,7.24728358 82.0660914,7.24728358 C83.6361617,7.24728358 84.6054798,8.00238806 85.3044253,8.87749254 L85.3044253,7.4521791 L88.2509069,7.4521791 L88.2509069,21.6318806 L85.3044253,21.6318806 L85.3044253,21.6318806 Z" id="Fill-5" fill="#171816" sketch:type="MSShapeGroup"></path>
            <path d="M96.2127487,18.3725373 L96.2127487,16.8243582 C95.535283,17.7410149 94.6621125,18.5763582 93.1690967,18.5763582 C90.938949,18.5763582 89.6389104,17.0274627 89.6389104,14.521791 L89.6389104,7.4518209 L92.5874376,7.4518209 L92.5874376,13.544597 C92.5874376,15.0103881 93.2458102,15.7647761 94.371283,15.7647761 C95.4970967,15.7647761 96.2127487,15.0103881 96.2127487,13.544597 L96.2127487,7.4518209 L99.1612759,7.4518209 L99.1612759,18.3725373 L96.2127487,18.3725373" id="Fill-6" fill="#171816" sketch:type="MSShapeGroup"></path>
            <path d="M107.112548,13.9719403 C106.608285,13.7276418 105.948889,13.5650149 105.231533,13.5650149 C103.971726,13.5650149 103.196749,14.0937313 103.196749,15.0716418 L103.196749,15.1124776 C103.196749,15.9481791 103.85478,16.4367761 104.804664,16.4367761 C106.182439,16.4367761 107.112548,15.6426269 107.112548,14.521791 L107.112548,13.9719403 L107.112548,13.9719403 Z M107.055269,18.3725373 L107.055269,17.1911642 C106.336889,18.0254328 105.348137,18.5763582 103.913083,18.5763582 C101.953308,18.5763582 100.344369,17.3942687 100.344369,15.2349851 L100.344369,15.1941493 C100.344369,12.8102687 102.069912,11.7098507 104.53361,11.7098507 C105.581346,11.7098507 106.336889,11.8939701 107.07368,12.1586866 L107.07368,11.9749254 C107.07368,10.6911045 106.317455,9.97862687 104.843533,9.97862687 C103.718742,9.97862687 102.923649,10.2028657 101.973764,10.5693134 L101.236974,8.20585075 C102.381199,7.67641791 103.505989,7.32967164 105.270401,7.32967164 C108.489301,7.32967164 109.905603,9.08167164 109.905603,12.0361791 L109.905603,18.3725373 L107.055269,18.3725373 L107.055269,18.3725373 Z" id="Fill-7" fill="#171816" sketch:type="MSShapeGroup"></path>
            <path d="M117.374432,10.4876418 C115.41568,10.4876418 114.213835,11.7313433 114.213835,14.3387463 L114.213835,18.3736119 L111.265308,18.3736119 L111.265308,7.4518209 L114.213835,7.4518209 L114.213835,9.65265672 C114.814928,8.14423881 115.784246,7.16668657 117.529223,7.24728358 L117.529223,10.4876418 L117.374432,10.4876418" id="Fill-8" fill="#171816" sketch:type="MSShapeGroup"></path>
            <path d="M123.135448,9.73397015 C121.913487,9.73397015 121.119076,10.6509851 120.887571,12.056597 L125.327409,12.056597 C125.152844,10.6710448 124.377866,9.73397015 123.135448,9.73397015 M128.159332,13.9923582 L120.925757,13.9923582 C121.216246,15.3979701 122.146696,16.1319403 123.465828,16.1319403 C124.455603,16.1319403 125.171937,15.8048955 125.986805,15.0107463 L127.674503,16.5800597 C126.705185,17.8420299 125.307975,18.6168358 123.42696,18.6168358 C120.304548,18.6168358 117.997346,16.3153433 117.997346,12.9732537 L117.997346,12.9324179 C117.997346,9.81564179 120.111912,7.24728358 123.135448,7.24728358 C126.608014,7.24728358 128.1982,10.08 128.1982,13.1774328 L128.1982,13.2179104 C128.1982,13.5234627 128.178766,13.7068657 128.159332,13.9923582" id="Fill-9" fill="#171816" sketch:type="MSShapeGroup"></path>
            <path d="M0.136379613,-0.122865672 L22.7559613,-0.122865672 L22.7559613,23.641791 L0.136379613,23.641791 L0.136379613,-0.122865672 Z" id="Fill-10" fill="#D02138" sketch:type="MSShapeGroup"></path>
            <path d="M130.453237,11.2481194 L130.453237,11.2076418 C130.453237,7.40489552 133.028084,3.84573134 137.15084,3.84573134 C139.221764,3.84573134 140.499301,4.49659701 141.853891,5.6761791 L141.582837,6.02149254 C140.324394,4.944 139.066292,4.25265672 137.131406,4.25265672 C133.317891,4.25265672 130.879083,7.66889552 130.879083,11.1872239 L130.879083,11.2273433 C130.879083,14.9287164 133.201968,18.1619104 137.15084,18.1619104 C139.163462,18.1619104 140.827975,17.2266269 141.969814,16.2096716 L141.969814,11.6346269 L136.976615,11.6346269 L136.976615,11.1872239 L142.395659,11.1872239 L142.395659,16.3726567 C141.118123,17.5930746 139.318253,18.569194 137.131406,18.569194 C132.892046,18.569194 130.453237,15.2138507 130.453237,11.2481194 L130.453237,11.2481194 Z" id="Fill-11" fill="#1A1918" sketch:type="MSShapeGroup"></path>
            <path d="M130.453237,11.2481194 L130.453237,11.2076418 C130.453237,7.40489552 133.028084,3.84573134 137.15084,3.84573134 C139.221764,3.84573134 140.499301,4.49659701 141.853891,5.6761791 L141.582837,6.02149254 C140.324394,4.944 139.066292,4.25265672 137.131406,4.25265672 C133.317891,4.25265672 130.879083,7.66889552 130.879083,11.1872239 L130.879083,11.2273433 C130.879083,14.9287164 133.201968,18.1619104 137.15084,18.1619104 C139.163462,18.1619104 140.827975,17.2266269 141.969814,16.2096716 L141.969814,11.6346269 L136.976615,11.6346269 L136.976615,11.1872239 L142.395659,11.1872239 L142.395659,16.3726567 C141.118123,17.5930746 139.318253,18.569194 137.131406,18.569194 C132.892046,18.569194 130.453237,15.2138507 130.453237,11.2481194 L130.453237,11.2481194 Z" id="Stroke-12" stroke="#0B0B0A" stroke-width="0.108" sketch:type="MSShapeGroup"></path>
            <path d="M144.139954,15.5186866 L144.139954,15.4778507 C144.139954,13.3425672 146.036654,12.2446567 148.456028,12.2446567 C149.811641,12.2446567 151.127023,12.5090149 152.095659,12.8747463 L152.095659,12.0207761 C152.095659,9.56023881 150.701178,8.40071642 148.436594,8.40071642 C147.236794,8.40071642 146.230313,8.74674627 145.223831,9.25540299 L145.069381,8.88931343 C146.134165,8.3401791 147.197926,7.99450746 148.456028,7.99450746 C149.792207,7.99450746 150.837216,8.36059701 151.552868,9.11283582 C152.152938,9.74328358 152.50207,10.7398209 152.50207,12.0003582 L152.50207,18.3248955 L152.095659,18.3248955 L152.095659,15.9252537 C151.689248,17.1044776 150.237487,18.569194 147.75981,18.569194 C145.86277,18.569194 144.139954,17.5318209 144.139954,15.5186866 L144.139954,15.5186866 Z M152.095659,14.6034627 L152.095659,13.3017313 C151.069743,12.8951642 149.946657,12.6512239 148.475462,12.6512239 C146.288615,12.6512239 144.5658,13.5868657 144.5658,15.4574328 L144.5658,15.4982687 C144.5658,17.2878806 146.075863,18.1619104 147.779244,18.1619104 C150.372503,18.1619104 152.095659,16.4134925 152.095659,14.6034627 L152.095659,14.6034627 Z" id="Fill-13" fill="#1A1918" sketch:type="MSShapeGroup"></path>
            <path d="M144.139954,15.5186866 L144.139954,15.4778507 C144.139954,13.3425672 146.036654,12.2446567 148.456028,12.2446567 C149.811641,12.2446567 151.127023,12.5090149 152.095659,12.8747463 L152.095659,12.0207761 C152.095659,9.56023881 150.701178,8.40071642 148.436594,8.40071642 C147.236794,8.40071642 146.230313,8.74674627 145.223831,9.25540299 L145.069381,8.88931343 C146.134165,8.3401791 147.197926,7.99450746 148.456028,7.99450746 C149.792207,7.99450746 150.837216,8.36059701 151.552868,9.11283582 C152.152938,9.74328358 152.50207,10.7398209 152.50207,12.0003582 L152.50207,18.3248955 L152.095659,18.3248955 L152.095659,15.9252537 C151.689248,17.1044776 150.237487,18.569194 147.75981,18.569194 C145.86277,18.569194 144.139954,17.5318209 144.139954,15.5186866 L144.139954,15.5186866 Z M152.095659,14.6034627 L152.095659,13.3017313 C151.069743,12.8951642 149.946657,12.6512239 148.475462,12.6512239 C146.288615,12.6512239 144.5658,13.5868657 144.5658,15.4574328 L144.5658,15.4982687 C144.5658,17.2878806 146.075863,18.1619104 147.779244,18.1619104 C150.372503,18.1619104 152.095659,16.4134925 152.095659,14.6034627 L152.095659,14.6034627 Z" id="Stroke-14" stroke="#0B0B0A" stroke-width="0.108" sketch:type="MSShapeGroup"></path>
            <path d="M154.361947,8.15713433 L154.768359,8.15713433 L154.768359,10.7602388 C155.059188,9.45850746 156.375592,7.91319403 158.11716,7.91319403 C160.226953,7.91319403 161.291736,9.2958806 161.639845,10.9429254 C162.007388,9.47928358 163.363002,7.91319403 165.104569,7.91319403 C167.25323,7.91319403 168.743859,9.41767164 168.743859,12.305194 L168.743859,18.3248955 L168.337448,18.3248955 L168.337448,12.3460299 C168.337448,9.70244776 167.00161,8.31976119 165.084794,8.31976119 C163.420281,8.31976119 161.755427,10.0685373 161.755427,12.3872239 L161.755427,18.3248955 L161.349357,18.3248955 L161.349357,12.3460299 C161.349357,9.70244776 160.0142,8.31976119 158.097726,8.31976119 C156.432872,8.31976119 154.768359,10.0685373 154.768359,12.3872239 L154.768359,18.3248955 L154.361947,18.3248955 L154.361947,8.15713433 L154.361947,8.15713433 Z" id="Fill-15" fill="#1A1918" sketch:type="MSShapeGroup"></path>
            <path d="M154.361947,8.15713433 L154.768359,8.15713433 L154.768359,10.7602388 C155.059188,9.45850746 156.375592,7.91319403 158.11716,7.91319403 C160.226953,7.91319403 161.291736,9.2958806 161.639845,10.9429254 C162.007388,9.47928358 163.363002,7.91319403 165.104569,7.91319403 C167.25323,7.91319403 168.743859,9.41767164 168.743859,12.305194 L168.743859,18.3248955 L168.337448,18.3248955 L168.337448,12.3460299 C168.337448,9.70244776 167.00161,8.31976119 165.084794,8.31976119 C163.420281,8.31976119 161.755427,10.0685373 161.755427,12.3872239 L161.755427,18.3248955 L161.349357,18.3248955 L161.349357,12.3460299 C161.349357,9.70244776 160.0142,8.31976119 158.097726,8.31976119 C156.432872,8.31976119 154.768359,10.0685373 154.768359,12.3872239 L154.768359,18.3248955 L154.361947,18.3248955 L154.361947,8.15713433 L154.361947,8.15713433 Z" id="Stroke-16" stroke="#0B0B0A" stroke-width="0.108" sketch:type="MSShapeGroup"></path>
            <path d="M171.087884,4.08967164 L171.687954,4.08967164 L171.687954,5.24919403 L171.087884,5.24919403 L171.087884,4.08967164 Z M171.185054,8.15713433 L171.591466,8.15713433 L171.591466,18.3248955 L171.185054,18.3248955 L171.185054,8.15713433 Z" id="Fill-17" fill="#1A1918" sketch:type="MSShapeGroup"></path>
            <path d="M171.087884,4.08967164 L171.687954,4.08967164 L171.687954,5.24919403 L171.087884,5.24919403 L171.087884,4.08967164 Z M171.185054,8.15713433 L171.591466,8.15713433 L171.591466,18.3248955 L171.185054,18.3248955 L171.185054,8.15713433 Z" id="Stroke-18" stroke="#0B0B0A" stroke-width="0.108" sketch:type="MSShapeGroup"></path>
            <path d="M174.146197,8.15713433 L174.552608,8.15713433 L174.552608,10.9429254 C174.862531,9.70244776 176.140408,7.91319403 178.442837,7.91319403 C181.056552,7.91319403 182.508313,9.76370149 182.508313,12.5699104 L182.508313,18.3248955 L182.101561,18.3248955 L182.101561,12.6107463 C182.101561,10.0685373 180.843459,8.31976119 178.404991,8.31976119 C176.255989,8.31976119 174.552608,10.2515821 174.552608,12.6920597 L174.552608,18.3248955 L174.146197,18.3248955 L174.146197,8.15713433 L174.146197,8.15713433 Z" id="Fill-19" fill="#1A1918" sketch:type="MSShapeGroup"></path>
            <path d="M174.146197,8.15713433 L174.552608,8.15713433 L174.552608,10.9429254 C174.862531,9.70244776 176.140408,7.91319403 178.442837,7.91319403 C181.056552,7.91319403 182.508313,9.76370149 182.508313,12.5699104 L182.508313,18.3248955 L182.101561,18.3248955 L182.101561,12.6107463 C182.101561,10.0685373 180.843459,8.31976119 178.404991,8.31976119 C176.255989,8.31976119 174.552608,10.2515821 174.552608,12.6920597 L174.552608,18.3248955 L174.146197,18.3248955 L174.146197,8.15713433 L174.146197,8.15713433 Z" id="Stroke-20" stroke="#0B0B0A" stroke-width="0.108" sketch:type="MSShapeGroup"></path>
            <path d="M184.561508,20.0736716 L184.813469,19.728 C186.052137,20.7245373 187.406728,21.2328358 188.955659,21.2328358 C191.529483,21.2328358 193.25264,19.6871642 193.25264,16.6979104 L193.25264,14.6238806 C192.536647,16.3522388 190.872134,17.5726567 188.897357,17.5726567 C186.26523,17.5726567 184.116228,15.4169552 184.116228,12.7733731 L184.116228,12.7328955 C184.116228,10.0889552 186.26523,7.91319403 188.897357,7.91319403 C190.872134,7.91319403 192.536647,9.13325373 193.25264,10.8619701 L193.25264,8.15713433 L193.659051,8.15713433 L193.659051,16.7792239 C193.659051,18.3044776 193.213431,19.5044776 192.420042,20.3380299 C191.60722,21.1923582 190.387986,21.639403 188.955659,21.639403 C187.330014,21.639403 185.897346,21.1106866 184.561508,20.0736716 L184.561508,20.0736716 Z M193.291167,12.7934328 L193.291167,12.752597 C193.291167,10.3733731 191.336165,8.31976119 188.916791,8.31976119 C186.497417,8.31976119 184.561508,10.2924179 184.561508,12.7124776 L184.561508,12.752597 C184.561508,15.1730149 186.497417,17.1660896 188.916791,17.1660896 C191.336165,17.1660896 193.291167,15.1730149 193.291167,12.7934328 L193.291167,12.7934328 Z" id="Fill-21" fill="#1A1918" sketch:type="MSShapeGroup"></path>
            <path d="M184.561508,20.0736716 L184.813469,19.728 C186.052137,20.7245373 187.406728,21.2328358 188.955659,21.2328358 C191.529483,21.2328358 193.25264,19.6871642 193.25264,16.6979104 L193.25264,14.6238806 C192.536647,16.3522388 190.872134,17.5726567 188.897357,17.5726567 C186.26523,17.5726567 184.116228,15.4169552 184.116228,12.7733731 L184.116228,12.7328955 C184.116228,10.0889552 186.26523,7.91319403 188.897357,7.91319403 C190.872134,7.91319403 192.536647,9.13325373 193.25264,10.8619701 L193.25264,8.15713433 L193.659051,8.15713433 L193.659051,16.7792239 C193.659051,18.3044776 193.213431,19.5044776 192.420042,20.3380299 C191.60722,21.1923582 190.387986,21.639403 188.955659,21.639403 C187.330014,21.639403 185.897346,21.1106866 184.561508,20.0736716 L184.561508,20.0736716 Z M193.291167,12.7934328 L193.291167,12.752597 C193.291167,10.3733731 191.336165,8.31976119 188.916791,8.31976119 C186.497417,8.31976119 184.561508,10.2924179 184.561508,12.7124776 L184.561508,12.752597 C184.561508,15.1730149 186.497417,17.1660896 188.916791,17.1660896 C191.336165,17.1660896 193.291167,15.1730149 193.291167,12.7934328 L193.291167,12.7934328 Z" id="Stroke-22" stroke="#0B0B0A" stroke-width="0.108" sketch:type="MSShapeGroup"></path>
        </g>
    </g>
</svg>