<?xml version="1.0" encoding="UTF-8" standalone="no"?>
<svg width="82px" height="43px" viewBox="0 0 82 43" version="1.1" xmlns="http://www.w3.org/2000/svg" xmlns:xlink="http://www.w3.org/1999/xlink" xmlns:sketch="http://www.bohemiancoding.com/sketch/ns">
    <!-- Generator: Sketch 3.1.1 (8761) - http://www.bohemiancoding.com/sketch -->
    <title>rsq</title>
    <desc>Created with Sketch.</desc>
    <defs>
        <path id="path-1" d="M0.0232075472,0.168416667 L81.7404623,0.168416667 L81.7404623,42.9761111 L0.0232075472,42.9761111 L0.0232075472,0.168416667 Z"></path>
    </defs>
    <g id="Page-1" stroke="none" stroke-width="1" fill="none" fill-rule="evenodd" sketch:type="MSPage">
        <g id="RSQ_Logo_K" sketch:type="MSLayerGroup">
            <g id="Group-3">
                <mask id="mask-2" sketch:name="Clip 2" fill="white">
                    <use xlink:href="#path-1"></use>
                </mask>
                <g id="Clip-2"></g>
                <path d="M50.951783,18.2921204 C50.951783,14.3994259 54.0175,11.2437037 57.7991698,11.2437037 C61.5808396,11.2437037 64.6465566,14.3994259 64.6465566,18.2921204 C64.6465566,19.6748889 64.2539623,20.5938148 63.5859717,21.6819537 C62.9512453,20.9171111 61.951,19.9074074 62.3726038,18.712963 L53.031566,18.712963 C53.8121132,19.5092593 54.4112547,20.1725741 54.9566321,20.8661481 L58.1271698,25.1402685 C58.0177075,25.1454444 57.9097925,25.248963 57.7991698,25.248963 C54.0175,25.248963 50.951783,22.1848148 50.951783,18.2921204 L50.951783,18.2921204 Z M40.5408774,14.7864259 C40.537783,14.7844352 40.5346887,14.7816481 40.5315943,14.7796574 C39.4996321,14.0554259 38.4026887,13.4824907 37.3289528,12.8335093 C36.3936887,12.268537 35.1571132,11.3484167 35.0348868,10.1396389 C34.9323868,9.12475926 35.6723208,8.34040741 36.6052642,8.17278704 C37.9834057,7.92593519 39.1878774,8.52912963 40.1974057,9.4592037 C40.3703019,9.61846296 41.3705472,10.5576944 41.667217,11.0685185 C41.1682547,12.2478333 40.7876509,13.4924444 40.5408774,14.7864259 L40.5408774,14.7864259 Z M34.3088774,26.4601296 C33.8296415,26.9148148 33.1836981,27.2074537 32.531566,27.2580185 C30.2015283,27.4391759 28.1631321,25.5654907 26.6461321,23.9772778 C25.2861698,22.5531019 23.8329906,20.8864537 22.0518113,19.970713 C22.9627075,18.9359259 23.7119245,17.7558148 24.2464717,16.4291852 C24.5825943,15.5946667 24.8258868,14.7537778 24.950434,13.9065185 C24.764,15.1730278 26.2910566,16.5828704 27.0944245,17.3469167 C28.6911038,18.8650556 30.5914151,19.901037 32.4062453,21.1018519 C33.5878962,21.8834167 34.8229245,22.8740093 35.0565472,24.4009074 C35.1810943,25.2179074 34.8530943,25.9433333 34.3088774,26.4601296 L34.3088774,26.4601296 Z M15.0543491,14.8827778 C15.0400377,14.9062685 15.0253396,14.9293611 15.0098679,14.9524537 C14.4950472,15.7236667 13.7763868,16.1994537 12.8960472,16.3806111 C12.4245472,16.4773611 11.990566,16.5259352 11.6037736,16.5259352 L11.6037736,10.1225185 C11.990566,10.1225185 12.4245472,10.1710926 12.8960472,10.2682407 C13.8916509,10.473287 14.9963302,11.166463 15.322783,12.1968704 C15.5881226,13.0365648 15.5227547,14.1199259 15.0543491,14.8827778 L15.0543491,14.8827778 Z M73.4507264,34.5600556 L70.4588868,30.7808333 C73.5091321,27.5247778 75.3881698,23.1355926 75.3881698,18.2554907 C75.3881698,8.256 67.6144151,0.168416667 57.9001226,0.168416667 C50.9289623,0.168416667 45.254717,4.36131481 42.1603774,10.4143611 L42.1603774,0.247648148 C42.1603774,0.252027778 41.4738208,0.868361111 41.162066,1.05549074 C40.0121321,1.74787037 38.7527358,1.03637963 37.6089906,0.681231481 C36.8210943,0.436768519 36.0053491,0.290648148 35.1996604,0.266361111 C32.9431132,0.143731481 30.5051604,0.61712963 28.5696509,1.86134259 C27.1713962,2.75996296 25.982783,4.11287037 25.1743868,5.58761111 C24.9423113,6.01084259 24.7500755,6.46194444 24.6197264,6.92937037 C24.5125849,7.31318519 24.3478113,7.91837037 24.4816415,8.31412963 C24.3497453,7.92434259 24.2077925,7.53774074 24.0376038,7.16348148 C23.3460189,5.64375 22.4034057,4.36649074 21.2097642,3.33130556 C20.0157358,2.29691667 18.625217,1.52052778 17.0393679,1.00293519 C14.0343774,0.0218981481 10.8174245,0.0541481481 7.74513208,0.6665 C5.91366981,1.0312037 4.14332075,1.763 2.30141509,1.05111111 C1.7989717,0.857212963 1.16037736,0.226546296 1.16037736,0.226546296 L1.16037736,39.3716759 C1.16037736,41.0331481 0.725235849,42.2037037 0,43 L12.7641509,43 C12.0752736,42.2037037 11.6037736,41.0331481 11.6037736,39.3716759 L11.6037736,25.4524167 C11.990566,25.6463148 13.3041132,25.985537 14.1210189,26.4708796 C14.9375377,26.9562222 15.6151981,27.5140278 16.2278774,28.1446944 C18.0682358,30.0394815 19.1419717,34.2483056 17.1639151,36.4432963 C17.1639151,36.4432963 21.1803679,32.9475556 27.9086226,35.0784444 C30.5991509,35.875537 33.3318396,36.5862315 36.1538774,36.2987685 C38.9944811,36.009713 41.6204151,34.5708056 43.5582453,32.4359352 C44.0645566,31.8777315 44.5124623,31.2514444 44.9035094,30.6016667 C48.1158208,34.166287 52.7039528,36.3975093 57.7999434,36.3975093 C60.5121321,36.3975093 63.080434,35.617537 65.3745,34.488787 C65.7593585,35.0593333 66.285783,35.4351852 66.0335943,36.2314815 L75.3742453,36.2314815 C74.5983396,35.4351852 73.9964906,35.2536296 73.4507264,34.5600556 L73.4507264,34.5600556 Z" id="Fill-1" fill="#1A1918" sketch:type="MSShapeGroup" mask="url(#mask-2)"></path>
            </g>
            <path d="M81.7404623,30.7812315 C81.7404623,28.415037 79.877283,26.4971574 77.5785755,26.4971574 C75.2798679,26.4971574 73.4166887,28.415037 73.4166887,30.7812315 C73.4166887,33.1470278 75.2798679,35.0653056 77.5785755,35.0653056 C79.877283,35.0653056 81.7404623,33.1470278 81.7404623,30.7812315" id="Fill-4" fill="#1A1918" sketch:type="MSShapeGroup"></path>
            <path d="M71.2197075,1.52530556 L70.9257453,1.52530556 L70.9257453,1.41063889 L71.6339623,1.41063889 L71.6339623,1.52530556 L71.34,1.52530556 L71.34,2.52027778 L71.2197075,2.52027778 L71.2197075,1.52530556" id="Fill-5" fill="#1A1918" sketch:type="MSShapeGroup"></path>
            <path d="M71.8231038,1.37719444 L72.3441132,2.13964815 L72.8670566,1.37719444 L72.8670566,2.52027778 L72.7463774,2.52027778 L72.7463774,1.74189815 L72.3441132,2.33394444 L71.943783,1.74189815 L71.943783,2.52027778 L71.8231038,2.52027778 L71.8231038,1.37719444" id="Fill-6" fill="#1A1918" sketch:type="MSShapeGroup"></path>
        </g>
    </g>
</svg>