<svg xmlns="http://www.w3.org/2000/svg" viewBox="0 0 366.5 608" enable-background="new 0 0 366.5 608"><g><path d="M173.7 379.3c1.7.7 3.3 1.6 4.8 2.6 2 1.3 1.9 1.3 4 .2 2.8-1.5 5.5-3.1 8.9-2.5.7.1 1.5-.3 2.6-.6-.9-7.8-1-15.5-.9-23.4 2.4-.5 4.6-1.1 6.9-1.3 1.8-.2 2.3.5 2.2 2.4l-.2 12c0 1.4.3 2.8 0 4.1-.2 1.1 0 1.6.8 2 2.2 1 3.7 2.8 5.1 4.6.4.6 1.1 1 1.8 1.4.8.5 1.5.5 2.2-.2.5-.5 1.2-.9 1.9-.9 1.6-.1 3.2 0 4.7.1h5.3c.3-2.7.4-5 .8-7.4.8-4.9 1.4-9.7 1.3-14.6l.2-4.5.2-17c0-3.9 0-7.8-.1-11.7 0-2.4-.1-4.8-.3-7.2 0-.3-.6-.6-1-.9-.5 3.2-.5 6.1-.5 9l.2 11.5c0 5.1.1 10.1-.1 15.2-.3 5.5-.9 10.9-1.3 16.4-.1 1.5-.3 3.1-1.2 4.4-2.1-1.7-4.1-3.3-6.1-4.9-.3-18.5-.5-37.1 1.7-56 2.6.5 3.8 3.8 7.1 2.6-.5-.7-.9-1.4-1.5-1.9l-3.6-2.6c-1.3-1-3-1.6-3.2-3.5 0-.3-.6-.6-.8-.9-.4-.5-.9-1.1-.9-1.7l-.5-9.7c-.1-2.1-.1-4.1-.1-6.2 0-3.6.1-7.1.2-10.7l.1-2.7c-.1-4.1-.2-8.3-.2-12.4 0-1.6.2-3.2.2-4.7-.1-2.9-.3-5.8-.3-8.7 0-3.7.2-7.5.3-11.2l-.1-1.2c-.5-7.1-1.3-14.2-.1-21.4.2-1.5.6-3 .5-4.4-.2-4.5-.6-8.9-.9-13.4-.2-2.6-.8-5.2-.5-7.7.4-2.8.1-5.6.2-8.5 0-1.5-.4-176.9-.8-178.3-.1-.5-.6-1-1.2-2l-.2 1.5c0 10.8 1.5 303.1.8 303.1-1.2 0-2 .1-2.9.1-1.9-.1-3.8-.3-5.7-.3-2 0-2.4.4-2.5 2.3-.3 6-.6 12-.9 17.9l-.3 6.5c-.1 1.3-.8 2.1-2.3 1.9-.5-5.2-1-10.3-1.3-15.4-.1-2.3 0-4.7.3-7 .1-1.2-.4-1.8-1.2-2.2-2.8-1.3-4.9-3.4-7-5.6-1.1-1.2-2.3-1.5-3.8-1.3-1 .1-2.1 0-3.1 0-.1-.6-.2-.8-.2-1.1-.1-4.4 0-8.8-.7-13.2-.4-2.3-.4-4.7 0-6.9 3-15.2-.3-33.3-.8-48.7l-1.7-54.1c0-1.3-.2-176.2-1.1-177.1-2.6 2.2-.3 185.8-.2 189.4.3 10.3.4 20.6.6 31 .1 7.1.1 14.1.4 21.2.3 6.5 1.2 13.1.7 19.6-.5 6.5.4 12.9 0 19.4-.4 6 .1 12.1.3 18.2.1 2.3.1 2.3-2.4 2.8-1.2.2-2.5.4-3.3 1.7.5.3.9.7 1.3.7 1.2 0 2.5-.1 3.7-.2 2.4-.1 4.8-.2 7.4-.4.1 1 .3 1.8.3 2.6-.1 9-.1 18-.2 26.9 0 2.4.1 2.7 2.6 2.5l5.7-.5 7.2-.3c.3-1.2.6-2 .7-2.9.1-1.8.2-3.7.1-5.5-.2-3.8-.1-7.7.4-11.5.3-2.1.3-4.3.4-6.5.1-1.5.9-2.3 2.4-2.3 2.4.1 4.8.2 7.2.5 2.1.3 2.5.9 2.8 3.1.4 2.8.1 5.6-.1 8.5-.4 5-.6 10-1 14.9-.1 1.2-.2 2.5-.2 3.7v27.1c0 1-.3 2-.7 2.9-.2.5-.7 1.1-1.2 1.2-2 .4-4.1.7-6.1 1-1.2.2-1.8-.6-1.8-1.6-.1-3.6-.4-7.2 0-10.7.3-2.7.3-5.5.4-8.2 0-1-.1-2.1-.5-2.9-.3-.6-1.2-1.4-1.8-1.4-2.3 0-4.6.3-6.9.6l-8.6 1.3c-1.7.2-2 .4-2.1 2.1l.1 5.5c.1 3.3.2 6.6.1 10 0 1.9-.4 3.8-.7 5.7-.1 1-.7 1.4-1.6 1.6-2.3.5-4.5 1.1-6.8 1.7-1.8.4-2.4.1-2.4-1.7.1-5.9.3-11.8.5-17.7.1-3.5.4-7 .6-10.4l.5-14.7c.3-6.5.6-13 .8-19.4 0-1-.3-2-.7-2.9-.2-.4-.9-.5-1.3-.8-.2.4-.5.9-.4 1.3.1 1.1.5 2.3.4 3.4-.1 5.3-.2 10.6-.4 16l-1 18.4-.1 6-1.3 24.2c.3 2.5.6 2.8 3 3.8zm18.6-45.2h-3.7c-.9-3.3-.9-23.1.1-26.8 1.6 1.2 3.1 2.2 4.5 3.3.3.2.3.8.3 1.1l1.2 19.9c.1 2.2-.3 2.5-2.4 2.5zm14.1 38.5c2.9 0 5.6-.8 8.2-1.7 1.2-.4 2.2-.2 3 .5 1.6 1.5 3.1 3.2 4.6 4.9.2.2.2.8.3 1.3h-7.5c-1.2 0-2.5-.1-3.7 0-1.4.2-2.6.1-3.4-1.2-.7-1.1-1.7-2-2.8-3.2.5-.3.9-.6 1.3-.6zm-6.9-24.5c1-.1 1.8.1 2.2 1.2.6 1.5.2 2.4-1.4 2.6-2.1.3-4.2.6-6.3 1-.9.2-1.4-.2-1.9-.8-.6-.8-1.2-1.6-2.2-2.9 3.4-.3 6.5-.7 9.6-1.1zm-12.4 12.4c-.3-2.6-.2-5.3-.2-7.9 0-.4.3-.9.5-1.4 2.4 1.2 3.6 3.1 3.7 5.6l.6 14.9c.1 1.5 0 2.9 0 4.4-2.1.5-2.8-1-3.7-1.9-.8-.7-1.3-1.6-1-2.9.8-3.6.4-7.2.1-10.8zm-9.9 15.3c2.1-.5 4.3-.9 6.5-1.4 2-.4 2.7 1.1 4.1 2.4-2.8 1.2-5.2 2.3-7.7 3.3-1.6-1.1-3-2.1-4.8-3.3.8-.4 1.3-.8 1.9-1zM108.8 186.9c1.8 39.2 1.9 88.6 1.8 127.8 0 .7.1 1.5-.2 1.9-1.3 1.3-.9 2.9-.9 4.5 0 3.3.2 6.6.1 9.9 0 1.4.3 2.4 1.5 3.1l8.1 4.7c.4.2 1 .3 1.4.2l5.7-1.6c.9-.3 1.9-.6 3-.9.3.7.7 1.3.8 1.9.4 5 .8 10 1.1 15 .2 4.3.4 8.7.5 13.1.1 2.8.8 5.7-.6 8.5.6.2 1 .6 1.5.6 1.8 0 3.2 1 4.5 1.9 1.3.9 2.5 1.9 3.6 3 1 .9 2 1.1 3.2.5.9-.4 1.8-.9 2.8-1.1 1.8-.5 3.7-.8 5.6-1.2 1-.2 1.8-.4 1.6-1.9-.7-.1-1.5-.4-2.2-.4-2.3 0-4.4.5-6.5 1.5-1 .5-2.5.8-3.3.4-1.7-.8-3.2-2.2-4.8-3.4 1.2-1.7 2.6-2.3 4.2-2.6 3-.6 6-.8 8.7 1.3 1 .8 2.2 1.5 3.4 2 .5.2 1.3.2 1.8 0 .4-.2.7-.9.7-1.4-.2-1.9-.5-3.7-.7-5.5-1.3-.3-2.1-.2-2.1 1.1 0 .8-.1 1.5-.1 2.5-2.4-.5-3.7-2-5.2-3.3-.2-.1-.3-.4-.3-.7-.5-4.6-1.3-9.1-1.4-13.7-.2-7.5-.1-15.1.1-22.7 0-1.6-.2-3.5 1.1-5.1.6.2 1.3.4 1.8.7 4.9 3.1 4.4 2.5 3.9 7.8-.2 2-.5 3.9-.5 5.9 0 7.3.2 14.6.3 22 0 .7.1 1.4.2 2.1h1.8c.1-3.7.2-7.2.4-10.7.1-2.5.4-5.1.2-7.6-.4-4.5-.4-9 .5-13.5.3-1.6.8-2.6 2.3-3.2 2.7-1.1 5.1-2.7 8-3.2 1.4-.2 2.2-1.5 1.9-2.7-1.3-4.8-1.7-9.7-1.9-14.6-.1-1.2-.6-2.1-2-2.4-2.8-.6-5.5-1.4-8.7-2.2-.2-1.7-.5-3.6-.6-5.5l-.1-11.8c-.1-3.8-.1-7.5.3-11.3.2-2.4 0-4.9 0-7.4l.1-11.1.1-3.9c-.1-6-.3-12-.5-18-.1-1.6-.2-3.3-.4-4.9-.1-1.6-.3-3.3-.3-4.9-.1-3.7-.2-7.4-.2-11.1-.1-4.3-.2-8.6 0-12.8.1-3.2-.1-6.4-.7-9.5-.7-3.8-1.4-7.7-.1-11.7.7-2 .5-178.8-1-180-.6.3-1 .9-1 1.7.9 37.8 1.2 249.6 1.8 287.3.1 4.5-.6 9.1.4 13.6.3 1.5-.2 1.8-1.5 2.3l-10.2 3.9c-1.1.4-2.2.9-3.3 1.1-2.9.6-5.9 1-8.8 1.5-3 .5-5.8 1.1-8.6 2.3-2.2.9-4.5 1.3-7.2 1.2v-9c0-2.5-.1-4.9-.2-7.4-.8-20.5 1.7-51.2.6-71.7-.6-10.3-1.1-20.5-1.6-30.8-.5-10.2.3-185.7-1.3-195.7-4.7 2.5-2.6 180.8-2.4 185.3zm20.7 145.6c0 .5-.1 1-.1 1.9-1.6-.8-2.8-.4-4.2.1-2.2.8-4.6 1.5-7 .7-.8-.3-1.8-.4-2-1.7l6.1-2.2 5.2-1.4c1.3-.3 1.8 0 2 1.4.1.4 0 .8 0 1.2zm26.7-4.5c-.5.1-1 .3-1.4.1-1.7-.5-3.1-1.7-4.5-3.2.9-.5 1.6-1 2.4-1.2 1.9-.6 3.8-1.1 5.8-1.4 1.9-.3 3.3.6 4.5 2.2-2.4 1.5-4.3 3-6.8 3.5zm1.9-18.8c.2-1.1.8-1.5 1.7-1.1.9.4 1.9.8 2.7 1.3.5.3 1 1 1 1.5.5 3.4.8 6.8 1.2 10.2 0 .1-.1.3-.3.7-1.6-.8-3.1-1.4-4.4-2.3-.7-.5-1.1-1.7-1.2-2.6-.3-2-.5-4.1-.7-6.1-.1-.5-.1-1.1 0-1.6zm-46.2 13.1c0-2.7.5-3.4 3-4 2.4-.6 4.7-1.4 7.1-1.9 4.6-1 9.3-1.8 13.9-2.6 2.5-.5 5-1.1 7.3-2.3 2.6-1.3 5.3-2.3 8.1-3.1 1.2-.3 2.6.2 3.9.4.9 3.7.9 7.3.2 11.1-3.2.4-6 2.8-9.6 2.4-1.7-.2-2.6.9-2.4 2.6.7 4.6.1 9.1.1 13.7 0 4.1 0 8.2-.1 12.3-.1 3.8.2 7.5.8 11.3.4 2.2-.2 4.5-.4 6.6l-9.2 2.9c-1.2-1.9-1.1-4.2-1.4-6.3-.6-5-.6-10-.6-15 0-3.7-.5-7.4-.7-11-.2-2.9-.2-5.7-.2-8.6 0-.9.5-1.9.9-2.7.5-1.2.3-1.7-.9-2.2-1.1-.4-2.3-.5-3 .2-1.5 1.5-3.3 1.7-5.1 2-1.6.3-3.2.9-4.7 1.5-2.1.7-4.1 1.7-6.9 1.6-.2-1.8-.3-3.2-.4-4.7.2-1.4.3-2.8.3-4.2zM233.3 321.8c.4 3.4.5 6.8.8 10.2.3 3.5.7 6.9.8 10.4.2 4.2.1 8.5.4 12.7.5 6.3.7 12.6-.1 18.9-.1 1.2.1 2 1.3 2.3 2.9.8 5.3 2.7 7.9 4.1 1.9 1.1 3.7 2.7 6.2 1.4.1-.1.3 0 .5 0 4.3 0 8.4-.5 12.6-1.4 2.3-.5 4.6-.7 6.9-.1.9.2 1.8.2 2.7.1 2.3-.3 4.6-.7 6.9-1.1 1.2-2.5 2.3-4.9 2.4-7.7.1-2.7 0-5.3.3-8.1-1-.4-1.4-.8-2.1-1.2-2.6-1.9-4.7-4.5-7.6-5.9-.2-.1-.3-.4-.4-.6-.4-1.6-1.6-1.7-3-1.7-1.2 0-2.3 0-3.5.1h-3.5c1.3-.9 2.6-1.2 3.9-1.7 1.4-.5 1.7-1 1.4-2.6-.1-.5-.1-1 0-1.4.8-1.9-.5-6.9 0-8.3-4.2-3.6-4.8-4.4-8.9-7.9.2-.2.5-.5.8-.6l7.1-2.3 8.5-2.8c2.4-.8 2.8-1.7 1.4-3.9-.8-1.2-1.8-2.2-2.9-3.1-.8-.7-1.3-1.5-1.4-2.5-.3-2.4-.6-4.8-1-7.2-.2-1.3-.5-2.5-.8-3.8.5 0 .7-.1.8 0 2 1.8 4 3.5 5.9 5.4.4.4.3 1.2.3 1.9 0 2.9-.1 5.8 0 8.7 0 .4.3.9.5 1.3l.6-.1c.9-4.6 1.1-9.2.6-13.8-2.7-.8-4.4-2.2-4.5-4.9l-.4-8.7c-.1-1.1-.3-2.2-.2-3.2 2.1-18.3 1.7-37.2 2.4-55.6.8-19.8 1.7-39.6 2.5-59.3.1-1.5-.1-177.2-1.4-177.8-1.6 10.6-1.4 195.6-1.8 206.3-.2 5.7 0 11.5-.3 17.2-.3 5.7-.9 11.4-1.3 17.2-.3 5.4.3 10.8-.2 16.2-.5 5.2 0 10.4-.9 15.7-.4 2.4-.6 5-.4 7.5.3 3.1 0 6.1-.2 9.2-.2 2.3-.2 4.6-.3 7 0 1.4.1 2.8 0 4.2 0 .7-.2 1.4-.4 2.5-1-.9-1.6-1.5-2.3-1.9-.8-.4-1.8-1-2.7-.9-2.5.3-4.9.8-7.3 1.3-3.6.8-7.1 1.8-10.6 2.6-2.2.5-4.4.6-6.8 1-.4-1.5-1.1-2.8-1.2-4.2-1.7-19.9.3-40.4.8-60.4 0-11 .5-22.1.8-33.2.1-5.3 3.5-203.5-.8-205.9-1.4 1.7-.9 177.9-1 180.1-.4 7.7.5 15.4.1 23.2-.4 7.7-.1 15.5-.2 23.2l-.3 9.5c-.1 5.3-.3 10.6-.2 16 .2 7.2 0 14.3-.6 21.4-.3 4.1-.8 8.3-.8 12.4 0 4.9.3 9.8.5 14.7l.1 2.5c0 .4-.4 1.2-.6 1.2-2.1.2-3.6 2.5-6 1.6-.3-.1-.8.2-1.1.4-.9.8-.8 1.8-.6 3 .6 3.7 1.4 7.4 1.9 11.2zm41.8 38.3l1.7 1.5c5.2 3.1 4.1 7.9 3.4 12.6-.1.6-.6 1.2-1 1.5-.2.1-.9-.5-1.3-.8-1.2-1.1-2.4-2.2-3.3-3-.5-4.4-.9-8.1-1.3-12.2.8.1 1.3.1 1.8.4zm1.4 17c-2.1 1-4.3 1.3-6.7 1.1-1.7-.1-3.5-.2-5.2.1-4.7 1.1-9.5 1.2-14.3 1.4-2.8.1-4.6-1.2-7.1-2.9 1-.3 1.3-.5 1.7-.5 4.5-.7 9-1.5 13.5-2.1 1.9-.3 3.8-.3 5.7-.5l5.1-.8c3.8-.6 5.4.3 7.3 4.2zm-12.8-38.2c1.2 1 .7.8 1.8 1.9.2.2.4.8.3 1.1-.6 1.7 1 4.9-.5 6.3-1.2-.8-1.6-1.5-1.6-2.8 0-1.3-.6-2.5-.9-3.8-.2-.6-.4-1.3-.4-1.9-.2-.9.6-1.4 1.3-.8zm-.2 11.9c-1.3.5-2.6 1-3.8 1.6-1.7.8-3.2 1.9-5 2.7-1 .4-2.1.5-3.3.7-.3-1.8-.6-3.2-.9-4.7-.1-.8.1-1.5.9-1.8 2.8-.9 5.4-2.5 8.6-1.7 2.1.4 2.6.6 3.5 3.2zm8.6-30.1c.8 1 1.7 2 2.8 3.2-1 .5-1.6 1-2.4 1.2-5.6 2-11.2 4-16.9 6-1.3.5-2.7 1-4 1.3-2.2.5-2.8 0-3.2-2.2l-.6-3.2c-.3-1.8.1-2.4 1.9-2.7 4.1-.8 8.1-1.5 12.2-2.4 2.3-.5 4.7-1.2 6.9-2 1.3-.4 2.4-.3 3.3.8zm-35.8-11.7c3.3-1 6.7-1.8 10.1-2.5 3.9-.9 7.8-1.6 11.7-2.4 2.8-.5 5.6-1 8.3-1.5 1-.2 1.6.3 1.8 1.2.7 3.2 1.4 6.3 1.9 9.5.4 2.5-.5 3.8-2.9 4.5-3.2 1-6.4 1.7-9.6 2.6-2.8.8-5.6 1.2-8.6 1.2-2.9 0-4 1.7-3.5 4.7.4 2.1.7 4.3.9 6.4.2 1.9.5 2.2 2.5 2.2l6-.3c.7 0 1.3 0 2 .1 1.3.2 2 .8 2.2 2.2.2 1.6.7 3.2 1.1 4.8.4 1.4-.1 2.3-1.5 2.6-.7.2-1.4.5-2.1.6-2.9.5-5.8 1.2-8.7 2.8.1.9.1 1.9.2 2.9.1 1.4.3 2.8.3 4.2 0 1.8 0 1.7 1.8 2.3 1.8.6 3.6.4 5.4.1 4.7-.8 9.4-1.1 14.3-.5 1.5 3.7 1.5 7.7 1.7 11.5-3 3.1-6.5 3.3-10.2 3-.2 0-.5-.1-.7 0-3.1 1.3-6.4.9-9.5 1.6-3.5.8-7.1.9-10.6 1.4-1 .1-2.1-.1-2.9-.2-.3-8-.6-15.6-.9-23.1-.2-4.1-.3-8.1-.6-12.2-.3-4-.8-7.9-1.2-11.9l-.4-5.2-.9-8.7c-.2-2.5.1-3.2 2.6-3.9zM128.1 486.7l-1.8-.6c-4-1.4-7.7-3.5-10.5-6.6-9.9-11.1-5.8-26.7-6.2-40 0-.9.5-6.3 1.6-16 1.1-9.4 1.7-16.8 1.9-22.1.3-8.5 0-15.3-1-20.4-1-5.3-2.6-8.6-4.7-9.8-1-.6-1.9-.6-2.7-.3-1.4.6-3 1.8-4.7 3.7-3.7 4.3-7.3 10.9-10.7 19.9-3.1 8.1-5.4 16.2-7.1 24.4l-.3 2.5v7.9c-.1.4-.1 1 0 1.9 0 .9.1 1.5.1 1.7.1 1 0 1.8-.1 2.4-.1.5-.3 1-.6 1.4-1.2 2.4-3.3 3.2-6 2.5-.7-.1-1.2-.4-1.7-.7-.5-.3-.8-.7-1-1l-.3-.5c-.2-.3-.3-.7-.4-1-.8-1.9-1.2-4.6-1-8.1.1-2.1.4-4.5.9-7.2-.1-1.9-.1-3.2-.1-4 .1-10.1-.2-18.2-.7-24.4-.4-5.3-1-9.7-1.8-13.1-.9-3.5-1.8-5.7-2.8-6.6-2.1-1.9-4-2.7-5.7-2.3-1.8.5-3.8 2.2-6 5.1-1.9 2.5-3.5 5.4-4.8 8.7-1.3 3.3-2.2 6.2-2.5 8.5.2 1 .3 2.2.4 3.4.6 8 .4 17.8-.5 29.4-1.3 16.2-4.8 58.1-8.6 77-.2 1.2-.8 2.2-2 2.9-1.1.8-2.4 1-3.8.8-1.4-.2-2.5-.8-3.3-1.9-.8-1-1.1-2.2-.8-3.6 3.7-18.5 7.1-59.9 8.3-75.9.9-11.2 1-20.6.5-28.2-.1-.3-.1-.8 0-1.2-.3-.5-.5-1.2-.3-1.9-.1-.3-.1-.7 0-1.1-.9-6.5-2.3-11.4-4.2-14.6-.1-.1-.2-.2-.2-.3l-.2.2c-2.3 2.2-4.9 6.5-7.7 12.9-2.5 5.6-4.6 11.5-6.5 17.5-1.9 6.2-2.9 10.3-3.1 12.1 0 1.3-.6 2.4-1.6 3.2-1.1.9-2.3 1.3-3.7 1.2-1.4-.1-2.6-.6-3.5-1.6-.9-1-1.3-2.1-1.2-3.4.1-2.4 1.2-6.9 3.2-13.6 2-6.6 4.4-12.9 7.1-18.8 3.3-7.5 6.5-12.8 9.7-15.9 2.6-2.5 5.4-3.7 8.3-3.6 3.3.2 6 1.9 8.1 5.2.5.7 1 1.5 1.3 2.3 1.1-1.9 2.2-3.7 3.3-5.2 3.5-4.7 7.3-7.7 11.4-8.8 5.6-1.6 10.8-.1 15.8 4.4 2.3 2.2 4.1 5.9 5.5 11.1.8 3.3 1.4 7.2 1.8 11.8 3.6-8.7 7.4-15.5 11.4-20.2 2.9-3.2 5.9-5.5 9-6.6 3.9-1.4 7.7-1.1 11.4.9 4.9 2.6 8.1 8.1 9.6 16.2 1.1 5.9 1.5 13.4 1.2 22.5-.2 6.1-.8 13.6-1.9 22.6l-1.9 15.7c-.6 9.8-2.1 21 2.2 30.2 1 2 2.3 4 4.1 5.4 0 0 7.9 8.6 41.3 5.5 36.3-3.3 71.5-28 134.7-15 2.4.5 4 2.9 3.1 5.2-.6 1.6-2.2 2.5-3.8 2-10-2.6-45.7-9.8-91.6 5-52.6 17.5-81.6 8.9-81.6 8.9zM146.9 448.4c.9 3.3 2.3 5.8 4.2 7.6 3.8 3.7 9.4 4.2 16.6 1.5 5.9-2.3 10.1-6.8 12.6-13.3.9-2.4 1.6-4.8 2.2-7.3.6-2.5 1.2-5.4 1.8-8.6.6-3.2 1.1-6 1.6-8.3.3-1.2 1-2.2 2.2-2.9 1.1-.7 2.4-.9 3.8-.7 1.4.3 2.4.9 3.2 2 .8 1.1 1 2.2.7 3.6l-1.4 7.6c-.7 3.4-1.4 6.5-2 9.4-.6 2.9-1.4 5.7-2.4 8.3-3.4 9.2-9.5 15.4-18.5 18.8-11.5 4.5-20.8 3.2-27.7-3.7-5.5-5.4-8.3-13.1-8.4-23.3-.2-9.4 1.7-17.7 5.9-24.8 2.3-3.9 5.1-6.9 8.5-9.1 3.4-2.2 7.3-3 11.8-2.4 7.4 1.2 11.9 5.3 13.5 12.3 1.3 5.4.5 11.2-2.5 17.4-3.1 6.4-7.5 11-13.3 13.8-3.9 1.9-8.1 2.6-12.4 2.1zm-1.5-10c3.2 1.1 6.3 1 9.3-.4 3.6-1.8 6.5-5 8.7-9.4 2.1-4.3 2.7-8.1 1.8-11.5-.6-2.9-2.4-4.6-5.4-5-3.5-.6-6.7 1.6-9.5 6.5-3.3 5.6-4.9 12.2-4.9 19.8zM193.7 396.5c5.4.3 10.6.3 15.8-.1h.2c.2-.2.8-.3 1.6-.4 2.9-.8 5.3-.3 7.1 1.4.9.8 1.5 1.9 1.7 3.2.1.6.2 1.3.2 2.3.1 1 0 2.6-.1 4.8l-.8 6.6c-.4 3.1-.6 5.4-.7 7-.5 5.8-.7 10.6-.6 14.3 0 4.6.6 7.8 1.6 9.6.7 1.4 1.8 2.5 3 3.2 1.3.7 2.6 1 3.9.6 4.4-.9 7.9-5.6 10.5-14.1 2.1-6.5 3.3-13.9 3.8-22.2-.1-1.3.4-2.4 1.4-3.3 1-.9 2.2-1.3 3.5-1.2 1.3.1 2.4.6 3.4 1.6s1.4 2 1.2 3.2c-.5 9.1-1.8 17.2-4 24.5-3.7 12-9.7 18.9-18 20.7-3.8.8-7.3.3-10.6-1.6-3.2-1.9-5.7-4.3-7.2-7.3-1.6-3-2.4-7.4-2.6-13.4-.2-4.1 0-9.2.6-15.4.2-1.6.5-3.9.7-7l.6-6.4.1-1.4c-4.1.4-8.2.5-12.1.5l-.1 3.9c-.1 1.5-.2 2.7-.4 3.4 0 .5-.1 1-.3 1.6l-.7 3.6c-.4 1.6-.8 3.2-1.3 4.9-.3 1.3-1 2.3-2.1 3-1.1.7-2.3.9-3.6.6-1.3-.3-2.3-.9-3.1-2-.8-1.1-1-2.2-.7-3.4.3-1.8.6-3.5 1-5 .3-1.5.5-2.5.7-3.1.2-.6.3-1.1.3-1.5 0-.5.1-1.4.1-2.6l.4-6.4c0-.2 0-.5.1-.7-.1-.6-.1-1.1-.1-1.6 0-1.3.5-2.4 1.5-3.2 1.4-1 2.6-1.4 4.1-1.2zM248.6 388c5.4.3 10.6.3 15.8-.1h.2c.2-.1.8-.3 1.6-.4 2.9-.8 5.3-.3 7.1 1.4.9.8 1.5 1.9 1.7 3.2.1.6.2 1.3.2 2.3.1 1 0 2.6-.1 4.8l-.8 6.6c-.4 3.1-.6 5.4-.7 7-.5 5.8-.7 10.6-.6 14.3 0 4.6.6 7.8 1.6 9.6.7 1.4 1.8 2.5 3 3.2 1.3.7 2.6 1 3.9.6 4.4-.9 7.9-5.6 10.5-14.1 2.1-6.5 3.3-13.9 3.8-22.2-.1-1.3.4-2.4 1.4-3.3 1-.9 2.2-1.3 3.5-1.2 1.3.1 2.4.6 3.4 1.6s1.4 2 1.2 3.2c-.5 9.1-1.8 17.2-4 24.5-3.7 12-9.7 18.9-18 20.7-3.8.8-7.3.3-10.6-1.6-3.2-1.9-5.7-4.3-7.2-7.3-1.6-3-2.4-7.4-2.6-13.4-.2-4.1 0-9.2.6-15.4.2-1.6.5-3.9.7-7l.6-6.4.1-1.4c-4.1.4-8.2.5-12.1.5l-.1 3.9c-.1 1.5-.2 2.7-.4 3.4 0 .5-.1 1-.3 1.6l-.7 3.6c-.4 1.6-.8 3.2-1.3 4.9-.3 1.3-1 2.3-2.1 3-1.1.7-2.3.9-3.6.6-1.3-.3-2.3-.9-3.1-2-.8-1.1-1-2.2-.7-3.4.3-1.8.6-3.5 1-5 .3-1.5.5-2.5.7-3.1.2-.6.3-1.1.3-1.5 0-.5.1-1.4.1-2.7l.4-6.4c0-.2 0-.5.1-.7-.1-.6-.1-1.1-.1-1.6 0-1.3.5-2.4 1.5-3.2 1.4-.8 2.6-1.2 4.1-1.1zM305.8 390.1c-.9 13.6-1 23.7-.3 30.4.6 6.7 1.8 11.5 3.6 14.4.7 1.1 1.4 1.7 2 2 .6.3 1.4.2 2.4-.2 1.4-.6 2.9-2.1 4.4-4.5 1.5-2.6 2.8-6 4.1-10.5 1.5-4.7 3-11.7 4.6-21.1.4-2.3.8-6 1.3-11.1.3-2.1.4-3.6.4-4.3.1-.6.3-1.1.3-1.5.1-.7.5-1.4 1-2.1.9-.9 1.8-1.5 2.9-1.7 1.7-.4 3.2 0 4.6 1.1.3.3.6.6.8 1 .3.4.5.7.6.9l.1.3.6 3.2c.1 1 .2 2.6.4 4.7.4 4.6.7 7.3.8 8 .3 2.8 1.1 7.5 2.3 14.2 1.2 6.7 2.1 12.2 2.7 16.4 3.6-4.8 6.2-9.8 7.6-15.1 1.4-5.3 2.5-12.1 3.3-20.2 0-1.3.6-2.4 1.6-3.2 1.1-.9 2.3-1.3 3.7-1.2 1.4.1 2.6.6 3.5 1.6.9 1 1.3 2.1 1.2 3.4-.8 9.7-2.2 17.9-4.2 24.5-2 6.6-5.9 13.1-11.5 19.3-1.1 1.2-2.2 2.4-3.6 3.7 1 11.7.4 21-1.9 28-1.6 4.9-3.9 8.7-7 11.3-3.1 2.6-6.6 3.9-10.6 3.6-3.7-.1-6.8-1.5-9.4-4.2-2.5-2.7-3.9-5.8-4-9.4-.3-7.8 3.4-15.6 11.2-23.3 1.7-1.7 4.9-4.4 9.4-8.3l1.6-1.5c-.2-1.1-.3-2.3-.4-3.6-.6-4.3-1.5-9.9-2.7-16.8l-1.5 5.7c-1.6 5-3.3 9.2-5.3 12.4-2.7 4.5-5.8 7.4-9.4 8.6-3.7 1.4-7.1 1.5-10.2.3-2.7-1.1-5-3.2-6.8-6.2-2.5-4-4.1-9.9-4.9-17.8-.7-7.3-.6-17.9.4-32 0-1.3.6-2.4 1.6-3.2 1.1-.9 2.3-1.3 3.7-1.2 1.4.1 2.6.6 3.5 1.6 1.3 1.2 1.7 2.3 1.5 3.6zm31.7 60.8l-4.6 4.2c-5.9 5.8-8.7 11.3-8.4 16.4 0 1.5.4 2.7 1.3 3.5.8.8 1.7 1.3 2.6 1.4.5 0 1.1-.1 1.8-.4.7-.3 1.6-1.1 2.7-2.4 1.1-1.3 2-3.2 2.7-5.7 1.4-4.3 2-10 1.9-17zM152.4 361.1l.2 10.9-.2 3-7.5 2.7h8.7l1.3-2.3-.2-17.3zM176.4 303.9l-.6 9.3-2.3-5.7-.3-3.1zM278.1 321.5l-4.1 2.9 3.3 1.3 1.9-2.3v-7.9zM158.6 535.8c2-.2 4-.4 6-.8 1.6-.3 2.4-1.4 2.2-3.1l-1.9-13.3c-1.4-.3-2.6-.3-3.7.3 0 0-2.2.7-2.4 1-1.4 1.2-1.5 2.7-1.6 4.2-.1 3.4-.1 6.7-.1 10.1-.1 1 .5 1.6 1.5 1.6zm3.2-14.9c-.8 1.7-1.6 3.3-2.5 5.1-.4-1.2 0-2.4.2-3.6.5-.5 1.4-1.3 2-1.8l.3.3zm1.8 1.3c.2 2.8.6 5.7.6 8.5 0 2.1-.6 2.5-2.7 2.4-.7 0-1.4-.3-2.4-.5 1.5-3.7 2.9-7.1 4.2-10.6.1.1.3.1.3.2zM319.1 521.4c.8-2.4-.7-6.3-3.1-7.1-2.1-.7-4.3-1.1-6.6-1-.4 0-.8.1-1.3.1v.1l-2.3.4.1 1.6c-.2.4 0 1 .1 1.5l.4 2.3c.1 1.8.2 3.6.3 5.3.1 2.1 1.1 2.8 3 2 2.7-1.2 5.4-2.4 8-3.7.7-.3 1.2-.9 1.4-1.5zm-2.8-.4c-2.2 1.3-4.3 2.9-7.2 3.2-.1-.8-.1-1.5-.2-2.2-.2-1.8-.4-3.7-.7-5.5l2.9-1.1h.1c.7 0 1.4 0 2.1.1 2.1.3 3.6 1.9 3.6 3.9 0 .5-.2 1.3-.6 1.6zM348.3 580.7l-1.5-3.1c-1.2-2.5-2.5-5-4.3-7.1-.6-.7-1.4-2-1.7-2.9l-1.7-4.8c-1.1-3.3-2.4-6.4-4.3-9.3-1-1.4-2-2.8-2.7-4.4-.7-1.4-2.1-2.6-1.9-4.5 2.6-.9 4.9-2.4 6.3-4.7 2.3-3.7 3.3-7.4 4.9-11.3 1.7-4 3.9-7.9 4-12.3.1-2.2-.4-4.4-1-6.5-2.4-8.2-7.9-15.9-17.2-15.7-3.9.1-7.7-.4-11.6-1-6-.8-12.1.2-17.8 2.2-.9.3-1.9.7-2.6 1.5-1.1 1.3-.9 3.1-1.1 4.7-.3 2.2-1.2 4-1.9 6s-1.5 4-1.7 6c-.4 3.8-.3 7.6-.5 11.5-.2 3.6-.4 7.1-.3 10.7.1 6.8-.1 13.6-.8 20.3-.7 6.6-2.1 13.1-3.1 19.6-.5 3.1-.8 6.2-2 9.1-.3.7-.2 1.5-.3 2.3 2.2-.1 3.7.4 4.4 2.5.1.4.9.7 1.5.9 2.3.8 4.4 1.8 5.8 4l1.8.4 1.6-.3c.6-.6 1.4-1.2 2.1-1.8 4.2-4 8.3-8 12.4-12 1.4 2.4 2.7 4.9 4.2 7.4 1.7 3 3.5 6 5.2 9.1.5-.2 9.4 3.3 9.4 3.7 0 .3.1.7.1 1.1 1.7-.2 3.4-1.1 4.9-2.6 3.1-3 5.3-6.7 7.9-10.1.8-1 1.6-2.1 2.6-3 1.7-1.7 2.1-3.3.9-5.6zm-13.5-43.6c-.6.4-.9 1.2-1.4 1.8-.6.7-1.3 1.4-1.9 2-2.3 2.1-2.8 2-4.1-.8-.5-1.2-1.1-2.3-1.8-3.7 2.8 0 5-.9 7-2.2 2-1.3 3.9-2.7 6.3-4.5-1.5 2.8-1.6 5.7-4.1 7.4zm-47.4 45.3c.1-2.7.2-5 .7-7.3.3-1.5.6-3 .8-4.6.6-4 1.4-7.9 1.9-11.9.4-3.6.6-7.3.8-10.9l.8-10.9.8-14.2c0-.8 0-1.6-.1-2.3-.8-4 .4-7.7 1.3-11.4l.6-.3 1 10.7c.4 4.7.9 9.3 1 14 .2 7.7-.3 15.4-1.4 23.1-.5 3.6-.7 7.3-1 10.9l-.4 6.7c-.1.7-.4 1.5-.9 2.1l-4.9 5.6c-.3.1-.5.2-1 .7zm12.7 8.2c-4-.5-7.3-3.1-11.5-4.3.3-4.3 3.2-6.8 5.8-9 1.1.1 2 .1 2.9.2.4 0 .8 0 1.1.1 3.2.7 6.5 1.5 10 2.2.2.7.4 1.5.6 2.4-2.9 2.7-5.8 5.4-8.9 8.4zm10.9-41.7c-.2 1.1-.4 2.3-.3 3.4.3 6.8-.2 13.5-1.1 20.3-.1.6-.2 1.2-.4 1.8-.6 2.1-1.1 2.3-3.4 2.3-2.5 0-4.8-.5-7-1.5-.7-.3-1.2-.7-1.4-1.2-.4-1.5 1-20.8 1-20.8l.1-5.3c.7-6.3.5-12.5.5-18.8v-15l-.8-15.3c.6-.7 1.4-1.2 2.5-1.5 3.8-.8 7.6-1.7 11.4-2.2 2.4-.3 4.9.3 7.4.5 2.8.2 5.6.1 8.3.3 1.8.1 3.6.2 5.1 1.4l3.1 2.1c3 2.3 4.5 5.5 4.8 9.2.2 1.9.7 3.9.7 5.8.1 2.7-.2 5.3-1.3 8-2 5.1-6 8.1-10.4 10.7-1.4.8-3.3.9-4.9 1.2l-1.2.1c-1.3.3-1.7 1.4-.9 2.5 1.7 2.1 3.2 4.4 3.7 7.1.1.4.4.6.6 1l7.3 12.5c2 3.5 3.2 7.3 4.5 11 1.2 3.4 2.9 6.5 4.4 9.8.4.9.9 1.8 1.6 3.1h-10.6c-1.5 0-2.6-.9-3.4-2.1-.9-1.4-1.8-2.9-2.7-4.4-2.6-4.3-5.3-8.6-7.9-13l-4.7-8.3c-.9-1.6-1.8-3.3-2.7-4.8-.2-.3-.7-.8-1-.8-.2.1-.8.5-.9.9zm8.1 38.1c-1.6-2.8-3.1-5.6-4.6-8.4-.3-.6-.4-1.3-.6-2-.2-.7-.3-1.6-.7-2.2-.9-1.2-1-2.4-.9-3.7.4-3.1.7-6.2 1-9.3.1-.8 0-1.7 0-2.5l-.2-3.5.5-.2c2.4 2.7 4.4 5.6 5.2 9.2 1.2 5.2 4.2 9.5 7 13.9.7 1.1 2 1.9 3 2.9l1.6 1.8-3.7 5c-1.4 1.4-2.7 3-3.7 5-1.5-2.2-2.7-4-3.9-6zm23.6 1.7l-5.9 7.8c-1.1 1.5-2.4 1.6-3.9 1-1.4-.6-2.6-1.3-4-2s-2.7-1.3-4.2-2.1l6.5-7.4c.8-.4 1.8-.6 2.7-.8 3.9-.8 7.7-1.9 12.1-1.6-1.2 1.9-2.2 3.6-3.3 5.1zM187.6 590.6c-.1-1.5 0-3-.2-4.4-.5-5.2-1.2-10.4-1.7-15.5 0-.4.1-.8 0-1.2l-.3-5.8c-.2-2.5-.5-5-.6-7.4-.2-4.5-.4-9-.6-13.6l-.2-1.2-.9-8.4c-.1-1.1 0-2.2-.2-3.3-.9-4.5-1.2-9.2-2.4-13.6-.2-.7-.4-1.7-.6-2.6v-3c0-3.8-.2-10.1-2.3-13.3-2.7-4-8.6-3-12.6-2.4-3.7.5-7.4 1.3-11 1.8-2.3.3-7.8-.3-9.5 1.4-.5.6-.8 1.3-1.1 2-1 2.8-1.9 5.6-3.4 8.2-1.4 2.3-3.1 4.5-3.8 7.2-.8 2.9-.5 5.9-.4 8.9.2 10.6-2.9 21.1-3.2 31.7-1.5-3.4-1.6-7.2-1.6-10.9 0-7.1.4-14.2.5-21.3.1-3.6.1-7.2 0-10.7-.1-3.6-.6-7.1-.8-10.7-.1-1.3-.2-2.3-1.1-3.4-.5-.6-1.3-1-1.7-1.6-.8-1.3-1.9-1.5-3.2-1.6-5.5-.3-11.8-1.9-17.2-1.4-7.1.7-8.7 7.4-11.4 12.9-1.9 3.9-3.9 7.8-5.9 11.7-.4.8-.7 1.6-1 2.3-.6 1.5-1 3.1-2.5 4.3-.7-.8-1.5-1.3-1.8-2.1-.6-1.3-1.1-2.6-1.3-4-.6-4.7-2.2-12.7-6.1-15.8-1.8-1.4-4.1-1.8-6.3-1.7-3 .2-6.3 1-9.2 1.7-2.3.5-4.5 1.2-6.7 1.9s-4.2 2.2-6.6 2.3c-2.5.1-4.4 1.1-5.9 3.2l-5.8 7.3c-1.4 1.8-2.7 3.6-3 5.9-.9 5.5.4 11 .4 16.6l.1.4c.8 4.8 1.8 9.7 1.5 14.6-.2 3.8.4 7.5 1.3 11.1.8 3.3 1.5 6.5 1.6 9.9.1 3.5.5 7 .9 10.5.5 3.8 1.5 7.6 2.2 11.4.4 2.1 2.8 1.6 4.4 1.1 4.3-1.5 8.9-1.5 13.4-1.4.9 0 1.8.2 2.8.3.9 0 1.4-.4 1.8-1.2l2.2-6.6c.7-1.9 1.2-3.8 2.8-5.3.7-.7 1.5-1.8 1.5-2.7.1-2.7-.1-5.4-.2-8.2v-4.7c1.7 1.5 3.2 3.1 4.3 4.9 1.9 3.1 4.6 4.2 8.1 3.7 1.8-.3 3.5-.5 5.3-.6 1.7-.1 3.4 0 4.9 0 .4-.6.8-1 1-1.4 1.3-3 2.6-6 3.7-9 .2-.5-.3-1.3-.5-2-.1-.7.1-1.4.3-2.2.2-.7.4-1.4.7-2.3 1 3.5 2.1 6.8 2.9 10.1.7 2.5 1.3 5 1.6 7.5.4 3.5.4 7 .7 10.5.1 1 .3 2 .7 3 .5 1.3 1.3 2.6 2.9 2.7 2.8.3 5.6.4 8.4.5.2 0 .6-.1.8-.2 1.3-.6 2.5-.3 3.8-.1 1.4.2 2.8.2 4.2.3 2.7-4.4 3.7-9.4 5.8-14 .1 1.9-.1 3.8-.3 5.6-.4 4-.8 7.9-1.1 11.9-.1 2.1.6 2.7 2.6 2.5 2.8-.2 5.6-.7 8.2-2 1-.5 2-.8 3.1-1.1 1.4-.4 2.3-1.2 2.9-2.4.7-1.4 1.3-3 1.9-4.5.9-2.1 1.8-4.3 2.9-6.4 2.3-4.3 4.1-8.7 4.4-13.6.2-2.9.8-5.8 1.2-8.7 1.7-.6 3.1-1 4.6-1.5.2 2.8.4 5.4.6 8.1l.5 7.7c.4 4.3.9 8.7 1.4 13 .4 3.3 1.3 6.6 1.4 9.9.1 2.6 0 5.1 1.3 7.5h5.6l5.4-.2c1.9 0 3.7-.1 5.6.2 1.5.2 1.8-.5 2.3-1.6.9-2.4 1.4-4.9 3.1-7 .6-.8.6-2.2.6-3.3-.3-1.6-.7-3.3-.9-5.1zm-142.7 4.1c-.3.5-.5 1.1-.9 1.9-.3-.6-.5-.8-.6-1.1-.7-4.1-1.5-8.1-2-12.2-.7-6.2-1.3-12.4-2.7-18.4-.8-3.2-.7-6.5-.7-9.7 0-2.3-.2-4.7-.5-7-.4-3.5-.9-7-1.2-10.4-.2-2.9-.1-5.9-.4-8.8-.1-1.7.3-3.2 1.3-4.4 2-2.4 4.1-4.7 6.2-7 .2-.2.5-.3 1.3-.7.3 4.4.8 8.4.9 12.5.1 4.6.3 9.2 1.2 13.7.5 2.5.5 5.1.7 7.7.7 8 1 16 1.3 24 .1 2.1.9 4.1 1.4 6.1.4 1.4.3 2.6-.5 4-1.6 3.1-3.2 6.5-4.8 9.8zm21.6-8.3c-1.5 2.9-2.9 5.8-4.5 8.8-.5.9-1 1.7-2.3 1.8-4 .2-7.9.5-11.9.8-.4 0-.8-.1-1.5-.1 1.6-4.2 2.8-8.2 5.2-11.7.6-.8 1.1-1.3 2.3-1.2 4.3.1 8.7 0 13.3 0-.2.4-.3 1-.6 1.6zm12.4-11.9c-2.1-2.6-3.8-4.7-5.5-6.7l-1.6-1.6c-.6-.6-1.2-1.2-1.6-2-1.6-2.9-1.7-6.1-2-9.3-.2-2.2-.5-4.4-.7-6.7-.1-1-.1-2-.2-2.9l.6-.1 2.1 3.6c.8 1.3 1.7 2.6 2.6 3.8.4.6.9 1.1 1.1 1.8 1.2 3.8 2.9 7.4 5.3 10.6 1.3 1.7 1.6 3.4 1 5.4-.3 1.2-.6 2.3-1.1 4.1zm12.5 1.1h-11.1c.9-2.5 1.7-4.6 2.5-6.9 3.1-.2 6-1.2 9.2-.2-.2 2.6-.4 4.8-.6 7.1zm14.8 14.4s-.3-.2-.3-.4c-.3-3.9-.6-7.7-1-11.6-.1-.9-.2-1.9-.4-2.8-.6-4.3-1.2-8.6-1.9-12.9-.3-2.2-.8-4.4-1.3-6.7-.1-.4-.2-1-.1-1.3 1-2.5 2.1-5 3.2-7.4.2-.4.5-.7.8-1.3 1.4 1.8 1.7 3.7 1.8 5.6.3 3.6.3 7.3.1 11-.3 6.5 0 13 1.6 19.5.4 1.7-.4 3.2-1.1 4.6-.4 1.1-.9 2.4-1.4 3.7zm19.6-2.4l-2.2 4.9c-.4.9-.9 1.5-2.1 1.3-2-.4-4.1-.4-6.2-.4-2.1 0-4.3-.6-6.5-1 0-.3-.2-.7-.1-1.1.5-1.7 1.1-3.4 1.7-5.1.7-1.9 1.4-2.3 3.4-1.9 1.5.2 2.9.4 4.4.7 2.6.4 4.9-.6 7.3-1.1.5-.1 1-.1 1.8-.2-.6 1.5-1 2.7-1.5 3.9zm3.8-65.8c-.1 4.2-.5 8.4-.7 12.6-.1 4.8 0 9.7-.2 14.5-.1 4.3-.5 8.6-.7 12.9 0 .7-.1 1.4 0 2.1.8 4.9-.1 9.7-.4 14.5-.2 2.6-1.4 3.6-4.6 3.9-3.1.3-6.2.2-9.3.1-2.1-.1-2.9-.9-3.2-3-.9-6.9-1.8-13.8-1.4-20.8.3-5-.2-9.8-1.2-14.6-.3-1.5-1-2.7-2.4-3.8-1 .7-1.6 1.6-2.1 2.6-1.1 1.3-2.2 2.7-2.3 2.9-.2.3-7.7 19-8 19.7-.4 0-1 0-1.8-.1-1.7-.2-3.4.2-5.1.4-1.1.2-2.1.5-3.2.8-1.1-1.7-2.1-3.4-3.2-5-2.7-3.7-4.1-8-6.1-12-1.2-2.5-2.2-5.2-4.2-7.3-.4-.4-.7-.9-1-1.3-1.1-1.8-1.2-1.9-3.5-1.5-1.2 3.6-.7 7.3-.1 10.8.5 3.2.5 6.4.8 9.5l1.3 18.9c.2 2.3-1.4 4-4.1 3.6-2.2-.3-4.2 0-6.3.2-.5.1-1.1.1-1.6.1-1.8-.1-2.1-.4-2.2-2.2 0-.5 0-1-.1-1.4-1-2.5-.5-5.2-.6-7.8v-.9c-.5-5.1-1.3-10.2-1.6-15.3-.4-5.8-1.2-11.5-2.1-17.2-.5-3.4-.4-6.8-.5-10.3l-.4-12.2c0-.7-.5-1.4-.9-2.2 3.6-2.1 7.3-4 11.5-4.9 3.2-.7 6.3-1.5 9.6-2.1 1.5-.3 3.1-.5 4.6.2 1.5.7 2.7 1.7 3.4 3.3 1.3 3.3 2.7 6.6 4.2 9.9l2.5 5.5 3.7 9.1c.7 1.7 1.4 1.8 2.6.4.2-.2.5-.5.6-.7 1.2-4.4 1.6-5.2 3.1-7.7 1.1-1.8 1.8-3.8 2.6-5.7.9-2.1 1.8-4.3 2.8-6.4 2.4-5.3 6-10.4 9.5-15 1-1.3 2-1.7 3.6-1.6 3.2.3 6.4.4 9.6.5 2.3.1 4.3 1.1 6.4 1.9 1.2.5 1.4 1.7 1.6 2.9.8 6.4 1.3 12.8 1.1 19.2zm1.6 73.7c0-.5-.2-.9-.1-1.4.4-3.3.9-6.6 1.2-9.9.2-1.7.1-3.4.2-5.1l.7-5.1.3-1.8c.2-4.2.3-8.4.6-12.6.1-1.9.7-3.8.9-5.7.3-2.2.3-4.5.6-6.8.7-5.5 1.5-11 2.1-16.5.3-3.5.2-7 .4-10.5.1-1.8.4-3.6 1-5.2.8-2.2 2-4.3 3.8-6.6.1 1.5.2 2.5.3 3.4.2 4.1.7 8.3.6 12.4-.2 4.9-.9 9.8-1.4 14.7-.3 2.5-.6 4.9-.7 7.4-.4 5.9-1.4 11.6-2.6 17.3-.3 1.5-.4 3.1-.5 4.6-.5 4.3-1.3 8.5-1.4 12.8-.1 3.7-1.5 6.8-3.2 9.9-1 1.5-1.7 3.1-2.8 4.7zm15-10.3c-.5 2.4-1.2 4.8-1.7 7.3-.8 4-3.8 5.4-7.4 6.2-1.5.3-3 .5-4.9.8 2.6-5.5 4.9-10.5 7.2-15.6 2.4-.3 4.6-.7 7.1-1-.1.9-.1 1.6-.3 2.3zm7-19.1l-.8 6.5c-.3 1.9-.8 3.8-1.4 5.6-.2.6-.6 1.1-1 1.5h-5.4c-.1 0-.2 0-.3-.1-.6-.1-1.3 0-2 .1h-.5c-.2-.5-1.5-1.4-2.1-1.2.3-3 .4-6 .9-8.9 1-5.9 2.1-11.8 3.2-17.7.1-.5.1-1.1.1-1.6.1-3.5.7-7 1.2-10.4.5-3 .4-6 .6-9.1.6-6.6-.1-13.1-.1-19.7 0-2.8.5-5.6.7-8.4.1-1.5 1.1-2.2 2.3-2.5 2.4-.6 4.9-1.1 7.3-1.4 2.9-.3 5.9-.3 8.9-.6 1.9-.2 3.9-.6 5.7-1.1 1.6-.4 2.8-.4 3.7.3l2.1 6.3 1.4 11.9.7 6.9c0 1.6 0 3.2.1 4.8.1 3.6.6 7.1 1.3 10.7 1.2 6.5 2.2 12.9 2.5 19.5l.8 9.8.9 12.1c.3 4.8.6 9.7 1 14.5v1.2c-2.7.2-5.2.5-7.7.7l-.7-.1c-2.8-.1-2.9-.1-3.4-3-.5-2.8-1.1-5.5-1.4-8.3-.6-6.3-.7-12.6-1.4-18.9-.6-5.5-1.6-11-2.4-16.4-.1-.5-.3-1-.5-1.6-.3-.8-.8-1.3-1.7-1.3l-7 .1c-1.4.1-2.5 1.4-2.8 2.9-.9 5.7-1.9 11.3-2.8 16.9zm8.3-6.1l-4.9.9c.3-2.8.6-5.3 1-7.8.2-1.3.9-2 2.3-2.2 1.5-.2 3-.5 4.9-.9-1.2 3.6-2.3 6.8-3.3 10zm5.6 42.8c-.4-3-.8-5.9-1.2-8.7-.4-2.5-1.2-4.9-1.4-7.3-.4-4.1-1-8.2-.7-12.3.1-2.4-.5-4.8-.7-7.2-.5-4.6.4-8.9 2.1-13.1.2-.5.6-1 1.4-1.4.3 2 .6 3.9.8 5.9.5 5.8 1.1 11.6 1.5 17.5.3 4.7.3 9.5.5 14.3.1 2.1.4 4.2.4 6.3-.1 2.1-1.1 4.1-2.7 6zm13.6 1.6c-.2.2-.6.3-.8.3h-10.7c-.3-2.8 2.5-4.1 3.3-6.6 4.3-.3 8.5-.6 13.2-.9-1.4 3.1-3 5.3-5 7.2zM286.4 517.9c.1-.8-.2-1.7-.5-2.5-1.1-2.3-3.4-2.4-5.4-2.5-4.3-.2-8.6 0-12.9.7-2.3.4-4.5.5-6.8.6-3.9.1-7.8 0-11.7 0-3.1 0-4 .9-4.6 3.8-.1.4-.2.7-.4 1.1-.7-2.6-.2-5 .1-7.4 0-.4.3-.7.5-1l1.3-2.2c.7-1.3.6-2.2-.3-3.3l-1.6-1.9c-.7-.8-1.3-1.5-2-2.2-2.6-2.7-4.6-6.1-9.2-6.6-7 7.1-12.7 15.6-20.2 23.2.1-7.6 2.2-14.4 2.2-21.6-2.5-1.2-5.2-.8-8-.1-2.4.6-4.9 1-7.4 1.1-1.8.1-2.8.3-3.4 1.6-1.5 3.2-3 6.5-4.7 9.7-1.9 3.6-3.3 7.1-2.8 11.3.2 1.8-.3 3.7-.3 5.6l.4 14.7c.1 3.3-.2 6.6.1 9.8.7 7.6.2 15.3.3 22.9 0 4.4.3 8.7.9 13 .3 2.1.5 4.3.8 6.5.2 1.5.7 3 1.1 4.4 0 .2.1.3.3.4.1.1.3.1.4 0 4.3-.5 8.5-.6 12.7-1 .7-.1 1.4-.2 1.6-.9l.2-.9c.2-1.2.9-2.2 1.7-3.2.7-1 1.4-1.9 2-2.9.6-.8 1.1-1.6 1.9-2.7l6.5 7.1c2.2 2.4 4.6 6.1 7.3 8.1 1.2.8 2.8.3 4.2-.1 3.2-.9 8.3.7 10.3-2.3.7-1 1.2-2.2 1.6-3.4l1.5-4.9c.4-1.1 1-2.4 1.9-3 1-.8 1.2-1.5.9-2.6l-.5-1.5c3.5-.3 6.7-.6 10-.9 1.3-.1 2.7-.2 4-.1l7.8.4c2.4.1 5 .4 7.4-.1 5.4-1.1 4.5-6.5 8.1-9.6.5-.5.9-1.3 1.1-2 .6-3.1.7-6.2.3-9.4-.1-1-.3-1.9-.3-2.9 0-3.8.5-4.3-2-4.6l-12.5-1.5c-2.3-.3-4.6-.7-7-1.1.5-4.1.5-4.1 4.2-4.1 3 0 5.9-.2 8.9-.4.5 0 1-.3 1.8-.5-.2-4-.4-7.9-.6-12.1-1.8-.6-3.5-1.7-5.1-1.5-2.1.2-4.1.1-6.2 0-2.3-.1-2.4-.2-2.3-2.4v-2.3c5.3-.1 10.4-.3 15.5-.4.3 0 .6.1.9.2 1.5.7 3.2.7 4.9.6 2.1 0 2.4-.4 2.1-2.5-.6-2.4-1.2-5-1-7.7zm-42.2 4.7c.1-.1.3-.1.6-.1.1.6.3 1.2.3 1.8-.2 4.6-.4 9.2-.7 13.8v2.1c.1 6.6.2 13.3.2 19.9 0 2.3-.5 4.6-.7 7-.1.8.1 1.6.6 2.4l-2.8 4.5c-1.1-.4-1.2-1.1-1.2-1.9-.1-1.9-.1-3.9-.1-5.8 0-1.6 0-3.1-.1-4.7-.2-3.8-.5-7.6-.8-11.4-.2-2.8-.6-5.6-.7-8.4-.1-1.9.1-3.9.2-5.8 0-.2.1-.5 0-.7-1-5.4 2.4-8.9 5.2-12.7zm-19.2 21.8c2.1-2.5 8.9-10.3 11.9-13.7-.2.4-.3.9-.4 1.3-.1 1 .5 2.1.5 3.2 0 8.3.9 16.5 1.4 24.7.2 2.5 0 5.1 0 7.6l-.7.2c-1.6-2.7-3.2-5.5-4.7-8.2-2.3-4.1-4.5-8.2-6.8-12.2-.9-1.4-1.3-2.1-1.2-2.9zm10.7-15.8c-3 3.6-5.9 7.3-8.8 10.9-.5.6-1 1.1-1.7 1.6 4.4-9.4 10.9-17.5 16.7-26.7.1 2.6-.1 4.7-1.1 6.7-1.4 2.7-3.1 5.1-5.1 7.5zm-42 55.4c-.2-3.4-.2-6.9-.6-10.3-.5-4.2-1.6-8.2-1-12.5.2-1.6-.1-3.3-.2-4.9l-.6-16.1.3-7-.2-6.3-.2-11.2c0-1.1.3-2.1.8-3.1 1.3-2.5 2.4-5 3.5-7.5l.6.1c.1.9.2 1.8.2 2.7 0 8.3 0 16.7-.1 25 0 4.8-.3 9.5-.2 14.3l.4 24.3c0 1.9-.3 3.9-.4 5.8-.1 1.8-.1 3.6-.4 5.3-.2 1.4-.8 2.7-1.2 4.1l-.6-.1c-.1-.8-.1-1.7-.1-2.6zm10.4 9c-.5.9-1.2 1.1-2.1 1.1-1.6 0-3.1.1-4.7 0-.9-.1-1.9-.5-3.1-.8.8-2.6 1.4-4.9 2.2-7.1.2-.7.8-1.2 1.6-1l8.1 2c.2.1.4.3.9.7-1 1.7-2 3.4-2.9 5.1zm20.8 3c-1.2-1.1-2.2-1.9-3-2.8l-4.4-4.8c-1.3-1.4-2.7-2.8-4-4.3-.5-.6-1-1.5-1-2.3-.2-6-.3-12-.4-18 0-.2.1-.4.4-1.2.7 1.1 1.1 1.7 1.5 2.3l5.5 10c2.1 3.6 4.4 7.1 6.7 10.7.4.6.7 1.2 1.2 1.7.6.8.6 1.5.2 2.4-1 2-1.7 4-2.7 6.3zm15.3.9c-.5 1-1.4 1.2-2.3 1.3-2.9.4-5.9.7-8.8 1-1.3.1-2.4-1.1-2.3-2.6.1-.6.3-1.2.5-1.8.6-1.3 1.2-2.7 2-4 .3-.5.7-1.2 1.2-1.3 3.7-.8 7.3-2.3 11.2-1.5.3.1.6.2 1 .4-.7 3-1.3 5.8-2.5 8.5zm1.3-11.1c-2.6-.3-5.1.3-7.6 1-1.1.3-2.3 0-3.5 0-2.4-3.8-4.8-7.4-7.1-11.1l-2.2-4.1c-1.5-2.4-3.1-4.7-4.6-7-1.2-1.9-2.4-3.8-3.8-5.6-.4-.6-1.1-.9-2.1-1.7-.3 1.2-.6 2-.6 2.7l-.2 11.5c-.1 3.3-.2 6.5-.4 9.8 0 .9-.3 1.8-.5 2.8-1.4.5-2.7.1-4-.1l-4.8-1c-.8-.2-1.3-.6-1.4-1.4-.2-1.3-.5-2.7-.3-3.9.6-3.8.2-7.5 0-11.2-.3-5.8-.6-11.6.1-17.5.5-4.5.3-9 .4-13.5.1-3.9.3-7.8.2-11.7-.1-4.5-.4-9-.7-13.5-.2-3.5.2-7 .5-10.6 3.4-.7 6.5-1.3 9.7-2 .4-.1.8-.1 1.2-.1 2.1-.1 2.5.3 2.3 2.4-.2 1.5-.2 3-.4 4.4-.7 4.3-1.5 8.6-2.3 12.9l-.7 5.1-.1.6v6.199999999999999h1.2l1-.7c.3.1 1.1-.4 1.2-.7.5-2.9 2.6-4.9 4.1-7.2 2.2-3.5 4.6-6.8 7-10.2 1.6-2.2 3.3-4.3 5-6.4l4.8-6.3c1-1.3 1.3-1.4 2.4-.4 2.8 2.6 5.6 5.2 7.6 8.5l.3.6-2.5 5.3-19.5 30.2.6 1.8c.1.8.5 1.6 1 2.4 3.7 5.4 6.9 11.1 9.7 17.1 1.9 4.2 4.2 8.2 6.7 12 2 3.2 3.6 6.6 4.3 10.6-.7-.2-1.4 0-2 0zm36.4-5.3c-2.2 0-4.2.1-6.3 0-4.1-.1-8.1-.5-12.1-.5-2.8 0-5.5.5-8.3.7l-4 .2c-1.8.2-2.8-.8-3.4-2.3-.4-1-.7-2.1-.9-2.8.7-1.3 1.3-2.5 2-3.6 1-1.4 2.3-2.3 4.1-2.2 4.6.4 9.2.6 13.7 1 3.2.2 6.3.6 9.5.9 2.7.3 5.4.6 8.2.9-.1 2.9-2.3 4.9-2.5 7.7zm4.2-61.6c0 1.3-.1 2.7-.3 4-.3 1.6-1.2 2.6-2.8 2.6-3.7 0-7.5.6-11.2-.5-2.6-.8-5.1.1-7.6.7-1.2.3-1.2 1.7-1.2 2.8.1 1.3.3 2.7.8 3.8.4.8 1.5 1.5 2.3 1.6 2.8.5 5.7.7 8.6 1h1.2c2.6.2 3.2.7 3.6 3.3.2 1.2.2 2.5.2 3.7 0 2-.8 3-2.6 2.7-3.9-.6-7.6.5-11.4.7-2.3.1-2.7.7-2.3 3 .2 1.1.4 2.1.7 3.2.3 1.3 1.1 1.9 2.4 2l9 .9 6.5.6c.9.1 1.8.4 2.9.6.2 4.9 1.8 9.6-.3 14.6l-9.5-.6c-1.6-.1-3.2.1-4.7-.2-3.6-.8-7.4-.7-11-1.8-1.1-.4-2.5 0-3.7 0-1.2 0-2.7.3-3.7-.2l-.3-.2v-41.7c.1-1.6.2-3.3.2-4.9 0-1.2-.1-2.5-.2-4.2 2 0 3.6.1 5.3 0 3.4-.2 6.8-.3 10.2-.6 3-.3 6-1 9-1 2.6 0 5.3.5 7.8 1.1 1.9.5 2.2 1.1 2.1 3zM207 496.1s.9-10 0-16.9l2.6-4.5s.9 20 0 21.4c-.9 1.5-2.6 0-2.6 0zM295.2 496.8l-.3-28.2h-2.2l.9 23.7-.4 5.8-.1 10.1 1.5-3.5zM125.7 497.3c.2-.6 0-16.6 0-16.6h-.9s-1.2.5-1.2 1.1c0 .6.4 4.9.4 5.4s-.1 10.1-.1 10.1h1.8zM55.6 366.4c.1-7.4 0-358.4 0-358.4h-.9s-1.2 163.3-1.2 170.7c0 7.4.4 59.2.4 65.6 0 6.5-.1 122-.1 122h1.8zM337.1 381.2c.2-7.6 0-381.2 0-381.2h-.9s-1.2 179.7-1.2 187.3c0 7.6.4 61.1.4 67.8l-.1 126.1h1.8zM167.8 495.2v-9.6l1.8-.7v10.9h-1.8"/><path d="M269.9 514v-6.6c0-.3.3-11.4 0-23.1 0 0-.2-17.3 0-18.9l1.9.8s-.3 13.1 0 18.1c.3 5 .2 19.7-.6 29.6h-1.3z"/></g></svg>