<?xml version="1.0" encoding="utf-8"?>
<!-- Generator: Adobe Illustrator 18.1.0, SVG Export Plug-In . SVG Version: 6.00 Build 0)  -->
<svg version="1.1" xmlns="http://www.w3.org/2000/svg" xmlns:xlink="http://www.w3.org/1999/xlink" x="0px" y="0px"
	 viewBox="0 0 366.5 608" enable-background="new 0 0 366.5 608" xml:space="preserve">
<g id="Layer_1">
	<g>
		<path d="M173.7,379.3c1.7,0.7,3.3,1.6,4.8,2.6c2,1.3,1.9,1.3,4,0.2c2.8-1.5,5.5-3.1,8.9-2.5c0.7,0.1,1.5-0.3,2.6-0.6
			c-0.9-7.8-1-15.5-0.9-23.4c2.4-0.5,4.6-1.1,6.9-1.3c1.8-0.2,2.3,0.5,2.2,2.4c-0.1,4-0.1,8-0.2,12c0,1.4,0.3,2.8,0,4.1
			c-0.2,1.1,0,1.6,0.8,2c2.2,1,3.7,2.8,5.1,4.6c0.4,0.6,1.1,1,1.8,1.4c0.8,0.5,1.5,0.5,2.2-0.2c0.5-0.5,1.2-0.9,1.9-0.9
			c1.6-0.1,3.2,0,4.7,0.1c1.7,0,3.4,0,5.3,0c0.3-2.7,0.4-5,0.8-7.4c0.8-4.9,1.4-9.7,1.3-14.6c0-1.5,0.2-3,0.2-4.5
			c0.1-5.7,0.1-11.3,0.2-17c0-3.9,0-7.8-0.1-11.7c0-2.4-0.1-4.8-0.3-7.2c0-0.3-0.6-0.6-1-0.9c-0.5,3.2-0.5,6.1-0.5,9
			c0,3.8,0.2,7.7,0.2,11.5c0,5.1,0.1,10.1-0.1,15.2c-0.3,5.5-0.9,10.9-1.3,16.4c-0.1,1.5-0.3,3.1-1.2,4.4c-2.1-1.7-4.1-3.3-6.1-4.9
			c-0.3-18.5-0.5-37.1,1.7-56c2.6,0.5,3.8,3.8,7.1,2.6c-0.5-0.7-0.9-1.4-1.5-1.9c-1.2-0.9-2.4-1.7-3.6-2.6c-1.3-1-3-1.6-3.2-3.5
			c0-0.3-0.6-0.6-0.8-0.9c-0.4-0.5-0.9-1.1-0.9-1.7c-0.2-3.2-0.3-6.5-0.5-9.7c-0.1-2.1-0.1-4.1-0.1-6.2c0-3.6,0.1-7.1,0.2-10.7
			c0-0.9,0.1-1.8,0.1-2.7c-0.1-4.1-0.2-8.3-0.2-12.4c0-1.6,0.2-3.2,0.2-4.7c-0.1-2.9-0.3-5.8-0.3-8.7c0-3.7,0.2-7.5,0.3-11.2
			c0-0.4-0.1-0.8-0.1-1.2c-0.5-7.1-1.3-14.2-0.1-21.4c0.2-1.5,0.6-3,0.5-4.4c-0.2-4.5-0.6-8.9-0.9-13.4c-0.2-2.6-0.8-5.2-0.5-7.7
			c0.4-2.8,0.1-5.6,0.2-8.5c0-1.5-0.4-176.9-0.8-178.3c-0.1-0.5-0.6-1-1.2-2c-0.1,0.9-0.2,1.2-0.2,1.5c0,10.8,1.5,303.1,0.8,303.1
			c-1.2,0-2,0.1-2.9,0.1c-1.9-0.1-3.8-0.3-5.7-0.3c-2,0-2.4,0.4-2.5,2.3c-0.3,6-0.6,12-0.9,17.9c-0.1,2.2-0.2,4.3-0.3,6.5
			c-0.1,1.3-0.8,2.1-2.3,1.9c-0.5-5.2-1-10.3-1.3-15.4c-0.1-2.3,0-4.7,0.3-7c0.1-1.2-0.4-1.8-1.2-2.2c-2.8-1.3-4.9-3.4-7-5.6
			c-1.1-1.2-2.3-1.5-3.8-1.3c-1,0.1-2.1,0-3.1,0c-0.1-0.6-0.2-0.8-0.2-1.1c-0.1-4.4,0-8.8-0.7-13.2c-0.4-2.3-0.4-4.7,0-6.9
			c3-15.2-0.3-33.3-0.8-48.7c-0.6-18-1.1-36.1-1.7-54.1c0-1.3-0.2-176.2-1.1-177.1c-2.6,2.2-0.3,185.8-0.2,189.4
			c0.3,10.3,0.4,20.6,0.6,31c0.1,7.1,0.1,14.1,0.4,21.2c0.3,6.5,1.2,13.1,0.7,19.6c-0.5,6.5,0.4,12.9,0,19.4
			c-0.4,6,0.1,12.1,0.3,18.2c0.1,2.3,0.1,2.3-2.4,2.8c-1.2,0.2-2.5,0.4-3.3,1.7c0.5,0.3,0.9,0.7,1.3,0.7c1.2,0,2.5-0.1,3.7-0.2
			c2.4-0.1,4.8-0.2,7.4-0.4c0.1,1,0.3,1.8,0.3,2.6c-0.1,9-0.1,18-0.2,26.9c0,2.4,0.1,2.7,2.6,2.5c1.9-0.1,3.8-0.4,5.7-0.5
			c2.4-0.1,4.8-0.2,7.2-0.3c0.3-1.2,0.6-2,0.7-2.9c0.1-1.8,0.2-3.7,0.1-5.5c-0.2-3.8-0.1-7.7,0.4-11.5c0.3-2.1,0.3-4.3,0.4-6.5
			c0.1-1.5,0.9-2.3,2.4-2.3c2.4,0.1,4.8,0.2,7.2,0.5c2.1,0.3,2.5,0.9,2.8,3.1c0.4,2.8,0.1,5.6-0.1,8.5c-0.4,5-0.6,10-1,14.9
			c-0.1,1.2-0.2,2.5-0.2,3.7c0,9,0,18.1,0,27.1c0,1-0.3,2-0.7,2.9c-0.2,0.5-0.7,1.1-1.2,1.2c-2,0.4-4.1,0.7-6.1,1
			c-1.2,0.2-1.8-0.6-1.8-1.6c-0.1-3.6-0.4-7.2,0-10.7c0.3-2.7,0.3-5.5,0.4-8.2c0-1-0.1-2.1-0.5-2.9c-0.3-0.6-1.2-1.4-1.8-1.4
			c-2.3,0-4.6,0.3-6.9,0.6c-2.9,0.4-5.7,0.9-8.6,1.3c-1.7,0.2-2,0.4-2.1,2.1c0,1.8,0.1,3.7,0.1,5.5c0.1,3.3,0.2,6.6,0.1,10
			c0,1.9-0.4,3.8-0.7,5.7c-0.1,1-0.7,1.4-1.6,1.6c-2.3,0.5-4.5,1.1-6.8,1.7c-1.8,0.4-2.4,0.1-2.4-1.7c0.1-5.9,0.3-11.8,0.5-17.7
			c0.1-3.5,0.4-7,0.6-10.4c0.2-4.9,0.3-9.8,0.5-14.7c0.3-6.5,0.6-13,0.8-19.4c0-1-0.3-2-0.7-2.9c-0.2-0.4-0.9-0.5-1.3-0.8
			c-0.2,0.4-0.5,0.9-0.4,1.3c0.1,1.1,0.5,2.3,0.4,3.4c-0.1,5.3-0.2,10.6-0.4,16c-0.3,6.1-0.7,12.3-1,18.4c-0.1,2,0,4-0.1,6
			c-0.4,8.1-0.9,16.1-1.3,24.2C171,378,171.3,378.3,173.7,379.3z M192.3,334.1c-1.2,0-2.5,0-3.7,0c-0.9-3.3-0.9-23.1,0.1-26.8
			c1.6,1.2,3.1,2.2,4.5,3.3c0.3,0.2,0.3,0.8,0.3,1.1c0.4,6.6,0.8,13.3,1.2,19.9C194.8,333.8,194.4,334.1,192.3,334.1z M206.4,372.6
			c2.9,0,5.6-0.8,8.2-1.7c1.2-0.4,2.2-0.2,3,0.5c1.6,1.5,3.1,3.2,4.6,4.9c0.2,0.2,0.2,0.8,0.3,1.3c-2.6,0-5.1,0-7.5,0
			c-1.2,0-2.5-0.1-3.7,0c-1.4,0.2-2.6,0.1-3.4-1.2c-0.7-1.1-1.7-2-2.8-3.2C205.6,372.9,206,372.6,206.4,372.6z M199.5,348.1
			c1-0.1,1.8,0.1,2.2,1.2c0.6,1.5,0.2,2.4-1.4,2.6c-2.1,0.3-4.2,0.6-6.3,1c-0.9,0.2-1.4-0.2-1.9-0.8c-0.6-0.8-1.2-1.6-2.2-2.9
			C193.3,348.9,196.4,348.5,199.5,348.1z M187.1,360.5c-0.3-2.6-0.2-5.3-0.2-7.9c0-0.4,0.3-0.9,0.5-1.4c2.4,1.2,3.6,3.1,3.7,5.6
			c0.2,5,0.4,9.9,0.6,14.9c0.1,1.5,0,2.9,0,4.4c-2.1,0.5-2.8-1-3.7-1.9c-0.8-0.7-1.3-1.6-1-2.9C187.8,367.7,187.4,364.1,187.1,360.5
			z M177.2,375.8c2.1-0.5,4.3-0.9,6.5-1.4c2-0.4,2.7,1.1,4.1,2.4c-2.8,1.2-5.2,2.3-7.7,3.3c-1.6-1.1-3-2.1-4.8-3.3
			C176.1,376.4,176.6,376,177.2,375.8z"/>
		<path d="M108.8,186.9c1.8,39.2,1.9,88.6,1.8,127.8c0,0.7,0.1,1.5-0.2,1.9c-1.3,1.3-0.9,2.9-0.9,4.5c0,3.3,0.2,6.6,0.1,9.9
			c0,1.4,0.3,2.4,1.5,3.1c2.7,1.5,5.4,3.2,8.1,4.7c0.4,0.2,1,0.3,1.4,0.2c1.9-0.5,3.8-1.1,5.7-1.6c0.9-0.3,1.9-0.6,3-0.9
			c0.3,0.7,0.7,1.3,0.8,1.9c0.4,5,0.8,10,1.1,15c0.2,4.3,0.4,8.7,0.5,13.1c0.1,2.8,0.8,5.7-0.6,8.5c0.6,0.2,1,0.6,1.5,0.6
			c1.8,0,3.2,1,4.5,1.9c1.3,0.9,2.5,1.9,3.6,3c1,0.9,2,1.1,3.2,0.5c0.9-0.4,1.8-0.9,2.8-1.1c1.8-0.5,3.7-0.8,5.6-1.2
			c1-0.2,1.8-0.4,1.6-1.9c-0.7-0.1-1.5-0.4-2.2-0.4c-2.3,0-4.4,0.5-6.5,1.5c-1,0.5-2.5,0.8-3.3,0.4c-1.7-0.8-3.2-2.2-4.8-3.4
			c1.2-1.7,2.6-2.3,4.2-2.6c3-0.6,6-0.8,8.7,1.3c1,0.8,2.2,1.5,3.4,2c0.5,0.2,1.3,0.2,1.8,0c0.4-0.2,0.7-0.9,0.7-1.4
			c-0.2-1.9-0.5-3.7-0.7-5.5c-1.3-0.3-2.1-0.2-2.1,1.1c0,0.8-0.1,1.5-0.1,2.5c-2.4-0.5-3.7-2-5.2-3.3c-0.2-0.1-0.3-0.4-0.3-0.7
			c-0.5-4.6-1.3-9.1-1.4-13.7c-0.2-7.5-0.1-15.1,0.1-22.7c0-1.6-0.2-3.5,1.1-5.1c0.6,0.2,1.3,0.4,1.8,0.7c4.9,3.1,4.4,2.5,3.9,7.8
			c-0.2,2-0.5,3.9-0.5,5.9c0,7.3,0.2,14.6,0.3,22c0,0.7,0.1,1.4,0.2,2.1c0.7,0,1.2,0,1.8,0c0.1-3.7,0.2-7.2,0.4-10.7
			c0.1-2.5,0.4-5.1,0.2-7.6c-0.4-4.5-0.4-9,0.5-13.5c0.3-1.6,0.8-2.6,2.3-3.2c2.7-1.1,5.1-2.7,8-3.2c1.4-0.2,2.2-1.5,1.9-2.7
			c-1.3-4.8-1.7-9.7-1.9-14.6c-0.1-1.2-0.6-2.1-2-2.4c-2.8-0.6-5.5-1.4-8.7-2.2c-0.2-1.7-0.5-3.6-0.6-5.5c-0.1-3.9,0-7.9-0.1-11.8
			c-0.1-3.8-0.1-7.5,0.3-11.3c0.2-2.4,0-4.9,0-7.4c0-3.7,0.1-7.4,0.1-11.1c0-1.3,0.1-2.6,0.1-3.9c-0.1-6-0.3-12-0.5-18
			c-0.1-1.6-0.2-3.3-0.4-4.9c-0.1-1.6-0.3-3.3-0.3-4.9c-0.1-3.7-0.2-7.4-0.2-11.1c-0.1-4.3-0.2-8.6,0-12.8c0.1-3.2-0.1-6.4-0.7-9.5
			c-0.7-3.8-1.4-7.7-0.1-11.7c0.7-2,0.5-178.8-1-180c-0.6,0.3-1,0.9-1,1.7c0.9,37.8,1.2,249.6,1.8,287.3c0.1,4.5-0.6,9.1,0.4,13.6
			c0.3,1.5-0.2,1.8-1.5,2.3c-3.4,1.3-6.8,2.6-10.2,3.9c-1.1,0.4-2.2,0.9-3.3,1.1c-2.9,0.6-5.9,1-8.8,1.5c-3,0.5-5.8,1.1-8.6,2.3
			c-2.2,0.9-4.5,1.3-7.2,1.2c0-3.1,0-6.1,0-9c0-2.5-0.1-4.9-0.2-7.4c-0.8-20.5,1.7-51.2,0.6-71.7c-0.6-10.3-1.1-20.5-1.6-30.8
			c-0.5-10.2,0.3-185.7-1.3-195.7C106.5,4.1,108.6,182.4,108.8,186.9z M129.5,332.5c0,0.5-0.1,1-0.1,1.9c-1.6-0.8-2.8-0.4-4.2,0.1
			c-2.2,0.8-4.6,1.5-7,0.7c-0.8-0.3-1.8-0.4-2-1.7c2-0.7,4.1-1.5,6.1-2.2c1.7-0.5,3.5-0.9,5.2-1.4c1.3-0.3,1.8,0,2,1.4
			C129.6,331.7,129.5,332.1,129.5,332.5z M156.2,328c-0.5,0.1-1,0.3-1.4,0.1c-1.7-0.5-3.1-1.7-4.5-3.2c0.9-0.5,1.6-1,2.4-1.2
			c1.9-0.6,3.8-1.1,5.8-1.4c1.9-0.3,3.3,0.6,4.5,2.2C160.6,326,158.7,327.5,156.2,328z M158.1,309.2c0.2-1.1,0.8-1.5,1.7-1.1
			c0.9,0.4,1.9,0.8,2.7,1.3c0.5,0.3,1,1,1,1.5c0.5,3.4,0.8,6.8,1.2,10.2c0,0.1-0.1,0.3-0.3,0.7c-1.6-0.8-3.1-1.4-4.4-2.3
			c-0.7-0.5-1.1-1.7-1.2-2.6c-0.3-2-0.5-4.1-0.7-6.1C158,310.3,158,309.7,158.1,309.2z M111.9,322.3c0-2.7,0.5-3.4,3-4
			c2.4-0.6,4.7-1.4,7.1-1.9c4.6-1,9.3-1.8,13.9-2.6c2.5-0.5,5-1.1,7.3-2.3c2.6-1.3,5.3-2.3,8.1-3.1c1.2-0.3,2.6,0.2,3.9,0.4
			c0.9,3.7,0.9,7.3,0.2,11.1c-3.2,0.4-6,2.8-9.6,2.4c-1.7-0.2-2.6,0.9-2.4,2.6c0.7,4.6,0.1,9.1,0.1,13.7c0,4.1,0,8.2-0.1,12.3
			c-0.1,3.8,0.2,7.5,0.8,11.3c0.4,2.2-0.2,4.5-0.4,6.6c-3.1,1-6.1,1.9-9.2,2.9c-1.2-1.9-1.1-4.2-1.4-6.3c-0.6-5-0.6-10-0.6-15
			c0-3.7-0.5-7.4-0.7-11c-0.2-2.9-0.2-5.7-0.2-8.6c0-0.9,0.5-1.9,0.9-2.7c0.5-1.2,0.3-1.7-0.9-2.2c-1.1-0.4-2.3-0.5-3,0.2
			c-1.5,1.5-3.3,1.7-5.1,2c-1.6,0.3-3.2,0.9-4.7,1.5c-2.1,0.7-4.1,1.7-6.9,1.6c-0.2-1.8-0.3-3.2-0.4-4.7
			C111.8,325.1,111.9,323.7,111.9,322.3z"/>
		<path d="M233.3,321.8c0.4,3.4,0.5,6.8,0.8,10.2c0.3,3.5,0.7,6.9,0.8,10.4c0.2,4.2,0.1,8.5,0.4,12.7c0.5,6.3,0.7,12.6-0.1,18.9
			c-0.1,1.2,0.1,2,1.3,2.3c2.9,0.8,5.3,2.7,7.9,4.1c1.9,1.1,3.7,2.7,6.2,1.4c0.1-0.1,0.3,0,0.5,0c4.3,0,8.4-0.5,12.6-1.4
			c2.3-0.5,4.6-0.7,6.9-0.1c0.9,0.2,1.8,0.2,2.7,0.1c2.3-0.3,4.6-0.7,6.9-1.1c1.2-2.5,2.3-4.9,2.4-7.7c0.1-2.7,0-5.3,0.3-8.1
			c-1-0.4-1.4-0.8-2.1-1.2c-2.6-1.9-4.7-4.5-7.6-5.9c-0.2-0.1-0.3-0.4-0.4-0.6c-0.4-1.6-1.6-1.7-3-1.7c-1.2,0-2.3,0-3.5,0.1
			c-1.2,0-2.3,0-3.5,0c1.3-0.9,2.6-1.2,3.9-1.7c1.4-0.5,1.7-1,1.4-2.6c-0.1-0.5-0.1-1,0-1.4c0.8-1.9-0.5-6.9,0-8.3
			c-4.2-3.6-4.8-4.4-8.9-7.9c0.2-0.2,0.5-0.5,0.8-0.6c2.4-0.8,4.7-1.5,7.1-2.3c2.8-0.9,5.7-1.9,8.5-2.8c2.4-0.8,2.8-1.7,1.4-3.9
			c-0.8-1.2-1.8-2.2-2.9-3.1c-0.8-0.7-1.3-1.5-1.4-2.5c-0.3-2.4-0.6-4.8-1-7.2c-0.2-1.3-0.5-2.5-0.8-3.8c0.5,0,0.7-0.1,0.8,0
			c2,1.8,4,3.5,5.9,5.4c0.4,0.4,0.3,1.2,0.3,1.9c0,2.9-0.1,5.8,0,8.7c0,0.4,0.3,0.9,0.5,1.3c0.2,0,0.4-0.1,0.6-0.1
			c0.9-4.6,1.1-9.2,0.6-13.8c-2.7-0.8-4.4-2.2-4.5-4.9c-0.1-2.9-0.3-5.8-0.4-8.7c-0.1-1.1-0.3-2.2-0.2-3.2
			c2.1-18.3,1.7-37.2,2.4-55.6c0.8-19.8,1.7-39.6,2.5-59.3c0.1-1.5-0.1-177.2-1.4-177.8c-1.6,10.6-1.4,195.6-1.8,206.3
			c-0.2,5.7,0,11.5-0.3,17.2c-0.3,5.7-0.9,11.4-1.3,17.2c-0.3,5.4,0.3,10.8-0.2,16.2c-0.5,5.2,0,10.4-0.9,15.7
			c-0.4,2.4-0.6,5-0.4,7.5c0.3,3.1,0,6.1-0.2,9.2c-0.2,2.3-0.2,4.6-0.3,7c0,1.4,0.1,2.8,0,4.2c0,0.7-0.2,1.4-0.4,2.5
			c-1-0.9-1.6-1.5-2.3-1.9c-0.8-0.4-1.8-1-2.7-0.9c-2.5,0.3-4.9,0.8-7.3,1.3c-3.6,0.8-7.1,1.8-10.6,2.6c-2.2,0.5-4.4,0.6-6.8,1
			c-0.4-1.5-1.1-2.8-1.2-4.2c-1.7-19.9,0.3-40.4,0.8-60.4c0-11,0.5-22.1,0.8-33.2c0.1-5.3,3.5-203.5-0.8-205.9
			c-1.4,1.7-0.9,177.9-1,180.1c-0.4,7.7,0.5,15.4,0.1,23.2c-0.4,7.7-0.1,15.5-0.2,23.2c0,3.2-0.3,6.3-0.3,9.5
			c-0.1,5.3-0.3,10.6-0.2,16c0.2,7.2,0,14.3-0.6,21.4c-0.3,4.1-0.8,8.3-0.8,12.4c0,4.9,0.3,9.8,0.5,14.7c0,0.8,0.1,1.7,0.1,2.5
			c0,0.4-0.4,1.2-0.6,1.2c-2.1,0.2-3.6,2.5-6,1.6c-0.3-0.1-0.8,0.2-1.1,0.4c-0.9,0.8-0.8,1.8-0.6,3C232,314.3,232.8,318,233.3,321.8
			z M275.1,360.1c0.6,0.4,1.1,1.1,1.7,1.5c5.2,3.1,4.1,7.9,3.4,12.6c-0.1,0.6-0.6,1.2-1,1.5c-0.2,0.1-0.9-0.5-1.3-0.8
			c-1.2-1.1-2.4-2.2-3.3-3c-0.5-4.4-0.9-8.1-1.3-12.2C274.1,359.8,274.6,359.8,275.1,360.1z M276.5,377.1c-2.1,1-4.3,1.3-6.7,1.1
			c-1.7-0.1-3.5-0.2-5.2,0.1c-4.7,1.1-9.5,1.2-14.3,1.4c-2.8,0.1-4.6-1.2-7.1-2.9c1-0.3,1.3-0.5,1.7-0.5c4.5-0.7,9-1.5,13.5-2.1
			c1.9-0.3,3.8-0.3,5.7-0.5c1.7-0.2,3.4-0.6,5.1-0.8C273,372.3,274.6,373.2,276.5,377.1z M263.7,338.9c1.2,1,0.7,0.8,1.8,1.9
			c0.2,0.2,0.4,0.8,0.3,1.1c-0.6,1.7,1,4.9-0.5,6.3c-1.2-0.8-1.6-1.5-1.6-2.8c0-1.3-0.6-2.5-0.9-3.8c-0.2-0.6-0.4-1.3-0.4-1.9
			C262.2,338.8,263,338.3,263.7,338.9z M263.5,350.8c-1.3,0.5-2.6,1-3.8,1.6c-1.7,0.8-3.2,1.9-5,2.7c-1,0.4-2.1,0.5-3.3,0.7
			c-0.3-1.8-0.6-3.2-0.9-4.7c-0.1-0.8,0.1-1.5,0.9-1.8c2.8-0.9,5.4-2.5,8.6-1.7C262.1,348,262.6,348.2,263.5,350.8z M272.1,320.7
			c0.8,1,1.7,2,2.8,3.2c-1,0.5-1.6,1-2.4,1.2c-5.6,2-11.2,4-16.9,6c-1.3,0.5-2.7,1-4,1.3c-2.2,0.5-2.8,0-3.2-2.2
			c-0.2-1.1-0.4-2.1-0.6-3.2c-0.3-1.8,0.1-2.4,1.9-2.7c4.1-0.8,8.1-1.5,12.2-2.4c2.3-0.5,4.7-1.2,6.9-2
			C270.1,319.5,271.2,319.6,272.1,320.7z M236.3,309c3.3-1,6.7-1.8,10.1-2.5c3.9-0.9,7.8-1.6,11.7-2.4c2.8-0.5,5.6-1,8.3-1.5
			c1-0.2,1.6,0.3,1.8,1.2c0.7,3.2,1.4,6.3,1.9,9.5c0.4,2.5-0.5,3.8-2.9,4.5c-3.2,1-6.4,1.7-9.6,2.6c-2.8,0.8-5.6,1.2-8.6,1.2
			c-2.9,0-4,1.7-3.5,4.7c0.4,2.1,0.7,4.3,0.9,6.4c0.2,1.9,0.5,2.2,2.5,2.2c2-0.1,4-0.2,6-0.3c0.7,0,1.3,0,2,0.1
			c1.3,0.2,2,0.8,2.2,2.2c0.2,1.6,0.7,3.2,1.1,4.8c0.4,1.4-0.1,2.3-1.5,2.6c-0.7,0.2-1.4,0.5-2.1,0.6c-2.9,0.5-5.8,1.2-8.7,2.8
			c0.1,0.9,0.1,1.9,0.2,2.9c0.1,1.4,0.3,2.8,0.3,4.2c0,1.8,0,1.7,1.8,2.3c1.8,0.6,3.6,0.4,5.4,0.1c4.7-0.8,9.4-1.1,14.3-0.5
			c1.5,3.7,1.5,7.7,1.7,11.5c-3,3.1-6.5,3.3-10.2,3c-0.2,0-0.5-0.1-0.7,0c-3.1,1.3-6.4,0.9-9.5,1.6c-3.5,0.8-7.1,0.9-10.6,1.4
			c-1,0.1-2.1-0.1-2.9-0.2c-0.3-8-0.6-15.6-0.9-23.1c-0.2-4.1-0.3-8.1-0.6-12.2c-0.3-4-0.8-7.9-1.2-11.9c-0.2-1.7-0.2-3.5-0.4-5.2
			c-0.3-2.9-0.6-5.8-0.9-8.7C233.5,310.4,233.8,309.7,236.3,309z"/>
	</g>
	<g>
		<path d="M128.1,486.7c-0.6-0.2-1.2-0.4-1.8-0.6c-4-1.4-7.7-3.5-10.5-6.6c-9.9-11.1-5.8-26.7-6.2-40c0-0.9,0.5-6.3,1.6-16
			c1.1-9.4,1.7-16.8,1.9-22.1c0.3-8.5,0-15.3-1-20.4c-1-5.3-2.6-8.6-4.7-9.8c-1-0.6-1.9-0.6-2.7-0.3c-1.4,0.6-3,1.8-4.7,3.7
			c-3.7,4.3-7.3,10.9-10.7,19.9c-3.1,8.1-5.4,16.2-7.1,24.4l-0.3,2.5c0,3.6,0,6.3,0,7.9c-0.1,0.4-0.1,1,0,1.9c0,0.9,0.1,1.5,0.1,1.7
			c0.1,1,0,1.8-0.1,2.4c-0.1,0.5-0.3,1-0.6,1.4c-1.2,2.4-3.3,3.2-6,2.5c-0.7-0.1-1.2-0.4-1.7-0.7c-0.5-0.3-0.8-0.7-1-1l-0.3-0.5
			c-0.2-0.3-0.3-0.7-0.4-1c-0.8-1.9-1.2-4.6-1-8.1c0.1-2.1,0.4-4.5,0.9-7.2c-0.1-1.9-0.1-3.2-0.1-4c0.1-10.1-0.2-18.2-0.7-24.4
			c-0.4-5.3-1-9.7-1.8-13.1c-0.9-3.5-1.8-5.7-2.8-6.6c-2.1-1.9-4-2.7-5.7-2.3c-1.8,0.5-3.8,2.2-6,5.1c-1.9,2.5-3.5,5.4-4.8,8.7
			c-1.3,3.3-2.2,6.2-2.5,8.5c0.2,1,0.3,2.2,0.4,3.4c0.6,8,0.4,17.8-0.5,29.4c-1.3,16.2-4.8,58.1-8.6,77c-0.2,1.2-0.8,2.2-2,2.9
			c-1.1,0.8-2.4,1-3.8,0.8c-1.4-0.2-2.5-0.8-3.3-1.9c-0.8-1-1.1-2.2-0.8-3.6c3.7-18.5,7.1-59.9,8.3-75.9c0.9-11.2,1-20.6,0.5-28.2
			c-0.1-0.3-0.1-0.8,0-1.2c-0.3-0.5-0.5-1.2-0.3-1.9c-0.1-0.3-0.1-0.7,0-1.1c-0.9-6.5-2.3-11.4-4.2-14.6c-0.1-0.1-0.2-0.2-0.2-0.3
			l-0.2,0.2c-2.3,2.2-4.9,6.5-7.7,12.9c-2.5,5.6-4.6,11.5-6.5,17.5c-1.9,6.2-2.9,10.3-3.1,12.1c0,1.3-0.6,2.4-1.6,3.2
			c-1.1,0.9-2.3,1.3-3.7,1.2c-1.4-0.1-2.6-0.6-3.5-1.6c-0.9-1-1.3-2.1-1.2-3.4c0.1-2.4,1.2-6.9,3.2-13.6c2-6.6,4.4-12.9,7.1-18.8
			c3.3-7.5,6.5-12.8,9.7-15.9c2.6-2.5,5.4-3.7,8.3-3.6c3.3,0.2,6,1.9,8.1,5.2c0.5,0.7,1,1.5,1.3,2.3c1.1-1.9,2.2-3.7,3.3-5.2
			c3.5-4.7,7.3-7.7,11.4-8.8c5.6-1.6,10.8-0.1,15.8,4.4c2.3,2.2,4.1,5.9,5.5,11.1c0.8,3.3,1.4,7.2,1.8,11.8
			c3.6-8.7,7.4-15.5,11.4-20.2c2.9-3.2,5.9-5.5,9-6.6c3.9-1.4,7.7-1.1,11.4,0.9c4.9,2.6,8.1,8.1,9.6,16.2c1.1,5.9,1.5,13.4,1.2,22.5
			c-0.2,6.1-0.8,13.6-1.9,22.6c0,0-1.9,15.7-1.9,15.7c-0.6,9.8-2.1,21,2.2,30.2c1,2,2.3,4,4.1,5.4c0,0,7.9,8.6,41.3,5.5
			c36.3-3.3,71.5-28,134.7-15c2.4,0.5,4,2.9,3.1,5.2l0,0c-0.6,1.6-2.2,2.5-3.8,2c-10-2.6-45.7-9.8-91.6,5
			C157.1,495.3,128.1,486.7,128.1,486.7z"/>
		<path d="M146.9,448.4c0.9,3.3,2.3,5.8,4.2,7.6c3.8,3.7,9.4,4.2,16.6,1.5c5.9-2.3,10.1-6.8,12.6-13.3c0.9-2.4,1.6-4.8,2.2-7.3
			c0.6-2.5,1.2-5.4,1.8-8.6c0.6-3.2,1.1-6,1.6-8.3c0.3-1.2,1-2.2,2.2-2.9c1.1-0.7,2.4-0.9,3.8-0.7c1.4,0.3,2.4,0.9,3.2,2
			c0.8,1.1,1,2.2,0.7,3.6l-1.4,7.6c-0.7,3.4-1.4,6.5-2,9.4c-0.6,2.9-1.4,5.7-2.4,8.3c-3.4,9.2-9.5,15.4-18.5,18.8
			c-11.5,4.5-20.8,3.2-27.7-3.7c-5.5-5.4-8.3-13.1-8.4-23.3c-0.2-9.4,1.7-17.7,5.9-24.8c2.3-3.9,5.1-6.9,8.5-9.1
			c3.4-2.2,7.3-3,11.8-2.4c7.4,1.2,11.9,5.3,13.5,12.3c1.3,5.4,0.5,11.2-2.5,17.4c-3.1,6.4-7.5,11-13.3,13.8
			C155.4,448.2,151.2,448.9,146.9,448.4z M145.4,438.4c3.2,1.1,6.3,1,9.3-0.4c3.6-1.8,6.5-5,8.7-9.4c2.1-4.3,2.7-8.1,1.8-11.5
			c-0.6-2.9-2.4-4.6-5.4-5c-3.5-0.6-6.7,1.6-9.5,6.5C147,424.2,145.4,430.8,145.4,438.4z"/>
		<path d="M193.7,396.5c5.4,0.3,10.6,0.3,15.8-0.1l0.2,0c0.2-0.2,0.8-0.3,1.6-0.4c2.9-0.8,5.3-0.3,7.1,1.4c0.9,0.8,1.5,1.9,1.7,3.2
			c0.1,0.6,0.2,1.3,0.2,2.3c0.1,1,0,2.6-0.1,4.8l-0.8,6.6c-0.4,3.1-0.6,5.4-0.7,7c-0.5,5.8-0.7,10.6-0.6,14.3c0,4.6,0.6,7.8,1.6,9.6
			c0.7,1.4,1.8,2.5,3,3.2c1.3,0.7,2.6,1,3.9,0.6c4.4-0.9,7.9-5.6,10.5-14.1c2.1-6.5,3.3-13.9,3.8-22.2c-0.1-1.3,0.4-2.4,1.4-3.3
			c1-0.9,2.2-1.3,3.5-1.2c1.3,0.1,2.4,0.6,3.4,1.6c1,1,1.4,2,1.2,3.2c-0.5,9.1-1.8,17.2-4,24.5c-3.7,12-9.7,18.9-18,20.7
			c-3.8,0.8-7.3,0.3-10.6-1.6c-3.2-1.9-5.7-4.3-7.2-7.3c-1.6-3-2.4-7.4-2.6-13.4c-0.2-4.1,0-9.2,0.6-15.4c0.2-1.6,0.5-3.9,0.7-7
			l0.6-6.4l0.1-1.4c-4.1,0.4-8.2,0.5-12.1,0.5l-0.1,3.9c-0.1,1.5-0.2,2.7-0.4,3.4c0,0.5-0.1,1-0.3,1.6l-0.7,3.6
			c-0.4,1.6-0.8,3.2-1.3,4.9c-0.3,1.3-1,2.3-2.1,3c-1.1,0.7-2.3,0.9-3.6,0.6c-1.3-0.3-2.3-0.9-3.1-2c-0.8-1.1-1-2.2-0.7-3.4
			c0.3-1.8,0.6-3.5,1-5c0.3-1.5,0.5-2.5,0.7-3.1c0.2-0.6,0.3-1.1,0.3-1.5c0-0.5,0.1-1.4,0.1-2.6l0.4-6.4c0-0.2,0-0.5,0.1-0.7
			c-0.1-0.6-0.1-1.1-0.1-1.6c0-1.3,0.5-2.4,1.5-3.2C191,396.7,192.2,396.3,193.7,396.5z"/>
		<path d="M248.6,388c5.4,0.3,10.6,0.3,15.8-0.1l0.2,0c0.2-0.1,0.8-0.3,1.6-0.4c2.9-0.8,5.3-0.3,7.1,1.4c0.9,0.8,1.5,1.9,1.7,3.2
			c0.1,0.6,0.2,1.3,0.2,2.3c0.1,1,0,2.6-0.1,4.8l-0.8,6.6c-0.4,3.1-0.6,5.4-0.7,7c-0.5,5.8-0.7,10.6-0.6,14.3c0,4.6,0.6,7.8,1.6,9.6
			c0.7,1.4,1.8,2.5,3,3.2c1.3,0.7,2.6,1,3.9,0.6c4.4-0.9,7.9-5.6,10.5-14.1c2.1-6.5,3.3-13.9,3.8-22.2c-0.1-1.3,0.4-2.4,1.4-3.3
			c1-0.9,2.2-1.3,3.5-1.2c1.3,0.1,2.4,0.6,3.4,1.6c1,1,1.4,2,1.2,3.2c-0.5,9.1-1.8,17.2-4,24.5c-3.7,12-9.7,18.9-18,20.7
			c-3.8,0.8-7.3,0.3-10.6-1.6c-3.2-1.9-5.7-4.3-7.2-7.3c-1.6-3-2.4-7.4-2.6-13.4c-0.2-4.1,0-9.2,0.6-15.4c0.2-1.6,0.5-3.9,0.7-7
			l0.6-6.4l0.1-1.4c-4.1,0.4-8.2,0.5-12.1,0.5l-0.1,3.9c-0.1,1.5-0.2,2.7-0.4,3.4c0,0.5-0.1,1-0.3,1.6l-0.7,3.6
			c-0.4,1.6-0.8,3.2-1.3,4.9c-0.3,1.3-1,2.3-2.1,3c-1.1,0.7-2.3,0.9-3.6,0.6c-1.3-0.3-2.3-0.9-3.1-2c-0.8-1.1-1-2.2-0.7-3.4
			c0.3-1.8,0.6-3.5,1-5c0.3-1.5,0.5-2.5,0.7-3.1c0.2-0.6,0.3-1.1,0.3-1.5c0-0.5,0.1-1.4,0.1-2.7l0.4-6.4c0-0.2,0-0.5,0.1-0.7
			c-0.1-0.6-0.1-1.1-0.1-1.6c0-1.3,0.5-2.4,1.5-3.2C245.9,388.3,247.1,387.9,248.6,388z"/>
		<path d="M305.8,390.1c-0.9,13.6-1,23.7-0.3,30.4c0.6,6.7,1.8,11.5,3.6,14.4c0.7,1.1,1.4,1.7,2,2c0.6,0.3,1.4,0.2,2.4-0.2
			c1.4-0.6,2.9-2.1,4.4-4.5c1.5-2.6,2.8-6,4.1-10.5c1.5-4.7,3-11.7,4.6-21.1c0.4-2.3,0.8-6,1.3-11.1c0.3-2.1,0.4-3.6,0.4-4.3
			c0.1-0.6,0.3-1.1,0.3-1.5c0.1-0.7,0.5-1.4,1-2.1c0.9-0.9,1.8-1.5,2.9-1.7c1.7-0.4,3.2,0,4.6,1.1c0.3,0.3,0.6,0.6,0.8,1
			c0.3,0.4,0.5,0.7,0.6,0.9l0.1,0.3l0.6,3.2c0.1,1,0.2,2.6,0.4,4.7c0.4,4.6,0.7,7.3,0.8,8c0.3,2.8,1.1,7.5,2.3,14.2
			c1.2,6.7,2.1,12.2,2.7,16.4c3.6-4.8,6.2-9.8,7.6-15.1c1.4-5.3,2.5-12.1,3.3-20.2c0-1.3,0.6-2.4,1.6-3.2c1.1-0.9,2.3-1.3,3.7-1.2
			c1.4,0.1,2.6,0.6,3.5,1.6c0.9,1,1.3,2.1,1.2,3.4c-0.8,9.7-2.2,17.9-4.2,24.5c-2,6.6-5.9,13.1-11.5,19.3c-1.1,1.2-2.2,2.4-3.6,3.7
			c1,11.7,0.4,21-1.9,28c-1.6,4.9-3.9,8.7-7,11.3c-3.1,2.6-6.6,3.9-10.6,3.6c-3.7-0.1-6.8-1.5-9.4-4.2c-2.5-2.7-3.9-5.8-4-9.4
			c-0.3-7.8,3.4-15.6,11.2-23.3c1.7-1.7,4.9-4.4,9.4-8.3l1.6-1.5c-0.2-1.1-0.3-2.3-0.4-3.6c-0.6-4.3-1.5-9.9-2.7-16.8l-1.5,5.7
			c-1.6,5-3.3,9.2-5.3,12.4c-2.7,4.5-5.8,7.4-9.4,8.6c-3.7,1.4-7.1,1.5-10.2,0.3c-2.7-1.1-5-3.2-6.8-6.2c-2.5-4-4.1-9.9-4.9-17.8
			c-0.7-7.3-0.6-17.9,0.4-32c0-1.3,0.6-2.4,1.6-3.2c1.1-0.9,2.3-1.3,3.7-1.2c1.4,0.1,2.6,0.6,3.5,1.6
			C305.6,387.7,306,388.8,305.8,390.1z M337.5,450.9l-4.6,4.2c-5.9,5.8-8.7,11.3-8.4,16.4c0,1.5,0.4,2.7,1.3,3.5
			c0.8,0.8,1.7,1.3,2.6,1.4c0.5,0,1.1-0.1,1.8-0.4c0.7-0.3,1.6-1.1,2.7-2.4c1.1-1.3,2-3.2,2.7-5.7
			C337,463.6,337.6,457.9,337.5,450.9z"/>
	</g>
	<polygon points="152.4,361.1 152.6,372 152.4,375 144.9,377.7 153.6,377.7 154.9,375.4 154.7,358.1 	"/>
	<polygon points="176.4,303.9 175.8,313.2 173.5,307.5 173.2,304.4 	"/>
	<polygon points="278.1,321.5 274,324.4 277.3,325.7 279.2,323.4 279.2,315.5 	"/>
	<g>
		<path d="M158.6,535.8c2-0.2,4-0.4,6-0.8c1.6-0.3,2.4-1.4,2.2-3.1c-0.6-4.4-1.3-8.9-1.9-13.3c-1.4-0.3-2.6-0.3-3.7,0.3l0,0
			c0,0-2.2,0.7-2.4,1c-1.4,1.2-1.5,2.7-1.6,4.2c-0.1,3.4-0.1,6.7-0.1,10.1C157,535.2,157.6,535.8,158.6,535.8z M161.8,520.9
			c-0.8,1.7-1.6,3.3-2.5,5.1c-0.4-1.2,0-2.4,0.2-3.6c0.5-0.5,1.4-1.3,2-1.8C161.6,520.7,161.7,520.8,161.8,520.9z M163.6,522.2
			c0.2,2.8,0.6,5.7,0.6,8.5c0,2.1-0.6,2.5-2.7,2.4c-0.7,0-1.4-0.3-2.4-0.5c1.5-3.7,2.9-7.1,4.2-10.6
			C163.4,522.1,163.6,522.1,163.6,522.2z"/>
		<path d="M319.1,521.4c0.8-2.4-0.7-6.3-3.1-7.1c-2.1-0.7-4.3-1.1-6.6-1l0,0l0,0c-0.4,0-0.8,0.1-1.3,0.1c0,0,0,0,0,0.1l-2.3,0.4
			l0.1,1.6c-0.2,0.4,0,1,0.1,1.5c0.1,0.8,0.3,1.5,0.4,2.3c0.1,1.8,0.2,3.6,0.3,5.3c0.1,2.1,1.1,2.8,3,2c2.7-1.2,5.4-2.4,8-3.7
			C318.4,522.6,318.9,522,319.1,521.4z M316.3,521c-2.2,1.3-4.3,2.9-7.2,3.2c-0.1-0.8-0.1-1.5-0.2-2.2c-0.2-1.8-0.4-3.7-0.7-5.5
			l2.9-1.1c0,0,0.1,0,0.1,0c0.7,0,1.4,0,2.1,0.1c2.1,0.3,3.6,1.9,3.6,3.9C316.9,519.9,316.7,520.7,316.3,521z"/>
		<path d="M348.3,580.7c-0.5-1-1-2.1-1.5-3.1c-1.2-2.5-2.5-5-4.3-7.1c-0.6-0.7-1.4-2-1.7-2.9c-0.6-1.6-1.1-3.2-1.7-4.8
			c-1.1-3.3-2.4-6.4-4.3-9.3c-1-1.4-2-2.8-2.7-4.4c-0.7-1.4-2.1-2.6-1.9-4.5c2.6-0.9,4.9-2.4,6.3-4.7c2.3-3.7,3.3-7.4,4.9-11.3
			c1.7-4,3.9-7.9,4-12.3c0.1-2.2-0.4-4.4-1-6.5c-2.4-8.2-7.9-15.9-17.2-15.7c-3.9,0.1-7.7-0.4-11.6-1c-6-0.8-12.1,0.2-17.8,2.2
			c-0.9,0.3-1.9,0.7-2.6,1.5c-1.1,1.3-0.9,3.1-1.1,4.7c-0.3,2.2-1.2,4-1.9,6c-0.7,2-1.5,4-1.7,6c-0.4,3.8-0.3,7.6-0.5,11.5
			c-0.2,3.6-0.4,7.1-0.3,10.7c0.1,6.8-0.1,13.6-0.8,20.3c-0.7,6.6-2.1,13.1-3.1,19.6c-0.5,3.1-0.8,6.2-2,9.1
			c-0.3,0.7-0.2,1.5-0.3,2.3c2.2-0.1,3.7,0.4,4.4,2.5c0.1,0.4,0.9,0.7,1.5,0.9c2.3,0.8,4.4,1.8,5.8,4l1.8,0.4l1.6-0.3
			c0.6-0.6,1.4-1.2,2.1-1.8c4.2-4,8.3-8,12.4-12c1.4,2.4,2.7,4.9,4.2,7.4c1.7,3,3.5,6,5.2,9.1c0.5-0.2,9.4,3.3,9.4,3.7
			c0,0.3,0.1,0.7,0.1,1.1c1.7-0.2,3.4-1.1,4.9-2.6c3.1-3,5.3-6.7,7.9-10.1c0.8-1,1.6-2.1,2.6-3C349.1,584.6,349.5,583,348.3,580.7z
			 M334.8,537.1c-0.6,0.4-0.9,1.2-1.4,1.8c-0.6,0.7-1.3,1.4-1.9,2c-2.3,2.1-2.8,2-4.1-0.8c-0.5-1.2-1.1-2.3-1.8-3.7
			c2.8,0,5-0.9,7-2.2c2-1.3,3.9-2.7,6.3-4.5C337.4,532.5,337.3,535.4,334.8,537.1z M287.4,582.4c0.1-2.7,0.2-5,0.7-7.3
			c0.3-1.5,0.6-3,0.8-4.6c0.6-4,1.4-7.9,1.9-11.9c0.4-3.6,0.6-7.3,0.8-10.9c0.3-3.6,0.5-7.3,0.8-10.9c0.3-4.7,0.5-9.5,0.8-14.2
			c0-0.8,0-1.6-0.1-2.3c-0.8-4,0.4-7.7,1.3-11.4c0-0.1,0.3-0.1,0.6-0.3c0.3,3.6,0.7,7.1,1,10.7c0.4,4.7,0.9,9.3,1,14
			c0.2,7.7-0.3,15.4-1.4,23.1c-0.5,3.6-0.7,7.3-1,10.9c-0.2,2.2-0.2,4.5-0.4,6.7c-0.1,0.7-0.4,1.5-0.9,2.1c-1.6,1.9-3.3,3.7-4.9,5.6
			C288.1,581.8,287.9,581.9,287.4,582.4z M300.1,590.6c-4-0.5-7.3-3.1-11.5-4.3c0.3-4.3,3.2-6.8,5.8-9c1.1,0.1,2,0.1,2.9,0.2
			c0.4,0,0.8,0,1.1,0.1c3.2,0.7,6.5,1.5,10,2.2c0.2,0.7,0.4,1.5,0.6,2.4C306.1,584.9,303.2,587.6,300.1,590.6z M311,548.9
			c-0.2,1.1-0.4,2.3-0.3,3.4c0.3,6.8-0.2,13.5-1.1,20.3c-0.1,0.6-0.2,1.2-0.4,1.8c-0.6,2.1-1.1,2.3-3.4,2.3c-2.5,0-4.8-0.5-7-1.5
			c-0.7-0.3-1.2-0.7-1.4-1.2c-0.4-1.5,1-20.8,1-20.8l0.1-5.3c0.7-6.3,0.5-12.5,0.5-18.8c0-0.2,0-0.5,0-0.7l0-0.2v-14.1l-0.8-15.3
			c0.6-0.7,1.4-1.2,2.5-1.5c3.8-0.8,7.6-1.7,11.4-2.2c2.4-0.3,4.9,0.3,7.4,0.5c2.8,0.2,5.6,0.1,8.3,0.3c1.8,0.1,3.6,0.2,5.1,1.4
			c1,0.8,2.1,1.3,3.1,2.1c3,2.3,4.5,5.5,4.8,9.2c0.2,1.9,0.7,3.9,0.7,5.8c0.1,2.7-0.2,5.3-1.3,8c-2,5.1-6,8.1-10.4,10.7
			c-1.4,0.8-3.3,0.9-4.9,1.2c-0.4,0.1-0.8,0-1.2,0.1c-1.3,0.3-1.7,1.4-0.9,2.5c1.7,2.1,3.2,4.4,3.7,7.1c0.1,0.4,0.4,0.6,0.6,1
			c2.4,4.2,4.9,8.3,7.3,12.5c2,3.5,3.2,7.3,4.5,11c1.2,3.4,2.9,6.5,4.4,9.8c0.4,0.9,0.9,1.8,1.6,3.1c-3.9,0-7.2,0-10.6,0
			c-1.5,0-2.6-0.9-3.4-2.1c-0.9-1.4-1.8-2.9-2.7-4.4c-2.6-4.3-5.3-8.6-7.9-13c-1.6-2.7-3.1-5.6-4.7-8.3c-0.9-1.6-1.8-3.3-2.7-4.8
			c-0.2-0.3-0.7-0.8-1-0.8C311.7,548.1,311.1,548.5,311,548.9z M319.1,587c-1.6-2.8-3.1-5.6-4.6-8.4c-0.3-0.6-0.4-1.3-0.6-2
			c-0.2-0.7-0.3-1.6-0.7-2.2c-0.9-1.2-1-2.4-0.9-3.7c0.4-3.1,0.7-6.2,1-9.3c0.1-0.8,0-1.7,0-2.5c-0.1-1.2-0.1-2.3-0.2-3.5
			c0.2-0.1,0.3-0.1,0.5-0.2c2.4,2.7,4.4,5.6,5.2,9.2c1.2,5.2,4.2,9.5,7,13.9c0.7,1.1,2,1.9,3,2.9c0.5,0.6,1.1,1.2,1.6,1.8h0l-3.7,5
			c-1.4,1.4-2.7,3-3.7,5C321.5,590.8,320.3,589,319.1,587z M342.7,588.7c-1.9,2.6-4,5.2-5.9,7.8c-1.1,1.5-2.4,1.6-3.9,1
			c-1.4-0.6-2.6-1.3-4-2c-1.4-0.7-2.7-1.3-4.2-2.1l6.5-7.4c0.8-0.4,1.8-0.6,2.7-0.8c3.9-0.8,7.7-1.9,12.1-1.6
			C344.8,585.5,343.8,587.2,342.7,588.7z"/>
		<path d="M187.6,590.6c-0.1-1.5,0-3-0.2-4.4c-0.5-5.2-1.2-10.4-1.7-15.5c0-0.4,0.1-0.8,0-1.2c-0.1-1.9-0.2-3.9-0.3-5.8
			c-0.2-2.5-0.5-5-0.6-7.4c-0.2-4.5-0.4-9-0.6-13.6c0-0.4-0.2-0.8-0.2-1.2c-0.3-2.8-0.6-5.6-0.9-8.4c-0.1-1.1,0-2.2-0.2-3.3
			c-0.9-4.5-1.2-9.2-2.4-13.6c-0.2-0.7-0.4-1.7-0.6-2.6c0-1.4,0-3,0-3c0-3.8-0.2-10.1-2.3-13.3c-2.7-4-8.6-3-12.6-2.4
			c-3.7,0.5-7.4,1.3-11,1.8c-2.3,0.3-7.8-0.3-9.5,1.4c-0.5,0.6-0.8,1.3-1.1,2c-1,2.8-1.9,5.6-3.4,8.2c-1.4,2.3-3.1,4.5-3.8,7.2
			c-0.8,2.9-0.5,5.9-0.4,8.9c0.2,10.6-2.9,21.1-3.2,31.7c-1.5-3.4-1.6-7.2-1.6-10.9c0-7.1,0.4-14.2,0.5-21.3c0.1-3.6,0.1-7.2,0-10.7
			c-0.1-3.6-0.6-7.1-0.8-10.7c-0.1-1.3-0.2-2.3-1.1-3.4c-0.5-0.6-1.3-1-1.7-1.6c-0.8-1.3-1.9-1.5-3.2-1.6
			c-5.5-0.3-11.8-1.9-17.2-1.4c-7.1,0.7-8.7,7.4-11.4,12.9c-1.9,3.9-3.9,7.8-5.9,11.7c-0.4,0.8-0.7,1.6-1,2.3
			c-0.6,1.5-1,3.1-2.5,4.3c-0.7-0.8-1.5-1.3-1.8-2.1c-0.6-1.3-1.1-2.6-1.3-4c-0.6-4.7-2.2-12.7-6.1-15.8c-1.8-1.4-4.1-1.8-6.3-1.7
			c-3,0.2-6.3,1-9.2,1.7c-2.3,0.5-4.5,1.2-6.7,1.9c-2.2,0.7-4.2,2.2-6.6,2.3c-2.5,0.1-4.4,1.1-5.9,3.2c-1.8,2.5-4,4.8-5.8,7.3
			c-1.4,1.8-2.7,3.6-3,5.9c-0.9,5.5,0.4,11,0.4,16.6c0,0.1,0.1,0.3,0.1,0.4c0.8,4.8,1.8,9.7,1.5,14.6c-0.2,3.8,0.4,7.5,1.3,11.1
			c0.8,3.3,1.5,6.5,1.6,9.9c0.1,3.5,0.5,7,0.9,10.5c0.5,3.8,1.5,7.6,2.2,11.4c0.4,2.1,2.8,1.6,4.4,1.1c4.3-1.5,8.9-1.5,13.4-1.4
			c0.9,0,1.8,0.2,2.8,0.3c0.9,0,1.4-0.4,1.8-1.2c0.8-2.2,1.4-4.4,2.2-6.6c0.7-1.9,1.2-3.8,2.8-5.3c0.7-0.7,1.5-1.8,1.5-2.7
			c0.1-2.7-0.1-5.4-0.2-8.2c0-1.6,0-3.1,0-4.7c1.7,1.5,3.2,3.1,4.3,4.9c1.9,3.1,4.6,4.2,8.1,3.7c1.8-0.3,3.5-0.5,5.3-0.6
			c1.7-0.1,3.4,0,4.9,0c0.4-0.6,0.8-1,1-1.4c1.3-3,2.6-6,3.7-9c0.2-0.5-0.3-1.3-0.5-2c-0.1-0.7,0.1-1.4,0.3-2.2
			c0.2-0.7,0.4-1.4,0.7-2.3c1,3.5,2.1,6.8,2.9,10.1c0.7,2.5,1.3,5,1.6,7.5c0.4,3.5,0.4,7,0.7,10.5c0.1,1,0.3,2,0.7,3
			c0.5,1.3,1.3,2.6,2.9,2.7c2.8,0.3,5.6,0.4,8.4,0.5c0.2,0,0.6-0.1,0.8-0.2c1.3-0.6,2.5-0.3,3.8-0.1c1.4,0.2,2.8,0.2,4.2,0.3
			c2.7-4.4,3.7-9.4,5.8-14c0.1,1.9-0.1,3.8-0.3,5.6c-0.4,4-0.8,7.9-1.1,11.9c-0.1,2.1,0.6,2.7,2.6,2.5c2.8-0.2,5.6-0.7,8.2-2
			c1-0.5,2-0.8,3.1-1.1c1.4-0.4,2.3-1.2,2.9-2.4c0.7-1.4,1.3-3,1.9-4.5c0.9-2.1,1.8-4.3,2.9-6.4c2.3-4.3,4.1-8.7,4.4-13.6
			c0.2-2.9,0.8-5.8,1.2-8.7c1.7-0.6,3.1-1,4.6-1.5c0.2,2.8,0.4,5.4,0.6,8.1c0.2,2.6,0.3,5.1,0.5,7.7c0.4,4.3,0.9,8.7,1.4,13
			c0.4,3.3,1.3,6.6,1.4,9.9c0.1,2.6,0,5.1,1.3,7.5c1.8,0,3.7,0,5.6,0c1.8,0,3.6-0.2,5.4-0.2c1.9,0,3.7-0.1,5.6,0.2
			c1.5,0.2,1.8-0.5,2.3-1.6c0.9-2.4,1.4-4.9,3.1-7c0.6-0.8,0.6-2.2,0.6-3.3C188.2,594.1,187.8,592.4,187.6,590.6z M44.9,594.7
			c-0.3,0.5-0.5,1.1-0.9,1.9c-0.3-0.6-0.5-0.8-0.6-1.1c-0.7-4.1-1.5-8.1-2-12.2c-0.7-6.2-1.3-12.4-2.7-18.4
			c-0.8-3.2-0.7-6.5-0.7-9.7c0-2.3-0.2-4.7-0.5-7c-0.4-3.5-0.9-7-1.2-10.4c-0.2-2.9-0.1-5.9-0.4-8.8c-0.1-1.7,0.3-3.2,1.3-4.4
			c2-2.4,4.1-4.7,6.2-7c0.2-0.2,0.5-0.3,1.3-0.7c0.3,4.4,0.8,8.4,0.9,12.5c0.1,4.6,0.3,9.2,1.2,13.7c0.5,2.5,0.5,5.1,0.7,7.7
			c0.7,8,1,16,1.3,24c0.1,2.1,0.9,4.1,1.4,6.1c0.4,1.4,0.3,2.6-0.5,4C48.1,588,46.5,591.4,44.9,594.7z M66.5,586.4
			c-1.5,2.9-2.9,5.8-4.5,8.8c-0.5,0.9-1,1.7-2.3,1.8c-4,0.2-7.9,0.5-11.9,0.8c-0.4,0-0.8-0.1-1.5-0.1c1.6-4.2,2.8-8.2,5.2-11.7
			c0.6-0.8,1.1-1.3,2.3-1.2c4.3,0.1,8.7,0,13.3,0C66.9,585.2,66.8,585.8,66.5,586.4z M78.9,574.5c-2.1-2.6-3.8-4.7-5.5-6.7
			c-0.5-0.6-1.1-1-1.6-1.6c-0.6-0.6-1.2-1.2-1.6-2c-1.6-2.9-1.7-6.1-2-9.3c-0.2-2.2-0.5-4.4-0.7-6.7c-0.1-1-0.1-2-0.2-2.9
			c0.2,0,0.4-0.1,0.6-0.1c0.7,1.2,1.4,2.4,2.1,3.6c0.8,1.3,1.7,2.6,2.6,3.8c0.4,0.6,0.9,1.1,1.1,1.8c1.2,3.8,2.9,7.4,5.3,10.6
			c1.3,1.7,1.6,3.4,1,5.4C79.7,571.6,79.4,572.7,78.9,574.5z M91.4,575.6c-3.7,0-7.2,0-11.1,0c0.9-2.5,1.7-4.6,2.5-6.9
			c3.1-0.2,6-1.2,9.2-0.2C91.8,571.1,91.6,573.3,91.4,575.6z M106.2,590c0,0-0.3-0.2-0.3-0.4c-0.3-3.9-0.6-7.7-1-11.6
			c-0.1-0.9-0.2-1.9-0.4-2.8c-0.6-4.3-1.2-8.6-1.9-12.9c-0.3-2.2-0.8-4.4-1.3-6.7c-0.1-0.4-0.2-1-0.1-1.3c1-2.5,2.1-5,3.2-7.4
			c0.2-0.4,0.5-0.7,0.8-1.3c1.4,1.8,1.7,3.7,1.8,5.6c0.3,3.6,0.3,7.3,0.1,11c-0.3,6.5,0,13,1.6,19.5c0.4,1.7-0.4,3.2-1.1,4.6
			C107.2,587.4,106.7,588.7,106.2,590z M125.8,587.6c-0.7,1.6-1.5,3.3-2.2,4.9c-0.4,0.9-0.9,1.5-2.1,1.3c-2-0.4-4.1-0.4-6.2-0.4
			c-2.1,0-4.3-0.6-6.5-1c0-0.3-0.2-0.7-0.1-1.1c0.5-1.7,1.1-3.4,1.7-5.1c0.7-1.9,1.4-2.3,3.4-1.9c1.5,0.2,2.9,0.4,4.4,0.7
			c2.6,0.4,4.9-0.6,7.3-1.1c0.5-0.1,1-0.1,1.8-0.2C126.7,585.2,126.3,586.4,125.8,587.6z M129.6,521.8c-0.1,4.2-0.5,8.4-0.7,12.6
			c-0.1,4.8,0,9.7-0.2,14.5c-0.1,4.3-0.5,8.6-0.7,12.9c0,0.7-0.1,1.4,0,2.1c0.8,4.9-0.1,9.7-0.4,14.5c-0.2,2.6-1.4,3.6-4.6,3.9
			c-3.1,0.3-6.2,0.2-9.3,0.1c-2.1-0.1-2.9-0.9-3.2-3c-0.9-6.9-1.8-13.8-1.4-20.8c0.3-5-0.2-9.8-1.2-14.6c-0.3-1.5-1-2.7-2.4-3.8
			c-1,0.7-1.6,1.6-2.1,2.6c-1.1,1.3-2.2,2.7-2.3,2.9c-0.2,0.3-7.7,19-8,19.7c-0.4,0-1,0-1.8-0.1c-1.7-0.2-3.4,0.2-5.1,0.4
			c-1.1,0.2-2.1,0.5-3.2,0.8c-1.1-1.7-2.1-3.4-3.2-5c-2.7-3.7-4.1-8-6.1-12c-1.2-2.5-2.2-5.2-4.2-7.3c-0.4-0.4-0.7-0.9-1-1.3
			c-1.1-1.8-1.2-1.9-3.5-1.5c-1.2,3.6-0.7,7.3-0.1,10.8c0.5,3.2,0.5,6.4,0.8,9.5c0.5,6.3,0.8,12.6,1.3,18.9c0.2,2.3-1.4,4-4.1,3.6
			c-2.2-0.3-4.2,0-6.3,0.2c-0.5,0.1-1.1,0.1-1.6,0.1c-1.8-0.1-2.1-0.4-2.2-2.2c0-0.5,0-1-0.1-1.4c-1-2.5-0.5-5.2-0.6-7.8
			c0-0.3,0-0.6,0-0.9c-0.5-5.1-1.3-10.2-1.6-15.3c-0.4-5.8-1.2-11.5-2.1-17.2c-0.5-3.4-0.4-6.8-0.5-10.3c-0.2-4.1-0.2-8.1-0.4-12.2
			c0-0.7-0.5-1.4-0.9-2.2c3.6-2.1,7.3-4,11.5-4.9c3.2-0.7,6.3-1.5,9.6-2.1c1.5-0.3,3.1-0.5,4.6,0.2c1.5,0.7,2.7,1.7,3.4,3.3
			c1.3,3.3,2.7,6.6,4.2,9.9c0.8,1.9,1.7,3.6,2.5,5.5c1.3,3,2.4,6.1,3.7,9.1c0.7,1.7,1.4,1.8,2.6,0.4c0.2-0.2,0.5-0.5,0.6-0.7
			c1.2-4.4,1.6-5.2,3.1-7.7c1.1-1.8,1.8-3.8,2.6-5.7c0.9-2.1,1.8-4.3,2.8-6.4c2.4-5.3,6-10.4,9.5-15c1-1.3,2-1.7,3.6-1.6
			c3.2,0.3,6.4,0.4,9.6,0.5c2.3,0.1,4.3,1.1,6.4,1.9c1.2,0.5,1.4,1.7,1.6,2.9C129.3,509,129.8,515.4,129.6,521.8z M131.2,595.5
			c0-0.5-0.2-0.9-0.1-1.4c0.4-3.3,0.9-6.6,1.2-9.9c0.2-1.7,0.1-3.4,0.2-5.1c0.2-1.7,0.5-3.4,0.7-5.1c0.1-0.6,0.2-1.2,0.3-1.8
			c0.2-4.2,0.3-8.4,0.6-12.6c0.1-1.9,0.7-3.8,0.9-5.7c0.3-2.2,0.3-4.5,0.6-6.8c0.7-5.5,1.5-11,2.1-16.5c0.3-3.5,0.2-7,0.4-10.5
			c0.1-1.8,0.4-3.6,1-5.2c0.8-2.2,2-4.3,3.8-6.6c0.1,1.5,0.2,2.5,0.3,3.4c0.2,4.1,0.7,8.3,0.6,12.4c-0.2,4.9-0.9,9.8-1.4,14.7
			c-0.3,2.5-0.6,4.9-0.7,7.4c-0.4,5.9-1.4,11.6-2.6,17.3c-0.3,1.5-0.4,3.1-0.5,4.6c-0.5,4.3-1.3,8.5-1.4,12.8
			c-0.1,3.7-1.5,6.8-3.2,9.9C133,592.3,132.3,593.9,131.2,595.5z M146.2,585.2c-0.5,2.4-1.2,4.8-1.7,7.3c-0.8,4-3.8,5.4-7.4,6.2
			c-1.5,0.3-3,0.5-4.9,0.8c2.6-5.5,4.9-10.5,7.2-15.6c2.4-0.3,4.6-0.7,7.1-1C146.4,583.8,146.4,584.5,146.2,585.2z M153.2,566.1
			c-0.3,2.2-0.5,4.3-0.8,6.5c-0.3,1.9-0.8,3.8-1.4,5.6c-0.2,0.6-0.6,1.1-1,1.5c-1.1,0-3.4,0-5.4,0c-0.1,0-0.2,0-0.3-0.1
			c-0.6-0.1-1.3,0-2,0.1c-0.2,0-0.3,0-0.5,0c-0.2-0.5-1.5-1.4-2.1-1.2c0.3-3,0.4-6,0.9-8.9c1-5.9,2.1-11.8,3.2-17.7
			c0.1-0.5,0.1-1.1,0.1-1.6c0.1-3.5,0.7-7,1.2-10.4c0.5-3,0.4-6,0.6-9.1c0.6-6.6-0.1-13.1-0.1-19.7c0-2.8,0.5-5.6,0.7-8.4
			c0.1-1.5,1.1-2.2,2.3-2.5c2.4-0.6,4.9-1.1,7.3-1.4c2.9-0.3,5.9-0.3,8.9-0.6c1.9-0.2,3.9-0.6,5.7-1.1c1.6-0.4,2.8-0.4,3.7,0.3
			l2.1,6.3l1.4,11.9l0.7,6.9c0,1.6,0,3.2,0.1,4.8c0.1,3.6,0.6,7.1,1.3,10.7c1.2,6.5,2.2,12.9,2.5,19.5c0.2,3.3,0.6,6.5,0.8,9.8
			c0.3,4,0.6,8.1,0.9,12.1c0.3,4.8,0.6,9.7,1,14.5c0,0.2,0,0.5,0,1.2c-2.7,0.2-5.2,0.5-7.7,0.7c-0.2,0-0.5-0.1-0.7-0.1
			c-2.8-0.1-2.9-0.1-3.4-3c-0.5-2.8-1.1-5.5-1.4-8.3c-0.6-6.3-0.7-12.6-1.4-18.9c-0.6-5.5-1.6-11-2.4-16.4c-0.1-0.5-0.3-1-0.5-1.6
			c-0.3-0.8-0.8-1.3-1.7-1.3c-2.3,0.1-4.7,0-7,0.1c-1.4,0.1-2.5,1.4-2.8,2.9C155.1,554.9,154.1,560.5,153.2,566.1z M161.5,560
			c-1.7,0.3-3.2,0.6-4.9,0.9c0.3-2.8,0.6-5.3,1-7.8c0.2-1.3,0.9-2,2.3-2.2c1.5-0.2,3-0.5,4.9-0.9C163.6,553.6,162.5,556.8,161.5,560
			z M167.1,602.8c-0.4-3-0.8-5.9-1.2-8.7c-0.4-2.5-1.2-4.9-1.4-7.3c-0.4-4.1-1-8.2-0.7-12.3c0.1-2.4-0.5-4.8-0.7-7.2
			c-0.5-4.6,0.4-8.9,2.1-13.1c0.2-0.5,0.6-1,1.4-1.4c0.3,2,0.6,3.9,0.8,5.9c0.5,5.8,1.1,11.6,1.5,17.5c0.3,4.7,0.3,9.5,0.5,14.3
			c0.1,2.1,0.4,4.2,0.4,6.3C169.7,598.9,168.7,600.9,167.1,602.8z M180.7,604.4c-0.2,0.2-0.6,0.3-0.8,0.3c-3.5,0-7,0-10.7,0
			c-0.3-2.8,2.5-4.1,3.3-6.6c4.3-0.3,8.5-0.6,13.2-0.9C184.3,600.3,182.7,602.5,180.7,604.4z"/>
		<path d="M286.4,517.9c0.1-0.8-0.2-1.7-0.5-2.5c-1.1-2.3-3.4-2.4-5.4-2.5c-4.3-0.2-8.6,0-12.9,0.7c-2.3,0.4-4.5,0.5-6.8,0.6
			c-3.9,0.1-7.8,0-11.7,0c-3.1,0-4,0.9-4.6,3.8c-0.1,0.4-0.2,0.7-0.4,1.1c-0.7-2.6-0.2-5,0.1-7.4c0-0.4,0.3-0.7,0.5-1
			c0.4-0.7,0.9-1.5,1.3-2.2c0.7-1.3,0.6-2.2-0.3-3.3l-1.6-1.9c-0.7-0.8-1.3-1.5-2-2.2c-2.6-2.7-4.6-6.1-9.2-6.6
			c-7,7.1-12.7,15.6-20.2,23.2c0.1-7.6,2.2-14.4,2.2-21.6c-2.5-1.2-5.2-0.8-8-0.1c-2.4,0.6-4.9,1-7.4,1.1c-1.8,0.1-2.8,0.3-3.4,1.6
			c-1.5,3.2-3,6.5-4.7,9.7c-1.9,3.6-3.3,7.1-2.8,11.3c0.2,1.8-0.3,3.7-0.3,5.6c0.1,4.9,0.3,9.8,0.4,14.7c0.1,3.3-0.2,6.6,0.1,9.8
			c0.7,7.6,0.2,15.3,0.3,22.9c0,4.4,0.3,8.7,0.9,13c0.3,2.1,0.5,4.3,0.8,6.5c0.2,1.5,0.7,3,1.1,4.4c0,0.2,0.1,0.3,0.3,0.4
			c0.1,0.1,0.3,0.1,0.4,0c4.3-0.5,8.5-0.6,12.7-1c0.7-0.1,1.4-0.2,1.6-0.9c0.1-0.3,0.1-0.6,0.2-0.9c0.2-1.2,0.9-2.2,1.7-3.2
			c0.7-1,1.4-1.9,2-2.9c0.6-0.8,1.1-1.6,1.9-2.7c2.2,2.4,4.3,4.7,6.5,7.1c2.2,2.4,4.6,6.1,7.3,8.1c1.2,0.8,2.8,0.3,4.2-0.1
			c3.2-0.9,8.3,0.7,10.3-2.3c0.7-1,1.2-2.2,1.6-3.4c0.6-1.6,0.9-3.3,1.5-4.9c0.4-1.1,1-2.4,1.9-3c1-0.8,1.2-1.5,0.9-2.6
			c-0.1-0.5-0.4-1-0.5-1.5c3.5-0.3,6.7-0.6,10-0.9c1.3-0.1,2.7-0.2,4-0.1c2.6,0.1,5.2,0.3,7.8,0.4c2.4,0.1,5,0.4,7.4-0.1
			c5.4-1.1,4.5-6.5,8.1-9.6c0.5-0.5,0.9-1.3,1.1-2c0.6-3.1,0.7-6.2,0.3-9.4c-0.1-1-0.3-1.9-0.3-2.9c0-3.8,0.5-4.3-2-4.6
			c-4.2-0.5-8.3-1-12.5-1.5c-2.3-0.3-4.6-0.7-7-1.1c0.5-4.1,0.5-4.1,4.2-4.1c3,0,5.9-0.2,8.9-0.4c0.5,0,1-0.3,1.8-0.5
			c-0.2-4-0.4-7.9-0.6-12.1c-1.8-0.6-3.5-1.7-5.1-1.5c-2.1,0.2-4.1,0.1-6.2,0c-2.3-0.1-2.4-0.2-2.3-2.4c0-0.7,0-1.4,0-2.3
			c5.3-0.1,10.4-0.3,15.5-0.4c0.3,0,0.6,0.1,0.9,0.2c1.5,0.7,3.2,0.7,4.9,0.6c2.1,0,2.4-0.4,2.1-2.5
			C286.8,523.2,286.2,520.6,286.4,517.9z M244.2,522.6c0.1-0.1,0.3-0.1,0.6-0.1c0.1,0.6,0.3,1.2,0.3,1.8c-0.2,4.6-0.4,9.2-0.7,13.8
			c0,0.7,0,1.4,0,2.1c0.1,6.6,0.2,13.3,0.2,19.9c0,2.3-0.5,4.6-0.7,7c-0.1,0.8,0.1,1.6,0.6,2.4c-0.9,1.5-1.9,3-2.8,4.5
			c-1.1-0.4-1.2-1.1-1.2-1.9c-0.1-1.9-0.1-3.9-0.1-5.8c0-1.6,0-3.1-0.1-4.7c-0.2-3.8-0.5-7.6-0.8-11.4c-0.2-2.8-0.6-5.6-0.7-8.4
			c-0.1-1.9,0.1-3.9,0.2-5.8c0-0.2,0.1-0.5,0-0.7C238,529.9,241.4,526.4,244.2,522.6z M225,544.4c2.1-2.5,8.9-10.3,11.9-13.7
			c-0.2,0.4-0.3,0.9-0.4,1.3c-0.1,1,0.5,2.1,0.5,3.2c0,8.3,0.9,16.5,1.4,24.7c0.2,2.5,0,5.1,0,7.6c-0.2,0.1-0.5,0.1-0.7,0.2
			c-1.6-2.7-3.2-5.5-4.7-8.2c-2.3-4.1-4.5-8.2-6.8-12.2C225.3,545.9,224.9,545.2,225,544.4z M235.7,528.6c-3,3.6-5.9,7.3-8.8,10.9
			c-0.5,0.6-1,1.1-1.7,1.6c4.4-9.4,10.9-17.5,16.7-26.7c0.1,2.6-0.1,4.7-1.1,6.7C239.4,523.8,237.7,526.2,235.7,528.6z M193.7,584
			c-0.2-3.4-0.2-6.9-0.6-10.3c-0.5-4.2-1.6-8.2-1-12.5c0.2-1.6-0.1-3.3-0.2-4.9c-0.2-5.4-0.4-10.7-0.6-16.1c0-2.3,0.3-4.7,0.3-7
			c0-2.1-0.2-4.2-0.2-6.3c-0.1-3.7-0.1-7.5-0.2-11.2c0-1.1,0.3-2.1,0.8-3.1c1.3-2.5,2.4-5,3.5-7.5c0.2,0,0.4,0.1,0.6,0.1
			c0.1,0.9,0.2,1.8,0.2,2.7c0,8.3,0,16.7-0.1,25c0,4.8-0.3,9.5-0.2,14.3c0.1,8.1,0.3,16.2,0.4,24.3c0,1.9-0.3,3.9-0.4,5.8
			c-0.1,1.8-0.1,3.6-0.4,5.3c-0.2,1.4-0.8,2.7-1.2,4.1c-0.2,0-0.4-0.1-0.6-0.1C193.7,585.8,193.7,584.9,193.7,584z M204.1,593
			c-0.5,0.9-1.2,1.1-2.1,1.1c-1.6,0-3.1,0.1-4.7,0c-0.9-0.1-1.9-0.5-3.1-0.8c0.8-2.6,1.4-4.9,2.2-7.1c0.2-0.7,0.8-1.2,1.6-1
			c2.7,0.7,5.4,1.3,8.1,2c0.2,0.1,0.4,0.3,0.9,0.7C206,589.6,205,591.3,204.1,593z M224.9,596c-1.2-1.1-2.2-1.9-3-2.8
			c-1.5-1.6-2.9-3.2-4.4-4.8c-1.3-1.4-2.7-2.8-4-4.3c-0.5-0.6-1-1.5-1-2.3c-0.2-6-0.3-12-0.4-18c0-0.2,0.1-0.4,0.4-1.2
			c0.7,1.1,1.1,1.7,1.5,2.3c1.9,3.3,3.6,6.7,5.5,10c2.1,3.6,4.4,7.1,6.7,10.7c0.4,0.6,0.7,1.2,1.2,1.7c0.6,0.8,0.6,1.5,0.2,2.4
			C226.6,591.7,225.9,593.7,224.9,596z M240.2,596.9c-0.5,1-1.4,1.2-2.3,1.3c-2.9,0.4-5.9,0.7-8.8,1c-1.3,0.1-2.4-1.1-2.3-2.6
			c0.1-0.6,0.3-1.2,0.5-1.8c0.6-1.3,1.2-2.7,2-4c0.3-0.5,0.7-1.2,1.2-1.3c3.7-0.8,7.3-2.3,11.2-1.5c0.3,0.1,0.6,0.2,1,0.4
			C242,591.4,241.4,594.2,240.2,596.9z M241.5,585.8c-2.6-0.3-5.1,0.3-7.6,1c-1.1,0.3-2.3,0-3.5,0c-2.4-3.8-4.8-7.4-7.1-11.1
			c-0.8-1.3-1.4-2.8-2.2-4.1c-1.5-2.4-3.1-4.7-4.6-7c-1.2-1.9-2.4-3.8-3.8-5.6c-0.4-0.6-1.1-0.9-2.1-1.7c-0.3,1.2-0.6,2-0.6,2.7
			c-0.1,3.8-0.1,7.7-0.2,11.5c-0.1,3.3-0.2,6.5-0.4,9.8c0,0.9-0.3,1.8-0.5,2.8c-1.4,0.5-2.7,0.1-4-0.1c-1.6-0.3-3.2-0.7-4.8-1
			c-0.8-0.2-1.3-0.6-1.4-1.4c-0.2-1.3-0.5-2.7-0.3-3.9c0.6-3.8,0.2-7.5,0-11.2c-0.3-5.8-0.6-11.6,0.1-17.5c0.5-4.5,0.3-9,0.4-13.5
			c0.1-3.9,0.3-7.8,0.2-11.7c-0.1-4.5-0.4-9-0.7-13.5c-0.2-3.5,0.2-7,0.5-10.6c3.4-0.7,6.5-1.3,9.7-2c0.4-0.1,0.8-0.1,1.2-0.1
			c2.1-0.1,2.5,0.3,2.3,2.4c-0.2,1.5-0.2,3-0.4,4.4c-0.7,4.3-1.5,8.6-2.3,12.9c-0.3,1.7-0.4,3.4-0.7,5.1c0,0.2-0.1,0.4-0.1,0.6h0
			c0,0,0,0,0,0c0,0.2,0,0.4,0,0.6c0,1.6,0,5.6,0,5.6h1.2l1-0.7c0.3,0.1,1.1-0.4,1.2-0.7c0.5-2.9,2.6-4.9,4.1-7.2
			c2.2-3.5,4.6-6.8,7-10.2c1.6-2.2,3.3-4.3,5-6.4c1.6-2.1,3.2-4.2,4.8-6.3c1-1.3,1.3-1.4,2.4-0.4c2.8,2.6,5.6,5.2,7.6,8.5
			c0.1,0.2,0.2,0.4,0.3,0.6l0,0l-2.5,5.3l-19.5,30.2l0.6,1.8l0,0c0.1,0.8,0.5,1.6,1,2.4c3.7,5.4,6.9,11.1,9.7,17.1
			c1.9,4.2,4.2,8.2,6.7,12c2,3.2,3.6,6.6,4.3,10.6C242.8,585.6,242.1,585.8,241.5,585.8z M277.9,580.5c-2.2,0-4.2,0.1-6.3,0
			c-4.1-0.1-8.1-0.5-12.1-0.5c-2.8,0-5.5,0.5-8.3,0.7c-1.3,0.1-2.7,0.1-4,0.2c-1.8,0.2-2.8-0.8-3.4-2.3c-0.4-1-0.7-2.1-0.9-2.8
			c0.7-1.3,1.3-2.5,2-3.6c1-1.4,2.3-2.3,4.1-2.2c4.6,0.4,9.2,0.6,13.7,1c3.2,0.2,6.3,0.6,9.5,0.9c2.7,0.3,5.4,0.6,8.2,0.9
			C280.3,575.7,278.1,577.7,277.9,580.5z M282.1,518.9c0,1.3-0.1,2.7-0.3,4c-0.3,1.6-1.2,2.6-2.8,2.6c-3.7,0-7.5,0.6-11.2-0.5
			c-2.6-0.8-5.1,0.1-7.6,0.7c-1.2,0.3-1.2,1.7-1.2,2.8c0.1,1.3,0.3,2.7,0.8,3.8c0.4,0.8,1.5,1.5,2.3,1.6c2.8,0.5,5.7,0.7,8.6,1
			c0.4,0,0.8,0,1.2,0c2.6,0.2,3.2,0.7,3.6,3.3c0.2,1.2,0.2,2.5,0.2,3.7c0,2-0.8,3-2.6,2.7c-3.9-0.6-7.6,0.5-11.4,0.7
			c-2.3,0.1-2.7,0.7-2.3,3c0.2,1.1,0.4,2.1,0.7,3.2c0.3,1.3,1.1,1.9,2.4,2c3,0.3,6,0.6,9,0.9c2.2,0.2,4.3,0.4,6.5,0.6
			c0.9,0.1,1.8,0.4,2.9,0.6c0.2,4.9,1.8,9.6-0.3,14.6c-3.2-0.2-6.3-0.4-9.5-0.6c-1.6-0.1-3.2,0.1-4.7-0.2c-3.6-0.8-7.4-0.7-11-1.8
			c-1.1-0.4-2.5,0-3.7,0c-1.2,0-2.7,0.3-3.7-0.2c-0.1-0.1-0.2-0.1-0.3-0.2c0-5.2,0-28.5,0-41.7c0.1-1.6,0.2-3.3,0.2-4.9
			c0-1.2-0.1-2.5-0.2-4.2c2,0,3.6,0.1,5.3,0c3.4-0.2,6.8-0.3,10.2-0.6c3-0.3,6-1,9-1c2.6,0,5.3,0.5,7.8,1.1
			C281.9,516.4,282.2,517,282.1,518.9z"/>
	</g>
	<path d="M207,496.1c0,0,0.9-10,0-16.9l2.6-4.5c0,0,0.9,20,0,21.4C208.7,497.6,207,496.1,207,496.1z"/>
	<polygon points="295.2,496.8 294.9,468.6 292.7,468.6 293.6,492.3 293.2,498.1 293.1,508.2 294.6,504.7 	"/>
	<path d="M125.7,497.3c0.2-0.6,0-16.6,0-16.6h-0.9c0,0-1.2,0.5-1.2,1.1c0,0.6,0.4,4.9,0.4,5.4c0,0.5-0.1,10.1-0.1,10.1H125.7z"/>
	<path d="M55.6,366.4C55.7,359,55.6,8,55.6,8h-0.9c0,0-1.2,163.3-1.2,170.7c0,7.4,0.4,59.2,0.4,65.6c0,6.5-0.1,122-0.1,122H55.6z"/>
	<path d="M337.1,381.2c0.2-7.6,0-381.2,0-381.2h-0.9c0,0-1.2,179.7-1.2,187.3c0,7.6,0.4,61.1,0.4,67.8s-0.1,126.1-0.1,126.1H337.1z"
		/>
	<polyline points="167.8,495.2 167.8,485.6 169.6,484.9 169.6,491.3 169.6,495.8 167.8,495.8 	"/>
	<path d="M269.9,514c0,0,0-6.3,0-6.6c0-0.3,0.3-11.4,0-23.1c0,0-0.2-17.3,0-18.9l1.9,0.8c0,0-0.3,13.1,0,18.1
		c0.3,5,0.2,19.7-0.6,29.6H269.9z"/>
</g>
<g id="Layer_2" display="none">
	<g id="XAvUEl_1_" display="inline">
		<g>
			<path d="M46.4,291.2c-0.2,0.1-0.4,0.3-0.6,0.4c-0.7,0.4-1.4,0.8-2.1,1.2c-0.4,0.2-0.8,0.4-1.2,0.4c-0.8,0.1-1.5,0.5-2.3,0.8
				c-0.4,0.1-0.8,0.2-1.1,0.1c-1.1-0.1-2.1,0.1-3.1,0.6c-0.4-0.7-1-1-1.8-0.9c-0.4,0-0.7-0.1-1.1-0.2c-0.9-0.3-1.7-0.6-2.6-1
				c-0.9-0.4-1.9-0.8-2.8-1.2c-0.5-0.3-1.1-0.6-1.5-1c-0.7-0.6-1.5-1.1-2.2-1.8c-0.9-0.9-1.6-2-2.1-3.2c-0.3-0.7-0.7-1.4-0.9-2.1
				c-0.2-0.5-0.3-1.1-0.3-1.6c-0.1-1.2-0.1-2.4-0.1-3.6c0-0.8,0-1.6,0-2.4c0-0.1-0.1-0.1-0.1-0.2c-0.5-0.7-0.3-1.3,0.4-1.8
				c0.3-0.2,0.3-0.7,0.5-1c0.2-0.5,0.5-1,0.7-1.5c0.1-0.4,0.3-0.7,0.4-1.1c0.2-0.8,0.5-1.5,1-2.2c0.4-0.5,0.6-1.2,0.9-1.7
				c0.4-0.7,0.8-1.4,1.3-2c0.4-0.5,1-0.9,1.5-1.4c0.6-0.6,1.2-1.2,2-1.7c0.6-0.4,1.2-0.8,1.9-1.1c0.2-0.1,0.6,0,0.8,0.1
				c0.6,0.4,1.2,0.1,1.9,0c0.9-0.2,1.7-0.4,2.6-0.5c1.5-0.1,3,0,4.4,0.5c0.5,0.2,1.1,0.2,1.6,0.2c0.7,0.4,1.5,0.9,2.3,1.1
				c0.6,0.1,0.8,0.6,1.3,0.8c0.5,0.2,0.8,0.8,1.3,1c0.8,0.3,1.2,1,1.7,1.6c0.4,0.4,0.8,0.8,1.3,1.2c0.1,0.1,0.2,0.2,0.2,0.4
				c0.2,0.4,0.4,0.9,0.6,1.3c0.1,0.2,0.4,0.4,0.6,0.5c0.6,0.4,0.3,1.1,0.7,1.6c0.2,0.3,0.2,0.7,0.3,1c0.7,1.4,0.7,3,0.9,4.5
				c0.2,1.2,0.3,2.3,0.3,3.5c0,0.8-0.3,1.5-0.3,2.3c0,1.4-0.7,2.5-1.2,3.8c-0.1,0.2-0.1,0.4-0.3,0.6c-0.2,0.2-0.2,0.3-0.1,0.6
				c0.2,0.5-0.3,0.8-0.7,1c-0.6,0.3-0.9,0.7-1.2,1.2c-0.3,0.4-0.7,0.7-1,1.1c-0.5,0.5-1.1,1.1-1.6,1.6
				C46.9,290.9,46.6,291,46.4,291.2C46.4,291.2,46.4,291.2,46.4,291.2z M41.6,276.3c0,0.1,0.1,0.1,0.1,0.2c0.5,0.4,1,0.7,1.5,1.1
				c0.6,0.4,1.2,0.9,1.8,1.3c0.7,0.4,1.3,0.8,2,1.1c1.1,0.5,2.3,1,3.4,1.4c0.2,0.1,0.6-0.1,0.6-0.2c0.1-0.6,0.3-1.2,0.3-1.8
				c-0.1-1.4-0.2-2.8-0.4-4.1c-0.1-0.8-0.2-1.5-0.4-2.3c-0.1-0.4-0.2-0.7-0.3-1C47.9,274.6,44.9,275.8,41.6,276.3z M36.7,278
				c-0.1,0-0.2,0-0.2-0.1c-0.1,0.9-1,1.5-0.8,2.6c0,0.2,0,0.6-0.2,0.7c-0.7,0.6-0.7,1.5-0.9,2.3c-0.3,1.3-0.2,2.6,0.1,3.9
				c0.1,0.5,0.3,1.1,0.5,1.6c0.3,0.6,0.7,1.2,1.1,1.8c0.3,0.5,1,1,1.6,0.9c1.2-0.2,2.3-0.5,3.5-0.7c0.4-0.1,0.7-0.3,1-0.4
				c-0.6-0.5-1.3-1-1.8-1.6c-0.4-0.4-0.6-1-1-1.5c-0.6-1-1.4-1.9-1.8-3c-0.5-1.2-0.8-2.5-1.1-3.7c-0.1-0.3-0.1-0.7-0.1-1.1
				C36.5,279.1,36.6,278.5,36.7,278z M28.5,289.1c0.1,0,0.1-0.1,0.2-0.1c-0.1-0.5-0.3-0.9-0.4-1.4c-0.1-0.8-0.3-1.5-0.3-2.3
				c0-0.7,0.2-1.3,0.3-2c0.3-1.7,0.7-3.4,1.4-5c0.4-0.9,1.1-1.7,2-2.3c0.2-0.1,0.3-0.3,0.4-0.4c0,0-0.1-0.1-0.1-0.1
				c-0.4,0.2-0.8,0.5-1.2,0.6c-0.8,0.1-1.5,0.5-2.2,0.9c-0.7,0.4-1.2,1.1-1.8,1.6c-1.1,0.9-2.1,1.9-2.5,3.4c-0.3,1-1,1.9,0,2.9
				c0,0,0,0.1,0,0.2c0.3,0.8,0.8,1.5,1.5,2C26.7,287.8,27.6,288.4,28.5,289.1z M47.4,287c-4.4-2.2-7.5-5.4-9.5-9.6
				c-0.1,0.2-0.1,0.3-0.1,0.4c0.1,0.8,0.1,1.6,0.2,2.5c0.1,0.6,0.2,1.3,0.4,1.9c0.3,0.9,0.6,1.7,1.1,2.5c0.4,0.7,0.5,1.6,1.4,1.9
				c0,0,0,0.1,0,0.1c0.2,0.8,0.6,1.6,1.3,2.1c0.4,0.3,0.8,0.5,1.1,0.9c0.3,0.4,0.6,0.3,0.9,0c0.5-0.4,1-0.8,1.5-1.2
				C46.3,288,46.8,287.5,47.4,287z M43.8,263.9c0.8,3.7,0.3,7.3-1.6,10.6c0.3,0,0.4,0.1,0.5,0c0.9-0.3,1.9-0.6,2.8-1
				c1.4-0.6,2.6-1.4,3.4-2.7c0.2-0.3,0.5-0.9,0.4-1.1c-0.3-0.7-0.7-1.4-1.3-1.9c-1-1.1-2.1-2.1-3.2-3.1
				C44.6,264.4,44.3,264.2,43.8,263.9z M33.7,273.7c0-0.1,0-0.1,0-0.2c-0.9-0.2-1.8-0.6-2.8-0.6c-1.4-0.1-2.8,0-4.3,0
				c-0.4,0-1,0-1.3,0.2c-0.5,0.3-1.3,0.2-1.6,1c-1,0.4-1.2,1.4-1.2,2.3c-0.1,1.4,0,2.8,0.1,4.2c0,0.2,0.1,0.3,0.2,0.6
				c0.2-0.5,0.3-1,0.5-1.2c0.6-0.8,1.3-1.6,2-2.2c0.7-0.7,1.5-1.3,2.3-1.8c1.4-0.9,3-1.5,4.7-1.8C32.9,273.9,33.3,273.8,33.7,273.7z
				 M26,267.1c0.2,0.1,0.4,0.1,0.5,0.1c1,0,2.1,0.1,3.1,0.1c0.6,0,1.3,0.1,1.9,0.3c0.7,0.2,1.4,0.7,2.1,1c0.9,0.3,1.6,0.8,2.4,1.3
				c0.1,0.1,0.3,0.1,0.4,0.1c0.1-0.1,0.1-0.1,0.2-0.2c-0.4-0.7-0.8-1.5-1.3-2.1c-1-1.2-1.6-2.7-3-3.6c-0.5-0.3-1.1-0.4-1.6-0.7
				c-0.1,0-0.2,0.1-0.3,0.1c-0.2,0.2-0.4,0.3-0.6,0.5c-0.2,0.2-0.3,0.4-0.5,0.5c-0.2-0.2-0.5-0.4-0.8-0.7c0,0.4,0,0.6,0,0.7
				C27.2,265,27,266.4,26,267.1z M38.4,271.8c0.1-0.2,0.2-0.3,0.2-0.4c0.1-1.1,0.3-2.2,0.4-3.3c0-0.7-0.2-1.3-0.3-2
				c-0.3-1.5-0.7-2.1-1.5-3.1c-0.1-0.1-0.1-0.3-0.1-0.4c-0.2-0.2-0.4-0.6-0.6-0.6c-1.1-0.3-2.1,0.4-3.2,0.4c-0.1,0-0.2,0.1-0.2,0.1
				c0.7,0.7,1.4,1.4,2,2.1c0.2,0.2,0.3,0.6,0.5,0.9c0.5,0.7,1.1,1.5,1.7,2.2c0.6,0.8,0.8,1.7,1.1,2.6
				C38.4,270.7,38.4,271.2,38.4,271.8z"/>
			<path d="M64.9,306.8c-0.1,0.3-0.2,0.7-0.2,1c0,1.2-0.5,2.3-0.8,3.4c-0.2,0.8-0.4,1.7-0.5,2.6c-0.1,0.8-1.2,1.6-1.9,1.2
				c-0.3-0.2-0.5-0.6-0.7-0.9c0.2-0.5,0.4-0.9,0.5-1.3c0.4-1.3,0.7-2.7,1.1-4c0.3-1.1,0.5-2.1,0.7-3.2c0.1-0.4,0-0.8,0.1-1.2
				c0.1-0.5,0.2-1,0.4-1.5c0-0.1,0.2-0.1,0.3-0.1c0.4-0.1,0.7-0.1,1.2-0.2c1.4,2.2,2.9,4.5,3.6,7.1c0.1,0,0.2,0,0.3-0.1
				c0-0.6,0-1.1,0-1.7c0.2-1.8,0.4-3.6,0.6-5.4c0-0.3,0-0.6,0-0.9c0-0.7,0.6-1.3,1.3-1.3c0.2,0,0.3-0.1,0.5-0.1
				c0.3,0,0.7-0.1,0.5,0.5c0,0.1,0,0.1,0,0.2c0.7,1-0.2,1.9-0.3,2.9c0,1-0.3,2-0.3,3c-0.1,1,0,2-0.1,3.1c-0.1,1.2-0.3,2.4-0.4,3.6
				c-0.1,0.8-0.8,0.9-1.3,1.1c-0.2,0.1-0.6-0.3-0.9-0.5c-0.5-0.3-0.5-1-0.8-1.4c-0.5-1-1-2-1.4-3c-0.4-0.9-0.8-1.8-1.2-2.7
				C65,306.8,65,306.8,64.9,306.8z"/>
			<path d="M76.7,369.3c-0.7,0.4-1.2,0.1-1.7-0.4c-0.4-0.5-0.3-1.3,0.3-1.4c0.9-0.2,1.8-0.3,2.8-0.5c0.8-0.1,1.5-0.3,2.3-0.4
				c0.5,0,1-0.1,1.4,0.1c0.7,0.3,0.7,0.7,0.7,1.4c-0.1,0.8,0,1.5,0,2.3c0,0.2,0,0.5-0.1,0.7c0,0.2-0.1,0.4-0.1,0.6
				c-0.9,0.1-1.8,0-2.2-1c-0.2-0.4-0.2-0.9-0.3-1.3c0-0.2,0-0.3,0-0.5c-0.1,0-0.1,0-0.2,0c-0.2,0.6-0.4,1.3-0.5,1.9
				c-0.1,0.8-0.4,1.4-1.1,1.8c-0.8,0.4-1.6,0.9-2.4,1.1c-1.2,0.3-2.4,0.5-3.7,0.1c-1.1-0.4-1.8-1.6-1.9-2.7c-0.2-2.2,0.7-4.1,1.7-6
				c0.1-0.3,0.3-0.5,0.4-0.8c0.5-1.1,1.3-1.2,2.1-0.3c0.1,0.1,0.3,0.1,0.5,0.2c-0.2,1-0.8,1.8-1.3,2.7c-0.7,1.2-1.1,2.5-1,3.9
				c0,0.4,0.3,0.8,0.7,0.9c1.1,0.1,2.2,0,3.1-0.9C76.7,370.3,76.8,369.9,76.7,369.3z"/>
			<path d="M40,304.2c0.2-0.2,0.4-0.4,0.5-0.6c0.3-0.4,0.9-0.5,1.3-0.2c0.6,0.5,1.3,0.4,1.9,0.2c0.7-0.3,1.2,0,1.7,0.2
				c1.2,0.3,2.1,1.1,3,2c0.4,0.4,0.4,0.9,0.7,1.3c0.3,0.5,0,1.1,0.2,1.6c0.2,0.5,0.2,1.1,0.2,1.7c0.1,1.4-0.6,2.4-1.8,3.1
				c-1.3,0.8-2.7,1.2-4.3,0.8c-0.4-0.1-0.7,0-1.1,0c-0.2,0-0.3-0.1-0.4-0.2c-0.3-0.3-0.4-0.7-0.8-1c-0.3-0.2-0.4-0.4-0.4-0.7
				c0-0.7,0-1.5,0-2.2c0-0.5-0.2-1.1-0.2-1.6c-0.1-1-0.1-2.1-0.3-3.1C40.2,305,40.1,304.6,40,304.2z M47,309.2
				c-0.1-1.4-0.4-2.6-2-3.1c-0.4-0.1-0.9-0.2-1.4-0.2c-0.4,0-0.9,0.1-1,0.6c-0.1,0.3-0.1,0.7,0,1c0.1,1.2,0.2,2.5,0.4,3.7
				c0,0.2,0.2,0.4,0.3,0.5c0.7,0.5,2.5,0.3,3-0.4C46.8,310.7,47.1,310.1,47,309.2z"/>
			<path d="M77.7,309.5c0,0,0.2-0.1,0.2-0.2c0.2-1.1,0.7-1.6,1.7-1.9c0.6-0.1,1.1-0.3,1.7-0.3c0.4,0,1-0.1,1.2,0.4
				c0.2,0.3,0.2,0.7,0.2,1.1c0,0.4-0.1,0.9-0.1,1.3c0.2,0.8,0.1,1.5-0.4,2.2c-0.4,0.5-0.7,1.2-1.1,1.7c-0.3,0.4-0.6,0.9-1.1,1.1
				c-0.5,0.2-1.2,0.2-1.8,0.2c-0.2,0-0.5-0.1-0.7,0c-1.9,0.4-3.1-1-3.6-2.4c-0.3-0.8-0.2-1.8-0.2-2.7c0-0.4,0-0.7,0-1
				c0.1-1.4,0.7-2.7,1.1-4c0.1-0.3,0.3-0.7,0.6-1c0.4-0.4,0.6-1,0.9-1.6c0.3-0.7,0.9-1,1.6-0.6c0.2,0.1,0.6,0.1,0.6,0.3
				c0.1,0.4,0.1,0.8,0.1,1.2c-0.1,0.3-0.2,0.7-0.5,0.9c-0.8,0.6-0.9,1.6-1.2,2.4c-0.2,0.7-0.4,1.4-0.6,2.2c-0.1,0.4-0.1,0.9-0.1,1.3
				c0,0.5-0.1,1.1,0,1.6c0,0.5,1,1.2,1.4,1.2c1,0,1.8-0.4,2-1.1c0-0.1,0.1-0.1,0.2-0.1c0.3-0.1,0.7-1,0.5-1.3
				c-0.1-0.1-0.3-0.2-0.5-0.2c-0.3,0-0.6,0.1-0.9,0.1c-0.2,0-0.5,0.1-0.6-0.3C78.4,309.7,78,309.6,77.7,309.5z"/>
			<path d="M38.9,354.8c-0.1-0.9-0.2-1.9-0.4-2.8c-0.2-0.7-0.7-1.2-0.9-1.9c-0.1-0.2,0-0.5,0-0.7c0.2-0.6,0.8-0.9,1.3-1
				c1.1-0.3,2.2-0.4,3.3-0.8c0.7-0.2,1.2,0.2,1.7,0.4c0.6,0.3,1.2,0.6,1.8,0.9c0.4,0.3,0.6,0.7,0.9,1.1c0.3,0.4,0.7,0.8,0.9,1.3
				c0.5,1.3,0.6,2.6-0.1,3.9c0,0.1-0.1,0.1-0.1,0.2c-0.1,0.6-0.5,1-1,1.2c-0.8,0.3-1.6,0.9-2.4,1.1c-1,0.2-2,0.4-3,0.1
				c-0.2-0.1-0.4-0.1-0.6-0.1c-0.8,0-1.2-0.4-1.2-1.2C39,355.9,38.9,355.3,38.9,354.8C38.9,354.8,38.9,354.8,38.9,354.8z
				 M40.7,350.3c-0.1,1.1,0.8,2,0.6,3c-0.1,0.4,0.1,0.8,0.1,1.1c0,0.1,0.1,0.2,0.2,0.3c0.1,0.1,0.2,0.2,0.2,0.4c0,0.3,0,0.5,0,0.8
				c0.3-0.1,0.5-0.1,0.8-0.2c0,0,0,0,0.1,0c0.6,0.1,1.1-0.2,1.6-0.5c0.9-0.6,1.3-1.4,1-2.5c-0.3-1-1-1.8-2-2.3
				C42.3,349.9,41.5,349.7,40.7,350.3z"/>
			<path d="M64.5,330.8c-0.1,1.3-0.2,2.5-0.4,3.7c-0.1,0.4-0.5,0.8-0.9,1c-0.5,0.2-1.2,0.1-1.5-0.3c-0.2-0.2-0.2-0.7-0.1-1
				c0.2-1.2,0.5-2.3,0.7-3.5c0.2-1.1,0.3-2.2,0.4-3.3c0-0.4,0.1-0.9,0.1-1.3c0-0.7,0.6-1,1.1-1.1c0.6-0.2,1.2,0.1,1.6,0.5
				c0.1,0.1,0.1,0.2,0.1,0.4c-0.2,1.3,0.7,2.2,1,3.3c0.2,0.7,0.5,1.5,0.9,2.2c0-0.3,0.1-0.6,0.1-0.9c0-1.3,0.1-2.5,0.1-3.8
				c0,0,0-0.1,0-0.1c-0.6-0.7-0.1-1.1,0.3-1.5c0.5-0.6,1.1-0.6,1.7-0.4c0.3,0.1,0.5,0.4,0.6,0.6c-0.1,0.4-0.2,0.8-0.2,1.2
				c0,1.1,0,2.2,0,3.3c-0.1,1-0.2,2-0.5,3c-0.1,0.5-0.6,1-0.9,1.4c-0.1,0.2-0.2,0.4-0.4,0.6c-0.1,0.1-0.3,0.2-0.4,0.2
				c-0.4-0.1-0.9-0.2-1.2-0.4c-0.3-0.2-0.5-0.7-0.7-1c-0.4-0.9-0.9-1.7-1.3-2.6C64.6,330.8,64.6,330.8,64.5,330.8z"/>
			<path d="M41,324.6c0.2,0,0.4-0.1,0.6-0.1c0.4,0,0.8-0.1,1.2-0.1c0.6,0,1.2,0.1,1.8,0.2c0.8,0,1.5,0.4,2.2,0.8
				c0.3,0.2,0.6,0.4,1,0.7c0.1,0.1,0.1,0.2,0.2,0.3c0.1,0.1,0.1,0.2,0.1,0.3c1.3,1.4,1.4,3,0.8,4.6c-0.3,0.8-1,1.5-1.6,2.1
				c-0.4,0.5-0.9,1-1.5,1.3c-0.6,0.3-1.3,0.5-2,0.6c-0.6,0.1-1.2,0.1-1.7,0c-0.4-0.1-0.8-0.4-1-0.7c-0.3-0.4-0.7-0.8-0.4-1.5
				c0.1-0.2,0.2-0.5,0.2-0.8c-0.1-0.9-0.3-1.7-0.3-2.5c-0.1-0.8-0.1-1.7-0.1-2.5c0-0.5-0.1-0.9-0.1-1.4c0-0.3,0.2-0.6,0.3-0.9
				c0.1-0.2,0.3-0.4,0.4-0.6C41,324.5,41,324.6,41,324.6z M43.3,333.1c0.1,0,0.2,0,0.3,0c0.1,0,0.2-0.1,0.3-0.1
				c1.2-0.5,2.2-1.1,2.5-2.5c0.5-2.3-1-3.8-3.2-3.7c-0.2,0-0.4,0.2-0.5,0.3c0,0.4,0,0.7,0.1,1.1C42.9,329.8,43.1,331.4,43.3,333.1z"
				/>
			<path d="M33.2,331.6c-1.1,0-2.2,0-3.2,0c-0.2,0.9-0.5,1.8-0.7,2.8c-0.1,0.6-0.7,0.7-1.1,0.7c-0.4,0-0.9-0.2-1-0.7
				c-0.1-0.4-0.1-0.9-0.1-1.3c0-1.2,0.6-2.1,1.1-3.2c0.3-0.6,0.5-1.3,0.7-2c0.5-1.2,0.7-2.4,1.5-3.5c0.2-0.3,0.2-0.7,0.7-0.7
				c0.6,0,1.3,0,1.7,0.3c0.5,0.3,0.7,0.9,1,1.4c1.1,1.8,1.4,3.7,1.8,5.7c0.2,0.8,0.4,1.7,0.6,2.5c0.2,0.5-0.4,1.9-0.9,2.1
				c-0.1,0.1-0.4,0-0.5,0c-0.5,0-0.9-0.1-1.2-0.5c-0.1-0.2-0.2-0.4-0.3-0.6C33.3,333.6,33.3,332.6,33.2,331.6z M31.9,326.9
				c-0.2,0.5-0.3,0.9-0.5,1.2c-0.5,0.9-0.4,1.1,0.6,1.1c0.6,0,0.7-0.1,0.6-0.7C32.4,328,32.1,327.5,31.9,326.9z"/>
			<path d="M18.4,336.7c-1.4,0.1-2.5-0.4-3.3-1.3c-0.6-0.7-0.8-1.6-0.8-2.4c0-1,0.1-2,0.5-2.9c0.4-0.9,1.1-1.7,1.7-2.5
				c0.2-0.3,0.8-0.3,1.2-0.5c1.1-0.5,2.2-0.3,3.4-0.1c0.9,0.2,1.5,0.7,1.9,1.4c0.4,0.6,0.8,1.1,1.1,1.8c0.5,0.9,0.2,2-0.2,2.8
				c-0.5,1.2-1.3,2.2-2.5,2.8C20.4,336.3,19.4,336.9,18.4,336.7z M21.7,331.3c0,0-0.1,0-0.1-0.1c0-0.2,0.1-0.5,0-0.7
				c-0.6-0.6-0.9-1.6-2.1-1.6c-0.6,0-1.3-0.1-1.6,0.7c-0.1,0.3-0.2,0.6-0.4,0.9c-0.5,1.1-0.6,2.2-0.2,3.3c0,0.1,0.2,0.3,0.3,0.3
				c0.5,0,1,0.1,1.5,0c0.5-0.1,0.9-0.4,1.4-0.6c0.3-0.1,0.5-0.4,0.7-0.6C21.3,332.4,21.5,331.8,21.7,331.3z"/>
			<path d="M59,312.3c0.3,0.2,0.6,0.4,0.8,0.6c-0.2,0.4-0.5,0.7-0.6,1.1c-0.2,1-0.5,1.1-1.4,1.2c-0.3,0.1-0.7,0-1,0
				c-1.4,0.1-2.8,0.2-4.1,0.2c-0.3,0-0.6-0.1-1-0.2c0-0.2,0-0.4-0.1-0.5c-0.4-0.9,0.1-1.8,1.1-1.9c0.5,0,1.1,0.1,1.4-0.2
				c0.2-0.2,0.1-0.8,0.1-1.3c0-1,0-2,0-3c0-1.1-0.1-2.1-0.2-3.3c-0.9,0.1-1.6,0.2-2.3,0.3c-0.4,0.1-0.9-0.4-0.9-0.8
				c0-0.1,0-0.2-0.1-0.3c-0.3-0.5-0.1-0.7,0.3-1c0.6-0.5,1.3-0.4,2-0.4c1.5-0.1,2.9,0,4.3-0.5c0.4-0.2,1-0.2,1.4-0.1
				c0.3,0,0.5,0.3,0.7,0.5c0.2,0.2,0.2,0.4,0.3,0.5c-0.1,0.3-0.1,0.5-0.2,0.8c0,0.1-0.2,0.3-0.3,0.3c-0.5,0.1-1.1,0.3-1.6,0.3
				c-1.2,0.1-1.4,0.3-1.2,1.5c0.1,1.1,0.1,2.2,0.2,3.3c0.1,0.7,0.3,1.5,0.4,2.2c0,0.2-0.2,0.4-0.4,0.7c0.4,0.1,0.8,0.3,1.2,0.3
				C58.1,312.6,58.5,312.4,59,312.3z"/>
			<path d="M19.3,304.1c0,0,0.1,0.1,0.2,0.1c0.8-0.1,1.5,0.3,2.1,0.7c0.6,0.3,1.3,0.5,1.6,1.3c0.1,0.2,0.3,0.4,0.5,0.6
				c1.3,1.3,1.4,3.9,0,5.2c-1,1-2,1.8-3.2,2.3c-1.4,0.7-3.5,0.4-4.8-0.9c-0.9-0.8-1-2-1.2-3c-0.1-0.4,0.3-0.9,0.4-1.4
				c0.1-0.3,0.2-0.5,0.3-0.8c0.4-1.5,1.4-2.3,2.7-3.1C18.3,304.8,18.8,304.5,19.3,304.1z M19.2,312.2c0.4-0.2,0.7-0.6,1.2-0.6
				c0.8-0.1,1.3-0.6,1.7-1.3c0.4-0.6,0.4-1.2,0.2-1.8c-0.2-0.7-0.9-1-1.5-1.5c-0.3-0.2-0.6-0.4-1,0c-0.1,0.1-0.3,0.1-0.5,0.2
				c-0.8,0.3-1.6,0.6-1.8,1.5c-0.1,0.5-0.2,0.9-0.2,1.4c0,0.5,0,1.1,0.3,1.3C17.9,311.9,18.5,312,19.2,312.2z"/>
			<path d="M69,345.9c0.1,0.1,0.3,0.2,0.3,0.2c-0.1,0.3-0.2,0.6-0.3,0.9c0,0.1,0,0.3-0.1,0.4c-0.1,0.4-0.3,0.7-0.1,1.1
				c0.1,0.3-0.2,0.7-0.2,1.1c0,1.2,0,2.3-0.5,3.4c-0.1,0.2,0.1,0.4,0.1,0.6c-0.1,0.4-0.3,0.8-0.6,1.2c-0.1,0.2-0.3,0.4-0.4,0.6
				c-0.3-0.1-0.7-0.2-1-0.4c-0.4-0.3-0.8-0.5-1.1-0.9c-0.7-0.8-1.3-1.8-2.1-2.8c0,1.4-0.9,2.6-0.5,4c-0.2,0.2-0.5,0.6-0.9,0.7
				c-0.5,0.2-1,0.4-1.5-0.1c-0.4-0.4-0.4-1-0.3-1.5c0.3-1.3,0.6-2.5,0.8-3.8c0.1-0.7,0.1-1.5,0.1-2.2c0-1,1.1-1.8,2-1.5
				c0.2,0.1,0.4,0.3,0.5,0.5c0.6,0.8,1.2,1.6,1.7,2.5c0.3,0.4,0.4,0.9,1,1.1c0.4-1.7,0.6-3.5,0.1-5.2c0.9-1.2,0.5-1.5,2.9-0.9
				C69,345.4,69,345.6,69,345.9z"/>
			<path d="M44.8,372.1c-0.1,0.1-0.3,0.3-0.3,0.5c-0.3,1.5-1.2,2.6-2.7,3.3c-0.5,0.2-1,0.4-1.4,0.6c-0.1,0.1-0.3,0-0.5,0
				c-0.2,0-0.5-0.1-0.7,0c-0.6,0.3-0.9,0-1.3-0.3c-0.2-0.1-0.5-0.2-0.7-0.1c-0.4,0-1.3-0.7-1.3-1.1c0-0.2-0.1-0.4-0.1-0.4
				c0-0.5,0.1-0.8,0.1-1.1c-0.1-1.7-0.3-3.4-0.4-5.1c0-0.5,0.4-1,0.8-1c1.2-0.1,2.4-0.1,3.6-0.2c1.6-0.1,2.7,0.7,3.7,1.7
				c0.4,0.4,0.5,1,0.7,1.5C44.6,370.8,44.7,371.4,44.8,372.1z M38.1,369.1c0.1,1.2,0.2,2.3,0.3,3.3c0,0.5-0.1,1.1,0.6,1.4
				c0.4,0.2,0.7,0.3,1.1,0.2c0.2-0.1,0.5-0.1,0.7-0.2c0.4-0.3,0.9-0.6,1.1-1c0.3-0.5,0.3-1,0.4-1.6c0.1-0.6-0.8-1.9-1.4-1.9
				C39.9,369.2,39,369.2,38.1,369.1z"/>
			<path d="M80.8,330.5c-0.1,0.5-0.3,1.1-0.4,1.6c-0.2,1-0.8,1.7-1.6,2.3c-0.8,0.5-1.7,0.6-2.5,0.4c-1.1-0.3-2.2-0.6-2.8-1.8
				c-0.4-0.8-0.7-1.5-0.6-2.3c0.1-1.1,0.3-2.1,0.5-3.2c0.1-0.6,0.3-1.3,0.7-1.8c0.3-0.4,0.8-0.7,1.2-0.9c0.5-0.2,1-0.1,1.5,0
				c0.1,0,0.3,0.2,0.3,0.3c0.1,0.2,0.3,0.4,0.4,0.6c-0.2,0.4-0.4,0.8-0.7,1.1c-0.1,0.2-0.4,0.2-0.6,0.4c-0.5,0.4-0.4,1.1-0.5,1.7
				c-0.1,0.7-0.1,1.5-0.1,2.2c0,1.2,0.5,1.5,1.6,1.2c0.2-0.1,0.3-0.1,0.6-0.2c0.1-0.5,0.1-1.1,0.2-1.6c0-0.4,0-0.6-0.5-0.6
				c-0.4,0-0.8-0.1-1.3-0.2c0-0.2,0.1-0.3,0-0.5c0-0.2-0.3-0.5-0.2-0.7c0.2-0.4,0.5-0.8,0.8-0.9c1.3-0.6,3.6-0.1,4.6,0.9
				c0.3,0.3,0.6,0.7,0.8,1c0.1,0.1,0.1,0.4,0,0.5C82.2,330.5,81.4,330.8,80.8,330.5z"/>
			<path d="M6.2,326.9c0.3,0,0.6,0.1,0.9,0.1c-0.6,0.9-0.4,1.9-0.5,2.8c0,1.1,0,2.2-0.1,3.2c0,0.6-0.1,1.1-0.2,1.7
				c0,0.1,0.2,0.3,0.4,0.3c0.6,0.1,1.3,0.1,1.9,0.1c0.1,0,0.3,0,0.4-0.1c0.1,0,0.2-0.1,0.2-0.1c0.5,0.6,1.6-0.1,1.8,1
				c0,0.1,0.2,0.2,0.3,0.3c-0.4,0.6-0.5,1.3-1.3,1.5c-1.5,0.3-3.1,0.4-4.6-0.2c-0.2-0.1-0.5-0.1-0.8-0.1c-1.1,0.1-2.1-0.9-2-2.1
				c0-0.3-0.1-0.6-0.1-0.9c0-0.4,0.1-0.9,0.2-1.3c0.1-0.4,0.1-0.8,0.2-1.2c0.1-1.6,0.2-3.2,0.2-4.8c0-0.5-0.2-1,0-1.6
				c0.1-0.3,0.2-0.3,0.4-0.4c1.3-0.4,2.2,0.5,2.5,1.6C6.2,326.8,6.2,326.9,6.2,326.9z"/>
			<path d="M56.1,326.8c0.2,1.3,0.4,2.6,0.5,3.9c0,0.7-0.1,1.3-0.1,2c0,0.2,0,0.3,0.1,0.5c0.2,0,0.4-0.1,0.6-0.1
				c0.4,0.2,0.9,0.4,1.4,0.7c0.5,0.3,0.6,0.8,0.1,1.1c-0.3,0.3-0.2,0.9-0.8,0.8c-0.4-0.1-0.8-0.1-1.2-0.1c-0.3,0-0.8-0.3-1,0.3
				c0,0.1-0.6,0.1-0.9,0.1c-0.6-0.1-1.1-0.1-1.7,0.1c-0.6,0.2-1.3-0.1-1.6-0.6c-0.2-0.2-0.2-0.7-0.1-1c0.2-0.5,0.6-0.8,1.2-0.8
				c1.6,0,1.6,0,1.6-1.6c0-0.8,0.2-1.7,0.1-2.5c-0.1-0.8-0.3-1.5-0.5-2.3c0-0.1-0.3-0.3-0.4-0.3c-0.6,0-1.2,0.1-1.8,0.1
				c-0.5,0-0.9-0.3-1.3-0.5c-0.3-0.2,0.1-1.1,0.3-1.4c0.3-0.4,0.7-0.4,1.1-0.4c1.7,0,3.4-0.1,5.1-0.1c0.5,0,1,0,1.4,0.1
				c0.3,0.1,0.5,0.4,0.7,0.7c0.2,0.3,0.3,0.5,0,0.9c-0.6,0.9-1.3,0.9-2.2,0.7C56.3,326.9,56.2,326.9,56.1,326.8z"/>
			<path d="M34.2,304.9c-0.5,0.2-0.7,0.8-0.4,1.2c0.4,0.8,0.7,1.7,1.1,2.5c0.1,0.3,0.3,0.6,0.5,0.8c0.5,0.6,0.7,1.3,1.3,1.9
				c0.4,0.4,0.6,1.3,0.4,1.9c-0.1,0.2-0.4,0.4-0.7,0.5c-0.8,0.3-1.6-0.3-1.8-1.1c0-0.3-0.2-0.5-0.3-0.8c-0.5,0.6-1,0.9-1.7,0.5
				c-0.2-0.1-0.6,0-0.9,0c-0.3,0-0.6,0-0.8-0.1c-0.5-0.4-0.8-0.3-0.8,0.4c0,0.2-0.1,0.4-0.2,0.7c-0.3,0.9-0.9,1.3-1.9,1.1
				c-0.5-0.1-0.8-0.9-0.6-1.4c0.2-0.4,0.3-0.9,0.5-1.3c0.1-0.3,0.3-0.5,0.4-0.8c0.4-0.9,0.7-1.8,1-2.7c0.3-0.6,0.5-1.3,0.8-1.9
				c0.1-0.3,0.1-0.7,0.1-1c0-0.1,0-0.2,0.1-0.2c0.7-0.6,1.2-1.5,2.3-1.5c0.1,0,0.2,0,0.2,0C33.2,304,33.6,304.4,34.2,304.9z
				 M33.1,310c-0.5-0.9-0.9-1.7-1.3-2.5c-0.3,0.8-0.5,1.6-0.8,2.3C31.7,309.8,32.3,309.9,33.1,310z"/>
			<path d="M55.4,367c-0.4,0.1-0.7,0.2-1,0.3c-0.1,0-0.2,0.1-0.3,0.1c-0.6-0.4-1.2,0-1.8-0.1c-0.4,0-0.5,0.1-0.4,0.5
				c0.1,0.5,0,1.1,0,1.7c0.1,1.1,0.2,2.2,0.3,3.3c0,0.1,0.3,0.2,0.5,0.2c0.1,0,0.2-0.1,0.4-0.2c1-0.2,1.9-0.9,2.9,0.2
				c-0.1,0.5-0.2,1-0.9,1.3c-0.8,0.5-1.5,1.1-2.6,1.1c-0.2,0-0.3,0.3-0.5,0.5c0,0,0,0.1-0.1,0.2c-0.1,0.1-0.2,0.3-0.2,0.3
				c-0.6-0.2-1.3,0.3-1.8-0.3c-0.1-0.1-0.2-0.1-0.3-0.1c-1.2,0.3-1.5-0.5-1.8-1.4c-0.2-0.5,0.2-0.6,0.4-0.7c0.3-0.1,0.7-0.2,1-0.3
				c0.5-2.1,0-4.1,0-6.2c-0.2,0-0.4-0.1-0.6,0c-0.8,0.3-1.1-0.3-1.4-0.7c-0.4-0.4-0.3-1,0.2-1.3c0.4-0.2,0.8-0.4,1.4-0.4
				c0.8,0.1,1.6-0.1,2.4-0.1c1.2,0,2.4-0.5,3.6-0.2c0.5,0.1,0.8,0.4,0.6,0.9C55.3,366.3,55.4,366.7,55.4,367z"/>
			<path d="M56.6,372.4c0.8-0.2,1-1,1.1-1.5c0.4-1.2,0.5-2.5,0.8-3.8c0.1-0.4,0.2-0.9,0.4-1.3c0.2-0.5,0.8-0.4,1.2-0.5
				c0.2,0,0.4,0,0.6,0c0.9,1.1,1.8,2.3,2.8,3.4c0.1-0.1,0.2-0.1,0.2-0.2c0.2-0.9,0.4-1.7,0.5-2.6c0.2-1,0.8-1.7,1.9-1.8
				c0.2,0,0.4-0.1,0.6-0.2c0.2,0.3,0.6,0.6,0.6,1c0,0.5-0.1,1.2-0.4,1.6c-0.4,0.6-0.6,1.1-0.6,1.8c0,0.6-0.2,1.3-0.3,1.9
				c-0.1,0.6-0.3,1.1-0.3,1.7c0,0.4-0.2,0.5-0.6,0.5c-0.1,0-0.3,0-0.4,0c-1,0.4-1.6,0.1-2.1-1c-0.2-0.5-0.6-0.9-0.9-1.3
				c-0.2-0.3-0.4-0.7-0.7-1.1c-0.1,0.4-0.2,0.7-0.3,1.1c-0.1,0.6-0.2,1.3-0.4,2c-0.1,0.3-0.3,0.6-0.6,0.8c-0.3,0.4-0.7,0.9-1.1,1
				C57.4,374.2,56.8,373.7,56.6,372.4z"/>
			<path d="M20.3,357.8c-0.2,0.2-0.3,0.3-0.5,0.4c-0.7,0.2-1.4,0.5-2.1,0.5c-1.4,0.1-2.7-0.2-3.6-1.4c-0.4-0.6-0.7-1.3-0.8-2
				c-0.2-1.3,0.3-2.4,0.7-3.5c0.3-0.8,1.1-1.4,1.9-1.8c0.5-0.3,1-0.4,1.5-0.3c0.6,0.1,1.2-0.1,1.9,0.1c0.9,0.3,1.5,0.6,1.9,1.5
				c0.6,1.2,0.8,2.4,0.9,3.7c0.1,0.6-0.2,1.2-0.6,1.7c-0.2,0.3-0.5,0.7-0.7,1C20.7,357.9,20.5,358,20.3,357.8z M17.5,352.3
				c-0.6-0.5-1-0.5-1.2,0.4c-0.1,0.2-0.1,0.4-0.2,0.5c-0.5,0.7-0.3,1.4-0.4,2.1c0,0.2,0.2,0.5,0.4,0.6c0.8,0.6,1.7,0.7,2.5,0.3
				c0.7-0.4,1.1-0.9,0.8-1.9c-0.2-0.6-0.2-1.3-0.4-2c-0.2-0.6-0.5-0.5-0.9-0.4C18,351.9,17.8,352.1,17.5,352.3z"/>
			<path d="M26.6,358c-0.5-0.4-1-0.8-1.4-1.2c0.3-0.7,0.6-1.4,0.9-2.1c0.3-0.9,0.7-1.7,0.9-2.6c0.2-0.7,0.4-1.5,0.5-2.2
				c0.1-0.6,0.4-0.9,0.9-1c0.3-0.1,0.6-0.2,1.1-0.4c0.9,1,1.8,2.1,2.7,3.2c0.3,0.4,0.5,0.9,0.8,1.4c0.3,0.5,0.7,0.9,1.1,1.4
				c0.3,0.5,0.6,1.1,0.9,1.7c0.1,0.3,0.3,0.6,0.4,0.9c0.1,0.6-0.4,0.8-0.8,1.1c-0.8,0.6-1.8,0.1-2.1-0.8c-0.1-0.4-0.3-0.8-0.5-1.2
				c-0.1-0.2-0.5-0.2-0.7-0.2c-0.9,0-1.8,0-2.7,0c-0.2,0-0.5,0.2-0.5,0.3C28.1,357.3,27.4,357.7,26.6,358z M29.4,352.6
				c0-0.1,0.1-0.1,0.1-0.2C29.4,352.4,29.4,352.5,29.4,352.6c-0.5,0.8-0.3,1.1,0.5,1.2c0.2,0,0.4,0.1,0.6,0.1c0.1,0,0.2,0,0.3-0.1
				c-0.3-0.3-0.4-0.5-0.7-0.7C29.9,352.9,29.6,352.7,29.4,352.6z"/>
			<path d="M76.2,350.1c0.3-0.5,0.7-1,1.4-1c1,0,2-0.6,3-0.3c0,0.3,0.1,0.6,0.1,0.8c0,0.1,0.1,0.3,0,0.4c-0.4,0.4-0.2,0.9-0.1,1.3
				c0,0.4-0.3,0.9-0.3,1.3c0.1,0.9-0.6,1.1-1.1,1.6c-0.8,0.7-1.8,0.9-2.7,1.2c-0.5,0.2-1,0.1-1.6,0.2c0.1-0.1,0.1-0.2,0.2-0.2
				c-0.4-0.3-0.8-0.6-1.2-0.9c-1.5-1.1-1.7-2.6-1.5-4.3c0.2-1.1,0.5-2.3,0.9-3.4c0.3-0.7,0.7-1.3,1.3-1.9c0.4-0.3,0.6-0.8,1.1-0.8
				c0.5,0,1,0.2,1.5,0.2c0,0.3,0,0.7,0,1c0,0.1,0,0.3-0.1,0.3c-1.1,0.5-1.4,1.6-1.8,2.6c-0.4,1-0.4,2.1-0.3,3.1
				c0,0.4,0.3,0.9,0.5,1.3c0.3,0.6,0.9,0.3,1.3,0.3c0.7-0.1,1.5-0.8,1.4-1.3c0-0.3-0.1-0.4-0.5-0.5
				C76.9,351.2,76.2,351.1,76.2,350.1z"/>
			<path d="M50.2,355.7c0.8-0.1,1.5-0.2,2.2-0.4c0.1,0,0.1-0.2,0.1-0.3c-0.4-0.7-0.5-1.4-0.5-2.2c0-0.4-0.1-0.8-0.2-1.2
				c-0.1-0.5-0.2-1-0.3-1.5c-0.1-0.3-0.2-0.5-0.6-0.5c-0.4,0-0.7-0.1-1.1,0c-0.8,0.2-1.3-0.5-1.9-0.7c-0.1,0-0.1-0.3-0.1-0.5
				c0-0.2,0.1-0.4,0.1-0.7c0.9-0.7,1.9-0.6,3.1-0.3c0.4,0.1,0.9,0.2,1.4,0.1c0.8-0.2,1.6-0.3,2.5-0.2c0.2,0,0.5-0.1,0.8-0.1
				c0.2,0.3,0.8,0.6,0.6,1.3c-0.1,0.5-0.4,0.8-0.9,0.9c-0.5,0.1-1,0.2-1.5,0.4c0.3,1.3,0.5,2.7,0.8,4.1c0.1,0.4,0,1.1,0.7,1.2
				c0.3,0,0.6,0,0.8,0c0.4-0.1,1.4,0.2,1.5,0.5c0.1,0.3,0,0.6-0.2,0.9c-0.2,0.3-0.5,0.5-0.8,0.6c-1,0.5-2.1,0.2-3.2,0.4
				c-0.6,0.1-1.2,0.1-1.8,0.2c-0.6,0.1-1.7-0.4-1.9-0.9C50,356.3,50.2,355.9,50.2,355.7z"/>
			<path d="M14.9,370.7c0.5,0.1,1.1,0.3,1.6,0.3c1.2,0.1,2.3,0.2,3.3,0.9c0.1,0.1,0.3,0.1,0.4,0.1c0.1,0.4,0,0.8,0.2,1.1
				c0.5,1,0.3,1.9-0.4,2.7c-0.1,0.1-0.2,0.2-0.1,0.2c0.2,1.1-0.8,1.5-1.5,1.8c-1.4,0.6-3,0.8-4.5,0.3c-0.8-0.3-1.3-0.9-1.7-1.5
				c-0.6-0.9-0.7-1.9-0.6-2.9c0-0.7,0.5-1.3,0.9-2c0.4-0.8,1.2-1,2-1.1c0.2,0,0.3-0.1,0.5-0.2C14.9,370.6,14.9,370.7,14.9,370.7z
				 M14.1,374.4c0,1.2,0.5,1.8,1.5,1.9c0.7,0.1,1.4,0,1.9-0.8c0.3-0.5,0.5-0.9,0.5-1.4c0-0.3,0-0.6-0.4-0.6
				c-0.6-0.1-1.1-0.2-1.7-0.4C14.9,372.8,14.1,373.3,14.1,374.4z"/>
			<path d="M2.5,358.5c-0.3-0.4-0.6-0.8-0.9-1.3c0.7-1.4,0.7-2.8,0.4-4.3c-0.1-0.5,0-1.1-0.1-1.6c-0.1-0.8-0.1-1.5-0.2-2.2
				c-0.1-0.4-0.1-0.8,0.4-0.9c0.4-0.1,0.7-0.4,1.1-0.4c0.7-0.1,1.2,0.4,1.2,1.1c0.1,1.7,0.3,3.3,0.3,5c0,0.7,0,1.4-0.1,2
				c0.8,0,1.5,0,2.3,0c0.5,0,1,0.1,1.5,0.1c0.7,0,1.5,0,2.2,0.1c0.4,0,0.5,0.3,0.5,0.7c0,0.3,0.2,0.7,0.1,1
				c-0.1,0.3-0.5,0.6-0.7,0.7c-0.6,0.1-1.3,0.1-1.9,0.1c-1.7-0.2-3.4-0.4-5.1,0C3.3,358.6,2.9,358.5,2.5,358.5z"/>
			<path d="M4.7,315.1c-0.3-0.4-0.7-0.8-1-1.3c-0.1-0.2-0.2-0.5-0.1-0.7c0.2-0.8,0.4-1.6,0.6-2.4c0.2-1.3,0.4-2.6,0.6-3.8
				c0.1-0.5,0.1-1-0.1-1.5c-0.2-0.6,0.4-0.8,0.6-1.1c0.2-0.2,0.5-0.5,0.9-0.2c0.7,0.4,1.1,1.4,0.8,2.2c-0.1,0.2,0,0.6,0,0.8
				c-0.1,1.1-0.2,2.2-0.4,3.3c-0.1,0.6-0.2,1.2-0.3,2c0.4-0.1,0.6-0.1,0.8-0.1c0.9-0.1,1.8-0.2,2.8-0.2c0.4,0,0.8-0.1,1.2-0.1
				c0.9-0.1,1.8,1,1.7,2c0,0.1-0.1,0.1-0.2,0.2c-0.1,0.1-0.2,0.2-0.2,0.2c0,0.7-0.4,0.5-0.8,0.5c-1,0-2.1,0-3.1,0
				c-0.8,0-1.6,0.1-2.4,0.1c-0.4,0-0.8,0.1-1.1,0.1C4.8,315,4.7,315.1,4.7,315.1z"/>
			<path d="M27.9,368c0.3,0.2,0.6,0.4,1,0.7c0.1,0,0.2,0.1,0.2,0.1c-0.2,1,0.7,1.6,1,2.5c0.4,1.2,1.1,2.4,1.9,3.5
				c0.2,0.3,0.1,0.8,0.2,1.2c0,0.5-0.3,0.7-0.8,0.7c-0.2,0-0.3,0.1-0.5,0.2c-0.2-0.1-0.4-0.2-0.6-0.3c-0.5-0.3-0.8-0.7-0.9-1.3
				c-0.1-0.6-0.5-0.6-0.9-0.6c-0.3,0-0.6,0.2-0.8,0.2c-0.2-0.2-0.5-0.4-0.8-0.7c-0.2,0.7-0.4,1.3-0.7,2c-0.4,0-1,0-1.6,0
				c-0.9,0-0.5-1-0.8-1.2c0.5-1,1-1.9,1.4-2.9c0.3-0.6,0.5-1.2,0.7-1.8c0.1-0.2,0.2-0.4,0.1-0.5c-0.2-0.7,0.3-1.1,0.7-1.5
				c0.1-0.1,0.3-0.1,0.5-0.2C27.3,368.1,27.6,368,27.9,368z"/>
			<path d="M9.4,378.1c-0.2,0.3-0.4,0.7-0.6,0.7c-0.5,0.2-1.1,0.3-1.6,0.3c-0.4,0-0.7,0-1.1,0c-0.9,0.2-1.7,0.4-2.6,0.6
				c-0.1,0-0.2,0-0.3,0.1c-0.5,0.5-1,0.3-1.5,0.1c-0.7-0.2-0.9-0.6-1-1.3c-0.1-0.5-0.3-1-0.5-1.5c-0.4-1.1-0.2-2.1,0-3.2
				c0.2-0.9,0-1.9,0-2.8c0-0.6-0.2-1.2,0.4-1.6c0.4-0.3,0.9-0.3,1.3,0c0.8,0.5,1,1.2,0.8,2.1c-0.1,0.7,0.1,1.4,0.1,2.1
				c0,0.4-0.2,0.9-0.3,1.3c0,0.3,0,0.6,0.1,0.9c0.2,0.5,0.7,0.9,0.8,1.5c0,0.1,0.2,0.1,0.4,0.1c0.7-0.2,1.3-0.4,2-0.6
				c0.2-0.1,0.5,0,0.8-0.1c0.5,0,1,0,1.5-0.1c0.4-0.1,0.5,0,0.7,0.3C9,377.3,9.2,377.7,9.4,378.1z"/>
			<path fill="#FFFFFF" d="M41.6,276.3c3.4-0.5,6.4-1.8,8.7-4.4c0.1,0.3,0.2,0.7,0.3,1c0.1,0.8,0.3,1.5,0.4,2.3
				c0.1,1.4,0.3,2.8,0.4,4.1c0,0.6-0.1,1.2-0.3,1.8c0,0.1-0.5,0.3-0.6,0.2c-1.2-0.4-2.3-0.9-3.4-1.4c-0.7-0.3-1.4-0.7-2-1.1
				c-0.6-0.4-1.2-0.9-1.8-1.3c-0.5-0.4-1-0.7-1.5-1.1C41.6,276.5,41.6,276.4,41.6,276.3z"/>
			<path fill="#FFFFFF" d="M36.7,278c-0.1,0.6-0.1,1.1-0.2,1.7c0,0.4,0,0.7,0.1,1.1c0.3,1.2,0.6,2.5,1.1,3.7c0.5,1.1,1.2,2,1.8,3
				c0.3,0.5,0.6,1.1,1,1.5c0.5,0.6,1.1,1,1.8,1.6c-0.3,0.1-0.6,0.3-1,0.4c-1.2,0.3-2.3,0.5-3.5,0.7c-0.5,0.1-1.3-0.4-1.6-0.9
				c-0.3-0.6-0.8-1.1-1.1-1.8c-0.2-0.5-0.4-1-0.5-1.6c-0.2-1.3-0.4-2.6-0.1-3.9c0.2-0.8,0.2-1.7,0.9-2.3c0.1-0.1,0.2-0.5,0.2-0.7
				c-0.1-1,0.8-1.6,0.8-2.6C36.5,277.9,36.6,277.9,36.7,278z"/>
			<path fill="#FFFFFF" d="M28.5,289.1c-0.9-0.7-1.8-1.3-2.6-2c-0.6-0.6-1.2-1.2-1.5-2c0-0.1,0-0.1,0-0.2c-1-1-0.3-1.9,0-2.9
				c0.4-1.4,1.3-2.5,2.5-3.4c0.6-0.5,1.1-1.2,1.8-1.6c0.7-0.4,1.4-0.8,2.2-0.9c0.4-0.1,0.8-0.4,1.2-0.6c0,0,0.1,0.1,0.1,0.1
				c-0.1,0.2-0.2,0.3-0.4,0.4c-0.9,0.6-1.6,1.3-2,2.3c-0.7,1.6-1.1,3.3-1.4,5c-0.1,0.7-0.3,1.3-0.3,2c0,0.8,0.2,1.6,0.3,2.3
				c0.1,0.5,0.2,0.9,0.4,1.4C28.6,289,28.6,289,28.5,289.1z"/>
			<path fill="#FFFFFF" d="M47.4,287c-0.6,0.5-1.1,1-1.6,1.5c-0.5,0.4-1,0.8-1.5,1.2c-0.3,0.2-0.6,0.3-0.9,0
				c-0.3-0.3-0.8-0.6-1.1-0.9c-0.7-0.5-1.1-1.3-1.3-2.1c0,0,0-0.1,0-0.1c-0.9-0.3-1-1.2-1.4-1.9c-0.4-0.8-0.8-1.6-1.1-2.5
				c-0.2-0.6-0.3-1.3-0.4-1.9c-0.1-0.8-0.2-1.6-0.2-2.5c0-0.1,0-0.2,0.1-0.4C39.9,281.6,43,284.8,47.4,287z"/>
			<path fill="#FFFFFF" d="M43.8,263.9c0.4,0.3,0.8,0.6,1.1,0.8c1.1,1,2.2,2,3.2,3.1c0.5,0.6,1,1.2,1.3,1.9c0.1,0.3-0.2,0.8-0.4,1.1
				c-0.8,1.3-2.1,2.1-3.4,2.7c-0.9,0.4-1.9,0.7-2.8,1c-0.1,0-0.2,0-0.5,0C44.2,271.1,44.6,267.6,43.8,263.9z"/>
			<path fill="#FFFFFF" d="M33.7,273.7c-0.4,0.1-0.9,0.3-1.3,0.4c-1.7,0.3-3.2,1-4.7,1.8c-0.8,0.5-1.6,1.1-2.3,1.8
				c-0.7,0.7-1.4,1.4-2,2.2c-0.2,0.3-0.3,0.7-0.5,1.2c-0.1-0.3-0.2-0.4-0.2-0.6c-0.1-1.4-0.2-2.8-0.1-4.2c0-0.9,0.2-1.9,1.2-2.3
				c0.2-0.7,1-0.6,1.6-1c0.3-0.2,0.8-0.2,1.3-0.2c1.4,0,2.9-0.1,4.3,0c0.9,0.1,1.8,0.4,2.8,0.6C33.7,273.6,33.7,273.6,33.7,273.7z"
				/>
			<path fill="#FFFFFF" d="M26,267.1c1-0.7,1.2-2,2.4-2.5c0-0.1,0-0.3,0-0.7c0.4,0.3,0.6,0.5,0.8,0.7c0.2-0.2,0.3-0.3,0.5-0.5
				c0.2-0.2,0.4-0.3,0.6-0.5c0.1-0.1,0.2-0.2,0.3-0.1c0.5,0.2,1,0.4,1.6,0.7c1.5,0.9,2,2.3,3,3.6c0.5,0.6,0.9,1.4,1.3,2.1
				c-0.1,0.1-0.1,0.1-0.2,0.2c-0.1,0-0.3-0.1-0.4-0.1c-0.8-0.5-1.5-1-2.4-1.3c-0.7-0.3-1.4-0.7-2.1-1c-0.6-0.2-1.2-0.2-1.9-0.3
				c-1-0.1-2.1-0.1-3.1-0.1C26.4,267.2,26.3,267.1,26,267.1z"/>
			<path fill="#FFFFFF" d="M38.4,271.8c0-0.6,0-1.1-0.1-1.5c-0.3-0.9-0.5-1.8-1.1-2.6c-0.6-0.7-1.1-1.5-1.7-2.2
				c-0.2-0.3-0.3-0.6-0.5-0.9c-0.6-0.7-1.3-1.3-2-2.1c0,0,0.1-0.1,0.2-0.1c1.1,0,2.1-0.7,3.2-0.4c0.2,0.1,0.4,0.4,0.6,0.6
				c0.1,0.1,0.1,0.3,0.1,0.4c0.9,1,1.2,1.6,1.5,3.1c0.1,0.7,0.3,1.3,0.3,2c0,1.1-0.2,2.2-0.4,3.3C38.7,271.5,38.6,271.6,38.4,271.8z
				"/>
			<path fill="#FFFFFF" d="M47,309.2c0.1,0.8-0.2,1.5-0.7,2.1c-0.5,0.7-2.3,0.9-3,0.4c-0.1-0.1-0.3-0.3-0.3-0.5
				c-0.1-1.2-0.3-2.5-0.4-3.7c0-0.3,0-0.7,0-1c0.1-0.5,0.6-0.6,1-0.6c0.5,0,0.9,0.1,1.4,0.2C46.6,306.7,46.9,307.8,47,309.2z"/>
			<path fill="#FFFFFF" d="M40.7,350.3c0.8-0.6,1.7-0.4,2.5,0.1c1,0.5,1.7,1.3,2,2.3c0.3,1,0,1.9-1,2.5c-0.5,0.3-1,0.6-1.6,0.5
				c0,0,0,0-0.1,0c-0.3,0.1-0.5,0.1-0.8,0.2c0-0.3,0-0.5,0-0.8c0-0.1-0.1-0.2-0.2-0.4c-0.1-0.1-0.2-0.2-0.2-0.3
				c-0.1-0.4-0.2-0.8-0.1-1.1C41.4,352.2,40.6,351.4,40.7,350.3z"/>
			<path fill="#FFFFFF" d="M43.3,333.1c-0.2-1.7-0.4-3.3-0.6-4.9c0-0.4-0.1-0.8-0.1-1.1c0-0.1,0.3-0.3,0.5-0.3
				c2.2,0,3.7,1.4,3.2,3.7c-0.3,1.4-1.3,2-2.5,2.5c-0.1,0-0.2,0.1-0.3,0.1C43.5,333.1,43.4,333.1,43.3,333.1z"/>
			<path fill="#FFFFFF" d="M31.9,326.9c0.2,0.7,0.5,1.2,0.6,1.7c0.2,0.6,0,0.7-0.6,0.7c-1-0.1-1.1-0.2-0.6-1.1
				C31.6,327.8,31.7,327.4,31.9,326.9z"/>
			<path fill="#FFFFFF" d="M21.7,331.3c-0.2,0.5-0.4,1.1-0.6,1.6c-0.1,0.3-0.4,0.5-0.7,0.6c-0.4,0.2-0.9,0.5-1.4,0.6
				c-0.5,0.1-1,0-1.5,0c-0.1,0-0.2-0.2-0.3-0.3c-0.3-1.1-0.3-2.2,0.2-3.3c0.1-0.3,0.2-0.6,0.4-0.9c0.3-0.7,1-0.7,1.6-0.7
				c1.1-0.1,1.5,0.9,2.1,1.6c0.1,0.1,0,0.4,0,0.7C21.6,331.3,21.6,331.3,21.7,331.3z"/>
			<path fill="#FFFFFF" d="M19.2,312.2c-0.7-0.3-1.3-0.3-1.7-0.7c-0.3-0.3-0.3-0.9-0.3-1.3c0-0.5,0.1-0.9,0.2-1.4
				c0.2-1,1-1.3,1.8-1.5c0.2-0.1,0.4-0.1,0.5-0.2c0.4-0.4,0.7-0.2,1,0c0.6,0.4,1.3,0.7,1.5,1.5c0.2,0.6,0.2,1.2-0.2,1.8
				c-0.4,0.6-0.8,1.1-1.7,1.3C19.9,311.6,19.5,312,19.2,312.2z"/>
			<path fill="#FFFFFF" d="M38.1,369.1c1,0.1,1.8,0.1,2.7,0.2c0.6,0.1,1.5,1.3,1.4,1.9c-0.1,0.5-0.1,1.1-0.4,1.6
				c-0.2,0.4-0.7,0.7-1.1,1c-0.2,0.1-0.4,0.1-0.7,0.2c-0.4,0.1-0.7,0-1.1-0.2c-0.7-0.4-0.6-0.9-0.6-1.4
				C38.3,371.4,38.2,370.3,38.1,369.1z"/>
			<path fill="#FFFFFF" d="M33.1,310c-0.8-0.1-1.4-0.1-2.1-0.2c0.3-0.8,0.5-1.5,0.8-2.3C32.2,308.3,32.6,309.1,33.1,310z"/>
			<path fill="#FFFFFF" d="M17.5,352.3c0.3-0.2,0.5-0.3,0.8-0.4c0.4-0.1,0.7-0.2,0.9,0.4c0.2,0.7,0.2,1.4,0.4,2
				c0.3,1-0.2,1.5-0.8,1.9c-0.8,0.4-1.7,0.3-2.5-0.3c-0.2-0.1-0.4-0.4-0.4-0.6c0.1-0.7-0.1-1.5,0.4-2.1c0.1-0.1,0.1-0.3,0.2-0.5
				C16.6,351.8,16.9,351.7,17.5,352.3z"/>
			<path fill="#FFFFFF" d="M29.4,352.6c0.3,0.2,0.5,0.3,0.8,0.5c0.2,0.2,0.4,0.4,0.7,0.7c-0.1,0-0.2,0.1-0.3,0.1
				c-0.2,0-0.4-0.1-0.6-0.1C29.1,353.7,28.9,353.3,29.4,352.6c0,0,0.1-0.1,0.1-0.2C29.4,352.4,29.4,352.5,29.4,352.6z"/>
			<path fill="#FFFFFF" d="M14.1,374.4c0-1.1,0.8-1.6,1.8-1.3c0.5,0.2,1.1,0.3,1.7,0.4c0.4,0.1,0.5,0.3,0.4,0.6
				c-0.1,0.5-0.2,0.9-0.5,1.4c-0.5,0.8-1.2,0.8-1.9,0.8C14.6,376.2,14.1,375.5,14.1,374.4z"/>
		</g>
	</g>
</g>
</svg>
