<?xml version="1.0" encoding="UTF-8" standalone="no"?>
<svg width="18px" height="24px" viewBox="0 0 18 24" version="1.1" xmlns="http://www.w3.org/2000/svg" xmlns:xlink="http://www.w3.org/1999/xlink" xmlns:sketch="http://www.bohemiancoding.com/sketch/ns">
    <!-- Generator: Sketch 3.1.1 (8761) - http://www.bohemiancoding.com/sketch -->
    <title>Imported Layers</title>
    <desc>Created with Sketch.</desc>
    <defs></defs>
    <g id="Page-1" stroke="none" stroke-width="1" fill="none" fill-rule="evenodd" sketch:type="MSPage">
        <path d="M13.8407814,0 C14.2194481,0.0847222222 14.7381148,0.147222222 15.2074481,0.338888889 C15.3661148,0.404166667 15.3701148,0.815277778 15.4981148,1.03472222 C16.2807814,2.37777778 16.1807814,2.31666667 15.2941148,3.50555556 C14.3847814,4.72777778 13.7034481,6.13611111 12.9221148,7.4625 C12.8821148,7.53055556 12.8567814,7.62777778 12.7967814,7.66388889 C11.4327814,8.50972222 11.3287814,10.2527778 10.3647814,11.3847222 C10.2647814,11.5027778 10.2394481,11.8388889 10.3274481,11.9611111 C11.5407814,13.6583333 12.7661148,15.3486111 14.0181148,17.0166667 C14.7474481,17.9875 15.5434481,18.9041667 16.2794481,19.8708333 C16.6287814,20.3291667 16.9047814,20.8208333 17.3701148,21.2083333 C17.9074481,21.6541667 17.7047814,23.1152778 17.1354481,23.6527778 C16.5141148,24.2388889 15.7661148,24.1444444 15.1101148,23.3055556 C13.8794481,21.7277778 12.6727814,20.1291667 11.4861148,18.5152778 C11.0434481,17.9138889 10.6994481,17.2347222 10.2794481,16.6138889 C10.1381148,16.4055556 9.90078142,16.2652778 9.59278142,15.9930556 C9.58078142,15.8958333 9.61411476,15.5694444 9.49811476,15.3180556 C9.07811476,14.4138889 8.43411476,14.2902778 7.84344809,15.0861111 C7.06344809,16.1388889 6.41544809,17.2958333 5.67811476,18.3833333 C5.47944809,18.6777778 5.17944809,18.9097222 4.89544809,19.125 C4.06078142,19.7569444 3.49011476,20.5944444 3.01944809,21.5361111 C2.77011476,22.0347222 2.41144809,22.475 2.22078142,22.7611111 L0.456781423,22.7611111 C0.344781423,22.1583333 0.32344809,21.5083333 0.0967814232,20.9472222 C-0.19655191,20.2222222 0.232781423,20.0402778 0.63944809,19.6472222 C1.43944809,18.8763889 2.14878142,17.9986111 2.84478142,17.1208333 C3.80478142,15.9125 4.72478142,14.6694444 5.64478142,13.4277778 C5.99678142,12.95 6.29944809,12.4333333 6.67411476,11.8597222 C4.41944809,9.91666667 2.83944809,7.09027778 0.0847814232,5.53055556 C0.402114757,5.27916667 0.65544809,4.89444444 0.500781423,4.20416667 C0.382114757,3.67777778 2.07144809,3.125 2.49944809,3.56944444 C3.72478142,4.83611111 4.91011476,6.14583333 6.12211476,7.425 C6.38478142,7.70138889 6.67278142,7.96805556 6.99144809,8.16388889 C7.47411476,8.45972222 7.99411476,8.69166667 8.43944809,8.91944444 C10.0061148,6.33055556 11.8941148,3.21388889 13.8407814,0" id="Imported-Layers" fill="#000000" sketch:type="MSShapeGroup"></path>
    </g>
</svg>