<svg width="249" height="57" viewBox="0 0 249 57" xmlns="http://www.w3.org/2000/svg" xmlns:sketch="http://www.bohemiancoding.com/sketch/ns"><title>make-your-own-hover</title><desc>Created with Sketch.</desc><g sketch:type="MSLayerGroup" fill="none"><path d="M117.671 55.642l.164-.858c-1.934.033-3.845.026-5.752.111-1.629.075-3.25.305-4.879.376-1.681.075-3.365.039-5.048.056-.143 0-.318-.027-.422.043-2.652 1.769-5.567 1.214-8.463 1.035-1.738-.11-3.492-.057-5.234.013-1.807.072-3.61.327-5.416.372-2.442.059-4.888.013-7.332-.029-1.993-.036-3.987-.132-5.981-.201l-1.529-.028c-.979-.038-1.956-.11-2.936-.126-3.591-.064-7.185-.14-10.778-.155-3.412-.015-6.823.041-10.235.064-3.479.024-6.957.042-10.436.071-3.078.028-6.155.075-9.233.105-.85.008-1.683-.03-1.41-1.119-1.357-.048-2.64-.165-3.916-.112-.833.034-1.653.347-2.489.473-.499.075-1.016.046-1.524.028-1.121-.037-2.241-.127-3.361-.136-.963-.008-1.935.008-2.89.128-.526.066-1.008.425-1.534.557-1.448.366-2.753-.949-2.658-2.224-.688-.443-1.446-.701-1.81-1.23-.361-.522-1.044-1.109-.514-2.01.205-.347.476-1.022-.366-1.3-.162-.053-.133-.646-.216-.985-.384-1.568-.7-3.154-.782-4.764-.039-.735.263-1.483.247-2.22-.025-1.198-.273-2.393-.26-3.589.013-1.096.282-2.186.371-3.283.055-.688-.052-1.387-.023-2.078.037-.902.153-1.799.205-2.7.026-.44-.023-.884-.031-1.327-.025-1.393-.038-2.788-.081-4.182-.009-.347.002-.786-.192-1.018-.937-1.127-.313-2.238.158-3.175.943-1.878.543-3.652.09-5.51-.14-.576.146-1.243.125-1.863-.031-.915.595-1.007 1.237-1.152.264-.059.512-.192.849-.321l-.454-.991c2.043-.728 3.949-2.07 6.2-1.782 1.06.136 1.697-.078 2.412-.75.192-.179.81.178 1.188.094 1.608-.355 3.185-.864 4.8-1.166 1.353-.252 2.747-.303 4.123-.437 1.128-.109 2.255-.237 3.387-.3l3.648-.114c.984-.058 1.961-.247 2.945-.289.942-.037 1.904.162 2.83.047 2.681-.338 5.35-.786 8.024-1.18.281-.041.574-.012.863-.004 1.183.038 2.371.164 3.548.097.98-.056 1.946-.486 2.919-.483 1.471.003 2.915-.328 4.438.042 1.097.268 2.355-.201 3.543-.221 3.514-.059 7.029.01 10.54-.109 1.829-.061 3.65-.602 5.472-.576 1.634.023 3.178-.252 4.759-.516.634-.108 1.331.236 1.997.232 1.208-.006 2.413-.165 3.621-.177 1.47-.014 2.94.056 4.409.091.516.013 1.034.016 1.546.058.848.069 1.699.278 2.538.232 2.085-.115 4.163-.344 6.245-.523 1.468-.129 2.936-.302 4.407-.368 1.612-.072 3.228-.042 4.842-.058l.216.009c1.673.577 3.379-.012 5.072.142 1.382.126 2.785-.022 4.181-.038 1.746-.018 3.492 0 5.236-.055.356-.011.721-.233 1.052-.413.901-.487 1.596-.228 2.448.295.691.422 1.672.436 2.533.493.998.066 2.006.013 3.008-.046 2.418-.139 4.898.172 7.183-.976.176-.088.424-.036.639-.041 3.791-.086 7.583-.137 11.372-.268 2.094-.071 4.272.043 6.253-.503 2.136-.588 4.277-.401 6.398-.684 1.547-.206 3.181.317 4.784.415 1.76.107 3.523 1.023 5.308-.069.321-.196.946.151 1.432.171 2.498.106 5.047.54 7.481.184 2.97-.434 5.891-.26 8.838-.25 1.718.004 3.437-.019 5.156-.034 1.507-.012 3.018-.12 4.518-.028 2.204.133 4.402.405 6.602.616.288.028.576.033.865.048 2.801.16 5.6.37 8.403.466 2.913.102 5.837-.014 8.744.169 2.332.147 4.638.681 6.968.887 1.682.147 3.39-.008 5.084.061 1.516.062 3.034.202 4.54.39.715.088 1.42.33 2.102.576 1.039.374 2.136.683 3.042 1.273.45.294.766 1.165.738 1.754-.095 1.99-.376 3.973-.581 5.959-.124 1.207-.215 2.421-.369 3.626-.144 1.118-.415 2.223-.512 3.345-.087.999.007 2.01-.014 3.015-.058 2.853-.095 5.705-.217 8.554-.131 3.06-.337 6.116-.531 9.172-.113 1.789-.304 3.576-.39 5.366-.13 2.677-.215 5.358-.278 8.038-.014.614-.183.992-.774 1.233-.364.15-.634.529-.997.691-.53.238-1.1.485-1.664.521-.624.038-1.26-.208-1.894-.243-1.555-.085-3.113-.163-4.669-.153-.646.004-1.29.246-1.935.376-.156.031-.34.12-.468.072-2.093-.781-4.287-.746-6.46-.761-1.886-.012-3.772.209-5.658.21-1.774.003-3.549-.135-5.321-.233-.421-.024-.835-.183-1.256-.199-2.737-.112-5.478-.282-8.217-.27-2.236.008-4.47.261-6.707.365-.678.03-1.36-.082-2.041-.111-1.061-.044-2.124-.111-3.184-.101-1.141.009-2.278.126-3.42.144-1.903.027-3.808.051-5.71.006l-8.99-.288c-1.722-.04-3.454.105-5.171-.001-1.772-.109-3.529-.441-5.296-.633-1.027-.112-2.063-.146-3.095-.201-1.783-.095-3.567-.248-5.352-.243-1.377.002-2.756.207-4.133.321-1.061.087-2.119.206-3.182.255-2.525.119-5.05.224-7.578.298-1.194.034-2.39-.026-3.587-.032-2.223-.011-4.447-.06-6.668-.006-2.812.069-5.625.193-8.434.366-1.083.067-2.149.396-3.233.485-.871.071-1.756-.042-2.715-.075zm-40.149-49.48c-2.106.138-4.153.304-6.204.395-1.612.07-3.23.024-4.844.063-3.351.085-6.701.193-10.05.291-1.525.044-3.074-.185-4.547.428-.125.052-.281.048-.422.043-1.704-.054-3.408-.141-5.112-.166-2.262-.034-4.531-.115-6.788.011-1.161.066-2.294.557-3.447.822-1.465.335-2.813 1.129-4.386 1.042-.711-.041-1.435-.039-2.142.042-1.75.199-3.493.475-5.243.676-.468.054-.955-.102-1.429-.075-.882.049-1.759.182-2.64.24-.959.066-1.929.03-2.879.154-.352.047-.863.363-.949.658-.197.669-.59.525-1.058.525-1.35.003-2.802-.483-3.921.8-.145.166-.6.14-.893.086-1.492-.276-3.01-.228-4.334.426-.67.33-1.022 1.31-1.516 1.997l-.002.106c.55 1.094.188 2.206.111 3.323-.107 1.566.266 3.07-.277 4.724-.509 1.546-.386 3.483.038 5.096.373 1.414.039 2.591-.145 3.878-.268 1.867-.618 3.737-.684 5.614-.049 1.394.293 2.804.474 4.205.093.733.169 1.472.346 2.186.1.403.512.74.565 1.138.12.914.076 1.85.156 2.772.076.915.198 1.826.352 2.73.07.412.264.806.475 1.423 1.468-.026 3.182-.112 4.892-.071 1.834.046 3.665.282 5.497.308 1.486.023 2.98-.103 4.466-.228 2.871-.239 5.685.466 8.566.45 2.009-.009 4.093.268 6.145.266 1.238-.002 2.476-.249 4.132-.433.539.274 1.476.68 2.713.55 1.145-.122 2.342.384 3.526.468 1.912.136 3.832.181 5.75.212 1.542.025 3.087-.08 4.627-.029 1.361.044 2.715.305 4.075.322 1.849.023 3.683.006 5.543.14 3.237.236 6.509-.018 9.766-.005 2.028.008 4.056.184 6.085.182 1.379 0 2.758-.178 4.139-.269 1.735-.116 3.475-.176 5.204-.347 2.736-.269 5.464-.654 8.204-.906 3.248-.3 6.515-.416 9.754-.792 2.463-.286 4.84-.154 7.195.588.268.083.552.148.832.159 2.451.095 4.905.208 7.36.256 1.905.036 3.814.043 5.717-.045 1.406-.065 2.801-.399 4.206-.445 3.039-.101 6.081-.087 9.122-.137 2.501-.042 5.013.022 7.497-.205 3.136-.286 6.252-.521 9.386-.074.282.041.574-.002.861-.008 1.002-.021 2.009-.125 3.003-.046 2.025.158 4.039.465 6.066.61 1.951.139 3.911.146 5.867.215 1.053.035 2.107.124 3.16.103 1.886-.039 3.769-.179 5.656-.212 2.084-.039 4.171.043 6.254-.021 2.488-.075 4.974-.247 7.46-.383.888-.05 1.773-.126 2.659-.185.707-.047 1.419-.156 2.123-.115 1.423.084 2.837.302 4.262.377 2.819.149 5.645.227 8.464.36.85.039 1.693.207 2.542.235.782.026 1.568-.097 2.351-.086 1.519.023 3.038.135 4.558.138 3.512.006 7.026-.041 10.538-.046 1.05-.003 2.103.097 3.152.083.39-.004.781-.307 1.165-.29.633.028 1.258.205 1.887.321l.101-.367-1.231-.661c.65-1.245-.575-1.832-1.023-2.891l1.357-.364c-.149-.386-.384-.85-.498-1.339-.075-.324-.119-.828.063-1.013 1.548-1.582 1.185-3.325.612-4.893.389-.851.911-1.523.985-2.243.246-2.428.335-4.873.469-7.314.008-.119-.14-.238-.175-.367-.078-.303-.218-.625-.175-.918.088-.613-.372-1.389.478-1.809.039-.02.005-.204-.009-.309-.152-1.132-.507-2.212.101-3.395.366-.711.286-1.668.341-2.518.08-1.195.098-2.393.144-3.589.034-.907.064-1.815.104-2.722.059-1.259.142-2.516.185-3.775.045-1.277.088-2.554.053-3.83-.008-.329-.238-.722-.484-.963-1.38-1.345-4.29-1.545-6.097-.497-.23.135-.594.098-.887.063-1.45-.183-3.009-.822-4.322-.487-1.896.481-3.762.396-5.618.401-1.85.004-3.699.179-5.602-.268-2.175-.513-4.498-.387-6.758-.54-2.036-.136-4.072-.356-6.112-.393-1.957-.038-3.919.137-5.88.166-.554.008-1.115-.155-1.669-.259-.344-.063-.68-.23-1.021-.233-2.224-.027-4.448-.026-6.671-.021l-.615.132c-2.452-.073-4.903-.156-7.355-.245-.844-.031-1.685-.129-2.528-.128-1.819.003-3.653.203-5.456.045-2.864-.25-5.701-.83-8.564-1.064-1.686-.139-3.403.144-5.106.204-3.318.115-6.635.223-9.953.305-1.79.044-3.582-.017-5.371.048-3.558.132-7.116.316-10.672.48l-.742.07c-1.424.062-2.852.214-4.27.15-1.375-.061-2.751-.544-4.111-.484-2.193.098-4.34.308-6.56-.002-1.805-.253-3.692.084-5.543.167-.745.034-1.487.109-2.233.126-1.187.027-2.381-.044-3.562.043-2.468.184-4.927.51-7.399.644-1.127.062-2.271-.284-3.408-.284-2.14.001-4.281.148-6.422.169-.738.008-1.499-.334-2.217-.246-2.164.269-4.315.656-6.465 1.029-.846.147-1.676.382-2.513.575-.739.169-1.47.38-2.217.497-.815.129-1.645.17-2.492.252l-.02-1.752z" fill="#000" sketch:type="MSShapeGroup"/><path d="M77.521 6.162l.02 1.752c.848-.082 1.677-.124 2.492-.252.748-.116 1.479-.327 2.217-.497.837-.193 1.666-.427 2.513-.575 2.15-.373 4.3-.76 6.465-1.029.718-.089 1.478.254 2.217.246 2.141-.021 4.281-.168 6.422-.169 1.137 0 2.282.345 3.408.284 2.472-.134 4.93-.459 7.399-.644 1.182-.087 2.376-.016 3.562-.043.746-.017 1.489-.092 2.233-.126 1.851-.083 3.738-.42 5.543-.167 2.22.311 4.368.101 6.56.002 1.359-.061 2.736.423 4.111.484 1.418.064 2.846-.088 4.27-.15l.742-.07c3.556-.164 7.114-.349 10.672-.48 1.789-.066 3.581-.005 5.371-.048 3.318-.082 6.636-.19 9.953-.305 1.702-.06 3.419-.343 5.106-.204 2.863.234 5.7.814 8.564 1.064 1.803.157 3.636-.042 5.456-.045.843-.001 1.684.097 2.528.128 2.451.089 4.903.172 7.355.245l.615-.132c2.224-.005 4.447-.007 6.671.021.341.003.676.17 1.021.233.554.104 1.115.267 1.669.259 1.961-.029 3.923-.204 5.88-.166 2.04.037 4.075.257 6.112.393 2.26.153 4.583.027 6.758.54 1.903.448 3.752.272 5.602.268 1.855-.005 3.722.08 5.618-.401 1.313-.335 2.872.305 4.322.487.293.036.656.072.887-.063 1.807-1.047 4.717-.848 6.097.497.246.242.476.634.484.963.035 1.276-.008 2.553-.053 3.83-.042 1.259-.126 2.517-.185 3.775-.041.907-.071 1.814-.104 2.722-.046 1.196-.064 2.394-.144 3.589-.055.85.025 1.807-.341 2.518-.608 1.183-.253 2.263-.101 3.395.014.105.048.289.009.309-.85.42-.39 1.196-.478 1.809-.043.293.098.616.175.918.035.129.183.248.175.367-.134 2.441-.224 4.886-.469 7.314-.074.72-.596 1.391-.985 2.243.573 1.568.936 3.311-.612 4.893-.182.185-.138.689-.063 1.013.115.49.349.953.498 1.339l-1.357.364c.448 1.06 1.673 1.646 1.023 2.891l1.231.661-.101.367c-.629-.116-1.255-.293-1.887-.321-.384-.017-.775.285-1.165.29-1.049.014-2.101-.086-3.152-.083-3.512.005-7.026.052-10.538.046-1.52-.003-3.039-.115-4.558-.138-.783-.011-1.569.111-2.351.086-.849-.028-1.691-.197-2.542-.235-2.82-.133-5.645-.21-8.464-.36-1.425-.075-2.839-.293-4.262-.377-.704-.041-1.415.068-2.123.115-.886.059-1.772.135-2.659.185-2.486.137-4.972.308-7.46.383-2.083.064-4.17-.018-6.254.021-1.887.033-3.771.173-5.656.212-1.053.021-2.107-.068-3.16-.103-1.956-.069-3.915-.076-5.867-.215-2.027-.145-4.041-.452-6.066-.61-.993-.078-2.001.026-3.003.046-.287.006-.579.048-.861.008-3.134-.448-6.25-.212-9.386.074-2.484.227-4.996.163-7.497.205-3.041.051-6.083.036-9.122.137-1.406.046-2.8.38-4.206.445-1.904.089-3.813.081-5.717.045-2.455-.048-4.909-.161-7.36-.256-.279-.012-.564-.076-.832-.159-2.354-.742-4.732-.874-7.195-.588-3.238.376-6.505.493-9.754.792-2.739.253-5.467.637-8.204.906-1.73.171-3.47.231-5.204.347-1.38.091-2.76.268-4.139.269-2.029.001-4.056-.175-6.085-.182-3.257-.013-6.529.241-9.766.005-1.86-.134-3.694-.117-5.543-.14-1.36-.017-2.714-.277-4.075-.322-1.539-.05-3.084.054-4.627.029-1.917-.031-3.838-.077-5.75-.212-1.185-.085-2.381-.591-3.526-.468-1.237.13-2.174-.277-2.713-.55-1.656.184-2.894.431-4.132.433-2.052.002-4.136-.275-6.145-.266-2.881.016-5.695-.689-8.566-.45-1.486.125-2.979.251-4.466.228-1.833-.026-3.663-.262-5.497-.308-1.709-.042-3.423.044-4.892.071-.211-.618-.405-1.011-.475-1.423-.154-.905-.276-1.816-.352-2.73-.08-.922-.036-1.858-.156-2.772-.053-.397-.465-.735-.565-1.138-.177-.714-.252-1.454-.346-2.186-.18-1.401-.522-2.81-.474-4.205.066-1.878.416-3.747.684-5.614.184-1.287.518-2.463.145-3.878-.424-1.613-.547-3.55-.038-5.096.543-1.653.17-3.158.277-4.724.077-1.117.439-2.229-.111-3.323l.002-.106c.493-.687.845-1.666 1.516-1.997 1.324-.654 2.842-.702 4.334-.426.292.054.748.08.893-.086 1.119-1.283 2.571-.797 3.921-.8.467 0 .861.144 1.058-.525.086-.295.597-.611.949-.658.95-.124 1.92-.088 2.879-.154.881-.058 1.757-.191 2.64-.24.474-.027.961.129 1.429.075 1.75-.201 3.493-.477 5.243-.676.707-.082 1.43-.084 2.142-.042 1.572.088 2.921-.707 4.386-1.042 1.153-.265 2.286-.756 3.447-.822 2.257-.127 4.526-.046 6.788-.011 1.705.025 3.409.112 5.112.166.141.005.297.009.422-.043 1.473-.613 3.022-.384 4.547-.428 3.349-.098 6.699-.206 10.05-.291 1.615-.039 3.232.007 4.844-.063 2.052-.091 4.099-.257 6.204-.395zm-50.534 21.657l-.513-.025c-.496-1.617-.982-3.24-1.492-4.853-.304-.966-.557-1.968-1.015-2.858-.181-.349-1.1-.739-1.271-.601-.877.713-2.149 1.521-2.273 2.432-.142 1.053-.584 1.883-.926 2.79-.941 2.494-1.93 4.971-2.926 7.443-.613 1.519-1.248 3.026-1.92 4.518-.433.962-1.059 1.852-1.376 2.845-.144.454.096 1.24.446 1.578.292.279 1.179.354 1.496.114 1.111-.842 1.718-2.065 2.13-3.409.432-1.41.734-2.97 1.575-4.108.678-.915 1.008-1.928 1.517-2.873.762-1.409 1.301-2.936 2.038-4.651.502 1.484.959 2.714 1.332 3.969.27.907.422 1.85.646 2.771.049.2.131.442.28.561.785.627 3.04-.215 3.41-1.159.466-1.192 1.025-2.355 1.626-3.486.392-.741.951-1.392 1.397-2.107l1.789-2.964c.101-.164.33-.247.711-.517.17 1.779.33 3.309.464 4.844.077.888.08 1.782.177 2.668.127 1.155.333 2.303.469 3.459.183 1.531.356 3.066.485 4.602.038.453-.113.917-.135 1.379-.015.326-.005.67.072.985.303 1.231 1.238 1.606 2.423 1.681l1.697-3.321-.476-.013c-.239-.64-.533-1.267-.705-1.926-.142-.541-.139-1.121-.197-1.685-.263-2.532-.592-5.061-.77-7.599-.177-2.526-.215-5.091-1.526-7.33-1.31-2.233-1.805-3.085-3.845-.686-1.111 1.305-1.997 2.8-2.997 4.199-.332.465-.784.859-1.049 1.356-.329.621-.519 1.315-.768 1.978zm126.471 5.393l.227-.037c.191.57.243 1.251.6 1.684.941 1.153 1.979 2.231 3.044 3.274 1.356 1.326 3.062 2.347 3.36 4.499.047.348.716.847 1.112.861.883.035 1.842-.089 1.979-1.314.019-.173.058-.365.153-.504.506-.732.144-1.281-.373-1.777l-1.428-1.278c-1.534-1.482-3.069-2.961-4.57-4.475-.438-.442-.822-.863-.264-1.64 1.541-2.149 2.05-4.685 2.294-7.261.052-.551-.107-1.317-.472-1.676-1.024-1.015-2.192-1.888-3.339-2.768-.186-.144-.653-.169-.827-.036-.981.746-1.906 1.564-2.865 2.341-.119.097-.317.142-.478.137-1.155-.04-1.491.325-1.739 1.472-.17.787.005 1.463.119 2.216.245 1.609.087 3.279.354 4.881.38 2.285-.118 4.513-.127 6.764-.004.571.371 1.254.79 1.666.202.202 1.098.073 1.339-.204.579-.668 1.917-1.092 1.039-2.463-.18-.279.061-.827.103-1.252.026-.274.064-.547.058-.82-.02-.765-.058-1.528-.089-2.291zm-92.976-2.931c-.108-1.3-.158-2.534-.323-3.753-.277-2.047-1.076-3.917-2.177-5.648-.484-.763-1.641-.72-2.209 0-.691.872-.754 2.161.096 3.133 1.294 1.481 1.182 3.413 1.725 5.11.346 1.085.462 2.324.729 3.497.359 1.56.221 3.224.804 4.763.031.086.004.249-.059.305-.763.667-.015 1.314.09 1.923.124.732 1.929 1.153 2.374.598.57-.708 1.426-1.335.865-2.491-.296-.614-.379-1.33-.655-1.955-.624-1.416-.011-2.424 1.483-2.401.491.008.984-.074 1.472-.142 1.112-.156 3.069 1.104 3.399 2.201l1.771 5.895c.646-.138 1.444-.112 1.968-.478.492-.344.696-1.104 1.08-1.775-.103-.244-.153-.744-.417-.923-1.201-.811-1.4-2.124-1.842-3.328-.672-1.839-1.468-3.532-3.669-4.022-.946-.21-1.835-.671-2.754-1.019.6-1.093 1.22-2.227 1.847-3.359.033-.062.085-.12.145-.159 1.287-.878 1.666-2.179 1.66-3.64-.002-.912-.638-1.519-1.711-1.694-.94-.154-.995.698-1.244 1.204-.507 1.028-.824 2.147-1.326 3.177-.794 1.632-1.669 3.223-2.531 4.82-.052.098-.303.089-.589.162zm145.208 7.686c.255.292.661.608.87 1.024.383.761 2.963 1.451 3.35.544.671-1.573 1.249-3.191 1.775-4.819.427-1.32.695-2.69 1.087-4.024.135-.452.32-1.047.67-1.25 1.238-.715 1.612-1.67 1.139-2.98-.122-.337-.299-.89-.507-.917-.99-.134-2.075-.363-2.98-.085-.817.251-.719 1.259-.446 2.056.044.128-.021.288-.004.43.189 1.513-.485 2.824-.976 4.175-.408 1.125-.842 2.241-1.385 3.679-1.25-1.315-2.286-2.345-3.247-3.44-.585-.667-1.172-1.323-2.116-1.203-.809.104-1.638 1.321-1.799 2.155-.144.748-.425 1.477-.712 2.189-.083.207-.41.462-.597.441-.182-.021-.421-.351-.467-.578-.337-1.65-1.384-2.954-2.105-4.413-.838-1.696-1.789-3.337-2.595-5.046-.654-1.385-2.033-1.725-3.063-.597-.501.546-.608 1.138-.023 1.836.56.664.926 1.497 1.348 2.272.193.357.294.765.482 1.126.932 1.792 1.88 3.573 2.813 5.363l.076.416c.765 1.446 1.484 2.922 2.341 4.313.365.593 1.439.435 1.882-.196.925-1.32 1.827-2.658 2.709-4.008.292-.447.698-.819 1.062-.344.456.594 1.446.925 1.419 1.881zm25.095-14.257c-.314 1.806-.573 3.518-.915 5.214-.339 1.682-.762 3.347-1.213 5.301-.385-.436-.727-.683-.879-1.015-1.217-2.659-2.41-5.331-3.583-8.01-.292-.669-1.495-1.412-2.192-1.305-.978.152-1.174.956-1.295 1.679-.351 2.137-.483 4.314-.934 6.425-.367 1.724-.161 3.818-2.253 4.759l-.009.191c1.052.163 1.042.811.876 1.734-.094.531.205 1.253.565 1.699.183.227.901.097 1.357.013 1.184-.215.962-1.137 1.078-2.017.343-2.585.845-5.15 1.296-7.72.029-.171.165-.323.342-.656.271.77.423 1.384.696 1.935.548 1.099 1.239 2.133 1.729 3.254.496 1.133 2.072 1.503 2.036 2.986-.002.067.226.138.346.209.453.263.88.647 1.367.754.475.105 1.187.108 1.477-.172.377-.368.582-1.049.62-1.611.226-3.373.519-6.733 1.446-10.001.2-.706.273-1.504.66-2.09.966-1.463 1.098-2.378.174-3.739-.134-.198-.591-.4-.754-.315-1.02.521-2.006 1.107-2.982 1.709-.133.082-.143.363-.231.606l1.177.184zm-180.582 11.33c.209.997.681 2.139.605 3.245-.063.928.388 1.494.696 2.188.226.51 2.181 1.171 2.658.949.092-.042.227-.138.228-.211.014-.852.147-1.736-.026-2.551-.369-1.73-.925-3.419-1.354-5.137-.16-.647.039-1.729-.306-1.918-1.08-.592-1.153-1.666-1.218-2.486-.172-2.157-.979-4.044-1.886-5.932-.375-.782-.706-1.585-1.082-2.434-.119-.015-.301-.016-.467-.063-1.699-.504-2.301.008-2.486 1.773-.19 1.826-.503 3.652-.922 5.442-.535 2.293-1.239 4.547-1.856 6.821-.439 1.619-.857 3.242-1.304 4.933.114.34.254.831.443 1.303.07.17.226.344.389.433 1.011.557 2.323-.159 2.445-1.289.155-1.434.351-2.861.502-4.077 1.752-.352 3.257-.653 4.942-.99zm34.037-15.076c-.849-.082-1.649-.332-2.374-.193-1.746.333-3.46.831-5.175 1.309-.317.088-.578.386-.855.602-.154.121-.282.386-.427.388-1.076.018-1.123.777-1.042 1.511.233 2.067.532 4.129.803 6.192.302 2.301.516 4.603.07 6.908-.209 1.071.372 1.835 1.451 1.947.343.036.918.218.956.418.168.869.731.976 1.427.946.781-.032 1.561-.111 2.341-.111 1.009-.001 2.021.022 3.025.108.354.03.974.439.997.4.498-.867 1.433-.418 2.1-.739.723-.35 1.194-1.206.798-1.608-.572-.582-1.16-1.149-1.722-1.704-.352.147-.633.361-.921.369-1.653.041-3.311.086-4.962.014-.613-.027-1.477-.194-1.756-.612-.46-.686-.562-1.623-.767-2.465-.249-1.02.424-1.894 1.47-2.085 1.542-.28 3.078-.604 4.608-.949.178-.041.454-.38.42-.514-.172-.696-.264-1.53-.715-1.997-.305-.316-1.168-.194-1.759-.112-1.319.185-2.618.493-3.935.682-.181.026-.586-.335-.605-.543-.096-1.065-.129-2.139-.115-3.21.002-.26.219-.679.425-.744 1.192-.377 2.401-.7 3.62-.98.848-.196 1.89-.069 2.327-.984.273-.576.187-1.323.292-2.242zm97.407 22.756c1.937.257 4.636-.565 6.15-2.448.817-1.017 1.499-2.248 1.86-3.493.294-1.014.24-2.254-.057-3.28-.427-1.474-1.22-2.842-1.843-4.26-.625-1.423-1.942-2.096-3.165-2.807-1.019-.594-1.943-1.571-3.324-1.289-.124.026-.27-.073-.408-.108-1.642-.419-3.706-.175-4.274 2.068-.379 1.495-.708 3.015-1.244 4.455-.46 1.239-.389 2.457-.071 3.62.378 1.371 1.049 2.661 1.566 3.995.875 2.263 2.492 3.464 4.81 3.546zm-46.513-17.995c.429.642.919 1.08 1.027 1.596.23 1.101.291 2.242.362 3.37.04.648-.126 1.316-.041 1.954.242 1.84.644 3.66.829 5.503.177 1.787.855 3.154 2.486 3.997 1.379.713 3.509.508 4.56-.489 2.686-2.548 2.947-5.921 3.114-9.309.052-1.066-.051-2.138-.075-3.208-.027-1.249-.229-2.529-.024-3.739.287-1.7-.796-2.314-2.084-2.441-.162-.017-.403.109-.499.244-.672.935-1.133 1.894-.592 3.104.206.461.211 1.04.201 1.564-.032 1.776-.054 3.554-.19 5.321-.116 1.52-.341 3.037-.599 4.541-.145.846-.74 1.693-1.521 1.684-.747-.01-1.504-.591-1.599-1.651-.194-2.145-.491-4.281-.752-6.418-.163-1.331-.4-2.658-.485-3.994-.053-.849.112-1.712.184-2.632-.932-.193-1.742-.606-2.387-.427-.72.199-1.291.935-1.914 1.428zm-6.289-3.565c-1.093.075-1.77.409-2.181 1.26-.076.158-.153.39-.282.434-1.246.422-1.706 1.464-2.353 2.511-1.913 3.095-2.626 6.35-1.746 9.857.309 1.228.854 2.576 1.722 3.43.813.8 1.849 1.826 3.318 1.519 1.164-.243 2.423-.275 3.468-.765 1.116-.524 2.213-1.297 2.543-2.69.362-1.537.96-3.049 1.08-4.6.106-1.374-.228-2.802-.518-4.175-.161-.757-.619-1.454-.967-2.167-.179-.362-.371-.73-.628-1.037-.743-.891-1.503-1.768-2.294-2.618-.339-.364-.773-.643-1.163-.96zm-15.977 20.285c1.146-1.999 1.403-4.101 1.366-6.237-.031-1.838-.056-3.648.81-5.341.941-1.836 1.816-3.711 2.842-5.497.404-.701 1.046-1.48 1.756-1.737.815-.297.815-.893.864-1.382.031-.324-.471-.721-.774-1.047-.132-.142-.386-.163-.548-.286-.865-.657-1.781-.563-2.306.335-.574.986-1.051 2.029-1.597 3.032-.511.936-1.056 1.852-1.598 2.797-.152-.134-.257-.19-.31-.278-.657-1.092-1.076-2.357-2.444-2.888-.283-.111-.485-.676-.546-1.059-.153-.948-.2-1.912-.274-2.69l-3.558-.125c.717 1.009-.96 2.171.344 2.658.191.783.191 1.462.507 1.923.51.746 1.161 1.438 1.878 1.987 1.399 1.073 1.807 2.308 1.286 3.996-.173.563-.271 1.336-.02 1.809.951 1.805.355 3.66.36 5.488.002.918-.234 1.836-.27 2.755-.011.272.228.647.468.815.511.359 1.094.613 1.763.972z" fill="#fff" sketch:type="MSShapeGroup"/><path d="M26.987 27.819c.249-.663.439-1.357.768-1.978.265-.496.717-.891 1.049-1.356 1-1.399 1.886-2.894 2.997-4.199 2.04-2.399 2.536-1.547 3.845.686 1.311 2.238 1.349 4.804 1.526 7.33.178 2.538.506 5.067.77 7.599.058.564.056 1.143.197 1.685.172.66.466 1.286.705 1.926l.476.013-1.697 3.321c-1.185-.076-2.119-.45-2.423-1.681-.077-.315-.087-.659-.072-.985.022-.462.173-.926.135-1.379-.128-1.536-.302-3.072-.485-4.602-.136-1.155-.342-2.304-.469-3.459-.097-.887-.1-1.781-.177-2.668-.134-1.534-.293-3.064-.464-4.844-.381.27-.61.352-.711.517l-1.789 2.964c-.446.716-1.004 1.366-1.397 2.107-.601 1.131-1.16 2.294-1.626 3.486-.371.944-2.625 1.786-3.41 1.159-.149-.119-.231-.36-.28-.561-.224-.922-.377-1.864-.646-2.771-.373-1.256-.83-2.485-1.332-3.969-.737 1.715-1.276 3.242-2.038 4.651-.51.945-.839 1.957-1.517 2.873-.841 1.137-1.143 2.698-1.575 4.108-.412 1.344-1.019 2.567-2.13 3.409-.317.24-1.204.165-1.496-.114-.351-.337-.59-1.124-.446-1.578.316-.993.943-1.883 1.376-2.845.671-1.492 1.307-2.999 1.92-4.518.996-2.472 1.985-4.949 2.926-7.443.342-.907.785-1.737.926-2.79.124-.911 1.396-1.719 2.273-2.432.171-.138 1.09.251 1.271.601.458.89.712 1.892 1.015 2.858.51 1.613.997 3.235 1.492 4.853l.513.025" fill="#000" sketch:type="MSShapeGroup"/><path d="M153.458 33.212c.031.763.069 1.527.089 2.291.007.273-.032.546-.058.82-.042.425-.283.973-.103 1.252.878 1.371-.46 1.795-1.039 2.463-.241.277-1.137.406-1.339.204-.419-.412-.794-1.095-.79-1.666.009-2.252.507-4.479.127-6.764-.267-1.602-.109-3.273-.354-4.881-.114-.753-.289-1.43-.119-2.216.248-1.147.584-1.513 1.739-1.472.16.006.359-.04.478-.137.958-.777 1.884-1.595 2.865-2.341.174-.133.641-.108.827.036 1.148.88 2.315 1.753 3.339 2.768.365.36.524 1.125.472 1.676-.244 2.576-.753 5.112-2.294 7.261-.558.777-.174 1.198.264 1.64 1.501 1.514 3.035 2.992 4.57 4.475l1.428 1.278c.517.497.878 1.046.373 1.777-.095.139-.134.331-.153.504-.137 1.225-1.096 1.349-1.979 1.314-.397-.014-1.065-.512-1.112-.861-.298-2.152-2.004-3.173-3.36-4.499-1.064-1.043-2.102-2.122-3.044-3.274-.357-.433-.409-1.114-.6-1.684l-.227.037zm.142-1.227c.55-.555.833-1.053 1.246-1.211 1.09-.421 1.403-1.305 1.625-2.287l.297-1.564c.374-1.596-.077-2.293-1.773-2.654-1.334 2.324-1.592 4.842-1.395 7.717zM60.482 30.282c.286-.073.536-.064.589-.162.863-1.597 1.738-3.188 2.531-4.82.502-1.03.819-2.149 1.326-3.177.249-.506.304-1.358 1.244-1.204 1.073.175 1.709.782 1.711 1.694.007 1.461-.373 2.763-1.66 3.64-.059.039-.112.097-.145.159-.626 1.132-1.247 2.266-1.847 3.359.919.348 1.809.809 2.754 1.019 2.201.491 2.997 2.184 3.669 4.022.441 1.204.641 2.516 1.842 3.328.264.179.314.679.417.923-.384.671-.588 1.431-1.08 1.775-.524.366-1.322.34-1.968.478l-1.771-5.895c-.33-1.097-2.287-2.357-3.399-2.201-.488.068-.982.15-1.472.142-1.494-.023-2.106.984-1.483 2.401.276.625.359 1.342.655 1.955.56 1.156-.295 1.783-.865 2.491-.445.555-2.25.134-2.374-.598-.105-.609-.853-1.256-.09-1.923.063-.056.091-.219.059-.305-.583-1.539-.445-3.203-.804-4.763-.268-1.172-.383-2.412-.729-3.497-.543-1.697-.431-3.629-1.725-5.11-.85-.973-.787-2.262-.096-3.133.568-.721 1.725-.763 2.209 0 1.102 1.731 1.901 3.601 2.177 5.648.165 1.219.215 2.453.323 3.753M205.691 37.968c.026-.956-.964-1.287-1.419-1.881-.364-.475-.771-.103-1.062.344-.881 1.351-1.783 2.688-2.709 4.008-.443.631-1.517.788-1.882.196-.857-1.392-1.576-2.867-2.341-4.313l-.076-.416c-.934-1.79-1.882-3.571-2.813-5.363-.188-.361-.289-.769-.482-1.126-.422-.775-.788-1.608-1.348-2.272-.586-.698-.478-1.29.023-1.836 1.03-1.129 2.41-.788 3.063.597.806 1.71 1.758 3.35 2.595 5.046.721 1.459 1.767 2.764 2.105 4.413.046.227.285.557.467.578.187.021.514-.235.597-.441.287-.712.568-1.441.712-2.189.161-.834.99-2.051 1.799-2.155.944-.12 1.532.536 2.116 1.203.961 1.096 1.997 2.125 3.247 3.44.543-1.438.977-2.554 1.385-3.679.491-1.352 1.165-2.663.976-4.175-.017-.141.048-.302.004-.43-.273-.797-.372-1.805.446-2.056.905-.279 1.991-.049 2.98.085.208.027.386.581.507.917.474 1.31.099 2.265-1.139 2.98-.35.203-.535.798-.67 1.25-.391 1.334-.66 2.704-1.087 4.024-.526 1.629-1.105 3.246-1.775 4.819-.387.907-2.967.217-3.35-.544-.209-.415-.615-.731-.87-1.024M230.785 23.711l-1.177-.184c.088-.243.098-.524.231-.606.976-.602 1.962-1.188 2.982-1.709.164-.085.62.117.754.315.923 1.362.792 2.276-.174 3.739-.387.586-.46 1.384-.66 2.09-.927 3.269-1.219 6.629-1.446 10.001-.038.562-.242 1.243-.62 1.611-.29.281-1.002.277-1.477.172-.487-.107-.914-.491-1.367-.754-.12-.071-.349-.142-.346-.209.036-1.483-1.54-1.853-2.036-2.986-.49-1.121-1.181-2.154-1.729-3.254-.273-.551-.425-1.165-.696-1.935-.178.333-.313.486-.342.656-.451 2.57-.952 5.135-1.296 7.72-.116.881.106 1.802-1.078 2.017-.456.083-1.173.214-1.357-.013-.36-.446-.659-1.168-.565-1.699.166-.922.176-1.57-.876-1.734l.009-.191c2.092-.942 1.886-3.035 2.253-4.759.451-2.112.583-4.289.934-6.425.121-.724.317-1.528 1.295-1.679.697-.107 1.9.635 2.192 1.305 1.173 2.68 2.366 5.351 3.583 8.01.153.332.494.579.879 1.015.451-1.955.874-3.619 1.213-5.301.343-1.696.601-3.408.915-5.214" fill="#000" sketch:type="MSShapeGroup"/><path d="M50.203 35.041c-1.685.336-3.19.638-4.942.99-.151 1.216-.347 2.643-.502 4.077-.123 1.13-1.434 1.846-2.445 1.289-.163-.089-.319-.262-.389-.433-.189-.473-.329-.963-.443-1.303.447-1.691.865-3.314 1.304-4.933.617-2.274 1.321-4.528 1.856-6.821.418-1.79.731-3.615.922-5.442.185-1.765.787-2.277 2.486-1.773.166.047.348.048.467.063.376.849.707 1.652 1.082 2.434.907 1.888 1.714 3.775 1.886 5.932.065.82.138 1.894 1.218 2.486.345.189.147 1.271.306 1.918.429 1.718.985 3.406 1.354 5.137.174.815.04 1.699.026 2.551-.001.072-.136.169-.228.211-.477.222-2.432-.439-2.658-.949-.308-.693-.759-1.26-.696-2.188.077-1.106-.396-2.248-.605-3.245zm-.682-2.632c-.543-2.024-1.057-3.934-1.571-5.845l-.331.066c-.181.929-.368 1.856-.54 2.786-.174.951-.334 1.904-.507 2.89l2.949.103zM84.24 19.966c-.104.919-.019 1.666-.292 2.242-.436.915-1.479.788-2.327.984-1.219.281-2.429.603-3.62.98-.206.065-.423.484-.425.744-.014 1.07.019 2.144.115 3.21.02.208.424.569.605.543 1.317-.189 2.616-.497 3.935-.682.591-.082 1.455-.204 1.759.112.451.467.543 1.301.715 1.997.033.135-.242.474-.42.514-1.53.346-3.066.669-4.608.949-1.046.191-1.719 1.065-1.47 2.085.205.842.308 1.779.767 2.465.28.418 1.144.585 1.756.612 1.651.072 3.309.027 4.962-.014.287-.008.569-.222.921-.369.562.554 1.15 1.122 1.722 1.704.396.402-.075 1.258-.798 1.608-.666.322-1.602-.128-2.1.739-.023.039-.642-.369-.997-.4-1.004-.086-2.016-.109-3.025-.108-.78 0-1.56.079-2.341.111-.696.03-1.259-.077-1.427-.946-.038-.2-.613-.383-.956-.418-1.079-.112-1.66-.876-1.451-1.947.445-2.305.232-4.608-.07-6.908-.271-2.063-.57-4.125-.803-6.192-.081-.734-.034-1.493 1.042-1.511.144-.002.273-.267.427-.388.276-.216.538-.514.855-.602 1.715-.478 3.429-.976 5.175-1.309.725-.139 1.525.111 2.374.193" fill="#000" sketch:type="MSShapeGroup"/><path d="M181.647 42.722c-2.318-.081-3.935-1.283-4.81-3.546-.516-1.335-1.188-2.624-1.566-3.995-.318-1.163-.389-2.381.071-3.62.536-1.44.865-2.96 1.244-4.455.568-2.243 2.632-2.487 4.274-2.068.138.036.284.135.408.108 1.381-.282 2.306.695 3.324 1.289 1.222.711 2.54 1.384 3.165 2.807.623 1.418 1.417 2.786 1.843 4.26.296 1.025.35 2.266.057 3.28-.361 1.244-1.043 2.476-1.86 3.493-1.513 1.883-4.213 2.706-6.15 2.448zm-1.101-14.515l-.174-.291c-.468.365-1.256.664-1.349 1.107-.399 1.913-1.554 3.765-.686 5.825.263.627.634 1.225.791 1.877.339 1.393 1.133 2.274 2.486 2.758.996.356 2.942-.206 3.796-.777 1.072-.717 1.045-1.861 1.443-2.801.608-1.438.347-2.989-.375-4.349-1.241-2.335-3.392-3.212-5.932-3.348zM135.134 24.727c.624-.493 1.195-1.23 1.914-1.428.645-.18 1.455.233 2.387.427-.072.92-.238 1.783-.184 2.632.085 1.336.322 2.662.485 3.994.261 2.137.558 4.273.752 6.418.095 1.06.852 1.641 1.599 1.651.781.009 1.376-.839 1.521-1.684.258-1.504.483-3.021.599-4.541.136-1.767.158-3.545.19-5.321.009-.523.004-1.103-.201-1.564-.541-1.209-.079-2.168.592-3.104.097-.136.338-.261.499-.244 1.288.126 2.371.74 2.084 2.441-.205 1.21-.002 2.49.024 3.739.024 1.07.127 2.143.075 3.208-.167 3.388-.428 6.761-3.114 9.309-1.051.996-3.181 1.202-4.56.489-1.631-.843-2.308-2.21-2.486-3.997-.184-1.843-.586-3.663-.829-5.503-.084-.639.082-1.306.041-1.954-.071-1.128-.132-2.269-.362-3.37-.108-.517-.598-.955-1.027-1.596" fill="#000" sketch:type="MSShapeGroup"/><path d="M128.845 21.162c.39.317.824.596 1.163.96.791.849 1.551 1.727 2.294 2.618.256.307.449.675.628 1.037.349.713.806 1.41.967 2.167.289 1.374.624 2.801.518 4.175-.119 1.551-.717 3.063-1.08 4.6-.33 1.393-1.428 2.166-2.543 2.69-1.046.491-2.305.522-3.468.765-1.469.306-2.505-.72-3.318-1.519-.869-.854-1.414-2.202-1.722-3.43-.881-3.507-.167-6.762 1.746-9.857.647-1.046 1.107-2.089 2.353-2.511.13-.044.206-.276.282-.434.411-.851 1.088-1.185 2.181-1.26zm-3.909 11.344c-.009.249-.061.442-.014.608.32 1.122.076 2.417 1.109 3.322 1.329 1.164 2.815.926 3.978.053.784-.592 1.475-1.821 1.507-2.79.061-1.798-.384-3.615-.635-5.42-.017-.122-.182-.218-.255-.339-.184-.303-.322-.636-.537-.913-.461-.598-.859-1.332-1.471-1.704-.684-.416-.686.585-1.077.86l-.293.111c-.402.289-.913.513-1.165.904-.494.766-.855 1.623-1.243 2.452-.115.243-.274.706-.191.766.871.641.122 1.458.286 2.09zM112.867 41.447c-.67-.359-1.253-.613-1.763-.972-.24-.167-.479-.542-.468-.815.036-.92.272-1.838.27-2.755-.005-1.828.591-3.683-.36-5.488-.251-.473-.153-1.246.02-1.809.521-1.688.113-2.923-1.286-3.996-.717-.549-1.368-1.242-1.878-1.987-.316-.461-.316-1.14-.507-1.923-1.304-.486.374-1.648-.344-2.658l3.558.125c.074.777.121 1.742.274 2.69.061.383.263.948.546 1.059 1.367.532 1.787 1.796 2.444 2.888.053.089.157.145.31.278.542-.945 1.087-1.862 1.598-2.797.546-1.003 1.023-2.046 1.597-3.032.524-.897 1.441-.992 2.306-.335.162.123.415.145.548.286.303.327.805.723.774 1.047-.05.489-.049 1.085-.864 1.382-.709.257-1.352 1.036-1.756 1.737-1.026 1.786-1.901 3.661-2.842 5.497-.866 1.693-.841 3.503-.81 5.341.037 2.136-.221 4.238-1.366 6.237" fill="#000" sketch:type="MSShapeGroup"/><path d="M153.6 31.985c-.197-2.875.061-5.392 1.395-7.717 1.696.361 2.147 1.058 1.773 2.654l-.297 1.564c-.222.982-.535 1.867-1.625 2.287-.413.159-.696.656-1.246 1.211M49.521 32.41l-2.949-.103c.173-.985.333-1.939.507-2.89.172-.929.359-1.857.54-2.786l.331-.066c.514 1.911 1.028 3.821 1.571 5.845M180.546 28.207c2.54.136 4.691 1.013 5.932 3.348.721 1.36.983 2.911.375 4.349-.397.94-.371 2.084-1.443 2.801-.854.571-2.799 1.134-3.796.777-1.353-.484-2.147-1.365-2.486-2.758-.158-.652-.528-1.25-.791-1.877-.868-2.06.287-3.913.686-5.825.093-.443.881-.742 1.349-1.107l.174.291M124.935 32.505c-.164-.632.585-1.45-.286-2.09-.083-.061.076-.523.191-.766.388-.83.748-1.686 1.243-2.452.252-.39.763-.614 1.165-.904l.293-.111c.39-.275.393-1.276 1.077-.86.611.372 1.01 1.106 1.471 1.704.214.277.352.61.537.913.073.122.238.218.255.339.251 1.806.696 3.622.635 5.42-.032.969-.723 2.198-1.507 2.79-1.162.873-2.649 1.112-3.978-.053-1.033-.905-.789-2.2-1.109-3.322-.047-.166.005-.359.014-.608" fill="#fff" sketch:type="MSShapeGroup"/></g></svg>