<?xml version="1.0" encoding="UTF-8" standalone="no"?>
<svg width="249px" height="57px" viewBox="0 0 249 57" version="1.1" xmlns="http://www.w3.org/2000/svg" xmlns:xlink="http://www.w3.org/1999/xlink" xmlns:sketch="http://www.bohemiancoding.com/sketch/ns">
    <!-- Generator: Sketch 3.1.1 (8761) - http://www.bohemiancoding.com/sketch -->
    <title>make-your-own</title>
    <desc>Created with Sketch.</desc>
    <defs></defs>
    <g id="Page-1" stroke="none" stroke-width="1" fill="none" fill-rule="evenodd" sketch:type="MSPage">
        <g id="Imported-Layers" sketch:type="MSLayerGroup" transform="translate(124.052654, 28.983464) rotate(2.000000) translate(-124.052654, -28.983464) translate(0.052654, -2.016536)" fill="#000000">
            <path d="M118.55287,57.8752778 C118.572717,57.7398611 118.61963,57.4455556 118.686391,57.0122222 C116.753935,57.1133333 114.84313,57.1729167 112.939543,57.3245833 C111.313826,57.4563889 109.700739,57.7434722 108.075022,57.8716667 C106.396978,58.0052778 104.711717,58.02875 103.030065,58.1045833 C102.887522,58.11 102.710696,58.0883333 102.609652,58.1623611 C100.020413,60.0238889 97.0865435,59.5706944 94.1851522,59.4930556 C92.4439565,59.4443056 90.6919348,59.5580556 88.9525435,59.6898611 C87.1481957,59.8252778 85.3546739,60.1430556 83.5503261,60.2513889 C81.1108478,60.3958333 78.6641522,60.4355556 76.2192609,60.4788889 C74.2254565,60.5131944 72.2280435,60.4861111 70.2324348,60.4879167 C69.7218043,60.4897222 69.2129783,60.515 68.7023478,60.5131944 C67.722587,60.5095833 66.7428261,60.4716667 65.7630652,60.4897222 C62.1706087,60.5511111 58.5745435,60.6016667 54.982087,60.7118056 C51.5700652,60.8165278 48.1616522,60.9916667 44.7514348,61.1343056 C41.2744565,61.2805556 37.7974783,61.4195833 34.3205,61.57125 C31.244087,61.7066667 28.1694783,61.8619444 25.0930652,61.9991667 C24.2432174,62.0370833 23.4096087,62.0280556 23.6441739,60.9302778 C22.2855,60.9302778 20.999,60.8580556 19.7251304,60.9555556 C18.8933261,61.01875 18.0849783,61.36 17.2531739,61.5152778 C16.7569783,61.6073611 16.2391304,61.5965278 15.7303043,61.5965278 C14.608,61.5983333 13.4856957,61.5477778 12.3651957,61.5784722 C11.4016739,61.60375 10.4309348,61.6543056 9.48004348,61.8077778 C8.95678261,61.8926389 8.48765217,62.2681944 7.96619565,62.4180556 C6.53173913,62.8351389 5.18028261,61.5658333 5.23080435,60.2875 C4.5271087,59.8686111 3.76026087,59.6375 3.37773913,59.1211111 C2.99882609,58.6119444 2.29513043,58.0486111 2.79313043,57.1295833 C2.98619565,56.7756944 3.2333913,56.0913889 2.38173913,55.8422222 C2.21754348,55.7952778 2.22656522,55.20125 2.13093478,54.8654167 C1.69247826,53.3108333 1.32078261,51.7363889 1.18184783,50.1294444 C1.1168913,49.3963889 1.39295652,48.6380556 1.35145652,47.9013889 C1.28469565,46.7043056 0.994195652,45.5180556 0.965326087,44.3227778 C0.940065217,43.2268056 1.17102174,42.1272222 1.22154348,41.0276389 C1.25221739,40.3379167 1.1205,39.6427778 1.12591304,38.95125 C1.13132609,38.0484722 1.21613043,37.1475 1.23597826,36.2447222 C1.24680435,35.8041667 1.18184783,35.3618056 1.1583913,34.9194444 C1.08441304,33.5273611 1.02306522,32.1334722 0.931043478,30.7413889 C0.909391304,30.3947222 0.905782609,29.9559722 0.703695652,29.7302778 C-0.272456522,28.6361111 0.312152174,27.5040278 0.750608696,26.5506944 C1.62752174,24.6404167 1.1656087,22.88 0.64776087,21.0383333 C0.487173913,20.4677778 0.750608696,19.7906944 0.707304348,19.1713889 C0.644152174,18.2577778 1.26665217,18.1440278 1.90358696,17.9761111 C2.16521739,17.9075 2.40880435,17.7666667 2.74080435,17.6258333 C2.5693913,17.2845833 2.41782609,16.9794444 2.25182609,16.6508333 C4.26908696,15.8509722 6.12756522,14.4426389 8.38841304,14.6520833 C9.45297826,14.7513889 10.0826957,14.5148611 10.7737609,13.8179167 C10.9596087,13.6319444 11.5893261,13.9677778 11.9646304,13.8702778 C13.5596739,13.4586111 15.1186304,12.8952778 16.7226957,12.5359722 C18.0669348,12.23625 19.458087,12.1369444 20.8293913,11.9545833 C21.9535,11.8065278 23.0758043,11.6386111 24.2053261,11.5356944 C25.4160435,11.42375 26.637587,11.4075 27.8483043,11.29375 C28.8298696,11.2016667 29.8006087,10.9777778 30.7821739,10.9019444 C31.7222391,10.8315278 32.6911739,10.9976389 33.6131957,10.8495833 C36.2818261,10.4180556 38.9342174,9.87638889 41.5938261,9.38888889 C41.8735,9.33833333 42.1676087,9.35638889 42.4563043,9.35458333 C43.6399565,9.35097222 44.8326304,9.43583333 46.0072609,9.3275 C46.9852174,9.23722222 47.9361087,8.77319444 48.9086522,8.7425 C50.3791957,8.69375 51.8118478,8.31277778 53.3473478,8.62875 C54.453413,8.85805556 55.6948043,8.34527778 56.8820652,8.28388889 C60.3933261,8.10152778 63.91,8.04736111 67.4158478,7.80541667 C69.2418478,7.68083333 71.0443913,7.07597222 72.8667826,7.03805556 C74.5015217,7.00375 76.0352174,6.67513889 77.6068043,6.35555556 C78.2365217,6.22555556 78.9456304,6.54513889 79.6114348,6.51805556 C80.8185435,6.46930556 82.0184348,6.26888889 83.2255435,6.21472222 C84.6942826,6.14972222 86.1666304,6.16777778 87.6371739,6.15152778 C88.1532174,6.14611111 88.6710652,6.13166667 89.1853043,6.15513889 C90.0351522,6.19486111 90.8940217,6.37361111 91.7312391,6.29777778 C93.8116522,6.11 95.8812391,5.80847222 97.9562391,5.55569444 C99.4195652,5.37513889 100.881087,5.15125 102.349826,5.03388889 C103.959304,4.90569444 105.576,4.87861111 107.189087,4.80638889 C107.261261,4.80458333 107.338848,4.78833333 107.405609,4.80819444 C109.098087,5.32638889 110.783348,4.67819444 112.481239,4.77208333 C113.866978,4.84972222 115.265348,4.65291667 116.660109,4.58791667 C118.404913,4.50847222 120.151522,4.46513889 121.892717,4.34958333 C122.248174,4.32611111 122.605435,4.09138889 122.930217,3.9 C123.814348,3.38180556 124.518043,3.61652778 125.387739,4.10944444 C126.093239,4.50666667 127.074804,4.48680556 127.937283,4.51388889 C128.936891,4.54458333 129.943717,4.45611111 130.943326,4.36222222 C133.355739,4.13833333 135.845739,4.36222222 138.090348,3.13444444 C138.263565,3.04055556 138.512565,3.08388889 138.727283,3.07125 C142.514609,2.85277778 146.303739,2.66861111 150.087457,2.405 C152.178696,2.26055556 154.360152,2.29847222 156.321478,1.68277778 C158.436174,1.02013889 160.583348,1.13208333 162.694435,0.774583333 C164.233543,0.514583333 165.886326,0.980416667 167.492196,1.02194444 C169.255043,1.06708333 171.05037,1.92111111 172.796978,0.767361111 C173.110935,0.559722222 173.74787,0.884722222 174.235043,0.888333333 C176.73587,0.906388889 179.299848,1.25125 181.721283,0.810694444 C184.675,0.272638889 187.601652,0.344861111 190.548152,0.250972222 C192.265891,0.195 193.98363,0.111944444 195.70137,0.0361111111 C197.208,-0.0288888889 198.71463,-0.189583333 200.217652,-0.149861111 C202.426174,-0.0938888889 204.632891,0.101111111 206.839609,0.234722222 C207.128304,0.252777778 207.417,0.247361111 207.705696,0.252777778 C210.511457,0.314166667 213.317217,0.426111111 216.122978,0.424305556 C219.038804,0.424305556 221.958239,0.205833333 224.870457,0.287083333 C227.207087,0.352083333 229.531087,0.805277778 231.867717,0.929861111 C233.554783,1.01833333 235.256283,0.803472222 236.95237,0.8125 C238.469826,0.821527778 239.992696,0.908194444 241.504739,1.04361111 C242.22287,1.10680556 242.935587,1.32347222 243.626652,1.54555556 C244.678587,1.88319444 245.786457,2.15402778 246.712087,2.71194444 C247.172196,2.99 247.51863,3.84944444 247.511413,4.43986111 C247.486152,6.43319444 247.275043,8.42472222 247.139717,10.4180556 C247.058522,11.6295833 247.009804,12.8465278 246.897935,14.05625 C246.793283,15.1793056 246.560522,16.2933333 246.502783,17.4181944 C246.450457,18.4202778 246.58037,19.4277778 246.594804,20.4334722 C246.636304,23.2880556 246.699457,26.1408333 246.677804,28.9936111 C246.654348,32.0576389 246.555109,35.1198611 246.4685,38.1820833 C246.417978,39.975 246.28987,41.7679167 246.266413,43.5608333 C246.230326,46.2420833 246.239348,48.9251389 246.270022,51.6063889 C246.277239,52.2202778 246.122065,52.6048611 245.539261,52.8666667 C245.180196,53.0291667 244.923978,53.4173611 244.566717,53.5925 C244.045261,53.8488889 243.484109,54.1161111 242.921152,54.1720833 C242.298652,54.2316667 241.6545,54.0077778 241.01937,53.9951389 C239.462217,53.9644444 237.901457,53.9409722 236.346109,54.0059722 C235.700152,54.0330556 235.065022,54.2966667 234.424478,54.4501389 C234.269304,54.48625 234.08887,54.5819444 233.958957,54.5386111 C231.838848,53.8308333 229.646565,53.9427778 227.47413,54.0041667 C225.588587,54.0583333 223.710261,54.3454167 221.824717,54.4122222 C220.051043,54.4772222 218.271957,54.4013889 216.496478,54.3652778 C216.074261,54.35625 215.655652,54.2118056 215.233435,54.21 C212.49263,54.19375 209.746413,54.1197222 207.009217,54.2280556 C204.77363,54.3147222 202.54887,54.6451389 200.316891,54.8275 C199.640261,54.8816667 198.954609,54.7931944 198.272565,54.7877778 C197.209804,54.7805556 196.145239,54.7516667 195.086087,54.7986111 C193.945739,54.8473611 192.812609,55.0044444 191.672261,55.0622222 C189.770478,55.1561111 187.866891,55.2463889 185.963304,55.2680556 C182.964478,55.3041667 179.965652,55.2590278 176.965022,55.2951389 C175.24187,55.315 173.515109,55.5208333 171.795565,55.4756944 C170.020087,55.42875 168.251826,55.1579167 166.478152,55.0279167 C165.44787,54.9520833 164.41037,54.9538889 163.376478,54.9358333 C161.590174,54.9033333 159.802065,54.8130556 158.017565,54.8798611 C156.640848,54.9304167 155.269543,55.1831944 153.896435,55.3456944 C152.839087,55.4702778 151.785348,55.6255556 150.724391,55.7122222 C148.203717,55.9198611 145.683043,56.1130556 143.158761,56.2755556 C141.966087,56.3513889 140.768,56.3333333 139.571717,56.3694444 C137.348761,56.43625 135.124,56.4651389 132.904652,56.5969444 C130.095283,56.7648611 127.287717,56.9869444 124.485565,57.2577778 C123.404761,57.3625 122.351022,57.7290278 121.270217,57.8554167 C120.402326,57.9565278 119.512783,57.8752778 118.55287,57.8752778 L118.55287,57.8752778 Z M76.6793696,9.81319444 C74.5791087,10.0244444 72.5383913,10.2627778 70.4904565,10.4252778 C68.8809783,10.5516667 67.2624783,10.5625 65.6493913,10.6581944 C62.3023261,10.8604167 58.9570652,11.0861111 55.6118043,11.3009722 C54.0889348,11.3984722 52.5317826,11.2233333 51.081087,11.8877778 C50.9583913,11.94375 50.801413,11.9455556 50.6606739,11.9455556 C48.9555652,11.9509722 47.2486522,11.9238889 45.5435435,11.9581944 C43.2808913,12.0033333 41.0092174,12.0015278 38.7573913,12.2073611 C37.599,12.3138889 36.483913,12.8447222 35.3399565,13.1498611 C33.8874565,13.53625 32.5666739,14.3776389 30.9914783,14.3451389 C30.2787609,14.3288889 29.5552174,14.3559722 28.8515217,14.4625 C27.1085217,14.7225 25.3763478,15.0601389 23.6333478,15.3219444 C23.1678261,15.3923611 22.6752391,15.2533333 22.2025,15.2966667 C21.3219783,15.3761111 20.4504783,15.5404167 19.5717609,15.6288889 C18.6154565,15.7281944 17.6447174,15.7263889 16.6992391,15.8834722 C16.3491957,15.9430556 15.8493913,16.2770833 15.7736087,16.575 C15.6003913,17.2502778 15.2016304,17.1202778 14.7343043,17.1365278 C13.3846522,17.1870833 11.915913,16.7519444 10.8423261,18.0736111 C10.7033913,18.2451389 10.2468913,18.2343056 9.95278261,18.1909722 C8.45156522,17.9670833 6.93591304,18.0681944 5.63497826,18.76875 C4.9763913,19.1226389 4.65882609,20.1138889 4.18969565,20.8180556 C4.17345652,20.8433333 4.17526087,20.8956944 4.1915,20.9245833 C4.77971739,21.9988889 4.45673913,23.12375 4.41884783,24.2431944 C4.36652174,25.8122222 4.79234783,27.3036111 4.30697826,28.9755556 C3.85228261,30.5391667 4.04354348,32.4711111 4.5235,34.0690278 C4.94571739,35.4701389 4.65341304,36.6581944 4.51447826,37.9509722 C4.3123913,39.8269444 4.02730435,41.7083333 4.02730435,43.5879167 C4.02730435,44.9836111 4.41884783,46.3811111 4.648,47.775 C4.76708696,48.5044444 4.86813043,49.2411111 5.07021739,49.9488889 C5.1838913,50.3479167 5.60791304,50.6711111 5.67467391,51.0665278 C5.82623913,51.9765278 5.81541304,52.9136111 5.92728261,53.8326389 C6.03554348,54.7444444 6.18891304,55.6508333 6.37476087,56.55 C6.45956522,56.9598611 6.66706522,57.34625 6.89982609,57.9565278 C8.36676087,57.8788889 10.0772826,57.7326389 11.7878043,57.7145833 C13.6228261,57.6965278 15.4614565,57.8680556 17.2946739,57.8301389 C18.7814565,57.80125 20.2700435,57.6225 21.751413,57.4455556 C24.6131087,57.1061111 27.4513478,57.7127778 30.331087,57.5954167 C32.3393261,57.5159722 34.4323696,57.72 36.483913,57.6459722 C37.7216957,57.6008333 38.9504565,57.3101389 40.5996304,57.0681944 C41.1481522,57.3227778 42.0990435,57.6965278 43.331413,57.5231944 C44.4717609,57.3606944 45.686087,57.8247222 46.8733478,57.8680556 C48.7895652,57.9366667 50.7111957,57.915 52.6292174,57.8788889 C54.1719348,57.85 55.7128478,57.6911111 57.2537609,57.6875 C58.6160435,57.6838889 59.9783261,57.8969444 61.3388043,57.86625 C63.1882609,57.8247222 65.0214783,57.7434722 66.8853696,57.8120833 C70.129587,57.9348611 73.3918478,57.5665278 76.6486957,57.4654167 C78.6767826,57.4022222 80.7102826,57.5069444 82.7383696,57.4347222 C84.1168913,57.3859722 85.49,57.1602778 86.8667174,57.02125 C88.597087,56.8443056 90.3346739,56.7233333 92.0578261,56.4922222 C94.7841957,56.1275 97.4979348,55.6472222 100.227913,55.29875 C103.464913,54.8852778 106.727174,54.6541667 109.951543,54.1648611 C112.403652,53.7929167 114.785391,53.8416667 117.165326,54.5006944 C117.435978,54.5747222 117.72287,54.6288889 118.002543,54.6306944 C120.456457,54.6397222 122.913978,54.6668056 125.369696,54.6288889 C127.275087,54.5981944 129.184087,54.5386111 131.084065,54.3833333 C132.487848,54.2695833 133.869978,53.8868056 135.273761,53.7911111 C138.308674,53.5834722 141.350804,53.4913889 144.389326,53.3343056 C146.888348,53.2043056 149.401804,53.1808333 151.87737,52.8666667 C155.0025,52.47125 158.109587,52.1263889 161.258174,52.4640278 C161.541457,52.4947222 161.831957,52.4423611 162.118848,52.4261111 C163.120261,52.3701389 164.123478,52.2311111 165.119478,52.2744444 C167.14937,52.3611111 169.173848,52.5976389 171.205543,52.6716667 C173.161457,52.7420833 175.120978,52.6806944 177.078696,52.6806944 C178.132435,52.6788889 179.189783,52.73125 180.241717,52.6734722 C182.125457,52.56875 184.003783,52.3629167 185.889326,52.2636111 C187.971543,52.1516667 190.060978,52.1606944 192.141391,52.0234722 C194.625978,51.8609722 197.105152,51.6027778 199.58613,51.3788889 C200.472065,51.2976389 201.354391,51.1911111 202.238522,51.1008333 C202.944022,51.0286111 203.651326,50.895 204.356826,50.91125 C205.782261,50.9455556 207.204087,51.1134722 208.631326,51.13875 C211.45513,51.1893056 214.282543,51.1676389 217.106348,51.2019444 C217.958,51.2109722 218.806043,51.35 219.655891,51.3481944 C220.438978,51.3463889 221.220261,51.1965278 222.003348,51.1802778 C223.522609,51.1495833 225.045478,51.2091667 226.564739,51.1586111 C230.076,51.04125 233.587261,50.8715278 237.098522,50.7433333 C238.148652,50.7036111 239.204196,50.7668056 240.252522,50.71625 C240.642261,50.6981944 241.022978,50.3822222 241.407304,50.3858333 C242.04063,50.39125 242.672152,50.5465278 243.305478,50.6404167 C243.336152,50.5176389 243.365022,50.3948611 243.393891,50.2702778 C242.9825,50.0680556 242.569304,49.8640278 242.13987,49.6527778 C242.74613,48.3852778 241.50113,47.8418056 241.015761,46.7981944 C241.450609,46.6645833 241.862,46.54 242.36,46.3865278 C242.197609,46.0055556 241.946804,45.5505556 241.815087,45.0648611 C241.728478,44.7434722 241.66713,44.2415278 241.842152,44.0501389 C243.334348,42.4143056 242.910326,40.6845833 242.282413,39.1372222 C242.641478,38.2723611 243.139478,37.5826389 243.188196,36.8604167 C243.348783,34.4247222 243.352391,31.9763889 243.401109,29.5316667 C243.404717,29.4125 243.253152,29.29875 243.213457,29.1705556 C243.125043,28.8708333 242.973478,28.5530556 243.005957,28.25875 C243.072717,27.6430556 242.585543,26.8829167 243.420957,26.4333333 C243.458848,26.4116667 243.419152,26.2293056 243.401109,26.1245833 C243.209848,24.9979167 242.8165,23.9308333 243.383065,22.7265278 C243.724087,22.0025 243.610413,21.0491667 243.635674,20.1969444 C243.673565,18.9998611 243.650109,17.8009722 243.653717,16.6038889 C243.655522,15.6956944 243.653717,14.7875 243.662739,13.8793056 C243.677174,12.6190278 243.71687,11.35875 243.715065,10.0984722 C243.715065,8.82013889 243.713261,7.54180556 243.63387,6.26708333 C243.614022,5.93847222 243.370435,5.55388889 243.116022,5.32097222 C241.688783,4.02458333 238.772957,3.92708333 237.002891,5.0375 C236.777348,5.18013889 236.41287,5.15666667 236.118761,5.13138889 C234.662652,4.99958333 233.082043,4.41458333 231.781109,4.79555556 C229.902783,5.34263889 228.033478,5.32277778 226.178609,5.39319444 C224.329152,5.46180556 222.486913,5.70194444 220.568891,5.32097222 C218.376609,4.88402778 216.058022,5.09166667 213.793565,5.01763889 C211.752848,4.95263889 209.710326,4.80458333 207.669609,4.83888889 C205.711891,4.86958333 203.755978,5.11333333 201.796457,5.21083333 C201.242522,5.23791667 200.675957,5.09527778 200.118413,5.01041667 C199.771978,4.95986111 199.430957,4.80458333 199.089935,4.81361111 C196.865174,4.86416667 194.642217,4.94361111 192.419261,5.02666667 C192.21537,5.03388889 192.013283,5.17833333 191.809391,5.18013889 C189.355478,5.19277778 186.901565,5.19638889 184.447652,5.19277778 C183.603217,5.19097222 182.758783,5.12236111 181.916152,5.15305556 C180.09737,5.21986111 178.27137,5.48347222 176.463413,5.38958333 C173.590891,5.23972222 170.734609,4.75944444 167.863891,4.62583333 C166.173217,4.54638889 164.466304,4.88944444 162.766609,5.00861111 C159.453826,5.23972222 156.141043,5.46361111 152.826457,5.66222222 C151.038348,5.76875 149.244826,5.77055556 147.458522,5.89875 C143.905761,6.15513889 140.354804,6.46388889 136.805652,6.75277778 C136.556652,6.77444444 136.313065,6.82861111 136.06587,6.84847222 C134.644043,6.96041667 133.222217,7.16263889 131.802196,7.14819444 C130.425478,7.13555556 129.032522,6.70041667 127.675652,6.80875 C125.486978,6.98388889 123.347022,7.26916667 121.116848,7.03625 C119.303478,6.84666667 117.428761,7.24930556 115.581109,7.39736111 C114.837717,7.45694444 114.097935,7.55805556 113.352739,7.60138889 C112.167283,7.67 110.971,7.64111111 109.792761,7.76930556 C107.33163,8.04013889 104.884935,8.45180556 102.418391,8.67208333 C101.294283,8.77319444 100.137696,8.46805556 99.0009565,8.50777778 C96.861,8.58361111 94.7264565,8.80569444 92.5865,8.90138889 C91.8485217,8.93569444 91.0762609,8.61972222 90.3617391,8.73347222 C88.2073478,9.07833333 86.071,9.54055556 83.9346522,9.98833333 C83.0938261,10.1652778 82.2728478,10.4288889 81.4428478,10.6509722 C80.7102826,10.8459722 79.9867391,11.0825 79.2433478,11.2251389 C78.4331957,11.3822222 77.605,11.4526389 76.7605652,11.5645833 C76.728087,10.8604167 76.7046304,10.3620833 76.6793696,9.81319444 L76.6793696,9.81319444 Z" id="Fill-1" sketch:type="MSShapeGroup"></path>
            <path d="M26.9154565,33.2348611 C27.141,32.5631944 27.307,31.8626389 27.6137391,31.2306944 C27.8609348,30.7251389 28.2993913,30.3152778 28.6151522,29.8386111 C29.5660435,28.405 30.3996522,26.8793056 31.4642174,25.5359722 C33.4201304,23.0659722 33.9451957,23.9001389 35.3327391,26.0866667 C36.722087,28.2786111 36.8501957,30.8425 37.1154348,33.36125 C37.3824783,35.8926389 37.7992826,38.4095833 38.1511304,40.9319444 C38.2287174,41.4934722 38.2467609,42.0730556 38.4073478,42.6093056 C38.6022174,43.2629167 38.9179783,43.8786111 39.1796087,44.5105556 C39.3383913,44.50875 39.4971739,44.5069444 39.6559565,44.5069444 C39.1272826,45.6390278 38.5968043,46.7729167 38.0753478,47.8869444 C36.888087,47.8526389 35.9408043,47.5113889 35.5943696,46.2908333 C35.5059565,45.9784722 35.4843043,45.6354167 35.487913,45.3086111 C35.4933261,44.8463889 35.6286522,44.3769444 35.5745217,43.9255556 C35.3922826,42.3944444 35.1649348,40.8651389 34.9285652,39.34125 C34.7517391,38.1911111 34.5063478,37.05 34.3385435,35.8998611 C34.2104348,35.0169444 34.1761522,34.1231944 34.0678913,33.2384722 C33.8802391,31.7091667 33.6673261,30.1852778 33.4345652,28.4122222 C33.0628696,28.6956944 32.8373261,28.7859722 32.7416957,28.9538889 C32.1661087,29.9541667 31.6338261,30.9797222 31.0564348,31.98 C30.6360217,32.71125 30.1001304,33.3811111 29.7338478,34.1358333 C29.1726957,35.2877778 28.6548478,36.4704167 28.2308261,37.6783333 C27.893413,38.6352778 25.6686522,39.5561111 24.8621087,38.9566667 C24.7087391,38.8429167 24.6185217,38.6045833 24.562587,38.4059722 C24.3063696,37.4923611 24.1205217,36.5552778 23.8191957,35.6579167 C23.4023913,34.4156944 22.902587,33.2023611 22.3486522,31.73625 C21.6720217,33.4768056 21.1866522,35.0223611 20.4739348,36.4577778 C19.997587,37.4201389 19.7034783,38.4438889 19.0575217,39.3827778 C18.2563913,40.5491667 18.0091957,42.12 17.6266739,43.5445833 C17.2621957,44.9023611 16.6974348,46.1463889 15.6166304,47.0275 C15.308087,47.2784722 14.4185435,47.2351389 14.1172174,46.9661111 C13.7545435,46.6411111 13.4875,45.8629167 13.6156087,45.4043056 C13.897087,44.4004167 14.4925217,43.4886111 14.8912826,42.5118056 C15.5101739,40.9969444 16.0929783,39.4676389 16.6523261,37.9275 C17.5617174,35.4213889 18.4638913,32.9098611 19.3173478,30.3838889 C19.6276957,29.4648611 20.0408913,28.6198611 20.1455435,27.5618056 C20.2375652,26.6463889 21.4807609,25.7941667 22.332413,25.0502778 C22.498413,24.9058333 23.4312609,25.2633333 23.6243261,25.6063889 C24.1133043,26.4802778 24.402,27.4733333 24.739413,28.4284722 C25.3059783,30.0227778 25.849087,31.6279167 26.4012174,33.2276389 C26.5726304,33.2294444 26.7440435,33.2330556 26.9154565,33.2348611" id="Fill-3" sketch:type="MSShapeGroup"></path>
            <path d="M153.546391,34.1972222 C153.60413,34.9591667 153.669087,35.7211111 153.716,36.4848611 C153.732239,36.7575 153.70337,37.0319444 153.68713,37.3063889 C153.660065,37.7325 153.43813,38.2886111 153.627587,38.56125 C154.553217,39.9009722 153.23063,40.3722222 152.674891,41.0601389 C152.443935,41.3454167 151.552587,41.5061111 151.343283,41.3111111 C150.910239,40.9138889 150.511478,40.2440278 150.495239,39.6734722 C150.42487,37.4219444 150.845283,35.1776389 150.385174,32.90625 C150.062196,31.31375 150.161435,29.6381944 149.860109,28.0384722 C149.71937,27.2891667 149.520891,26.6193056 149.663435,25.8266667 C149.870935,24.6711111 150.193913,24.29375 151.3505,24.29375 C151.511087,24.29375 151.707761,24.2413889 151.823239,24.1402778 C152.754283,23.3295833 153.651043,22.4791667 154.605543,21.6991667 C154.775152,21.5601389 155.242478,21.5691667 155.433739,21.7063889 C156.611978,22.5459722 157.810065,23.3783333 158.869217,24.3569444 C159.246326,24.7036111 159.432174,25.46375 159.399696,26.01625 C159.246326,28.6 158.825913,31.1530556 157.360783,33.3558333 C156.830304,34.1520833 157.229065,34.5601389 157.681957,34.98625 C159.2355,36.4469444 160.821522,37.8715278 162.407543,39.2997222 C162.882087,39.7276389 163.403543,40.0995833 163.879891,40.5275 C164.413978,41.0059722 164.794696,41.5422222 164.314739,42.2915278 C164.224522,42.4341667 164.192043,42.6273611 164.179413,42.8006944 C164.085587,44.0302778 163.131087,44.1873611 162.246957,44.18375 C161.85,44.18375 161.164348,43.7088889 161.104804,43.3622222 C160.731304,41.2208333 158.990109,40.2602778 157.58813,38.9819444 C156.487478,37.97625 155.412087,36.9344444 154.430522,35.815 C154.058826,35.3943056 153.983043,34.7154167 153.771935,34.1520833 C153.696152,34.1683333 153.62037,34.1827778 153.546391,34.1972222 L153.546391,34.1972222 Z M153.64563,32.9658333 C154.176109,32.3916667 154.441348,31.8843056 154.84913,31.7109722 C155.924522,31.2523611 156.206,30.3568056 156.393652,29.3673611 C156.492891,28.8473611 156.532587,28.3129167 156.635435,27.7929167 C156.953,26.1841667 156.478457,25.5034722 154.769739,25.2019444 C153.517522,27.5726389 153.347913,30.0986111 153.64563,32.9658333 L153.64563,32.9658333 Z" id="Fill-4" sketch:type="MSShapeGroup"></path>
            <path d="M60.4889565,34.5240278 C60.7722391,34.4409722 61.0230435,34.4409722 61.0717609,34.3416667 C61.8783043,32.7148611 62.6974783,31.0934722 63.4336522,29.4341667 C63.8991739,28.3869444 64.1770435,27.2566667 64.6479783,26.21125 C64.8789348,25.6966667 64.9041957,24.8426389 65.8496739,24.9636111 C66.9286739,25.1008333 67.5854565,25.6858333 67.6197391,26.5976389 C67.6774783,28.0583333 67.3436739,29.3727778 66.0878478,30.2954167 C66.0301087,30.3369444 65.979587,30.3965278 65.948913,30.4597222 C65.3625,31.6134722 64.7815,32.7690278 64.2203478,33.8830556 C65.1513913,34.1990278 66.0571739,34.62875 67.0098696,34.8056944 C69.227413,35.2191667 70.0826739,36.8838889 70.8188478,38.6984722 C71.302413,39.8865278 71.5478043,41.1919444 72.7765652,41.9611111 C73.0472174,42.1308333 73.1139783,42.6291667 73.2258478,42.8693056 C72.8649783,43.5536111 72.6881522,44.3209722 72.2081957,44.6820833 C71.6975652,45.0666667 70.8982391,45.0684722 70.2576957,45.2291667 C69.559413,43.1708333 68.9206739,41.2840278 68.2801304,39.3972222 C67.9120435,38.3120833 65.9110217,37.1204167 64.8049565,37.3154167 C64.319587,37.4002778 63.8288043,37.4995833 63.3380217,37.5086111 C61.8440217,37.5375 61.2666304,38.5666667 61.9396522,39.9605556 C62.2373696,40.57625 62.3456304,41.2894444 62.6631957,41.8925 C63.2640435,43.0281944 62.4304348,43.6854167 61.8855217,44.4130556 C61.4596957,44.9836111 59.640913,44.6261111 59.4911522,43.8984722 C59.3648478,43.2936111 58.5943913,42.6725 59.3341739,41.9791667 C59.3955217,41.9213889 59.4171739,41.7570833 59.3828913,41.6722222 C58.7459565,40.15375 58.8253478,38.4854167 58.4121522,36.9380556 C58.1036087,35.7752778 57.9448261,34.5402778 57.5605,33.4677778 C56.9578478,31.7904167 57.0029565,29.8548611 55.656913,28.4194444 C54.7727826,27.4769444 54.7908261,26.1859722 55.4512174,25.2904167 C55.9943261,24.5501389 57.1491087,24.4670833 57.6597391,25.2127778 C58.8217391,26.9045833 59.6860217,28.74625 60.0342609,30.7829167 C60.2417609,31.99625 60.335587,33.2276389 60.4889565,34.5240278" id="Fill-5" sketch:type="MSShapeGroup"></path>
            <path d="M205.933826,37.1222222 C205.926609,36.1652778 204.925196,35.8691667 204.448848,35.2913889 C204.06813,34.8291667 203.674783,35.2155556 203.398717,35.6723611 C202.565109,37.0536111 201.709848,38.4222222 200.83113,39.7745833 C200.410717,40.4209722 199.342543,40.6159722 198.956413,40.0363889 C198.05063,38.675 197.280174,37.2251389 196.464609,35.8059722 C196.397848,35.6904167 196.441152,35.5098611 196.374391,35.3925 C195.378391,33.6356944 194.367957,31.8879167 193.373761,30.1293056 C193.173478,29.7754167 193.058,29.3709722 192.852304,29.0206944 C192.403022,28.2605556 192.00787,27.4408333 191.425065,26.79625 C190.815196,26.1191667 190.901804,25.5233333 191.383565,24.96 C192.374152,23.7954167 193.765304,24.0879167 194.467196,25.4493056 C195.333283,27.1302778 196.341913,28.7372222 197.238674,30.40375 C198.010935,31.8373611 199.102565,33.1048611 199.497717,34.7425 C199.551848,34.9681944 199.802652,35.2895833 199.984891,35.3040278 C200.172543,35.3184722 200.490109,35.05125 200.565891,34.8418056 C200.827522,34.1195833 201.083739,33.3811111 201.201022,32.6281944 C201.332739,31.7886111 202.119435,30.5427778 202.924174,30.4109722 C203.864239,30.2575 204.474109,30.8930556 205.082174,31.5394444 C206.081783,32.6011111 207.153565,33.5941667 208.449087,34.8652778 C208.941674,33.4081944 209.336826,32.2779167 209.704913,31.1386111 C210.148783,29.77 210.776696,28.4356944 210.534913,26.9298611 C210.513261,26.7890278 210.572804,26.6265278 210.524087,26.5001389 C210.222761,25.7129167 210.089239,24.7090278 210.897587,24.4291667 C211.792543,24.1186111 212.885978,24.31 213.880174,24.4093056 C214.089478,24.4291667 214.286152,24.97625 214.419674,25.3084722 C214.939326,26.60125 214.598304,27.5690278 213.385783,28.3273611 C213.042957,28.5422222 212.878761,29.1434722 212.759674,29.6002778 C212.415043,30.9472222 212.194913,32.3266667 211.814196,33.6609722 C211.345065,35.3076389 210.823609,36.9452778 210.208326,38.5413889 C209.85287,39.4622222 207.249196,38.8627778 206.839609,38.1152778 C206.61587,37.7072222 206.199065,37.4056944 205.933826,37.1222222" id="Fill-6" sketch:type="MSShapeGroup"></path>
            <path d="M230.523478,21.9898611 C230.0345,21.9320833 229.724152,21.8941667 229.339826,21.8472222 C229.419217,21.6016667 229.419217,21.32 229.54913,21.2333333 C230.50363,20.5977778 231.468957,19.9766667 232.47037,19.4205556 C232.630957,19.3302778 233.094674,19.51625 233.235413,19.7094444 C234.206152,21.0383333 234.106913,21.9573611 233.192109,23.4541667 C232.825826,24.0536111 232.780717,24.8534722 232.605696,25.5666667 C231.793739,28.8672222 231.618717,32.2363889 231.510457,35.6163889 C231.492413,36.1797222 231.311978,36.8676389 230.9475,37.2486111 C230.667826,37.5393056 229.955109,37.5609722 229.476957,37.4725 C228.986174,37.3822222 228.545913,37.0138889 228.084,36.7665278 C227.961304,36.6997222 227.730348,36.6365278 227.730348,36.5697222 C227.714109,35.0855556 226.126283,34.7713889 225.590391,33.6555556 C225.061717,32.5523611 224.334565,31.5430556 223.748152,30.4633333 C223.455848,29.9216667 223.28263,29.3131944 222.984913,28.5530556 C222.818913,28.8925 222.689,29.0495833 222.665543,29.2211111 C222.304674,31.8066667 221.893283,34.3886111 221.640674,36.985 C221.55587,37.8697222 221.810283,38.7833333 220.633848,39.0397222 C220.180957,39.1390278 219.468239,39.2943056 219.276978,39.0740278 C218.901674,38.6406944 218.576891,37.9293056 218.652674,37.3948611 C218.786196,36.4668056 218.773565,35.8186111 217.716217,35.6922222 C217.716217,35.5676389 217.703587,35.5080556 217.718022,35.5008333 C219.776783,34.4861111 219.497109,32.4006944 219.803848,30.66375 C220.180957,28.5368056 220.236891,26.3556944 220.512957,24.2070833 C220.608587,23.4794444 220.776391,22.66875 221.748935,22.4827778 C222.441804,22.3509722 223.670565,23.0515278 223.986326,23.7105556 C225.252978,26.3484722 226.539478,28.9773611 227.849435,31.5936111 C228.01363,31.9204167 228.363674,32.1551389 228.764239,32.5776389 C229.146761,30.6077778 229.511239,28.9286111 229.790913,27.235 C230.074196,25.5269444 230.272674,23.80625 230.523478,21.9898611" id="Fill-7" sketch:type="MSShapeGroup"></path>
            <path d="M50.3791957,39.6427778 C48.7065652,40.0381944 47.2125652,40.3920833 45.4731739,40.8055556 C45.364913,42.0261111 45.2187609,43.4597222 45.1141087,44.89875 C45.0311087,46.0326389 43.7446087,46.7945833 42.7143261,46.2727778 C42.5483261,46.1897222 42.3859348,46.0218056 42.3101522,45.8538889 C42.1044565,45.3880556 41.9474783,44.9023611 41.8211739,44.5665278 C42.2091087,42.8602778 42.5699783,41.2226389 42.9525,39.5886111 C43.4901957,37.29375 44.1145,35.0151389 44.5691957,32.7040278 C44.9246522,30.9002778 45.1736522,29.0640278 45.2999565,27.2313889 C45.4226522,25.4601389 46.0072609,24.9275 47.7231957,25.3716667 C47.891,25.4131944 48.0732391,25.4077778 48.1923261,25.4186111 C48.5983043,26.2545833 48.9573696,27.0454167 49.3597391,27.8145833 C50.3322826,29.6706944 51.205587,31.5286111 51.4527826,33.6790278 C51.5466087,34.4969444 51.6566739,35.5676389 52.7573261,36.1219444 C53.1091739,36.2988889 52.948587,37.3876389 53.1308261,38.0286111 C53.6198043,39.73125 54.235087,41.3995833 54.6645217,43.1166667 C54.8666087,43.9255556 54.7637609,44.8138889 54.78,45.6661111 C54.7818043,45.7383333 54.650087,45.8394444 54.5598696,45.8845833 C54.0907391,46.1229167 52.1131739,45.5306944 51.869587,45.02875 C51.537587,44.34625 51.0666522,43.7955556 51.0973261,42.8656944 C51.1352174,41.7570833 50.6227826,40.6322222 50.3791957,39.6427778 L50.3791957,39.6427778 Z M49.6051304,37.0355556 C48.9916522,35.0313889 48.4106522,33.1391667 47.8296522,31.2469444 C47.719587,31.2722222 47.6113261,31.2975 47.5012609,31.3245833 C47.3533043,32.2598611 47.1981304,33.1933333 47.0591957,34.1286111 C46.9184565,35.0855556 46.7921522,36.0443056 46.6532174,37.0355556 L49.6051304,37.0355556 L49.6051304,37.0355556 Z" id="Fill-8" sketch:type="MSShapeGroup"></path>
            <path d="M83.8805217,23.3783333 C83.8083478,24.3009722 83.9202174,25.0448611 83.6676087,25.6298611 C83.2634348,26.5597222 82.216913,26.4694444 81.376087,26.6951389 C80.1671739,27.0183333 78.969087,27.3830556 77.7908478,27.8019444 C77.5869565,27.8741667 77.3848696,28.3002778 77.392087,28.5602778 C77.4155435,29.6309722 77.485913,30.7034722 77.6194348,31.7651389 C77.6465,31.9727778 78.0633043,32.3194444 78.2437391,32.2869444 C79.5536957,32.0522222 80.842,31.6983333 82.1537609,31.4672222 C82.7419783,31.3643056 83.6008478,31.2126389 83.9166087,31.5177778 C84.3839348,31.9691667 84.5048261,32.7997222 84.7015,33.4894444 C84.7393913,33.6230556 84.4759565,33.9715278 84.2991304,34.0184722 C82.7816739,34.4175 81.257,34.7948611 79.7251087,35.1288889 C78.6858043,35.3563889 78.0434565,36.25375 78.3285435,37.2648611 C78.5631087,38.0990278 78.6984348,39.0325 79.182,39.7023611 C79.4761087,40.1104167 80.3458043,40.2476389 80.9592826,40.2530556 C82.6120652,40.2675 84.2684565,40.1645833 85.9194348,40.0652778 C86.2063261,40.0472222 86.480587,39.8233333 86.8270217,39.6644444 C87.4080217,40.1988889 88.016087,40.7459722 88.607913,41.3075 C89.0175,41.6956944 88.5772391,42.5677778 87.8663261,42.9433333 C87.2113478,43.2881944 86.2604565,42.8711111 85.7931304,43.7558333 C85.7714783,43.7955556 85.1381522,43.4091667 84.7826957,43.3911111 C83.7758696,43.3405556 82.7636304,43.3531944 81.755,43.3893056 C80.9755217,43.4163889 80.1978478,43.5229167 79.4183696,43.5825 C78.7236957,43.6366667 78.1571304,43.55 77.9586522,42.6869444 C77.9135435,42.4883333 77.3325435,42.3258333 76.987913,42.3023611 C75.9053043,42.2283333 75.2972391,41.4844444 75.4686522,40.4065278 C75.8331304,38.0863889 75.5390217,35.7915278 75.1565,33.5020833 C74.8136739,31.4491667 74.4419783,29.3980556 74.1370435,27.3397222 C74.030587,26.6084722 74.0504348,25.8483333 75.1258261,25.7923611 C75.2701739,25.7851389 75.3892609,25.5161111 75.5390217,25.3897222 C75.8078696,25.1640278 76.0586739,24.8570833 76.3726304,24.7577778 C78.0705217,24.2197222 79.7666087,23.6618056 81.500587,23.2681944 C82.2205217,23.1038889 83.0288696,23.3259722 83.8805217,23.3783333" id="Fill-9" sketch:type="MSShapeGroup"></path>
            <path d="M182.062304,42.7176389 C179.741913,42.7176389 178.083717,41.5729167 177.129217,39.34125 C176.566261,38.025 175.849935,36.7593056 175.424109,35.4015278 C175.065043,34.2495833 174.95137,33.0344444 175.368174,31.7795833 C175.853543,30.3206944 176.129609,28.7895833 176.456196,27.2819444 C176.945174,25.0195833 179.000326,24.7036111 180.656717,25.0647222 C180.795652,25.0954167 180.945413,25.1893056 181.068109,25.1586111 C182.439413,24.8281944 183.397522,25.7725 184.436826,26.3304167 C185.68363,26.9984722 187.024261,27.625 187.699087,29.0261111 C188.372109,30.4218056 189.212935,31.7615278 189.691087,33.2204167 C190.023087,34.2351389 190.120522,35.47375 189.8625,36.4975 C189.544935,37.7541667 188.906196,39.0090278 188.124913,40.0544444 C186.677826,41.99 184.007391,42.9072222 182.062304,42.7176389 L182.062304,42.7176389 Z M180.452826,28.2443056 C180.391478,28.1486111 180.33013,28.0547222 180.268783,27.9590278 C179.814087,28.34 179.036413,28.6668056 178.958826,29.1127778 C178.626826,31.0393056 177.537,32.9315278 178.477065,34.9609722 C178.762152,35.5784722 179.153696,36.1634722 179.33413,36.8098611 C179.722065,38.1911111 180.546652,39.0433333 181.916152,39.4802778 C182.924783,39.8016667 184.850022,39.1715278 185.68363,38.5702778 C186.730152,37.8155556 186.663391,36.6726389 187.02787,35.7193056 C187.585413,34.2604167 187.269652,32.7184722 186.501,31.3841667 C185.178413,29.0929167 182.996957,28.29125 180.452826,28.2443056 L180.452826,28.2443056 Z" id="Fill-10" sketch:type="MSShapeGroup"></path>
            <path d="M134.92913,26.3556944 C135.535391,25.8411111 136.080304,25.0845833 136.793022,24.8606944 C137.431761,24.6584722 138.256348,25.0430556 139.194609,25.20375 C139.154913,26.1263889 139.019587,26.9948611 139.102587,27.8416667 C139.234304,29.1741667 139.517587,30.4922222 139.726891,31.8175 C140.0625,33.9444444 140.434196,36.0695833 140.703043,38.2073611 C140.834761,39.2636111 141.612435,39.8179167 142.359435,39.8016667 C143.140717,39.7836111 143.705478,38.9151389 143.820957,38.0647222 C144.026652,36.5516667 144.198065,35.0277778 144.261217,33.5038889 C144.335196,31.7326389 144.2955,29.9541667 144.264826,28.1775 C144.255804,27.6538889 144.230543,27.0743056 144.008609,26.6211111 C143.425804,25.43125 143.853435,24.45625 144.492174,23.4975 C144.584196,23.3584722 144.820565,23.2248611 144.982957,23.2356944 C146.27487,23.3169444 147.37913,23.8929167 147.151783,25.6027778 C146.989391,26.8197222 147.236587,28.0926389 147.306957,29.3402778 C147.368304,30.4091667 147.509043,31.4780556 147.494609,32.5451389 C147.445891,35.9377778 147.303348,39.3195833 144.706891,41.9611111 C143.691043,42.9938889 141.56913,43.27375 140.165348,42.6093056 C138.505348,41.8238889 137.78,40.4805556 137.540022,38.7002778 C137.291022,36.8640278 136.8255,35.0584722 136.518761,33.2276389 C136.412304,32.5920833 136.554848,31.9186111 136.491696,31.2722222 C136.38163,30.1473611 136.280587,29.0080556 136.011739,27.9156944 C135.885435,27.4029167 135.380217,26.9822222 134.92913,26.3556944" id="Fill-11" sketch:type="MSShapeGroup"></path>
            <path d="M128.516478,23.0118056 C128.917043,23.3151389 129.360913,23.57875 129.712761,23.9308333 C130.533739,24.7523611 131.324043,25.6027778 132.098109,26.4676389 C132.365152,26.7655556 132.570848,27.1266667 132.762109,27.4823611 C133.135609,28.1829167 133.61737,28.8636111 133.805022,29.6147222 C134.142435,30.9779167 134.526761,32.3934722 134.469022,33.7711111 C134.404065,35.3256944 133.859152,36.8586111 133.550609,38.4077778 C133.26913,39.8125 132.199152,40.6231944 131.102109,41.1865278 C130.07363,41.71375 128.816,41.7895833 127.661217,42.0730556 C126.203304,42.4305556 125.131522,41.4411111 124.290696,40.6701389 C123.39213,39.8468056 122.800304,38.5179167 122.448457,37.3009722 C121.445239,33.8252778 122.044283,30.5463889 123.84863,27.3848611 C124.4585,26.3159722 124.882522,25.2579167 126.113087,24.7920833 C126.241196,24.7433333 126.309761,24.5086111 126.38013,24.3479167 C126.760848,23.4830556 127.426652,23.1255556 128.516478,23.0118056 L128.516478,23.0118056 Z M125.005217,34.4897222 C125.005217,34.7388889 124.960109,34.9338889 125.012435,35.0981944 C125.3715,36.2086111 125.173022,37.5122222 126.237587,38.3806944 C127.607087,39.4983333 129.084848,39.2076389 130.216174,38.2940278 C130.979413,37.6747222 131.627174,36.4216667 131.62537,35.4520833 C131.623565,33.6519444 131.114739,31.8518056 130.800783,30.0552778 C130.77913,29.9343056 130.611326,29.8440278 130.533739,29.7248611 C130.33887,29.42875 130.189109,29.1001389 129.96537,28.8311111 C129.483609,28.2497222 129.059587,27.5293056 128.435283,27.1790278 C127.737,26.7872222 127.769478,27.7875 127.388761,28.0763889 C127.307565,28.1377778 127.181261,28.1359722 127.100065,28.1973611 C126.708522,28.5006944 126.205109,28.7426389 125.966935,29.1416667 C125.499609,29.9252778 125.169413,30.79375 124.810348,31.6369444 C124.703891,31.8843056 124.561348,32.3519444 124.646152,32.4097222 C125.539304,33.02 124.81937,33.8631944 125.005217,34.4897222 L125.005217,34.4897222 Z" id="Fill-12" sketch:type="MSShapeGroup"></path>
            <path d="M113.2535,43.8515278 C112.571457,43.5156944 111.97963,43.2827778 111.45637,42.9415278 C111.210978,42.7826389 110.95837,42.4161111 110.960174,42.1434722 C110.963783,41.2226389 111.167674,40.2963889 111.133391,39.3791667 C111.064826,37.5519444 111.595304,35.6759722 110.581261,33.9047222 C110.314217,33.4406944 110.384587,32.6643056 110.537957,32.0955556 C110.99987,30.3893056 110.548783,29.16875 109.112522,28.145 C108.376348,27.6213889 107.701522,26.9515278 107.16563,26.2238889 C106.83363,25.7743056 106.810174,25.0954167 106.591848,24.3190278 C105.271065,23.8784722 106.907609,22.6579167 106.155196,21.6738889 L109.716978,21.6738889 C109.818022,22.4484722 109.899217,23.4108333 110.085065,24.3533333 C110.159043,24.7343056 110.380978,25.2922222 110.66787,25.3933333 C112.053609,25.8772222 112.517326,27.1266667 113.212,28.1955556 C113.267935,28.2822222 113.374391,28.3345833 113.53137,28.4627778 C114.040196,27.4986111 114.55263,26.5633333 115.030783,25.61 C115.541413,24.5880556 115.981674,23.5281944 116.521174,22.5225 C117.013761,21.6070833 117.926761,21.4806944 118.8145,22.1072222 C118.9805,22.2245833 119.234913,22.2372222 119.372043,22.3744444 C119.686,22.6904167 120.202043,23.0695833 120.182196,23.3945833 C120.149717,23.8856944 120.17137,24.4815278 119.36663,24.8065278 C118.666543,25.0881944 118.051261,25.8898611 117.672348,26.6048611 C116.708826,28.4266667 115.900478,30.3315278 115.023565,32.2002778 C114.217022,33.9227778 114.305435,35.7319444 114.401065,37.5681944 C114.512935,39.7023611 114.328891,41.8130556 113.2535,43.8515278" id="Fill-13" sketch:type="MSShapeGroup"></path>
        </g>
    </g>
</svg>