<svg width="52" height="48" viewBox="0 0 52 48" xmlns="http://www.w3.org/2000/svg" xmlns:sketch="http://www.bohemiancoding.com/sketch/ns"><title>twitter</title><desc>Created with Sketch.</desc><g sketch:type="MSLayerGroup" fill="#000"><path d="M29.93 47.798c-7.2-.742-13.666-2.222-19.698-6.523-9.59-6.833-11.044-15.972-9.316-26.33.913-5.467 5.362-8.359 9.78-10.933 2.398-1.397 4.936-2.836 7.6-3.453 4.719-1.09 9.521-1.143 14.191.818 3.109 1.31 6.344 2.328 9.533 3.445 6.313 2.211 8.856 7.344 9.902 13.288.944 5.361-.167 10.6-2.139 15.68-1.967 5.073-6.268 7.765-10.363 10.793-2.946 2.177-6.344 2.499-9.491 3.214zm-7.25-46.246c-1.579.326-3.516.36-5.088 1.128-3.497 1.707-6.835 3.74-10.187 5.72-2.808 1.658-4.395 4.217-5.176 7.344-1.37 5.474-.122 10.539 2.036 15.59 1.598 3.74 3.444 7.023 7.695 8.207.354.098.666.352.982.564 3.988 2.665 8.258 4.509 13.148 4.778 5.099.284 10.184-.129 14.385-3.093 6.001-4.236 9.723-10.146 10.069-17.645.27-5.815-.799-11.369-5.739-15.264-6.386-5.031-14.077-6.303-22.126-7.329z" sketch:type="MSShapeGroup"/><path d="M24.99 19.22c1.754-6.284 5.739-8.329 11.873-6.356.51.167 1.218-.178 1.8-.379.761-.257 1.488-.61 2.755-1.143l-.483 3.025 1.678.575c-1.134 2.075-2.306 3.964-3.22 5.974-.773 1.685-1.05 3.6-1.884 5.247-2.321 4.592-5.541 7.814-10.968 9.264-4.593 1.23-8.616 1.06-12.756-.799-.643-.288-1.149-.867-2.089-1.598 2.702-.439 4.78-.776 6.443-1.049l-4.019-4.494 1.229-.867c-.814-1.329-1.804-2.726-2.561-4.232-.906-1.802-.769-1.946.871-2.389 0-2.033-.042-3.967.023-5.902.023-.575.346-1.143.529-1.715.434.345.948.625 1.29 1.041 2.496 3.029 5.781 4.709 9.487 5.796zm-8.802 14.973c2.896 1.162 5.484.988 8.087.481 5.491-1.071 9.864-3.468 11.793-9.184 1.088-3.233 2.58-6.33 3.958-9.646-2.999-1.726-6.233-3.577-9.936-1.779-2.443 1.181-3.912 3.275-2.774 6.254-2.573.916-4.852.413-6.861-.886-1.907-1.227-3.596-2.786-5.381-4.202l-.506.235c.453 1.991.902 3.983 1.381 6.103l-2.398.587c1.758 1.685 3.212 3.074 4.875 4.664l-2.245 1.741 4.567 1.995c.011.973.011.973-4.559 3.638z" sketch:type="MSShapeGroup"/></g></svg>