<?xml version="1.0" encoding="UTF-8" standalone="no"?>
<svg width="51px" height="48px" viewBox="0 0 51 48" version="1.1" xmlns="http://www.w3.org/2000/svg" xmlns:xlink="http://www.w3.org/1999/xlink" xmlns:sketch="http://www.bohemiancoding.com/sketch/ns">
    <!-- Generator: Sketch 3.1.1 (8761) - http://www.bohemiancoding.com/sketch -->
    <title>share-email</title>
    <desc>Created with Sketch.</desc>
    <defs></defs>
    <g id="Page-1" stroke="none" stroke-width="1" fill="none" fill-rule="evenodd" sketch:type="MSPage">
        <g id="Imported-Layers" sketch:type="MSLayerGroup" fill="#000000">
            <path d="M24.6971143,0.695272727 C25.4475429,0.661818182 26.0376857,0.541090909 26.5972286,0.626909091 C27.9873429,0.836363636 29.4226286,0.866909091 30.7063714,1.56945455 C31.5777429,2.04509091 32.4534857,2.52509091 33.3656571,2.90909091 C35.3342571,3.73672727 37.3626,4.43054545 39.2976857,5.32363636 C40.29,5.78181818 41.1453429,6.54254545 42.0487714,7.18545455 C43.4607429,8.19054545 45.0038571,9.06909091 46.2205714,10.2749091 C47.0657143,11.1112727 47.8948286,12.1105455 48.195,13.4210909 C48.4776857,14.6545455 49.1334,15.8050909 49.3942286,17.04 C49.8022286,18.976 50.4841714,20.8989091 50.0018571,22.9483636 C49.8459429,23.6116364 49.9654286,24.3374545 49.8240857,25.0065455 C49.4510571,26.7825455 49.0576286,28.5585455 48.5694857,30.3054545 C48.1614857,31.7672727 47.7054,33.232 47.0904857,34.6152727 C46.6402286,35.6276364 45.9349714,36.5381818 45.2719714,37.4429091 C44.6162571,38.3374545 43.9678286,39.2756364 43.1445429,39.9985455 C42.0108857,40.9934545 40.7475429,41.8545455 39.4798286,42.6807273 C38.4102857,43.3789091 37.2678857,43.9665455 36.1371429,44.5643636 C35.0646857,45.1316364 33.9630857,45.6450909 32.8789714,46.1876364 C32.7186857,46.2690909 32.5846286,46.4014545 32.4214286,46.4770909 C32.1533143,46.5992727 31.8400286,46.832 31.6010571,46.7781818 C30.5227714,46.5338182 29.5464857,46.7767273 28.4886,47.0094545 C27.3214286,47.2654545 26.0376857,47.0618182 24.8136857,46.9629091 C23.8432286,46.8843636 22.8786,46.6967273 21.9256286,46.4901818 C21.3354857,46.3621818 20.7803143,46.0858182 20.1974571,45.9156364 C18.9996857,45.5636364 17.7465429,45.3527273 16.6026857,44.8727273 C15.2519143,44.3069091 13.9623429,43.5709091 12.7048286,42.8130909 C11.5857429,42.1367273 10.5249429,41.3556364 9.48017143,40.5672727 C8.98911429,40.1963636 8.59714286,39.6930909 8.15417143,39.2552727 C7.35565714,38.4654545 6.58337143,37.6916364 5.52402857,37.1665455 C4.85665714,36.8349091 4.50402857,35.9185455 3.91534286,35.3658182 C2.45237143,33.9927273 2.03125714,32.1076364 1.37262857,30.3490909 C0.769371429,28.7418182 0.310371429,27.0807273 0.444428571,25.3294545 C0.464828571,25.0516364 0.603257143,24.784 0.677571429,24.5076364 C1.23711429,22.4043636 1.94674286,20.3258182 2.3052,18.1890909 C2.59662857,16.4421818 3.1314,14.8 3.77545714,13.1898182 C4.19365714,12.1454545 4.87122857,11.2029091 5.45262857,10.2254545 C6.35605714,8.71127273 7.35565714,7.248 8.1702,5.68727273 C9.0066,4.08145455 10.5599143,3.56072727 12.0097714,2.87854545 C13.1623714,2.33745455 14.3412,1.75563636 15.5739429,1.49818182 C17.1520286,1.16654545 18.5246571,0.0887272727 20.2703143,0.336 C20.9857714,0.436363636 21.7522286,0.0989090909 22.4953714,0.0945454545 C23.1583714,0.0916363636 23.8242857,0.257454545 24.4814571,0.391272727 C24.5965714,0.414545455 24.6679714,0.651636364 24.6971143,0.695272727 L24.6971143,0.695272727 Z M22.7052,1.94763636 C22.6906286,1.87927273 22.6760571,1.81090909 22.6600286,1.74254545 C20.8196571,2.04509091 18.9414,2.21090909 17.1491143,2.69381818 C15.5739429,3.11709091 14.1197143,3.968 12.5620286,4.48145455 C12.0636857,4.64581818 11.7912,4.91490909 11.4764571,5.23781818 C11.0436857,5.68145455 10.608,6.11927273 10.1533714,6.53818182 C9.53991429,7.104 8.8026,7.57090909 8.30717143,8.22254545 C7.51011429,9.27272727 6.95494286,10.5090909 6.13894286,11.5418182 C4.9878,12.9963636 4.4676,14.7345455 3.927,16.4130909 C3.32228571,18.2909091 3.2232,20.3243636 2.7438,22.2501818 C2.38825714,23.6829091 2.01668571,25.0516364 2.50191429,26.5294545 C2.72485714,27.2101818 2.70737143,27.968 2.8866,28.6676364 C3.162,29.7425455 3.42428571,30.8363636 3.85705714,31.8516364 C4.30585714,32.8989091 4.94845714,33.8647273 5.51528571,34.8610909 C5.58231429,34.9789091 5.69888571,35.0807273 5.81545714,35.1578182 C7.72868571,36.4203636 9.81385714,37.4181818 11.5332857,38.9847273 C12.2953714,39.6785455 13.2570857,40.1498182 14.0497714,40.816 C14.7681429,41.4196364 15.4544571,41.952 16.4657143,41.7992727 C16.5910286,41.7803636 16.7425714,41.9272727 16.881,42.0014545 C17.8164857,42.5090909 18.7053429,43.1665455 19.7020286,43.4850909 C20.8604571,43.8574545 22.1121429,43.9563636 23.3288571,44.1309091 C24.4566857,44.2923636 25.5932571,44.512 26.724,44.4989091 C28.0631143,44.4829091 29.4036857,44.2676364 30.7369714,44.0974545 C31.9959429,43.9374545 33.2680286,43.808 34.4993143,43.5156364 C36.3498857,43.0763636 37.6700571,41.6407273 39.3035143,40.7810909 C39.4783714,40.6909091 39.6561429,40.5861818 39.7945714,40.4494545 C41.0564571,39.2029091 42.3212571,37.9607273 43.5612857,36.6923636 C44.4647143,35.7687273 45.3273429,34.8189091 45.7440857,33.5374545 C46.2657429,31.936 46.7626286,30.3141818 47.4518571,28.784 C48.3727714,26.736 48.4033714,24.5585455 48.3844286,22.4363636 C48.3684,20.5178182 47.8511143,18.5934545 47.4591429,16.6923636 C47.1473143,15.1781818 46.3808571,13.8385455 45.4045714,12.6516364 C44.8625143,11.9927273 44.1995143,11.4283636 43.5700286,10.8450909 C43.2815143,10.5789091 42.9288857,10.3854545 42.6316286,10.1265455 C41.7996,9.40218182 41.0637429,8.528 40.137,7.95927273 C38.8037143,7.14181818 37.3684286,6.46545455 35.9185714,5.87054545 C34.0971429,5.12290909 32.4039429,4.05672727 30.4280571,3.68290909 C29.7038571,3.54472727 28.9986,3.28727273 28.2977143,3.04727273 C27.6492857,2.82618182 27.0372857,2.44509091 26.3742857,2.33163636 C25.1648571,2.12654545 23.9306571,2.06836364 22.7052,1.94763636 L22.7052,1.94763636 Z" id="Fill-1" sketch:type="MSShapeGroup"></path>
            <path d="M11.7445714,33.0472727 C11.6425714,32.8538182 11.5362,32.5149091 11.3234571,32.2690909 C10.5468,31.3672727 10.7216571,30.24 10.6444286,29.216 C10.4870571,27.1592727 10.5162,25.088 10.4506286,23.024 C10.4112857,21.8138182 10.3078286,20.6050909 10.2874286,19.3934545 C10.2743143,18.6458182 10.3398857,17.8938182 10.4185714,17.1476364 C10.4506286,16.8596364 10.8775714,16.5832727 10.3981714,16.3083636 C10.6138286,16.0872727 10.7959714,15.7323636 11.0509714,15.6683636 C13.7481429,14.9832727 16.5210857,15.0225455 19.2765429,14.8770909 C22.1616857,14.7229091 25.0468286,14.5396364 27.9305143,14.3665455 C29.8058571,14.2530909 31.6812,14.1309091 33.5565429,14.0189091 C35.1419143,13.9258182 36.7272857,13.8152727 38.3155714,13.7672727 C39.1738286,13.7410909 40.4546571,14.7229091 40.5129429,15.456 C40.596,16.4770909 40.6018286,17.5054545 40.5974571,18.5309091 C40.5814286,21.7687273 40.5318857,25.0065455 40.5231429,28.2443636 C40.5202286,29.2523636 40.6134857,30.2589091 40.6513714,31.2669091 C40.6950857,32.4407273 38.9363143,33.8341818 37.6030286,33.8269091 C34.68,33.8109091 31.7540571,33.9025455 28.8310286,33.8894545 C27.5050286,33.8836364 26.1804857,33.7323636 24.8559429,33.6523636 C24.4508571,33.6290909 24.0428571,33.6174545 23.6363143,33.6145455 C22.0305429,33.6043636 20.4233143,33.5810909 18.8175429,33.6 C18.0394286,33.6101818 17.2613143,33.7105455 16.4817429,33.7570909 C15.4194857,33.8196364 14.3572286,33.8807273 13.2935143,33.9098182 C13.1288571,33.9141818 12.9583714,33.7425455 12.7922571,33.648 C12.4644,33.4618182 12.1365429,33.2727273 11.7445714,33.0472727 L11.7445714,33.0472727 Z M12.1904571,18.3941818 C12.1904571,19.4152727 12.1613143,20.2327273 12.1977429,21.0487273 C12.24,22.0087273 12.444,22.9730909 12.3886286,23.9243636 C12.2560286,26.1701818 11.9544,28.4 12.2837143,30.6632727 C12.444,31.7629091 12.9306857,32.5309091 14.0293714,32.6050909 C15.4194857,32.6981818 16.8198,32.7490909 18.2099143,32.6967273 C20.1712286,32.6225455 22.1281714,32.3316364 24.0865714,32.3229091 C27.2179714,32.3083636 30.3508286,32.4901818 33.4822286,32.5061818 C35.0180571,32.5149091 36.5611714,32.3825455 38.0882571,32.2123636 C38.6040857,32.1541818 39.2802,32.0290909 39.3049714,31.2203636 C39.3268286,30.5018182 39.4346571,29.7832727 39.423,29.0661818 C39.3574286,25.4749091 39.2802,21.8836364 39.1665429,18.2938182 C39.1519714,17.8676364 38.8911429,17.4472727 38.7279429,16.976 C37.7064857,17.7134545 36.8351143,18.2894545 36.0264,18.9425455 C35.4042,19.4443636 34.884,20.0712727 34.2749143,20.592 C32.8789714,21.7847273 31.4582571,22.9498182 30.0433714,24.1192727 C29.1588857,24.8509091 28.2860571,25.5956364 27.3651429,26.2778182 C27.1363714,26.4450909 26.6496857,26.5381818 26.4384,26.4101818 C25.4446286,25.8050909 24.5208,25.088 23.5416,24.4538182 C22.4050286,23.7178182 21.2655429,22.9818182 20.0808857,22.3272727 C18.5975143,21.5098182 17.0733429,20.7636364 15.5579143,20.0072727 C14.5029429,19.4807273 13.4319429,18.9876364 12.1904571,18.3941818 L12.1904571,18.3941818 Z M12.7033714,17.0836364 C14.9692286,18.7287273 17.7378,19.3381818 20.1479143,20.6807273 C22.5696857,22.0276364 25.0570286,23.2610909 27.5866286,24.5818182 C30.7369714,21.3149091 34.2632571,18.6472727 38.0722286,15.8429091 C37.3130571,15.5563636 36.7068857,15.136 36.0992571,15.136 C34.0359429,15.1316364 31.9668,15.1985455 29.9136857,15.3905455 C28.5104571,15.5214545 27.1480286,15.8298182 25.7010857,15.6654545 C24.6621429,15.5490909 23.5765714,15.8414545 22.5114,15.9447273 C21.2349429,16.0683636 19.9468286,16.3490909 18.6834857,16.2647273 C16.6566,16.1309091 14.7054857,16.2865455 12.7033714,17.0836364 L12.7033714,17.0836364 Z" id="Fill-3" sketch:type="MSShapeGroup"></path>
        </g>
    </g>
</svg>