<svg width="51" height="48" viewBox="0 0 51 48" xmlns="http://www.w3.org/2000/svg" xmlns:sketch="http://www.bohemiancoding.com/sketch/ns"><title>facebook-hover</title><desc>Created with Sketch.</desc><g sketch:type="MSLayerGroup" fill="none"><path d="M.391 24.394c.864-3.343 1.564-6.739 2.626-10.017 1.724-5.319 6.142-8.264 10.522-11.183 7.626-5.08 15.466-3.271 23.115-.329 3.102 1.192 5.819 3.445 8.604 5.368 3.577 2.472 5.233 6.235 6.1 10.278.308 1.45-.529 3.104-.518 4.664.042 6.065-2.074 11.497-4.738 16.782-.369.731-.715 1.688-1.351 2.037-3.36 1.847-6.648 4.092-10.267 5.141-4.559 1.321-9.354 1.121-13.94-.784-3.258-1.355-6.633-2.415-9.944-3.638-6.488-2.389-8.597-7.859-9.719-13.931-.255-1.382-.038-2.851-.038-4.278l-.453-.11zm28.717 21.613c10.709-.53 16.859-5.849 19.241-14.882.837-3.18 1.069-6.542 1.336-9.839.396-4.865-3.356-10.835-7.752-12.728-.693-.295-1.385-.621-2.013-1.03-4-2.627-8.277-4.395-13.141-4.732-4.654-.326-9.331.121-13.182 2.502-8.163 5.058-12.007 12.697-11.048 22.332.388 3.911 1.553 7.647 4.761 10.441 6.519 5.675 14.537 6.951 21.798 7.935z" fill="#000" sketch:type="MSShapeGroup"/><path d="M29.107 46.007c-7.261-.984-15.279-2.26-21.798-7.935-3.208-2.794-4.373-6.53-4.761-10.441-.959-9.635 2.885-17.274 11.048-22.332 3.851-2.381 8.528-2.828 13.182-2.502 4.863.337 9.141 2.105 13.141 4.732.628.409 1.321.734 2.013 1.03 4.395 1.893 8.148 7.863 7.752 12.728-.266 3.297-.499 6.659-1.336 9.839-2.382 9.033-8.532 14.352-19.241 14.882zm-7.078-21.719c0 4.278.038 8.48-.023 12.682-.015 1.215-.08 2.131 1.629 1.76 1.366-.295 2.801-.602 4.171-.488 1.667.14 2.078-.284 2.013-1.95-.148-3.892-.046-7.791-.046-11.732.453-.072.936-.049 1.332-.227.837-.375 2.222-.75 2.321-1.31.259-1.476.004-3.055-.198-4.573-.023-.182-1.02-.435-1.484-.318-.841.212-1.956 1.041-2.009-.462-.027-.723 1.081-1.616 1.853-2.196.453-.337 1.256-.208 1.815-.276.076-1.056.304-1.889.156-2.646-.202-1.034-.4-2.559-1.096-2.919-4.491-2.328-9.735.405-10.922 5.152-.236.946-.034 1.999-.034 2.964-4.045.182-4.045.182-4.182 3.21-.118 2.646-.065 2.688 4.704 3.328z" fill="#fff" sketch:type="MSShapeGroup"/><path d="M22.029 24.288c-4.768-.64-4.822-.681-4.704-3.328.137-3.029.137-3.029 4.182-3.21 0-.965-.202-2.018.034-2.964 1.187-4.747 6.431-7.481 10.922-5.152.696.36.894 1.885 1.096 2.919.148.757-.08 1.59-.156 2.646-.559.068-1.362-.061-1.815.276-.773.579-1.88 1.473-1.853 2.196.053 1.503 1.168.674 2.009.462.464-.117 1.461.136 1.484.318.202 1.518.457 3.097.198 4.573-.099.56-1.484.935-2.321 1.31-.396.178-.879.155-1.332.227 0 3.941-.103 7.84.046 11.732.065 1.666-.346 2.09-2.013 1.95-1.37-.114-2.805.193-4.171.488-1.709.371-1.644-.545-1.629-1.76.061-4.202.023-8.404.023-12.682zm-2.462-4.698c-.095 1.461-.559 3.229 1.792 2.82 1.918-.329 2.055.534 2.047 1.942-.023 4.07-.008 8.139-.008 12.217l4.993-.326c-.179-3.839-.316-7.647-.556-11.448-.095-1.499.255-2.332 1.956-2.192 1.876.155 2.428-.814 1.975-2.578-1.332.117-2.729.992-3.672-.931-1.324-2.703-.833-4.108 2.181-5.463.567-.257.936-.943 1.393-1.427-.571-.413-1.096-1.087-1.72-1.196-3.889-.681-6.949 2.4-6.431 6.315.198 1.484-.206 2.533-2.055 2.279-.582-.079-1.184-.011-1.895-.011z" fill="#000" sketch:type="MSShapeGroup"/><path d="M19.567 19.59c.712 0 1.313-.068 1.895.011 1.849.254 2.253-.795 2.055-2.279-.518-3.914 2.542-6.996 6.431-6.315.624.11 1.149.784 1.72 1.196-.457.485-.826 1.17-1.393 1.427-3.014 1.355-3.505 2.76-2.181 5.463.944 1.923 2.34 1.049 3.672.931.453 1.764-.099 2.733-1.975 2.578-1.701-.14-2.051.693-1.956 2.192.24 3.801.377 7.609.556 11.448l-4.993.326c0-4.077-.015-8.147.008-12.217.008-1.408-.129-2.271-2.047-1.942-2.352.409-1.888-1.359-1.792-2.82" fill="#fff" sketch:type="MSShapeGroup"/></g></svg>